<?xml version="1.0" encoding="utf-8"?>
<!-- Generator: Adobe Illustrator 16.2.1, SVG Export Plug-In . SVG Version: 6.00 Build 0)  -->
<!DOCTYPE svg PUBLIC "-//W3C//DTD SVG 1.1//EN" "http://www.w3.org/Graphics/SVG/1.1/DTD/svg11.dtd">
<svg version="1.1" xmlns="http://www.w3.org/2000/svg" xmlns:xlink="http://www.w3.org/1999/xlink" x="0px" y="0px"
	 width="626.969px" height="73.497px" viewBox="0 0 626.969 73.497" enable-background="new 0 0 626.969 73.497"
	 xml:space="preserve">
<g id="base" display="none">
</g>
<g id="book3" display="none">
</g>
<g id="_x38_" display="none">
</g>
<g id="_x37_" display="none">
</g>
<g id="_x36_" display="none">
</g>
<g id="_x35_">
	<g>
		<path d="M51.085,25.815c-0.191,0.384-0.672,0.672-1.056,0.912C44.604,42.425,37.116,51.882,24.155,58.41
			c-1.008-1.344-2.784-3.408-4.513-4.608c12.001-5.616,19.01-14.065,22.61-24.818H28.14c-2.4,3.648-6.289,7.873-10.225,10.993
			c-1.152-1.152-3.312-2.928-4.945-3.937c6.241-4.752,12.146-12.337,15.074-20.354l7.632,1.776
			c-0.191,0.576-0.815,0.864-1.584,0.864c-0.768,1.728-1.728,3.408-2.544,4.992h13.681l0.864-0.432L51.085,25.815z"/>
		<path d="M62.32,28.6c1.344,2.881,2.784,7.297,3.408,10.177l-4.656,1.296c-0.624-2.976-1.921-7.2-3.265-10.177L62.32,28.6z
			 M90.259,29.704c-0.145,0.384-0.576,0.672-1.2,0.624c-3.937,14.161-11.377,22.514-22.322,26.93c-0.624-0.96-2.16-2.88-3.265-3.792
			c10.273-3.84,17.474-11.473,20.69-25.73L90.259,29.704z M73.793,26.584c1.008,2.928,1.92,7.536,2.305,10.561l-4.896,1.008
			c-0.385-3.168-1.345-7.536-2.353-10.608L73.793,26.584z"/>
		<path d="M119.82,43.721l1.632,13.97l-6.24,0.672l-1.536-13.873l-16.85,2.208l-0.672-5.616l16.897-2.16l-1.008-8.401l-13.729,1.776
			l-0.672-5.616l13.777-1.824l-1.009-8.688l7.633-0.288c0.048,0.479-0.336,0.96-1.248,1.2l0.72,7.008l13.346-1.775l0.672,5.712
			l-13.345,1.729l0.96,8.353l16.945-2.112l0.672,5.568L119.82,43.721z"/>
		<path d="M142.297,33.304h40.083v6.049h-38.067c-0.288,0.48-0.96,0.816-1.632,0.912L142.297,33.304z"/>
		<path d="M213.53,25.815c-0.192,0.432-0.769,0.816-1.44,0.816c-1.968,16.417-6.769,25.922-15.025,25.922
			c-5.232,0-9.024-4.416-9.024-12.577c0-12.289,9.793-21.313,22.034-21.313c13.585,0,20.546,8.064,20.546,18.481
			c0,11.281-5.809,17.138-17.906,20.21c-0.912-1.44-2.256-3.457-3.84-5.089c10.944-2.16,15.313-7.393,15.313-15.025
			c0-7.729-5.377-12.961-14.21-12.961c-0.863,0-1.632,0.096-2.448,0.192L213.53,25.815z M205.897,24.855
			c-7.297,1.729-11.953,8.017-11.953,14.881c0,4.033,1.2,6.865,3.312,6.865C201.961,46.602,205.081,36.088,205.897,24.855z"/>
		<path d="M252.942,16.839c-0.096,0.672-0.72,0.912-1.584,1.008c-0.432,2.353-1.151,6.48-1.68,9.265
			c1.248-0.144,2.977-0.288,3.937-0.288c7.92-0.048,10.368,5.521,10.368,13.01v0.048c-0.191,10.608-3.168,18.146-10.513,18.146
			c-1.92,0-4.8-0.912-8.641-3.937c0.769-1.488,1.536-3.456,2.017-5.185c3.264,2.305,5.136,2.881,6.433,2.881
			c2.016,0,2.976-1.633,3.744-4.369c0.624-2.112,1.008-6.096,1.008-7.872c-0.048-4.753-1.488-7.153-4.896-7.153
			c-1.152,0-2.784,0.097-4.608,0.337c-2.16,8.784-4.801,17.329-8.881,25.058l-5.568-2.736c3.937-7.104,6.385-13.777,8.305-21.649
			c-1.729,0.288-5.185,0.768-7.297,1.152l-0.527-5.953l8.929-1.008c0.624-3.505,1.248-7.537,1.68-11.569L252.942,16.839z
			 M271.521,40.505c-1.104-6.385-5.377-12.385-9.505-15.89l4.656-3.312c4.992,3.696,9.985,10.802,11.041,16.897L271.521,40.505z"/>
		<path d="M307.558,27.111c-3.648,1.2-8.448,1.969-13.152,2.353c-1.873,10.081-4.849,20.978-8.257,28.946l-6.241-2.208
			c3.793-7.585,6.577-16.705,8.209-26.402c-0.768,0.048-4.177,0.048-5.088,0.048c-1.009,0-1.969,0-2.785-0.048l-0.096-5.713
			c1.536,0.097,4.032,0.097,6.337,0.097c0.768,0,1.632-0.048,2.448-0.048c0.384-2.784,0.72-6.097,0.96-8.881l7.824,0.672
			c-0.048,0.576-0.624,1.008-1.344,1.152c-0.24,1.728-0.624,4.32-0.96,6.48c3.792-0.48,7.729-1.2,10.993-2.448L307.558,27.111z
			 M320.279,57.546c-1.488,0.097-3.169,0.145-4.896,0.145c-3.696,0-7.585-0.24-10.177-0.864c-4.272-1.008-6.385-3.937-6.337-7.297
			c0.048-2.304,1.056-4.849,3.072-7.104l5.137,1.872c-1.488,1.584-2.208,3.024-2.208,4.225c0,2.641,2.448,3.312,9.792,3.312
			c1.921,0,3.937-0.097,5.713-0.24L320.279,57.546z M302.134,33.353c4.8-1.536,11.521-2.4,17.137-2.353v5.761
			c-5.184-0.145-11.04,0.432-15.841,1.775L302.134,33.353z"/>
		<path d="M336.126,19.959c0.048,0.576-0.72,0.96-1.2,1.152c0.24,2.832,0.769,6.385,1.345,9.36c2.64-1.632,5.952-2.976,9.217-3.696
			c0.575-3.12,1.248-7.969,1.487-10.753l7.393,1.104c-0.048,0.479-0.624,0.912-1.439,1.008c-0.433,2.592-0.912,5.809-1.345,7.921
			c0.24-0.048,0.433-0.048,1.488-0.048c7.873,0,11.905,5.424,11.905,14.881c0,3.168-0.336,5.377-0.769,7.201
			c1.2,1.008,2.545,2.111,3.696,3.264l-3.216,5.568c-1.008-1.2-1.968-2.304-2.832-3.12c-1.776,2.881-4.417,4.608-8.113,4.608
			c-5.376,0-7.872-3.504-7.872-7.248c0-4.32,4.032-7.009,8.353-7.009c1.392,0,3.168,0.432,4.752,1.104
			c0.145-0.912,0.336-2.352,0.336-3.408c0-5.904-2.016-10.465-7.152-10.465c-0.768,0-1.296,0-1.872,0.145
			c-1.776,6.624-3.792,11.377-6.673,15.841c0.433,0.48,0.912,0.912,1.393,1.296l-3.36,4.849c-0.576-0.432-1.152-1.056-1.68-1.632
			c-2.593,2.832-5.137,4.416-8.449,4.416c-3.937,0-6.769-3.744-6.769-9.169c0-4.752,2.496-9.504,6.528-13.152
			c-1.056-4.272-1.968-9.121-2.64-13.777L336.126,19.959z M336.846,47.705c-1.392-2.304-2.64-5.04-3.647-8.064
			c-1.824,2.256-3.024,4.801-3.024,7.345c0,2.16,1.008,3.601,2.16,3.601C333.773,50.586,335.214,49.77,336.846,47.705z
			 M343.95,32.584c-2.208,0.624-4.704,1.729-6.384,3.072c0.672,2.448,1.584,4.753,2.64,6.769
			C341.742,39.497,343.039,36.28,343.95,32.584z M353.743,53.514c2.688,0,3.648-2.544,3.937-3.216
			c-1.296-0.864-2.784-1.44-3.937-1.44c-2.016,0-3.312,1.008-3.312,2.305C350.432,52.649,351.68,53.514,353.743,53.514z"/>
		<path d="M409.314,33.496c-3.36,1.2-8.4,2.017-13.297,2.592c1.439,2.209,4.08,4.705,7.057,5.953l-3.36,4.704
			c-2.496-1.44-3.648-2.064-7.441-2.064c-0.863,0-1.775,0.049-2.64,0.192l-1.44-4.416c0.624-0.048,1.393-0.097,2.16-0.097
			c0.769,0,1.536,0.049,2.112,0.097c-0.72-0.816-1.824-2.257-2.592-3.744c-3.505,0.239-7.297,0.336-10.321,0.336
			c-2.353,0-5.809,0-8.785-0.097l-0.096-5.04c1.92,0.048,4.225,0.096,6.385,0.096c3.696,0,7.393,0,11.089-0.24
			c-0.336-1.151-0.96-3.072-1.344-4.656c-1.585,0.145-3.696,0.192-5.521,0.192c-2.641,0-5.232,0-7.585-0.096l0.048-5.089
			c2.544,0.145,5.089,0.145,7.297,0.145c1.44,0,3.36,0,4.801-0.145c-0.385-1.968-0.721-4.561-1.009-6.816l7.633,0.144
			c0,0.576-0.479,1.009-1.296,1.152c0.144,1.536,0.336,3.456,0.624,5.089c3.889-0.336,8.881-1.248,12.097-2.4l1.152,5.137
			c-3.744,1.199-8.064,1.823-12.241,2.256c0.433,1.632,0.864,3.456,1.248,4.656c5.089-0.576,10.321-1.632,14.258-3.072
			L409.314,33.496z M400.817,57.786c-1.824,0.192-4.272,0.336-7.633,0.336c-1.104,0-2.304-0.048-3.647-0.048
			c-8.305-0.096-14.065-2.928-14.065-8.448c0-3.024,2.448-5.953,5.232-7.681l3.984,3.696c-1.969,1.008-3.024,2.496-3.072,3.696
			c0,3.312,5.521,3.456,8.929,3.456c3.312,0,7.776-0.192,10.561-0.528L400.817,57.786z"/>
		<path d="M453.878,37.192c-0.144,0.048-0.24,0.096-0.384,0.096c-0.24,0-0.48-0.096-0.672-0.239
			c-3.601,1.056-8.353,2.592-11.905,3.936c0.096,0.961,0.096,2.064,0.096,3.217s0,2.4-0.096,3.792l-6.049,0.433
			c0.145-1.776,0.24-3.745,0.192-5.137c-3.744,1.872-6.48,4.32-6.48,6.145c0,2.112,2.64,2.977,8.064,2.977
			c4.225,0,8.881-0.145,11.905-0.528l0.096,5.568c-2.496,0.288-6.624,0.336-12.049,0.336c-9.265,0-13.873-2.064-13.873-8.017
			c0-3.84,4.992-8.209,11.761-11.665c-0.144-1.392-0.864-2.688-2.304-2.688c-3.169,0-6.529,1.633-10.466,6.097
			c-1.151,1.345-2.928,3.217-4.992,5.232l-4.272-4.128c2.017-1.729,4.369-3.793,5.856-5.568c2.112-2.448,4.465-6.673,5.377-10.033
			l-1.824,0.048c-1.056,0-6.24,0.048-7.44,0v-5.425c2.688,0.145,6.145,0.145,8.257,0.145l2.544-0.048
			c0.432-1.969,0.72-3.889,1.008-6.337l7.345,0.721c-0.096,0.479-0.528,0.815-1.2,0.911c-0.24,1.536-0.624,2.977-1.008,4.465
			c3.792-0.096,9.457-0.912,14.593-2.641l0.96,5.665c-4.607,1.488-11.232,2.064-17.137,2.352c-0.864,2.545-1.681,4.609-2.353,5.617
			h0.048c1.729-1.345,4.225-2.353,6.577-2.353c2.784,0,5.232,1.969,5.952,5.616c3.696-1.584,8.209-3.216,11.665-4.608
			L453.878,37.192z"/>
		<path d="M470.882,16.743c-0.096,0.575-0.527,0.96-1.439,1.104c-0.433,6.385-0.912,17.617-0.912,24.674
			c0,6.145,3.12,9.025,8.256,9.025c4.753,0,10.033-2.448,15.506-7.921c0.72,1.344,2.592,4.416,3.504,5.425
			c-6,5.952-12.337,8.736-19.058,8.736c-10.656,0-14.785-5.809-14.785-15.266c0-6.433,0.336-20.354,0.672-26.162L470.882,16.743z"/>
		<path d="M535.16,56.01c-3.217-2.688-7.825-5.76-11.665-7.536c0.048,2.592-0.721,4.944-1.681,6.24
			c-0.96,2.16-3.792,3.456-8.208,3.553c-6.817,0.048-12.338-3.36-12.481-8.737c-0.048-5.809,5.664-8.641,11.665-8.736
			c1.104,0,3.12,0.096,4.272,0.288c0-0.769-0.145-1.44-0.192-2.112c-0.432-6.48-1.008-17.666-1.056-23.282l7.776,0.384
			c0,0.48-0.384,0.912-1.2,1.104c-0.048,1.152,0.048,6.864,0.048,8.161c2.929-0.097,9.649-0.721,14.546-1.633l0.576,6.001
			c-4.369,0.72-10.705,1.248-15.074,1.344c0.049,3.36,0.385,6.385,0.48,8.641c0.096,0.721,0.192,1.584,0.24,2.4
			c5.521,1.776,11.281,4.849,15.89,8.257L535.16,56.01z M513.03,45.737c-5.041,0-6.433,2.016-6.433,3.601
			c0.048,2.592,2.928,3.648,6.192,3.648c2.832,0,4.608-1.488,4.608-3.601c0-0.912-0.048-2.017-0.145-3.024
			C515.814,45.93,514.326,45.737,513.03,45.737z"/>
		<path d="M544.725,31.816c7.44-2.017,16.562-4.033,20.401-4.033c6.577,0,12.241,3.312,12.193,11.81
			c-0.048,9.312-6.961,15.457-20.21,19.441c-0.816-1.44-2.688-3.84-4.08-5.28c11.377-2.784,17.569-7.873,17.569-13.825
			c0-3.841-1.92-6.288-5.809-6.288c-4.128,0-10.513,1.536-16.705,3.936c0.048,0.48-0.528,1.009-1.009,1.2L544.725,31.816z
			 M552.549,15.446c6.721,0.385,14.065,1.584,19.01,3.169l-1.632,6.096c-5.089-1.775-12.913-3.12-18.914-3.504L552.549,15.446z"/>
		<path d="M590.819,51.21c0-2.545,2.064-4.656,4.608-4.656s4.561,2.111,4.561,4.656c0,2.592-2.017,4.656-4.561,4.656
			C592.787,55.866,590.819,53.706,590.819,51.21z M592.739,43.049l-1.2-24.722h7.969l-1.152,24.722H592.739z"/>
	</g>
</g>
<g id="_x34_" display="none">
</g>
<g id="_x33_" display="none">
</g>
<g id="_x32_" display="none">
</g>
<g id="_x31_" display="none">
	<g display="inline">
		<defs>
			<path id="SVGID_15_" d="M191-158.015c0,5.5-4.5,10-10,10h-1277.945c-5.5,0-10-4.5-10-10v-27.558v-841.881c0-5.5,4.5-10,10-10H181
				c5.5,0,10,4.5,10,10v839.881V-158.015z"/>
		</defs>
		<clipPath id="SVGID_2_">
			<use xlink:href="#SVGID_15_"  overflow="visible"/>
		</clipPath>
		<g clip-path="url(#SVGID_2_)">
			<g>
				<g>
					<g>
					</g>
				</g>
			</g>
		</g>
	</g>
</g>
<g id="_x30_" display="none">
</g>
<g id="guide" display="none">
</g>
</svg>
