<?xml version="1.0" encoding="utf-8"?>
<!-- Generator: Adobe Illustrator 16.2.1, SVG Export Plug-In . SVG Version: 6.00 Build 0)  -->
<!DOCTYPE svg PUBLIC "-//W3C//DTD SVG 1.1//EN" "http://www.w3.org/Graphics/SVG/1.1/DTD/svg11.dtd">
<svg version="1.1" xmlns="http://www.w3.org/2000/svg" xmlns:xlink="http://www.w3.org/1999/xlink" x="0px" y="0px"
	 width="157.45px" height="53.333px" viewBox="0 0 157.45 53.333" enable-background="new 0 0 157.45 53.333" xml:space="preserve">
<g id="base" display="none">
</g>
<g id="book3" display="none">
</g>
<g id="_x38_" display="none">
</g>
<g id="_x37_" display="none">
</g>
<g id="_x36_" display="none">
</g>
<g id="_x35_">
	<g>
		<path d="M37.619,18.834c-0.721,0.096-0.864,0.096-1.824,0.288c-1.872,0.336-4.896,0.72-7.249,0.96v4.225
			c2.784-0.624,4.465-0.816,7.009-0.816c5.904,0,10.32,1.488,13.105,4.368c2.111,2.16,3.264,5.185,3.264,8.497
			c0,6.769-5.137,11.856-11.953,11.856c-5.952,0-9.408-3.984-9.408-10.896c0-0.24,0-0.672,0-1.2
			c3.504-1.008,4.656-1.488,7.296-2.929c-0.048,1.009-0.096,1.536-0.096,2.545c0,1.488,0.096,2.304,0.384,3.024
			c0.336,0.863,1.152,1.439,2.112,1.439c2.064,0,3.456-1.68,3.456-4.128c0-1.632-0.863-3.217-2.352-4.225
			c-1.296-0.816-3.169-1.248-5.713-1.248c-2.352,0-4.32,0.24-7.057,0.96l0.048,8.497V41.3c0,2.928-0.191,3.984-0.912,4.992
			c-0.912,1.345-2.735,2.112-4.896,2.112c-3.552,0-7.632-1.488-10.368-3.792c-1.969-1.681-3.12-3.937-3.12-6.241
			c0-2.592,1.584-5.424,4.464-7.969c1.92-1.68,3.937-2.88,7.152-4.271v-5.665l-3.648,0.096l-4.656-0.096
			c-0.144,0-0.576,0-1.008,0.048l-0.096-7.536c1.536,0.288,3.504,0.432,6.576,0.432c0.288,0,0.336,0,1.824,0
			c0.672-0.048,0.672-0.048,0.96-0.048v-1.536c0-3.601-0.048-4.704-0.336-6.48h8.305c-0.24,1.728-0.288,2.832-0.288,6v1.536
			c3.265-0.336,6.241-0.912,8.785-1.632L37.619,18.834z M20.961,34.051c-2.256,1.057-3.984,2.929-3.984,4.272
			c0,0.576,0.336,1.057,1.057,1.536c0.672,0.433,1.584,0.769,2.16,0.769c0.624,0,0.768-0.336,0.768-1.921V34.051z M47.796,23.49
			c-2.448-4.272-5.185-7.537-9.457-11.281l6.337-4.272c4.08,3.312,7.057,6.673,9.456,10.609L47.796,23.49z"/>
		<path d="M70.833,6.736c-0.432,0.961-0.911,2.593-1.392,4.753c-1.488,6.528-2.16,12.001-2.305,18.625l3.696,1.249
			c-1.487,4.656-2.016,8.544-2.016,14.641c0,0.24,0.048,0.864,0.144,1.92l-8.112,0.337c-0.048-0.864-0.048-0.864-0.384-3.793
			c-0.864-6.721-1.057-9.36-1.057-14.545c0-6.769,0.433-10.993,1.921-19.394c0.384-2.16,0.575-3.457,0.575-4.177
			c0-0.048,0-0.144,0-0.24L70.833,6.736z M72.562,14.562c1.968,0.479,5.328,0.768,8.977,0.768c1.009,0,1.824,0,3.457-0.048
			c0-2.88,0-2.88,0-6.24c0-1.152-0.097-1.969-0.24-2.688l8.305-0.048c-0.24,1.536-0.384,3.648-0.384,8.4
			c2.928-0.336,5.808-0.912,7.632-1.488l0.288,7.633c-0.624,0.048-0.768,0.097-1.775,0.288c-1.488,0.336-3.648,0.624-6.049,0.912
			c0.048,3.744,0.096,4.705,0.432,10.226c3.312,1.487,5.041,2.447,7.729,4.368c0.24,0.191,0.48,0.336,0.912,0.576l-3.023,8.16
			c-1.104-1.344-2.977-2.832-5.713-4.561c0,0.192,0,0.336,0,0.385c0,4.08-4.177,6.816-10.321,6.816
			c-7.057,0-11.232-3.36-11.232-8.929c0-2.881,1.296-5.377,3.648-7.057c1.824-1.297,4.368-1.969,7.393-1.969
			c1.008,0,1.728,0.097,2.784,0.288c-0.048-1.344-0.048-1.584-0.145-3.84c-0.048-1.633-0.048-2.305-0.096-3.984
			c-1.104,0.048-1.776,0.048-2.736,0.048c-1.44,0-4.225-0.096-8.257-0.24c-0.576-0.048-0.96-0.048-1.104-0.048
			c-0.097,0-0.336,0-0.576,0L72.562,14.562z M85.522,37.411c-1.2-0.432-1.92-0.576-2.928-0.576c-2.208,0-3.553,0.864-3.553,2.209
			c0,1.248,1.248,2.063,3.169,2.063c2.304,0,3.359-0.864,3.359-2.784L85.522,37.411z"/>
		<path d="M125.266,5.729c-0.288,0.864-0.336,0.864-0.912,3.841c-0.239,1.151-0.336,1.584-0.575,2.688
			c3.072-0.336,5.136-0.672,6.672-1.151l0.145,7.776c-1.152,0.096-1.152,0.096-3.553,0.384c-1.296,0.145-3.937,0.384-5.137,0.48
			c-1.728,5.664-2.976,8.977-5.232,13.921c-1.008,2.208-1.439,3.072-3.312,6.816c-0.624,1.2-0.624,1.2-0.912,1.872l-7.825-4.272
			c3.408-4.56,6.721-11.377,8.881-18.146c-0.912,0-0.912,0-2.688,0c-1.104,0-1.104,0-2.208-0.048c-0.191,0-0.384,0-1.872,0v-7.681
			c1.824,0.336,4.032,0.48,7.009,0.48c0.528,0,0.768,0,1.729-0.048c0.048-0.385,0.048-0.385,0.432-2.017s0.672-3.984,0.72-5.713
			L125.266,5.729z M145.908,46.196c-1.776-2.064-3.601-3.601-6.193-5.232c-0.144,2.256-0.72,3.648-2.016,4.992
			c-1.872,1.872-5.232,2.977-9.073,2.977c-3.84,0-7.104-1.152-9.072-3.169c-1.584-1.632-2.4-3.696-2.4-5.952
			c0-5.568,4.656-9.457,11.329-9.457c1.008,0,1.776,0.048,3.36,0.288c-0.145-1.824-0.192-2.736-0.192-3.84
			c0-1.969,0.096-3.505,0.288-5.665l7.921,0.336c-0.384,1.681-0.528,3.12-0.528,5.425c0,1.729,0.097,3.168,0.384,5.568
			c2.929,1.296,5.185,2.593,7.393,4.272c0.145,0.096,0.912,0.72,2.353,1.872L145.908,46.196z M128.723,37.171
			c-2.257,0-3.696,0.961-3.696,2.448c0,1.393,1.344,2.305,3.408,2.305c2.4,0,3.648-1.057,3.648-3.072
			c0-0.336-0.049-1.008-0.097-1.057C130.69,37.315,129.874,37.171,128.723,37.171z M146.388,23.683
			c-4.513-2.833-9.217-4.993-14.929-6.913l3.984-6.625c6.048,2.16,9.984,3.889,14.449,6.481L146.388,23.683z"/>
	</g>
</g>
<g id="_x34_" display="none">
</g>
<g id="_x33_" display="none">
</g>
<g id="_x32_" display="none">
</g>
<g id="_x31_" display="none">
</g>
<g id="_x30_" display="none">
</g>
<g id="guide" display="none">
</g>
</svg>
