<?xml version="1.0" encoding="utf-8"?>
<!-- Generator: Adobe Illustrator 16.2.1, SVG Export Plug-In . SVG Version: 6.00 Build 0)  -->
<!DOCTYPE svg PUBLIC "-//W3C//DTD SVG 1.1//EN" "http://www.w3.org/Graphics/SVG/1.1/DTD/svg11.dtd">
<svg version="1.1" xmlns="http://www.w3.org/2000/svg" xmlns:xlink="http://www.w3.org/1999/xlink" x="0px" y="0px" width="250px"
	 height="55.333px" viewBox="0 0 250 55.333" enable-background="new 0 0 250 55.333" xml:space="preserve">
<g id="base" display="none">
</g>
<g id="book3" display="none">
</g>
<g id="_x38_" display="none">
</g>
<g id="_x37_" display="none">
</g>
<g id="_x36_" display="none">
</g>
<g id="_x35_">
	<g>
		<path d="M32.956,20.834c-0.721,0.096-0.864,0.096-1.824,0.288c-1.872,0.336-4.896,0.72-7.249,0.96v4.225
			c2.784-0.624,4.465-0.816,7.009-0.816c5.904,0,10.32,1.488,13.105,4.368c2.111,2.16,3.264,5.185,3.264,8.497
			c0,6.769-5.137,11.856-11.953,11.856c-5.952,0-9.408-3.984-9.408-10.896c0-0.24,0-0.672,0-1.2
			c3.504-1.008,4.656-1.488,7.296-2.929c-0.048,1.009-0.096,1.536-0.096,2.545c0,1.488,0.096,2.304,0.384,3.024
			c0.336,0.863,1.152,1.439,2.112,1.439c2.064,0,3.456-1.68,3.456-4.128c0-1.632-0.863-3.217-2.352-4.225
			c-1.296-0.816-3.169-1.248-5.713-1.248c-2.352,0-4.32,0.24-7.057,0.96l0.048,8.497V43.3c0,2.928-0.191,3.984-0.912,4.992
			c-0.912,1.345-2.735,2.112-4.896,2.112c-3.552,0-7.632-1.488-10.368-3.792c-1.969-1.681-3.12-3.937-3.12-6.241
			c0-2.592,1.584-5.424,4.464-7.969c1.92-1.68,3.937-2.88,7.152-4.271v-5.665l-3.648,0.096l-4.656-0.096
			c-0.144,0-0.576,0-1.008,0.048L6.89,14.978c1.536,0.288,3.504,0.432,6.576,0.432c0.288,0,0.336,0,1.824,0
			c0.672-0.048,0.672-0.048,0.96-0.048v-1.536c0-3.601-0.048-4.704-0.336-6.48h8.305c-0.24,1.728-0.288,2.832-0.288,6v1.536
			c3.265-0.336,6.241-0.912,8.785-1.632L32.956,20.834z M16.298,36.051c-2.256,1.057-3.984,2.929-3.984,4.272
			c0,0.576,0.336,1.057,1.057,1.536c0.672,0.433,1.584,0.769,2.16,0.769c0.624,0,0.768-0.336,0.768-1.921V36.051z M43.133,25.49
			c-2.448-4.272-5.185-7.537-9.457-11.281l6.337-4.272c4.08,3.312,7.057,6.673,9.456,10.609L43.133,25.49z"/>
		<path d="M56.042,50.261c-0.049-1.009-0.049-1.009-0.48-4.369c-0.576-4.032-0.912-9.169-0.912-13.729
			c0-3.36,0.192-7.201,0.528-10.897c0.191-1.872,0.191-1.872,1.392-9.648c0.24-1.488,0.384-2.832,0.384-3.265
			c0-0.096,0-0.192,0-0.384l8.689,0.624c-0.672,1.729-1.536,5.568-2.208,9.793c-0.721,4.561-0.912,6.433-1.345,13.969l3.744,1.296
			c-1.296,4.081-1.872,8.257-1.872,13.874c0,0.912,0.048,1.439,0.145,2.399L56.042,50.261z M94.349,47.62
			c-1.248-1.44-3.168-3.024-5.809-4.801c-0.048,1.536-0.096,1.921-0.527,2.833c-0.721,1.487-1.729,2.447-3.457,3.216
			c-1.775,0.769-4.32,1.248-6.721,1.248c-6.864,0-11.089-3.312-11.089-8.688c0-3.505,2.064-6.528,5.232-7.729
			c1.872-0.721,3.793-1.057,6.193-1.057c0.96,0,1.632,0.048,2.735,0.24c-0.048-0.672-0.096-0.96-0.096-1.92
			c-0.048-0.624-0.048-0.864-0.096-2.545c-2.257,0.049-2.977,0.049-3.793,0.049c-1.104,0-2.688-0.049-4.848-0.097
			c-1.969-0.096-2.688-0.096-3.696-0.096c-0.048,0-0.336,0-0.624,0.048l0.191-7.2c1.872,0.384,5.232,0.624,9.313,0.624
			c0.96,0,1.344,0,3.264-0.048c0-1.104,0-2.448,0-2.736c0-0.385,0-0.528,0-1.488c-1.392,0.048-3.024,0.096-4.176,0.096
			c-2.545,0-2.736,0-6.577-0.192c-0.624-0.048-0.72-0.048-1.296-0.048c-0.096,0-0.336,0-0.576,0.048l0.288-7.248
			c1.824,0.384,4.896,0.576,9.073,0.576c6.384,0,14.305-0.672,17.81-1.536l0.191,7.2c-0.96,0-0.96,0-3.456,0.336
			c-0.816,0.048-1.344,0.145-3.696,0.336c-0.048,0.864-0.096,1.969-0.096,4.272c3.12-0.239,5.76-0.672,7.393-1.2l0.239,7.105
			c-1.008,0.048-1.008,0.048-3.552,0.432c-1.345,0.144-1.345,0.144-4.032,0.384c0.096,3.312,0.144,3.937,0.384,6.577
			c2.928,1.344,4.849,2.399,7.393,4.224c0.624,0.433,0.816,0.528,1.296,0.769L94.349,47.62z M77.739,39.268
			c-1.872,0-3.216,0.912-3.216,2.16s1.2,2.016,3.168,2.016c2.304,0,3.36-0.863,3.36-2.736c0-0.384-0.048-0.863-0.048-0.912
			C79.611,39.363,78.987,39.268,77.739,39.268z"/>
		<path d="M116.618,8.545c-0.527,3.024-1.104,15.841-1.104,23.857c0,4.801,0.191,6.241,1.008,7.537
			c0.912,1.44,2.977,2.304,5.616,2.304c4.944,0,8.785-2.928,10.657-8.112c0.96-2.592,1.488-5.137,1.92-8.688
			c3.553,2.784,5.137,3.792,8.209,5.04c-1.824,7.201-3.408,10.705-6.049,13.634c-3.792,4.128-8.784,6.192-15.073,6.192
			c-4.896,0-8.544-1.2-11.137-3.648c-2.736-2.641-3.648-5.713-3.648-12.434c0-1.248,0-1.248,0.24-10.896
			c0.096-4.849,0.192-9.409,0.192-11.281c0-1.488-0.049-2.256-0.24-3.648L116.618,8.545z"/>
		<path d="M151.754,15.457c1.823,0.192,2.976,0.24,5.28,0.24c3.696,0,7.44-0.192,12.001-0.672c-0.24-0.576-0.24-0.624-0.721-1.872
			c-0.815-2.16-1.344-3.456-1.968-4.801l8.641-1.056c0.336,1.872,1.104,4.272,2.112,6.769c5.185-0.816,8.977-1.633,11.857-2.641
			l0.863,8.064c-1.392,0.192-1.392,0.192-3.936,0.673c-2.16,0.432-4.081,0.768-6.001,1.056c2.017,4.128,4.704,8.593,8.209,13.441
			l-7.969,3.216c-1.44-1.488-2.593-2.112-5.137-2.64c-1.632-0.336-3.264-0.48-5.28-0.48c-5.376,0-8.593,1.536-8.593,4.08
			c0,2.545,2.977,3.841,8.833,3.841c5.473,0,11.425-1.296,15.265-3.265l1.057,8.593c-0.864,0.192-1.248,0.24-2.208,0.48
			c-6.192,1.439-9.121,1.824-14.065,1.824c-6.528,0-11.137-1.104-13.921-3.312c-2.4-1.969-3.745-4.753-3.745-7.825
			c0-2.544,1.009-5.04,2.785-6.912c2.832-2.977,7.488-4.465,13.824-4.465c2.593,0,4.033,0.192,6.577,0.961
			c-0.864-1.152-1.776-2.688-2.977-5.041c-0.432-0.768-0.528-0.96-0.815-1.488c-4.129,0.576-10.321,0.96-16.897,1.104
			c-1.345,0.048-1.585,0.048-2.448,0.144L151.754,15.457z"/>
		<path d="M199.609,11.905c2.832,0.672,7.776,1.008,13.825,1.008c0.576,0,1.2,0,2.641-0.048c-0.048-3.168-0.097-4.032-0.288-5.232
			h8.448c-0.24,1.296-0.24,1.632-0.384,4.992c6.385-0.384,10.849-0.912,13.633-1.68l0.24,7.344c-1.392,0.097-1.68,0.097-4.225,0.433
			c-3.216,0.432-5.904,0.672-9.648,0.816c0,1.199,0,1.199,0,3.023c5.425-0.288,9.073-0.72,12.385-1.439l0.192,7.345
			c-1.008,0.048-1.008,0.048-3.072,0.239c-2.16,0.24-6.769,0.576-9.409,0.673c0.048,2.208,0.048,2.208,0.145,4.224
			c2.496,0.673,4.032,1.248,6.576,2.593c2.448,1.296,3.024,1.632,6.433,3.984c0.72,0.479,1.057,0.672,1.824,1.151l-4.561,7.729
			c-1.439-1.536-1.439-1.536-3.264-3.072c-2.257-1.921-4.608-3.408-6.817-4.272c0,2.16-0.336,3.6-1.151,4.849
			c-1.584,2.447-5.232,3.792-10.465,3.792c-7.873,0-12.338-3.217-12.338-8.785c0-3.504,2.209-6.385,6.049-7.824
			c2.256-0.864,5.137-1.296,8.545-1.296c0.624,0,0.768,0,1.488,0c-0.048-1.633-0.097-2.593-0.097-2.833
			c-1.008,0-2.976,0.048-3.696,0.048c-2.784,0-4.992-0.048-7.729-0.191c-2.112-0.096-2.352-0.145-3.792-0.145l0.096-7.152
			c2.112,0.433,6.913,0.769,11.81,0.769c1.008,0,1.728,0,3.216-0.049c0-0.336,0-0.479,0-0.72c0-0.096,0-0.096-0.048-1.248
			c0-0.672,0-0.672,0-1.152c-1.104,0.048-1.584,0.048-2.017,0.048c-2.592,0-3.408-0.048-8.929-0.287
			c-1.824-0.049-1.824-0.049-3.6-0.145c-0.673-0.048-1.152-0.048-1.297-0.048c-0.191,0-0.479,0-0.815,0L199.609,11.905z
			 M213.482,39.268c-2.928,0-4.608,0.815-4.608,2.304c0,1.2,1.345,1.921,3.744,1.921c2.688,0,3.841-0.912,3.841-3.072
			c0-0.288-0.048-0.816-0.048-0.816C215.259,39.315,214.587,39.268,213.482,39.268z"/>
	</g>
</g>
<g id="_x34_" display="none">
</g>
<g id="_x33_" display="none">
</g>
<g id="_x32_" display="none">
</g>
<g id="_x31_" display="none">
</g>
<g id="_x30_" display="none">
</g>
<g id="guide" display="none">
</g>
</svg>
