<?xml version="1.0" encoding="utf-8"?>
<!-- Generator: Adobe Illustrator 16.2.1, SVG Export Plug-In . SVG Version: 6.00 Build 0)  -->
<!DOCTYPE svg PUBLIC "-//W3C//DTD SVG 1.1//EN" "http://www.w3.org/Graphics/SVG/1.1/DTD/svg11.dtd">
<svg version="1.1" xmlns="http://www.w3.org/2000/svg" xmlns:xlink="http://www.w3.org/1999/xlink" x="0px" y="0px"
	 width="154.651px" height="55.334px" viewBox="0 0 154.651 55.334" enable-background="new 0 0 154.651 55.334"
	 xml:space="preserve">
<g id="base" display="none">
</g>
<g id="book3" display="none">
</g>
<g id="_x38_" display="none">
</g>
<g id="_x37_" display="none">
</g>
<g id="_x36_" display="none">
</g>
<g id="_x35_">
	<g>
		<path d="M29.058,11.196c-0.192,0.72-0.192,0.815-0.336,2.112c-0.049,0.096-0.097,0.479-0.145,0.96
			c-0.048,0.24-0.096,0.576-0.192,1.104c-1.008,7.201-1.872,11.426-3.408,16.178c-2.112,6.625-4.416,11.089-8.496,16.273
			c-2.545-2.448-4.705-4.032-7.825-5.713c3.072-3.36,4.896-6.288,6.816-10.896c2.688-6.385,4.465-14.978,4.465-21.65L29.058,11.196z
			 M43.074,9.516c0.048,2.257,0.769,6.816,1.729,10.609c1.2,4.849,2.928,9.553,4.896,13.297c1.536,2.88,2.928,4.992,5.616,8.353
			c-3.408,2.064-5.088,3.408-7.585,6.049c-3.696-4.944-6.145-9.553-8.305-15.649c-1.824-5.137-3.264-11.281-4.08-17.281
			c-0.24-1.776-0.432-3.072-0.672-3.793L43.074,9.516z"/>
		<path d="M58.672,23.053c2.256,0.336,4.849,0.433,9.841,0.433h22.945c4.801,0,6.625-0.097,9.842-0.433v9.265
			c-2.305-0.239-4.417-0.287-9.89-0.287h-22.85c-5.377,0-6.961,0.048-9.889,0.287V23.053z"/>
		<path d="M115.553,48.831c0.191-2.16,0.288-3.552,0.288-7.345V13.548c0-3.888-0.049-4.368-0.336-6.96h9.265
			c-0.192,1.392-0.24,3.792-0.24,7.009v6.576c8.16,2.688,14.354,5.521,21.842,9.984l-4.561,8.161
			c-4.656-3.216-10.32-6.337-15.121-8.353c-1.681-0.672-1.681-0.672-2.16-0.96v12.48c0,3.217,0.096,5.617,0.288,7.345H115.553z"/>
	</g>
</g>
<g id="_x34_" display="none">
</g>
<g id="_x33_" display="none">
</g>
<g id="_x32_" display="none">
</g>
<g id="_x31_" display="none">
</g>
<g id="_x30_" display="none">
</g>
<g id="guide" display="none">
</g>
</svg>
