<?xml version="1.0" encoding="utf-8"?>
<!-- Generator: Adobe Illustrator 16.0.0, SVG Export Plug-In . SVG Version: 6.00 Build 0)  -->
<!DOCTYPE svg PUBLIC "-//W3C//DTD SVG 1.1//EN" "http://www.w3.org/Graphics/SVG/1.1/DTD/svg11.dtd">
<svg version="1.1" id="レイヤー_1" xmlns="http://www.w3.org/2000/svg" xmlns:xlink="http://www.w3.org/1999/xlink" x="0px"
	 y="0px" width="226.034px" height="345.06px" viewBox="0 0 226.034 345.06" enable-background="new 0 0 226.034 345.06"
	 xml:space="preserve">
<g>
	<path fill="#99C14F" d="M95.461,157.394c-2.559-8.412-7.409-16.209-14.531-23.374l12.266-21.857
		c10.212,7.336,19.997,22.374,29.393,45.147L95.461,157.394z"/>
	
		<path fill="none" stroke="#265C30" stroke-width="2.4228" stroke-linecap="round" stroke-linejoin="round" stroke-miterlimit="10" d="
		M95.461,157.394c-2.559-8.412-7.409-16.209-14.526-23.372 M93.2,112.163c10.204,7.331,19.992,22.374,29.388,45.147"/>
	<path fill="#265C30" d="M101.844,122.111c-0.104-0.125-0.198-0.231-0.297-0.361c-2.777-3.422-5.745-6.274-8.908-8.538
		c-5.539-3.677-11.232-5.526-17.06-5.534c-5.809,0.02-11.023,2.041-15.677,6.084c-0.906,0.796-1.751,1.55-2.529,2.27l-0.002,0.015
		c-1.266,1.147-2.402,2.425-3.396,3.854l-0.018,0.007c-0.233,0.34-0.483,0.67-0.723,1.022c-0.978,1.531-1.867,3.154-2.675,4.85
		c-1.757,4.6-2.224,8.412-1.429,11.412c0.096-0.76,0.252-1.531,0.458-2.308c0.165-0.638,0.354-1.239,0.563-1.82
		c0.136-0.427,0.298-0.834,0.463-1.239c0.09-0.269,0.193-0.519,0.311-0.765c1.063-2.621,2.708-4.649,4.896-6.102
		c0.248-0.167,0.507-0.315,0.75-0.47c-0.209,0.349-0.409,0.687-0.615,1.022c-1.793,2.896-3.113,6.064-3.979,9.5
		c-0.111,0.429-0.213,0.845-0.317,1.27c-0.434,1.794-0.469,3.602-0.129,5.379l0.013,0.07c0.254,1.214,0.687,2.408,1.287,3.608
		c1.53,2.043,3.039,2.87,4.527,2.468c1.787-0.6,3.182-1.585,4.194-2.97v-0.017c1.131-1.53,2.109-3.017,2.945-4.431
		c0.427-0.695,0.983-1.45,1.676-2.253c-1.425-1.067-2.499-2.561-3.23-4.483c-0.028-0.06-0.041-0.131-0.054-0.188
		c-0.271-1.059-0.394-2.096-0.333-3.105c0.171-1.48,0.59-2.839,1.267-4.079c0.464-0.877,1.022-1.646,1.684-2.283
		c2.247-2.101,4.866-3.391,7.88-3.838c0.258-0.035,0.51-0.064,0.754-0.104c-2.473,1.375-4.228,2.546-5.257,3.509
		c-1.018,0.976-1.543,1.482-1.596,1.543c-0.629,0.802-1.17,1.674-1.642,2.612c-0.446,0.936-0.687,1.939-0.705,3.038
		c-0.065,0.719-0.019,1.467,0.134,2.235c0.689,1.756,1.768,2.995,3.274,3.713c0.061,0.016,0.115,0.038,0.166,0.076
		c0.729,0.311,1.54,0.539,2.435,0.658c3.054,0.063,5.544-0.725,7.494-2.365c0.141-0.119,0.281-0.185,0.463-0.22
		c0.181-0.037,0.354-0.005,0.521,0.056c2.852,0.988,5.352,1.255,7.5,0.806c0.242-0.041,0.47-0.076,0.683-0.125
		c1.918-0.328,3.604-1.065,5.077-2.232c0.694-0.53,1.317-1.151,1.902-1.86c-0.243,0.861-0.554,1.625-0.92,2.317
		c-1.003,1.896-2.491,3.223-4.475,3.957c-0.156,0.062-0.313,0.124-0.48,0.18c-2.609,0.822-5.683,0.665-9.203-0.462
		c-2.238,1.741-5.052,2.572-8.448,2.481c-0.046-0.003-0.073-0.016-0.104-0.018c-0.905-0.124-1.743-0.316-2.515-0.594
		c-0.851,0.934-1.515,1.788-1.999,2.571l0.006-0.015c-0.867,1.472-1.878,3.022-3.054,4.611c-1.245,1.726-2.974,2.957-5.171,3.696
		c-2.435,0.903-4.839-0.287-7.224-3.567c-0.046-0.063-0.086-0.133-0.126-0.205c-0.671-1.329-1.165-2.684-1.479-4.019
		c-3.663-3.985-3.987-9.96-0.933-17.918c0.02-0.023,0.029-0.055,0.039-0.083c0.848-1.786,1.779-3.488,2.808-5.099
		c0.024-0.021,0.028-0.04,0.03-0.052c0.257-0.361,0.507-0.707,0.766-1.068l-0.004,0.011c1.088-1.545,2.324-2.951,3.695-4.192
		l0.016-0.006c0.783-0.735,1.628-1.507,2.556-2.309c5.026-4.389,10.677-6.577,16.971-6.574c6.279,0,12.393,1.988,18.361,5.95
		c0.014,0.006,0.026,0.013,0.037,0.033c3.36,2.401,6.506,5.433,9.436,9.057c0.069,0.079,0.144,0.16,0.199,0.235
		c-0.34,0.49-0.774,1.146-1.295,1.997C102.005,122.299,101.928,122.2,101.844,122.111L101.844,122.111z"/>
	<path fill="#99C14F" d="M101.547,121.75c0.099,0.13,0.193,0.236,0.297,0.361c0.084,0.089,0.161,0.188,0.237,0.304
		c-0.146,0.36-0.283,0.729-0.39,1.094c-0.074,0.276-0.058,0.695,0.055,1.287c0.123,0.595,0.104,1.146-0.049,1.686
		c-0.157,0.536-0.266,0.882-0.342,1.028c-0.195,0.356-0.431,0.812-0.708,1.358c-0.07,0.136-0.211,0.3-0.44,0.509
		c-0.06,0.053-0.144,0.132-0.238,0.205c-0.987,2.101-2.513,3.556-4.585,4.34c-0.278,0.103-0.571,0.205-0.854,0.287
		c-0.289-0.13-0.575-0.256-0.859-0.395c0.366-0.692,0.677-1.456,0.919-2.317c-0.584,0.709-1.207,1.33-1.902,1.864
		c-1.472,1.163-3.158,1.9-5.073,2.229c-0.216,0.048-0.443,0.083-0.686,0.124c-2.148,0.449-4.648,0.183-7.5-0.806
		c-0.167-0.061-0.341-0.093-0.521-0.056c-0.182,0.035-0.32,0.101-0.463,0.22c-1.95,1.641-4.44,2.429-7.494,2.365
		c-0.895-0.119-1.706-0.348-2.434-0.658c-0.052-0.038-0.106-0.061-0.167-0.076c-1.507-0.718-2.585-1.957-3.274-3.713
		c-0.152-0.769-0.199-1.517-0.134-2.235c0.019-1.099,0.257-2.104,0.705-3.038c0.472-0.938,1.013-1.811,1.642-2.612
		c0.053-0.061,0.578-0.567,1.596-1.543c1.029-0.963,2.784-2.134,5.257-3.509c-0.244,0.04-0.496,0.069-0.754,0.104
		c-3.014,0.447-5.633,1.737-7.88,3.838c-0.661,0.638-1.22,1.406-1.684,2.283c-0.677,1.24-1.096,2.599-1.267,4.079
		c-0.061,1.01,0.062,2.047,0.333,3.105c0.014,0.057,0.025,0.128,0.052,0.188c0.733,1.923,1.808,3.416,3.232,4.483
		c-0.692,0.803-1.249,1.558-1.676,2.253c-0.836,1.414-1.814,2.9-2.945,4.431v0.017c-1.013,1.385-2.403,2.374-4.194,2.97
		c-1.488,0.402-2.994-0.422-4.527-2.468c-0.599-1.199-1.033-2.395-1.287-3.608l-0.013-0.07c-0.342-1.781-0.305-3.585,0.126-5.38
		c0.107-0.424,0.209-0.84,0.32-1.269c0.868-3.436,2.187-6.604,3.979-9.5c0.206-0.336,0.408-0.673,0.615-1.022
		c-0.243,0.154-0.502,0.303-0.75,0.472c-2.188,1.45-3.832,3.479-4.896,6.1c-0.117,0.246-0.221,0.496-0.311,0.765
		c-0.165,0.405-0.327,0.812-0.463,1.239c-0.209,0.581-0.398,1.184-0.563,1.82c-0.206,0.776-0.362,1.548-0.458,2.308
		c-0.795-3-0.328-6.812,1.429-11.412c0.808-1.695,1.697-3.318,2.675-4.85c0.239-0.353,0.489-0.683,0.723-1.022l0.018-0.007
		c0.994-1.429,2.131-2.706,3.396-3.854l0.002-0.015c0.778-0.72,1.623-1.474,2.529-2.27c4.654-4.045,9.868-6.064,15.677-6.084
		c5.827,0.008,11.521,1.857,17.06,5.534C95.802,115.475,98.77,118.328,101.547,121.75"/>
	<path fill="#265C30" d="M125.246,90.074l51.348,14.881c-10.118,20.104-13.537,37.84-10.259,53.199
		c0.021,0.023,0.046,0.047,0.042,0.092c0.383,1.181,0.684,2.391,0.911,3.633c1.993,9.355,1.321,19.273-2.015,29.727
		c-4.573,14.368-12.799,25.56-24.678,33.567c-11.748,7.911-23.667,10.393-35.765,7.438c-12.056-2.983-20.777-10.544-26.177-22.671
		c-5.403-12.259-5.816-25.576-1.248-39.928c2.14-6.731,5.09-12.751,8.834-18.079c1.927-2.697,4.046-5.143,6.381-7.333
		c2.84-2.635,5.648-5.247,8.423-7.858l0.026-0.021C111.878,125.74,119.93,110.186,125.246,90.074"/>
	
		<path fill="none" stroke="#265C30" stroke-width="2.4046" stroke-linecap="round" stroke-linejoin="round" stroke-miterlimit="10" d="
		M176.594,104.955c-10.118,20.104-13.537,37.84-10.259,53.199c0.024,0.023,0.046,0.047,0.042,0.092
		c0.382,1.181,0.684,2.391,0.911,3.631c1.993,9.357,1.32,19.274-2.015,29.729c-4.573,14.368-12.801,25.557-24.678,33.567
		c-11.748,7.911-23.667,10.393-35.767,7.442c-12.054-2.987-20.775-10.548-26.171-22.674c-5.407-12.26-5.82-25.577-1.252-39.929
		c2.14-6.731,5.09-12.751,8.834-18.079c1.923-2.699,4.046-5.143,6.381-7.333c2.84-2.635,5.648-5.247,8.423-7.858l0.026-0.021
		c10.808-10.98,18.86-26.534,24.176-46.646L176.594,104.955z"/>
	<path fill="#99C14F" d="M126.166,91.569l48.642,14.106c-9.774,19.9-13.032,37.469-9.755,52.72c0.029,0.055,0.031,0.118,0.036,0.183
		c0.38,1.146,0.683,2.314,0.91,3.521l-0.013,0.025c1.966,9.19,1.31,18.926-1.954,29.181c-4.485,14.101-12.561,25.072-24.21,32.924
		l-0.015-0.006c-11.372,7.672-22.91,10.091-34.621,7.27c-11.669-2.906-20.128-10.242-25.347-21.997l0.006-0.013
		c-5.273-12.022-5.662-25.085-1.183-39.169c2.105-6.616,4.991-12.533,8.667-17.752c1.85-2.646,3.926-5.028,6.213-7.156l-0.007,0.017
		c2.805-2.6,5.587-5.192,8.333-7.775c0.073-0.042,0.128-0.086,0.17-0.15C112.731,126.612,120.775,111.312,126.166,91.569"/>
	<path fill="#5A6072" d="M86.828,8.957l-5.268,11.879c4.459,4.121,9.685,7.635,15.671,10.537c5.245,2.586,10.438,5.504,15.56,8.761
		c28.662,15.285,63.444,28.136,104.349,38.548l4.278-14.155L86.828,8.957z"/>
	
		<path fill="none" stroke="#72788D" stroke-width="2.3978" stroke-linecap="round" stroke-linejoin="round" stroke-miterlimit="10" d="
		M86.828,8.957l134.59,55.569l-4.278,14.155c-40.904-10.412-75.687-23.263-104.349-38.548c-5.121-3.257-10.314-6.175-15.56-8.761
		c-5.986-2.902-11.212-6.416-15.671-10.537L86.828,8.957z"/>
	<path fill="#99C14F" d="M176.654,41.852c2.248-1.145,4.641-1.903,7.188-2.292c-6.943-3.844-13.929-5.498-20.963-4.946
		c-2.021-5.474-5.275-9.208-9.754-11.183c0.1,2.018-0.166,3.528-0.812,4.552c-3.998-3.377-8.426-5.493-13.272-6.327
		c1.255,1.615,2.048,3.689,2.361,6.226c-7.472-0.998-13.198-0.829-17.205,0.505c-3.99,1.321-7.191,2.526-9.6,3.596
		c-2.402,1.09-4.308,1.864-5.701,2.308c-1.382,0.45-2.768,0.786-4.147,1.012c-1.678,0.251-3.453,0.247-5.317,0
		c0.291,1.1,1.249,2.17,2.881,3.206c-7.89,6.185-12.974,9.438-15.231,9.769c0.352,1.203,1.564,2.266,3.611,3.163l-0.124,0.129
		c-3.684,3.51-6.681,5.85-8.975,6.992c-2.287,1.143-4.36,1.718-6.25,1.717c0.869,2.527,2.252,4.363,4.122,5.498
		c-2.574,5.502-3.719,11.941-3.434,19.325l3.003-2.085c-0.2,0.741-0.335,1.311-0.41,1.712c-0.85,4.384-1.026,8.623-0.549,12.71
		c0.296,2.5,0.837,4.962,1.631,7.351c1.034,3.142,2.146,5.883,3.333,8.238l1.98-2.65c2.074,6.587,5.432,11.96,10.077,16.105
		l1.515-2.574c2.384,4.978,5.413,8.716,9.092,11.199c0.471,0.292,0.936,0.585,1.391,0.874c0.498,0.254,0.993,0.463,1.5,0.655
		c0.645,0.242,1.299,0.453,1.963,0.645c0.295,0.058,0.588,0.125,0.881,0.199c0.298,0.056,0.594,0.113,0.891,0.171
		c6.313,1.178,12.582,0.549,18.796-1.908c0.182,1.603,0.189,3.063-0.005,4.377c13.536,1.232,23.415-0.426,29.645-4.943l-0.438,4.797
		c12.557-2.889,22.48-9.212,29.776-18.968l0.922,5.255c3.527-3.022,5.998-6.341,7.453-9.97c1.454-3.629,2.045-6.162,1.817-7.628
		c3.117,1.054,6.084,1.099,8.906,0.174c-4.039-5.694-6.477-11.739-7.341-18.122c3.385,1.383,5.958,1.511,7.711,0.37
		c-3.281-2.03-6.688-7.896-10.205-17.596c2.345,0.144,4.263-0.211,5.745-1.085c-4.298-2.976-7.104-6.536-8.441-10.673
		C193.258,53.324,186.58,46.699,176.654,41.852"/>
	<path fill="none" stroke="#265C30" stroke-width="2.3945" stroke-linecap="square" stroke-miterlimit="10" d="M176.654,41.852
		c9.926,4.847,16.604,11.472,20.016,19.878c1.338,4.137,4.144,7.697,8.441,10.673c-1.482,0.874-3.4,1.229-5.745,1.085
		c3.517,9.699,6.924,15.565,10.205,17.596c-1.753,1.141-4.326,1.013-7.711-0.37c0.864,6.383,3.302,12.428,7.341,18.122
		c-2.822,0.925-5.789,0.88-8.906-0.174c0.228,1.466-0.363,3.999-1.817,7.628c-1.455,3.629-3.926,6.947-7.453,9.97l-0.922-5.255
		c-7.296,9.756-17.22,16.079-29.776,18.968l0.438-4.797c-6.229,4.518-16.108,6.176-29.645,4.943
		c0.194-1.313,0.187-2.774,0.005-4.377c-6.214,2.457-12.482,3.086-18.796,1.908c-0.297-0.058-0.593-0.115-0.891-0.171
		c-0.293-0.074-0.586-0.142-0.881-0.199c-0.664-0.191-1.318-0.402-1.963-0.645c-0.507-0.192-1.002-0.401-1.5-0.655
		c-0.455-0.289-0.92-0.582-1.391-0.874c-3.679-2.483-6.708-6.222-9.092-11.199l-1.515,2.574c-4.646-4.146-8.003-9.519-10.077-16.105
		l-1.98,2.65c-1.187-2.355-2.299-5.097-3.333-8.238c-0.794-2.389-1.335-4.851-1.631-7.351c-0.478-4.087-0.301-8.326,0.549-12.71
		c0.075-0.401,0.21-0.971,0.41-1.712L76.032,85.1c-0.285-7.384,0.859-13.823,3.434-19.325c-1.87-1.135-3.253-2.971-4.122-5.498
		c1.89,0.001,3.963-0.574,6.25-1.717c2.294-1.143,5.291-3.482,8.975-6.992l0.124-0.129c-2.047-0.897-3.26-1.96-3.611-3.163
		c2.258-0.331,7.342-3.584,15.231-9.769c-1.632-1.036-2.59-2.106-2.881-3.206c1.864,0.247,3.64,0.251,5.317,0
		c1.38-0.226,2.766-0.562,4.147-1.012c1.394-0.443,3.299-1.218,5.701-2.308c2.408-1.069,5.609-2.274,9.6-3.596
		c4.007-1.334,9.733-1.503,17.205-0.505c-0.313-2.536-1.106-4.61-2.361-6.226c4.847,0.834,9.274,2.95,13.272,6.327
		c0.646-1.023,0.911-2.534,0.812-4.552c4.479,1.975,7.732,5.709,9.754,11.183c7.034-0.552,14.02,1.103,20.963,4.946
		C181.295,39.949,178.902,40.708,176.654,41.852z"/>
	<path fill="#1E1A1A" d="M148.237,92.291c-0.074-0.009-0.149-0.02-0.225-0.031c-2.342,3.855-5.558,6.629-9.629,8.317
		c-4.903,2.017-9.995,2.379-15.271,1.091c-5.278-1.274-9.229-3.84-11.847-7.715c-2.607-3.811-3.109-7.793-1.475-11.932
		c0.166-0.432,0.353-0.859,0.521-1.258c-7.789-3.414-15.508-7.453-23.143-12.131c-2.107,23.938,7.455,38.448,28.661,43.514
		c23.401,5.599,43.911-0.229,61.523-17.457C167.546,94.787,157.844,93.982,148.237,92.291"/>
	<path fill="#CC3A2A" d="M148.013,92.259c-0.476-0.086-0.958-0.163-1.447-0.256c-11.732-2.199-23.311-5.727-34.74-10.582
		c-0.505-0.225-1.007-0.433-1.509-0.657c-0.172,0.397-0.356,0.825-0.522,1.257c-1.637,4.139-1.135,8.121,1.473,11.932
		c2.618,3.875,6.568,6.44,11.847,7.715c5.275,1.288,10.367,0.926,15.271-1.091C142.454,98.885,145.671,96.115,148.013,92.259"/>
	
		<path fill="none" stroke="#1E1A1A" stroke-width="0.0147" stroke-linecap="round" stroke-linejoin="round" stroke-miterlimit="10" d="
		M110.316,80.764c-7.796-3.415-15.512-7.455-23.146-12.13c-2.107,23.936,7.455,38.446,28.664,43.51
		c23.398,5.6,43.91-0.227,61.523-17.455c-9.81,0.097-19.514-0.707-29.12-2.398c-0.074-0.009-0.149-0.021-0.226-0.028"/>
	
		<path fill="none" stroke="#CC3A2A" stroke-width="0.0147" stroke-linecap="round" stroke-linejoin="round" stroke-miterlimit="10" d="
		M146.565,92.003c-11.732-2.199-23.311-5.727-34.74-10.582c-0.505-0.225-1.007-0.433-1.509-0.657
		c-0.172,0.397-0.358,0.825-0.524,1.259c-1.635,4.137-1.133,8.119,1.475,11.93c2.619,3.873,6.568,6.44,11.847,7.714
		c5.275,1.289,10.367,0.927,15.271-1.09c4.074-1.691,7.287-4.462,9.628-8.314C147.539,92.171,147.057,92.096,146.565,92.003z"/>
	<path fill="#FFFFFF" d="M113.05,39.708c3.815,0.604,6.827,2.551,9.01,5.861c2.188,3.295,2.903,6.974,2.153,11.04
		c-0.754,4.068-2.731,7.339-5.957,9.789c-3.263,2.448-6.795,3.377-10.613,2.776c-3.798-0.608-6.789-2.568-8.953-5.885
		c-2.189-3.295-2.9-6.989-2.147-11.059c0.752-4.066,2.724-7.321,5.945-9.754C105.723,40.017,109.253,39.086,113.05,39.708"/>
	<path fill="#FFFFFF" d="M158.744,58.501c2.38,3.363,3.223,7.104,2.545,11.198c-0.694,4.071-2.738,7.302-6.121,9.711
		c-3.407,2.401-7.147,3.258-11.235,2.56c-4.061-0.685-7.289-2.742-9.674-6.141c-2.41-3.387-3.268-7.117-2.575-11.189
		c0.693-4.086,2.742-7.332,6.15-9.715c3.39-2.41,7.113-3.253,11.163-2.539C153.085,53.08,156.329,55.128,158.744,58.501
		L158.744,58.501z"/>
	<path fill="#1E1A1A" d="M101.324,46.545c1.472-0.974,3.027-1.269,4.68-0.899c1.663,0.371,2.94,1.301,3.835,2.79
		c0.889,1.5,1.122,3.106,0.718,4.84c-0.409,1.735-1.34,3.081-2.801,4.058c-1.473,0.973-3.029,1.264-4.683,0.898
		c-1.658-0.371-2.919-1.294-3.814-2.781c-0.892-1.492-1.129-3.098-0.712-4.842C98.94,48.873,99.861,47.521,101.324,46.545"/>
	<path fill="#1E1A1A" d="M134.082,59.459c1.289-1.26,2.815-1.868,4.598-1.849c1.795,0.021,3.312,0.67,4.571,1.943
		c1.259,1.287,1.865,2.816,1.845,4.598c-0.019,1.782-0.667,3.29-1.94,4.55c-1.284,1.257-2.814,1.864-4.594,1.845
		c-1.784-0.02-3.294-0.664-4.552-1.94c-1.262-1.276-1.866-2.805-1.847-4.599C132.172,62.226,132.807,60.714,134.082,59.459"/>
	<path fill="#B9641E" d="M130.842,44.1c0.264,0.331,0.516,0.61,0.775,0.813c0.051,0.033,0.097,0.082,0.162,0.123
		c0.262,0.155,0.449,0.25,0.564,0.292c0.071,0.025,0.155,0.054,0.227,0.081c0.221,0.045,0.431,0.037,0.617-0.004
		c0.279-0.062,0.552-0.125,0.809-0.178c8.291-1.725,13.902-2.699,16.84-2.886c3.092-0.21,5.021,0.294,5.803,1.538
		c0.811,1.222,0.832,2.421,0.071,3.627c2.198,0.839,3.854,1.502,4.948,1.998c1.466,0.66,2.825,1.348,4.091,2.032
		c4.702,2.546,8.196,5.285,10.481,8.216c3.357,4.297,4.946,7.029,4.767,8.221c-0.141,1.17-1.865,1.137-5.136-0.111
		c2.037,3.318,3.367,6.928,3.984,10.848c0.3,1.895,0.241,3.274-0.141,4.137c-0.07,0.104-0.14,0.201-0.215,0.323
		c-0.034,0.062-0.07,0.114-0.116,0.161c-0.079,0.083-0.159,0.135-0.252,0.184c-0.255,0.118-0.512,0.186-0.785,0.23
		c-0.435,0.021-0.867-0.006-1.31-0.064c-0.359-0.017-0.708-0.061-1.07-0.109c-5.773-0.956-11.106-2.932-16.014-5.931
		c-0.317-0.19-0.878-0.53-1.688-1.022c0.225-1.003,0.39-1.738,0.502-2.188c0.265-1.112,0.438-2.243,0.507-3.378
		c0.035-0.542,0.049-1.076,0.03-1.623c-0.021-1.053-0.119-2.085-0.309-3.125c-0.19-1.035-0.466-2.004-0.853-2.934
		c-0.284-0.721-0.62-1.393-0.98-2.027c-0.605-1.038-1.372-1.912-2.321-2.613c-0.916-0.686-1.943-1.191-3.095-1.486
		c-1.05-0.258-2.137-0.404-3.287-0.443c-1.161-0.078-2.328-0.09-3.51-0.033c-0.692,0.025-1.381,0.1-2.072,0.207
		c-1.089,0.171-2.188,0.354-3.278,0.572c-0.979,0.21-1.957,0.422-2.946,0.66c-0.534,0.114-1.086,0.234-1.631,0.346
		c-0.926,0.195-1.851,0.348-2.771,0.436c-1.077,0.08-2.145,0.004-3.196-0.207c-0.839-0.184-1.664-0.412-2.467-0.696
		c-0.053-0.034-0.109-0.054-0.164-0.071c-0.074-0.025-0.128-0.045-0.196-0.072c-0.709-0.295-1.319-0.637-1.839-1.045
		c-0.835-0.609-1.585-1.32-2.231-2.134c-0.668-0.854-1.324-1.69-1.985-2.524c-0.577-0.791-1.172-1.572-1.796-2.379
		c-0.651-0.849-1.355-1.636-2.122-2.4c-0.569-0.582-1.184-1.133-1.812-1.637c-0.645-0.562-1.339-1.076-2.063-1.536
		c-0.642-0.388-1.288-0.76-1.973-1.11c-0.507-0.225-1.044-0.416-1.606-0.535c-0.305-0.076-0.604-0.13-0.926-0.169
		c-0.818-0.11-1.641-0.069-2.454,0.123c-1.686,0.466-3.142,1.302-4.35,2.524c-1.636,1.664-2.768,3.135-3.406,4.449
		c-0.64,1.314-1.009,2.309-1.111,3.008c-0.095,0.678-0.148,1.229-0.15,1.643l-4.872-0.227c-1.345-0.187-2.996-0.581-4.951-1.174
		c-1.094-0.403-2.183-0.914-3.239-1.557c-1.05-0.588-1.421-1.42-1.131-2.506c0.255-1.181,1.216-2.604,2.879-4.254
		c2.475-2.479,4.824-4.456,7.062-5.905c-0.566-0.057-1.154-0.373-1.764-0.938c-0.964-0.912-1.044-1.812-0.241-2.688
		c0.903-0.808,1.957-1.453,3.13-1.943c0.351-0.146,0.685-0.281,1.031-0.415c5.284-2.01,11.038-2.456,17.292-1.333
		c0.076,0.014,0.15,0.026,0.229,0.037c0.473-0.804,1.142-1.531,1.996-2.203c0.95-0.757,2.076-0.568,3.366,0.586
		c3.284,3.016,6.38,6.121,9.268,9.312c1.315,1.447,2.577,2.908,3.815,4.392c0.145,0.165,0.277,0.337,0.412,0.493
		C130.73,43.966,130.785,44.033,130.842,44.1"/>
	<path fill="#C3CBE0" d="M185.064,13.375c0.433-1.022,0.516-1.994,0.218-2.921c-0.056-0.162-0.126-0.328-0.208-0.499
		c-0.356-0.757-0.798-1.352-1.331-1.793c-0.21-0.167-0.446-0.31-0.688-0.439c-0.823-0.461-2.013-0.934-3.558-1.402
		c-2.207-0.684-4.515-0.97-6.919-0.848c-0.608,0.012-1.209,0.01-1.821-0.012c-0.606-0.033-1.197-0.064-1.753-0.111
		c-1.796-0.159-3.742-0.547-5.806-1.18c-0.997-0.328-1.854-0.545-2.586-0.684c-1.395-0.277-2.632-0.178-3.72,0.27
		c-1.111,0.457-2,1.418-2.682,2.896l-7.202,16.472c-0.525,1.201-0.536,2.338-0.044,3.441c0.162,0.311,0.339,0.577,0.541,0.821
		c0.27,0.314,0.587,0.583,0.959,0.806c0.358,0.203,0.76,0.373,1.176,0.501c0.232,0.064,0.464,0.114,0.69,0.146
		c1.042,0.15,2.054-0.023,3.062-0.518c0.153-0.057,0.285-0.119,0.4-0.193c1.07-0.564,1.833-1.396,2.291-2.457l5.871-13.668
		c-0.928-0.115-1.842-0.225-2.77-0.336c0.928,0.111,1.842,0.221,2.77,0.336c1.526,0.162,3.057,0.323,4.604,0.492
		c2.247,0.236,4.913,0.822,8.027,1.771c0.37-1.031,0.715-2.085,1.061-3.171c-0.346,1.086-0.69,2.14-1.061,3.171
		c-1.892,5.435-3.896,9.923-6.026,13.472c-0.524,1.197-0.548,2.328-0.045,3.406c0.512,1.082,1.403,1.799,2.679,2.16
		c1.253,0.352,2.501,0.229,3.734-0.359c1.279-0.59,2.184-1.467,2.708-2.664C180.339,25.075,182.801,19.444,185.064,13.375"/>
	
		<path fill="none" stroke="#72788D" stroke-width="2.3978" stroke-linecap="round" stroke-linejoin="round" stroke-miterlimit="10" d="
		M174.586,14.263c-1.89,5.436-3.897,9.924-6.027,13.473c-0.52,1.197-0.547,2.33-0.045,3.406c0.515,1.082,1.406,1.801,2.681,2.162
		c1.254,0.351,2.502,0.227,3.735-0.361c1.279-0.592,2.184-1.467,2.708-2.664c2.701-5.204,5.167-10.836,7.427-16.904
		c0.436-1.021,0.516-1.993,0.218-2.921c-0.056-0.162-0.126-0.328-0.208-0.499c-0.354-0.757-0.8-1.354-1.331-1.793
		c-0.212-0.166-0.446-0.311-0.688-0.439c-0.823-0.461-2.013-0.934-3.558-1.402c-2.207-0.684-4.515-0.97-6.919-0.848
		c-0.606,0.012-1.211,0.01-1.821-0.012c-0.606-0.033-1.197-0.064-1.753-0.113c-1.798-0.16-3.744-0.545-5.805-1.176
		c-0.998-0.33-1.858-0.548-2.587-0.688c-1.395-0.272-2.632-0.175-3.721,0.274c-1.11,0.454-1.999,1.416-2.681,2.894l-7.202,16.475
		c-0.525,1.198-0.539,2.335-0.046,3.438c0.164,0.312,0.341,0.578,0.543,0.822c0.273,0.315,0.59,0.583,0.959,0.805
		c0.358,0.204,0.759,0.374,1.175,0.505c0.233,0.062,0.465,0.111,0.694,0.141c1.039,0.151,2.051-0.021,3.06-0.516
		c0.153-0.057,0.285-0.119,0.403-0.191c1.067-0.566,1.83-1.398,2.291-2.461l5.869-13.669 M175.648,11.095
		c-0.346,1.086-0.69,2.138-1.062,3.168 M161.958,11.999c1.527,0.165,3.058,0.326,4.603,0.495c2.242,0.234,4.913,0.822,8.025,1.77
		 M159.188,11.664c0.928,0.113,1.84,0.224,2.771,0.335"/>
	<path fill="#ADB2D0" d="M179.352,29.22c-5.09-0.819-10.486-2.553-16.18-5.214c-8.856-5.161-17.5-9.047-25.966-11.665
		c-8.463-2.616-16.41-4.896-23.866-6.85c-7.46-1.953-14.148-3.389-20.031-4.293c-4.419,1.6-7.215,4.884-8.371,9.842
		c-0.011,0.029-0.024,0.07-0.024,0.117c-0.039,0.162-0.1,0.332-0.163,0.518c-0.097,0.236-0.204,0.497-0.318,0.791
		c-0.378,0.867-0.838,1.691-1.344,2.471c-1.351,2.311-1.928,4.17-1.748,5.611c13.477,2.711,25.047,5.514,34.74,8.396
		c7.864,2.331,13.453,4.086,16.771,5.274c2.408,1.007,4.866,1.883,7.374,2.608c0.67,0.183,1.339,0.351,2.005,0.532
		c2.911,0.845,5.663,1.728,8.25,2.639c1.556,0.6,3.071,1.25,4.57,1.955c2.605,1.136,5.282,2.029,8.048,2.697
		c2.905,0.762,5.791,1.631,8.658,2.605c3.148,1.07,6.204,2.313,9.186,3.737c2.916,1.337,5.71,2.841,8.413,4.517
		c1.479,0.906,2.93,1.85,4.363,2.838c2.833,1.894,5.56,3.959,8.187,6.182c2.503,2.164,4.994,4.369,7.468,6.617
		c2.509,2.291,4.969,4.613,7.412,6.963c0.162,0.166,0.333,0.319,0.496,0.486c1.325-1.223,2.493-3.323,3.514-6.285
		c0.071-0.213,0.142-0.408,0.193-0.614c0.316-0.953,0.574-1.735,0.774-2.381c0.004-0.015,0.004-0.015,0.011-0.028
		c0.12-0.384,0.231-0.712,0.306-0.972c0.16-0.514,0.314-1.015,0.49-1.511c0.663-2.07,1.232-3.807,1.665-5.211
		c0.108-0.359,0.229-0.697,0.329-1.044c0.028-0.118,0.067-0.233,0.104-0.345c0.421-2.041,0.056-3.516-1.072-4.428
		c-0.051-0.064-0.127-0.139-0.195-0.209c-4.154-4.318-8.847-8.408-14.083-12.258l-7.787-5.635
		C196.878,34.438,189.475,31.619,179.352,29.22"/>
	
		<path fill="none" stroke="#72788D" stroke-width="2.3978" stroke-linecap="round" stroke-linejoin="round" stroke-miterlimit="10" d="
		M179.352,29.22c10.123,2.398,17.526,5.218,22.177,8.455l7.787,5.635c5.234,3.848,9.929,7.939,14.083,12.258
		c0.068,0.07,0.145,0.145,0.195,0.209c1.128,0.912,1.493,2.387,1.072,4.428c-0.036,0.111-0.078,0.227-0.104,0.345
		c-0.101,0.347-0.221,0.685-0.329,1.044c-0.433,1.404-1.002,3.141-1.665,5.211c-0.176,0.496-0.331,0.996-0.49,1.511
		c-0.074,0.26-0.186,0.588-0.306,0.972c-0.007,0.014-0.007,0.014-0.011,0.028c-0.2,0.646-0.458,1.428-0.774,2.381
		c-0.052,0.206-0.122,0.401-0.193,0.614c-1.021,2.962-2.188,5.062-3.514,6.285c-0.163-0.167-0.334-0.32-0.496-0.486
		c-2.443-2.35-4.903-4.672-7.412-6.963c-2.474-2.248-4.965-4.453-7.468-6.617c-2.627-2.223-5.354-4.288-8.187-6.182
		c-1.434-0.988-2.884-1.932-4.363-2.838c-2.704-1.676-5.497-3.18-8.413-4.517c-2.981-1.424-6.037-2.667-9.186-3.737
		c-2.867-0.975-5.753-1.844-8.658-2.605c-2.766-0.668-5.442-1.562-8.048-2.697c-1.499-0.705-3.015-1.355-4.57-1.955
		c-2.587-0.911-5.339-1.794-8.25-2.639c-0.666-0.182-1.335-0.35-2.005-0.532c-2.508-0.726-4.966-1.602-7.374-2.608
		c-3.317-1.188-8.906-2.943-16.771-5.274c-9.693-2.882-21.264-5.685-34.74-8.396c-0.18-1.441,0.397-3.301,1.748-5.611
		c0.506-0.779,0.966-1.604,1.344-2.471c0.114-0.294,0.222-0.557,0.318-0.791c0.063-0.186,0.124-0.355,0.163-0.518
		c0-0.047,0.014-0.088,0.024-0.117c1.156-4.958,3.952-8.242,8.371-9.842c5.883,0.904,12.571,2.34,20.031,4.293
		c7.456,1.953,15.403,4.233,23.866,6.85c8.466,2.618,17.109,6.504,25.966,11.665C168.865,26.667,174.262,28.401,179.352,29.22z"/>
	<path fill="#99C14F" d="M121.641,126.249c7.362,0.544,14.646,3.373,21.876,8.488c9.817,8.011,14.876,18.59,15.201,31.718
		c-0.038,1.609-0.336,3.76-0.9,6.411l-16.882-7.534c1.041-1.492,2.014-3.224,2.947-5.218c-0.934,1.994-1.906,3.726-2.947,5.218
		c-2.703,3.877-5.759,6.062-9.171,6.539c-0.766-0.012-1.481-0.102-2.163-0.274c-1.299-0.302-2.472-0.908-3.517-1.849
		c-0.285-0.258-0.542-0.539-0.776-0.824c-0.663-0.854-1.075-1.847-1.238-2.951c-0.188-1.345-0.069-2.668,0.314-3.963
		c0.318-1.04,0.713-2.06,1.212-3.052c0.131-0.284,0.266-0.555,0.407-0.832c-0.142,0.277-0.276,0.548-0.407,0.832
		c-0.499,0.992-0.894,2.012-1.212,3.052c-0.384,1.295-0.503,2.618-0.314,3.963c0.163,1.104,0.575,2.097,1.238,2.951
		c-0.677,0.963-1.404,1.883-2.181,2.755c-2.38,2.646-5.485,3.888-9.283,3.748c-1.392-0.193-2.544-0.772-3.456-1.738
		c-0.787-1.026-1.395-2.103-1.832-3.261c-0.062-0.183-0.133-0.374-0.188-0.545c-0.084-0.236-0.149-0.463-0.207-0.685
		c-0.054-0.172-0.083-0.353-0.139-0.523c-0.034-0.146-0.048-0.282-0.078-0.426c-0.2-1.141-0.281-2.36-0.224-3.629
		c0.154-2.4,0.813-5.022,2.022-7.885c-1.209,2.862-1.868,5.484-2.022,7.885c-0.058,1.269,0.023,2.488,0.224,3.629
		c0.03,0.144,0.044,0.28,0.078,0.426c-0.951,0.414-1.453,0.63-1.515,0.654c-0.078,0.017-0.142,0.052-0.21,0.09
		c-2.73,0.957-5.311,0.55-7.737-1.274c-3.115-3.017-4.286-6.757-3.531-11.191c0.466-2.159,1.062-4.177,1.779-6.054
		c0.659-1.727,1.448-3.342,2.341-4.833l0.012-0.027c0.123-0.173,0.229-0.358,0.331-0.528c0.503-0.79,1.045-1.551,1.609-2.282
		c0.257-0.341,0.544-0.679,0.831-1.01c-0.287,0.331-0.574,0.669-0.831,1.01c-0.564,0.731-1.106,1.492-1.609,2.282
		c-0.102,0.17-0.208,0.355-0.331,0.528c-0.833-0.451-1.504-0.966-2.002-1.567c-0.418-0.496-0.716-1.023-0.89-1.611
		c-0.227-0.757-0.265-1.593-0.133-2.505c1.195-4.753,4.032-8.346,8.494-10.783c0.024-0.021,0.064-0.038,0.091-0.06l0.715-0.365
		c0.072-0.039,0.154-0.064,0.219-0.102C110.29,126.76,115.608,125.833,121.641,126.249"/>
	
		<path fill="none" stroke="#265C30" stroke-width="2.4012" stroke-linecap="round" stroke-linejoin="round" stroke-miterlimit="10" d="
		M143.887,160.115c-0.938,1.993-1.91,3.725-2.949,5.218 M99.162,146.039l-0.012,0.027c-0.895,1.488-1.685,3.105-2.34,4.834
		c-0.719,1.876-1.314,3.894-1.776,6.054c-0.759,4.434,0.412,8.174,3.527,11.19c2.427,1.824,5.007,2.231,7.741,1.276
		c0.064-0.04,0.128-0.075,0.206-0.092c0.061-0.025,0.563-0.24,1.515-0.654 M101.934,142.218c-0.287,0.331-0.573,0.669-0.831,1.01
		c-0.564,0.728-1.108,1.491-1.609,2.282c-0.102,0.17-0.208,0.355-0.331,0.528 M108.023,168.674c0.056,0.172,0.085,0.353,0.141,0.525
		c0.056,0.22,0.121,0.446,0.205,0.683c0.057,0.171,0.125,0.362,0.188,0.545c0.438,1.16,1.047,2.235,1.832,3.261
		c0.912,0.966,2.062,1.545,3.456,1.738c3.801,0.142,6.902-1.102,9.286-3.751c0.776-0.869,1.501-1.789,2.178-2.752 M109.744,156.735
		c-1.206,2.865-1.868,5.484-2.02,7.886c-0.062,1.268,0.021,2.487,0.219,3.625c0.032,0.146,0.049,0.285,0.08,0.429 M125.309,168.923
		L125.309,168.923c0.237,0.286,0.491,0.566,0.776,0.824c1.045,0.94,2.218,1.547,3.517,1.849c0.682,0.173,1.397,0.263,2.163,0.274
		c3.412-0.477,6.468-2.662,9.173-6.538 M126.004,158.125c-0.142,0.277-0.276,0.544-0.407,0.832
		c-0.499,0.992-0.892,2.013-1.214,3.051c-0.382,1.296-0.501,2.619-0.312,3.964c0.163,1.104,0.575,2.097,1.238,2.951
		 M140.938,165.333l16.88,7.533c0.564-2.651,0.862-4.802,0.9-6.411c-0.323-13.128-5.383-23.708-15.201-31.718
		c-7.229-5.115-14.514-7.944-21.877-8.487c-6.034-0.413-11.35,0.511-15.983,2.796c-0.064,0.032-0.146,0.062-0.216,0.102
		l-0.718,0.365c-0.026,0.022-0.066,0.039-0.091,0.06c-4.462,2.438-7.299,6.03-8.495,10.785c-0.131,0.91-0.093,1.746,0.134,2.503
		c0.174,0.588,0.472,1.115,0.89,1.611c0.498,0.602,1.169,1.116,2.002,1.567"/>
	<path fill="#ADB2D0" d="M145.309,204.593c-0.833-0.147-1.502,0.422-2.029,1.717l-7.665,18.374c-0.524,1.257-0.465,2.17,0.18,2.729
		l13.256,6.047l-3.381,6.336l-12.622-5.767c-5.523-2.227-7.028-6.416-4.479-12.559l7.676-18.386c2.567-6.138,6.513-7.846,11.84-5.13
		l10.196,4.669l-3.399,6.339L145.309,204.593z"/>
	
		<path fill="none" stroke="#72788D" stroke-width="2.348" stroke-linecap="round" stroke-linejoin="round" stroke-miterlimit="10" d="
		M149.05,233.46l-13.253-6.047c-0.647-0.56-0.707-1.473-0.183-2.729l7.665-18.374c0.527-1.295,1.196-1.864,2.029-1.717l9.571,4.37
		l3.399-6.339l-10.196-4.669c-5.327-2.716-9.272-1.008-11.84,5.13l-7.676,18.386c-2.549,6.143-1.044,10.332,4.479,12.559
		l12.622,5.767"/>
	<polygon fill="#C3CBE0" points="155.831,197.3 163.982,200.939 178.393,207.373 172.324,220.961 149.765,210.89 	"/>
	<polygon fill="#C3CBE0" points="157.817,214.747 149.667,211.107 149.765,210.89 172.324,220.961 172.229,221.178 	"/>
	
		<path fill="none" stroke="#72788D" stroke-width="2.348" stroke-linecap="round" stroke-linejoin="round" stroke-miterlimit="10" d="
		M149.765,210.89l6.066-13.59l8.151,3.639l14.41,6.434l-6.068,13.589 M172.324,220.961l-0.095,0.217l-14.412-6.432l-8.15-3.64
		l0.098-0.217 M172.324,220.961l-22.56-10.071"/>
	<path fill="#ADB2D0" d="M175.479,210.333c0.334,0.148,0.618,0.326,0.869,0.533l-0.477-0.211c-0.656-0.116-1.343-0.058-2.028,0.201
		c-1.026,0.359-1.769,0.981-2.244,1.846c-0.476,0.875-0.531,1.784-0.203,2.706c0.105,0.234,0.252,0.479,0.46,0.716
		c0.347,0.434,1.009,0.913,1.95,1.482l-1.379-0.633c-0.938-0.563-1.605-1.054-1.951-1.48c-0.206-0.236-0.356-0.481-0.458-0.718
		c-0.334-0.921-0.273-1.827,0.208-2.704c0.469-0.868,1.213-1.486,2.242-1.844c0.682-0.263,1.367-0.325,2.022-0.206
		C174.833,210.078,175.154,210.171,175.479,210.333"/>
	<path fill="#ADB2D0" d="M175.869,210.653l0.476,0.21l2.342,1.078c4.484,1.826,6.427,4.557,5.836,8.198
		c-0.188,0.928-0.507,1.992-0.958,3.204c-0.195,0.67-0.702,1.875-1.517,3.617c-2.636,5.558-4.817,10.869-6.543,15.95
		c-2.549,6.125-6.492,7.839-11.849,5.106l-17.987-8.221l3.381-6.336l17.356,7.926c0.848,0.153,1.545-0.403,2.086-1.69l7.638-18.382
		c0.531-1.308,0.458-2.228-0.237-2.762l-2.091-0.947c-0.937-0.568-1.603-1.051-1.945-1.481c-0.208-0.236-0.354-0.481-0.46-0.716
		c-0.328-0.922-0.271-1.83,0.203-2.706c0.476-0.864,1.218-1.486,2.244-1.846C174.529,210.6,175.216,210.539,175.869,210.653"/>
	
		<path fill="none" stroke="#72788D" stroke-width="2.348" stroke-linecap="round" stroke-linejoin="round" stroke-miterlimit="10" d="
		M173.807,217.606c-0.941-0.569-1.604-1.049-1.95-1.482c-0.208-0.236-0.354-0.481-0.46-0.716c-0.328-0.922-0.271-1.83,0.203-2.706
		c0.476-0.864,1.218-1.486,2.244-1.846c0.686-0.259,1.372-0.317,2.028-0.201l0.477,0.211l2.338,1.075
		c4.484,1.826,6.427,4.557,5.836,8.198c-0.188,0.928-0.507,1.992-0.958,3.204c-0.195,0.67-0.7,1.876-1.517,3.617
		c-2.636,5.558-4.815,10.87-6.543,15.95c-2.549,6.125-6.492,7.839-11.849,5.106l-17.987-8.221 M149.05,233.46l17.356,7.926
		c0.849,0.154,1.545-0.403,2.088-1.689l7.636-18.383c0.531-1.308,0.458-2.228-0.237-2.762l-2.086-0.946 M172.428,216.973
		l1.379,0.633"/>
	<path fill="#ADB2D0" d="M199.141,188.208c-0.181-0.317-0.393-0.624-0.603-0.925c-0.251-0.319-0.521-0.62-0.826-0.868
		c-0.419-0.296-0.853-0.571-1.307-0.824l-0.872-0.375c-2.315-1.049-5.332-2.559-9.065-4.495l-5.268-2.305
		c-0.918-0.423-1.865-0.86-2.837-1.312c-0.58-0.294-1.205-0.6-1.845-0.907c-0.962-0.476-1.985-0.983-3.073-1.498
		c-0.438-0.213-0.793-0.386-1.087-0.502c-0.158-0.07-1.486-0.664-4.016-1.777c-1.955-0.857-4.594-2.037-7.96-3.522
		c-6.95-3.069-13.96-6.053-20.999-8.923c-0.721-0.322-2.903-1.168-6.558-2.558c-3.649-1.391-6.979-2.766-9.994-4.11
		c-1.519-0.679-4.104-2.09-7.795-4.235c-3.691-2.163-6.782-3.688-9.281-4.562c-2.5-0.875-5.062-1.922-7.658-3.113
		c-1.16-0.53-3.853-1.719-8.088-3.546c-2.831-1.216-6.328-2.715-10.512-4.502c-2.019-0.871-4.201-1.798-6.541-2.791
		c-0.744-0.314-1.498-0.638-2.27-0.964c-1.116-0.482-2.285-0.973-3.485-1.49c-0.387,0.017-0.833,0.088-1.348,0.229
		c-1.65,0.44-2.772,1.323-3.364,2.648l-1.477,3.311c-0.675,1.512-0.675,3.057,0.007,4.633c0.277,0.656,0.907,1.42,1.864,2.257
		l1.779,1.281l0.163,0.104l0.503,0.225l32.634,14.524c0.081,0.047,0.262,0.145,0.558,0.296c1.321,0.684,4.814,2.435,10.494,5.25
		c3.469,1.722,6.896,3.413,10.291,5.074l0.045,0.019l0.043,0.021l0.027,0.012l0.048,0.021l0.041,0.02l0.046,0.019l0.039,0.02
		l0.045,0.019l0.043,0.02l0.043,0.02l0.043,0.02l11.059,4.181c0.378,0.124,0.753,0.253,1.123,0.392l-0.128-0.061
		c-0.284-0.143-0.155-0.086,0.408,0.167c-0.015-0.006-0.044-0.02-0.077-0.016l0.071,0.031c0.106,0.029,0.195,0.068,0.28,0.107
		c1.859,0.753,3.811,1.576,5.876,2.448c4.935,2.088,10.444,4.55,16.529,7.347l19.757,9.382c0.124,0.04,0.236,0.09,0.35,0.142
		l0.26,0.117c1.448,0.595,2.868,1.214,4.292,1.866c1.224,0.545,2.45,1.13,3.647,1.742l4.787,2.14
		c0.226,0.079,0.434,0.158,0.635,0.249c0.138,0.044,0.284,0.109,0.41,0.166c0.136,0.044,0.282,0.108,0.41,0.166
		c0.108,0.032,0.195,0.074,0.299,0.104c0.666,0.183,1.329,0.239,2.036,0.169c0.422-0.056,0.855-0.102,1.287-0.134
		c0.729-0.04,1.404-0.24,2.058-0.575c1.283-0.586,2.209-1.538,2.793-2.85l1.085-2.427c0.446-1.005,0.69-1.7,0.751-2.105
		c0.032-0.229,0.047-0.465,0.054-0.707c-0.014-0.239-0.135-0.667-0.368-1.269C199.359,188.663,199.249,188.438,199.141,188.208"/>
	<path fill="#C3CBE0" d="M179.568,194.245c-1.423-0.652-2.843-1.271-4.291-1.866l-0.26-0.117c-0.113-0.052-0.226-0.102-0.35-0.142
		l-19.757-9.382c-6.085-2.797-11.595-5.259-16.529-7.347c-2.065-0.872-4.017-1.695-5.876-2.448l-0.562-0.216
		c-0.372-0.135-0.746-0.27-1.116-0.405l-11.059-4.181l-0.043-0.02l-0.045-0.02l-0.042-0.02l-0.044-0.019l-0.041-0.02l-0.044-0.019
		l-0.046-0.021l-0.043-0.02l-0.027-0.012l-0.043-0.021l-0.045-0.019c-3.395-1.661-6.822-3.353-10.291-5.074
		c-5.68-2.815-9.173-4.566-10.494-5.25c-0.296-0.151-0.477-0.249-0.56-0.297L65.33,142.791c-0.493,1.307-0.918,2.453-1.3,3.455
		c-0.178,0.481-0.344,0.925-0.5,1.318c-0.345,0.891-0.627,1.634-0.843,2.198c-0.002,0.045-0.017,0.075-0.033,0.114
		c-0.316,0.822-0.619,1.653-0.941,2.491c-0.315,0.82-0.614,1.652-0.937,2.487c-0.322,0.833-0.628,1.681-0.951,2.516
		c-0.181,0.482-0.368,0.977-0.553,1.473l-3.43,8.921c-1.823,6.526-3.216,10.923-4.173,13.181c-0.288,0.688-0.588,1.394-0.892,2.074
		c-0.852,1.79-1.817,3.256-2.867,4.407c-1.192,1.319-2.157,2.819-2.898,4.479c-0.474,1.059-1.192,3.953-2.164,8.644
		c-0.958,4.706-2.001,8.24-3.129,10.576c-1.438,4.653-3.376,9.845-5.805,15.561c-2.433,5.716-4.938,11.681-7.513,17.878
		c-2.579,6.194-5.201,12.53-7.91,19.022c-0.39,0.916-0.821,1.961-1.302,3.111l-2.47,6.003c-0.096,0.251-0.209,0.507-0.309,0.767
		c-0.693,1.745-1.469,3.63-2.302,5.657c-0.074,0.204-0.149,0.413-0.239,0.619c2.129,0.61,4.049,1.084,5.774,1.396
		c2.312,0.446,4.616,0.893,6.909,1.385c0.209,0.031,0.408,0.053,0.62,0.087c0.604,0.076,1.21,0.187,1.786,0.329
		c1.188,0.291,2.312,0.71,3.377,1.271c0.323,0.172,0.646,0.378,0.941,0.612c1.004,0.688,1.937,1.505,2.821,2.433
		c0.589,0.503,1.223,0.943,1.889,1.352c2.758,1.842,4.253,2.834,4.481,2.985c1.073,0.654,6.17,2.983,15.334,6.959
		c3.771,1.618,7.343,3.004,10.716,4.172l6.576,2.935c1.583,0.915,2.907,1.667,3.968,2.275c0.801,0.45,1.457,0.811,1.971,1.085
		c1.938,1.046,3.865,1.999,5.754,2.841c1.14,0.509,2.762,1.072,4.839,1.687c0.264,0.062,2.002,0.514,5.214,1.336
		c0.752,0.224,1.499,0.402,2.268,0.504c1.277,0.037,2.512,0.187,3.696,0.477c0.366,0.067,0.741,0.164,1.082,0.29
		c1.124,0.421,2.191,0.978,3.2,1.669c0.493,0.329,0.979,0.711,1.44,1.11c0.164,0.133,0.31,0.267,0.478,0.403
		c1.893,1.379,3.77,2.795,5.625,4.213c0.296,0.233,0.607,0.464,0.912,0.714c0.37,0.298,0.741,0.592,1.107,0.882l5.517,4.006
		c1.016,0.244,2.169,0.488,3.438,0.7c1.888-4.108,3.141-6.764,3.771-7.977c1.246-2.317,3.57-6.058,7.005-11.23
		c3.427-5.168,6.188-11.188,8.251-18.059c2.065-6.877,6.09-14.574,12.065-23.113c1.618-2.729,2.988-5.607,4.126-8.62
		c2.188-5.825,4.723-11.313,7.614-16.467c2.905-5.149,5.541-10.017,7.917-14.564c2.381-4.562,4.629-9.119,6.754-13.685
		c2.137-4.56,3.461-7.443,3.95-8.621c0.506-1.173,0.872-2.149,1.09-2.905c0.252-0.756,0.413-1.232,0.501-1.398
		c0.101-0.183,0.184-0.368,0.269-0.558c0.483-0.894,1.184-2.27,2.13-4.111c-0.126-0.057-0.272-0.122-0.41-0.166
		c-0.201-0.091-0.409-0.17-0.635-0.249l-4.787-2.14C182.02,195.375,180.793,194.79,179.568,194.245"/>
	<path fill="#FFFFFF" d="M132.138,172.795l-0.187-0.082l-0.007,0.014C132.008,172.738,132.066,172.763,132.138,172.795"/>
	<path fill="#ADB2D0" d="M131.944,172.727l0.007-0.014c-0.37-0.139-0.748-0.269-1.121-0.392
		C131.198,172.458,131.572,172.592,131.944,172.727"/>
	<path fill="#ADB2D0" d="M66.517,302.722c-3.369-1.166-6.94-2.552-10.712-4.17c-9.159-3.975-14.261-6.305-15.337-6.956
		c-0.226-0.154-1.721-1.146-4.479-2.988c-0.666-0.405-1.298-0.849-1.889-1.352c-0.881-0.928-1.817-1.744-2.822-2.433
		c-0.297-0.234-0.617-0.44-0.94-0.612c-1.064-0.562-2.189-0.98-3.377-1.271c-0.576-0.143-1.182-0.253-1.785-0.329
		c-0.213-0.034-0.412-0.056-0.623-0.087c-2.291-0.492-4.596-0.938-6.907-1.385c-1.726-0.312-3.646-0.786-5.774-1.396
		c-0.017-0.008-0.049-0.021-0.062-0.017l-0.071-0.034c-0.539-0.154-1.041-0.3-1.492-0.42c-2.344-0.678-3.519-1.024-3.562-1.045
		c-0.529-0.025-1.034,0.181-1.521,0.608c-0.161,0.136-0.309,0.264-0.441,0.412c-0.46,0.486-0.843,1.067-1.144,1.74l-1.858,4.154
		c-0.672,1.515-0.724,3.035-0.159,4.557c0.545,1.531,1.546,2.62,3.031,3.282l112.857,50.386c0.589,0.266,1.179,0.431,1.79,0.493
		c0.877,0.089,1.786-0.054,2.706-0.411c1.503-0.605,2.583-1.663,3.258-3.176l1.854-4.155c0.283-0.631,0.458-1.223,0.532-1.821
		c0.032-0.262,0.052-0.491,0.052-0.731c0.009-0.176-0.006-0.336-0.017-0.505c-0.057-0.652-0.531-1.409-1.423-2.244
		c-0.321-0.321-0.633-0.559-0.925-0.718c-0.583-0.087-1.133-0.167-1.668-0.248c-1.272-0.212-2.426-0.456-3.441-0.7l-5.517-4.006
		c-0.366-0.29-0.737-0.585-1.107-0.882c-0.305-0.25-0.616-0.48-0.912-0.714c-1.855-1.418-3.732-2.834-5.625-4.213
		c-0.168-0.137-0.313-0.271-0.478-0.403c-0.462-0.399-0.947-0.781-1.44-1.11c-1.011-0.691-2.076-1.248-3.201-1.669
		c-0.34-0.126-0.715-0.223-1.081-0.29c-1.185-0.29-2.419-0.439-3.696-0.477c-0.769-0.102-1.517-0.279-2.268-0.504
		c-3.213-0.822-4.95-1.274-5.214-1.336c-2.077-0.614-3.699-1.178-4.839-1.687c-1.891-0.844-3.815-1.795-5.754-2.841
		c-0.514-0.274-1.17-0.635-1.971-1.085c-1.061-0.608-2.387-1.361-3.968-2.275L66.517,302.722z"/>
	<path fill="#C3CBE0" d="M14.412,273.466c0.1-0.26,0.213-0.516,0.309-0.767c-0.111,0.244-0.224,0.5-0.323,0.759
		c-0.724,1.733-1.493,3.619-2.329,5.647c-0.072,0.203-0.165,0.407-0.26,0.62c0.014-0.005,0.046,0.009,0.062,0.017
		c0.09-0.206,0.165-0.415,0.239-0.619C12.946,277.097,13.719,275.211,14.412,273.466"/>
	
		<path fill="none" stroke="#72788D" stroke-width="2.348" stroke-linecap="round" stroke-linejoin="round" stroke-miterlimit="10" d="
		M11.871,279.743c-0.017-0.008-0.049-0.021-0.062-0.017l-0.071-0.034c-0.538-0.154-1.043-0.301-1.492-0.42
		c-2.344-0.678-3.521-1.025-3.562-1.045c-0.527-0.026-1.034,0.181-1.521,0.608c-0.163,0.136-0.309,0.264-0.442,0.412
		c-0.459,0.486-0.84,1.068-1.141,1.741l-1.855,4.154c-0.677,1.514-0.729,3.034-0.164,4.556c0.545,1.531,1.545,2.62,3.031,3.282
		l112.857,50.386c0.593,0.267,1.179,0.431,1.79,0.493c0.877,0.089,1.786-0.054,2.706-0.411c1.503-0.605,2.583-1.663,3.258-3.178
		l1.854-4.153c0.283-0.631,0.458-1.228,0.533-1.821c0.031-0.262,0.049-0.491,0.051-0.731c0.009-0.175-0.006-0.336-0.017-0.505
		c-0.055-0.652-0.531-1.409-1.422-2.244c-0.321-0.321-0.631-0.559-0.924-0.717c-0.583-0.087-1.139-0.17-1.673-0.249
		 M132.138,172.795l0.017,0.009l0.071,0.031c0.106,0.029,0.195,0.068,0.28,0.107c1.859,0.753,3.811,1.576,5.876,2.448
		c4.935,2.088,10.444,4.55,16.529,7.347l19.757,9.382c0.124,0.04,0.236,0.09,0.35,0.142l0.26,0.117
		c1.448,0.595,2.868,1.214,4.292,1.866c1.224,0.545,2.45,1.13,3.647,1.742l4.787,2.14c0.226,0.079,0.434,0.158,0.635,0.249
		c0.138,0.044,0.284,0.109,0.41,0.166 M123.605,329.85c1.888-4.108,3.141-6.764,3.771-7.977c1.246-2.317,3.57-6.058,7.005-11.23
		c3.427-5.168,6.188-11.188,8.251-18.059c2.065-6.877,6.09-14.574,12.065-23.113c1.618-2.729,2.988-5.607,4.126-8.62
		c2.188-5.825,4.723-11.313,7.614-16.467c2.905-5.149,5.541-10.017,7.917-14.564c2.381-4.562,4.629-9.119,6.754-13.685
		c2.137-4.56,3.461-7.443,3.95-8.621c0.506-1.173,0.872-2.149,1.09-2.905c0.252-0.756,0.413-1.232,0.501-1.398
		c0.101-0.183,0.184-0.368,0.269-0.558c0.483-0.894,1.184-2.27,2.13-4.111 M64.664,142.461l0.163,0.104l0.503,0.225l32.632,14.523
		c0.083,0.048,0.264,0.146,0.56,0.297c1.321,0.684,4.814,2.435,10.494,5.25c3.469,1.722,6.896,3.413,10.291,5.074l0.045,0.019
		l0.043,0.021l0.027,0.012l0.043,0.02l0.046,0.021l0.046,0.019l0.039,0.02l0.045,0.019l0.043,0.02l0.043,0.02l0.043,0.02
		l11.059,4.181c0.375,0.123,0.753,0.253,1.123,0.392l0.187,0.082 M132.138,172.795c-0.071-0.032-0.13-0.058-0.193-0.068
		 M64.664,142.461c-0.502,1.321-0.93,2.479-1.312,3.481c-0.165,0.487-0.328,0.929-0.486,1.325c-0.33,0.896-0.611,1.64-0.827,2.203
		c-0.003,0.042-0.017,0.074-0.036,0.115c-0.312,0.819-0.615,1.652-0.921,2.496c-0.316,0.822-0.617,1.65-0.925,2.496
		c-0.322,0.834-0.632,1.679-0.95,2.516c-0.167,0.489-0.353,0.986-0.525,1.486l-3.398,8.93c-1.797,6.539-3.16,10.95-4.103,13.214
		c-0.273,0.698-0.572,1.404-0.877,2.083c-0.853,1.791-1.787,3.267-2.84,4.421c-1.178,1.326-2.143,2.821-2.885,4.483
		c-0.456,1.065-1.162,3.967-2.104,8.67c-0.942,4.713-1.972,8.252-3.074,10.604c-1.407,4.663-3.316,9.87-5.732,15.591
		c-2.389,5.735-4.864,11.713-7.411,17.924c-2.536,6.215-5.123,12.563-7.806,19.067c-0.379,0.922-0.796,1.975-1.26,3.13l-2.47,6.003
		c-0.093,0.251-0.207,0.508-0.309,0.767c-0.693,1.745-1.469,3.63-2.302,5.657c-0.074,0.204-0.149,0.413-0.239,0.619 M11.871,279.743
		c2.129,0.61,4.05,1.085,5.774,1.396c2.312,0.446,4.616,0.893,6.909,1.385c0.209,0.031,0.408,0.053,0.62,0.087
		c0.604,0.076,1.211,0.188,1.786,0.329c1.188,0.291,2.312,0.71,3.377,1.271c0.323,0.172,0.646,0.378,0.941,0.612
		c1.004,0.688,1.937,1.505,2.821,2.433c0.589,0.503,1.223,0.943,1.889,1.352c2.758,1.842,4.253,2.834,4.479,2.988
		c1.076,0.651,6.173,2.98,15.337,6.956c3.771,1.618,7.343,3.004,10.712,4.17l6.58,2.937c1.583,0.915,2.907,1.667,3.968,2.275
		c0.801,0.45,1.457,0.811,1.971,1.085c1.938,1.046,3.865,1.999,5.754,2.841c1.14,0.509,2.762,1.072,4.839,1.687
		c0.264,0.062,2.002,0.514,5.214,1.336c0.752,0.224,1.499,0.402,2.268,0.504c1.277,0.037,2.512,0.187,3.696,0.477
		c0.366,0.067,0.741,0.164,1.082,0.29c1.124,0.421,2.191,0.978,3.2,1.669c0.493,0.329,0.979,0.711,1.44,1.11
		c0.164,0.133,0.31,0.267,0.478,0.403c1.893,1.379,3.77,2.795,5.625,4.213c0.296,0.233,0.607,0.464,0.912,0.714
		c0.37,0.298,0.741,0.592,1.107,0.882l5.517,4.006c1.016,0.244,2.169,0.488,3.438,0.7 M189.049,198.542
		c0.136,0.044,0.282,0.108,0.41,0.166c0.108,0.032,0.195,0.074,0.299,0.104c0.666,0.183,1.329,0.239,2.036,0.169
		c0.423-0.058,0.855-0.102,1.287-0.134c0.729-0.04,1.404-0.24,2.058-0.575c1.283-0.586,2.209-1.538,2.793-2.85l1.085-2.427
		c0.446-1.005,0.689-1.7,0.751-2.105c0.032-0.229,0.047-0.465,0.054-0.707c-0.014-0.239-0.135-0.667-0.368-1.269
		c-0.094-0.251-0.204-0.476-0.312-0.705c-0.181-0.317-0.393-0.624-0.603-0.925c-0.251-0.319-0.521-0.62-0.826-0.868
		c-0.419-0.296-0.853-0.571-1.307-0.824l-0.872-0.375c-2.315-1.049-5.332-2.559-9.065-4.495l-5.268-2.305
		c-0.918-0.423-1.865-0.86-2.837-1.312c-0.58-0.294-1.205-0.6-1.845-0.907c-0.962-0.476-1.985-0.983-3.073-1.498
		c-0.438-0.213-0.793-0.386-1.087-0.502c-0.158-0.07-1.486-0.664-4.019-1.777c-1.952-0.857-4.591-2.037-7.957-3.522
		c-6.95-3.069-13.96-6.053-20.999-8.923c-0.721-0.322-2.903-1.168-6.558-2.558c-3.649-1.391-6.979-2.766-9.994-4.11
		c-1.519-0.679-4.104-2.09-7.797-4.236c-3.689-2.162-6.78-3.687-9.279-4.562c-2.5-0.875-5.062-1.922-7.658-3.113
		c-1.16-0.53-3.853-1.719-8.088-3.546c-2.831-1.216-6.328-2.715-10.512-4.502c-2.019-0.871-4.201-1.798-6.541-2.791
		c-0.744-0.314-1.498-0.638-2.27-0.964c-1.116-0.482-2.285-0.973-3.485-1.49c-0.389,0.017-0.835,0.088-1.348,0.229
		c-1.65,0.44-2.772,1.323-3.364,2.648l-1.477,3.311c-0.675,1.512-0.675,3.057,0.007,4.633c0.277,0.656,0.907,1.42,1.862,2.259
		l1.781,1.279"/>
	<path fill="#ADB2D0" d="M151.643,189.251c-0.402-0.261-0.827-0.369-1.232-0.343c-1.671,0.14-3.113,0.732-4.345,1.789
		c-1.312,1.118-2.455,2.396-3.443,3.798c-0.454,0.667-0.839,1.376-1.16,2.134c-2.073,4.914-4.058,9.861-5.98,14.865
		c-0.461,1.227-0.979,2.427-1.568,3.626c-2.162,4.422-3.773,7.755-4.839,10.028c-1.061,2.259-1.416,2.934-1.042,2.025
		c0.385-0.907,0.13-0.442-0.782,1.397c-0.903,1.834-1.144,3.655-0.742,5.461c0.42,1.811,0.261,3.021-0.491,3.668
		c-0.755,0.644-1.66,1.812-2.725,3.506c-1.07,1.696-2.14,3.354-3.205,4.969c-0.637,2.436-1.546,4.855-2.74,7.263
		c-1.681,3.412-3.058,6.963-4.104,10.659c-0.466,1.623-1.062,3.191-1.802,4.691c-1.096,2.226-2.228,4.42-3.43,6.6
		c-0.352,0.633-0.638,1.272-0.845,1.938c-0.309,0.959-0.716,1.87-1.188,2.736c-0.477,0.864-1.057,1.745-1.781,2.629
		c-0.71,0.887-1.079,1.911-1.115,3.04c-0.034,1.122-0.088,1.823-0.184,2.113c-0.946,2.743-2.05,5.418-3.339,8.03
		c-1.087,2.197-1.759,4.515-2.017,6.957c-0.217,1.912,0.062,3.773,0.833,5.567c0.532,1.184,1.437,1.895,2.737,2.122
		c0.39,0.059,0.745,0.041,1.092-0.079c2.804-0.89,5.04-2.541,6.729-4.92c0.727-1.043,1.242-2.162,1.536-3.366
		c0.268-1.019,0.553-2.051,0.883-3.059c0.607-1.898,1.134-3.82,1.591-5.734c0.144-0.599,0.094-1.534-0.139-2.796
		c-0.223-1.273,0.454-2.789,2.026-4.544c1.597-1.746,2.571-2.838,2.948-3.264c0.077-0.208,0.155-0.416,0.228-0.623
		c0.434-1.315,0.923-2.611,1.466-3.862c1.168-2.695,2.387-5.344,3.668-7.975c0.343-0.698,0.66-1.409,0.933-2.141
		c1.925-5.005,3.922-9.984,5.976-14.932c1.354-3.256,2.829-6.375,4.431-9.337l2.557-3.604l1.382-5.988l6.839-13.66
		c1.158-2.553,2.317-5.111,3.476-7.66c1.157-2.555,2.075-5.002,2.789-7.338c0.714-2.331,1.371-4.239,1.989-5.7
		c0.617-1.466,0.978-3.083,1.064-4.862C154.699,192.673,153.709,190.735,151.643,189.251"/>
	<path fill="#ADB2D0" d="M168.721,196.875c-0.502-0.307-1.062-0.411-1.66-0.31c-1.721,0.245-3.201,0.965-4.418,2.145
		c-1.849,1.775-3.242,3.617-4.191,5.507c-0.283,0.565-0.551,1.122-0.804,1.696c-0.297,0.693-0.562,1.408-0.81,2.115
		c-0.512,1.492-1.051,2.972-1.629,4.464c-0.592,1.554-1.182,3.072-1.771,4.548c-0.566,1.465-1.11,2.798-1.596,3.998
		c-0.477,1.186-1.016,2.312-1.589,3.37c-0.566,1.067-1.178,2.287-1.835,3.679c-0.594,1.254-1.184,2.496-1.762,3.752
		c-1.718,3.734-2.991,6.203-3.801,7.432c-0.811,1.229-1.547,4.822-2.227,10.802l-5.854,7.642c-1.289,3.973-2.689,8.186-4.185,12.665
		c-0.809,3.561-2.009,6.625-3.597,9.181c-1.576,2.555-2.407,4.151-2.465,4.78c-0.056,0.634-1.508,3.696-4.363,9.196
		c0.103,1.441-0.121,2.64-0.665,3.622c-0.896,1.927-1.872,4.037-2.925,6.312c-0.864,1.859-1.443,3.823-1.763,5.885
		c-0.215,1.462-0.242,2.911-0.074,4.354c0.131,1.066,0.49,2.081,1.094,3.022c0.053,0.105,0.121,0.188,0.206,0.272
		c1.352,1.39,2.862,1.646,4.553,0.764c2.94-1.547,5.138-3.802,6.604-6.728c0.396-0.771,0.64-1.631,0.767-2.57
		c0.125-0.94,0.535-2.362,1.221-4.288c0.688-1.932,1.195-4.264,1.51-6.98c2.152-2.46,3.638-4.936,4.454-7.418
		c0.811-2.482,1.907-5.172,3.295-8.076c1.381-2.9,2.392-5.055,3.04-6.465l5.388-14.507l3.184-4.462l1.37-5.078l10.912-22.935
		c2.327-5.087,4.669-10.182,6.988-15.267c1.491-3.261,2.225-6.691,2.211-10.3C171.736,200.196,170.783,198.264,168.721,196.875"/>
	<path fill="#ADB2D0" d="M135.284,182.445c-1.509-1.458-3.18-1.627-5.027-0.476c-2.501,1.567-4.44,3.629-5.839,6.185
		c-1.175,2.161-2.123,4.403-2.865,6.725c-0.487,1.553-1.098,3.046-1.829,4.487c-1.667,3.308-3.126,6.688-4.354,10.179
		c-0.249,0.672-0.557,1.327-0.93,1.93c-0.8,1.329-0.859,2.656-0.183,4.001c0.066,0.127,0.083,0.249,0.079,0.373
		c-0.122,1.473-0.567,2.864-1.357,4.165c-1.907,3.15-3.812,6.288-5.705,9.446c-1.852,3.098-3.553,6.255-5.116,9.481
		c-0.407,0.832-0.789,1.657-1.147,2.494c-1.434,3.332-2.703,6.752-3.805,10.261c-0.959,3.125-2.2,6.132-3.733,9.07
		c-1.513,2.877-2.68,5.842-3.52,8.923c-0.862,3.17-2.001,6.228-3.425,9.178c-1.49,3.062-2.947,6.143-4.396,9.229
		c-1.514,3.241-2.143,6.659-1.854,10.24c0.154,2.175,1.233,3.673,3.228,4.514c0.303,0.053,0.568,0.04,0.821-0.02
		c3.51-0.927,6.128-2.952,7.861-6.104c1.167-2.112,2.084-4.356,2.774-6.715c0.87-3.036,1.84-6.057,2.911-9.036
		c0.935-2.592,1.945-5.178,3.048-7.724c1.436-3.326,2.93-6.597,4.483-9.845c0.56-1.18,1.073-2.363,1.54-3.571
		c1.87-4.806,3.956-9.513,6.248-14.102c1.584-3.199,2.926-6.522,4.015-9.96c0.224-0.703,0.508-1.383,0.858-2.009
		c1.699-3.068,3.441-6.114,5.212-9.153c1.768-3.02,3.122-6.222,4.084-9.569c0.196-0.718,0.438-1.414,0.718-2.074
		c1.068-2.592,2.179-5.152,3.337-7.707c1.174-2.544,2.339-5.08,3.493-7.634c1.127-2.405,1.796-4.949,2.037-7.621
		c0.066-0.89,0.156-1.783,0.238-2.662C137.345,185.471,136.723,183.842,135.284,182.445"/>
	<path fill="#ADB2D0" d="M119.092,179.267c0.162-1.872-0.458-3.499-1.895-4.896c-1.516-1.461-3.182-1.63-5.031-0.479
		c-2.495,1.571-4.438,3.633-5.84,6.186c-1.174,2.16-2.041,4.185-2.597,6.089c-0.555,1.907-0.873,3.662-0.956,5.278
		c-0.074,1.606-1.063,3.819-2.961,6.635c-0.633,0.954-1.173,1.776-1.631,2.458c-0.123,0.347-0.691,1.507-1.687,3.457
		c-1.957,3.847-3.242,6.96-3.869,9.33c-0.628,2.373-1.813,5.072-3.575,8.129c-1.765,3.055-3.422,6.184-4.983,9.414
		c-0.406,0.826-0.789,1.655-1.148,2.49c-1.436,3.33-2.703,6.751-3.801,10.264c-0.959,3.124-2.218,6.125-3.761,9.039
		c-1.535,2.9-3.186,6.01-4.913,9.299c-1.729,3.296-2.869,6.354-3.41,9.183c-0.55,2.83-1.544,5.789-2.992,8.877
		c-1.513,3.24-2.14,6.659-1.854,10.243c0.154,2.172,1.233,3.67,3.229,4.508c0.304,0.057,0.566,0.043,0.819-0.017
		c3.511-0.924,6.128-2.953,7.863-6.102c1.169-2.112,1.953-4.225,2.381-6.303c0.415-2.091,1.067-4.435,1.95-7.037
		c0.865-2.601,1.632-5.603,2.281-8.991c1.346-1.927,2.335-3.058,2.986-3.394c1.586-3.356,2.8-5.886,3.617-7.597
		c0.564-1.18,1.07-2.368,1.539-3.569c1.869-4.81,3.955-9.516,6.247-14.105c1.585-3.2,2.931-6.519,4.015-9.959
		c0.229-0.701,0.51-1.378,0.862-2.008c1.698-3.066,3.346-6.338,4.926-9.794c1.562-3.462,2.676-6.149,3.332-8.041
		c0.643-1.903,1.604-3.593,2.896-5.092c1.298-1.507,2.409-3.505,3.352-5.959c0.927-2.462,1.835-4.89,2.715-7.277
		c0.876-2.389,1.418-4.923,1.66-7.6C118.927,181.042,119.013,180.147,119.092,179.267"/>
	<path fill="#ADB2D0" d="M100.23,182.146c1.604-3.703,2.382-7.118,2.324-10.245c-0.039-3.17-0.931-5.126-2.676-5.856l-0.028-0.013
		c-1.713-0.814-3.751-0.165-6.124,1.927c-2.422,2.021-4.427,4.886-6.018,8.599l-18.195,43.629c-1.683,1.519-3.188,3.464-4.526,5.828
		c-0.605,1.047-1.158,2.18-1.685,3.39c-1.447,3.082-2.05,5.758-1.809,8.003l-15.496,34.555c-1.408,3.273-2.05,6.331-1.899,9.214
		c0.141,2.826,1.023,4.603,2.656,5.329l0.028,0.013c1.57,0.701,3.457,0.163,5.653-1.621c2.188-1.836,3.992-4.375,5.445-7.631
		l17.484-41.125c-0.582-1.018-0.409-2.769,0.541-5.248c0.136-0.346,0.279-0.7,0.443-1.062l5.618-8.133L100.23,182.146z"/>
	<path fill="#ADB2D0" d="M82.22,162.823c-0.086-3.189-0.99-5.153-2.74-5.882l-0.03-0.014c-1.708-0.814-3.73-0.159-6.061,1.95
		c-2.351,2.053-4.315,4.939-5.903,8.65l-22.573,53.474l-5.295,9.146c-0.742,1.083-1.372,3.229-1.896,6.452l-10.906,26.796
		c-1.412,3.273-2.021,6.346-1.84,9.236c0.138,2.83,1.021,4.605,2.682,5.344l0.028,0.013c1.559,0.696,3.429,0.149,5.627-1.632
		c2.142-1.858,3.933-4.401,5.385-7.654l12.967-31.984c-0.111-2.574,0.55-5.176,1.965-7.772l6.32-9.653l20.028-46.186
		C81.552,169.389,82.288,165.954,82.22,162.823"/>
	<path fill="#ADB2D0" d="M54.076,155.604c0.093,0.025,0.181,0.063,0.252,0.096l2.06,0.921l-2.482,6.77l-1.543-0.69
		c-0.852-0.14-1.624,0.382-2.323,1.597c-3.044,4.925-5.956,10.473-8.729,16.646c-0.072,0.161-0.152,0.335-0.209,0.514l-0.158,0.354
		c-0.04,0.119-0.086,0.265-0.137,0.419c-0.263,0.783-0.318,1.48-0.139,2.09c0.001,0.035,0.061,0.093,0.146,0.181
		c0.066,0.045,0.169,0.122,0.295,0.226c0.097,0.06,0.187,0.131,0.286,0.207c0.046,0.022,0.072,0.033,0.11,0.065
		c0.135,0.083,0.271,0.17,0.404,0.263c0.286,0.175,0.605,0.349,0.947,0.55c0.043,0.021,0.103,0.046,0.139,0.079l0.028,0.013
		l0.115,0.052c0.5,0.272,1.063,0.558,1.709,0.86l2.848,1.335l0.431,0.193c0.028,0.013,0.117,0.052,0.281,0.108l0.132,0.06
		c-0.17,0.419-0.362,0.85-0.561,1.259c-0.69,1.541-1.48,3.035-2.385,4.484c-0.069,0.112-0.147,0.208-0.214,0.317
		c-1.555-0.658-3.363-1.416-5.399-2.277l-1.053-0.505c-0.416-0.237-0.829-0.469-1.25-0.698c-0.592-0.334-1.188-0.666-1.785-0.994
		c-3.404-2.372-3.9-6.027-1.48-10.977l4.519-8.466l4.187-9.449C45.775,155.756,49.425,153.894,54.076,155.604"/>
	
		<path fill="none" stroke="#72788D" stroke-width="2.348" stroke-linecap="round" stroke-linejoin="round" stroke-miterlimit="10" d="
		M45.38,194.572c-1.556-0.659-3.363-1.417-5.399-2.278l-1.057-0.507c-0.412-0.235-0.825-0.467-1.246-0.696
		c-0.592-0.334-1.188-0.666-1.785-0.994c-3.404-2.372-3.9-6.027-1.48-10.977l4.519-8.466l4.187-9.449
		c2.658-5.448,6.31-7.309,10.959-5.601c0.093,0.025,0.178,0.062,0.252,0.096l2.062,0.922l-2.484,6.769l-1.543-0.69
		c-0.852-0.14-1.624,0.382-2.323,1.597c-3.046,4.93-5.956,10.473-8.729,16.646c-0.072,0.161-0.152,0.335-0.214,0.512l-0.157,0.354
		c-0.036,0.121-0.08,0.267-0.136,0.42c-0.26,0.784-0.315,1.481-0.136,2.091c0,0.035,0.061,0.093,0.146,0.181
		c0.066,0.045,0.17,0.123,0.295,0.226c0.097,0.06,0.187,0.131,0.286,0.207c0.044,0.021,0.075,0.033,0.114,0.067
		c0.131,0.081,0.27,0.168,0.4,0.261c0.286,0.175,0.605,0.349,0.947,0.55c0.043,0.021,0.103,0.046,0.139,0.079l0.028,0.013
		l0.115,0.052c0.5,0.272,1.068,0.558,1.709,0.86l2.846,1.335l0.275,0.122c0.047,0.007,0.104,0.032,0.157,0.071 M48.407,188.451
		l0.132,0.06"/>
	<path fill="#C3CBE0" d="M53.234,153.928c0.598-1.229,1.523-1.589,2.752-1.054l8.336,3.654c1.576,0.612,3.009,1.231,4.307,1.859
		c1.678,0.702,2.492,1.514,2.426,2.43c-0.638,1.856-1.525,3.919-2.666,6.172l-2.728,5.988c-0.25,0.097-0.483,0.151-0.673,0.151
		c-0.834-0.187-1.624-0.474-2.333-0.854l-0.187-0.084l-0.305-0.135c-3.325-1.471-6.565-2.883-9.733-4.282l-4.103-1.737
		c0.115-1.151,0.385-2.217,0.848-3.215L53.234,153.928z"/>
	
		<path fill="none" stroke="#72788D" stroke-width="2.348" stroke-linecap="round" stroke-linejoin="round" stroke-miterlimit="10" d="
		M55.986,152.875l8.336,3.654c1.576,0.612,3.009,1.231,4.307,1.859c1.678,0.702,2.492,1.514,2.426,2.43
		c-0.638,1.856-1.525,3.919-2.666,6.172l-2.728,5.988c-0.253,0.097-0.483,0.151-0.673,0.151c-0.834-0.187-1.622-0.473-2.333-0.854
		l-0.19-0.084l-0.301-0.135c-3.325-1.471-6.568-2.883-9.732-4.279l-4.104-1.74c0.115-1.151,0.385-2.217,0.848-3.215l4.059-8.895
		C53.832,152.7,54.758,152.339,55.986,152.875z"/>
	<path fill="#ADB2D0" d="M45.041,192.701c-0.421-1.424,0.229-2.453,1.918-3.097c0.813-0.037,1.063-0.521,0.734-1.455
		c2.164,0.932,3.407,1.476,3.773,1.62c0.18,0.065,0.341,0.136,0.499,0.206c1.978,0.801,3.494,1.318,4.566,1.59l0.83-0.273
		c0.397-0.269,0.769-0.75,1.108-1.432l5.996-11.727l2.711-6.188c0.72-2.038,1.082-3.31,1.088-3.834
		c-0.006,0.524-0.368,1.796-1.088,3.834c0.312-1.126,0.436-1.794,0.371-1.997c-0.063-0.272-0.215-0.484-0.444-0.669l-4.588-2.046
		c-0.514-0.476-0.921-1.037-1.228-1.709c-0.449-0.968-0.506-1.928-0.149-2.877c0.335-0.944,0.972-1.595,1.911-1.959
		c0.751-0.278,1.506-0.309,2.257-0.086l0.244,0.108l1.052,0.47l0.434,0.192l3.2,1.432c0.383,0.152,0.742,0.312,1.085,0.482
		c2.422,1.194,3.86,2.78,4.271,4.769c0.043,0.644,0.051,1.274,0.002,1.897c-0.053,0.698-0.19,1.394-0.435,2.054
		c-0.327,0.888-0.719,1.725-1.168,2.531c-0.441,0.756-0.826,1.511-1.156,2.281c-0.435,1.096-0.888,2.159-1.381,3.212
		c-0.444,0.959-0.905,1.909-1.363,2.86c-0.115,0.223-0.239,0.458-0.354,0.679l-5.125,10.317c-0.602,1.145-1.3,2.215-2.12,3.197
		c-0.196,0.252-0.429,0.499-0.657,0.733c-2.083,1.529-4.534,1.787-7.353,0.74c-0.984-0.474-4.013-1.788-9.103-3.987
		c1.31,0.442,1.91,0.648,1.844,0.599C47.158,195.125,46.433,194.305,45.041,192.701"/>
	
		<path fill="none" stroke="#72788D" stroke-width="2.348" stroke-linecap="round" stroke-linejoin="round" stroke-miterlimit="10" d="
		M65.552,160.711c0.119,0.036,0.233,0.088,0.35,0.14c0.088,0.04,0.317,0.143,0.702,0.33 M67.549,169.949
		c-0.063-0.272-0.215-0.484-0.444-0.669l-4.588-2.046c-0.514-0.476-0.921-1.037-1.228-1.709c-0.449-0.968-0.506-1.928-0.149-2.877
		c0.334-0.944,0.972-1.595,1.911-1.959c0.748-0.278,1.506-0.309,2.257-0.086l0.244,0.108 M66.604,161.181l0.434,0.192l3.2,1.431
		c0.383,0.153,0.742,0.313,1.085,0.483c2.422,1.194,3.855,2.781,4.271,4.769c0.043,0.644,0.051,1.274,0.002,1.897
		c-0.053,0.698-0.19,1.394-0.435,2.054c-0.327,0.888-0.719,1.725-1.168,2.531c-0.441,0.756-0.826,1.511-1.156,2.281
		c-0.435,1.096-0.888,2.159-1.381,3.212c-0.444,0.959-0.905,1.908-1.363,2.86c-0.115,0.223-0.239,0.458-0.354,0.679l-5.125,10.317
		c-0.602,1.145-1.3,2.215-2.12,3.197c-0.196,0.252-0.429,0.499-0.657,0.733c-2.083,1.529-4.534,1.787-7.353,0.74
		c-0.984-0.474-4.013-1.788-9.103-3.987 M68.266,168.112c-0.006,0.524-0.368,1.796-1.088,3.837l-2.711,6.185l-5.996,11.727
		c-0.34,0.682-0.711,1.163-1.108,1.432l-0.83,0.273c-1.072-0.271-2.589-0.789-4.566-1.59c-0.158-0.07-0.319-0.141-0.499-0.206
		c-0.366-0.145-1.609-0.688-3.773-1.62 M65.552,160.711l1.052,0.47"/>
	<path fill="#265C30" d="M105.013,127.936l0.005-0.019c4.812-2.358,10.344-3.34,16.596-2.895c7.601,0.553,15.137,3.473,22.585,8.736
		c0.028,0.028,0.056,0.041,0.081,0.067c2.777,2.259,5.181,4.729,7.211,7.391l-0.022-0.027c0.181,0.212,0.336,0.43,0.479,0.64
		c0.199,0.254,0.376,0.514,0.563,0.794c0.209,0.308,0.284,0.618,0.21,0.933c-0.056,0.322-0.224,0.573-0.519,0.754
		c-0.277,0.171-0.59,0.212-0.939,0.121c-0.328-0.098-0.601-0.283-0.819-0.584c-0.157-0.229-0.312-0.445-0.478-0.653
		c-0.009-0.018-0.021-0.039-0.026-0.061l-0.013-0.004c-0.128-0.173-0.255-0.346-0.394-0.521c0.006-0.018-0.007-0.023-0.023-0.031
		c-1.878-2.46-4.109-4.752-6.665-6.865c-0.02-0.008-0.051-0.022-0.058-0.041l-0.014-0.005l-0.017-0.008
		c-6.96-4.912-14.007-7.646-21.109-8.175l0.013,0.004c-5.797-0.401-10.904,0.482-15.36,2.681l-0.017-0.008
		c-0.047,0.028-0.111,0.064-0.171,0.086c-0.007,0.014-0.022,0.007-0.039,0.016l-0.614,0.317c-0.028,0.021-0.067,0.036-0.097,0.059
		c-0.016,0.006-0.019,0.021-0.041,0.025c-4.151,2.27-6.807,5.615-7.938,10.021l-2.392-1.067c1.32-4.884,4.283-8.58,8.886-11.104
		l0.02-0.009c0.019-0.007,0.023-0.021,0.044-0.027c0.022-0.007,0.022-0.007,0.026-0.023c0.021-0.007,0.048-0.029,0.065-0.035
		l0.723-0.367c0.023-0.007,0.043-0.014,0.047-0.029C104.867,127.984,104.948,127.957,105.013,127.936"/>
	<path fill="#265C30" d="M102.082,142.779l-1.279-0.568c0.217-0.153,0.434-0.303,0.636-0.423c0.626-0.362,1.094-0.48,1.382-0.369
		L102.082,142.779z"/>
	<path fill="#265C30" d="M100.803,142.21l1.279,0.568l-1.818,3.345c-0.017,0.054-0.04,0.108-0.073,0.146
		c-0.205,0.435-0.405,0.866-0.619,1.314c-0.401,0.89-0.794,1.762-1.179,2.656c-0.442,1.001-0.813,2.033-1.124,3.093
		c-0.336,1.131-0.674,2.443-0.995,3.928c0.012,0.015,0.005,0.03,0.002,0.046c-0.662,3.923,0.361,7.239,3.058,9.933
		c1.711,1.246,3.5,1.677,5.368,1.312c0.322-0.066,0.658-0.166,1.002-0.29c0.102-0.034,0.188-0.078,0.291-0.116
		c0.02-0.004,0.02-0.004,0.041-0.014c-0.388-3.964,0.369-7.452,2.246-10.469c0.47-0.759,1.112-1.374,1.917-1.823
		c-0.13,0.288-0.249,0.593-0.354,0.909c-1.148,3.151-1.561,6.479-1.241,9.985c0.03,0.325,0.067,0.638,0.108,0.934
		c0.018,0.093,0.028,0.193,0.059,0.291c0.014,0.104,0.043,0.213,0.062,0.336c0.012,0.023,0.014,0.059,0.018,0.094
		c0.049,0.139,0.094,0.289,0.132,0.416c0.012,0.023,0.012,0.023,0.006,0.038c0.057,0.168,0.121,0.364,0.182,0.556
		c0.013,0.02,0.013,0.02,0.023,0.041c0.056,0.161,0.116,0.315,0.173,0.489c0.416,1.024,0.973,1.978,1.68,2.885
		c0.438,0.443,0.957,0.771,1.522,1.009c0.349,0.141,0.725,0.244,1.134,0.313c0.777,0.027,1.5,0.009,2.179-0.082
		c0.477-0.051,0.927-0.129,1.364-0.229l0.018,0.009l0.011,0.004c1.889-0.498,3.512-1.52,4.872-3.027
		c0.579-0.629,1.112-1.292,1.627-1.981c-0.121-0.219-0.245-0.438-0.346-0.665c-1.229-3.159-1.027-6.12,0.601-8.855
		c0.624-1.054,1.47-1.793,2.548-2.226c-1.219,1.816-1.772,3.851-1.691,6.104c0.06,1.454,0.363,2.868,0.89,4.235
		c0.137,0.276,0.297,0.53,0.499,0.779l0.007,0.022l0.019,0.009c0.005,0.018,0.029,0.046,0.039,0.067
		c0.184,0.196,0.371,0.393,0.562,0.579c0.854,0.757,1.805,1.266,2.878,1.517l0.027,0.013c0.56,0.133,1.165,0.202,1.783,0.219
		c3.066-0.516,5.828-2.539,8.283-6.05c0.687-0.991,1.338-2.081,1.971-3.293c0.1-0.201,0.217-0.415,0.312-0.614l2.39,1.068
		c-0.041,0.063-0.068,0.133-0.107,0.193c-0.097,0.205-0.211,0.399-0.307,0.604l-0.006,0.018c-0.672,1.306-1.377,2.485-2.123,3.547
		c-2.909,4.184-6.231,6.512-9.947,7.002c-0.056,0.007-0.125,0.009-0.198,0.012c-0.867-0.016-1.697-0.122-2.476-0.32
		c-1.424-0.326-2.707-0.979-3.86-1.955c-0.454,0.587-0.918,1.148-1.413,1.703c-1.896,2.123-4.225,3.428-6.98,3.925
		c-0.954,0.15-1.981,0.196-3.066,0.156c-0.084-0.005-0.172-0.011-0.261-0.002c-0.051-0.004-0.099-0.013-0.148-0.021
		c-1.795-0.273-3.284-1.018-4.478-2.255c-0.022-0.027-0.041-0.07-0.08-0.107c-0.928-1.149-1.653-2.373-2.174-3.677l0.004-0.011
		c-0.025,0.018-0.063,0.031-0.099,0.036c-0.06,0.019-0.145,0.049-0.204,0.071l-0.242,0.077c-0.276,0.089-0.548,0.159-0.819,0.223
		c-2.689,0.587-5.275-0.027-7.721-1.854c-0.039-0.035-0.085-0.09-0.124-0.126c-3.461-3.333-4.769-7.445-3.934-12.338
		c0.004-0.018,0.011-0.031,0.015-0.045c0.467-2.219,1.089-4.292,1.823-6.214c0.538-1.418,1.162-2.746,1.847-4.001
		c-0.487-0.364-0.912-0.749-1.254-1.165c-0.534-0.649-0.91-1.345-1.154-2.097l0.005-0.011c-0.282-0.93-0.339-1.943-0.178-3.033
		c0.005-0.046,0.014-0.072,0.012-0.111c0.034-0.132,0.078-0.243,0.1-0.346l2.392,1.067c-0.004,0.013-0.017,0.042-0.019,0.056
		c-0.071,0.672-0.039,1.296,0.104,1.87l0.015,0.005c0.137,0.406,0.338,0.791,0.621,1.129c0.186,0.202,0.371,0.396,0.598,0.58
		c0.047-0.078,0.356-0.432,0.938-1.058C100.022,142.862,100.407,142.508,100.803,142.21z"/>
	<path fill="#265C30" d="M145.042,160.731c-0.164,0.335-0.332,0.667-0.503,1.005l-2.389-1.066c0.15-0.297,0.299-0.591,0.442-0.902
		c0.054-0.094,0.086-0.179,0.131-0.253c0.135-0.305,0.367-0.494,0.702-0.591c0.338-0.101,0.664-0.051,0.971,0.107
		c0.322,0.161,0.539,0.419,0.665,0.754C145.193,160.124,145.175,160.428,145.042,160.731"/>
	<path fill="#99C14F" d="M142.757,135.661l0.014,0.009l0.015,0.004c0.008,0.019,0.039,0.033,0.055,0.039
		c2.561,2.113,4.792,4.405,6.67,6.865c0.015,0.008,0.03,0.015,0.023,0.031c0.139,0.175,0.266,0.348,0.392,0.52
		c-0.142,0.136-0.612,0.532-1.425,1.186c-0.742,0.602-1.279,1.087-1.595,1.489c-0.606,0.741-1.279,1.743-2.027,2.984
		c-0.797,1.334-1.382,2.468-1.741,3.39c-0.411,1.046-0.654,1.761-0.723,2.157c-0.154,0.787-0.141,1.743,0.048,2.86
		c0.054,0.269,0.062,0.736,0.056,1.376c-0.006,0.504,0.032,0.898,0.075,1.196c-0.144,0.312-0.292,0.605-0.441,0.902
		c-0.095,0.199-0.214,0.412-0.312,0.614c-0.63,1.213-1.286,2.302-1.968,3.295c-2.458,3.509-5.22,5.532-8.286,6.048
		c-0.618-0.017-1.224-0.086-1.783-0.219l-0.027-0.013c-1.073-0.251-2.023-0.76-2.881-1.517c-0.188-0.187-0.377-0.385-0.559-0.579
		c-0.01-0.021-0.034-0.05-0.039-0.067l-0.019-0.009l-0.011-0.023c-0.198-0.248-0.355-0.501-0.495-0.778
		c-0.526-1.367-0.83-2.781-0.89-4.235c-0.081-2.253,0.473-4.287,1.691-6.104c-1.078,0.433-1.924,1.172-2.548,2.226
		c-1.628,2.735-1.825,5.697-0.601,8.855c0.101,0.228,0.225,0.446,0.347,0.669c-0.516,0.686-1.049,1.349-1.628,1.978
		c-1.36,1.508-2.983,2.529-4.868,3.029l-0.018-0.006l-0.015-0.009c-0.438,0.101-0.888,0.179-1.364,0.229
		c-0.679,0.091-1.401,0.109-2.179,0.082c-0.409-0.069-0.785-0.173-1.134-0.313c-0.567-0.239-1.085-0.564-1.522-1.009
		c-0.707-0.907-1.264-1.86-1.68-2.885c-0.057-0.174-0.117-0.328-0.173-0.489c-0.011-0.021-0.011-0.021-0.023-0.041
		c-0.061-0.191-0.125-0.388-0.182-0.556c0.006-0.015,0.006-0.015-0.007-0.039c-0.037-0.126-0.082-0.276-0.131-0.415
		c-0.004-0.035-0.009-0.071-0.018-0.094c-0.019-0.123-0.048-0.231-0.062-0.336c-0.03-0.098-0.041-0.198-0.059-0.291
		c-0.041-0.296-0.078-0.608-0.108-0.934c-0.319-3.507,0.093-6.834,1.239-9.985c0.106-0.316,0.226-0.621,0.355-0.909
		c-0.805,0.449-1.447,1.064-1.917,1.823c-1.877,3.017-2.634,6.505-2.246,10.469c-0.021,0.01-0.021,0.01-0.041,0.014
		c-0.104,0.038-0.189,0.082-0.291,0.116c-0.344,0.124-0.68,0.224-1.002,0.29c-1.868,0.364-3.655-0.066-5.367-1.312
		c-2.697-2.694-3.721-6.011-3.059-9.934c0.003-0.016,0.01-0.031,0.001-0.051c0.318-1.479,0.653-2.793,0.992-3.923
		c0.311-1.06,0.682-2.092,1.124-3.093c0.385-0.895,0.78-1.767,1.179-2.656c0.214-0.448,0.414-0.88,0.619-1.314
		c0.033-0.038,0.053-0.093,0.073-0.146l2.558-4.703c-0.287-0.111-0.754,0.006-1.383,0.367c-0.612,0.361-1.221,0.849-1.798,1.479
		c-0.581,0.626-0.892,0.978-0.938,1.058c-0.227-0.185-0.412-0.378-0.596-0.577c-0.284-0.34-0.485-0.726-0.623-1.132l-0.015-0.005
		c-0.144-0.574-0.176-1.198-0.104-1.87c1.124-4.439,3.775-7.789,7.956-10.076c0.022-0.004,0.025-0.02,0.043-0.028
		c0.027-0.02,0.067-0.032,0.095-0.056l0.614-0.315c0.017-0.011,0.032-0.004,0.037-0.019c0.06-0.022,0.126-0.057,0.173-0.085
		l0.017,0.008c4.456-2.198,9.566-3.082,15.36-2.681l-0.015-0.006C128.75,128.013,135.798,130.747,142.757,135.661"/>
</g>
</svg>
