<?xml version="1.0" encoding="utf-8"?>
<!-- Generator: Adobe Illustrator 16.0.0, SVG Export Plug-In . SVG Version: 6.00 Build 0)  -->
<!DOCTYPE svg PUBLIC "-//W3C//DTD SVG 1.1//EN" "http://www.w3.org/Graphics/SVG/1.1/DTD/svg11.dtd">
<svg version="1.1" id="レイヤー_1" xmlns="http://www.w3.org/2000/svg" xmlns:xlink="http://www.w3.org/1999/xlink" x="0px"
	 y="0px" width="260.289px" height="399.456px" viewBox="0 0 260.289 399.456" enable-background="new 0 0 260.289 399.456"
	 xml:space="preserve">
<g>
	<path fill="#CB301F" d="M155.144,383.088c-2.07-9.172-2.963-18.441-2.707-27.807c0.254-9.584,0.637-19.205,1.146-28.787
		c0.479-9.205,1.148-18.441,1.977-27.68l19.023-1.305l0.445,49.967c18.07-2.002,32.633-0.254,43.691,5.26
		c11.061,5.51,15.553,11.879,13.451,19.109c-2.074,7.23-9.848,12.484-23.299,15.797c-11.375,2.807-27.15,1.814-47.26-2.928
		C159.511,384.206,157.343,383.661,155.144,383.088"/>
	<path fill="none" stroke="#941E28" stroke-width="5.0971" stroke-miterlimit="10" d="M155.144,383.088
		c2.199,0.572,4.367,1.117,6.469,1.627c20.109,4.742,35.885,5.734,47.26,2.928c13.451-3.312,21.225-8.566,23.299-15.797
		c2.102-7.23-2.391-13.6-13.451-19.109c-11.059-5.514-25.621-7.262-43.691-5.26l-0.445-49.967l-19.023,1.305
		c-0.828,9.238-1.498,18.475-1.977,27.68c-0.51,9.582-0.893,19.203-1.146,28.787C152.181,364.647,153.073,373.917,155.144,383.088z"
		/>
	<path fill="#941E28" d="M154.989,224.946c-15.68-0.029-26.035,3.189-31.07,9.588c-5.002,6.021-8.988,13.855-11.951,23.539
		c-2.867,9.266-5.227,17.646-7.043,25.098c-5.002,16.34-1.307,30.158,11.092,41.469l0.029,0.035
		c10.932,9.932,24.824,15.062,41.684,15.348c17.592,0.318,30.848-4.939,39.74-15.766c10.549-12.457,11.947-29.877,4.207-52.264
		c-2.074-6.023-4.748-12.459-8.033-19.244c-4.492-9.455-8.061-16.271-10.674-20.41C180.261,227.43,170.956,224.979,154.989,224.946"
		/>
	<path fill="#CB301F" d="M119.708,390.799c-2.07-9.176-2.965-18.447-2.707-27.809c0.254-9.584,0.637-19.201,1.143-28.789
		c0.482-9.207,1.15-18.441,1.979-27.678l19.027-1.307l0.443,49.975c18.07-2.008,32.633-0.258,43.691,5.252
		s15.553,11.879,13.451,19.111c-2.076,7.229-9.848,12.484-23.299,15.799c-11.377,2.797-27.152,1.812-47.26-2.932
		C124.073,391.911,121.905,391.37,119.708,390.799"/>
	<path fill="none" stroke="#941E28" stroke-width="5.0971" stroke-miterlimit="10" d="M119.708,390.799
		c2.197,0.57,4.365,1.111,6.469,1.623c20.107,4.744,35.883,5.729,47.26,2.932c13.451-3.314,21.223-8.57,23.299-15.799
		c2.102-7.232-2.393-13.602-13.451-19.111s-25.621-7.26-43.691-5.252l-0.443-49.975l-19.027,1.307
		c-0.828,9.236-1.496,18.471-1.979,27.678c-0.506,9.588-0.889,19.205-1.143,28.789C116.743,372.352,117.638,381.624,119.708,390.799
		z"/>
	<path fill="#CB301F" d="M233.181,78.44c-9.762-8.277-21.709-14.518-35.896-18.664c-7.9-2.332-16.457-3.578-25.74-3.779
		c0.875-1.023,1.402-1.73,1.562-2.086c3.988-8.59,4.439-17.498,1.322-26.727c-3.045-9.219-8.713-16.053-17.02-20.535
		c-8.295-4.459-16.732-5.227-25.398-2.355c-8.645,2.93-14.941,8.697-18.889,17.309c-1.396,3.051-2.369,6.145-2.893,9.266
		c-2.295-2.008-4.941-3.73-7.9-5.154c-8.854-4.283-18.006-4.832-27.447-1.719c-9.418,3.178-16.363,9.145-20.839,17.92
		c-4.52,8.75-5.248,17.752-2.191,26.998c1.854,5.51,4.721,10.123,8.644,13.867c-2.018,1.273-3.996,2.568-5.923,3.916
		c-13.379,9.338-24.496,19.941-33.285,31.793C12.47,130.35,6.757,142.362,4.167,154.563c-2.591,12.195-1.974,24.311,1.816,36.355
		c3.793,12.045,10.607,22.432,20.42,31.104c9.818,8.676,21.791,15.109,35.916,19.275c14.197,4.18,29.467,6.016,45.82,5.445
		c16.92-0.613,33.848-3.711,50.701-9.342c16.885-5.631,32.287-13.283,46.189-23.027c13.445-9.357,24.559-19.961,33.348-31.809
		c8.787-11.854,14.586-24.027,17.459-36.516c2.912-12.912,2.391-25.262-1.559-37.053C250.327,97.208,243.306,87.018,233.181,78.44"
		/>
	<path fill="none" stroke="#941E28" stroke-width="5.196" stroke-miterlimit="10" d="M197.284,59.776
		c-7.904-2.332-16.457-3.578-25.738-3.779c0.871-1.023,1.4-1.73,1.561-2.086c3.988-8.59,4.439-17.498,1.322-26.727
		c-3.043-9.219-8.715-16.053-17.018-20.535c-8.297-4.459-16.734-5.227-25.4-2.355c-8.643,2.93-14.941,8.697-18.889,17.309
		c-1.395,3.051-2.369,6.145-2.893,9.266c-2.293-2.008-4.941-3.73-7.902-5.154c-8.852-4.283-18.006-4.832-27.445-1.719
		c-9.418,3.178-16.365,9.145-20.839,17.92c-4.516,8.75-5.246,17.752-2.191,26.998c1.852,5.51,4.721,10.123,8.644,13.867
		c-2.018,1.273-3.996,2.568-5.917,3.916c-13.385,9.338-24.502,19.941-33.291,31.793c-8.818,11.861-14.529,23.873-17.117,36.074
		c-2.589,12.195-1.976,24.311,1.816,36.355c3.791,12.045,10.604,22.432,20.416,31.104c9.818,8.676,21.793,15.113,35.917,19.275
		c14.197,4.18,29.465,6.016,45.82,5.445c16.922-0.613,33.848-3.707,50.699-9.342c16.885-5.631,32.289-13.283,46.191-23.027
		c13.443-9.357,24.559-19.961,33.348-31.809c8.787-11.854,14.584-24.027,17.459-36.516c2.912-12.912,2.395-25.262-1.559-37.053
		c-3.951-11.789-10.975-21.979-21.098-30.557C223.419,70.163,211.472,63.922,197.284,59.776z"/>
	<path fill="#FFFFFF" d="M170.854,53.016c3.74-7.967,4.211-16.275,1.432-24.963c-2.859-8.625-8.076-15.094-15.646-19.398
		c-7.621-4.26-15.369-5.107-23.316-2.561c-8.021,2.531-13.865,7.684-17.582,15.508c-2.418,5.002-3.52,10.205-3.283,15.541
		c-2.887-3.693-6.555-6.734-11.021-9.051c-8.123-4.23-16.582-4.957-25.385-2.215c-8.809,2.74-15.352,8.148-19.664,16.256
		c-4.277,8.1-5.045,16.533-2.318,25.273c2.725,8.738,8.144,15.211,16.269,19.443c8.154,4.227,16.625,4.988,25.43,2.242
		c8.805-2.742,15.344-8.18,19.619-16.279c0.191-0.363,0.385-0.73,0.576-1.098c6.273-2.021,11.043-3.744,14.33-5.211
		c7.297,3.98,14.883,4.744,22.768,2.322C161.114,66.286,167.06,61.03,170.854,53.016"/>
	<path fill="#332C2A" d="M216.087,119.239c-4.229,4.268-8.604,8.15-13.172,11.664c-5.789,4.547-11.83,8.547-18.16,11.969
		c-6.639,3.613-13.752,6.994-21.344,10.115c0.596-0.395-1.166,0.27-5.283,1.912c-4.113,1.648-9.672,3.359-16.686,5.178
		c-7.025,1.785-14.061,2.934-21.113,3.438c-5.518,0.48-11.117,0.51-16.787,0.158c-4.256-0.336-8.477-0.822-12.688-1.447
		c6.75,2.459,13.562,4.174,20.461,5.215c6.209,0.895,12.459,1.232,18.705,0.959c5.568-0.223,11.035-0.955,16.422-2.191
		c5.539-1.262,9.99-2.596,13.348-4.027c3.344-1.389,5.658-2.324,6.957-2.846c1.277-0.512,3.229-1.248,5.883-2.209
		c2.652-0.963,6.461-2.896,11.432-5.812c4.879-2.783,9.551-6.059,14.02-9.809c5.033-4.162,9.703-8.799,14.047-13.889
		c4.812-5.643,9.16-11.75,13.043-18.4C222.253,112.651,219.226,115.995,216.087,119.239"/>
	<path fill="#DD8911" d="M111.358,91.854c1.455,9.678,6.143,17.652,14.014,23.965c7.93,6.295,16.77,9.07,26.543,8.328
		c9.73-0.766,17.502-4.82,23.338-12.205c5.881-7.334,8.092-15.855,6.641-25.529c-1.451-9.684-6.148-17.686-14.094-24.014
		c-7.869-6.311-16.695-9.057-26.459-8.285c-9.744,0.74-17.555,4.771-23.42,12.164C112.085,73.663,109.909,82.174,111.358,91.854"/>
	<path fill="#CB301F" d="M139.597,227.782c-1.688,0.732-3.217,1.693-4.557,2.896c-1.436,1.277-2.93,2.678-4.492,4.242
		c-0.926,0.92-1.689,1.715-2.232,2.352c-0.158,0.162-0.318,0.322-0.477,0.512c-4.59,5.57-8.256,12.836-10.998,21.789
		c-2.867,9.234-5.191,17.547-7.008,24.936c-0.031,0.029-0.031,0.098-0.031,0.158c-4.365,14.266-1.146,26.342,9.654,36.213
		c10.07,9.076,22.85,13.758,38.369,14.045c15.775,0.287,27.691-4.361,35.725-13.92c9.207-11.303,10.324-27.102,3.312-47.361
		c-2.004-5.857-4.619-12.098-7.805-18.691c-3.475-7.232-6.346-12.896-8.639-16.941c-0.287-0.928-0.861-2.135-1.719-3.635
		c-1.371-2.23-2.137-3.504-2.295-3.855c-0.543-0.891-0.988-1.561-1.338-1.977c-0.607-0.762-1.596-1.367-2.902-1.779
		c-3.539-1.178-11.121-1.785-22.818-1.75C145.077,225.874,141.829,226.793,139.597,227.782 M146.194,227.528l0.512-0.158v0.158
		H146.194z"/>
	<path fill="#CB301F" d="M222.157,197.09l-2.834-9.084L81.851,230.838l3.912,12.545c7.184,0.793,14.604,1.049,22.289,0.787
		c16.688-0.598,33.342-3.654,49.984-9.205s31.826-13.113,45.547-22.686C210.372,207.526,216.563,202.467,222.157,197.09"/>
	<path fill="#941E28" d="M103.868,243.157l-0.029-0.012c-0.955-2.998-0.756-5.857,0.629-8.596c1.094-2.238,2.904-4.139,5.391-5.756
		c2.225-1.436,4.508-2.324,6.842-2.662l0.041-0.023c2.955-0.4,5.137,0.043,6.527,1.383l0.021,0.045
		c1.982,1.67,4.559,4.799,7.77,9.324c4.955,7.051,7.617,10.832,7.988,11.322l0.02,0.041c6.193,8.148,11.762,11.879,16.734,11.197
		c3.934-1.082,6.598-8.055,7.994-20.854c0.406-4.018,0.744-9.256,0.988-15.75c0.264-5.822,0.484-9.17,0.688-10
		c-0.02-0.037-0.02-0.037,0.01-0.031c1.611-6.814,3.916-11.15,6.912-12.998c2.996-2.182,6.297-2.012,9.855,0.533
		c2.541,1.787,4.736,4.559,6.572,8.312c1.791,3.699,2.619,7.084,2.473,10.197c0.002,5.113-0.07,9.736-0.246,13.863l0.01-0.031
		c-0.285,7.941-1.035,14.975-2.264,21.113c-3.898,19.49-12.41,31.176-25.52,35.029c-4.844,1.52-10.443,1.162-16.814-1.004
		c-5.715-1.945-11.488-5.244-17.311-9.826c-5.703-4.537-10.756-9.758-15.17-15.703C109.339,255.985,105.962,249.61,103.868,243.157
		 M117.444,231.122c-1.65,0.262-3.283,0.895-4.844,1.912c-1.641,1.064-2.848,2.334-3.617,3.775
		c-0.756,1.516-0.873,3.104-0.318,4.779c1.945,5.977,5.082,11.875,9.377,17.68c4.133,5.59,8.881,10.518,14.254,14.75
		c5.309,4.211,10.582,7.213,15.811,9.006c5.184,1.744,9.762,2.07,13.721,0.932c11.234-3.602,18.553-13.98,22.002-31.158
		c1.148-5.9,1.885-12.67,2.17-20.312c0.166-4.096,0.23-8.693,0.248-13.764c0.012-0.035,0.02-0.064-0.002-0.104
		c0.062-2.336-0.59-4.938-1.961-7.773c-1.393-2.873-3.059-5.01-4.969-6.393c-1.488-1.049-2.828-1.215-4.062-0.484l-0.029-0.012
		c-1.988,1.516-3.6,4.844-4.834,9.986l0.016-0.057c-0.15,0.775-0.336,3.811-0.572,9.141l0.01-0.025
		c-0.256,6.619-0.572,12-1.01,16.109c-1.754,16.064-5.793,24.518-12.123,25.287l0.031,0.006
		c-6.664,1.498-13.887-2.869-21.686-13.131l0.021,0.037c-0.404-0.492-3.113-4.328-8.15-11.541c-2.9-4.061-5.211-6.869-6.936-8.422
		c-0.561-0.314-1.4-0.387-2.52-0.221L117.444,231.122z"/>
	<path fill="#CB301F" d="M112.601,233.034c1.561-1.018,3.193-1.65,4.844-1.912l0.027,0.004c1.119-0.166,1.959-0.094,2.52,0.221
		c1.725,1.553,4.035,4.361,6.936,8.422c5.035,7.213,7.746,11.049,8.15,11.541l-0.02-0.037c7.797,10.262,15.02,14.629,21.684,13.131
		l-0.031-0.006c6.33-0.77,10.369-9.223,12.123-25.287c0.438-4.109,0.754-9.49,1.01-16.109l-0.01,0.025
		c0.236-5.33,0.422-8.365,0.572-9.141l-0.018,0.057c1.236-5.143,2.848-8.471,4.836-9.986l0.029,0.012
		c1.234-0.73,2.574-0.564,4.062,0.484c1.91,1.383,3.576,3.52,4.969,6.393c1.371,2.836,2.023,5.438,1.961,7.773
		c0.021,0.039,0.012,0.068,0.002,0.104c-0.018,5.07-0.082,9.668-0.248,13.764c-0.285,7.643-1.018,14.412-2.172,20.312
		c-3.447,17.178-10.766,27.557-22,31.158c-3.959,1.139-8.539,0.812-13.721-0.932c-5.23-1.793-10.502-4.795-15.812-9.006
		c-5.371-4.232-10.119-9.16-14.252-14.75c-4.295-5.805-7.432-11.703-9.377-17.68c-0.555-1.676-0.438-3.264,0.318-4.779
		C109.751,235.368,110.96,234.098,112.601,233.034"/>
	<path fill="#CB301F" d="M186.386,237.131c0.002,0.365-0.004,0.766-0.033,1.125c-1.031,0.27-1.984,0.5-2.885,0.682
		c-5.145,1.1-10.016,1.146-14.631,0.186c0.023-0.262,0.047-0.52,0.033-0.762c0.012-0.795,0.059-1.582,0.133-2.355
		c0.09-1.109-0.125-1.924-0.605-2.457l-7.635-2.832c-1.941-0.955-3.859-2.064-5.732-3.299c-7.539-4.904-11.002-9.41-10.389-13.514
		c0.023-0.152,0.059-0.342,0.092-0.535c0.59-2.332,2.281-3.707,5.135-4.105c0.77-0.098,1.65-0.119,2.607-0.082
		c0.301,0.004,0.629,0.023,0.959,0.037c1.365,0.113,2.799,0.318,4.248,0.668c1.305,0.291,2.625,0.723,4.014,1.244
		c-1.709-1.033-3.826-4.328-6.371-9.811c-2.725-6.014-3.246-9.85-1.598-11.572c0.312-0.326,0.619-0.617,0.953-0.902
		c2.109-1.795,4.379-2.434,6.824-1.873c1.641,0.381,3.359,1.291,5.164,2.729c1.562,1.258,3.355,3.096,5.4,5.557
		c1.795,2.207,3.803,4.961,5.98,8.168c-0.459-1.162-2.182-4.615-5.205-10.367c-0.496-1.148-0.855-2.213-1.098-3.133
		c-0.855-3.078-0.58-5.09,0.877-6.08c0.211-0.127,0.424-0.254,0.658-0.338c1.631-0.928,3.326-1.27,5.076-1.016
		c2.9,0.418,5.885,2.477,8.979,6.146c1.824,2.119,3.35,4.434,4.621,6.994c0.051,0.049,0.088,0.125,0.098,0.199
		c0.146,0.252,0.262,0.494,0.377,0.732c0.334,0.758,0.613,1.391,0.822,1.932c-0.156-0.793-0.418-1.754-0.744-2.91
		c-0.023-0.037-0.01-0.066-0.031-0.109c-0.363-1.23-0.818-2.695-1.396-4.373c-0.336-2.461,0.262-4.428,1.746-5.877
		c0.781-0.795,1.84-1.424,3.158-1.928c0.314-0.125,0.643-0.209,0.982-0.322c1.125-0.336,2.297,0.141,3.51,1.439
		c0.695,0.783,1.424,1.844,2.178,3.215c0.426,0.787,0.811,1.59,1.186,2.424c-0.01,0.031-0.01,0.031,0.018,0.041
		c1.379,3.303,2.191,6.969,2.398,11.02c0.652,11.773-3.729,21.135-13.133,28.121c-0.221,0.15-0.453,0.34-0.676,0.5
		c-0.771,0.564-1.539,1.125-2.367,1.67c-0.02-0.043,0.002-0.098,0.014-0.129c-0.832,0.541-1.707,1.033-2.574,1.5
		c-0.385,0.23-0.787,0.424-1.162,0.627c0.016,0.338,0.027,0.678,0.025,0.979C186.396,235.288,186.409,236.2,186.386,237.131"/>
	<path fill="#941E28" d="M186.354,238.256c0.025-0.359,0.033-0.76,0.031-1.125c0.023-0.932,0.01-1.844,0-2.748
		c0.002-0.301-0.01-0.641-0.023-0.979c0.373-0.203,0.775-0.396,1.16-0.627c0.865-0.467,1.744-0.959,2.572-1.5
		c-0.01,0.031-0.031,0.086-0.012,0.129c0.828-0.545,1.598-1.105,2.367-1.67c0.221-0.156,0.455-0.35,0.678-0.5
		c9.4-6.986,13.783-16.348,13.131-28.121c-0.207-4.051-1.02-7.721-2.398-11.02c-0.029-0.01-0.029-0.01-0.018-0.041
		c-0.373-0.834-0.76-1.637-1.184-2.424c-0.756-1.375-1.484-2.432-2.178-3.215c-1.215-1.299-2.387-1.775-3.512-1.439
		c-0.34,0.113-0.672,0.197-0.982,0.322c-1.316,0.504-2.375,1.133-3.16,1.928c-1.482,1.449-2.08,3.416-1.744,5.877
		c0.578,1.678,1.031,3.143,1.398,4.373c0.02,0.043,0.008,0.072,0.029,0.109c0.326,1.156,0.588,2.117,0.744,2.91
		c-0.209-0.541-0.488-1.174-0.822-1.932c-0.115-0.238-0.23-0.48-0.379-0.732c-0.008-0.074-0.043-0.15-0.096-0.199
		c-1.271-2.561-2.797-4.875-4.625-6.994c-3.088-3.67-6.072-5.729-8.975-6.146c-1.75-0.254-3.445,0.088-5.08,1.016
		c-0.23,0.084-0.443,0.211-0.654,0.338c-1.457,0.99-1.732,3.002-0.879,6.08c0.242,0.92,0.604,1.984,1.1,3.133
		c3.023,5.752,4.746,9.205,5.205,10.367c-2.18-3.207-4.186-5.961-5.982-8.168c-2.041-2.461-3.836-4.299-5.4-5.557
		c-1.801-1.438-3.523-2.348-5.162-2.729c-2.445-0.561-4.713,0.078-6.822,1.873c-0.336,0.285-0.641,0.576-0.955,0.902
		c-1.65,1.723-1.129,5.559,1.6,11.572c2.543,5.482,4.658,8.777,6.369,9.811c-1.389-0.521-2.709-0.953-4.012-1.244
		c-1.451-0.35-2.885-0.555-4.25-0.668c-0.33-0.014-0.66-0.033-0.959-0.037c-0.959-0.037-1.836-0.016-2.607,0.082
		c-2.852,0.398-4.545,1.773-5.137,4.105c-0.031,0.193-0.064,0.383-0.09,0.539c-0.613,4.1,2.852,8.605,10.389,13.51
		c1.873,1.234,3.791,2.344,5.732,3.299l7.633,2.832c0.482,0.533,0.695,1.348,0.607,2.455c-0.074,0.775-0.121,1.562-0.137,2.357
		c0.018,0.242-0.006,0.5-0.031,0.762c-1.402-0.295-2.771-0.678-4.111-1.146c-0.357-0.133-0.686-0.248-1.025-0.33
		c-0.016-0.045-0.016-0.045-0.008-0.072l-5.748-2.396c-1.471-0.758-3.051-1.686-4.75-2.756c-5.52-3.424-9.344-6.613-11.436-9.598
		c-2.555-3.477-3.498-6.584-2.85-9.27c0.5-2.635,1.857-4.965,4.041-6.971l-0.039,0.021c2.385-2.203,5.133-2.975,8.256-2.238
		c0.178,0.062,0.359,0.127,0.504,0.18c0.199,0.102,0.377,0.166,0.576,0.268c-0.57-1.033-1.15-2.146-1.756-3.361
		c-3.477-7.018-3.27-12.432,0.604-16.186c3.775-3.953,8.205-4.832,13.215-2.625c1.131,0.502,2.236,1.059,3.283,1.697
		c-0.018-0.041-0.025-0.105-0.008-0.17c-0.033-2.924,1.049-4.748,3.219-5.486c5.67-3.352,11.447-1.98,17.316,4.143
		c0.604-1.893,2.436-3.291,5.516-4.139c5.643-1.656,9.99,0.15,12.994,5.391c2.494,4.396,3.926,9.623,4.258,15.594
		c0.895,16.109-5.627,28.398-19.551,36.896c-0.02,0.059-0.012,0.131,0.01,0.17c-0.453,0.139-1.016,0.314-1.658,0.518
		C188.511,237.647,187.386,237.983,186.354,238.256"/>
	<path fill="#CB301F" d="M92.007,238.344c1.115,3.949,2.678,5.922,4.652,5.922c8.254,0,16.223-0.73,23.9-2.197
		c3.824-0.73,6.756-1.494,8.828-2.32c4.109,0,7.137-1.469,9.113-4.4c1.277-1.877,1.914-3.82,1.914-5.828
		c0-3.854-1.754-7.645-5.291-11.303c-1.371-1.436-2.58-2.295-3.566-2.518c-3.029-4.174-9.084-6.34-18.105-6.561
		c-8.156,1.273-14.211,4.582-18.162,9.969c-2.9,3.949-4.367,8.346-4.367,13.219C90.923,232.356,91.274,234.364,92.007,238.344
		 M133.595,234.008c2.389-2.828,3.312-5.381,2.803-7.574v-0.098c0.227,0.447,0.447,1.021,0.605,1.688
		c0.158,0.641,0.225,1.178,0.225,1.656c0,1.146-0.125,1.945-0.383,2.424C136.368,232.963,135.282,233.598,133.595,234.008"/>
</g>
<path display="none" fill="none" d="M1434.844,765.33c0,5.5-4.5,10-10,10H146.898c-5.5,0-10-4.5-10-10v-27.558v-841.881
	c0-5.5,4.5-10,10-10h1277.945c5.5,0,10,4.5,10,10v839.881V765.33z"/>
</svg>
