<?xml version="1.0" encoding="utf-8"?>
<!-- Generator: Adobe Illustrator 16.0.0, SVG Export Plug-In . SVG Version: 6.00 Build 0)  -->
<!DOCTYPE svg PUBLIC "-//W3C//DTD SVG 1.1//EN" "http://www.w3.org/Graphics/SVG/1.1/DTD/svg11.dtd">
<svg version="1.1" id="レイヤー_1" xmlns="http://www.w3.org/2000/svg" xmlns:xlink="http://www.w3.org/1999/xlink" x="0px"
	 y="0px" width="35.248px" height="36.882px" viewBox="0 0 35.248 36.882" enable-background="new 0 0 35.248 36.882"
	 xml:space="preserve">
<path display="none" fill="#D5EBDF" d="M405.199,130.442c0-48.964-34.091-89.964-79.833-100.562
	c-2.739-54.565-47.849-97.966-103.095-97.966c-29.802,0-56.649,12.636-75.493,32.835c-18.825-25.158-48.86-41.441-82.7-41.441
	c-40.878,0-76.201,23.761-92.922,58.222c-9.93-3.178-20.512-4.9-31.495-4.9c-57.01,0-103.227,46.216-103.227,103.226
	c0,22.143,6.976,42.654,18.843,59.464c-23.181,18.93-37.983,47.731-37.983,79.992c0,57.009,46.216,103.225,103.225,103.225
	c0.779,0,1.553-0.012,2.326-0.029c8.689,48.215,50.861,84.797,101.583,84.797c27.501,0,52.489-10.758,70.99-28.291
	c17.432,13.45,39.277,21.456,62.997,21.456c30.679,0,58.226-13.388,77.133-34.634c11.425,4.358,23.819,6.752,36.774,6.752
	c57.009,0,103.226-46.216,103.226-103.226c0-19.724-5.534-38.154-15.132-53.828C387.463,196.923,405.199,165.757,405.199,130.442z"
	/>
<path fill="#332C2A" d="M27.413,3.435c-4.076-2.961-8.467-3.996-13.219-3.15C9.413,1.144,5.685,3.64,2.972,7.787
	c-2.703,4.172-3.553,8.734-2.59,13.738c0.957,4.998,3.455,8.951,7.504,11.928c4.078,2.957,8.469,3.99,13.219,3.143
	s8.453-3.328,11.166-7.475s3.561-8.709,2.59-13.742C33.927,10.373,31.462,6.408,27.413,3.435"/>
<g display="none">
	<defs>
		<path id="SVGID_1_" d="M405.199,130.442c0-48.964-34.091-89.964-79.833-100.562c-2.739-54.565-47.849-97.966-103.095-97.966
			c-29.802,0-56.649,12.636-75.493,32.835c-18.825-25.158-48.86-41.441-82.7-41.441c-40.878,0-76.201,23.761-92.922,58.222
			c-9.93-3.178-20.512-4.9-31.495-4.9c-57.01,0-103.227,46.216-103.227,103.226c0,22.143,6.976,42.654,18.843,59.464
			c-23.181,18.93-37.983,47.731-37.983,79.992c0,57.009,46.216,103.225,103.225,103.225c0.779,0,1.553-0.012,2.326-0.029
			c8.689,48.215,50.861,84.797,101.583,84.797c27.501,0,52.489-10.758,70.99-28.291c17.432,13.45,39.277,21.456,62.997,21.456
			c30.679,0,58.226-13.388,77.133-34.634c11.425,4.358,23.819,6.752,36.774,6.752c57.009,0,103.226-46.216,103.226-103.226
			c0-19.724-5.534-38.154-15.132-53.828C387.463,196.923,405.199,165.757,405.199,130.442z"/>
	</defs>
	<clipPath id="SVGID_2_" display="inline">
		<use xlink:href="#SVGID_1_"  overflow="visible"/>
	</clipPath>
</g>
<g display="none">
	
		<line display="inline" fill="none" stroke="#3E3A39" stroke-width="3.3733" stroke-linecap="round" stroke-linejoin="round" stroke-miterlimit="10" x1="32.567" y1="34.405" x2="30.318" y2="-20.692"/>
</g>
<path display="none" fill="none" d="M780.978,760.667c0,5.5-4.5,10-10,10H-506.968c-5.5,0-10-4.5-10-10V733.11v-841.881
	c0-5.5,4.5-10,10-10H770.978c5.5,0,10,4.5,10,10V731.11V760.667z"/>
</svg>
