<?xml version="1.0" encoding="utf-8"?>
<!-- Generator: Adobe Illustrator 16.0.0, SVG Export Plug-In . SVG Version: 6.00 Build 0)  -->
<!DOCTYPE svg PUBLIC "-//W3C//DTD SVG 1.1//EN" "http://www.w3.org/Graphics/SVG/1.1/DTD/svg11.dtd">
<svg version="1.1" id="レイヤー_1" xmlns="http://www.w3.org/2000/svg" xmlns:xlink="http://www.w3.org/1999/xlink" x="0px"
	 y="0px" width="126.465px" height="106.571px" viewBox="0 0 126.465 106.571" enable-background="new 0 0 126.465 106.571"
	 xml:space="preserve">
<path display="none" fill="#D5EBDF" d="M611.226,16.729c0-48.964-34.091-89.964-79.833-100.562
	c-2.739-54.565-47.849-97.966-103.095-97.966c-29.802,0-56.649,12.636-75.493,32.835c-18.825-25.158-48.86-41.441-82.7-41.441
	c-40.878,0-76.201,23.761-92.922,58.222c-9.93-3.178-20.512-4.9-31.495-4.9c-57.01,0-103.227,46.216-103.227,103.226
	c0,22.143,6.976,42.654,18.843,59.464C38.123,44.536,23.32,73.337,23.32,105.599c0,57.009,46.216,103.225,103.225,103.225
	c0.779,0,1.553-0.012,2.326-0.029c8.689,48.215,50.861,84.797,101.583,84.797c27.501,0,52.489-10.758,70.99-28.291
	c17.432,13.45,39.277,21.456,62.997,21.456c30.679,0,58.226-13.388,77.133-34.634c11.425,4.358,23.819,6.752,36.774,6.752
	c57.009,0,103.226-46.216,103.226-103.226c0-19.724-5.534-38.154-15.132-53.828C593.489,83.209,611.226,52.043,611.226,16.729z"/>
<g>
	<path fill="#941E28" d="M17.316,0.08c-0.447-0.121-0.895-0.102-1.324,0.043L5.052,3.914C4.705,4.041,4.421,4.226,4.187,4.439
		C3.949,4.656,3.765,4.947,3.642,5.25L0.16,14.277c-0.227,0.58-0.209,1.131,0.035,1.711s0.625,0.973,1.193,1.225
		c9.885,4.342,19.092,8.637,27.621,12.922c8.373,4.205,16.283,9.316,23.779,15.299c4.947,3.947,9.752,8.941,14.387,14.912
		c-1.707,1.977-3.51,5.025-5.369,9.15c-2.463,5.346-3.76,9.67-3.85,12.973c-0.193,3.908,0.652,6.732,2.482,8.441
		c1.695,1.746,3.893,2.828,6.549,3.256l-0.041,0.004c2.908,0.473,5.373-0.318,7.367-2.436c0.102-0.133,0.205-0.275,0.293-0.391
		c0.098-0.178,0.201-0.309,0.299-0.486c0.09,1.07,0.205,2.199,0.355,3.422c0.881,7.051,3.746,11.043,8.555,11.947
		c4.836,1.104,8.627-0.447,11.314-4.619c0.604-0.943,1.16-1.92,1.637-2.928c0.006,0.039,0.033,0.1,0.078,0.133
		c1.436,2.23,3.166,3.072,5.18,2.549c5.971-0.303,9.654-4.23,11.029-11.795c1.404,1.135,3.49,1.271,6.248,0.379
		c5.096-1.568,7.482-5.109,7.129-10.578c-0.311-4.574-1.84-9.244-4.578-13.924c-7.385-12.645-18.467-18.676-33.256-18.15
		c-3.807-5.6-8.35-10.648-13.662-15.158c-8.463-7.176-17.518-13.615-27.119-19.289C38.199,7.199,28.019,2.958,17.316,0.08
		 M11.103,16.511c-1.939-0.852-3.881-1.746-5.867-2.635L7.57,7.892l9.242-3.211c8.822,2.432,17.244,5.812,25.277,10.191
		c4.531,2.309,9.254,5.084,14.178,8.303c12.611,8.334,22.023,17.057,28.305,26.166c0.482,0.689,0.93,1.391,1.373,2.08
		c0.152,0.219,0.312,0.488,0.471,0.75c0.387-0.031,0.785-0.092,1.193-0.104c0.887-0.082,1.799-0.15,2.695-0.15
		c-0.023-0.02-0.068-0.053-0.072-0.096c0.898,0,1.764,0.045,2.629,0.088c0.246,0.004,0.516,0.025,0.762,0.033
		c10.607,0.592,18.609,5.477,24.004,14.717c1.875,3.172,3.096,6.354,3.703,9.539c-0.018,0.025-0.018,0.025,0.006,0.037
		c0.133,0.818,0.246,1.621,0.318,2.43c0.113,1.412,0.092,2.58-0.043,3.52c-0.27,1.59-0.912,2.537-1.934,2.842
		c-0.314,0.088-0.607,0.191-0.906,0.252c-1.246,0.271-2.365,0.328-3.354,0.119c-1.852-0.357-3.283-1.545-4.262-3.574
		c-0.4-1.562-0.791-2.896-1.129-4.01c-0.006-0.045-0.029-0.061-0.037-0.098c-0.33-1.037-0.611-1.896-0.889-2.572
		c0.113,0.516,0.219,1.133,0.344,1.871c0.033,0.238,0.064,0.48,0.082,0.742c0.027,0.061,0.039,0.141,0.027,0.201
		c0.318,2.572,0.322,5.086-0.002,7.6c-0.502,4.32-1.732,7.377-3.715,9.137c-1.199,1.068-2.648,1.66-4.352,1.773
		c-0.217,0.053-0.439,0.064-0.664,0.072c-1.596-0.02-2.812-1.406-3.709-4.162c-0.275-0.818-0.537-1.803-0.734-2.92
		c-0.592-5.861-1.016-9.338-1.252-10.447c-0.041,3.514-0.182,6.604-0.438,9.168c-0.312,2.889-0.75,5.172-1.307,6.902
		c-0.645,1.992-1.488,3.537-2.541,4.646c-1.57,1.65-3.604,2.299-6.102,1.992c-0.396-0.045-0.77-0.113-1.172-0.201
		c-2.111-0.484-3.635-3.643-4.584-9.557c-0.818-5.42-0.863-8.973-0.088-10.611c-0.789,1.09-1.572,2.076-2.408,2.949
		c-0.928,0.988-1.912,1.861-2.887,2.633c-0.242,0.174-0.482,0.352-0.705,0.504c-0.705,0.508-1.383,0.928-2.014,1.242
		c-2.357,1.125-4.328,0.928-5.943-0.541c-0.119-0.125-0.238-0.254-0.336-0.361c-2.518-2.797-2.148-7.938,1.102-15.42
		c1.201-2.82,2.611-5.445,4.24-7.842c0.41-0.582,0.781-1.129,1.105-1.602c0.361-0.48,0.676-0.852,0.941-1.154
		c0.145-0.141,0.268-0.301,0.375-0.398c0.268-0.26,0.494-0.416,0.67-0.461c-0.238-0.395-0.455-0.773-0.676-1.193
		c-0.178-0.238-0.336-0.5-0.473-0.75c-0.043-0.033-0.076-0.092-0.08-0.137C66.199,49.962,57.15,41.658,44.679,33.9
		c-0.178-0.098-0.311-0.205-0.467-0.283c-1.994-1.254-4.066-2.463-6.213-3.652C30.021,25.519,21.056,21.046,11.103,16.511"/>
	<path fill="#CB301F" d="M11.103,16.511C21.056,21.046,30.021,25.519,38,29.97c2.146,1.184,4.219,2.393,6.213,3.646
		c0.156,0.078,0.289,0.186,0.467,0.283c12.471,7.758,21.52,16.062,27.129,24.92c0.004,0.045,0.037,0.104,0.08,0.137
		c0.137,0.25,0.295,0.512,0.473,0.75c0.221,0.42,0.438,0.799,0.676,1.193c-0.176,0.045-0.402,0.201-0.67,0.461
		c-0.107,0.098-0.23,0.258-0.375,0.398c-0.266,0.303-0.58,0.674-0.941,1.154c-0.324,0.473-0.695,1.02-1.105,1.602
		c-1.629,2.396-3.039,5.021-4.24,7.842c-3.25,7.482-3.619,12.623-1.102,15.42c0.098,0.107,0.217,0.236,0.336,0.361
		c1.615,1.469,3.586,1.666,5.943,0.541c0.631-0.314,1.309-0.734,2.014-1.242c0.223-0.152,0.463-0.33,0.705-0.504
		c0.975-0.771,1.959-1.645,2.887-2.633c0.836-0.871,1.619-1.859,2.408-2.949c-0.775,1.639-0.73,5.191,0.088,10.611
		c0.949,5.914,2.473,9.076,4.584,9.557c0.402,0.088,0.775,0.156,1.172,0.201c2.498,0.307,4.531-0.342,6.102-1.992
		c1.053-1.109,1.896-2.654,2.541-4.646c0.557-1.73,0.994-4.014,1.307-6.902c0.256-2.564,0.396-5.654,0.438-9.168
		c0.236,1.109,0.66,4.586,1.252,10.447c0.197,1.117,0.459,2.102,0.734,2.92c0.896,2.756,2.113,4.143,3.707,4.162
		c0.227-0.008,0.449-0.02,0.666-0.072c1.703-0.113,3.152-0.705,4.352-1.773c1.982-1.76,3.213-4.816,3.715-9.137
		c0.324-2.514,0.32-5.027,0.002-7.6c0.012-0.061,0-0.141-0.027-0.201c-0.018-0.262-0.049-0.504-0.082-0.742
		c-0.125-0.738-0.23-1.355-0.344-1.871c0.277,0.676,0.559,1.535,0.889,2.572c0.008,0.037,0.031,0.053,0.037,0.098
		c0.338,1.113,0.729,2.447,1.129,4.01c0.979,2.029,2.41,3.217,4.262,3.574c0.988,0.209,2.107,0.152,3.354-0.119
		c0.299-0.061,0.592-0.164,0.906-0.252c1.021-0.305,1.664-1.252,1.934-2.842c0.135-0.936,0.156-2.107,0.043-3.52
		c-0.072-0.809-0.186-1.611-0.318-2.43c-0.023-0.012-0.023-0.012-0.006-0.037c-0.607-3.186-1.828-6.367-3.703-9.539
		c-5.395-9.24-13.396-14.125-24.004-14.717c-0.246-0.008-0.516-0.029-0.762-0.033c-0.865-0.043-1.73-0.088-2.629-0.088
		c0.004,0.043,0.049,0.076,0.072,0.096c-0.896,0-1.809,0.068-2.695,0.15c-0.408,0.012-0.807,0.072-1.193,0.104
		c-0.158-0.262-0.318-0.531-0.471-0.75c-0.443-0.689-0.891-1.391-1.373-2.08c-6.281-9.109-15.693-17.832-28.305-26.166
		c-4.924-3.219-9.646-5.994-14.178-8.303c-8.033-4.379-16.455-7.76-25.277-10.191L7.57,7.892l-2.334,5.984
		C7.222,14.765,9.164,15.66,11.103,16.511"/>
</g>
<g display="none">
	<path display="inline" fill="#1E95D4" d="M145.832,61.76l-1.716-2.525l-39.795,4.105c-0.068,0.002-0.153-0.008-0.251-0.017
		c-0.099-0.038-0.21-0.075-0.322-0.125c-0.048-0.135-0.082-0.272-0.13-0.408c-0.248-2.176-0.58-4.347-1.022-6.528
		c-0.019-0.109-0.052-0.232-0.087-0.383c-0.018-0.096-0.067-0.315-0.154-0.685c-0.975-4.178-2.419-8.374-4.322-12.608
		c-1.818-3.849-4.242-7.311-7.243-10.401c-1.55-1.523-3.577-2.665-6.089-3.41l-0.039,0.001c-2.498-0.748-4.243,0.741-5.24,4.479
		c-0.014,0.03-0.012,0.057-0.024,0.084c-0.012,0.014-0.012,0.042-0.024,0.057c-0.185,0.561-0.366,1.137-0.547,1.739
		c-0.013,0.015-0.011,0.042-0.024,0.057c-0.014,0.015-0.023,0.071-0.048,0.154c-0.014,0.042-0.037,0.099-0.051,0.142
		c-1.455,4.934-1.95,9.966-1.502,15.093c0.003,0.083,0.009,0.167,0.011,0.235c0.003,0.042,0.005,0.082,0.005,0.124
		c0.004,0.068,0.006,0.125,0.009,0.193c0.004,0.069,0.008,0.152,0.011,0.221c0.691,13.724,4.062,28.573,10.113,44.537
		c0.093,0.203,0.196,0.392,0.302,0.594c0.106,0.217,0.227,0.419,0.36,0.607c0.014,0.014,0.043,0.041,0.071,0.052
		c0.073,0.066,0.146,0.131,0.216,0.184c0.129,0.106,0.272,0.197,0.415,0.287c0.07,0.038,0.127,0.078,0.197,0.114
		c0.213,0.116,0.466,0.215,0.733,0.3c0.238,0.072,0.49,0.144,0.756,0.202c0.433,0.077,0.893,0.153,1.351,0.216
		c0.238,0.045,0.488,0.076,0.779,0.104c0.851,0.086,1.874,0.111,3.077,0.071c0.262-0.012,0.538-0.023,0.826-0.05
		c0.222-0.011,0.456-0.035,0.718-0.074c0.303-0.027,0.593-0.054,0.882-0.094c0.177-0.035,0.356-0.071,0.535-0.093
		c0.314-0.055,0.632-0.112,0.948-0.18c0.259-0.066,0.519-0.133,0.793-0.202c0.271-0.081,0.546-0.175,0.818-0.257l47.176-14.88
		l0.414-0.336l1.443-1.808l-4.127-18.441L145.832,61.76z"/>
	<path display="inline" fill="none" stroke="#044591" stroke-width="2.2118" stroke-linecap="round" stroke-miterlimit="10" d="
		M144.116,59.235l-39.795,4.105c-0.069,0.002-0.152-0.006-0.248-0.017c-0.101-0.037-0.211-0.075-0.325-0.125
		c-0.047-0.135-0.082-0.272-0.13-0.408c-0.248-2.176-0.58-4.347-1.022-6.528c-0.019-0.109-0.052-0.232-0.086-0.383
		c-0.019-0.096-0.068-0.315-0.156-0.686c-0.974-4.177-2.42-8.373-4.322-12.607c-1.818-3.849-4.24-7.311-7.242-10.401
		c-1.548-1.523-3.579-2.665-6.088-3.41l-0.042,0.001c-2.496-0.747-4.241,0.741-5.238,4.479c-0.013,0.029-0.012,0.056-0.024,0.084
		c-0.014,0.014-0.011,0.042-0.025,0.057c-0.183,0.561-0.363,1.137-0.546,1.739c-0.013,0.015-0.011,0.042-0.024,0.057
		c-0.013,0.014-0.023,0.071-0.049,0.154c-0.013,0.043-0.036,0.1-0.05,0.142c-1.455,4.936-1.951,9.966-1.501,15.094
		c0.002,0.083,0.008,0.167,0.01,0.235c0.001,0.042,0.004,0.082,0.005,0.125c0.003,0.068,0.005,0.124,0.009,0.192
		c0.004,0.069,0.009,0.152,0.011,0.221c0.691,13.724,4.062,28.573,10.113,44.537c0.093,0.202,0.195,0.391,0.303,0.594
		c0.105,0.217,0.225,0.419,0.358,0.607c0.016,0.014,0.044,0.041,0.071,0.052c0.074,0.066,0.146,0.132,0.217,0.185
		c0.129,0.106,0.272,0.197,0.415,0.287c0.07,0.039,0.126,0.078,0.197,0.115c0.212,0.116,0.466,0.215,0.733,0.3
		c0.237,0.072,0.491,0.144,0.756,0.202c0.433,0.077,0.892,0.153,1.353,0.217c0.235,0.045,0.487,0.075,0.778,0.103
		c0.848,0.087,1.874,0.111,3.076,0.071c0.262-0.011,0.537-0.023,0.828-0.049c0.221-0.01,0.454-0.035,0.716-0.074
		c0.303-0.027,0.592-0.054,0.883-0.094c0.177-0.035,0.354-0.071,0.535-0.093c0.312-0.055,0.631-0.112,0.946-0.18
		c0.26-0.066,0.52-0.132,0.793-0.2c0.273-0.083,0.546-0.177,0.818-0.259l47.178-14.88l0.413-0.336l1.441-1.808l-4.125-18.439
		l-0.202-0.449L144.116,59.235z"/>
	<path display="inline" fill="#003C86" d="M166.262,19.042c-0.254,0.22-0.551,0.306-0.862,0.289
		c-0.339-0.018-0.606-0.168-0.811-0.424l-46.285-54.341c-0.22-0.254-0.305-0.536-0.271-0.862c0.017-0.326,0.153-0.592,0.407-0.812
		c0.253-0.205,0.536-0.291,0.861-0.273c0.132,0.016,0.266,0.046,0.385,0.092c0.162,0.075,0.294,0.181,0.427,0.316l45.757,53.73
		c0.295,0.046,0.546,0.181,0.751,0.408c0.188,0.222,0.276,0.461,0.291,0.743c-0.001,0.044-0.001,0.074-0.001,0.118
		c-0.018,0.325-0.156,0.591-0.408,0.812L166.262,19.042z"/>
	<path display="inline" fill="#1E95D4" d="M166.91,17.907c-0.013-0.282-0.099-0.52-0.29-0.745c-0.205-0.223-0.457-0.359-0.752-0.406
		l-45.757-53.73c-0.131-0.135-0.264-0.241-0.426-0.315c1.555-3.202,4.192-6.334,7.91-9.382c3.078-2.536,5.936-3.932,8.59-4.188
		c0.014,0.192,0.088,0.385,0.203,0.549c0.177,0.282,0.426,0.449,0.736,0.511l44.069,50.322c0.22,0.253,0.485,0.388,0.812,0.406h0.03
		c-0.266,4.548-1.872,8.46-4.821,11.737C174.309,15.899,170.87,17.647,166.91,17.907"/>
</g>
<g display="none">
	<defs>
		<path id="SVGID_1_" d="M611.226,16.729c0-48.964-34.091-89.964-79.833-100.562c-2.739-54.565-47.849-97.966-103.095-97.966
			c-29.802,0-56.649,12.636-75.493,32.835c-18.825-25.158-48.86-41.441-82.7-41.441c-40.878,0-76.201,23.761-92.922,58.222
			c-9.93-3.178-20.512-4.9-31.495-4.9c-57.01,0-103.227,46.216-103.227,103.226c0,22.143,6.976,42.654,18.843,59.464
			C38.123,44.536,23.32,73.337,23.32,105.599c0,57.009,46.216,103.225,103.225,103.225c0.779,0,1.553-0.012,2.326-0.029
			c8.689,48.215,50.861,84.797,101.583,84.797c27.501,0,52.489-10.758,70.99-28.291c17.432,13.45,39.277,21.456,62.997,21.456
			c30.679,0,58.226-13.388,77.133-34.634c11.425,4.358,23.819,6.752,36.774,6.752c57.009,0,103.226-46.216,103.226-103.226
			c0-19.724-5.534-38.154-15.132-53.828C593.489,83.209,611.226,52.043,611.226,16.729z"/>
	</defs>
	<clipPath id="SVGID_2_" display="inline">
		<use xlink:href="#SVGID_1_"  overflow="visible"/>
	</clipPath>
</g>
<path display="none" fill="none" d="M987.004,646.954c0,5.5-4.5,10-10,10H-300.941c-5.5,0-10-4.5-10-10v-27.558v-841.881
	c0-5.5,4.5-10,10-10H977.004c5.5,0,10,4.5,10,10v839.881V646.954z"/>
</svg>
