<?xml version="1.0" encoding="utf-8"?>
<!-- Generator: Adobe Illustrator 16.0.0, SVG Export Plug-In . SVG Version: 6.00 Build 0)  -->
<!DOCTYPE svg PUBLIC "-//W3C//DTD SVG 1.1//EN" "http://www.w3.org/Graphics/SVG/1.1/DTD/svg11.dtd">
<svg version="1.1" id="レイヤー_1" xmlns="http://www.w3.org/2000/svg" xmlns:xlink="http://www.w3.org/1999/xlink" x="0px"
	 y="0px" width="125.953px" height="207.739px" viewBox="0 0 125.953 207.739" enable-background="new 0 0 125.953 207.739"
	 xml:space="preserve">
<g>
	<path fill="#EDDC00" d="M49.74,147.095c-0.616-1.507-0.593-3.381,0.055-5.624c0.683-2.36,1.925-4.497,3.722-6.394
		c2.069-2.163,4.56-3.651,7.471-4.454c3.409-0.941,7.175-0.878,11.299,0.169c0.839-1.377,2.738-2.982,5.71-4.828
		c3.16-1.965,6.482-3.51,9.964-4.63c4.042-1.31,7.552-1.758,10.534-1.343c3.531,0.48,6.032,2.144,7.501,4.994
		c2.056,3.983,0.689,8.062-4.104,12.235c-1.747,1.519-3.723,2.833-5.918,3.955c-1.968,0.991-3.457,1.523-4.482,1.587
		c1.992,3.024,2.08,6.082,0.264,9.148c-1.575,2.682-4.274,4.949-8.098,6.795c-3.658,1.781-7.212,2.668-10.664,2.661
		c-3.725,0.004-6.219-1.091-7.484-3.286c0.223,1.972-0.692,3.668-2.747,5.088c-1.924,1.336-4.28,2.087-7.073,2.234
		c-2.941,0.168-5.456-0.404-7.552-1.725c-2.416-1.504-3.808-3.77-4.181-6.796c-0.134-1.074,0.825-2.776,2.878-5.116
		c2.068-2.339,3.043-3.994,2.923-4.967L49.74,147.095z"/>
	<path fill="none" stroke="#F1B800" stroke-width="2.7537" stroke-miterlimit="10" d="M49.74,147.095l0.017-0.295
		c0.12,0.973-0.854,2.628-2.923,4.967c-2.053,2.34-3.012,4.042-2.878,5.116c0.373,3.026,1.765,5.292,4.181,6.796
		c2.096,1.32,4.61,1.893,7.552,1.725c2.793-0.147,5.149-0.898,7.073-2.234c2.055-1.42,2.97-3.116,2.747-5.088
		c1.266,2.195,3.76,3.29,7.484,3.286c3.452,0.007,7.006-0.88,10.664-2.661c3.823-1.846,6.522-4.113,8.098-6.795
		c1.816-3.066,1.729-6.124-0.264-9.148c1.025-0.063,2.515-0.596,4.482-1.587c2.195-1.122,4.171-2.437,5.918-3.955
		c4.793-4.173,6.159-8.252,4.104-12.235c-1.469-2.851-3.97-4.514-7.501-4.994c-2.982-0.415-6.49,0.033-10.534,1.343
		c-3.481,1.12-6.804,2.665-9.964,4.63c-2.972,1.846-4.871,3.451-5.71,4.828c-4.124-1.047-7.89-1.109-11.299-0.169
		c-2.911,0.803-5.401,2.291-7.471,4.454c-1.797,1.896-3.039,4.033-3.722,6.394C49.147,143.714,49.124,145.588,49.74,147.095z"/>
	<path fill="#FCDF00" d="M49.74,147.095c-0.616-1.507-0.593-3.381,0.055-5.624c0.683-2.36,1.925-4.497,3.722-6.394
		c2.069-2.163,4.56-3.651,7.471-4.454c3.409-0.941,7.175-0.878,11.299,0.169c0.839-1.377,2.738-2.982,5.71-4.828
		c3.16-1.965,6.482-3.51,9.964-4.63c4.042-1.31,7.552-1.758,10.534-1.343c3.531,0.48,6.032,2.144,7.501,4.994
		c2.056,3.983,0.689,8.062-4.104,12.235c-1.747,1.519-3.723,2.833-5.918,3.955c-1.968,0.991-3.457,1.523-4.482,1.587
		c1.992,3.024,2.08,6.082,0.264,9.148c-1.575,2.682-4.274,4.949-8.098,6.795c-3.658,1.781-7.212,2.668-10.664,2.661
		c-3.725,0.004-6.219-1.091-7.484-3.286c0.223,1.972-0.692,3.668-2.747,5.088c-1.924,1.336-4.28,2.087-7.073,2.234
		c-2.941,0.168-5.456-0.404-7.552-1.725c-2.416-1.504-3.808-3.77-4.181-6.796c-0.134-1.074,0.825-2.776,2.878-5.116
		c2.068-2.339,3.043-3.994,2.923-4.967L49.74,147.095z"/>
	<path fill="#E32126" d="M52.624,152.63c-0.093-0.254-0.183-0.506-0.288-0.736c3.378-0.598,6.752-1.178,10.147-1.756
		c0.103,0.234,0.204,0.467,0.307,0.708c1.45,3.214,2.74,6.712,3.878,10.501c0.046-0.016,0.092-0.023,0.14-0.021
		c0.746-0.104,1.475,0.131,2.201,0.715l0.007,0.002v0.01c0.619,0.505,1.039,1.172,1.251,1.979c0.149,0.815,0.042,1.546-0.339,2.197
		c-0.43,0.739-1.021,1.151-1.786,1.229l-0.01-0.001c-0.073-0.003-0.139,0.006-0.187,0.021c0.01,0.046,0.008,0.082,0.016,0.13
		c0.067,0.187,0.125,0.38,0.173,0.595c0.081,0.359,0.151,0.73,0.213,1.092c0,0.008,0,0.008-0.009,0.018
		c0.029,0.158,0.064,0.305,0.087,0.463c0.021,0.176,0.023,0.357,0.008,0.533c-0.012,0.139,0,0.258,0.053,0.379
		c0.03-0.018,0.058-0.035,0.084-0.063c0,0.028-0.002,0.046-0.002,0.075c0.66,0.029,1.23,0.335,1.71,0.921h0.007v0.009
		c0.469,0.577,0.686,1.283,0.64,2.117c-0.048,0.616-0.23,1.17-0.553,1.666l-1.789-0.058c0.037-0.046,0.075-0.081,0.104-0.116
		c0.085-0.062,0.161-0.133,0.238-0.223v-0.009c0.315-0.339,0.493-0.737,0.517-1.206c0.017-0.195,0.002-0.37-0.027-0.545
		c-0.143-0.455-0.386-0.84-0.737-1.146c-0.455-0.4-0.979-0.621-1.576-0.658c-0.011,0-0.027,0-0.047-0.003
		c-0.009-0.044-0.007-0.073-0.007-0.101c-0.034-0.075-0.067-0.148-0.091-0.23c0.178-0.371,0.229-0.822,0.162-1.329
		c-0.082-0.593-0.209-1.167-0.385-1.733c-0.076-0.223-0.17-0.42-0.303-0.579c-0.023-0.177-0.046-0.341-0.066-0.516
		c0.01,0,0.037,0,0.065,0.001c0.598-0.045,1.141-0.285,1.606-0.722c0.425-0.399,0.681-0.896,0.784-1.481
		c-0.006-0.174-0.018-0.351-0.03-0.523c-0.065-0.279-0.167-0.514-0.3-0.711c-0.149-0.161-0.31-0.323-0.471-0.466
		c-0.233-0.218-0.504-0.384-0.802-0.495c-0.62-0.225-1.223-0.323-1.812-0.299c-0.007-0.02-0.007-0.028-0.017-0.028
		c-1.044-3.758-2.273-7.219-3.696-10.402c-2.469,0.433-4.92,0.859-7.354,1.284c1.29,3.271,2.355,6.673,3.207,10.193
		c0,0.012,0,0.012,0,0.02c-0.435,0.291-0.771,0.692-1.017,1.208c-0.108,0.265-0.167,0.556-0.167,0.869
		c0.037,0.616,0.257,1.175,0.654,1.676c0.327,0.389,0.741,0.687,1.222,0.886c0.02,0.002,0.038,0.002,0.055,0.01
		c0.02-0.008,0.038-0.016,0.057-0.025c0.009,0.012,0.018,0.02,0.028,0.03c0.078,0.075,0.141,0.161,0.201,0.254
		c0.131,0.2,0.234,0.422,0.291,0.683c0.119,0.508,0.187,1.026,0.215,1.561c0.018,0.339-0.014,0.662-0.077,0.98
		c0.009,0.01,0.009,0.01,0.009,0.021c-0.004,0.071-0.006,0.145-0.008,0.217l-0.001,0.029h-0.009
		c-0.048,0.008-0.111,0.006-0.176,0.014c-0.611,0.116-1.109,0.45-1.495,0.999c-0.309,0.423-0.471,0.886-0.486,1.409
		c0.015,0.064,0.021,0.156,0.007,0.266c0.013,0.193,0.045,0.379,0.084,0.555l-1.544-0.051c-0.019-0.229-0.029-0.478-0.011-0.736
		c0.071-0.833,0.373-1.56,0.888-2.177c0.355-0.421,0.759-0.71,1.199-0.872c0-0.008,0-0.008,0-0.018
		c0.026-0.01,0.047-0.027,0.064-0.045c0.012-0.008,0.012-0.017,0.021-0.027c0.012-0.072,0.015-0.145,0.016-0.21
		c0.023-0.101,0.024-0.211,0.021-0.33c-0.025-0.333-0.072-0.657-0.144-0.964c-0.089-0.377-0.254-0.677-0.495-0.904
		c0-0.012,0.001-0.021,0.001-0.029c-0.3-0.129-0.577-0.312-0.854-0.561c-0.582-0.527-0.964-1.2-1.129-2.023
		c-0.167-0.809-0.07-1.538,0.272-2.189c0.206-0.364,0.454-0.639,0.736-0.832C55.068,159.431,53.959,155.974,52.624,152.63"/>
	<path fill="#E32126" d="M89.897,182.626c2.927,1.045,5.154,2.451,6.667,4.212c1.544,1.771,2.183,3.602,1.927,5.496v0.013
		c-0.223,1.939-1.353,3.623-3.395,5.056l-0.01-0.003c-2.08,1.459-4.898,2.445-8.474,2.951h-0.01
		c-8.454,1.195-19.399-0.434-32.819-4.885c-0.577-0.053-0.769-1.471-0.587-4.241l0.001-0.007c0.18-2.404,0.547-4.591,1.118-6.559
		c0,0-0.011,0-0.021-0.01c0.04-0.1,0.071-0.19,0.084-0.272c-0.188-0.151-0.355-0.333-0.507-0.541c0.009-0.009,0.001-0.02-0.01-0.009
		c-0.366-0.592-0.48-1.296-0.343-2.117c0.183-0.812,0.563-1.518,1.154-2.115c0.342-0.309,0.682-0.538,1.015-0.701
		c0.231-0.031,0.411-0.172,0.559-0.432c0.157-0.29,0.287-0.59,0.396-0.889c0.053-0.137,0.063-0.275,0.05-0.395
		c0.012-0.056,0.021-0.109,0.034-0.174c-0.289-0.146-0.549-0.367-0.777-0.67c0.007-0.008,0-0.016-0.01-0.008
		c-0.3-0.406-0.486-0.882-0.552-1.408l1.543,0.051c0.108,0.361,0.291,0.682,0.547,0.964c0.029,0.03,0.062,0.067,0.1,0.098
		l0.729,0.454c0.023,1.004-0.221,1.916-0.733,2.756c-0.029,0.045-0.06,0.078-0.105,0.124l-0.431,0.197
		c-0.234,0.111-0.495,0.267-0.777,0.472c-0.292,0.201-0.521,0.396-0.664,0.576c-0.294,0.301-0.49,0.664-0.568,1.092
		c0,0.01,0,0.01,0,0.02c0.008,0,0,0.009-0.01,0.027c0.008,0.02-0.002,0.047-0.022,0.092c-0.01,0.029-0.012,0.072-0.021,0.118
		c-0.028,0.522,0.085,1.005,0.337,1.446c0.165,0.264,0.378,0.482,0.65,0.648c-0.01,0.016-0.011,0.036-0.011,0.045
		c-0.074,0.299-0.168,0.6-0.262,0.92l-0.001,0.009h-0.008c-0.637,1.993-1.014,4.004-1.126,6.042
		c-0.113,2.037-0.22,3.035-0.312,3.005c13.146,4.358,23.873,5.972,32.159,4.817c0.58-0.081,1.138-0.184,1.676-0.285
		c0.141-0.098,0.282-0.193,0.404-0.309c0.945-0.805,1.496-1.865,1.647-3.182c0.153-1.275-0.111-2.479-0.78-3.633
		c-0.706-1.209-1.744-2.079-3.115-2.604c2.021,0.354,3.537,1.211,4.533,2.578c0.905,1.217,1.221,2.566,0.951,4.059
		c-0.17,0.96-0.546,1.766-1.119,2.438c1.412-0.461,2.626-1.045,3.653-1.756c1.646-1.152,2.573-2.493,2.781-4.039
		c0.177-1.494-0.347-2.947-1.578-4.356c-1.383-1.581-3.4-2.842-6.054-3.794c-5.938-2.116-13.288-2.312-22.054-0.567
		c-0.198,0.149-0.396,0.31-0.596,0.468c-0.1,0.015-0.186,0.03-0.259,0.047c-0.009-0.011-0.027-0.011-0.036-0.002
		c0.177-0.086,0.339-0.229,0.501-0.434c0.02-0.018,0.037-0.035,0.049-0.053c0.202-0.279,0.358-0.605,0.483-0.979
		c0.082-0.264,0.125-0.529,0.144-0.787c0.017-0.209,0.005-0.421-0.026-0.625c-0.082-0.525-0.347-0.92-0.787-1.185
		c-0.171-0.106-0.342-0.203-0.525-0.275l-0.847-0.241c0.012-0.06,0.031-0.116,0.062-0.161c0.498-0.939,0.836-1.921,0.99-2.956
		l0.561-0.046c0.371-0.07,0.744-0.251,1.13-0.524c0.141-0.105,0.273-0.22,0.391-0.335l1.789,0.058
		c-0.107,0.172-0.242,0.342-0.383,0.501c-0.012-0.008-0.021,0-0.012,0.009c-0.62,0.689-1.32,1.025-2.104,1.026
		c-0.021,0.12-0.062,0.238-0.13,0.365c-0.01,0.035-0.021,0.071-0.031,0.108c-0.082,0.281-0.176,0.557-0.275,0.829
		c-0.059,0.154-0.13,0.288-0.208,0.415c0.643,0.057,1.147,0.379,1.524,0.951h0.009l-0.011,0.009
		c0.378,0.563,0.493,1.231,0.367,1.999C77.304,180.248,84.228,180.576,89.897,182.626"/>
	<path fill="#E17C9E" d="M67.216,162.562c0.298,0.111,0.568,0.277,0.802,0.495c0.161,0.143,0.321,0.305,0.471,0.466
		c0.133,0.197,0.234,0.432,0.3,0.711c0.013,0.173,0.024,0.35,0.03,0.523c-0.104,0.586-0.359,1.082-0.784,1.482
		c-0.467,0.436-1.009,0.676-1.606,0.721c-0.028-0.001-0.056-0.001-0.065-0.001c-0.026-0.013-0.045-0.013-0.054-0.005
		c-2.66,0.348-5.302,0.681-7.933,1.028c-0.011-0.011-0.02-0.019-0.028-0.03c-0.019,0.01-0.037,0.018-0.056,0.025
		c-0.018-0.008-0.036-0.008-0.056-0.01c-0.48-0.199-0.893-0.497-1.222-0.886c-0.397-0.501-0.618-1.06-0.654-1.676
		c0-0.313,0.059-0.604,0.167-0.869c0.246-0.516,0.582-0.917,1.017-1.208c0-0.008,0-0.008,0-0.02
		c2.605-0.345,5.228-0.692,7.859-1.047C65.994,162.235,66.596,162.337,67.216,162.562"/>
	<path fill="#E76500" d="M66.309,166.955c0.008-0.008,0.027-0.008,0.055,0.005c0.021,0.175,0.041,0.339,0.064,0.516
		c0.134,0.161,0.229,0.356,0.304,0.579c0.176,0.566,0.303,1.141,0.385,1.733c0.066,0.507,0.015,0.958-0.163,1.329
		c0.023,0.082,0.058,0.155,0.094,0.23c0,0.027-0.003,0.057,0.004,0.101c-0.034-0.009-0.055,0-0.064,0.009
		c-0.018,0.008-0.036,0.006-0.056,0.017c-2.648,0.07-5.291,0.149-7.923,0.226c0.001-0.072,0.003-0.146,0.005-0.217
		c0-0.012,0-0.012-0.007-0.021c0.063-0.318,0.094-0.642,0.078-0.98c-0.03-0.534-0.096-1.053-0.216-1.561
		c-0.057-0.261-0.16-0.482-0.29-0.683c-0.062-0.093-0.124-0.179-0.203-0.254C61.005,167.636,63.649,167.302,66.309,166.955"/>
	<path fill="#E76500" d="M65.387,162.235c0.01,0,0.01,0.009,0.017,0.028c-2.632,0.354-5.254,0.702-7.859,1.047
		c-0.852-3.521-1.917-6.922-3.207-10.193c2.434-0.425,4.885-0.852,7.354-1.284C63.114,155.015,64.343,158.477,65.387,162.235"/>
	<path fill="#E17C9E" d="M59.006,171.728l0.002-0.029c2.632-0.076,5.273-0.155,7.923-0.225c0.02-0.012,0.038-0.01,0.056-0.018
		c0.011-0.009,0.032-0.018,0.064-0.009c0.021,0.003,0.037,0.003,0.048,0.003c0.597,0.039,1.121,0.258,1.577,0.658
		c0.35,0.307,0.594,0.691,0.736,1.146c0.03,0.175,0.044,0.35,0.028,0.545c-0.026,0.469-0.202,0.867-0.518,1.206v0.009
		c-0.077,0.09-0.153,0.16-0.238,0.223c-0.143,0.169-0.306,0.318-0.493,0.451c-0.386,0.273-0.759,0.455-1.13,0.524l-0.562,0.046
		l-1.832,0.051c-1.97,0.045-3.939,0.102-5.9,0.166l-0.462,0.01l-0.728-0.454c-0.037-0.03-0.07-0.067-0.099-0.098
		c-0.381-0.415-0.596-0.919-0.63-1.519c0.011-0.109,0.006-0.201-0.01-0.266c0.018-0.523,0.18-0.986,0.486-1.409
		c0.387-0.549,0.885-0.883,1.496-0.999c0.064-0.008,0.128-0.006,0.176-0.014H59.006z"/>
	<path fill="#E17C9E" d="M66.297,179.618c0.181,0.072,0.354,0.169,0.524,0.275c0.442,0.263,0.703,0.659,0.787,1.185
		c0.032,0.204,0.044,0.416,0.026,0.625c-0.018,0.258-0.064,0.523-0.144,0.787c-0.124,0.373-0.281,0.699-0.484,0.979
		c-0.01,0.018-0.026,0.035-0.048,0.053c-0.162,0.205-0.324,0.348-0.502,0.434c0.01-0.009,0.029-0.009,0.037,0.002
		c-0.044,0.008-0.082,0.016-0.129,0.039c-0.066,0.02-0.14,0.033-0.215,0.051c-0.018-0.01-0.035-0.002-0.053,0.008
		c-0.085,0.006-0.167,0.004-0.251,0.01c-0.119,0.004-0.248,0-0.376,0.006c-3.191-0.004-6.356-0.016-9.509-0.018
		c-0.271-0.166-0.485-0.383-0.65-0.646c-0.253-0.441-0.365-0.924-0.338-1.446c0.009-0.046,0.013-0.089,0.021-0.118
		c0.02-0.045,0.032-0.072,0.021-0.092c0.012-0.019,0.02-0.027,0.012-0.027v-0.02c0.078-0.428,0.274-0.791,0.569-1.092
		c0.143-0.18,0.371-0.375,0.661-0.576c0.283-0.205,0.545-0.36,0.779-0.472l0.431-0.197l1.048-0.003c1.896,0,3.788,0.006,5.693,0.014
		h1.239L66.297,179.618z"/>
	<path fill="#E76500" d="M66.366,183.998c0.047-0.025,0.084-0.033,0.129-0.041c0.073-0.017,0.159-0.032,0.259-0.047
		c0.2-0.158,0.397-0.318,0.597-0.468c8.765-1.745,16.115-1.549,22.053,0.567c2.652,0.952,4.671,2.213,6.054,3.794
		c1.231,1.409,1.755,2.862,1.577,4.356c-0.207,1.546-1.134,2.887-2.781,4.04c-1.026,0.71-2.24,1.294-3.652,1.755
		c0.573-0.672,0.947-1.478,1.119-2.438c0.27-1.492-0.045-2.842-0.951-4.059c-0.996-1.367-2.513-2.225-4.534-2.578
		c1.372,0.524,2.41,1.395,3.115,2.604c0.671,1.154,0.935,2.357,0.781,3.633c-0.151,1.316-0.703,2.375-1.647,3.182
		c-0.122,0.115-0.264,0.211-0.404,0.309c-0.54,0.102-1.095,0.204-1.675,0.285c-8.287,1.154-19.014-0.459-32.16-4.817
		c0.092,0.03,0.198-0.968,0.311-3.005c0.113-2.038,0.49-4.049,1.127-6.041h0.009v-0.01c0.094-0.32,0.188-0.621,0.262-0.92
		c0-0.012,0.001-0.029,0.011-0.047c3.152,0.002,6.316,0.014,9.509,0.018c0.129-0.006,0.256-0.002,0.375-0.006
		c0.085-0.006,0.167-0.004,0.252-0.01c0.016-0.01,0.035-0.018,0.053-0.008c0.075-0.018,0.148-0.031,0.213-0.049H66.366z"/>
	<path fill="#E76500" d="M65.45,179.376h-1.24c-1.905-0.008-3.799-0.014-5.692-0.014l-1.049,0.003
		c0.045-0.048,0.076-0.079,0.104-0.126c0.514-0.838,0.757-1.75,0.733-2.754l0.462-0.01c1.96-0.064,3.93-0.121,5.899-0.166
		l1.834-0.051c-0.154,1.035-0.492,2.017-0.991,2.956C65.48,179.26,65.461,179.317,65.45,179.376"/>
	<path fill="#E32126" d="M48.531,159.783c0.122-0.236,0.246-0.471,0.374-0.691c-3.258-1.002-6.521-1.986-9.799-2.973
		c-0.13,0.219-0.26,0.436-0.391,0.664c-1.822,2.99-3.527,6.287-5.111,9.887c-0.044-0.02-0.089-0.035-0.135-0.039
		c-0.726-0.193-1.472-0.051-2.261,0.438h-0.008l-0.002,0.008c-0.669,0.426-1.169,1.032-1.476,1.803
		c-0.245,0.785-0.229,1.521,0.063,2.209c0.335,0.782,0.868,1.262,1.617,1.432h0.008c0.072,0.008,0.134,0.021,0.18,0.046
		c-0.014,0.044-0.017,0.081-0.031,0.124c-0.088,0.176-0.17,0.361-0.242,0.566c-0.125,0.348-0.239,0.703-0.345,1.051
		c0,0.008,0,0.008,0.008,0.02c-0.049,0.152-0.1,0.295-0.142,0.446c-0.042,0.169-0.069,0.353-0.076,0.526
		c-0.003,0.137-0.031,0.253-0.097,0.365c-0.023-0.02-0.052-0.041-0.075-0.069c-0.003,0.027-0.005,0.045-0.009,0.073
		c-0.654-0.053-1.256,0.18-1.798,0.697h-0.007l-0.002,0.01c-0.532,0.512-0.832,1.182-0.89,2.013
		c-0.038,0.821,0.179,1.575,0.658,2.253c0.011-0.01,0.019,0.002,0.008,0.01c0.529,0.753,1.18,1.172,1.951,1.269
		c-0.001,0.108,0.026,0.233,0.077,0.356l1.447,0.131c-0.052-0.326-0.077-0.658-0.083-0.997l-0.551-0.114
		c-0.355-0.117-0.704-0.342-1.053-0.656c-0.168-0.153-0.307-0.324-0.431-0.506c-0.074-0.074-0.141-0.154-0.204-0.25v-0.008
		c-0.268-0.373-0.396-0.791-0.363-1.256c0.009-0.19,0.043-0.362,0.096-0.531c0.192-0.432,0.482-0.783,0.864-1.042
		c0.5-0.341,1.044-0.493,1.639-0.456c0.009,0,0.027,0.002,0.046,0.004c0.012-0.045,0.014-0.072,0.018-0.1
		c0.042-0.071,0.086-0.14,0.121-0.22c-0.13-0.386-0.127-0.837,0.001-1.331c0.153-0.572,0.351-1.123,0.592-1.662
		c0.104-0.211,0.22-0.393,0.37-0.534c0.044-0.173,0.084-0.334,0.13-0.505c-0.012,0-0.039-0.001-0.064-0.004
		c-0.588-0.117-1.092-0.42-1.496-0.908c-0.374-0.445-0.566-0.97-0.594-1.56c0.024-0.171,0.058-0.343,0.093-0.515
		c0.096-0.266,0.228-0.482,0.381-0.663c0.169-0.14,0.347-0.279,0.524-0.4c0.254-0.19,0.543-0.317,0.851-0.392
		c0.637-0.143,1.245-0.172,1.824-0.072c0.011-0.018,0.013-0.025,0.02-0.025c1.493-3.583,3.13-6.85,4.923-9.814
		c2.384,0.729,4.751,1.449,7.1,2.168c-1.674,3.069-3.142,6.295-4.411,9.668c-0.003,0.01-0.003,0.01-0.003,0.019
		c0.391,0.339,0.673,0.776,0.854,1.317c0.077,0.271,0.095,0.568,0.057,0.876c-0.107,0.604-0.395,1.13-0.849,1.575
		c-0.369,0.342-0.815,0.588-1.313,0.724c-0.019,0-0.036-0.001-0.057,0.005c-0.016-0.012-0.033-0.02-0.052-0.033
		c-0.01,0.01-0.02,0.019-0.028,0.027c-0.089,0.064-0.16,0.141-0.232,0.227c-0.153,0.18-0.283,0.387-0.37,0.635
		c-0.182,0.488-0.309,0.992-0.404,1.516c-0.059,0.336-0.067,0.653-0.043,0.977c-0.01,0.011-0.01,0.011-0.012,0.02
		c-0.006,0.073-0.011,0.146-0.018,0.217l-0.003,0.029h0.01c0.044,0.012,0.107,0.02,0.172,0.035c0.586,0.191,1.037,0.58,1.352,1.169
		c0.251,0.454,0.354,0.931,0.311,1.45c-0.025,0.061-0.043,0.152-0.043,0.262c-0.109,0.587-0.38,1.057-0.81,1.422
		c-0.03,0.025-0.069,0.058-0.109,0.084l-0.774,0.361c-0.025,0.162-0.039,0.324-0.047,0.49l1.695,0.154
		c0.24-0.115,0.475-0.279,0.696-0.506c-0.007-0.01,0.003-0.02,0.012-0.01c0.495-0.531,0.77-1.213,0.819-2.045
		c0.029-0.834-0.179-1.586-0.614-2.258c-0.297-0.459-0.661-0.795-1.075-1.006c0.002-0.01,0.002-0.01,0.003-0.021
		c-0.025-0.009-0.042-0.029-0.059-0.05c-0.009-0.01-0.007-0.018-0.018-0.029c-0.002-0.072,0.007-0.146,0.011-0.209
		c-0.01-0.103,0.002-0.213,0.022-0.33c0.065-0.322,0.15-0.639,0.258-0.93c0.134-0.365,0.335-0.64,0.6-0.838
		c0.001-0.008,0.002-0.016,0.002-0.025c0.311-0.092,0.609-0.24,0.913-0.451c0.637-0.445,1.096-1.064,1.361-1.857
		c0.265-0.775,0.257-1.511-0.002-2.193c-0.157-0.384-0.368-0.686-0.623-0.912C45.287,166.199,46.804,162.923,48.531,159.783"/>
	<path fill="#E32126" d="M7.867,188.603c-2.722,1.173-4.771,2.714-6.146,4.616c-1.396,1.92-1.943,3.89-1.64,5.91l-0.001,0.009
		c0.261,2.07,1.386,3.853,3.361,5.334l0.01,0.003c2.002,1.513,4.693,2.5,8.084,2.962l0.007,0.003
		c8.006,1.103,18.271-0.849,30.778-5.87c0.158-0.021,0.293-0.178,0.381-0.462c0.017,0.03,0.033,0.058,0.058,0.089
		c0.225-0.666,0.383-1.801,0.481-3.389v-0.01c0.034-0.686,0.049-1.344,0.055-1.996c-0.009-1.635-0.127-3.169-0.353-4.611
		c0,0,0.007,0,0.017-0.008c-0.026-0.104-0.044-0.199-0.047-0.277c0.049-0.033,0.098-0.068,0.146-0.102
		c0.148-0.105,0.288-0.228,0.42-0.373c-0.008-0.009,0.002-0.018,0.011-0.007c0.435-0.539,0.634-1.218,0.598-2.05
		c-0.079-0.823-0.371-1.564-0.88-2.228c-0.299-0.347-0.605-0.612-0.917-0.815c-0.224-0.059-0.385-0.221-0.498-0.497
		c-0.118-0.304-0.208-0.616-0.282-0.925c-0.033-0.139-0.03-0.276,0-0.395c-0.005-0.057-0.01-0.107-0.013-0.177
		c0.049-0.021,0.104-0.036,0.153-0.058l-1.694-0.154c-0.045,0.805,0.096,1.58,0.434,2.315c0.022,0.05,0.045,0.088,0.088,0.136
		l0.399,0.248c0.217,0.141,0.458,0.326,0.711,0.561c0.265,0.235,0.465,0.455,0.584,0.649c0.254,0.334,0.403,0.718,0.429,1.15
		c-0.002,0.009-0.002,0.009-0.002,0.019c-0.009,0-0.001,0.009,0.005,0.027c-0.009,0.018-0.003,0.045,0.011,0.094
		c0.009,0.027,0.003,0.072,0.009,0.12c-0.038,0.517-0.211,0.981-0.514,1.384c-0.195,0.238-0.433,0.43-0.719,0.559
		c0.008,0.02,0.006,0.038,0.005,0.045c0.004,0.049,0.018,0.104,0.023,0.15c0.03,0.252,0.07,0.521,0.119,0.791v0.012h0.01
		c0.218,1.146,0.354,2.288,0.404,3.432c0.037,0.895,0.021,1.783-0.032,2.669c-0.057,0.829-0.091,1.495-0.106,1.982
		c-0.041-0.051-0.083-0.101-0.125-0.15c0.017,0.132,0.024,0.24,0.044,0.335c0.035,0.307,0.078,0.447,0.116,0.434
		c-12.259,4.926-22.321,6.857-30.175,5.805c-0.544-0.079-1.065-0.171-1.58-0.283c-0.139-0.094-0.265-0.208-0.394-0.319
		c-0.915-0.837-1.463-1.96-1.648-3.362c-0.19-1.349,0.021-2.652,0.619-3.892c0.623-1.311,1.58-2.251,2.855-2.843
		c-1.901,0.416-3.298,1.362-4.196,2.85c-0.808,1.312-1.067,2.768-0.762,4.346c0.192,1.019,0.562,1.869,1.134,2.574
		c-1.352-0.464-2.52-1.056-3.509-1.799c-1.59-1.191-2.508-2.604-2.751-4.251c-0.214-1.589,0.23-3.155,1.35-4.679
		c1.258-1.713,3.118-3.102,5.586-4.172c4.258-1.826,9.346-2.455,15.259-1.875l7.683,1.002l0.067-0.039
		c-0.291-0.118-0.524-0.294-0.702-0.541c-0.058-0.07-0.106-0.148-0.154-0.217c-0.072-0.124-0.133-0.268-0.183-0.422l-0.008-0.009
		c-0.051-0.169-0.098-0.349-0.138-0.527c-0.048-0.27-0.061-0.535-0.048-0.792c0.007-0.139,0.026-0.274,0.057-0.41
		c0.017-0.068,0.031-0.143,0.047-0.205c0.147-0.51,0.453-0.865,0.922-1.072c0.184-0.084,0.364-0.159,0.554-0.205l0.865-0.134
		c-0.003-0.065-0.018-0.124-0.039-0.171c-0.262-0.674-0.438-1.35-0.531-2.039l-1.448-0.131c0.009,0.01,0.009,0.01,0.009,0.02
		c0.004,0.036,0.009,0.074,0.017,0.111c0.048,0.289,0.104,0.568,0.17,0.85c0.039,0.16,0.093,0.303,0.153,0.438
		c-0.641-0.022-1.177,0.23-1.619,0.75h-0.011l0.01,0.012c-0.195,0.229-0.349,0.49-0.449,0.784c-0.059,0.15-0.1,0.303-0.126,0.466
		c-0.028,0.438-0.003,0.87,0.096,1.294c0.027,0.111,0.053,0.225,0.089,0.346c-0.242-0.066-0.56-0.123-0.967-0.171
		c-0.409-0.063-0.798-0.118-1.161-0.178c-0.358-0.06-0.641-0.103-0.84-0.13v0.008C18.834,185.871,12.807,186.443,7.867,188.603"/>
	<path fill="#E17C9E" d="M32.914,167.8c-0.308,0.074-0.597,0.201-0.852,0.392c-0.177,0.121-0.354,0.261-0.523,0.403
		c-0.154,0.178-0.284,0.395-0.381,0.662c-0.035,0.17-0.068,0.342-0.093,0.513c0.025,0.59,0.22,1.114,0.593,1.56
		c0.404,0.488,0.912,0.791,1.497,0.908c0.027,0.003,0.053,0.004,0.064,0.006c0.026-0.008,0.045-0.006,0.052,0.006
		c2.584,0.664,5.149,1.32,7.704,1.984c0.012-0.009,0.021-0.018,0.03-0.027c0.019,0.014,0.036,0.021,0.053,0.033
		c0.019-0.006,0.036-0.005,0.055-0.005c0.499-0.136,0.945-0.382,1.314-0.724c0.453-0.445,0.741-0.971,0.85-1.575
		c0.037-0.308,0.019-0.604-0.058-0.876c-0.182-0.541-0.461-0.979-0.854-1.317c0-0.009,0-0.009,0.003-0.019
		c-2.529-0.662-5.076-1.324-7.631-1.996C34.159,167.628,33.55,167.658,32.914,167.8"/>
	<path fill="#E76500" d="M33.271,172.25c-0.007-0.012-0.024-0.014-0.052-0.006c-0.045,0.17-0.086,0.33-0.13,0.503
		c-0.15,0.142-0.267,0.323-0.37,0.534c-0.241,0.539-0.438,1.09-0.592,1.662c-0.128,0.494-0.131,0.945-0.001,1.331
		c-0.035,0.081-0.079,0.149-0.121,0.22c-0.004,0.027-0.006,0.055-0.019,0.1c0.038-0.006,0.056,0.006,0.064,0.016
		c0.016,0.01,0.034,0.01,0.052,0.021c2.608,0.393,5.206,0.793,7.795,1.195c0.007-0.073,0.012-0.146,0.02-0.219
		c0.001-0.009,0.001-0.009,0.011-0.02c-0.025-0.323-0.017-0.641,0.043-0.977c0.093-0.523,0.222-1.027,0.403-1.516
		c0.088-0.248,0.217-0.455,0.369-0.635c0.073-0.086,0.145-0.162,0.233-0.227C38.42,173.57,35.855,172.914,33.271,172.25"/>
	<path fill="#E76500" d="M34.757,167.703c-0.006,0-0.01,0.008-0.02,0.025c2.555,0.672,5.102,1.334,7.631,1.996
		c1.27-3.373,2.737-6.599,4.412-9.668c-2.351-0.719-4.718-1.439-7.101-2.168C37.887,160.855,36.25,164.12,34.757,167.703"/>
	<path fill="#E17C9E" d="M39.895,177.853l0.003-0.027c-2.589-0.402-5.187-0.803-7.795-1.195c-0.018-0.012-0.036-0.013-0.052-0.025
		c-0.009-0.006-0.026-0.018-0.063-0.012c-0.019-0.002-0.037-0.004-0.046-0.004c-0.595-0.037-1.139,0.115-1.639,0.457
		c-0.382,0.258-0.672,0.609-0.864,1.041c-0.053,0.169-0.087,0.341-0.096,0.531c-0.033,0.465,0.096,0.883,0.362,1.256v0.008
		c0.064,0.096,0.131,0.176,0.207,0.25c0.122,0.184,0.261,0.353,0.431,0.506c0.347,0.314,0.695,0.539,1.051,0.658l0.551,0.112
		l1.802,0.271c1.938,0.287,3.874,0.581,5.803,0.886l0.452,0.07l0.775-0.361c0.04-0.026,0.079-0.059,0.111-0.083
		c0.428-0.366,0.698-0.836,0.808-1.423c0-0.109,0.017-0.201,0.043-0.262c0.045-0.52-0.057-0.996-0.309-1.45
		c-0.316-0.589-0.769-0.978-1.354-1.169c-0.064-0.016-0.128-0.023-0.174-0.035H39.895z"/>
	<path fill="#E17C9E" d="M31.734,184.75c-0.189,0.046-0.37,0.121-0.552,0.205c-0.471,0.207-0.776,0.562-0.925,1.072
		c-0.015,0.062-0.029,0.137-0.046,0.205c-0.03,0.136-0.051,0.271-0.056,0.41c-0.015,0.257-0.001,0.522,0.047,0.792
		c0.04,0.179,0.087,0.358,0.138,0.527l0.008,0.009c0.05,0.154,0.109,0.298,0.182,0.422c0.05,0.068,0.097,0.146,0.154,0.217
		c0.179,0.246,0.412,0.423,0.703,0.541l0.998,0.138c0.799,0.097,1.598,0.19,2.396,0.291c2.216,0.264,4.423,0.537,6.609,0.81
		c0.287-0.129,0.523-0.32,0.72-0.56c0.303-0.401,0.476-0.866,0.513-1.383c-0.006-0.048,0-0.093-0.008-0.12
		c-0.014-0.049-0.021-0.076-0.01-0.094c-0.008-0.019-0.017-0.027-0.006-0.027c0-0.01,0-0.01,0.002-0.019
		c-0.025-0.433-0.176-0.816-0.429-1.15c-0.12-0.194-0.32-0.414-0.586-0.649c-0.252-0.234-0.492-0.42-0.709-0.561l-0.401-0.248
		l-1.032-0.129c-1.87-0.235-3.74-0.459-5.619-0.686l-1.227-0.147L31.734,184.75z"/>
	<path fill="#E76500" d="M31.387,189.15l-0.067,0.039l-7.683-1.002c-5.913-0.58-11.002,0.049-15.259,1.875
		c-2.468,1.07-4.328,2.459-5.586,4.172c-1.12,1.523-1.564,3.09-1.35,4.679c0.243,1.647,1.162,3.06,2.752,4.251
		c0.988,0.743,2.155,1.335,3.508,1.799c-0.569-0.705-0.942-1.556-1.134-2.574c-0.305-1.578-0.047-3.033,0.762-4.346
		c0.898-1.487,2.295-2.434,4.196-2.85c-1.275,0.592-2.232,1.532-2.854,2.843c-0.6,1.239-0.811,2.543-0.62,3.892
		c0.186,1.402,0.733,2.525,1.649,3.362c0.127,0.111,0.254,0.226,0.393,0.319c0.515,0.112,1.036,0.204,1.58,0.283
		c7.854,1.053,17.916-0.879,30.175-5.805c-0.035,0.014-0.08-0.127-0.116-0.434c-0.02-0.095-0.027-0.203-0.044-0.335
		c0.041,0.05,0.084,0.1,0.126,0.147c0.015-0.484,0.049-1.15,0.105-1.979c0.054-0.886,0.07-1.774,0.032-2.669
		c-0.052-1.144-0.188-2.285-0.404-3.434h-0.01v-0.01c-0.05-0.271-0.089-0.539-0.119-0.791c-0.006-0.046-0.019-0.102-0.024-0.15
		c0.002-0.007,0.002-0.025-0.005-0.045c-2.187-0.272-4.394-0.546-6.609-0.81c-0.798-0.101-1.597-0.194-2.396-0.291L31.387,189.15z"
		/>
	<path fill="#E76500" d="M32.598,184.616l1.227,0.147c1.878,0.227,3.749,0.45,5.619,0.686l1.032,0.129
		c-0.041-0.047-0.065-0.086-0.086-0.136c-0.405-0.892-0.532-1.819-0.389-2.806l-0.452-0.07c-1.929-0.305-3.865-0.599-5.803-0.886
		l-1.802-0.271c0.024,1.036,0.237,2.048,0.615,3.036C32.583,184.492,32.597,184.55,32.598,184.616"/>
	<polygon fill="#E32126" points="27.38,186.692 27.389,186.695 27.38,186.683 	"/>
	<path fill="#F1B800" d="M75.058,89.88c-0.371-1.677-1.962-2.84-4.789-3.478c-2.738-0.625-6.39-0.707-10.949-0.235
		c-1.301,0.136-2.771,1.021-4.398,2.67c-1.479,1.486-3.335,3.854-5.577,7.113c-2.848,4.143-8.757,13.222-17.722,27.229
		c-3.854,5.824-6.037,11.37-6.537,16.63c-0.463,4.771,0.451,9.135,2.753,13.09c2.105,3.618,5.214,6.677,9.327,9.153
		c3.886,2.35,8.259,3.974,13.132,4.865c4.848,0.877,9.58,0.923,14.192,0.145c4.849-0.803,9.023-2.439,12.51-4.903
		c3.812-2.672,6.5-6.124,8.08-10.354c1.742-4.672,2.034-10.068,0.884-16.19c-2.547-13.528-4.935-24.345-7.178-32.458
		C76.872,96.966,75.633,92.545,75.058,89.88"/>
	<path fill="none" stroke="#F1B800" stroke-width="2.7574" stroke-miterlimit="10" d="M70.269,86.402
		c-2.738-0.625-6.389-0.707-10.949-0.235c-1.301,0.136-2.771,1.021-4.397,2.67c-1.48,1.486-3.336,3.854-5.578,7.113
		c-2.848,4.143-8.756,13.222-17.722,27.229c-3.854,5.824-6.036,11.37-6.536,16.63c-0.464,4.771,0.45,9.135,2.752,13.09
		c2.105,3.618,5.215,6.677,9.327,9.153c3.887,2.35,8.259,3.974,13.132,4.865c4.848,0.877,9.579,0.924,14.191,0.145
		c4.85-0.803,9.024-2.439,12.511-4.903c3.812-2.672,6.5-6.124,8.08-10.354c1.743-4.672,2.035-10.068,0.883-16.19
		c-2.546-13.528-4.935-24.345-7.177-32.457c-1.914-6.191-3.152-10.612-3.728-13.277C74.687,88.203,73.097,87.04,70.269,86.402z"/>
	<path fill="#FCDF00" d="M85.963,135.614c-2.547-13.528-4.935-24.345-7.178-32.458c-0.733-2.383-1.374-4.51-1.91-6.366
		c-9.008-5.674-14.143-11.254-15.415-16.728l-7.04,9.295c-1.386,1.495-3.083,3.692-5.076,6.593
		c-2.848,4.143-8.757,13.222-17.722,27.229c-3.854,5.824-6.037,11.37-6.535,16.63c-0.465,4.771,0.449,9.135,2.751,13.09
		c2.105,3.618,5.214,6.677,9.327,9.153c3.886,2.35,8.26,3.974,13.132,4.865c4.848,0.877,9.578,0.923,14.192,0.145
		c4.849-0.803,9.023-2.439,12.51-4.903c3.812-2.672,6.499-6.124,8.08-10.354C86.822,147.132,87.114,141.736,85.963,135.614"/>
	<path fill="#F1B800" d="M125.665,51.756c-0.675-5.756-2.497-11.252-5.464-16.504c-2.953-5.23-6.813-9.783-11.587-13.68
		c-4.933-4.027-10.48-7.06-16.656-9.094c-6.179-2.032-12.438-2.883-18.777-2.564c-6.156,0.302-11.977,1.669-17.456,4.126
		c-5.503,2.467-10.232,5.806-14.186,10.039c-4.121,4.4-7.121,9.438-8.992,15.128c-4.677,14.211-3.687,26.404,2.969,36.58
		c5.779,8.998,15.433,15.729,28.974,20.183c6.317,2.078,12.476,3.138,18.474,3.189l0.012,0.004
		c6.196,0.04,11.914-0.995,17.152-3.095c11.481-4.578,19.414-13.514,23.785-26.802C125.784,63.575,126.369,57.743,125.665,51.756
		 M118.919,35.979c2.862,5.064,4.627,10.386,5.276,15.95c0.681,5.775,0.125,11.397-1.678,16.877
		c-4.223,12.836-11.862,21.465-22.932,25.907c-5.078,2.025-10.609,3.017-16.612,2.981c-5.856-0.052-11.867-1.092-18.026-3.12
		c-13.167-4.331-22.565-10.86-28.205-19.582c-6.387-9.826-7.319-21.604-2.804-35.327c1.804-5.482,4.692-10.333,8.667-14.579
		c3.828-4.09,8.407-7.325,13.727-9.699c5.314-2.385,10.951-3.726,16.916-4.013c6.164-0.309,12.245,0.523,18.247,2.498
		c6.007,1.976,11.399,4.919,16.195,8.834C112.313,26.477,116.061,30.906,118.919,35.979"/>
	<path fill="#FCDF00" d="M124.197,51.929c-0.65-5.563-2.415-10.885-5.276-15.95c-2.859-5.073-6.607-9.503-11.23-13.273
		c-4.795-3.914-10.188-6.857-16.193-8.833c-6.002-1.975-12.084-2.807-18.248-2.499c-5.965,0.289-11.603,1.63-16.916,4.015
		c-5.319,2.374-9.898,5.608-13.728,9.699c-3.974,4.244-6.861,9.096-8.665,14.578c-4.516,13.723-3.582,25.501,2.805,35.326
		c5.637,8.722,15.036,15.251,28.201,19.583c6.161,2.027,12.172,3.066,18.027,3.12c6.003,0.036,11.534-0.956,16.613-2.981
		c11.069-4.442,18.71-13.071,22.93-25.908C124.321,63.326,124.876,57.705,124.197,51.929"/>
	<path fill="#E17C9E" d="M60.361,38.837c3.035-1.154,6.073-1.642,9.137-1.475c2.972,0.157,5.634,0.898,7.975,2.238
		c-0.933-1.129-1.979-2.11-3.167-2.936c-1.706-1.188-3.561-2-5.574-2.432c-2.008-0.438-4.025-0.475-6.069-0.104
		c-3.245,0.595-6.025,2.063-8.346,4.419c-2.267,2.306-3.698,5.041-4.286,8.208c1.182-1.707,2.641-3.235,4.369-4.589
		C56.18,40.774,58.169,39.661,60.361,38.837"/>
	<path fill="#0077BE" d="M69.498,37.363c-3.063-0.168-6.103,0.319-9.138,1.475c-2.19,0.823-4.18,1.936-5.962,3.329
		c-1.728,1.353-3.188,2.883-4.368,4.589c-0.328,1.911-0.341,3.77-0.019,5.576l0.314,1.396c0.847-2.309,2.237-4.392,4.163-6.259
		c1.991-1.943,4.346-3.435,7.071-4.471c3.656-1.395,7.271-1.76,10.844-1.086c3.496,0.647,6.253,2.162,8.28,4.539
		c-0.51-2.59-1.58-4.875-3.212-6.849C75.131,38.261,72.469,37.519,69.498,37.363"/>
	<path fill="#FFFFFF" d="M80.684,46.45c-2.027-2.377-4.784-3.892-8.279-4.539c-3.573-0.673-7.188-0.309-10.845,1.086
		c-2.726,1.036-5.081,2.528-7.071,4.471c-1.928,1.867-3.316,3.95-4.163,6.259c0.489,1.773,1.247,3.394,2.294,4.887
		c1.052,1.497,2.333,2.767,3.842,3.814c1.705,1.189,3.562,2.002,5.556,2.427c2.009,0.438,4.036,0.468,6.093,0.093
		c4.23-0.771,7.58-2.934,10.05-6.485c2.476-3.56,3.337-7.468,2.583-11.722L80.684,46.45z"/>
	<path fill="#E17C9E" d="M101.714,52.427c-1.757-2.73-3.91-4.928-6.477-6.611c-2.483-1.637-5.065-2.623-7.743-2.935
		c1.42-0.353,2.845-0.52,4.292-0.479c2.074,0.055,4.052,0.503,5.927,1.35c1.879,0.841,3.52,2.009,4.946,3.52
		c2.259,2.405,3.623,5.239,4.092,8.512c0.452,3.201-0.019,6.251-1.425,9.148c0.064-2.073-0.203-4.17-0.79-6.285
		C103.931,56.467,102.991,54.392,101.714,52.427"/>
	<path fill="#0077BE" d="M95.238,45.816c2.567,1.682,4.72,3.878,6.477,6.611c1.276,1.964,2.217,4.04,2.822,6.219
		c0.587,2.115,0.854,4.211,0.79,6.286c-0.87,1.731-1.965,3.237-3.297,4.497l-1.08,0.939c0.69-2.362,0.807-4.862,0.366-7.509
		c-0.45-2.745-1.459-5.347-3.037-7.798c-2.111-3.292-4.806-5.732-8.08-7.312c-3.197-1.553-6.312-1.971-9.357-1.263
		c1.95-1.783,4.169-2.984,6.653-3.605C90.172,43.193,92.754,44.179,95.238,45.816"/>
	<path fill="#FFFFFF" d="M80.841,46.487C83.885,45.779,87,46.196,90.2,47.75c3.273,1.578,5.968,4.021,8.079,7.312
		c1.578,2.451,2.587,5.052,3.037,7.796c0.442,2.647,0.324,5.149-0.366,7.509c-1.444,1.137-3.021,1.991-4.746,2.571
		c-1.735,0.578-3.521,0.842-5.357,0.787c-2.078-0.055-4.055-0.502-5.913-1.345c-1.875-0.84-3.526-2.019-4.954-3.542
		c-2.949-3.132-4.358-6.86-4.239-11.186c0.123-4.333,1.75-7.989,4.883-10.966L80.841,46.487z"/>
	<path fill="#1B1616" d="M67.203,49.154c-1.297,0.655-2.171,1.671-2.623,3.039c-0.454,1.385-0.351,2.714,0.307,4.002
		c0.654,1.296,1.67,2.172,3.037,2.622c1.387,0.455,2.716,0.352,4.005-0.306c1.292-0.646,2.164-1.652,2.619-3.038
		c0.452-1.369,0.35-2.705-0.304-4.003c-0.648-1.293-1.653-2.166-3.038-2.622C69.836,48.398,68.499,48.499,67.203,49.154"/>
	<path fill="#1B1616" d="M90.056,56.687c0.654,1.297,0.754,2.632,0.307,4.001c-0.457,1.385-1.331,2.392-2.624,3.039
		c-1.296,0.654-2.634,0.756-4.002,0.305c-1.385-0.456-2.392-1.328-3.039-2.62c-0.657-1.29-0.761-2.618-0.303-4.005
		c0.447-1.365,1.322-2.381,2.619-3.036c1.288-0.659,2.619-0.762,4.003-0.306C88.383,54.514,89.4,55.389,90.056,56.687"/>
	<path fill="#FCDF00" d="M81.45,83.998c1.252-0.284,2.188-0.516,2.801-0.702c1.075-0.339,1.882-0.829,2.43-1.46
		c1.24-1.455,0.876-2.782-1.091-3.969c-0.415-0.261-2.068-0.961-4.956-2.075c-1.667-0.654-4.438-1.48-8.316-2.486
		c-0.1-0.021-0.187-0.051-0.275-0.07c-0.087-0.038-0.172-0.066-0.266-0.106c-3.718-1.493-6.438-2.475-8.168-2.938
		c-2.986-0.817-4.731-1.238-5.22-1.273c-2.286-0.211-3.368,0.64-3.233,2.548c0.063,0.832,0.424,1.704,1.089,2.618
		c0.381,0.512,0.998,1.255,1.836,2.226c0.872,1.136,2.217,3.211,4.017,6.227c1.754,2.508,3.543,4.024,5.38,4.542
		c1.796,0.678,4.146,0.523,7.044-0.453c3.239-1.359,5.553-2.229,6.93-2.629V83.998z"/>
	<path fill="none" stroke="#F1B800" stroke-width="1.4674" stroke-miterlimit="10" d="M81.45,83.998
		c-1.377,0.398-3.69,1.268-6.93,2.627c-2.898,0.977-5.248,1.131-7.044,0.453c-1.837-0.517-3.626-2.034-5.38-4.542
		c-1.8-3.015-3.145-5.09-4.017-6.227c-0.838-0.971-1.455-1.713-1.836-2.226c-0.665-0.914-1.025-1.786-1.089-2.618
		c-0.135-1.909,0.947-2.76,3.233-2.548c0.488,0.036,2.233,0.456,5.22,1.273c1.73,0.463,4.45,1.445,8.168,2.938
		c0.094,0.041,0.182,0.068,0.266,0.106c0.089,0.02,0.176,0.049,0.275,0.07c3.878,1.007,6.649,1.832,8.316,2.486
		c2.888,1.113,4.541,1.814,4.956,2.075c1.967,1.187,2.331,2.514,1.091,3.969c-0.548,0.631-1.354,1.121-2.43,1.46
		C83.637,83.482,82.702,83.714,81.45,83.998z"/>
	<path fill="#FCDF00" d="M86.116,84.971c1.752-0.244,2.939-1.506,3.561-3.775c0.604-2.272,0.223-4.085-1.147-5.435
		c-0.695-0.682-2.156-1.993-4.378-3.952c-2.015-1.889-3.368-3.473-4.033-4.763c-1.049-2.036-2.581-3.458-4.61-4.25
		c-0.058-0.021-0.113-0.037-0.165-0.054c-0.024-0.01-0.043-0.015-0.062-0.021L75.28,62.73c-2.099-0.575-4.173-0.349-6.227,0.674
		c-1.305,0.645-3.334,1.115-6.075,1.439c-2.952,0.256-4.906,0.443-5.869,0.58c-1.905,0.271-3.287,1.507-4.15,3.695
		c-0.849,2.191-0.642,3.913,0.623,5.148c0.666,0.643,1.788,1.255,3.372,1.844c0.938,0.345,2.57,0.932,4.884,1.758
		c0.772,0.449,1.888,1.339,3.353,2.67c1.087,0.983,2.33,1.693,3.741,2.137c1.271,0.447,2.652,0.593,4.118,0.447
		c1.971-0.201,3.396-0.253,4.281-0.154c2.355,0.708,4.019,1.206,4.979,1.483C83.933,84.918,85.196,85.093,86.116,84.971"/>
	<path fill="none" stroke="#F1B800" stroke-width="1.4674" stroke-miterlimit="10" d="M89.676,81.196
		c0.604-2.272,0.223-4.085-1.147-5.435c-0.694-0.682-2.156-1.993-4.379-3.952c-2.014-1.889-3.368-3.473-4.032-4.763
		c-1.049-2.036-2.581-3.458-4.609-4.25c-0.06-0.021-0.114-0.038-0.165-0.054c-0.026-0.01-0.044-0.015-0.062-0.021L75.28,62.73
		c-2.099-0.575-4.173-0.349-6.228,0.674c-1.304,0.645-3.333,1.115-6.075,1.439c-2.952,0.256-4.906,0.442-5.868,0.58
		c-1.905,0.271-3.287,1.507-4.15,3.695c-0.847,2.192-0.642,3.913,0.622,5.149c0.667,0.644,1.789,1.254,3.373,1.844
		c0.938,0.345,2.57,0.932,4.885,1.758c0.771,0.449,1.887,1.339,3.352,2.67c1.087,0.983,2.33,1.693,3.741,2.137
		c1.271,0.447,2.652,0.593,4.119,0.447c1.97-0.201,3.395-0.253,4.28-0.154c2.355,0.708,4.018,1.205,4.979,1.483
		c1.625,0.466,2.887,0.641,3.807,0.519C87.868,84.728,89.055,83.465,89.676,81.196z"/>
	<path fill="#F1B800" d="M100.846,8.953c1.143,0.165,2.241,0.701,3.289,1.596c-1.837-0.258-3.982,0.978-6.433,3.706
		c-0.506,0.568-1.061,1.022-1.655,1.359c0.112,0.035,0.226,0.073,0.338,0.12c0.754,0.288,1.38,0.59,1.887,0.901
		c0.283-0.247,0.562-0.51,0.83-0.798c0.06-0.058,0.116-0.117,0.166-0.178c2.605-2.755,5.119-4.081,7.544-3.969
		c-1.996-2.888-3.986-4.44-5.979-4.662c-1.994-0.251-3.952,0.457-5.888,2.108l-0.01,0.026c-0.3,0.297-0.577,0.583-0.836,0.836
		c0.021-0.388,0.008-0.78-0.022-1.186c-0.225-3.781,0.531-6.517,2.273-8.204c-3.448-0.525-5.94-0.139-7.475,1.144
		c-1.438,1.198-2.26,2.935-2.468,5.213c-0.528-0.396-1.116-0.744-1.772-1.037C81.216,4.312,79.193,2.333,78.56,0
		c-2.116,2.761-2.988,5.119-2.603,7.089c0.084,0.444,0.218,0.865,0.384,1.267c0.473,1.092,1.257,2.075,2.364,2.941
		c0.82,0.145,2.326,0.504,4.498,1.083l0.011-0.017l2.113,0.696c-0.328-0.349-0.742-0.706-1.241-1.065
		c-0.512-0.351-1.634-0.961-3.367-1.831c-1.691-0.875-2.667-2.105-2.93-3.686c-0.197-1.128-0.025-2.327,0.508-3.6
		c0.322,1.815,2.141,3.475,5.475,4.968c1.735,0.775,2.86,2.013,3.395,3.715c0.263,0.869,0.31,1.637,0.14,2.305
		c0.089,0.078,0.163,0.15,0.214,0.226c0.493-0.62,0.814-1.566,0.972-2.839c0.059-0.617,0.057-1.894-0.02-3.839
		c-0.051-1.9,0.551-3.353,1.815-4.346c0.899-0.709,2.025-1.14,3.399-1.296c-1.434,1.161-2.008,3.558-1.715,7.209
		c0.159,1.898-0.383,3.485-1.617,4.769c-0.19,0.198-0.396,0.381-0.593,0.539c0.183,0.07,0.336,0.13,0.478,0.195
		c0.932,0.191,2.066-0.207,3.4-1.208c0.504-0.386,1.439-1.265,2.791-2.645C97.787,9.27,99.255,8.711,100.846,8.953"/>
	<path fill="#FCDF00" d="M104.135,10.548c-1.048-0.895-2.146-1.432-3.289-1.596c-1.591-0.242-3.06,0.318-4.415,1.678
		c-1.352,1.379-2.286,2.26-2.791,2.644c-1.334,1.001-2.469,1.4-3.399,1.209c-0.019-0.005-0.037-0.011-0.054-0.017
		c-0.151-0.041-0.29-0.087-0.434-0.144c-0.008-0.012-0.008-0.012-0.017-0.014c0.011-0.005,0.017-0.014,0.025-0.021
		c0.197-0.158,0.402-0.342,0.593-0.539c1.234-1.285,1.776-2.872,1.618-4.77c-0.294-3.651,0.281-6.048,1.714-7.209
		c-1.374,0.157-2.5,0.587-3.399,1.297c-1.265,0.993-1.866,2.445-1.815,4.345c0.075,1.947,0.078,3.224,0.021,3.841
		c-0.158,1.272-0.479,2.217-0.973,2.838c-0.146,0.183-0.313,0.34-0.491,0.466c0.018-0.023,0.026-0.05,0.043-0.073l0.222-0.555
		c0-0.028,0.006-0.045,0.013-0.064c0.17-0.667,0.122-1.434-0.139-2.304c-0.534-1.702-1.661-2.94-3.396-3.715
		c-3.333-1.492-5.152-3.153-5.474-4.967c-0.533,1.272-0.705,2.471-0.508,3.599c0.263,1.582,1.238,2.811,2.929,3.687
		c1.734,0.87,2.855,1.48,3.368,1.831c0.499,0.36,0.913,0.717,1.241,1.066c0.472,0.512,0.769,1.015,0.892,1.52
		c0.057,0.24,0.072,0.487,0.047,0.74c-0.007,0.046-0.011,0.093-0.018,0.138L86.228,15.5c0.052-0.042,0.103-0.082,0.158-0.131
		c0.141-0.136,0.273-0.277,0.39-0.422l1.02,0.123c0.05-0.002,0.1-0.006,0.151-0.008c0.598-0.063,1.177-0.298,1.743-0.721
		c0.561,1.315,1.702,1.98,3.423,2.005c0.212,0.002,0.426-0.003,0.634-0.022c0.159-0.016,0.323-0.038,0.486-0.063
		c0.027,0,0.061-0.008,0.09-0.008l0.598-0.15c0.074-0.025,0.142-0.05,0.22-0.074c0.009-0.006,0.02-0.001,0.03-0.009
		c0.232-0.088,0.445-0.181,0.667-0.292c0.022-0.012,0.047-0.023,0.071-0.043c0.012-0.006,0.021-0.004,0.033-0.009
		c0.012-0.006,0.016-0.014,0.026-0.02c0.012-0.007,0.021-0.012,0.034-0.018c0.01-0.006,0.034-0.017,0.045-0.023
		c0.594-0.335,1.149-0.791,1.655-1.358C100.154,11.526,102.298,10.291,104.135,10.548L104.135,10.548z"/>
	<path fill="#FCDF00" d="M57.727,90.642c-0.084,0.028-0.166,0.055-0.248,0.083c-0.305-0.543-0.673-1.058-1.104-1.527
		c-0.019-0.009-0.038-0.009-0.056-0.018c-0.074-0.084-0.149-0.176-0.224-0.257v-0.406c0-0.137-0.006-0.275-0.025-0.415
		c-0.027-0.272-0.063-0.551-0.109-0.826c-0.231-0.268-0.488-0.498-0.771-0.69c-0.555-0.358-1.169-0.487-1.842-0.405
		c-0.322,0.091-0.605,0.23-0.873,0.405c-0.285,0.192-0.544,0.422-0.772,0.69c-0.103,0.616-0.01,1.196,0.275,1.719
		c0.157,0.285,0.305,0.58,0.46,0.865c-0.248,0.689-0.378,1.425-0.378,2.226c0,1.169,0.157,2.263,0.471,3.292
		c0.138,0.137,0.286,0.249,0.449,0.33c0.12,0.056,0.248,0.112,0.368,0.167v0.183c0.175,0.174,0.322,0.368,0.431,0.561
		c-0.055,0.038-0.108,0.083-0.152,0.13c-0.287,0.348-0.436,0.763-0.436,1.231s0.148,0.884,0.436,1.241
		c0.136,0.138,0.292,0.239,0.448,0.322c0.295,0.146,0.599,0.268,0.919,0.358c0.241-0.083,0.47-0.175,0.689-0.275
		c0.544,0.045,1.096,0.092,1.646,0.137c0.141-0.092,0.277-0.175,0.424-0.248c0.193-0.092,0.38-0.185,0.573-0.267
		c0.007,0.082,0.026,0.156,0.036,0.23c0.046,0.284,0.109,0.56,0.2,0.837c0.139,0.137,0.296,0.257,0.453,0.357
		c0.34,0.221,0.706,0.378,1.095,0.469c0.521,0.138,1.065,0.219,1.607,0.267c0.094-0.048,0.184-0.091,0.268-0.157
		c0.102-0.083,0.183-0.165,0.267-0.266c0.101-0.129,0.202-0.258,0.295-0.397c0.275-0.09,0.551-0.192,0.818-0.292
		c0.091-0.038,0.185-0.074,0.275-0.12c0.083-0.139,0.165-0.268,0.248-0.395c0.147,0.018,0.294,0.056,0.441,0.118
		c0.184,0.138,0.378,0.268,0.57,0.378c0.744,0.44,1.389,0.994,1.922,1.666c0.12,0.146,0.249,0.294,0.387,0.431
		c0.874,0.073,1.748,0.083,2.611,0.037c0.009,0.305,0.028,0.606,0.072,0.912c0.047,0.283,0.113,0.561,0.204,0.835
		c0.137,0.139,0.284,0.249,0.44,0.35c0.718,0.452,1.392,0.426,2.025-0.073c0.138-0.138,0.293-0.238,0.449-0.286
		c0.589-0.184,1.188-0.376,1.793-0.588v0.044c0.019,0.278,0.046,0.553,0.093,0.83c0.092,0.139,0.192,0.266,0.293,0.385
		c0.12,0.156,0.259,0.294,0.397,0.433c0.137,0.139,0.265,0.274,0.405,0.416c0.319,0.089,0.652,0.144,0.974,0.173
		c0.221,0.02,0.44,0.009,0.671-0.037c0.672-0.497,1.225-1.104,1.656-1.82c-0.11-0.294-0.166-0.607-0.157-0.93v-0.038
		c-0.708-1.699-0.78-3.466-0.212-5.296c0.047-0.138,0.092-0.267,0.147-0.387c0.119-0.303,0.268-0.571,0.441-0.799
		c-0.084-0.102-0.174-0.195-0.276-0.267c-0.064-0.048-0.128-0.093-0.192-0.138c0.01-0.203,0-0.405-0.028-0.618
		c-0.229-0.274-0.488-0.504-0.772-0.689c-0.56-0.358-1.167-0.497-1.838-0.413c-0.213,0.083-0.486,0.248-0.818,0.479
		c-0.286,0.201-0.59,0.386-0.902,0.55c-0.119-0.02-0.229-0.037-0.34-0.064c-0.579-0.479-1.187-0.901-1.821-1.271
		c-2.512-1.442-5.105-2.215-7.78-2.298c-0.138,0.093-0.276,0.192-0.396,0.294c-0.146,0.12-0.295,0.25-0.451,0.368
		c-0.084,0.066-0.164,0.111-0.257,0.156c-0.617-0.359-1.26-0.688-1.914-0.974c-1.25-0.553-2.576-0.91-3.983-1.086
		C57.743,90.615,57.737,90.642,57.727,90.642"/>
	<path fill="#FCDF00" d="M70.372,104.843c0.084,0.137,0.191,0.257,0.313,0.358c1.123,0.948,2.243,1.038,3.364,0.276
		c-0.035-0.092-0.074-0.184-0.107-0.276c-1.133,0.157-2.311,0-3.544-0.488C70.39,104.758,70.38,104.794,70.372,104.843"/>
	<path fill="#FCDF00" d="M42.483,68.39c3.528-0.913,6.907-0.624,10.148,0.878c11.316,5.245,13.787,12.93,7.407,23.059l-0.102,0.65
		c-0.211,0.132-0.419,0.274-0.608,0.421c-2.715,2.176-5.556,3.489-8.521,3.928c-0.296,0.045-0.603,0.083-0.902,0.108
		c-2.748,0.242-5.595-0.235-8.546-1.452c2.951,1.217,5.798,1.694,8.546,1.452c0.3-0.025,0.606-0.063,0.902-0.108
		c-0.008,0.379-0.181,0.744-0.522,1.099c-0.167,0.173-0.311,0.378-0.411,0.614c-0.005,0.157,0.002,0.322-0.004,0.479
		c0.006,0.082-0.003,0.156,0,0.238c-0.685,0.886-1.201,1.837-1.572,2.839c-0.114,0.285-0.3,0.523-0.555,0.71
		c-0.021,0.16-0.056,0.312-0.094,0.475c-0.014,0.083-0.04,0.161-0.065,0.237c-0.95,1.063-1.729,2.239-2.343,3.527
		c-0.161,0.326-0.404,0.54-0.736,0.652l-0.038,0.228c-0.645-0.116-1.321-0.231-2.051-0.359c-0.689-0.127-1.432-0.354-2.216-0.684
		c-3.688-1.834-6.975-4.229-9.877-7.2c-3.01-3.064-4.192-6.746-3.565-11.041c0.091-0.675,0.2-1.354,0.312-2.022
		c0.561-2.658,1.65-5.597,3.249-8.808C32.809,73.144,36.866,69.836,42.483,68.39"/>
	
		<path fill="none" stroke="#F1B800" stroke-width="1.4534" stroke-linecap="round" stroke-linejoin="round" stroke-miterlimit="10" d="
		M49.591,109.201c-1.272-0.148-2.983-0.404-5.126-0.777c-0.644-0.116-1.32-0.231-2.05-0.359c-0.688-0.127-1.432-0.354-2.217-0.684
		c-3.686-1.834-6.972-4.229-9.875-7.2c-3.012-3.064-4.193-6.745-3.566-11.041c0.091-0.675,0.2-1.354,0.312-2.022
		c0.561-2.658,1.649-5.598,3.25-8.808c2.489-5.166,6.547-8.474,12.164-9.919c3.528-0.913,6.908-0.625,10.148,0.878
		c11.316,5.244,13.786,12.929,7.407,23.058l-0.102,0.65c-0.211,0.132-0.42,0.274-0.608,0.421c-2.714,2.176-5.556,3.487-8.521,3.928
		c-0.296,0.045-0.604,0.083-0.902,0.108c-2.748,0.243-5.595-0.235-8.546-1.452"/>
	<path fill="#FCDF00" d="M67.114,88.114c-4.973,0.209-8.471-0.862-10.514-3.217c-2.049-2.347-2.116-5.446-0.208-9.298l0.023-0.533
		c1.008-0.853,1.948-1.608,2.825-2.266c1.714-1.546,3.662-2.628,5.857-3.257c0.089-0.036,0.183-0.057,0.276-0.081
		c0.066-0.014,0.135-0.03,0.203-0.045l-0.293-0.293l3.085-3l1.258-0.902l0.822,0.811c0.438,0.581,0.72,1.262,0.842,2.043
		c0.059,0.334,0.116,0.709,0.17,1.131c0.112,0.776-0.338,2.635-1.329,5.578l-0.043,0.221c-0.245-0.056-0.492-0.104-0.762-0.151
		c-1.102-0.199-2.022-0.272-2.755-0.207l0.07,0.237l-0.07-0.237c0.732-0.066,1.653,0.008,2.755,0.207
		c0.27,0.048,0.517,0.095,0.762,0.151c0.875,0.203,1.616,0.467,2.23,0.787c1.553,0.805,3.185,2.26,4.882,4.344
		c1.792,2.195,2.46,3.734,2,4.618c-0.087,0.167-0.095,0.356-0.029,0.561c0.068,0.199,0.062,0.387-0.027,0.562
		c-0.078,0.151-0.319,0.34-0.724,0.575l-0.919,0.25c-0.128-0.065-0.307-0.19-0.523-0.375c-0.333-0.272-0.766-0.669-1.312-1.194
		c-0.908-0.878-1.813-1.55-2.714-2.018c-0.215-0.112-0.495-0.196-0.855-0.261c-0.22-0.023-0.408-0.053-0.548-0.074l-0.305-0.057
		l0.305,0.057c0.14,0.021,0.328,0.051,0.548,0.074c0.36,0.065,0.641,0.149,0.855,0.261c0.9,0.467,1.806,1.14,2.714,2.018
		c0.546,0.525,0.979,0.921,1.312,1.194l-0.059,0.034l0.225,0.247c0.048,0.045,0.069,0.106,0.06,0.182
		c-0.004,0.069-0.035,0.165-0.088,0.268c-0.602,1.154-1.325,1.517-2.169,1.077l-1.378-0.208c-0.244-0.036-1.635-0.162-4.176-0.37
		C68.583,87.774,67.828,87.967,67.114,88.114L67.114,88.114z"/>
	
		<path fill="none" stroke="#F1B800" stroke-width="1.4357" stroke-linecap="round" stroke-linejoin="round" stroke-miterlimit="10" d="
		M56.392,75.599c-1.908,3.852-1.841,6.952,0.208,9.298c2.043,2.354,5.541,3.426,10.514,3.217c0.714-0.147,1.47-0.34,2.28-0.556
		c2.541,0.208,3.932,0.334,4.176,0.37l1.378,0.208c0.844,0.44,1.568,0.077,2.169-1.077c0.053-0.103,0.082-0.199,0.086-0.267
		c0.013-0.077-0.009-0.137-0.058-0.182l-0.223-0.247 M71.246,82.725l0.304,0.058c0.142,0.022,0.329,0.049,0.549,0.073
		c0.36,0.065,0.642,0.149,0.856,0.262c0.899,0.467,1.803,1.139,2.713,2.017c0.547,0.525,0.978,0.921,1.31,1.194
		c0.219,0.184,0.397,0.309,0.525,0.375c0.167,0.089,0.474,0.004,0.919-0.25c0.405-0.234,0.644-0.423,0.724-0.575
		c0.089-0.174,0.097-0.363,0.028-0.562c-0.066-0.205-0.059-0.394,0.028-0.561c0.46-0.884-0.208-2.423-2.001-4.618
		c-1.696-2.085-3.328-3.541-4.881-4.345c-0.613-0.32-1.355-0.584-2.232-0.787c-0.243-0.056-0.493-0.103-0.76-0.151
		c-1.102-0.199-2.022-0.273-2.755-0.206l0.068,0.236 M70.133,74.786c0.991-2.942,1.44-4.803,1.328-5.578
		c-0.054-0.422-0.112-0.797-0.17-1.131c-0.122-0.78-0.404-1.463-0.842-2.043l-0.822-0.811l-1.258,0.902l-3.084,2.999l0.293,0.294
		c-0.068,0.015-0.138,0.03-0.205,0.045c-0.093,0.022-0.187,0.045-0.275,0.08c-2.197,0.629-4.144,1.71-5.856,3.257
		c-0.878,0.657-1.817,1.413-2.825,2.265"/>
	<path fill="#FCDF00" d="M102.355,82.64c-2.602-2.554-5.675-3.993-9.233-4.313C80.7,77.209,74.719,82.63,75.179,94.593l-0.235,0.615
		c0.114,0.22,0.225,0.446,0.315,0.668c1.26,3.24,3.067,5.799,5.415,7.665c0.233,0.186,0.481,0.371,0.728,0.542
		c2.259,1.584,4.965,2.593,8.129,3.017c-3.164-0.424-5.87-1.433-8.129-3.017c-0.246-0.171-0.494-0.357-0.728-0.542
		c-0.184,0.329-0.215,0.733-0.098,1.212c0.061,0.233,0.081,0.482,0.052,0.738c-0.075,0.137-0.164,0.274-0.239,0.412
		c-0.043,0.072-0.075,0.143-0.118,0.209c0.151,1.109,0.123,2.191-0.057,3.246c-0.044,0.303-0.004,0.602,0.124,0.891
		c-0.058,0.149-0.108,0.295-0.152,0.457c-0.032,0.08-0.05,0.162-0.065,0.242c0.292,1.396,0.379,2.799,0.267,4.223
		c-0.024,0.365,0.081,0.668,0.311,0.936l-0.081,0.215c0.617,0.223,1.264,0.461,1.956,0.714c0.663,0.235,1.417,0.41,2.264,0.515
		c4.109,0.259,8.154-0.174,12.152-1.296c4.14-1.149,7.004-3.743,8.607-7.778c0.261-0.631,0.504-1.273,0.743-1.906
		c0.842-2.585,1.37-5.676,1.588-9.256C108.355,91.594,106.495,86.703,102.355,82.64"/>
	
		<path fill="none" stroke="#F1B800" stroke-width="1.4544" stroke-linecap="round" stroke-linejoin="round" stroke-miterlimit="10" d="
		M75.792,114.431c1.174,0.508,2.784,1.143,4.827,1.891c0.614,0.223,1.262,0.461,1.953,0.714c0.663,0.235,1.418,0.41,2.265,0.515
		c4.109,0.259,8.153-0.174,12.151-1.296c4.14-1.149,7.004-3.745,8.608-7.778c0.26-0.631,0.504-1.273,0.743-1.906
		c0.841-2.585,1.37-5.676,1.589-9.256c0.427-5.72-1.434-10.611-5.573-14.674c-2.602-2.555-5.673-3.994-9.233-4.312
		C80.7,77.208,74.719,82.63,75.178,94.593l-0.234,0.615c0.114,0.22,0.225,0.446,0.315,0.668c1.259,3.239,3.067,5.799,5.415,7.665
		c0.232,0.186,0.481,0.371,0.727,0.542c2.26,1.584,4.966,2.593,8.13,3.017"/>
	<path fill="#FCDF00" d="M71.687,93.946c4.202,2.667,7.766,3.491,10.715,2.473c2.945-1.009,4.554-3.659,4.827-7.95l0.246-0.475
		c-0.448-1.241-0.882-2.364-1.313-3.372c-0.712-2.196-1.854-4.107-3.443-5.751c-0.059-0.074-0.128-0.139-0.198-0.206
		c-0.052-0.047-0.104-0.094-0.155-0.142l0.4-0.108l-1.173-4.14l-0.635-1.411l-1.119,0.292c-0.67,0.284-1.255,0.733-1.748,1.348
		c-0.218,0.261-0.458,0.555-0.716,0.896c-0.486,0.616-1.024,2.452-1.637,5.495l-0.071,0.214c0.238,0.072,0.477,0.155,0.733,0.246
		c1.051,0.38,1.888,0.777,2.488,1.199l-0.178,0.173l0.178-0.173c-0.601-0.421-1.438-0.818-2.488-1.199
		c-0.257-0.091-0.495-0.174-0.733-0.246c-0.859-0.264-1.637-0.407-2.326-0.438c-1.75-0.077-3.889,0.367-6.4,1.323
		c-2.651,1.004-3.998,2.003-4.04,2.997c-0.01,0.189-0.1,0.357-0.258,0.503c-0.159,0.135-0.246,0.303-0.256,0.5
		c-0.007,0.17,0.106,0.454,0.339,0.859l0.67,0.677c0.145,0.006,0.36-0.011,0.643-0.061c0.425-0.071,0.997-0.198,1.731-0.381
		c1.227-0.305,2.346-0.434,3.358-0.388c0.242,0.011,0.529,0.077,0.873,0.199c0.201,0.091,0.378,0.162,0.51,0.212l0.292,0.104
		l-0.292-0.104c-0.132-0.051-0.309-0.121-0.51-0.212c-0.344-0.122-0.631-0.188-0.873-0.199c-1.013-0.045-2.132,0.083-3.358,0.388
		c-0.734,0.183-1.307,0.31-1.731,0.381l0.031,0.055l-0.318,0.103c-0.064,0.015-0.111,0.058-0.14,0.128
		c-0.03,0.061-0.053,0.158-0.059,0.276c-0.057,1.3,0.389,1.975,1.339,2.019l1.297,0.506c0.229,0.092,1.496,0.678,3.803,1.77
		c0.594,0.592,1.152,1.138,1.698,1.62H71.687z"/>
	
		<path fill="none" stroke="#F1B800" stroke-width="1.4357" stroke-linecap="round" stroke-linejoin="round" stroke-miterlimit="10" d="
		M87.229,88.469c-0.273,4.292-1.882,6.941-4.827,7.95c-2.948,1.018-6.513,0.194-10.715-2.473c-0.544-0.482-1.104-1.028-1.696-1.62
		c-2.307-1.092-3.573-1.678-3.803-1.77l-1.297-0.506c-0.95-0.044-1.396-0.719-1.339-2.019c0.006-0.118,0.028-0.215,0.059-0.276
		c0.028-0.07,0.075-0.114,0.139-0.128l0.319-0.103 M70.802,87.216l-0.292-0.104c-0.132-0.051-0.309-0.121-0.51-0.212
		c-0.345-0.122-0.631-0.188-0.873-0.199c-1.013-0.045-2.132,0.083-3.358,0.388c-0.734,0.183-1.307,0.31-1.731,0.381
		c-0.282,0.05-0.498,0.067-0.643,0.062c-0.188-0.008-0.41-0.234-0.67-0.677c-0.233-0.405-0.346-0.689-0.339-0.859
		c0.01-0.197,0.098-0.365,0.256-0.5c0.158-0.146,0.248-0.313,0.258-0.503c0.042-0.994,1.389-1.993,4.04-2.997
		c2.512-0.958,4.65-1.4,6.4-1.323c0.689,0.031,1.464,0.174,2.326,0.438c0.238,0.072,0.477,0.155,0.733,0.246
		c1.051,0.38,1.888,0.777,2.49,1.198l-0.18,0.174 M75.738,80.896c0.612-3.044,1.15-4.879,1.637-5.496
		c0.258-0.34,0.498-0.635,0.716-0.895c0.493-0.615,1.078-1.064,1.748-1.349l1.119-0.293l0.635,1.413l1.173,4.14l-0.4,0.107
		c0.052,0.048,0.104,0.094,0.155,0.141c0.07,0.067,0.14,0.132,0.198,0.207c1.589,1.644,2.731,3.555,3.443,5.75
		c0.432,1.008,0.865,2.131,1.313,3.372"/>
</g>
</svg>
