<?xml version="1.0" encoding="utf-8"?>
<!-- Generator: Adobe Illustrator 16.0.0, SVG Export Plug-In . SVG Version: 6.00 Build 0)  -->
<!DOCTYPE svg PUBLIC "-//W3C//DTD SVG 1.1//EN" "http://www.w3.org/Graphics/SVG/1.1/DTD/svg11.dtd">
<svg version="1.1" id="レイヤー_1" xmlns="http://www.w3.org/2000/svg" xmlns:xlink="http://www.w3.org/1999/xlink" x="0px"
	 y="0px" width="123.44px" height="142.65px" viewBox="0 0 123.44 142.65" enable-background="new 0 0 123.44 142.65"
	 xml:space="preserve">
<g>
	<path fill="#980C27" d="M61.497,73.782c-5.957,0.519-9.769,2.053-11.482,4.67c-1.692,2.459-2.933,5.549-3.723,9.34
		c-0.789,3.608-1.399,6.856-1.85,9.767c-1.354,6.362,0.496,11.505,5.572,15.362h0.022c4.465,3.428,9.925,4.917,16.332,4.467
		c6.677-0.451,11.549-2.91,14.572-7.309c3.563-5.077,3.541-11.73-0.158-19.987c-0.97-2.211-2.211-4.557-3.678-7.038
		c-2.028-3.451-3.607-5.91-4.736-7.398C71.174,73.872,67.564,73.264,61.497,73.782 M61.678,75.723
		c5.052-0.429,8.099-0.067,9.135,1.105c1.105,1.467,2.616,3.856,4.624,7.218c1.422,2.393,2.616,4.67,3.587,6.857
		c3.316,7.445,3.43,13.469,0.293,18.07c-2.729,3.902-7.082,6.067-13.084,6.451c-5.887,0.428-10.894-0.925-15.023-4.038
		c-4.42-3.407-6.045-7.85-4.871-13.422c0-0.046,0-0.046,0.021-0.067c0.43-2.887,1.039-6.092,1.827-9.701
		c0.722-3.496,1.896-6.384,3.429-8.639C53.149,77.437,56.512,76.174,61.678,75.723"/>
	<path fill="#D56F45" d="M70.812,76.828c-1.037-1.173-4.083-1.534-9.135-1.105c-5.166,0.451-8.527,1.714-10.062,3.835
		c-1.533,2.254-2.708,5.143-3.43,8.641c-0.788,3.608-1.397,6.812-1.827,9.698c-0.021,0.022-0.021,0.022-0.021,0.068
		c-1.174,5.572,0.451,10.017,4.871,13.422c4.129,3.112,9.137,4.466,15.023,4.038c6.001-0.384,10.355-2.55,13.085-6.451
		c3.136-4.602,3.022-10.625-0.294-18.07c-0.971-2.188-2.165-4.466-3.587-6.857C73.429,80.685,71.918,78.294,70.812,76.828"/>
	<path fill="#980C27" d="M67.52,104.754l-0.112-0.833l8.774-2.46l4.128,20.122l3.564,0.789c6.475,1.488,11.323,3.836,14.572,7.106
		c3.812,3.767,4.715,7.015,2.684,9.745h0.022c-1.714,2.639-5.436,3.767-11.144,3.338c-2.481-0.181-5.301-0.924-8.458-2.255
		c-2.144-0.88-4.467-2.076-6.971-3.521c-0.024-0.044-0.091-0.135-0.157-0.156c-0.092-0.09-0.205-0.205-0.317-0.316
		c-0.044-0.045-0.113-0.09-0.181-0.113c-0.022-0.067-0.089-0.135-0.089-0.203c-0.225-0.293-0.407-0.678-0.588-1.105
		c-0.359-0.924-0.677-1.85-0.991-2.818c-0.068-0.205-0.112-0.385-0.158-0.564c-0.564-1.782-1.016-3.587-1.354-5.459
		c-0.633-3.588-1.263-7.219-1.827-10.806C68.399,111.749,67.926,108.274,67.52,104.754 M79.588,123.567
		c-0.271-0.022-0.519-0.044-0.745-0.067l-4.105-19.626l-5.211,1.488c0.407,3.205,0.835,6.408,1.309,9.565
		c0.565,3.61,1.173,7.196,1.805,10.783c0.563,2.978,1.397,5.843,2.549,8.64l0.045,0.182c0.023,0.021,0.023,0.021,0.023,0.045
		c2.232,1.556,4.557,2.863,6.991,3.945c1.062,0.43,2.1,0.813,3.092,1.129c1.738,0.542,3.314,0.857,4.806,0.971
		c4.781,0.383,7.917-0.475,9.406-2.505c1.24-2.007,0.428-4.421-2.46-7.263c-3.249-3.182-8.12-5.437-14.662-6.836l-1.602-0.201
		C80.423,123.726,79.993,123.636,79.588,123.567"/>
	<path fill="#D72C1B" d="M78.843,123.5c0.227,0.023,0.474,0.045,0.745,0.067c0.405,0.068,0.835,0.158,1.24,0.25l1.602,0.201
		c6.542,1.399,11.413,3.654,14.662,6.836c2.888,2.842,3.7,5.256,2.46,7.263c-1.489,2.03-4.625,2.888-9.406,2.505
		c-1.49-0.113-3.067-0.429-4.806-0.971c-0.993-0.315-2.03-0.699-3.09-1.129c-2.437-1.082-4.759-2.39-6.993-3.945
		c0-0.024,0-0.024-0.022-0.046l-0.046-0.181c-1.15-2.797-1.985-5.662-2.55-8.64c-0.631-3.587-1.238-7.174-1.803-10.783
		c-0.475-3.157-0.902-6.36-1.308-9.565l5.209-1.488L78.843,123.5z"/>
	<path fill="#980C27" d="M64.181,105.589c-0.158,0.136-0.294,0.316-0.338,0.542l-5.505,20.437c-0.023,0-0.023,0.045-0.023,0.045
		l-0.97,3.565c-0.248,0.542-0.586,1.105-0.991,1.669c-1.872,2.662-4.512,4.85-7.872,6.541c-3.34,1.648-6.453,2.324-9.317,2.009
		h-0.022c-2.571-0.294-4.22-1.354-4.896-3.203c-0.632-1.985-0.089-4.219,1.646-6.7h-0.023c1.874-2.707,4.514-4.85,7.852-6.541
		c3.021-1.49,5.843-2.167,8.505-2.076l0.79,0.023l5.21-19.152c0.066-0.293,0.046-0.542-0.091-0.767
		c-0.046-0.067-0.089-0.136-0.157-0.204c-0.113-0.135-0.271-0.225-0.453-0.247c-0.27-0.091-0.518-0.046-0.743,0.091
		c-0.247,0.134-0.384,0.336-0.474,0.585l-4.827,17.686c-2.685,0.022-5.55,0.79-8.618,2.278c-3.698,1.85-6.564,4.219-8.616,7.174
		c-2.167,3.135-2.82,5.955-1.873,8.504c0.857,2.616,3.046,4.129,6.565,4.512c3.203,0.383,6.677-0.361,10.4-2.188
		c3.722-1.828,6.608-4.242,8.639-7.196c0.45-0.654,0.858-1.286,1.172-1.896c0.023-0.044,0.023-0.09,0.046-0.135
		c0.677-1.376,1.037-2.684,1.083-3.926l5.459-20.369c0.068-0.271,0.044-0.519-0.091-0.744c-0.046-0.113-0.134-0.203-0.226-0.271
		c-0.112-0.089-0.225-0.18-0.383-0.203c-0.272-0.066-0.497-0.045-0.744,0.114C64.248,105.565,64.227,105.565,64.181,105.589"/>
	<path fill="#D72C1B" d="M63.843,106.13c0.044-0.225,0.18-0.404,0.338-0.541c0.046-0.021,0.066-0.021,0.113-0.045
		c0.247-0.156,0.472-0.18,0.744-0.111c0.158,0.021,0.271,0.111,0.383,0.202c-0.023-0.407-0.112-0.79-0.271-1.174
		c-0.52-1.284-1.512-2.144-2.888-2.526c-1.129-0.338-2.323-0.45-3.564-0.383c-0.089,0.045-0.202,0.068-0.316,0.09
		c-0.135,0.045-0.27,0.09-0.404,0.135c0.068,0.068,0.111,0.137,0.157,0.203c0.137,0.225,0.157,0.475,0.091,0.768l-5.21,19.152
		l-0.79-0.023c-2.662-0.091-5.482,0.586-8.505,2.076c-3.338,1.691-5.978,3.834-7.851,6.541h0.022
		c-1.735,2.481-2.278,4.715-1.646,6.701c0.676,1.848,2.324,2.908,4.896,3.202h0.021c2.865,0.315,5.979-0.36,9.318-2.009
		c3.36-1.691,6-3.879,7.872-6.541c0.405-0.564,0.743-1.127,0.991-1.669l0.97-3.564c0,0,0-0.046,0.023-0.046L63.843,106.13z"/>
	<path fill="#D72C1B" d="M91.317,27.11c-0.519-0.383-1.037-0.744-1.578-1.105c-1.105-0.721-2.233-1.398-3.384-2.03
		c-0.947-0.496-1.873-0.924-2.845-1.331c-1.283-0.519-2.569-1.038-3.878-1.534c-1.286-0.496-2.64-0.902-3.994-1.241
		c-0.065,0-0.112-0.045-0.18-0.045c1.332-2.504,1.805-5.121,1.422-7.828c-0.521-3.586-2.301-6.429-5.324-8.549
		c-3.022-2.144-6.451-2.932-10.241-2.391c-3.768,0.541-6.813,2.255-9.114,5.166c-0.856,1.061-1.509,2.165-1.962,3.317
		c-0.135-0.159-0.271-0.317-0.382-0.452c-0.634-0.632-1.331-1.217-2.123-1.714c-0.991-0.631-2.007-1.15-3.044-1.557
		c-1.241-0.474-2.502-0.767-3.857-0.834c-1.15-0.068-2.301-0.045-3.383,0.158c-1.129,0.158-2.211,0.452-3.248,0.902
		c-1.219,0.452-2.348,1.105-3.362,1.917c-0.902,0.699-1.671,1.488-2.37,2.368c-0.812,1.038-1.487,2.166-1.938,3.429
		c-0.45,1.173-0.722,2.437-0.768,3.722c-0.067,1.128,0.023,2.233,0.25,3.361c0.269,1.286,0.698,2.459,1.329,3.609
		c0.226,0.496,0.723,1.127,1.444,1.94c-0.857,0.519-1.714,1.038-2.549,1.58c-0.835,0.519-1.67,1.082-2.48,1.667
		c-1.196,0.858-2.371,1.76-3.52,2.753c-0.902,0.79-1.76,1.58-2.573,2.392c-0.924,0.947-1.781,1.917-2.617,2.932
		c-0.767,0.924-1.511,1.917-2.186,2.932c-0.634,0.948-1.242,1.963-1.762,2.977c-0.518,1.015-0.945,2.031-1.308,3.091
		c-0.428,1.263-0.744,2.572-0.948,3.903c-0.226,1.308-0.336,2.639-0.336,3.992c0,1.376,0.11,2.729,0.359,4.083
		c0.248,1.354,0.586,2.662,1.037,3.948c0.451,1.241,1.017,2.481,1.692,3.632c0.677,1.196,1.466,2.279,2.347,3.316
		c0.88,1.106,1.894,2.121,2.955,3.09c0.901,0.812,1.805,1.58,2.818,2.278c1.039,0.723,2.1,1.444,3.227,2.053
		c1.176,0.677,2.392,1.308,3.655,1.896c1.263,0.586,2.549,1.105,3.835,1.602c1.283,0.496,2.64,0.925,3.99,1.308
		c1.355,0.384,2.731,0.677,4.107,0.948c1.443,0.271,2.865,0.496,4.263,0.654c1.467,0.158,2.933,0.271,4.399,0.338
		c1.128,0.045,2.256,0.092,3.383,0.022c1.129-0.022,2.302-0.067,3.453-0.112c1.171-0.09,2.346-0.181,3.54-0.316
		c1.196-0.135,2.392-0.314,3.588-0.519c1.173-0.181,2.346-0.384,3.519-0.632c1.151-0.226,2.278-0.496,3.407-0.789
		c1.081-0.271,2.188-0.564,3.271-0.947c1.396-0.451,2.817-0.947,4.172-1.467c1.354-0.541,2.662-1.128,3.971-1.76
		c1.265-0.653,2.505-1.331,3.722-2.029c1.195-0.723,2.369-1.467,3.519-2.279c1.129-0.811,2.234-1.669,3.295-2.572
		c1.06-0.902,2.075-1.826,3.044-2.819c0.901-0.903,1.808-1.872,2.641-2.864c0.292-0.362,0.563-0.722,0.856-1.083
		c0.475-0.608,0.926-1.241,1.331-1.895c0.812-1.196,1.534-2.481,2.142-3.789c0.588-1.241,1.086-2.527,1.445-3.835
		c0.362-1.309,0.609-2.64,0.743-4.015c0.138-1.353,0.158-2.707,0.046-4.061c-0.091-1.397-0.313-2.752-0.632-4.105
		c-0.316-1.309-0.743-2.595-1.261-3.881c-0.521-1.218-1.151-2.413-1.898-3.518c-0.767-1.173-1.621-2.279-2.548-3.294
		c-0.99-1.105-2.052-2.076-3.202-2.978C92.265,27.833,91.814,27.471,91.317,27.11"/>
	<path fill="none" stroke="#D56F45" stroke-width="0.2258" d="M91.317,27.11c-0.519-0.383-1.037-0.744-1.578-1.105
		c-1.105-0.721-2.233-1.398-3.384-2.03c-0.947-0.496-1.873-0.924-2.845-1.331c-1.283-0.519-2.569-1.038-3.878-1.534
		c-1.286-0.496-2.64-0.902-3.994-1.241c-0.065,0-0.112-0.045-0.18-0.045c1.332-2.504,1.805-5.121,1.422-7.828
		c-0.521-3.586-2.301-6.429-5.324-8.549c-3.022-2.144-6.451-2.932-10.241-2.391c-3.768,0.541-6.813,2.255-9.114,5.166
		c-0.856,1.061-1.509,2.165-1.962,3.317c-0.135-0.159-0.271-0.317-0.382-0.452c-0.634-0.632-1.331-1.217-2.123-1.714
		c-0.991-0.631-2.007-1.15-3.044-1.557c-1.241-0.474-2.502-0.767-3.857-0.834c-1.15-0.068-2.301-0.045-3.383,0.158
		c-1.129,0.158-2.211,0.452-3.248,0.902c-1.219,0.452-2.348,1.105-3.362,1.917c-0.902,0.699-1.671,1.488-2.37,2.368
		c-0.812,1.038-1.487,2.166-1.938,3.429c-0.45,1.173-0.722,2.437-0.768,3.722c-0.067,1.128,0.023,2.233,0.25,3.361
		c0.269,1.286,0.698,2.459,1.329,3.609c0.226,0.496,0.723,1.127,1.444,1.94c-0.857,0.519-1.714,1.038-2.549,1.58
		c-0.835,0.519-1.67,1.082-2.48,1.667c-1.196,0.858-2.371,1.76-3.52,2.753c-0.902,0.79-1.76,1.58-2.573,2.392
		c-0.924,0.947-1.781,1.917-2.617,2.932c-0.767,0.924-1.511,1.917-2.186,2.932c-0.634,0.948-1.242,1.963-1.762,2.977
		c-0.518,1.015-0.945,2.031-1.308,3.091c-0.428,1.263-0.744,2.572-0.948,3.903c-0.226,1.308-0.336,2.639-0.336,3.992
		c0,1.376,0.11,2.729,0.359,4.083c0.248,1.354,0.586,2.662,1.037,3.948c0.451,1.241,1.017,2.481,1.692,3.632
		c0.677,1.196,1.466,2.279,2.347,3.316c0.88,1.106,1.894,2.121,2.955,3.09c0.901,0.812,1.805,1.58,2.818,2.278
		c1.039,0.723,2.1,1.444,3.227,2.053c1.176,0.677,2.392,1.308,3.655,1.896c1.263,0.586,2.549,1.105,3.835,1.602
		c1.283,0.496,2.64,0.925,3.99,1.308c1.355,0.384,2.731,0.677,4.107,0.948c1.443,0.271,2.865,0.496,4.263,0.654
		c1.467,0.158,2.933,0.271,4.399,0.338c1.128,0.045,2.256,0.092,3.383,0.022c1.129-0.022,2.302-0.067,3.453-0.112
		c1.171-0.09,2.346-0.181,3.54-0.316c1.196-0.135,2.392-0.314,3.588-0.519c1.173-0.181,2.346-0.384,3.519-0.632
		c1.151-0.226,2.278-0.496,3.407-0.789c1.081-0.271,2.188-0.564,3.271-0.947c1.396-0.451,2.817-0.947,4.172-1.467
		c1.354-0.541,2.662-1.128,3.971-1.76c1.265-0.653,2.505-1.331,3.722-2.029c1.195-0.723,2.369-1.467,3.519-2.279
		c1.129-0.811,2.234-1.669,3.295-2.572c1.06-0.902,2.075-1.826,3.044-2.819c0.901-0.903,1.808-1.872,2.641-2.864
		c0.292-0.362,0.563-0.722,0.856-1.083c0.475-0.608,0.926-1.241,1.331-1.895c0.812-1.196,1.534-2.481,2.142-3.789
		c0.588-1.241,1.086-2.527,1.445-3.835c0.362-1.309,0.609-2.64,0.743-4.015c0.138-1.353,0.158-2.707,0.046-4.061
		c-0.091-1.397-0.313-2.752-0.632-4.105c-0.316-1.309-0.743-2.595-1.261-3.881c-0.521-1.218-1.151-2.413-1.898-3.518
		c-0.767-1.173-1.621-2.279-2.548-3.294c-0.99-1.105-2.052-2.076-3.202-2.978C92.265,27.833,91.814,27.471,91.317,27.11z"/>
	<path fill="none" stroke="#980C27" stroke-width="1.7821" stroke-linecap="round" stroke-linejoin="round" d="M75.459,19.824
		c0.067,0,0.113,0.045,0.181,0.045c1.354,0.338,2.707,0.745,3.993,1.241c1.309,0.496,2.594,1.014,3.881,1.533
		c0.969,0.407,1.895,0.835,2.842,1.331c1.15,0.632,2.278,1.309,3.384,2.03c0.541,0.362,1.06,0.723,1.577,1.105
		c0.498,0.361,0.948,0.722,1.423,1.105c1.149,0.902,2.212,1.872,3.202,2.979c0.927,1.014,1.781,2.119,2.549,3.292
		c0.745,1.105,1.376,2.301,1.897,3.518c0.518,1.286,0.945,2.572,1.261,3.881c0.317,1.353,0.543,2.707,0.632,4.104
		c0.112,1.354,0.092,2.708-0.046,4.061c-0.134,1.376-0.383,2.708-0.743,4.016c-0.359,1.308-0.857,2.593-1.443,3.834
		c-0.609,1.308-1.331,2.594-2.143,3.79c-0.406,0.653-0.856,1.286-1.331,1.895c-0.294,0.361-0.564,0.721-0.857,1.083
		c-0.835,0.992-1.738,1.961-2.641,2.864c-0.97,0.993-1.984,1.917-3.044,2.82c-1.061,0.902-2.167,1.761-3.295,2.571
		c-1.149,0.812-2.323,1.557-3.518,2.278c-1.219,0.699-2.458,1.376-3.723,2.03c-1.31,0.632-2.617,1.219-3.971,1.76
		c-1.354,0.52-2.775,1.016-4.172,1.467c-1.083,0.383-2.189,0.676-3.271,0.947c-1.128,0.293-2.256,0.563-3.405,0.79
		c-1.174,0.247-2.347,0.45-3.52,0.632c-1.194,0.202-2.392,0.383-3.588,0.518c-1.194,0.137-2.368,0.226-3.54,0.316
		c-1.151,0.045-2.324,0.09-3.452,0.112c-1.128,0.069-2.255,0.023-3.384-0.022c-1.467-0.068-2.933-0.181-4.399-0.338
		c-1.399-0.158-2.82-0.384-4.263-0.654c-1.376-0.271-2.752-0.563-4.107-0.949c-1.351-0.381-2.705-0.811-3.99-1.307
		c-1.286-0.496-2.572-1.016-3.835-1.602c-1.264-0.588-2.481-1.219-3.655-1.895c-1.127-0.609-2.188-1.331-3.227-2.053
		c-1.014-0.699-1.917-1.467-2.818-2.278c-1.062-0.971-2.076-1.985-2.955-3.091c-0.879-1.038-1.67-2.121-2.348-3.315
		c-0.675-1.151-1.24-2.391-1.69-3.632c-0.452-1.286-0.79-2.594-1.038-3.948c-0.249-1.353-0.359-2.707-0.359-4.083
		c0-1.354,0.11-2.684,0.336-3.993c0.204-1.331,0.52-2.64,0.949-3.902c0.361-1.061,0.789-2.076,1.307-3.092
		c0.52-1.014,1.128-2.029,1.762-2.977c0.675-1.014,1.419-2.008,2.187-2.933c0.835-1.015,1.693-1.985,2.617-2.932
		c0.812-0.812,1.669-1.601,2.572-2.392c1.148-0.992,2.323-1.894,3.52-2.751c0.811-0.587,1.646-1.151,2.479-1.669
		c0.834-0.542,1.693-1.061,2.55-1.58"/>
	<path fill="none" stroke="#980C27" stroke-width="1.7821" stroke-linecap="round" stroke-linejoin="round" d="M28.787,26.388
		c-0.722-0.812-1.219-1.444-1.444-1.94c-0.631-1.15-1.061-2.324-1.329-3.609c-0.227-1.128-0.316-2.232-0.25-3.36
		c0.046-1.286,0.317-2.55,0.768-3.723c0.451-1.263,1.127-2.391,1.938-3.429c0.699-0.88,1.468-1.669,2.37-2.368
		c1.015-0.812,2.144-1.466,3.362-1.917c1.037-0.451,2.119-0.744,3.248-0.902c1.082-0.202,2.232-0.225,3.383-0.158
		c1.355,0.067,2.616,0.36,3.857,0.834c1.037,0.406,2.053,0.926,3.044,1.557c0.792,0.497,1.489,1.083,2.123,1.714
		c0.111,0.135,0.247,0.293,0.382,0.452c0.453-1.151,1.105-2.256,1.963-3.317c2.3-2.91,5.346-4.625,9.113-5.166
		c3.79-0.542,7.219,0.247,10.241,2.391c3.023,2.12,4.804,4.963,5.324,8.548c0.383,2.708-0.09,5.324-1.422,7.829"/>
	<path fill="#FFFFFF" d="M76.023,12.177c-0.474-3.384-2.144-6.091-5.007-8.099c-2.843-2.052-6.068-2.797-9.633-2.301
		c-3.564,0.519-6.43,2.143-8.595,4.917c-1.105,1.376-1.873,2.842-2.277,4.421c-0.183-0.27-0.362-0.519-0.564-0.789
		c-0.204-0.226-0.43-0.474-0.633-0.698c-0.608-0.611-1.285-1.174-2.029-1.648c-0.902-0.586-1.874-1.06-2.865-1.466
		c-1.173-0.451-2.392-0.722-3.655-0.812c-1.082-0.046-2.142,0-3.203,0.18c-1.084,0.158-2.098,0.43-3.09,0.835
		c-1.15,0.45-2.211,1.06-3.181,1.826c-0.836,0.655-1.578,1.421-2.256,2.257c-0.744,0.969-1.377,2.053-1.827,3.226
		c-0.43,1.128-0.677,2.301-0.721,3.542c-0.047,1.038,0.044,2.12,0.246,3.18c0.248,1.196,0.655,2.324,1.241,3.429
		c0.271,0.496,0.587,0.992,0.925,1.421c0.36,0.452,0.768,0.88,1.196,1.286c0.879,0.79,1.872,1.443,2.955,1.963
		c1.061,0.541,2.188,0.901,3.338,1.149c1.22,0.249,2.458,0.316,3.678,0.271c1.308-0.068,2.548-0.249,3.745-0.654
		c1.15-0.407,2.232-0.97,3.225-1.692c0.835-0.609,1.602-1.353,2.278-2.164c0.676-0.835,1.241-1.715,1.715-2.685
		c0.227-0.542,0.451-1.106,0.654-1.671c0.091-0.27,0.158-0.585,0.248-0.878c0.812,1.308,1.917,2.503,3.339,3.473
		c2.842,2.031,6.067,2.797,9.633,2.279c3.563-0.518,6.452-2.143,8.595-4.896C75.685,18.628,76.52,15.561,76.023,12.177"/>
	<path fill="#332C2A" d="M35.013,16.057c0.902-1.557,2.233-2.571,3.949-3.023c1.759-0.473,3.382-0.248,4.961,0.632
		c1.558,0.902,2.572,2.21,3.023,3.948c0.473,1.737,0.248,3.361-0.654,4.917c-0.902,1.557-2.189,2.572-3.948,3.023
		c-1.714,0.474-3.361,0.249-4.918-0.631c-1.556-0.903-2.549-2.211-3.021-3.948C33.929,19.237,34.134,17.636,35.013,16.057"/>
	<path fill="#332C2A" d="M65.084,11.455c-1.287-1.241-2.843-1.826-4.625-1.805c-1.807,0.068-3.316,0.723-4.557,2.03
		c-1.241,1.286-1.851,2.821-1.805,4.624c0.067,1.782,0.722,3.271,2.009,4.535c1.329,1.241,2.841,1.827,4.644,1.805
		c1.783-0.045,3.272-0.722,4.536-2.029c1.239-1.287,1.827-2.843,1.804-4.625C67.046,14.208,66.392,12.696,65.084,11.455"/>
	<path fill="#332C2A" d="M69.616,47.57c-4.466,0.971-8.977,1.828-13.534,2.504c-4.579,0.676-9.227,1.15-13.963,1.444
		c-4.715,0.293-9.767,0.067-15.114-0.722l-6.386-1.287c4.468,12.453,13.13,19.265,26.079,20.438
		c3.767,0.361,7.737,0.18,11.865-0.519c0.046-0.022,0.068-0.022,0.089-0.022c4.174-0.497,8.011-1.422,11.549-2.843
		c12.095-4.782,18.5-13.76,19.244-26.956l-5.752,3.045C78.775,44.908,74.105,46.532,69.616,47.57"/>
	<path fill="#332C2A" d="M55.563,49.059v0.044c0.09-0.044,0.136-0.067,0.158-0.067L55.563,49.059z"/>
	<path fill="#E68B00" d="M65.016,30.742c-0.588-3.361-2.188-6-4.896-8.008c-2.685-1.962-5.639-2.685-8.911-2.166
		c-3.247,0.564-5.819,2.188-7.76,4.941c-1.895,2.752-2.571,5.775-2.029,9.113c0.563,3.339,2.165,6,4.872,7.963
		c2.686,2.008,5.64,2.729,8.887,2.165c3.272-0.519,5.844-2.143,7.762-4.895C64.857,37.104,65.557,34.081,65.016,30.742"/>
	<path fill="#980C27" d="M71.805,85.22c0.046-0.023,0.068-0.023,0.113-0.023c8.392-0.9,16.468-2.119,24.203-3.678l0.723-0.156
		c0.046,0.541,0.158,1.082,0.271,1.602l-0.609,0.113c-7.804,1.578-15.947,2.819-24.43,3.721c-0.225,0.023-0.429-0.021-0.607-0.158
		c-0.158-0.156-0.271-0.337-0.294-0.541c0-0.225,0.046-0.406,0.182-0.607c0.045-0.068,0.134-0.113,0.201-0.158
		C71.624,85.287,71.715,85.241,71.805,85.22"/>
	<path fill="#980C27" d="M68.918,80.46c-0.045,0-0.091,0.022-0.112,0c-0.183,0-0.339-0.067-0.496-0.158
		c-0.182-0.135-0.294-0.338-0.294-0.541c-0.022-0.248,0.022-0.43,0.181-0.609c0.113-0.158,0.292-0.271,0.518-0.271
		c9.881-1.173,19.377-2.572,28.515-4.264c-0.158,0.564-0.271,1.128-0.36,1.714c-8.888,1.625-18.139,3-27.725,4.105
		C69.054,80.46,68.985,80.46,68.918,80.46"/>
	<path fill="#980C27" d="M100.002,81.633c0.272,0.835,0.723,1.534,1.354,2.142c1.826,1.896,4.104,2.889,6.812,2.979h0.067V86.73
		h0.046c0.068,0,0.112,0.022,0.18,0.022c0.046,0,0.046,0,0.091-0.022v0.022h0.046c0.021,0.068,0.066,0.158,0.135,0.225
		c0.066,0.137,0.137,0.25,0.18,0.385c0.091,0.158,0.181,0.293,0.272,0.405c0.789,1.22,1.601,2.233,2.502,3.001h0.023
		c0.947,0.812,2.166,1.174,3.701,1.127c0.27-0.045,0.426-0.111,0.517-0.314c0.159-0.113,0.251-0.339,0.251-0.631
		c0-1.129-0.251-2.211-0.702-3.295c-0.134-0.27-0.271-0.541-0.384-0.767c-0.226-0.45-0.451-0.88-0.72-1.308
		c0.225,0.157,0.472,0.293,0.697,0.428c0.204,0.135,0.431,0.248,0.634,0.406c0.088,0.023,0.133,0.068,0.224,0.09
		c1.445,1.037,2.798,1.331,4.084,0.925c1.06-0.384,1.578-0.991,1.557-1.76c0-0.112,0-0.202,0.021-0.293
		c-0.18-0.519-0.497-0.97-0.971-1.421c-0.247-0.293-0.518-0.541-0.855-0.768c-1.038-0.698-2.143-1.331-3.271-1.872
		c-0.7-0.339-1.399-0.632-2.119-0.924c0.158,0,0.337,0.022,0.472,0.044c1.195,0.137,2.391,0.137,3.61,0.068
		c0.314-0.022,0.632-0.068,0.925-0.135c0.948-0.092,1.67-0.295,2.143-0.609c0.067-0.068,0.135-0.158,0.181-0.248
		c0.157-0.361,0.181-0.745,0.046-1.083c-0.092-0.294-0.271-0.563-0.52-0.789v-0.022c-0.248-0.249-0.542-0.451-0.857-0.609v-0.023
		c-0.992-0.496-2.029-0.925-3.068-1.24h-0.021c-0.812-0.249-1.648-0.474-2.505-0.609c0,0-0.271-0.09-0.789-0.203
		c-0.52-0.135-1.22-0.248-2.122-0.361c-0.878-0.089-1.825-0.203-2.841-0.271c0-0.044,0-0.044,0.046-0.066
		c0.066-0.022,0.134-0.045,0.203-0.045c0.361-0.112,0.721-0.226,1.083-0.338c0.519-0.113,1.127-0.315,1.78-0.654
		c0.725-0.361,1.197-0.632,1.399-0.836c0.181-0.203,0.294-0.518,0.359-0.924c-0.021-1.781-0.923-2.684-2.75-2.729h-0.023
		c-1.938,0.068-3.563,0.519-4.828,1.377c-1.216,0.676-2.21,1.713-2.977,3.089c-0.113,0.182-0.204,0.34-0.315,0.52
		c-0.067,0.09-0.136,0.182-0.247,0.248c-0.498,0.428-0.947,0.88-1.399,1.331c-0.067,0.091-0.158,0.112-0.225,0.157
		c-0.632,0.203-1.241,0.384-1.874,0.451c-0.788,0.158-1.579,0.294-2.39,0.451c0.091-0.586,0.202-1.149,0.359-1.714
		c0.721-0.135,1.444-0.249,2.165-0.384l0.948-0.202l0.519-0.563c0.114-0.068,0.202-0.182,0.314-0.295
		c0.341-0.27,0.635-0.608,0.903-0.969c0.136-0.203,0.295-0.384,0.406-0.587c0.835-1.061,1.737-1.94,2.707-2.617
		c1.286-0.924,3.293-1.557,5.978-1.895v-0.023c2.933,0.068,4.376,1.534,4.333,4.399v0.067c-0.07,0.745-0.339,1.399-0.836,1.94
		c1.061,0.135,2.097,0.385,3.135,0.722c1.128,0.339,2.234,0.79,3.317,1.331v0.022c0.473,0.203,0.902,0.54,1.263,0.948
		c0.406,0.383,0.698,0.834,0.88,1.354v0.022c0.27,0.766,0.225,1.487-0.045,2.233c-0.181,0.404-0.406,0.721-0.744,0.947
		c-0.451,0.337-1.105,0.631-1.941,0.788c1.399,0.858,2.279,1.873,2.618,3.091v0.023c0.067,0.157,0.09,0.316,0.112,0.473
		c0,0.113,0,0.248-0.045,0.361c0.045,1.444-0.835,2.482-2.662,3.158c-1.127,0.383-2.256,0.383-3.43-0.021
		c0.316,0.946,0.476,1.713,0.476,2.3c0,1.444-0.699,2.188-2.098,2.256c-2.009,0.09-3.635-0.406-4.851-1.512
		c-1.106-0.947-2.099-2.165-3.001-3.654c-2.864-0.181-5.323-1.286-7.309-3.293c-0.563-0.563-1.038-1.195-1.443-1.872
		c-0.09-0.182-0.181-0.339-0.249-0.52l-1.533,0.316c-0.112-0.52-0.227-1.061-0.271-1.602l2.934-0.564
		C99.844,81.069,99.935,81.34,100.002,81.633 M108.507,86.821L108.507,86.821h-0.046H108.507z"/>
	<path fill="#D72C1B" d="M118.455,80.505c0.314-0.022,0.632-0.068,0.925-0.136c0.948-0.09,1.67-0.293,2.143-0.608
		c0.067-0.068,0.135-0.158,0.181-0.248c0.157-0.361,0.181-0.744,0.046-1.083c-0.092-0.294-0.271-0.564-0.52-0.789v-0.022
		c-0.248-0.249-0.541-0.451-0.857-0.609v-0.023c-0.992-0.496-2.029-0.924-3.068-1.24h-0.021c-0.812-0.248-1.648-0.475-2.505-0.609
		c0,0-0.271-0.09-0.789-0.203c-0.52-0.135-1.22-0.248-2.121-0.361c-0.879-0.09-1.826-0.203-2.84-0.271c0-0.044,0-0.044,0.044-0.067
		c0.067-0.022,0.134-0.045,0.203-0.045c0.36-0.113,0.721-0.227,1.083-0.338c0.519-0.113,1.127-0.316,1.78-0.654
		c0.725-0.361,1.196-0.632,1.399-0.836c0.181-0.201,0.294-0.518,0.361-0.924c-0.022-1.782-0.925-2.684-2.751-2.729h-0.024
		c-1.938,0.067-3.563,0.519-4.827,1.375c-1.217,0.678-2.211,1.715-2.978,3.09c-0.113,0.181-0.204,0.34-0.315,0.52
		c-0.067,0.09-0.136,0.18-0.247,0.248c-0.497,0.428-0.948,0.881-1.399,1.33c-0.067,0.092-0.158,0.113-0.227,0.158
		c-0.63,0.204-1.24,0.384-1.871,0.451c-0.79,0.159-1.58,0.294-2.393,0.451c-8.886,1.625-18.137,3.001-27.723,4.105
		c-0.09,0.023-0.158,0.023-0.226,0.023c-0.045,0-0.09,0.022-0.113,0c0.046,0.181,0.068,0.383,0.159,0.564
		c0.336,0.925,0.787,1.805,1.33,2.594c0.429,0.563,0.835,1.172,1.263,1.715c0.067-0.046,0.158-0.092,0.248-0.113
		c0.046-0.023,0.068-0.023,0.113-0.023c8.392-0.901,16.468-2.119,24.203-3.676l0.723-0.158l2.934-0.564
		c0.066,0.271,0.157,0.542,0.227,0.835c0.271,0.835,0.721,1.534,1.353,2.143c1.826,1.896,4.104,2.888,6.812,2.978h0.067V86.73h0.046
		c0.068,0,0.112,0.022,0.18,0.022c0.045,0,0.045,0,0.091-0.022v0.022h0.046c0.021,0.068,0.066,0.158,0.135,0.226
		c0.066,0.136,0.137,0.249,0.18,0.384c0.09,0.158,0.181,0.293,0.272,0.405c0.789,1.22,1.601,2.233,2.502,3.001h0.021
		c0.949,0.812,2.168,1.173,3.703,1.127c0.27-0.044,0.426-0.111,0.518-0.314c0.158-0.113,0.248-0.339,0.248-0.632
		c0-1.128-0.248-2.21-0.7-3.294c-0.135-0.27-0.268-0.541-0.384-0.766c-0.226-0.452-0.451-0.881-0.72-1.31
		c0.225,0.159,0.472,0.294,0.697,0.429c0.204,0.136,0.431,0.248,0.632,0.406c0.092,0.022,0.135,0.067,0.227,0.09
		c1.443,1.037,2.797,1.331,4.083,0.925c1.06-0.383,1.578-0.992,1.557-1.759c0-0.113,0-0.203,0.021-0.293
		c-0.18-0.52-0.497-0.971-0.971-1.422c-0.247-0.293-0.518-0.541-0.855-0.767c-1.038-0.7-2.143-1.331-3.272-1.873
		c-0.697-0.339-1.398-0.632-2.118-0.924c0.156,0,0.337,0.022,0.472,0.044C116.042,80.573,117.235,80.573,118.455,80.505"/>
	<path fill="#D72C1B" d="M53.735,86.55c0.023-0.045,0.046-0.09,0.069-0.111c0.607-0.926,1.016-1.963,1.217-3.091
		c0.157-0.858,0.136-1.692-0.046-2.482c-0.043,0.022-0.089,0.046-0.135,0.046c-0.09,0-0.203,0.021-0.292,0.045
		c-9.226,1.015-18.183,1.691-26.891,2.121l-5.188,0.157c-0.18-0.136-0.338-0.293-0.54-0.429c-0.182-0.158-0.363-0.316-0.587-0.428
		c-0.451-0.295-0.924-0.475-1.444-0.564l-1.466-1.287c-0.743-0.586-1.512-1.014-2.277-1.262c-1.219-0.385-2.256-0.609-3.09-0.632
		c-0.767-0.022-1.197-0.045-1.287-0.045c-0.226,0.067-0.451,0.112-0.723,0.181h-0.021c-1.691,0.45-2.369,1.511-1.985,3.158
		c0.022,0.021,0.022,0.044,0.045,0.066c0.023,0.068,0.046,0.137,0.089,0.182c0.271,0.495,0.678,0.767,1.265,0.879
		c0.699,0.136,1.397,0.113,2.099-0.045c0.609-0.136,1.173-0.248,1.759-0.315l-0.271,0.136c-0.722,0.383-1.399,0.834-2.008,1.353
		c-0.248,0.203-0.518,0.405-0.768,0.608c-0.225,0.137-0.427,0.271-0.652,0.406c-0.092,0.046-0.183,0.091-0.272,0.113
		c-1.331,0.654-2.705,0.971-4.194,0.947c-1.332-0.022-2.393,0.068-3.159,0.293c-0.563,0.158-0.947,0.452-1.174,0.902H1.785
		c-0.158,0.475-0.158,0.992,0,1.58c0.226,0.653,0.632,1.24,1.195,1.759c0.36,0.293,0.744,0.475,1.196,0.496v-0.021h0.021
		c0.227-0.452,0.563-0.79,0.994-1.062c0.337-0.247,0.722-0.428,1.128-0.541c0.18-0.068,0.383-0.113,0.586-0.136
		c0.475-0.044,0.901-0.044,1.332-0.067v0.023c-0.609,0.158-1.175,0.45-1.647,0.879c-0.61,0.542-0.904,1.174-0.948,1.918
		c0,0.293,0.022,0.587,0.091,0.881c0.113,0.45,0.428,0.81,0.879,1.037c0.587,0.338,1.174,0.428,1.85,0.359l0.091-0.203
		c0.066-0.135,0.135-0.27,0.225-0.404c0.113-0.361,0.362-0.7,0.677-0.994c0.451-0.405,0.97-0.699,1.513-0.902
		c0.631-0.202,1.285-0.293,1.962-0.225c0.519,0.022,1.039,0.136,1.489,0.315l0.563,0.226c-0.383-0.022-0.789,0-1.24,0.023
		c-0.564,0.066-1.106,0.18-1.602,0.338c-0.655,0.203-1.218,0.542-1.625,1.061c-0.473,0.518-0.631,1.15-0.542,1.828
		c0.25,0.855,0.927,1.396,2.076,1.578c1.602,0.202,3.293-0.092,5.076-0.858c1.76-0.743,3.044-1.962,3.836-3.653
		c0.066-0.09,0.112-0.182,0.202-0.271c0.09-0.067,0.18-0.111,0.316-0.158c0.087-0.021,0.201-0.068,0.292-0.112
		c1.399-0.542,2.413-1.466,3.022-2.864c0.181-0.406,0.384-0.812,0.563-1.219l4.376-0.091c7.533-0.224,15.272-0.812,23.235-1.781
		c0.158,0,0.272,0,0.406,0.045c0.045,0.022,0.136,0.067,0.203,0.136C53.624,86.415,53.691,86.46,53.735,86.55"/>
	<path fill="#980C27" d="M53.872,86.889c-0.023-0.112-0.068-0.249-0.137-0.339c-0.044-0.09-0.113-0.135-0.157-0.18
		c-0.067-0.067-0.158-0.113-0.203-0.136c-0.134-0.045-0.248-0.045-0.406-0.045c-7.963,0.97-15.702,1.558-23.235,1.782l-4.376,0.09
		c-0.18,0.406-0.383,0.812-0.564,1.219c-0.608,1.398-1.622,2.322-3.022,2.864c-0.09,0.046-0.204,0.091-0.291,0.112
		c-0.138,0.047-0.227,0.091-0.316,0.159c-0.09,0.089-0.136,0.181-0.202,0.271c-0.792,1.691-2.076,2.91-3.836,3.654
		c-1.783,0.766-3.475,1.06-5.076,0.857c-1.15-0.182-1.826-0.722-2.076-1.579c-0.09-0.677,0.069-1.31,0.542-1.827
		c0.407-0.519,0.97-0.857,1.622-1.061c0.498-0.158,1.04-0.271,1.604-0.338c0.451-0.023,0.857-0.046,1.24-0.023l-0.563-0.226
		c-0.45-0.18-0.971-0.293-1.489-0.315c-0.677-0.068-1.332,0.022-1.962,0.225c-0.543,0.203-1.061,0.497-1.513,0.904
		c-0.314,0.293-0.563,0.63-0.677,0.991c-0.09,0.136-0.158,0.271-0.225,0.405l-0.091,0.204c-0.676,0.067-1.264-0.022-1.85-0.36
		c-0.451-0.227-0.768-0.587-0.879-1.037c-0.069-0.294-0.091-0.588-0.091-0.881c0.045-0.744,0.338-1.377,0.948-1.918
		c0.473-0.428,1.037-0.721,1.647-0.879V89.46c-0.431,0.023-0.861,0.023-1.332,0.067C6.703,89.55,6.5,89.595,6.319,89.662
		c-0.405,0.113-0.79,0.294-1.128,0.542c-0.43,0.271-0.767,0.609-0.993,1.061H4.175v0.023c-0.449-0.023-0.834-0.204-1.194-0.498
		c-0.563-0.518-0.969-1.104-1.195-1.758c-0.158-0.587-0.158-1.105,0-1.58h0.021c0.227-0.451,0.61-0.744,1.174-0.902
		c0.767-0.226,1.827-0.315,3.159-0.293c1.488,0.023,2.863-0.293,4.194-0.947c0.09-0.021,0.181-0.067,0.272-0.113
		c0.225-0.135,0.428-0.27,0.652-0.406c0.25-0.202,0.52-0.406,0.768-0.608c0.608-0.519,1.286-0.97,2.008-1.354l0.271-0.135
		c-0.586,0.066-1.149,0.18-1.759,0.315c-0.701,0.158-1.399,0.18-2.099,0.045c-0.587-0.113-0.993-0.384-1.265-0.88
		c-0.043-0.045-0.066-0.112-0.089-0.181c-0.022-0.021-0.022-0.045-0.045-0.067c-0.384-1.647,0.293-2.707,1.985-3.157h0.021
		c0.271-0.068,0.497-0.113,0.723-0.181c0.09,0,0.521,0.021,1.287,0.046c0.834,0.021,1.871,0.247,3.09,0.631
		c0.766,0.246,1.534,0.677,2.277,1.262l1.466,1.286c0.521,0.091,0.993,0.271,1.443,0.565c0.225,0.112,0.406,0.27,0.588,0.428
		c0.202,0.135,0.36,0.293,0.54,0.429l5.188-0.157c8.709-0.43,17.665-1.105,26.891-2.121c0.089-0.023,0.202-0.045,0.293-0.045
		c0.045,0,0.091-0.022,0.134-0.046c0.159-0.044,0.295-0.135,0.407-0.247c0.136-0.158,0.181-0.384,0.157-0.609
		c-0.021-0.227-0.134-0.406-0.314-0.519c-0.158-0.159-0.361-0.226-0.588-0.159c-9.564,1.062-18.836,1.762-27.859,2.166l-3.902,0.113
		c-0.292-0.361-0.677-0.609-1.082-0.812c-1.104-0.52-2.12-1.218-3.023-2.075c-0.699-0.474-1.375-0.79-2.098-1.015
		c-1.421-0.475-2.593-0.699-3.587-0.723c-1.015-0.021-1.556-0.021-1.646,0.023h-0.021c-0.227,0.022-0.473,0.067-0.744,0.158h-0.024
		c-2.773,0.699-3.834,2.436-3.18,5.188c0.021,0.023,0.021,0.023,0.021,0.067c0.249,0.745,0.7,1.331,1.354,1.76
		c-0.856,0.294-1.759,0.452-2.684,0.452c-1.555-0.046-2.774,0.09-3.632,0.338c-1.082,0.338-1.804,0.902-2.211,1.76v0.021
		c-0.384,0.812-0.428,1.76-0.091,2.774v0.022c0.317,0.948,0.882,1.761,1.647,2.482h0.023c0.631,0.541,1.354,0.856,2.165,0.926
		c0.067,0.63,0.452,1.375,1.038,2.254c0.045,0.045,0.09,0.092,0.157,0.137c0.677,0.631,1.738,0.947,3.159,0.879
		c0.404,1.467,1.555,2.324,3.405,2.594c1.872,0.249,3.857-0.045,5.934-0.947c2.052-0.879,3.563-2.255,4.533-4.149
		c0.247-0.113,0.519-0.227,0.745-0.316c0.855-0.406,1.557-0.97,2.165-1.669c0.563-0.609,0.947-1.309,1.24-2.054l3.632-0.112
		c7.489-0.248,15.183-0.834,23.078-1.782c0.225-0.023,0.404-0.136,0.562-0.293C53.825,87.316,53.917,87.114,53.872,86.889"/>
	<path fill="#009844" d="M16.673,77.708"/>
	<path fill="#D72C1B" d="M91.204,68.098l-2.098,0.407c-21.813,5.864-44.303,8.053-67.471,6.497c1.556,1.104,3.25,2.098,5.076,3
		c4.624,2.278,9.766,3.766,15.406,4.533c5.865,0.791,11.866,0.699,18.002-0.248c3-0.475,5.888-1.104,8.707-1.938
		c2.527-0.812,5.098-1.715,7.715-2.707c2.595-1.017,5.188-2.37,7.782-4.151C86.919,71.707,89.22,69.948,91.204,68.098"/>
	<path fill="#D72C1B" d="M59.377,73.986c-1.603,0.473-2.799,0.946-3.611,1.397c-0.608,0.316-1.172,0.722-1.646,1.24
		c-0.497,0.543-1.016,1.106-1.556,1.761c-0.316,0.384-0.587,0.722-0.768,0.947c-0.066,0.09-0.112,0.157-0.18,0.226
		c-1.533,2.254-2.708,5.143-3.43,8.641c-0.788,3.607-1.397,6.812-1.827,9.698c-0.021,0.022-0.021,0.022-0.021,0.068
		c-1.174,5.572,0.451,10.017,4.871,13.422c4.129,3.112,9.137,4.466,15.023,4.038c6.001-0.384,10.355-2.55,13.085-6.451
		c3.136-4.602,3.022-10.625-0.294-18.07c-0.971-2.188-2.165-4.466-3.587-6.857c-1.557-2.639-2.842-4.691-3.856-6.136
		c-0.137-0.339-0.406-0.79-0.768-1.353c-0.586-0.79-0.925-1.241-0.992-1.354c-0.225-0.337-0.429-0.563-0.564-0.722
		c-0.271-0.248-0.677-0.474-1.173-0.586C66.686,73.58,63.796,73.58,59.377,73.986 M58.451,75.046h-0.181l0.157-0.068L58.451,75.046z
		"/>
</g>
</svg>
