<?xml version="1.0" encoding="utf-8"?>
<!-- Generator: Adobe Illustrator 16.0.0, SVG Export Plug-In . SVG Version: 6.00 Build 0)  -->
<!DOCTYPE svg PUBLIC "-//W3C//DTD SVG 1.1//EN" "http://www.w3.org/Graphics/SVG/1.1/DTD/svg11.dtd">
<svg version="1.1" id="レイヤー_1" xmlns="http://www.w3.org/2000/svg" xmlns:xlink="http://www.w3.org/1999/xlink" x="0px"
	 y="0px" width="649.157px" height="888.609px" viewBox="0 0 649.157 888.609" enable-background="new 0 0 649.157 888.609"
	 xml:space="preserve">
<g>
	<path fill="#1E95D4" d="M350.434,354.518l-1.993-4.49c-7.881-17.178-14.487-38.846-19.799-64.973
		c11.57-1.524,21.4-2.716,29.551-3.724c18.4-2.221,31.453-3.401,39.126-3.59c5.74-0.047,11.312,0.033,16.677,0.259
		c17.204,0.691,34.212,2.691,50.954,5.965l0.064,0.03c10.317,2.024,20.216,4.618,29.733,7.713c0.785,0.268,1.547,0.486,2.281,0.767
		c10.004,4.326,19.799,9.182,29.412,14.621c17.316,9.722,33.092,21.077,47.297,34.121c3.007,3.159,5.736,6.325,8.191,9.5
		c-2.455-3.175-5.185-6.341-8.191-9.5c10.961,9.995,20.971,20.964,30.053,32.952l3.318,6.123c-0.145-0.328,0.279-0.127,1.262,0.601
		c1.907,3.423,3.554,6.519,4.984,9.372l0.268,0.49l-1.176-1.03l6.688,12.831l2.48-1.27c16.456,29.779,23.932,61.922,22.452,96.484
		c-0.433,9.775-1.495,19.387-3.186,28.834l-69.28,20.326c-3.154-37.775-13.124-73.799-29.821-108.125
		c-1.646-3.209-3.337-6.391-5.025-9.58c-5.785-10.678-12.633-20.775-20.513-30.188l-1.717-2.127
		c-1.523-1.814-3.054-3.518-4.618-5.045c-3.839-3.785-9.709-8.279-17.582-13.43c-2.349-1.676-4.484-2.998-6.283-3.924
		c-0.988-0.615-2.006-1.162-2.979-1.721c-10.099-5.672-21.134-10.203-33.154-13.688c-12.863-3.664-26.741-6.107-41.683-7.303
		c-9.914-0.762-19.978-0.955-30.229-0.466L350.434,354.518z"/>
	<path fill="#1E95D4" d="M497.028,294.938c2.726,0.899,5.422,1.861,8.023,2.871c11.276,4.814,21.858,10.434,31.785,16.837
		c14.778,9.473,26.269,18.287,34.411,26.423c0.87,0.833,1.695,1.687,2.489,2.61c-14.205-13.049-29.98-24.398-47.297-34.119
		C516.827,304.116,507.032,299.263,497.028,294.938"/>
	<path fill="#1E95D4" d="M490.455,379.674c-1.476-0.953-2.934-1.855-4.413-2.701c1.799,0.929,3.935,2.251,6.283,3.924
		C491.71,380.506,491.092,380.113,490.455,379.674"/>
	<polygon fill="#053980" points="591.909,357.186 592.161,357.011 592.841,358.049 592.628,358.195 591.886,358.633 591.223,357.65 
			"/>
	<path fill="#1E95D4" d="M591.886,358.635l0.742-0.439c2.97,3.949,5.528,7.965,7.713,12.036c1.39,2.493,2.506,4.657,3.444,6.402
		c-9.077-11.991-19.087-22.961-30.048-32.956c-0.798-0.919-1.619-1.777-2.489-2.608c-8.143-8.139-19.633-16.948-34.411-26.425
		c-9.927-6.404-20.509-12.024-31.785-16.838c15.015,5.601,28.921,12.513,41.753,20.846c14.782,9.469,26.274,18.281,34.417,26.419
		c3.992,3.995,7.546,8.019,10.688,12.114l-0.687,0.467L591.886,358.635z"/>
	<path fill="#1E95D4" d="M527.445,421.91c-1.095-0.459-1.647-0.71-1.669-0.758c0.1-0.651,0.268-1.277,0.356-1.937
		c0.27-1.281,0.18-2.239-0.154-2.866c-3.184-5.68-6.419-10.617-9.736-14.85c7.88,9.412,14.728,19.512,20.513,30.187
		c1.688,3.19,3.38,6.372,5.025,9.581l-0.462,0.205l-2.528-3.815l-9.818-15.04C528.998,422.55,528.511,422.324,527.445,421.91"/>
	
		<path fill="none" stroke="#074691" stroke-width="8.1035" stroke-linecap="round" stroke-linejoin="round" stroke-miterlimit="10" d="
		M514.53,399.375c-2.178-2.028-4.743-4.326-7.712-6.89c-5.644-4.87-10.472-8.771-14.493-11.589
		c-2.349-1.673-4.484-2.997-6.283-3.924c-0.988-0.611-2.006-1.159-2.979-1.725 M494.747,294.172c0.79,0.264,1.547,0.479,2.281,0.766
		c10.01,4.325,19.799,9.178,29.412,14.62c17.316,9.724,33.092,21.073,47.297,34.122c10.961,9.995,20.976,20.958,30.048,32.949
		c3.272,4.26,6.377,8.647,9.369,13.141c3.072,4.568,5.865,9.254,8.461,13.98c16.456,29.779,23.932,61.922,22.449,96.482
		c-0.43,9.774-1.492,19.392-3.183,28.836c-5.124,28.358-15.975,54.884-32.566,79.57"/>
	<path fill="none" stroke="#074691" stroke-width="8.1035" stroke-linecap="square" stroke-miterlimit="10" d="M516.242,401.498
		l-1.712-2.121c-1.528-1.815-3.059-3.523-4.623-5.046c-3.839-3.787-9.709-8.278-17.582-13.433c-0.615-0.395-1.233-0.782-1.87-1.222
		c-1.476-0.954-2.934-1.863-4.413-2.702 M318.669,283.509c11.565-1.518,21.399-2.715,29.547-3.718
		c18.404-2.227,31.456-3.406,39.129-3.592c5.74-0.048,11.314,0.031,16.678,0.258c17.209,0.695,34.212,2.688,50.958,5.969
		c3.522,0.707,6.959,1.46,10.385,2.323c0.055-0.023,0.055-0.023,0.066,0.024c14,3.33,27.221,7.673,39.62,13.035
		c11.276,4.817,21.858,10.43,31.785,16.84c14.778,9.47,26.269,18.28,34.411,26.422c0.87,0.831,1.691,1.685,2.489,2.61
		c3.007,3.154,5.736,6.32,8.191,9.496 M483.063,375.25c-10.099-5.664-21.134-10.199-33.154-13.684
		c-12.863-3.665-26.741-6.104-41.683-7.305c-9.914-0.757-19.978-0.955-30.229-0.459"/>
	
		<path fill="none" stroke="#074691" stroke-width="8.1035" stroke-linecap="round" stroke-linejoin="round" stroke-miterlimit="10" d="
		M571.602,549.389c-3.154-37.772-13.128-73.797-29.821-108.123c-1.642-3.203-3.337-6.393-5.025-9.581
		c-5.785-10.675-12.633-20.774-20.508-30.187"/>
	
		<line fill="none" stroke="#074691" stroke-width="8.1035" stroke-linecap="round" stroke-miterlimit="10" x1="377.998" y1="353.8" x2="350.434" y2="356.98"/>
	<path fill="#F4D924" d="M580.413,348.891c-0.715-0.359-1.427-0.715-2.095-1.025l-6.521-3.158
		c-3.363-1.577-6.778-3.157-10.194-4.639l-14.425-5.908c-1.63-0.669-3.26-1.275-4.935-1.892
		c-12.244-4.634-23.558-8.252-33.956-10.751c-0.252-0.104-0.509-0.155-0.825-0.155c7.098,3.52,13.616,7.903,19.583,13.049
		c2.756,2.396,5.151,4.794,7.185,7.138c2.704,0.966,5.406,2.091,8.213,3.257l13.6,5.609c0.258,0.104,0.564,0.207,0.825,0.357
		c2.391,1.02,4.688,2.037,6.979,3.107l17.997,8.719c9.327,4.741,17.682,9.48,25.174,14.27l-0.458,0.768
		c12.899,9.174,18.406,15.855,16.616,20.035c-1.826,4.123-10.495,4.583-25.938,1.326c-11.686-2.504-24.625-6.432-38.796-11.881
		l-0.05-0.053c-3.619,0.561-5.912,1.938-6.88,4.185c-2.908,6.777,3.922,13.761,20.592,21.046c5.812,2.498,11.622,4.643,17.383,6.422
		c1.327,9.33,0.914,19.625-1.273,30.993c-2.036,10.91-7.747,27.116-17.18,48.679c-9.382,21.563-20.849,33.945-34.405,37.26
		c-13.613,3.209-26.658,3.361-39.195,0.456c1.937,1.99,3.361,3.772,4.331,5.249c15.699,4.846,30.175,7.086,43.38,6.682
		c2.291-0.1,4.484-0.256,6.671-0.51c0.106,0.05,0.262,0,0.514-0.049c5.148-0.564,10.088-1.533,14.885-3.01
		c21.864-6.571,37.716-21.206,47.604-43.886c6.884-15.806,12.334-37.059,16.464-63.819c0.663-3.925,1.228-7.798,1.688-11.622
		c-2.603-0.051-5.151-0.1-7.648-0.251c-2.043,0.1-4.183,0.1-6.369,0c-2.7-0.16-5.609-0.41-8.619-0.771l0.15-0.556
		c2.808,0.456,5.618,0.76,8.368,0.967c2.132,0.155,4.276,0.305,6.47,0.359c1.422,0.051,2.955-1.17,4.584-3.568
		c-0.862,0.199-1.829,0.406-2.851,0.556c-2.19,0.359-4.585,0.565-7.188,0.661c-1.937,0.16-3.921,0.209-6.013,0.16
		c-2.504-0.104-5.2-0.256-8.003-0.512c-1.382-0.1-2.803-0.258-4.229-0.406c1.427,0.148,2.848,0.307,4.229,0.406
		c2.803,0.256,5.499,0.407,8.003,0.512c2.092,0.049,4.076,0,6.013-0.16c2.603-0.096,4.997-0.302,7.188-0.661
		c1.021-0.149,1.988-0.356,2.851-0.556c1.431-2.192,2.959-5.354,4.54-9.484c-0.356,3.52-0.662,6.326-0.925,8.413
		c2.865-1.069,5.201-2.397,7.037-4.027c1.475-1.378,2.601-2.954,3.364-4.741c3.518-8.004-0.963-18.303-13.452-30.781
		c-1.427-1.482-7.191-5.61-17.233-12.438C603.304,361.373,592.392,354.902,580.413,348.891"/>
	<path fill="none" stroke="#F4D924" stroke-width="1.9914" d="M580.413,348.891c-0.715-0.359-1.427-0.715-2.095-1.025l-6.521-3.158
		c-3.363-1.577-6.778-3.157-10.194-4.639l-14.425-5.908c-1.63-0.669-3.26-1.275-4.935-1.892
		c-12.244-4.634-23.558-8.252-33.956-10.751c-0.252-0.104-0.509-0.155-0.825-0.155c7.098,3.52,13.616,7.903,19.583,13.049
		c2.756,2.396,5.151,4.794,7.185,7.138c2.704,0.966,5.406,2.091,8.213,3.257l13.6,5.609c0.258,0.104,0.564,0.207,0.825,0.357
		c2.391,1.02,4.688,2.037,6.979,3.107l17.997,8.719c9.327,4.741,17.682,9.48,25.174,14.27l-0.458,0.768
		c12.899,9.174,18.406,15.855,16.616,20.035c-1.826,4.123-10.495,4.583-25.938,1.326c-11.686-2.504-24.625-6.432-38.796-11.881
		l-0.05-0.053c-3.619,0.561-5.912,1.938-6.88,4.185c-2.908,6.777,3.922,13.761,20.592,21.046c5.812,2.498,11.622,4.643,17.383,6.422
		c1.327,9.33,0.914,19.625-1.273,30.993c-2.036,10.91-7.747,27.116-17.18,48.679c-9.382,21.563-20.849,33.945-34.405,37.26
		c-13.613,3.209-26.658,3.361-39.195,0.456c1.937,1.99,3.361,3.772,4.331,5.249c15.699,4.846,30.175,7.086,43.38,6.682
		c2.291-0.1,4.484-0.256,6.671-0.51c0.106,0.05,0.262,0,0.514-0.049c5.148-0.564,10.088-1.533,14.885-3.01
		c21.864-6.571,37.716-21.206,47.604-43.886c6.884-15.806,12.334-37.059,16.464-63.819c0.663-3.925,1.228-7.798,1.688-11.622
		c-2.603-0.051-5.151-0.1-7.648-0.251c-2.043,0.1-4.183,0.1-6.369,0c-2.7-0.16-5.609-0.41-8.619-0.771l0.15-0.556
		c2.808,0.456,5.618,0.76,8.368,0.967c2.132,0.155,4.276,0.305,6.47,0.359c1.422,0.051,2.955-1.17,4.584-3.568
		c-0.862,0.199-1.829,0.406-2.851,0.556c-2.19,0.359-4.585,0.565-7.188,0.661c-1.937,0.16-3.921,0.209-6.013,0.16
		c-2.504-0.104-5.2-0.256-8.003-0.512c-1.382-0.1-2.803-0.258-4.229-0.406c1.427,0.148,2.848,0.307,4.229,0.406
		c2.803,0.256,5.499,0.407,8.003,0.512c2.092,0.049,4.076,0,6.013-0.16c2.603-0.096,4.997-0.302,7.188-0.661
		c1.021-0.149,1.988-0.356,2.851-0.556c1.431-2.192,2.959-5.354,4.54-9.484c-0.356,3.52-0.662,6.326-0.925,8.413
		c2.865-1.069,5.201-2.397,7.037-4.027c1.475-1.378,2.601-2.954,3.364-4.741c3.518-8.004-0.963-18.303-13.452-30.781
		c-1.427-1.482-7.191-5.61-17.233-12.438C603.304,361.373,592.392,354.902,580.413,348.891z"/>
	<path fill="#CFB819" d="M581.843,362.6l-17.997-8.719c-2.291-1.07-4.588-2.088-6.979-3.109c-0.261-0.148-0.567-0.254-0.825-0.355
		l-13.6-5.604c-1.736-0.666-3.47-1.325-5.148-1.937c-4.027-1.532-7.904-2.909-11.676-4.079c-7.848-2.603-15.185-4.591-22.016-6.067
		c-15.551-3.209-24.268-2.752-26.053,1.432c-1.832,4.125,3.722,10.803,16.726,19.926c7.894,5.66,17.171,11.316,27.829,16.873
		l20.795,9.684c0.249,0.102,0.562,0.205,0.81,0.355c2.447,1.071,4.849,2.093,7.239,3.058l5.001,2.093
		c0.555,0.205,1.118,0.406,1.679,0.61c0.258,0.101,0.512,0.206,0.764,0.306l0.05,0.051c14.171,5.455,27.114,9.384,38.793,11.883
		c15.445,3.257,24.114,2.797,25.94-1.33c1.79-4.178-3.717-10.857-16.616-20.033C599.373,372.595,591.116,367.594,581.843,362.6"/>
	<path fill="#F4D924" d="M589.486,418.721c-5.761-1.789-11.57-3.925-17.383-6.428c-16.67-7.286-23.491-14.27-20.592-21.046
		c0.968-2.247,3.261-3.62,6.88-4.18l0.05,0.045l-0.05-0.045c-0.252-0.105-0.506-0.206-0.764-0.31
		c-0.561-0.201-1.124-0.404-1.679-0.611l-5.001-2.092c-2.391-0.967-4.788-1.988-7.239-3.055c-0.248-0.151-0.561-0.254-0.81-0.359
		l-20.795-9.684c-10.658-5.558-19.936-11.213-27.829-16.873c-13.004-9.119-18.558-15.801-16.726-19.926
		c1.785-4.179,10.502-4.641,26.053-1.432c6.834,1.481,14.168,3.469,22.016,6.066l1.427-4.379
		c-5.967-5.151-12.485-9.535-19.573-13.049c-0.704-0.204-1.423-0.41-2.142-0.562c-11.161-2.497-17.327-3.772-18.397-3.822
		c-19.422-1.172-30.942,2.447-34.612,10.906c-1.889,4.283-1.479,9.225,1.12,14.784c0.106,0.202,0.204,0.405,0.303,0.662
		c0.971,1.886,2.201,3.824,3.681,5.86c3.105,4.279,7.436,8.92,12.942,13.919c1.376,1.272,2.855,2.544,4.388,3.72
		c-1.532-1.176-3.012-2.447-4.388-3.72c-5.507-4.999-9.837-9.64-12.942-13.919c-1.479-2.036-2.71-3.975-3.681-5.86l-1.826,1.021
		c-4.442,4.785-7.449,8.204-9.079,10.244c-16.814,21.153-28.646,39.652-35.522,55.459c-9.891,22.682-9.835,44.295,0.208,64.785
		c2.133,4.279,4.681,8.408,7.587,12.434l3.677,4.789c12.535,15.037,31.189,27.935,55.967,38.74c0.964,0.459,1.884,0.871,2.852,1.277
		c0.454,0.197,0.911,0.407,1.417,0.659c0.462,0.155,0.925,0.31,1.436,0.565c1.63,0.711,3.26,1.371,4.841,2.032
		c5.658,2.296,11.161,4.284,16.465,6.017c-0.97-1.477-2.395-3.264-4.331-5.251c12.537,2.907,25.582,2.753,39.195-0.456
		c13.557-3.314,25.023-15.7,34.405-37.258c9.433-21.564,15.144-37.772,17.18-48.685C590.4,438.34,590.813,428.049,589.486,418.721"
		/>
	<path fill="none" stroke="#F4D924" stroke-width="1.9914" d="M589.486,418.721c-5.761-1.789-11.57-3.925-17.383-6.428
		c-16.67-7.286-23.491-14.27-20.592-21.046c0.968-2.247,3.261-3.62,6.88-4.18l0.05,0.045l-0.05-0.045
		c-0.252-0.105-0.506-0.206-0.764-0.31c-0.561-0.201-1.124-0.404-1.679-0.611l-5.001-2.092c-2.391-0.967-4.788-1.988-7.239-3.055
		c-0.248-0.151-0.561-0.254-0.81-0.359l-20.795-9.684c-10.658-5.558-19.936-11.213-27.829-16.873
		c-13.004-9.119-18.558-15.801-16.726-19.926c1.785-4.179,10.502-4.641,26.053-1.432c6.834,1.481,14.168,3.469,22.016,6.066
		l1.427-4.379c-5.967-5.151-12.485-9.535-19.573-13.049c-0.704-0.204-1.423-0.41-2.142-0.562
		c-11.161-2.497-17.327-3.772-18.397-3.822c-19.422-1.172-30.942,2.447-34.612,10.906c-1.889,4.283-1.479,9.225,1.12,14.784
		c0.106,0.202,0.204,0.405,0.303,0.662c0.971,1.886,2.201,3.824,3.681,5.86c3.105,4.279,7.436,8.92,12.942,13.919
		c1.376,1.272,2.855,2.544,4.388,3.72c-1.532-1.176-3.012-2.447-4.388-3.72c-5.507-4.999-9.837-9.64-12.942-13.919
		c-1.479-2.036-2.71-3.975-3.681-5.86l-1.826,1.021c-4.442,4.785-7.449,8.204-9.079,10.244
		c-16.814,21.153-28.646,39.652-35.522,55.459c-9.891,22.682-9.835,44.295,0.208,64.785c2.133,4.279,4.681,8.408,7.587,12.434
		l3.677,4.789c12.535,15.037,31.189,27.935,55.967,38.74c0.964,0.459,1.884,0.871,2.852,1.277c0.454,0.197,0.911,0.407,1.417,0.659
		c0.462,0.155,0.925,0.31,1.436,0.565c1.63,0.711,3.26,1.371,4.841,2.032c5.658,2.296,11.161,4.284,16.465,6.017
		c-0.97-1.477-2.395-3.264-4.331-5.251c12.537,2.907,25.582,2.753,39.195-0.456c13.557-3.314,25.023-15.7,34.405-37.258
		c9.433-21.564,15.144-37.772,17.18-48.685C590.4,438.34,590.813,428.049,589.486,418.721z"/>
	<path fill="#F4D924" d="M610.485,423.561l-0.154,0.562c3.01,0.355,5.919,0.611,8.619,0.764c2.187,0.102,4.326,0.102,6.369,0
		c-2.197-0.049-4.338-0.205-6.476-0.359C616.1,424.326,613.289,424.02,610.485,423.561"/>
	<path fill="#F5E529" d="M507.466,321.365c0.312,0,0.569,0.049,0.821,0.151c10.398,2.5,21.712,6.12,33.96,10.755
		c1.671,0.611,3.301,1.221,4.931,1.887c-2.39-1.021-4.789-1.988-7.29-2.908c-13.193-5.095-25.328-9.07-36.437-11.872
		C504.824,320.039,506.151,320.699,507.466,321.365"/>
	<path fill="#F4D924" d="M414.604,487.938c-0.666,1.02-1.278,2.092-1.784,3.156c-3.928,9.026-0.356,19.271,10.654,30.792
		c11.059,11.467,26.143,21.403,45.262,29.765c9.527,4.13,18.655,7.294,27.37,9.482c3.312-1.988,5.507-4.28,6.679-6.984
		c1.781-4.028,1.733-7.902-0.203-11.571c-0.209-0.352-0.458-0.762-0.817-1.221c-5.304-1.737-10.807-3.721-16.465-6.016
		c-1.581-0.666-3.211-1.322-4.841-2.039c-0.511-0.254-0.974-0.408-1.436-0.563c-0.506-0.252-0.963-0.456-1.417-0.657
		c-0.968-0.41-1.888-0.815-2.852-1.275c-24.777-10.806-43.432-23.703-55.967-38.74c-1.279-1.526-2.452-3.108-3.574-4.688
		L414.604,487.938z"/>
	<path fill="#F5E529" d="M501.764,541.355c0.359,0.459,0.608,0.869,0.817,1.221c1.937,3.67,1.984,7.549,0.203,11.573
		c-1.172,2.706-3.366,4.994-6.679,6.984c8.768,2.088,17.179,3.26,25.179,3.414c15.952,0.257,25.843-4.128,29.771-13.149
		c0.563-1.17,0.971-2.447,1.218-3.724l-0.458-0.147l-0.458,1.013l0.458-1.013c-2.187,0.255-4.38,0.404-6.671,0.506
		C531.938,548.441,517.463,546.201,501.764,541.355"/>
	
		<path fill="none" stroke="#0E0205" stroke-width="8.1537" stroke-linecap="round" stroke-linejoin="round" stroke-miterlimit="10" d="
		M552.328,547.477c-0.252,0.049-0.407,0.099-0.514,0.049 M556.039,350.42l-13.6-5.613c-1.736-0.658-3.467-1.324-5.146-1.936
		c-4.027-1.525-7.904-2.903-11.676-4.078c-7.848-2.598-15.185-4.585-22.016-6.062c-15.551-3.213-24.268-2.754-26.053,1.426
		c-1.832,4.131,3.716,10.807,16.726,19.932c7.894,5.66,17.171,11.316,27.829,16.873l20.795,9.685
		c0.245,0.101,0.562,0.203,0.81,0.354c2.447,1.071,4.846,2.093,7.239,3.059l5.001,2.092c0.555,0.199,1.118,0.406,1.679,0.61
		c0.258,0.101,0.512,0.201,0.764,0.304l0.05,0.053c14.168,5.449,27.114,9.381,38.793,11.875c15.445,3.265,24.114,2.803,25.94-1.32
		c1.79-4.18-3.717-10.861-16.616-20.035c-7.186-5.047-15.442-10.041-24.72-15.035l-17.993-8.719
		c-2.291-1.072-4.588-2.088-6.979-3.109 M633.519,420.249c-0.398,3.11-0.611,4.739-0.551,4.891
		c-0.46,3.824-1.024,7.697-1.688,11.623c-4.13,26.763-9.58,48.013-16.464,63.819c-9.888,22.679-25.739,37.313-47.604,43.885
		c-4.797,1.477-9.736,2.445-14.885,3.01 M601.62,421.781c1.427,0.146,2.848,0.301,4.229,0.4c2.803,0.26,5.499,0.411,8.003,0.512
		c2.092,0.055,4.073,0,6.013-0.156c2.603-0.096,4.997-0.301,7.188-0.66c1.021-0.15,1.988-0.355,2.851-0.562
		c1.273-0.304,2.452-0.659,3.615-1.066 M474.754,366.83c-1.532-1.171-3.012-2.447-4.388-3.72
		c-5.507-4.999-9.837-9.634-12.942-13.913c-1.479-2.04-2.71-3.979-3.681-5.861c-0.099-0.26-0.2-0.465-0.303-0.665 M453.44,342.671
		c-0.506,0.56-1.017,1.121-1.523,1.681c-4.442,4.787-7.449,8.206-9.079,10.246c-16.814,21.153-28.646,39.656-35.522,55.457
		c-9.891,22.683-9.839,44.295,0.204,64.785c2.137,4.281,4.685,8.41,7.591,12.435 M415.11,487.274
		c-0.195,0.155-0.354,0.41-0.507,0.664 M415.218,487.379c-0.053-0.049-0.107-0.049-0.107-0.104 M552.328,547.477
		c-0.056,0.049-0.056,0.099-0.056,0.198c-0.247,1.276-0.654,2.554-1.218,3.724c-3.928,9.019-13.818,13.406-29.771,13.149
		c-8-0.154-16.411-1.326-25.179-3.414c-8.715-2.192-17.843-5.355-27.37-9.479c-19.119-8.363-34.203-18.3-45.262-29.772
		c-11.011-11.516-14.582-21.762-10.654-30.785c0.506-1.067,1.118-2.14,1.784-3.159 M414.604,487.938l0.614-0.56 M415.218,487.379
		c1.117,1.579,2.29,3.159,3.569,4.689c12.535,15.036,31.189,27.931,55.967,38.74c0.964,0.46,1.884,0.863,2.852,1.27
		c0.454,0.201,0.911,0.411,1.417,0.663c0.462,0.155,0.925,0.308,1.436,0.563c1.63,0.713,3.26,1.373,4.841,2.037
		c5.658,2.297,11.161,4.281,16.465,6.014c15.699,4.844,30.175,7.086,43.38,6.676c2.291-0.096,4.484-0.252,6.671-0.506
		 M551.361,548.545l0.453-1.02 M633.519,420.249c2.865-1.069,5.207-2.396,7.037-4.027c1.479-1.378,2.601-2.954,3.364-4.739
		c3.518-8.004-0.963-18.304-13.452-30.789c-1.427-1.48-7.191-5.604-17.233-12.436c-9.931-6.883-20.843-13.355-32.821-19.367
		c-0.715-0.359-1.427-0.715-2.095-1.023l-6.521-3.16c-3.363-1.58-6.778-3.162-10.194-4.639l-14.425-5.912
		c-1.63-0.664-3.26-1.271-4.935-1.885c-12.244-4.636-23.558-8.255-33.956-10.757c-0.252-0.1-0.509-0.149-0.821-0.149
		c-0.702-0.207-1.417-0.41-2.136-0.562c-11.161-2.499-17.327-3.772-18.397-3.824c-19.422-1.17-30.947,2.448-34.615,10.906
		c-1.886,4.285-1.477,9.227,1.123,14.786"/>
	<path fill="#C11920" d="M572.612,454.198c-0.456-1.179-1.317-2.041-2.499-2.499h-0.049c-2.036-0.768-5.603-1.685-10.652-2.703
		c-4.996-1.069-7.491-1.633-7.545-1.633c-0.104-0.052-0.203-0.052-0.249-0.052c-4.388-0.456-7.039,0.516-7.954,2.903
		c-0.258,0.67-0.409,1.381-0.457,2.047c-0.262-0.057-0.507-0.104-0.818-0.104l-12.543-1.532c-2.287-0.352-3.97,0.666-4.991,3.013
		c-0.563,1.271-0.657,2.548-0.36,3.714h0.054c0.355,1.276,1.07,2.196,2.243,2.707c0.461,0.151,0.809,0.307,1.177,0.355l-0.822,1.832
		l8.154,3.568l1.889-4.332l2.909,0.56c-0.919,0.515-1.685,1.431-2.297,2.759c-0.252,0.658-0.461,1.27-0.507,1.881l16.203,7.088
		c3.007,0.305,5.094,0.354,6.272,0.104c1.785-0.359,3.003-1.325,3.726-3.014c0.505-1.166,0.608-2.441,0.306-3.717
		c-0.358-1.276-1.176-2.194-2.349-2.704c-0.661-0.304-1.431-0.405-2.246-0.254c-0.051-0.05-0.051-0.05-0.1-0.05
		c-1.018,0.154-3.619-0.053-7.745-0.662l2.442-5.606c6.218,1.171,10.455,2.192,12.637,2.954c1.182,0.46,2.251,0.511,3.17,0.205
		c-2.35,5.455-0.616,11.417,5.148,17.783c1.985,2.203,3.16,4.139,3.56,5.767l8.677,3.774c1.314-5.357-0.516-10.858-5.565-16.469
		c-2.901-3.312-4.077-5.811-3.465-7.492c0.354-0.666,1.124-1.021,2.242-1.07c1.023-0.051,2.088,0.204,3.212,0.664
		c2.297,0.966,4.131,2.648,5.61,4.945l0.054,0.051c0.457,0.715,1.065,1.223,1.73,1.527c1.124,0.459,2.293,0.459,3.514-0.096
		c1.223-0.671,2.092-1.586,2.652-2.863c0.764-1.58,0.613-3.158-0.457-4.689h0.052c-2.451-3.82-5.458-6.521-8.976-8.049
		c-3.264-1.426-6.525-1.682-9.73-0.818c-1.991,0.459-3.674,1.329-5.05,2.5C572.919,455.676,572.87,454.908,572.612,454.198"/>
	<path fill="#C11920" d="M537.951,439.008c-0.506-1.325-1.272-2.191-2.343-2.652c-1.169-0.51-2.396-0.406-3.72,0.306
		c-5.355,2.906-9.538,4.841-12.434,5.756c1.375-3.058,2.597-6.167,3.666-9.274c1.076-2.854,0.357-4.84-2.087-5.911
		c-1.279-0.562-2.55-0.562-3.777,0.104c-1.169,0.561-1.987,1.628-2.493,3.109c-1.074,3.002-2.349,6.06-3.877,9.273
		c0.252-1.121,0.407-2.192,0.514-3.214c0.356-5.3-1.479-8.817-5.458-10.499c-5.045-2.243-10.294-0.711-15.749,4.539
		c-1.532,1.477-2.954,3.107-4.229,4.891c-0.871-1.883-2.246-3.209-4.231-4.076c-4.739-2.092-9.585-0.814-14.63,3.925
		c-0.51-1.271-1.328-2.192-2.497-2.647c-1.324-0.615-2.7-0.41-4.076,0.557l15.646,6.83c0.463-0.054,0.97,0.051,1.431,0.258
		c0.255,0.104,0.512,0.203,0.657,0.355l0.055,0.053c0.049,0.1,0.15,0.2,0.199,0.355l11.268,4.945
		c1.173-2.703,2.807-5.201,4.894-7.547c2.607-2.903,4.939-3.925,6.986-3.159c0.258,0.151,0.505,0.306,0.762,0.511v0.051
		c0.864,0.764,0.562,2.957-0.965,6.526c-1.177,2.597-2.452,4.939-3.824,7.032l14.626,6.371c0.053-0.105,0.106-0.205,0.152-0.305
		l0.203,0.455l12.236,5.354l-3.666-9.429c3.408-1.021,8.104-3.162,14.166-6.477c1.226-0.662,2.033-1.477,2.446-2.498
		C538.36,441.655,538.413,440.385,537.951,439.008"/>
	<path fill="#C11920" d="M468.989,412.041c0.049,0.512,0.104,1.123,0.049,1.889c0.055,2.192,0.871,3.613,2.556,4.332
		c1.065,0.455,2.286,0.455,3.662-0.049c1.328-0.565,2.294-1.48,2.861-2.758c0.351-0.762,0.514-1.58,0.452-2.547
		c0-5.707-1.683-9.225-4.995-10.602c-3.466-1.58-7.996-1.326-13.657,0.71c-7.343,2.653-12.897,8.359-16.618,17.133l-0.052,0.052
		c-0.661,1.63-1.169,3.207-1.631,4.738l8.462,3.719c0.307-1.475,0.763-2.908,1.378-4.28c1.833-4.177,4.275-7.446,7.34-9.733
		C462.105,412.193,465.472,411.331,468.989,412.041"/>
	<path fill="#C11920" d="M512.263,455.777l-14.626-6.371c-1.177,1.681-2.397,3.262-3.726,4.634
		c-2.185,2.142-3.976,2.958-5.345,2.499c-0.158-0.052-0.306-0.152-0.46-0.252c-1.329-1.226-0.772-4.641,1.625-10.199
		c0.053-0.051,0.053-0.051,0.053-0.096l-11.268-4.945c0.506,0.966,0.159,2.902-1.123,5.807c-1.981,4.54-4.38,8.208-7.182,11.016
		c-1.99,1.983-3.674,2.799-4.943,2.343c-0.155-0.056-0.306-0.155-0.458-0.256c-1.226-1.173-0.712-4.334,1.576-9.584
		c1.124-2.603,2.651-4.997,4.639-7.188c1.886-2.041,3.573-3.107,5.149-3.158l-15.646-6.83c-0.159,0.1-0.307,0.199-0.458,0.304
		c-3.314,2.554-6.219,3.468-8.615,2.702c-1.431-0.56-2.039-2.191-1.782-4.895c0.094-0.865,0.252-1.781,0.404-2.646l-8.462-3.725
		c-0.964,3.418-1.323,6.627-1.123,9.74c0.355,5.76,2.709,9.58,7.035,11.412c3.619,1.637,7.648,1.326,12.183-0.918
		c-0.457,0.867-0.915,1.737-1.328,2.654c-1.523,3.569-2.283,7.136-2.242,10.707c0,5.249,1.989,8.707,6.019,10.395
		c3.818,1.785,8.053,0.461,12.688-3.975c1.736-1.682,3.318-3.569,4.794-5.605c0.967,3.002,2.854,5.09,5.761,6.367
		c3.516,1.58,7.442,0.666,11.666-2.799c-0.248,0.251-0.408,0.507-0.502,0.76c-0.564,1.277-0.612,2.554-0.106,3.774
		c0.457,1.171,1.222,2.038,2.293,2.497c2.092,0.972,3.983,0.355,5.556-1.936v-0.055
		C507.422,463.421,510.069,459.346,512.263,455.777"/>
	<path fill="#C11920" d="M586.066,491.047c0.355-0.867,0.667-1.782,0.924-2.703l-8.679-3.769c0.262,0.915,0.217,1.731-0.039,2.448
		c-0.356,0.811-1.075,1.32-2.138,1.477c-0.056-0.058-0.056-0.058-0.056,0c-0.969,0.048-1.938-0.102-3.008-0.562
		c-3.007-1.378-5.095-4.075-6.264-8.104c-0.056-0.101-0.056-0.204-0.056-0.305l-6.37-2.802c-0.866,0.354-1.482,1.114-1.94,2.292
		c-0.353,0.762-0.511,1.627-0.459,2.647c-0.244-0.149-0.506-0.305-0.758-0.405c-0.97-0.41-2.039-0.41-3.216,0.049v0.052
		c-2.647,0.971-5.352,0.813-8.15-0.406c-0.618-0.261-1.177-0.511-1.741-0.87l3.162-7.234c2.397,0.456,4.484,0.762,6.218,0.918
		l-16.203-7.088c-0.203,1.482,0.308,2.753,1.473,3.723l-3.673,8.359c-0.251,0.355-0.499,0.766-0.709,1.226
		c-0.812,1.933-0.563,3.67,0.765,5.245c1.884,2.04,4.181,3.619,6.881,4.791c4.738,2.092,9.534,2.242,14.318,0.412v0.048
		c1.431-0.612,2.402-1.527,2.857-2.753c0.052-0.051,0.101-0.15,0.159-0.305c0.35,0.66,0.763,1.377,1.221,2.087
		c1.378,2.242,2.949,4.135,4.845,5.716c1.271,0.962,2.594,1.779,3.976,2.395c3.206,1.373,6.264,1.581,9.273,0.509
		C582.047,496.961,584.485,494.616,586.066,491.047"/>
	<path fill="#C11920" d="M560.382,476.726l6.37,2.802c-0.352-1.066-1.228-1.885-2.6-2.447
		C562.625,476.421,561.355,476.266,560.382,476.726"/>
	<path fill="#C11920" d="M527.146,462.248l-1.021,2.293l-1.27-3.26l-12.236-5.354l6.884,18.147c0.355,0.866,0.867,1.53,1.631,1.986
		l-3.268,7.492l-1.472-0.608c-1.173-0.512-2.345-0.463-3.519,0.102l-0.052-0.053c-1.227,0.512-2.142,1.426-2.696,2.803
		c-0.612,1.377-0.719,2.703-0.262,3.924l0.056-0.049c0.402,1.275,1.17,2.191,2.342,2.703c2.35,1.02,5.05,1.782,8.154,2.291
		c6.886,1.123,10.962,0.049,12.241-3.213c0.555-1.273,0.608-2.547,0.151-3.869c-0.467-1.377-1.279-2.297-2.35-2.756
		c-1.07-0.512-2.242-0.408-3.566,0.309l8.406-19.32L527.146,462.248z"/>
	<path fill="#1E95D4" d="M637.936,526.459c0.196-0.012,0.401-0.02,0.614-0.035c-0.656,2.073-1.255,3.99-1.867,5.805
		c-0.074,0.467-0.157,0.873-0.287,1.291c-0.765,3.554-1.639,7.011-2.517,10.318c-0.837,3.148-1.65,5.895-2.479,8.279
		c-1.523,4.569-2.967,7.903-4.367,9.965c-0.437,1.299-0.862,2.648-1.349,4.049c-0.209,0.874-0.364,1.75-0.567,2.629
		c-0.044,0.102-0.037,0.205-0.086,0.258c-0.045,0.206-0.078,0.411-0.119,0.62c-0.294,1.184-0.624,2.422-0.964,3.615
		c-0.563,1.911-1.21,3.836-1.87,5.652c-1.009,2.754-2.182,5.417-3.461,8.027c-1.822,3.821-3.906,7.402-6.259,10.838
		c-4.551,5.855-8.727,10.363-12.56,13.485c-3.799,3.117-8.007,5.998-12.696,8.555c-1.427,0.843-2.909,1.74-4.539,2.594
		c-0.245,0.172-0.541,0.288-0.79,0.403l-1.556,0.347v0.049c-0.45,0.074-0.952,0.206-1.605,0.344
		c-0.702,0.196-1.304,0.43-1.741,0.811c-5.361,1.372-11.615,2.289-18.665,2.741c-1.116,0.112-2.28,0.18-3.507,0.143
		c-3.161-0.225-5.85-0.888-8.053-1.983c-0.048-0.051-0.102-0.046-0.154-0.092c-1.331-1.096-2.178-2.474-2.518-4.08l-0.004-0.054
		l-0.061-0.046c-0.609-3.684-1.033-5.794-1.28-6.438c-0.048-0.151-0.076-0.51-0.113-1.169c-0.151-2.64,0.344-5.668,1.523-9.091
		c-0.003-0.054-0.003-0.054-0.003-0.102c-0.009-0.053-0.009-0.053-0.009-0.102v-0.053l-0.009-0.049
		c0.095-0.056,0.145-0.164,0.192-0.263l-0.008-0.106l0.499-1.094c0.375-0.53,0.754-1.063,1.084-1.586l-0.007-0.051
		c0.045-0.06,0.144-0.164,0.192-0.216c0.949-1.122,1.671-1.827,2.108-2.155c0.873-0.812,2.35-1.662,4.384-2.646
		c3.076-1.389,6.529-2.499,10.398-3.382c3.863-0.879,5.874-1.353,6.114-1.516c-1.719,0.146-3.595,0.251-5.626,0.317
		c-6.659,0.221-13.207-0.422-19.748-1.832c-0.059,0.004-0.103,0.01-0.151,0.01c-0.053,0.004-0.516-0.077-1.441-0.228
		c-0.303-0.03-0.557-0.115-0.825-0.205c-0.046,0.056-0.148,0.06-0.192,0.111c-0.049,0-0.106-0.045-0.159-0.09l-0.049,0.051
		c-16.029-5.398-23.92-14.519-23.785-27.349c-0.512-5.414,2.892-9.171,10.204-11.213l0.049-0.053
		c2.706-0.766,5.921-1.356,9.609-1.766c16.113-0.355,25.664-0.693,28.647-1.013c-15.41-1.724-27.503-3.991-36.255-6.798
		c0.045-0.055,0.085-0.16,0.136-0.213c-2.489-0.881-4.728-1.82-6.678-2.828c-1.775-0.967-3.409-1.939-4.888-2.929
		c-5.275-3.312-8.653-7.19-10.189-11.735c-2.011-5.08-2.092-10.872-0.173-17.344c0.978-3.463,4.192-6.088,9.691-7.824
		c3.117-1.498,6.899-2.271,11.423-2.327c0.862,0,1.724,0.057,2.59,0.06c1.066-0.062,2.183-0.125,3.297-0.242
		c14.982-0.59,24.6,0.545,28.945,3.447c-6.576-6.498-11.631-13.178-15.181-20.15c-0.85-1.478-1.482-2.867-2.022-4.16
		c-0.061-0.252-0.233-0.547-0.396-0.846c-2.019-4.107-2.596-8.04-1.696-11.81c0.548-2.929,1.876-5.451,4.053-7.61
		c0.049,0,0.049,0,0.045-0.049c0.34-0.271,0.675-0.6,0.915-0.917v-0.05c3.902-3.836,9.502-4.711,16.85-2.535
		c3.451,0.774,7.193,2.137,11.267,3.99c1.991,0.957,4.04,2.162,6.104,3.628c2.182,1.557,5.577,4.062,10.209,7.613
		c4.205,3.272,7.845,6.522,11.032,9.751c0.326,0.34,0.645,0.679,0.923,1.021c3.357,3.573,5.417,5.85,6.238,6.77v0.049l0.18,0.501
		c0.136,0.5,0.453,0.784,0.925,0.909c0.048,0.053,0.1,0.051,0.15,0.095l0.155,0.046c0.261,0.186,0.543,0.582,0.723,1.177
		c0.254,0.802,0.687,1.285,1.355,1.447c0.055,0,0.103-0.003,0.161,0.046c0.555,0.022,1.434,0.123,2.609,0.261
		c0.148-0.009,0.249-0.013,0.349-0.022c0.15-0.111,0.303-0.216,0.444-0.379c0.772-0.708,1.708-1.217,2.859-1.589l0.004-0.763
		c0.777,0.21,1.394,0.277,1.843,0.25c0.413-0.018,0.724,0.014,0.978,0.148c0.927,2.848,3.039,6.903,6.394,12.257
		c0.114,0.196,0.228,0.397,0.339,0.54c0.617-0.795,1.246-1.393,1.986-1.785c0.248-0.168,0.437-0.283,0.64-0.243
		c0.465,0.075,0.753,0.618,0.81,1.681c0.037,0.561-0.285,2.055-0.964,4.485c0.106,0.044,0.212,0.139,0.313,0.235
		c1.279,0.895,1.933,1.674,1.974,2.328c0,0.051,0.01,0.155-0.041,0.26c0.296-0.172,0.589-0.389,0.888-0.613
		c3.418-2.379,4.13,2.975,2.07,16.014C638.595,522.812,638.292,524.661,637.936,526.459"/>
	<path fill="#074691" d="M621.238,482.419c0.363,0.037,0.511,0.028,0.569,0.022l-0.145,2.959l-0.004,0.765
		c-1.151,0.372-2.087,0.877-2.859,1.585c-0.142,0.162-0.294,0.274-0.444,0.387c-0.1,0.008-0.196,0.012-0.349,0.015
		c-1.176-0.132-2.06-0.239-2.609-0.257c-0.059-0.046-0.106-0.042-0.161-0.042c-0.669-0.164-1.102-0.649-1.355-1.448
		c-0.18-0.604-0.462-0.99-0.727-1.18l-0.151-0.042c-0.051-0.053-0.103-0.048-0.15-0.097c-0.472-0.127-0.789-0.416-0.929-0.911
		l-0.176-0.497v-0.053c-0.821-0.92-2.881-3.196-6.238-6.773c-0.278-0.336-0.597-0.676-0.923-1.016
		c-3.188-3.229-6.83-6.48-11.032-9.751c-4.637-3.557-8.027-6.063-10.209-7.615c-2.063-1.464-4.112-2.669-6.107-3.626
		c-4.069-1.854-7.812-3.218-11.263-3.992c-1.916-0.551-3.67-0.911-5.349-1.07l-0.471-8.167c4.04,0.38,8.598,1.603,13.549,3.716
		c2.337,0.932,4.75,2.12,7.214,3.455l0.303-0.072l2.08,0.904c0.117,0.097,0.217,0.193,0.272,0.239l0.045-0.055l0.106,0.048
		c0.261,0.137,0.422,0.229,0.531,0.375l0.05,0.045c14.299,9.879,24.438,18.154,30.358,24.793c0.217,0.243,0.434,0.436,0.698,0.672
		c0.062,0.099,0.11,0.147,0.168,0.198c0.379,0.38,0.712,0.819,1.091,1.31c0.103-0.004,0.209-0.013,0.303-0.017
		c0.003,0.101-0.032,0.208-0.076,0.305l0.86,0.059c0.526,0.327,1.017,0.958,1.435,1.903c0.35,0.84,0.681,1.33,1.045,1.414
		c0.519,0.125,0.825,0.155,0.918,0.1c0.051-0.104,0.1-0.158,0.203-0.163L621.238,482.419z M582.553,455.206
		c0.058,0.048,0.062,0.147,0.065,0.201C582.614,455.354,582.61,455.254,582.553,455.206"/>
	<path fill="#074691" d="M560.162,441.617l0.465,8.166c-4.764-0.443-8.612,0.74-11.505,3.602v0.052
		c-0.236,0.316-0.571,0.644-0.911,0.915c0.009,0.055,0.009,0.055-0.045,0.055c-2.174,2.158-3.505,4.676-4.053,7.604
		c-0.899,3.77-0.322,7.702,1.691,11.815c0.167,0.297,0.34,0.589,0.4,0.84c0.54,1.293,1.173,2.686,2.022,4.162
		c3.55,6.975,8.604,13.656,15.181,20.148c-4.343-2.904-13.963-4.035-28.945-3.441c-1.114,0.111-2.23,0.176-3.293,0.235
		c-0.865-0.004-1.731-0.057-2.594-0.057c-4.523,0.053-8.306,0.827-11.423,2.325c-5.499,1.736-8.714,4.363-9.688,7.824
		c-1.92,6.471-1.842,12.266,0.172,17.346c1.533,4.541,4.911,8.421,10.187,11.733c1.479,0.986,3.112,1.962,4.888,2.929
		c1.95,1.012,4.188,1.953,6.682,2.828c-0.055,0.055-0.095,0.16-0.14,0.211c8.752,2.814,20.845,5.082,36.255,6.8
		c-2.983,0.323-12.534,0.663-28.647,1.015c-3.688,0.414-6.903,0.998-9.609,1.764l-0.049,0.055
		c-7.312,2.042-10.716,5.797-10.204,11.211c-0.135,12.836,7.756,21.952,23.785,27.348l0.049-0.048
		c0.053,0.045,0.11,0.096,0.159,0.09c0.044-0.054,0.146-0.058,0.192-0.111c0.265,0.085,0.522,0.175,0.825,0.208
		c0.926,0.152,1.389,0.225,1.441,0.222c0.049,0,0.099-0.005,0.151-0.009c6.537,1.409,13.089,2.059,19.748,1.832
		c1.881-0.055,3.653-0.152,5.276-0.297l0.007,0.101c-0.754,0.247-2.658,0.712-5.771,1.396c-3.869,0.88-7.322,1.993-10.398,3.386
		c-2.034,0.979-3.511,1.828-4.38,2.64c-0.441,0.331-1.163,1.033-2.112,2.158c-0.049,0.052-0.147,0.16-0.195,0.213l0.01,0.052
		c-0.33,0.526-0.705,1.058-1.084,1.583l-0.499,1.103l0.004,0.102c-0.044,0.1-0.094,0.208-0.188,0.263l0.009,0.05v0.049
		c0,0.053,0,0.053,0.009,0.101c0,0.056,0,0.056,0,0.104c-1.177,3.43-1.672,6.456-1.521,9.093c0.037,0.659,0.065,1.015,0.113,1.167
		c0.247,0.646,0.671,2.762,1.28,6.438l0.061,0.046l0.004,0.056c0.34,1.606,1.187,2.979,2.518,4.082
		c0.053,0.041,0.106,0.041,0.159,0.09c2.198,1.1,4.887,1.755,8.053,1.986c1.222,0.034,2.386-0.035,3.502-0.146
		c4.461-0.252,8.605-0.74,12.386-1.414l0.458,8.115c-5.638,1.034-11.112,1.444-16.417,1.184c-4.031-0.179-7.528-0.844-10.552-2.051
		c-1.348-1.396-2.958-2.836-4.719-4.306c-0.625-1.191-1.372-2.521-2.21-4.052c-0.171-0.348-0.404-0.691-0.568-0.982
		c-0.685-2.154-1.131-4.62-1.229-7.312c-0.401-8.884,1.077-15.126,4.424-18.827v-0.045c0.144-0.111,0.87-0.817,2.215-2.11
		c0.303-0.276,0.588-0.548,0.834-0.762c-0.058,0.006-0.103,0.006-0.161,0.009c-0.199-0.042-0.862,0-1.926,0.108
		c-0.509,0.028-0.904,0.055-1.215,0.073c-0.054,0-0.15,0.008-0.262-0.041c-0.253-0.035-0.608-0.015-1.065-0.035
		c-0.155-0.046-0.363-0.084-0.516-0.076c-0.254-0.038-0.557-0.071-0.969-0.051c-18.114-6.349-27.371-17.018-27.662-32.063
		c-0.851-8.653,2.848-14.455,10.97-17.415c-2.149-0.994-4.241-2.051-6.186-3.208l-0.053-0.051
		c-13.237-8.098-18.079-19.078-14.585-32.856c3.479-13.985,13.217-20.945,29.142-20.984c6.454-0.014,12.17,0.176,17.02,0.561
		c-2.627-3.364-5.034-7.246-7.264-11.648c-5.114-10.141-3.621-19.691,4.429-28.543C546.866,443.186,552.746,440.967,560.162,441.617
		"/>
	<path fill="#074691" d="M631.395,552.118c0.418-0.786,0.88-1.628,1.288-2.464c0.244,6.145,0.42,11.02,0.567,14.523
		c0.102,2.589,0.208,4.463,0.269,5.631c0.018,0.352,0.042,0.66,0.055,1.015c-0.442,0.229-0.842,0.401-1.229,0.577v0.054
		c-0.218,0.771-0.479,1.449-0.707,2.021c0.016,0.155,0.019,0.256,0.077,0.352c-0.507,1.813-1.119,3.628-1.826,5.552
		c-0.311,0.883-0.608,1.816-0.96,2.804c-1.544,4.157-3.437,8.434-5.582,12.881c-0.179,0.419-0.358,0.837-0.582,1.255
		c-5.97,12.348-15.893,22.274-29.666,29.766c-1.821,1.023-3.691,1.992-5.541,2.856c-1.727,0.863-3.409,1.619-5.153,2.331
		c-0.051,0.004-0.103,0.004-0.201,0.011c-1.156,0.22-2.108,0.531-2.795,0.871c-0.058-0.049-0.115-0.145-0.167-0.194
		c-2.755,0.769-5.471,1.38-8.191,1.839l-0.458-8.115c2.215-0.38,4.327-0.803,6.279-1.322c0.438-0.379,1.039-0.615,1.741-0.81
		c0.653-0.141,1.155-0.268,1.605-0.349v-0.05l1.556-0.344c0.249-0.112,0.545-0.233,0.79-0.399c1.63-0.855,3.112-1.755,4.539-2.596
		c4.689-2.559,8.897-5.445,12.696-8.557c3.833-3.114,8.009-7.63,12.56-13.481c2.353-3.443,4.437-7.021,6.259-10.839
		c1.273-2.615,2.452-5.276,3.456-8.036c0.665-1.812,1.315-3.738,1.875-5.648c0.34-1.189,0.67-2.428,0.964-3.613
		c0.037-0.208,0.074-0.418,0.119-0.618c0.049-0.058,0.042-0.158,0.086-0.26c0.203-0.877,0.354-1.751,0.567-2.626
		c0.482-1.401,0.912-2.753,1.349-4.048C628.437,560.021,629.876,556.685,631.395,552.118"/>
	<path fill="#074691" d="M568.634,591.089l-0.007-0.101c0.15-0.008,0.253-0.011,0.35-0.019
		C568.933,591.022,568.83,591.026,568.634,591.089"/>
	<path fill="#1E95D4" d="M178.302,300.266c-0.703,0.147-1.257,0.264-1.615,0.339c-22.891,5.195-39.719,12.091-50.401,20.722
		c-1.541,1.202-2.951,2.483-4.205,3.785c-3.934,4.004-7.787,9.174-11.52,15.42c-1.248,2.08-2.473,4.264-3.714,6.603
		c-1.243,2.339-2.718,5.354-4.461,9.05l-0.038,0.061c-2.733,5.771-6.066,13.178-9.993,22.274l0.012,0.05
		c-0.34,0.645-0.625,1.272-0.906,1.963l-1.692-3.09c-19.602,43.125-38.586,80.856-56.963,113.262l-1.609,3.094l-0.113-0.031
		C13.893,525.043,4.913,555.95,4.157,586.494c-0.036,0.842-0.076,1.681-0.046,2.56c-0.396,30.527,5.904,57.675,18.923,81.546
		l3.852-1.897c0.09,0.189,0.179,0.379,0.261,0.516l0.009,0.056c12.473,23.256,29.725,41.04,51.685,53.469
		c0.413,0.23,0.781,0.466,1.193,0.69l0.062,0.039c23.229,12.742,48.731,17.72,76.426,14.904c0.364-0.026,0.663-0.086,1.021-0.114
		c17.977-1.929,35.262-4.079,51.853-6.56c5.14-0.756,10.274-1.568,15.31-2.357c30.252-4.911,58.055-10.766,83.396-17.568
		c4.223-1.142,8.391-2.276,12.505-3.441c35.98-10.427,66.663-22.819,92.148-37.242c14.025-7.973,26.5-16.566,37.341-25.75
		c-0.008-0.045-0.008-0.045,0.048-0.011c1.593-1.424,3.203-2.8,4.736-4.214c2.733-2.494,5.372-4.971,7.88-7.521
		c0.88-1.071,1.822-2.103,2.747-3.176c18.188-21.227,29.798-43.275,34.878-66.238c4.256-22.587,2.414-46.972-5.493-73.268
		c-1.516-4.989-3.181-10-5.014-14.979c-0.048,0.009-0.048,0.009-0.01-0.052c-10.297-27.455-26.238-55.039-47.81-82.695l-0.062-0.033
		c-5.881-7.568-12.182-15.102-18.898-22.649c-6.308-7.112-12.987-14.199-20.034-21.312c-3.708-3.701-7.408-7.303-11.085-10.852
		c-0.056,0.009-0.056,0.009-0.06-0.043c-1.237-1.15-2.485-2.342-3.72-3.488c-1.686-1.518-3.361-3.047-4.99-4.531
		c-12.103-10.947-24.269-20.736-36.415-29.393c-1.367-1.013-2.712-1.933-4.06-2.843l-0.009-0.051
		c-5.092-3.519-9.875-6.576-14.268-9.25c-9.348-5.593-17.262-9.301-23.761-11.016C230.076,290.861,187.925,298.357,178.302,300.266"
		/>
	<path fill="none" stroke="#074691" stroke-width="8.1872" stroke-linecap="round" stroke-miterlimit="10" d="M123.911,318.752
		c-0.945,0.767-1.787,1.514-2.603,2.363c-4.478,4.468-8.85,10.435-13.204,17.947c-0.805,1.418-1.66,2.9-2.492,4.427
		c-1.631,2.991-3.498,6.87-5.721,11.551l-0.044,0.059c-2.88,6.067-6.211,13.476-10.08,22.343
		c-19.602,43.125-38.586,80.856-56.963,113.262c-0.58,1.004-1.148,2.064-1.723,3.062c-17.189,31.277-26.169,62.182-26.925,92.731
		c-0.036,0.839-0.073,1.678-0.046,2.557c-0.396,30.527,5.904,57.675,18.923,81.55l0.165,0.327c0.083,0.136,0.104,0.237,0.176,0.33
		c0.065,0.037,0.069,0.086,0.078,0.132c12.864,23.65,30.796,41.655,53.699,54.1c0.43,0.275,0.895,0.492,1.371,0.754
		c0.051-0.012,0.051-0.012,0.111,0.031l0.062,0.037c23.692,12.436,49.701,17.098,77.985,14.056c0.358-0.023,0.758-0.108,1.121-0.127
		c17.97-1.935,35.246-4.135,51.834-6.61l0.106-0.019c5.139-0.766,10.27-1.572,15.304-2.362
		c29.485-4.806,56.653-10.425,81.501-16.859c0.688-0.198,1.394-0.349,2.088-0.542l0.049-0.012c4.224-1.143,8.396-2.271,12.521-3.392
		c35.528-10.068,65.629-21.977,90.383-35.627c0.854-0.438,1.695-0.92,2.5-1.353c-0.008-0.051-0.008-0.051,0.041-0.063
		c8.036-4.485,14.528-8.341,19.569-11.573c7.392-4.825,13.552-9.493,18.521-14.121c4.432-4.148,8.612-8.249,12.443-12.279
		c-0.013-0.045,0.045-0.056,0.082-0.119c0.943-1.027,1.879-2.055,2.818-3.083l0.058-0.014
		c19.586-21.777,31.765-44.148,36.512-67.148l0.037-0.114c0.008-0.21,0.061-0.428,0.131-0.599l0.086-0.594
		c4.203-19.557,1.624-43.994-7.8-73.3c-1.008-3.067-2.063-6.123-3.199-9.269c-0.66-1.943-1.385-3.876-2.091-5.757
		c-0.01-0.056-0.01-0.056-0.017-0.101c-11.456-30.703-24.574-55.596-39.36-74.627c-2.577-3.313-5.017-6.447-7.377-9.442
		c-0.059-0.032-0.059-0.032-0.065-0.083c-7.216-9.162-13.437-16.814-18.602-22.973l-0.065-0.037
		c-3.406-4.02-6.312-7.369-8.809-10.023c-6.019-6.446-13.51-13.936-22.469-22.418l-0.05,0.008c-1.237-1.143-2.435-2.352-3.673-3.498
		c-0.058-0.043-0.058-0.043-0.119-0.08c-1.562-1.447-3.191-2.929-4.825-4.459c-0.053-0.043-0.121-0.131-0.183-0.167
		c-13.304-12.163-27.177-22.583-41.692-31.265c-5.157-3.082-10.079-6.061-14.716-8.894c-8.123-4.965-15.436-9.58-21.928-13.788
		c-0.303-0.199-0.548-0.356-0.851-0.554c-0.863,0.13-1.723,0.311-2.576,0.486c-78.87,13.864-121.024,21.361-126.494,22.559
		c-0.556,0.112-1.059,0.22-1.595,0.384c-0.052,0.012-0.109,0.022-0.151,0.034c-23.776,5.534-40.969,12.923-51.599,22.063
		C124.036,318.62,123.943,318.688,123.911,318.752z"/>
	<path fill="#1E95D4" d="M369.169,661.285l0.106,0.009c0.643,0.631,5.564,18.618,14.663,53.998
		c9.287,36.099,14.041,54.427,14.277,54.943l12.727,2.888c30.878,0.463,56.232,4.545,76.015,12.304
		c9.593,3.743,18.72,9.149,27.425,16.171c4.013,3.245,7.396,8.296,10.264,15.168c2.819,6.866,3.743,12.393,2.837,16.584
		c-1.504,6.715-7.433,12.013-17.847,15.872c-28.925,10.701-75.83,8.614-140.666-6.205c-32.414-7.387-61.939-15.888-88.528-25.459
		l-2.573-5.129c-0.227-0.67-0.405-1.394-0.585-2.165c-0.474-3.828-0.842-6.537-1.038-8.224c-0.443-3.225,1.267-24.841,5.053-64.915
		c3.784-40.123,5.499-61.799,5.203-64.961v-0.056l82.623-10.874L369.169,661.285z"/>
	<path fill="none" stroke="#074691" stroke-width="8.1369" stroke-linecap="round" stroke-miterlimit="10" d="M369.169,661.285
		l-0.045-0.051l-82.623,10.874v0.056c0.296,3.162-1.419,24.838-5.203,64.961c-3.786,40.074-5.496,61.69-5.053,64.915
		c0.196,1.687,0.564,4.392,1.038,8.224c0.18,0.771,0.358,1.495,0.585,2.165l2.573,5.129c26.589,9.571,56.114,18.072,88.528,25.459
		c64.836,14.819,111.741,16.906,140.666,6.205c10.414-3.859,16.343-9.157,17.847-15.872c0.906-4.191-0.018-9.718-2.837-16.584
		c-2.867-6.872-6.251-11.923-10.264-15.168c-8.705-7.021-17.832-12.428-27.425-16.171c-19.782-7.759-45.137-11.841-76.015-12.308
		l-12.727-2.884c-0.236-0.517-4.99-18.845-14.277-54.943c-9.099-35.38-14.021-53.367-14.663-53.998L369.169,661.285z"/>
	<path fill="#1E95D4" d="M359.572,111.417c-7.704-12.934-16.313-23.176-25.812-30.677c-12.612-9.877-27.35-15.386-44.262-16.462
		c-0.384-0.037-0.821-0.063-1.255-0.08c-1.577-0.088-3.202-0.153-4.858-0.159c-1.387,0.01-2.772,0.023-4.187,0.103
		c0.151-0.85,0.307-1.7,0.417-2.536c0.073-0.29,0.078-0.61,0.134-0.905c0.009-0.159,0.009-0.323,0.062-0.498
		c0.732-6.592-0.053-13.235-2.315-19.833l-0.041-0.148l-0.033-0.1c-0.093-0.125-0.159-0.323-0.208-0.468
		c-0.105-0.339-0.196-0.627-0.36-0.955C272.115,25.998,263.2,16.973,250.1,11.587c-13.05-5.41-26.386-5.489-40.074-0.323
		c-13.613,5.246-23.542,14.182-29.727,26.791c-2.379,4.77-3.947,9.592-4.719,14.378c-3.616-2.798-7.737-5.169-12.347-7.069
		c-13.059-5.405-26.383-5.484-40.082-0.316c-8.707,3.358-15.921,8.228-21.621,14.643c-3.189,3.581-5.858,7.634-8.105,12.148
		c-5.553,11.229-6.771,22.515-3.583,33.848c0,0.16,0.028,0.256,0.069,0.402c0.36,1.281,0.825,2.572,1.287,3.866
		c2.014,5.296,4.728,9.931,8.137,13.974c0.071,0.032,0.104,0.128,0.182,0.208c0.098,0.135,0.225,0.196,0.313,0.327
		c0.099,0.132,0.131,0.229,0.226,0.359c0.38,0.682,0.236,1.581-0.552,2.63c-0.028,0.068-0.114,0.143-0.151,0.209
		c-0.11,0.144-0.221,0.29-0.339,0.427c-0.698,0.494-1.45,1.001-2.288,1.536c-0.682,0.376-1.401,0.818-2.164,1.276
		c-0.854,0.484-1.81,1.003-2.804,1.585c-0.144,0.049-0.244,0.08-0.372,0.176c-20.673,11.078-36.58,22.558-47.657,34.427
		c-0.289,0.254-0.563,0.556-0.842,0.858c-12.974,14.127-20.485,30.471-22.437,48.997v19.29l6.092,27.987l2.869,8.331
		c1.21,3.3,2.503,6.681,3.958,10.068c1.703,4,3.663,7.811,5.882,11.431c4.119,6.863,9.106,13.131,15.003,18.892
		c3.661,3.595,7.609,6.929,11.978,10.079c14.531,10.546,31.924,17.984,52.172,22.331c5.903,1.269,11.934,2.235,17.976,2.926
		l55.249-1.042c20.027-3.066,40.425-8.982,61.261-17.709l85.763-59.08c7.397-8.128,13.984-16.801,19.842-26.098
		c0.261-0.352,0.464-0.732,0.67-1.071c10.782-17.164,17.462-34.422,19.975-51.842c1.807-11.957,1.541-23.361-0.719-34.292
		l-2.709-10.522c-0.781-2.259-1.613-4.563-2.554-6.827C368.978,129.205,364.467,119.748,359.572,111.417"/>
	<path fill="none" stroke="#074691" stroke-width="8.1453" stroke-linecap="round" stroke-miterlimit="10" d="M379.609,146.445
		c-2.057-6.771-5.207-14.156-9.451-22.099c-3.047-5.712-5.65-10.339-7.725-13.84c-0.822-1.397-1.578-2.598-2.224-3.624
		l-9.876-14.536l-10.91-11.271c-1.1-0.935-2.85-2.245-5.329-3.969c-3.062-2.072-5.724-3.733-8.003-4.983
		c-6.76-3.624-12.874-6.213-18.246-7.815c-8.697-2.624-17.452-3.254-26.388-1.953c2.382-2.419,3.024-7.113,1.858-13.958
		c-1.167-6.839-2.907-12.646-5.118-17.394c-2.207-4.745-5.355-8.922-9.441-12.538c-4.109-3.661-9.273-6.773-15.468-9.446
		c-6.192-2.678-12.901-4.281-20.129-4.808c-4.085-0.245-8.181-0.172-12.305,0.291c-7.457,0.927-14.394,3.305-20.883,7.082
		c-5.081,2.85-9.534,6.295-13.44,10.323c-3.914,3.969-7.537,10.043-10.879,18.167l-1.279,8.899 M174.374,48.971
		c-3.591-3.716-6.986-6.16-10.108-7.409c-3.141-1.298-6.25-2.339-9.285-3.138c-3.035-0.794-7.17-1.185-12.366-1.075
		c-5.206,0.104-11.084,1.126-17.646,3.162c-6.564,2.041-11.811,4.514-15.749,7.422c-3.935,2.917-7.075,5.467-9.293,7.727
		c-2.239,2.205-4.446,4.99-6.571,8.392c-2.188,3.372-4.358,8.124-6.58,14.231c-2.174,6.091-2.954,12.375-2.313,18.906
		c0.625,6.485,1.916,12.058,3.906,16.61c1.985,4.547,4.914,8.211,8.791,10.981c-1.09,0.615-4.302,2.438-9.62,5.362
		c-5.368,2.946-9.688,5.497-12.997,7.671c-3.319,2.181-7.508,4.958-12.546,8.435c-5.102,3.444-10.474,7.883-16.083,13.249
		c-5.66,5.389-10.459,11.46-14.345,18.203c-3.906,6.694-7.081,13.852-9.531,21.42c-2.436,7.613-3.772,15.31-3.959,23.117
		c-0.137,4.427,0.049,8.862,0.469,13.37c0.736,7.679,1.979,15.245,3.771,22.742c1.632,6.798,3.693,13.413,6.166,19.839
		c2.771,7.187,6.275,13.98,10.54,20.479c4.417,6.659,9.425,12.813,15.03,18.507c5.279,5.317,11.071,9.936,17.323,13.768
		c5.707,3.477,11.541,6.53,17.514,9.17c7.297,3.285,14.813,5.911,22.597,7.871c7.326,1.832,14.778,3.086,22.307,3.735
		c5.275,0.456,13.132,0.624,23.631,0.54l37.778-2.368c6.606-0.562,13.032-1.858,19.276-3.899l33.169-10.949
		c3.347-1.07,8.068-3.371,14.087-6.949l37.165-25.74c4.502-3.146,9.038-6.196,13.634-9.207c6.662-4.418,13.122-9.149,19.5-14.12
		c6.263-4.993,12.003-10.454,17.28-16.358c4.498-5.018,8.625-10.338,12.388-15.972c1.21-1.724,2.514-4.012,3.987-6.778
		c1.463-2.769,3.501-6.786,6.128-11.943c2.583-5.154,4.793-10.782,6.565-16.794c1.761-6.061,3.343-12.658,4.657-19.763
		c1.32-7.098,1.646-14.47,1.046-22.188c-0.6-7.773-2.108-15.358-4.476-22.785"/>
	<path fill="#FFFFFF" d="M276.854,38.699C272.115,25.994,263.2,16.975,250.1,11.587c-13.05-5.41-26.386-5.489-40.074-0.323
		c-13.613,5.246-23.542,14.182-29.727,26.791c-2.379,4.765-3.947,9.592-4.719,14.381c-3.616-2.801-7.737-5.176-12.347-7.073
		c-13.059-5.405-26.383-5.484-40.082-0.316c-13.605,5.245-23.532,14.18-29.727,26.787c-6.282,12.638-6.98,25.368-2.227,38.119
		c4.877,12.769,13.805,21.838,26.891,27.18c13.087,5.348,26.462,5.405,40.106,0.26c13.593-5.138,23.521-14.068,29.694-26.728
		c2.381-4.765,3.941-9.592,4.715-14.378c3.619,2.798,7.738,5.169,12.357,7.069c13.083,5.338,26.47,5.405,40.104,0.251
		c13.601-5.133,23.521-14.066,29.697-26.725C281.029,64.197,281.728,51.466,276.854,38.699"/>
	<path fill="#0E0205" d="M343.811,117.122l-4.849-14.215c-28.799,36.91-77.003,63.07-144.536,78.557
		c-21.109,4.857-42.927,8.338-65.454,10.438l-27.347,1.72c25.296,50.348,63.528,73.541,114.752,69.452
		c15.97-1.189,32.258-5.101,48.932-11.64c8.322-3.237,15.06-6.406,20.235-9.445c39.119-22.135,59.749-51.965,61.952-89.486
		C348.105,140.822,346.908,129.015,343.811,117.122"/>
	<path fill="#1E95D4" d="M133.604,309.871c1.313,0.598,2.559,1.159,3.873,1.757c-1.376-0.791-2.749-1.582-4.121-2.372
		C133.483,309.487,133.545,309.674,133.604,309.871"/>
	
		<line fill="none" stroke="#4D2110" stroke-width="6.1121" stroke-linecap="round" stroke-linejoin="round" stroke-miterlimit="10" x1="171.058" y1="278.16" x2="170.976" y2="278.402"/>
	<path fill="#784328" d="M230.019,290.097c-0.932-0.398-2.934-1.309-6.006-2.735c-2.128-0.98-4.479-1.296-7.084-0.945
		c-0.352-0.586-0.686-1.121-0.998-1.611c0-0.16-0.076-0.238-0.142-0.277l-0.018-0.044c-0.157,0-0.384-0.039-0.64-0.01
		c-0.855,0.004-2.228,0.23-4.147,0.574c0.069,0.887-0.083,3.769-0.52,8.61c-0.31,4.212-0.261,6.71,0.159,7.538
		c2.686,0.694,4.642,0.977,5.863,0.962c2.047-0.117,3.529-0.162,4.413-0.07c2.806,0.065,5.11,0.084,6.903,0.041
		c3.346-0.1,5.141-0.674,5.377-1.765c0.188-0.758,0.008-1.816-0.543-3.197c-0.712-1.582-1.1-3.121-1.168-4.54
		C231.338,291.226,230.864,290.416,230.019,290.097"/>
	<path fill="#784328" d="M182.431,274.11c0.404-0.239,0.672-0.59,0.781-1.109c0.799-3.832-0.1-6.81-2.647-8.935
		c-1.079-0.882-3.624-2.159-7.726-3.791c-0.417-0.134-0.867-0.045-1.316,0.367c-1.765,1.688-2.667,2.562-2.696,2.625
		c-2.219,1.936-3.56,3.429-3.941,4.408c-0.368,1.026-0.716,1.78-1.091,2.271c-0.426,0.507-0.074,1.789,1.074,3.879
		c1.168,2.138,3.01,3.586,5.467,4.241c0.199-0.058,0.393-0.121,0.616-0.245c3.889-1.721,7.171-2.821,9.747-3.272
		C181.562,274.382,182.16,274.249,182.431,274.11"/>
	<path fill="#784328" d="M194.267,297.484c0.069-0.289,0.123-0.787,0.058-1.51c0.032-0.708,0.121-1.113,0.125-1.272
		c-0.837-0.431-2.67-1.338-5.462-2.698c-2.601-1.305-4.427-2.49-5.486-3.489l-1.871-1.005c-0.122,0.629-0.491,1.492-1.132,2.499
		c-0.636,1.167-1.021,1.82-1.042,1.933c-0.354,1.24,0,2.514,1.002,3.799c1.124,1.514,2.892,2.875,5.372,4.112
		c0.188,0.1,1.644-0.2,4.244-0.925C192.792,298.219,194.201,297.771,194.267,297.484"/>
	
		<path fill="none" stroke="#0E0205" stroke-width="8.1453" stroke-linecap="round" stroke-linejoin="round" stroke-miterlimit="10" d="
		M230.019,290.095c0.846,0.319,1.319,1.129,1.451,2.531c0.068,1.424,0.456,2.958,1.168,4.543c0.551,1.377,0.73,2.439,0.543,3.193
		c-0.236,1.091-2.034,1.665-5.377,1.765c-1.793,0.043-4.098,0.029-6.903-0.041c-0.884-0.087-2.366-0.047-4.409,0.074
		c-1.222,0.014-3.182-0.272-5.867-0.965c-0.42-0.829-0.469-3.328-0.159-7.54c0.437-4.841,0.589-7.724,0.52-8.61
		c1.92-0.344,3.292-0.564,4.147-0.572c0.256-0.026,0.482,0.008,0.64,0.012l0.021,0.046c0.062,0.035,0.139,0.118,0.139,0.275
		c0.312,0.486,0.646,1.025,0.998,1.608c2.605-0.352,4.956-0.029,7.084,0.95C227.085,288.785,229.087,289.698,230.019,290.095z
		 M182.431,274.11c-0.273,0.137-0.869,0.276-1.732,0.443c-2.576,0.447-5.863,1.548-9.747,3.266
		c-0.224,0.126-0.417,0.188-0.616,0.248c-2.457-0.655-4.299-2.104-5.467-4.243c-1.148-2.093-1.5-3.367-1.074-3.878
		c0.375-0.494,0.723-1.245,1.091-2.271c0.382-0.979,1.723-2.473,3.941-4.41c0.029-0.062,0.932-0.935,2.696-2.624
		c0.449-0.408,0.899-0.502,1.316-0.367c4.102,1.632,6.646,2.907,7.726,3.791c2.548,2.129,3.446,5.104,2.644,8.935
		C183.103,273.52,182.835,273.871,182.431,274.11z M194.267,297.484c-0.065,0.287-1.475,0.735-4.192,1.442
		c-2.601,0.725-4.056,1.025-4.244,0.925c-2.48-1.238-4.248-2.598-5.372-4.112c-1.002-1.285-1.356-2.56-1.002-3.799
		c0.021-0.112,0.406-0.766,1.042-1.933c0.641-1.007,1.01-1.869,1.132-2.499l1.871,1.005c1.06,1,2.886,2.184,5.486,3.489
		c2.792,1.36,4.625,2.267,5.462,2.698c-0.004,0.16-0.093,0.564-0.125,1.272C194.39,296.697,194.336,297.195,194.267,297.484z"/>
	<path fill="#934823" d="M198.961,270.283c-0.381,0.171-0.589,0.51-0.715,0.97c-0.094,0.519-0.009,0.966,0.229,1.373
		c0.176,0.372,0.423,0.67,0.849,0.802c0.421,0.184,0.797,0.172,1.164,0c0.326-0.159,0.544-0.494,0.646-1.002
		c0.124-0.474,0.025-0.922-0.164-1.344c-0.179-0.419-0.488-0.699-0.918-0.883C199.639,270.063,199.267,270.078,198.961,270.283"/>
	<path fill="#934823" d="M197.72,281.313c-0.376,0.171-0.592,0.506-0.709,0.97c-0.101,0.515-0.015,0.966,0.227,1.376
		c0.17,0.368,0.424,0.667,0.836,0.795c0.438,0.188,0.805,0.176,1.177,0c0.326-0.156,0.543-0.491,0.646-1.003
		c0.114-0.466,0.028-0.917-0.163-1.34c-0.185-0.418-0.49-0.699-0.916-0.882C198.393,281.095,198.029,281.109,197.72,281.313"/>
	<path fill="#934823" d="M189.634,266.52c-0.372,0.172-0.581,0.511-0.702,0.97c-0.11,0.515-0.017,0.97,0.224,1.377
		c0.168,0.368,0.421,0.666,0.842,0.799c0.435,0.184,0.805,0.171,1.173,0c0.321-0.159,0.538-0.495,0.642-1.003
		c0.123-0.47,0.023-0.922-0.159-1.344c-0.189-0.418-0.492-0.699-0.925-0.878C190.314,266.301,189.939,266.315,189.634,266.52"/>
	<path fill="#934823" d="M233.137,269.543c-0.374,0.171-0.585,0.511-0.708,0.97c-0.104,0.516-0.014,0.966,0.225,1.374
		c0.171,0.375,0.426,0.669,0.846,0.798c0.429,0.184,0.801,0.172,1.177,0c0.322-0.155,0.535-0.49,0.638-1.002
		c0.118-0.466,0.032-0.918-0.161-1.34c-0.183-0.419-0.485-0.699-0.922-0.883C233.814,269.325,233.442,269.338,233.137,269.543"/>
	<path fill="#1E95D4" d="M332.11,93.81c-1.148,0.103-2.295,0.362-3.46,0.729c-4.368,1.393-10.893,4.062-19.588,7.953
		c-11.425,5.245-20.948,9.568-28.594,12.91c-30.432,13.333-63.38,25.655-98.794,36.941c-0.682,0.218-2.438,0.402-5.225,0.543
		c-2.792,0.138-4.498,0.31-5.227,0.545c-1.263,0.396-4.582,0.71-9.931,0.864c-5.349,0.151-9.703,0.741-13.004,1.792
		c-0.68,0.217-2.32,0.419-5,0.578c-2.628,0.146-4.286,0.301-5.015,0.531c-0.629,0.196-3.948,0.509-10.009,0.946
		c-6.108,0.452-10.647,1.15-13.604,2.091c-17.515,5.585-28.071,16.216-31.659,31.949c-0.706,3.003-1.125,6.024-1.266,9.116
		c0.013,0.044,0.034,0.096,0.044,0.141c0.994,3.105,1.93,9.062,2.856,17.848c0.257,2.643,0.597,5.213,1.026,7.744
		c2.501,7.166,6.876,15.549,13.167,25.197c9.244,14.103,19.974,26.126,32.19,36.125c15.838,12.964,33.104,21.519,51.899,25.678
		c22.7,5.004,46.953,3.422,72.702-4.786c4.511-1.439,9.127-3.393,13.911-5.824c0.752-0.504,1.528-1.079,2.341-1.709
		c5.189-3.845,8.812-6.067,10.896-6.731c0.044-0.015,2.09-1.312,6.135-3.883c0.396-0.285,0.794-0.519,1.121-0.679
		c9.307-7.027,19.047-15.688,29.22-26.039c7.814-7.993,15.202-16.335,22.225-24.987c5.482-6.77,8.729-11.169,9.792-13.225
		c3.227-6.312,7.402-14.324,12.537-24.035c0.876-1.933,1.774-3.824,2.657-5.761c0.04-0.016,0.139-0.045,0.192-0.061
		c0.245-1.737,0.462-3.408,0.682-5.077c1.253-11.15,0.957-22.807-0.846-35.002c-1.63-10.974-4.681-23.576-9.18-37.695
		c-0.106-0.34-0.234-0.723-0.344-1.066c-0.376-0.682-0.833-1.607-1.43-2.644c-0.061-0.035-0.09-0.131-0.106-0.181
		c-0.328-0.853-1.107-2.64-2.45-5.312l-0.014-0.052C345.461,102.008,338.479,96.856,332.11,93.81 M343.811,117.122
		c3.098,11.893,4.295,23.7,3.686,35.38c-2.203,37.521-22.833,67.352-61.952,89.486c-5.176,3.04-11.913,6.208-20.235,9.445
		c-16.674,6.539-32.962,10.451-48.932,11.64c-51.224,4.089-89.456-19.104-114.752-69.452l27.347-1.72
		c22.527-2.1,44.345-5.581,65.454-10.438c67.533-15.487,115.737-41.647,144.536-78.557L343.811,117.122z"/>
	<path fill="#1E95D4" d="M238.43,692.812h0.104c0.664,0.61,6.233,18.447,16.615,53.553c10.585,35.826,16.003,54.014,16.26,54.526
		l12.844,2.432c30.94-0.638,56.479,2.55,76.572,9.615c9.733,3.404,19.064,8.496,28.04,15.216c4.135,3.104,7.708,8.044,10.82,14.822
		c3.068,6.778,4.191,12.28,3.43,16.508c-1.263,6.781-7.021,12.29-17.313,16.533c-28.577,11.749-75.63,11.334-141.084-1.202
		c-32.731-6.23-62.605-13.699-89.576-22.338l-2.754-5.045c-0.254-0.663-0.462-1.379-0.661-2.137
		c-0.619-3.824-1.084-6.528-1.338-8.211c-0.563-3.21,0.389-24.923,2.751-65.191c2.353-40.315,3.296-62.083,2.892-65.242V706.6
		l82.355-13.839L238.43,692.812z"/>
	<path fill="none" stroke="#074691" stroke-width="8.1537" stroke-linecap="round" stroke-miterlimit="10" d="M238.43,692.812
		l-0.044-0.051L156.03,706.6v0.051c0.404,3.159-0.539,24.927-2.892,65.242c-2.362,40.269-3.314,61.981-2.751,65.191
		c0.254,1.687,0.719,4.387,1.338,8.211c0.199,0.758,0.407,1.474,0.661,2.137l2.754,5.045c26.971,8.639,56.845,16.107,89.576,22.338
		c65.454,12.536,112.507,12.951,141.084,1.202c10.293-4.243,16.051-9.752,17.313-16.533c0.762-4.228-0.361-9.729-3.43-16.508
		c-3.112-6.778-6.686-11.719-10.82-14.822c-8.976-6.72-18.307-11.812-28.04-15.216c-20.094-7.065-45.632-10.253-76.572-9.615
		l-12.844-2.432c-0.257-0.513-5.675-18.7-16.26-54.526c-10.382-35.105-15.951-52.942-16.615-53.553H238.43z"/>
	<path fill="#1E95D4" d="M304.847,292.892c-79.294,13.999-121.565,21.62-126.89,22.783c-25.991,5.879-44.047,13.86-54.214,23.959
		c-5.225,5.149-10.291,12.278-15.219,21.331c-3.312,6.062-8.461,16.814-15.422,32.311c-18.969,41.727-37.738,78.952-56.302,111.667
		c-16.767,29.574-25.702,59.582-26.698,89.938c-0.966,28.282,4.942,54.081,17.705,77.349c12.468,22.823,29.825,40.165,52.074,52.021
		c23.236,12.354,48.808,16.943,76.684,13.881c142.431-15.642,240.753-47.411,295.005-95.401
		c44.401-39.312,57.877-87.67,40.463-145.169c-13.667-45.248-43.744-90.621-90.161-136.252
		c-18.387-18.031-36.91-33.472-55.459-46.299C328.939,302.855,315.127,295.51,304.847,292.892"/>
	<path fill="#1E95D4" d="M408.377,367.468c0.103,0.255,0.188,0.451,0.274,0.603l0.217,0.012c-0.045-0.264-0.11-0.631-0.189-0.994
		C408.614,367.268,408.524,367.387,408.377,367.468"/>
	<path fill="#1E95D4" d="M406.31,330.657c0.356,1.616,1.034,2.954,2.076,3.903c4.184,3.885,6.999,7.656,8.478,11.286l6.123-1.183
		L406.31,330.657z"/>
</g>
</svg>
