<?xml version="1.0" encoding="utf-8"?>
<!-- Generator: Adobe Illustrator 16.0.0, SVG Export Plug-In . SVG Version: 6.00 Build 0)  -->
<!DOCTYPE svg PUBLIC "-//W3C//DTD SVG 1.1//EN" "http://www.w3.org/Graphics/SVG/1.1/DTD/svg11.dtd">
<svg version="1.1" id="レイヤー_1" xmlns="http://www.w3.org/2000/svg" xmlns:xlink="http://www.w3.org/1999/xlink" x="0px"
	 y="0px" width="50.696px" height="26.724px" viewBox="0 0 50.696 26.724" enable-background="new 0 0 50.696 26.724"
	 xml:space="preserve">
<g>
	<path fill="none" d="M362.816,902.783c0,5.5-4.5,10-10,10H-925.129c-5.5,0-10-4.5-10-10v-27.558V33.344c0-5.5,4.5-10,10-10H352.816
		c5.5,0,10,4.5,10,10v839.881V902.783z"/>
</g>
<path fill="#231815" d="M14.602,17.752c4.249-3.924,8.682-6.456,13.298-7.557c5.237-1.183,10.569-0.376,15.934,2.356
	c1.17,0.642,2.37,0.737,3.595,0.402c1.201-0.435,2.121-1.218,2.755-2.431c0.563-1.087,0.661-2.296,0.306-3.573
	c-0.368-1.321-1.161-2.295-2.338-2.827C40.614,0.11,33.148-0.987,25.739,0.891C19.373,2.386,13.272,5.883,7.401,11.444
	c-1.71,1.668-3.328,3.462-4.853,5.393c-1.147,1.597-1.741,2.42-1.789,2.438c-0.719,1.091-0.928,2.275-0.625,3.566
	c0.261,1.306,0.952,2.315,2.034,3.038c1.039,0.741,2.244,0.997,3.664,0.757c1.324-0.368,2.334-1.066,2.93-2.055l-0.037-0.096
	C11.236,21.282,13.183,19.002,14.602,17.752"/>
</svg>
