<?xml version="1.0" encoding="utf-8"?>
<!-- Generator: Adobe Illustrator 16.0.0, SVG Export Plug-In . SVG Version: 6.00 Build 0)  -->
<!DOCTYPE svg PUBLIC "-//W3C//DTD SVG 1.1//EN" "http://www.w3.org/Graphics/SVG/1.1/DTD/svg11.dtd">
<svg version="1.1" id="レイヤー_1" xmlns="http://www.w3.org/2000/svg" xmlns:xlink="http://www.w3.org/1999/xlink" x="0px"
	 y="0px" width="333.649px" height="299.864px" viewBox="0 0 333.649 299.864" enable-background="new 0 0 333.649 299.864"
	 xml:space="preserve">
<g>
	
		<line fill="none" stroke="#074691" stroke-width="8.1035" stroke-linecap="round" stroke-miterlimit="10" x1="240.945" y1="108.44" x2="213.38" y2="111.621"/>
	<path fill="#1E95D4" d="M10.688,274.11c9.201,4.595,18.811,8.513,28.908,11.806c40.439,13.207,80.927,12.9,121.384-0.896
		c40.471-13.96,71.898-39.049,94.333-75.331c16.865-27.345,26.078-56.741,27.673-88.154l-11.171,1.187l-0.217-0.009l-1.699,0.201
		c1.799-5.534,2.603-8.827,2.406-9.877c-0.195-1.1-0.467-1.648-0.81-1.749c-0.163-0.024-0.266-0.003-0.417,0.081
		c-1.748,0.208-2.827,0.248-3.239,0.108c-0.69-0.255-1.431-0.439-2.246-0.456c0.007,0.055-0.2,0.363-0.577,0.979
		c-0.294,0.486-0.363,1.254-0.172,2.306c0.442,2.413,0.36,5.462-0.217,9.149l-59.993,6.28c-3.356-2.91-6.304-5.671-8.846-8.294
		c0.932,0.047,2.202,0.466,3.856,1.245c1.981,0.99,3.473,1.744,4.543,2.254l0.164-0.574c-0.729-1.552-2.616-3.312-5.64-5.308
		c-2.474-1.653-4.819-2.903-7.029-3.744c-0.622,1.037-0.592,2.389,0.064,3.944c0.809,1.424,1.234,2.268,1.267,2.422
		c-0.489-0.012-1.349,0.035-2.477,0.08c-1.021,0.08-1.707,0.151-2.07,0.223c0.923,2.698,3.235,4.932,6.867,6.702
		c1.132,0.552,2.48,1.059,4.041,1.59l-7.239,0.786l0.103,0.847C145.01,198.348,87.194,212.039,18.79,172.975L10.688,274.11z"/>
	<path fill="#1E95D4" d="M271.324,122.108c0.103,0.255,0.188,0.451,0.274,0.603l0.217,0.012c-0.045-0.263-0.11-0.631-0.189-0.994
		C271.561,121.908,271.471,122.028,271.324,122.108"/>
	<path fill="#1E95D4" d="M269.256,85.298c0.356,1.616,1.034,2.954,2.076,3.904c4.184,3.885,6.999,7.656,8.478,11.286l6.123-1.183
		L269.256,85.298z"/>
	
		<path fill="none" stroke="#074691" stroke-width="8.5302" stroke-linecap="round" stroke-linejoin="round" stroke-miterlimit="10" d="
		M282.986,121.532c-1.595,31.413-10.808,60.812-27.673,88.155c-22.435,36.283-53.862,61.37-94.333,75.336
		c-40.457,13.793-80.944,14.098-121.384,0.893c-10.098-3.293-19.707-7.215-28.908-11.806c-2.145-1.067-4.308-2.189-6.423-3.372
		 M15.26,170.91c1.163,0.707,2.366,1.351,3.525,2.062c68.408,39.064,126.225,25.373,173.453-41.062 M269.899,122.913l1.699-0.202
		l0.217,0.014l11.171-1.192 M283.091,102.974c0.231,6.295,0.231,12.479-0.105,18.558 M192.136,131.058l7.236-0.787 M204.634,129.731
		l59.993-6.28"/>
	<path fill="#1E95D4" d="M158.043,102.947c6.279,5.84,12.986,11.054,20.164,15.588c6.59,4.259,10.861,6.237,12.764,6l49.022,8.91
		c10.181-2.146,19.573-5.017,28.079-8.59c3.227-4.55,7.161-8.797,11.879-12.867c2.845-2.531,5.149-5.344,6.999-8.551
		c9.136-16.002,21.162-27.54,36.128-34.581c0.119-0.239,0.185-0.47,0.253-0.698c3.714-12.229,4.286-23.504,1.691-33.763
		c-2.482-9.675-6.389-14.38-11.703-14.105c-13.561,0.819-21.417,6.165-23.532,16.156c-0.561,2.866-0.78,6.974-0.591,12.411
		c0.046,1.401,0.067,2.699,0.018,3.899c-0.127-1.548-0.45-3.274-0.861-5.257c-1.213-6.555-3.391-12.822-6.606-18.793
		c-8.817-16.646-20.418-23.177-34.801-19.661c-7.88,1.069-11,8.529-9.363,22.435c3.284,15.169,5.005,24.231,5.279,27.165
		c-6.833-18.535-13.36-31.32-19.48-38.374c-10.136-11.742-22.11-14.036-35.96-6.823c-6.08,3.181-7.986,12.535-5.675,28.047
		c2.198,14.287,5.189,23.168,9.017,26.582c-7.992-4.543-15.901-7.752-23.774-9.556c-12.148-2.689-20.525-0.77-25.162,5.833
		C135.222,73.814,140.625,86.693,158.043,102.947"/>
	<path fill="#1E95D4" d="M286.951,103.435c-1.85,3.214-4.154,6.021-6.999,8.551c-4.718,4.071-8.652,8.318-11.879,12.869
		c11.615-4.902,21.755-11.107,30.276-18.641c11.999-10.51,20.277-22.985,24.729-37.36
		C308.113,75.896,296.086,87.437,286.951,103.435"/>
	<path fill="#1E95D4" d="M194.494,134.833c0.412,0.739,0.624,1.346,0.719,1.817c0.074,0.419,0.184,0.726,0.388,0.965
		c3.143,0.232,7.797,1.379,14.091,3.47c11.893,3.938,20.261,6.411,25.117,7.465c8.303,1.778,16.007,2.418,23.019,1.94
		c0.657-3.485,1.363-7.027,2.058-10.626c1.953-1.442,3.947-3.274,5.99-5.438c0.294-0.168,0.593-0.332,0.882-0.495
		c1.688-0.902,3.166-1.665,4.4-2.325c0.148,0.787,0.303,1.626,0.465,2.519c0.32,1.727,0.482,2.024,0.548,0.927l1.345-0.088
		c-0.021-0.372,0.516-2.204,1.533-5.484c0.302-0.113,0.55-0.264,0.787-0.417c0.638-0.391,1.26-0.83,1.785-1.197
		c0.104-0.941,0.237-1.991,0.458-3.117c0.561-2.87,1.427-4.923,2.639-6.288c0.005-0.271-0.056-0.59-0.122-0.95
		c1.39-0.694,2.722-1.425,4.049-2.163c1.819-1.038,3.608-2.181,5.3-3.305c2.557-1.716,4.979-3.573,7.329-5.526
		c3.442-2.803,6.572-5.82,9.503-9.066c4.836-6.096,8.399-11.472,10.63-16.167c2.23-4.639,4.125-9.65,5.568-15.069
		c0.408-1.322,0.806-2.693,1.191-4.12L150.081,94.168c0.73,1.004,1.45,1.958,2.226,2.953c1.472,1.788,3.216,3.582,5.213,5.326
		c2.126,1.828,5.528,4.683,10.292,8.514c4.776,3.836,9.426,6.99,13.956,9.518c4.481,2.539,7.309,4.076,8.457,4.682l0.045-0.014
		l0.555,0.064c0.545,0.008,0.92,0.263,1.162,0.702c0.064,0.052,0.067,0.101,0.134,0.144l0.086,0.146
		c0.257,0.225,0.719,0.409,1.382,0.452c0.874,0.053,1.482,0.375,1.816,1.017c0.01,0.053,0.013,0.108,0.079,0.15
		c0.15,0.569,0.477,1.432,0.904,2.598c0.034,0.16,0.051,0.264,0.071,0.368c-0.662,1.097-1.079,2.368-1.188,3.849L194.494,134.833z
		 M234.164,123.839l0.352,1.618c-1.158,0.485-3.081,0.347-5.758-0.352c-1.413-0.335-3.084-0.841-5.094-1.446l0.31-0.114
		c1.676-0.033,3.626-0.012,5.758,0.08C232.08,123.732,233.555,123.787,234.164,123.839 M274.282,118.561
		c-0.571,0.432-1.074,0.904-1.528,1.419c-2.741,0.669-6.074,2.042-9.874,4.096c0.241-1.343,0.527-2.752,0.802-4.212
		c1.283-6.85,4.261-10.107,8.972-9.84c1.82,0.155,3.521,0.87,5.013,2.171c1.548,1.334,2.482,2.898,2.806,4.683
		c0.017,0.052,0.021,0.104,0.034,0.159c-0.205-0.829-0.65-1.18-1.269-1.013c-0.362,0.12-0.656,0.284-0.975,0.61
		c-0.308,0.384-1.01,1-2.031,1.896c-0.065-0.047-0.114-0.035-0.168-0.026C275.791,118.499,275.193,118.499,274.282,118.561"/>
	<path fill="#1E95D4" d="M289.063,54.9c-0.272-1.789-0.637-3.732-1.07-5.819c-1.417-6.839-3.714-13.358-6.769-19.678
		c-0.009-0.055-0.018-0.106-0.029-0.155c-0.009-0.055-0.208-0.507-0.583-1.413c-0.12-0.303-0.268-0.55-0.418-0.793
		c0.04-0.057,0.025-0.164,0.064-0.225c-0.011-0.059-0.073-0.096-0.138-0.139l0.041-0.061c-9.486-15.009-20.742-20.789-33.783-17.468
		c-5.655,0.824-8.641,5.221-8.909,13.187l-0.042,0.063c-0.109,2.949,0.098,6.379,0.589,10.25c3.639,16.511,5.658,26.33,6.074,29.456
		c-5.579-15.296-10.896-27.057-15.928-35.284c-0.051,0.057-0.141,0.128-0.185,0.192c-1.517-2.327-3.031-4.375-4.548-6.104
		c-1.417-1.577-2.819-2.999-4.195-4.267c-4.686-4.556-9.479-7.037-14.497-7.468c-5.668-0.795-11.601,0.566-17.722,4.134
		c-3.296,1.853-5.177,5.777-5.576,11.817c-0.756,3.552-0.604,7.591,0.462,12.222c0.217,0.882,0.485,1.752,0.702,2.635
		c0.205,1.101,0.418,2.256,0.576,3.414c3.113,15.425,6.656,24.962,10.699,28.666c-8.257-5.102-16.325-8.598-24.318-10.484
		c-1.72-0.498-3.294-0.805-4.745-1.025c-0.27-0.004-0.612-0.104-0.96-0.203c-4.685-1.036-8.845-0.647-12.46,1.21
		c-2.856,1.289-5.092,3.272-6.759,6.018c0.01,0.049,0.01,0.049-0.039,0.062c-0.193,0.418-0.446,0.841-0.704,1.161l-0.056,0.007
		c-2.938,4.932-2.445,10.86,1.597,17.813c1.217,2.435,2.754,4.918,4.646,7.551l174.084-32.077c0.086-0.397,0.237-0.743,0.333-1.146
		c0.109-0.289,0.158-0.624,0.213-0.904l-0.034-1.672l0.049-0.013c-0.035-0.482-0.028-1.026-0.042-1.724
		c0.014-0.766,0.113-1.43,0.386-1.975c0.078-5.806-0.548-12.416-1.834-19.717c-0.165-1.162-0.389-2.367-0.725-3.605
		c-1.016-3.176-2.355-5.748-4.023-7.719c-0.065-0.042-0.069-0.096-0.139-0.136c-1.447-1.09-3.052-1.608-4.783-1.558l-0.05,0.013
		l-0.065-0.048c-3.906,0.284-6.169,0.378-6.888,0.294c-0.155-0.023-0.532,0.041-1.211,0.172c-2.724,0.496-5.698,1.752-8.896,3.805
		c-0.053,0.009-0.053,0.009-0.102,0.021c-0.054,0.01-0.054,0.01-0.111,0.019l-0.046,0.008l-0.056,0.008
		c-0.033,0.117-0.123,0.188-0.227,0.26c-0.044,0.008-0.044,0.008-0.106,0.02l-0.994,0.778c-0.443,0.52-0.888,1.035-1.345,1.494
		l-0.055,0.012c-0.04,0.059-0.13,0.184-0.165,0.248c-0.908,1.252-1.451,2.164-1.676,2.694c-0.612,1.092-1.107,2.807-1.606,5.121
		c-0.656,3.485-0.936,7.274-0.873,11.436C289.149,52.444,289.173,54.612,289.063,54.9"/>
	<path fill="#074691" d="M184.978,132.034c0.111-0.025,0.201-0.096,0.298-0.168l0.267,0.875c0.462,0.458,1.229,0.805,2.299,0.989
		c0.948,0.15,1.529,0.367,1.701,0.714c0.255,0.495,0.366,0.799,0.331,0.911c-0.09,0.076-0.137,0.139-0.115,0.243l1.597-0.454
		c0.118,0.354,0.148,0.514,0.155,0.565l2.983-0.876l0.772-0.2c0.113-1.482,0.53-2.748,1.192-3.845
		c-0.021-0.104-0.04-0.212-0.071-0.368c-0.428-1.172-0.754-2.032-0.904-2.598c-0.066-0.041-0.069-0.096-0.079-0.151
		c-0.334-0.639-0.942-0.966-1.816-1.02c-0.663-0.042-1.125-0.222-1.382-0.447l-0.086-0.147c-0.066-0.046-0.069-0.096-0.134-0.143
		c-0.245-0.44-0.617-0.699-1.162-0.703l-0.555-0.063l-0.045,0.01c-1.148-0.602-3.976-2.139-8.457-4.677
		c-4.53-2.528-9.18-5.682-13.956-9.517c-4.764-3.836-8.166-6.682-10.292-8.515c-1.997-1.744-3.737-3.54-5.213-5.324
		c-2.899-3.698-5.225-7.171-6.871-10.507c-0.393-0.68-0.788-1.366-1.14-2.061l-8.491,1.564c1.399,3.158,3.396,6.367,5.912,9.748
		c1.544,2.158,3.347,4.321,5.325,6.504v0.327l1.438,1.899c0.126,0.088,0.257,0.172,0.314,0.217l-0.044,0.063l0.068,0.096
		c0.212,0.23,0.342,0.368,0.52,0.444l0.064,0.043c13.613,12.131,24.578,20.411,32.81,24.802c0.303,0.164,0.553,0.335,0.862,0.544
		c0.12,0.038,0.18,0.075,0.242,0.122c0.486,0.289,1.013,0.515,1.604,0.792C184.941,131.825,184.961,131.926,184.978,132.034
		 M154.214,102.461c-0.049,0.008-0.158,0.03-0.216-0.013C154.056,102.491,154.166,102.469,154.214,102.461"/>
	<path fill="#074691" d="M135.804,86.12l8.491-1.565c-2.954-6.071-3.105-11.301-0.457-15.748l0.056-0.012
		c0.258-0.316,0.511-0.739,0.704-1.154c0.052-0.012,0.052-0.012,0.039-0.067c1.667-2.744,3.902-4.727,6.759-6.012
		c3.615-1.857,7.775-2.245,12.46-1.214c0.348,0.1,0.69,0.203,0.96,0.207c1.451,0.217,3.025,0.528,4.745,1.02
		c7.989,1.892,16.062,5.389,24.318,10.485c-4.043-3.703-7.586-13.24-10.699-28.662c-0.158-1.163-0.371-2.318-0.571-3.417
		c-0.222-0.882-0.49-1.752-0.707-2.638c-1.066-4.626-1.214-8.663-0.462-12.22c0.399-6.036,2.28-9.96,5.576-11.812
		c6.121-3.573,12.054-4.934,17.729-4.134c5.012,0.43,9.805,2.908,14.49,7.468c1.376,1.262,2.778,2.686,4.199,4.267
		c1.513,1.728,3.027,3.776,4.544,6.103c0.044-0.062,0.134-0.134,0.185-0.196c5.036,8.233,10.349,19.992,15.928,35.282
		c-0.416-3.118-2.436-12.938-6.074-29.454c-0.491-3.871-0.698-7.3-0.589-10.246l0.042-0.068c0.269-7.96,3.254-12.362,8.909-13.182
		c13.041-3.325,24.297,2.456,33.783,17.461l-0.041,0.068c0.064,0.042,0.127,0.08,0.138,0.138c-0.039,0.058-0.024,0.161-0.064,0.225
		c0.15,0.243,0.298,0.487,0.418,0.792c0.375,0.908,0.574,1.36,0.583,1.409c0.012,0.051,0.021,0.106,0.029,0.156
		c3.055,6.327,5.352,12.844,6.769,19.683c0.434,2.088,0.798,4.029,1.07,5.82c0.11-0.292,0.09-2.455,0.03-6.618
		c-0.062-4.168,0.217-7.953,0.873-11.438c0.499-2.319,0.994-4.035,1.606-5.121c0.225-0.531,0.768-1.444,1.676-2.695
		c0.035-0.063,0.125-0.188,0.165-0.251l0.058-0.008c0.454-0.459,0.898-0.975,1.342-1.493l0.994-0.779
		c0.062-0.012,0.062-0.012,0.106-0.021c0.097-0.071,0.193-0.146,0.227-0.259l0.056-0.012l0.046-0.007
		c0.058-0.004,0.058-0.004,0.111-0.019c0.049-0.009,0.049-0.009,0.102-0.021c3.198-2.054,6.173-3.305,8.896-3.808
		c0.679-0.125,1.052-0.192,1.211-0.167c0.723,0.079,2.981-0.009,6.888-0.297l0.065,0.046l0.05-0.014
		c1.731-0.045,3.336,0.474,4.783,1.557c0.069,0.048,0.073,0.096,0.139,0.143c1.668,1.97,3.008,4.54,4.023,7.714
		c0.336,1.244,0.56,2.448,0.725,3.612c1.032,5.936,1.651,11.345,1.806,16.311l8.392-1.548c-0.199-7.229-1.178-14.044-3.049-20.364
		c-1.181-4.067-2.729-7.469-4.706-10.25c-1.765-1.03-3.624-2.308-5.572-3.744c-1.361-0.347-2.905-0.762-4.677-1.25
		c-0.389-0.088-0.798-0.235-1.142-0.332c-2.364-0.163-4.991-0.003-7.762,0.561c-9.155,1.795-15.145,4.854-18.091,9.192l-0.053,0.008
		c-0.072,0.176-0.618,1.087-1.603,2.791c-0.203,0.359-0.408,0.722-0.566,1.025c-0.012-0.055-0.025-0.104-0.032-0.155
		c-0.086-0.207-0.217-0.883-0.364-1.996c-0.1-0.523-0.179-0.942-0.233-1.254c-0.008-0.055-0.028-0.16-0.101-0.256
		c-0.104-0.251-0.168-0.619-0.309-1.084c-0.081-0.146-0.17-0.348-0.199-0.506c-0.106-0.246-0.213-0.556-0.294-0.975
		C273.71,4.218,260.538-2.572,245.112,0.868c-9.028,1.289-14.032,6.492-15.03,15.508c-1.548-1.933-3.142-3.812-4.805-5.509
		l-0.068-0.043C213.663-0.66,201.275-2.872,188.083,4.11c-13.396,7.025-18.074,18.674-14.164,34.924
		c1.59,6.588,3.195,12.367,4.798,17.219c-4.079-1.849-8.64-3.338-13.679-4.522c-11.616-2.689-20.979,1.204-28.006,11.611
		C132.321,69.845,131.883,77.465,135.804,86.12"/>
	<path fill="#074691" d="M279.364,132.915c0.229,0.933,0.299,1.029,0.324,0.267l3.115-0.74c0.014-0.49,0.529-2.426,1.533-5.811
		c0.233-0.799,0.417-1.541,0.503-2.259l0.049-0.012c0.739-0.411,1.368-0.85,1.891-1.214c0.165-0.032,0.268-0.051,0.375-0.016
		c1.727-0.971,3.426-2.037,5.214-3.234c0.818-0.535,1.696-1.077,2.614-1.679c4.182-2.882,8.522-6.125,12.887-9.802
		c11.108-9.148,18.765-21.728,22.992-37.634c0.585-2.108,1.107-4.268,1.547-6.351c0.44-1.982,0.795-3.89,1.091-5.845
		c-0.018-0.049-0.027-0.104-0.039-0.205c-0.067-1.233,0.009-2.279,0.189-3.073c-0.061-0.043-0.178-0.076-0.236-0.119
		c0.04-1.849,0.081-3.697,0.02-5.48l-8.392,1.548c0.049,1.13,0.035,2.268,0.028,3.405c-0.272,0.545-0.372,1.209-0.386,1.975
		c0.014,0.698,0.007,1.242,0.042,1.724l-0.049,0.013l0.028,1.672c-0.049,0.28-0.098,0.615-0.207,0.904
		c-0.467,1.878-1.019,3.607-1.524,5.271c-1.443,5.418-3.338,10.427-5.568,15.065c-2.23,4.695-5.794,10.069-10.63,16.165
		c-2.931,3.252-6.056,6.267-9.503,9.066c-2.35,1.955-4.772,3.812-7.329,5.531c-1.691,1.121-3.48,2.268-5.3,3.305
		c-1.327,0.732-2.659,1.463-4.049,2.158c0.066,0.365,0.127,0.678,0.122,0.949c-1.212,1.365-2.078,3.417-2.639,6.288
		c-0.216,1.126-0.354,2.175-0.458,3.117c-0.147,1.549-0.127,2.846,0.073,3.892c0.201,1.107,0.412,1.661,0.643,1.728l0.274-0.268
		L279.364,132.915z"/>
</g>
</svg>
