<?xml version="1.0" encoding="utf-8"?>
<!-- Generator: Adobe Illustrator 16.2.1, SVG Export Plug-In . SVG Version: 6.00 Build 0)  -->
<!DOCTYPE svg PUBLIC "-//W3C//DTD SVG 1.1//EN" "http://www.w3.org/Graphics/SVG/1.1/DTD/svg11.dtd">
<svg version="1.1" xmlns="http://www.w3.org/2000/svg" xmlns:xlink="http://www.w3.org/1999/xlink" x="0px" y="0px"
	 width="241.865px" height="351.501px" viewBox="0 0 241.865 351.501" enable-background="new 0 0 241.865 351.501"
	 xml:space="preserve">
<g id="base">
</g>
<g id="book3">
</g>
<g id="_x38_">
	<g>
		<path fill="#0052A3" d="M151.143,318.986c54.202,6.407,50.853-24.651,21.341-21.205c0.021-0.022,0.041-0.051,0.063-0.072
			c-3.989,0.458-8.517,1.464-13.561,3.161c-2.988,0.698-6.69,1.976-9.954,2.644c0.567,6.853,0.713,10.869,0.996,13.087l0.002,0.002
			C150.238,318.262,150.529,318.916,151.143,318.986"/>
		<path fill="none" stroke="#0052A3" stroke-width="5.824" stroke-linecap="round" stroke-linejoin="round" d="M151.143,318.986
			c54.202,6.407,50.853-24.651,21.341-21.205c0.021-0.022,0.041-0.051,0.063-0.072c-3.989,0.458-8.517,1.464-13.561,3.161
			c-2.988,0.698-6.69,1.976-9.954,2.644c0.567,6.853,0.713,10.869,0.996,13.087l0.002,0.002
			C150.238,318.262,150.529,318.916,151.143,318.986z"/>
		<path fill="#FFFFFF" d="M150.037,316.632c-0.272-2.142-0.424-5.974-0.941-12.413c3.408,1.063,8.793,4.48,9.389,15.467
			c-2.318-0.145-4.758-0.361-7.332-0.667c-0.614-0.073-0.906-0.728-1.113-2.384L150.037,316.632z"/>
		<path fill="#FFFFFF" d="M180.955,297.795c17.029,2.211,18.721,18.391-6.701,21.561
			C172.805,307.573,176.787,301.203,180.955,297.795"/>
		<path fill="#005EAD" d="M149.095,304.221c-0.021-0.227-0.035-0.446-0.055-0.677c3.264-0.669,6.967-1.946,9.954-2.64
			c5.044-1.7,9.572-2.704,13.56-3.166c-0.021,0.025-0.043,0.049-0.064,0.07c3.131-0.362,5.959-0.338,8.465-0.014
			c-4.168,3.408-8.149,9.778-6.701,21.561c-4.418,0.548-9.655,0.705-15.77,0.328C157.887,308.699,152.503,305.282,149.095,304.221"
			/>
		<path fill="#FFFFFF" d="M176.035,297.121c-3.633,0.492-3.646,0.501-5.168,1.81c-1.625,1.396-3.57,3.174-4.745,4.98
			c-0.334,0.511-0.542,0.789,0.11,1.074c0.458,0.198,1.05,0.299,1.543,0.285c0.555-0.013,0.887-0.185,1.187-0.646
			C169.361,304.001,174.673,298.352,176.035,297.121"/>
		<path fill="#0052A3" d="M145.757,317.723h0.004c-0.805-2.09-2.58-5.691-5.332-11.994c-3.191,0.958-7.058,1.596-10.016,2.397
			c-5.249,0.899-9.71,2.164-13.439,3.648c0.029,0.013,0.061,0.024,0.093,0.034c-27.616,10.974-15.825,39.901,28.847,8.544
			C146.417,319.994,146.365,319.28,145.757,317.723"/>
		<path fill="none" stroke="#0052A3" stroke-width="5.824" stroke-linecap="round" stroke-linejoin="round" d="M145.757,317.723
			h0.004c-0.805-2.09-2.58-5.691-5.332-11.994c-3.191,0.958-7.058,1.596-10.016,2.397c-5.249,0.899-9.71,2.164-13.439,3.648
			c0.029,0.013,0.061,0.024,0.093,0.034c-27.616,10.974-15.825,39.901,28.847,8.544C146.417,319.994,146.365,319.28,145.757,317.723
			z"/>
		<path fill="#FFFFFF" d="M145.768,317.752c-0.776-2.016-2.462-5.458-5.06-11.371c-2.496,2.553-5.615,8.113-0.928,18.066
			c1.973-1.225,4.018-2.575,6.139-4.063c0.507-0.359,0.453-1.073-0.154-2.632H145.768z"/>
		<path fill="#FFFFFF" d="M109.616,315.846c-13.938,10.021-7.751,25.068,16.13,15.795
			C121.427,320.585,114.9,316.862,109.616,315.846"/>
		<path fill="#005EAD" d="M140.708,306.381c-0.092-0.206-0.18-0.407-0.271-0.62c-3.191,0.959-7.058,1.594-10.016,2.396
			c-5.249,0.9-9.709,2.165-13.439,3.651c0.029,0.011,0.062,0.023,0.093,0.034c-2.927,1.164-5.409,2.527-7.459,4.001
			c5.284,1.02,11.812,4.742,16.13,15.798c4.147-1.611,8.83-3.959,14.035-7.193C135.093,314.492,138.212,308.932,140.708,306.381"/>
		<path fill="#FFFFFF" d="M113.628,312.916c3.432-1.291,3.445-1.291,5.404-0.86c2.092,0.459,4.648,1.098,6.54,2.134
			c0.538,0.289,0.851,0.438,0.415,0.998c-0.309,0.391-0.785,0.758-1.224,0.984c-0.493,0.251-0.872,0.255-1.349-0.01
			C122.767,315.805,115.41,313.35,113.628,312.916"/>
		<path fill="#4AB034" d="M110.794,299.999c2.033,4.729,3.319,7.883,3.319,7.883s16.873-0.604,25.573-4.925
			c-0.783-3.03-1.385-5.351-1.865-7.239c-0.848-3.347-1.832-8.5-2.246-10.422c0.434-0.188,8.025-1.974,8.5-2.007
			c0.549,1.882,1.676,6.858,2.516,10.192c0.475,1.894,1.047,4.23,1.795,7.28c9.711-0.325,24.85-7.8,24.85-7.8
			s-0.262-3.468-0.722-8.668c-0.767-8.666-2.087-22.156-3.667-32.414c-0.068-0.429-0.143-0.852-0.215-1.279
			c-4.432,2.985-15.916,9.836-33.841,14.402c-17.942,4.487-31.303,3.906-36.618,3.38c0.14,0.409,0.27,0.819,0.414,1.229
			C102.082,279.439,107.354,292.009,110.794,299.999"/>
		<path fill="none" stroke="#3B801C" stroke-width="5.6781" d="M110.794,299.999c2.033,4.729,3.319,7.883,3.319,7.883
			s16.873-0.604,25.573-4.925c-0.783-3.03-1.385-5.351-1.865-7.239c-0.848-3.347-1.832-8.5-2.246-10.422
			c0.434-0.188,8.025-1.974,8.5-2.007c0.549,1.882,1.676,6.858,2.516,10.192c0.475,1.894,1.047,4.23,1.795,7.28
			c9.711-0.325,24.85-7.8,24.85-7.8s-0.262-3.468-0.722-8.668c-0.767-8.666-2.087-22.156-3.667-32.414
			c-0.068-0.429-0.143-0.852-0.215-1.279c-4.432,2.985-15.916,9.836-33.841,14.402c-17.942,4.487-31.303,3.906-36.618,3.38
			c0.14,0.409,0.27,0.819,0.414,1.229C102.082,279.439,107.354,292.009,110.794,299.999"/>
		<path fill="#4AB034" d="M110.794,299.999c2.033,4.729,3.319,7.883,3.319,7.883s16.873-0.604,25.573-4.925
			c-0.783-3.03-1.385-5.351-1.865-7.239c-0.848-3.347-1.832-8.5-2.246-10.422c0.434-0.188,8.025-1.974,8.5-2.007
			c0.549,1.882,1.676,6.858,2.516,10.192c0.475,1.894,1.047,4.23,1.795,7.28c9.711-0.325,24.85-7.8,24.85-7.8
			s-0.262-3.468-0.722-8.668c-0.767-8.666-2.087-22.156-3.667-32.414c-0.068-0.429-0.143-0.852-0.215-1.279
			c-4.432,2.985-15.916,9.836-33.841,14.402c-17.942,4.487-31.303,3.906-36.618,3.38c0.14,0.409,0.27,0.819,0.414,1.229
			C102.082,279.439,107.354,292.009,110.794,299.999"/>
		<path fill="#0052A3" d="M168.948,252.761c-4.463-27.865-14.646-53.759-26.93-76.941l-2.339-8.153l-54.875,15.66l1.336,7.728
			c0.272,25.693,3.579,52.686,12.576,78.752C106.933,270.701,134.876,271.878,168.948,252.761"/>
		<path fill="none" stroke="#0052A3" stroke-width="5.824" stroke-linecap="round" stroke-linejoin="round" d="M168.948,252.761
			c-4.463-27.865-14.646-53.759-26.93-76.941l-2.339-8.153l-54.875,15.66l1.336,7.728c0.272,25.693,3.579,52.686,12.576,78.752
			C106.933,270.701,134.876,271.878,168.948,252.761z"/>
		<path fill="#EE7A00" d="M107.85,150.853c3.114,1.122,44.936,46.399,79.087-2.789c-2.768-2.274-11.582-0.256-6.822-9.302
			c3.212-6.104,9.985-0.738,11.938-0.779c-1.557-5.008,5.817-24.193,12.645-21.014c10.547,4.912-2.814,13.186-2.672,16.772
			c2.717-2.233,16.21-8.501,18.842,3.444c1.832,8.289-11.031,8.291-11.514,6.884c1.011,1.259,3.223,15.334-14.729,10.097
			c-41.767,54.229-85.378,9.229-86.749,9.278"/>
		<path fill="none" stroke="#EE7A00" stroke-width="5.6781" d="M107.85,150.853c3.114,1.122,44.936,46.399,79.087-2.789
			c-2.768-2.274-11.582-0.256-6.822-9.302c3.212-6.104,9.985-0.738,11.938-0.779c-1.557-5.008,5.817-24.193,12.645-21.014
			c10.547,4.912-2.814,13.186-2.672,16.772c2.717-2.233,16.21-8.501,18.842,3.444c1.832,8.289-11.031,8.291-11.514,6.884
			c1.011,1.259,3.223,15.334-14.729,10.097c-41.767,54.229-85.378,9.229-86.749,9.278"/>
		<path fill="#FFE100" d="M202.025,133.741c-0.143-3.587,13.219-11.86,2.672-16.771c-6.827-3.181-14.201,16.004-12.645,21.013
			c-1.952,0.041-8.726-5.324-11.938,0.779c-4.76,9.044,4.055,7.027,6.822,9.302c-1.693,2.44-3.408,4.64-5.139,6.634
			c-2.584,2.984-5.202,5.492-7.831,7.566c-3.16,2.493-6.333,4.365-9.491,5.724c-3.817,1.638-7.606,2.524-11.312,2.823
			c-4.256,0.342-8.401-0.076-12.342-1.004c0.324,3.107,0.899,6.988,1.911,10.673c4.534,0.616,9.361,0.618,14.384-0.298
			c4.318-0.791,8.783-2.269,13.33-4.627c3.516-1.826,7.08-4.168,10.668-7.143c2.957-2.451,5.934-5.341,8.908-8.688
			c1.535-1.729,3.068-3.569,4.601-5.559c17.486,5.102,15.847-8.119,14.809-9.969c1.192,1.27,13.206,1.015,11.435-7.012
			C218.235,125.24,204.74,131.509,202.025,133.741"/>
		<path fill="#0052A3" d="M195.174,163.186c0,0-16.662-9.078-18.857-11.789c0,0-6.239,9.91-27.777,18.8l-1.376,24.648
			C147.164,194.845,180.316,188.707,195.174,163.186"/>
		<path fill="none" stroke="#0052A3" stroke-width="5.824" stroke-linecap="round" stroke-linejoin="round" d="M195.174,163.186
			c0,0-16.662-9.078-18.857-11.789c0,0-6.239,9.91-27.777,18.8l-1.376,24.648C147.164,194.845,180.316,188.707,195.174,163.186z"/>
		<path fill="#EE7A00" d="M89.437,210.432c-9.068,9.018-22.41,24.263-23.934,39.272c1.295-0.253,13.342,8.057,11.112,13.139
			c-1.579,3.586-7.532,0.71-9.37-0.372c1.236,1.113,4.684,10.595,2.295,12.346c-5.458,4.01-9.277-3.951-11.854-9.708
			c0.4,1.986,4.213,10.52,0.715,11.266c-6.036,2.151-9.948-9.448-9.375-10.973c-0.296,2.48,2.629,8.29-3.498,9.052
			c-3.756,0.468-8.64-20.292,10.41-26.31c2.099-15.416,15.622-33.688,24.359-40.217"/>
		<path fill="none" stroke="#EE7A00" stroke-width="5.6781" d="M89.437,210.432c-9.068,9.018-22.41,24.263-23.934,39.272
			c1.295-0.253,13.342,8.057,11.112,13.139c-1.579,3.586-7.532,0.71-9.37-0.372c1.236,1.113,4.684,10.595,2.295,12.346
			c-5.458,4.01-9.277-3.951-11.854-9.708c0.4,1.986,4.213,10.52,0.715,11.266c-6.036,2.151-9.948-9.448-9.375-10.973
			c-0.296,2.48,2.629,8.29-3.498,9.052c-3.756,0.468-8.64-20.292,10.41-26.31c2.099-15.416,15.622-33.688,24.359-40.217"/>
		<path fill="#FFE100" d="M89.437,210.432c-9.068,9.018-22.41,24.263-23.934,39.272c1.295-0.253,13.342,8.057,11.112,13.139
			c-1.579,3.586-7.532,0.71-9.37-0.372c1.236,1.113,4.684,10.595,2.295,12.346c-5.458,4.01-9.277-3.951-11.854-9.708
			c0.4,1.986,4.213,10.52,0.715,11.266c-6.035,2.151-9.948-9.448-9.375-10.973c-0.296,2.48,2.632,8.288-3.498,9.052
			c-3.756,0.468-8.64-20.292,10.41-26.31c2.099-15.416,15.622-33.688,24.359-40.217"/>
		<path fill="#0052A3" d="M47.525,243.486c0,0,23.229,0.912,26.879,2.896c0,0,0.201-11.671,17.168-36.531l-5.574-23.044
			C85.998,186.808,52.285,208.631,47.525,243.486"/>
		<path fill="none" stroke="#0052A3" stroke-width="5.824" stroke-linecap="round" stroke-linejoin="round" d="M47.525,243.486
			c0,0,23.229,0.912,26.879,2.896c0,0,0.201-11.671,17.168-36.531l-5.574-23.044C85.998,186.808,52.285,208.631,47.525,243.486z"/>
		<path fill="#0076BE" d="M55.135,220.685l24.326,9.94c1.251-2.678,2.815-5.713,4.757-9.099l-19.456-15.095
			C61.339,210.598,57.992,215.37,55.135,220.685"/>
		<path fill="#ED7623" d="M47.525,243.486c0,0,23.229,0.912,26.879,2.896c0,0,0.059-3.34,2.709-10.242l-26.967-3.921
			C48.966,235.802,48.062,239.561,47.525,243.486"/>
		<path fill="#A6CE57" d="M50.146,232.22l26.967,3.921c0.625-1.638,1.396-3.474,2.35-5.513l-24.327-9.941
			C53.202,224.286,51.495,228.137,50.146,232.22"/>
		<path fill="#ED7623" d="M91.573,209.851L86,186.809c0,0-5.061,3.273-11.531,9.311l15.3,16.424
			C90.35,211.663,90.945,210.769,91.573,209.851"/>
		<path fill="#A6CE57" d="M89.768,212.543l-15.3-16.426c-3.049,2.843-6.408,6.299-9.706,10.314l19.456,15.095
			C85.801,218.769,87.634,215.778,89.768,212.543"/>
		<path fill="#0076BE" d="M152.98,168.142l5.669,23.339c4.599-1.702,10.115-4.15,15.65-7.581l-11.13-21.122
			C160.217,164.703,156.81,166.579,152.98,168.142"/>
		<path fill="#A6CE57" d="M145.292,170.644l1.871,24.201c0.038-0.009,4.785-0.89,11.485-3.366l-5.669-23.337
			C150.582,169.123,148.015,169.975,145.292,170.644"/>
		<path fill="#ED7623" d="M135.244,172.105l11.92,22.739l0,0l-1.871-24.201C142.141,171.418,138.792,171.948,135.244,172.105"/>
		<path fill="#A6CE57" d="M172.276,155.634c-2.203,2.069-5.266,4.643-9.106,7.144l11.13,21.122
			c4.86-3.009,9.731-6.774,14.017-11.447L172.276,155.634z"/>
		<path fill="#ED7623" d="M195.174,163.186c0,0-16.662-9.078-18.857-11.789c0,0-1.405,1.754-4.042,4.236l16.041,16.818
			C190.848,169.693,193.176,166.615,195.174,163.186"/>
		<path fill="#0076BE" d="M110.425,176.012l-8.949,2.559c2.879,21.771,9.674,66.713,19.346,90.7
			c4.452-0.593,9.395-1.512,14.74-2.901C132.284,253.164,117.058,199.379,110.425,176.012"/>
		<path fill="#0076BE" d="M142.018,175.819l-2.339-8.153l-6.952,1.982c6.38,13.479,18.601,42.932,27.948,87.417
			c2.711-1.308,5.469-2.73,8.272-4.305C164.485,224.896,154.301,199.002,142.018,175.819"/>
		<path fill="#ED7623" d="M90.925,181.58l-6.123,1.746l1.338,7.728c0.272,25.693,3.579,52.686,12.576,78.753
			c1.939,0.211,4.994,0.432,8.95,0.408C95.215,228.016,91.825,196.969,90.925,181.58"/>
		<path fill="#A6CE57" d="M101.476,178.568l-10.551,3.012c0.899,15.39,4.29,46.436,16.741,88.635
			c3.651-0.024,8.081-0.27,13.155-0.944C111.15,245.283,104.357,200.342,101.476,178.568"/>
		<path fill="#A6CE57" d="M132.727,169.648l-10.375,2.963c7.712,20.271,23.341,63.654,26.247,89.622
			c3.891-1.452,7.926-3.163,12.076-5.168C151.328,212.58,139.109,183.127,132.727,169.648"/>
		<path fill="#ED7623" d="M122.352,172.611l-11.927,3.4c6.633,23.367,21.858,77.152,25.137,90.36
			c4.123-1.079,8.484-2.434,13.037-4.139C145.691,236.263,130.064,192.882,122.352,172.611"/>
		<polygon fill="#FFFFFF" points="128.664,186.139 118.75,211.469 97.809,193.111 		"/>
		<path fill="#E73826" d="M142.349,176.467c-0.114-0.215-0.225-0.433-0.338-0.646l-2.335-8.154l-54.88,15.661l1.342,7.727
			c0.004,0.618,0.021,1.243,0.033,1.864C96.697,191.73,115.863,187.99,142.349,176.467"/>
		<path fill="#0052A3" d="M77.73,176.076c-1.139,2.619,3.16,12.676,5.543,14.062c14.795,8.639,58.029-5.467,60.018-17.871
			c0.562-3.513,0.348-13.323-3.971-12.418C137.155,160.303,78.658,173.656,77.73,176.076"/>
		<path fill="none" stroke="#0052A3" stroke-width="5.824" stroke-linecap="round" stroke-linejoin="round" d="M77.73,176.076
			c-1.139,2.619,3.16,12.676,5.543,14.062c14.795,8.639,58.029-5.467,60.018-17.871c0.562-3.513,0.348-13.323-3.971-12.418
			C137.155,160.303,78.658,173.656,77.73,176.076"/>
		<path fill="#0052A3" d="M77.73,176.076c-1.139,2.619,3.16,12.676,5.543,14.062c14.795,8.639,58.029-5.467,60.018-17.871
			c0.562-3.513,0.348-13.323-3.971-12.418C137.155,160.303,78.658,173.656,77.73,176.076"/>
		<path fill="none" stroke="#0052A3" stroke-width="5.824" stroke-linecap="round" stroke-linejoin="round" d="M77.73,176.076
			c-1.139,2.619,3.16,12.676,5.543,14.062c14.795,8.639,58.029-5.467,60.018-17.871c0.562-3.513,0.348-13.323-3.971-12.418
			C137.155,160.303,78.658,173.656,77.73,176.076"/>
		<path fill="#0052A3" d="M77.73,176.076c-1.139,2.619,3.16,12.676,5.543,14.062c14.795,8.639,58.029-5.467,60.018-17.871
			c0.562-3.513,0.348-13.323-3.971-12.418C137.155,160.303,78.658,173.656,77.73,176.076"/>
		<path fill="none" stroke="#0052A3" stroke-width="5.824" stroke-linecap="round" stroke-linejoin="round" d="M77.73,176.076
			c-1.139,2.619,3.16,12.676,5.543,14.062c14.795,8.639,58.029-5.467,60.018-17.871c0.562-3.513,0.348-13.323-3.971-12.418
			C137.155,160.303,78.658,173.656,77.73,176.076"/>
		<path fill="#FFFFFF" d="M77.73,176.076c-1.139,2.619,3.16,12.676,5.543,14.062c14.795,8.639,58.029-5.467,60.018-17.871
			c0.562-3.513,0.348-13.323-3.971-12.418C137.155,160.303,78.658,173.656,77.73,176.076"/>
		<path fill="#FFFFFF" d="M77.73,176.076c-1.139,2.619,3.16,12.676,5.543,14.062c14.795,8.639,58.029-5.467,60.018-17.871
			c0.562-3.513,0.348-13.323-3.971-12.418C137.155,160.303,78.658,173.656,77.73,176.076"/>
		<path fill="#FFFFFF" d="M77.73,176.076c-1.139,2.619,3.16,12.676,5.543,14.062c14.795,8.639,58.029-5.467,60.018-17.871
			c0.562-3.513,0.348-13.323-3.971-12.418C137.155,160.303,78.658,173.656,77.73,176.076"/>
		<path fill="#EE7A00" d="M136.076,122.344c2.337,9.262,9.961,15.32,17.03,13.537c7.065-1.783,10.897-10.734,8.562-19.996
			c-2.338-9.258-9.959-15.32-17.023-13.538C137.574,104.131,133.739,113.086,136.076,122.344"/>
		<path fill="none" stroke="#EE7A00" stroke-width="5.6781" d="M136.076,122.344c2.337,9.262,9.961,15.32,17.03,13.537
			c7.065-1.783,10.897-10.734,8.562-19.996c-2.338-9.258-9.959-15.32-17.023-13.538
			C137.574,104.131,133.739,113.086,136.076,122.344z"/>
		<path fill="#EE7A00" d="M36.559,146.67c2.337,9.258,9.96,15.318,17.027,13.534c7.063-1.782,10.901-10.734,8.565-19.993
			c-2.338-9.262-9.964-15.323-17.028-13.541C38.056,128.454,34.222,137.407,36.559,146.67"/>
		<path fill="none" stroke="#EE7A00" stroke-width="5.6781" d="M36.559,146.67c2.337,9.258,9.96,15.318,17.027,13.534
			c7.063-1.782,10.901-10.734,8.565-19.993c-2.338-9.262-9.964-15.323-17.028-13.541C38.056,128.454,34.222,137.407,36.559,146.67z"
			/>
		<path fill="#FFE100" d="M136.076,122.344c2.337,9.262,9.961,15.32,17.03,13.537c7.065-1.783,10.897-10.734,8.562-19.996
			c-2.338-9.258-9.959-15.32-17.023-13.538C137.574,104.131,133.739,113.086,136.076,122.344"/>
		<path fill="#FFE100" d="M36.559,146.67c2.337,9.258,9.96,15.318,17.027,13.534c7.063-1.782,10.901-10.734,8.565-19.993
			c-2.338-9.262-9.964-15.323-17.028-13.541C38.056,128.454,34.222,137.407,36.559,146.67"/>
		<path fill="#EE7A00" d="M76.558,177.284c-16.195-6.279-26.564-25.358-29.057-47C43.323,94.023,57.728,60.137,79.669,54.6
			c21.947-5.539,50.703,17.454,64.234,51.354c8.451,21.189,6,42.369-4.674,57.204c0,0-12.188,12.686-32.509,15.441
			C106.721,178.6,92.984,183.646,76.558,177.284"/>
		<path fill="none" stroke="#EE7A00" stroke-width="5.6781" d="M76.558,177.284c-16.195-6.279-26.564-25.358-29.057-47
			C43.323,94.023,57.728,60.137,79.669,54.6c21.947-5.539,50.703,17.454,64.234,51.354c8.451,21.189,6,42.369-4.674,57.204
			c0,0-12.188,12.686-32.509,15.441C106.721,178.6,92.984,183.646,76.558,177.284z"/>
		<path fill="#FFE100" d="M76.558,177.284c-16.195-6.279-26.564-25.358-29.057-47C43.323,94.023,57.728,60.137,79.669,54.6
			c21.947-5.539,50.703,17.454,64.234,51.354c8.451,21.189,6,42.369-4.674,57.204c0,0-12.188,12.686-32.509,15.441
			C106.721,178.6,92.984,183.646,76.558,177.284"/>
		<path fill="#FFFFFF" d="M60.618,117.85c2.203,8.734,10.713,14.121,19.002,12.027c8.288-2.09,13.224-10.869,11.021-19.604
			c-2.205-8.733-10.715-14.117-19.002-12.025C63.347,100.34,58.414,109.117,60.618,117.85"/>
		<path fill="#FFFFFF" d="M126.814,101.143c2.204,8.734-2.729,17.514-11.02,19.606c-8.287,2.091-16.793-3.296-18.998-12.03
			c-2.203-8.732,2.729-17.508,11.016-19.6C116.103,87.026,124.61,92.41,126.814,101.143"/>
		<path fill="#231815" d="M69.664,116.391c1.082,4.284,5.258,6.928,9.326,5.9c4.07-1.027,6.492-5.336,5.412-9.619
			c-1.082-4.289-5.26-6.932-9.33-5.903C71.003,107.795,68.582,112.104,69.664,116.391"/>
		<path fill="#F19000" d="M82.859,138.857c3.203,12.691,13.643,20.993,23.322,18.551c9.68-2.443,14.934-14.705,11.73-27.397
			c-3.203-12.688-13.647-20.997-23.327-18.554S79.656,126.17,82.859,138.857"/>
		<path fill="#231815" d="M118.075,104.173c1.08,4.284-1.341,8.593-5.411,9.62c-4.065,1.025-8.244-1.617-9.325-5.9
			c-1.083-4.288,1.343-8.598,5.407-9.623C112.816,97.242,116.993,99.885,118.075,104.173"/>
		<path fill="none" stroke="#231815" stroke-width="6.5516" stroke-linecap="round" d="M56.857,95.986
			c0,0,26.771-23.096,61.842-16.447"/>
		<path fill="#E73534" d="M70.345,159.529c0,0,34.893,9.257,69.099-17.439c0,0-3.747,21.051-28.011,28.633
			C111.433,170.723,84.082,179.368,70.345,159.529"/>
		<path fill="#EF91B0" d="M94.556,160.682c1.715,3.03,4.629,8.369,13.002,6.004c11.668-3.293,9.429-9.598,8.852-11.523
			C107.083,158.094,103.333,159.193,94.556,160.682"/>
		<path fill="#0E0000" d="M107.765,56.488c-2.676,2.065-4.775,3.632-8.021,4.771c-2.988,1.053-6.397,0.876-9.158-0.477
			c-1.293,2.652-4.262,4.098-7.07,4.629c-2.211,0.417-5.386,0.228-7.972-0.707c-4.389,3.539-9.261,5.332-15.083,5.723
			c-3.264,0.223-6.354-0.895-9.168-2.33c-3.173-1.621-11.395-9.043-11.254-9.01c2.994,0.678,5.381,1.08,8.272,0.664
			c2.122-0.305,4.085-0.836,5.96-1.592c-0.238-0.124-0.471-0.244-0.71-0.364c-6.869-3.56-8.651-13.959-7.628-12.938
			c3.998,2.818,8.621,3.418,13.286,3.024c-0.571-0.384-1.047-0.873-1.589-1.257c-10.133-7.159-6.833-18.475-6.685-18.141
			c0.3,0.658,4.88,7.406,8.413,8.738c1.541,0.58,3.098,0.733,4.668,0.827c-1.09-2.083-1.957-4.274-2.645-6.562
			c-3.25-10.83,3.363-14.875,3.451-15.003c0.074-0.108,1.217,4.923,5.534,9.071c1.095,1.049,2.212,2.068,3.452,2.957
			c0.242-0.725,0.518-1.449,0.863-2.18c1.11-2.332,2.933-4.215,4.808-5.973c2.251-2.107,7.854-5.875,7.784-5.545
			c-0.154,0.719-0.407,1.373-0.717,1.994c-1.127,3.432-1.812,6.816-1.886,10.512c-0.041,1.971,0.291,3.838,0.754,5.67
			c1.453-0.983,2.881-1.994,4.153-3.254c2.738-2.704,4.838-6.398,5.486-10.137c0.031-0.154,3.828,7.48,2.727,11.648
			c3.281-2.179,7.143-3.568,10.213-2.787c0.23,0.058-5.487,7.633-6.792,11.411c-0.812,2.35-1.136,4.851-1.546,7.312
			c0.812-0.297,1.615-0.626,2.412-1.021c4.232-2.108,10.684-12.321,10.68-12.072c-0.125,5.365-0.098,9.778-3.205,14.437
			c-0.646,0.966-1.391,1.845-2.211,2.658c0.893-0.438,1.798-0.838,2.777-1.135c3.702-1.127,7.064-1.611,10.588,0.107
			C121.189,50.394,111.564,53.555,107.765,56.488"/>
	</g>
</g>
<g id="_x37_" display="none">
</g>
<g id="_x36_" display="none">
</g>
<g id="_x35_" display="none">
</g>
<g id="_x34_" display="none">
</g>
<g id="_x33_" display="none">
</g>
<g id="_x32_" display="none">
</g>
<g id="_x31_" display="none">
</g>
<g id="_x30_" display="none">
</g>
<g id="guide" display="none">
</g>
</svg>
