<?xml version="1.0" encoding="utf-8"?>
<!-- Generator: Adobe Illustrator 16.2.1, SVG Export Plug-In . SVG Version: 6.00 Build 0)  -->
<!DOCTYPE svg PUBLIC "-//W3C//DTD SVG 1.1//EN" "http://www.w3.org/Graphics/SVG/1.1/DTD/svg11.dtd">
<svg version="1.1" xmlns="http://www.w3.org/2000/svg" xmlns:xlink="http://www.w3.org/1999/xlink" x="0px" y="0px"
	 width="760.461px" height="931.453px" viewBox="0 0 760.461 931.453" enable-background="new 0 0 760.461 931.453"
	 xml:space="preserve">
<g id="base">
</g>
<g id="book3">
</g>
<g id="_x38_">
	<path fill="#009FE8" d="M411.153,375.546l-1.993-4.49c-7.881-17.178-14.487-38.847-19.799-64.973
		c11.57-1.525,21.4-2.717,29.551-3.725c18.4-2.221,31.453-3.4,39.126-3.59c5.74-0.047,11.312,0.033,16.677,0.26
		c17.204,0.691,34.212,2.691,50.954,5.965l0.064,0.031c10.317,2.023,20.216,4.617,29.733,7.713c0.785,0.268,1.547,0.486,2.281,0.767
		c10.004,4.326,19.799,9.182,29.412,14.621c17.316,9.722,33.092,21.077,47.297,34.12c3.007,3.16,5.736,6.326,8.191,9.5
		c-2.455-3.174-5.185-6.34-8.191-9.5c10.961,9.995,20.971,20.965,30.053,32.953l3.318,6.123c-0.145-0.328,0.279-0.127,1.262,0.6
		c1.907,3.424,3.554,6.519,4.984,9.373l0.268,0.49l-1.176-1.031l6.688,12.832l2.48-1.27c16.456,29.779,23.932,61.922,22.452,96.484
		c-0.433,9.774-1.495,19.387-3.186,28.834l-69.28,20.326c-3.154-37.776-13.124-73.799-29.821-108.125
		c-1.646-3.209-3.337-6.391-5.025-9.581c-5.785-10.677-12.633-20.774-20.513-30.187l-1.717-2.127
		c-1.523-1.814-3.054-3.518-4.618-5.046c-3.839-3.784-9.709-8.278-17.582-13.429c-2.349-1.677-4.484-2.999-6.283-3.924
		c-0.988-0.615-2.006-1.162-2.979-1.722c-10.099-5.671-21.134-10.202-33.154-13.687c-12.863-3.665-26.741-6.108-41.683-7.303
		c-9.914-0.763-19.978-0.955-30.229-0.467L411.153,375.546z"/>
	<path fill="#009FE8" d="M557.748,313.505c2.726,0.899,5.422,1.861,8.023,2.871c11.276,4.814,21.858,10.434,31.785,16.838
		c14.778,9.473,26.269,18.286,34.411,26.423c0.87,0.833,1.695,1.687,2.489,2.61c-14.205-13.049-29.98-24.398-47.297-34.119
		C577.546,322.684,567.751,317.83,557.748,313.505"/>
	<path fill="#009FE8" d="M551.174,398.241c-1.476-0.953-2.934-1.855-4.413-2.701c1.799,0.929,3.935,2.251,6.283,3.924
		C552.429,399.073,551.811,398.681,551.174,398.241"/>
	<polygon fill="#00398A" points="652.628,375.753 652.88,375.578 653.56,376.616 653.347,376.763 652.605,377.2 651.942,376.218 	
		"/>
	<path fill="#009FE8" d="M652.605,377.202l0.742-0.439c2.97,3.949,5.528,7.965,7.713,12.036c1.39,2.493,2.506,4.657,3.444,6.402
		c-9.077-11.991-19.087-22.961-30.048-32.956c-0.798-0.919-1.619-1.777-2.489-2.608c-8.143-8.139-19.633-16.948-34.411-26.425
		c-9.927-6.404-20.509-12.023-31.785-16.838c15.015,5.602,28.921,12.514,41.753,20.846c14.782,9.469,26.274,18.281,34.417,26.419
		c3.992,3.995,7.546,8.019,10.688,12.114l-0.687,0.467L652.605,377.202z"/>
	<path fill="#009FE8" d="M588.165,440.478c-1.095-0.459-1.647-0.71-1.669-0.758c0.1-0.651,0.268-1.277,0.356-1.937
		c0.27-1.281,0.18-2.239-0.154-2.866c-3.184-5.68-6.419-10.617-9.736-14.85c7.88,9.412,14.728,19.512,20.513,30.187
		c1.688,3.19,3.38,6.372,5.025,9.581l-0.462,0.205l-2.528-3.815l-9.818-15.04C589.717,441.117,589.23,440.892,588.165,440.478"/>
	
		<path fill="none" stroke="#00499C" stroke-width="8.1035" stroke-linecap="round" stroke-linejoin="round" stroke-miterlimit="10" d="
		M575.25,417.942c-2.178-2.028-4.743-4.326-7.712-6.89c-5.644-4.87-10.472-8.771-14.493-11.589
		c-2.349-1.673-4.484-2.997-6.283-3.924c-0.988-0.611-2.006-1.159-2.979-1.725 M555.466,312.739c0.79,0.264,1.547,0.479,2.281,0.766
		c10.01,4.325,19.799,9.179,29.412,14.62c17.316,9.724,33.092,21.073,47.297,34.122c10.961,9.995,20.976,20.958,30.048,32.949
		c3.272,4.26,6.377,8.647,9.369,13.141c3.072,4.568,5.865,9.254,8.461,13.98c16.456,29.779,23.932,61.922,22.449,96.482
		c-0.43,9.774-1.492,19.392-3.183,28.836c-5.124,28.358-15.975,54.884-32.566,79.57"/>
	<path fill="none" stroke="#00499C" stroke-width="8.1035" stroke-linecap="square" stroke-miterlimit="10" d="M576.961,420.065
		l-1.712-2.121c-1.528-1.815-3.059-3.523-4.623-5.046c-3.839-3.787-9.709-8.278-17.582-13.433c-0.615-0.395-1.233-0.782-1.87-1.222
		c-1.476-0.954-2.934-1.863-4.413-2.702 M379.388,302.077c11.565-1.519,21.399-2.715,29.547-3.719
		c18.404-2.227,31.456-3.405,39.129-3.592c5.74-0.048,11.314,0.031,16.678,0.258c17.209,0.695,34.212,2.688,50.958,5.969
		c3.522,0.707,6.959,1.461,10.385,2.324c0.055-0.023,0.055-0.023,0.066,0.023c14,3.33,27.221,7.673,39.62,13.035
		c11.276,4.816,21.858,10.43,31.785,16.84c14.778,9.471,26.269,18.28,34.411,26.423c0.87,0.831,1.691,1.685,2.489,2.61
		c3.007,3.154,5.736,6.32,8.191,9.496 M543.783,393.817c-10.099-5.664-21.134-10.199-33.154-13.684
		c-12.863-3.665-26.741-6.104-41.683-7.305c-9.914-0.757-19.978-0.955-30.229-0.459"/>
	
		<path fill="none" stroke="#00499C" stroke-width="8.1035" stroke-linecap="round" stroke-linejoin="round" stroke-miterlimit="10" d="
		M632.321,567.956c-3.154-37.772-13.128-73.797-29.821-108.123c-1.642-3.203-3.337-6.393-5.025-9.581
		c-5.785-10.675-12.633-20.774-20.508-30.187"/>
	
		<line fill="none" stroke="#00499C" stroke-width="8.1035" stroke-linecap="round" stroke-miterlimit="10" x1="438.717" y1="372.367" x2="411.153" y2="375.548"/>
	<path fill="#FFE100" d="M641.132,367.458c-0.715-0.359-1.427-0.715-2.095-1.025l-6.521-3.158
		c-3.363-1.577-6.778-3.157-10.194-4.639l-14.425-5.908c-1.63-0.669-3.26-1.275-4.935-1.892
		c-12.244-4.634-23.558-8.253-33.956-10.751c-0.252-0.104-0.509-0.154-0.825-0.154c7.098,3.52,13.616,7.902,19.583,13.049
		c2.756,2.396,5.151,4.794,7.185,7.138c2.704,0.966,5.406,2.091,8.213,3.257l13.6,5.609c0.258,0.104,0.564,0.207,0.825,0.357
		c2.391,1.02,4.688,2.037,6.979,3.107l17.997,8.719c9.327,4.741,17.682,9.48,25.174,14.27l-0.458,0.768
		c12.899,9.174,18.406,15.855,16.616,20.035c-1.826,4.123-10.495,4.583-25.938,1.326c-11.686-2.504-24.625-6.432-38.796-11.881
		l-0.05-0.053c-3.619,0.561-5.912,1.938-6.88,4.185c-2.908,6.777,3.922,13.761,20.592,21.046c5.812,2.498,11.622,4.643,17.383,6.422
		c1.327,9.33,0.914,19.625-1.273,30.993c-2.036,10.91-7.747,27.116-17.18,48.679c-9.382,21.563-20.849,33.945-34.405,37.26
		c-13.613,3.209-26.658,3.361-39.195,0.456c1.937,1.99,3.361,3.772,4.331,5.249c15.699,4.846,30.175,7.086,43.38,6.682
		c2.291-0.1,4.484-0.256,6.671-0.51c0.106,0.05,0.262,0,0.514-0.049c5.148-0.564,10.088-1.533,14.885-3.01
		c21.864-6.571,37.716-21.206,47.604-43.886c6.884-15.806,12.334-37.059,16.464-63.819c0.663-3.925,1.228-7.798,1.688-11.622
		c-2.603-0.051-5.151-0.1-7.648-0.251c-2.043,0.1-4.183,0.1-6.369,0c-2.7-0.16-5.609-0.41-8.619-0.771l0.15-0.556
		c2.808,0.456,5.618,0.76,8.368,0.967c2.132,0.155,4.276,0.305,6.47,0.359c1.422,0.051,2.955-1.17,4.584-3.568
		c-0.862,0.199-1.829,0.406-2.851,0.556c-2.19,0.359-4.585,0.565-7.188,0.661c-1.937,0.16-3.921,0.209-6.013,0.16
		c-2.504-0.104-5.2-0.256-8.003-0.512c-1.382-0.1-2.803-0.258-4.229-0.406c1.427,0.148,2.848,0.307,4.229,0.406
		c2.803,0.256,5.499,0.407,8.003,0.512c2.092,0.049,4.076,0,6.013-0.16c2.603-0.096,4.997-0.302,7.188-0.661
		c1.021-0.149,1.988-0.356,2.851-0.556c1.431-2.192,2.959-5.354,4.54-9.484c-0.356,3.52-0.662,6.326-0.925,8.413
		c2.865-1.069,5.201-2.397,7.037-4.027c1.475-1.378,2.601-2.954,3.364-4.741c3.518-8.004-0.963-18.303-13.452-30.781
		c-1.427-1.482-7.191-5.61-17.233-12.438C664.023,379.94,653.111,373.47,641.132,367.458"/>
	<path fill="none" stroke="#FFE100" stroke-width="1.9914" d="M641.132,367.458c-0.715-0.359-1.427-0.715-2.095-1.025l-6.521-3.158
		c-3.363-1.577-6.778-3.157-10.194-4.639l-14.425-5.908c-1.63-0.669-3.26-1.275-4.935-1.892
		c-12.244-4.634-23.558-8.253-33.956-10.751c-0.252-0.104-0.509-0.154-0.825-0.154c7.098,3.52,13.616,7.902,19.583,13.049
		c2.756,2.396,5.151,4.794,7.185,7.138c2.704,0.966,5.406,2.091,8.213,3.257l13.6,5.609c0.258,0.104,0.564,0.207,0.825,0.357
		c2.391,1.02,4.688,2.037,6.979,3.107l17.997,8.719c9.327,4.741,17.682,9.48,25.174,14.27l-0.458,0.768
		c12.899,9.174,18.406,15.855,16.616,20.035c-1.826,4.123-10.495,4.583-25.938,1.326c-11.686-2.504-24.625-6.432-38.796-11.881
		l-0.05-0.053c-3.619,0.561-5.912,1.938-6.88,4.185c-2.908,6.777,3.922,13.761,20.592,21.046c5.812,2.498,11.622,4.643,17.383,6.422
		c1.327,9.33,0.914,19.625-1.273,30.993c-2.036,10.91-7.747,27.116-17.18,48.679c-9.382,21.563-20.849,33.945-34.405,37.26
		c-13.613,3.209-26.658,3.361-39.195,0.456c1.937,1.99,3.361,3.772,4.331,5.249c15.699,4.846,30.175,7.086,43.38,6.682
		c2.291-0.1,4.484-0.256,6.671-0.51c0.106,0.05,0.262,0,0.514-0.049c5.148-0.564,10.088-1.533,14.885-3.01
		c21.864-6.571,37.716-21.206,47.604-43.886c6.884-15.806,12.334-37.059,16.464-63.819c0.663-3.925,1.228-7.798,1.688-11.622
		c-2.603-0.051-5.151-0.1-7.648-0.251c-2.043,0.1-4.183,0.1-6.369,0c-2.7-0.16-5.609-0.41-8.619-0.771l0.15-0.556
		c2.808,0.456,5.618,0.76,8.368,0.967c2.132,0.155,4.276,0.305,6.47,0.359c1.422,0.051,2.955-1.17,4.584-3.568
		c-0.862,0.199-1.829,0.406-2.851,0.556c-2.19,0.359-4.585,0.565-7.188,0.661c-1.937,0.16-3.921,0.209-6.013,0.16
		c-2.504-0.104-5.2-0.256-8.003-0.512c-1.382-0.1-2.803-0.258-4.229-0.406c1.427,0.148,2.848,0.307,4.229,0.406
		c2.803,0.256,5.499,0.407,8.003,0.512c2.092,0.049,4.076,0,6.013-0.16c2.603-0.096,4.997-0.302,7.188-0.661
		c1.021-0.149,1.988-0.356,2.851-0.556c1.431-2.192,2.959-5.354,4.54-9.484c-0.356,3.52-0.662,6.326-0.925,8.413
		c2.865-1.069,5.201-2.397,7.037-4.027c1.475-1.378,2.601-2.954,3.364-4.741c3.518-8.004-0.963-18.303-13.452-30.781
		c-1.427-1.482-7.191-5.61-17.233-12.438C664.023,379.94,653.111,373.47,641.132,367.458z"/>
	<path fill="#D7BE00" d="M642.562,381.167l-17.997-8.719c-2.291-1.07-4.588-2.088-6.979-3.109c-0.261-0.148-0.567-0.254-0.825-0.355
		l-13.6-5.604c-1.736-0.666-3.47-1.325-5.148-1.937c-4.027-1.532-7.904-2.909-11.676-4.079c-7.848-2.603-15.185-4.591-22.016-6.067
		c-15.551-3.209-24.268-2.752-26.053,1.432c-1.832,4.125,3.722,10.803,16.726,19.926c7.894,5.66,17.171,11.316,27.829,16.873
		l20.795,9.684c0.249,0.102,0.562,0.205,0.81,0.355c2.447,1.071,4.849,2.093,7.239,3.058l5.001,2.093
		c0.555,0.205,1.118,0.406,1.679,0.61c0.258,0.101,0.512,0.206,0.764,0.306l0.05,0.051c14.171,5.455,27.114,9.384,38.793,11.883
		c15.445,3.257,24.114,2.797,25.94-1.33c1.79-4.178-3.717-10.857-16.616-20.033C660.092,391.162,651.835,386.161,642.562,381.167"/>
	<path fill="#FFE100" d="M650.206,437.288c-5.761-1.789-11.57-3.925-17.383-6.428c-16.67-7.286-23.491-14.27-20.592-21.046
		c0.968-2.247,3.261-3.62,6.88-4.18l0.05,0.045l-0.05-0.045c-0.252-0.105-0.506-0.206-0.764-0.31
		c-0.561-0.201-1.124-0.404-1.679-0.611l-5.001-2.092c-2.391-0.967-4.788-1.988-7.239-3.055c-0.248-0.151-0.561-0.254-0.81-0.359
		l-20.795-9.684c-10.658-5.558-19.936-11.213-27.829-16.873c-13.004-9.119-18.558-15.801-16.726-19.926
		c1.785-4.179,10.502-4.641,26.053-1.432c6.834,1.481,14.168,3.469,22.016,6.066l1.427-4.379
		c-5.967-5.151-12.485-9.535-19.573-13.049c-0.704-0.204-1.423-0.41-2.142-0.562c-11.161-2.496-17.327-3.771-18.397-3.822
		c-19.422-1.172-30.942,2.447-34.612,10.906c-1.889,4.283-1.479,9.225,1.12,14.784c0.106,0.202,0.204,0.405,0.303,0.662
		c0.971,1.886,2.201,3.824,3.681,5.86c3.105,4.279,7.436,8.92,12.942,13.919c1.376,1.272,2.855,2.544,4.388,3.72
		c-1.532-1.176-3.012-2.447-4.388-3.72c-5.507-4.999-9.837-9.64-12.942-13.919c-1.479-2.036-2.71-3.975-3.681-5.86l-1.826,1.021
		c-4.442,4.785-7.449,8.204-9.079,10.244c-16.814,21.153-28.646,39.652-35.522,55.459c-9.891,22.682-9.835,44.295,0.208,64.785
		c2.133,4.279,4.681,8.408,7.587,12.434l3.677,4.789c12.535,15.037,31.189,27.935,55.967,38.74c0.964,0.459,1.884,0.871,2.852,1.277
		c0.454,0.197,0.911,0.407,1.417,0.659c0.462,0.155,0.925,0.31,1.436,0.565c1.63,0.711,3.26,1.371,4.841,2.032
		c5.658,2.296,11.161,4.284,16.465,6.017c-0.97-1.477-2.395-3.264-4.331-5.251c12.537,2.907,25.582,2.753,39.195-0.456
		c13.557-3.314,25.023-15.7,34.405-37.258c9.433-21.564,15.144-37.772,17.18-48.685C651.12,456.907,651.533,446.616,650.206,437.288
		"/>
	<path fill="none" stroke="#FFE100" stroke-width="1.9914" d="M650.206,437.288c-5.761-1.789-11.57-3.925-17.383-6.428
		c-16.67-7.286-23.491-14.27-20.592-21.046c0.968-2.247,3.261-3.62,6.88-4.18l0.05,0.045l-0.05-0.045
		c-0.252-0.105-0.506-0.206-0.764-0.31c-0.561-0.201-1.124-0.404-1.679-0.611l-5.001-2.092c-2.391-0.967-4.788-1.988-7.239-3.055
		c-0.248-0.151-0.561-0.254-0.81-0.359l-20.795-9.684c-10.658-5.558-19.936-11.213-27.829-16.873
		c-13.004-9.119-18.558-15.801-16.726-19.926c1.785-4.179,10.502-4.641,26.053-1.432c6.834,1.481,14.168,3.469,22.016,6.066
		l1.427-4.379c-5.967-5.151-12.485-9.535-19.573-13.049c-0.704-0.204-1.423-0.41-2.142-0.562
		c-11.161-2.496-17.327-3.771-18.397-3.822c-19.422-1.172-30.942,2.447-34.612,10.906c-1.889,4.283-1.479,9.225,1.12,14.784
		c0.106,0.202,0.204,0.405,0.303,0.662c0.971,1.886,2.201,3.824,3.681,5.86c3.105,4.279,7.436,8.92,12.942,13.919
		c1.376,1.272,2.855,2.544,4.388,3.72c-1.532-1.176-3.012-2.447-4.388-3.72c-5.507-4.999-9.837-9.64-12.942-13.919
		c-1.479-2.036-2.71-3.975-3.681-5.86l-1.826,1.021c-4.442,4.785-7.449,8.204-9.079,10.244
		c-16.814,21.153-28.646,39.652-35.522,55.459c-9.891,22.682-9.835,44.295,0.208,64.785c2.133,4.279,4.681,8.408,7.587,12.434
		l3.677,4.789c12.535,15.037,31.189,27.935,55.967,38.74c0.964,0.459,1.884,0.871,2.852,1.277c0.454,0.197,0.911,0.407,1.417,0.659
		c0.462,0.155,0.925,0.31,1.436,0.565c1.63,0.711,3.26,1.371,4.841,2.032c5.658,2.296,11.161,4.284,16.465,6.017
		c-0.97-1.477-2.395-3.264-4.331-5.251c12.537,2.907,25.582,2.753,39.195-0.456c13.557-3.314,25.023-15.7,34.405-37.258
		c9.433-21.564,15.144-37.772,17.18-48.685C651.12,456.907,651.533,446.616,650.206,437.288z"/>
	<path fill="#FFE100" d="M671.205,442.128l-0.154,0.562c3.01,0.355,5.919,0.611,8.619,0.764c2.187,0.102,4.326,0.102,6.369,0
		c-2.197-0.049-4.338-0.205-6.476-0.359C676.819,442.894,674.008,442.587,671.205,442.128"/>
	<path fill="#FFED00" d="M568.185,339.933c0.312,0,0.569,0.049,0.821,0.15c10.398,2.5,21.712,6.12,33.96,10.756
		c1.671,0.611,3.301,1.221,4.931,1.887c-2.39-1.021-4.789-1.988-7.29-2.908c-13.193-5.095-25.328-9.07-36.437-11.872
		C565.543,338.606,566.871,339.267,568.185,339.933"/>
	<path fill="#FFE100" d="M475.323,506.506c-0.666,1.02-1.278,2.092-1.784,3.156c-3.928,9.026-0.356,19.271,10.654,30.792
		c11.059,11.467,26.143,21.403,45.262,29.765c9.527,4.13,18.655,7.294,27.37,9.482c3.312-1.988,5.507-4.28,6.679-6.984
		c1.781-4.028,1.733-7.902-0.203-11.571c-0.209-0.352-0.458-0.762-0.817-1.221c-5.304-1.737-10.807-3.721-16.465-6.016
		c-1.581-0.666-3.211-1.322-4.841-2.039c-0.511-0.254-0.974-0.408-1.436-0.563c-0.506-0.252-0.963-0.456-1.417-0.657
		c-0.968-0.41-1.888-0.815-2.852-1.275c-24.777-10.806-43.432-23.703-55.967-38.74c-1.279-1.526-2.452-3.108-3.574-4.688
		L475.323,506.506z"/>
	<path fill="#FFED00" d="M562.483,559.923c0.359,0.459,0.608,0.869,0.817,1.221c1.937,3.67,1.984,7.549,0.203,11.573
		c-1.172,2.706-3.366,4.994-6.679,6.984c8.768,2.088,17.179,3.26,25.179,3.414c15.952,0.257,25.843-4.128,29.771-13.149
		c0.563-1.17,0.971-2.447,1.218-3.724l-0.458-0.147l-0.458,1.013l0.458-1.013c-2.187,0.255-4.38,0.404-6.671,0.506
		C592.658,567.009,578.182,564.769,562.483,559.923"/>
	
		<path fill="none" stroke="#0E0000" stroke-width="8.1537" stroke-linecap="round" stroke-linejoin="round" stroke-miterlimit="10" d="
		M613.047,566.044c-0.252,0.049-0.407,0.099-0.514,0.049 M616.758,368.987l-13.6-5.613c-1.736-0.658-3.467-1.324-5.146-1.936
		c-4.027-1.525-7.904-2.903-11.676-4.078c-7.848-2.598-15.185-4.585-22.016-6.062c-15.551-3.213-24.268-2.754-26.053,1.426
		c-1.832,4.131,3.716,10.807,16.726,19.932c7.894,5.66,17.171,11.316,27.829,16.873l20.795,9.685
		c0.245,0.101,0.562,0.203,0.81,0.354c2.447,1.071,4.846,2.093,7.239,3.059l5.001,2.092c0.555,0.199,1.118,0.406,1.679,0.61
		c0.258,0.101,0.512,0.201,0.764,0.304l0.05,0.053c14.168,5.449,27.114,9.381,38.793,11.875c15.445,3.265,24.114,2.803,25.94-1.32
		c1.79-4.18-3.717-10.861-16.616-20.035c-7.186-5.047-15.442-10.041-24.72-15.035l-17.993-8.719
		c-2.291-1.072-4.588-2.088-6.979-3.109 M694.238,438.816c-0.398,3.11-0.611,4.739-0.551,4.891
		c-0.46,3.824-1.024,7.697-1.688,11.623c-4.13,26.763-9.58,48.013-16.464,63.819c-9.888,22.679-25.739,37.313-47.604,43.885
		c-4.797,1.477-9.736,2.445-14.885,3.01 M662.339,440.349c1.427,0.146,2.848,0.301,4.229,0.4c2.803,0.26,5.499,0.411,8.003,0.512
		c2.092,0.055,4.073,0,6.013-0.156c2.603-0.096,4.997-0.301,7.188-0.66c1.021-0.15,1.988-0.355,2.851-0.562
		c1.273-0.304,2.452-0.659,3.615-1.066 M535.473,385.397c-1.532-1.171-3.012-2.447-4.388-3.72
		c-5.507-4.999-9.837-9.634-12.942-13.913c-1.479-2.04-2.71-3.979-3.681-5.861c-0.099-0.26-0.2-0.465-0.303-0.665 M514.16,361.238
		c-0.506,0.56-1.017,1.121-1.523,1.681c-4.442,4.787-7.449,8.206-9.079,10.246c-16.814,21.153-28.646,39.656-35.522,55.457
		c-9.891,22.683-9.839,44.295,0.204,64.785c2.137,4.281,4.685,8.41,7.591,12.435 M475.83,505.842
		c-0.195,0.155-0.354,0.41-0.507,0.664 M475.937,505.946c-0.053-0.049-0.107-0.049-0.107-0.104 M613.047,566.044
		c-0.056,0.049-0.056,0.099-0.056,0.198c-0.247,1.276-0.654,2.554-1.218,3.724c-3.928,9.019-13.818,13.406-29.771,13.149
		c-8-0.154-16.411-1.326-25.179-3.414c-8.715-2.192-17.843-5.355-27.37-9.479c-19.119-8.363-34.203-18.3-45.262-29.772
		c-11.011-11.516-14.582-21.762-10.654-30.785c0.506-1.067,1.118-2.14,1.784-3.159 M475.323,506.506l0.614-0.56 M475.937,505.946
		c1.117,1.579,2.29,3.159,3.569,4.689c12.535,15.036,31.189,27.931,55.967,38.74c0.964,0.46,1.884,0.863,2.852,1.27
		c0.454,0.201,0.911,0.411,1.417,0.663c0.462,0.155,0.925,0.308,1.436,0.563c1.63,0.713,3.26,1.373,4.841,2.037
		c5.658,2.297,11.161,4.281,16.465,6.014c15.699,4.844,30.175,7.086,43.38,6.676c2.291-0.096,4.484-0.252,6.671-0.506
		 M612.081,567.112l0.453-1.02 M694.238,438.816c2.865-1.069,5.207-2.396,7.037-4.027c1.479-1.378,2.601-2.954,3.364-4.739
		c3.518-8.004-0.963-18.304-13.452-30.789c-1.427-1.48-7.191-5.604-17.233-12.436c-9.931-6.883-20.843-13.355-32.821-19.367
		c-0.715-0.359-1.427-0.715-2.095-1.023l-6.521-3.16c-3.363-1.58-6.778-3.162-10.194-4.639l-14.425-5.912
		c-1.63-0.664-3.26-1.271-4.935-1.885c-12.244-4.636-23.558-8.256-33.956-10.758c-0.252-0.1-0.509-0.148-0.821-0.148
		c-0.702-0.207-1.417-0.41-2.136-0.562c-11.161-2.498-17.327-3.771-18.397-3.824c-19.422-1.17-30.947,2.448-34.615,10.906
		c-1.886,4.285-1.477,9.227,1.123,14.786"/>
	<path fill="#CD0E19" d="M633.332,472.766c-0.456-1.179-1.317-2.041-2.499-2.499h-0.049c-2.036-0.768-5.603-1.685-10.652-2.703
		c-4.996-1.069-7.491-1.633-7.545-1.633c-0.104-0.052-0.203-0.052-0.249-0.052c-4.388-0.456-7.039,0.516-7.954,2.903
		c-0.258,0.67-0.409,1.381-0.457,2.047c-0.262-0.057-0.507-0.104-0.818-0.104l-12.543-1.532c-2.287-0.352-3.97,0.666-4.991,3.013
		c-0.563,1.271-0.657,2.548-0.36,3.714h0.054c0.355,1.276,1.07,2.196,2.243,2.707c0.461,0.151,0.809,0.307,1.177,0.355l-0.822,1.832
		l8.154,3.568l1.889-4.332l2.909,0.56c-0.919,0.515-1.685,1.431-2.297,2.759c-0.252,0.658-0.461,1.27-0.507,1.881l16.203,7.088
		c3.007,0.305,5.094,0.354,6.272,0.104c1.785-0.359,3.003-1.325,3.726-3.014c0.505-1.166,0.608-2.441,0.306-3.717
		c-0.358-1.276-1.176-2.194-2.349-2.704c-0.661-0.304-1.431-0.405-2.246-0.254c-0.051-0.05-0.051-0.05-0.1-0.05
		c-1.018,0.154-3.619-0.053-7.745-0.662l2.442-5.606c6.218,1.171,10.455,2.192,12.637,2.954c1.182,0.46,2.251,0.511,3.17,0.205
		c-2.35,5.455-0.616,11.417,5.148,17.783c1.985,2.203,3.16,4.139,3.56,5.767l8.677,3.774c1.314-5.357-0.516-10.858-5.565-16.469
		c-2.901-3.312-4.077-5.811-3.465-7.492c0.354-0.666,1.124-1.021,2.242-1.07c1.023-0.051,2.088,0.204,3.212,0.664
		c2.297,0.966,4.131,2.648,5.61,4.945l0.054,0.051c0.457,0.715,1.065,1.223,1.73,1.527c1.124,0.459,2.293,0.459,3.514-0.096
		c1.223-0.671,2.092-1.586,2.652-2.863c0.764-1.58,0.613-3.158-0.457-4.689h0.052c-2.451-3.82-5.458-6.521-8.976-8.049
		c-3.264-1.426-6.525-1.682-9.73-0.818c-1.991,0.459-3.674,1.329-5.05,2.5C633.638,474.243,633.589,473.476,633.332,472.766"/>
	<path fill="#CD0E19" d="M598.67,457.575c-0.506-1.325-1.272-2.191-2.343-2.652c-1.169-0.51-2.396-0.406-3.72,0.306
		c-5.355,2.906-9.538,4.841-12.434,5.756c1.375-3.058,2.597-6.167,3.666-9.274c1.076-2.854,0.357-4.84-2.087-5.911
		c-1.279-0.562-2.55-0.562-3.777,0.104c-1.169,0.561-1.987,1.628-2.493,3.109c-1.074,3.002-2.349,6.06-3.877,9.273
		c0.252-1.121,0.407-2.192,0.514-3.214c0.356-5.3-1.479-8.817-5.458-10.499c-5.045-2.243-10.294-0.711-15.749,4.539
		c-1.532,1.477-2.954,3.107-4.229,4.891c-0.871-1.883-2.246-3.209-4.231-4.076c-4.739-2.092-9.585-0.814-14.63,3.925
		c-0.51-1.271-1.328-2.192-2.497-2.647c-1.324-0.615-2.7-0.41-4.076,0.557l15.646,6.83c0.463-0.054,0.97,0.051,1.431,0.258
		c0.255,0.104,0.512,0.203,0.657,0.355l0.055,0.053c0.049,0.1,0.15,0.2,0.199,0.355l11.268,4.945
		c1.173-2.703,2.807-5.201,4.894-7.547c2.607-2.903,4.939-3.925,6.986-3.159c0.258,0.151,0.505,0.306,0.762,0.511v0.051
		c0.864,0.764,0.562,2.957-0.965,6.526c-1.177,2.597-2.452,4.939-3.824,7.032l14.626,6.371c0.053-0.105,0.106-0.205,0.152-0.305
		l0.203,0.455l12.236,5.354l-3.666-9.429c3.408-1.021,8.104-3.162,14.166-6.477c1.226-0.662,2.033-1.477,2.446-2.498
		C599.08,460.223,599.132,458.952,598.67,457.575"/>
	<path fill="#CD0E19" d="M529.708,430.608c0.049,0.512,0.104,1.123,0.049,1.889c0.055,2.192,0.871,3.613,2.556,4.332
		c1.065,0.455,2.286,0.455,3.662-0.049c1.328-0.565,2.294-1.48,2.861-2.758c0.351-0.762,0.514-1.58,0.452-2.547
		c0-5.707-1.683-9.225-4.995-10.602c-3.466-1.58-7.996-1.326-13.657,0.71c-7.343,2.653-12.897,8.359-16.618,17.133l-0.052,0.052
		c-0.661,1.63-1.169,3.207-1.631,4.738l8.462,3.719c0.307-1.475,0.763-2.908,1.378-4.28c1.833-4.177,4.275-7.446,7.34-9.733
		C522.825,430.761,526.191,429.898,529.708,430.608"/>
	<path fill="#CD0E19" d="M572.982,474.345l-14.626-6.371c-1.177,1.681-2.397,3.262-3.726,4.634
		c-2.185,2.142-3.976,2.958-5.345,2.499c-0.158-0.052-0.306-0.152-0.46-0.252c-1.329-1.226-0.772-4.641,1.625-10.199
		c0.053-0.051,0.053-0.051,0.053-0.096l-11.268-4.945c0.506,0.966,0.159,2.902-1.123,5.807c-1.981,4.54-4.38,8.208-7.182,11.016
		c-1.99,1.983-3.674,2.799-4.943,2.343c-0.155-0.056-0.306-0.155-0.458-0.256c-1.226-1.173-0.712-4.334,1.576-9.584
		c1.124-2.603,2.651-4.997,4.639-7.188c1.886-2.041,3.573-3.107,5.149-3.158l-15.646-6.83c-0.159,0.1-0.307,0.199-0.458,0.304
		c-3.314,2.554-6.219,3.468-8.615,2.702c-1.431-0.56-2.039-2.191-1.782-4.895c0.094-0.865,0.252-1.781,0.404-2.646l-8.462-3.725
		c-0.964,3.418-1.323,6.627-1.123,9.74c0.355,5.76,2.709,9.58,7.035,11.412c3.619,1.637,7.648,1.326,12.183-0.918
		c-0.457,0.867-0.915,1.737-1.328,2.654c-1.523,3.569-2.283,7.136-2.242,10.707c0,5.249,1.989,8.707,6.019,10.395
		c3.818,1.785,8.053,0.461,12.688-3.975c1.736-1.682,3.318-3.569,4.794-5.605c0.967,3.002,2.854,5.09,5.761,6.367
		c3.516,1.58,7.442,0.666,11.666-2.799c-0.248,0.251-0.408,0.507-0.502,0.76c-0.564,1.277-0.612,2.554-0.106,3.774
		c0.457,1.171,1.222,2.038,2.293,2.497c2.092,0.972,3.983,0.355,5.556-1.936v-0.055
		C568.141,481.988,570.789,477.913,572.982,474.345"/>
	<path fill="#CD0E19" d="M646.786,509.614c0.355-0.867,0.667-1.782,0.924-2.703l-8.679-3.769c0.262,0.915,0.217,1.731-0.039,2.448
		c-0.356,0.811-1.075,1.32-2.138,1.477c-0.056-0.058-0.056-0.058-0.056,0c-0.969,0.048-1.938-0.102-3.008-0.562
		c-3.007-1.378-5.095-4.075-6.264-8.104c-0.056-0.101-0.056-0.204-0.056-0.305l-6.37-2.802c-0.866,0.354-1.482,1.114-1.94,2.292
		c-0.353,0.762-0.511,1.627-0.459,2.647c-0.244-0.149-0.506-0.305-0.758-0.405c-0.97-0.41-2.039-0.41-3.216,0.049v0.052
		c-2.647,0.971-5.352,0.813-8.15-0.406c-0.618-0.261-1.177-0.511-1.741-0.87l3.162-7.234c2.397,0.456,4.484,0.762,6.218,0.918
		l-16.203-7.088c-0.203,1.482,0.308,2.753,1.473,3.723l-3.673,8.359c-0.251,0.355-0.499,0.766-0.709,1.226
		c-0.812,1.933-0.563,3.67,0.765,5.245c1.884,2.04,4.181,3.619,6.881,4.791c4.738,2.092,9.534,2.242,14.318,0.412v0.048
		c1.431-0.612,2.402-1.527,2.857-2.753c0.052-0.051,0.101-0.15,0.159-0.305c0.35,0.66,0.763,1.377,1.221,2.087
		c1.378,2.242,2.949,4.135,4.845,5.716c1.271,0.962,2.594,1.779,3.976,2.395c3.206,1.373,6.264,1.581,9.273,0.509
		C642.766,515.528,645.205,513.184,646.786,509.614"/>
	<path fill="#CD0E19" d="M621.101,495.293l6.37,2.802c-0.352-1.066-1.228-1.885-2.6-2.447
		C623.344,494.988,622.075,494.833,621.101,495.293"/>
	<path fill="#CD0E19" d="M587.865,480.815l-1.021,2.293l-1.27-3.26l-12.236-5.354l6.884,18.147c0.355,0.866,0.867,1.53,1.631,1.986
		l-3.268,7.492l-1.472-0.608c-1.173-0.512-2.345-0.463-3.519,0.102l-0.052-0.053c-1.227,0.512-2.142,1.426-2.696,2.803
		c-0.612,1.377-0.719,2.703-0.262,3.924l0.056-0.049c0.402,1.275,1.17,2.191,2.342,2.703c2.35,1.02,5.05,1.782,8.154,2.291
		c6.886,1.123,10.962,0.049,12.241-3.213c0.555-1.273,0.608-2.547,0.151-3.869c-0.467-1.377-1.279-2.297-2.35-2.756
		c-1.07-0.512-2.242-0.408-3.566,0.309l8.406-19.32L587.865,480.815z"/>
	<path fill="#009FE8" d="M698.655,545.026c0.196-0.012,0.401-0.02,0.614-0.035c-0.656,2.073-1.255,3.99-1.867,5.805
		c-0.074,0.467-0.157,0.873-0.287,1.291c-0.765,3.554-1.639,7.011-2.517,10.318c-0.837,3.148-1.65,5.895-2.479,8.279
		c-1.523,4.569-2.967,7.903-4.367,9.965c-0.437,1.299-0.862,2.648-1.349,4.049c-0.209,0.874-0.364,1.75-0.567,2.629
		c-0.044,0.102-0.037,0.205-0.086,0.258c-0.045,0.206-0.078,0.411-0.119,0.62c-0.294,1.184-0.624,2.422-0.964,3.615
		c-0.563,1.911-1.21,3.836-1.87,5.652c-1.009,2.754-2.182,5.417-3.461,8.027c-1.822,3.821-3.906,7.402-6.259,10.838
		c-4.551,5.855-8.727,10.363-12.56,13.485c-3.799,3.117-8.007,5.998-12.696,8.555c-1.427,0.843-2.909,1.74-4.539,2.594
		c-0.245,0.172-0.541,0.288-0.79,0.403l-1.556,0.347v0.049c-0.45,0.074-0.952,0.206-1.605,0.344
		c-0.702,0.196-1.304,0.43-1.741,0.811c-5.361,1.372-11.615,2.289-18.665,2.741c-1.116,0.112-2.28,0.18-3.507,0.143
		c-3.161-0.225-5.85-0.888-8.053-1.983c-0.048-0.051-0.102-0.046-0.154-0.092c-1.331-1.096-2.178-2.474-2.518-4.08l-0.004-0.054
		l-0.061-0.046c-0.609-3.684-1.033-5.794-1.28-6.438c-0.048-0.151-0.076-0.51-0.113-1.169c-0.151-2.64,0.344-5.668,1.523-9.091
		c-0.003-0.054-0.003-0.054-0.003-0.102c-0.009-0.053-0.009-0.053-0.009-0.102v-0.053l-0.009-0.049
		c0.095-0.056,0.145-0.164,0.192-0.263l-0.008-0.106l0.499-1.094c0.375-0.53,0.754-1.063,1.084-1.586l-0.007-0.051
		c0.045-0.06,0.144-0.164,0.192-0.216c0.949-1.122,1.671-1.827,2.108-2.155c0.873-0.812,2.35-1.662,4.384-2.646
		c3.076-1.389,6.529-2.499,10.398-3.382c3.863-0.879,5.874-1.353,6.114-1.516c-1.719,0.146-3.595,0.251-5.626,0.317
		c-6.659,0.221-13.207-0.422-19.748-1.832c-0.059,0.004-0.103,0.01-0.151,0.01c-0.053,0.004-0.516-0.077-1.441-0.228
		c-0.303-0.03-0.557-0.115-0.825-0.205c-0.046,0.056-0.148,0.06-0.192,0.111c-0.049,0-0.106-0.045-0.159-0.09l-0.049,0.051
		c-16.029-5.398-23.92-14.519-23.785-27.349c-0.512-5.414,2.892-9.171,10.204-11.213l0.049-0.053
		c2.706-0.766,5.921-1.356,9.609-1.766c16.113-0.355,25.664-0.693,28.647-1.013c-15.41-1.724-27.503-3.991-36.255-6.798
		c0.045-0.055,0.085-0.16,0.136-0.213c-2.489-0.881-4.728-1.82-6.678-2.828c-1.775-0.967-3.409-1.939-4.888-2.929
		c-5.275-3.312-8.653-7.19-10.189-11.735c-2.011-5.08-2.092-10.872-0.173-17.344c0.978-3.463,4.192-6.088,9.691-7.824
		c3.117-1.498,6.899-2.271,11.423-2.327c0.862,0,1.724,0.057,2.59,0.06c1.066-0.062,2.183-0.125,3.297-0.242
		c14.982-0.59,24.6,0.545,28.945,3.447c-6.576-6.498-11.631-13.178-15.181-20.15c-0.85-1.478-1.482-2.867-2.022-4.16
		c-0.061-0.252-0.233-0.547-0.396-0.846c-2.019-4.107-2.596-8.04-1.696-11.81c0.548-2.929,1.876-5.451,4.053-7.61
		c0.049,0,0.049,0,0.045-0.049c0.34-0.271,0.675-0.6,0.915-0.917v-0.05c3.902-3.836,9.502-4.711,16.85-2.535
		c3.451,0.774,7.193,2.137,11.267,3.99c1.991,0.957,4.04,2.162,6.104,3.628c2.182,1.557,5.577,4.062,10.209,7.613
		c4.205,3.272,7.845,6.522,11.032,9.751c0.326,0.34,0.645,0.679,0.923,1.021c3.357,3.573,5.417,5.85,6.238,6.77v0.049l0.18,0.501
		c0.136,0.5,0.453,0.784,0.925,0.909c0.048,0.053,0.1,0.051,0.15,0.095l0.155,0.046c0.261,0.186,0.543,0.582,0.723,1.177
		c0.254,0.802,0.687,1.285,1.355,1.447c0.055,0,0.103-0.003,0.161,0.046c0.555,0.022,1.434,0.123,2.609,0.261
		c0.148-0.009,0.249-0.013,0.349-0.022c0.15-0.111,0.303-0.216,0.444-0.379c0.772-0.708,1.708-1.217,2.859-1.589l0.004-0.763
		c0.777,0.21,1.394,0.277,1.843,0.25c0.413-0.018,0.724,0.014,0.978,0.148c0.927,2.848,3.039,6.903,6.394,12.257
		c0.114,0.196,0.228,0.397,0.339,0.54c0.617-0.795,1.246-1.393,1.986-1.785c0.248-0.168,0.437-0.283,0.64-0.243
		c0.465,0.075,0.753,0.618,0.81,1.681c0.037,0.561-0.285,2.055-0.964,4.485c0.106,0.044,0.212,0.139,0.313,0.235
		c1.279,0.895,1.933,1.674,1.974,2.328c0,0.051,0.01,0.155-0.041,0.26c0.296-0.172,0.589-0.389,0.888-0.613
		c3.418-2.379,4.13,2.975,2.07,16.014C699.314,541.379,699.011,543.229,698.655,545.026"/>
	<path fill="#00499C" d="M681.958,500.986c0.363,0.037,0.511,0.028,0.569,0.022l-0.145,2.959l-0.004,0.765
		c-1.151,0.372-2.087,0.877-2.859,1.585c-0.142,0.162-0.294,0.274-0.444,0.387c-0.1,0.008-0.196,0.012-0.349,0.015
		c-1.176-0.132-2.06-0.239-2.609-0.257c-0.059-0.046-0.106-0.042-0.161-0.042c-0.669-0.164-1.102-0.649-1.355-1.448
		c-0.18-0.604-0.462-0.99-0.727-1.18l-0.151-0.042c-0.051-0.053-0.103-0.048-0.15-0.097c-0.472-0.127-0.789-0.416-0.929-0.911
		l-0.176-0.497v-0.053c-0.821-0.92-2.881-3.196-6.238-6.773c-0.278-0.336-0.597-0.676-0.923-1.016
		c-3.188-3.229-6.83-6.48-11.032-9.751c-4.637-3.557-8.027-6.063-10.209-7.615c-2.063-1.464-4.112-2.669-6.107-3.626
		c-4.069-1.854-7.812-3.218-11.263-3.992c-1.916-0.551-3.67-0.911-5.349-1.07l-0.471-8.167c4.04,0.38,8.598,1.603,13.549,3.716
		c2.337,0.932,4.75,2.12,7.214,3.455l0.303-0.072l2.08,0.904c0.117,0.097,0.217,0.193,0.272,0.239l0.045-0.055l0.106,0.048
		c0.261,0.137,0.422,0.229,0.531,0.375l0.05,0.045c14.299,9.879,24.438,18.154,30.358,24.793c0.217,0.243,0.434,0.436,0.698,0.672
		c0.062,0.099,0.11,0.147,0.168,0.198c0.379,0.38,0.712,0.819,1.091,1.31c0.103-0.004,0.209-0.013,0.303-0.017
		c0.003,0.101-0.032,0.208-0.076,0.305l0.86,0.059c0.526,0.327,1.017,0.958,1.435,1.903c0.35,0.84,0.681,1.33,1.045,1.414
		c0.519,0.125,0.825,0.155,0.918,0.1c0.051-0.104,0.1-0.158,0.203-0.163L681.958,500.986z M643.272,473.773
		c0.058,0.048,0.062,0.147,0.065,0.201C643.333,473.921,643.33,473.821,643.272,473.773"/>
	<path fill="#00499C" d="M620.881,460.185l0.465,8.166c-4.764-0.443-8.612,0.74-11.505,3.602v0.052
		c-0.236,0.316-0.571,0.644-0.911,0.915c0.009,0.055,0.009,0.055-0.045,0.055c-2.174,2.158-3.505,4.676-4.053,7.604
		c-0.899,3.77-0.322,7.702,1.691,11.815c0.167,0.297,0.34,0.589,0.4,0.84c0.54,1.293,1.173,2.686,2.022,4.162
		c3.55,6.975,8.604,13.656,15.181,20.148c-4.343-2.904-13.963-4.035-28.945-3.441c-1.114,0.111-2.23,0.176-3.293,0.235
		c-0.865-0.004-1.731-0.057-2.594-0.057c-4.523,0.053-8.306,0.827-11.423,2.325c-5.499,1.736-8.714,4.363-9.688,7.824
		c-1.92,6.471-1.842,12.266,0.172,17.346c1.533,4.541,4.911,8.421,10.187,11.733c1.479,0.986,3.112,1.962,4.888,2.929
		c1.95,1.012,4.188,1.953,6.682,2.828c-0.055,0.055-0.095,0.16-0.14,0.211c8.752,2.814,20.845,5.082,36.255,6.8
		c-2.983,0.323-12.534,0.663-28.647,1.015c-3.688,0.414-6.903,0.998-9.609,1.764l-0.049,0.055
		c-7.312,2.042-10.716,5.797-10.204,11.211c-0.135,12.836,7.756,21.952,23.785,27.348l0.049-0.048
		c0.053,0.045,0.11,0.096,0.159,0.09c0.044-0.054,0.146-0.058,0.192-0.111c0.265,0.085,0.522,0.175,0.825,0.208
		c0.926,0.152,1.389,0.225,1.441,0.222c0.049,0,0.099-0.005,0.151-0.009c6.537,1.409,13.089,2.059,19.748,1.832
		c1.881-0.055,3.653-0.152,5.276-0.297l0.007,0.101c-0.754,0.247-2.658,0.712-5.771,1.396c-3.869,0.88-7.322,1.993-10.398,3.386
		c-2.034,0.979-3.511,1.828-4.38,2.64c-0.441,0.331-1.163,1.033-2.112,2.158c-0.049,0.052-0.147,0.16-0.195,0.213l0.01,0.052
		c-0.33,0.526-0.705,1.058-1.084,1.583l-0.499,1.103l0.004,0.102c-0.044,0.1-0.094,0.208-0.188,0.263l0.009,0.05v0.049
		c0,0.053,0,0.053,0.009,0.101c0,0.056,0,0.056,0,0.104c-1.177,3.43-1.672,6.456-1.521,9.093c0.037,0.659,0.065,1.015,0.113,1.167
		c0.247,0.646,0.671,2.762,1.28,6.438l0.061,0.046l0.004,0.056c0.34,1.606,1.187,2.979,2.518,4.082
		c0.053,0.041,0.106,0.041,0.159,0.09c2.198,1.1,4.887,1.755,8.053,1.986c1.222,0.034,2.386-0.035,3.502-0.146
		c4.461-0.252,8.605-0.74,12.386-1.414l0.458,8.115c-5.638,1.034-11.112,1.444-16.417,1.184c-4.031-0.179-7.528-0.844-10.552-2.051
		c-1.348-1.396-2.958-2.836-4.719-4.306c-0.625-1.191-1.372-2.521-2.21-4.052c-0.171-0.348-0.404-0.691-0.568-0.982
		c-0.685-2.154-1.131-4.62-1.229-7.312c-0.401-8.884,1.077-15.126,4.424-18.827v-0.045c0.144-0.111,0.87-0.817,2.215-2.11
		c0.303-0.276,0.588-0.548,0.834-0.762c-0.058,0.006-0.103,0.006-0.161,0.009c-0.199-0.042-0.862,0-1.926,0.108
		c-0.509,0.028-0.904,0.055-1.215,0.073c-0.054,0-0.15,0.008-0.262-0.041c-0.253-0.035-0.608-0.015-1.065-0.035
		c-0.155-0.046-0.363-0.084-0.516-0.076c-0.254-0.038-0.557-0.071-0.969-0.051c-18.114-6.349-27.371-17.018-27.662-32.063
		c-0.851-8.653,2.848-14.455,10.97-17.415c-2.149-0.994-4.241-2.051-6.186-3.208l-0.053-0.051
		c-13.237-8.098-18.079-19.078-14.585-32.856c3.479-13.985,13.217-20.945,29.142-20.984c6.454-0.014,12.17,0.176,17.02,0.561
		c-2.627-3.364-5.034-7.246-7.264-11.648c-5.114-10.141-3.621-19.691,4.429-28.543C607.585,461.753,613.465,459.534,620.881,460.185
		"/>
	<path fill="#00499C" d="M692.114,570.686c0.418-0.786,0.88-1.628,1.288-2.464c0.244,6.145,0.42,11.02,0.567,14.523
		c0.102,2.589,0.208,4.463,0.269,5.631c0.018,0.352,0.042,0.66,0.055,1.015c-0.442,0.229-0.842,0.401-1.229,0.577v0.054
		c-0.218,0.771-0.479,1.449-0.707,2.021c0.016,0.155,0.019,0.256,0.077,0.352c-0.507,1.813-1.119,3.628-1.826,5.552
		c-0.311,0.883-0.608,1.816-0.96,2.804c-1.544,4.157-3.437,8.434-5.582,12.881c-0.179,0.419-0.358,0.837-0.582,1.255
		c-5.97,12.348-15.893,22.274-29.666,29.766c-1.821,1.023-3.691,1.992-5.541,2.856c-1.727,0.863-3.409,1.619-5.153,2.331
		c-0.051,0.004-0.103,0.004-0.201,0.011c-1.156,0.22-2.108,0.531-2.795,0.871c-0.058-0.049-0.115-0.145-0.167-0.194
		c-2.755,0.769-5.471,1.38-8.191,1.839l-0.458-8.115c2.215-0.38,4.327-0.803,6.279-1.322c0.438-0.379,1.039-0.615,1.741-0.81
		c0.653-0.141,1.155-0.268,1.605-0.349v-0.05l1.556-0.344c0.249-0.112,0.545-0.233,0.79-0.399c1.63-0.855,3.112-1.755,4.539-2.596
		c4.689-2.559,8.897-5.445,12.696-8.557c3.833-3.114,8.009-7.63,12.56-13.481c2.353-3.443,4.437-7.021,6.259-10.839
		c1.273-2.615,2.452-5.276,3.456-8.036c0.665-1.812,1.315-3.738,1.875-5.648c0.34-1.189,0.67-2.428,0.964-3.613
		c0.037-0.208,0.074-0.418,0.119-0.618c0.049-0.058,0.042-0.158,0.086-0.26c0.203-0.877,0.354-1.751,0.567-2.626
		c0.482-1.401,0.912-2.753,1.349-4.048C689.156,578.588,690.595,575.252,692.114,570.686"/>
	<path fill="#00499C" d="M629.353,609.656l-0.007-0.101c0.15-0.008,0.253-0.011,0.35-0.019
		C629.652,609.59,629.549,609.594,629.353,609.656"/>
	<path fill="#009FE8" d="M239.021,318.833c-0.703,0.146-1.257,0.264-1.615,0.339c-22.891,5.195-39.719,12.091-50.401,20.722
		c-1.541,1.203-2.951,2.484-4.205,3.785c-3.934,4.004-7.787,9.174-11.52,15.42c-1.248,2.08-2.473,4.264-3.714,6.603
		c-1.243,2.339-2.718,5.354-4.461,9.05l-0.038,0.061c-2.733,5.771-6.066,13.178-9.993,22.274l0.012,0.05
		c-0.34,0.645-0.625,1.272-0.906,1.963l-1.692-3.09c-19.602,43.125-38.586,80.856-56.963,113.262l-1.609,3.094l-0.113-0.031
		c-17.189,31.277-26.169,62.185-26.925,92.729c-0.036,0.842-0.076,1.681-0.046,2.56c-0.396,30.527,5.904,57.675,18.923,81.546
		l3.852-1.897c0.09,0.189,0.179,0.379,0.261,0.516l0.009,0.056c12.473,23.256,29.725,41.04,51.685,53.469
		c0.413,0.23,0.781,0.466,1.193,0.69l0.062,0.039c23.229,12.742,48.731,17.72,76.426,14.904c0.364-0.026,0.663-0.086,1.021-0.114
		c17.977-1.929,35.262-4.079,51.853-6.56c5.14-0.756,10.274-1.568,15.31-2.357c30.252-4.911,58.055-10.766,83.396-17.568
		c4.223-1.142,8.391-2.276,12.505-3.441c35.98-10.427,66.663-22.819,92.148-37.242c14.025-7.973,26.5-16.566,37.341-25.75
		c-0.008-0.045-0.008-0.045,0.048-0.011c1.593-1.424,3.203-2.8,4.736-4.214c2.733-2.494,5.372-4.971,7.88-7.521
		c0.88-1.071,1.822-2.103,2.747-3.176c18.188-21.227,29.798-43.275,34.878-66.238c4.256-22.587,2.414-46.972-5.493-73.268
		c-1.516-4.989-3.181-10-5.014-14.979c-0.048,0.009-0.048,0.009-0.01-0.052c-10.297-27.455-26.238-55.039-47.81-82.695l-0.062-0.033
		c-5.881-7.568-12.182-15.102-18.898-22.649c-6.308-7.112-12.987-14.199-20.034-21.312c-3.708-3.701-7.408-7.303-11.085-10.852
		c-0.056,0.009-0.056,0.009-0.06-0.043c-1.237-1.15-2.485-2.342-3.72-3.488c-1.686-1.518-3.361-3.047-4.99-4.531
		c-12.103-10.947-24.269-20.736-36.415-29.393c-1.367-1.014-2.712-1.933-4.06-2.844l-0.009-0.051
		c-5.092-3.518-9.875-6.576-14.268-9.25c-9.348-5.592-17.262-9.301-23.761-11.016C290.795,309.429,248.644,316.925,239.021,318.833"
		/>
	<path fill="none" stroke="#00499C" stroke-width="8.1872" stroke-linecap="round" stroke-miterlimit="10" d="M184.63,337.319
		c-0.945,0.768-1.787,1.514-2.603,2.363c-4.478,4.468-8.85,10.435-13.204,17.947c-0.805,1.418-1.66,2.9-2.492,4.427
		c-1.631,2.991-3.498,6.87-5.721,11.551l-0.044,0.059c-2.88,6.067-6.211,13.476-10.08,22.343
		c-19.602,43.125-38.586,80.856-56.963,113.262c-0.58,1.004-1.148,2.064-1.723,3.062c-17.189,31.277-26.169,62.182-26.925,92.731
		c-0.036,0.839-0.073,1.678-0.046,2.557c-0.396,30.527,5.904,57.675,18.923,81.55l0.165,0.327c0.083,0.136,0.104,0.237,0.176,0.33
		c0.065,0.037,0.069,0.086,0.078,0.132c12.864,23.65,30.796,41.655,53.699,54.1c0.43,0.275,0.895,0.492,1.371,0.754
		c0.051-0.012,0.051-0.012,0.111,0.031l0.062,0.037c23.692,12.436,49.701,17.098,77.985,14.056c0.358-0.023,0.758-0.108,1.121-0.127
		c17.97-1.935,35.246-4.135,51.834-6.61l0.106-0.019c5.139-0.766,10.27-1.572,15.304-2.362
		c29.485-4.806,56.653-10.425,81.501-16.859c0.688-0.198,1.394-0.349,2.088-0.542l0.049-0.012c4.224-1.143,8.396-2.271,12.521-3.392
		c35.528-10.068,65.629-21.977,90.383-35.627c0.854-0.438,1.695-0.92,2.5-1.353c-0.008-0.051-0.008-0.051,0.041-0.063
		c8.036-4.485,14.528-8.341,19.569-11.573c7.392-4.825,13.552-9.493,18.521-14.121c4.432-4.148,8.612-8.249,12.443-12.279
		c-0.013-0.045,0.045-0.056,0.082-0.119c0.943-1.027,1.879-2.055,2.818-3.083l0.058-0.014
		c19.586-21.777,31.765-44.148,36.512-67.148l0.037-0.114c0.008-0.21,0.061-0.428,0.131-0.599l0.086-0.594
		c4.203-19.557,1.624-43.994-7.8-73.3c-1.008-3.067-2.063-6.123-3.199-9.269c-0.66-1.943-1.385-3.876-2.091-5.757
		c-0.01-0.056-0.01-0.056-0.017-0.101c-11.456-30.703-24.574-55.596-39.36-74.627c-2.577-3.313-5.017-6.447-7.377-9.442
		c-0.059-0.032-0.059-0.032-0.065-0.083c-7.216-9.162-13.437-16.814-18.602-22.973l-0.065-0.037
		c-3.406-4.02-6.312-7.369-8.809-10.023c-6.019-6.446-13.51-13.936-22.469-22.418l-0.05,0.008c-1.237-1.143-2.435-2.352-3.673-3.498
		c-0.058-0.043-0.058-0.043-0.119-0.08c-1.562-1.447-3.191-2.929-4.825-4.459c-0.053-0.043-0.121-0.131-0.183-0.167
		c-13.304-12.163-27.177-22.583-41.692-31.265c-5.157-3.082-10.079-6.061-14.716-8.895c-8.123-4.965-15.436-9.58-21.928-13.787
		c-0.303-0.199-0.548-0.355-0.851-0.555c-0.863,0.131-1.723,0.311-2.576,0.486c-78.87,13.865-121.024,21.361-126.494,22.559
		c-0.556,0.112-1.059,0.221-1.595,0.385c-0.052,0.012-0.109,0.021-0.151,0.033c-23.776,5.534-40.969,12.924-51.599,22.064
		C184.755,337.187,184.663,337.256,184.63,337.319z"/>
	<path fill="#009FE8" d="M429.888,679.853l0.106,0.009c0.643,0.631,5.564,18.618,14.663,53.998
		c9.287,36.099,14.041,54.427,14.277,54.943l12.727,2.888c30.878,0.463,56.232,4.545,76.015,12.304
		c9.593,3.743,18.72,9.149,27.425,16.171c4.013,3.245,7.396,8.296,10.264,15.168c2.819,6.866,3.743,12.393,2.837,16.584
		c-1.504,6.715-7.433,12.013-17.847,15.872c-28.925,10.701-75.83,8.614-140.666-6.205c-32.414-7.387-61.939-15.888-88.528-25.459
		l-2.573-5.129c-0.227-0.67-0.405-1.394-0.585-2.165c-0.474-3.828-0.842-6.537-1.038-8.224c-0.443-3.225,1.267-24.841,5.053-64.915
		c3.784-40.123,5.499-61.799,5.203-64.961v-0.056l82.623-10.874L429.888,679.853z"/>
	<path fill="none" stroke="#00499C" stroke-width="8.1369" stroke-linecap="round" stroke-miterlimit="10" d="M429.888,679.853
		l-0.045-0.051l-82.623,10.874v0.056c0.296,3.162-1.419,24.838-5.203,64.961c-3.786,40.074-5.496,61.69-5.053,64.915
		c0.196,1.687,0.564,4.392,1.038,8.224c0.18,0.771,0.358,1.495,0.585,2.165l2.573,5.129c26.589,9.571,56.114,18.072,88.528,25.459
		c64.836,14.819,111.741,16.906,140.666,6.205c10.414-3.859,16.343-9.157,17.847-15.872c0.906-4.191-0.018-9.718-2.837-16.584
		c-2.867-6.872-6.251-11.923-10.264-15.168c-8.705-7.021-17.832-12.428-27.425-16.171c-19.782-7.759-45.137-11.841-76.015-12.308
		l-12.727-2.884c-0.236-0.517-4.99-18.845-14.277-54.943c-9.099-35.38-14.021-53.367-14.663-53.998L429.888,679.853z"/>
	<path fill="#009FE8" d="M420.292,129.983c-7.704-12.934-16.313-23.176-25.812-30.677c-12.612-9.878-27.35-15.386-44.262-16.462
		c-0.384-0.037-0.821-0.064-1.255-0.08c-1.577-0.088-3.202-0.154-4.858-0.16c-1.387,0.011-2.772,0.023-4.187,0.104
		c0.151-0.851,0.307-1.7,0.417-2.536c0.073-0.29,0.078-0.61,0.134-0.905c0.009-0.158,0.009-0.322,0.062-0.498
		c0.732-6.592-0.053-13.234-2.315-19.832l-0.041-0.148l-0.033-0.1c-0.093-0.124-0.159-0.322-0.208-0.467
		c-0.105-0.34-0.196-0.628-0.36-0.955c-4.738-12.701-13.653-21.727-26.754-27.112c-13.05-5.409-26.386-5.489-40.074-0.323
		c-13.613,5.246-23.542,14.182-29.727,26.791c-2.379,4.77-3.947,9.592-4.719,14.377c-3.616-2.797-7.737-5.169-12.347-7.068
		c-13.059-5.405-26.383-5.484-40.082-0.316c-8.707,3.357-15.921,8.228-21.621,14.643c-3.189,3.58-5.858,7.633-8.105,12.147
		c-5.553,11.229-6.771,22.515-3.583,33.848c0,0.159,0.028,0.257,0.069,0.402c0.36,1.281,0.825,2.572,1.287,3.866
		c2.014,5.296,4.728,9.931,8.137,13.974c0.071,0.032,0.104,0.128,0.182,0.208c0.098,0.135,0.225,0.196,0.313,0.327
		c0.099,0.132,0.131,0.229,0.226,0.359c0.38,0.683,0.236,1.581-0.552,2.63c-0.028,0.068-0.114,0.144-0.151,0.209
		c-0.11,0.145-0.221,0.291-0.339,0.428c-0.698,0.494-1.45,1.001-2.288,1.536c-0.682,0.376-1.401,0.818-2.164,1.276
		c-0.854,0.484-1.81,1.003-2.804,1.585c-0.144,0.05-0.244,0.08-0.372,0.176c-20.673,11.077-36.58,22.558-47.657,34.427
		c-0.289,0.254-0.563,0.556-0.842,0.857c-12.974,14.128-20.485,30.472-22.437,48.997v19.29l6.092,27.986l2.869,8.332
		c1.21,3.3,2.503,6.681,3.958,10.068c1.703,3.999,3.663,7.811,5.882,11.43c4.119,6.863,9.106,13.131,15.003,18.893
		c3.661,3.594,7.609,6.928,11.978,10.078c14.531,10.547,31.924,17.984,52.172,22.331c5.903,1.269,11.934,2.235,17.976,2.926
		l55.249-1.042c20.027-3.066,40.425-8.982,61.261-17.709l85.763-59.08c7.397-8.127,13.984-16.801,19.842-26.098
		c0.261-0.352,0.464-0.732,0.67-1.07c10.782-17.164,17.462-34.422,19.975-51.843c1.807-11.956,1.541-23.36-0.719-34.292
		l-2.709-10.521c-0.781-2.259-1.613-4.562-2.554-6.827C429.697,147.772,425.186,138.315,420.292,129.983"/>
	<path fill="none" stroke="#00499C" stroke-width="8.1453" stroke-linecap="round" stroke-miterlimit="10" d="M440.329,165.013
		c-2.057-6.771-5.207-14.156-9.451-22.1c-3.047-5.712-5.65-10.338-7.725-13.84c-0.822-1.397-1.578-2.598-2.224-3.624l-9.876-14.536
		l-10.91-11.271c-1.1-0.936-2.85-2.245-5.329-3.969c-3.062-2.072-5.724-3.732-8.003-4.982c-6.76-3.624-12.874-6.214-18.246-7.815
		c-8.697-2.624-17.452-3.255-26.388-1.953c2.382-2.419,3.024-7.112,1.858-13.958c-1.167-6.84-2.907-12.646-5.118-17.395
		c-2.207-4.744-5.355-8.922-9.441-12.537c-4.109-3.662-9.273-6.773-15.468-9.447c-6.192-2.678-12.901-4.28-20.129-4.808
		c-4.085-0.245-8.181-0.172-12.305,0.29c-7.457,0.928-14.394,3.306-20.883,7.082c-5.081,2.85-9.534,6.295-13.44,10.322
		c-3.914,3.969-7.537,10.043-10.879,18.168l-1.279,8.898 M235.093,67.538c-3.591-3.717-6.986-6.16-10.108-7.408
		c-3.141-1.299-6.25-2.34-9.285-3.139c-3.035-0.795-7.17-1.185-12.366-1.074c-5.206,0.104-11.084,1.125-17.646,3.162
		c-6.564,2.041-11.811,4.514-15.749,7.422c-3.935,2.916-7.075,5.467-9.293,7.727c-2.239,2.205-4.446,4.99-6.571,8.393
		c-2.188,3.371-4.358,8.123-6.58,14.23c-2.174,6.092-2.954,12.375-2.313,18.906c0.625,6.485,1.916,12.059,3.906,16.609
		c1.985,4.547,4.914,8.212,8.791,10.982c-1.09,0.614-4.302,2.438-9.62,5.361c-5.368,2.946-9.688,5.497-12.997,7.672
		c-3.319,2.181-7.508,4.958-12.546,8.436c-5.102,3.443-10.474,7.883-16.083,13.248c-5.66,5.389-10.459,11.461-14.345,18.203
		c-3.906,6.695-7.081,13.852-9.531,21.42c-2.436,7.613-3.772,15.311-3.959,23.117c-0.137,4.428,0.049,8.862,0.469,13.371
		c0.736,7.678,1.979,15.244,3.771,22.741c1.632,6.798,3.693,13.413,6.166,19.839c2.771,7.187,6.275,13.98,10.54,20.479
		c4.417,6.659,9.425,12.813,15.03,18.508c5.279,5.316,11.071,9.936,17.323,13.768c5.707,3.477,11.541,6.53,17.514,9.17
		c7.297,3.285,14.813,5.911,22.597,7.871c7.326,1.832,14.778,3.086,22.307,3.735c5.275,0.456,13.132,0.624,23.631,0.54l37.778-2.368
		c6.606-0.562,13.032-1.858,19.276-3.899l33.169-10.949c3.347-1.07,8.068-3.371,14.087-6.949l37.165-25.74
		c4.502-3.146,9.038-6.196,13.634-9.207c6.662-4.418,13.122-9.148,19.5-14.119c6.263-4.993,12.003-10.455,17.28-16.358
		c4.498-5.018,8.625-10.339,12.388-15.972c1.21-1.725,2.514-4.012,3.987-6.779c1.463-2.769,3.501-6.785,6.128-11.942
		c2.583-5.154,4.793-10.782,6.565-16.794c1.761-6.061,3.343-12.658,4.657-19.764c1.32-7.098,1.646-14.47,1.046-22.188
		c-0.6-7.773-2.108-15.357-4.476-22.785"/>
	<path fill="#FFFFFF" d="M337.573,57.267c-4.738-12.705-13.653-21.725-26.754-27.112c-13.05-5.409-26.386-5.489-40.074-0.323
		c-13.613,5.246-23.542,14.182-29.727,26.791c-2.379,4.765-3.947,9.592-4.719,14.381c-3.616-2.801-7.737-5.176-12.347-7.072
		c-13.059-5.405-26.383-5.484-40.082-0.316c-13.605,5.244-23.532,14.18-29.727,26.787c-6.282,12.637-6.98,25.367-2.227,38.119
		c4.877,12.768,13.805,21.838,26.891,27.18c13.087,5.348,26.462,5.405,40.106,0.26c13.593-5.138,23.521-14.068,29.694-26.729
		c2.381-4.765,3.941-9.592,4.715-14.377c3.619,2.797,7.738,5.169,12.357,7.068c13.083,5.338,26.47,5.406,40.104,0.252
		c13.601-5.133,23.521-14.066,29.697-26.725C341.749,82.765,342.447,70.033,337.573,57.267"/>
	<path fill="#231815" d="M208.59,131.075c4.253-3.92,8.679-6.451,13.299-7.553c5.238-1.187,10.568-0.38,15.931,2.348
		c1.167,0.65,2.373,0.746,3.598,0.406c1.2-0.436,2.125-1.213,2.754-2.427c0.559-1.087,0.658-2.296,0.303-3.572
		c-0.367-1.321-1.161-2.301-2.342-2.831c-7.534-4.013-14.992-5.109-22.403-3.226c-6.366,1.493-12.466,4.985-18.341,10.542
		c-1.713,1.67-3.326,3.467-4.85,5.398c-1.152,1.597-1.74,2.42-1.789,2.441c-0.723,1.083-0.932,2.277-0.626,3.562
		c0.263,1.306,0.952,2.318,2.036,3.037c1.036,0.742,2.242,0.998,3.663,0.759c1.324-0.368,2.335-1.062,2.923-2.055l-0.033-0.097
		C205.222,134.604,207.168,132.325,208.59,131.075"/>
	<path fill="#231815" d="M262.932,80.248c4.249-3.925,8.682-6.456,13.298-7.557c5.237-1.183,10.569-0.376,15.934,2.356
		c1.17,0.641,2.37,0.736,3.595,0.402c1.201-0.436,2.121-1.219,2.755-2.432c0.563-1.087,0.661-2.297,0.306-3.573
		c-0.368-1.321-1.161-2.296-2.338-2.827c-7.536-4.012-15.002-5.109-22.411-3.231c-6.366,1.495-12.467,4.993-18.338,10.554
		c-1.71,1.668-3.328,3.461-4.853,5.393c-1.147,1.598-1.741,2.42-1.789,2.438c-0.719,1.091-0.928,2.275-0.625,3.566
		c0.261,1.306,0.952,2.315,2.034,3.038c1.039,0.741,2.244,0.996,3.664,0.758c1.324-0.368,2.334-1.066,2.93-2.055l-0.037-0.097
		C259.567,83.778,261.513,81.498,262.932,80.248"/>
	<path fill="#0E0000" d="M404.53,135.689l-4.849-14.215c-28.799,36.91-77.003,63.069-144.536,78.558
		c-21.109,4.857-42.927,8.338-65.454,10.438l-27.347,1.72c25.296,50.349,63.528,73.54,114.752,69.452
		c15.97-1.189,32.258-5.102,48.932-11.641c8.322-3.236,15.06-6.406,20.235-9.445c39.119-22.135,59.749-51.965,61.952-89.486
		C408.825,159.39,407.627,147.583,404.53,135.689"/>
	<path fill="#009FE8" d="M194.324,328.438c1.313,0.598,2.559,1.158,3.873,1.756c-1.376-0.791-2.749-1.581-4.121-2.371
		C194.203,328.054,194.264,328.241,194.324,328.438"/>
	<path fill="#009FE8" d="M299.149,711.379h0.104c0.664,0.61,6.233,18.447,16.615,53.553c10.585,35.826,16.003,54.014,16.26,54.526
		l12.844,2.432c30.94-0.638,56.479,2.55,76.572,9.615c9.733,3.404,19.064,8.496,28.04,15.216c4.135,3.104,7.708,8.044,10.82,14.822
		c3.068,6.778,4.191,12.28,3.43,16.508c-1.263,6.781-7.021,12.29-17.313,16.533c-28.577,11.749-75.63,11.334-141.084-1.202
		c-32.731-6.23-62.605-13.699-89.576-22.338l-2.754-5.045c-0.254-0.663-0.462-1.379-0.661-2.137
		c-0.619-3.824-1.084-6.528-1.338-8.211c-0.563-3.21,0.389-24.923,2.751-65.191c2.353-40.315,3.296-62.083,2.892-65.242v-0.051
		l82.355-13.839L299.149,711.379z"/>
	<path fill="none" stroke="#00499C" stroke-width="8.1537" stroke-linecap="round" stroke-miterlimit="10" d="M299.149,711.379
		l-0.044-0.051l-82.355,13.839v0.051c0.404,3.159-0.539,24.927-2.892,65.242c-2.362,40.269-3.314,61.981-2.751,65.191
		c0.254,1.687,0.719,4.387,1.338,8.211c0.199,0.758,0.407,1.474,0.661,2.137l2.754,5.045c26.971,8.639,56.845,16.107,89.576,22.338
		c65.454,12.536,112.507,12.951,141.084,1.202c10.293-4.243,16.051-9.752,17.313-16.533c0.762-4.228-0.361-9.729-3.43-16.508
		c-3.112-6.778-6.686-11.719-10.82-14.822c-8.976-6.72-18.307-11.812-28.04-15.216c-20.094-7.065-45.632-10.253-76.572-9.615
		l-12.844-2.432c-0.257-0.513-5.675-18.7-16.26-54.526c-10.382-35.105-15.951-52.942-16.615-53.553H299.149z"/>
	<path fill="#009FE8" d="M365.566,311.459c-79.294,13.999-121.565,21.62-126.89,22.782c-25.991,5.879-44.047,13.86-54.214,23.96
		c-5.225,5.149-10.291,12.278-15.219,21.331c-3.312,6.062-8.461,16.814-15.422,32.311c-18.969,41.727-37.738,78.952-56.302,111.667
		c-16.767,29.574-25.702,59.582-26.698,89.938c-0.966,28.282,4.942,54.081,17.705,77.349c12.468,22.823,29.825,40.165,52.074,52.021
		c23.236,12.354,48.808,16.943,76.684,13.881c142.431-15.642,240.753-47.411,295.005-95.401
		c44.401-39.312,57.877-87.67,40.463-145.169c-13.667-45.248-43.744-90.621-90.161-136.252
		c-18.387-18.031-36.91-33.472-55.459-46.299C389.659,321.423,375.846,314.077,365.566,311.459"/>
	<path fill="#009FE8" d="M208.46,538.037c9.201,4.595,18.811,8.513,28.908,11.806c40.439,13.207,80.927,12.9,121.384-0.896
		c40.471-13.96,71.898-39.049,94.333-75.331c16.865-27.345,26.078-56.741,27.673-88.154l-11.171,1.187l-0.217-0.008l-1.699,0.2
		c1.799-5.534,2.603-8.827,2.406-9.878c-0.195-1.1-0.467-1.647-0.81-1.748c-0.163-0.024-0.266-0.004-0.417,0.08
		c-1.748,0.209-2.827,0.248-3.239,0.108c-0.69-0.255-1.431-0.439-2.246-0.456c0.007,0.056-0.2,0.363-0.577,0.979
		c-0.294,0.486-0.363,1.254-0.172,2.306c0.442,2.412,0.36,5.462-0.217,9.149l-59.993,6.28c-3.356-2.91-6.304-5.672-8.846-8.295
		c0.932,0.048,2.202,0.467,3.856,1.245c1.981,0.99,3.473,1.743,4.543,2.255l0.164-0.574c-0.729-1.553-2.616-3.312-5.64-5.309
		c-2.474-1.652-4.819-2.903-7.029-3.744c-0.622,1.037-0.592,2.389,0.064,3.943c0.809,1.424,1.234,2.268,1.267,2.423
		c-0.489-0.012-1.349,0.034-2.477,0.08c-1.021,0.079-1.707,0.151-2.07,0.223c0.923,2.698,3.235,4.932,6.867,6.702
		c1.132,0.551,2.48,1.059,4.041,1.59l-7.239,0.786l0.103,0.847c-47.229,66.441-105.045,80.133-173.449,41.068L208.46,538.037z"/>
	<path fill="#009FE8" d="M469.096,386.035c0.103,0.255,0.188,0.451,0.274,0.603l0.217,0.012c-0.045-0.264-0.11-0.631-0.189-0.994
		C469.333,385.835,469.244,385.954,469.096,386.035"/>
	<path fill="#009FE8" d="M467.029,349.225c0.356,1.616,1.034,2.954,2.076,3.903c4.184,3.885,6.999,7.656,8.478,11.286l6.123-1.183
		L467.029,349.225z"/>
	
		<path fill="none" stroke="#00499C" stroke-width="8.5302" stroke-linecap="round" stroke-linejoin="round" stroke-miterlimit="10" d="
		M480.758,385.459c-1.595,31.413-10.808,60.812-27.673,88.155c-22.435,36.283-53.862,61.37-94.333,75.336
		c-40.457,13.793-80.944,14.098-121.384,0.893c-10.098-3.293-19.707-7.215-28.908-11.806c-2.145-1.067-4.308-2.189-6.423-3.372
		 M213.033,434.837c1.163,0.707,2.366,1.351,3.525,2.062c68.408,39.064,126.225,25.373,173.453-41.062 M467.671,386.84l1.699-0.202
		l0.217,0.014l11.171-1.192 M480.864,366.901c0.231,6.295,0.231,12.479-0.105,18.558 M389.909,394.984l7.236-0.787 M402.407,393.658
		l59.993-6.28"/>
	<path fill="#009FE8" d="M355.816,366.874c6.279,5.84,12.986,11.053,20.164,15.588c6.59,4.26,10.861,6.237,12.764,6l49.022,8.91
		c10.181-2.146,19.573-5.018,28.079-8.59c3.227-4.551,7.161-8.798,11.879-12.867c2.845-2.531,5.149-5.344,6.999-8.551
		c9.136-16.002,21.162-27.541,36.128-34.581c0.119-0.239,0.185-0.47,0.253-0.698c3.714-12.229,4.286-23.504,1.691-33.764
		c-2.482-9.674-6.389-14.379-11.703-14.104c-13.561,0.819-21.417,6.165-23.532,16.156c-0.561,2.866-0.78,6.974-0.591,12.411
		c0.046,1.4,0.067,2.699,0.018,3.899c-0.127-1.548-0.45-3.274-0.861-5.257c-1.213-6.556-3.391-12.822-6.606-18.794
		c-8.817-16.646-20.418-23.177-34.801-19.661c-7.88,1.07-11,8.529-9.363,22.436c3.284,15.168,5.005,24.23,5.279,27.164
		c-6.833-18.534-13.36-31.319-19.48-38.373c-10.136-11.742-22.11-14.035-35.96-6.822c-6.08,3.18-7.986,12.534-5.675,28.047
		c2.198,14.286,5.189,23.168,9.017,26.582c-7.992-4.543-15.901-7.753-23.774-9.557c-12.148-2.689-20.525-0.77-25.162,5.832
		C332.995,337.741,338.398,350.62,355.816,366.874"/>
	<path fill="#009FE8" d="M484.723,367.362c-1.85,3.213-4.154,6.02-6.999,8.551c-4.718,4.071-8.652,8.318-11.879,12.869
		c11.615-4.902,21.755-11.107,30.276-18.642c11.999-10.511,20.277-22.985,24.729-37.36
		C505.885,339.822,493.859,351.364,484.723,367.362"/>
	<path fill="#009FE8" d="M392.266,398.759c0.412,0.739,0.624,1.347,0.719,1.818c0.074,0.419,0.184,0.725,0.388,0.965
		c3.143,0.232,7.797,1.379,14.091,3.47c11.893,3.938,20.261,6.411,25.117,7.465c8.303,1.778,16.007,2.418,23.019,1.94
		c0.657-3.484,1.363-7.027,2.058-10.627c1.953-1.441,3.947-3.273,5.99-5.438c0.294-0.168,0.593-0.331,0.882-0.494
		c1.688-0.902,3.166-1.665,4.4-2.325c0.148,0.787,0.303,1.626,0.465,2.519c0.32,1.727,0.482,2.025,0.548,0.928l1.345-0.088
		c-0.021-0.371,0.516-2.204,1.533-5.484c0.302-0.113,0.55-0.264,0.787-0.417c0.638-0.391,1.26-0.829,1.785-1.197
		c0.104-0.94,0.237-1.991,0.458-3.116c0.561-2.87,1.427-4.924,2.639-6.289c0.005-0.271-0.056-0.59-0.122-0.949
		c1.39-0.694,2.722-1.426,4.049-2.162c1.819-1.038,3.608-2.182,5.3-3.306c2.557-1.716,4.979-3.573,7.329-5.526
		c3.442-2.803,6.572-5.82,9.503-9.065c4.836-6.096,8.399-11.472,10.63-16.167c2.23-4.639,4.125-9.649,5.568-15.068
		c0.408-1.322,0.806-2.693,1.191-4.12l-174.084,32.071c0.73,1.004,1.45,1.959,2.226,2.953c1.472,1.787,3.216,3.581,5.213,5.325
		c2.126,1.828,5.528,4.683,10.292,8.515c4.776,3.836,9.426,6.99,13.956,9.518c4.481,2.539,7.309,4.075,8.457,4.682l0.045-0.015
		l0.555,0.063c0.545,0.008,0.92,0.264,1.162,0.702c0.064,0.052,0.067,0.101,0.134,0.144l0.086,0.146
		c0.257,0.225,0.719,0.409,1.382,0.452c0.874,0.054,1.482,0.376,1.816,1.017c0.01,0.053,0.013,0.108,0.079,0.15
		c0.15,0.568,0.477,1.432,0.904,2.598c0.034,0.16,0.051,0.264,0.071,0.367c-0.662,1.098-1.079,2.369-1.188,3.85L392.266,398.759z
		 M431.936,387.766l0.352,1.618c-1.158,0.484-3.081,0.347-5.758-0.353c-1.413-0.335-3.084-0.841-5.094-1.446l0.31-0.113
		c1.676-0.033,3.626-0.013,5.758,0.079C429.852,387.659,431.328,387.714,431.936,387.766 M472.054,382.487
		c-0.571,0.433-1.074,0.904-1.528,1.42c-2.741,0.668-6.074,2.042-9.874,4.096c0.241-1.344,0.527-2.753,0.802-4.213
		c1.283-6.85,4.261-10.107,8.972-9.84c1.82,0.154,3.521,0.869,5.013,2.171c1.548,1.335,2.482,2.898,2.806,4.683
		c0.017,0.053,0.021,0.104,0.034,0.158c-0.205-0.828-0.65-1.18-1.269-1.012c-0.362,0.119-0.656,0.283-0.975,0.609
		c-0.308,0.385-1.01,1-2.031,1.896c-0.065-0.047-0.114-0.035-0.168-0.026C473.563,382.425,472.965,382.425,472.054,382.487"/>
	<path fill="#009FE8" d="M486.835,318.827c-0.272-1.789-0.637-3.732-1.07-5.82c-1.417-6.839-3.714-13.357-6.769-19.678
		c-0.009-0.055-0.018-0.105-0.029-0.154c-0.009-0.056-0.208-0.508-0.583-1.414c-0.12-0.303-0.268-0.55-0.418-0.793
		c0.04-0.057,0.025-0.163,0.064-0.225c-0.011-0.059-0.073-0.096-0.138-0.139l0.041-0.061c-9.486-15.01-20.742-20.789-33.783-17.469
		c-5.655,0.824-8.641,5.221-8.909,13.187l-0.042,0.063c-0.109,2.949,0.098,6.379,0.589,10.25c3.639,16.512,5.658,26.33,6.074,29.457
		c-5.579-15.297-10.896-27.057-15.928-35.285c-0.051,0.058-0.141,0.129-0.185,0.192c-1.517-2.327-3.031-4.376-4.548-6.104
		c-1.417-1.576-2.819-2.998-4.195-4.267c-4.686-4.556-9.479-7.037-14.497-7.468c-5.668-0.795-11.601,0.566-17.722,4.135
		c-3.296,1.852-5.177,5.776-5.576,11.816c-0.756,3.553-0.604,7.592,0.462,12.223c0.217,0.882,0.485,1.752,0.702,2.635
		c0.205,1.1,0.418,2.256,0.576,3.413c3.113,15.425,6.656,24.962,10.699,28.666c-8.257-5.102-16.325-8.599-24.318-10.483
		c-1.72-0.498-3.294-0.806-4.745-1.025c-0.27-0.004-0.612-0.105-0.96-0.203c-4.685-1.035-8.845-0.646-12.46,1.21
		c-2.856,1.288-5.092,3.272-6.759,6.018c0.01,0.05,0.01,0.05-0.039,0.062c-0.193,0.418-0.446,0.842-0.704,1.16l-0.056,0.008
		c-2.938,4.932-2.445,10.859,1.597,17.813c1.217,2.435,2.754,4.919,4.646,7.552l174.084-32.077c0.086-0.397,0.237-0.743,0.333-1.146
		c0.109-0.289,0.158-0.624,0.213-0.904l-0.034-1.672l0.049-0.013c-0.035-0.481-0.028-1.026-0.042-1.724
		c0.014-0.767,0.113-1.431,0.386-1.976c0.078-5.806-0.548-12.416-1.834-19.717c-0.165-1.161-0.389-2.367-0.725-3.605
		c-1.016-3.177-2.355-5.747-4.023-7.72c-0.065-0.041-0.069-0.096-0.139-0.136c-1.447-1.09-3.052-1.608-4.783-1.558l-0.05,0.014
		l-0.065-0.049c-3.906,0.285-6.169,0.379-6.888,0.295c-0.155-0.023-0.532,0.041-1.211,0.172c-2.724,0.496-5.698,1.752-8.896,3.805
		c-0.053,0.01-0.053,0.01-0.102,0.021c-0.054,0.01-0.054,0.01-0.111,0.018l-0.046,0.008l-0.056,0.009
		c-0.033,0.116-0.123,0.188-0.227,0.26c-0.044,0.009-0.044,0.009-0.106,0.021l-0.994,0.777c-0.443,0.52-0.888,1.035-1.345,1.494
		l-0.055,0.012c-0.04,0.059-0.13,0.185-0.165,0.248c-0.908,1.252-1.451,2.164-1.676,2.694c-0.612,1.093-1.107,2.807-1.606,5.121
		c-0.656,3.485-0.936,7.274-0.873,11.437C486.921,316.371,486.946,318.539,486.835,318.827"/>
	<path fill="#00499C" d="M382.75,395.961c0.111-0.024,0.201-0.097,0.298-0.168l0.267,0.874c0.462,0.459,1.229,0.805,2.299,0.989
		c0.948,0.15,1.529,0.367,1.701,0.714c0.255,0.496,0.366,0.8,0.331,0.912c-0.09,0.075-0.137,0.139-0.115,0.242l1.597-0.454
		c0.118,0.354,0.148,0.515,0.155,0.565l2.983-0.877l0.772-0.199c0.113-1.482,0.53-2.748,1.192-3.846
		c-0.021-0.104-0.04-0.212-0.071-0.367c-0.428-1.173-0.754-2.033-0.904-2.599c-0.066-0.04-0.069-0.097-0.079-0.151
		c-0.334-0.639-0.942-0.967-1.816-1.02c-0.663-0.041-1.125-0.222-1.382-0.447l-0.086-0.146c-0.066-0.047-0.069-0.096-0.134-0.143
		c-0.245-0.439-0.617-0.699-1.162-0.703l-0.555-0.063l-0.045,0.011c-1.148-0.603-3.976-2.14-8.457-4.678
		c-4.53-2.527-9.18-5.682-13.956-9.518c-4.764-3.836-8.166-6.682-10.292-8.515c-1.997-1.743-3.737-3.54-5.213-5.324
		c-2.899-3.698-5.225-7.171-6.871-10.507c-0.393-0.68-0.788-1.366-1.14-2.061l-8.491,1.564c1.399,3.158,3.396,6.367,5.912,9.748
		c1.544,2.158,3.347,4.32,5.325,6.504v0.327l1.438,1.899c0.126,0.088,0.257,0.172,0.314,0.217l-0.044,0.063l0.068,0.096
		c0.212,0.23,0.342,0.368,0.52,0.444l0.064,0.043c13.613,12.131,24.578,20.41,32.81,24.802c0.303,0.163,0.553,0.335,0.862,0.544
		c0.12,0.038,0.18,0.075,0.242,0.121c0.486,0.289,1.013,0.516,1.604,0.792C382.713,395.751,382.734,395.853,382.75,395.961
		 M351.987,366.388c-0.049,0.008-0.158,0.03-0.216-0.013C351.829,366.418,351.938,366.396,351.987,366.388"/>
	<path fill="#00499C" d="M333.577,350.046l8.491-1.564c-2.954-6.071-3.105-11.301-0.457-15.748l0.056-0.012
		c0.258-0.316,0.511-0.74,0.704-1.154c0.052-0.012,0.052-0.012,0.039-0.067c1.667-2.744,3.902-4.728,6.759-6.012
		c3.615-1.856,7.775-2.245,12.46-1.214c0.348,0.1,0.69,0.203,0.96,0.207c1.451,0.217,3.025,0.527,4.745,1.02
		c7.989,1.891,16.062,5.389,24.318,10.484c-4.043-3.703-7.586-13.24-10.699-28.662c-0.158-1.162-0.371-2.318-0.571-3.416
		c-0.222-0.883-0.49-1.753-0.707-2.639c-1.066-4.625-1.214-8.662-0.462-12.219c0.399-6.037,2.28-9.961,5.576-11.812
		c6.121-3.574,12.054-4.934,17.729-4.135c5.012,0.43,9.805,2.908,14.49,7.469c1.376,1.262,2.778,2.686,4.199,4.267
		c1.513,1.728,3.027,3.776,4.544,6.103c0.044-0.062,0.134-0.134,0.185-0.195c5.036,8.232,10.349,19.992,15.928,35.281
		c-0.416-3.117-2.436-12.938-6.074-29.453c-0.491-3.871-0.698-7.301-0.589-10.246l0.042-0.068
		c0.269-7.959,3.254-12.361,8.909-13.182c13.041-3.324,24.297,2.456,33.783,17.461l-0.041,0.068c0.064,0.043,0.127,0.08,0.138,0.139
		c-0.039,0.059-0.024,0.161-0.064,0.225c0.15,0.242,0.298,0.486,0.418,0.791c0.375,0.908,0.574,1.36,0.583,1.409
		c0.012,0.052,0.021,0.106,0.029,0.155c3.055,6.327,5.352,12.845,6.769,19.684c0.434,2.088,0.798,4.029,1.07,5.82
		c0.11-0.292,0.09-2.455,0.03-6.618c-0.062-4.169,0.217-7.953,0.873-11.438c0.499-2.319,0.994-4.034,1.606-5.121
		c0.225-0.531,0.768-1.444,1.676-2.694c0.035-0.064,0.125-0.188,0.165-0.252l0.058-0.008c0.454-0.459,0.898-0.975,1.342-1.492
		l0.994-0.779c0.062-0.012,0.062-0.012,0.106-0.021c0.097-0.07,0.193-0.146,0.227-0.259l0.056-0.013l0.046-0.007
		c0.058-0.005,0.058-0.005,0.111-0.019c0.049-0.009,0.049-0.009,0.102-0.021c3.198-2.054,6.173-3.306,8.896-3.808
		c0.679-0.125,1.052-0.192,1.211-0.166c0.723,0.078,2.981-0.01,6.888-0.298l0.065,0.046l0.05-0.014
		c1.731-0.045,3.336,0.475,4.783,1.557c0.069,0.048,0.073,0.096,0.139,0.143c1.668,1.971,3.008,4.539,4.023,7.714
		c0.336,1.243,0.56,2.448,0.725,3.612c1.032,5.936,1.651,11.344,1.806,16.311l8.392-1.549c-0.199-7.229-1.178-14.043-3.049-20.363
		c-1.181-4.067-2.729-7.469-4.706-10.25c-1.765-1.03-3.624-2.309-5.572-3.744c-1.361-0.348-2.905-0.762-4.677-1.251
		c-0.389-0.088-0.798-0.235-1.142-0.331c-2.364-0.164-4.991-0.004-7.762,0.561c-9.155,1.795-15.145,4.854-18.091,9.191l-0.053,0.008
		c-0.072,0.176-0.618,1.088-1.603,2.791c-0.203,0.359-0.408,0.723-0.566,1.025c-0.012-0.055-0.025-0.104-0.032-0.154
		c-0.086-0.207-0.217-0.884-0.364-1.996c-0.1-0.523-0.179-0.942-0.233-1.254c-0.008-0.056-0.028-0.16-0.101-0.257
		c-0.104-0.251-0.168-0.618-0.309-1.085c-0.081-0.146-0.17-0.348-0.199-0.506c-0.106-0.246-0.213-0.555-0.294-0.975
		c-10.97-16.9-24.143-23.691-39.568-20.251c-9.028,1.288-14.032,6.491-15.03,15.508c-1.548-1.933-3.142-3.812-4.805-5.509
		l-0.068-0.043c-11.546-11.484-23.934-13.696-37.126-6.715c-13.396,7.025-18.074,18.675-14.164,34.925
		c1.59,6.588,3.195,12.366,4.798,17.219c-4.079-1.849-8.64-3.338-13.679-4.522c-11.616-2.689-20.979,1.204-28.006,11.611
		C330.093,333.771,329.656,341.392,333.577,350.046"/>
	<path fill="#00499C" d="M477.136,396.841c0.229,0.934,0.299,1.029,0.324,0.268l3.115-0.74c0.014-0.49,0.529-2.426,1.533-5.811
		c0.233-0.799,0.417-1.541,0.503-2.26l0.049-0.012c0.739-0.41,1.368-0.85,1.891-1.214c0.165-0.032,0.268-0.052,0.375-0.017
		c1.727-0.971,3.426-2.036,5.214-3.233c0.818-0.534,1.696-1.077,2.614-1.679c4.182-2.883,8.522-6.125,12.887-9.802
		c11.108-9.148,18.765-21.728,22.992-37.634c0.585-2.109,1.107-4.269,1.547-6.352c0.44-1.982,0.795-3.89,1.091-5.845
		c-0.018-0.049-0.027-0.104-0.039-0.204c-0.067-1.234,0.009-2.279,0.189-3.074c-0.061-0.043-0.178-0.076-0.236-0.118
		c0.04-1.849,0.081-3.697,0.02-5.48l-8.392,1.548c0.049,1.13,0.035,2.268,0.028,3.405c-0.272,0.545-0.372,1.209-0.386,1.976
		c0.014,0.697,0.007,1.242,0.042,1.724l-0.049,0.013l0.028,1.672c-0.049,0.28-0.098,0.615-0.207,0.904
		c-0.467,1.879-1.019,3.607-1.524,5.271c-1.443,5.418-3.338,10.426-5.568,15.064c-2.23,4.695-5.794,10.07-10.63,16.165
		c-2.931,3.252-6.056,6.267-9.503,9.065c-2.35,1.955-4.772,3.812-7.329,5.531c-1.691,1.121-3.48,2.268-5.3,3.306
		c-1.327,0.731-2.659,1.463-4.049,2.157c0.066,0.365,0.127,0.678,0.122,0.949c-1.212,1.365-2.078,3.418-2.639,6.288
		c-0.216,1.126-0.354,2.175-0.458,3.117c-0.147,1.55-0.127,2.847,0.073,3.892c0.201,1.107,0.412,1.661,0.643,1.729l0.274-0.268
		L477.136,396.841z"/>
</g>
<g id="_x37_" display="none">
</g>
<g id="_x36_" display="none">
</g>
<g id="_x35_" display="none">
</g>
<g id="_x34_" display="none">
</g>
<g id="_x33_" display="none">
</g>
<g id="_x32_" display="none">
</g>
<g id="_x31_" display="none">
</g>
<g id="_x30_" display="none">
</g>
<g id="guide" display="none">
</g>
</svg>
