<?xml version="1.0" encoding="utf-8"?>
<!-- Generator: Adobe Illustrator 16.2.1, SVG Export Plug-In . SVG Version: 6.00 Build 0)  -->
<!DOCTYPE svg PUBLIC "-//W3C//DTD SVG 1.1//EN" "http://www.w3.org/Graphics/SVG/1.1/DTD/svg11.dtd">
<svg version="1.1" xmlns="http://www.w3.org/2000/svg" xmlns:xlink="http://www.w3.org/1999/xlink" x="0px" y="0px"
	 width="295.371px" height="240.04px" viewBox="0 0 295.371 240.04" enable-background="new 0 0 295.371 240.04"
	 xml:space="preserve">
<g id="base">
</g>
<g id="book3">
</g>
<g id="_x38_" display="none">
</g>
<g id="_x37_">
	<g>
		<g>
			<path fill="#4F2006" d="M221.625,50.721c-3.154,0-6.064-1.887-7.187-5.058l-0.137-0.386c-1.432-4.077,0.715-8.535,4.787-9.969
				c4.064-1.452,8.534,0.707,9.963,4.784c1.434,4.075-0.638,8.729-4.71,10.159C223.443,50.57,222.529,50.721,221.625,50.721z"/>
		</g>
		<g>
			<path fill="#B66D13" d="M272.111,89.988c-3.645-9.512-7.936-17.197-12.766-22.934c-4.828-5.604-11.331-11.209-19.803-16.547
				c-8.482-5.348-16.43-10.3-23.854-14.871c-7.68-4.551-16.917-7.418-27.892-8.715c-10.809-1.188-20.194-0.664-28.146,1.553
				c-12.119-0.133-24.119,0.128-35.981,0.777c-11.856,0.535-23.568,3.265-35.318,8.09c-11.856,4.951-19.422,9.766-22.678,14.463
				c-11.201,7.432-20.196,15.25-26.83,23.453c-12.119,14.602-17.995,32.451-17.741,53.441c0.134,21.112,5.23,37.659,15.018,49.775
				c9.882,12.117,17.06,20.474,21.62,25.164c4.56,4.564,11.189,8.076,19.935,10.287c8.731,2.488,17.99,4.703,27.763,6.646
				c9.632,2.091,19.158,3.124,28.54,3.261c9.514-0.137,18.239-0.901,26.336-2.342c7.934-1.566,16.405-3.646,25.66-6.265
				c9.256-2.726,21.238-6.376,36.101-11.073c14.719-4.704,26.578-12.643,35.574-23.86c8.992-11.072,14.598-26.574,16.807-46.255
				C276.549,114.354,275.768,99.635,272.111,89.988"/>
		</g>
		<g>
			<path fill="#6B3D1B" d="M133.978,232.74c-0.047,0-0.083,0-0.124,0c-10.353-0.137-20.333-1.266-30.483-3.457
				c-9.125-1.83-18.403-4-28.214-6.636c-10.141-2.745-18.173-7.058-23.896-12.796c-4.998-5.117-12.656-13.909-22.225-25.549
				c-11.311-13.811-17.086-32.549-17.222-55.68c-0.149-23.238,6.566-43.211,19.983-59.348c6.919-8.568,16.18-16.799,27.443-24.408
				c4.593-5.475,12.763-10.622,25.491-16.084c12.722-5.424,25.723-8.389,38.633-8.809c10.693-0.602,22.25-0.909,35.087-0.923
				c8.783-2.228,18.883-2.747,30.333-1.511c12.569,1.66,22.781,4.951,31.444,10.082c7.682,4.65,15.699,9.639,24.119,15.02
				c8.815,5.577,16.168,11.742,21.819,18.303c5.551,6.581,10.27,14.962,14.473,25.695c4.121,11.14,5.066,26.846,2.934,48.172
				c-2.551,21.443-8.854,38.564-18.744,51.059c-10.104,12.594-23.588,21.619-40.113,26.887c-14.84,4.731-26.926,8.41-36.245,11.04
				c-8.926,2.644-17.891,4.859-26.534,6.551C152.981,231.946,143.622,232.74,133.978,232.74z M177.079,35.211
				c-5.56,0-10.599,0.616-14.956,1.839c-0.809,0.22-1.636,0.333-2.471,0.333c-12.976,0-24.576,0.297-35.476,0.904
				c-10.848,0.358-21.62,2.831-32.229,7.353c-14.071,6.038-17.905,9.945-18.911,11.345c-0.648,0.92-1.473,1.713-2.412,2.335
				c-10.277,6.799-18.574,14.06-24.653,21.57c-10.794,13.006-15.935,28.55-15.811,47.622c0.089,18.846,4.488,33.697,13.046,44.164
				c11.661,14.176,17.913,21.028,21.097,24.288c3.366,3.384,8.651,6.091,15.629,7.981c9.392,2.525,18.291,4.614,27.174,6.383
				c9.057,1.951,17.834,2.953,26.936,3.079c8.55,0,16.808-0.698,24.538-2.067c7.901-1.57,16.313-3.637,24.796-6.152
				c9.273-2.621,21.172-6.236,35.781-10.896c13.034-4.156,23.574-11.166,31.344-20.85c7.719-9.754,12.725-23.773,14.854-41.615
				c2.244-22.553,0.242-34.032-1.836-39.658c-3.354-8.549-7.189-15.449-11.307-20.336c-4.394-5.109-10.372-10.087-17.703-14.713
				c-8.315-5.324-16.201-10.232-23.698-14.768c-6.412-3.801-14.361-6.302-24.215-7.607C183.408,35.398,180.17,35.211,177.079,35.211
				z"/>
		</g>
		<g>
			<path fill="#431C05" d="M213.322,59.533c-0.521,0.396-1.043,0.908-1.451,1.317c-8.2,6.897-15.229,12.106-21.241,15.626
				c-1.945,1.176-3.252,2.088-3.763,2.612c-0.783,0.778-1.171,1.69-1.046,2.6c1.046,7.433,5.582,11.606,13.545,12.513
				c3.253,0.398,10.437-0.27,21.633-1.689c1.172-0.127,2.079-0.777,3.012-1.96c2.99-4.821,4.553-7.164,4.694-7.288
				c3.767-5.611,5.721-9.512,5.865-11.482c0.115-2.217,0.388-4.033,0.896-5.207c0.662-1.17-1.17-2.999-5.609-5.336
				C225.331,58.754,219.699,58.229,213.322,59.533"/>
		</g>
		<g>
			<path fill="#431C05" d="M154.429,131.82l3.521,1.704c4.827,0.116,10.697,0.116,17.727-0.134c5.091-0.125,8.731,0,10.938,0.523
				c0.929-1.308,2.754-3.258,5.222-5.994c2.599-2.609,4.687-4.568,6.124-5.736c-0.391-0.649-1.175-2.734-2.354-6.254
				c-0.631-1.959-1.171-3.661-1.556-4.824c-2.866-1.316-6.645-1.827-11.467-1.703c-4.569,0.387-6.782,0.536-6.907,0.536
				c-2.472,0.389-5.724,2.728-9.765,7.169C163.035,120.357,159.266,125.311,154.429,131.82"/>
		</g>
		<g>
			<path fill="#431C05" d="M100.547,58.588c-6.897,2.867-12.503,5.207-16.804,7.166c-8.216,3.777-12.11,6.643-11.852,8.727
				c0.259,1.438,1.553,3.01,4.025,4.685c3.02,2.091,5.092,4.307,6.531,6.654c1.171,2.217,2.991,3.122,5.214,2.742
				c2.735-0.396,8.348-0.923,16.801-1.69c6.001-0.652,12.005-2.48,17.98-5.615c1.307,0.533,2.47,1.045,3.649,1.57
				c0.275,0.125,0.539,0.256,0.664,0.387c0.389-0.131,1.034-0.387,1.703-0.64c2.079-0.925,5.34-2.612,9.767-5.351
				c-1.051-1.436-3.014-6.388-5.735-15.125c-2.473-7.426-4.565-11.726-6.123-12.758c-7.172,1.676-12.124,3.246-15.123,4.678
				C106.417,56.363,102.762,57.936,100.547,58.588"/>
		</g>
		<g>
			<path fill="#431C05" d="M87.586,142.893c-3.258-0.246-5.99-0.508-8.358-0.891c-4.036,1.812-8.988,3.629-14.962,5.336
				c-2.752,0.904-5.353,1.68-7.69,2.338c-1.445,3.406-3.396,6.132-5.623,8.094c-1.954,1.424-2.988,2.467-2.86,2.987
				c0.384,3.784,4.165,7.294,11.07,10.822c6.123,3.237,10.439,4.692,12.786,4.295c7.938-1.058,14.458-2.735,19.538-4.953
				c4.951-2.212,9.785-3.646,14.465-4.29c-0.275-1.443-0.648-6.143-1.171-14.082c-0.127-2.611-0.266-4.701-0.39-6.396
				C99.952,144.984,94.368,143.813,87.586,142.893"/>
		</g>
		<g>
			<path fill="#431C05" d="M229.802,169.094c-0.127-2.463-0.904-5.476-2.324-9.003c-2.875-6.249-6.646-10.153-11.223-11.722
				c-2.473-0.918-6.26-1.293-11.327-1.168c-11.089,12.512-17.617,19.803-19.568,22.019c-2.729,3.134-3.892,5.222-3.509,6.392
				c1.813,4.035,6.382,7.542,13.686,10.674c3.769,1.443,7.309,2.636,10.817,3.271c13.939-9.514,21.512-15.115,22.684-16.556
				C229.675,172.354,229.943,171.035,229.802,169.094"/>
		</g>
		<g>
			<path fill="#984813" d="M169.42,50.105c0.909-1.037,1.297-2.201,1.167-3.51c-0.121-1.315-0.906-2.35-2.066-3.004
				c-1.182-0.792-2.609-1.047-4.304-0.792c-1.703,0.15-3.012,0.792-3.903,1.827c-1.048,1.051-1.456,2.215-1.324,3.521
				c0.146,1.317,0.914,2.353,2.216,3.009c1.18,0.642,2.62,0.906,4.321,0.777C167.206,51.668,168.521,51.016,169.42,50.105"/>
		</g>
		<g>
			<path fill="#984813" d="M239.271,123.613c0.919-1.049,1.311-2.227,1.18-3.521c-0.133-1.306-0.908-2.34-2.083-2.991
				c-1.175-0.793-2.597-1.051-4.31-0.793c-1.699,0.141-3.009,0.793-3.921,1.837c-1.022,1.03-1.415,2.213-1.293,3.509
				c0.139,1.306,0.924,2.356,2.205,3.009c1.187,0.645,2.624,0.909,4.313,0.77C237.066,125.177,238.368,124.521,239.271,123.613"/>
		</g>
		<g>
			<path fill="#984813" d="M95.263,202.207c0.922-1.055,1.31-2.211,1.175-3.529c-0.111-1.294-0.899-2.34-2.07-2.996
				c-1.188-0.786-2.621-1.035-4.321-0.786c-1.694,0.146-3.002,0.786-3.925,1.839c-1.008,1.025-1.405,2.205-1.284,3.511
				c0.134,1.307,0.92,2.338,2.207,3.009c1.181,0.647,2.623,0.898,4.313,0.771C93.062,203.763,94.368,203.104,95.263,202.207"/>
		</g>
		<g>
			<path fill="#984813" d="M128.63,189.172c0.904-1.046,1.302-2.214,1.17-3.533c-0.123-1.291-0.89-2.336-2.09-2.984
				c-1.172-0.794-2.579-1.045-4.285-0.794c-1.7,0.144-3.016,0.794-3.917,1.837c-1.042,1.044-1.422,2.205-1.297,3.512
				c0.12,1.304,0.89,2.359,2.198,3.008c1.18,0.646,2.608,0.908,4.317,0.774C126.426,190.729,127.71,190.068,128.63,189.172"/>
		</g>
		<g>
			<path fill="#984813" d="M61.119,117.101c0.92-1.051,1.302-2.214,1.182-3.532c-0.138-1.304-0.911-2.34-2.083-2.989
				c-1.175-0.784-2.619-1.04-4.299-0.784c-1.706,0.139-3.012,0.784-3.911,1.827c-1.055,1.038-1.448,2.214-1.305,3.519
				c0.137,1.308,0.911,2.359,2.204,3.009c1.178,0.643,2.61,0.899,4.313,0.768C58.914,118.661,60.217,117.998,61.119,117.101"/>
		</g>
		<g>
			<path fill="#984813" d="M93.711,99.116c0.904-1.047,1.288-2.224,1.144-3.519c-0.112-1.306-0.9-2.355-2.064-3.003
				c-1.172-0.784-2.603-1.04-4.301-0.784c-1.695,0.131-2.994,0.784-3.92,1.83c-1.027,1.036-1.423,2.211-1.307,3.521
				c0.135,1.294,0.916,2.345,2.232,2.996c1.171,0.649,2.603,0.909,4.307,0.778C91.487,100.678,92.791,100.016,93.711,99.116"/>
		</g>
		<g>
			<path fill="#984813" d="M114.555,122.965c0.914-1.052,1.294-2.211,1.18-3.518c-0.139-1.307-0.918-2.34-2.083-2.998
				c-1.171-0.778-2.616-1.047-4.307-0.778c-1.689,0.118-3.008,0.778-3.907,1.817c-1.047,1.036-1.425,2.213-1.313,3.518
				c0.145,1.295,0.929,2.346,2.213,3c1.191,0.646,2.62,0.906,4.304,0.778C112.343,124.525,113.652,123.877,114.555,122.965"/>
		</g>
	</g>
</g>
<g id="_x36_" display="none">
</g>
<g id="_x35_" display="none">
</g>
<g id="_x34_" display="none">
</g>
<g id="_x33_" display="none">
</g>
<g id="_x32_" display="none">
</g>
<g id="_x31_" display="none">
	<g display="inline">
		<defs>
			<path id="SVGID_13_" d="M1190.054-267.291c0,5.5-4.5,10-10,10H-97.892c-5.5,0-10-4.5-10-10v-27.558v-841.881c0-5.5,4.5-10,10-10
				h1277.945c5.5,0,10,4.5,10,10v839.881V-267.291z"/>
		</defs>
		<clipPath id="SVGID_2_">
			<use xlink:href="#SVGID_13_"  overflow="visible"/>
		</clipPath>
		<g clip-path="url(#SVGID_2_)">
			<g>
				<g>
					<g>
					</g>
				</g>
			</g>
		</g>
	</g>
</g>
<g id="_x30_" display="none">
</g>
<g id="guide" display="none">
</g>
</svg>
