<?xml version="1.0" encoding="utf-8"?>
<!-- Generator: Adobe Illustrator 16.2.1, SVG Export Plug-In . SVG Version: 6.00 Build 0)  -->
<!DOCTYPE svg PUBLIC "-//W3C//DTD SVG 1.1//EN" "http://www.w3.org/Graphics/SVG/1.1/DTD/svg11.dtd">
<svg version="1.1" xmlns="http://www.w3.org/2000/svg" xmlns:xlink="http://www.w3.org/1999/xlink" x="0px" y="0px"
	 width="252.025px" height="287.956px" viewBox="0 0 252.025 287.956" enable-background="new 0 0 252.025 287.956"
	 xml:space="preserve">
<g id="base">
</g>
<g id="book3">
</g>
<g id="_x38_">
	<g>
		<path fill="#9C0C27" d="M120.488,142.199c-10.424,0.893-17.119,3.633-20.096,8.183c-2.973,4.296-5.165,9.737-6.571,16.35
			c-1.367,6.331-2.447,12.038-3.221,17.101c-2.376,11.156,0.888,20.135,9.783,26.934l0.024,0.02
			c7.846,5.973,17.377,8.575,28.6,7.785c11.71-0.812,20.216-5.078,25.495-12.797c6.286-8.895,6.204-20.564-0.246-35.004
			c-1.728-3.883-3.88-8.006-6.458-12.328c-3.534-6.029-6.305-10.354-8.282-12.954C137.432,142.382,131.102,141.291,120.488,142.199
			 M120.785,145.589c8.857-0.753,14.184-0.11,16.007,1.95c1.908,2.544,4.604,6.746,8.085,12.632
			c2.504,4.201,4.604,8.198,6.279,11.979c5.838,13.064,6.016,23.635,0.554,31.689c-4.782,6.822-12.435,10.607-22.935,11.336
			c-10.334,0.712-19.1-1.658-26.322-7.11c-7.754-5.938-10.598-13.779-8.525-23.521c-0.002-0.042-0.006-0.085,0.014-0.108
			c0.775-5.02,1.84-10.682,3.207-16.993c1.301-6.111,3.314-11.153,6.04-15.127C105.873,148.602,111.738,146.357,120.785,145.589"/>
		<path fill="#D72C1C" d="M136.794,147.539c-1.825-2.061-7.151-2.703-16.009-1.95c-9.047,0.771-14.912,3.013-17.597,6.728
			c-2.726,3.973-4.739,9.016-6.04,15.126c-1.367,6.312-2.432,11.974-3.207,16.993c-0.02,0.023-0.016,0.066-0.014,0.109
			c-2.072,9.741,0.771,17.584,8.525,23.521c7.223,5.452,15.988,7.822,26.322,7.11c10.5-0.729,18.152-4.514,22.935-11.334
			c5.462-8.056,5.284-18.627-0.554-31.691c-1.676-3.781-3.775-7.778-6.279-11.979C141.396,154.285,138.702,150.083,136.794,147.539"
			/>
		<path fill="#9C0C27" d="M131.008,196.455l-0.171-1.438l15.347-4.309l7.264,35.214l6.201,1.391
			c11.327,2.595,19.837,6.731,25.535,12.45c6.658,6.582,8.236,12.271,4.73,17.054l0.021-0.005
			c-3.009,4.678-9.532,6.625-19.543,5.878c-4.335-0.329-9.266-1.64-14.794-3.95c-3.771-1.574-7.838-3.625-12.201-6.158
			c-0.086-0.111-0.176-0.224-0.281-0.311c-0.184-0.156-0.389-0.308-0.58-0.507c-0.086-0.089-0.188-0.155-0.311-0.237
			c-0.044-0.1-0.109-0.215-0.156-0.336c-0.392-0.525-0.723-1.171-1.012-1.934c-0.621-1.623-1.199-3.259-1.743-4.921
			c-0.093-0.349-0.183-0.677-0.273-1.004c-0.978-3.13-1.774-6.321-2.363-9.555c-1.142-6.304-2.201-12.623-3.179-18.958
			C132.548,208.717,131.729,202.607,131.008,196.455 M152.146,229.444c-0.446-0.058-0.891-0.118-1.333-0.155l-7.171-34.347
			l-9.099,2.571c0.674,5.62,1.454,11.219,2.31,16.777c0.974,6.316,2.024,12.596,3.163,18.877c0.934,5.197,2.42,10.237,4.434,15.123
			l0.1,0.369c0.025,0.016,0.025,0.016,0.03,0.034c3.88,2.722,7.953,5.012,12.224,6.892c1.873,0.78,3.679,1.441,5.416,1.988
			c3.036,0.947,5.84,1.51,8.42,1.729c8.383,0.634,13.879-0.84,16.492-4.395c2.172-3.508,0.721-7.753-4.326-12.742
			c-5.645-5.557-14.205-9.53-25.668-11.946l-2.805-0.366C153.602,229.682,152.881,229.549,152.146,229.444"/>
		<path fill="#D72C1C" d="M150.812,229.289c0.442,0.038,0.887,0.096,1.333,0.154c0.735,0.105,1.456,0.237,2.187,0.41l2.805,0.368
			c11.463,2.415,20.025,6.388,25.668,11.944c5.047,4.988,6.498,9.234,4.326,12.742c-2.613,3.555-8.109,5.028-16.49,4.396
			c-2.584-0.218-5.386-0.782-8.422-1.729c-1.737-0.547-3.543-1.208-5.416-1.988c-4.271-1.881-8.344-4.17-12.225-6.889
			c-0.004-0.021-0.004-0.021-0.029-0.038l-0.1-0.369c-2.016-4.886-3.5-9.925-4.434-15.123c-1.139-6.281-2.189-12.56-3.163-18.873
			c-0.855-5.562-1.636-11.161-2.31-16.78l9.099-2.572L150.812,229.289z"/>
		<path fill="#9C0C27" d="M125.178,197.968c-0.319,0.23-0.538,0.534-0.641,0.933l-9.59,35.793c-0.013,0.037-0.022,0.075-0.035,0.112
			l-1.683,6.214c-0.465,0.968-1.054,1.938-1.774,2.932c-3.269,4.689-7.859,8.52-13.771,11.441c-5.851,2.92-11.303,4.09-16.337,3.518
			l-0.019-0.008c-4.521-0.497-7.386-2.353-8.572-5.564c-1.124-3.48-0.171-7.409,2.856-11.783l-0.025,0.014
			c3.295-4.705,7.877-8.515,13.789-11.437c5.278-2.604,10.226-3.808,14.848-3.63l1.375,0.016l9.163-33.557
			c0.126-0.475,0.056-0.908-0.17-1.308c-0.083-0.13-0.173-0.241-0.263-0.351c-0.218-0.23-0.475-0.394-0.799-0.475
			c-0.477-0.125-0.904-0.074-1.315,0.188c-0.419,0.222-0.692,0.569-0.813,1.026l-8.438,30.958c-4.729,0.033-9.778,1.37-15.113,4.02
			c-6.474,3.202-11.502,7.388-15.104,12.553c-3.808,5.493-4.894,10.449-3.276,14.866c1.508,4.628,5.32,7.275,11.482,7.932
			l-0.02-0.006c5.645,0.662,11.729-0.622,18.272-3.843c6.499-3.214,11.55-7.414,15.135-12.585l-0.046,0.008
			c0.812-1.148,1.492-2.277,2.055-3.359c0.041-0.068,0.064-0.145,0.102-0.194c1.188-2.435,1.799-4.737,1.867-6.88l9.586-35.709
			c0.115-0.438,0.068-0.885-0.172-1.309c-0.09-0.174-0.223-0.338-0.393-0.453c-0.192-0.183-0.42-0.314-0.67-0.372
			c-0.438-0.116-0.871-0.044-1.283,0.22C125.3,197.901,125.232,197.922,125.178,197.968"/>
		<path fill="#D72C1C" d="M124.537,198.901c0.103-0.399,0.321-0.703,0.641-0.933c0.055-0.046,0.123-0.066,0.209-0.081
			c0.412-0.263,0.846-0.334,1.283-0.22c0.25,0.059,0.478,0.189,0.67,0.373c-0.036-0.689-0.191-1.377-0.453-2.057
			c-0.951-2.25-2.655-3.729-5.098-4.426c-1.978-0.592-4.035-0.8-6.203-0.649c-0.18,0.048-0.365,0.114-0.545,0.16
			c-0.246,0.069-0.495,0.136-0.711,0.233c0.09,0.109,0.18,0.221,0.264,0.35c0.225,0.4,0.297,0.834,0.169,1.309l-9.163,33.557
			l-1.375-0.017c-4.622-0.177-9.569,1.027-14.847,3.632c-5.913,2.922-10.495,6.73-13.79,11.436l0.025-0.014
			c-3.027,4.375-3.98,8.301-2.856,11.783c1.187,3.211,4.052,5.066,8.572,5.565l0.02,0.006c5.033,0.573,10.485-0.597,16.336-3.517
			c5.912-2.922,10.502-6.752,13.771-11.441c0.721-0.993,1.31-1.963,1.774-2.932l1.683-6.213c0.014-0.038,0.023-0.076,0.035-0.113
			L124.537,198.901z"/>
		<path fill="#D72C1C" d="M165.805,56.904c-0.951-0.592-1.916-1.162-2.902-1.726c-2.031-1.136-4.098-2.165-6.209-3.122
			c-1.664-0.737-3.347-1.389-5.096-1.967c-2.309-0.755-4.627-1.469-6.963-2.176c-2.339-0.71-4.718-1.249-7.15-1.656
			c-0.104-0.018-0.188-0.04-0.292-0.057c1.981-4.559,2.474-9.172,1.448-13.852c-1.354-6.17-4.815-10.916-10.374-14.262
			c-5.56-3.346-11.612-4.301-18.167-2.865c-6.514,1.429-11.612,4.828-15.281,10.197c-1.334,1.953-2.336,3.955-2.984,6.02
			c-0.254-0.246-0.502-0.471-0.752-0.695c-1.189-1.042-2.492-1.957-3.927-2.744c-1.774-0.973-3.606-1.752-5.493-2.318
			c-2.215-0.696-4.486-1.019-6.846-1.002c-2.014,0.04-3.984,0.271-5.91,0.715c-1.924,0.441-3.783,1.09-5.532,1.973
			c-2.064,0.993-3.947,2.266-5.628,3.817c-1.449,1.339-2.73,2.8-3.836,4.424c-1.301,1.927-2.285,4.005-2.959,6.234
			C50.295,43.969,50,46.176,50.08,48.46c0.051,1.972,0.354,3.907,0.897,5.829c0.62,2.187,1.547,4.225,2.749,6.145
			c0.52,0.826,1.454,1.884,2.801,3.189c-1.439,1.016-2.857,2.029-4.271,3.078c-1.393,1.047-2.756,2.126-4.092,3.24
			c-2.004,1.639-3.925,3.383-5.777,5.251c-1.5,1.469-2.893,2.976-4.214,4.526c-1.482,1.727-2.868,3.531-4.181,5.402
			c-1.242,1.732-2.406,3.549-3.456,5.421c-1.013,1.765-1.921,3.563-2.714,5.421c-0.763,1.828-1.379,3.665-1.854,5.529
			c-0.598,2.295-0.988,4.623-1.193,6.971c-0.213,2.309-0.24,4.654-0.067,7c0.171,2.426,0.55,4.784,1.155,7.094
			c0.61,2.328,1.385,4.584,2.34,6.756c0.932,2.137,2.08,4.187,3.41,6.139c1.332,1.969,2.835,3.803,4.469,5.506
			c1.715,1.786,3.582,3.46,5.582,5.002c1.666,1.297,3.39,2.501,5.213,3.602c1.919,1.163,3.873,2.234,5.91,3.21
			c2.127,1.035,4.336,1.973,6.582,2.821c2.311,0.854,4.624,1.63,6.938,2.322c2.333,0.691,4.703,1.271,7.113,1.766
			c2.425,0.467,4.871,0.854,7.336,1.135c2.521,0.269,5.025,0.459,7.518,0.593c2.564,0.099,5.146,0.095,7.714,0.031
			c1.971-0.052,3.95-0.165,5.886-0.37c2.014-0.221,4.023-0.461,6.036-0.682c2.039-0.287,4.07-0.612,6.107-0.998
			c2.095-0.4,4.162-0.834,6.236-1.326c2.021-0.463,4.047-0.988,6.062-1.57c1.957-0.569,3.909-1.157,5.831-1.801
			c1.883-0.633,3.755-1.321,5.612-2.068c2.406-0.99,4.762-2.024,7.077-3.154c2.284-1.081,4.526-2.272,6.704-3.572
			c2.148-1.252,4.219-2.586,6.248-4.012c2-1.378,3.961-2.85,5.861-4.407c1.877-1.572,3.679-3.21,5.408-4.909
			s3.386-3.465,4.967-5.294c1.479-1.745,2.908-3.538,4.246-5.375c0.461-0.641,0.917-1.301,1.353-1.957
			c0.731-1.142,1.439-2.297,2.101-3.483c1.255-2.217,2.334-4.517,3.236-6.877c0.869-2.25,1.539-4.58,2.02-6.951
			c0.477-2.303,0.744-4.645,0.799-7.039c0.077-2.399-0.064-4.771-0.42-7.135c-0.354-2.426-0.907-4.766-1.633-7.07
			c-0.717-2.265-1.619-4.469-2.706-6.594c-1.063-2.109-2.317-4.096-3.749-5.965c-1.504-1.932-3.143-3.736-4.887-5.395
			c-1.871-1.772-3.859-3.359-5.956-4.801C167.557,58.044,166.686,57.453,165.805,56.904"/>
		
			<path fill="none" stroke="#9C0C27" stroke-width="3.1288" stroke-linecap="round" stroke-linejoin="round" stroke-miterlimit="10" d="
			M137.192,46.201c0.104,0.017,0.188,0.039,0.292,0.056c2.433,0.408,4.812,0.947,7.15,1.656c2.336,0.708,4.654,1.422,6.963,2.177
			c1.749,0.577,3.432,1.229,5.096,1.967c2.111,0.957,4.178,1.986,6.209,3.122c0.986,0.563,1.951,1.134,2.902,1.726
			c0.881,0.549,1.752,1.14,2.622,1.729c2.097,1.441,4.085,3.027,5.956,4.801c1.744,1.658,3.383,3.463,4.887,5.396
			c1.432,1.868,2.686,3.854,3.749,5.964c1.087,2.125,1.987,4.329,2.706,6.594c0.726,2.305,1.279,4.645,1.633,7.07
			c0.355,2.363,0.497,4.735,0.42,7.135c-0.055,2.395-0.322,4.736-0.799,7.039c-0.48,2.371-1.152,4.7-2.02,6.951
			c-0.902,2.361-1.981,4.66-3.236,6.876c-0.661,1.187-1.369,2.343-2.101,3.484c-0.436,0.656-0.894,1.316-1.353,1.957
			c-1.338,1.837-2.768,3.629-4.246,5.375c-1.581,1.829-3.237,3.595-4.967,5.294s-3.531,3.337-5.408,4.908
			c-1.9,1.559-3.861,3.03-5.861,4.408c-2.031,1.426-4.1,2.761-6.248,4.012c-2.178,1.3-4.42,2.491-6.704,3.572
			c-2.316,1.13-4.671,2.164-7.077,3.154c-1.859,0.747-3.729,1.436-5.612,2.07c-1.922,0.642-3.874,1.229-5.831,1.799
			c-2.015,0.582-4.043,1.106-6.062,1.57c-2.074,0.492-4.142,0.926-6.236,1.326c-2.037,0.386-4.068,0.711-6.107,0.998
			c-2.013,0.221-4.024,0.461-6.036,0.682c-1.938,0.205-3.915,0.318-5.886,0.37c-2.568,0.063-5.15,0.067-7.714-0.03
			c-2.492-0.135-4.996-0.326-7.518-0.594c-2.467-0.281-4.911-0.668-7.336-1.135c-2.41-0.494-4.78-1.074-7.113-1.766
			c-2.313-0.692-4.627-1.469-6.938-2.322c-2.248-0.849-4.452-1.786-6.582-2.82c-2.037-0.977-3.992-2.048-5.91-3.211
			c-1.824-1.101-3.547-2.305-5.213-3.602c-2-1.542-3.869-3.216-5.582-5.003c-1.634-1.702-3.137-3.536-4.469-5.505
			c-1.33-1.952-2.479-4.002-3.41-6.139c-0.955-2.172-1.729-4.428-2.34-6.756c-0.605-2.31-0.984-4.669-1.155-7.094
			c-0.173-2.346-0.147-4.691,0.067-7c0.205-2.349,0.596-4.676,1.193-6.971c0.475-1.864,1.091-3.701,1.852-5.529
			c0.795-1.857,1.701-3.656,2.716-5.422c1.05-1.872,2.214-3.688,3.456-5.421c1.312-1.87,2.698-3.675,4.181-5.401
			c1.321-1.551,2.714-3.058,4.214-4.527c1.853-1.867,3.773-3.611,5.775-5.25c1.338-1.113,2.701-2.193,4.094-3.24
			c1.414-1.05,2.832-2.062,4.271-3.078"/>
		<path fill="none" stroke="#9C0C27" stroke-width="3.1288" stroke-miterlimit="10" d="M56.527,63.623
			c-1.347-1.307-2.281-2.361-2.801-3.188c-1.202-1.921-2.129-3.96-2.749-6.146c-0.543-1.923-0.847-3.857-0.897-5.829
			c-0.08-2.284,0.215-4.491,0.871-6.617c0.674-2.229,1.658-4.308,2.959-6.234c1.105-1.622,2.387-3.085,3.836-4.424
			c1.681-1.552,3.563-2.824,5.628-3.815c1.749-0.885,3.608-1.533,5.532-1.975c1.926-0.443,3.896-0.675,5.91-0.716
			c2.359-0.016,4.631,0.307,6.845,1.003c1.888,0.567,3.72,1.346,5.496,2.318c1.433,0.787,2.735,1.703,3.923,2.744
			c0.252,0.226,0.5,0.449,0.752,0.695c0.65-2.064,1.654-4.066,2.986-6.02c3.669-5.369,8.768-8.77,15.281-10.197
			c6.555-1.436,12.607-0.48,18.167,2.865c5.559,3.346,9.021,8.092,10.374,14.262c1.025,4.68,0.533,9.293-1.448,13.852"/>
		<path fill="#FFFFFF" d="M137.194,32.787c-1.282-5.846-4.55-10.354-9.792-13.529c-5.244-3.193-10.949-4.106-17.119-2.752
			c-6.152,1.348-10.953,4.561-14.4,9.662c-1.738,2.562-2.856,5.23-3.393,7.99c-0.334-0.428-0.688-0.851-1.078-1.266
			c-0.387-0.396-0.793-0.787-1.215-1.154c-1.119-0.996-2.371-1.863-3.715-2.609c-1.682-0.913-3.42-1.633-5.203-2.183
			c-2.086-0.663-4.259-0.988-6.477-0.962c-1.895,0.033-3.765,0.265-5.595,0.686c-1.831,0.422-3.575,1.044-5.256,1.873
			c-1.954,0.947-3.73,2.158-5.335,3.611c-1.364,1.262-2.578,2.668-3.624,4.197c-1.225,1.811-2.155,3.777-2.79,5.897
			c-0.619,2.017-0.904,4.103-0.83,6.269c0.045,1.852,0.33,3.689,0.85,5.518c0.596,2.072,1.459,4.006,2.596,5.817
			c0.549,0.861,1.145,1.651,1.801,2.369c0.686,0.751,1.439,1.445,2.238,2.073c1.679,1.271,3.486,2.297,5.404,3.1
			c1.949,0.772,3.967,1.291,6.007,1.564c2.157,0.249,4.317,0.234,6.464-0.016c2.248-0.252,4.393-0.781,6.434-1.609
			c1.977-0.854,3.774-1.969,5.393-3.346c1.397-1.206,2.639-2.58,3.707-4.096c1.09-1.52,1.971-3.154,2.652-4.887
			c0.367-0.979,0.689-1.971,0.928-2.985c0.125-0.527,0.225-1.071,0.312-1.589c1.624,2.206,3.719,4.088,6.282,5.648
			c5.261,3.173,10.965,4.082,17.117,2.734c6.17-1.353,10.97-4.567,14.401-9.644C137.392,44.096,138.475,38.633,137.194,32.787"/>
		<path fill="#332C2A" d="M66.135,44.783c1.381-2.846,3.543-4.761,6.498-5.789c2.979-1.033,5.877-0.869,8.717,0.491
			c2.845,1.38,4.761,3.542,5.789,6.499c1.029,2.959,0.859,5.838-0.499,8.678c-1.379,2.846-3.542,4.761-6.5,5.789
			c-2.958,1.029-5.836,0.858-8.679-0.5c-2.84-1.359-4.754-3.521-5.789-6.499C64.627,50.5,64.775,47.625,66.135,44.783"/>
		<path fill="#332C2A" d="M118.011,32.871c-2.442-2.006-5.208-2.844-8.325-2.539c-3.136,0.306-5.699,1.67-7.709,4.094
			c-2.009,2.44-2.846,5.206-2.543,8.323c0.305,3.116,1.663,5.661,4.086,7.673c2.44,2.006,5.207,2.842,8.326,2.541
			c3.114-0.305,5.658-1.662,7.67-4.086c2.013-2.424,2.848-5.189,2.541-8.324C121.771,37.432,120.434,34.882,118.011,32.871"/>
		<path fill="#332C2A" d="M150.131,85.76c-3.685,2.287-7.436,4.352-11.295,6.199c-4.901,2.395-9.934,4.459-15.123,6.177
			c-5.449,1.814-11.229,3.482-17.35,4.966c0.5-0.189-0.919,0.1-4.23,0.887c-3.311,0.785-7.727,1.553-13.268,2.307
			c-5.54,0.755-11.025,1.117-16.45,1.124c-4.257,0.032-8.522-0.151-12.804-0.595c-3.201-0.36-6.366-0.828-9.506-1.361
			c4.875,1.693,9.88,2.979,15.018,3.855c4.638,0.785,9.359,1.23,14.146,1.323c4.268,0.106,8.511-0.083,12.743-0.592
			c4.355-0.493,7.888-1.088,10.604-1.763c2.695-0.672,4.561-1.119,5.605-1.37c1.027-0.245,2.595-0.591,4.717-1.035
			c2.126-0.444,5.238-1.407,9.338-2.888c4.014-1.42,7.926-3.117,11.736-5.094c4.282-2.199,8.342-4.691,12.199-7.459
			c4.273-3.059,8.24-6.431,11.914-10.119C155.531,82.191,152.869,84.017,150.131,85.76"/>
		<path fill="#E68C00" d="M120.289,66.592c-1.404-5.76-4.576-10.188-9.529-13.327c-4.943-3.1-10.222-3.984-15.836-2.655
			c-5.606,1.37-9.913,4.557-12.911,9.599c-2.98,5.037-3.784,10.419-2.419,16.186c1.402,5.759,4.575,10.188,9.519,13.288
			c4.954,3.139,10.233,4.023,15.837,2.654c5.615-1.331,9.92-4.517,12.92-9.559S121.689,72.351,120.289,66.592"/>
		<path fill="#D72C1C" d="M132.527,157.17c-0.374-0.66-0.668-1.319-0.892-1.955c0.087-0.023,0.183-0.027,0.284-0.059l0.017-0.008
			c16.183-4.475,31.136-10.181,44.849-17.094c1.986-1.002,3.45-1.778,4.432-2.301c0.971-0.541,1.643-0.9,2.016-1.096
			c0.358-0.19,0.861-0.49,1.477-0.879l0.143-0.4c0.009-0.023,0.023-0.07,0.033-0.094c0.126-0.352,0.266-0.672,0.428-0.982
			c0.232-0.462,0.508-0.905,0.84-1.318c0.43-0.534,0.91-0.998,1.479-1.406c0.009-0.021,0.025-0.07,0.031-0.093
			c0.99-2.969,2.273-5.238,3.874-6.798c1.608-1.585,3.075-2.732,4.404-3.424c1.171-0.616,1.848-0.957,1.993-1.025
			c0.396-0.109,0.801-0.205,1.226-0.289c0.017-0.008,0.032-0.018,0.055-0.008c3.002-0.628,4.856,0.521,5.549,3.413
			c0.005,0.055,0.005,0.093,0.013,0.149c-0.002,0.117-0.006,0.236-0.008,0.355c-0.043,0.977-0.477,1.748-1.283,2.348
			c-1.009,0.752-2.131,1.268-3.357,1.56c-1.057,0.245-2.054,0.526-3.007,0.862l0.512,0.01c1.437,0.021,2.835,0.215,4.224,0.547
			c0.541,0.154,1.082,0.268,1.657,0.365c0.448,0.08,0.88,0.128,1.313,0.136c0.196,0.005,0.386-0.008,0.566,0.003
			c2.556-0.003,4.988-0.595,7.298-1.771c2.087-1.071,3.827-1.724,5.214-1.972l-0.018,0.008c1.005-0.186,1.846-0.018,2.529,0.475
			l0.024,0.01c0.659,0.604,1.067,1.424,1.244,2.492l-0.008-0.018c0.158,1.234-0.022,2.453-0.515,3.682
			c0.008,0.016,0.008,0.016-0.008,0.023c-0.338,0.727-0.822,1.309-1.486,1.721c-0.006-0.016-0.014-0.031-0.021-0.045l-0.039-0.002
			c-0.707-0.504-1.498-0.811-2.389-0.916c-0.713-0.108-1.432-0.1-2.16,0.013c-0.364,0.057-0.713,0.144-1.069,0.254
			c-0.755,0.302-1.464,0.618-2.122,0.953l0.006,0.015c1.117-0.236,2.211-0.192,3.318,0.122c1.332,0.38,2.311,1.127,2.91,2.265
			c0.252,0.448,0.449,0.941,0.557,1.453c0.172,0.816-0.022,1.594-0.552,2.332c-0.671,0.926-1.544,1.594-2.642,1.998l-0.316-0.258
			c-0.219-0.171-0.435-0.34-0.654-0.51c-0.512-0.46-1.135-0.789-1.863-1.008c-1.013-0.279-2.026-0.363-3.039-0.232
			c-1.162,0.142-2.258,0.508-3.271,1.126c-0.789,0.472-1.503,1.025-2.107,1.685l-0.717,0.791c0.598-0.343,1.258-0.637,1.966-0.916
			c0.929-0.346,1.864-0.594,2.813-0.732c1.195-0.197,2.318-0.049,3.359,0.412c1.133,0.494,1.892,1.309,2.245,2.428
			c0.31,1.59-0.366,2.965-2.028,4.107c-2.357,1.57-5.228,2.428-8.638,2.605c-3.331,0.178-6.295-0.756-8.864-2.793
			c-0.154-0.121-0.333-0.212-0.522-0.279c-0.196-0.043-0.394-0.049-0.59-0.012c-2.84,0.435-5.356-0.264-7.569-2.082
			c-0.062-0.047-0.123-0.098-0.172-0.152c-0.52-0.436-1.014-0.865-1.51-1.291c-0.039-0.041-0.071-0.064-0.102-0.09l-0.814,0.465
			c-0.022-0.009-0.022-0.009-0.024,0.032c-4.081,2.702-8.388,5.181-12.901,7.386c-9.364,4.57-19.677,8.049-30.945,10.461
			c-0.388,0.086-0.684,0.285-0.896,0.621c-0.016,0.007-0.016,0.007-0.008,0.024c-0.072,0.093-0.113,0.21-0.156,0.327
			c-0.773-0.394-1.533-0.93-2.277-1.59C134.519,160.129,133.411,158.742,132.527,157.17"/>
		<path fill="#9C0C27" d="M180.188,145.904l1.221,2.564c-3.219,1.979-6.559,3.819-10.021,5.527
			c-9.556,4.658-20.08,8.222-31.597,10.691c-0.386,0.088-0.747,0.025-1.067-0.194c-0.336-0.212-0.533-0.507-0.613-0.88
			c-0.066-0.263-0.045-0.506,0.029-0.717c0.043-0.117,0.084-0.234,0.156-0.327c-0.008-0.018-0.008-0.018,0.01-0.024
			c0.211-0.336,0.507-0.535,0.895-0.621c11.269-2.412,21.581-5.891,30.945-10.461C173.623,149.75,176.979,147.899,180.188,145.904"
			/>
		<path fill="#9C0C27" d="M181.408,148.467l-1.221-2.562c0.967-0.597,1.926-1.208,2.859-1.827c0-0.041,0-0.041,0.023-0.031
			l0.814-0.466c0.032,0.022,0.062,0.048,0.102,0.089c0.496,0.426,0.992,0.855,1.512,1.291c0.045,0.055,0.107,0.104,0.17,0.153
			c2.211,1.817,4.729,2.515,7.569,2.081c0.198-0.036,0.396-0.031,0.591,0.011c0.188,0.067,0.367,0.159,0.522,0.28
			c2.568,2.037,5.532,2.971,8.863,2.793c3.41-0.178,6.28-1.036,8.638-2.605c1.664-1.144,2.338-2.519,2.029-4.107
			c-0.355-1.119-1.113-1.933-2.246-2.428c-1.041-0.462-2.164-0.609-3.359-0.412c-0.949,0.139-1.885,0.389-2.813,0.732
			c-0.708,0.279-1.366,0.574-1.966,0.916l0.717-0.791c0.604-0.658,1.318-1.213,2.107-1.686c1.014-0.619,2.109-0.982,3.271-1.125
			c1.013-0.131,2.026-0.046,3.039,0.232c0.729,0.22,1.352,0.547,1.863,1.009c0.22,0.169,0.436,0.337,0.654,0.508l0.316,0.258
			c1.098-0.402,1.971-1.072,2.643-1.997c0.527-0.738,0.724-1.516,0.551-2.332c-0.107-0.513-0.305-1.006-0.557-1.454
			c-0.598-1.138-1.578-1.883-2.91-2.264c-1.107-0.313-2.201-0.359-3.316-0.121l-0.008-0.015c0.658-0.336,1.368-0.652,2.122-0.953
			c0.356-0.11,0.706-0.197,1.069-0.256c0.729-0.109,1.447-0.119,2.162-0.011c0.889,0.103,1.68,0.411,2.387,0.914l0.039,0.001
			c0.008,0.016,0.016,0.032,0.023,0.047c0.662-0.41,1.146-0.993,1.484-1.721c0.018-0.008,0.018-0.008,0.009-0.022
			c0.489-1.229,0.672-2.447,0.515-3.683l0.008,0.016c-0.178-1.066-0.586-1.887-1.245-2.49l-0.024-0.01
			c-0.684-0.492-1.524-0.66-2.528-0.475l0.017-0.008c-1.387,0.25-3.125,0.9-5.212,1.972c-2.311,1.177-4.744,1.767-7.298,1.771
			c-0.183-0.01-0.372,0.001-0.568-0.004c-0.434-0.006-0.865-0.056-1.313-0.135c-0.573-0.098-1.116-0.211-1.656-0.365
			c-1.39-0.334-2.788-0.525-4.224-0.547l-0.513-0.01c0.953-0.336,1.952-0.617,3.007-0.864c1.227-0.29,2.349-0.806,3.358-1.56
			c0.808-0.596,1.239-1.368,1.282-2.346c0.004-0.119,0.006-0.236,0.008-0.355c-0.008-0.056-0.006-0.096-0.013-0.148
			c-0.693-2.894-2.547-4.041-5.546-3.414c-0.024-0.01-0.041-0.002-0.058,0.006c-0.427,0.086-0.831,0.182-1.226,0.291
			c-0.146,0.067-0.822,0.41-1.993,1.025c-1.329,0.691-2.796,1.839-4.404,3.423c-1.601,1.56-2.882,3.829-3.874,6.8
			c-0.006,0.023-0.022,0.07-0.031,0.093c-0.568,0.407-1.049,0.87-1.479,1.406c-0.332,0.411-0.609,0.856-0.837,1.316
			c-0.165,0.312-0.306,0.633-0.431,0.984c-0.01,0.023-0.024,0.069-0.033,0.093l-0.143,0.401c-0.615,0.39-1.117,0.688-1.474,0.878
			c-0.376,0.197-1.048,0.555-2.019,1.096c-0.981,0.523-2.445,1.3-4.43,2.302c-0.08,0.038-0.176,0.082-0.263,0.144l-1.212-2.549
			c0.072-0.051,0.135-0.082,0.199-0.111c2.35-1.176,4.668-2.415,6.957-3.679c0.01-0.026,0.096-0.087,0.281-0.192
			c-0.105,0.029-0.105,0.029-0.01-0.016c0.025-0.111,0.125-0.394,0.316-0.854c0.167-0.471,0.822-1.31,1.957-2.492
			c1.146-3.338,2.64-5.902,4.507-7.686l0.007,0.014c1.873-1.848,3.562-3.139,5.084-3.92c1.568-0.807,2.437-1.239,2.604-1.258
			l0.014-0.008c0.397-0.111,0.833-0.221,1.315-0.313c0.017-0.007,0.017-0.007,0.033-0.015c4.916-1.031,7.925,0.859,9.012,5.689
			c-0.002,0.039,0.013,0.071,0.021,0.127c0.177,1.359-0.076,2.632-0.768,3.801c1.555-0.173,3.078-0.626,4.534-1.377
			c2.438-1.238,4.449-1.979,6.037-2.247c1.916-0.324,3.509,0.029,4.789,1.08l0.008,0.017c1.267,0.979,2.025,2.414,2.321,4.304
			l-0.009,0.023c0.233,1.726-0.005,3.438-0.693,5.15l-0.008,0.022c-0.555,1.34-1.459,2.395-2.703,3.143
			c0.357,1.039,0.384,2.491,0.088,4.33c-0.019,0.125-0.045,0.236-0.096,0.338c-0.589,1.549-2.033,2.822-4.301,3.842
			c0.493,2.594-0.631,4.828-3.355,6.691c-2.727,1.861-6.1,2.9-10.085,3.096c-3.86,0.217-7.312-0.799-10.31-3.041
			c-3.225,0.363-6.116-0.428-8.69-2.349c-0.218-0.169-0.435-0.34-0.651-0.508c-0.037-0.04-0.103-0.089-0.146-0.146
			C182.854,147.566,182.135,148.025,181.408,148.467 M182.877,131.528l-0.074,0.093l0.018-0.009
			c0.009-0.022,0.025-0.031,0.033-0.054C182.861,131.535,182.861,131.535,182.877,131.528L182.877,131.528z"/>
		<path fill="#9C0C27" d="M131.937,155.148l-0.016,0.008c-0.104,0.031-0.198,0.035-0.285,0.059c-0.27,0.01-0.536-0.059-0.776-0.197
			c-0.344-0.188-0.575-0.469-0.678-0.85c-0.095-0.365-0.049-0.719,0.141-1.062c0.187-0.342,0.467-0.574,0.848-0.676
			c15.921-4.41,30.635-10.002,44.143-16.777l1.209,2.547C162.881,145.059,148.016,150.703,131.937,155.148"/>
		<polygon fill="#65B62F" points="189.534,120.611 189.527,120.636 189.52,120.619 		"/>
		<path fill="#9C0C27" d="M100.757,150.542c0.216-0.187,0.468-0.292,0.743-0.327l7.051-0.801c0.228-0.018,0.432,0.007,0.619,0.064
			s0.367,0.17,0.514,0.306l3.387,3.192c0.362,0.366,0.719,0.748,1.051,1.139c0.194,0.198,0.285,0.443,0.29,0.701
			c-0.011,0.174-0.068,0.32-0.155,0.453c-0.561,0.818-1.154,1.616-1.807,2.384c-1.516,1.824-3.057,3.656-4.587,5.513
			c-1.444,1.761-2.875,3.53-4.288,5.348c-1.32,1.709-2.614,3.449-3.87,5.23c-1.68,2.371-3.19,4.83-4.565,7.379
			c-1.186,2.172-2.235,4.395-3.151,6.627c-1.259,3.045-2.195,6.154-2.828,9.324l2.982,1.761c0.755,0.527,1.554,1.158,2.409,1.876
			c2.777,2.307,4.641,4.357,5.564,6.158c1.143,2.111,1.424,3.898,0.861,5.326c-0.475,1.414-1.4,2.594-2.755,3.534l0.024-0.009
			c-1.482,1.031-3.055,1.246-4.717,0.604c-0.094-0.049-0.188-0.097-0.267-0.137c-0.102-0.072-0.194-0.121-0.296-0.193
			c0.236,0.615,0.471,1.271,0.712,1.988c1.38,4.132,0.853,7.098-1.564,8.871c-2.382,1.891-4.886,2.037-7.479,0.439
			c-0.583-0.361-1.151-0.754-1.681-1.186c0.01,0.023,0.008,0.064-0.009,0.096c-0.2,1.613-0.934,2.538-2.188,2.779
			c-3.378,1.414-6.454,0.22-9.22-3.604c-0.476,1-1.59,1.627-3.354,1.863c-3.232,0.481-5.49-0.844-6.742-3.963
			c-1.041-2.609-1.431-5.6-1.159-8.914c0.734-8.946,5.263-15.217,13.577-18.84c0.62-4.104,1.797-8.099,3.537-12
			c2.776-6.209,6.074-12.17,9.881-17.846C91.1,160.009,95.604,154.969,100.757,150.542 M111.088,154.975l-2.875-2.69l-5.959,0.672
			c-4.232,3.678-7.993,7.779-11.271,12.325c-1.896,2.479-3.77,5.264-5.641,8.346c-4.762,7.948-7.655,15.264-8.711,21.967
			c-0.088,0.509-0.148,1.012-0.211,1.512c-0.024,0.165-0.043,0.352-0.061,0.541c-0.222,0.083-0.457,0.158-0.688,0.256
			c-0.513,0.189-1.033,0.396-1.53,0.632c0.007-0.017,0.022-0.048,0.017-0.07c-0.498,0.236-0.965,0.489-1.431,0.742
			c-0.135,0.067-0.277,0.151-0.411,0.222c-5.709,3.133-8.836,7.957-9.373,14.494c-0.195,2.25-0.027,4.332,0.479,6.255
			c0.018,0.007,0.018,0.007,0.008,0.024c0.145,0.488,0.295,0.96,0.471,1.426c0.307,0.813,0.63,1.453,0.953,1.936
			c0.57,0.807,1.177,1.162,1.822,1.061c0.196-0.036,0.386-0.058,0.566-0.102c0.764-0.178,1.396-0.445,1.886-0.822
			c0.929-0.688,1.407-1.725,1.409-3.104c-0.191-0.969-0.329-1.812-0.437-2.521c-0.008-0.022,0-0.038-0.007-0.062
			c-0.094-0.66-0.164-1.211-0.19-1.658c0.073,0.314,0.181,0.686,0.306,1.127c0.046,0.143,0.092,0.285,0.15,0.434
			c0,0.039,0.016,0.086,0.039,0.117c0.506,1.506,1.17,2.898,2.017,4.202c1.42,2.257,2.908,3.62,4.471,4.073
			c0.946,0.271,1.905,0.213,2.876-0.173c0.134-0.03,0.261-0.083,0.386-0.136c0.878-0.438,1.183-1.523,0.946-3.284
			c-0.061-0.527-0.18-1.14-0.365-1.81c-1.227-3.399-1.913-5.434-2.077-6.113c0.956,1.938,1.851,3.606,2.673,4.959
			c0.936,1.513,1.784,2.662,2.551,3.473c0.881,0.932,1.76,1.562,2.635,1.896c1.305,0.496,2.6,0.316,3.9-0.512
			c0.205-0.132,0.396-0.27,0.594-0.425c1.039-0.825,1.044-2.977,0.002-6.498c-0.983-3.216-1.898-5.19-2.76-5.894
			c0.723,0.396,1.417,0.734,2.111,0.996c0.775,0.301,1.548,0.523,2.291,0.689c0.18,0.035,0.361,0.068,0.525,0.095
			c0.525,0.093,1.01,0.146,1.441,0.152c1.603-0.003,2.637-0.631,3.141-1.873c0.033-0.102,0.066-0.202,0.09-0.288
			c0.65-2.212-0.912-4.959-4.69-8.234c-0.938-0.822-1.908-1.58-2.905-2.252l-3.989-2.143c-0.222-0.334-0.278-0.797-0.145-1.4
			c0.101-0.422,0.185-0.852,0.252-1.292c0.76-4.485,2.177-8.751,4.241-12.82c1.201-2.362,2.535-4.675,3.994-6.923
			c1.644-2.529,3.366-5.017,5.147-7.434c1.81-2.463,3.692-4.887,5.642-7.277C107.268,159.5,109.174,157.226,111.088,154.975"/>
		<path fill="#D72C1C" d="M108.213,152.284l2.875,2.69c-1.914,2.251-3.82,4.524-5.695,6.813c-1.949,2.393-3.832,4.814-5.642,7.278
			c-1.781,2.417-3.504,4.903-5.147,7.434c-1.459,2.248-2.793,4.56-3.994,6.923c-2.064,4.069-3.481,8.334-4.241,12.821
			c-0.068,0.439-0.151,0.869-0.252,1.293c-0.134,0.601-0.077,1.064,0.145,1.398l3.989,2.143c0.997,0.672,1.967,1.43,2.905,2.252
			c3.778,3.276,5.341,6.021,4.69,8.234c-0.021,0.086-0.057,0.187-0.09,0.288c-0.504,1.241-1.538,1.87-3.141,1.872
			c-0.432-0.004-0.916-0.059-1.441-0.151c-0.166-0.026-0.346-0.06-0.525-0.095c-0.743-0.166-1.516-0.389-2.291-0.69
			c-0.694-0.261-1.389-0.599-2.111-0.993c0.863,0.701,1.776,2.676,2.761,5.892c1.041,3.524,1.036,5.673-0.003,6.498
			c-0.198,0.153-0.39,0.293-0.594,0.424c-1.299,0.83-2.596,1.009-3.9,0.513c-0.875-0.332-1.754-0.965-2.635-1.895
			c-0.767-0.812-1.615-1.962-2.549-3.475c-0.822-1.354-1.719-3.021-2.675-4.959c0.164,0.68,0.851,2.715,2.077,6.112
			c0.186,0.671,0.305,1.283,0.365,1.812c0.236,1.76-0.068,2.848-0.946,3.284c-0.125,0.052-0.252,0.104-0.386,0.134
			c-0.971,0.387-1.93,0.445-2.876,0.174c-1.562-0.453-3.051-1.815-4.471-4.072c-0.847-1.306-1.511-2.697-2.017-4.203
			c-0.021-0.03-0.039-0.078-0.039-0.118c-0.059-0.147-0.104-0.29-0.15-0.432c-0.124-0.442-0.232-0.813-0.306-1.128
			c0.026,0.448,0.097,0.998,0.189,1.658c0.008,0.023,0,0.039,0.008,0.062c0.107,0.709,0.245,1.552,0.437,2.521
			c-0.002,1.379-0.48,2.418-1.409,3.104c-0.49,0.377-1.122,0.645-1.886,0.822c-0.181,0.045-0.369,0.066-0.565,0.102
			c-0.646,0.102-1.253-0.252-1.823-1.061c-0.323-0.482-0.646-1.123-0.953-1.936c-0.176-0.465-0.326-0.938-0.471-1.426
			c0.01-0.018,0.01-0.018-0.007-0.025c-0.507-1.922-0.675-4.004-0.479-6.255c0.537-6.536,3.663-11.361,9.373-14.493
			c0.134-0.068,0.276-0.154,0.411-0.223c0.466-0.252,0.933-0.505,1.431-0.741c0.006,0.023-0.01,0.054-0.017,0.07
			c0.497-0.235,1.018-0.44,1.53-0.631c0.23-0.098,0.466-0.173,0.688-0.257c0.018-0.189,0.036-0.376,0.061-0.541
			c0.062-0.501,0.123-1.003,0.211-1.512c1.056-6.705,3.949-14.019,8.711-21.967c1.873-3.083,3.745-5.867,5.641-8.346
			c3.278-4.547,7.039-8.647,11.273-12.325L108.213,152.284z"/>
		<path fill="#D72C1C" d="M170.932,128.445l-3.596,0.955c-37.357,13.064-76.341,19.729-116.992,19.984
			c2.844,1.723,5.926,3.237,9.234,4.581c8.357,3.372,17.533,5.362,27.486,5.958c10.34,0.616,20.805-0.287,31.412-2.736
			c5.159-1.182,10.131-2.689,14.938-4.506c4.297-1.729,8.68-3.637,13.107-5.717c4.429-2.079,8.775-4.827,13.086-8.232
			C163.895,135.309,167.678,131.892,170.932,128.445"/>
		<path fill="#D72C1C" d="M116.742,142.57c-2.787,0.82-4.896,1.623-6.319,2.41c-1.08,0.585-2.042,1.309-2.861,2.191
			c-0.878,0.932-1.793,1.951-2.739,3.08c-0.561,0.668-1.023,1.24-1.346,1.695c-0.098,0.116-0.195,0.23-0.288,0.369
			c-2.726,3.973-4.739,9.016-6.039,15.126c-1.368,6.312-2.432,11.974-3.208,16.993c-0.02,0.023-0.016,0.066-0.014,0.108
			c-2.071,9.742,0.771,17.584,8.525,23.521c7.223,5.452,15.988,7.822,26.322,7.11c10.5-0.729,18.152-4.514,22.934-11.336
			c5.463-8.055,5.285-18.627-0.553-31.689c-1.676-3.781-3.775-7.778-6.279-11.979c-2.729-4.606-4.965-8.208-6.726-10.765
			c-0.244-0.598-0.696-1.371-1.354-2.314c-1.042-1.404-1.625-2.207-1.75-2.43c-0.412-0.563-0.747-0.982-1.005-1.236
			c-0.447-0.475-1.14-0.818-2.031-1.018C129.592,141.83,124.514,141.869,116.742,142.57 M115.131,144.397
			c-0.105,0.009-0.234,0.021-0.338,0.03l0.329-0.137L115.131,144.397z"/>
	</g>
</g>
<g id="_x37_" display="none">
</g>
<g id="_x36_" display="none">
</g>
<g id="_x35_" display="none">
</g>
<g id="_x34_" display="none">
</g>
<g id="_x33_" display="none">
</g>
<g id="_x32_" display="none">
</g>
<g id="_x31_" display="none">
</g>
<g id="_x30_" display="none">
</g>
<g id="guide" display="none">
</g>
</svg>
