<?xml version="1.0" encoding="utf-8"?>
<!-- Generator: Adobe Illustrator 16.2.1, SVG Export Plug-In . SVG Version: 6.00 Build 0)  -->
<!DOCTYPE svg PUBLIC "-//W3C//DTD SVG 1.1//EN" "http://www.w3.org/Graphics/SVG/1.1/DTD/svg11.dtd">
<svg version="1.1" xmlns="http://www.w3.org/2000/svg" xmlns:xlink="http://www.w3.org/1999/xlink" x="0px" y="0px" width="90px"
	 height="53px" viewBox="0 0 90 53" enable-background="new 0 0 90 53" xml:space="preserve">
<g id="base" display="none">
</g>
<g id="book3" display="none">
</g>
<g id="_x38_" display="none">
</g>
<g id="_x37_" display="none">
</g>
<g id="_x36_">
	<g>
		<path fill="#FFE200" d="M13.939,6.005c1.729,0.288,2.977,0.336,5.761,0.336h6.097c3.408,0,4.032,0,5.952-0.192
			c-0.239,2.544-0.336,4.561-0.336,7.729v25.154c0,2.881,0.097,4.896,0.384,7.249H21.332c0.288-2.208,0.385-4.465,0.385-7.249V14.55
			h-1.921c-1.872,0-3.744,0.096-5.856,0.336V6.005z"/>
		<path fill="#FFE200" d="M45.705,42.68c-1.584-1.584-2.784-3.408-3.504-5.328c-1.248-3.408-1.872-7.104-1.872-10.993
			c0-5.04,1.2-10.272,3.024-13.297c2.928-4.896,7.921-7.585,13.969-7.585c4.656,0,8.737,1.584,11.665,4.465
			c1.584,1.584,2.784,3.408,3.505,5.328c1.248,3.408,1.872,7.104,1.872,11.041c0,5.04-1.2,10.32-3.024,13.345
			c-2.88,4.801-7.921,7.489-14.018,7.489C52.618,47.145,48.634,45.608,45.705,42.68z M50.17,25.975c0,8.593,2.448,13.009,7.2,13.009
			c4.705,0,7.105-4.32,7.105-12.865c0-8.209-2.497-12.529-7.153-12.529C52.811,13.589,50.17,18.149,50.17,25.975z"/>
	</g>
</g>
<g id="_x35_" display="none">
</g>
<g id="_x34_" display="none">
</g>
<g id="_x33_" display="none">
</g>
<g id="_x32_" display="none">
</g>
<g id="_x31_" display="none">
</g>
<g id="_x30_" display="none">
</g>
<g id="guide" display="none">
</g>
</svg>
