<?xml version="1.0" encoding="utf-8"?>
<!-- Generator: Adobe Illustrator 16.2.1, SVG Export Plug-In . SVG Version: 6.00 Build 0)  -->
<!DOCTYPE svg PUBLIC "-//W3C//DTD SVG 1.1//EN" "http://www.w3.org/Graphics/SVG/1.1/DTD/svg11.dtd">
<svg version="1.1" xmlns="http://www.w3.org/2000/svg" xmlns:xlink="http://www.w3.org/1999/xlink" x="0px" y="0px" width="90px"
	 height="53px" viewBox="0 0 90 53" enable-background="new 0 0 90 53" xml:space="preserve">
<g id="base" display="none">
</g>
<g id="book3" display="none">
</g>
<g id="_x38_" display="none">
</g>
<g id="_x37_" display="none">
</g>
<g id="_x36_">
	<g>
		<path fill="#F8B62D" d="M33.861,46.718c-4.32,0-5.424,0.047-7.201,0.191c0.193-2.352,0.434-3.793,1.01-5.664
			c1.248-3.984,3.551-7.633,6.912-10.754c1.824-1.68,3.648-3.072,8.545-6.385c4.127-2.783,5.137-4.031,5.137-6.24
			c0-2.305-2.064-3.84-5.137-3.84c-2.305,0-3.938,0.768-4.992,2.4c-0.672,1.057-0.961,2.016-1.201,4.031l-10.08-1.055
			c0.719-4.178,1.584-6.289,3.504-8.545c2.736-3.217,7.105-4.945,12.721-4.945c6.48,0,11.426,2.16,13.826,6.049
			c1.055,1.68,1.584,3.553,1.584,5.617c0,3.504-1.441,6.48-4.416,8.928c-1.586,1.393-2.064,1.729-6.961,5.137
			c-4.178,2.881-5.953,4.561-7.057,6.672h11.184c3.602,0,5.809-0.096,7.682-0.336v9.074c-2.785-0.24-4.801-0.336-8.209-0.336H33.861
			z"/>
	</g>
</g>
<g id="_x35_" display="none">
</g>
<g id="_x34_" display="none">
</g>
<g id="_x33_" display="none">
</g>
<g id="_x32_" display="none">
</g>
<g id="_x31_" display="none">
</g>
<g id="_x30_" display="none">
</g>
<g id="guide" display="none">
</g>
</svg>
