<?xml version="1.0" encoding="utf-8"?>
<!-- Generator: Adobe Illustrator 16.2.1, SVG Export Plug-In . SVG Version: 6.00 Build 0)  -->
<!DOCTYPE svg PUBLIC "-//W3C//DTD SVG 1.1//EN" "http://www.w3.org/Graphics/SVG/1.1/DTD/svg11.dtd">
<svg version="1.1" xmlns="http://www.w3.org/2000/svg" xmlns:xlink="http://www.w3.org/1999/xlink" x="0px" y="0px" width="90px"
	 height="53px" viewBox="0 0 90 53" enable-background="new 0 0 90 53" xml:space="preserve">
<g id="base" display="none">
</g>
<g id="book3" display="none">
</g>
<g id="_x38_" display="none">
</g>
<g id="_x37_" display="none">
</g>
<g id="_x36_">
	<g>
		<path fill="#00A0E9" d="M24.209,29.445c2.16-2.4,2.16-2.4,4.607-5.281l10.418-12.193c2.305-2.639,3.217-3.84,4.465-5.711h9.84
			c-0.287,2.832-0.385,4.752-0.385,7.969V29.83h1.393c1.488,0,3.072-0.145,4.752-0.385v8.736c-1.439-0.191-3.215-0.287-4.703-0.287
			h-1.441v2.4c0,2.688,0.098,4.08,0.385,5.904H43.65c0.24-1.633,0.385-3.648,0.385-6.002v-2.352H30.449
			c-3.121,0-4.465,0.049-6.24,0.191V29.445z M44.082,24.357c0-2.16,0.096-4.801,0.289-6.914c-0.961,1.346-1.682,2.305-2.977,3.938
			l-7.01,8.545h9.697V24.357z"/>
	</g>
</g>
<g id="_x35_" display="none">
</g>
<g id="_x34_" display="none">
</g>
<g id="_x33_" display="none">
</g>
<g id="_x32_" display="none">
</g>
<g id="_x31_" display="none">
</g>
<g id="_x30_" display="none">
</g>
<g id="guide" display="none">
</g>
</svg>
