<?xml version="1.0" encoding="utf-8"?>
<!-- Generator: Adobe Illustrator 16.2.1, SVG Export Plug-In . SVG Version: 6.00 Build 0)  -->
<!DOCTYPE svg PUBLIC "-//W3C//DTD SVG 1.1//EN" "http://www.w3.org/Graphics/SVG/1.1/DTD/svg11.dtd">
<svg version="1.1" xmlns="http://www.w3.org/2000/svg" xmlns:xlink="http://www.w3.org/1999/xlink" x="0px" y="0px" width="90px"
	 height="53px" viewBox="0 0 90 53" enable-background="new 0 0 90 53" xml:space="preserve">
<g id="base" display="none">
</g>
<g id="book3" display="none">
</g>
<g id="_x38_" display="none">
</g>
<g id="_x37_" display="none">
</g>
<g id="_x36_">
	<g>
		<path fill="#EFEFEF" d="M38.402,20.023c0,0.24-0.049,0.719-0.145,1.535c2.16-1.584,4.656-2.305,7.777-2.305
			c4.271,0,7.775,1.346,10.32,3.938c2.4,2.447,3.6,5.568,3.6,9.6c0,9.217-6.049,14.689-16.225,14.689
			c-6.049,0-10.801-2.064-13.586-5.904c-1.104-1.488-1.68-2.879-2.4-5.377l9.65-1.486c0.814,3.168,2.832,4.656,6.287,4.656
			c4.033,0,6.721-2.545,6.721-6.385c0-3.842-2.592-6.338-6.625-6.338c-3.023,0-4.992,1.201-6.047,3.553l-8.93-0.863
			c0.191-1.441,0.336-2.592,0.48-3.938l1.295-14.977c0.098-1.008,0.145-2.16,0.193-3.984c2.016,0.096,2.496,0.096,4.801,0.096
			h14.352c4.225,0,6.002-0.096,7.922-0.336v8.4c-2.545-0.24-4.752-0.336-7.824-0.336H38.881L38.402,20.023z"/>
	</g>
</g>
<g id="_x35_" display="none">
</g>
<g id="_x34_" display="none">
</g>
<g id="_x33_" display="none">
</g>
<g id="_x32_" display="none">
</g>
<g id="_x31_" display="none">
</g>
<g id="_x30_" display="none">
</g>
<g id="guide" display="none">
</g>
</svg>
