<?xml version="1.0" encoding="utf-8"?>
<!-- Generator: Adobe Illustrator 16.2.1, SVG Export Plug-In . SVG Version: 6.00 Build 0)  -->
<!DOCTYPE svg PUBLIC "-//W3C//DTD SVG 1.1//EN" "http://www.w3.org/Graphics/SVG/1.1/DTD/svg11.dtd">
<svg version="1.1" xmlns="http://www.w3.org/2000/svg" xmlns:xlink="http://www.w3.org/1999/xlink" x="0px" y="0px" width="90px"
	 height="53px" viewBox="0 0 90 53" enable-background="new 0 0 90 53" xml:space="preserve">
<g id="base" display="none">
</g>
<g id="book3" display="none">
</g>
<g id="_x38_" display="none">
</g>
<g id="_x37_" display="none">
</g>
<g id="_x36_">
	<g>
		<path fill="#0B318F" d="M57.549,30.058c1.488,1.775,2.111,3.791,2.111,6.576c0,3.023-1.104,5.76-3.168,7.68
			c-2.928,2.785-7.824,4.273-13.824,4.273c-6.098,0-11.041-1.584-13.922-4.416c-1.92-1.873-2.928-4.514-2.928-7.537
			c0-3.312,1.248-5.953,3.695-7.873c1.488-1.152,2.736-1.729,5.041-2.209c-2.4-0.768-3.504-1.344-4.656-2.639
			c-1.488-1.584-2.305-3.744-2.305-6.145c0-2.496,0.672-4.656,1.969-6.289c2.545-3.121,7.297-4.896,13.152-4.896
			c9.314,0,15.219,4.225,15.219,10.896c0,4.561-2.209,7.488-6.77,9.072C54.189,27.081,55.965,28.04,57.549,30.058z M35.707,35.817
			c0,3.121,2.641,4.992,7.008,4.992c4.465,0,7.01-1.871,7.01-5.088s-2.592-5.088-6.912-5.088
			C38.395,30.634,35.707,32.601,35.707,35.817z M37.1,18.392c0,2.641,2.207,4.32,5.713,4.32c3.455,0,5.568-1.631,5.568-4.32
			c0-2.592-2.16-4.225-5.617-4.225S37.1,15.8,37.1,18.392z"/>
	</g>
</g>
<g id="_x35_" display="none">
</g>
<g id="_x34_" display="none">
</g>
<g id="_x33_" display="none">
</g>
<g id="_x32_" display="none">
</g>
<g id="_x31_" display="none">
</g>
<g id="_x30_" display="none">
</g>
<g id="guide" display="none">
</g>
</svg>
