<?xml version="1.0" encoding="utf-8"?>
<!-- Generator: Adobe Illustrator 16.2.1, SVG Export Plug-In . SVG Version: 6.00 Build 0)  -->
<!DOCTYPE svg PUBLIC "-//W3C//DTD SVG 1.1//EN" "http://www.w3.org/Graphics/SVG/1.1/DTD/svg11.dtd">
<svg version="1.1" xmlns="http://www.w3.org/2000/svg" xmlns:xlink="http://www.w3.org/1999/xlink" x="0px" y="0px" width="90px"
	 height="53px" viewBox="0 0 90 53" enable-background="new 0 0 90 53" xml:space="preserve">
<g id="base" display="none">
</g>
<g id="book3" display="none">
</g>
<g id="_x38_" display="none">
</g>
<g id="_x37_" display="none">
</g>
<g id="_x36_">
	<g>
		<path fill="#13AE67" d="M37.318,35.694c0.385,1.057,0.672,1.536,1.152,2.064c1.057,1.152,2.592,1.776,4.514,1.776
			c2.688,0,4.848-1.2,6.145-3.36c0.912-1.536,1.344-3.265,1.631-6.529c-2.592,2.448-5.328,3.457-9.553,3.457
			c-8.641,0-14.256-5.232-14.256-13.298c0-8.496,6.527-14.305,16.033-14.305c6.096,0,10.943,2.496,13.824,7.104
			c1.969,3.12,3.025,7.681,3.025,12.961c0,5.089-0.961,9.793-2.736,13.441c-1.682,3.456-4.754,6.192-8.162,7.297
			c-1.92,0.624-4.271,1.008-6.432,1.008c-4.561,0-8.258-1.248-11.09-3.744c-1.631-1.488-2.447-2.784-3.695-5.713L37.318,35.694z
			 M49.801,19.325c0-3.601-2.785-6.097-6.77-6.097s-6.721,2.496-6.721,6.145c0,3.696,2.592,6.145,6.529,6.145
			C46.969,25.518,49.801,23.021,49.801,19.325z"/>
	</g>
</g>
<g id="_x35_" display="none">
</g>
<g id="_x34_" display="none">
</g>
<g id="_x33_" display="none">
</g>
<g id="_x32_" display="none">
</g>
<g id="_x31_" display="none">
</g>
<g id="_x30_" display="none">
</g>
<g id="guide" display="none">
</g>
</svg>
