<?xml version="1.0" encoding="utf-8"?>
<!-- Generator: Adobe Illustrator 16.2.1, SVG Export Plug-In . SVG Version: 6.00 Build 0)  -->
<!DOCTYPE svg PUBLIC "-//W3C//DTD SVG 1.1//EN" "http://www.w3.org/Graphics/SVG/1.1/DTD/svg11.dtd">
<svg version="1.1" xmlns="http://www.w3.org/2000/svg" xmlns:xlink="http://www.w3.org/1999/xlink" x="0px" y="0px"
	 width="409.07px" height="331px" viewBox="0 0 409.07 331" enable-background="new 0 0 409.07 331" xml:space="preserve">
<g id="base" display="none">
</g>
<g id="book3" display="none">
</g>
<g id="_x38_" display="none">
</g>
<g id="_x37_" display="none">
</g>
<g id="_x36_">
	<g>
		<path fill="#E17C9E" d="M287.547,213.178l0.044,0.029l0.049,0.025c14.671,7.215,22.042,16.447,22.104,27.717v0.032l0.011,0.037
			c-0.27,12.433-8.01,20.042-23.243,22.856l-0.099,0.032l-0.149,0.012c-13.102,1.17-23.768-0.835-32.033-6.067
			c1.495,8.47-0.423,15.316-5.721,20.538c-5.024,5.061-9.629,7.58-13.849,7.554c-4.315,0.237-8.118-2.136-11.377-7.12l0.022,0.011
			c-7.693-11.688-10.234-23.859-7.646-36.558l-0.007-0.037l0.018-0.051c3.336-13.158,12.181-23.312,26.596-30.437l0.162-0.059
			C256.363,205.904,271.381,206.399,287.547,213.178 M284.98,216.791l0.131,0.047c-14.666-6.144-28.296-6.683-40.937-1.578
			c-12.892,6.377-20.852,15.477-23.87,27.271c-2.372,11.82-0.019,23.167,7.153,34.024c2.284,3.471,4.831,5.25,7.62,5.334
			c2.942-0.219,6.262-2.188,9.98-5.917c6.35-5.626,6.714-15.671,1.136-30.175c11.64,11.715,24.99,16.422,40.004,14.096
			c12.245-2.293,18.529-8.444,18.837-18.46C304.816,231.462,298.119,223.252,284.98,216.791"/>
		<path fill="#F8E6EF" d="M285.111,216.838l-0.131-0.047c13.138,6.461,19.837,14.671,20.053,24.643
			c-0.308,10.016-6.588,16.167-18.833,18.46c-15.016,2.33-28.368-2.381-40.006-14.096c5.579,14.504,5.21,24.549-1.137,30.175
			c-3.719,3.729-7.041,5.698-9.979,5.917c-2.788-0.084-5.336-1.863-7.62-5.334c-7.172-10.857-9.523-22.204-7.151-34.024
			c3.017-11.795,10.978-20.895,23.868-27.271C256.813,210.155,270.447,210.694,285.111,216.838"/>
		<path fill="#E17C9E" d="M210.169,153.896l-0.04-0.037l-0.046-0.036c-11.92-12.237-24.129-17.329-36.64-15.255l-0.043,0.002
			l-0.039,0.002c-13.722,2.596-20.095,11.206-19.136,25.857l-0.018,0.1l0.029,0.141c2.209,12.361,7.285,21.87,15.298,28.546
			c-9.796,0.212-16.88,3.285-21.249,9.181c-4.273,5.611-5.837,10.358-4.674,14.263c0.889,4.044,4.536,7.125,10.938,9.203
			l-0.021-0.019c15.021,4.922,29.197,4.98,42.591,0.183h0.04l0.058-0.025c13.698-5.575,22.592-15.7,26.636-30.396l0.031-0.161
			C226.577,181.429,222.015,167.604,210.169,153.896 M206.851,156.959l-0.084-0.115c10.734,12.437,14.974,24.968,12.695,37.648
			c-3.628,13.154-11.59,22.251-23.867,27.275c-12.477,4.434-25.693,4.394-39.65-0.204c-4.459-1.462-7.117-3.489-7.946-6.056
			c-0.547-2.768,0.746-6.217,3.89-10.369c4.541-6.946,15.583-9.185,33.158-6.749c-16.104-8.579-24.896-20.061-26.331-34.42
			c-0.726-11.783,4.415-18.77,15.439-20.946C185.271,141.343,196.172,145.999,206.851,156.959"/>
		<path fill="#F8E6EF" d="M206.767,156.846l0.084,0.115c-10.679-10.958-21.581-15.618-32.695-13.938
			c-11.024,2.177-16.165,9.163-15.439,20.946c1.435,14.359,10.227,25.841,26.331,34.42c-17.573-2.436-28.617-0.197-33.158,6.749
			c-3.145,4.152-4.437,7.602-3.89,10.369c0.83,2.566,3.487,4.594,7.946,6.056c13.957,4.598,27.173,4.638,39.65,0.204
			c12.276-5.024,20.239-14.121,23.867-27.275C221.739,181.812,217.501,169.28,206.767,156.846"/>
		<path fill="#E17C9E" d="M197.171,233.908l8.182,12.226c-8.646,8.513-20.875,16.093-36.657,22.791
			c-0.235,3.635-0.838,7.412-1.808,11.354c-0.963,3.941-2.333,7.478-4.12,10.643c-1.75,3.176-3.529,5.501-5.305,6.985
			c-1.759,1.506-3.803,2.662-6.074,3.496c-2.275,0.835-4.189,0.77-5.771-0.186c-1.559-0.966-3.127-2.865-4.707-5.698
			c-1.533-3.362-2.359-6.581-2.458-9.633c-0.097-3.052,0.189-6.22,0.824-9.513c0.651-3.267,1.732-6.449,3.238-9.534
			c1.451-3.015,3.323-5.768,5.622-8.262c2.468-0.524,8.422-2.669,17.851-6.461C175.466,248.357,185.861,242.269,197.171,233.908"/>
		
			<path fill="none" stroke="#C3084A" stroke-width="2.431" stroke-linecap="round" stroke-linejoin="round" stroke-miterlimit="10" d="
			M205.353,246.134l-8.182-12.226c-11.31,8.36-21.705,14.449-31.182,18.208c-9.43,3.792-15.386,5.937-17.853,6.461
			c-2.297,2.494-4.171,5.247-5.622,8.262c-1.506,3.085-2.585,6.268-3.238,9.534c-0.634,3.293-0.922,6.461-0.822,9.513
			c0.096,3.052,0.922,6.271,2.456,9.633c1.58,2.833,3.148,4.732,4.707,5.698"/>
		<path fill="none" stroke="#C3084A" stroke-width="2.431" stroke-linecap="round" stroke-miterlimit="10" d="M145.617,301.217
			c1.582,0.955,3.498,1.021,5.77,0.186c2.273-0.834,4.315-1.99,6.08-3.496c1.77-1.484,3.551-3.81,5.301-6.985
			c1.787-3.165,3.157-6.701,4.12-10.643c0.972-3.941,1.571-7.719,1.808-11.354c15.78-6.698,28.012-14.278,36.657-22.791"/>
		<path fill="#E17C9E" d="M181.883,223.39l5.084,13.961c-10.681,5.17-24.678,8.342-41.979,9.566c-1.132,3.304-2.667,6.621-4.6,9.983
			c-1.936,3.357-4.171,6.205-6.727,8.582c-2.517,2.399-4.858,3.996-6.982,4.812c-2.118,0.847-4.43,1.272-6.891,1.324
			c-2.461,0.058-4.343-0.613-5.675-1.998c-1.303-1.393-2.386-3.661-3.247-6.793c-0.693-3.613-0.711-6.865-0.049-9.734
			c0.653-2.869,1.727-5.725,3.17-8.586c1.453-2.833,3.311-5.44,5.569-7.832c2.186-2.344,4.725-4.312,7.62-5.902
			c2.576,0.299,9.011,0.193,19.292-0.343C156.795,229.941,168.606,227.575,181.883,223.39"/>
		
			<path fill="none" stroke="#C3084A" stroke-width="2.421" stroke-linecap="round" stroke-linejoin="round" stroke-miterlimit="10" d="
			M186.968,237.351l-5.084-13.961c-13.277,4.186-25.09,6.552-35.413,7.041c-10.282,0.536-16.717,0.642-19.291,0.346
			c-2.896,1.587-5.436,3.556-7.62,5.899c-2.26,2.392-4.116,4.999-5.569,7.832c-1.446,2.861-2.518,5.717-3.172,8.586
			c-0.662,2.869-0.644,6.121,0.045,9.734c0.864,3.132,1.947,5.396,3.252,6.793"/>
		<path fill="none" stroke="#C3084A" stroke-width="2.421" stroke-linecap="round" stroke-miterlimit="10" d="M114.116,269.621
			c1.331,1.385,3.214,2.056,5.673,1.998c2.461-0.052,4.772-0.478,6.889-1.324c2.128-0.816,4.468-2.413,6.986-4.812
			c2.554-2.377,4.789-5.225,6.725-8.582c1.932-3.362,3.469-6.68,4.601-9.986c17.3-1.222,31.297-4.394,41.978-9.563"/>
		<path fill="#E17C9E" d="M241.943,241.776l7.883-14.313c8.695,15.276,22.991,22.667,42.94,22.207
			c4.743,4.616,6.056,9.957,3.912,16.006C270.648,264.414,252.405,256.459,241.943,241.776"/>
		
			<path fill="none" stroke="#C3084A" stroke-width="2.421" stroke-linecap="round" stroke-linejoin="round" stroke-miterlimit="10" d="
			M249.826,227.463c8.695,15.276,22.991,22.667,42.938,22.203 M296.679,265.676c-26.027-1.262-44.273-9.217-54.735-23.899"/>
		<path fill="#C3084A" d="M285.793,242.55c-0.66-2.869,0.062-5.578,2.199-8.171c2.986-3.631,6.752-5.031,11.348-4.244
			c0.143,0.025,0.253,0.052,0.359,0.103c2.96,1.028,5.199,2.924,6.716,5.681l-0.024-0.037c0.534,0.915,0.833,1.871,0.861,2.881
			c5.536-1.729,11.41-2.268,17.645-1.615c0.033-0.019,0.062-0.015,0.062-0.015c4.406,0.572,7.474,1.943,9.246,4.149
			c2.031,2.224,2.65,5.261,1.834,9.162c-0.002,0.025-0.015,0.08-0.022,0.109c-1.036,4.426-4.215,6.464-9.505,6.114
			c4.608,4.849,6.479,10.128,5.578,15.856l-0.017-0.062c-0.362,3.5-1.679,5.885-3.985,7.176c-2.025,1.323-4.931,1.567-8.654,0.758
			c-0.142-0.029-0.277-0.059-0.412-0.113c-3.15-1.359-4.998-3.635-5.501-6.847c-1.163,3.887-3.489,6.844-6.962,8.907
			c-3.42,2.104-6.652,2.402-9.7,0.951c-0.024-0.036-0.051-0.043-0.077-0.047c-2.114-1.091-3.742-2.6-4.927-4.572
			c-0.261-0.423-0.456-0.868-0.618-1.36c-0.423-1.327-0.445-2.628-0.066-3.934l-0.011,0.055c0.128-0.492,0.277-0.951,0.472-1.346
			c0.161-0.372,0.352-0.736,0.509-1.108c0.037-0.021,0.042-0.047,0.049-0.076c0.093-0.179,0.293-0.602,0.6-1.262
			c-4.129-2.07-5.783-5.177-4.973-9.334c3.969,6.308,9.355,8.467,16.137,6.406c-1.018,1.783-2.957,2.829-5.79,3.154l-0.033-0.008
			c-1.21,0.441-2.146,1.495-2.822,3.143c-0.292,1.011-0.108,2.229,0.592,3.636c0.735,1.071,1.683,1.929,2.853,2.541
			c1.73,0.722,3.321,0.7,4.809-0.124c1.006-0.547,1.793-1.021,2.313-1.462c4.58-3.54,6.463-7.715,5.609-12.466l-0.233-1.838
			c2.341,1.943,3.763,4.021,4.315,6.293c0.698,3.398,2.397,5.527,5.121,6.454c2.188,0.44,3.875,0.35,5.075-0.299
			c1.037-0.715,1.637-1.977,1.823-3.752c0.007-0.025,0.011-0.055,0.019-0.084c0.646-5.607-1.863-10.723-7.587-15.339
			c-2.716-2.249-5.101-3.395-7.144-3.435c2.663-2.198,6.583-2.617,11.785-1.272c0.193,0.037,0.414,0.08,0.609,0.121
			c3.46,0.558,5.596-0.311,6.376-2.6c0.41-2.166,0.122-3.895-0.857-5.159c-1.287-1.327-3.42-2.191-6.422-2.597l0.053,0.008
			c-0.027-0.004-0.027-0.004-0.053-0.008c-6.236-0.656-12.157-0.011-17.792,1.903c-0.042,0.223-0.355,0.908-0.959,2.053
			c-0.585,1.178-0.567,2.654,0.025,4.415c-1.365-0.94-2.295-2.049-2.758-3.296c-0.47-1.246-0.623-2.486-0.481-3.755
			c0.167-1.266,0.255-2.253,0.306-2.964c0.06-0.708-0.124-1.495-0.567-2.309c-0.169-0.291-0.37-0.59-0.569-0.89
			c-0.838-1.006-1.897-1.738-3.185-2.202c-2.567-0.404-4.732,0.313-6.464,2.181c-1.655,1.769-2.286,4.032-1.881,6.738
			c0.045,0.615,0.135,1.323,0.271,2.07c0.452,2.312,0.534,4.346,0.271,6.078l-3.837-4
			C286.654,246.557,286.331,244.879,285.793,242.55"/>
		<path fill="#E17C9E" d="M324.366,241.623c2.999,0.405,5.134,1.27,6.419,2.597c0.982,1.265,1.271,2.993,0.86,5.159
			c-0.784,2.289-2.917,3.153-6.376,2.6c-0.195-0.041-0.416-0.084-0.609-0.124c-5.203-1.342-9.122-0.923-11.785,1.275
			c2.04,0.037,4.428,1.186,7.144,3.435c5.724,4.616,8.233,9.731,7.587,15.339c-0.007,0.029-0.011,0.059-0.019,0.084
			c-0.186,1.775-0.784,3.037-1.823,3.752c-1.2,0.648-2.888,0.739-5.075,0.299c-2.724-0.927-4.422-3.06-5.121-6.454
			c-0.551-2.271-1.975-4.35-4.315-6.293l0.233,1.838c0.854,4.751-1.03,8.926-5.607,12.466c-0.521,0.441-1.309,0.915-2.315,1.462
			c-1.488,0.824-3.079,0.846-4.807,0.124c-1.172-0.612-2.12-1.47-2.857-2.541c-0.698-1.407-0.878-2.625-0.59-3.636
			c0.676-1.647,1.611-2.701,2.829-3.143l0.025,0.008c2.829-0.325,4.772-1.375,5.79-3.154c-6.782,2.061-12.168-0.099-16.137-6.406
			l2.767-8.662c0.263-1.732,0.185-3.767-0.271-6.078c-0.137-0.747-0.224-1.455-0.271-2.07c-0.405-2.706,0.226-4.97,1.881-6.738
			c1.732-1.867,3.897-2.585,6.464-2.181c1.287,0.464,2.346,1.196,3.185,2.202c0.199,0.3,0.399,0.599,0.569,0.89
			c0.443,0.813,0.629,1.601,0.567,2.309c-0.051,0.707-0.135,1.698-0.306,2.964c-0.142,1.269,0.011,2.509,0.481,3.755
			c0.463,1.247,1.393,2.355,2.758,3.296c-0.592-1.761-0.611-3.237-0.025-4.415c0.604-1.145,0.917-1.83,0.959-2.053
			C312.208,241.612,318.131,240.967,324.366,241.623"/>
		<path fill="#3691D0" d="M258.066,223.846l6.182-7.689l-32.125-26.987l-10.312,4.974l-6.093,0.962l-0.167-0.007
			c-6.317,1.218-12.455,2.749-18.405,4.561c-19.577,5.998-33.726,14.073-42.439,24.221l-2.29,2.512l2.392,2.359
			c1.529,1.611,3.646,2.901,6.329,3.883c-0.747,0.812-1.415,1.67-2.042,2.526l-2.166,2.808l2.835,2.173
			c1.383,1.174,3.119,2.097,5.203,2.774c-1.146,1.958-2.083,3.923-2.787,5.849l-1.437,3.496l4.021,1.203
			c2.794,0.934,6.184,1.226,10.15,0.85c-0.408,1.338-0.686,2.644-0.875,3.923l-0.649,3.752l4.341,0.474
			c0.756,0.099,1.515,0.161,2.299,0.208c-0.321,1.75-0.478,3.479-0.478,5.159l-0.186,3.748l4.45,0.015
			c3.509,0.044,7.518-0.74,11.959-2.337c0.013,0.339,0.045,0.659,0.097,1.01l0.251,3.628l4.408-0.277
			c0.901-0.036,1.827-0.124,2.786-0.263c0.146,2.654,0.667,5.138,1.593,7.431l1.161,3.357l4.098-0.937
			c6.116-1.266,12.765-4.842,19.953-10.737C243.569,261.403,252.877,245.186,258.066,223.846 M258.325,216.809l-4.948,6.115
			l0.295-0.019c-4.929,20.585-13.814,36.183-26.632,46.8c-6.408,5.275-12.342,8.506-17.761,9.688
			c-1.285-3.369-1.63-7.183-1.034-11.438c-2.791,0.991-5.398,1.574-7.792,1.717c-0.202-2.231-0.069-4.547,0.417-6.953
			c-6.544,3.285-12.116,4.919-16.751,4.919c0.035-3.045,0.696-6.209,1.956-9.517c-2.764,0.536-5.257,0.656-7.465,0.416
			c0.516-3.029,1.584-6.165,3.235-9.396c-6.398,1.586-11.501,1.786-15.318,0.598c1.201-3.172,2.986-6.337,5.374-9.526
			c-3.885-0.445-6.893-1.48-8.985-3.074c1.794-2.381,3.879-4.652,6.271-6.854c-4.986-0.619-8.604-2.013-10.854-4.222
			c8.244-9.494,21.624-17.06,40.131-22.711c5.757-1.768,11.696-3.227,17.845-4.419l6.819-1.101l8.025-3.851L258.325,216.809z"/>
		<path fill="#86C1E9" d="M253.377,222.924l4.948-6.115l-27.17-22.827l-8.026,3.851l-6.816,1.101
			c-6.151,1.192-12.09,2.651-17.849,4.419c-18.507,5.651-31.888,13.213-40.131,22.711c2.251,2.209,5.868,3.603,10.856,4.222
			c1.531,0.179,3.156,0.292,4.896,0.325c2.261,0.043,4.612-0.069,7.037-0.299c-3.715,3.307-6.772,6.613-9.221,9.902
			c-2.386,3.189-4.172,6.354-5.374,9.526c3.821,1.188,8.924,0.992,15.32-0.598c1.056-0.244,2.16-0.555,3.344-0.915
			c2.65-0.77,5.33-1.721,8.083-2.884c-3.271,4.477-5.677,8.754-7.195,12.778c-1.264,3.308-1.925,6.472-1.96,9.513
			c4.638,0.004,10.209-1.634,16.753-4.915c0.722-0.386,1.469-0.787,2.217-1.191c2.986-1.612,5.914-3.497,8.745-5.637
			c-1.894,4.36-3.079,8.371-3.587,12.064c-0.598,4.255-0.253,8.068,1.034,11.438c5.418-1.182,11.352-4.412,17.763-9.685
			c12.818-10.62,21.701-26.214,26.63-46.807L253.377,222.924z"/>
		<path fill="#BA9EC9" d="M169.188,230.284c-2.392,2.202-4.479,4.471-6.271,6.854c2.093,1.594,5.101,2.629,8.987,3.074
			c2.445-3.289,5.5-6.596,9.217-9.902c-2.424,0.229-4.776,0.342-7.037,0.299C172.344,230.576,170.718,230.463,169.188,230.284"/>
		<path fill="#BA9EC9" d="M185.188,248.227c-1.18,0.36-2.288,0.671-3.343,0.915c-1.648,3.23-2.72,6.366-3.232,9.396
			c2.208,0.24,4.704,0.12,7.463-0.416c1.521-4.024,3.929-8.302,7.197-12.778c-2.753,1.163-5.435,2.114-8.087,2.884H185.188z"/>
		<path fill="#BA9EC9" d="M211.833,255.891c-2.834,2.14-5.759,4.024-8.745,5.637c-0.748,0.4-1.495,0.806-2.217,1.191
			c-0.487,2.406-0.622,4.722-0.419,6.953c2.396-0.143,5.002-0.726,7.793-1.717C208.754,264.262,209.939,260.251,211.833,255.891"/>
		<path fill="#D4074B" d="M43.749,218.541c-0.536,1.021-0.616,2.078-0.27,3.176l0.217,0.696c0.37,1.09,1.036,1.91,2.031,2.453
			c1.01,0.507,2.065,0.591,3.148,0.281l121.972-38.188c1.068-0.336,1.852-1.021,2.362-2.031c0.534-1.018,0.616-2.078,0.301-3.183
			l-0.22-0.696c-0.369-1.091-1.066-1.903-2.057-2.447c-1.014-0.503-2.042-0.594-3.077-0.244L46.141,216.503
			C45.076,216.86,44.292,217.553,43.749,218.541"/>
		<path fill="none" stroke="#D40246" stroke-width="4.511" stroke-miterlimit="10" d="M43.479,221.717l0.217,0.696
			c0.37,1.09,1.036,1.91,2.031,2.457c1.01,0.503,2.065,0.587,3.148,0.277l121.972-38.188c1.068-0.336,1.852-1.021,2.362-2.031
			c0.534-1.018,0.616-2.078,0.301-3.183l-0.22-0.696c-0.369-1.091-1.065-1.903-2.057-2.447c-1.01-0.503-2.042-0.594-3.077-0.244
			L46.141,216.503c-1.065,0.357-1.849,1.05-2.392,2.038C43.213,219.562,43.132,220.619,43.479,221.717z"/>
		<path fill="#D4074B" d="M43.749,218.541c-0.536,1.021-0.616,2.078-0.27,3.176l0.217,0.696c0.37,1.09,1.036,1.91,2.031,2.453
			c1.01,0.507,2.065,0.591,3.148,0.281l121.972-38.188c1.068-0.336,1.852-1.021,2.362-2.031c0.534-1.018,0.616-2.078,0.301-3.183
			l-0.22-0.696c-0.369-1.091-1.066-1.903-2.057-2.447c-1.014-0.503-2.042-0.594-3.077-0.244L46.141,216.503
			C45.076,216.86,44.292,217.553,43.749,218.541"/>
		<path fill="none" stroke="#D4074B" stroke-width="2.346" stroke-miterlimit="10" d="M43.479,221.717l0.217,0.696
			c0.37,1.09,1.036,1.91,2.031,2.457c1.01,0.503,2.065,0.587,3.148,0.277l121.972-38.188c1.068-0.336,1.852-1.021,2.362-2.031
			c0.534-1.018,0.616-2.078,0.301-3.183l-0.22-0.696c-0.369-1.091-1.065-1.903-2.057-2.447c-1.01-0.503-2.042-0.594-3.077-0.244
			L46.141,216.503c-1.065,0.357-1.849,1.05-2.392,2.038C43.213,219.562,43.132,220.619,43.479,221.717z"/>
		<polygon fill="#D4074B" points="128.083,200.326 119.577,193.548 114.058,195.272 122.538,202.062 		"/>
		<polygon fill="none" stroke="#D4074B" stroke-width="2.346" stroke-miterlimit="10" points="128.083,200.326 122.538,202.062 
			114.061,195.272 119.577,193.548 		"/>
		<polygon fill="#D4074B" points="71.235,218.129 77.379,216.236 82.268,205.24 76.077,207.173 		"/>
		<polygon fill="none" stroke="#D4074B" stroke-width="2.346" stroke-miterlimit="10" points="71.235,218.129 76.077,207.173 
			82.268,205.24 77.379,216.236 		"/>
		<polygon fill="#D4074B" points="97.734,209.846 89.258,203.053 83.749,204.716 92.222,211.596 		"/>
		<polygon fill="none" stroke="#D4074B" stroke-width="2.346" stroke-miterlimit="10" points="97.734,209.846 92.222,211.596 
			83.749,204.716 89.258,203.053 		"/>
		<polygon fill="#D4074B" points="111.728,195.998 105.613,197.883 100.771,208.927 106.842,206.998 		"/>
		<polygon fill="none" stroke="#D4074B" stroke-width="2.346" stroke-miterlimit="10" points="111.728,195.998 106.842,206.998 
			100.771,208.927 105.613,197.883 		"/>
		<polygon fill="#D4074B" points="131.084,199.393 137.202,197.508 142.124,186.529 136.006,188.414 		"/>
		<polygon fill="none" stroke="#D4074B" stroke-width="2.346" stroke-miterlimit="10" points="131.084,199.393 136.006,188.414 
			142.124,186.529 137.202,197.508 		"/>
		<polygon fill="#D4074B" points="151.461,183.58 145.909,185.282 154.404,192.13 159.938,190.368 		"/>
		<polygon fill="none" stroke="#D4074B" stroke-width="2.346" stroke-miterlimit="10" points="151.461,183.58 159.938,190.368 
			154.404,192.13 145.909,185.282 		"/>
		<path fill="#83549C" d="M43.749,218.541c-0.536,1.021-0.616,2.078-0.27,3.176l0.217,0.696c0.37,1.09,1.036,1.91,2.031,2.453
			c1.01,0.507,2.065,0.591,3.148,0.281l121.972-38.188c1.068-0.336,1.852-1.021,2.362-2.031c0.534-1.018,0.616-2.078,0.301-3.183
			l-0.22-0.696c-0.369-1.091-1.066-1.903-2.057-2.447c-1.014-0.503-2.042-0.594-3.077-0.244L46.141,216.503
			C45.076,216.86,44.292,217.553,43.749,218.541"/>
		<polygon fill="#E87C9F" points="128.083,200.326 119.577,193.548 114.058,195.272 122.538,202.062 		"/>
		<polygon fill="#6AC3ED" points="71.235,218.129 77.379,216.236 82.268,205.24 76.077,207.173 		"/>
		<polygon fill="#E87C9F" points="97.734,209.846 89.258,203.053 83.749,204.716 92.222,211.596 		"/>
		<polygon fill="#6AC3ED" points="111.728,195.998 105.613,197.883 100.771,208.927 106.842,206.998 		"/>
		<polygon fill="#6AC3ED" points="131.084,199.393 137.202,197.508 142.124,186.529 136.006,188.414 		"/>
		<polygon fill="#E87C9F" points="151.461,183.58 145.909,185.282 154.404,192.13 159.938,190.368 		"/>
		<path fill="#EFD4E5" d="M22.401,238.714c1.825,0.664,3.588,0.2,5.301-1.393c1.699-1.619,3.841-4.171,6.384-7.7
			c2.886-3.285,6.791-6.038,11.74-8.258l-0.204,0.003c-5.212,1.098-9.691,2.294-13.41,3.573c-6.942,2.436-10.861,5.517-11.795,9.217
			C19.811,236.552,20.458,238.054,22.401,238.714"/>
		<path fill="#EFD4E5" d="M63.422,205.478c-2.691,3.34-5.207,6.22-7.513,8.615c-2.313,2.396-5.781,4.835-10.448,7.321
			c1.504,0.387,5.983-0.81,13.388-3.562c6.967-2.446,10.923-5.505,11.864-9.181c0.576-2.388-0.081-3.919-1.991-4.583
			C66.88,203.461,65.11,203.921,63.422,205.478"/>
		<path fill="#EFD4E5" d="M27.491,244.18c1.951,0.127,3.549-0.784,4.792-2.734c1.227-1.998,2.664-5.035,4.257-9.151
			c1.936-3.872,5.024-7.54,9.319-11.029l-0.237,0.102c-4.772,2.406-8.761,4.711-11.988,6.895c-6.118,4.146-9.166,8.131-9.124,11.94
			C24.52,242.666,25.522,244.004,27.491,244.18"/>
		<path fill="#6AC3ED" d="M22.401,238.714c1.825,0.664,3.588,0.2,5.301-1.393c1.699-1.619,3.841-4.171,6.384-7.7
			c2.886-3.285,6.791-6.038,11.74-8.258l-0.204,0.003c-5.031,0.748-10.267,2.151-15.694,4.168c-5.42,2.049-8.577,4.922-9.511,8.622
			C19.811,236.552,20.458,238.054,22.401,238.714"/>
		<path fill="#EDDC00" d="M27.491,244.18c1.951,0.127,3.549-0.784,4.792-2.734c1.227-1.998,2.664-5.035,4.257-9.151
			c1.936-3.872,5.024-7.54,9.319-11.029l-0.237,0.102c-4.772,2.406-8.761,4.711-11.988,6.895c-6.118,4.146-9.166,8.131-9.124,11.94
			C24.52,242.666,25.522,244.004,27.491,244.18"/>
		<path fill="#EDDC00" d="M57.498,214.563c6.105-4.171,9.159-8.156,9.115-11.963c-0.018-2.494-1.014-3.803-2.971-3.956
			c-1.955-0.124-3.549,0.788-4.792,2.734c-1.772,3.935-3.203,6.972-4.266,9.13c-1.945,3.839-4.988,7.471-9.119,10.905
			C46.757,221.042,50.78,218.752,57.498,214.563"/>
		<path fill="#EFD4E5" d="M33.748,248.106c1.889-0.354,3.194-1.645,3.909-3.869c0.729-2.286,1.331-5.622,1.819-9.979
			c0.934-4.175,2.977-8.459,6.147-12.893c-4.036,3.555-7.335,6.822-9.914,9.775c-4.933,5.571-6.895,10.212-5.888,13.898
			C30.456,247.461,31.771,248.46,33.748,248.106"/>
		<path fill="#6AC3ED" d="M53.476,198.59c-0.731,4.259-1.526,8.003-2.399,11.248c-0.868,3.241-2.788,7.168-5.725,11.787l0.153-0.164
			c1.05-0.594,4.335-3.824,9.879-9.705c4.9-5.59,6.885-10.241,5.927-13.968c-0.667-2.414-1.951-3.424-3.929-3.07
			C55.465,195.083,54.165,196.373,53.476,198.59"/>
		<path fill="#EFD4E5" d="M36.22,248.395c1.205,2.154,2.727,2.792,4.548,1.928c1.748-0.806,2.7-2.369,2.813-4.732
			c0.133-2.392-0.095-5.76-0.678-10.081c-0.169-4.386,0.773-9.18,2.776-14.339l-0.099,0.149c-2.977,4.491-5.345,8.495-7.104,11.987
			C35.133,240.026,34.382,245.055,36.22,248.395"/>
		<path fill="#EFD4E5" d="M33.748,248.106c1.889-0.354,3.194-1.645,3.909-3.869c0.729-2.286,1.331-5.622,1.819-9.979
			c0.934-4.175,2.977-8.459,6.147-12.893c-4.036,3.555-7.335,6.822-9.914,9.775c-4.933,5.571-6.895,10.212-5.888,13.898
			C30.456,247.461,31.771,248.46,33.748,248.106"/>
		<path fill="#6AC3ED" d="M36.22,248.395c1.205,2.154,2.727,2.792,4.548,1.928c1.748-0.806,2.7-2.369,2.813-4.732
			c0.133-2.392-0.069-5.858-0.58-10.405c-0.038-4.076,0.85-8.765,2.678-14.015l-0.099,0.149c-2.977,4.491-5.345,8.495-7.104,11.987
			C35.133,240.026,34.382,245.055,36.22,248.395"/>
		<path fill="#EDDC00" d="M45.4,221.673l0.107-0.212c0.738-1.319,3.134-5.305,7.159-12.002c3.365-6.64,4.098-11.635,2.253-14.996
			c-1.238-2.173-2.746-2.852-4.561-1.987c-1.747,0.81-2.691,2.399-2.817,4.732c0.363,4.357,0.574,7.763,0.655,10.18
			C48.388,211.767,47.464,216.528,45.4,221.673"/>
		<path fill="#EFD4E5" d="M46.892,235.677c-1.336-4.083-1.765-8.859-1.311-14.357c-1.644,5.188-2.813,9.734-3.545,13.581
			c-1.316,7.379-0.646,12.437,2.02,15.131c1.754,1.746,3.375,1.947,4.873,0.623c1.445-1.302,1.916-3.099,1.38-5.37
			C49.808,242.939,48.662,239.738,46.892,235.677"/>
		<path fill="#EFD4E5" d="M42.177,192.181c-1.462,1.251-1.931,3.044-1.413,5.355c1.537,4.076,2.685,7.274,3.441,9.597
			c1.334,4.083,1.796,8.853,1.354,14.311c1.118-2.261,2.293-6.774,3.489-13.589c1.334-7.391,0.675-12.414-2.009-15.076
			C45.289,191.028,43.667,190.832,42.177,192.181"/>
		<path fill="#EFD4E5" d="M45.533,221.075l0.006,0.2c-0.292,5.473-0.281,10.205,0.005,14.146c0.527,7.507,2.419,12.243,5.667,14.168
			c2.125,1.247,3.763,1.028,4.878-0.671c1.042-1.651,1.054-3.507-0.011-5.586c-1.112-2.154-2.989-4.951-5.691-8.429
			C48.023,231.203,46.403,226.591,45.533,221.075"/>
		<path fill="#EFD4E5" d="M46.892,235.677c-1.336-4.083-1.765-8.859-1.311-14.357c-1.644,5.188-2.813,9.734-3.545,13.581
			c-1.316,7.379-0.646,12.437,2.02,15.131c1.754,1.746,3.375,1.947,4.873,0.623c1.445-1.302,1.916-3.099,1.38-5.37
			C49.808,242.939,48.662,239.738,46.892,235.677"/>
		<path fill="#EDDC00" d="M45.533,221.075l0.006,0.2c-0.292,5.473-0.281,10.205,0.005,14.146c0.527,7.507,2.419,12.243,5.667,14.168
			c2.125,1.247,3.763,1.028,4.878-0.671c1.042-1.651,1.054-3.507-0.011-5.586c-1.112-2.154-2.989-4.951-5.691-8.429
			C48.023,231.203,46.403,226.591,45.533,221.075"/>
		<path fill="#EDDC00" d="M35.042,193.909c-1.059,1.597-1.068,3.452-0.022,5.567c2.485,3.543,4.368,6.369,5.688,8.429
			c2.366,3.701,3.985,8.31,4.856,13.833l-0.015-0.233c0.211-1.298,0.237-6.012,0.025-14.124c-0.525-7.511-2.406-12.218-5.675-14.106
			C37.766,191.998,36.158,192.206,35.042,193.909"/>
		<path fill="#EFD4E5" d="M45.486,221.115l0.031,0.193c1.063,5.374,2.195,9.932,3.457,13.687c2.359,7.172,5.353,11.295,9.002,12.334
			c2.357,0.671,3.845,0.062,4.492-1.815c0.62-1.874,0.175-3.675-1.345-5.436c-1.571-1.831-4.105-4.095-7.569-6.808
			C50.359,230.296,47.683,226.252,45.486,221.115"/>
		<path fill="#6AC3ED" d="M29.991,202.783c3.269,2.829,5.795,5.071,7.554,6.756c3.183,2.946,5.899,7.008,8.11,12.199l-0.051-0.248
			c0.025-1.33-1.14-5.906-3.489-13.701c-2.322-7.157-5.312-11.255-8.925-12.272c-2.366-0.7-3.875-0.08-4.508,1.853
			C28.002,199.229,28.417,201.037,29.991,202.783"/>
		<path fill="#EFD4E5" d="M45.517,221.309c2.368,4.939,4.61,9.093,6.684,12.443c4.076,6.344,7.964,9.567,11.724,9.658
			c2.461,0.055,3.795-0.952,3.956-2.976c0.126-1.95-0.804-3.599-2.747-4.933c-1.955-1.36-4.933-2.898-8.907-4.598
			C52.488,228.837,48.898,225.636,45.517,221.309"/>
		<path fill="#EFD4E5" d="M45.486,221.115l0.031,0.193c1.063,5.374,2.195,9.932,3.457,13.687c2.359,7.172,5.353,11.295,9.002,12.334
			c2.357,0.671,3.845,0.062,4.492-1.815c0.62-1.874,0.175-3.675-1.345-5.436c-1.571-1.831-4.105-4.095-7.569-6.808
			C50.359,230.296,47.683,226.252,45.486,221.115"/>
		<path fill="#6AC3ED" d="M65.132,235.502c-1.955-1.36-4.935-2.898-8.907-4.598c-3.724-2.217-7.277-5.399-10.708-9.596
			c2.368,4.939,4.609,9.093,6.684,12.439c4.076,6.348,7.962,9.571,11.725,9.662c2.458,0.055,3.793-0.952,3.952-2.976
			C68.005,238.484,67.076,236.836,65.132,235.502"/>
		<path fill="#EDDC00" d="M25.956,207.278c3.869,1.937,6.825,3.482,8.917,4.627c3.797,2.078,7.411,5.359,10.827,9.789l-0.097-0.204
			c-0.352-1.509-2.59-5.662-6.707-12.433c-4.065-6.318-7.959-9.545-11.689-9.64c-2.452-0.025-3.759,0.97-3.919,2.989
			C23.16,204.361,24.053,205.995,25.956,207.278"/>
		<path fill="#EFD4E5" d="M45.334,221.191l0.135,0.164c3.558,4.12,6.825,7.515,9.768,10.154c5.56,4.995,10.165,7.025,13.781,6.074
			c2.372-0.595,3.373-1.907,2.984-3.905c-0.379-1.969-1.686-3.325-3.879-4.024c-2.215-0.78-5.513-1.451-9.859-2.002
			C54.085,226.693,49.766,224.542,45.334,221.191"/>
		<path fill="#EFD4E5" d="M22.978,213.182c4.238,0.762,7.529,1.411,9.846,1.95c4.155,0.966,8.412,3.106,12.781,6.358
			c-0.616-1.309-3.845-4.682-9.68-10.18c-5.6-5.017-10.205-7.044-13.818-6.092c-2.363,0.623-3.367,1.932-2.968,3.956
			C19.528,211.081,20.826,212.412,22.978,213.182"/>
		<path fill="#EFD4E5" d="M45.324,221.254l0.149,0.102c4.47,3.1,8.437,5.538,11.922,7.361c6.599,3.435,11.53,4.248,14.806,2.399
			c2.117-1.218,2.76-2.742,1.889-4.591c-0.817-1.771-2.392-2.753-4.705-2.913c-2.379-0.168-5.701,0.019-9.956,0.612
			C55.12,224.367,50.426,223.364,45.324,221.254"/>
		<path fill="#EDDC00" d="M45.334,221.191l0.135,0.164c3.558,4.12,6.825,7.515,9.768,10.154c5.56,4.995,10.165,7.025,13.781,6.074
			c2.372-0.595,3.373-1.907,2.984-3.905c-0.379-1.969-1.686-3.325-3.879-4.024c-2.215-0.78-5.513-1.451-9.859-2.002
			C54.085,226.693,49.766,224.542,45.334,221.191"/>
		<path fill="#EFD4E5" d="M45.324,221.254l0.149,0.102c4.47,3.1,8.437,5.538,11.922,7.361c6.599,3.435,11.53,4.248,14.806,2.399
			c2.117-1.218,2.76-2.742,1.889-4.591c-0.817-1.771-2.392-2.753-4.705-2.913c-2.379-0.168-5.701,0.019-9.956,0.612
			C55.12,224.367,50.426,223.364,45.324,221.254"/>
		<path fill="#6AC3ED" d="M21.745,219.212c4.257-0.299,7.578-0.515,9.93-0.602c4.346-0.124,9.041,0.879,14.143,2.989l-0.168-0.153
			c-1.037-0.882-5.015-3.347-11.938-7.328c-6.628-3.427-11.558-4.24-14.792-2.432c-2.115,1.218-2.747,2.768-1.903,4.623
			C17.833,218.085,19.426,219.025,21.745,219.212"/>
		<path fill="#EFD4E5" d="M59.623,220.608c-4.029,1.229-8.717,1.462-14.106,0.7c5.044,1.925,9.447,3.313,13.279,4.174
			c7.255,1.674,12.188,1.192,14.872-1.439c1.735-1.688,1.98-3.354,0.694-4.922c-1.267-1.518-2.999-2.067-5.245-1.627
			C66.81,217.921,63.639,218.968,59.623,220.608"/>
		<path fill="#EDDC00" d="M32.328,217.315c-7.248-1.647-12.183-1.163-14.868,1.44c-1.737,1.691-1.982,3.354-0.728,4.934
			c1.271,1.517,3.026,2.056,5.27,1.618c4.033-1.407,7.203-2.457,9.5-3.113c4.12-1.229,8.871-1.451,14.314-0.682l-0.167-0.066
			C44.374,220.845,39.913,219.475,32.328,217.315"/>
		<path fill="#EFD4E5" d="M45.23,221.429l0.233-0.015c5.361,0.503,9.984,0.703,13.856,0.583c7.367-0.244,12.032-1.969,13.993-5.202
			c1.304-2.137,1.138-3.792-0.51-5.014c-1.586-1.123-3.431-1.192-5.509-0.219c-3.515,2.396-6.33,4.215-8.404,5.479
			C55.237,219.273,50.687,220.725,45.23,221.429"/>
		<path fill="#6AC3ED" d="M61.322,226.136c5.56,1.232,9.666,0.539,12.345-2.093c1.734-1.688,1.978-3.354,0.693-4.926
			c-1.266-1.514-2.997-2.063-5.243-1.623c-2.308,0.427-5.478,1.474-9.494,3.114c-4.029,1.229-8.719,1.462-14.104,0.7
			C50.472,223.32,55.733,224.91,61.322,226.136"/>
		<path fill="#EDDC00" d="M45.23,221.429l0.233-0.015c5.361,0.503,9.984,0.703,13.856,0.583c7.367-0.244,12.032-1.969,13.993-5.202
			c1.304-2.137,1.138-3.792-0.51-5.014c-1.586-1.123-3.431-1.192-5.509-0.219c-3.515,2.396-6.33,4.215-8.404,5.479
			C55.237,219.273,50.687,220.725,45.23,221.429"/>
		<path fill="#EFD4E5" d="M31.775,220.812c-7.354,0.273-12.05,2.002-14.041,5.239c-1.218,2.118-1.03,3.763,0.547,4.947
			c1.63,1.171,3.458,1.276,5.521,0.248c2.122-1.018,4.907-2.829,8.358-5.437c3.68-2.234,8.22-3.715,13.659-4.39l-0.149-0.011
			C44.252,221.118,39.603,220.926,31.775,220.812"/>
		<path fill="#E17C9E" d="M210.209,206.29c3.755,6.326,2.49,11.624-3.772,15.886l-71.127-17.285
			c1.495-4.149,4.354-8.849,8.648-14.132L210.209,206.29z"/>
		
			<path fill="none" stroke="#C3084A" stroke-width="2.419" stroke-linecap="round" stroke-linejoin="round" stroke-miterlimit="10" d="
			M143.958,190.759l66.251,15.531c3.755,6.326,2.49,11.624-3.77,15.886l-71.125-17.285"/>
		<path fill="#C3084A" d="M114.779,209.342c-0.029-0.025-0.127-0.219-0.292-0.543l4.922-1.567c2.924,4.12,6.794,5.231,11.611,3.336
			c0-0.025,0-0.025,0.023-0.029c3.395-1.229,7.019-4.003,10.843-8.262l-0.345,4.295c-1.118,3.755-4.062,6.566-8.794,8.43
			c-0.027,0.029-0.027,0.029-0.053,0.032C125.125,218.03,119.166,216.131,114.779,209.342"/>
		<path fill="#E17C9E" d="M131.044,210.538c-0.025,0.004-0.025,0.004-0.025,0.029c-4.814,1.896-8.685,0.787-11.605-3.333
			l2.828-0.798c0.224,0.383,0.425,0.791,0.649,1.199l1.763-0.718l-0.24-1.396c-1.989-8.087-6.771-13.326-14.383-15.758
			c0.485-1.958,1.126-3.249,1.932-3.869c1.148-0.959,2.816-1.359,5.061-1.235l1.586,0.029l0.817-1.674
			c1.393-3.489,5.145-4.467,11.277-2.917l0.662,0.179l0.694-0.219c4.28-1.462,7.921-1.155,10.931,0.952
			c3.897,2.749,6.508,7.263,7.832,13.533l0.917,5.396l-9.846,2.337C138.061,206.535,134.438,209.31,131.044,210.538"/>
		<path fill="#C3084A" d="M155.476,195.965c-2.568-0.692-4.098-1.152-4.656-1.422c-1.324-6.271-3.934-10.784-7.832-13.533
			c-3.01-2.107-6.65-2.414-10.931-0.952l-0.693,0.219l-0.664-0.179c-6.132-1.55-9.884-0.572-11.277,2.917l-0.817,1.674l-1.586-0.029
			c-2.244-0.124-3.912,0.276-5.061,1.232c-0.806,0.623-1.445,1.914-1.932,3.872c7.613,2.432,12.394,7.667,14.383,15.758l0.24,1.396
			l-1.763,0.718c-0.226-0.408-0.425-0.82-0.65-1.199c-5.918-9.677-11.285-13.997-16.159-12.885l-0.427-2.826
			c0.019-3.766,1.038-6.552,3.061-8.334c1.557-1.583,3.815-2.425,6.783-2.52c2.246-4.999,7.485-6.501,15.688-4.536
			c5.724-1.845,10.604-1.229,14.668,1.819C149.728,179.941,152.945,186.22,155.476,195.965"/>
		<path fill="#83549C" d="M227.567,49.709c-2.734-5.549-6.734-10.144-12.001-13.789c-12.799-8.798-29.935-10.493-51.41-5.096
			l-8.738,2.084c-3.349,0.755-5.864,1.272-7.52,1.555c-1.859,0.383-4.025,0.691-6.501,0.929c-1.961,0.207-3.887,0.304-5.808,0.229
			c-1.753-0.011-3.5-0.187-5.265-0.478c-1.707-0.317-3.354-0.742-4.995-1.28c-1.583-0.566-3.242-1.275-4.952-2.131
			c-1.515-0.758-3.245-1.756-5.159-3.016c-1.75-1.139-3.632-2.455-5.673-3.95c-2.12-1.611-4.211-3.277-6.238-4.998l-2.636-2.117
			c-1.21-1.141-1.969-1.744-2.249-1.845c-0.307-0.129-0.671-0.149-1.072-0.057c-0.142,0.019-0.476,0.456-0.972,1.278
			c-0.432,0.713-0.778,1.314-1.062,1.84c-0.532,1.017-1.264,2.562-2.162,4.583c-0.874,2.072-1.657,4.064-2.326,5.982
			c-0.693,1.918-1.444,4.31-2.242,7.15c-0.766,2.705-1.389,5.385-1.903,8.104c-0.54,2.742-0.95,5.635-1.225,8.703
			c-0.321,2.895-0.456,5.944-0.363,9.089c0.033,3.087,0.293,6.127,0.76,9.148c0.489,3.025,1.261,6.033,2.264,9.03
			c1.086,3.026,2.402,5.84,3.963,8.495c1.743,2.866,3.727,5.458,5.979,7.757c2.494,2.593,5.263,4.862,8.3,6.802
			c3.03,2,6.612,3.803,10.747,5.409c1.743,0.713,3.824,1.416,6.192,2.109c3.037,0.896,4.656,1.771,4.866,2.634
			c0.335,1.23-0.981,2.547-3.909,3.894c-3.914,1.829-6.125,2.957-6.574,3.415c-3.389,3.069-1.462,5.691,5.753,7.799
			c5.655,1.628,12.631,2.337,20.961,2.1c12.276-0.483,24.346-3.605,36.224-9.37c21.046-10.23,36.826-25.631,47.334-46.232
			c0.408-0.742,0.784-1.515,1.17-2.313c0.122-0.223,0.275-0.412,0.425-0.602c0.811-2.421,1.267-4.686,1.38-6.8
			C231.224,60.226,230.092,54.879,227.567,49.709"/>
		
			<path fill="none" stroke="#642081" stroke-width="2.421" stroke-linecap="round" stroke-linejoin="round" stroke-miterlimit="10" d="
			M215.568,35.92c-12.801-8.796-29.94-10.495-51.412-5.094l-8.738,2.082c-3.349,0.757-5.864,1.272-7.52,1.554
			c-1.859,0.383-4.025,0.692-6.501,0.93c-1.961,0.207-3.887,0.302-5.808,0.229c-1.753-0.01-3.5-0.185-5.265-0.478
			c-1.707-0.315-3.354-0.74-4.995-1.283c-1.584-0.562-3.242-1.272-4.952-2.128c-1.515-0.757-3.245-1.756-5.159-3.014
			c-1.749-1.141-3.632-2.457-5.673-3.952c-2.122-1.611-4.211-3.277-6.238-4.998l-2.636-2.118c-1.21-1.138-1.971-1.747-2.249-1.842
			c-0.307-0.131-0.671-0.149-1.072-0.059c-0.142,0.021-0.478,0.456-0.972,1.276c-0.436,0.715-0.778,1.318-1.062,1.838
			c-0.532,1.022-1.266,2.566-2.162,4.583c-0.872,2.078-1.655,4.07-2.324,5.986c-0.695,1.918-1.448,4.31-2.244,7.15
			c-0.768,2.705-1.391,5.387-1.903,8.104c-0.54,2.743-0.948,5.633-1.223,8.703c-0.323,2.896-0.456,5.942-0.367,9.089
			c0.037,3.085,0.297,6.126,0.762,9.148c0.487,3.025,1.261,6.033,2.266,9.029c1.084,3.025,2.402,5.842,3.963,8.496
			c1.741,2.866,3.726,5.458,5.979,7.757c2.492,2.595,5.263,4.862,8.3,6.802c3.03,2.002,6.61,3.803,10.741,5.407
			c1.747,0.715,3.83,1.418,6.198,2.109c3.037,0.898,4.654,1.773,4.865,2.634c0.334,1.234-0.984,2.551-3.91,3.894
			c-3.916,1.831-6.125,2.959-6.575,3.415c-3.386,3.071-1.46,5.693,5.755,7.801c5.655,1.629,12.633,2.337,20.961,2.1
			c12.276-0.484,24.348-3.605,36.223-9.37c21.05-10.23,36.828-25.631,47.337-46.23c0.405-0.744,0.784-1.517,1.169-2.315
			c0.124-0.221,0.277-0.412,0.426-0.602c0.806-2.419,1.265-4.684,1.376-6.8c0.295-5.527-0.84-10.88-3.363-16.046
			C224.833,44.162,220.833,39.565,215.568,35.92z"/>
		<path fill="#FCDF00" d="M183.993,71.362c-3.524-0.219-6.875,1.079-10.05,3.908c-3.236,2.883-5.083,6.264-5.485,10.12
			c-0.436,4.444,1.304,8.468,5.157,12.095c-2.027,0.317-4.131,1.648-6.322,4.051c-2.312,2.509-3.757,5.229-4.335,8.112
			c-0.7,3.613,0.047,6.623,2.268,9.002c2.224,2.355,6.147,4.087,11.805,5.152h0.031c1.198,0.262,2.868,0.322,5.055,0.127
			s4.754-1.134,7.758-2.814c3.003-1.708,5.732-3.544,8.211-5.534c3.345-2.256,6.457-4.944,9.312-8.078
			c7.472-8.174,11.512-17.692,12.057-28.524c0.1-1.891-0.161-3.347-0.813-4.426c-0.624-3.685-2.184-6.255-4.627-7.686
			c-2.468-1.488-5.567-1.707-9.328-0.691c-3.356,0.925-6.3,2.551-8.829,4.88c-2.585,2.381-3.752,4.638-3.497,6.771
			C190.626,73.692,187.83,71.537,183.993,71.362"/>
		<path fill="#83549C" d="M319.847,36.397l7.255,2.873c2.775,1.054,4.856,1.812,6.248,2.257c1.557,0.532,3.371,1.054,5.463,1.531
			c1.648,0.401,3.274,0.652,4.938,0.771c1.489,0.164,2.986,0.188,4.517,0.069c1.512-0.146,2.97-0.41,4.403-0.786
			c1.404-0.377,2.876-0.894,4.441-1.575c1.389-0.604,2.957-1.429,4.68-2.466c1.606-0.934,3.334-2.033,5.212-3.291
			c1.967-1.367,3.906-2.793,5.826-4.273l2.414-1.797c1.156-0.984,1.863-1.514,2.12-1.584c0.286-0.097,0.596-0.08,0.931,0.051
			c0.139,0.034,0.372,0.499,0.719,1.336c0.277,0.726,0.525,1.36,0.722,1.907c0.37,1.037,0.824,2.591,1.396,4.655
			c0.54,2.094,1.024,4.128,1.404,6.071c0.405,1.946,0.816,4.342,1.229,7.193c0.37,2.709,0.649,5.38,0.818,8.075
			c0.199,2.728,0.272,5.586,0.199,8.612c-0.013,2.853-0.199,5.841-0.56,8.909c-0.355,3.006-0.875,5.948-1.571,8.854
			c-0.689,2.904-1.633,5.769-2.773,8.564c-1.221,2.848-2.636,5.491-4.211,7.925c-1.747,2.623-3.708,4.953-5.885,6.983
			c-2.352,2.283-4.918,4.239-7.689,5.819c-2.775,1.663-6.016,3.075-9.728,4.236c-1.553,0.511-3.393,1.011-5.48,1.466
			c-2.687,0.563-4.171,1.274-4.408,2.082c-0.405,1.198,0.565,2.578,2.946,4.175c3.194,2.177,4.935,3.485,5.275,3.956
			c2.596,3.334,0.718,5.698-5.658,7.055c-6.607,1.378-15.073,0.926-25.445-1.346c-3.551-0.78-7.706-2.472-12.491-5.017
			c-0.124-0.317-0.366-0.528-0.672-0.656c-0.906-0.503-1.814-1.032-2.72-1.561c-20.607-12.035-34.786-29.926-42.612-53.734
			c-0.27-0.78-0.54-1.557-0.778-2.358c-0.102-0.233-0.202-0.438-0.333-0.642c-0.465-2.427-0.629-4.7-0.521-6.76
			c0.29-5.414,1.775-10.512,4.463-15.32c2.846-5.141,6.71-9.235,11.568-12.289C287.255,29.047,302.051,29.036,319.847,36.397"/>
		
			<path fill="none" stroke="#642081" stroke-width="2.421" stroke-linecap="round" stroke-linejoin="round" stroke-miterlimit="10" d="
			M327.102,39.271c2.775,1.052,4.856,1.813,6.25,2.257c1.557,0.532,3.365,1.054,5.461,1.531c1.648,0.401,3.274,0.652,4.937,0.771
			c1.49,0.164,2.99,0.188,4.519,0.069c1.508-0.146,2.97-0.41,4.399-0.786c1.409-0.379,2.876-0.894,4.444-1.575
			c1.389-0.604,2.957-1.429,4.68-2.466c1.606-0.934,3.334-2.031,5.212-3.291c1.969-1.367,3.906-2.793,5.828-4.273l2.412-1.797
			c1.156-0.984,1.863-1.514,2.12-1.584c0.288-0.097,0.598-0.08,0.931,0.051c0.139,0.034,0.372,0.501,0.719,1.336
			c0.277,0.726,0.525,1.36,0.722,1.907c0.372,1.037,0.824,2.591,1.393,4.655c0.543,2.094,1.028,4.128,1.408,6.071
			c0.406,1.946,0.815,4.342,1.229,7.193c0.368,2.709,0.651,5.38,0.818,8.077c0.199,2.726,0.272,5.584,0.199,8.61
			c-0.011,2.853-0.199,5.841-0.558,8.907c-0.357,3.008-0.879,5.95-1.575,8.855c-0.686,2.904-1.631,5.769-2.771,8.564
			c-1.219,2.848-2.636,5.487-4.211,7.925c-1.747,2.623-3.711,4.949-5.885,6.983c-2.352,2.283-4.918,4.239-7.688,5.819
			c-2.778,1.663-6.018,3.075-9.729,4.236c-1.553,0.511-3.395,1.011-5.48,1.466c-2.687,0.563-4.171,1.274-4.412,2.082
			c-0.401,1.198,0.57,2.578,2.946,4.175c3.194,2.177,4.938,3.483,5.279,3.956c2.598,3.334,0.718,5.698-5.662,7.057
			c-6.603,1.376-15.069,0.924-25.441-1.348c-3.551-0.78-7.704-2.472-12.489-5.017c-0.126-0.317-0.37-0.528-0.674-0.656
			c-0.906-0.503-1.812-1.032-2.718-1.561c-20.607-12.035-34.79-29.926-42.614-53.734c-0.27-0.78-0.54-1.557-0.776-2.358
			c-0.106-0.233-0.204-0.438-0.337-0.642c-0.463-2.427-0.629-4.7-0.52-6.76c0.288-5.418,1.775-10.514,4.463-15.32
			c2.847-5.141,6.708-9.235,11.565-12.289c11.758-7.325,26.557-7.334,44.353,0.027L327.102,39.271z"/>
		<path fill="#FCDF00" d="M310.276,71.873c3.497-0.325,6.858,0.871,10.134,3.618c3.331,2.78,5.274,6.105,5.806,9.954
			c0.562,4.413-1.041,8.485-4.8,12.217c2.022,0.25,4.184,1.554,6.47,3.88c2.388,2.417,3.916,5.071,4.557,7.965
			c1.626,7.183-2.674,12.075-12.941,14.646c0.006-0.029-0.023-0.059-0.053-0.061c-0.366,0.01-0.818-0.013-1.298-0.067
			c-0.478-0.055-0.982-0.109-1.487-0.221c-3.566,0.574-7.234-0.156-11.031-2.167c-2.864-1.48-5.571-3.18-8.128-5.098
			c-3.395-2.16-6.565-4.761-9.545-7.831c-7.722-7.959-12.035-17.325-12.907-28.148c-0.153-1.876,0.093-3.331,0.686-4.406
			c0.51-3.733,1.98-6.344,4.372-7.826c2.436-1.569,5.531-1.887,9.305-0.979c3.38,0.799,6.353,2.345,8.979,4.602
			c2.675,2.322,3.918,4.537,3.719,6.648C303.721,74.41,306.444,72.179,310.276,71.873"/>
		<path fill="#E17C9E" d="M330.205,127.678c-3.466-9.854-8.685-18.732-15.623-26.596c-14.919-16.882-34.119-26.02-57.606-27.457
			c-23.374-1.464-43.002,5.475-58.862,20.816c-9.091,8.798-15.694,19.196-19.865,31.166c-2.847,9.494-3.799,19.939-2.847,31.388
			c1.203,10.87,4.803,21.47,10.821,31.802c0.569,0.963,1.17,1.929,1.825,2.896c3.653,5.257,8.676,10.303,15.125,15.083
			c4.766,3.508,10.278,6.851,16.551,10.1c8.595,4.415,17.947,7.288,28.028,8.637c3.008,0.387,6.107,0.639,9.237,0.773
			c12.036,0.27,23.083-1.608,33.137-5.63c11.73-4.67,22.116-12.265,31.158-22.732c2.516-3.208,4.448-5.961,5.759-8.298
			c5.77-11.263,8.424-22.436,7.939-33.578C334.673,145.31,333.085,135.836,330.205,127.678"/>
		<path fill="#E17C9E" d="M345.15,170.246c0.66-1.239,1.232-2.396,1.655-3.449c0.811-2.02,1.243-3.694,1.252-4.994
			c-0.017-0.229-0.035-0.458-0.051-0.654c-0.405-2.483-3.035-4.12-7.884-4.915c-1.571-0.281-3.292-0.345-5.141-0.187
			c0.485,11.143-2.169,22.315-7.941,33.578c0.219-0.383,0.409-0.74,0.567-1.102c3.622-1.645,7.038-4.207,10.192-7.719
			C340.685,177.622,343.137,174.101,345.15,170.246"/>
		
			<path fill="none" stroke="#C3084A" stroke-width="2.421" stroke-linecap="round" stroke-linejoin="round" stroke-miterlimit="10" d="
			M314.582,101.082c-14.919-16.882-34.119-26.02-57.606-27.457c-23.373-1.464-43.002,5.475-58.862,20.816
			c-9.093,8.798-15.694,19.196-19.865,31.166c-2.847,9.494-3.799,19.939-2.847,31.388c1.207,10.87,4.802,21.47,10.821,31.802
			c0.569,0.963,1.168,1.929,1.827,2.896c3.649,5.257,8.674,10.303,15.123,15.083c4.766,3.508,10.276,6.851,16.553,10.1
			c8.592,4.415,17.946,7.288,28.027,8.637c3.008,0.387,6.107,0.635,9.239,0.773c12.032,0.27,23.079-1.608,33.135-5.63
			c11.732-4.67,22.118-12.265,31.158-22.732c2.518-3.205,4.448-5.961,5.757-8.298c0.219-0.383,0.409-0.74,0.567-1.102
			c3.622-1.645,7.038-4.207,10.194-7.719c2.884-3.183,5.339-6.704,7.349-10.559c0.66-1.235,1.23-2.396,1.655-3.449
			c0.811-2.02,1.243-3.694,1.25-4.994c-0.015-0.227-0.033-0.456-0.049-0.654c-0.403-2.483-3.035-4.12-7.884-4.915
			c-1.568-0.281-3.292-0.345-5.141-0.187c-0.31-10.737-1.897-20.211-4.776-28.369C326.737,117.823,321.521,108.948,314.582,101.082z
			 M327.04,189.625c5.771-11.263,8.426-22.436,7.941-33.578"/>
		<path fill="#A681B8" d="M323.219,172.565c-0.208-0.351-0.51-0.536-0.875-0.555c-0.427-0.025-0.8,0.128-1.072,0.449
			c-0.149,0.222-0.277,0.466-0.321,0.722c-0.095,0.193-0.131,0.39-0.146,0.642c-0.015,0.226,0.007,0.423,0.08,0.623
			c0.015,0.229,0.115,0.463,0.248,0.696c0.233,0.351,0.591,0.54,1.014,0.562c0.368,0.019,0.686-0.131,0.926-0.459
			c0.277-0.354,0.445-0.799,0.467-1.276C323.569,173.433,323.453,172.944,323.219,172.565"/>
		<path fill="#A681B8" d="M317.184,179.686c-0.272,0.325-0.436,0.74-0.461,1.276c-0.018,0.339,0.022,0.652,0.12,0.911
			c0.077,0.176,0.123,0.321,0.205,0.438c0.292,0.383,0.62,0.602,0.986,0.62c0.337,0.015,0.658-0.168,0.959-0.518
			c0.271-0.354,0.438-0.77,0.465-1.306c0.026-0.48-0.089-0.937-0.326-1.319c-0.257-0.438-0.558-0.679-0.895-0.696
			c-0.143-0.004-0.31,0.011-0.456,0.087C317.573,179.256,317.396,179.441,317.184,179.686"/>
		<path fill="#A681B8" d="M324.987,179.223c-0.083-0.032-0.164-0.065-0.306-0.072c-0.029,0-0.087,0.021-0.171,0.047
			c-0.085-0.004-0.171,0.019-0.288,0.04c-0.142,0.077-0.29,0.183-0.408,0.317c-0.091,0.051-0.149,0.105-0.184,0.189
			c-0.271,0.324-0.432,0.74-0.463,1.276c-0.017,0.343,0.023,0.652,0.122,0.911c0.077,0.146,0.127,0.288,0.208,0.408
			c0.081,0.088,0.131,0.176,0.212,0.263c0.105,0.12,0.242,0.212,0.379,0.307l0.055,0.058v-0.058c0.111,0.036,0.226,0.072,0.337,0.08
			c0.083,0.004,0.199,0.007,0.31,0.011c0.233-0.099,0.439-0.284,0.654-0.558c0.27-0.325,0.434-0.74,0.458-1.276
			c0.027-0.481-0.085-0.937-0.323-1.316C325.396,179.525,325.21,179.317,324.987,179.223"/>
		<path fill="#A681B8" d="M212.327,171.198c0.387-0.351,0.607-0.791,0.633-1.298c0.027-0.532-0.146-0.996-0.491-1.382
			c-0.297-0.357-0.68-0.547-1.158-0.573c-0.539-0.028-1,0.121-1.354,0.441c-0.357,0.347-0.55,0.788-0.58,1.324
			c-0.025,0.506,0.121,0.97,0.441,1.353c0.317,0.356,0.758,0.547,1.298,0.579C211.594,171.668,211.995,171.519,212.327,171.198"/>
		<path fill="#A681B8" d="M217.482,177.523c0.022-0.48-0.153-0.94-0.498-1.355c-0.319-0.445-0.753-0.664-1.292-0.689
			c-0.481-0.029-0.882,0.149-1.216,0.554c-0.389,0.376-0.609,0.817-0.636,1.298c-0.026,0.54,0.146,0.971,0.496,1.327
			c0.29,0.412,0.675,0.631,1.152,0.653c0.507,0.029,0.97-0.146,1.356-0.521C217.234,178.472,217.45,178.06,217.482,177.523"/>
		<path fill="#A681B8" d="M204.962,176.747c-0.033,0.565,0.117,1.024,0.434,1.378c0.346,0.391,0.762,0.58,1.214,0.605
			c0.534,0.029,0.97-0.12,1.353-0.467c0.357-0.32,0.551-0.762,0.58-1.327c0.026-0.478-0.12-0.94-0.438-1.353
			c-0.346-0.387-0.758-0.608-1.298-0.638c-0.447-0.022-0.882,0.153-1.269,0.503C205.177,175.825,204.984,176.266,204.962,176.747"/>
		<path fill="#5C1E80" d="M288.758,78.137c0-0.029,0-0.029-0.026-0.031c-9.964-4.468-20.886-7.017-32.792-7.647
			c-22.135-1.17-41.604,4.514-58.463,17.02c-1.396,1.01-2.738,2.082-4.087,3.183c-17.771,14.689-27.226,33.04-28.395,55.091
			c-0.966,18.263,5.609,33.837,19.729,46.667l5.439,5.717l-2.043-8.878c-5.795-19.506-5.671-32.641,0.37-39.377
			c1.59-0.315,3.653,0.624,6.164,2.812l-0.025-0.031c2.588,2.337,5.285,3.795,8.14,4.346l2.594,0.139l0.115-2.224
			c1.137-18.824,8.101-32.224,20.924-40.202c5.112-3.186,11.12-5.498,18.083-6.986l0.023,0.088l0.026,0.059l0.029,0.003
			c3.108,5.504,7.051,10.312,11.837,14.422l2.754,2.402l1.571-5.942c3.743,5.425,8.973,10.274,15.688,14.542l1.327,0.869
			l1.251-0.962c5.844-4.175,10.201-10.859,13.087-20.048c0.313,1.074,0.848,2.846,1.606,5.256l1.428,4.39l2.626-3.773
			c1.573-2.231,2.753-4.541,3.479-6.931c5.298,3.024,9.972,6.409,14.037,10.139c0.023,0.029,0.055,0.033,0.082,0.062
			c4.574,4.244,8.081,8.683,10.549,13.3c2.467,4.729,4.321,9.601,5.517,14.604c0.93,5.562,1.236,10.064,0.962,13.564
			c2.91-1.506,4.492-4.933,4.778-10.289c1.661-16.337-1.53-30.534-9.609-42.561c-1.828-2.726-3.886-5.317-6.182-7.812l-0.352-0.42
			c-1.373-1.644-2.828-3.233-4.346-4.827l0.003-0.058l-0.703-0.723C307.875,88.859,298.81,82.526,288.758,78.137 M286.882,82.295
			h0.031c9.237,4.06,17.592,9.814,25.079,17.298v0.027l0.706,0.723c1.489,1.507,2.895,3.038,4.211,4.594l-0.004,0.085l0.671,0.752
			c2.383,2.552,4.499,5.208,6.324,7.988c5.046,7.696,8.019,16.337,8.857,25.896c-0.937-2.253-1.888-4.329-2.847-6.18
			c-2.674-5.057-6.501-9.913-11.542-14.553c0.004-0.027,0.004-0.027-0.027-0.031c-4.984-4.601-10.852-8.687-17.608-12.243
			l-2.804-1.521l-0.512,3.203c-0.205,1.188-0.529,2.372-0.959,3.55c-0.048-0.204-0.093-0.349-0.121-0.494
			c-0.261-0.955-0.98-3.538-2.184-7.742l-2.466-8.503l-0.173,0.022l-1.801,8.674c-2.204,11.455-6.27,19.695-12.196,24.723
			c-7.201-4.809-12.364-10.365-15.539-16.676l-2.753-5.232l-2.567,9.635c-3.179-3.167-5.902-6.709-8.121-10.657l0.027,0.06
			l-1.637-3.115l-1.646,0.37c-7.99,1.491-14.896,3.981-20.736,7.471c-13.774,8.218-21.562,21.975-23.38,41.276
			c-1.201-0.578-2.357-1.382-3.473-2.414l-0.029-0.029c-4.506-3.923-8.3-5.097-11.324-3.485l-0.445,0.208l-0.237,0.242
			c-6.827,6.408-8.208,18.421-4.135,36.008c-8.718-10.176-12.71-22.244-11.97-36.23c1.098-20.711,10.01-37.981,26.743-51.807
			c2.115-1.747,4.291-3.404,6.514-4.911c15.382-10.56,33.036-15.31,52.89-14.26C267.009,75.613,277.422,78.053,286.882,82.295"/>
		<path fill="#7F509A" d="M286.913,82.295h-0.031c-9.459-4.242-19.873-6.682-31.182-7.279c-19.854-1.05-37.508,3.7-52.89,14.256
			c-2.223,1.511-4.399,3.168-6.514,4.915c-16.731,13.825-25.644,31.096-26.743,51.807c-0.74,13.986,3.252,26.055,11.97,36.23
			c-4.073-17.587-2.692-29.6,4.135-36.008l0.237-0.246l0.445-0.204c3.026-1.611,6.818-0.438,11.324,3.485l0.029,0.029
			c1.117,1.032,2.271,1.836,3.473,2.414c1.817-19.302,9.605-33.059,23.38-41.276c5.841-3.489,12.743-5.979,20.736-7.471l1.646-0.37
			l1.637,3.115l-0.027-0.06c2.219,3.946,4.942,7.49,8.118,10.657l2.567-9.635l2.756,5.232c3.177,6.311,8.338,11.867,15.539,16.676
			c5.926-5.027,9.992-13.268,12.196-24.723l1.801-8.674l0.173-0.022l2.466,8.503c1.204,4.204,1.925,6.787,2.184,7.742
			c0.027,0.146,0.073,0.29,0.121,0.494c0.43-1.178,0.754-2.361,0.959-3.55l0.512-3.203l2.804,1.521
			c6.754,3.557,12.624,7.643,17.608,12.243c0.031,0.004,0.031,0.004,0.027,0.031c5.041,4.64,8.867,9.496,11.542,14.553
			c0.959,1.851,1.911,3.927,2.847,6.18c-0.838-9.56-3.812-18.2-8.857-25.896c-1.829-2.782-3.939-5.437-6.324-7.988l-0.671-0.752
			l0.004-0.085c-1.316-1.556-2.722-3.087-4.211-4.594l-0.706-0.723v-0.027C304.504,92.109,296.15,86.354,286.913,82.295"/>
		<path fill="#E17C9E" d="M165.907,148.234c-3.347,0.754-4.744,2.575-4.134,5.494c3.179,15.245,12.886,24.779,29.142,28.67
			l1.669-28.849C183.515,148.006,174.639,146.236,165.907,148.234"/>
		
			<path fill="none" stroke="#C3084A" stroke-width="2.421" stroke-linecap="square" stroke-linejoin="round" stroke-miterlimit="10" d="
			M190.915,182.398c-16.256-3.887-25.963-13.425-29.142-28.67c-0.609-2.917,0.787-4.738,4.134-5.494
			c8.732-1.998,17.608-0.227,26.677,5.312"/>
		<path fill="#D7272A" d="M221.327,189.596c7.797,5.37,17.604,9.141,29.417,11.266c6.716,1.222,13.292,1.707,19.723,1.451
			c6.455-0.255,12.879-1.254,19.298-3c11.29-3.041,20.259-7.559,26.905-13.502c-13.35,14.945-28.531,22.507-45.527,22.748
			C254.197,209.663,237.608,203.359,221.327,189.596"/>
		<path fill="#FFFFFF" d="M296.946,129.774c-5.396,3.026-9.337,8.021-11.882,14.986c-2.494,6.997-2.888,13.934-1.132,20.788
			c1.767,6.798,5.192,11.562,10.225,14.258c5.031,2.672,10.249,2.497,15.586-0.588c5.396-3.025,9.337-8.021,11.882-14.986
			c2.545-6.993,2.909-13.877,1.121-20.676c-1.755-6.881-5.153-11.671-10.214-14.34C307.523,126.546,302.341,126.723,296.946,129.774
			"/>
		<path fill="#FFFFFF" d="M269.029,168.807c3.249-6.988,3.611-14.294,1.101-21.922c-2.567-7.633-7.272-13.369-14.139-17.211
			c-6.834-3.896-13.807-4.747-20.968-2.552c-7.128,2.167-12.32,6.732-15.57,13.659c-3.25,6.928-3.606,14.205-1.099,21.836
			c2.568,7.629,7.239,13.364,14.081,17.207c6.865,3.897,13.866,4.747,20.994,2.581C260.56,180.236,265.748,175.701,269.029,168.807"
			/>
		<path fill="#095CAA" d="M319.38,157.823c-0.16-4.45-1.411-8.107-3.746-11.004c-2.337-2.867-5.07-4.116-8.234-3.689
			c-3.161,0.4-5.808,2.324-7.943,5.804c-2.076,3.426-3.05,7.361-2.889,11.81c0.162,4.478,1.407,8.165,3.773,11.063
			c2.341,2.841,5.103,4.059,8.262,3.661c3.136-0.427,5.757-2.355,7.888-5.779C318.596,166.21,319.569,162.271,319.38,157.823
			 M310.867,149.255c1.925,1.035,3.271,2.89,4.063,5.529c0.79,2.703,0.818,5.446,0.02,8.236c-0.806,2.785-2.151,4.775-4.054,6.005
			c-1.933,1.258-3.865,1.382-5.79,0.346c-1.954-1.01-3.297-2.86-4.092-5.536c-0.815-2.701-0.815-5.443-0.017-8.232
			c0.773-2.786,2.124-4.78,4.053-6.005C306.98,148.369,308.909,148.274,310.867,149.255"/>
		<path fill="#070001" d="M314.93,154.786c-0.793-2.644-2.138-4.496-4.063-5.531c-1.958-0.98-3.885-0.886-5.817,0.341
			c-1.931,1.227-3.278,3.221-4.051,6.007c-0.8,2.791-0.804,5.532,0.015,8.234c0.796,2.673,2.138,4.524,4.092,5.534
			c1.925,1.036,3.857,0.912,5.788-0.346c1.905-1.228,3.252-3.22,4.054-6.007C315.749,160.232,315.72,157.487,314.93,154.786"/>
		<path fill="#FFFFFF" d="M304.228,152.835c-0.616,0.448-1.05,1.104-1.292,1.969c-0.275,0.915-0.292,1.794-0.027,2.688
			c0.264,0.888,0.74,1.508,1.375,1.851c0.605,0.318,1.227,0.264,1.903-0.126c0.608-0.391,1.044-1.047,1.285-1.966
			c0.275-0.918,0.295-1.822,0.031-2.687c-0.262-0.919-0.738-1.537-1.373-1.854C305.498,152.394,304.847,152.445,304.228,152.835"/>
		<path fill="#095CAA" d="M268.634,149.846c-2.427-3.887-5.719-6.27-9.948-7.088c-4.2-0.815-8.068,0.113-11.578,2.842
			c-3.509,2.726-5.686,6.4-6.47,11.029c-0.782,4.625,0.011,8.909,2.381,12.794c2.424,3.86,5.75,6.216,9.922,7.032
			c4.231,0.817,8.125-0.109,11.636-2.777c3.505-2.731,5.68-6.402,6.464-11.086C271.824,157.965,271.031,153.706,268.634,149.846
			 M261.024,149.842c2.441,1.517,4.016,3.803,4.705,6.811c0.715,3.008,0.367,5.877-1.079,8.598
			c-1.415,2.725-3.489,4.482-6.214,5.273c-2.736,0.846-5.345,0.478-7.783-1.094c-2.406-1.51-3.981-3.801-4.705-6.809
			c-0.687-3.008-0.339-5.874,1.078-8.598c1.418-2.67,3.489-4.426,6.224-5.271C255.973,147.961,258.587,148.327,261.024,149.842"/>
		<path fill="#070001" d="M265.729,156.652c-0.689-3.006-2.264-5.294-4.705-6.811c-2.438-1.513-5.051-1.88-7.775-1.09
			c-2.734,0.844-4.805,2.6-6.224,5.271c-1.417,2.724-1.765,5.59-1.078,8.598c0.724,3.008,2.299,5.299,4.705,6.809
			c2.438,1.575,5.046,1.939,7.783,1.094c2.725-0.791,4.8-2.549,6.214-5.271C266.096,162.528,266.444,159.66,265.729,156.652"/>
		<path fill="#FFFFFF" d="M263.212,155.559c-0.206-0.944-0.727-1.706-1.522-2.229c-0.795-0.498-1.637-0.625-2.529-0.359
			c-0.891,0.259-1.599,0.846-2.098,1.754c-0.447,0.879-0.549,1.809-0.292,2.813c0.204,1.002,0.729,1.733,1.521,2.229
			c0.824,0.496,1.666,0.628,2.526,0.361c0.89-0.265,1.604-0.85,2.102-1.757C263.396,157.491,263.473,156.562,263.212,155.559"/>
		<path fill="#3691D0" d="M292.659,132.637c4.854-0.393,9.775,0.149,14.759,1.658c5.13,4.09,9.126,9.309,12.041,15.656
			c1.263,6.687,0.818,14.017-1.329,21.962c1.506-2.21,2.767-4.715,3.797-7.575c0.233-0.696,0.47-1.389,0.704-2.085
			c1.891-6.35,2.055-12.619,0.432-18.843c-1.783-6.938-5.237-11.762-10.325-14.464c-5.086-2.73-10.358-2.528-15.784,0.551
			C295.408,130.38,293.968,131.434,292.659,132.637"/>
		<path fill="#3691D0" d="M260.463,132.206c-1.331-1.059-2.751-2.013-4.262-2.854c-6.949-3.905-14.061-4.787-21.306-2.596
			c-7.241,2.188-12.52,6.801-15.834,13.84c-3.285,6.98-3.672,14.347-1.112,22.06c0.612,1.844,1.367,3.581,2.268,5.243
			c0.281,0.551,0.598,1.075,0.934,1.63c-0.857-9.463,1.294-19.19,6.494-29.159C237.47,131.641,248.391,128.908,260.463,132.206"/>
		<path fill="#070001" d="M289.363,136.111c0.146-0.077,0.292-0.155,0.434-0.231c1.311-1.683,2.742-3.134,4.362-4.377
			c-0.084,0.02-0.141,0.018-0.203,0.043c-0.029,0.026-0.029,0.026-0.055,0.026C292.389,132.396,290.867,133.898,289.363,136.111"/>
		<path fill="#070001" d="M313.005,135.666c-0.202,0.017-0.454,0.004-0.704-0.067c-0.786-0.634-1.661-1.247-2.59-1.805
			c-5.214-3.134-10.373-3.914-15.464-2.317c-0.027-0.001-0.055-0.003-0.085,0.026c-1.621,1.243-3.056,2.692-4.364,4.378
			c5.538-3.048,10.963-2.985,16.253,0.208c5.457,3.26,9.108,8.572,11.009,15.944c0.982,3.897,1.303,7.959,0.94,12.183
			c-0.228,2.677-0.855,6.005-1.832,10.001c0.813-0.948,1.608-2.009,2.343-3.128c0.317-0.525,0.625-1.043,0.935-1.564
			c1.148-2.991,1.888-5.755,2.273-8.308c0.272-1.881,0.341-3.744,0.243-5.589c0.54-0.565,1.05-1.104,1.529-1.645
			c0.181-0.215,0.367-0.432,0.543-0.65c2.153-2.715,3.243-5.176,3.305-7.407c0.003-0.591-0.762-0.576-2.319-0.007
			c-0.547,0.167-1.01,0.341-1.438,0.488c-0.202,0.075-0.405,0.12-0.604,0.166c-0.835,0.268-1.378,0.379-1.604,0.368
			c0.448-0.938,0.831-1.821,1.132-2.682c0.133-0.362,0.264-0.724,0.37-1.058c0.748-2.362,0.904-4.31,0.449-5.831
			c-0.168-0.631-0.916-0.359-2.25,0.785c-0.147,0.135-0.324,0.267-0.474,0.399c-0.029,0.027-0.057,0.027-0.088,0.053
			c-0.86,0.747-1.751,1.575-2.734,2.486c0.438-2.354,0.651-4.266,0.704-5.734c0.033-0.166,0.042-0.309,0.021-0.449
			c-0.011-0.371-0.049-0.738-0.113-1.082c-0.401-0.502-0.828-1.007-1.282-1.455c-0.031,0.027-0.031,0.027-0.058,0.055
			c-0.093,0.137-0.181,0.244-0.275,0.383C315.293,134.623,314.028,135.577,313.005,135.666"/>
		<path fill="#070001" d="M317.108,132.374c0.459,0.448,0.883,0.951,1.284,1.455c-0.044-0.285-0.113-0.571-0.186-0.832
			C317.977,132.023,317.619,131.807,317.108,132.374"/>
		<path fill="#070001" d="M318.511,171.089c-0.735,1.119-1.53,2.18-2.341,3.128c-0.031,0.025-0.031,0.08-0.035,0.109
			c1.048-1.075,1.801-1.969,2.208-2.684c0.027-0.055,0.031-0.08,0.06-0.109c0.403-0.656,0.651-1.068,0.748-1.232
			c0.099-0.251,0.197-0.528,0.293-0.776C319.136,170.046,318.826,170.563,318.511,171.089"/>
		<path fill="#060001" d="M215.732,141.494c-1.965-0.811-3.008-0.895-3.07-0.275c-0.35,2.839,1.479,6.273,5.537,10.278
			c-0.405,1.817-0.589,3.673-0.549,5.628c0.151,3.006,0.906,6.384,2.319,10.161c0.87,1.717,1.781,3.179,2.732,4.448
			c-0.508-4.751-0.684-8.467-0.567-11.176c0.197-4.26,1.229-8.281,3.154-12.025c3.688-7.13,9.374-11.95,17.118-14.508
			c7.715-2.564,15.091-1.893,22.122,2.075c-1.657-2.41-3.462-4.117-5.391-5.096c-6.577-2.355-13.652-2.278-21.23,0.292
			c-1.291,0.439-2.508,0.942-3.664,1.475c-0.372,0.036-0.68,0.02-0.99-0.025c-1.431-0.244-3.061-1.491-4.843-3.704
			c-0.582-0.683-1.13-0.542-1.603,0.423c-0.407,0.686-0.674,1.464-0.746,2.308c-0.166,1.464-0.153,3.387,0.035,5.771
			c-1.163-1.024-2.244-1.956-3.245-2.802c-1.974-1.718-3.132-2.259-3.48-1.569c-1.274,2.167-0.911,5.439,1.064,9.787
			C219.929,142.933,218.369,142.455,215.732,141.494"/>
		<path fill="none" stroke="#070001" stroke-width="0.015" stroke-miterlimit="10" d="M289.797,135.881
			c1.309-1.686,2.742-3.135,4.364-4.378 M318.392,133.829c-0.401-0.502-0.824-1.007-1.284-1.455 M316.168,174.217
			c0.815-0.948,1.606-2.009,2.341-3.128c0.317-0.525,0.627-1.043,0.937-1.564"/>
		<path fill="#D94D5C" d="M286.657,185.982c2.301-1.743,3.488-3.945,3.628-6.596c0.142-2.65-0.813-4.907-2.917-6.884
			c-1.987-2.03-4.584-3.132-7.689-3.292c-2.99-0.156-5.633,0.66-7.938,2.465c-2.297,1.688-3.485,3.828-3.624,6.482
			c-0.138,2.654,0.808,5.024,2.912,7c2.102,1.977,4.646,3.074,7.634,3.234C281.767,188.557,284.47,187.736,286.657,185.982"/>
	</g>
</g>
<g id="_x35_" display="none">
</g>
<g id="_x34_" display="none">
</g>
<g id="_x33_" display="none">
</g>
<g id="_x32_" display="none">
</g>
<g id="_x31_" display="none">
</g>
<g id="_x30_" display="none">
</g>
<g id="guide" display="none">
</g>
</svg>
