<?xml version="1.0" encoding="utf-8"?>
<!-- Generator: Adobe Illustrator 16.2.1, SVG Export Plug-In . SVG Version: 6.00 Build 0)  -->
<!DOCTYPE svg PUBLIC "-//W3C//DTD SVG 1.1//EN" "http://www.w3.org/Graphics/SVG/1.1/DTD/svg11.dtd">
<svg version="1.1" xmlns="http://www.w3.org/2000/svg" xmlns:xlink="http://www.w3.org/1999/xlink" x="0px" y="0px"
	 width="378.985px" height="354.957px" viewBox="0 0 378.985 354.957" enable-background="new 0 0 378.985 354.957"
	 xml:space="preserve">
<g id="base" display="none">
</g>
<g id="book3" display="none">
</g>
<g id="_x38_" display="none">
</g>
<g id="_x37_" display="none">
</g>
<g id="_x36_">
	<g>
		<path fill="#E17C9E" d="M231.214,209.583c21.507-13.142,49.2-21.1,70.951-2.695c10.183,8.616,3.165,22.241-6.891,27.345
			c-11.718,5.946-23.664,7.127-36.434,8.225c9.614,2.724,23.967,15.368,17.026,26.889c-7.884,13.085-25.702,0.076-33.646-5.101
			c-11.556-7.531-21.962-18.029-21.732-32.416C220.586,225.578,223.72,214.753,231.214,209.583"/>
		<path fill="#F8E6EF" d="M231.214,209.583c21.507-13.142,49.2-21.1,70.951-2.695c10.183,8.616,3.165,22.241-6.891,27.345
			c-11.718,5.946-23.664,7.127-36.434,8.225c9.614,2.724,23.967,15.368,17.026,26.889c-7.884,13.085-25.702,0.076-33.646-5.101
			c-11.556-7.531-21.962-18.029-21.732-32.416C220.586,225.578,223.72,214.753,231.214,209.583"/>
		<path fill="none" stroke="#E17C9E" stroke-width="2.16" d="M231.214,209.583c21.507-13.142,49.2-21.1,70.951-2.695
			c10.183,8.616,3.165,22.241-6.891,27.345c-11.718,5.946-23.664,7.127-36.434,8.225c9.614,2.724,23.967,15.368,17.026,26.889
			c-7.884,13.085-25.702,0.076-33.646-5.101c-11.556-7.531-21.962-18.029-21.732-32.416
			C220.586,225.578,223.72,214.753,231.214,209.583"/>
		<path fill="#7C338E" d="M219.656,74.611c0.044-19.931,20.009-42.789,61.386-29.432c29.922,9.662,34.83,8.603,59.992-11.24
			c2.139-1.287,33.65,77.961-32.099,89.592c-6.326,1.119,2.659,4.146,9.399,8.561c6.734,4.419-9.563,10.482-32.112,6.986
			c-9.992-1.55-30.004-11.102-41.106-21.715C234.011,106.747,219.627,87.578,219.656,74.611"/>
		<path fill="none" stroke="#5C1F80" stroke-width="4.515" d="M219.656,74.611c0.044-19.931,20.009-42.789,61.386-29.432
			c29.922,9.662,34.83,8.603,59.992-11.24c2.139-1.287,33.65,77.961-32.099,89.592c-6.326,1.119,2.659,4.146,9.399,8.561
			c6.734,4.419-9.563,10.482-32.112,6.986c-9.992-1.55-30.004-11.102-41.106-21.715C234.011,106.747,219.627,87.578,219.656,74.611z
			"/>
		<path fill="#83549C" d="M219.656,74.611c0.044-19.931,20.009-42.789,61.386-29.432c2.56,0.828,5.123,1.637,7.7,2.403
			c2.208,0.653,4.424,1.274,6.663,1.817c1.914,0.471,3.85,0.879,5.797,1.185c1.707,0.268,3.427,0.456,5.155,0.512
			c1.579,0.055,3.161-0.003,4.729-0.2c1.531-0.19,3.044-0.511,4.525-0.95c1.553-0.463,3.066-1.059,4.535-1.741
			c1.637-0.762,3.22-1.637,4.764-2.57c1.783-1.08,3.517-2.239,5.215-3.438c1.995-1.403,3.947-2.862,5.883-4.342
			c0.798-0.612,1.595-1.229,2.39-1.849c0.375-0.292,1.728-1.491,2.115-1.611c0.299-0.099,0.667-0.12,0.97-0.018
			c0.354,0.118,1.342,2.239,1.695,3.044c0.625,1.424,1.181,2.88,1.695,4.346c0.664,1.889,1.258,3.803,1.797,5.728
			c0.633,2.257,1.192,4.539,1.67,6.831c0.532,2.542,0.974,5.099,1.312,7.669c0.361,2.731,0.605,5.478,0.718,8.232
			c0.119,2.838,0.095,5.688-0.098,8.524c-0.201,2.869-0.574,5.729-1.16,8.544c-0.587,2.827-1.393,5.609-2.443,8.296
			c-1.064,2.716-2.381,5.33-3.963,7.777c-1.635,2.534-3.551,4.882-5.713,6.985c-2.321,2.264-4.915,4.24-7.693,5.921
			c-3.121,1.889-6.461,3.398-9.906,4.583c-1.845,0.638-3.719,1.181-5.611,1.648c-1.507,0.372-4.167,1.079-4.521,2.246
			c-0.886,2.919,6.737,4.846,9.071,7.339c5.495,5.888-9.563,10.482-32.112,6.986c-9.992-1.55-30.004-11.102-41.106-21.715
			C234.011,106.747,219.627,87.578,219.656,74.611"/>
		<path fill="#7C338E" d="M161.719,74.611c-0.044-19.931-20.009-42.789-61.388-29.432c-29.92,9.662-34.828,8.603-59.994-11.24
			C38.202,32.651,6.69,111.9,72.438,123.531c6.324,1.119-2.658,4.146-9.397,8.561c-6.734,4.419,9.563,10.482,32.11,6.986
			c9.994-1.55,30.004-11.102,41.104-21.715C147.364,106.747,161.748,87.578,161.719,74.611"/>
		<path fill="none" stroke="#5C1F80" stroke-width="4.515" d="M161.719,74.611c-0.044-19.931-20.009-42.789-61.388-29.432
			c-29.92,9.662-34.828,8.603-59.994-11.24C38.202,32.651,6.69,111.9,72.438,123.531c6.324,1.119-2.658,4.146-9.397,8.561
			c-6.734,4.419,9.563,10.482,32.11,6.986c9.994-1.55,30.004-11.102,41.104-21.715C147.364,106.747,161.748,87.578,161.719,74.611z"
			/>
		<path fill="#83549C" d="M161.719,74.611c-0.044-19.931-20.009-42.789-61.388-29.432c-2.558,0.828-5.121,1.637-7.698,2.403
			c-2.208,0.653-4.426,1.274-6.663,1.817c-1.914,0.471-3.85,0.879-5.801,1.185c-1.703,0.268-3.427,0.456-5.151,0.512
			c-1.581,0.055-3.165-0.003-4.729-0.2c-1.533-0.19-3.044-0.511-4.525-0.95c-1.553-0.463-3.066-1.059-4.537-1.741
			c-1.635-0.762-3.221-1.637-4.764-2.57c-1.781-1.08-3.515-2.239-5.217-3.438c-1.991-1.403-3.943-2.862-5.881-4.342
			c-0.796-0.612-1.593-1.229-2.388-1.849c-0.379-0.292-1.73-1.491-2.115-1.611c-0.302-0.099-0.667-0.12-0.973-0.018
			c-0.352,0.118-1.338,2.239-1.694,3.044c-0.625,1.424-1.179,2.88-1.695,4.346c-0.662,1.889-1.256,3.803-1.797,5.728
			c-0.633,2.257-1.187,4.539-1.672,6.831c-0.528,2.542-0.972,5.099-1.309,7.669c-0.361,2.731-0.607,5.478-0.722,8.232
			c-0.115,2.838-0.093,5.688,0.104,8.524c0.199,2.869,0.57,5.729,1.158,8.544c0.587,2.827,1.389,5.609,2.443,8.296
			c1.061,2.716,2.381,5.33,3.961,7.777c1.637,2.534,3.553,4.882,5.712,6.985c2.326,2.264,4.918,4.24,7.696,5.921
			c3.121,1.889,6.461,3.398,9.906,4.583c1.845,0.638,3.719,1.181,5.609,1.648c1.511,0.372,4.169,1.079,4.522,2.246
			c0.886,2.919-6.741,4.846-9.071,7.339c-5.499,5.888,9.563,10.482,32.11,6.986c9.994-1.55,30.004-11.102,41.104-21.715
			C147.364,106.747,161.748,87.578,161.719,74.611"/>
		<path fill="#FCDF00" d="M152.417,93.32c-1.373-20.141-26.386-7.077-25.327,1.221c-7.163-16.688-33.873,4.273-17.699,18.923
			c-7.452,1.223-21.208,21.511,5.033,25.631C122.714,118.935,131.329,103.766,152.417,93.32"/>
		<path fill="#FCDF00" d="M229.53,93.32c1.376-20.141,26.39-7.077,25.331,1.221c7.161-16.688,33.873,4.273,17.699,18.923
			c7.456,1.223,21.212,21.511-5.033,25.631C259.237,118.935,250.622,103.766,229.53,93.32"/>
		<path fill="#C3084B" d="M209.84,257.371c2.73,10.741,1.947,39.755,0.118,47.062c48.306-4.189,36.99,30.061-11.973,16.691
			c-2.776-0.755,7.011-35.417,1.885-63.101"/>
		<path fill="none" stroke="#C3084B" stroke-width="4.515" d="M209.84,257.371c2.73,10.741,1.947,39.755,0.118,47.062
			c48.306-4.189,36.99,30.061-11.973,16.691c-2.776-0.755,7.011-35.417,1.885-63.101"/>
		<path fill="#C3084B" d="M171.497,257.371c-2.731,10.741-1.947,39.755-0.121,47.062c-48.303-4.189-36.988,30.061,11.974,16.691
			c2.778-0.755-7.011-35.417-1.885-63.101"/>
		<path fill="none" stroke="#C3084B" stroke-width="4.515" d="M171.497,257.371c-2.731,10.741-1.947,39.755-0.121,47.062
			c-48.303-4.189-36.988,30.061,11.974,16.691c2.778-0.755-7.011-35.417-1.885-63.101"/>
		<path fill="#E17C9E" d="M209.84,257.371c2.73,10.741,1.947,39.755,0.118,47.062c48.306-4.189,36.99,30.061-11.973,16.691
			c-2.776-0.755,7.011-35.417,1.885-63.101"/>
		<path fill="#E17C9E" d="M171.497,257.371c-2.731,10.741-1.947,39.755-0.121,47.062c-48.303-4.189-36.988,30.061,11.974,16.691
			c2.778-0.755-7.011-35.417-1.885-63.101"/>
		<path fill="#E17C9E" d="M149.486,209.583c-21.506-13.142-49.199-21.1-70.951-2.695c-10.183,8.616-3.165,22.241,6.895,27.345
			c11.714,5.946,23.661,7.127,36.434,8.225c-9.612,2.724-23.97,15.368-17.026,26.889c7.881,13.085,25.698,0.076,33.645-5.101
			c11.554-7.531,21.964-18.029,21.734-32.416C160.118,225.578,156.982,214.753,149.486,209.583"/>
		<path fill="#F8E6EF" d="M149.486,209.583c-21.506-13.142-49.199-21.1-70.951-2.695c-10.183,8.616-3.165,22.241,6.895,27.345
			c11.714,5.946,23.661,7.127,36.434,8.225c-9.612,2.724-23.97,15.368-17.026,26.889c7.881,13.085,25.698,0.076,33.645-5.101
			c11.554-7.531,21.964-18.029,21.734-32.416C160.118,225.578,156.982,214.753,149.486,209.583"/>
		<path fill="none" stroke="#E17C9E" stroke-width="2.16" d="M149.486,209.583c-21.506-13.142-49.199-21.1-70.951-2.695
			c-10.183,8.616-3.165,22.241,6.895,27.345c11.714,5.946,23.661,7.127,36.434,8.225c-9.612,2.724-23.97,15.368-17.026,26.889
			c7.881,13.085,25.698,0.076,33.645-5.101c11.554-7.531,21.964-18.029,21.734-32.416
			C160.118,225.578,156.982,214.753,149.486,209.583"/>
		<path fill="#C3084B" d="M130.864,195.218c7.148-2.461-4.516-24.184-11.946-28.92c-7.429-4.732-25.81-3.236-26.089,2.308
			C92.478,175.617,111.688,201.817,130.864,195.218"/>
		<path fill="none" stroke="#C3084B" stroke-width="4.515" d="M130.864,195.218c7.148-2.461-4.516-24.184-11.946-28.92
			c-7.429-4.732-25.81-3.236-26.089,2.308C92.478,175.617,111.688,201.817,130.864,195.218z"/>
		<path fill="#E17C9E" d="M130.864,195.218c7.148-2.461-4.516-24.184-11.946-28.92c-7.429-4.732-25.81-3.236-26.089,2.308
			C92.478,175.617,111.688,201.817,130.864,195.218"/>
		<path fill="#C3084B" d="M250.666,195.218c-7.146-2.461,4.517-24.184,11.944-28.92c7.431-4.732,25.815-3.236,26.091,2.308
			C289.054,175.617,269.84,201.817,250.666,195.218"/>
		<path fill="none" stroke="#C3084B" stroke-width="4.515" d="M250.666,195.218c-7.146-2.461,4.517-24.184,11.944-28.92
			c7.431-4.732,25.815-3.236,26.091,2.308C289.054,175.617,269.84,201.817,250.666,195.218z"/>
		<path fill="#E17C9E" d="M250.666,195.218c-7.146-2.461,4.517-24.184,11.944-28.92c7.431-4.732,25.815-3.236,26.091,2.308
			C289.054,175.617,269.84,201.817,250.666,195.218"/>
		<path fill="#C3084B" d="M174.997,184.245c-1.156,3.022,5.757,62.784-52.382,56.777c0.077-3.497,7.179-8.739-2.545-10.967
			c-6.562-1.509-6.898,6.92-8.17,8.34c-2.716-4.34-21.61-11.085-23.598-4.009c-3.079,10.931,11.552,6.304,14.115,8.696
			c-3.378,0.587-16.605,6.586-9.438,16.137c4.973,6.623,13.156-2.895,12.421-4.145c0.283,1.546,9.299,12.141,16.843-4.481
			c66.716,3.579,61.15-57.338,62.058-58.317"/>
		<path fill="none" stroke="#C3084B" stroke-width="4.515" d="M174.997,184.245c-1.156,3.022,5.757,62.784-52.382,56.777
			c0.077-3.497,7.179-8.739-2.545-10.967c-6.562-1.509-6.898,6.92-8.17,8.34c-2.716-4.34-21.61-11.085-23.598-4.009
			c-3.079,10.931,11.552,6.304,14.115,8.696c-3.378,0.587-16.605,6.586-9.438,16.137c4.973,6.623,13.156-2.895,12.421-4.145
			c0.283,1.546,9.299,12.141,16.843-4.481c66.716,3.579,61.15-57.338,62.058-58.317"/>
		<path fill="#C3084B" d="M202.975,189.122c1.515,2.858,1.978,63.017,58.944,49.932c-0.505-3.462-8.198-7.795,1.181-11.201
			c6.328-2.298,7.695,6.029,9.131,7.277c2.166-4.638,20.089-13.65,22.928-6.869c4.395,10.475-10.692,7.671-12.938,10.356
			c3.424,0.171,17.286,4.506,11.343,14.862c-4.127,7.187-13.414-1.261-12.837-2.596c-0.095,1.579-7.744,13.191-17.268-2.379
			c-65.771,11.727-67.711-49.412-68.733-50.272"/>
		<path fill="none" stroke="#C3084B" stroke-width="4.515" d="M202.975,189.122c1.515,2.858,1.978,63.017,58.944,49.932
			c-0.505-3.462-8.198-7.795,1.181-11.201c6.328-2.298,7.695,6.029,9.131,7.277c2.166-4.638,20.089-13.65,22.928-6.869
			c4.395,10.475-10.692,7.671-12.938,10.356c3.424,0.171,17.286,4.506,11.343,14.862c-4.127,7.187-13.414-1.261-12.837-2.596
			c-0.095,1.579-7.744,13.191-17.268-2.379c-65.771,11.727-67.711-49.412-68.733-50.272"/>
		<path fill="#E17C9E" d="M202.975,189.122c1.515,2.858,1.978,63.017,58.944,49.932c-0.505-3.462-8.198-7.795,1.181-11.201
			c6.328-2.298,7.695,6.029,9.131,7.277c2.166-4.638,20.089-13.65,22.928-6.869c4.395,10.475-10.692,7.671-12.938,10.356
			c3.424,0.171,17.286,4.506,11.343,14.862c-4.127,7.187-13.414-1.261-12.837-2.596c-0.095,1.579-7.744,13.191-17.268-2.379
			c-65.771,11.727-67.711-49.412-68.733-50.272"/>
		<path fill="#E17C9E" d="M174.997,184.245c-1.156,3.022,5.757,62.784-52.382,56.777c0.077-3.497,7.179-8.739-2.545-10.967
			c-6.562-1.509-6.898,6.92-8.17,8.34c-2.716-4.34-21.61-11.085-23.598-4.009c-3.079,10.931,11.552,6.304,14.115,8.696
			c-3.378,0.587-16.605,6.586-9.438,16.137c4.973,6.623,13.156-2.895,12.421-4.145c0.283,1.546,9.299,12.141,16.843-4.481
			c66.716,3.579,61.15-57.338,62.058-58.317"/>
		<path fill="#3891D0" d="M178.442,225.848c0,0-4.193,45.563,14.252,64.424c0,0,20.746-18.386,0.624-73.276L178.442,225.848z"/>
		<path fill="none" stroke="#3891D0" stroke-width="4.515" d="M178.442,225.848c0,0-4.193,45.563,14.252,64.424
			c0,0,20.746-18.386,0.624-73.276L178.442,225.848z"/>
		<path fill="#3891D0" d="M191.371,222.996c0,0,2.979,45.724,23.981,59.458c0,0,17.466-23.352-10.783-71.958L191.371,222.996z"/>
		<path fill="none" stroke="#3891D0" stroke-width="4.515" d="M191.371,222.996c0,0,2.979,45.724,23.981,59.458
			c0,0,17.466-23.352-10.783-71.958L191.371,222.996z"/>
		<path fill="#3891D0" d="M175.897,221.604c0,0-20.333,37.703-10.927,65.489c0,0,25.026-3.708,27.294-64.322L175.897,221.604z"/>
		<path fill="none" stroke="#3891D0" stroke-width="4.515" d="M175.897,221.604c0,0-20.333,37.703-10.927,65.489
			c0,0,25.026-3.708,27.294-64.322L175.897,221.604z"/>
		<path fill="#3891D0" d="M169.424,211.318l-7.104,36.662c0,0,32.372,13.332,54.086-3.334l-11.053-37.134L169.424,211.318z"/>
		<path fill="none" stroke="#3891D0" stroke-width="4.515" d="M169.424,211.318l-7.104,36.662c0,0,32.372,13.332,54.086-3.334
			l-11.053-37.134L169.424,211.318z"/>
		<path fill="#3891D0" d="M168.17,218.979c0,0-22.848,35.234-15.398,63.987c0,0,25.186-0.844,31.618-60.962L168.17,218.979z"/>
		<path fill="none" stroke="#3891D0" stroke-width="4.515" d="M168.17,218.979c0,0-22.848,35.234-15.398,63.987
			c0,0,25.186-0.844,31.618-60.962L168.17,218.979z"/>
		<path fill="#3891D0" d="M173.028,226.172c0,0-10.606,43.806,4.838,66.692c0,0,23.012-13.188,11.047-71.891L173.028,226.172z"/>
		<path fill="none" stroke="#3891D0" stroke-width="4.515" d="M173.028,226.172c0,0-10.606,43.806,4.838,66.692
			c0,0,23.012-13.188,11.047-71.891L173.028,226.172z"/>
		<path fill="#3891D0" d="M183.53,230.7c0,0,0.126,45.884,20.213,61.732c0,0,18.859-21.48-6.284-72.837L183.53,230.7z"/>
		<path fill="none" stroke="#3891D0" stroke-width="4.515" d="M183.53,230.7c0,0,0.126,45.884,20.213,61.732
			c0,0,18.859-21.48-6.284-72.837L183.53,230.7z"/>
		<path fill="#3891D0" d="M196.625,230.252c0,0,9.728,44.142,32.387,52.451c0,0,13.668-27.217-21.291-67.968L196.625,230.252z"/>
		<path fill="none" stroke="#3891D0" stroke-width="4.515" d="M196.625,230.252c0,0,9.728,44.142,32.387,52.451
			c0,0,13.668-27.217-21.291-67.968L196.625,230.252z"/>
		<path fill="#BA9EC9" d="M178.442,225.848c0,0-4.193,45.563,14.252,64.424c0,0,20.746-18.386,0.624-73.276L178.442,225.848z"/>
		<path fill="#BA9EC9" d="M191.371,222.996c0,0,2.979,45.724,23.981,59.458c0,0,17.466-23.352-10.783-71.958L191.371,222.996z"/>
		<path fill="#BA9EC9" d="M175.897,221.604c0,0-20.333,37.703-10.927,65.489c0,0,25.026-3.708,27.294-64.322L175.897,221.604z"/>
		<path fill="#86C1E9" d="M169.424,211.318l-7.104,36.662c0,0,32.372,13.332,54.086-3.334l-11.053-37.134L169.424,211.318z"/>
		<path fill="#86C1E9" d="M168.17,218.979c0,0-22.848,35.234-15.398,63.987c0,0,25.186-0.844,31.618-60.962L168.17,218.979z"/>
		<path fill="#86C1E9" d="M173.028,226.172c0,0-10.606,43.806,4.838,66.692c0,0,23.012-13.188,11.047-71.891L173.028,226.172z"/>
		<path fill="#86C1E9" d="M183.53,230.7c0,0,0.126,45.884,20.213,61.732c0,0,18.859-21.48-6.284-72.837L183.53,230.7z"/>
		<path fill="#86C1E9" d="M196.625,230.252c0,0,9.728,44.142,32.387,52.451c0,0,13.668-27.217-21.291-67.968L196.625,230.252z"/>
		<path fill="#C3084B" d="M113.209,162.105c0-40.104,29.864-74.786,76.445-74.474c46.22,0.313,79.3,34.37,79.3,74.474
			c0,40.098-30.613,64.581-76.5,66.594C144.588,230.802,113.209,202.203,113.209,162.105"/>
		<path fill="none" stroke="#C3084B" stroke-width="4.515" d="M113.209,162.105c0-40.104,29.864-74.786,76.445-74.474
			c46.22,0.313,79.3,34.37,79.3,74.474c0,40.098-30.613,64.581-76.5,66.594C144.588,230.802,113.209,202.203,113.209,162.105z"/>
		<path fill="#E17C9E" d="M113.209,162.105c0-40.104,29.864-74.786,76.445-74.474c46.22,0.313,79.3,34.37,79.3,74.474
			c0,40.098-30.613,64.581-76.5,66.594C144.588,230.802,113.209,202.203,113.209,162.105"/>
		<path fill="#7C338E" d="M157.803,97.002c-0.087,0.624-0.171,1.254-0.223,1.915c-0.478,5.924-1.243,12.56,1.484,17.963
			c2.482,4.922,9.649,14.052,16.315,13.848c0.073-1.532-0.893-4.638,0.669-5.378c2.266-1.076,15.574,15.966,19.066,15.238
			c12.539-2.616,19.276-22.242,19.174-32.469c0.501,2.527,2.52,11.507,3.303,13.078c2.286-3.608,3.863-7.62,4.818-11.716
			c0.782-3.353,1.159-6.871,1.034-10.364C200.087,84.533,170.479,92.451,157.803,97.002"/>
		<path fill="none" stroke="#5C1F80" stroke-width="4.515" d="M157.803,97.002c-0.087,0.624-0.171,1.254-0.223,1.915
			c-0.478,5.924-1.243,12.56,1.484,17.963c2.482,4.922,9.649,14.052,16.315,13.848c0.073-1.532-0.893-4.638,0.669-5.378
			c2.266-1.076,15.574,15.966,19.066,15.238c12.539-2.616,19.276-22.242,19.174-32.469c0.501,2.527,2.52,11.507,3.303,13.078
			c2.286-3.608,3.863-7.62,4.818-11.716c0.782-3.353,1.159-6.871,1.034-10.364C200.087,84.533,170.479,92.451,157.803,97.002z"/>
		<path fill="none" stroke="#5C1F80" stroke-width="4.515" stroke-miterlimit="5" d="M187.71,102.364
			c0,0,57.318-5.103,80.729,55.584c0-0.035,0-0.062,0-0.095c0-40.102-33.076-74.159-79.294-74.469
			c-46.191-0.313-75.926,33.788-76.421,73.459C116.789,143.055,132.722,106.336,187.71,102.364z"/>
		<path fill="#83549C" d="M187.71,102.364c0,0,57.318-5.103,80.729,55.584c0-0.035,0-0.062,0-0.095
			c0-40.102-33.076-74.159-79.294-74.469c-46.191-0.313-75.926,33.788-76.421,73.459
			C116.789,143.055,132.722,106.336,187.71,102.364"/>
		<path fill="#7C338E" d="M108.553,155.595c0,0-0.456,9.724,2.574,18.002c0,0,2.142-5.673,6.64-18.554L108.553,155.595z"/>
		<path fill="#7C338E" d="M272.622,157.303c0,0,0.456,9.724-2.574,18.004c0,0-2.142-5.677-6.639-18.556L272.622,157.303z"/>
		<path fill="#D72629" d="M127.711,190.215c0,0,53.951,26.149,121.804,0c0,0-15.016,29.102-58.401,31.213
			C191.114,221.429,142.172,223.959,127.711,190.215"/>
		<path fill="#D94D5C" d="M200.497,184.63c0,5.247-5.115,9.498-11.419,9.498c-6.311,0-11.421-4.251-11.421-9.498
			c0-5.25,5.11-9.501,11.421-9.501C195.382,175.128,200.497,179.379,200.497,184.63"/>
		<path fill="#83549C" d="M157.803,97.002c-0.087,0.624-0.171,1.254-0.223,1.915c-0.478,5.924-1.243,12.56,1.484,17.963
			c2.482,4.922,9.649,14.052,16.315,13.848c0.073-1.532-0.893-4.638,0.669-5.378c2.266-1.076,15.574,15.966,19.066,15.238
			c12.539-2.616,19.276-22.242,19.174-32.469c0.501,2.527,2.52,11.507,3.303,13.078c2.286-3.608,3.863-7.62,4.818-11.716
			c0.782-3.353,1.159-6.871,1.034-10.364C200.087,84.533,170.479,92.451,157.803,97.002"/>
		<path fill="#A681B8" d="M126.265,177.958c0,0.959-0.777,1.736-1.736,1.736c-0.958,0-1.739-0.777-1.739-1.736
			c0-0.958,0.78-1.735,1.739-1.735C125.488,176.222,126.265,176.999,126.265,177.958"/>
		<path fill="#A681B8" d="M122.35,184.648c0,0.959-0.78,1.739-1.737,1.739c-0.959,0-1.736-0.78-1.736-1.739
			c0-0.962,0.777-1.739,1.736-1.739C121.569,182.909,122.35,183.686,122.35,184.648"/>
		<path fill="#A681B8" d="M130.956,184.73c0,0.961-0.778,1.737-1.737,1.737s-1.735-0.776-1.735-1.737
			c0-0.96,0.776-1.737,1.735-1.737S130.956,183.77,130.956,184.73"/>
		<path fill="#A681B8" d="M254.027,177.958c0,0.959,0.78,1.736,1.739,1.736c0.956,0,1.734-0.777,1.734-1.736
			c0-0.958-0.778-1.735-1.734-1.735C254.807,176.222,254.027,176.999,254.027,177.958"/>
		<path fill="#A681B8" d="M257.944,184.648c0,0.959,0.779,1.739,1.737,1.739c0.959,0,1.736-0.78,1.736-1.739
			c0-0.962-0.777-1.739-1.736-1.739C258.723,182.909,257.944,183.686,257.944,184.648"/>
		<path fill="#A681B8" d="M249.338,184.73c0,0.961,0.78,1.737,1.737,1.737s1.734-0.776,1.734-1.737c0-0.96-0.777-1.737-1.734-1.737
			S249.338,183.77,249.338,184.73"/>
		<path fill="#D94D5C" d="M172.642,201.164c1.28,4.649,3.38,12.807,15.434,12.471c16.786-0.468,15.915-9.698,15.792-12.475
			C190.345,201.93,184.936,202.138,172.642,201.164"/>
		<path fill="#FFFFFF" d="M179.361,172.576c-6.129,13.645-23.239,19.254-38.219,12.528c-14.976-6.727-22.157-23.243-16.026-36.887
			c6.129-13.646,23.241-19.254,38.217-12.529C178.312,142.417,185.486,158.931,179.361,172.576"/>
		<path fill="#095CAA" d="M152.698,151.207c-7.155,5.52-8.479,15.794-2.957,22.952c5.519,7.153,15.798,8.477,22.946,2.953
			c7.157-5.52,8.479-15.794,2.957-22.944C170.123,147.011,159.852,145.687,152.698,151.207"/>
		<path fill="#0E0000" d="M152.423,167.508c-1.85-5.669,1.251-11.769,6.922-13.618c5.671-1.849,11.77,1.25,13.622,6.92
			c1.847,5.673-1.254,11.77-6.927,13.622C160.368,176.281,154.27,173.182,152.423,167.508"/>
		<path fill="#FFFFFF" d="M163.538,162.1c-0.613-1.863,0.408-3.863,2.273-4.472c1.861-0.609,3.863,0.408,4.47,2.271
			c0.607,1.863-0.41,3.868-2.273,4.472C166.145,164.98,164.143,163.962,163.538,162.1"/>
		<path fill="#3691D0" d="M129.917,153.825c6.306-14.048,21.589-21.15,35.583-17.238c-0.692-0.375-1.4-0.733-2.131-1.057
			c-14.979-6.73-32.09-1.12-38.219,12.523c-3.868,8.618-2.428,18.376,2.924,26.094C126.444,167.642,126.921,160.497,129.917,153.825
			"/>
		<path fill="#0E0000" d="M132.325,179.064c-3.201-7.38-3.455-15.882,0.022-23.621c6.453-14.373,23.385-20.895,38.545-15.218
			c-1.637-1.367-3.441-2.585-5.394-3.639c-13.99-3.912-31.206,2.107-37.902,15.973c-4.054,8.389-2.151,15.606,0.478,21.587
			C129.291,175.905,130.717,177.557,132.325,179.064"/>
		<path fill="#0E0000" d="M142.212,138.889c-1.56,0.72-3.5,2.105-7.846-2.722c-1.365-1.513-2.093,1.893-2.158,2.844
			c-0.135,1.936,0.059,3.77,0.333,5.673c-0.545-0.038-6.067-5.622-6.882-3.985c-0.746,1.571-0.962,4.574,1.601,9.536
			c-2.166-0.034-7.613-2.82-7.689-1.285c-0.077,1.542,0.204,4.776,6.435,10.205"/>
		<path fill="#FFFFFF" d="M200.028,172.576c6.131,13.645,23.239,19.254,38.219,12.528c14.978-6.727,22.155-23.243,16.024-36.887
			c-6.129-13.646-23.239-19.254-38.215-12.529C201.08,142.417,193.903,158.931,200.028,172.576"/>
		<path fill="#095CAA" d="M226.693,151.207c7.155,5.52,8.475,15.794,2.957,22.952c-5.521,7.153-15.8,8.477-22.948,2.953
			c-7.155-5.52-8.479-15.794-2.957-22.944C209.268,147.011,219.538,145.687,226.693,151.207"/>
		<path fill="#0E0000" d="M226.967,167.508c1.852-5.669-1.247-11.769-6.92-13.618c-5.673-1.849-11.77,1.25-13.622,6.92
			c-1.849,5.673,1.254,11.77,6.927,13.622C219.022,176.281,225.122,173.182,226.967,167.508"/>
		<path fill="#FFFFFF" d="M224.499,162.1c0.609-1.863-0.409-3.863-2.271-4.472c-1.863-0.609-3.865,0.408-4.474,2.271
			c-0.605,1.863,0.412,3.868,2.275,4.472C221.892,164.98,223.893,163.962,224.499,162.1"/>
		<path fill="#3691D0" d="M249.473,153.825c-6.304-14.048-21.591-21.15-35.581-17.238c0.693-0.375,1.4-0.733,2.129-1.057
			c14.978-6.73,32.092-1.12,38.221,12.523c3.866,8.618,2.425,18.376-2.928,26.094C252.944,167.642,252.47,160.497,249.473,153.825"
			/>
		<path fill="#0E0000" d="M247.063,179.064c3.205-7.38,3.458-15.882-0.021-23.621c-6.451-14.373-23.383-20.895-38.547-15.218
			c1.637-1.367,3.444-2.585,5.395-3.639c13.991-3.912,31.208,2.107,37.905,15.973c4.054,8.389,2.149,15.606-0.481,21.587
			C250.097,175.905,248.675,177.557,247.063,179.064"/>
		<path fill="#0E0000" d="M236.255,138.344c1.549,0.748,3.462,2.175,7.899-2.57c1.393-1.488,2.054,1.929,2.1,2.882
			c0.102,1.938-0.128,3.769-0.439,5.666c0.547-0.027,6.174-5.505,6.958-3.852c0.714,1.583,0.871,4.59-1.783,9.501
			c2.166,0.007,7.666-2.674,7.711-1.136c0.049,1.541-0.292,4.769-6.625,10.079"/>
	</g>
</g>
<g id="_x35_" display="none">
</g>
<g id="_x34_" display="none">
</g>
<g id="_x33_" display="none">
</g>
<g id="_x32_" display="none">
</g>
<g id="_x31_" display="none">
</g>
<g id="_x30_" display="none">
</g>
<g id="guide" display="none">
</g>
</svg>
