<?xml version="1.0" encoding="utf-8"?>
<!-- Generator: Adobe Illustrator 16.2.1, SVG Export Plug-In . SVG Version: 6.00 Build 0)  -->
<!DOCTYPE svg PUBLIC "-//W3C//DTD SVG 1.1//EN" "http://www.w3.org/Graphics/SVG/1.1/DTD/svg11.dtd">
<svg version="1.1" xmlns="http://www.w3.org/2000/svg" xmlns:xlink="http://www.w3.org/1999/xlink" x="0px" y="0px"
	 width="1055.667px" height="950.136px" viewBox="0 0 1055.667 950.136" enable-background="new 0 0 1055.667 950.136"
	 xml:space="preserve">
<g id="base" display="none">
</g>
<g id="book3" display="none">
</g>
<g id="_x38_" display="none">
</g>
<g id="_x37_" display="none">
</g>
<g id="_x36_">
	<rect x="68.79" y="129.948" fill="none" stroke="#898989" stroke-miterlimit="10" width="910" height="599"/>
	<path fill="#727171" d="M731.79,657.61c0,6.262-5.076,11.338-11.339,11.338H140.129c-6.263,0-11.339-5.076-11.339-11.338V187.286
		c0-6.262,5.076-11.338,11.339-11.338h580.322c6.263,0,11.339,5.076,11.339,11.338V657.61z"/>
	<path fill="#898989" d="M954.14,311.794c0,6.262-5.076,11.339-11.339,11.339H766.129c-6.263,0-11.339-5.077-11.339-11.339v-85.508
		c0-6.262,5.076-11.338,11.339-11.338h176.672c6.263,0,11.339,5.076,11.339,11.338V311.794z"/>
	<path fill="#F39800" d="M954.14,311.794c0,6.262-5.076,11.339-11.339,11.339H766.129c-6.263,0-11.339-5.077-11.339-11.339v-85.508
		c0-6.262,5.076-11.338,11.339-11.338h176.672c6.263,0,11.339,5.076,11.339,11.338V311.794z"/>
	<path fill="#898989" d="M850.522,375.712c0,2.441-2.438,4.421-5.444,4.421h-84.843c-3.008,0-5.445-1.979-5.445-4.421V342.37
		c0-2.442,2.438-4.422,5.445-4.422h84.843c3.007,0,5.444,1.979,5.444,4.422V375.712z"/>
	<path fill="#898989" d="M954.522,375.712c0,2.441-2.361,4.421-5.274,4.421h-82.183c-2.914,0-5.275-1.979-5.275-4.421V342.37
		c0-2.442,2.361-4.422,5.275-4.422h82.183c2.913,0,5.274,1.979,5.274,4.422V375.712z"/>
	<path fill="#898989" d="M850.522,430.712c0,2.441-2.438,4.421-5.444,4.421h-84.843c-3.008,0-5.445-1.979-5.445-4.421V397.37
		c0-2.442,2.438-4.422,5.445-4.422h84.843c3.007,0,5.444,1.979,5.444,4.422V430.712z"/>
	<path fill="#898989" d="M954.522,430.712c0,2.441-2.361,4.421-5.274,4.421h-82.183c-2.914,0-5.275-1.979-5.275-4.421V397.37
		c0-2.442,2.361-4.422,5.275-4.422h82.183c2.913,0,5.274,1.979,5.274,4.422V430.712z"/>
	<path fill="#898989" d="M850.522,485.712c0,2.441-2.438,4.421-5.444,4.421h-84.843c-3.008,0-5.445-1.979-5.445-4.421V452.37
		c0-2.442,2.438-4.422,5.445-4.422h84.843c3.007,0,5.444,1.979,5.444,4.422V485.712z"/>
	<path fill="#898989" d="M954.522,485.712c0,2.441-2.361,4.421-5.274,4.421h-82.183c-2.914,0-5.275-1.979-5.275-4.421V452.37
		c0-2.442,2.361-4.422,5.275-4.422h82.183c2.913,0,5.274,1.979,5.274,4.422V485.712z"/>
	<text transform="matrix(1 0 0 1 764.1396 260.9795)"><tspan x="0" y="0" fill="#FFFFFF" stroke="#FFFFFF" stroke-width="1.5386" stroke-miterlimit="10" font-family="'ShinMGoPro-DeBold'" font-size="36">クッキーを</tspan><tspan x="36" y="42" fill="#FFFFFF" stroke="#FFFFFF" stroke-width="1.5386" stroke-miterlimit="10" font-family="'ShinMGoPro-DeBold'" font-size="36">やくよ</tspan></text>
</g>
<g id="_x35_" display="none">
</g>
<g id="_x34_" display="none">
</g>
<g id="_x33_" display="none">
</g>
<g id="_x32_" display="none">
</g>
<g id="_x31_" display="none">
	<g display="inline">
		<defs>
			<path id="SVGID_15_" d="M903.721-231.307c0,5.5-4.5,10-10,10H-384.225c-5.5,0-10-4.5-10-10v-27.558v-841.881c0-5.5,4.5-10,10-10
				H893.721c5.5,0,10,4.5,10,10v839.881V-231.307z"/>
		</defs>
		<clipPath id="SVGID_2_">
			<use xlink:href="#SVGID_15_"  overflow="visible"/>
		</clipPath>
		<g clip-path="url(#SVGID_2_)">
			<g>
				<g>
					<g>
						<path fill="#009FE8" d="M276.458-160.085l0.121-0.03c0.991,0.52,13.173,20.124,36.459,58.896
							c23.749,39.551,35.863,59.636,36.323,60.169l16.111-1.077c36.805-10.349,68.336-14.445,94.545-12.21
							c12.699,1.056,25.435,4.245,38.252,9.509c5.895,2.432,11.705,7.231,17.521,14.367c5.765,7.167,8.821,13.397,9.222,18.69
							c0.587,8.501-4.591,16.861-15.59,25.127c-30.541,22.904-86.928,36.974-169.08,42.268c-41.076,2.666-79.111,3.002-114.038,1.01
							l-4.857-5.18c-0.509-0.707-0.979-1.495-1.467-2.35c-1.909-4.369-3.304-7.463-4.128-9.395
							c-1.667-3.668-7.257-29.924-16.907-78.81c-9.66-48.944-15.282-75.266-16.745-78.912l-0.02-0.069l94.198-42.053
							L276.458-160.085z"/>
						<path fill="none" stroke="#00499C" stroke-width="10.075" stroke-linecap="round" stroke-miterlimit="10" d="M276.458-160.085
							l-0.079-0.049l-94.198,42.053l0.02,0.069c1.463,3.646,7.085,29.968,16.745,78.912c9.65,48.886,15.24,75.142,16.907,78.81
							c0.824,1.932,2.219,5.025,4.128,9.395c0.487,0.854,0.958,1.643,1.467,2.35l4.857,5.18c34.927,1.992,72.962,1.656,114.038-1.01
							c82.152-5.294,138.539-19.363,169.08-42.268c10.999-8.266,16.177-16.626,15.59-25.127c-0.4-5.293-3.457-11.523-9.222-18.69
							c-5.816-7.136-11.627-11.936-17.521-14.367c-12.817-5.264-25.553-8.453-38.252-9.509c-26.209-2.235-57.74,1.861-94.545,12.21
							l-16.111,1.077c-0.46-0.533-12.574-20.618-36.323-60.169c-23.286-38.772-35.468-58.377-36.459-58.896L276.458-160.085z"/>
					</g>
				</g>
			</g>
		</g>
	</g>
</g>
<g id="_x30_" display="none">
</g>
<g id="guide" display="none">
</g>
</svg>
