<?xml version="1.0" encoding="utf-8"?>
<!-- Generator: Adobe Illustrator 16.2.1, SVG Export Plug-In . SVG Version: 6.00 Build 0)  -->
<!DOCTYPE svg PUBLIC "-//W3C//DTD SVG 1.1//EN" "http://www.w3.org/Graphics/SVG/1.1/DTD/svg11.dtd">
<svg version="1.1" xmlns="http://www.w3.org/2000/svg" xmlns:xlink="http://www.w3.org/1999/xlink" x="0px" y="0px"
	 width="1055.667px" height="950.136px" viewBox="0 0 1055.667 950.136" enable-background="new 0 0 1055.667 950.136"
	 xml:space="preserve">
<g id="base" display="none">
</g>
<g id="book3" display="none">
</g>
<g id="_x38_" display="none">
</g>
<g id="_x37_" display="none">
</g>
<g id="_x36_">
	<rect x="68.79" y="129.948" fill="none" stroke="#898989" stroke-miterlimit="10" width="910" height="599"/>
	<path fill="#727171" d="M731.79,657.61c0,6.262-5.076,11.338-11.339,11.338H140.129c-6.263,0-11.339-5.076-11.339-11.338V187.286
		c0-6.262,5.076-11.338,11.339-11.338h580.322c6.263,0,11.339,5.076,11.339,11.338V657.61z"/>
	<path fill="#898989" d="M954.14,311.794c0,6.262-5.076,11.339-11.339,11.339H766.129c-6.263,0-11.339-5.077-11.339-11.339v-85.508
		c0-6.262,5.076-11.338,11.339-11.338h176.672c6.263,0,11.339,5.076,11.339,11.338V311.794z"/>
	<path fill="#F39800" d="M954.14,311.794c0,6.262-5.076,11.339-11.339,11.339H766.129c-6.263,0-11.339-5.077-11.339-11.339v-85.508
		c0-6.262,5.076-11.338,11.339-11.338h176.672c6.263,0,11.339,5.076,11.339,11.338V311.794z"/>
	<path fill="#898989" d="M850.522,375.712c0,2.441-2.438,4.421-5.444,4.421h-84.843c-3.008,0-5.445-1.979-5.445-4.421V342.37
		c0-2.442,2.438-4.422,5.445-4.422h84.843c3.007,0,5.444,1.979,5.444,4.422V375.712z"/>
	<path fill="#898989" d="M954.522,375.712c0,2.441-2.361,4.421-5.274,4.421h-82.183c-2.914,0-5.275-1.979-5.275-4.421V342.37
		c0-2.442,2.361-4.422,5.275-4.422h82.183c2.913,0,5.274,1.979,5.274,4.422V375.712z"/>
	<path fill="#898989" d="M850.522,430.712c0,2.441-2.438,4.421-5.444,4.421h-84.843c-3.008,0-5.445-1.979-5.445-4.421V397.37
		c0-2.442,2.438-4.422,5.445-4.422h84.843c3.007,0,5.444,1.979,5.444,4.422V430.712z"/>
	<path fill="#898989" d="M954.522,430.712c0,2.441-2.361,4.421-5.274,4.421h-82.183c-2.914,0-5.275-1.979-5.275-4.421V397.37
		c0-2.442,2.361-4.422,5.275-4.422h82.183c2.913,0,5.274,1.979,5.274,4.422V430.712z"/>
	<path fill="#898989" d="M850.522,485.712c0,2.441-2.438,4.421-5.444,4.421h-84.843c-3.008,0-5.445-1.979-5.445-4.421V452.37
		c0-2.442,2.438-4.422,5.445-4.422h84.843c3.007,0,5.444,1.979,5.444,4.422V485.712z"/>
	<path fill="#898989" d="M954.522,485.712c0,2.441-2.361,4.421-5.274,4.421h-82.183c-2.914,0-5.275-1.979-5.275-4.421V452.37
		c0-2.442,2.361-4.422,5.275-4.422h82.183c2.913,0,5.274,1.979,5.274,4.422V485.712z"/>
	<g>
		<path fill="#FFFFFF" stroke="#FFFFFF" stroke-width="1.5386" stroke-miterlimit="10" d="M802.216,238.446
			c-0.145,0.18-0.324,0.359-0.541,0.504c-3.779,11.662-9.682,19.148-19.617,24.188c-0.432-0.612-1.115-1.44-1.836-1.979
			c9.432-4.572,15.262-11.771,18.25-21.31H785.62c-2.086,3.239-4.859,6.371-8.062,8.892c-0.504-0.504-1.332-1.188-2.051-1.656
			c4.895-3.779,9.035-9.287,11.482-15.622l3.42,0.972c-0.145,0.359-0.576,0.468-1.045,0.468c-0.719,1.584-1.475,3.096-2.303,4.536
			h12.67l0.432-0.217L802.216,238.446z"/>
		<path fill="#FFFFFF" stroke="#FFFFFF" stroke-width="1.5386" stroke-miterlimit="10" d="M810.296,241.253
			c1.08,2.196,2.268,5.652,2.701,7.74l-2.016,0.539c-0.434-2.088-1.549-5.363-2.629-7.667L810.296,241.253z M831.786,241.505
			c-0.072,0.324-0.432,0.396-0.756,0.36c-2.809,10.511-8.1,16.954-16.811,20.481c-0.287-0.432-0.936-1.26-1.404-1.656
			c8.604-3.383,13.535-9.286,16.162-20.013L831.786,241.505z M819.044,239.526c0.756,2.411,1.439,5.867,1.691,8.17l-2.123,0.396
			c-0.217-2.304-0.9-5.615-1.693-8.1L819.044,239.526z"/>
		<path fill="#FFFFFF" stroke="#FFFFFF" stroke-width="1.5386" stroke-miterlimit="10" d="M853.347,251.404l1.297,11.302
			l-2.592,0.289l-1.26-11.268l-13.498,1.729l-0.324-2.376l13.57-1.728l-0.936-8.1l-11.303,1.477l-0.324-2.412l11.338-1.439
			l-0.791-7.127l3.527-0.145c0,0.36-0.324,0.648-0.828,0.792l0.648,6.12l10.941-1.44l0.289,2.448l-10.943,1.403l0.936,8.063
			l13.535-1.692l0.324,2.376L853.347,251.404z"/>
		<path fill="#FFFFFF" stroke="#FFFFFF" stroke-width="1.5386" stroke-miterlimit="10" d="M870.907,245.394h30.057v2.555h-28.689
			c-0.215,0.36-0.684,0.612-1.152,0.684L870.907,245.394z"/>
		<path fill="#FFFFFF" stroke="#FFFFFF" stroke-width="1.5386" stroke-miterlimit="10" d="M933.632,246.005
			c-0.072,0.036-0.143,0.072-0.215,0.072c-0.217,0-0.396-0.108-0.541-0.217c-2.734,0.9-6.73,2.377-9.719,3.672
			c0.072,0.828,0.109,1.764,0.109,2.809c0,1.15-0.037,2.447-0.109,3.851l-2.627,0.144c0.107-1.295,0.18-2.951,0.18-4.355
			c0-0.539,0-1.043-0.035-1.439c-4.068,1.98-7.381,4.392-7.381,6.551c0,2.088,2.484,3.096,7.451,3.096
			c3.492,0,6.732-0.071,9.035-0.359l0.037,2.412c-2.125,0.215-5.363,0.287-9.072,0.287c-6.91,0-9.971-1.655-9.971-5.326
			c0-3.168,4.176-6.229,9.576-8.928c-0.217-2.268-1.225-3.383-2.664-3.383c-2.627,0-5.363,1.475-8.604,5.074
			c-1.008,1.116-2.412,2.52-3.959,3.924l-1.764-1.764c3.6-3.168,6.982-6.191,9.07-13.282l-2.016,0.036h-6.012v-2.34
			c2.197,0.036,4.752,0.036,6.229,0.036l2.447-0.036c0.396-1.656,0.721-3.203,0.973-5.147l3.527,0.433
			c-0.072,0.359-0.361,0.575-0.9,0.647c-0.252,1.44-0.576,2.7-0.9,3.995c2.447-0.035,7.703-0.611,12.383-2.088l0.432,2.412
			c-4.5,1.404-9.934,1.908-13.498,2.016c-0.863,2.699-1.764,4.859-2.592,6.084h0.035c1.584-1.404,3.961-2.34,5.797-2.34
			c2.447,0,3.994,1.764,4.463,4.679c3.023-1.368,6.84-2.843,9.719-3.96L933.632,246.005z"/>
		<path fill="#FFFFFF" stroke="#FFFFFF" stroke-width="1.5386" stroke-miterlimit="10" d="M830.157,280.086
			c0.396-0.036,0.721-0.072,1.08-0.072c3.924,0,7.811,2.34,7.811,7.199c0,4.68-3.203,7.415-8.135,7.415
			c-2.123,0-4.932-0.792-7.199-2.592c0.252-0.539,0.539-1.476,0.721-2.16c2.088,1.621,4.57,2.377,6.479,2.377
			c3.383,0,5.508-1.836,5.508-5.076c0-2.664-1.836-4.751-5.652-4.751c-3.023,0-7.775,1.548-11.842,2.987
			c1.691,5.724,3.996,13.93,5.398,19.33l-2.771,0.611c-1.115-5.184-3.49-13.75-5.039-19.041c-2.303,0.828-5.543,1.907-7.486,2.627
			c-0.037,0.324-0.289,0.648-0.613,0.793l-1.15-2.881c2.303-0.719,5.939-1.907,8.566-2.844c-1.08-3.671-2.088-6.91-2.736-8.998
			l3.709-0.684c0.035,0.467-0.145,0.647-0.756,0.971c0.791,2.772,1.439,5.111,2.23,7.848c3.889-1.332,7.559-2.52,10.367-2.916
			c-1.619-1.836-4.463-4.283-6.443-5.471l1.656-1.62c2.412,1.368,5.615,4.067,7.307,6.119L830.157,280.086z"/>
		<path fill="#FFFFFF" stroke="#FFFFFF" stroke-width="1.5386" stroke-miterlimit="10" d="M861.593,305.751
			c-3.635-4.248-9.252-9.575-14.111-13.391c-1.799-1.439-2.447-2.447-2.447-3.744c0-1.043,0.576-2.051,1.908-3.275
			c3.275-3.023,9.432-8.854,12.887-12.382l3.059,2.016c-0.07,0.071-0.322,0.36-0.791,0.36c-0.145,0-0.289-0.037-0.432-0.072
			c-3.6,3.455-9.215,8.351-12.166,11.123c-0.865,0.827-1.549,1.547-1.549,2.123c0,0.611,0.648,1.332,1.908,2.268
			c4.752,3.672,9.826,8.314,14.219,13.066L861.593,305.751z"/>
		<path fill="#FFFFFF" stroke="#FFFFFF" stroke-width="1.5386" stroke-miterlimit="10" d="M896.907,302.799
			c-3.096-2.447-7.02-4.787-10.799-6.011c0.072,1.403-0.18,3.239-0.467,4.176c-0.289,2.986-3.061,4.139-6.373,4.139
			c-4.643,0-8.314-2.268-8.35-5.902c-0.072-3.637,3.742-5.868,8.279-5.904c1.26,0,2.879,0.072,4.211,0.324
			c0-0.972-0.18-1.8-0.217-2.627c-0.324-4.717-0.611-12.275-0.646-17.459l3.742,0.217c0,0.359-0.324,0.684-0.936,0.756
			c-0.035,0.972,0,5.723,0,6.803c2.34,0,7.596-0.396,11.951-1.152l0.252,2.557c-4.104,0.647-9.432,1.008-12.166,1.043
			c0,2.053,0.07,2.881,0.611,10.331c4.643,1.368,9.035,3.815,12.562,6.407L896.907,302.799z M879.126,295.456
			c-3.455,0.072-5.867,1.512-5.867,3.563c0,2.628,2.844,3.779,5.723,3.779c2.52,0,4.607-0.899,4.607-3.456
			c0-0.827,0-2.303-0.072-3.347C882.077,295.563,880.493,295.456,879.126,295.456z"/>
	</g>
</g>
<g id="_x35_" display="none">
</g>
<g id="_x34_" display="none">
</g>
<g id="_x33_" display="none">
</g>
<g id="_x32_" display="none">
</g>
<g id="_x31_" display="none">
	<g display="inline">
		<defs>
			<path id="SVGID_15_" d="M903.721-231.307c0,5.5-4.5,10-10,10H-384.225c-5.5,0-10-4.5-10-10v-27.558v-841.881c0-5.5,4.5-10,10-10
				H893.721c5.5,0,10,4.5,10,10v839.881V-231.307z"/>
		</defs>
		<clipPath id="SVGID_2_">
			<use xlink:href="#SVGID_15_"  overflow="visible"/>
		</clipPath>
		<g clip-path="url(#SVGID_2_)">
			<g>
				<g>
					<g>
						<path fill="#009FE8" d="M276.458-160.085l0.121-0.03c0.991,0.52,13.173,20.124,36.459,58.896
							c23.749,39.551,35.863,59.636,36.323,60.169l16.111-1.077c36.805-10.349,68.336-14.445,94.545-12.21
							c12.699,1.056,25.435,4.245,38.252,9.509c5.895,2.432,11.705,7.231,17.521,14.367c5.765,7.167,8.821,13.397,9.222,18.69
							c0.587,8.501-4.591,16.861-15.59,25.127c-30.541,22.904-86.928,36.974-169.08,42.268c-41.076,2.666-79.111,3.002-114.038,1.01
							l-4.857-5.18c-0.509-0.707-0.979-1.495-1.467-2.35c-1.909-4.369-3.304-7.463-4.128-9.395
							c-1.667-3.668-7.257-29.924-16.907-78.81c-9.66-48.944-15.282-75.266-16.745-78.912l-0.02-0.069l94.198-42.053
							L276.458-160.085z"/>
						<path fill="none" stroke="#00499C" stroke-width="10.075" stroke-linecap="round" stroke-miterlimit="10" d="M276.458-160.085
							l-0.079-0.049l-94.198,42.053l0.02,0.069c1.463,3.646,7.085,29.968,16.745,78.912c9.65,48.886,15.24,75.142,16.907,78.81
							c0.824,1.932,2.219,5.025,4.128,9.395c0.487,0.854,0.958,1.643,1.467,2.35l4.857,5.18c34.927,1.992,72.962,1.656,114.038-1.01
							c82.152-5.294,138.539-19.363,169.08-42.268c10.999-8.266,16.177-16.626,15.59-25.127c-0.4-5.293-3.457-11.523-9.222-18.69
							c-5.816-7.136-11.627-11.936-17.521-14.367c-12.817-5.264-25.553-8.453-38.252-9.509c-26.209-2.235-57.74,1.861-94.545,12.21
							l-16.111,1.077c-0.46-0.533-12.574-20.618-36.323-60.169c-23.286-38.772-35.468-58.377-36.459-58.896L276.458-160.085z"/>
					</g>
				</g>
			</g>
		</g>
	</g>
</g>
<g id="_x30_" display="none">
</g>
<g id="guide" display="none">
</g>
</svg>
