<?xml version="1.0" encoding="utf-8"?>
<!-- Generator: Adobe Illustrator 16.2.1, SVG Export Plug-In . SVG Version: 6.00 Build 0)  -->
<!DOCTYPE svg PUBLIC "-//W3C//DTD SVG 1.1//EN" "http://www.w3.org/Graphics/SVG/1.1/DTD/svg11.dtd">
<svg version="1.1" xmlns="http://www.w3.org/2000/svg" xmlns:xlink="http://www.w3.org/1999/xlink" x="0px" y="0px"
	 width="267.026px" height="368.766px" viewBox="0 0 267.026 368.766" enable-background="new 0 0 267.026 368.766"
	 xml:space="preserve">
<g id="base">
</g>
<g id="book3">
</g>
<g id="_x38_" display="none">
</g>
<g id="_x37_" display="none">
</g>
<g id="_x36_" display="none">
</g>
<g id="_x35_" display="none">
</g>
<g id="_x34_" display="none">
</g>
<g id="_x33_" display="none">
</g>
<g id="_x32_" display="none">
</g>
<g id="_x31_" display="none">
</g>
<g id="_x30_">
	<ellipse fill="#D6DEDB" cx="142.354" cy="318.693" rx="85" ry="21.5"/>
	<g>
		<g>
			<path fill="#EDDC00" d="M136.562,237.659c0.935-2.124,0.977-4.8,0.139-8.029c-0.888-3.396-2.573-6.493-5.066-9.266
				c-2.872-3.171-6.37-5.389-10.495-6.648c-4.827-1.474-10.204-1.529-16.131-0.188c-1.146-2.002-3.797-4.361-7.965-7.112
				c-4.438-2.929-9.119-5.258-14.048-6.993c-5.72-2.023-10.709-2.799-14.985-2.318c-5.058,0.549-8.688,2.831-10.893,6.84
				c-3.09,5.608-1.296,11.482,5.382,17.623c2.438,2.235,5.209,4.188,8.299,5.869c2.77,1.491,4.876,2.313,6.335,2.443
				c-2.959,4.239-3.2,8.596-0.725,13.049c2.143,3.886,5.912,7.226,11.299,10.007c5.152,2.684,10.188,4.084,15.12,4.205
				c5.313,0.148,8.913-1.318,10.808-4.404c-0.391,2.806,0.845,5.262,3.723,7.37c2.691,1.98,6.031,3.142,10.014,3.461
				c4.191,0.351,7.803-0.37,10.844-2.174c3.505-2.056,5.58-5.236,6.228-9.541c0.23-1.528-1.071-3.994-3.91-7.412
				c-2.863-3.417-4.193-5.818-3.98-7.199L136.562,237.659z"/>
		</g>
		<g>
			<path fill="#F1B800" d="M129.383,265.618c-0.705,0-1.433-0.032-2.175-0.093c-4.313-0.347-8.021-1.635-11.014-3.836
				c-2.111-1.548-3.316-3.189-3.955-4.751c-2.359,1.55-5.506,2.273-9.469,2.166c-5.202-0.129-10.577-1.615-15.972-4.427
				c-5.706-2.946-9.783-6.58-12.112-10.8c-2.357-4.243-2.541-8.6-0.567-12.735c-1.214-0.441-2.615-1.095-4.255-1.978
				c-3.239-1.762-6.165-3.831-8.695-6.15c-7.401-6.804-9.344-13.54-5.776-20.019c2.523-4.585,6.694-7.226,12.404-7.848
				c4.52-0.509,9.869,0.305,15.855,2.42c5.055,1.781,9.925,4.204,14.472,7.205c3.696,2.44,6.253,4.597,7.768,6.558
				c5.753-1.115,11.064-0.947,15.82,0.507c4.446,1.355,8.274,3.779,11.379,7.206c2.692,2.996,4.544,6.389,5.51,10.09
				c0.886,3.415,0.876,6.373-0.032,8.804c0.2,0.654,0.917,2.192,3.471,5.24c3.339,4.022,4.677,6.787,4.348,8.969
				c-0.737,4.901-3.154,8.581-7.176,10.942C136.384,264.767,133.075,265.618,129.383,265.618z M116.878,243.694l-1.298,9.312
				c-0.182,1.308-0.074,3.305,2.94,5.513c2.397,1.765,5.425,2.802,9.006,3.087c3.795,0.317,7.018-0.32,9.685-1.903
				c3-1.76,4.728-4.421,5.289-8.145c0.021-0.145,0.108-1.538-3.48-5.864c-0.979-1.17-1.795-2.232-2.441-3.197l-1.755,3.984
				l-0.218-8.342c-0.058-0.424-0.056-0.823,0-1.198l0.382,0.023l-0.225-0.099c0.746-1.691,0.756-3.96,0.034-6.742
				c-0.803-3.086-2.359-5.928-4.624-8.444c-2.617-2.889-5.851-4.938-9.607-6.083c-4.465-1.364-9.546-1.415-15.126-0.154l-1.416,0.32
				l-0.723-1.259c-0.673-1.175-2.49-3.247-7.341-6.447c-4.279-2.827-8.862-5.106-13.616-6.781
				c-5.414-1.915-10.164-2.661-14.115-2.221c-4.427,0.483-7.497,2.393-9.39,5.835c-2.618,4.753-0.986,9.735,4.99,15.229
				c2.292,2.1,4.955,3.983,7.909,5.592c3.148,1.695,4.767,2.137,5.566,2.207l3.384,0.301l-1.943,2.782
				c-2.516,3.607-2.719,7.195-0.62,10.973c1.948,3.528,5.477,6.628,10.484,9.216c4.863,2.533,9.66,3.871,14.267,3.984
				c0.233,0.007,0.457,0.01,0.675,0.01c4.225,0,6.973-1.137,8.409-3.474L116.878,243.694z"/>
		</g>
		<g>
			<path fill="#FCDF00" d="M136.562,237.659c0.935-2.124,0.977-4.8,0.139-8.029c-0.888-3.396-2.573-6.493-5.066-9.266
				c-2.872-3.171-6.37-5.389-10.495-6.648c-4.827-1.474-10.204-1.529-16.131-0.188c-1.146-2.002-3.797-4.361-7.965-7.112
				c-4.438-2.929-9.119-5.258-14.048-6.993c-5.72-2.023-10.709-2.799-14.985-2.318c-5.058,0.549-8.688,2.831-10.893,6.84
				c-3.09,5.608-1.296,11.482,5.382,17.623c2.438,2.235,5.209,4.188,8.299,5.869c2.77,1.491,4.876,2.313,6.335,2.443
				c-2.959,4.239-3.2,8.596-0.725,13.049c2.143,3.886,5.912,7.226,11.299,10.007c5.152,2.684,10.188,4.084,15.12,4.205
				c5.313,0.148,8.913-1.318,10.808-4.404c-0.391,2.806,0.845,5.262,3.723,7.37c2.691,1.98,6.031,3.142,10.014,3.461
				c4.191,0.351,7.803-0.37,10.844-2.174c3.505-2.056,5.58-5.236,6.228-9.541c0.23-1.528-1.071-3.994-3.91-7.412
				c-2.863-3.417-4.193-5.818-3.98-7.199L136.562,237.659z"/>
		</g>
		<g>
			<path fill="#E32126" d="M134.927,247.074c0.131-0.359,0.265-0.719,0.412-1.052c-4.822-0.852-9.644-1.678-14.485-2.507
				c-0.147,0.334-0.294,0.667-0.441,1.016c-2.065,4.584-3.914,9.579-5.534,14.991c-0.064-0.025-0.132-0.035-0.197-0.035
				c-1.068-0.149-2.109,0.19-3.144,1.024h-0.014v0.015c-0.882,0.725-1.48,1.675-1.782,2.827c-0.212,1.163-0.062,2.205,0.481,3.134
				c0.612,1.059,1.459,1.646,2.551,1.755h0.016c0.104-0.004,0.198,0.01,0.263,0.032c-0.01,0.064-0.008,0.117-0.02,0.181
				c-0.097,0.268-0.179,0.546-0.247,0.849c-0.118,0.518-0.217,1.046-0.305,1.562c0.002,0.014,0.002,0.014,0.014,0.025
				c-0.046,0.226-0.09,0.438-0.124,0.658c-0.029,0.252-0.035,0.517-0.014,0.766c0.02,0.194,0,0.366-0.073,0.54
				c-0.041-0.024-0.08-0.051-0.12-0.088c0,0.039,0,0.064,0.003,0.106c-0.944,0.04-1.758,0.478-2.438,1.311l-0.015,0.002v0.015
				c-0.667,0.821-0.974,1.83-0.909,3.023c0.065,0.876,0.33,1.67,0.783,2.377l2.56-0.087c-0.055-0.061-0.108-0.114-0.151-0.162
				c-0.121-0.089-0.227-0.192-0.336-0.318v-0.014c-0.451-0.481-0.706-1.051-0.741-1.722c-0.021-0.277-0.003-0.525,0.043-0.776
				c0.201-0.649,0.55-1.199,1.049-1.637c0.647-0.572,1.398-0.885,2.253-0.939c0.011-0.002,0.038-0.002,0.065-0.002
				c0.009-0.066,0.009-0.106,0.009-0.144c0.048-0.106,0.1-0.215,0.135-0.335c-0.258-0.531-0.33-1.171-0.234-1.895
				c0.118-0.846,0.3-1.666,0.551-2.475c0.108-0.318,0.238-0.597,0.43-0.828c0.032-0.251,0.063-0.487,0.096-0.736
				c-0.015,0-0.055,0-0.093,0.001c-0.857-0.064-1.629-0.405-2.291-1.028c-0.61-0.568-0.976-1.28-1.121-2.116
				c0.004-0.247,0.022-0.501,0.04-0.748c0.093-0.396,0.24-0.732,0.427-1.012c0.217-0.229,0.444-0.461,0.673-0.667
				c0.332-0.313,0.72-0.548,1.147-0.708c0.883-0.317,1.745-0.463,2.585-0.426c0.012-0.028,0.012-0.037,0.022-0.037
				c1.492-5.371,3.248-10.311,5.28-14.854c3.524,0.617,7.023,1.225,10.498,1.834c-1.844,4.668-3.367,9.526-4.579,14.552
				c0,0.014,0,0.014,0.002,0.027c0.617,0.413,1.096,0.987,1.445,1.727c0.16,0.374,0.241,0.79,0.241,1.238
				c-0.051,0.881-0.366,1.678-0.935,2.394c-0.469,0.555-1.055,0.979-1.742,1.265c-0.028,0.002-0.053,0.002-0.079,0.02
				c-0.028-0.015-0.053-0.028-0.08-0.041c-0.014,0.015-0.022,0.027-0.036,0.042c-0.117,0.106-0.205,0.229-0.293,0.366
				c-0.187,0.279-0.333,0.601-0.414,0.971c-0.173,0.728-0.266,1.464-0.307,2.229c-0.024,0.487,0.017,0.943,0.112,1.399
				c-0.015,0.016-0.015,0.016-0.011,0.029c0,0.104,0.004,0.211,0.007,0.313l0.002,0.039h0.015c0.065,0.012,0.157,0.008,0.25,0.016
				c0.871,0.17,1.585,0.646,2.133,1.428c0.438,0.604,0.673,1.267,0.696,2.015c-0.022,0.093-0.032,0.224-0.015,0.379
				c-0.016,0.278-0.059,0.542-0.116,0.792l2.203-0.072c0.028-0.326,0.043-0.685,0.017-1.05c-0.106-1.191-0.531-2.229-1.271-3.108
				c-0.503-0.603-1.083-1.017-1.707-1.246c0-0.014,0-0.014-0.002-0.024c-0.036-0.012-0.064-0.038-0.094-0.063
				c-0.014-0.011-0.014-0.026-0.029-0.037c-0.015-0.105-0.019-0.211-0.02-0.303c-0.034-0.141-0.038-0.3-0.03-0.471
				c0.037-0.474,0.101-0.936,0.203-1.371c0.129-0.543,0.365-0.973,0.707-1.298c0-0.015,0-0.027,0-0.041
				c0.426-0.185,0.826-0.447,1.221-0.8c0.828-0.75,1.373-1.712,1.613-2.889c0.236-1.15,0.096-2.197-0.393-3.126
				c-0.293-0.515-0.646-0.912-1.049-1.188C131.435,256.787,133.021,251.847,134.927,247.074"/>
		</g>
		<g>
			<path fill="#E32126" d="M81.711,289.902c-4.178,1.487-7.354,3.496-9.516,6.008c-2.203,2.528-3.116,5.146-2.75,7.854v0.01
				c0.315,2.775,1.931,5.175,4.845,7.219h0.013c2.972,2.084,6.994,3.487,12.099,4.215h0.016c12.069,1.703,27.694-0.622,46.85-6.974
				c0.826-0.078,1.103-2.098,0.842-6.056v-0.013c-0.259-3.432-0.78-6.552-1.598-9.363c0,0,0.015,0,0.029-0.014
				c-0.059-0.141-0.103-0.27-0.121-0.389c0.271-0.219,0.515-0.476,0.726-0.772c-0.012-0.012-0.002-0.024,0.012-0.012
				c0.525-0.846,0.688-1.848,0.492-3.024c-0.261-1.159-0.806-2.166-1.647-3.017c-0.487-0.444-0.97-0.771-1.45-1.005
				c-0.33-0.041-0.587-0.243-0.796-0.617c-0.224-0.413-0.407-0.839-0.567-1.268c-0.073-0.194-0.092-0.39-0.071-0.562
				c-0.014-0.077-0.031-0.156-0.048-0.249c0.414-0.21,0.785-0.525,1.112-0.954c-0.016-0.014,0-0.028,0.013-0.014
				c0.43-0.581,0.693-1.258,0.788-2.01l-2.203,0.072c-0.155,0.516-0.415,0.974-0.782,1.381c-0.037,0.038-0.086,0.094-0.141,0.133
				l-1.044,0.653c-0.029,1.433,0.313,2.733,1.051,3.932c0.04,0.062,0.079,0.114,0.148,0.178l0.612,0.283
				c0.335,0.157,0.711,0.383,1.112,0.67c0.415,0.289,0.744,0.567,0.948,0.821c0.42,0.435,0.695,0.951,0.812,1.562
				c0,0.017,0,0.017,0,0.028c-0.013,0,0,0.013,0.014,0.037c-0.013,0.028,0.004,0.066,0.031,0.131
				c0.015,0.039,0.017,0.105,0.032,0.17c0.039,0.746-0.124,1.435-0.484,2.064c-0.236,0.375-0.543,0.686-0.926,0.923
				c0.011,0.026,0.011,0.049,0.011,0.064c0.107,0.434,0.242,0.859,0.375,1.316v0.009h0.014c0.906,2.849,1.448,5.718,1.606,8.627
				c0.163,2.911,0.313,4.337,0.444,4.294c-18.766,6.217-34.079,8.521-45.91,6.874c-0.832-0.118-1.624-0.259-2.39-0.406
				c-0.201-0.138-0.403-0.275-0.581-0.439c-1.351-1.152-2.135-2.661-2.355-4.545c-0.215-1.819,0.16-3.539,1.119-5.184
				c1.007-1.728,2.488-2.971,4.448-3.718c-2.887,0.501-5.055,1.728-6.474,3.679c-1.294,1.737-1.742,3.669-1.358,5.795
				c0.24,1.37,0.777,2.521,1.6,3.479c-2.019-0.653-3.753-1.491-5.216-2.507c-2.354-1.64-3.676-3.556-3.971-5.766
				c-0.256-2.13,0.491-4.201,2.249-6.216c1.975-2.258,4.856-4.06,8.646-5.418c8.474-3.021,18.967-3.301,31.485-0.811
				c0.28,0.215,0.566,0.444,0.847,0.668c0.146,0.021,0.266,0.046,0.372,0.066c0.013-0.012,0.038-0.012,0.052-0.002
				c-0.254-0.121-0.482-0.324-0.718-0.619c-0.027-0.025-0.056-0.053-0.066-0.076c-0.287-0.396-0.515-0.862-0.688-1.394
				c-0.118-0.379-0.184-0.757-0.207-1.125c-0.022-0.3-0.008-0.604,0.036-0.892c0.118-0.754,0.492-1.319,1.126-1.691
				c0.242-0.153,0.488-0.294,0.748-0.394l1.21-0.344c-0.019-0.089-0.044-0.165-0.085-0.23c-0.717-1.344-1.194-2.747-1.413-4.221
				l-0.802-0.066c-0.531-0.1-1.064-0.359-1.616-0.748c-0.201-0.153-0.393-0.316-0.554-0.479l-2.556,0.083
				c0.152,0.242,0.345,0.487,0.548,0.715c0.01-0.012,0.027,0,0.013,0.013c0.886,0.983,1.887,1.461,3.002,1.465
				c0.033,0.172,0.091,0.338,0.189,0.52c0.014,0.053,0.028,0.104,0.045,0.154c0.116,0.404,0.247,0.793,0.392,1.183
				c0.087,0.223,0.187,0.413,0.294,0.597c-0.917,0.08-1.636,0.538-2.173,1.358h-0.016l0.018,0.012
				c-0.541,0.806-0.707,1.755-0.525,2.85C99.695,286.502,89.81,286.973,81.711,289.902"/>
		</g>
		<g>
			<path fill="#E17C9E" d="M114.096,261.253c-0.428,0.16-0.815,0.395-1.147,0.708c-0.229,0.206-0.456,0.438-0.673,0.667
				c-0.187,0.28-0.334,0.616-0.427,1.012c-0.018,0.247-0.036,0.498-0.04,0.748c0.146,0.836,0.511,1.544,1.121,2.116
				c0.662,0.623,1.434,0.964,2.291,1.028c0.038-0.001,0.078-0.001,0.09-0.001c0.04-0.015,0.066-0.017,0.082-0.004
				c3.796,0.491,7.567,0.972,11.326,1.466c0.014-0.015,0.022-0.027,0.036-0.042c0.027,0.015,0.052,0.027,0.08,0.041
				c0.026-0.018,0.051-0.018,0.079-0.018c0.688-0.285,1.273-0.712,1.742-1.267c0.568-0.716,0.884-1.511,0.935-2.394
				c0-0.446-0.081-0.864-0.241-1.238c-0.35-0.739-0.828-1.313-1.445-1.727c-0.002-0.014-0.002-0.014-0.002-0.023
				c-3.72-0.499-7.463-0.992-11.222-1.498C115.841,260.79,114.979,260.936,114.096,261.253"/>
		</g>
		<g>
			<path fill="#E76500" d="M115.393,267.527c-0.016-0.013-0.042-0.011-0.081,0.002c-0.03,0.251-0.063,0.487-0.094,0.738
				c-0.191,0.231-0.323,0.51-0.431,0.828c-0.252,0.809-0.432,1.629-0.55,2.475c-0.095,0.724-0.022,1.363,0.234,1.895
				c-0.035,0.12-0.087,0.229-0.137,0.335c0.002,0.037,0.004,0.077-0.009,0.144c0.053-0.015,0.081-0.005,0.094,0.008
				c0.024,0.016,0.054,0.016,0.078,0.027c3.784,0.096,7.558,0.209,11.315,0.322c-0.003-0.103-0.007-0.209-0.011-0.313
				c0-0.014,0-0.014,0.015-0.029c-0.096-0.456-0.137-0.912-0.115-1.399c0.044-0.765,0.137-1.501,0.31-2.229
				c0.081-0.37,0.228-0.691,0.414-0.971c0.088-0.137,0.176-0.26,0.293-0.366C122.96,268.499,119.187,268.019,115.393,267.527"/>
		</g>
		<g>
			<path fill="#E76500" d="M116.705,260.79c-0.013,0-0.013,0.009-0.024,0.038c3.759,0.506,7.502,0.999,11.222,1.494
				c1.212-5.025,2.735-9.884,4.579-14.552c-3.475-0.607-6.976-1.217-10.498-1.834C119.952,250.479,118.195,255.419,116.705,260.79"
				/>
		</g>
		<g>
			<path fill="#E17C9E" d="M125.817,274.34l-0.004-0.038c-3.758-0.114-7.531-0.226-11.313-0.326
				c-0.026-0.011-0.056-0.011-0.08-0.024c-0.013-0.013-0.04-0.022-0.094-0.008c-0.025,0-0.053,0-0.063,0.002
				c-0.854,0.052-1.605,0.367-2.253,0.939c-0.499,0.438-0.852,0.988-1.049,1.637c-0.046,0.249-0.067,0.501-0.042,0.776
				c0.034,0.669,0.291,1.238,0.739,1.722v0.014c0.11,0.126,0.218,0.229,0.337,0.315c0.205,0.244,0.438,0.459,0.705,0.647
				c0.552,0.39,1.085,0.648,1.616,0.748l0.802,0.066l2.613,0.068c2.813,0.067,5.625,0.147,8.423,0.238l0.657,0.019l1.044-0.653
				c0.055-0.039,0.1-0.095,0.139-0.133c0.544-0.598,0.851-1.316,0.9-2.171c-0.016-0.157-0.008-0.288,0.016-0.381
				c-0.024-0.748-0.258-1.409-0.697-2.015c-0.548-0.778-1.26-1.258-2.136-1.424c-0.088-0.014-0.184-0.008-0.249-0.02H125.817z"/>
		</g>
		<g>
			<path fill="#E17C9E" d="M115.406,285.605c-0.26,0.1-0.506,0.24-0.748,0.394c-0.634,0.373-1.008,0.938-1.126,1.691
				c-0.043,0.288-0.06,0.592-0.037,0.892c0.024,0.368,0.09,0.746,0.208,1.125c0.174,0.531,0.401,0.997,0.688,1.394
				c0.011,0.026,0.039,0.053,0.066,0.076c0.235,0.295,0.466,0.498,0.718,0.619c-0.014-0.01-0.039-0.01-0.052,0.002
				c0.066,0.011,0.116,0.021,0.187,0.059c0.093,0.026,0.195,0.048,0.303,0.069c0.026-0.014,0.053,0,0.08,0.01
				c0.119,0.011,0.235,0.009,0.355,0.016c0.171,0.009,0.354,0.002,0.535,0.012c4.557-0.008,9.075-0.022,13.575-0.028
				c0.387-0.233,0.693-0.547,0.93-0.92c0.36-0.632,0.52-1.321,0.484-2.068c-0.016-0.064-0.018-0.129-0.03-0.168
				c-0.031-0.065-0.046-0.103-0.033-0.131c-0.014-0.024-0.026-0.037-0.014-0.037c0-0.014,0-0.014-0.004-0.028
				c-0.109-0.611-0.387-1.128-0.809-1.562c-0.204-0.254-0.529-0.532-0.948-0.819c-0.401-0.289-0.777-0.515-1.108-0.674l-0.615-0.281
				l-1.498-0.006c-2.703-0.003-5.408,0.009-8.124,0.02l-1.773,0.003L115.406,285.605z"/>
		</g>
		<g>
			<path fill="#E76500" d="M115.311,291.856c-0.068-0.035-0.12-0.048-0.187-0.059c-0.106-0.021-0.224-0.046-0.371-0.066
				c-0.281-0.224-0.567-0.453-0.85-0.668c-12.514-2.49-23.01-2.214-31.483,0.811c-3.787,1.358-6.671,3.16-8.646,5.418
				c-1.758,2.015-2.503,4.086-2.251,6.219c0.297,2.207,1.619,4.121,3.973,5.763c1.463,1.016,3.197,1.853,5.216,2.508
				c-0.822-0.958-1.357-2.109-1.6-3.479c-0.384-2.126,0.064-4.058,1.358-5.795c1.419-1.949,3.587-3.178,6.474-3.678
				c-1.96,0.748-3.443,1.989-4.448,3.717c-0.959,1.645-1.334,3.364-1.119,5.184c0.221,1.884,1.005,3.393,2.355,4.545
				c0.178,0.164,0.38,0.302,0.581,0.439c0.768,0.145,1.558,0.292,2.39,0.408c11.831,1.645,27.145-0.659,45.91-6.876
				c-0.129,0.043-0.281-1.383-0.44-4.291c-0.164-2.912-0.704-5.783-1.61-8.628h-0.012v-0.011c-0.137-0.457-0.268-0.888-0.373-1.316
				c0-0.016-0.004-0.038-0.015-0.064c-4.504,0.005-9.019,0.02-13.579,0.026c-0.182-0.009-0.364-0.002-0.535-0.009
				c-0.12-0.009-0.236-0.005-0.355-0.014c-0.027-0.014-0.054-0.027-0.082-0.014C115.508,291.904,115.403,291.883,115.311,291.856z"
				/>
		</g>
		<g>
			<path fill="#E76500" d="M116.616,285.262l1.773-0.003c2.716-0.011,5.421-0.022,8.124-0.02l1.497,0.006
				c-0.069-0.065-0.108-0.115-0.148-0.18c-0.737-1.196-1.08-2.497-1.051-3.932l-0.657-0.017c-2.798-0.093-5.609-0.171-8.419-0.236
				l-2.617-0.07c0.221,1.474,0.696,2.877,1.413,4.221C116.572,285.097,116.598,285.173,116.616,285.262"/>
		</g>
		<g>
			<path fill="#E32126" d="M140.754,257.232c-0.172-0.338-0.348-0.675-0.535-0.986c4.654-1.433,9.312-2.835,13.993-4.244
				c0.185,0.311,0.371,0.623,0.556,0.946c2.604,4.27,5.037,8.976,7.297,14.116c0.065-0.03,0.128-0.051,0.192-0.056
				c1.036-0.276,2.104-0.073,3.229,0.623h0.011l0.002,0.012c0.96,0.609,1.667,1.476,2.107,2.577c0.353,1.118,0.327,2.169-0.093,3.15
				c-0.475,1.119-1.241,1.803-2.305,2.045l-0.013,0.002c-0.103,0.009-0.194,0.029-0.257,0.062c0.019,0.062,0.023,0.114,0.041,0.18
				c0.13,0.249,0.248,0.516,0.349,0.809c0.179,0.492,0.341,1.003,0.489,1.501c0.004,0.012,0.004,0.012-0.008,0.027
				c0.072,0.215,0.142,0.418,0.201,0.638c0.062,0.241,0.097,0.499,0.107,0.749c0.007,0.194,0.046,0.359,0.139,0.523
				c0.039-0.027,0.074-0.057,0.109-0.102c0.004,0.041,0.009,0.067,0.011,0.104c0.935-0.072,1.792,0.258,2.568,1l0.014-0.003v0.014
				c0.761,0.729,1.186,1.687,1.271,2.871c0.052,1.177-0.258,2.252-0.939,3.219c-0.016-0.012-0.028,0.004-0.014,0.016
				c-0.755,1.077-1.682,1.672-2.783,1.809c0,0.157-0.035,0.334-0.113,0.51l-2.064,0.187c0.074-0.463,0.112-0.939,0.118-1.423
				l0.785-0.163c0.508-0.165,1.003-0.483,1.5-0.939c0.245-0.216,0.444-0.456,0.615-0.724c0.11-0.101,0.204-0.213,0.294-0.353v-0.015
				c0.386-0.53,0.569-1.122,0.521-1.788c-0.012-0.275-0.062-0.518-0.135-0.76c-0.279-0.619-0.69-1.115-1.236-1.486
				c-0.711-0.487-1.491-0.707-2.339-0.654c-0.011,0.001-0.04,0.006-0.065,0.006c-0.021-0.064-0.023-0.103-0.025-0.142
				c-0.063-0.1-0.122-0.198-0.174-0.311c0.186-0.555,0.183-1.196,0-1.9c-0.22-0.818-0.501-1.605-0.846-2.375
				c-0.146-0.301-0.31-0.562-0.527-0.765c-0.061-0.244-0.125-0.474-0.185-0.716c0.014-0.002,0.052-0.005,0.092-0.009
				c0.837-0.167,1.56-0.603,2.136-1.295c0.53-0.641,0.808-1.383,0.846-2.228c-0.035-0.245-0.081-0.489-0.131-0.733
				c-0.139-0.382-0.326-0.692-0.544-0.947c-0.239-0.201-0.496-0.398-0.747-0.574c-0.368-0.268-0.777-0.452-1.218-0.558
				c-0.909-0.204-1.779-0.244-2.603-0.104c-0.016-0.025-0.018-0.036-0.032-0.034c-2.128-5.116-4.465-9.779-7.024-14.015
				c-3.403,1.042-6.783,2.07-10.137,3.095c2.39,4.383,4.484,8.988,6.296,13.806c0.004,0.013,0.004,0.013,0.004,0.025
				c-0.558,0.481-0.959,1.108-1.218,1.88c-0.109,0.39-0.136,0.813-0.082,1.251c0.158,0.864,0.564,1.614,1.212,2.251
				c0.53,0.487,1.166,0.835,1.879,1.034c0.024-0.002,0.05-0.007,0.078,0.007c0.027-0.015,0.05-0.032,0.074-0.047
				c0.014,0.012,0.028,0.023,0.041,0.033c0.128,0.095,0.23,0.202,0.332,0.324c0.22,0.257,0.405,0.553,0.529,0.909
				c0.257,0.697,0.441,1.415,0.574,2.162c0.085,0.478,0.101,0.938,0.063,1.397c0.009,0.011,0.009,0.011,0.013,0.025
				c0.011,0.104,0.023,0.206,0.031,0.312l0.001,0.039l-0.009,0.002c-0.068,0.019-0.159,0.027-0.247,0.048
				c-0.839,0.273-1.485,0.829-1.934,1.668c-0.359,0.65-0.509,1.332-0.441,2.07c0.035,0.091,0.061,0.219,0.061,0.377
				c0.157,0.835,0.545,1.511,1.154,2.03c0.044,0.036,0.101,0.086,0.155,0.116l1.108,0.519c0.035,0.23,0.058,0.465,0.063,0.7
				l-2.416,0.22c-0.344-0.166-0.68-0.397-0.998-0.721c0.013-0.015-0.002-0.029-0.013-0.014c-0.713-0.762-1.101-1.735-1.171-2.919
				c-0.042-1.191,0.253-2.267,0.873-3.226c0.427-0.653,0.947-1.134,1.535-1.439c-0.002-0.009-0.002-0.009-0.002-0.024
				c0.039-0.018,0.062-0.043,0.083-0.072c0.014-0.016,0.014-0.029,0.023-0.042c0.006-0.104-0.003-0.209-0.016-0.3
				c0.016-0.144,0-0.299-0.026-0.467c-0.094-0.465-0.215-0.912-0.369-1.331c-0.194-0.52-0.479-0.914-0.855-1.192
				c-0.002-0.016-0.004-0.029-0.004-0.039c-0.445-0.134-0.869-0.342-1.305-0.645c-0.908-0.639-1.565-1.521-1.945-2.653
				c-0.373-1.106-0.365-2.155,0.006-3.132c0.227-0.545,0.525-0.979,0.89-1.301c-1.898-4.872-4.065-9.551-6.526-14.031H140.754z"/>
		</g>
		<g>
			<path fill="#E32126" d="M198.811,298.377c3.889,1.68,6.812,3.878,8.776,6.594c1.992,2.742,2.77,5.555,2.337,8.438l0.001,0.013
				c-0.373,2.957-1.976,5.498-4.799,7.616h-0.01c-2.859,2.162-6.702,3.572-11.544,4.233l-0.01,0.003
				c-11.429,1.574-26.086-1.211-43.941-8.381c-0.228-0.033-0.416-0.251-0.546-0.659c-0.02,0.043-0.046,0.085-0.078,0.125
				c-0.322-0.954-0.55-2.569-0.691-4.838v-0.014c-0.05-0.978-0.069-1.922-0.073-2.85c0.011-2.334,0.178-4.522,0.502-6.584
				c0,0-0.014,0-0.029-0.015c0.038-0.143,0.064-0.279,0.07-0.396c-0.072-0.045-0.141-0.092-0.209-0.138
				c-0.214-0.151-0.413-0.33-0.602-0.535c0.015-0.015-0.003-0.028-0.012-0.011c-0.619-0.772-0.906-1.741-0.855-2.924
				c0.114-1.179,0.529-2.239,1.255-3.183c0.428-0.499,0.867-0.878,1.311-1.168c0.319-0.079,0.547-0.31,0.709-0.703
				c0.169-0.438,0.3-0.881,0.405-1.322c0.046-0.203,0.042-0.397,0-0.563c0.009-0.079,0.014-0.159,0.018-0.25
				c-0.068-0.034-0.151-0.053-0.217-0.088l2.416-0.218c0.067,1.148-0.134,2.253-0.615,3.305c-0.035,0.07-0.066,0.125-0.128,0.197
				l-0.57,0.353c-0.312,0.199-0.651,0.466-1.015,0.798c-0.376,0.337-0.661,0.652-0.835,0.927c-0.364,0.479-0.574,1.024-0.609,1.643
				c0.002,0.013,0.002,0.013,0.002,0.027c0.011-0.001,0,0.013-0.009,0.041c0.016,0.023,0.007,0.066-0.015,0.131
				c-0.007,0.042-0.005,0.105-0.009,0.172c0.053,0.741,0.295,1.4,0.727,1.976c0.281,0.343,0.622,0.615,1.032,0.801
				c-0.013,0.024-0.011,0.052-0.007,0.065c-0.009,0.065-0.028,0.145-0.035,0.213c-0.046,0.358-0.104,0.742-0.172,1.13v0.012h-0.013
				c-0.309,1.641-0.505,3.271-0.577,4.903c-0.055,1.276-0.029,2.545,0.045,3.81c0.082,1.185,0.128,2.137,0.152,2.828
				c0.06-0.07,0.119-0.141,0.178-0.21c-0.023,0.182-0.034,0.343-0.062,0.476c-0.052,0.438-0.111,0.642-0.168,0.617
				c17.506,7.037,31.87,9.793,43.081,8.286c0.779-0.107,1.526-0.239,2.254-0.4c0.201-0.133,0.382-0.296,0.565-0.457
				c1.309-1.189,2.093-2.796,2.354-4.799c0.271-1.927-0.029-3.786-0.886-5.554c-0.888-1.872-2.256-3.215-4.074-4.062
				c2.714,0.596,4.709,1.947,5.99,4.069c1.152,1.875,1.525,3.952,1.087,6.206c-0.273,1.453-0.806,2.669-1.617,3.671
				c1.933-0.661,3.598-1.505,5.008-2.564c2.269-1.7,3.581-3.718,3.93-6.069c0.307-2.269-0.328-4.505-1.928-6.68
				c-1.798-2.446-4.453-4.431-7.972-5.958c-6.082-2.604-13.344-3.507-21.788-2.676l-10.971,1.43l-0.095-0.057
				c0.416-0.169,0.746-0.423,1.004-0.771c0.082-0.101,0.151-0.212,0.223-0.312c0.101-0.177,0.186-0.382,0.259-0.6l0.011-0.012
				c0.069-0.244,0.14-0.497,0.194-0.752c0.069-0.389,0.089-0.77,0.066-1.134c-0.002-0.196-0.034-0.39-0.077-0.583
				c-0.024-0.102-0.049-0.204-0.065-0.294c-0.214-0.73-0.651-1.239-1.323-1.531c-0.258-0.119-0.516-0.23-0.784-0.297l-1.235-0.189
				c0.005-0.093,0.022-0.171,0.057-0.243c0.368-0.962,0.623-1.928,0.758-2.911l2.064-0.188c-0.01,0.014-0.01,0.014-0.01,0.027
				c-0.006,0.052-0.014,0.107-0.022,0.159c-0.07,0.415-0.15,0.814-0.246,1.218c-0.056,0.226-0.129,0.429-0.215,0.619
				c0.911-0.029,1.676,0.334,2.311,1.075h0.011l-0.011,0.013c0.277,0.331,0.496,0.702,0.64,1.123
				c0.083,0.215,0.145,0.43,0.178,0.665c0.044,0.624,0.009,1.243-0.134,1.846c-0.035,0.162-0.075,0.321-0.125,0.496
				c0.346-0.096,0.795-0.175,1.379-0.241c0.582-0.093,1.14-0.17,1.659-0.255c0.511-0.086,0.913-0.148,1.198-0.19l0.001,0.015
				C183.152,294.479,191.755,295.296,198.811,298.377"/>
		</g>
		<g>
			<path fill="#E17C9E" d="M163.051,268.68c0.44,0.105,0.85,0.29,1.218,0.558c0.252,0.174,0.508,0.373,0.747,0.574
				c0.218,0.257,0.405,0.567,0.546,0.947c0.048,0.244,0.094,0.49,0.129,0.733c-0.038,0.845-0.315,1.587-0.846,2.228
				c-0.578,0.692-1.299,1.128-2.136,1.295c-0.04,0-0.078,0.006-0.092,0.009c-0.04-0.01-0.064-0.009-0.077,0.006
				c-3.688,0.951-7.351,1.886-11.001,2.832c-0.013-0.01-0.027-0.021-0.039-0.033c-0.026,0.015-0.049,0.029-0.076,0.047
				c-0.028-0.014-0.056-0.009-0.078-0.007c-0.713-0.199-1.349-0.547-1.879-1.034c-0.647-0.637-1.054-1.387-1.212-2.251
				c-0.054-0.438-0.027-0.861,0.082-1.251c0.259-0.771,0.66-1.397,1.218-1.88c0-0.013,0-0.013-0.004-0.025
				c3.611-0.946,7.249-1.89,10.897-2.852C161.271,268.436,162.142,268.475,163.051,268.68"/>
		</g>
		<g>
			<path fill="#E76500" d="M162.54,275.029c0.013-0.016,0.037-0.016,0.077-0.006c0.06,0.242,0.124,0.472,0.185,0.716
				c0.218,0.202,0.381,0.464,0.527,0.766c0.345,0.767,0.626,1.556,0.846,2.374c0.183,0.704,0.187,1.344,0,1.9
				c0.052,0.112,0.11,0.211,0.174,0.309c0.002,0.041,0.005,0.079,0.025,0.144c-0.054-0.008-0.077,0.006-0.091,0.022
				c-0.021,0.015-0.049,0.017-0.072,0.031c-3.725,0.562-7.434,1.133-11.129,1.706c-0.008-0.105-0.021-0.207-0.029-0.312
				c-0.002-0.012-0.002-0.012-0.015-0.025c0.037-0.46,0.021-0.92-0.063-1.397c-0.133-0.747-0.317-1.465-0.574-2.162
				c-0.124-0.356-0.31-0.652-0.529-0.909c-0.102-0.122-0.204-0.229-0.332-0.324C155.189,276.915,158.852,275.98,162.54,275.029"/>
		</g>
		<g>
			<path fill="#E76500" d="M160.416,268.539c0.015,0,0.017,0.011,0.032,0.036c-3.649,0.958-7.287,1.905-10.894,2.852
				c-1.812-4.815-3.91-9.423-6.3-13.806c3.354-1.024,6.735-2.053,10.137-3.094C155.953,258.761,158.288,263.426,160.416,268.539"/>
		</g>
		<g>
			<path fill="#E17C9E" d="M153.083,283.03l-0.001-0.037c3.695-0.573,7.404-1.146,11.127-1.706c0.023-0.017,0.051-0.02,0.074-0.032
				c0.012-0.018,0.037-0.031,0.091-0.023c0.025,0,0.053-0.005,0.065-0.006c0.848-0.05,1.63,0.165,2.339,0.654
				c0.546,0.367,0.957,0.869,1.235,1.486c0.074,0.243,0.124,0.486,0.138,0.76c0.044,0.666-0.138,1.258-0.522,1.789v0.014
				c-0.089,0.14-0.185,0.252-0.291,0.355c-0.174,0.265-0.373,0.506-0.618,0.721c-0.497,0.452-0.992,0.774-1.5,0.939l-0.785,0.161
				l-2.571,0.392c-2.768,0.408-5.535,0.831-8.287,1.264l-0.646,0.1l-1.11-0.517c-0.053-0.035-0.109-0.082-0.153-0.118
				c-0.609-0.52-1.001-1.195-1.152-2.03c-0.002-0.158-0.027-0.286-0.062-0.377c-0.065-0.74,0.082-1.422,0.441-2.07
				c0.45-0.839,1.093-1.396,1.932-1.668c0.091-0.021,0.181-0.031,0.245-0.048L153.083,283.03z"/>
		</g>
		<g>
			<path fill="#E17C9E" d="M164.737,292.875c0.269,0.066,0.526,0.177,0.784,0.297c0.672,0.292,1.109,0.801,1.323,1.529
				c0.017,0.092,0.041,0.194,0.065,0.296c0.043,0.193,0.075,0.387,0.077,0.585c0.022,0.362,0.003,0.743-0.066,1.132
				c-0.055,0.256-0.125,0.508-0.194,0.752l-0.013,0.012c-0.071,0.218-0.156,0.423-0.259,0.603c-0.069,0.097-0.139,0.208-0.221,0.309
				c-0.258,0.349-0.588,0.603-1.004,0.771l-1.423,0.196c-1.141,0.141-2.283,0.272-3.423,0.413c-3.164,0.382-6.314,0.772-9.438,1.16
				c-0.406-0.186-0.749-0.458-1.028-0.801c-0.432-0.575-0.676-1.234-0.727-1.976c0.004-0.068,0.002-0.13,0.009-0.172
				c0.021-0.064,0.03-0.107,0.015-0.131c0.009-0.028,0.02-0.042,0.009-0.041c0-0.015,0-0.015-0.002-0.024
				c0.037-0.621,0.245-1.165,0.609-1.646c0.174-0.274,0.459-0.59,0.835-0.927c0.363-0.332,0.702-0.599,1.015-0.798l0.57-0.354
				l1.478-0.188c2.669-0.333,5.339-0.65,8.021-0.976l1.752-0.21L164.737,292.875z"/>
		</g>
		<g>
			<path fill="#E76500" d="M165.23,299.16l0.095,0.057l10.972-1.43c8.441-0.831,15.707,0.071,21.787,2.676
				c3.519,1.527,6.176,3.512,7.972,5.958c1.6,2.175,2.234,4.411,1.93,6.68c-0.351,2.352-1.662,4.369-3.932,6.069
				c-1.41,1.06-3.075,1.903-5.008,2.564c0.812-1.002,1.344-2.218,1.618-3.671c0.438-2.254,0.064-4.331-1.088-6.204
				c-1.281-2.124-3.276-3.476-5.992-4.071c1.82,0.847,3.188,2.189,4.078,4.062c0.854,1.768,1.154,3.627,0.884,5.554
				c-0.265,2.003-1.046,3.609-2.354,4.799c-0.184,0.161-0.364,0.324-0.562,0.457c-0.73,0.161-1.481,0.293-2.256,0.4
				c-11.213,1.507-25.577-1.249-43.083-8.286c0.057,0.024,0.115-0.179,0.168-0.617c0.026-0.133,0.039-0.294,0.061-0.476
				c-0.057,0.069-0.116,0.14-0.176,0.21c-0.024-0.691-0.07-1.644-0.152-2.828c-0.074-1.265-0.1-2.533-0.045-3.81
				c0.072-1.633,0.269-3.263,0.577-4.903h0.013v-0.014c0.068-0.386,0.126-0.77,0.173-1.128c0.007-0.068,0.025-0.147,0.03-0.213
				c0-0.014-0.002-0.041,0.011-0.065c3.12-0.388,6.271-0.78,9.435-1.16c1.14-0.143,2.282-0.272,3.419-0.413L165.23,299.16z"/>
		</g>
		<g>
			<path fill="#E76500" d="M163.502,292.687l-1.752,0.21c-2.684,0.322-5.353,0.643-8.021,0.976l-1.478,0.188
				c0.058-0.07,0.093-0.125,0.128-0.195c0.578-1.271,0.76-2.598,0.552-4.005l0.646-0.1c2.752-0.433,5.52-0.855,8.287-1.264
				l2.571-0.39c-0.035,1.484-0.337,2.928-0.875,4.337C163.524,292.515,163.507,292.593,163.502,292.687"/>
		</g>
		<g>
			<polygon fill="#E32126" points="170.951,295.652 170.939,295.655 170.949,295.64 			"/>
		</g>
		<g>
			<path fill="#F1B800" d="M129.466,156.63c0.094,0.095,0.19,0.182,0.289,0.267c4.708,4.377,9.731,8.504,15.093,12.365l-0.016-0.01
				c1.514,1.1,3.136,2.016,4.886,2.761c3.151,1.348,6.423,2.178,9.825,2.472h0.02c0.329,0.029,0.66,0.05,0.994,0.079
				c0.017,0,0.034,0.008,0.055,0.008c0.523,0.028,1.027,0.048,1.513,0.066h0.021c3.248,0.087,6.227-0.241,8.944-0.986l-0.018-0.011
				c1.268-0.344,2.645-0.555,4.119-0.641c2.87-0.183,5.918,0.055,9.131,0.732c2.123,0.449,4.256,1.021,6.368,1.701
				c0.019,0.009,0.032,0.02,0.054,0.02c9.236,2.729,16.264,7.792,21.084,15.181c0.227,0.345,0.446,0.689,0.671,1.032
				c0.065,0.105,0.122,0.221,0.19,0.325c0.008,0.019,0.008,0.019,0.026,0.028c2.431,4.071,2.979,8.116,1.691,12.13
				c-1.229,3.777-3.847,7.038-7.852,9.801c-0.407,0.277-0.827,0.544-1.242,0.804h-0.022c-1.685,1.11-3.604,1.97-5.765,2.581H199.5
				c-6.631,1.915-14.264,1.306-22.912-1.827h0.023c-9.607-3.581-18.441-8.864-26.521-15.86
				c-8.359-7.244-15.276-14.945-20.771-23.146c-0.017-0.008-0.017-0.008-0.014-0.019c-2.6-3.754-4.536-6.967-5.806-9.644
				l-0.491-1.042l-0.019-0.036l-2.486-0.096l0.511,1.08c1.306,2.792,3.33,6.146,6.046,10.062l-0.008-0.018
				c5.675,8.467,12.837,16.443,21.466,23.919l-0.015-0.011c8.494,7.378,17.823,12.948,27.976,16.73l0.016,0.01
				c9.356,3.39,17.605,4.047,24.764,1.981c2.321-0.66,4.385-1.58,6.195-2.745c0.001-0.012,0.001-0.012,0.009-0.021
				c0.434-0.259,0.864-0.533,1.279-0.832c4.24-2.907,7.004-6.366,8.291-10.384c1.446-4.489,0.785-9.021-1.963-13.571
				c-0.1-0.152-0.19-0.287-0.261-0.421l-0.011-0.019c-0.224-0.345-0.445-0.691-0.669-1.032
				c-5.374-8.258-13.229-13.913-23.545-16.959l0.053,0.019c-2.254-0.727-4.525-1.328-6.773-1.814l-0.005,0.008
				c-3.522-0.733-6.851-1.01-9.968-0.811c-1.616,0.108-3.122,0.347-4.536,0.72c-2.505,0.69-5.259,0.997-8.251,0.921
				c-0.008,0.01-0.008,0.01-0.022,0c-0.461-0.018-0.927-0.038-1.384-0.067h-0.062c-0.333-0.027-0.657-0.056-0.985-0.087l0.017,0.012
				c-2.979-0.248-5.857-0.975-8.615-2.159c-1.426-0.601-2.739-1.346-3.953-2.227l0.003-0.008c-5.314-3.833-10.299-7.92-14.94-12.261
				l-1.032-0.962l-1.711,0.937L129.466,156.63z"/>
		</g>
		<g>
			<path fill="#FCDF00" d="M123.009,165.797l0.491,1.042c1.27,2.676,3.206,5.89,5.809,9.644c-0.006,0.011-0.006,0.011,0.009,0.019
				c5.496,8.201,12.411,15.902,20.772,23.146c8.08,6.996,16.914,12.277,26.521,15.86h-0.023c8.646,3.133,16.281,3.742,22.916,1.827
				h0.022c2.16-0.611,4.08-1.471,5.765-2.581h0.022c0.415-0.26,0.835-0.526,1.24-0.807c4.004-2.76,6.625-6.021,7.854-9.798
				c1.287-4.014,0.735-8.059-1.691-12.13c-0.019-0.01-0.019-0.01-0.028-0.028c-0.064-0.104-0.125-0.22-0.188-0.325
				c-0.225-0.343-0.447-0.688-0.671-1.032c-4.82-7.389-11.85-12.452-21.088-15.181c-0.018,0-0.033-0.011-0.05-0.02
				c-2.112-0.68-4.248-1.252-6.368-1.701c-3.213-0.678-6.261-0.915-9.129-0.732c-1.477,0.086-2.854,0.297-4.121,0.641l0.018,0.011
				c-2.718,0.745-5.696,1.072-8.944,0.986h-0.022c-0.484-0.019-0.989-0.038-1.512-0.066c-0.022,0-0.038-0.008-0.058-0.008
				c-0.327-0.029-0.662-0.05-0.991-0.079h-0.02c-3.402-0.294-6.672-1.124-9.825-2.472c-1.746-0.745-3.372-1.661-4.882-2.761
				l0.015,0.01c-5.364-3.861-10.388-7.988-15.094-12.365L123.009,165.797z"/>
		</g>
		<g>
			<path fill="#FCDF00" d="M111.65,156.893c-0.032-0.638-0.538-0.638-1.508-0.004c-7.752,4.989-15.926,7.611-24.517,7.862
				c-3.327,0.097-7.2-0.23-11.646-0.965c-0.149-0.035-0.315-0.062-0.465-0.094c-4.695-1.042-8.735-3.284-12.14-6.72
				c-3.507-3.552-5.798-5.719-6.874-6.5c-2.657-1.929-5.028-3.339-7.124-4.231c-5.169-2.188-10.296-1.799-15.37,1.169
				c-4.142,2.429-6.872,5.76-8.203,9.991c-1.22,3.822-1.176,7.906,0.132,12.277c1.262,4.216,3.648,8.012,7.139,11.396
				c3.491,3.383,7.902,6.176,13.242,8.402c5.334,2.216,12.081,2.97,20.252,2.251c8.166-0.724,14.876-2.583,20.129-5.606
				c5.254-3.022,10.356-7.136,15.296-12.362c4.941-5.229,8.415-9.75,10.441-13.567C111.294,158.623,111.695,157.534,111.65,156.893z
				"/>
		</g>
		<g>
			<path fill="#F1B800" d="M58.841,193.028c-5.759,0-10.78-0.871-14.924-2.593c-5.445-2.271-10.009-5.17-13.563-8.615
				c-3.614-3.5-6.106-7.483-7.414-11.843c-1.359-4.55-1.402-8.887-0.125-12.891c1.405-4.466,4.322-8.023,8.669-10.572
				c5.336-3.119,10.856-3.534,16.3-1.229c2.176,0.929,4.574,2.35,7.329,4.35c1.111,0.805,3.404,2.968,7.003,6.607
				c3.249,3.28,7.16,5.444,11.622,6.436l0.466,0.093c3.833,0.635,7.312,0.959,10.281,0.961h0.002c0.377,0,0.747-0.007,1.109-0.017
				c8.36-0.245,16.428-2.836,23.989-7.699c0.669-0.441,1.188-0.639,1.665-0.639c0.677,0,1.386,0.452,1.436,1.466
				c0.062,0.849-0.353,2.042-1.341,3.848c-2.061,3.885-5.629,8.523-10.596,13.779c-4.964,5.253-10.19,9.475-15.533,12.553
				c-5.341,3.072-12.257,5.001-20.555,5.74C62.646,192.939,60.688,193.028,58.841,193.028z M40.821,145.886
				c-2.755,0-5.542,0.814-8.291,2.421c-3.888,2.277-6.489,5.444-7.736,9.406c-1.149,3.604-1.104,7.527,0.136,11.669
				c1.204,4.015,3.513,7.696,6.867,10.947c3.369,3.265,7.715,6.019,12.917,8.191c5.157,2.14,11.81,2.873,19.766,2.175
				c7.995-0.712,14.624-2.555,19.7-5.474c5.167-2.976,10.236-7.071,15.061-12.177c4.839-5.122,8.295-9.609,10.276-13.339
				c0.412-0.751,0.67-1.307,0.832-1.717c-7.78,4.925-16.084,7.549-24.692,7.799c-0.383,0.013-0.774,0.018-1.17,0.018h-0.002
				c-3.082,0-6.674-0.334-10.674-0.998l-0.52-0.101c-4.859-1.08-9.118-3.436-12.651-7.005c-3.47-3.511-5.738-5.66-6.747-6.388
				c-2.59-1.88-4.917-3.264-6.922-4.118C44.916,146.328,42.85,145.886,40.821,145.886z"/>
		</g>
		<g>
			<path fill="#FCDF00" d="M215.902,195.231c-4.773,1.369-7.482,3.235-8.125,5.563c-1.073,3.843,0.412,7.639,4.441,11.371
				c1.093,1.021,2.827,2.494,5.211,4.405c2.009,1.711,3.414,3.195,4.211,4.459c1.674,2.631,2.631,4.066,2.864,4.308
				c1.416,1.369,2.787,1.078,4.104-0.894c0.815-1.216,0.939-3.063,0.354-5.534c-0.316-1.323-0.978-3.18-1.956-5.561
				c1.381,0.178,3.481,0.531,6.276,1.069c2.443,0.251,4.493-0.212,6.147-1.385c1.741-1.633,1.29-3.762-1.369-6.401
				c-2.325-2.3-5.012-3.972-8.051-5.025c1.224,0.247,2.992-0.264,5.295-1.512c2.39-1.261,3.729-2.498,4.026-3.716
				c0.657-2.651-1.158-4.041-5.45-4.158c-2.964-0.062-6.199,0.368-9.697,1.312C221.14,193.983,218.375,194.553,215.902,195.231"/>
		</g>
		<g>
			<path fill="#F1B800" d="M226.232,227.218c-0.843,0-1.664-0.385-2.446-1.139c-0.162-0.165-0.456-0.467-3.019-4.494
				c-0.733-1.166-2.084-2.587-4.011-4.229c-2.326-1.866-4.1-3.366-5.244-4.435c-4.316-4.001-5.911-8.176-4.731-12.403
				c0.756-2.735,3.647-4.791,8.834-6.28c2.541-0.695,5.369-1.275,8.422-1.728c3.206-0.873,6.365-1.328,9.267-1.328l0.6,0.007
				c2.984,0.082,4.909,0.749,5.894,2.043c0.692,0.907,0.873,2.049,0.538,3.395c-0.374,1.533-1.861,2.967-4.548,4.382
				c-0.79,0.429-1.521,0.773-2.199,1.039c1.896,1.015,3.638,2.304,5.199,3.851c1.846,1.833,2.733,3.472,2.711,5.012
				c-0.015,1.075-0.475,2.043-1.36,2.878l-0.107,0.089c-1.859,1.315-4.159,1.845-6.851,1.571c-1.814-0.347-3.328-0.618-4.548-0.814
				c0.653,1.686,1.092,3.017,1.338,4.036c0.648,2.748,0.481,4.883-0.501,6.347C228.494,226.478,227.403,227.218,226.232,227.218z
				 M233.304,193.249c-2.721,0-5.698,0.433-8.849,1.281c-3.088,0.463-5.832,1.026-8.282,1.695c-4.303,1.238-6.865,2.913-7.402,4.847
				c-0.968,3.472,0.392,6.852,4.152,10.337c1.106,1.037,2.842,2.501,5.153,4.356c2.137,1.82,3.581,3.356,4.436,4.711
				c2.208,3.471,2.656,4.053,2.741,4.149c0.233,0.221,0.622,0.524,0.979,0.524c0.426,0,0.965-0.456,1.517-1.28
				c0.652-0.972,0.719-2.557,0.208-4.72c-0.294-1.234-0.918-3.003-1.906-5.406l-0.677-1.643l1.765,0.224
				c1.442,0.184,3.575,0.549,6.342,1.08c0.3,0.027,0.678,0.049,1.05,0.049c1.671,0,3.062-0.4,4.242-1.221
				c0.437-0.426,0.653-0.868,0.66-1.353c0.012-0.923-0.714-2.137-2.1-3.516c-2.192-2.171-4.771-3.779-7.659-4.781l0.543-1.988
				c0.99,0.201,2.543-0.294,4.599-1.41c2.767-1.456,3.388-2.537,3.515-3.051c0.266-1.072-0.068-1.509-0.177-1.651
				c-0.394-0.516-1.459-1.151-4.3-1.229L233.304,193.249z"/>
		</g>
		<g>
			<path fill="#EDDC00" d="M98.848,155.999c0.49-2.405,2.729-4.104,6.751-5.087c3.891-0.956,9.102-1.164,15.62-0.608
				c1.861,0.165,3.979,1.389,6.346,3.702c2.149,2.087,4.859,5.416,8.14,10.013c4.167,5.841,12.829,18.653,25.976,38.423
				c5.646,8.218,8.901,16.078,9.748,23.573c0.777,6.796-0.416,13.052-3.602,18.749c-2.916,5.223-7.274,9.661-13.086,13.301
				c-5.485,3.453-11.688,5.884-18.622,7.276c-6.897,1.371-13.651,1.555-20.252,0.561c-6.942-1.022-12.941-3.257-17.981-6.688
				c-5.504-3.716-9.425-8.576-11.792-14.579c-2.603-6.622-3.153-14.317-1.663-23.087c3.292-19.372,6.435-34.87,9.431-46.507
				C96.438,166.16,98.096,159.817,98.848,155.999"/>
		</g>
		<g>
			<path fill="#F1B800" d="M124.294,269.548c-2.971,0-5.956-0.224-8.876-0.663c-7.357-1.082-13.831-3.5-19.229-7.175
				c-5.972-4.032-10.317-9.407-12.902-15.965c-2.792-7.105-3.409-15.414-1.833-24.701c3.297-19.373,6.484-35.104,9.485-46.754
				c2.558-8.826,4.215-15.146,4.949-18.873c0.746-3.663,3.767-6.157,8.991-7.435c4.218-1.038,9.783-1.267,16.597-0.686
				c2.625,0.23,5.303,1.719,8.198,4.551c2.293,2.226,5.075,5.637,8.489,10.417c4.219,5.92,12.976,18.875,26.029,38.505
				c5.885,8.563,9.337,16.956,10.235,24.906c0.847,7.418-0.486,14.337-3.967,20.563c-3.162,5.656-7.91,10.496-14.121,14.383
				c-5.777,3.638-12.386,6.222-19.63,7.676C132.547,269.13,128.37,269.548,124.294,269.548z M114.602,153.017
				c-3.268,0-6.053,0.278-8.282,0.827c-1.556,0.381-4.205,1.244-4.513,2.758c-0.764,3.883-2.463,10.374-5.048,19.282
				c-2.935,11.4-6.09,26.964-9.354,46.171c-1.391,8.186-0.887,15.412,1.499,21.48c2.157,5.477,5.648,9.787,10.671,13.18
				c4.65,3.164,10.276,5.248,16.733,6.2c6.265,0.946,12.711,0.762,19.218-0.537c6.518-1.306,12.442-3.617,17.606-6.868
				c5.347-3.349,9.399-7.454,12.059-12.216c2.896-5.172,3.95-10.713,3.239-16.937c-0.788-6.959-3.894-14.431-9.236-22.206
				c-13.043-19.616-21.767-32.517-25.944-38.381c-3.154-4.418-5.774-7.647-7.786-9.598c-2.412-2.358-3.86-2.805-4.51-2.863
				C118.679,153.116,116.54,153.017,114.602,153.017z"/>
		</g>
		<g>
			<path fill="#FCDF00" d="M98.848,155.999c0.49-2.405,2.729-4.104,6.751-5.087c3.891-0.956,9.102-1.164,15.62-0.608
				c1.861,0.165,3.979,1.389,6.346,3.702c2.149,2.087,4.859,5.416,8.14,10.013c4.167,5.841,12.829,18.653,25.976,38.423
				c5.646,8.218,8.901,16.078,9.748,23.573c0.777,6.796-0.416,13.052-3.602,18.749c-2.916,5.223-7.274,9.661-13.086,13.301
				c-5.485,3.453-11.688,5.884-18.622,7.276c-6.897,1.371-13.651,1.555-20.252,0.561c-6.942-1.022-12.941-3.257-17.981-6.688
				c-5.504-3.716-9.425-8.576-11.792-14.579c-2.603-6.622-3.153-14.317-1.663-23.087c3.292-19.372,6.435-34.87,9.431-46.507
				C96.438,166.16,98.096,159.817,98.848,155.999"/>
		</g>
		<g>
			<path fill="#F1B800" d="M75.906,50.404c-6.799,4.723-12.352,10.453-16.625,17.184c-4.438,6.984-7.2,14.529-8.277,22.674
				c-2.522,19.061,1.936,34.846,13.377,47.38c5.261,5.738,11.738,10.427,19.458,14.096c2.453,1.153,4.988,2.186,7.62,3.101
				l-0.846,1.916c-2.644-0.916-5.205-1.967-7.671-3.135l-0.014-0.003c-7.966-3.777-14.658-8.641-20.075-14.571
				c-11.885-12.963-16.533-29.324-13.92-49.061c1.113-8.448,3.971-16.289,8.575-23.525c4.425-6.962,10.157-12.879,17.204-17.781
				c7.019-4.877,14.784-8.326,23.309-10.373c8.812-2.113,17.801-2.57,26.977-1.357c9.175,1.215,17.723,3.99,25.654,8.318
				c7.702,4.189,14.317,9.542,19.822,16.078c5.532,6.564,9.534,13.77,11.98,21.637c2.565,8.188,3.295,16.5,2.179,24.953
				c-2.793,21.105-11.598,36.124-26.423,45.053c-8.326,5.114-18.112,8.034-29.366,8.771c0.396-0.698,0.703-1.424,0.92-2.155
				c10.448-0.846,19.573-3.64,27.367-8.39c14.257-8.651,22.736-23.172,25.429-43.554c1.078-8.14,0.373-16.147-2.1-24.045
				c-2.375-7.608-6.248-14.587-11.599-20.917c-5.338-6.342-11.732-11.546-19.203-15.601c-7.712-4.208-16.019-6.899-24.934-8.079
				c-8.92-1.178-17.654-0.74-26.224,1.312C90.25,42.307,82.708,45.668,75.906,50.404"/>
		</g>
		<g>
			<path fill="#FCDF00" d="M59.281,67.588c4.275-6.73,9.826-12.461,16.625-17.184c6.804-4.736,14.344-8.098,22.6-10.074
				c8.565-2.053,17.3-2.49,26.218-1.312c8.915,1.18,17.224,3.871,24.936,8.079c7.471,4.055,13.865,9.259,19.203,15.601
				c5.351,6.33,9.224,13.309,11.599,20.917c2.472,7.897,3.178,15.905,2.1,24.045c-2.694,20.382-11.172,34.902-25.431,43.554
				c-7.792,4.75-16.917,7.544-27.365,8.39c-6.452,0.5-13.427,0.264-20.896-0.725c-6.17-0.813-11.971-2.161-17.41-4.04
				c-2.632-0.915-5.167-1.947-7.62-3.104c-7.72-3.666-14.197-8.354-19.458-14.093c-11.441-12.534-15.899-28.319-13.377-47.38
				C52.081,82.117,54.844,74.572,59.281,67.588"/>
		</g>
		<g>
			<path fill="#F1B800" d="M90.613,156.755l0.846-1.916c5.439,1.877,11.239,3.223,17.412,4.039
				c7.467,0.99,14.441,1.226,20.894,0.724c-0.217,0.734-0.523,1.458-0.916,2.156c-6.284,0.417-13.043,0.146-20.249-0.811
				C102.218,160.105,96.228,158.707,90.613,156.755"/>
		</g>
		<g>
			<path fill="#E17C9E" d="M149.209,90.272c-3.179-3.356-6.77-5.858-10.801-7.536c-3.905-1.638-7.776-2.334-11.604-2.062
				c1.892-0.868,3.842-1.48,5.873-1.804c2.92-0.472,5.803-0.365,8.646,0.326c2.847,0.681,5.456,1.881,7.846,3.619
				c3.796,2.768,6.451,6.37,7.968,10.823c1.478,4.357,1.62,8.748,0.421,13.17c-0.458-2.916-1.385-5.779-2.763-8.58
				C153.371,95.34,151.512,92.683,149.209,90.272"/>
		</g>
		<g>
			<path fill="#0077BE" d="M138.408,82.736c4.031,1.678,7.624,4.18,10.801,7.536c2.303,2.413,4.162,5.069,5.587,7.956
				c1.377,2.801,2.305,5.664,2.763,8.579c-0.764,2.653-1.894,5.045-3.423,7.16l-1.265,1.597c0.342-3.483-0.155-7.012-1.472-10.598
				c-1.352-3.721-3.445-7.091-6.302-10.103c-3.821-4.048-8.23-6.751-13.229-8.095c-4.877-1.33-9.348-1.094-13.416,0.699
				c2.255-3.006,5.042-5.271,8.353-6.795C130.632,80.402,134.503,81.099,138.408,82.736"/>
		</g>
		<g>
			<path fill="#FFFFFF" d="M118.452,87.469c4.068-1.793,8.539-2.029,13.416-0.699c5.001,1.344,9.41,4.047,13.229,8.096
				c2.855,3.011,4.95,6.381,6.305,10.102c1.313,3.586,1.809,7.114,1.469,10.597c-1.724,1.973-3.699,3.581-5.962,4.85
				c-2.274,1.266-4.704,2.103-7.284,2.512c-2.918,0.468-5.803,0.364-8.622-0.324c-2.847-0.678-5.462-1.894-7.864-3.647
				c-4.949-3.604-7.904-8.445-8.876-14.525c-0.974-6.092,0.339-11.635,3.933-16.624L118.452,87.469z"/>
		</g>
		<g>
			<path fill="#E17C9E" d="M87.759,82.16c3.94-2.414,8.06-3.896,12.39-4.471c4.193-0.562,8.116-0.229,11.741,1.026
				c-1.601-1.331-3.325-2.427-5.202-3.269c-2.699-1.213-5.51-1.862-8.438-1.934c-2.924-0.083-5.751,0.4-8.512,1.456
				c-4.385,1.687-7.887,4.473-10.511,8.38c-2.561,3.821-3.84,8.025-3.827,12.61c1.2-2.698,2.837-5.222,4.896-7.569
				C82.422,85.973,84.91,83.893,87.759,82.16"/>
		</g>
		<g>
			<path fill="#0077BE" d="M100.148,77.689c-4.33,0.574-8.449,2.055-12.39,4.471c-2.85,1.73-5.337,3.812-7.458,6.23
				c-2.063,2.348-3.7,4.87-4.9,7.569c0.044,2.757,0.517,5.36,1.444,7.8l0.804,1.871c0.576-3.451,1.972-6.731,4.175-9.85
				c2.273-3.241,5.17-5.951,8.71-8.119c4.744-2.914,9.703-4.377,14.879-4.377c5.062-0.017,9.312,1.375,12.777,4.166
				c-1.394-3.49-3.5-6.403-6.3-8.735C108.265,77.46,104.342,77.127,100.148,77.689"/>
		</g>
		<g>
			<path fill="#FFFFFF" d="M118.189,87.45c-3.465-2.79-7.716-4.182-12.777-4.165c-5.176,0-10.135,1.463-14.879,4.377
				c-3.536,2.166-6.437,4.878-8.71,8.119c-2.203,3.118-3.599,6.396-4.171,9.85c1.148,2.353,2.639,4.419,4.493,6.23
				c1.868,1.814,3.993,3.254,6.381,4.32c2.696,1.212,5.509,1.86,8.409,1.93c2.925,0.083,5.77-0.408,8.545-1.479
				c5.714-2.192,9.824-6.1,12.348-11.719c2.521-5.631,2.693-11.322,0.52-17.076L118.189,87.45z"/>
		</g>
		<g>
			<path fill="#1B1616" d="M133.945,99.321c1.258,1.642,1.751,3.483,1.483,5.517c-0.271,2.058-1.227,3.695-2.867,4.94
				c-1.641,1.259-3.482,1.751-5.518,1.481c-2.054-0.272-3.691-1.226-4.938-2.863c-1.261-1.629-1.757-3.46-1.484-5.518
				c0.27-2.031,1.229-3.682,2.869-4.941c1.627-1.258,3.454-1.754,5.514-1.48C131.037,96.725,132.687,97.68,133.945,99.321"/>
		</g>
		<g>
			<path fill="#1B1616" d="M100.066,94.834c-1.641,1.259-2.596,2.91-2.865,4.941c-0.273,2.058,0.223,3.887,1.483,5.515
				c1.257,1.642,2.907,2.597,4.942,2.866c2.055,0.273,3.885-0.223,5.514-1.482c1.642-1.244,2.592-2.884,2.869-4.941
				c0.266-2.031-0.229-3.873-1.486-5.516c-1.247-1.641-2.883-2.592-4.942-2.865C103.551,93.084,101.708,93.576,100.066,94.834"/>
		</g>
		<g>
			<path fill="#FCDF00" d="M89.948,140.835c-1.051-1.908-1.657-3.924-1.834-6.03c-0.388-4.865,1.067-7.788,4.366-8.778
				c1.103-0.334,2.498-0.451,4.17-0.38c0.924,0.024,2.074,0.109,3.463,0.237c2.544,0.074,6.554,0.824,12.039,2.223
				c0.211,0.056,0.412,0.11,0.618,0.162c0.206,0.002,0.416,0.002,0.636,0.003c5.659,0.075,9.726,0.395,12.204,0.983
				c1.376,0.237,2.507,0.454,3.401,0.669c1.635,0.367,2.955,0.843,3.93,1.452c2.926,1.813,3.575,5.012,1.932,9.612
				c-0.718,1.989-1.827,3.776-3.337,5.344c-0.863,0.919-2.188,2.141-3.957,3.705c-1.936,1.938-5.175,5.722-9.69,11.367
				c-4.105,4.519-7.498,6.429-10.168,5.706c-0.023-0.006-0.05-0.007-0.088-0.024c-0.04,0.006-0.064,0.004-0.091,0.001
				c-2.766,0.004-5.546-2.723-8.333-8.153c-2.892-6.624-5.035-11.119-6.401-13.493C91.503,143.47,90.545,141.944,89.948,140.835"/>
		</g>
		<g>
			<path fill="#F1B800" d="M108.862,168.321L108.862,168.321c-0.468,0-0.929-0.058-1.37-0.173c-0.018-0.001-0.039-0.003-0.058-0.005
				c-0.002,0-0.003,0-0.009,0c-3.119,0-6.149-2.855-9.161-8.726c-2.858-6.539-4.994-11.045-6.375-13.448
				c-1.398-2.109-2.298-3.555-2.876-4.628c-1.109-2.017-1.77-4.187-1.957-6.447c-0.431-5.409,1.294-8.733,5.119-9.885
				c1.196-0.364,2.685-0.506,4.518-0.427c0.889,0.026,2.01,0.104,3.521,0.244c2.53,0.071,6.544,0.811,12.199,2.25l0.494,0.132h0.505
				c5.84,0.08,9.905,0.41,12.442,1.013c1.424,0.242,2.526,0.46,3.407,0.669c1.792,0.405,3.184,0.924,4.24,1.584
				c3.396,2.105,4.195,5.763,2.373,10.87c-0.773,2.142-1.977,4.065-3.574,5.726c-0.832,0.883-2.111,2.08-4.018,3.763
				c-1.896,1.897-5.221,5.798-9.563,11.234C114.882,166.293,111.672,168.321,108.862,168.321z M108.05,166.101
				c0.309,0.069,0.558,0.1,0.812,0.1c2.146,0,4.92-1.855,8.242-5.512c4.413-5.522,7.699-9.376,9.724-11.402
				c1.904-1.684,3.14-2.84,3.938-3.682c1.395-1.449,2.439-3.123,3.11-4.977c1.461-4.091,0.97-6.823-1.494-8.35
				c-0.842-0.527-2.053-0.969-3.602-1.32c-0.839-0.197-1.93-0.412-3.351-0.656c-2.414-0.571-6.442-0.892-12.038-0.968l-0.906-0.039
				l-0.596-0.159c-5.428-1.385-9.398-2.12-11.807-2.19c-1.528-0.141-2.604-0.216-3.462-0.24c-1.636-0.064-2.879,0.046-3.833,0.336
				c-2.776,0.837-3.961,3.349-3.618,7.681c0.165,1.956,0.741,3.843,1.709,5.604c0.545,1.01,1.438,2.447,2.813,4.531
				c1.458,2.524,3.63,7.1,6.488,13.652c2.518,4.896,5.069,7.517,7.353,7.517l0.332-0.058L108.05,166.101z"/>
		</g>
		<g>
			<path fill="#D7272A" d="M108.719,160.991c-2.443-0.323-4.406-2.049-5.894-5.182c-1.49-3.133-3.788-9.815-6.895-20.035
				l15.612,1.913l15.548,2.207c-5.659,9.062-9.668,14.936-12.045,17.626C112.855,159.987,110.746,161.149,108.719,160.991"/>
		</g>
		<g>
			<path fill="#E17C9E" d="M107.906,144.824c-0.445-3.64-0.519-6.132-0.237-7.466l8.454,1.116c-0.174,1.31-1.041,3.636-2.615,6.981
				c-1.64,3.419-2.671,5.176-3.099,5.271C109.233,150.941,108.401,148.966,107.906,144.824"/>
		</g>
		<g>
			<path fill="#FCDF00" d="M87.643,133.496c-2.093-1.396-2.838-3.746-2.23-7.036c0.632-3.287,2.238-5.379,4.83-6.262
				c1.311-0.446,3.996-1.224,8.058-2.358c3.75-1.176,6.462-2.37,8.112-3.613c2.605-1.962,5.446-2.836,8.534-2.598
				c0.092,0.012,0.17,0.021,0.244,0.031c0.042,0.005,0.066,0.008,0.093,0.011l-0.002,0.014c3.045,0.562,5.563,2.134,7.566,4.716
				c1.27,1.629,3.58,3.487,6.896,5.601c3.627,2.151,6.015,3.6,7.164,4.369c2.272,1.524,3.282,3.964,3.037,7.302
				c-0.269,3.335-1.595,5.412-3.982,6.217c-1.255,0.412-3.066,0.499-5.46,0.276c-1.418-0.134-3.871-0.392-7.351-0.762
				c-1.266,0.098-3.249,0.545-5.946,1.347c-2.001,0.592-4.036,0.73-6.114,0.43c-1.909-0.214-3.768-0.88-5.561-1.973
				c-2.397-1.478-4.196-2.425-5.392-2.846c-3.454-0.55-5.894-0.938-7.295-1.178C90.475,134.779,88.742,134.221,87.643,133.496"/>
		</g>
		<g>
			<path fill="#F1B800" d="M113.195,142.378c-0.74,0-1.5-0.056-2.254-0.164c-2.009-0.226-4.024-0.937-5.954-2.115
				c-2.267-1.396-3.984-2.31-5.108-2.724l-0.312-0.047c-3.243-0.519-5.551-0.884-6.898-1.113c-2.544-0.438-4.378-1.04-5.602-1.847
				c-2.468-1.648-3.371-4.37-2.68-8.099c0.708-3.682,2.565-6.055,5.519-7.061c1.244-0.423,3.743-1.155,8.111-2.375
				c3.625-1.137,6.249-2.299,7.767-3.443c2.811-2.114,5.923-3.055,9.242-2.805l1.372,0.188l-0.004,0.087
				c2.885,0.739,5.33,2.384,7.277,4.897c1.165,1.495,3.399,3.3,6.634,5.363c3.942,2.337,6.101,3.652,7.187,4.384
				c2.591,1.738,3.768,4.514,3.494,8.244c-0.309,3.786-1.884,6.182-4.688,7.128c-1.407,0.465-3.318,0.567-5.892,0.329
				c-1.407-0.136-3.835-0.39-7.269-0.755c-1.197,0.107-3.092,0.545-5.637,1.301C116.094,142.168,114.646,142.378,113.195,142.378z
				 M113.966,112.633c-2.458,0-4.788,0.817-6.926,2.426c-1.734,1.307-4.491,2.542-8.427,3.777c-4.361,1.219-6.829,1.94-8.035,2.351
				c-2.222,0.756-3.575,2.547-4.139,5.471c-0.53,2.862,0.054,4.817,1.78,5.97c0.96,0.634,2.578,1.148,4.8,1.528
				c1.345,0.229,3.641,0.595,6.873,1.108l0.594,0.111c1.279,0.453,3.108,1.415,5.592,2.943c1.665,1.015,3.393,1.63,5.13,1.824
				c2.022,0.291,3.864,0.147,5.702-0.394c2.787-0.829,4.802-1.283,6.161-1.388l0.095-0.006l0.094,0.01
				c3.476,0.367,5.929,0.625,7.343,0.762c2.238,0.207,3.941,0.129,5.034-0.231c1.961-0.661,3.033-2.398,3.268-5.308
				c0.217-2.961-0.625-5.04-2.578-6.35c-1.052-0.708-3.178-2.006-7.114-4.341c-3.517-2.236-5.856-4.147-7.188-5.858
				c-1.856-2.394-4.125-3.81-6.932-4.328l-0.295-0.051C114.562,112.645,114.264,112.633,113.966,112.633z"/>
		</g>
		<g>
			<path fill="#F1B800" d="M115.729,27.001c-1.565-0.495-3.304-0.489-5.204,0.011c2.517,0.807,4.501,3.717,5.958,8.729
				c0.298,1.039,0.729,1.965,1.28,2.762c-0.168-0.021-0.335-0.043-0.506-0.054c-1.147-0.098-2.134-0.097-2.975-0.012
				c-0.214-0.487-0.406-1.001-0.572-1.536c-0.037-0.109-0.076-0.222-0.1-0.329c-1.641-5.142-4.043-8.396-7.22-9.751
				c4.34-2.468,7.853-3.229,10.546-2.279c2.71,0.912,4.787,3.029,6.246,6.344l-0.006,0.039c0.2,0.566,0.38,1.104,0.553,1.586
				c0.214-0.51,0.477-1.003,0.765-1.504c2.627-4.71,3.347-8.684,2.157-11.924c4.745,1.459,7.702,3.494,8.871,6.088
				c1.104,2.422,1.084,5.158-0.058,8.208c0.92-0.181,1.894-0.263,2.915-0.233c5.382,0.04,9.199-1.246,11.45-3.843
				c1.007,4.845,0.667,8.407-1.045,10.696c-0.383,0.516-0.812,0.975-1.277,1.387c-1.277,1.107-2.893,1.881-4.848,2.309
				c-1.139-0.322-3.293-0.791-6.439-1.393l0.004-0.025l-3.146-0.416c0.641-0.247,1.391-0.449,2.255-0.6
				c0.872-0.135,2.688-0.223,5.446-0.265c2.708-0.078,4.719-1.048,6.034-2.917c0.951-1.322,1.472-2.966,1.573-4.926
				c-1.532,2.127-4.891,3.133-10.087,2.984c-2.702-0.081-4.914,0.812-6.646,2.662c-0.876,0.952-1.411,1.909-1.607,2.871
				c-0.163,0.043-0.3,0.09-0.41,0.154c-0.254-1.102-0.079-2.512,0.506-4.238c0.309-0.828,1.103-2.461,2.401-4.912
				c1.239-2.402,1.362-4.637,0.358-6.69c-0.715-1.466-1.895-2.715-3.557-3.764c1.119,2.372,0.377,5.804-2.26,10.302
				c-1.374,2.332-1.664,4.703-0.877,7.112c0.124,0.371,0.273,0.734,0.426,1.058c-0.27-0.023-0.506-0.041-0.729-0.045
				c-1.312-0.33-2.521-1.545-3.613-3.651c-0.404-0.805-1.063-2.509-1.941-5.116C119.453,29.299,117.92,27.674,115.729,27.001"/>
		</g>
		<g>
			<path fill="#FCDF00" d="M110.525,27.012c1.9-0.5,3.639-0.508,5.206-0.01c2.188,0.672,3.726,2.297,4.622,4.877
				c0.878,2.605,1.535,4.312,1.941,5.115c1.092,2.107,2.302,3.32,3.615,3.652c0.025,0.004,0.049,0.008,0.073,0.011
				c0.221,0.041,0.427,0.068,0.65,0.086c0.013-0.013,0.013-0.013,0.026-0.011c-0.012-0.014-0.01-0.027-0.02-0.041
				c-0.156-0.323-0.306-0.687-0.43-1.058c-0.786-2.409-0.497-4.78,0.875-7.114c2.639-4.496,3.381-7.928,2.26-10.3
				c1.664,1.05,2.842,2.298,3.559,3.761c1.006,2.057,0.881,4.291-0.358,6.695c-1.299,2.449-2.093,4.082-2.403,4.91
				c-0.583,1.727-0.758,3.139-0.507,4.238c0.076,0.326,0.192,0.632,0.341,0.902c-0.005-0.043-0.003-0.08-0.009-0.121l0.059-0.848
				c0.019-0.038,0.022-0.063,0.024-0.088c0.194-0.965,0.729-1.92,1.605-2.871c1.731-1.85,3.943-2.742,6.644-2.662
				c5.196,0.147,8.557-0.857,10.089-2.985c-0.102,1.962-0.622,3.604-1.576,4.927c-1.309,1.867-3.321,2.839-6.031,2.916
				c-2.758,0.043-4.574,0.133-5.449,0.267c-0.861,0.15-1.611,0.353-2.248,0.597c-0.919,0.367-1.612,0.828-2.082,1.398
				c-0.222,0.272-0.393,0.581-0.518,0.918c-0.023,0.064-0.042,0.129-0.067,0.189l0.007,0.065c-0.044-0.084-0.083-0.167-0.123-0.265
				c-0.099-0.263-0.18-0.525-0.238-0.782l-1.385-0.474c-0.062-0.034-0.123-0.068-0.186-0.104c-0.727-0.451-1.328-1.11-1.791-2
				c-1.532,1.338-3.405,1.485-5.628,0.453c-0.273-0.127-0.543-0.27-0.8-0.422c-0.196-0.117-0.387-0.25-0.582-0.379
				c-0.034-0.019-0.074-0.049-0.109-0.068l-0.676-0.562c-0.084-0.076-0.151-0.15-0.232-0.229c-0.014-0.015-0.026-0.015-0.035-0.03
				c-0.246-0.257-0.46-0.508-0.675-0.785c-0.024-0.03-0.044-0.059-0.065-0.104c-0.01-0.014-0.023-0.016-0.035-0.029
				c-0.012-0.015-0.008-0.027-0.021-0.043s-0.022-0.029-0.033-0.045c-0.014-0.015-0.034-0.042-0.044-0.059
				c-0.553-0.796-0.984-1.723-1.282-2.762C115.024,30.727,113.042,27.82,110.525,27.012"/>
		</g>
		<g>
			<path fill="#FCDF00" d="M96.244,166.784c0.002-0.201-0.011-0.412-0.011-0.612c-0.01-0.398-0.004-0.801-0.017-1.212
				c0-0.201-0.011-0.41-0.011-0.612c0.523-0.541,0.896-1.117,1.082-1.742c0.072-0.198,0.222-0.389,0.453-0.578
				c0.035-0.019,0.055-0.064,0.055-0.131c1.506,0.822,2.947,2.083,4.313,3.783c0.483,0.589,0.973,1.191,1.448,1.795
				c-0.077,0.095-0.14,0.187-0.216,0.269c1.459,0.937,3.157,2.28,5.102,4.007c5.094,4.53,9.366,3.692,12.827-2.521
				c-0.221,0.029-0.441,0.057-0.683,0.063c-1.277-0.051-1.818-0.667-1.632-1.839c0-0.065,0.006-0.12,0.006-0.188
				c0.007-0.188,0.011-0.376,0.011-0.563c0-0.012-0.002-0.037-0.008-0.051c0.008-0.031,0.016-0.059,0.026-0.086
				c0.006-0.174,0.024-0.337,0.046-0.517c0.012-0.148,0.037-0.286,0.08-0.427c-0.327-0.102-0.656-0.224-0.97-0.392
				c-0.175-1.127,0.272-2,1.314-2.626c0.012-0.015,0.024-0.017,0.039-0.021c0.286-0.173,0.516-0.376,0.685-0.597
				c0.223-0.296,0.361-0.631,0.409-1.012c0.068-0.135,0.151-0.243,0.259-0.329c0.161-0.125,0.344-0.215,0.533-0.29
				c0.011-0.067,0.016-0.121,0.016-0.188c1.105-1.133,2.003-2.384,2.719-3.736c0.309-0.553,0.758-0.864,1.344-0.937
				c0.216,0,0.406,0.017,0.574,0.053c0.271-0.172,0.533-0.329,0.816-0.462c-0.018-0.586-0.073-1.162-0.172-1.744
				c-0.166-1.089,0.288-1.575,1.363-1.476c0.145,0,0.307-0.003,0.451-0.005c0.164-0.472,0.461-0.875,0.904-1.213
				c0.29-0.229,0.652-0.377,1.051-0.439c0.431,0.504,0.678,1.099,0.766,1.775c0.043,0.367,0.179,0.728,0.39,1.074
				c0.14,0.094,0.267,0.202,0.405,0.297c0.141,0.105,0.248,0.26,0.329,0.471c-0.203,0.348-0.442,0.619-0.73,0.849
				c-0.106,0.086-0.228,0.148-0.346,0.212c1.106,2.606,2.692,7.296,4.775,14.094c-13.022,6.417-26.792,7.648-41.299,3.671
				c0.341-1.442,1.016-3.025,2.032-4.754C96.608,167.515,96.432,167.148,96.244,166.784"/>
		</g>
		<g>
			<path fill="#FCDF00" d="M31.05,153.296c3.849,3.124,6.925,4.271,9.196,3.469c3.763-1.325,6.017-4.709,6.769-10.142
				c0.209-1.479,0.42-3.741,0.621-6.781c0.249-2.625,0.664-4.623,1.24-6c1.196-2.872,1.822-4.479,1.886-4.808
				c0.308-1.94-0.712-2.897-3.079-2.845c-1.463,0.027-3.043,0.983-4.731,2.872c-0.899,1.019-2.042,2.621-3.428,4.782
				c-0.648-1.23-1.557-3.147-2.717-5.745c-1.193-2.142-2.746-3.556-4.651-4.24c-2.332-0.487-3.815,1.099-4.454,4.787
				c-0.551,3.213-0.386,6.37,0.494,9.458c-0.5-1.142-1.929-2.295-4.269-3.466c-2.398-1.234-4.175-1.621-5.346-1.169
				c-2.543,0.979-2.641,3.259-0.28,6.837c1.642,2.463,3.845,4.863,6.617,7.184C27.03,149.728,29.079,151.661,31.05,153.296"/>
		</g>
		<g>
			<path fill="#F1B800" d="M38.743,158.043c-2.339,0-5.069-1.289-8.345-3.945c-2.035-1.689-4.131-3.675-6.229-5.902
				c-2.732-2.274-5.025-4.765-6.729-7.318c-1.639-2.485-2.195-4.443-1.699-5.989c0.348-1.084,1.178-1.885,2.471-2.383
				c1.471-0.569,3.475-0.18,6.187,1.216c0.8,0.402,1.502,0.804,2.109,1.207c-0.252-2.131-0.197-4.292,0.179-6.458
				c0.741-4.298,2.72-6.237,5.679-5.619l0.137,0.039c2.138,0.766,3.89,2.35,5.206,4.706c0.736,1.648,1.388,3.057,1.935,4.185
				c0.997-1.486,1.834-2.608,2.536-3.4c1.878-2.104,3.72-3.188,5.481-3.223l0.2-0.002c1.51,0,2.616,0.399,3.287,1.186
				c0.606,0.708,0.819,1.668,0.632,2.854c-0.041,0.216-0.122,0.655-1.953,5.045c-0.537,1.28-0.93,3.198-1.166,5.7
				c-0.194,2.946-0.405,5.253-0.626,6.826c-0.805,5.823-3.311,9.515-7.443,10.972C40.016,157.941,39.394,158.043,38.743,158.043z
				 M19.656,134.316c-0.271,0-0.508,0.039-0.702,0.112c-1.025,0.395-1.192,0.917-1.25,1.087c-0.198,0.62-0.104,1.854,1.458,4.223
				c1.589,2.386,3.752,4.729,6.417,6.96c2.135,2.25,4.166,4.176,6.127,5.805c3.492,2.83,6.283,3.965,8.198,3.29
				c3.396-1.198,5.389-4.243,6.089-9.311c0.211-1.504,0.423-3.824,0.613-6.707c0.265-2.778,0.692-4.839,1.317-6.33
				c1.617-3.873,1.805-4.523,1.826-4.614c0.081-0.521,0.027-0.922-0.17-1.152c-0.254-0.297-0.862-0.461-1.719-0.461l-0.156,0.003
				c-1.167,0.021-2.506,0.873-3.983,2.529c-0.847,0.956-1.938,2.479-3.33,4.652l-0.959,1.492l-0.824-1.571
				c-0.681-1.297-1.63-3.306-2.741-5.808c-1.027-1.825-2.342-3.051-3.991-3.66c-0.178-0.033-0.349-0.051-0.507-0.051
				c-0.484,0-1.958,0-2.65,4.017c-0.523,3.037-0.365,6.068,0.467,9.001l-1.937,0.695c-0.271-0.62-1.147-1.639-3.782-2.957
				C21.859,134.733,20.58,134.316,19.656,134.316z"/>
		</g>
		<g>
			<path fill="#FCDF00" d="M96.333,164.223c0.381-0.276,0.723-0.539,1.023-0.801c0.187-0.066,0.367-0.105,0.567-0.132
				c0.223-0.014,0.432-0.039,0.654-0.051c0.76,2.558,0.709,5.146-0.158,7.759c-0.09,0.276-0.129,0.565-0.129,0.866l-2.785,11.411
				c-0.5-0.119-1.065-0.132-1.683-0.04c-0.524,0.117-1.059,0.263-1.601,0.421c-0.854-0.381-2.074-0.525-3.665-0.421
				c-1.402,0.379-2.767,0.933-4.065,1.629l6.496-16.545l-1.536,0.012c0.696-0.839,1.442-1.574,2.247-2.219
				C92.958,166.153,94.51,165.521,96.333,164.223"/>
		</g>
	</g>
</g>
<g id="guide" display="none">
</g>
</svg>
