<?xml version="1.0" encoding="utf-8"?>
<!-- Generator: Adobe Illustrator 16.2.1, SVG Export Plug-In . SVG Version: 6.00 Build 0)  -->
<!DOCTYPE svg PUBLIC "-//W3C//DTD SVG 1.1//EN" "http://www.w3.org/Graphics/SVG/1.1/DTD/svg11.dtd">
<svg version="1.1" xmlns="http://www.w3.org/2000/svg" xmlns:xlink="http://www.w3.org/1999/xlink" x="0px" y="0px"
	 width="271.532px" height="338px" viewBox="0 0 271.532 338" enable-background="new 0 0 271.532 338" xml:space="preserve">
<g id="base">
</g>
<g id="book3">
</g>
<g id="_x38_" display="none">
</g>
<g id="_x37_" display="none">
</g>
<g id="_x36_" display="none">
</g>
<g id="_x35_" display="none">
</g>
<g id="_x34_" display="none">
</g>
<g id="_x33_" display="none">
</g>
<g id="_x32_" display="none">
</g>
<g id="_x31_" display="none">
</g>
<g id="_x30_">
	<ellipse fill="#D6DEDB" cx="135.5" cy="274.232" rx="85" ry="21.5"/>
	<g>
		<g>
			<path fill="#980C27" d="M130.489,163.036c-10.105,0.882-16.572,3.483-19.48,7.923c-2.872,4.172-4.976,9.417-6.315,15.846
				c-1.341,6.125-2.373,11.637-3.14,16.573c-2.296,10.795,0.843,19.52,9.455,26.064h0.036c7.58,5.819,16.843,8.344,27.712,7.58
				c11.33-0.768,19.596-4.938,24.729-12.401c6.045-8.612,6.008-19.903-0.271-33.911c-1.646-3.752-3.751-7.732-6.237-11.942
				c-3.444-5.854-6.124-10.028-8.037-12.555C146.909,163.19,140.787,162.156,130.489,163.036 M130.795,166.329
				c8.575-0.729,13.743-0.116,15.502,1.874c1.878,2.488,4.441,6.544,7.848,12.25c2.409,4.056,4.438,7.92,6.085,11.634
				c5.627,12.631,5.815,22.85,0.497,30.66c-4.631,6.622-12.018,10.295-22.199,10.945c-9.989,0.726-18.485-1.569-25.491-6.852
				c-7.501-5.779-10.257-13.319-8.266-22.773c0-0.077,0-0.077,0.037-0.113c0.728-4.899,1.761-10.337,3.102-16.461
				c1.225-5.93,3.213-10.832,5.815-14.658C116.328,169.236,122.031,167.094,130.795,166.329"/>
		</g>
		<g>
			<path fill="#D56F45" d="M146.297,168.203c-1.759-1.989-6.927-2.603-15.502-1.874c-8.764,0.765-14.466,2.907-17.068,6.506
				c-2.602,3.826-4.595,8.727-5.817,14.658c-1.341,6.125-2.374,11.561-3.102,16.461c-0.037,0.036-0.037,0.036-0.037,0.111
				c-1.992,9.456,0.765,16.996,8.266,22.775c7.003,5.282,15.502,7.577,25.491,6.852c10.182-0.65,17.568-4.327,22.199-10.947
				c5.318-7.809,5.129-18.027-0.497-30.658c-1.646-3.714-3.676-7.578-6.085-11.634C150.738,174.747,148.172,170.691,146.297,168.203
				"/>
		</g>
		<g>
			<path fill="#980C27" d="M140.71,215.589l-0.191-1.416L155.405,210l7.006,34.143l6.047,1.337
				c10.987,2.527,19.212,6.509,24.728,12.059c6.466,6.392,7.998,11.904,4.554,16.535h0.037c-2.908,4.479-9.223,6.391-18.907,5.662
				c-4.21-0.306-8.995-1.568-14.354-3.825c-3.636-1.494-7.577-3.521-11.824-5.971c-0.041-0.076-0.155-0.231-0.27-0.269
				c-0.153-0.152-0.347-0.345-0.536-0.537c-0.076-0.076-0.192-0.151-0.306-0.189c-0.037-0.115-0.153-0.23-0.153-0.346
				c-0.382-0.497-0.688-1.149-0.997-1.874c-0.608-1.572-1.146-3.14-1.684-4.783c-0.112-0.349-0.188-0.654-0.267-0.959
				c-0.958-3.023-1.724-6.087-2.297-9.263c-1.072-6.085-2.145-12.249-3.099-18.335C142.2,227.454,141.398,221.56,140.71,215.589
				 M161.188,247.509c-0.461-0.037-0.879-0.076-1.265-0.113l-6.966-33.3l-8.842,2.524c0.69,5.437,1.417,10.872,2.221,16.229
				c0.956,6.124,1.992,12.209,3.063,18.296c0.955,5.053,2.37,9.914,4.324,14.661l0.076,0.306c0.036,0.036,0.036,0.036,0.036,0.075
				c3.791,2.643,7.732,4.862,11.867,6.697c1.799,0.729,3.56,1.379,5.245,1.915c2.947,0.919,5.624,1.455,8.151,1.646
				c8.113,0.649,13.433-0.804,15.962-4.249c2.104-3.406,0.727-7.501-4.176-12.322c-5.512-5.399-13.776-9.227-24.877-11.599
				l-2.717-0.344C162.604,247.775,161.875,247.625,161.188,247.509"/>
		</g>
		<g>
			<path fill="#D72C1B" d="M159.923,247.396c0.385,0.037,0.804,0.076,1.265,0.113c0.688,0.116,1.416,0.267,2.104,0.423l2.718,0.344
				c11.1,2.372,19.364,6.199,24.876,11.599c4.9,4.821,6.279,8.916,4.176,12.322c-2.529,3.445-7.849,4.898-15.962,4.249
				c-2.527-0.191-5.204-0.728-8.151-1.646c-1.686-0.536-3.446-1.187-5.244-1.915c-4.136-1.835-8.077-4.056-11.868-6.697
				c0-0.039,0-0.039-0.036-0.076l-0.076-0.307c-1.954-4.745-3.369-9.606-4.327-14.659c-1.068-6.087-2.104-12.172-3.06-18.296
				c-0.805-5.356-1.531-10.792-2.221-16.229l8.841-2.524L159.923,247.396z"/>
		</g>
		<g>
			<path fill="#980C27" d="M135.045,217.004c-0.268,0.229-0.5,0.537-0.574,0.92l-9.339,34.676c-0.038,0-0.038,0.076-0.038,0.076
				l-1.647,6.05c-0.421,0.916-0.996,1.876-1.682,2.83c-3.177,4.518-7.655,8.229-13.358,11.1c-5.664,2.794-10.947,3.94-15.807,3.406
				h-0.04c-4.363-0.496-7.158-2.296-8.307-5.435c-1.071-3.37-0.151-7.159,2.795-11.367h-0.041c3.181-4.593,7.658-8.229,13.322-11.1
				c5.129-2.526,9.914-3.676,14.43-3.522l1.342,0.04l8.84-32.497c0.114-0.497,0.078-0.917-0.152-1.301
				c-0.078-0.113-0.154-0.228-0.27-0.345c-0.191-0.231-0.459-0.382-0.766-0.419c-0.461-0.154-0.881-0.078-1.261,0.152
				c-0.423,0.229-0.651,0.57-0.806,0.995l-8.189,30.006c-4.557,0.038-9.417,1.341-14.623,3.865
				c-6.274,3.141-11.138,7.158-14.621,12.174c-3.675,5.319-4.784,10.103-3.177,14.426c1.455,4.44,5.168,7.006,11.14,7.657
				c5.435,0.65,11.33-0.611,17.645-3.711c6.314-3.099,11.214-7.197,14.658-12.213c0.767-1.107,1.456-2.181,1.991-3.216
				c0.04-0.072,0.04-0.151,0.077-0.228c1.147-2.334,1.759-4.554,1.839-6.659l9.261-34.562c0.113-0.458,0.076-0.879-0.155-1.262
				c-0.075-0.193-0.227-0.347-0.382-0.461c-0.191-0.152-0.381-0.306-0.648-0.343c-0.463-0.115-0.844-0.077-1.266,0.19
				C135.159,216.966,135.121,216.966,135.045,217.004"/>
		</g>
		<g>
			<path fill="#D72C1B" d="M134.471,217.922c0.074-0.381,0.307-0.687,0.574-0.92c0.076-0.035,0.113-0.035,0.19-0.074
				c0.422-0.267,0.803-0.306,1.266-0.19c0.268,0.037,0.457,0.19,0.648,0.343c-0.038-0.688-0.191-1.339-0.458-1.991
				c-0.882-2.18-2.566-3.635-4.9-4.285c-1.916-0.574-3.943-0.766-6.048-0.65c-0.152,0.076-0.342,0.113-0.534,0.152
				c-0.23,0.075-0.461,0.153-0.69,0.229c0.115,0.116,0.191,0.229,0.27,0.345c0.23,0.383,0.267,0.805,0.152,1.303l-8.84,32.495
				l-1.342-0.04c-4.516-0.153-9.301,0.997-14.43,3.522c-5.664,2.87-10.143,6.507-13.322,11.1h0.041
				c-2.946,4.209-3.864,7.997-2.795,11.367c1.148,3.139,3.943,4.938,8.307,5.435h0.04c4.859,0.536,10.143-0.612,15.807-3.406
				c5.703-2.87,10.182-6.582,13.358-11.1c0.686-0.957,1.261-1.913,1.682-2.832l1.647-6.048c0,0,0-0.076,0.038-0.076L134.471,217.922
				z"/>
		</g>
		<g>
			<path fill="#D72C1B" d="M181.09,83.846c-0.881-0.65-1.763-1.263-2.68-1.875c-1.877-1.225-3.788-2.373-5.74-3.444
				c-1.607-0.843-3.177-1.569-4.825-2.259c-2.18-0.881-4.359-1.761-6.581-2.602c-2.183-0.843-4.479-1.531-6.777-2.106
				c-0.111,0-0.188-0.076-0.304-0.076c2.258-4.247,3.06-8.688,2.411-13.282c-0.881-6.084-3.902-10.908-9.032-14.506
				c-5.129-3.636-10.946-4.975-17.377-4.057c-6.394,0.918-11.56,3.827-15.466,8.764c-1.452,1.801-2.562,3.676-3.328,5.629
				c-0.229-0.27-0.458-0.537-0.649-0.768c-1.073-1.071-2.259-2.064-3.599-2.908c-1.685-1.07-3.406-1.953-5.168-2.641
				c-2.104-0.805-4.247-1.303-6.544-1.416c-1.953-0.115-3.905-0.077-5.741,0.269c-1.916,0.268-3.751,0.765-5.511,1.53
				c-2.068,0.766-3.982,1.876-5.705,3.252c-1.528,1.188-2.833,2.527-4.018,4.02c-1.379,1.762-2.526,3.675-3.292,5.818
				c-0.766,1.99-1.225,4.133-1.301,6.315c-0.115,1.913,0.037,3.79,0.422,5.702c0.458,2.182,1.186,4.173,2.258,6.125
				c0.383,0.842,1.223,1.912,2.448,3.291c-1.454,0.881-2.907,1.761-4.324,2.681c-1.417,0.88-2.832,1.835-4.211,2.831
				c-2.027,1.454-4.02,2.986-5.972,4.67c-1.529,1.34-2.983,2.68-4.363,4.057c-1.569,1.608-3.023,3.254-4.44,4.976
				c-1.302,1.569-2.562,3.254-3.711,4.976c-1.071,1.606-2.106,3.331-2.986,5.053s-1.607,3.444-2.221,5.241
				c-0.726,2.145-1.262,4.367-1.606,6.624c-0.385,2.22-0.574,4.479-0.574,6.773c0,2.336,0.189,4.633,0.611,6.929
				c0.422,2.297,0.996,4.517,1.762,6.698c0.765,2.105,1.724,4.211,2.871,6.162c1.148,2.028,2.489,3.866,3.982,5.627
				c1.491,1.875,3.212,3.597,5.011,5.244c1.531,1.377,3.063,2.679,4.786,3.862c1.76,1.229,3.56,2.453,5.471,3.484
				c1.993,1.148,4.058,2.221,6.204,3.218c2.144,0.994,4.323,1.873,6.504,2.717c2.184,0.841,4.481,1.568,6.773,2.218
				c2.3,0.652,4.633,1.15,6.968,1.61c2.449,0.459,4.861,0.84,7.232,1.109c2.489,0.269,4.979,0.458,7.465,0.574
				c1.914,0.074,3.826,0.153,5.739,0.037c1.917-0.037,3.909-0.114,5.86-0.19c1.99-0.152,3.979-0.306,6.007-0.535
				c2.03-0.229,4.059-0.536,6.086-0.881c1.992-0.307,3.981-0.651,5.971-1.072c1.953-0.384,3.866-0.842,5.782-1.341
				c1.834-0.458,3.711-0.956,5.548-1.605c2.372-0.768,4.785-1.608,7.082-2.49c2.296-0.918,4.517-1.913,6.736-2.984
				c2.143-1.108,4.249-2.259,6.312-3.443c2.03-1.225,4.022-2.489,5.973-3.867c1.912-1.377,3.79-2.832,5.587-4.363
				c1.8-1.53,3.524-3.1,5.166-4.784c1.53-1.532,3.063-3.177,4.481-4.859c0.496-0.614,0.955-1.227,1.451-1.839
				c0.806-1.032,1.571-2.106,2.26-3.215c1.377-2.028,2.604-4.209,3.636-6.429c0.997-2.105,1.84-4.288,2.451-6.509
				c0.613-2.221,1.032-4.479,1.263-6.812c0.229-2.297,0.266-4.593,0.076-6.891c-0.154-2.372-0.534-4.668-1.072-6.965
				c-0.537-2.221-1.261-4.403-2.143-6.585c-0.88-2.066-1.95-4.095-3.218-5.969c-1.299-1.99-2.753-3.867-4.322-5.59
				c-1.682-1.875-3.481-3.521-5.436-5.053C182.696,85.072,181.933,84.46,181.09,83.846"/>
		</g>
		<g>
			<path fill="#D56F45" d="M109.86,180.242c-1.194,0-2.406-0.048-3.579-0.093l-0.066-0.004c-2.474-0.113-4.989-0.307-7.475-0.573
				c-2.238-0.255-4.608-0.618-7.251-1.112c-2.095-0.414-4.563-0.928-6.981-1.614c-2.604-0.736-4.822-1.464-6.793-2.223
				c-1.805-0.698-4.176-1.639-6.515-2.724c-2.134-0.989-4.225-2.074-6.218-3.224c-1.938-1.046-3.773-2.298-5.486-3.493
				c-1.847-1.27-3.464-2.672-4.804-3.88c-2.119-1.938-3.719-3.611-5.034-5.267c-1.615-1.901-2.924-3.751-4-5.65
				c-1.097-1.87-2.069-3.953-2.883-6.191c-0.752-2.145-1.331-4.346-1.771-6.729c-0.415-2.258-0.613-4.535-0.613-6.964
				c0-2.301,0.192-4.59,0.576-6.806c0.347-2.275,0.891-4.515,1.614-6.652c0.62-1.821,1.353-3.545,2.23-5.268
				c0.838-1.64,1.846-3.347,2.997-5.072c1.133-1.698,2.387-3.377,3.724-4.991c1.499-1.823,2.956-3.455,4.45-4.986
				c1.29-1.29,2.72-2.619,4.376-4.068c1.796-1.551,3.753-3.081,5.987-4.682c1.404-1.017,2.826-1.971,4.22-2.838
				c1.354-0.879,2.761-1.733,4.13-2.562c-1.283-1.455-1.984-2.408-2.328-3.167c-1.062-1.934-1.807-3.954-2.269-6.166
				c-0.403-1.988-0.542-3.869-0.428-5.753c0.075-2.154,0.518-4.301,1.313-6.372c0.717-2.01,1.804-3.93,3.319-5.867
				c1.267-1.597,2.593-2.922,4.054-4.053c1.774-1.421,3.711-2.525,5.754-3.281c1.717-0.746,3.587-1.266,5.551-1.54
				c1.661-0.312,3.536-0.401,5.777-0.271c2.215,0.11,4.374,0.576,6.604,1.428c1.766,0.691,3.513,1.586,5.199,2.66
				c1.26,0.789,2.447,1.75,3.633,2.934c0.14,0.166,0.284,0.336,0.434,0.511l0.021,0.025c0.765-1.856,1.854-3.665,3.239-5.382
				c3.903-4.937,9.15-7.909,15.587-8.834c6.476-0.924,12.384,0.453,17.515,4.09c5.163,3.623,8.23,8.547,9.11,14.635
				c0.646,4.551-0.137,8.986-2.321,13.19c0.01,0.003,0.018,0.005,0.025,0.005c2.54,0.627,4.827,1.339,6.846,2.118
				c2.28,0.862,4.566,1.788,6.585,2.603c1.726,0.723,3.308,1.464,4.841,2.267c1.94,1.065,3.877,2.228,5.758,3.454
				c1.021,0.682,1.875,1.278,2.688,1.882c0.841,0.61,1.591,1.214,2.417,1.88c2.056,1.613,3.841,3.273,5.457,5.074
				c1.578,1.729,3.037,3.619,4.341,5.612c1.217,1.8,2.306,3.818,3.231,5.998c0.931,2.295,1.634,4.457,2.154,6.614
				c0.579,2.479,0.933,4.769,1.079,6.997c0.182,2.237,0.158,4.567-0.081,6.922c-0.229,2.354-0.644,4.593-1.267,6.846
				c-0.584,2.116-1.411,4.316-2.465,6.539c-1.051,2.268-2.281,4.439-3.649,6.454c-0.643,1.038-1.385,2.096-2.265,3.226
				c-0.255,0.312-0.495,0.621-0.736,0.929c-0.236,0.305-0.474,0.607-0.719,0.911c-1.333,1.587-2.845,3.228-4.493,4.875
				c-1.503,1.541-3.196,3.109-5.177,4.795c-1.729,1.475-3.614,2.945-5.602,4.373c-1.746,1.234-3.648,2.465-5.984,3.875
				c-2.083,1.196-4.212,2.357-6.327,3.449c-2.359,1.142-4.567,2.121-6.751,2.993c-2.234,0.858-4.622,1.693-7.093,2.493
				c-1.863,0.659-3.775,1.164-5.562,1.611c-2.209,0.574-4.05,1.001-5.79,1.343c-1.804,0.38-3.704,0.723-5.98,1.073
				c-2.266,0.385-4.259,0.672-6.093,0.882c-2.028,0.229-4.053,0.386-6.009,0.533c-1.837,0.074-3.906,0.155-5.876,0.194
				C111.317,180.222,110.626,180.242,109.86,180.242z M93.542,46.432c-1.413,0-2.662,0.106-3.816,0.324
				c-1.939,0.27-3.775,0.781-5.471,1.518c-2.016,0.746-3.915,1.83-5.662,3.227c-1.435,1.113-2.737,2.418-3.99,3.988
				c-1.486,1.903-2.553,3.789-3.258,5.764c-0.783,2.037-1.217,4.142-1.289,6.258c-0.113,1.854,0.023,3.704,0.419,5.658
				c0.454,2.172,1.187,4.158,2.236,6.069c0.347,0.765,1.072,1.734,2.424,3.257l0.152,0.172l-0.195,0.119
				c-1.428,0.864-2.903,1.758-4.321,2.677c-1.392,0.864-2.803,1.813-4.201,2.825c-2.223,1.596-4.173,3.119-5.96,4.66
				c-1.646,1.443-3.07,2.766-4.354,4.048c-1.482,1.523-2.933,3.146-4.428,4.962c-1.327,1.604-2.573,3.272-3.698,4.96
				c-1.144,1.713-2.144,3.407-2.977,5.033c-0.869,1.706-1.592,3.413-2.204,5.218c-0.72,2.116-1.26,4.333-1.604,6.589
				c-0.38,2.199-0.57,4.467-0.57,6.745c0,2.406,0.198,4.661,0.606,6.895c0.437,2.363,1.009,4.545,1.755,6.669
				c0.806,2.214,1.767,4.274,2.854,6.129c1.066,1.881,2.361,3.711,3.965,5.6c1.304,1.643,2.892,3.303,4.994,5.227
				c1.328,1.196,2.936,2.591,4.767,3.848c1.705,1.189,3.529,2.437,5.453,3.473c1.989,1.146,4.069,2.227,6.19,3.211
				c2.33,1.08,4.696,2.018,6.495,2.713c1.957,0.756,4.167,1.479,6.758,2.213c2.406,0.683,4.864,1.194,6.95,1.604
				c2.631,0.493,4.993,0.855,7.219,1.11c2.479,0.265,4.985,0.458,7.451,0.569l0.064,0.005c1.169,0.044,2.378,0.092,3.563,0.092
				c0.756,0,1.441-0.018,2.093-0.057c1.97-0.04,4.04-0.121,5.86-0.192c1.954-0.15,3.974-0.306,5.996-0.533
				c1.822-0.208,3.813-0.496,6.074-0.88c2.272-0.349,4.164-0.69,5.962-1.069c1.737-0.342,3.572-0.766,5.772-1.34
				c1.782-0.444,3.683-0.946,5.534-1.602c2.471-0.796,4.85-1.633,7.076-2.487c2.174-0.868,4.372-1.844,6.722-2.979
				c2.104-1.089,4.228-2.246,6.302-3.437c2.324-1.404,4.219-2.629,5.957-3.857c1.976-1.422,3.854-2.886,5.573-4.353
				c1.974-1.678,3.659-3.237,5.154-4.771c1.641-1.644,3.143-3.273,4.471-4.851c0.24-0.3,0.477-0.6,0.712-0.9
				c0.243-0.312,0.486-0.623,0.739-0.934c0.867-1.116,1.604-2.164,2.242-3.195c1.361-2.004,2.58-4.158,3.626-6.409
				c1.042-2.204,1.864-4.383,2.439-6.479c0.617-2.231,1.026-4.448,1.256-6.78c0.235-2.333,0.263-4.64,0.077-6.855
				c-0.144-2.213-0.493-4.482-1.067-6.938c-0.517-2.138-1.216-4.282-2.134-6.557c-0.918-2.153-1.992-4.15-3.197-5.933
				c-1.294-1.979-2.741-3.852-4.307-5.568c-1.602-1.785-3.369-3.43-5.409-5.03c-0.826-0.665-1.574-1.265-2.408-1.87
				c-0.812-0.602-1.658-1.196-2.672-1.873c-1.871-1.221-3.8-2.376-5.728-3.436c-1.519-0.795-3.093-1.531-4.809-2.25
				c-2.012-0.812-4.297-1.736-6.574-2.598c-2.003-0.774-4.275-1.48-6.754-2.099c-0.042,0.003-0.121-0.025-0.176-0.048
				c-0.037-0.016-0.063-0.024-0.082-0.024h-0.32l0.15-0.282c2.229-4.192,3.033-8.621,2.393-13.164
				c-0.866-5.979-3.881-10.815-8.954-14.377c-5.05-3.577-10.856-4.936-17.24-4.022c-6.337,0.909-11.499,3.835-15.341,8.694
				c-1.437,1.777-2.547,3.653-3.304,5.578l-0.114,0.298l-0.435-0.511c-0.151-0.177-0.296-0.348-0.424-0.501
				c-1.155-1.151-2.32-2.093-3.555-2.869c-1.666-1.061-3.394-1.944-5.135-2.626c-2.189-0.835-4.308-1.294-6.484-1.402
				C94.766,46.451,94.133,46.432,93.542,46.432z"/>
		</g>
		<g>
			<path fill="#980C27" d="M109.86,181.564c-1.24,0-2.482-0.051-3.697-0.101c-2.509-0.116-5.051-0.311-7.564-0.58
				c-2.271-0.258-4.674-0.625-7.352-1.128c-2.137-0.419-4.637-0.941-7.101-1.639c-2.63-0.743-4.89-1.485-6.904-2.263
				c-1.822-0.704-4.221-1.652-6.6-2.757c-2.169-1.009-4.296-2.111-6.319-3.276c-1.97-1.065-3.84-2.34-5.584-3.552
				c-1.895-1.308-3.557-2.747-4.929-3.983c-2.185-1.996-3.83-3.72-5.188-5.428c-1.645-1.942-3.002-3.858-4.114-5.821
				c-1.133-1.933-2.138-4.09-2.976-6.393c-0.779-2.22-1.376-4.485-1.827-6.94c-0.428-2.335-0.635-4.691-0.635-7.201
				c0-2.375,0.198-4.741,0.594-7.031c0.36-2.342,0.923-4.656,1.668-6.852c0.639-1.879,1.393-3.661,2.308-5.445
				c0.856-1.682,1.891-3.433,3.071-5.202c1.159-1.74,2.442-3.457,3.806-5.103c1.514-1.842,2.995-3.5,4.521-5.067
				c1.334-1.332,2.785-2.681,4.452-4.139c1.836-1.584,3.824-3.139,6.086-4.76c1.442-1.042,2.887-2.016,4.292-2.887
				c1.326-0.862,2.714-1.703,4.1-2.545l0.239-0.145c0.711-0.432,1.645-0.205,2.077,0.508c0.432,0.715,0.204,1.645-0.509,2.077
				l-0.239,0.146c-1.361,0.824-2.721,1.65-4.049,2.512c-1.367,0.852-2.755,1.783-4.145,2.789c-2.193,1.57-4.111,3.07-5.869,4.587
				c-1.607,1.406-3.01,2.712-4.282,3.983c-1.454,1.49-2.88,3.087-4.34,4.865c-1.304,1.57-2.521,3.202-3.625,4.855
				c-1.114,1.671-2.089,3.32-2.896,4.9c-0.846,1.652-1.542,3.303-2.134,5.044c-0.691,2.027-1.212,4.167-1.548,6.361
				c-0.37,2.15-0.554,4.344-0.554,6.547c0,2.326,0.19,4.501,0.585,6.654c0.422,2.298,0.979,4.414,1.7,6.472
				c0.768,2.115,1.695,4.105,2.748,5.896c1.03,1.818,2.278,3.584,3.832,5.414c1.285,1.616,2.828,3.229,4.88,5.107
				c1.291,1.161,2.858,2.521,4.621,3.734c1.681,1.168,3.468,2.393,5.336,3.398c1.981,1.145,4.03,2.204,6.118,3.173
				c2.299,1.067,4.638,1.993,6.415,2.681c1.929,0.745,4.1,1.456,6.64,2.174c2.359,0.669,4.784,1.173,6.846,1.578
				c2.595,0.487,4.926,0.844,7.113,1.094c2.443,0.262,4.926,0.452,7.363,0.564c1.834,0.074,3.736,0.15,5.582,0.039
				c1.964-0.041,3.943-0.118,5.888-0.192l0.064-0.007c1.905-0.146,3.873-0.296,5.831-0.521c1.792-0.201,3.754-0.485,6.007-0.867
				c2.269-0.351,4.141-0.685,5.91-1.06c1.762-0.348,3.569-0.766,5.709-1.326c1.765-0.44,3.634-0.934,5.431-1.566
				c2.493-0.81,4.85-1.638,7.04-2.476c2.107-0.843,4.28-1.806,6.62-2.938c2.063-1.066,4.17-2.217,6.222-3.392
				c2.276-1.378,4.146-2.584,5.852-3.791c1.942-1.399,3.79-2.841,5.479-4.279c1.945-1.657,3.602-3.19,5.064-4.688
				c1.613-1.616,3.093-3.22,4.404-4.779c0.221-0.273,0.452-0.567,0.682-0.86c0.249-0.318,0.497-0.637,0.757-0.956
				c0.802-1.028,1.529-2.067,2.146-3.06c1.345-1.979,2.526-4.072,3.549-6.271c1.011-2.139,1.805-4.244,2.365-6.271
				c0.593-2.161,0.992-4.31,1.214-6.56c0.227-2.261,0.253-4.486,0.075-6.615c-0.139-2.154-0.48-4.353-1.042-6.745
				c-0.488-2.044-1.165-4.127-2.068-6.365c-0.875-2.05-1.91-3.976-3.065-5.689c-1.269-1.935-2.672-3.751-4.193-5.414
				c-1.555-1.735-3.27-3.33-5.249-4.882c-0.786-0.639-1.546-1.246-2.368-1.844c-0.813-0.602-1.67-1.202-2.629-1.841
				c-1.822-1.19-3.72-2.329-5.626-3.376c-1.456-0.763-2.993-1.482-4.681-2.189c-2.153-0.869-4.324-1.745-6.536-2.582
				c-1.937-0.748-4.122-1.43-6.504-2.028c-0.144-0.021-0.262-0.058-0.349-0.087c-0.688-0.143-1.205-0.752-1.205-1.481
				c0-0.835,0.677-1.511,1.513-1.511c0.269,0,0.481,0.06,0.618,0.108c0.02,0.003,0.037,0.008,0.056,0.013
				c2.54,0.635,4.88,1.361,6.952,2.16c2.253,0.855,4.466,1.748,6.604,2.61c1.786,0.749,3.402,1.506,4.959,2.322
				c2,1.099,3.965,2.277,5.867,3.518c1.008,0.675,1.902,1.302,2.747,1.925c0.872,0.634,1.665,1.27,2.467,1.918
				c2.102,1.647,3.941,3.359,5.607,5.219c1.617,1.772,3.124,3.718,4.469,5.77c1.249,1.856,2.375,3.949,3.338,6.202
				c0.969,2.406,1.695,4.63,2.223,6.826c0.599,2.567,0.962,4.926,1.112,7.22c0.188,2.287,0.161,4.698-0.082,7.139
				c-0.234,2.389-0.679,4.766-1.311,7.065c-0.604,2.192-1.461,4.463-2.54,6.75c-1.088,2.336-2.352,4.572-3.753,6.635
				c-0.64,1.03-1.43,2.156-2.314,3.292c-0.268,0.33-0.504,0.634-0.74,0.937c-0.24,0.309-0.483,0.616-0.733,0.926
				c-1.385,1.646-2.921,3.313-4.584,4.977c-1.518,1.553-3.24,3.148-5.255,4.867c-1.753,1.491-3.664,2.984-5.687,4.438
				c-1.777,1.255-3.705,2.503-6.072,3.935c-2.119,1.215-4.261,2.385-6.402,3.492c-2.442,1.179-4.676,2.17-6.869,3.045
				c-2.262,0.868-4.669,1.716-7.177,2.524c-1.875,0.663-3.825,1.179-5.649,1.634c-2.187,0.571-4.05,1.003-5.854,1.359
				c-1.804,0.382-3.727,0.728-6.031,1.082c-2.285,0.387-4.304,0.678-6.146,0.888c-2.014,0.229-4.012,0.384-5.943,0.531l-0.12,0.009
				c-2.021,0.08-4.021,0.156-5.942,0.195C111.288,181.546,110.576,181.564,109.86,181.564z"/>
		</g>
		<g>
			<path fill="#980C27" d="M74.991,84.133c-0.415,0-0.831-0.17-1.129-0.507c-1.494-1.679-2.273-2.742-2.697-3.669
				c-1.08-1.961-1.869-4.1-2.36-6.44c-0.423-2.108-0.571-4.101-0.452-6.103c0.08-2.27,0.551-4.559,1.4-6.768
				c0.756-2.115,1.908-4.158,3.509-6.209c1.343-1.687,2.743-3.084,4.286-4.282c1.871-1.497,3.93-2.671,6.107-3.476
				c1.757-0.768,3.743-1.318,5.825-1.609c1.704-0.322,3.7-0.418,6.038-0.281c2.343,0.117,4.636,0.611,6.994,1.513
				c1.857,0.728,3.686,1.661,5.441,2.78c1.03,0.648,2.019,1.404,2.994,2.292c0.707-1.347,1.578-2.659,2.596-3.919
				c4.11-5.201,9.641-8.34,16.426-9.312c6.83-0.977,13.046,0.478,18.465,4.321c5.47,3.834,8.721,9.059,9.654,15.521
				c0.695,4.911-0.169,9.69-2.573,14.208c-0.391,0.736-1.308,1.019-2.042,0.625c-0.739-0.392-1.018-1.308-0.627-2.044
				c2.096-3.941,2.853-8.101,2.249-12.36c-0.822-5.681-3.571-10.091-8.403-13.479c-4.772-3.386-10.256-4.662-16.297-3.799
				c-5.988,0.86-10.865,3.621-14.488,8.206c-1.359,1.682-2.403,3.441-3.109,5.242c-0.195,0.495-0.636,0.852-1.161,0.938
				c-0.521,0.089-1.057-0.108-1.4-0.514l-0.608-0.718c-1.08-1.072-2.157-1.941-3.293-2.655c-1.598-1.018-3.246-1.861-4.911-2.513
				c-2.044-0.781-4.036-1.213-6.07-1.314c-2.097-0.123-3.854-0.042-5.387,0.244c-1.904,0.269-3.579,0.732-5.187,1.432
				c-1.946,0.724-3.727,1.738-5.361,3.047c-1.369,1.061-2.599,2.293-3.781,3.779c-1.393,1.781-2.393,3.547-3.049,5.387
				c-0.742,1.93-1.147,3.889-1.215,5.861c-0.105,1.774,0.023,3.512,0.395,5.35c0.426,2.031,1.113,3.898,2.099,5.695
				c0.415,0.898,1.482,2.145,2.255,3.014c0.555,0.623,0.498,1.58-0.126,2.135C75.707,84.008,75.35,84.133,74.991,84.133z"/>
		</g>
		<g>
			<path fill="#FFFFFF" d="M155.138,58.508c-0.804-5.742-3.634-10.333-8.496-13.741c-4.822-3.481-10.295-4.745-16.341-3.903
				c-6.05,0.88-10.911,3.637-14.585,8.344c-1.876,2.335-3.178,4.822-3.865,7.502c-0.309-0.459-0.614-0.879-0.959-1.339
				c-0.345-0.384-0.726-0.804-1.068-1.187c-1.034-1.035-2.184-1.99-3.447-2.794c-1.529-0.996-3.177-1.8-4.859-2.488
				c-1.991-0.766-4.058-1.226-6.203-1.378c-1.836-0.077-3.633,0-5.436,0.306c-1.836,0.268-3.558,0.729-5.241,1.418
				c-1.952,0.765-3.752,1.798-5.397,3.098c-1.416,1.111-2.679,2.413-3.828,3.83c-1.263,1.645-2.334,3.481-3.099,5.473
				c-0.728,1.913-1.148,3.902-1.225,6.009c-0.076,1.761,0.076,3.598,0.421,5.396c0.421,2.028,1.11,3.942,2.104,5.818
				c0.459,0.842,0.994,1.682,1.568,2.41c0.612,0.768,1.303,1.493,2.029,2.182c1.493,1.34,3.177,2.449,5.014,3.332
				c1.801,0.917,3.712,1.529,5.664,1.95c2.069,0.422,4.174,0.537,6.242,0.461c2.219-0.116,4.323-0.423,6.35-1.112
				c1.956-0.689,3.791-1.645,5.476-2.871c1.417-1.033,2.719-2.295,3.867-3.672c1.145-1.416,2.104-2.91,2.906-4.556
				c0.385-0.919,0.768-1.876,1.11-2.833c0.155-0.459,0.27-0.994,0.422-1.49c1.378,2.218,3.254,4.246,5.665,5.893
				c4.821,3.445,10.295,4.746,16.344,3.865c6.045-0.879,10.948-3.635,14.582-8.306C154.565,69.455,155.98,64.25,155.138,58.508"/>
		</g>
		<g>
			<path fill="#332C2A" d="M85.554,65.09c1.53-2.639,3.792-4.361,6.701-5.127c2.983-0.804,5.739-0.422,8.418,1.072
				c2.643,1.529,4.364,3.749,5.129,6.699c0.804,2.946,0.421,5.701-1.108,8.341c-1.534,2.643-3.714,4.364-6.699,5.129
				c-2.91,0.804-5.702,0.423-8.345-1.069c-2.639-1.531-4.324-3.752-5.129-6.699S84.063,67.771,85.554,65.09"/>
		</g>
		<g>
			<path fill="#332C2A" d="M136.577,57.283c-2.184-2.104-4.824-3.1-7.846-3.062c-3.063,0.114-5.628,1.225-7.734,3.444
				c-2.105,2.182-3.138,4.786-3.062,7.846c0.115,3.024,1.225,5.55,3.406,7.693c2.258,2.106,4.822,3.1,7.886,3.062
				c3.023-0.076,5.55-1.225,7.694-3.444c2.104-2.183,3.099-4.822,3.062-7.847C139.905,61.955,138.797,59.389,136.577,57.283"/>
		</g>
		<g>
			<path fill="#332C2A" d="M144.268,118.561c-7.576,1.647-15.233,3.102-22.963,4.248c-7.77,1.148-15.656,1.952-23.693,2.451
				c-7.999,0.498-16.571,0.114-25.644-1.225l-10.832-2.182c7.579,21.128,22.274,32.687,44.245,34.678
				c6.394,0.61,13.129,0.304,20.132-0.88c0.078-0.04,0.118-0.04,0.155-0.04c7.078-0.841,13.587-2.413,19.595-4.825
				c20.518-8.111,31.386-23.345,32.649-45.735l-9.761,5.167C159.807,114.044,151.886,116.801,144.268,118.561"/>
		</g>
		<g>
			<path fill="#332C2A" d="M120.424,121.088v0.075c0.153-0.075,0.229-0.114,0.268-0.114L120.424,121.088z"/>
		</g>
		<g>
			<path fill="#E68B00" d="M136.461,90.009c-0.993-5.704-3.713-10.182-8.306-13.587c-4.556-3.33-9.567-4.556-15.119-3.676
				c-5.51,0.957-9.877,3.713-13.166,8.383c-3.214,4.67-4.363,9.799-3.444,15.464c0.957,5.663,3.674,10.181,8.268,13.511
				c4.554,3.406,9.568,4.631,15.08,3.674c5.55-0.882,9.913-3.636,13.167-8.307C136.194,100.803,137.38,95.674,136.461,90.009"/>
		</g>
		<g>
			<path fill="#980C27" d="M147.981,182.442c0.078-0.039,0.114-0.039,0.19-0.039c14.239-1.53,27.943-3.599,41.07-6.239l1.225-0.267
				c0.077,0.919,0.268,1.839,0.459,2.719l-1.035,0.188c-13.242,2.681-27.058,4.786-41.451,6.317c-0.38,0.035-0.726-0.039-1.03-0.269
				c-0.27-0.268-0.461-0.574-0.5-0.919c0-0.382,0.078-0.689,0.31-1.033c0.073-0.115,0.226-0.192,0.343-0.267
				C147.676,182.557,147.828,182.48,147.981,182.442"/>
		</g>
		<g>
			<path fill="#980C27" d="M143.084,174.367c-0.08,0-0.155,0.038-0.192,0c-0.309,0-0.574-0.114-0.843-0.269
				c-0.307-0.23-0.498-0.573-0.498-0.919c-0.037-0.421,0.039-0.727,0.306-1.033c0.192-0.27,0.496-0.458,0.881-0.458
				c16.765-1.993,32.879-4.364,48.381-7.236c-0.27,0.957-0.459,1.915-0.613,2.911c-15.08,2.756-30.772,5.09-47.039,6.964
				C143.312,174.367,143.196,174.367,143.084,174.367"/>
		</g>
		<g>
			<path fill="#980C27" d="M195.825,176.355c0.459,1.419,1.225,2.603,2.297,3.637c3.099,3.215,6.965,4.9,11.558,5.052h0.115v-0.038
				h0.077c0.116,0,0.191,0.038,0.307,0.038c0.075,0,0.075,0,0.152-0.038v0.038h0.078c0.036,0.116,0.112,0.27,0.227,0.383
				c0.115,0.229,0.231,0.423,0.308,0.65c0.152,0.268,0.307,0.499,0.463,0.688c1.337,2.069,2.713,3.792,4.245,5.093h0.039
				c1.607,1.377,3.673,1.99,6.276,1.912c0.458-0.075,0.726-0.19,0.879-0.535c0.269-0.191,0.424-0.575,0.424-1.069
				c0-1.913-0.424-3.753-1.189-5.59c-0.227-0.461-0.459-0.92-0.652-1.301c-0.378-0.767-0.763-1.492-1.22-2.22
				c0.379,0.267,0.801,0.495,1.184,0.728c0.346,0.229,0.727,0.419,1.075,0.688c0.149,0.037,0.226,0.114,0.379,0.15
				c2.453,1.762,4.747,2.258,6.931,1.569c1.797-0.65,2.677-1.683,2.641-2.984c0-0.19,0-0.343,0.036-0.498
				c-0.306-0.881-0.84-1.646-1.646-2.41c-0.42-0.499-0.879-0.92-1.455-1.304c-1.76-1.184-3.633-2.257-5.549-3.177
				c-1.188-0.573-2.376-1.071-3.596-1.565c0.267,0,0.571,0.037,0.801,0.074c2.027,0.232,4.056,0.232,6.125,0.114
				c0.535-0.038,1.071-0.114,1.567-0.228c1.609-0.155,2.833-0.501,3.638-1.034c0.114-0.115,0.23-0.269,0.307-0.421
				c0.269-0.614,0.308-1.263,0.076-1.835c-0.152-0.501-0.459-0.957-0.88-1.343v-0.036c-0.421-0.422-0.92-0.766-1.454-1.034v-0.038
				c-1.687-0.843-3.443-1.571-5.205-2.105h-0.038c-1.381-0.422-2.796-0.805-4.25-1.035c0,0-0.459-0.153-1.34-0.346
				c-0.882-0.229-2.065-0.42-3.601-0.611c-1.489-0.15-3.097-0.344-4.818-0.46c0-0.074,0-0.074,0.077-0.114
				c0.113-0.036,0.226-0.076,0.343-0.076c0.613-0.19,1.224-0.382,1.838-0.574c0.879-0.19,1.914-0.533,3.023-1.11
				c1.226-0.611,2.031-1.069,2.372-1.415c0.306-0.345,0.498-0.881,0.611-1.568c-0.037-3.023-1.566-4.555-4.669-4.632h-0.037
				c-3.288,0.115-6.047,0.88-8.191,2.336c-2.066,1.148-3.751,2.908-5.053,5.242c-0.191,0.307-0.344,0.575-0.535,0.882
				c-0.115,0.151-0.229,0.307-0.421,0.419c-0.843,0.728-1.604,1.492-2.372,2.259c-0.117,0.153-0.27,0.192-0.383,0.269
				c-1.071,0.345-2.104,0.649-3.179,0.765c-1.337,0.269-2.678,0.498-4.057,0.768c0.155-0.996,0.347-1.954,0.61-2.911
				c1.227-0.228,2.453-0.421,3.678-0.651l1.605-0.343l0.884-0.958c0.19-0.114,0.342-0.306,0.533-0.497
				c0.574-0.461,1.076-1.032,1.531-1.645c0.229-0.346,0.498-0.652,0.689-0.995c1.415-1.8,2.946-3.292,4.593-4.44
				c2.183-1.569,5.587-2.643,10.143-3.216v-0.039c4.977,0.115,7.425,2.604,7.348,7.464v0.117c-0.115,1.261-0.571,2.371-1.415,3.29
				c1.8,0.228,3.558,0.652,5.32,1.226c1.913,0.574,3.79,1.34,5.628,2.257v0.038c0.802,0.346,1.531,0.918,2.142,1.608
				c0.69,0.65,1.188,1.418,1.494,2.299v0.037c0.457,1.299,0.381,2.524-0.078,3.788c-0.306,0.688-0.689,1.224-1.263,1.608
				c-0.764,0.572-1.875,1.071-3.289,1.338c2.37,1.457,3.862,3.177,4.437,5.245v0.037c0.115,0.269,0.156,0.537,0.193,0.803
				c0,0.193,0,0.422-0.078,0.614c0.078,2.449-1.416,4.21-4.516,5.358c-1.914,0.651-3.827,0.651-5.818-0.038
				c0.535,1.606,0.803,2.908,0.803,3.902c0,2.451-1.183,3.714-3.56,3.829c-3.405,0.154-6.164-0.688-8.229-2.563
				c-1.875-1.608-3.559-3.673-5.09-6.202c-4.859-0.306-9.032-2.183-12.402-5.588c-0.954-0.956-1.759-2.027-2.446-3.178
				c-0.154-0.305-0.306-0.572-0.424-0.879l-2.602,0.537c-0.191-0.881-0.383-1.8-0.459-2.72l4.977-0.958
				C195.559,175.4,195.709,175.858,195.825,176.355 M210.254,185.16L210.254,185.16h-0.075H210.254z"/>
		</g>
		<g>
			<path fill="#D72C1B" d="M227.134,174.443c0.535-0.04,1.071-0.116,1.567-0.229c1.609-0.154,2.833-0.501,3.638-1.034
				c0.114-0.114,0.23-0.269,0.307-0.421c0.269-0.612,0.308-1.263,0.076-1.835c-0.152-0.501-0.459-0.96-0.88-1.341v-0.04
				c-0.421-0.42-0.918-0.764-1.454-1.032v-0.038c-1.687-0.843-3.443-1.57-5.207-2.105h-0.036c-1.381-0.422-2.796-0.806-4.25-1.034
				c0,0-0.459-0.154-1.342-0.347c-0.88-0.229-2.063-0.42-3.595-0.609c-1.493-0.155-3.101-0.346-4.82-0.462
				c0-0.074,0-0.074,0.075-0.114c0.114-0.036,0.226-0.076,0.345-0.076c0.609-0.192,1.222-0.382,1.836-0.572
				c0.879-0.192,1.914-0.537,3.023-1.11c1.226-0.614,2.029-1.07,2.372-1.418c0.306-0.344,0.498-0.88,0.614-1.566
				c-0.04-3.024-1.569-4.556-4.67-4.633h-0.039c-3.291,0.115-6.047,0.88-8.19,2.334c-2.067,1.15-3.752,2.91-5.054,5.244
				c-0.189,0.306-0.344,0.576-0.535,0.882c-0.115,0.151-0.229,0.306-0.421,0.419c-0.843,0.728-1.605,1.492-2.372,2.258
				c-0.113,0.154-0.27,0.193-0.383,0.27c-1.072,0.345-2.107,0.65-3.176,0.765c-1.342,0.27-2.681,0.498-4.06,0.768
				c-15.078,2.756-30.771,5.09-47.038,6.964c-0.154,0.04-0.27,0.04-0.382,0.04c-0.08,0-0.155,0.036-0.193,0
				c0.076,0.306,0.113,0.649,0.27,0.957c0.571,1.569,1.337,3.062,2.257,4.401c0.728,0.955,1.416,1.989,2.145,2.909
				c0.114-0.078,0.267-0.154,0.42-0.192c0.078-0.039,0.114-0.039,0.193-0.039c14.236-1.53,27.94-3.596,41.067-6.238l1.225-0.268
				l4.977-0.957c0.115,0.46,0.266,0.92,0.384,1.415c0.457,1.419,1.223,2.604,2.295,3.637c3.099,3.215,6.965,4.898,11.558,5.052
				h0.115v-0.038h0.076c0.117,0,0.192,0.038,0.308,0.038c0.075,0,0.075,0,0.152-0.038v0.038h0.078
				c0.036,0.117,0.112,0.267,0.227,0.383c0.115,0.229,0.231,0.423,0.308,0.65c0.152,0.268,0.307,0.498,0.46,0.688
				c1.341,2.069,2.716,3.792,4.248,5.093h0.035c1.611,1.379,3.677,1.989,6.28,1.914c0.458-0.077,0.726-0.193,0.882-0.535
				c0.266-0.193,0.421-0.577,0.421-1.071c0-1.915-0.421-3.753-1.189-5.591c-0.228-0.458-0.455-0.919-0.649-1.3
				c-0.381-0.767-0.766-1.492-1.223-2.22c0.379,0.267,0.801,0.497,1.184,0.728c0.346,0.229,0.727,0.419,1.072,0.688
				c0.155,0.037,0.229,0.114,0.385,0.15c2.448,1.762,4.742,2.258,6.928,1.569c1.797-0.65,2.677-1.683,2.641-2.984
				c0-0.19,0-0.344,0.036-0.498c-0.306-0.881-0.84-1.646-1.646-2.408c-0.42-0.499-0.879-0.92-1.455-1.303
				c-1.762-1.187-3.633-2.26-5.549-3.18c-1.185-0.57-2.373-1.071-3.596-1.565c0.265,0,0.571,0.037,0.801,0.074
				C223.038,174.56,225.064,174.56,227.134,174.443"/>
		</g>
		<g>
			<path fill="#D72C1B" d="M117.325,184.698c0.036-0.076,0.076-0.15,0.114-0.189c1.032-1.571,1.724-3.329,2.065-5.242
				c0.269-1.455,0.231-2.871-0.078-4.212c-0.074,0.039-0.151,0.076-0.229,0.076c-0.152,0-0.346,0.038-0.497,0.076
				c-15.651,1.723-30.85,2.872-45.624,3.601l-8.803,0.269c-0.307-0.231-0.574-0.499-0.919-0.729
				c-0.307-0.268-0.613-0.535-0.996-0.728c-0.763-0.497-1.567-0.804-2.448-0.958l-2.489-2.181c-1.261-0.995-2.564-1.722-3.864-2.142
				c-2.067-0.652-3.829-1.034-5.242-1.074c-1.302-0.037-2.031-0.073-2.185-0.073c-0.379,0.113-0.763,0.188-1.224,0.305H44.87
				c-2.871,0.765-4.021,2.563-3.369,5.357c0.037,0.04,0.037,0.076,0.076,0.114c0.041,0.115,0.076,0.231,0.151,0.307
				c0.461,0.843,1.15,1.303,2.146,1.493c1.187,0.23,2.372,0.192,3.558-0.074c1.035-0.231,1.99-0.424,2.987-0.538l-0.461,0.23
				c-1.223,0.651-2.373,1.416-3.405,2.295c-0.423,0.344-0.878,0.69-1.302,1.034c-0.382,0.229-0.726,0.46-1.109,0.688
				c-0.152,0.078-0.307,0.153-0.461,0.191c-2.257,1.11-4.592,1.646-7.117,1.607c-2.261-0.037-4.06,0.114-5.361,0.496
				c-0.956,0.271-1.606,0.768-1.991,1.532h-0.037c-0.268,0.805-0.268,1.684,0,2.68c0.384,1.11,1.072,2.106,2.028,2.986
				c0.614,0.499,1.265,0.804,2.032,0.842V192.7h0.037c0.385-0.767,0.957-1.338,1.685-1.801c0.574-0.418,1.225-0.725,1.914-0.918
				c0.306-0.114,0.648-0.19,0.994-0.228c0.804-0.077,1.529-0.077,2.259-0.114v0.037c-1.034,0.268-1.99,0.765-2.794,1.492
				c-1.035,0.921-1.533,1.989-1.608,3.254c0,0.498,0.038,0.994,0.152,1.492c0.193,0.765,0.726,1.377,1.493,1.76
				c0.996,0.574,1.99,0.728,3.139,0.612l0.154-0.346c0.111-0.228,0.227-0.457,0.381-0.686c0.192-0.612,0.612-1.189,1.148-1.687
				c0.766-0.688,1.646-1.187,2.565-1.529c1.071-0.345,2.18-0.499,3.328-0.384c0.879,0.039,1.762,0.231,2.529,0.536l0.955,0.383
				c-0.649-0.038-1.339,0-2.104,0.039c-0.959,0.115-1.878,0.307-2.719,0.573c-1.111,0.345-2.066,0.92-2.755,1.799
				c-0.806,0.879-1.072,1.952-0.921,3.102c0.423,1.453,1.572,2.372,3.523,2.68c2.716,0.343,5.586-0.154,8.61-1.456
				c2.985-1.262,5.168-3.33,6.508-6.2c0.113-0.152,0.192-0.307,0.343-0.46c0.154-0.114,0.306-0.191,0.537-0.269
				c0.151-0.037,0.343-0.115,0.498-0.19c2.37-0.918,4.094-2.486,5.128-4.859c0.306-0.691,0.651-1.38,0.957-2.068l7.425-0.153
				c12.783-0.381,25.913-1.377,39.424-3.025c0.266,0,0.458,0,0.688,0.079c0.076,0.037,0.231,0.114,0.346,0.228
				C117.132,184.469,117.248,184.548,117.325,184.698"/>
		</g>
		<g>
			<path fill="#980C27" d="M117.554,185.275c-0.038-0.192-0.117-0.422-0.229-0.577c-0.077-0.15-0.194-0.227-0.27-0.304
				c-0.114-0.115-0.27-0.192-0.346-0.229c-0.229-0.079-0.422-0.079-0.688-0.079c-13.511,1.648-26.641,2.645-39.424,3.025
				l-7.425,0.152c-0.306,0.689-0.651,1.378-0.957,2.069c-1.034,2.371-2.758,3.941-5.131,4.857c-0.152,0.078-0.344,0.155-0.495,0.192
				c-0.231,0.077-0.383,0.154-0.537,0.27c-0.15,0.152-0.228,0.307-0.343,0.459c-1.34,2.87-3.522,4.937-6.508,6.202
				c-3.024,1.3-5.895,1.797-8.61,1.454c-1.954-0.308-3.101-1.226-3.523-2.68c-0.153-1.149,0.115-2.223,0.921-3.102
				c0.688-0.879,1.644-1.454,2.753-1.799c0.843-0.27,1.762-0.458,2.721-0.573c0.765-0.038,1.454-0.077,2.104-0.038l-0.955-0.386
				c-0.768-0.303-1.65-0.495-2.529-0.533c-1.148-0.116-2.258,0.038-3.328,0.383c-0.919,0.343-1.8,0.841-2.565,1.529
				c-0.536,0.499-0.956,1.074-1.148,1.685c-0.154,0.23-0.27,0.46-0.381,0.686l-0.154,0.349c-1.148,0.114-2.144-0.039-3.141-0.613
				c-0.763-0.381-1.3-0.995-1.491-1.76c-0.114-0.498-0.152-0.997-0.152-1.492c0.076-1.265,0.573-2.336,1.608-3.254
				c0.804-0.728,1.76-1.225,2.794-1.492v-0.037c-0.729,0.037-1.457,0.037-2.259,0.114c-0.346,0.037-0.688,0.111-0.995,0.228
				c-0.688,0.191-1.339,0.497-1.913,0.918c-0.728,0.463-1.3,1.034-1.685,1.801h-0.04v0.038c-0.764-0.038-1.415-0.345-2.029-0.843
				c-0.956-0.879-1.643-1.875-2.028-2.984c-0.268-0.997-0.268-1.876,0-2.681h0.037c0.385-0.765,1.035-1.262,1.991-1.532
				c1.302-0.382,3.101-0.533,5.36-0.496c2.526,0.039,4.861-0.497,7.118-1.607c0.154-0.037,0.309-0.113,0.461-0.191
				c0.382-0.229,0.728-0.459,1.109-0.688c0.424-0.344,0.879-0.69,1.302-1.034c1.032-0.881,2.183-1.644,3.405-2.295l0.462-0.23
				c-0.998,0.114-1.953,0.306-2.988,0.538c-1.186,0.267-2.371,0.302-3.558,0.074c-0.996-0.192-1.686-0.65-2.146-1.493
				c-0.075-0.076-0.113-0.191-0.151-0.307c-0.039-0.038-0.039-0.074-0.076-0.114c-0.651-2.795,0.498-4.593,3.369-5.357h0.037
				c0.461-0.116,0.845-0.191,1.224-0.305c0.153,0,0.883,0.035,2.185,0.076c1.413,0.037,3.175,0.421,5.242,1.07
				c1.3,0.421,2.604,1.149,3.864,2.143l2.489,2.181c0.881,0.155,1.686,0.461,2.448,0.959c0.383,0.191,0.689,0.459,0.996,0.727
				c0.345,0.229,0.612,0.499,0.919,0.728l8.803-0.27c14.776-0.726,29.973-1.875,45.624-3.595c0.151-0.041,0.345-0.079,0.497-0.079
				c0.077,0,0.154-0.037,0.229-0.076c0.27-0.076,0.5-0.229,0.689-0.421c0.231-0.267,0.308-0.649,0.271-1.032
				c-0.039-0.383-0.231-0.69-0.537-0.881c-0.266-0.268-0.614-0.383-0.997-0.268c-16.226,1.8-31.96,2.984-47.268,3.673l-6.621,0.192
				c-0.497-0.611-1.148-1.034-1.838-1.38c-1.874-0.88-3.599-2.066-5.13-3.52c-1.184-0.804-2.335-1.339-3.56-1.724
				c-2.411-0.803-4.399-1.185-6.084-1.223c-1.722-0.038-2.642-0.038-2.793,0.038h-0.04c-0.38,0.038-0.802,0.114-1.263,0.269h-0.039
				c-4.707,1.188-6.505,4.132-5.397,8.802c0.039,0.039,0.039,0.039,0.039,0.115c0.421,1.264,1.188,2.259,2.297,2.984
				c-1.453,0.499-2.985,0.767-4.554,0.767c-2.641-0.076-4.708,0.153-6.165,0.573c-1.835,0.574-3.06,1.53-3.75,2.985v0.038
				c-0.649,1.38-0.728,2.986-0.152,4.71v0.037c0.537,1.608,1.494,2.984,2.795,4.211h0.038c1.069,0.916,2.297,1.454,3.674,1.567
				c0.115,1.074,0.768,2.337,1.763,3.83c0.075,0.074,0.152,0.15,0.266,0.229c1.146,1.07,2.947,1.607,5.358,1.492
				c0.688,2.487,2.641,3.941,5.78,4.399c3.175,0.422,6.542-0.075,10.067-1.606c3.481-1.492,6.047-3.826,7.691-7.042
				c0.42-0.192,0.881-0.383,1.264-0.536c1.453-0.69,2.642-1.646,3.676-2.832c0.956-1.031,1.607-2.221,2.104-3.483l6.158-0.19
				c12.708-0.423,25.765-1.417,39.159-3.025c0.381-0.039,0.687-0.229,0.955-0.497C117.476,186.001,117.63,185.656,117.554,185.275"
				/>
		</g>
		<g>
			<path fill="#009844" d="M54.437,169.697"/>
		</g>
		<g>
			<path fill="#D72C1B" d="M180.896,153.391l-3.558,0.689c-37.013,9.951-75.172,13.664-114.481,11.022
				c2.64,1.877,5.515,3.562,8.613,5.092c7.846,3.865,16.571,6.392,26.14,7.693c9.952,1.34,20.133,1.187,30.545-0.422
				c5.091-0.805,9.991-1.875,14.773-3.29c4.287-1.379,8.651-2.911,13.091-4.593c4.403-1.725,8.804-4.021,13.205-7.044
				C173.627,159.514,177.531,156.531,180.896,153.391"/>
		</g>
		<g>
			<path fill="#D72C1B" d="M126.896,163.382c-2.721,0.801-4.75,1.604-6.128,2.373c-1.031,0.535-1.989,1.225-2.794,2.104
				c-0.843,0.921-1.722,1.876-2.64,2.986c-0.537,0.651-0.993,1.225-1.302,1.608c-0.115,0.152-0.192,0.266-0.306,0.382
				c-2.602,3.826-4.593,8.727-5.817,14.658c-1.341,6.124-2.374,11.561-3.102,16.461c-0.037,0.036-0.037,0.036-0.037,0.111
				c-1.992,9.456,0.765,16.996,8.266,22.775c7.003,5.282,15.502,7.577,25.491,6.852c10.182-0.65,17.568-4.327,22.199-10.947
				c5.318-7.809,5.129-18.027-0.497-30.658c-1.646-3.714-3.676-7.578-6.085-11.634c-2.641-4.48-4.821-7.962-6.544-10.413
				c-0.232-0.574-0.691-1.34-1.304-2.296c-0.993-1.339-1.568-2.106-1.682-2.297c-0.384-0.575-0.728-0.955-0.961-1.226
				c-0.458-0.418-1.146-0.803-1.988-0.995C139.294,162.693,134.394,162.693,126.896,163.382 M125.323,165.179h-0.306l0.268-0.115
				L125.323,165.179z"/>
		</g>
	</g>
</g>
<g id="guide" display="none">
</g>
</svg>
