<?xml version="1.0" encoding="utf-8"?>
<!-- Generator: Adobe Illustrator 16.2.1, SVG Export Plug-In . SVG Version: 6.00 Build 0)  -->
<!DOCTYPE svg PUBLIC "-//W3C//DTD SVG 1.1//EN" "http://www.w3.org/Graphics/SVG/1.1/DTD/svg11.dtd">
<svg version="1.1" xmlns="http://www.w3.org/2000/svg" xmlns:xlink="http://www.w3.org/1999/xlink" x="0px" y="0px"
	 width="809.959px" height="76.496px" viewBox="0 0 809.959 76.496" enable-background="new 0 0 809.959 76.496"
	 xml:space="preserve">
<g id="base" display="none">
</g>
<g id="book3" display="none">
</g>
<g id="_x38_" display="none">
</g>
<g id="_x37_" display="none">
</g>
<g id="_x36_">
	<g>
		<path d="M56.913,28.982c-0.192,0.384-0.672,0.672-1.056,0.912c-5.424,15.697-12.913,25.154-25.874,31.683
			c-1.008-1.344-2.784-3.408-4.513-4.608c12.001-5.616,19.01-14.065,22.61-24.818H33.967c-2.4,3.648-6.289,7.873-10.225,10.993
			c-1.152-1.152-3.312-2.928-4.944-3.937c6.241-4.752,12.145-12.337,15.073-20.354l7.633,1.776
			c-0.192,0.576-0.816,0.864-1.584,0.864c-0.768,1.728-1.728,3.408-2.544,4.992h13.681l0.864-0.432L56.913,28.982z"/>
		<path d="M68.147,31.767c1.344,2.881,2.784,7.297,3.409,10.177l-4.657,1.296c-0.624-2.976-1.92-7.2-3.264-10.177L68.147,31.767z
			 M96.085,32.871c-0.144,0.384-0.576,0.672-1.2,0.624c-3.936,14.161-11.377,22.514-22.322,26.93c-0.624-0.96-2.16-2.88-3.264-3.792
			c10.273-3.84,17.474-11.473,20.69-25.73L96.085,32.871z M79.62,29.751c1.008,2.928,1.92,7.536,2.304,10.561l-4.896,1.008
			c-0.384-3.168-1.344-7.536-2.352-10.608L79.62,29.751z"/>
		<path d="M125.648,46.888l1.632,13.97l-6.24,0.672l-1.536-13.873l-16.85,2.208l-0.672-5.616l16.897-2.16l-1.008-8.401
			l-13.729,1.776l-0.672-5.616l13.777-1.824l-1.008-8.688l7.632-0.288c0.048,0.479-0.336,0.96-1.248,1.2l0.72,7.008l13.345-1.775
			l0.672,5.712l-13.345,1.729l0.96,8.353l16.946-2.112l0.672,5.568L125.648,46.888z"/>
		<path d="M148.125,36.471h40.083v6.049h-38.067c-0.288,0.48-0.96,0.816-1.632,0.912L148.125,36.471z"/>
		<path d="M211.404,20.006c-0.096,0.672-0.72,0.912-1.584,1.008c-0.432,2.353-1.152,6.48-1.68,9.265
			c1.248-0.144,2.976-0.288,3.936-0.288c7.921-0.048,10.369,5.521,10.369,13.01v0.048c-0.192,10.608-3.168,18.146-10.513,18.146
			c-1.92,0-4.8-0.912-8.641-3.937c0.768-1.488,1.536-3.456,2.016-5.185c3.264,2.305,5.137,2.881,6.433,2.881
			c2.016,0,2.976-1.633,3.745-4.369c0.624-2.112,1.008-6.096,1.008-7.872c-0.048-4.753-1.488-7.153-4.896-7.153
			c-1.152,0-2.784,0.097-4.608,0.337c-2.16,8.784-4.8,17.329-8.881,25.058l-5.568-2.736c3.937-7.104,6.385-13.777,8.305-21.649
			c-1.728,0.288-5.185,0.768-7.296,1.152l-0.528-5.953l8.929-1.008c0.624-3.505,1.249-7.537,1.68-11.569L211.404,20.006z
			 M223.549,27.062c-1.008-2.017-3.648-5.185-5.568-6.673l2.832-1.968c2.16,1.775,4.561,4.608,5.712,6.624L223.549,27.062z
			 M229.886,46.264c-1.152-6.145-4.272-12.433-7.969-15.793l5.088-3.168c4.417,4.08,7.921,10.465,9.169,16.753L229.886,46.264z
			 M231.086,25.094c-1.008-1.968-3.648-5.136-5.521-6.672l2.784-1.921c2.16,1.729,4.608,4.561,5.712,6.625L231.086,25.094z"/>
		<path d="M269.86,27.158c0.336-0.048,0.672-0.048,0.96-0.048c3.888,0,10.801,2.448,10.801,10.369
			c0,6.912-4.896,10.753-11.521,10.753c-2.496,0-5.856-0.769-9.121-3.36c0.48-1.248,1.056-3.456,1.488-5.041
			c2.592,2.064,5.28,2.881,7.296,2.881c3.264,0,5.568-1.872,5.568-5.232c0-2.017-1.2-4.801-6.048-4.801
			c-3.408,0-8.161,1.488-13.153,3.312c2.544,8.545,5.473,18.098,7.009,24.578l-6.577,1.392c-1.152-6.48-3.936-16.321-6.145-23.81
			c-2.832,1.104-6.528,2.353-9.025,3.36c-0.048,0.432-0.384,0.864-0.912,1.104l-2.304-6.336c2.736-0.864,7.104-2.257,10.657-3.505
			c-1.296-4.271-2.496-8.208-3.601-11.521l7.777-1.344c0.048,0.624-0.288,0.863-1.056,1.248c0.672,2.399,1.584,5.856,2.688,9.601
			c4.32-1.488,8.064-2.641,11.185-3.168c-2.256-2.064-5.377-4.321-7.537-5.521l3.889-3.648c3.312,1.488,7.776,4.8,9.745,6.912
			L269.86,27.158z"/>
		<path d="M295.807,21.83c-0.096,0.479-0.672,0.864-1.296,0.96c-1.296,5.425-2.544,14.065-2.544,18.481
			c0,2.064,0.048,4.32,0.24,6.289c0.816-1.776,2.497-5.137,3.696-7.345l3.504,4.464c-1.344,1.92-3.744,5.856-4.752,8.353
			c-0.384,0.864-0.576,1.633-0.576,2.545c0,0.527,0.048,1.104,0.192,1.775l-5.905,0.961c-1.296-4.081-2.208-10.129-2.208-16.85
			c0-6.529,1.008-14.737,2.064-20.643L295.807,21.83z M301.183,31.671c2.64,0,8.257-0.096,11.329-0.336
			c-0.24-5.568-0.576-11.089-0.816-12.434l7.969,0.24c-0.048,0.528-0.576,1.152-1.44,1.344c0.048,2.257,0.192,6.48,0.336,10.514
			c2.592-0.24,6-0.721,8.208-1.345l0.528,5.904c-2.353,0.48-5.281,0.864-8.545,1.104c0.048,0.528,0.048,2.641,0.048,3.168
			c0,10.033-2.496,17.474-11.329,22.322c-0.816-0.96-3.601-3.312-4.849-4.128c8.401-4.272,10.081-10.081,10.081-17.618l-0.048-3.456
			c-2.928,0.192-7.584,0.288-11.329,0.288L301.183,31.671z"/>
		<path d="M345.43,37.671c2.641-1.151,6.385-1.775,9.169-1.775c7.297,0,12.337,4.464,12.337,12.001
			c0,8.593-7.488,13.585-17.954,13.585c-6.192,0-10.561-2.832-10.561-7.681c0-3.889,3.936-7.057,8.449-7.057
			c5.088,0,8.929,3.408,9.745,7.585c2.353-1.152,3.984-3.409,3.984-6.385c0-4.129-3.408-6.769-8.257-6.769
			c-6.528,0-12.577,2.736-15.985,5.952c-1.152,1.057-3.072,2.977-4.32,4.368l-4.272-4.272c3.409-3.408,15.505-14.881,21.938-20.833
			c-2.352,0.336-10.657,0.768-14.497,1.008c-0.144,0.336-0.72,0.624-1.152,0.72l-0.528-6.769c6.145,0,19.682-0.528,22.85-1.056
			l0.72-0.336l3.889,4.896c-0.288,0.288-0.864,0.479-1.392,0.527c-2.497,1.824-10.225,8.737-14.162,12.241V37.671z M347.974,56.249
			c0.816,0,2.304-0.145,2.928-0.288c-0.336-2.544-2.352-4.368-4.512-4.368c-1.584,0-3.024,0.815-3.024,2.208
			C343.366,56.057,346.39,56.249,347.974,56.249z"/>
		<path d="M372.097,24.326c2.928,0.192,7.537,0.192,11.137,0.192c1.536,0,3.121-0.049,4.561-0.097
			c-0.048-2.063-0.096-4.416-0.096-5.856l7.488,0.336c-0.048,0.528-0.48,0.864-1.248,1.009v4.32
			c4.944-0.288,9.937-0.673,14.545-1.633l0.576,5.568c-4.512,0.769-9.312,1.152-15.121,1.44c0,2.256,0.048,4.465,0.096,6.673
			c4.32-0.336,9.073-0.96,12.097-1.632l0.48,5.328c-3.168,0.672-7.969,1.152-12.481,1.392c0.048,2.353,0.192,4.513,0.288,6.241
			c4.369,1.439,8.833,3.744,12.961,6.769l-3.648,5.232c-2.977-2.688-6.097-4.705-9.121-6.192v1.392
			c-0.096,3.937-3.312,6.625-10.033,6.625c-6.384,0-10.705-3.12-10.705-7.681c0-4.849,5.136-7.729,10.945-7.729
			c1.2,0,2.448,0.048,3.696,0.287c0-1.439-0.096-3.072-0.144-4.8c-1.296,0.048-2.64,0.048-3.744,0.048
			c-6.529-0.096-10.609-1.056-10.561-4.608c0-2.017,1.488-3.841,4.992-5.952l4.081,2.111c-1.728,0.769-2.928,1.633-2.928,2.353
			c0,0.769,0.624,1.152,5.424,1.152c0.816,0,1.68,0,2.592-0.048l-0.288-6.816c-1.488,0.048-3.168,0.048-4.705,0.048
			c-3.312,0-8.161-0.097-11.137-0.097V24.326z M388.659,51.208c-1.44-0.384-2.977-0.672-4.272-0.672
			c-2.976,0-5.232,1.248-5.232,3.12c0,1.921,2.352,2.929,5.473,2.929c2.832,0,4.08-1.2,4.08-3.504L388.659,51.208z"/>
		<path d="M414.708,23.462c1.487,0,3.696-0.048,5.04-0.144c5.521-0.385,26.258-1.681,34.371-2.064l0.096,6.48
			c-4.272-0.144-6.624,0.24-10.417,2.929c-5.28,3.504-11.809,10.129-11.809,15.601c0,5.473,4.849,8.641,15.361,9.745l-2.977,6.001
			c-13.633-1.633-19.01-7.394-19.01-15.698c0-5.856,5.377-13.44,12.577-18.481c-5.952,0.528-17.041,1.393-21.458,1.872
			c-0.096,0.385-0.72,0.721-1.151,0.816L414.708,23.462z M446.774,34.887c2.064,1.681,4.561,4.465,5.856,6.48l-2.832,2.257
			c-1.057-1.872-3.937-5.089-5.665-6.577L446.774,34.887z M452.486,30.614c2.161,1.729,4.608,4.32,5.857,6.433l-2.785,2.208
			c-1.104-1.775-3.792-4.944-5.712-6.528L452.486,30.614z"/>
		<path d="M479.618,58.457V28.503h-0.097l-6.24,3.264l-1.536-5.088l8.833-4.513h5.952v36.291H479.618z"/>
		<path d="M493.623,40.407c0-11.041,4.081-18.817,12.241-18.817c8.545,0,11.857,8.448,11.857,18.529
			c0,12.001-4.465,18.866-12.097,18.866C497.175,58.985,493.623,50.536,493.623,40.407z M505.72,53.368
			c3.264,0,4.896-4.608,4.896-13.104c0-8.209-1.488-13.058-4.849-13.058c-3.072,0-5.04,4.417-5.04,13.058
			c0,8.593,1.775,13.104,4.944,13.104H505.72z"/>
		<path d="M524.054,24.038c5.041-0.24,10.753-0.96,13.298-1.776c1.536-0.432,2.352-0.96,3.168-1.632l4.513,4.128
			c-6.001,4.225-11.714,13.97-11.714,21.554c0,5.809,3.697,8.93,9.409,8.93c10.081,0,10.081-7.345,10.081-10.033
			c0-4.992-0.336-12.001-2.784-17.09l5.376-2.784c2.977,6.145,8.833,10.705,12.625,12.098l-2.352,5.952
			c-3.408-1.248-6.769-4.416-8.161-7.057h-0.048c0.769,3.553,1.057,7.2,1.057,10.272c0,12.098-9.169,14.498-15.794,14.498
			c-9.984,0-15.313-5.713-15.313-14.594c0-5.568,2.977-13.441,7.153-18.434c-2.257,0.769-5.281,1.344-8.881,1.632
			c-0.145,0.48-0.48,0.721-0.912,0.769L524.054,24.038z M559.242,26.63c-1.104-1.968-3.601-4.8-5.616-6.528l2.736-2.16
			c2.256,1.872,4.656,4.417,5.76,6.48L559.242,26.63z M566.442,25.143c-1.151-2.064-3.6-4.753-5.616-6.529l2.736-2.112
			c2.256,1.873,4.608,4.32,5.761,6.433L566.442,25.143z"/>
		<path d="M596.442,59.465c-2.4-2.112-6.289-4.608-9.217-6.048c0.096,5.472-2.208,7.92-7.921,7.92c-5.568,0-9.937-2.688-10.033-6.96
			c-0.048-4.705,4.608-7.057,9.361-7.104c0.912,0,2.496,0.048,3.408,0.191l-0.145-1.872c-0.479-5.28-0.96-13.825-0.96-18.626
			l6.385,0.433c0,0.384-0.336,0.768-1.008,0.864c0,0.96,0.096,5.521,0.096,6.576c2.544-0.048,7.776-0.672,11.521-1.392l0.432,4.896
			c-3.553,0.624-8.929,1.056-11.905,1.104c0,1.248,0.528,7.44,0.528,8.833c4.225,1.584,9.265,4.225,12.673,6.624L596.442,59.465z
			 M578.488,51.208c-2.688,0.049-4.752,1.104-4.752,3.121c0,2.352,3.072,2.88,5.088,2.88c3.409,0,3.457-2.688,3.457-3.696
			c0-0.528-0.048-1.104-0.097-1.776C580.888,51.353,579.544,51.208,578.488,51.208z"/>
		<path d="M607.892,34.983c7.44-2.017,16.562-4.033,20.401-4.033c6.577,0,12.241,3.312,12.193,11.81
			c-0.048,9.312-6.961,15.457-20.21,19.441c-0.816-1.44-2.688-3.84-4.08-5.28c11.377-2.784,17.569-7.873,17.569-13.825
			c0-3.841-1.92-6.288-5.809-6.288c-4.128,0-10.513,1.536-16.705,3.936c0.048,0.48-0.528,1.009-1.009,1.2L607.892,34.983z
			 M615.716,18.613c6.721,0.385,14.065,1.584,19.01,3.169l-1.632,6.096c-5.089-1.775-12.913-3.12-18.914-3.504L615.716,18.613z"/>
		<path d="M647.103,24.326c2.929,0.192,7.536,0.192,11.137,0.192c1.536,0,3.12-0.049,4.561-0.097
			c-0.048-2.063-0.096-4.416-0.096-5.856l7.488,0.336c-0.048,0.528-0.479,0.864-1.248,1.009v4.32
			c4.944-0.288,9.937-0.673,14.545-1.633l0.576,5.568c-4.512,0.769-9.312,1.152-15.121,1.44c0,2.256,0.048,4.465,0.096,6.673
			c4.32-0.336,9.073-0.96,12.098-1.632l0.479,5.328c-3.168,0.672-7.969,1.152-12.48,1.392c0.048,2.353,0.191,4.513,0.288,6.241
			c4.368,1.439,8.832,3.744,12.961,6.769l-3.648,5.232c-2.977-2.688-6.097-4.705-9.121-6.192v1.392
			c-0.096,3.937-3.312,6.625-10.032,6.625c-6.385,0-10.705-3.12-10.705-7.681c0-4.849,5.136-7.729,10.944-7.729
			c1.2,0,2.448,0.048,3.696,0.287c0-1.439-0.096-3.072-0.144-4.8c-1.296,0.048-2.641,0.048-3.744,0.048
			c-6.528-0.096-10.609-1.056-10.562-4.608c0-2.017,1.488-3.841,4.993-5.952l4.08,2.111c-1.729,0.769-2.929,1.633-2.929,2.353
			c0,0.769,0.624,1.152,5.425,1.152c0.816,0,1.681,0,2.592-0.048l-0.287-6.816c-1.488,0.048-3.169,0.048-4.705,0.048
			c-3.312,0-8.16-0.097-11.137-0.097V24.326z M663.665,51.208c-1.44-0.384-2.977-0.672-4.272-0.672c-2.977,0-5.232,1.248-5.232,3.12
			c0,1.921,2.353,2.929,5.473,2.929c2.832,0,4.08-1.2,4.08-3.504L663.665,51.208z"/>
		<path d="M723.224,36.711c-0.145,0.048-0.337,0.048-0.48,0.048c-0.384,0-0.816-0.096-1.104-0.288
			c-14.449,3.889-25.202,9.073-25.154,14.21c0.049,3.6,3.793,5.04,10.417,5.04c4.465,0,11.857-0.384,17.042-1.296l0.576,6.145
			c-5.521,0.72-14.737,0.912-17.474,0.912c-9.409,0-16.802-2.305-16.802-10.562c0-5.04,4.513-9.265,11.617-13.104
			c-1.776-3.456-2.305-8.785-2.256-19.154l8.544,0.673c-0.048,0.72-0.527,1.104-1.584,1.248c-0.048,1.392-0.048,2.688-0.048,3.888
			c0,4.753,0.288,8.305,1.104,10.609c4.08-1.824,8.688-3.553,13.585-5.232L723.224,36.711z"/>
		<path d="M731.669,34.983c7.44-2.017,16.562-4.033,20.401-4.033c6.577,0,12.241,3.312,12.193,11.81
			c-0.048,9.312-6.961,15.457-20.21,19.441c-0.816-1.44-2.688-3.84-4.08-5.28c11.377-2.784,17.569-7.873,17.569-13.825
			c0-3.841-1.92-6.288-5.809-6.288c-4.128,0-10.513,1.536-16.705,3.936c0.048,0.48-0.528,1.009-1.009,1.2L731.669,34.983z
			 M739.494,18.613c6.721,0.385,14.065,1.584,19.01,3.169l-1.632,6.096c-5.089-1.775-12.913-3.12-18.914-3.504L739.494,18.613z"/>
		<path d="M777.765,54.377c0-2.545,2.064-4.656,4.608-4.656s4.561,2.111,4.561,4.656c0,2.592-2.017,4.656-4.561,4.656
			C779.733,59.033,777.765,56.873,777.765,54.377z M779.685,46.216l-1.2-24.722h7.969l-1.152,24.722H779.685z"/>
	</g>
</g>
<g id="_x35_" display="none">
</g>
<g id="_x34_" display="none">
</g>
<g id="_x33_" display="none">
</g>
<g id="_x32_" display="none">
</g>
<g id="_x31_" display="none">
</g>
<g id="_x30_" display="none">
</g>
<g id="guide" display="none">
</g>
</svg>
