<?xml version="1.0" encoding="utf-8"?>
<!-- Generator: Adobe Illustrator 16.0.0, SVG Export Plug-In . SVG Version: 6.00 Build 0)  -->
<!DOCTYPE svg PUBLIC "-//W3C//DTD SVG 1.1//EN" "http://www.w3.org/Graphics/SVG/1.1/DTD/svg11.dtd">
<svg version="1.1" id="レイヤー_1" xmlns="http://www.w3.org/2000/svg" xmlns:xlink="http://www.w3.org/1999/xlink" x="0px"
	 y="0px" width="168.697px" height="249.834px" viewBox="0 0 168.697 249.834" enable-background="new 0 0 168.697 249.834"
	 xml:space="preserve">
<g>
	<path fill="#941E28" d="M170.5,23.612l-0.016,0.008c-0.104,0.031-0.198,0.035-0.285,0.059c-0.27,0.01-0.536-0.059-0.776-0.197
		c-0.344-0.188-0.575-0.469-0.678-0.85c-0.095-0.365-0.049-0.719,0.141-1.062c0.187-0.342,0.467-0.574,0.848-0.676
		c15.921-4.41,30.635-10.002,44.143-16.778l1.209,2.548C201.444,13.522,186.579,19.167,170.5,23.612"/>
</g>
<g>
	<path fill="#941E28" d="M97.458,129.188c-10.423,0.893-17.12,3.633-20.095,8.183c-2.973,4.296-5.166,9.737-6.572,16.35
		c-1.367,6.331-2.447,12.038-3.221,17.101c-2.375,11.156,0.887,20.135,9.783,26.934l0.024,0.02c7.845,5.973,17.377,8.575,28.6,7.785
		c11.71-0.812,20.216-5.078,25.495-12.797c6.286-8.895,6.204-20.564-0.246-35.004c-1.728-3.883-3.88-8.006-6.458-12.328
		c-3.534-6.029-6.305-10.354-8.282-12.954C114.401,129.37,108.071,128.279,97.458,129.188 M97.754,132.577
		c8.858-0.753,14.184-0.11,16.007,1.95c1.908,2.544,4.604,6.746,8.085,12.632c2.504,4.201,4.604,8.198,6.279,11.979
		c5.838,13.064,6.016,23.635,0.554,31.689c-4.782,6.822-12.435,10.607-22.935,11.336c-10.333,0.712-19.1-1.658-26.322-7.11
		c-7.753-5.938-10.598-13.779-8.525-23.521c-0.002-0.042-0.006-0.085,0.014-0.108c0.775-5.02,1.839-10.682,3.207-16.993
		c1.301-6.111,3.314-11.153,6.04-15.127C82.843,135.59,88.708,133.346,97.754,132.577"/>
	<path fill="#CB301F" d="M113.764,134.527c-1.825-2.061-7.151-2.703-16.009-1.95c-9.047,0.771-14.911,3.013-17.596,6.728
		c-2.726,3.973-4.739,9.016-6.04,15.126c-1.368,6.312-2.432,11.974-3.207,16.993c-0.02,0.023-0.016,0.066-0.014,0.109
		c-2.073,9.741,0.772,17.584,8.525,23.521c7.223,5.452,15.989,7.822,26.322,7.11c10.5-0.729,18.152-4.514,22.935-11.334
		c5.462-8.056,5.284-18.627-0.554-31.691c-1.676-3.781-3.775-7.778-6.279-11.979C118.366,141.273,115.672,137.071,113.764,134.527"
		/>
	<path fill="#941E28" d="M107.978,183.443l-0.171-1.438l15.347-4.309l7.264,35.214l6.201,1.391
		c11.327,2.595,19.837,6.731,25.535,12.45c6.658,6.582,8.236,12.271,4.73,17.054l0.021-0.005c-3.009,4.678-9.532,6.625-19.543,5.878
		c-4.335-0.329-9.266-1.64-14.794-3.95c-3.771-1.574-7.838-3.625-12.201-6.158c-0.086-0.111-0.176-0.224-0.281-0.311
		c-0.184-0.156-0.389-0.308-0.58-0.507c-0.086-0.089-0.188-0.155-0.311-0.237c-0.044-0.1-0.109-0.215-0.156-0.336
		c-0.392-0.525-0.723-1.171-1.012-1.934c-0.621-1.623-1.199-3.259-1.743-4.921c-0.093-0.349-0.183-0.677-0.273-1.004
		c-0.978-3.13-1.774-6.321-2.363-9.555c-1.142-6.304-2.201-12.623-3.179-18.958C109.518,195.705,108.698,189.596,107.978,183.443
		 M129.115,216.433c-0.446-0.058-0.891-0.118-1.333-0.155l-7.171-34.347l-9.099,2.571c0.674,5.62,1.454,11.219,2.31,16.777
		c0.974,6.316,2.024,12.596,3.163,18.877c0.934,5.197,2.42,10.237,4.434,15.123l0.1,0.369c0.025,0.016,0.025,0.016,0.03,0.034
		c3.88,2.722,7.953,5.012,12.224,6.892c1.873,0.78,3.679,1.441,5.416,1.988c3.036,0.947,5.84,1.51,8.42,1.729
		c8.383,0.634,13.879-0.84,16.492-4.395c2.172-3.508,0.721-7.753-4.326-12.742c-5.645-5.557-14.205-9.53-25.668-11.946l-2.805-0.366
		C130.571,216.67,129.851,216.537,129.115,216.433"/>
	<path fill="#CB301F" d="M127.782,216.277c0.442,0.038,0.887,0.096,1.333,0.154c0.735,0.105,1.456,0.237,2.187,0.41l2.805,0.368
		c11.463,2.415,20.025,6.388,25.668,11.944c5.047,4.988,6.498,9.234,4.326,12.742c-2.613,3.555-8.109,5.028-16.49,4.396
		c-2.584-0.218-5.386-0.782-8.422-1.729c-1.737-0.547-3.543-1.208-5.416-1.988c-4.271-1.881-8.344-4.17-12.225-6.889
		c-0.004-0.021-0.004-0.021-0.029-0.038l-0.1-0.369c-2.016-4.886-3.5-9.925-4.434-15.123c-1.139-6.281-2.189-12.56-3.163-18.873
		c-0.855-5.562-1.636-11.161-2.31-16.78l9.099-2.572L127.782,216.277z"/>
	<path fill="#941E28" d="M102.147,184.956c-0.319,0.23-0.538,0.534-0.641,0.933l-9.59,35.793c-0.013,0.037-0.022,0.075-0.035,0.112
		l-1.683,6.214c-0.465,0.968-1.054,1.938-1.774,2.932c-3.269,4.689-7.859,8.52-13.771,11.441c-5.851,2.92-11.303,4.09-16.337,3.518
		l-0.019-0.008c-4.521-0.497-7.386-2.353-8.572-5.564c-1.125-3.48-0.171-7.409,2.856-11.783l-0.025,0.014
		c3.295-4.705,7.877-8.515,13.789-11.437c5.278-2.604,10.226-3.808,14.847-3.63l1.375,0.016l9.163-33.557
		c0.126-0.475,0.056-0.908-0.17-1.308c-0.083-0.13-0.172-0.241-0.262-0.351c-0.218-0.23-0.475-0.394-0.8-0.475
		c-0.476-0.125-0.903-0.074-1.315,0.188c-0.418,0.222-0.692,0.569-0.813,1.026l-8.439,30.958c-4.729,0.033-9.779,1.37-15.113,4.02
		c-6.474,3.202-11.502,7.388-15.104,12.553c-3.807,5.493-4.893,10.449-3.277,14.866c1.509,4.628,5.32,7.275,11.483,7.932
		l-0.02-0.006c5.645,0.662,11.729-0.622,18.272-3.843c6.499-3.214,11.55-7.414,15.135-12.585l-0.046,0.008
		c0.812-1.148,1.492-2.277,2.054-3.359c0.042-0.068,0.065-0.145,0.102-0.194c1.188-2.435,1.8-4.737,1.868-6.88l9.585-35.709
		c0.115-0.438,0.068-0.885-0.172-1.309c-0.09-0.174-0.223-0.338-0.393-0.453c-0.192-0.183-0.42-0.314-0.67-0.372
		c-0.438-0.116-0.871-0.044-1.283,0.22C102.27,184.89,102.202,184.91,102.147,184.956"/>
	<path fill="#CB301F" d="M101.507,185.89c0.103-0.399,0.321-0.703,0.641-0.933c0.055-0.046,0.123-0.066,0.209-0.081
		c0.412-0.263,0.846-0.334,1.283-0.22c0.25,0.059,0.478,0.189,0.67,0.373c-0.036-0.689-0.191-1.377-0.453-2.057
		c-0.951-2.25-2.655-3.729-5.097-4.426c-1.978-0.592-4.035-0.8-6.204-0.649c-0.18,0.048-0.365,0.114-0.545,0.16
		c-0.247,0.069-0.495,0.136-0.71,0.233c0.09,0.109,0.179,0.221,0.263,0.35c0.225,0.4,0.296,0.834,0.169,1.309l-9.163,33.557
		l-1.375-0.017c-4.622-0.177-9.569,1.027-14.846,3.632c-5.913,2.922-10.495,6.73-13.79,11.436l0.025-0.014
		c-3.027,4.375-3.98,8.301-2.856,11.783c1.187,3.211,4.051,5.066,8.572,5.565l0.02,0.006c5.033,0.573,10.485-0.597,16.336-3.517
		c5.912-2.922,10.502-6.752,13.771-11.441c0.721-0.993,1.31-1.963,1.774-2.932l1.683-6.213c0.014-0.038,0.024-0.076,0.035-0.113
		L101.507,185.89z"/>
	<path fill="#CB301F" d="M142.774,43.893c-0.951-0.592-1.916-1.162-2.902-1.726c-2.031-1.136-4.098-2.165-6.209-3.123
		c-1.664-0.737-3.347-1.389-5.096-1.966c-2.309-0.755-4.627-1.469-6.963-2.177c-2.339-0.709-4.718-1.249-7.15-1.656
		c-0.104-0.018-0.188-0.04-0.292-0.057c1.981-4.559,2.474-9.171,1.448-13.851c-1.354-6.17-4.815-10.917-10.374-14.262
		c-5.559-3.346-11.613-4.3-18.167-2.865C80.556,3.64,75.457,7.039,71.788,12.408c-1.333,1.954-2.336,3.956-2.985,6.019
		c-0.253-0.246-0.502-0.471-0.751-0.695c-1.189-1.042-2.492-1.957-3.927-2.744c-1.775-0.973-3.606-1.753-5.493-2.319
		c-2.215-0.696-4.487-1.019-6.846-1.002c-2.013,0.04-3.984,0.272-5.909,0.714c-1.924,0.441-3.784,1.091-5.533,1.974
		c-2.064,0.993-3.947,2.266-5.627,3.817c-1.45,1.338-2.731,2.8-3.836,4.424c-1.3,1.927-2.285,4.004-2.959,6.234
		c-0.656,2.125-0.951,4.333-0.871,6.617c0.051,1.971,0.354,3.907,0.897,5.829c0.621,2.187,1.547,4.225,2.749,6.144
		c0.521,0.827,1.455,1.884,2.801,3.189c-1.439,1.016-2.858,2.029-4.271,3.079c-1.393,1.046-2.757,2.125-4.092,3.24
		c-2.004,1.639-3.925,3.383-5.778,5.251c-1.499,1.469-2.892,2.976-4.213,4.526c-1.482,1.727-2.868,3.532-4.181,5.402
		c-1.242,1.733-2.405,3.549-3.456,5.421c-1.013,1.764-1.921,3.564-2.714,5.421c-0.762,1.828-1.379,3.665-1.853,5.529
		c-0.598,2.294-0.989,4.623-1.194,6.971c-0.213,2.308-0.24,4.654-0.067,7c0.171,2.425,0.55,4.784,1.155,7.094
		c0.61,2.328,1.385,4.583,2.34,6.755c0.932,2.136,2.079,4.187,3.409,6.138c1.333,1.969,2.835,3.803,4.47,5.506
		c1.714,1.786,3.581,3.46,5.582,5.002c1.667,1.297,3.39,2.501,5.213,3.602c1.918,1.163,3.873,2.234,5.909,3.21
		c2.128,1.035,4.336,1.973,6.583,2.821c2.311,0.854,4.624,1.63,6.937,2.322c2.333,0.691,4.704,1.271,7.114,1.766
		c2.425,0.467,4.871,0.854,7.335,1.135c2.522,0.269,5.026,0.459,7.519,0.593c2.564,0.099,5.146,0.095,7.713,0.031
		c1.971-0.052,3.95-0.165,5.885-0.37c2.014-0.221,4.023-0.461,6.037-0.682c2.039-0.287,4.07-0.612,6.107-0.998
		c2.094-0.4,4.162-0.834,6.236-1.326c2.02-0.463,4.047-0.988,6.062-1.57c1.957-0.569,3.909-1.157,5.831-1.801
		c1.883-0.633,3.755-1.321,5.612-2.068c2.406-0.99,4.762-2.024,7.077-3.154c2.284-1.081,4.526-2.272,6.704-3.572
		c2.148-1.252,4.219-2.586,6.248-4.012c2-1.378,3.961-2.85,5.861-4.407c1.877-1.572,3.679-3.209,5.408-4.909
		c1.729-1.699,3.386-3.465,4.967-5.294c1.479-1.746,2.908-3.539,4.246-5.375c0.461-0.641,0.917-1.301,1.353-1.957
		c0.731-1.141,1.439-2.297,2.101-3.484c1.255-2.216,2.334-4.516,3.236-6.876c0.869-2.25,1.539-4.581,2.02-6.951
		c0.477-2.304,0.744-4.645,0.799-7.04c0.077-2.399-0.064-4.771-0.42-7.135c-0.354-2.426-0.907-4.766-1.633-7.071
		c-0.717-2.264-1.619-4.468-2.706-6.593c-1.063-2.11-2.317-4.097-3.749-5.965c-1.504-1.932-3.143-3.736-4.887-5.394
		c-1.871-1.773-3.859-3.359-5.956-4.802C144.526,45.032,143.655,44.441,142.774,43.893"/>
	
		<path fill="none" stroke="#941E28" stroke-width="3.1288" stroke-linecap="round" stroke-linejoin="round" stroke-miterlimit="10" d="
		M114.162,33.189c0.104,0.017,0.188,0.039,0.292,0.056c2.433,0.408,4.812,0.947,7.15,1.656c2.336,0.708,4.654,1.422,6.963,2.177
		c1.749,0.577,3.432,1.229,5.096,1.966c2.111,0.958,4.178,1.986,6.209,3.123c0.986,0.564,1.951,1.134,2.902,1.726
		c0.881,0.548,1.752,1.139,2.622,1.729c2.097,1.441,4.085,3.027,5.956,4.8c1.744,1.658,3.383,3.463,4.887,5.396
		c1.432,1.868,2.686,3.854,3.749,5.964c1.087,2.125,1.987,4.329,2.706,6.593c0.726,2.305,1.279,4.645,1.633,7.071
		c0.355,2.364,0.497,4.735,0.42,7.135c-0.055,2.395-0.322,4.736-0.799,7.04c-0.48,2.37-1.152,4.7-2.02,6.951
		c-0.902,2.361-1.981,4.66-3.236,6.876c-0.661,1.187-1.369,2.343-2.101,3.484c-0.436,0.656-0.894,1.316-1.353,1.957
		c-1.338,1.836-2.768,3.629-4.246,5.375c-1.581,1.829-3.237,3.595-4.967,5.294s-3.531,3.337-5.408,4.909
		c-1.9,1.558-3.861,3.03-5.861,4.408c-2.031,1.426-4.1,2.761-6.248,4.012c-2.178,1.3-4.42,2.491-6.704,3.572
		c-2.316,1.13-4.671,2.164-7.077,3.154c-1.859,0.747-3.729,1.436-5.612,2.07c-1.922,0.642-3.874,1.229-5.831,1.799
		c-2.015,0.582-4.042,1.106-6.062,1.57c-2.074,0.492-4.142,0.926-6.236,1.326c-2.037,0.386-4.068,0.711-6.107,0.998
		c-2.013,0.221-4.024,0.461-6.037,0.682c-1.937,0.205-3.915,0.318-5.885,0.37c-2.568,0.063-5.15,0.067-7.713-0.03
		c-2.493-0.135-4.997-0.326-7.519-0.594c-2.466-0.281-4.911-0.668-7.335-1.135c-2.41-0.494-4.78-1.074-7.114-1.766
		c-2.313-0.692-4.626-1.469-6.937-2.322c-2.248-0.849-4.453-1.786-6.583-2.82c-2.036-0.977-3.992-2.048-5.909-3.211
		c-1.825-1.101-3.547-2.305-5.213-3.602c-2-1.542-3.869-3.216-5.582-5.003c-1.634-1.702-3.137-3.536-4.47-5.505
		c-1.33-1.952-2.479-4.002-3.409-6.138c-0.956-2.172-1.73-4.428-2.34-6.755c-0.605-2.31-0.984-4.669-1.155-7.094
		c-0.172-2.347-0.147-4.692,0.067-7c0.205-2.349,0.596-4.676,1.194-6.971c0.474-1.864,1.09-3.701,1.851-5.529
		c0.795-1.857,1.702-3.657,2.716-5.421c1.05-1.873,2.214-3.688,3.456-5.421c1.313-1.87,2.699-3.675,4.181-5.402
		c1.322-1.55,2.714-3.057,4.213-4.527c1.853-1.867,3.774-3.611,5.776-5.25c1.337-1.113,2.701-2.194,4.094-3.24
		c1.413-1.05,2.832-2.063,4.271-3.079"/>
	<path fill="none" stroke="#941E28" stroke-width="3.1288" stroke-miterlimit="10" d="M33.497,50.611
		c-1.347-1.306-2.281-2.361-2.801-3.188c-1.202-1.92-2.128-3.959-2.749-6.146c-0.543-1.922-0.846-3.857-0.897-5.829
		c-0.08-2.285,0.215-4.492,0.871-6.617c0.674-2.23,1.659-4.307,2.959-6.234c1.105-1.622,2.387-3.085,3.835-4.424
		c1.681-1.551,3.564-2.824,5.628-3.816c1.749-0.884,3.608-1.532,5.533-1.975c1.925-0.442,3.896-0.674,5.909-0.715
		c2.359-0.016,4.631,0.307,6.845,1.003c1.888,0.567,3.719,1.346,5.496,2.319c1.433,0.786,2.735,1.703,3.923,2.744
		c0.251,0.226,0.5,0.449,0.752,0.695c0.65-2.063,1.654-4.065,2.986-6.019c3.669-5.369,8.768-8.769,15.282-10.197
		c6.554-1.435,12.607-0.481,18.167,2.865c5.559,3.346,9.021,8.092,10.374,14.262c1.025,4.68,0.533,9.292-1.448,13.851"/>
	<path fill="#FFFFFF" d="M114.164,19.775c-1.282-5.845-4.55-10.354-9.792-13.529c-5.245-3.194-10.95-4.106-17.12-2.752
		C81.101,4.841,76.3,8.055,72.853,13.156c-1.739,2.563-2.857,5.231-3.393,7.99c-0.334-0.427-0.688-0.85-1.079-1.265
		c-0.387-0.396-0.793-0.787-1.214-1.155c-1.12-0.996-2.371-1.863-3.716-2.609c-1.681-0.914-3.419-1.633-5.203-2.183
		c-2.086-0.663-4.259-0.988-6.477-0.962c-1.895,0.034-3.764,0.265-5.594,0.686c-1.831,0.421-3.576,1.044-5.256,1.873
		c-1.954,0.948-3.73,2.158-5.335,3.611c-1.364,1.262-2.578,2.668-3.624,4.198c-1.225,1.811-2.155,3.776-2.791,5.897
		c-0.618,2.017-0.903,4.102-0.829,6.268c0.044,1.852,0.33,3.69,0.85,5.519c0.595,2.072,1.458,4.006,2.596,5.817
		c0.549,0.861,1.144,1.652,1.801,2.369c0.686,0.751,1.438,1.445,2.238,2.073c1.679,1.271,3.487,2.297,5.404,3.1
		c1.95,0.773,3.967,1.292,6.007,1.565c2.158,0.249,4.317,0.234,6.463-0.015c2.248-0.252,4.393-0.782,6.435-1.61
		c1.976-0.854,3.774-1.968,5.393-3.345c1.397-1.206,2.638-2.58,3.707-4.096c1.089-1.519,1.971-3.155,2.652-4.887
		c0.367-0.979,0.69-1.971,0.928-2.985c0.125-0.527,0.225-1.071,0.312-1.589c1.624,2.207,3.718,4.089,6.282,5.649
		c5.261,3.172,10.965,4.082,17.117,2.734c6.17-1.353,10.97-4.568,14.401-9.644C114.361,31.084,115.444,25.621,114.164,19.775"/>
	<path fill="#332C2A" d="M43.105,31.771c1.38-2.845,3.542-4.76,6.498-5.789c2.978-1.032,5.877-0.868,8.717,0.492
		c2.845,1.379,4.761,3.542,5.79,6.499c1.029,2.959,0.859,5.838-0.5,8.678c-1.379,2.845-3.542,4.761-6.5,5.79
		c-2.958,1.029-5.836,0.858-8.678-0.501c-2.84-1.358-4.755-3.521-5.789-6.499C41.596,37.488,41.746,34.613,43.105,31.771"/>
	<path fill="#332C2A" d="M94.98,19.859c-2.443-2.006-5.208-2.843-8.326-2.539c-3.135,0.306-5.699,1.669-7.709,4.093
		c-2.008,2.441-2.846,5.207-2.542,8.324c0.304,3.117,1.663,5.661,4.085,7.673c2.44,2.006,5.208,2.841,8.326,2.541
		c3.115-0.304,5.659-1.662,7.671-4.085c2.012-2.424,2.847-5.189,2.54-8.324C98.741,24.42,97.403,21.87,94.98,19.859"/>
	<path fill="#332C2A" d="M127.101,72.748c-3.685,2.288-7.436,4.352-11.295,6.199c-4.901,2.395-9.934,4.46-15.123,6.177
		c-5.449,1.814-11.229,3.482-17.351,4.966c0.5-0.189-0.918,0.1-4.23,0.886c-3.31,0.786-7.726,1.553-13.268,2.307
		c-5.54,0.755-11.024,1.118-16.45,1.125c-4.256,0.032-8.522-0.152-12.804-0.595c-3.201-0.36-6.366-0.828-9.506-1.361
		c4.876,1.693,9.88,2.978,15.019,3.855c4.637,0.785,9.359,1.231,14.145,1.324c4.268,0.106,8.51-0.083,12.743-0.592
		c4.356-0.494,7.888-1.088,10.604-1.763c2.695-0.671,4.561-1.119,5.606-1.37c1.027-0.246,2.595-0.59,4.717-1.035
		c2.125-0.445,5.238-1.407,9.337-2.887c4.014-1.42,7.926-3.118,11.736-5.094c4.282-2.2,8.342-4.691,12.199-7.459
		c4.273-3.058,8.24-6.43,11.914-10.119C132.501,69.179,129.839,71.005,127.101,72.748"/>
	<path fill="#DD8911" d="M97.258,53.58c-1.404-5.759-4.576-10.188-9.529-13.327c-4.943-3.1-10.221-3.984-15.836-2.655
		c-5.606,1.37-9.913,4.556-12.911,9.598c-2.98,5.037-3.785,10.418-2.419,16.186c1.403,5.759,4.576,10.189,9.519,13.289
		c4.954,3.138,10.233,4.023,15.837,2.653c5.615-1.331,9.92-4.516,12.919-9.558C97.839,64.724,98.659,59.339,97.258,53.58"/>
	<polygon fill="#65AE33" points="166.504,107.6 166.497,107.624 166.489,107.607 	"/>
	<path fill="#941E28" d="M77.727,137.53c0.216-0.187,0.468-0.292,0.744-0.327l7.051-0.801c0.227-0.018,0.431,0.007,0.618,0.064
		c0.188,0.058,0.367,0.17,0.514,0.306l3.387,3.192c0.362,0.366,0.719,0.748,1.051,1.139c0.194,0.198,0.285,0.443,0.29,0.701
		c-0.011,0.174-0.068,0.32-0.155,0.453c-0.561,0.818-1.154,1.616-1.807,2.384c-1.516,1.824-3.057,3.656-4.587,5.513
		c-1.445,1.761-2.875,3.53-4.288,5.348c-1.32,1.709-2.614,3.449-3.87,5.23c-1.68,2.371-3.191,4.83-4.565,7.379
		c-1.185,2.172-2.235,4.395-3.151,6.627c-1.259,3.045-2.195,6.154-2.828,9.324l2.982,1.761c0.755,0.527,1.553,1.158,2.409,1.876
		c2.778,2.307,4.641,4.357,5.564,6.158c1.143,2.111,1.425,3.898,0.862,5.326c-0.475,1.414-1.4,2.594-2.755,3.534l0.024-0.009
		c-1.481,1.031-3.054,1.246-4.716,0.604c-0.093-0.049-0.188-0.097-0.267-0.137c-0.102-0.072-0.194-0.121-0.295-0.193
		c0.236,0.615,0.47,1.271,0.711,1.988c1.38,4.132,0.852,7.098-1.564,8.871c-2.382,1.891-4.886,2.037-7.479,0.439
		c-0.583-0.361-1.152-0.754-1.68-1.186c0.009,0.023,0.007,0.064-0.009,0.096c-0.201,1.613-0.934,2.538-2.188,2.779
		c-3.378,1.414-6.454,0.22-9.22-3.604c-0.476,1-1.59,1.627-3.353,1.863c-3.232,0.481-5.491-0.844-6.743-3.963
		c-1.04-2.609-1.43-5.6-1.159-8.914c0.734-8.946,5.263-15.217,13.577-18.84c0.62-4.104,1.797-8.099,3.538-12
		c2.776-6.209,6.073-12.17,9.88-17.846C68.07,146.997,72.573,141.957,77.727,137.53 M88.058,141.963l-2.875-2.69l-5.958,0.672
		c-4.233,3.678-7.994,7.779-11.272,12.325c-1.896,2.479-3.769,5.264-5.641,8.346c-4.762,7.948-7.655,15.264-8.711,21.967
		c-0.087,0.509-0.148,1.012-0.21,1.512c-0.025,0.165-0.043,0.352-0.062,0.541c-0.221,0.083-0.456,0.158-0.687,0.256
		c-0.513,0.189-1.033,0.396-1.531,0.632c0.007-0.017,0.023-0.048,0.016-0.07c-0.498,0.236-0.965,0.489-1.43,0.742
		c-0.135,0.067-0.277,0.151-0.411,0.222c-5.709,3.133-8.837,7.957-9.373,14.494c-0.196,2.25-0.027,4.332,0.478,6.255
		c0.017,0.007,0.017,0.007,0.008,0.024c0.145,0.488,0.294,0.96,0.47,1.426c0.308,0.813,0.63,1.453,0.953,1.936
		c0.57,0.807,1.177,1.162,1.823,1.061c0.196-0.036,0.386-0.058,0.566-0.102c0.764-0.178,1.396-0.445,1.886-0.822
		c0.928-0.688,1.407-1.725,1.41-3.104c-0.191-0.969-0.33-1.812-0.437-2.521c-0.008-0.022,0-0.038-0.007-0.062
		c-0.093-0.66-0.164-1.211-0.19-1.658c0.073,0.314,0.18,0.686,0.306,1.127c0.046,0.143,0.091,0.285,0.151,0.434
		c0,0.039,0.016,0.086,0.039,0.117c0.505,1.506,1.17,2.898,2.017,4.202c1.42,2.257,2.908,3.62,4.471,4.073
		c0.947,0.271,1.906,0.213,2.876-0.173c0.133-0.03,0.26-0.083,0.385-0.136c0.878-0.438,1.183-1.523,0.947-3.284
		c-0.062-0.527-0.18-1.14-0.366-1.81c-1.226-3.399-1.913-5.434-2.077-6.113c0.956,1.938,1.851,3.606,2.673,4.959
		c0.935,1.513,1.784,2.662,2.55,3.473c0.881,0.932,1.76,1.562,2.635,1.896c1.305,0.496,2.6,0.316,3.9-0.512
		c0.205-0.132,0.396-0.27,0.594-0.425c1.039-0.825,1.043-2.977,0.001-6.498c-0.983-3.216-1.898-5.19-2.76-5.894
		c0.723,0.396,1.417,0.734,2.112,0.996c0.776,0.301,1.548,0.523,2.292,0.689c0.179,0.035,0.36,0.068,0.525,0.095
		c0.525,0.093,1.009,0.146,1.441,0.152c1.603-0.003,2.637-0.631,3.141-1.873c0.033-0.102,0.066-0.202,0.09-0.288
		c0.65-2.212-0.912-4.959-4.691-8.234c-0.938-0.822-1.908-1.58-2.905-2.252l-3.99-2.143c-0.222-0.334-0.278-0.797-0.145-1.4
		c0.1-0.422,0.185-0.852,0.252-1.292c0.76-4.485,2.176-8.751,4.242-12.82c1.201-2.362,2.535-4.675,3.994-6.923
		c1.643-2.529,3.366-5.017,5.147-7.434c1.809-2.463,3.693-4.887,5.641-7.277C84.238,146.488,86.144,144.214,88.058,141.963"/>
	<path fill="#CB301F" d="M85.182,139.272l2.875,2.69c-1.914,2.251-3.821,4.524-5.696,6.813c-1.948,2.393-3.832,4.814-5.641,7.278
		c-1.781,2.417-3.504,4.903-5.147,7.434c-1.459,2.248-2.793,4.56-3.994,6.923c-2.065,4.069-3.482,8.334-4.242,12.821
		c-0.068,0.439-0.152,0.869-0.252,1.293c-0.134,0.601-0.078,1.064,0.145,1.398l3.99,2.143c0.997,0.672,1.966,1.43,2.905,2.252
		c3.779,3.276,5.341,6.021,4.691,8.234c-0.022,0.086-0.057,0.187-0.09,0.288c-0.504,1.241-1.539,1.87-3.141,1.872
		c-0.432-0.004-0.916-0.059-1.441-0.151c-0.166-0.026-0.346-0.06-0.525-0.095c-0.744-0.166-1.516-0.389-2.292-0.69
		c-0.694-0.261-1.389-0.599-2.112-0.993c0.863,0.701,1.777,2.676,2.761,5.892c1.041,3.524,1.037,5.673-0.002,6.498
		c-0.199,0.153-0.39,0.293-0.594,0.424c-1.299,0.83-2.596,1.009-3.9,0.513c-0.875-0.332-1.753-0.965-2.635-1.895
		c-0.767-0.812-1.615-1.962-2.549-3.475c-0.822-1.354-1.719-3.021-2.674-4.959c0.164,0.68,0.851,2.715,2.077,6.112
		c0.186,0.671,0.306,1.283,0.366,1.812c0.236,1.76-0.068,2.848-0.947,3.284c-0.125,0.052-0.252,0.104-0.385,0.134
		c-0.971,0.387-1.93,0.445-2.876,0.174c-1.562-0.453-3.051-1.815-4.471-4.072c-0.846-1.306-1.511-2.697-2.017-4.203
		c-0.021-0.03-0.039-0.078-0.039-0.118c-0.06-0.147-0.105-0.29-0.151-0.432c-0.124-0.442-0.232-0.813-0.306-1.128
		c0.026,0.448,0.097,0.998,0.189,1.658c0.008,0.023,0,0.039,0.008,0.062c0.107,0.709,0.246,1.552,0.437,2.521
		c-0.002,1.379-0.481,2.418-1.41,3.104c-0.49,0.377-1.122,0.645-1.886,0.822c-0.18,0.045-0.369,0.066-0.565,0.102
		c-0.646,0.102-1.253-0.252-1.824-1.061c-0.323-0.482-0.646-1.123-0.953-1.936c-0.176-0.465-0.326-0.938-0.47-1.426
		c0.009-0.018,0.009-0.018-0.007-0.025c-0.506-1.922-0.675-4.004-0.479-6.255c0.536-6.536,3.663-11.361,9.373-14.493
		c0.133-0.068,0.276-0.154,0.411-0.223c0.465-0.252,0.933-0.505,1.43-0.741c0.007,0.023-0.009,0.054-0.016,0.07
		c0.498-0.235,1.018-0.44,1.531-0.631c0.23-0.098,0.465-0.173,0.688-0.257c0.017-0.189,0.036-0.376,0.061-0.541
		c0.062-0.501,0.123-1.003,0.21-1.512c1.056-6.705,3.95-14.019,8.711-21.967c1.873-3.083,3.745-5.867,5.641-8.346
		c3.278-4.547,7.039-8.647,11.273-12.325L85.182,139.272z"/>
	<path fill="#CB301F" d="M147.901,115.433l-3.596,0.956c-37.357,13.064-76.341,19.729-116.993,19.984
		c2.844,1.723,5.926,3.237,9.235,4.581c8.357,3.372,17.534,5.362,27.486,5.958c10.34,0.616,20.805-0.287,31.412-2.736
		c5.16-1.182,10.131-2.689,14.938-4.506c4.297-1.729,8.68-3.637,13.107-5.717c4.429-2.079,8.775-4.827,13.086-8.232
		C140.864,122.297,144.647,118.88,147.901,115.433"/>
	<path fill="#CB301F" d="M93.712,129.559c-2.788,0.82-4.896,1.623-6.32,2.41c-1.08,0.585-2.042,1.309-2.861,2.191
		c-0.878,0.932-1.793,1.951-2.74,3.08c-0.56,0.668-1.023,1.24-1.345,1.695c-0.098,0.116-0.196,0.23-0.289,0.369
		c-2.726,3.973-4.739,9.016-6.039,15.126c-1.369,6.312-2.432,11.974-3.208,16.993c-0.02,0.023-0.016,0.066-0.014,0.108
		c-2.071,9.742,0.772,17.584,8.525,23.521c7.223,5.452,15.989,7.822,26.322,7.11c10.5-0.729,18.152-4.514,22.934-11.336
		c5.463-8.055,5.285-18.627-0.553-31.689c-1.676-3.781-3.775-7.778-6.279-11.979c-2.729-4.606-4.965-8.208-6.726-10.765
		c-0.244-0.598-0.696-1.371-1.354-2.314c-1.042-1.404-1.625-2.207-1.75-2.43c-0.412-0.563-0.747-0.982-1.005-1.236
		c-0.447-0.475-1.14-0.818-2.031-1.018C106.562,128.818,101.483,128.857,93.712,129.559 M92.101,131.386
		c-0.105,0.009-0.234,0.021-0.338,0.03l0.33-0.137L92.101,131.386z"/>
</g>
</svg>
