<?xml version="1.0" encoding="utf-8"?>
<!-- Generator: Adobe Illustrator 16.0.0, SVG Export Plug-In . SVG Version: 6.00 Build 0)  -->
<!DOCTYPE svg PUBLIC "-//W3C//DTD SVG 1.1//EN" "http://www.w3.org/Graphics/SVG/1.1/DTD/svg11.dtd">
<svg version="1.1" id="レイヤー_1" xmlns="http://www.w3.org/2000/svg" xmlns:xlink="http://www.w3.org/1999/xlink" x="0px"
	 y="0px" width="94.477px" height="49.878px" viewBox="0 0 94.477 49.878" enable-background="new 0 0 94.477 49.878"
	 xml:space="preserve">
<g>
	<path fill="#CB301F" d="M2.394,42.322c-0.374-0.66-0.668-1.319-0.892-1.955c0.087-0.023,0.183-0.027,0.284-0.059L1.803,40.3
		c16.183-4.475,31.136-10.181,44.849-17.093c1.986-1.002,3.45-1.779,4.432-2.302c0.971-0.541,1.643-0.899,2.016-1.095
		c0.358-0.19,0.861-0.49,1.477-0.879l0.143-0.4c0.009-0.023,0.023-0.07,0.033-0.094c0.126-0.351,0.266-0.672,0.428-0.983
		c0.232-0.461,0.508-0.905,0.84-1.317c0.43-0.535,0.91-0.999,1.479-1.406c0.009-0.022,0.025-0.07,0.031-0.093
		c0.99-2.969,2.273-5.238,3.874-6.798c1.609-1.584,3.076-2.732,4.404-3.423c1.172-0.616,1.848-0.958,1.994-1.025
		c0.395-0.109,0.801-0.205,1.225-0.29c0.018-0.008,0.033-0.018,0.055-0.007c3.002-0.628,4.857,0.521,5.549,3.413
		c0.006,0.055,0.006,0.093,0.014,0.149c-0.002,0.118-0.006,0.236-0.008,0.355c-0.043,0.978-0.477,1.749-1.283,2.349
		c-1.01,0.752-2.131,1.267-3.357,1.559c-1.057,0.245-2.055,0.527-3.008,0.862l0.512,0.01c1.438,0.02,2.836,0.214,4.225,0.547
		c0.541,0.154,1.082,0.267,1.656,0.365c0.449,0.08,0.881,0.128,1.314,0.136c0.195,0.004,0.385-0.008,0.566,0.003
		c2.555-0.003,4.988-0.595,7.297-1.771c2.088-1.072,3.828-1.723,5.215-1.971l-0.018,0.007c1.004-0.186,1.846-0.018,2.529,0.475
		l0.023,0.01c0.66,0.604,1.068,1.423,1.244,2.491l-0.008-0.017c0.158,1.234-0.021,2.453-0.514,3.682
		c0.008,0.016,0.008,0.016-0.008,0.023c-0.338,0.726-0.822,1.309-1.486,1.72c-0.006-0.015-0.014-0.031-0.021-0.045l-0.039-0.002
		c-0.707-0.503-1.498-0.81-2.389-0.915c-0.713-0.109-1.432-0.1-2.16,0.012c-0.365,0.057-0.713,0.144-1.07,0.254
		c-0.754,0.301-1.463,0.619-2.121,0.953l0.006,0.015c1.117-0.237,2.211-0.192,3.318,0.122c1.332,0.38,2.311,1.127,2.91,2.265
		c0.252,0.448,0.449,0.941,0.557,1.454c0.172,0.815-0.023,1.593-0.553,2.332c-0.67,0.926-1.543,1.594-2.641,1.998l-0.316-0.258
		c-0.219-0.171-0.436-0.34-0.654-0.51c-0.512-0.46-1.135-0.789-1.863-1.008c-1.014-0.279-2.027-0.363-3.039-0.232
		c-1.162,0.142-2.258,0.508-3.271,1.126c-0.789,0.472-1.504,1.025-2.107,1.685l-0.717,0.791c0.598-0.343,1.258-0.637,1.965-0.916
		c0.93-0.346,1.865-0.594,2.814-0.732c1.195-0.197,2.318-0.049,3.359,0.412c1.133,0.494,1.891,1.309,2.244,2.428
		c0.311,1.59-0.365,2.965-2.027,4.107c-2.357,1.57-5.229,2.428-8.639,2.605c-3.33,0.178-6.295-0.756-8.863-2.793
		c-0.154-0.121-0.334-0.212-0.523-0.279c-0.195-0.043-0.393-0.049-0.59-0.012c-2.839,0.435-5.356-0.264-7.569-2.082
		c-0.062-0.047-0.123-0.098-0.172-0.152c-0.52-0.436-1.014-0.865-1.51-1.291c-0.039-0.041-0.071-0.064-0.102-0.09l-0.814,0.465
		c-0.022-0.009-0.022-0.009-0.024,0.032c-4.081,2.702-8.388,5.181-12.901,7.386c-9.364,4.57-19.677,8.049-30.945,10.461
		c-0.388,0.086-0.684,0.285-0.896,0.621c-0.016,0.007-0.016,0.007-0.008,0.024c-0.072,0.093-0.113,0.21-0.156,0.327
		c-0.773-0.394-1.533-0.93-2.277-1.59C4.385,45.281,3.277,43.894,2.394,42.322"/>
	<path fill="#941E28" d="M50.054,31.056l1.221,2.564c-3.219,1.979-6.559,3.819-10.021,5.527c-9.556,4.658-20.08,8.222-31.597,10.691
		c-0.386,0.088-0.747,0.025-1.067-0.194c-0.336-0.212-0.533-0.507-0.613-0.88c-0.066-0.263-0.045-0.506,0.029-0.717
		c0.043-0.117,0.084-0.234,0.156-0.327c-0.008-0.018-0.008-0.018,0.01-0.024c0.211-0.336,0.507-0.535,0.895-0.621
		c11.269-2.412,21.581-5.891,30.945-10.461C43.489,34.902,46.845,33.051,50.054,31.056"/>
	<path fill="#941E28" d="M51.274,33.619l-1.221-2.562c0.967-0.597,1.926-1.208,2.859-1.827c0-0.041,0-0.041,0.023-0.031l0.814-0.466
		c0.032,0.022,0.062,0.048,0.102,0.089c0.496,0.426,0.992,0.855,1.512,1.291c0.045,0.055,0.107,0.104,0.17,0.153
		c2.211,1.817,4.729,2.515,7.569,2.081c0.199-0.036,0.396-0.031,0.592,0.011c0.188,0.067,0.367,0.159,0.521,0.28
		c2.568,2.037,5.533,2.971,8.863,2.793c3.41-0.178,6.281-1.036,8.639-2.605c1.664-1.144,2.338-2.519,2.029-4.107
		c-0.355-1.119-1.113-1.933-2.246-2.428c-1.041-0.462-2.164-0.609-3.359-0.412c-0.949,0.139-1.885,0.389-2.814,0.732
		c-0.707,0.279-1.365,0.574-1.965,0.916l0.717-0.791c0.604-0.658,1.318-1.213,2.107-1.686c1.014-0.619,2.109-0.982,3.271-1.125
		c1.012-0.131,2.025-0.046,3.039,0.232c0.729,0.22,1.352,0.547,1.863,1.009c0.219,0.169,0.436,0.337,0.654,0.508l0.316,0.258
		c1.098-0.402,1.971-1.072,2.643-1.997c0.527-0.738,0.723-1.516,0.551-2.333c-0.107-0.512-0.305-1.005-0.557-1.454
		c-0.598-1.137-1.578-1.883-2.91-2.264c-1.107-0.313-2.201-0.359-3.316-0.121l-0.008-0.015c0.658-0.335,1.367-0.652,2.121-0.953
		c0.357-0.11,0.707-0.197,1.07-0.255c0.729-0.11,1.447-0.12,2.162-0.011c0.889,0.103,1.68,0.411,2.387,0.914l0.039,0.001
		c0.008,0.016,0.016,0.032,0.023,0.047c0.662-0.411,1.146-0.993,1.484-1.721c0.018-0.007,0.018-0.007,0.008-0.022
		c0.49-1.23,0.672-2.447,0.516-3.683l0.008,0.016c-0.178-1.067-0.586-1.887-1.246-2.491l-0.023-0.01
		c-0.684-0.493-1.525-0.66-2.529-0.475l0.018-0.007c-1.387,0.25-3.125,0.9-5.213,1.972c-2.311,1.176-4.744,1.767-7.297,1.771
		c-0.184-0.01-0.373,0.001-0.568-0.003c-0.434-0.007-0.865-0.056-1.314-0.135c-0.572-0.098-1.115-0.211-1.656-0.365
		c-1.389-0.334-2.787-0.526-4.223-0.548l-0.514-0.009c0.953-0.336,1.953-0.617,3.008-0.865c1.227-0.291,2.348-0.806,3.357-1.559
		c0.809-0.596,1.24-1.369,1.283-2.346c0.004-0.119,0.006-0.237,0.008-0.355c-0.008-0.056-0.006-0.096-0.014-0.149
		c-0.693-2.893-2.547-4.041-5.545-3.414c-0.025-0.01-0.041-0.002-0.059,0.006c-0.426,0.086-0.83,0.182-1.225,0.291
		c-0.146,0.068-0.822,0.41-1.994,1.026c-1.328,0.69-2.795,1.838-4.404,3.422c-1.6,1.56-2.881,3.829-3.874,6.799
		c-0.006,0.023-0.022,0.071-0.031,0.093c-0.568,0.407-1.049,0.871-1.479,1.406c-0.332,0.411-0.609,0.856-0.837,1.316
		c-0.165,0.312-0.306,0.633-0.431,0.984c-0.01,0.023-0.024,0.07-0.033,0.093l-0.143,0.401c-0.615,0.389-1.117,0.688-1.474,0.878
		c-0.376,0.196-1.048,0.554-2.019,1.095c-0.981,0.523-2.445,1.3-4.43,2.302c-0.08,0.038-0.176,0.082-0.263,0.144l-1.212-2.548
		c0.072-0.051,0.135-0.083,0.199-0.112c2.35-1.176,4.668-2.415,6.957-3.679c0.01-0.026,0.096-0.087,0.281-0.192
		c-0.105,0.028-0.105,0.028-0.01-0.016c0.025-0.111,0.125-0.394,0.316-0.854c0.167-0.47,0.822-1.309,1.957-2.492
		c1.146-3.337,2.64-5.902,4.507-7.686l0.007,0.015c1.874-1.848,3.563-3.139,5.084-3.92c1.568-0.806,2.436-1.239,2.604-1.258
		l0.014-0.008c0.398-0.111,0.834-0.22,1.316-0.313c0.016-0.007,0.016-0.007,0.033-0.015c4.916-1.03,7.924,0.859,9.012,5.69
		c-0.002,0.039,0.012,0.071,0.02,0.127c0.178,1.358-0.076,2.631-0.768,3.8c1.555-0.173,3.078-0.626,4.535-1.377
		c2.438-1.238,4.449-1.979,6.037-2.247c1.916-0.324,3.508,0.029,4.789,1.08l0.008,0.017c1.266,0.979,2.025,2.414,2.32,4.304
		L94.39,11.69c0.232,1.725-0.006,3.438-0.693,5.15l-0.008,0.023c-0.555,1.339-1.459,2.394-2.703,3.142
		c0.357,1.039,0.383,2.491,0.088,4.33c-0.02,0.125-0.045,0.236-0.096,0.338c-0.59,1.549-2.033,2.822-4.301,3.842
		c0.492,2.594-0.631,4.828-3.355,6.691c-2.727,1.861-6.1,2.9-10.086,3.096c-3.859,0.217-7.311-0.799-10.309-3.041
		c-3.225,0.363-6.117-0.428-8.691-2.349c-0.218-0.169-0.435-0.34-0.651-0.508c-0.037-0.04-0.103-0.089-0.146-0.146
		C52.72,32.718,52.001,33.177,51.274,33.619 M52.743,16.68l-0.074,0.092l0.018-0.008c0.009-0.023,0.025-0.031,0.033-0.054
		C52.728,16.687,52.728,16.687,52.743,16.68L52.743,16.68z"/>
	<path fill="#941E28" d="M1.803,40.3l-0.016,0.008c-0.104,0.031-0.198,0.035-0.285,0.059c-0.27,0.01-0.536-0.059-0.776-0.197
		c-0.344-0.188-0.575-0.469-0.678-0.85c-0.095-0.365-0.049-0.719,0.141-1.062c0.187-0.342,0.467-0.574,0.848-0.676
		c15.921-4.41,30.635-10.002,44.143-16.778l1.209,2.548C32.747,30.21,17.882,35.855,1.803,40.3"/>
</g>
<g>
</g>
</svg>
