<?xml version="1.0" encoding="utf-8"?>
<!-- Generator: Adobe Illustrator 16.2.1, SVG Export Plug-In . SVG Version: 6.00 Build 0)  -->
<!DOCTYPE svg PUBLIC "-//W3C//DTD SVG 1.1//EN" "http://www.w3.org/Graphics/SVG/1.1/DTD/svg11.dtd">
<svg version="1.1" xmlns="http://www.w3.org/2000/svg" xmlns:xlink="http://www.w3.org/1999/xlink" x="0px" y="0px" width="145px"
	 height="128.051px" viewBox="0 0 145 128.051" enable-background="new 0 0 145 128.051" xml:space="preserve">
<g id="base">
</g>
<g id="book3">
</g>
<g id="_x38_" display="none">
</g>
<g id="_x37_" display="none">
</g>
<g id="_x36_" display="none">
</g>
<g id="_x35_" display="none">
</g>
<g id="_x34_" display="none">
</g>
<g id="_x33_" display="none">
</g>
<g id="_x32_" display="none">
</g>
<g id="_x31_" display="none">
</g>
<g id="_x30_">
	<g>
		<path fill="#00499C" d="M91.859,53.91c-0.735,0-1.369-0.552-1.456-1.301c-0.094-0.804,0.485-1.531,1.289-1.624l9.988-1.151
			c0.801-0.097,1.533,0.482,1.624,1.288c0.094,0.806-0.486,1.532-1.287,1.625l-9.987,1.154C91.972,53.907,91.915,53.91,91.859,53.91
			z"/>
	</g>
	<g>
		<path fill="#009FE8" d="M112.853,56.242c0.036,0.093,0.069,0.165,0.1,0.219l0.079,0.004c-0.016-0.097-0.038-0.229-0.07-0.361
			C112.938,56.169,112.906,56.213,112.853,56.242"/>
	</g>
	<path fill="#009FE8" d="M132.187,32.523c0.004-0.279,0.04-0.519,0.139-0.717c0.028-2.104-0.199-4.498-0.665-7.144
		c-0.06-0.421-0.141-0.856-0.262-1.306c-0.369-1.152-0.854-2.083-1.459-2.797c-0.024-0.015-0.024-0.035-0.049-0.049
		c-0.523-0.395-1.108-0.583-1.734-0.563l-0.018,0.005l-0.022-0.018c-1.417,0.103-2.236,0.136-2.498,0.105
		c-0.055-0.008-0.189,0.015-0.435,0.062c-0.991,0.18-2.067,0.634-3.226,1.378c-0.02,0.004-0.02,0.004-0.037,0.008
		c-0.019,0.003-0.019,0.003-0.041,0.007l-0.016,0.003l-0.021,0.004c-0.011,0.041-0.042,0.067-0.082,0.094
		c-0.015,0.002-0.015,0.002-0.037,0.007l-0.361,0.281c-0.159,0.188-0.321,0.375-0.487,0.543l-0.021,0.003
		c-0.016,0.021-0.048,0.067-0.061,0.088c-0.327,0.457-0.522,0.786-0.605,0.978c-0.223,0.396-0.4,1.017-0.582,1.855
		c-0.238,1.264-0.337,2.637-0.317,4.145c0.021,1.508,0.029,2.292-0.009,2.398c-0.102-0.65-0.233-1.354-0.39-2.111
		c-0.513-2.477-1.344-4.837-2.452-7.127c-0.004-0.021-0.004-0.039-0.01-0.057c-0.002-0.021-0.076-0.184-0.212-0.512
		c-0.044-0.109-0.096-0.199-0.15-0.287c0.015-0.021,0.009-0.059,0.023-0.082c-0.005-0.021-0.028-0.035-0.051-0.051l0.016-0.021
		c-3.438-5.438-7.515-7.532-12.239-6.328c-2.049,0.299-3.131,1.892-3.228,4.777l-0.018,0.023c-0.037,1.068,0.038,2.311,0.216,3.712
		c1.318,5.981,2.048,9.539,2.2,10.671c-2.023-5.541-3.946-9.802-5.771-12.781c-0.017,0.021-0.052,0.045-0.066,0.069
		c-0.55-0.843-1.099-1.585-1.646-2.212c-0.516-0.571-1.024-1.086-1.522-1.546c-1.695-1.65-3.431-2.548-5.251-2.704
		c-2.054-0.289-4.202,0.204-6.418,1.497c-1.196,0.671-1.878,2.093-2.021,4.28c-0.275,1.287-0.22,2.752,0.167,4.428
		c0.079,0.319,0.174,0.635,0.256,0.955c0.071,0.4,0.149,0.816,0.206,1.238c1.13,5.586,2.412,9.042,3.875,10.383
		c-2.988-1.848-5.912-3.113-8.81-3.797c-0.622-0.18-1.191-0.292-1.719-0.372c-0.098-0.001-0.222-0.037-0.346-0.073
		c-1.701-0.377-3.206-0.234-4.516,0.439c-1.035,0.465-1.846,1.186-2.448,2.181c0.004,0.017,0.004,0.017-0.017,0.021
		c-0.065,0.152-0.161,0.306-0.254,0.42l-0.02,0.005c-1.065,1.786-0.885,3.934,0.577,6.451c0.441,0.884,0.997,1.782,1.685,2.735
		c0.267,0.364,0.524,0.71,0.808,1.071c0.531,0.646,1.164,1.297,1.888,1.93c0.771,0.661,2.003,1.695,3.729,3.083
		c1.729,1.39,3.414,2.533,5.057,3.449c1.621,0.921,2.646,1.477,3.062,1.694l0.017-0.003l0.068,0.008
		c0.436,0.477,1.014,0.905,1.769,1.273c0.054,0.026,0.12,0.051,0.177,0.076c0.056,0.157,0.125,0.34,0.203,0.551
		c0.006,0.029,0.008,0.043,0.012,0.064l-1.554,0.168l0.038,0.308C67.093,83.863,46.144,88.823,21.362,74.67l-2.936,36.641
		c3.333,1.665,6.814,3.086,10.474,4.277c14.651,4.786,29.318,4.674,43.977-0.324c14.662-5.058,26.049-14.147,34.176-27.293
		c6.111-9.907,9.447-20.556,10.025-31.935l-1.508,0.159c0.182-0.53,0.405-0.961,0.687-1.275c0.003-0.098-0.021-0.213-0.044-0.344
		c0.501-0.251,0.984-0.516,1.468-0.783c0.657-0.375,1.305-0.79,1.917-1.198c0.928-0.619,1.804-1.293,2.656-2.002
		c1.248-1.016,2.382-2.106,3.442-3.283c1.752-2.21,3.044-4.158,3.853-5.857c0.807-1.679,1.494-3.496,2.016-5.458
		c0.151-0.479,0.292-0.977,0.433-1.494c0.033-0.144,0.086-0.269,0.12-0.416c0.039-0.104,0.057-0.224,0.078-0.326l-0.011-0.605
		l0.016-0.005C132.187,32.973,132.19,32.775,132.187,32.523z M95.587,56.804l0.111-0.041c0.608-0.011,1.314-0.006,2.087,0.029
		c0.851,0.04,1.384,0.058,1.606,0.078l0.127,0.585c-0.421,0.177-1.117,0.127-2.087-0.126C96.92,57.207,96.316,57.023,95.587,56.804z
		 M110.187,56.755l-0.361,0.038c0.08-0.44,0.17-0.892,0.259-1.364c0.117-0.625,0.273-1.167,0.469-1.627
		c0.091,0.782,0.057,1.719-0.11,2.822C110.357,56.666,110.272,56.711,110.187,56.755z M115.722,54.038
		c-0.132,0.043-0.24,0.103-0.356,0.22c-0.108,0.14-0.363,0.362-0.731,0.687c-0.027-0.017-0.044-0.011-0.062-0.009
		c-0.103,0-0.318,0-0.647,0.021c-0.208,0.155-0.387,0.328-0.554,0.513c-0.244,0.06-0.501,0.136-0.77,0.226
		c0.464-1.498,0.668-2.416,0.608-2.74c-0.071-0.399-0.171-0.598-0.297-0.632c-0.057-0.011-0.094-0.003-0.149,0.028
		c-0.633,0.075-1.024,0.089-1.173,0.04c-0.005-0.002-0.011-0.003-0.017-0.005c0.486-0.381,1.07-0.562,1.761-0.524
		c0.66,0.058,1.275,0.316,1.816,0.789c0.561,0.482,0.9,1.049,1.018,1.695c0.005,0.02,0.005,0.035,0.011,0.06
		C116.105,54.105,115.944,53.977,115.722,54.038z"/>
	<g>
		<path fill="#009FE8" d="M112.104,42.905c0.129,0.587,0.376,1.07,0.752,1.415c1.517,1.408,2.536,2.775,3.072,4.09l2.218-0.429
			L112.104,42.905z"/>
	</g>
	<g>
		<path fill="#00499C" d="M50.395,120.626c-7.346,0-14.685-1.189-21.974-3.568c-3.716-1.212-7.31-2.681-10.684-4.364
			c-0.798-0.397-1.604-0.815-2.39-1.256c-0.746-0.417-1.013-1.356-0.598-2.102c0.417-0.745,1.36-1.013,2.103-0.598
			c0.748,0.418,1.508,0.813,2.262,1.191c3.238,1.612,6.692,3.026,10.267,4.188c14.257,4.656,28.726,4.551,42.996-0.315
			c14.245-4.916,25.468-13.88,33.361-26.645c5.614-9.102,8.867-18.982,9.68-29.395l-2.224,0.237c-0.063,0.009-0.126,0.009-0.19,0.01
			l-0.483,0.058c-0.369,0.046-0.725-0.047-1.017-0.233c-0.237,0.234-0.558,0.394-0.915,0.431L88.853,60.54
			c-0.365,0.032-0.707-0.053-0.988-0.232c-0.24,0.231-0.554,0.39-0.913,0.428l-1.653,0.181
			C67.757,85.436,45.99,90.513,20.594,76.012c-0.243-0.149-0.453-0.27-0.661-0.389c-0.219-0.125-0.437-0.25-0.652-0.38
			c-0.728-0.441-0.961-1.393-0.517-2.121c0.443-0.733,1.39-0.962,2.121-0.521c0.19,0.118,0.388,0.229,0.58,0.34
			c0.234,0.135,0.473,0.27,0.702,0.412c24.01,13.708,43.8,9.132,60.458-14.012c0.066-0.716,0.628-1.312,1.372-1.394l2.621-0.285
			c0.363-0.039,0.716,0.054,0.997,0.232c0.241-0.232,0.558-0.391,0.915-0.428l21.735-2.274c0.365-0.036,0.71,0.054,0.994,0.233
			c0.233-0.229,0.543-0.385,0.895-0.426l0.617-0.075c0.072-0.01,0.148-0.011,0.222-0.01l2.6-0.278
			c0.055-1.647,0.047-3.382-0.019-5.271c-0.036-0.854,0.633-1.569,1.483-1.602c0.902-0.016,1.57,0.636,1.602,1.487
			c0.095,2.48,0.081,4.718-0.036,6.841c0,0.018-0.003,0.033-0.003,0.046c-0.594,11.594-4.042,22.576-10.251,32.644
			c-8.278,13.386-20.049,22.789-34.985,27.941C65.752,119.326,58.072,120.626,50.395,120.626z"/>
	</g>
	<g>
		<path fill="#009FE8" d="M71.812,49.299c2.276,2.118,4.706,4.007,7.307,5.649c2.387,1.543,3.935,2.259,4.624,2.173l17.759,3.228
			c3.689-0.777,7.095-1.818,10.174-3.11c1.168-1.65,2.594-3.188,4.306-4.664c1.028-0.915,1.863-1.935,2.533-3.098
			c3.312-5.797,7.668-9.977,13.088-12.527c0.045-0.086,0.067-0.169,0.093-0.252c1.346-4.43,1.551-8.516,0.615-12.232
			c-0.9-3.504-2.317-5.21-4.242-5.111c-4.912,0.298-7.761,2.234-8.524,5.854c-0.204,1.038-0.284,2.526-0.216,4.497
			c0.017,0.508,0.023,0.976,0.008,1.41c-0.048-0.561-0.165-1.186-0.312-1.904c-0.439-2.373-1.23-4.645-2.394-6.807
			c-3.194-6.031-7.398-8.398-12.607-7.123c-2.854,0.387-3.986,3.089-3.391,8.127c1.188,5.494,1.811,8.779,1.911,9.84
			c-2.476-6.713-4.843-11.346-7.058-13.9c-3.673-4.254-8.012-5.086-13.029-2.471c-2.202,1.15-2.894,4.54-2.057,10.16
			c0.797,5.177,1.881,8.394,3.269,9.63c-2.897-1.646-5.763-2.807-8.614-3.462c-4.402-0.973-7.437-0.278-9.115,2.113
			C63.546,38.746,65.504,43.412,71.812,49.299"/>
	</g>
	<g>
		<path fill="#009FE8" d="M118.515,49.477c-0.67,1.164-1.505,2.18-2.533,3.098c-1.712,1.476-3.138,3.014-4.306,4.664
			c4.206-1.777,7.88-4.025,10.97-6.755c4.347-3.807,7.346-8.327,8.957-13.534C126.183,39.5,121.826,43.682,118.515,49.477"/>
	</g>
	<g>
		<path fill="#00499C" d="M81.57,59.839c0.04-0.01,0.074-0.036,0.109-0.061l0.095,0.316c0.169,0.165,0.447,0.291,0.835,0.357
			c0.344,0.055,0.552,0.134,0.614,0.26c0.094,0.181,0.136,0.288,0.121,0.329c-0.031,0.027-0.051,0.052-0.043,0.087l0.579-0.163
			c0.045,0.128,0.054,0.187,0.06,0.203l1.077-0.316l0.28-0.071c0.04-0.538,0.192-0.997,0.432-1.393
			c-0.008-0.038-0.014-0.076-0.024-0.133c-0.157-0.426-0.274-0.738-0.33-0.943c-0.022-0.013-0.024-0.035-0.026-0.054
			c-0.121-0.232-0.342-0.351-0.657-0.37c-0.241-0.015-0.407-0.08-0.501-0.161l-0.032-0.055c-0.023-0.016-0.026-0.035-0.047-0.05
			c-0.09-0.16-0.225-0.253-0.422-0.255l-0.201-0.023l-0.017,0.003c-0.416-0.218-1.441-0.773-3.062-1.694
			c-1.643-0.916-3.328-2.06-5.057-3.449c-1.727-1.389-2.958-2.419-3.729-3.083c-0.724-0.633-1.354-1.284-1.888-1.93
			c-1.052-1.339-1.895-2.597-2.492-3.807c-0.142-0.246-0.283-0.495-0.412-0.746l-3.074,0.567c0.504,1.141,1.23,2.307,2.141,3.531
			c0.562,0.781,1.212,1.564,1.93,2.355v0.118l0.521,0.688c0.046,0.032,0.092,0.064,0.114,0.08l-0.016,0.023l0.025,0.034
			c0.073,0.083,0.12,0.135,0.186,0.16l0.025,0.017c4.93,4.396,8.904,7.394,11.884,8.985c0.109,0.059,0.201,0.12,0.315,0.197
			c0.042,0.013,0.064,0.025,0.086,0.045c0.175,0.104,0.366,0.187,0.582,0.285C81.56,59.764,81.566,59.8,81.57,59.839 M70.425,49.124
			c-0.018,0.003-0.056,0.011-0.077-0.004C70.369,49.135,70.407,49.127,70.425,49.124"/>
	</g>
	<g>
		<path fill="#00499C" d="M63.757,43.203l3.074-0.566c-1.069-2.2-1.124-4.095-0.165-5.704l0.02-0.005
			c0.093-0.117,0.188-0.268,0.254-0.42c0.022-0.004,0.022-0.004,0.017-0.023c0.603-0.994,1.413-1.713,2.448-2.178
			c1.31-0.674,2.814-0.814,4.516-0.439c0.124,0.036,0.248,0.073,0.346,0.074c0.527,0.079,1.097,0.191,1.719,0.369
			c2.896,0.686,5.821,1.951,8.81,3.799c-1.463-1.342-2.745-4.797-3.875-10.383c-0.057-0.422-0.135-0.84-0.204-1.238
			c-0.084-0.32-0.179-0.636-0.258-0.957c-0.387-1.674-0.44-3.137-0.167-4.426c0.144-2.188,0.825-3.608,2.021-4.28
			c2.216-1.294,4.364-1.786,6.418-1.497c1.82,0.156,3.556,1.054,5.251,2.705c0.498,0.459,1.007,0.974,1.522,1.547
			c0.548,0.625,1.097,1.367,1.646,2.21c0.015-0.022,0.05-0.048,0.066-0.071c1.825,2.981,3.748,7.244,5.771,12.782
			c-0.152-1.129-0.882-4.688-2.2-10.67c-0.178-1.403-0.253-2.644-0.216-3.712l0.018-0.024c0.097-2.885,1.179-4.479,3.228-4.776
			c4.725-1.204,8.802,0.891,12.239,6.326l-0.016,0.023c0.022,0.018,0.046,0.031,0.051,0.051c-0.015,0.021-0.009,0.059-0.023,0.082
			c0.055,0.088,0.106,0.176,0.15,0.287c0.136,0.328,0.21,0.492,0.212,0.51c0.006,0.019,0.006,0.039,0.01,0.057
			c1.108,2.292,1.939,4.654,2.452,7.133c0.156,0.755,0.288,1.457,0.39,2.107c0.038-0.106,0.032-0.891,0.009-2.398
			c-0.02-1.51,0.079-2.881,0.317-4.144c0.182-0.841,0.359-1.462,0.582-1.856c0.083-0.191,0.278-0.521,0.605-0.975
			c0.013-0.023,0.045-0.068,0.061-0.092l0.022-0.002c0.164-0.167,0.326-0.354,0.485-0.541l0.361-0.283
			c0.022-0.005,0.022-0.005,0.037-0.007c0.035-0.025,0.071-0.054,0.082-0.093l0.021-0.005l0.016-0.003
			c0.022-0.002,0.022-0.002,0.041-0.008c0.018-0.002,0.018-0.002,0.037-0.007c1.158-0.744,2.234-1.198,3.226-1.38
			c0.245-0.044,0.38-0.07,0.435-0.059c0.264,0.027,1.081-0.004,2.498-0.108l0.022,0.017l0.018-0.006
			c0.626-0.016,1.211,0.172,1.734,0.564c0.024,0.016,0.024,0.035,0.049,0.051c0.604,0.714,1.09,1.645,1.459,2.795
			c0.121,0.451,0.202,0.887,0.262,1.31c0.372,2.149,0.597,4.11,0.653,5.908l3.04-0.562c-0.072-2.618-0.426-5.087-1.104-7.377
			c-0.426-1.473-0.989-2.705-1.704-3.713c-0.641-0.374-1.314-0.836-2.021-1.356c-0.491-0.126-1.054-0.276-1.694-0.453
			c-0.143-0.032-0.286-0.085-0.411-0.12c-0.857-0.059-1.809-0.002-2.813,0.203c-3.317,0.65-5.487,1.759-6.553,3.33l-0.021,0.003
			c-0.028,0.063-0.223,0.394-0.578,1.011c-0.076,0.129-0.151,0.262-0.209,0.371c-0.003-0.02-0.007-0.038-0.01-0.057
			c-0.032-0.073-0.077-0.318-0.132-0.723c-0.037-0.188-0.063-0.34-0.085-0.454c-0.002-0.02-0.011-0.058-0.036-0.093
			c-0.039-0.09-0.062-0.225-0.113-0.393c-0.029-0.054-0.061-0.125-0.071-0.184c-0.04-0.09-0.078-0.201-0.106-0.353
			c-3.976-6.124-8.749-8.583-14.334-7.338c-3.273,0.467-5.086,2.353-5.446,5.619c-0.562-0.7-1.14-1.382-1.742-1.997l-0.024-0.014
			c-4.183-4.162-8.67-4.963-13.45-2.434c-4.854,2.545-6.547,6.766-5.131,12.652c0.575,2.389,1.155,4.48,1.738,6.238
			c-1.477-0.67-3.131-1.209-4.956-1.639c-4.207-0.973-7.602,0.437-10.146,4.208C62.491,37.308,62.335,40.07,63.757,43.203"/>
	</g>
	<g>
		<path fill="#00499C" d="M115.766,60.155c0.083,0.34,0.109,0.374,0.116,0.099l1.13-0.268c0.006-0.179,0.192-0.88,0.556-2.105
			c0.085-0.289,0.152-0.56,0.185-0.818l0.016-0.006c0.267-0.146,0.496-0.306,0.688-0.438c0.057-0.015,0.095-0.02,0.134-0.007
			c0.626-0.351,1.24-0.737,1.889-1.172c0.296-0.194,0.613-0.392,0.948-0.608c1.513-1.045,3.087-2.219,4.668-3.551
			c4.024-3.316,6.798-7.872,8.328-13.636c0.212-0.762,0.404-1.546,0.562-2.302c0.158-0.717,0.289-1.408,0.394-2.114
			c-0.004-0.019-0.009-0.04-0.011-0.075c-0.025-0.447,0.002-0.826,0.065-1.115c-0.021-0.014-0.063-0.025-0.084-0.043
			c0.014-0.668,0.029-1.339,0.006-1.984l-3.04,0.562c0.018,0.408,0.014,0.821,0.012,1.233c-0.099,0.198-0.135,0.438-0.139,0.717
			c0.004,0.252,0,0.449,0.014,0.624l-0.016,0.005l0.009,0.605c-0.02,0.103-0.037,0.223-0.076,0.326
			c-0.167,0.681-0.368,1.307-0.553,1.912c-0.521,1.961-1.209,3.777-2.016,5.456c-0.809,1.699-2.101,3.647-3.853,5.857
			c-1.061,1.178-2.193,2.27-3.442,3.283c-0.853,0.709-1.729,1.383-2.656,2.005c-0.612,0.405-1.26,0.822-1.917,1.197
			c-0.483,0.266-0.967,0.53-1.468,0.781c0.022,0.131,0.047,0.246,0.044,0.344c-0.441,0.493-0.753,1.239-0.956,2.277
			c-0.078,0.408-0.128,0.79-0.166,1.13c-0.054,0.561-0.047,1.031,0.025,1.41c0.072,0.402,0.15,0.601,0.232,0.625l0.102-0.096
			L115.766,60.155z"/>
	</g>
</g>
<g id="guide" display="none">
</g>
</svg>
