<svg xmlns="http://www.w3.org/2000/svg" width="145" height="128.051" viewBox="0 0 145 128.051"><g><path fill="#00499C" d="M91.859 53.91c-.735 0-1.369-.552-1.456-1.301-.094-.804.485-1.531 1.289-1.624l9.988-1.151c.801-.097 1.533.482 1.624 1.288.094.806-.486 1.532-1.287 1.625l-9.987 1.154-.171.009z"/><path fill="#009FE8" d="M18.427 111.311c3.333 1.665 6.814 3.086 10.474 4.277 14.651 4.786 29.318 4.674 43.977-.324 14.662-5.058 26.049-14.147 34.176-27.293 6.111-9.907 9.447-20.556 10.025-31.935l-4.047.428-.079-.003-.617.073c.654-2.004.945-3.198.875-3.579-.071-.399-.171-.598-.297-.632l-.149.028c-.633.075-1.024.089-1.173.04-.251-.095-.519-.161-.815-.167l-.206.354c-.107.177-.132.455-.064.836.161.875.134 1.979-.076 3.314l-21.736 2.276c-1.217-1.055-2.284-2.056-3.205-3.006.337.017.799.169 1.397.451.72.359 1.259.631 1.646.815l.059-.208c-.263-.562-.946-1.199-2.041-1.923-.898-.597-1.748-1.051-2.547-1.355-.226.375-.215.866.021 1.428.296.518.447.822.461.878-.18-.003-.489.014-.896.029-.373.029-.619.055-.753.08.335.979 1.172 1.787 2.491 2.43.408.199.896.384 1.461.575l-2.623.284.038.308c-17.111 24.073-38.06 29.033-62.842 14.88l-2.935 36.641zM112.853 56.242l.1.219.079.004-.07-.361c-.024.065-.056.109-.109.138"/><path fill="#009FE8" d="M112.104 42.905c.129.587.376 1.07.752 1.415 1.517 1.408 2.536 2.775 3.072 4.09l2.218-.429-6.042-5.076z"/><path fill="#00499C" d="M50.395 120.626c-7.346 0-14.685-1.189-21.974-3.568-3.716-1.212-7.31-2.681-10.684-4.364-.798-.397-1.604-.815-2.39-1.256-.746-.417-1.013-1.356-.598-2.102.417-.745 1.36-1.013 2.103-.598.748.418 1.508.813 2.262 1.191 3.238 1.612 6.692 3.026 10.267 4.188 14.257 4.656 28.726 4.551 42.996-.315 14.245-4.916 25.468-13.88 33.361-26.645 5.614-9.102 8.867-18.982 9.68-29.395l-2.224.237-.19.01-.483.058c-.369.046-.725-.047-1.017-.233-.237.234-.558.394-.915.431l-21.736 2.275c-.365.032-.707-.053-.988-.232-.24.231-.554.39-.913.428l-1.653.181c-17.542 24.519-39.309 29.596-64.705 15.095l-.661-.389-.652-.38c-.728-.441-.961-1.393-.517-2.121.443-.733 1.39-.962 2.121-.521l.58.34.702.412c24.01 13.708 43.8 9.132 60.458-14.012.066-.716.628-1.312 1.372-1.394l2.621-.285c.363-.039.716.054.997.232.241-.232.558-.391.915-.428l21.735-2.274c.365-.036.71.054.994.233.233-.229.543-.385.895-.426l.617-.075.222-.01 2.6-.278c.055-1.647.047-3.382-.019-5.271-.036-.854.633-1.569 1.483-1.602.902-.016 1.57.636 1.602 1.487.095 2.48.081 4.718-.036 6.841l-.003.046c-.594 11.594-4.042 22.576-10.251 32.644-8.278 13.386-20.049 22.789-34.985 27.941-7.632 2.604-15.312 3.904-22.989 3.904z"/><path fill="#009FE8" d="M71.812 49.299c2.276 2.118 4.706 4.007 7.307 5.649 2.387 1.543 3.935 2.259 4.624 2.173l17.759 3.228c3.689-.777 7.095-1.818 10.174-3.11 1.168-1.65 2.594-3.188 4.306-4.664 1.028-.915 1.863-1.935 2.533-3.098 3.312-5.797 7.668-9.977 13.088-12.527l.093-.252c1.346-4.43 1.551-8.516.615-12.232-.9-3.504-2.317-5.21-4.242-5.111-4.912.298-7.761 2.234-8.524 5.854-.204 1.038-.284 2.526-.216 4.497.017.508.023.976.008 1.41-.048-.561-.165-1.186-.312-1.904-.439-2.373-1.23-4.645-2.394-6.807-3.194-6.031-7.398-8.398-12.607-7.123-2.854.387-3.986 3.089-3.391 8.127 1.188 5.494 1.811 8.779 1.911 9.84-2.476-6.713-4.843-11.346-7.058-13.9-3.673-4.254-8.012-5.086-13.029-2.471-2.202 1.15-2.894 4.54-2.057 10.16.797 5.177 1.881 8.394 3.269 9.63-2.897-1.646-5.763-2.807-8.614-3.462-4.402-.973-7.437-.278-9.115 2.113-2.394 3.427-.436 8.093 5.872 13.98M118.515 49.477c-.67 1.164-1.505 2.18-2.533 3.098-1.712 1.476-3.138 3.014-4.306 4.664 4.206-1.777 7.88-4.025 10.97-6.755 4.347-3.807 7.346-8.327 8.957-13.534-5.42 2.55-9.777 6.732-13.088 12.527M85.018 60.852c.151.269.226.488.262.66.026.149.066.262.14.349 1.139.084 2.824.5 5.104 1.257 4.312 1.427 7.342 2.321 9.103 2.704 3.006.645 5.799.876 8.339.702.236-1.261.494-2.545.744-3.851.709-.521 1.431-1.184 2.17-1.97l.319-.178 1.596-.842.167.911c.117.626.178.734.203.338l.483-.033c-.007-.134.186-.797.557-1.985l.283-.151c.232-.144.457-.302.648-.435.038-.341.085-.723.166-1.129.203-1.04.515-1.785.956-2.279l-.044-.344c.501-.251.984-.516 1.468-.783.657-.375 1.305-.79 1.917-1.198.928-.619 1.804-1.293 2.656-2.002 1.248-1.016 2.382-2.106 3.442-3.283 1.752-2.21 3.044-4.158 3.853-5.857.807-1.679 1.494-3.496 2.016-5.458.151-.479.292-.977.433-1.494l-63.071 11.618c.267.364.524.71.808 1.071.531.646 1.164 1.297 1.888 1.93.771.661 2.003 1.695 3.729 3.083 1.729 1.39 3.414 2.533 5.057 3.449 1.621.921 2.646 1.477 3.062 1.694l.017-.003.201.021c.197.004.333.097.422.256l.047.051.032.052c.094.083.26.149.501.165.315.019.536.137.657.369l.026.053c.056.208.173.521.33.941l.024.133c-.239.398-.392.859-.432 1.396l-.279.072zm14.374-3.982l.127.585c-.421.177-1.117.127-2.087-.126-.512-.122-1.115-.306-1.845-.525l.111-.041c.608-.011 1.314-.006 2.087.029.851.04 1.384.058 1.607.078m14.533-1.913c-.208.155-.387.328-.554.513-.994.244-2.199.74-3.577 1.486.087-.488.19-.998.29-1.527.464-2.482 1.545-3.661 3.251-3.566.66.058 1.275.316 1.816.789.561.482.9 1.049 1.018 1.695l.011.06c-.074-.301-.235-.43-.458-.368-.132.043-.24.103-.356.22-.108.14-.363.362-.731.687l-.062-.009c-.103-.001-.319-.001-.648.02M119.281 31.895c-.102-.65-.233-1.354-.39-2.111-.513-2.477-1.344-4.837-2.452-7.127l-.01-.057-.212-.512-.15-.287.023-.082-.051-.051.016-.021c-3.438-5.438-7.515-7.532-12.239-6.328-2.049.299-3.131 1.892-3.228 4.777l-.018.023c-.037 1.068.038 2.311.216 3.712 1.318 5.981 2.048 9.539 2.2 10.671-2.023-5.541-3.946-9.802-5.771-12.781l-.066.069c-.55-.843-1.099-1.585-1.646-2.212-.516-.571-1.024-1.086-1.522-1.546-1.695-1.65-3.431-2.548-5.251-2.704-2.054-.289-4.202.204-6.418 1.497-1.196.671-1.878 2.093-2.021 4.28-.275 1.287-.22 2.752.167 4.428l.256.955c.071.4.149.816.206 1.238 1.13 5.586 2.412 9.042 3.875 10.383-2.988-1.848-5.912-3.113-8.81-3.797-.622-.18-1.191-.292-1.719-.372-.098-.001-.222-.037-.346-.073-1.701-.377-3.206-.234-4.516.439-1.035.465-1.846 1.186-2.448 2.181l-.017.021c-.065.152-.161.306-.254.42l-.02.005c-1.065 1.786-.885 3.934.577 6.451.441.884.997 1.782 1.685 2.735l63.07-11.619.12-.416.078-.326-.011-.605.016-.005-.014-.624c.004-.279.04-.519.139-.717.028-2.104-.199-4.498-.665-7.144-.06-.421-.141-.856-.262-1.306-.369-1.152-.854-2.083-1.459-2.797l-.049-.049c-.523-.395-1.108-.583-1.734-.563l-.018.005-.022-.018c-1.417.103-2.236.136-2.498.105-.055-.008-.189.015-.435.062-.991.18-2.067.634-3.226 1.378l-.037.008-.041.007-.016.003-.021.004-.082.094-.037.007-.361.281c-.159.188-.321.375-.487.543l-.021.003-.061.088c-.327.457-.522.786-.605.978-.223.396-.4 1.017-.582 1.855-.238 1.264-.337 2.637-.317 4.145.023 1.508.03 2.292-.008 2.399"/><path fill="#00499C" d="M81.57 59.839l.109-.061.095.316c.169.165.447.291.835.357.344.055.552.134.614.26.094.181.136.288.121.329l-.043.087.579-.163.06.203 1.077-.316.28-.071c.04-.538.192-.997.432-1.393l-.024-.133c-.157-.426-.274-.738-.33-.943l-.026-.054c-.121-.232-.342-.351-.657-.37-.241-.015-.407-.08-.501-.161l-.032-.055-.047-.05c-.09-.16-.225-.253-.422-.255l-.201-.023-.017.003c-.416-.218-1.441-.773-3.062-1.694-1.643-.916-3.328-2.06-5.057-3.449-1.727-1.389-2.958-2.419-3.729-3.083-.724-.633-1.354-1.284-1.888-1.93-1.052-1.339-1.895-2.597-2.492-3.807-.142-.246-.283-.495-.412-.746l-3.074.567c.504 1.141 1.23 2.307 2.141 3.531.562.781 1.212 1.564 1.93 2.355v.118l.521.688.114.08-.016.023.025.034c.073.083.12.135.186.16l.025.017c4.93 4.396 8.904 7.394 11.884 8.985l.315.197.086.045c.175.104.366.187.582.285l.019.117m-11.145-10.715l-.077-.004.077.004M63.757 43.203l3.074-.566c-1.069-2.2-1.124-4.095-.165-5.704l.02-.005c.093-.117.188-.268.254-.42l.017-.023c.603-.994 1.413-1.713 2.448-2.178 1.31-.674 2.814-.814 4.516-.439.124.036.248.073.346.074.527.079 1.097.191 1.719.369 2.896.686 5.821 1.951 8.81 3.799-1.463-1.342-2.745-4.797-3.875-10.383-.057-.422-.135-.84-.204-1.238l-.258-.957c-.387-1.674-.44-3.137-.167-4.426.144-2.188.825-3.608 2.021-4.28 2.216-1.294 4.364-1.786 6.418-1.497 1.82.156 3.556 1.054 5.251 2.705.498.459 1.007.974 1.522 1.547.548.625 1.097 1.367 1.646 2.21l.066-.071c1.825 2.981 3.748 7.244 5.771 12.782-.152-1.129-.882-4.688-2.2-10.67-.178-1.403-.253-2.644-.216-3.712l.018-.024c.097-2.885 1.179-4.479 3.228-4.776 4.725-1.204 8.802.891 12.239 6.326l-.016.023.051.051-.023.082.15.287.212.51.01.057c1.108 2.292 1.939 4.654 2.452 7.133.156.755.288 1.457.39 2.107.038-.106.032-.891.009-2.398-.02-1.51.079-2.881.317-4.144.182-.841.359-1.462.582-1.856.083-.191.278-.521.605-.975l.061-.092.022-.002c.164-.167.326-.354.485-.541l.361-.283.037-.007.082-.093.021-.005.016-.003.041-.008.037-.007c1.158-.744 2.234-1.198 3.226-1.38.245-.044.38-.07.435-.059.264.027 1.081-.004 2.498-.108l.022.017.018-.006c.626-.016 1.211.172 1.734.564l.049.051c.604.714 1.09 1.645 1.459 2.795.121.451.202.887.262 1.31.372 2.149.597 4.11.653 5.908l3.04-.562c-.072-2.618-.426-5.087-1.104-7.377-.426-1.473-.989-2.705-1.704-3.713-.641-.374-1.314-.836-2.021-1.356-.491-.126-1.054-.276-1.694-.453l-.411-.12c-.857-.059-1.809-.002-2.813.203-3.317.65-5.487 1.759-6.553 3.33l-.021.003c-.028.063-.223.394-.578 1.011l-.209.371-.01-.057c-.032-.073-.077-.318-.132-.723l-.085-.454-.036-.093-.113-.393-.071-.184c-.04-.09-.078-.201-.106-.353-3.976-6.124-8.749-8.583-14.334-7.338-3.273.467-5.086 2.353-5.446 5.619-.562-.7-1.14-1.382-1.742-1.997l-.024-.014c-4.183-4.162-8.67-4.963-13.45-2.434-4.854 2.545-6.547 6.766-5.131 12.652.575 2.389 1.155 4.48 1.738 6.238-1.477-.67-3.131-1.209-4.956-1.639-4.207-.973-7.602.437-10.146 4.208-1.711 2.359-1.867 5.121-.445 8.254"/><path fill="#00499C" d="M115.766 60.155c.083.34.109.374.116.099l1.13-.268c.006-.179.192-.88.556-2.105.085-.289.152-.56.185-.818l.016-.006c.267-.146.496-.306.688-.438l.134-.007c.626-.351 1.24-.737 1.889-1.172l.948-.608c1.513-1.045 3.087-2.219 4.668-3.551 4.024-3.316 6.798-7.872 8.328-13.636.212-.762.404-1.546.562-2.302.158-.717.289-1.408.394-2.114l-.011-.075c-.025-.447.002-.826.065-1.115l-.084-.043c.014-.668.029-1.339.006-1.984l-3.04.562c.018.408.014.821.012 1.233-.099.198-.135.438-.139.717l.014.624-.016.005.009.605-.076.326c-.167.681-.368 1.307-.553 1.912-.521 1.961-1.209 3.777-2.016 5.456-.809 1.699-2.101 3.647-3.853 5.857-1.061 1.178-2.193 2.27-3.442 3.283-.853.709-1.729 1.383-2.656 2.005-.612.405-1.26.822-1.917 1.197-.483.266-.967.53-1.468.781l.044.344c-.441.493-.753 1.239-.956 2.277-.078.408-.128.79-.166 1.13-.054.561-.047 1.031.025 1.41.072.402.15.601.232.625l.102-.096.27-.11z"/></g></svg>