<?xml version="1.0" encoding="utf-8"?>
<!-- Generator: Adobe Illustrator 16.2.1, SVG Export Plug-In . SVG Version: 6.00 Build 0)  -->
<!DOCTYPE svg PUBLIC "-//W3C//DTD SVG 1.1//EN" "http://www.w3.org/Graphics/SVG/1.1/DTD/svg11.dtd">
<svg version="1.1" xmlns="http://www.w3.org/2000/svg" xmlns:xlink="http://www.w3.org/1999/xlink" x="0px" y="0px"
	 width="145.348px" height="152.006px" viewBox="0 0 145.348 152.006" enable-background="new 0 0 145.348 152.006"
	 xml:space="preserve">
<g id="base">
</g>
<g id="book3">
</g>
<g id="_x38_" display="none">
</g>
<g id="_x37_" display="none">
</g>
<g id="_x36_" display="none">
</g>
<g id="_x35_" display="none">
</g>
<g id="_x34_" display="none">
</g>
<g id="_x33_" display="none">
</g>
<g id="_x32_" display="none">
</g>
<g id="_x31_" display="none">
</g>
<g id="_x30_">
	<g>
		<g>
			<path fill="#009FE8" d="M24.887,43.353l-0.722-1.626c-2.856-6.223-5.247-14.075-7.173-23.54
				c4.191-0.551,7.754-0.983,10.707-1.349c6.666-0.805,11.395-1.231,14.176-1.301c2.078-0.016,4.098,0.011,6.039,0.095
				c6.235,0.25,12.396,0.974,18.462,2.161l0.022,0.011c3.739,0.733,7.324,1.674,10.774,2.795c0.283,0.096,0.558,0.175,0.825,0.277
				c3.626,1.567,7.173,3.325,10.656,5.297c6.274,3.522,11.988,7.636,17.137,12.361c1.088,1.145,2.076,2.294,2.968,3.443
				c-0.892-1.149-1.88-2.299-2.968-3.443c3.968,3.622,7.597,7.596,10.887,11.938l1.201,2.22c-0.051-0.12,0.103-0.047,0.458,0.216
				c0.691,1.241,1.288,2.36,1.806,3.396l0.096,0.177l-0.426-0.373l2.423,4.647l0.899-0.458c5.961,10.788,8.669,22.432,8.135,34.954
				c-0.155,3.542-0.54,7.024-1.155,10.448l-25.1,7.362c-1.142-13.685-4.752-26.736-10.803-39.172
				c-0.598-1.164-1.208-2.316-1.821-3.472c-2.097-3.867-4.576-7.526-7.432-10.937l-0.62-0.771c-0.553-0.657-1.109-1.274-1.676-1.827
				c-1.391-1.373-3.517-3-6.368-4.865c-0.853-0.608-1.625-1.086-2.276-1.422c-0.357-0.224-0.727-0.42-1.079-0.625
				c-3.659-2.055-7.657-3.694-12.011-4.956c-4.661-1.328-9.688-2.213-15.104-2.647c-3.591-0.275-7.237-0.344-10.949-0.168
				L24.887,43.353z"/>
		</g>
		<g>
			<path fill="#009FE8" d="M77.998,20.876c0.987,0.326,1.964,0.676,2.906,1.041c4.086,1.744,7.92,3.779,11.517,6.1
				c5.354,3.432,9.518,6.625,12.466,9.572c0.315,0.303,0.616,0.612,0.904,0.946c-5.148-4.728-10.862-8.839-17.137-12.362
				C85.171,24.201,81.624,22.443,77.998,20.876"/>
		</g>
		<g>
			<path fill="#009FE8" d="M75.616,51.575c-0.534-0.346-1.063-0.672-1.598-0.978c0.651,0.336,1.424,0.814,2.276,1.421
				C76.071,51.877,75.849,51.736,75.616,51.575"/>
		</g>
		<g>
			<polygon fill="#00398A" points="112.372,43.43 112.466,43.365 112.709,43.741 112.634,43.796 112.363,43.952 112.124,43.596 			
				"/>
		</g>
		<g>
			<path fill="#009FE8" d="M112.363,43.952l0.271-0.156c1.076,1.43,2.003,2.884,2.795,4.359c0.501,0.901,0.906,1.687,1.249,2.318
				c-3.29-4.344-6.919-8.317-10.887-11.939c-0.29-0.333-0.589-0.645-0.904-0.945c-2.948-2.947-7.112-6.141-12.466-9.572
				c-3.597-2.32-7.431-4.355-11.517-6.102c5.441,2.028,10.479,4.533,15.129,7.555c5.354,3.428,9.518,6.621,12.468,9.568
				c1.445,1.449,2.735,2.905,3.871,4.392l-0.248,0.169L112.363,43.952z"/>
		</g>
		<g>
			<path fill="#00499C" d="M24.887,44.821c-0.735,0-1.369-0.552-1.456-1.301c-0.094-0.804,0.485-1.531,1.289-1.624l9.988-1.151
				c0.801-0.097,1.533,0.482,1.624,1.288c0.094,0.806-0.486,1.532-1.287,1.625l-9.987,1.154
				C24.999,44.818,24.942,44.821,24.887,44.821z"/>
		</g>
		<g>
			<path fill="#CD0E19" d="M100.952,86.735l2.305,1.018c-0.127-0.389-0.441-0.685-0.939-0.89
				C101.763,86.627,101.304,86.569,100.952,86.735"/>
		</g>
		<g>
			<path fill="#009FE8" d="M129.048,104.756c0.07-0.006,0.146-0.008,0.221-0.015c-0.236,0.752-0.452,1.445-0.675,2.104
				c-0.027,0.169-0.058,0.316-0.104,0.467c-0.275,1.286-0.594,2.538-0.913,3.74c-0.301,1.139-0.596,2.134-0.896,2.997
				c-0.552,1.655-1.073,2.863-1.583,3.61c-0.156,0.47-0.312,0.959-0.486,1.467c-0.074,0.316-0.131,0.632-0.208,0.953
				c-0.016,0.035-0.014,0.073-0.03,0.095c-0.016,0.072-0.03,0.147-0.043,0.222c-0.106,0.429-0.228,0.879-0.35,1.312
				c-0.204,0.691-0.439,1.389-0.676,2.046c-0.367,0.998-0.79,1.964-1.257,2.909c-0.66,1.385-1.412,2.681-2.267,3.927
				c-1.648,2.124-3.161,3.754-4.549,4.886c-1.378,1.13-2.899,2.173-4.6,3.1c-0.517,0.305-1.056,0.629-1.645,0.938
				c-0.091,0.063-0.195,0.104-0.287,0.147l-0.564,0.125v0.019c-0.162,0.026-0.344,0.074-0.581,0.124
				c-0.255,0.071-0.471,0.154-0.631,0.294c-1.939,0.496-4.207,0.829-6.762,0.992c-0.402,0.041-0.827,0.066-1.271,0.055
				c-1.146-0.083-2.12-0.322-2.915-0.721c-0.021-0.02-0.039-0.018-0.06-0.033c-0.48-0.397-0.787-0.897-0.909-1.478l-0.002-0.021
				l-0.022-0.015c-0.222-1.336-0.374-2.101-0.462-2.334c-0.021-0.053-0.029-0.186-0.042-0.423c-0.056-0.956,0.122-2.055,0.551-3.294
				c-0.003-0.021-0.003-0.021-0.003-0.035c-0.001-0.022-0.001-0.022-0.001-0.039v-0.017l-0.003-0.018
				c0.034-0.021,0.053-0.06,0.068-0.099l-0.003-0.036l0.18-0.399c0.137-0.19,0.277-0.385,0.395-0.573l-0.003-0.017
				c0.017-0.022,0.054-0.059,0.069-0.078c0.344-0.408,0.605-0.661,0.766-0.781c0.316-0.294,0.848-0.602,1.589-0.958
				c1.113-0.502,2.361-0.905,3.765-1.227c1.401-0.315,2.128-0.489,2.217-0.549c-0.623,0.056-1.303,0.091-2.038,0.115
				c-2.412,0.08-4.786-0.155-7.158-0.665c-0.02,0.003-0.035,0.003-0.054,0.003c-0.018,0.002-0.185-0.024-0.521-0.079
				c-0.109-0.013-0.2-0.044-0.299-0.075c-0.015,0.019-0.055,0.019-0.069,0.04c-0.017,0-0.04-0.016-0.058-0.031l-0.019,0.016
				c-5.806-1.953-8.667-5.26-8.616-9.907c-0.184-1.963,1.048-3.32,3.696-4.062l0.019-0.019c0.979-0.278,2.145-0.49,3.479-0.639
				c5.838-0.131,9.3-0.253,10.38-0.367c-5.584-0.626-9.965-1.446-13.135-2.463c0.016-0.021,0.031-0.058,0.049-0.077
				c-0.9-0.321-1.711-0.66-2.419-1.026c-0.645-0.349-1.237-0.701-1.771-1.06c-1.911-1.2-3.134-2.608-3.691-4.252
				c-0.728-1.839-0.76-3.938-0.061-6.283c0.352-1.255,1.517-2.206,3.508-2.834c1.129-0.544,2.5-0.824,4.138-0.846
				c0.317,0,0.625,0.021,0.939,0.023c0.389-0.023,0.79-0.046,1.195-0.09c5.429-0.211,8.914,0.2,10.487,1.251
				c-2.382-2.354-4.213-4.774-5.5-7.301c-0.309-0.536-0.538-1.039-0.734-1.508c-0.021-0.09-0.084-0.197-0.145-0.306
				c-0.73-1.488-0.937-2.911-0.611-4.277c0.198-1.061,0.68-1.976,1.468-2.759c0.018,0,0.018,0,0.018-0.018
				c0.122-0.098,0.244-0.216,0.329-0.332v-0.018c1.416-1.392,3.444-1.706,6.104-0.918c1.251,0.281,2.608,0.772,4.082,1.446
				c0.723,0.345,1.466,0.782,2.212,1.312c0.791,0.566,2.02,1.472,3.698,2.759c1.523,1.187,2.844,2.364,3.998,3.533
				c0.118,0.122,0.233,0.246,0.333,0.371c1.218,1.293,1.963,2.118,2.26,2.451v0.018l0.066,0.18c0.048,0.184,0.164,0.287,0.336,0.329
				c0.015,0.023,0.036,0.022,0.053,0.039l0.056,0.016c0.095,0.065,0.197,0.208,0.262,0.426c0.094,0.29,0.248,0.464,0.492,0.521
				c0.021,0,0.036,0,0.057,0.021c0.203,0.007,0.521,0.044,0.947,0.093c0.053-0.002,0.09-0.004,0.125-0.006
				c0.056-0.042,0.11-0.08,0.162-0.141c0.279-0.255,0.618-0.438,1.035-0.573l0.002-0.278c0.281,0.078,0.506,0.101,0.668,0.091
				c0.149-0.006,0.261,0.006,0.355,0.055c0.335,1.032,1.098,2.498,2.316,4.439c0.04,0.073,0.08,0.144,0.12,0.196
				c0.226-0.289,0.452-0.503,0.72-0.647c0.092-0.062,0.157-0.102,0.232-0.089c0.167,0.027,0.273,0.227,0.292,0.61
				c0.016,0.204-0.102,0.746-0.346,1.626c0.039,0.017,0.077,0.05,0.112,0.084c0.462,0.325,0.699,0.606,0.716,0.844
				c0,0.019,0.002,0.058-0.017,0.093c0.106-0.061,0.214-0.138,0.321-0.221c1.239-0.86,1.497,1.076,0.753,5.803
				C129.286,103.433,129.177,104.104,129.048,104.756"/>
		</g>
		<g>
			<path fill="#00499C" d="M123,88.8c0.132,0.014,0.186,0.009,0.203,0.009l-0.051,1.069l-0.002,0.279
				c-0.417,0.135-0.756,0.316-1.035,0.573c-0.052,0.061-0.106,0.099-0.162,0.141c-0.035,0.002-0.07,0.004-0.125,0.004
				c-0.427-0.046-0.746-0.084-0.947-0.091c-0.021-0.021-0.035-0.017-0.057-0.017c-0.244-0.059-0.398-0.235-0.492-0.525
				c-0.064-0.218-0.167-0.358-0.262-0.426l-0.056-0.016c-0.017-0.019-0.038-0.017-0.053-0.035c-0.172-0.046-0.288-0.149-0.337-0.333
				l-0.065-0.178v-0.02c-0.297-0.333-1.042-1.158-2.26-2.454c-0.1-0.12-0.215-0.244-0.333-0.366
				c-1.154-1.171-2.478-2.349-3.998-3.532c-1.679-1.29-2.907-2.197-3.698-2.762c-0.746-0.526-1.489-0.966-2.212-1.312
				c-1.474-0.671-2.831-1.165-4.082-1.446c-0.693-0.2-1.327-0.33-1.938-0.39l-0.17-2.958c1.464,0.139,3.116,0.581,4.909,1.348
				c0.846,0.337,1.722,0.767,2.614,1.25l0.109-0.025l0.753,0.327c0.043,0.036,0.079,0.069,0.102,0.089l0.015-0.021l0.039,0.017
				c0.094,0.051,0.152,0.083,0.19,0.137l0.019,0.016c5.183,3.58,8.854,6.575,10.999,8.981c0.078,0.089,0.157,0.159,0.253,0.246
				c0.022,0.034,0.04,0.052,0.062,0.07c0.135,0.137,0.257,0.296,0.393,0.473c0.038,0,0.076-0.003,0.109-0.003
				c0.003,0.033-0.01,0.073-0.027,0.108l0.313,0.022c0.19,0.119,0.368,0.347,0.518,0.689c0.127,0.305,0.249,0.482,0.38,0.511
				c0.188,0.046,0.299,0.058,0.334,0.038c0.018-0.038,0.034-0.058,0.073-0.06L123,88.8z M108.982,78.939
				c0.021,0.018,0.022,0.055,0.022,0.073C109.005,78.994,109.003,78.957,108.982,78.939"/>
		</g>
		<g>
			<path fill="#00499C" d="M124.42,59.592c-1.037-1.895-2.062-3.589-3.128-5.173c-1.167-1.755-2.296-3.339-3.445-4.833
				c-3.305-4.367-7.02-8.439-11.041-12.108c-0.29-0.33-0.588-0.646-0.879-0.925c-3-2.999-7.277-6.287-12.71-9.769
				c-3.658-2.363-7.607-4.455-11.729-6.216c-4.483-1.938-9.328-3.538-14.402-4.755l-0.514-0.242l-0.167,0.07
				c-1.105-0.269-2.219-0.51-3.359-0.738c-6.118-1.199-12.405-1.936-18.68-2.189c-1.918-0.08-3.974-0.113-6.14-0.095
				c-2.886,0.072-7.704,0.513-14.32,1.312l-1.002,0.124c-2.747,0.337-5.982,0.735-9.715,1.224l-1.453,0.192l0.38,2.91l1.454-0.191
				c3.725-0.488,6.952-0.885,9.695-1.222l0.997-0.124c6.521-0.787,11.242-1.223,14.01-1.289c2.099-0.019,4.104,0.015,5.97,0.092
				c6.131,0.248,12.269,0.967,18.233,2.136c0.972,0.194,1.928,0.401,2.874,0.625l0.861,0.214c0.093,0.022,0.188,0.045,0.282,0.067
				l0.153,0.039l0.003-0.001c3.272,0.794,6.431,1.765,9.462,2.875c0.161,0.17,0.36,0.31,0.6,0.389l0.29,0.096
				c0.158,0.05,0.314,0.099,0.416,0.137c3.59,1.551,7.127,3.309,10.519,5.23c6.163,3.46,11.821,7.54,16.825,12.131
				c1.034,1.085,1.986,2.192,2.835,3.289l0.897,1.16l0.444-0.344c2.328,2.43,4.538,4.986,6.575,7.677
				c1.11,1.451,2.205,2.98,3.338,4.685c1.019,1.514,2.001,3.138,2.999,4.956c5.801,10.494,8.475,21.995,7.95,34.178
				c-0.149,3.46-0.531,6.908-1.129,10.251c-0.669,3.703-1.626,7.335-2.857,10.884c-0.242,0.542-0.48,0.997-0.717,1.343
				c-0.156,0.467-0.312,0.959-0.486,1.466c-0.074,0.308-0.129,0.616-0.202,0.926c-1.935,4.726-4.375,9.289-7.311,13.656
				c-0.005,0.008-0.008,0.017-0.013,0.024c-0.64,0.666-1.261,1.26-1.854,1.742c-1.378,1.125-2.899,2.171-4.6,3.098
				c-0.517,0.305-1.056,0.631-1.645,0.94c-0.091,0.062-0.195,0.103-0.287,0.146l-0.564,0.123v0.02
				c-0.162,0.029-0.344,0.075-0.581,0.125c-0.255,0.071-0.471,0.157-0.631,0.296c-0.705,0.187-1.47,0.339-2.273,0.476l0.164,2.943
				c0.986-0.169,1.971-0.39,2.968-0.667c0.022,0.017,0.042,0.052,0.062,0.069c0.249-0.124,0.593-0.234,1.011-0.316
				c0.037-0.002,0.055-0.002,0.072-0.003c0.634-0.258,1.242-0.533,1.868-0.844c0.669-0.315,1.349-0.665,2.008-1.034
				c4.989-2.716,8.583-6.312,10.746-10.784c0.083-0.151,0.147-0.304,0.212-0.456c0.778-1.61,1.464-3.158,2.024-4.666
				c0.125-0.358,0.232-0.695,0.347-1.015c0.254-0.69,0.474-1.347,0.657-1.997c0.138-0.328,0.285-0.652,0.418-0.981
				c0.086-0.039,0.167-0.074,0.262-0.122c-0.005-0.13-0.015-0.238-0.021-0.365c-0.002-0.037-0.005-0.087-0.007-0.128
				c1.841-4.653,3.229-9.451,4.118-14.376c0.621-3.474,1.018-7.056,1.176-10.645C133.281,82.583,130.482,70.56,124.42,59.592z"/>
			<path fill="#00499C" d="M83.26,59.714l1.48,1.831l2.284-1.844l-1.562-1.934c-0.658-0.781-1.224-1.396-1.765-1.928
				c-1.434-1.411-3.598-3.074-6.531-5.003c-0.007-0.004-0.014-0.01-0.021-0.015c-0.833-0.592-1.6-1.071-2.217-1.398l0.007-0.014
				l-1.279-0.719c-3.71-2.08-7.854-3.791-12.327-5.089c-4.739-1.351-9.916-2.259-15.391-2.697
				c-3.766-0.286-7.512-0.344-11.135-0.169l-1.466,0.069l0.142,2.934l1.466-0.07c3.501-0.172,7.126-0.113,10.765,0.162
				c5.274,0.425,10.258,1.298,14.81,2.594c4.17,1.208,8.039,2.794,11.502,4.717l-0.004,0.007l1.274,0.727
				c0.514,0.29,1.018,0.605,1.491,0.909c0.214,0.148,0.421,0.281,0.706,0.462c1.338,0.941,3.003,2.276,5.098,4.083
				C81.611,58.216,82.499,59.008,83.26,59.714z"/>
			<path fill="#00499C" d="M100.162,141.215c-0.402,0.039-0.827,0.066-1.271,0.055c-1.146-0.086-2.12-0.322-2.915-0.721
				c-0.021-0.018-0.039-0.018-0.06-0.033c-0.48-0.397-0.787-0.897-0.909-1.479l-0.002-0.02l-0.022-0.015
				c-0.222-1.334-0.374-2.101-0.462-2.334c-0.021-0.053-0.029-0.183-0.042-0.423c-0.056-0.954,0.122-2.053,0.548-3.294
				c0-0.019,0-0.019,0-0.038c-0.001-0.02-0.001-0.02-0.001-0.036v-0.017l-0.003-0.019c0.034-0.021,0.053-0.062,0.068-0.098
				l-0.003-0.036l0.18-0.399c0.139-0.188,0.277-0.383,0.395-0.573l-0.004-0.019c0.018-0.021,0.055-0.057,0.07-0.076
				c0.344-0.408,0.605-0.661,0.766-0.781c0.316-0.294,0.848-0.604,1.589-0.958c1.113-0.502,2.361-0.909,3.765-1.227
				c1.128-0.249,1.818-0.415,2.092-0.507l-0.002-0.033c-0.589,0.051-1.231,0.087-1.911,0.104c-2.412,0.084-4.787-0.153-7.158-0.663
				c-0.017,0.003-0.035,0.003-0.054,0.003c-0.018,0.002-0.185-0.024-0.521-0.079c-0.109-0.013-0.203-0.044-0.299-0.075
				c-0.015,0.019-0.055,0.019-0.069,0.04c-0.017,0-0.04-0.016-0.058-0.031l-0.019,0.016c-5.806-1.953-8.667-5.257-8.616-9.907
				c-0.184-1.963,1.048-3.323,3.696-4.062l0.019-0.02c0.979-0.277,2.145-0.489,3.479-0.642c5.838-0.127,9.3-0.249,10.38-0.365
				c-5.584-0.62-9.965-1.444-13.135-2.461c0.016-0.021,0.031-0.058,0.049-0.078c-0.9-0.317-1.711-0.659-2.419-1.025
				c-0.645-0.351-1.237-0.701-1.771-1.062c-1.911-1.2-3.134-2.606-3.689-4.25c-0.729-1.839-0.76-3.94-0.062-6.283
				c0.352-1.255,1.517-2.207,3.508-2.838c1.129-0.54,2.5-0.82,4.138-0.842c0.317,0,0.626,0.021,0.943,0.021
				c0.385-0.021,0.786-0.044,1.191-0.084c5.429-0.215,8.914,0.196,10.487,1.247c-2.382-2.352-4.213-4.774-5.5-7.301
				c-0.309-0.534-0.538-1.039-0.734-1.509c-0.021-0.089-0.084-0.196-0.145-0.305c-0.73-1.488-0.937-2.913-0.611-4.277
				c0.198-1.061,0.682-1.976,1.468-2.758c0.019,0,0.019,0,0.018-0.019c0.122-0.1,0.244-0.218,0.329-0.332v-0.021
				c1.048-1.034,2.442-1.464,4.166-1.304l-0.17-2.958c-2.683-0.234-4.812,0.568-6.386,2.427c-2.918,3.207-3.459,6.667-1.606,10.341
				c0.809,1.594,1.68,3.001,2.632,4.22c-1.758-0.138-3.828-0.208-6.165-0.201c-5.769,0.013-9.296,2.534-10.56,7.602
				c-1.265,4.993,0.49,8.97,5.283,11.903l0.022,0.018c0.704,0.42,1.462,0.803,2.24,1.162c-2.943,1.073-4.282,3.176-3.975,6.312
				c0.105,5.448,3.458,9.315,10.022,11.615c0.147-0.008,0.258,0.005,0.351,0.019c0.055-0.005,0.129,0.011,0.188,0.026
				c0.165,0.008,0.292,0,0.385,0.016c0.041,0.017,0.077,0.014,0.095,0.014c0.111-0.007,0.256-0.018,0.439-0.029
				c0.385-0.037,0.627-0.053,0.698-0.037c0.021-0.003,0.037-0.003,0.059-0.003c-0.09,0.074-0.192,0.177-0.304,0.273
				c-0.485,0.47-0.749,0.727-0.802,0.765v0.02c-1.211,1.34-1.746,3.601-1.603,6.818c0.038,0.975,0.198,1.868,0.446,2.65
				c0.058,0.106,0.143,0.229,0.205,0.354c0.305,0.556,0.573,1.041,0.8,1.469c0.64,0.534,1.222,1.056,1.71,1.561
				c1.098,0.438,2.364,0.679,3.824,0.743c1.919,0.095,3.903-0.054,5.946-0.428l-0.164-2.941
				C103.279,140.947,101.777,141.124,100.162,141.215z"/>
		</g>
		<g>
			<path fill="#00499C" d="M103.94,128.168l-0.002-0.033c0.055-0.005,0.091-0.005,0.127-0.009
				C104.048,128.146,104.01,128.146,103.94,128.168"/>
		</g>
		<g>
			<path fill="#009FE8" d="M45.88,47.153c0.036,0.093,0.069,0.165,0.1,0.219l0.079,0.004c-0.016-0.097-0.038-0.229-0.07-0.361
				C45.966,47.08,45.934,47.124,45.88,47.153"/>
		</g>
		<g>
			<path fill="#009FE8" d="M45.132,33.816c0.129,0.587,0.376,1.07,0.752,1.415c1.517,1.408,2.536,2.775,3.072,4.09l2.218-0.429
				L45.132,33.816z"/>
		</g>
	</g>
</g>
<g id="guide" display="none">
</g>
</svg>
