<svg xmlns="http://www.w3.org/2000/svg" width="145.348" height="152.006" viewBox="0 0 145.348 152.006"><g><path fill="#009FE8" d="M24.887 43.353l-.722-1.626c-2.856-6.223-5.247-14.075-7.173-23.54 4.191-.551 7.754-.983 10.707-1.349 6.666-.805 11.395-1.231 14.176-1.301 2.078-.016 4.098.011 6.039.095 6.235.25 12.396.974 18.462 2.161l.022.011c3.739.733 7.324 1.674 10.774 2.795.283.096.558.175.825.277 3.626 1.567 7.173 3.325 10.656 5.297 6.274 3.522 11.988 7.636 17.137 12.361 1.088 1.145 2.076 2.294 2.968 3.443-.892-1.149-1.88-2.299-2.968-3.443 3.968 3.622 7.597 7.596 10.887 11.938l1.201 2.22c-.051-.12.103-.047.458.216.691 1.241 1.288 2.36 1.806 3.396l.096.177-.426-.373 2.423 4.647.899-.458c5.961 10.788 8.669 22.432 8.135 34.954-.155 3.542-.54 7.024-1.155 10.448l-25.1 7.362c-1.142-13.685-4.752-26.736-10.803-39.172-.598-1.164-1.208-2.316-1.821-3.472-2.097-3.867-4.576-7.526-7.432-10.937l-.62-.771c-.553-.657-1.109-1.274-1.676-1.827-1.391-1.373-3.517-3-6.368-4.865-.853-.608-1.625-1.086-2.276-1.422-.357-.224-.727-.42-1.079-.625-3.659-2.055-7.657-3.694-12.011-4.956-4.661-1.328-9.688-2.213-15.104-2.647-3.591-.275-7.237-.344-10.949-.168l-9.988 1.154zM77.998 20.876c.987.326 1.964.676 2.906 1.041 4.086 1.744 7.92 3.779 11.517 6.1 5.354 3.432 9.518 6.625 12.466 9.572.315.303.616.612.904.946-5.148-4.728-10.862-8.839-17.137-12.362-3.483-1.972-7.03-3.73-10.656-5.297M75.616 51.575c-.534-.346-1.063-.672-1.598-.978.651.336 1.424.814 2.276 1.421-.223-.141-.445-.282-.678-.443"/><path fill="#00398A" d="M112.372 43.43l.094-.065.243.376-.075.055-.271.156-.239-.356z"/><path fill="#009FE8" d="M112.363 43.952l.271-.156c1.076 1.43 2.003 2.884 2.795 4.359.501.901.906 1.687 1.249 2.318-3.29-4.344-6.919-8.317-10.887-11.939-.29-.333-.589-.645-.904-.945-2.948-2.947-7.112-6.141-12.466-9.572-3.597-2.32-7.431-4.355-11.517-6.102 5.441 2.028 10.479 4.533 15.129 7.555 5.354 3.428 9.518 6.621 12.468 9.568 1.445 1.449 2.735 2.905 3.871 4.392l-.248.169.239.353z"/><path fill="#00499C" d="M24.887 44.821c-.735 0-1.369-.552-1.456-1.301-.094-.804.485-1.531 1.289-1.624l9.988-1.151c.801-.097 1.533.482 1.624 1.288.094.806-.486 1.532-1.287 1.625l-9.987 1.154-.171.009z"/><path fill="#CD0E19" d="M100.952 86.735l2.305 1.018c-.127-.389-.441-.685-.939-.89-.555-.236-1.014-.294-1.366-.128"/><path fill="#009FE8" d="M129.048 104.756l.221-.015c-.236.752-.452 1.445-.675 2.104-.027.169-.058.316-.104.467-.275 1.286-.594 2.538-.913 3.74-.301 1.139-.596 2.134-.896 2.997-.552 1.655-1.073 2.863-1.583 3.61-.156.47-.312.959-.486 1.467l-.208.953-.03.095-.043.222c-.106.429-.228.879-.35 1.312-.204.691-.439 1.389-.676 2.046-.367.998-.79 1.964-1.257 2.909-.66 1.385-1.412 2.681-2.267 3.927-1.648 2.124-3.161 3.754-4.549 4.886-1.378 1.13-2.899 2.173-4.6 3.1-.517.305-1.056.629-1.645.938l-.287.147-.564.125v.019l-.581.124c-.255.071-.471.154-.631.294-1.939.496-4.207.829-6.762.992-.402.041-.827.066-1.271.055-1.146-.083-2.12-.322-2.915-.721l-.06-.033c-.48-.397-.787-.897-.909-1.478l-.002-.021-.022-.015c-.222-1.336-.374-2.101-.462-2.334-.021-.053-.029-.186-.042-.423-.056-.956.122-2.055.551-3.294l-.003-.035-.001-.039v-.017l-.003-.018.068-.099-.003-.036.18-.399c.137-.19.277-.385.395-.573l-.003-.017.069-.078c.344-.408.605-.661.766-.781.316-.294.848-.602 1.589-.958 1.113-.502 2.361-.905 3.765-1.227 1.401-.315 2.128-.489 2.217-.549-.623.056-1.303.091-2.038.115-2.412.08-4.786-.155-7.158-.665l-.054.003-.521-.079-.299-.075-.069.04-.058-.031-.019.016c-5.806-1.953-8.667-5.26-8.616-9.907-.184-1.963 1.048-3.32 3.696-4.062l.019-.019c.979-.278 2.145-.49 3.479-.639 5.838-.131 9.3-.253 10.38-.367-5.584-.626-9.965-1.446-13.135-2.463l.049-.077c-.9-.321-1.711-.66-2.419-1.026-.645-.349-1.237-.701-1.771-1.06-1.911-1.2-3.134-2.608-3.691-4.252-.728-1.839-.76-3.938-.061-6.283.352-1.255 1.517-2.206 3.508-2.834 1.129-.544 2.5-.824 4.138-.846l.939.023c.389-.023.79-.046 1.195-.09 5.429-.211 8.914.2 10.487 1.251-2.382-2.354-4.213-4.774-5.5-7.301-.309-.536-.538-1.039-.734-1.508-.021-.09-.084-.197-.145-.306-.73-1.488-.937-2.911-.611-4.277.198-1.061.68-1.976 1.468-2.759l.018-.018c.122-.098.244-.216.329-.332v-.018c1.416-1.392 3.444-1.706 6.104-.918 1.251.281 2.608.772 4.082 1.446.723.345 1.466.782 2.212 1.312.791.566 2.02 1.472 3.698 2.759 1.523 1.187 2.844 2.364 3.998 3.533.118.122.233.246.333.371 1.218 1.293 1.963 2.118 2.26 2.451v.018l.066.18c.048.184.164.287.336.329l.053.039.056.016c.095.065.197.208.262.426.094.29.248.464.492.521l.057.021c.203.007.521.044.947.093l.125-.006.162-.141c.279-.255.618-.438 1.035-.573l.002-.278c.281.078.506.101.668.091.149-.006.261.006.355.055.335 1.032 1.098 2.498 2.316 4.439l.12.196c.226-.289.452-.503.72-.647.092-.062.157-.102.232-.089.167.027.273.227.292.61.016.204-.102.746-.346 1.626l.112.084c.462.325.699.606.716.844l-.017.093.321-.221c1.239-.86 1.497 1.076.753 5.803-.108.671-.217 1.342-.346 1.994"/><path fill="#00499C" d="M123 88.8l.203.009-.051 1.069-.002.279c-.417.135-.756.316-1.035.573l-.162.141-.125.004c-.427-.046-.746-.084-.947-.091l-.057-.017c-.244-.059-.398-.235-.492-.525-.064-.218-.167-.358-.262-.426l-.056-.016-.053-.035c-.172-.046-.288-.149-.337-.333l-.065-.178v-.02c-.297-.333-1.042-1.158-2.26-2.454l-.333-.366c-1.154-1.171-2.478-2.349-3.998-3.532-1.679-1.29-2.907-2.197-3.698-2.762-.746-.526-1.489-.966-2.212-1.312-1.474-.671-2.831-1.165-4.082-1.446-.693-.2-1.327-.33-1.938-.39l-.17-2.958c1.464.139 3.116.581 4.909 1.348.846.337 1.722.767 2.614 1.25l.109-.025.753.327.102.089.015-.021.039.017c.094.051.152.083.19.137l.019.016c5.183 3.58 8.854 6.575 10.999 8.981l.253.246.062.07c.135.137.257.296.393.473l.109-.003-.027.108.313.022c.19.119.368.347.518.689.127.305.249.482.38.511.188.046.299.058.334.038l.073-.06-.025.573zm-14.018-9.861l.022.073-.022-.073"/><g fill="#00499C"><path d="M124.42 59.592c-1.037-1.895-2.062-3.589-3.128-5.173-1.167-1.755-2.296-3.339-3.445-4.833-3.305-4.367-7.02-8.439-11.041-12.108-.29-.33-.588-.646-.879-.925-3-2.999-7.277-6.287-12.71-9.769-3.658-2.363-7.607-4.455-11.729-6.216-4.483-1.938-9.328-3.538-14.402-4.755l-.514-.242-.167.07c-1.105-.269-2.219-.51-3.359-.738-6.118-1.199-12.405-1.936-18.68-2.189-1.918-.08-3.974-.113-6.14-.095-2.886.072-7.704.513-14.32 1.312l-1.002.124c-2.747.337-5.982.735-9.715 1.224l-1.453.192.38 2.91 1.454-.191c3.725-.488 6.952-.885 9.695-1.222l.997-.124c6.521-.787 11.242-1.223 14.01-1.289 2.099-.019 4.104.015 5.97.092 6.131.248 12.269.967 18.233 2.136.972.194 1.928.401 2.874.625l.861.214.282.067.153.039.003-.001c3.272.794 6.431 1.765 9.462 2.875.161.17.36.31.6.389l.29.096.416.137c3.59 1.551 7.127 3.309 10.519 5.23 6.163 3.46 11.821 7.54 16.825 12.131 1.034 1.085 1.986 2.192 2.835 3.289l.897 1.16.444-.344c2.328 2.43 4.538 4.986 6.575 7.677 1.11 1.451 2.205 2.98 3.338 4.685 1.019 1.514 2.001 3.138 2.999 4.956 5.801 10.494 8.475 21.995 7.95 34.178-.149 3.46-.531 6.908-1.129 10.251-.669 3.703-1.626 7.335-2.857 10.884-.242.542-.48.997-.717 1.343l-.486 1.466-.202.926c-1.935 4.726-4.375 9.289-7.311 13.656l-.013.024c-.64.666-1.261 1.26-1.854 1.742-1.378 1.125-2.899 2.171-4.6 3.098-.517.305-1.056.631-1.645.94l-.287.146-.564.123v.02l-.581.125c-.255.071-.471.157-.631.296-.705.187-1.47.339-2.273.476l.164 2.943c.986-.169 1.971-.39 2.968-.667l.062.069c.249-.124.593-.234 1.011-.316l.072-.003c.634-.258 1.242-.533 1.868-.844.669-.315 1.349-.665 2.008-1.034 4.989-2.716 8.583-6.312 10.746-10.784.083-.151.147-.304.212-.456.778-1.61 1.464-3.158 2.024-4.666l.347-1.015c.254-.69.474-1.347.657-1.997l.418-.981.262-.122-.021-.365-.007-.128c1.841-4.653 3.229-9.451 4.118-14.376.621-3.474 1.018-7.056 1.176-10.645.548-12.732-2.251-24.755-8.313-35.723zM83.26 59.714l1.48 1.831 2.284-1.844-1.562-1.934c-.658-.781-1.224-1.396-1.765-1.928-1.434-1.411-3.598-3.074-6.531-5.003l-.021-.015c-.833-.592-1.6-1.071-2.217-1.398l.007-.014-1.279-.719c-3.71-2.08-7.854-3.791-12.327-5.089-4.739-1.351-9.916-2.259-15.391-2.697-3.766-.286-7.512-.344-11.135-.169l-1.466.069.142 2.934 1.466-.07c3.501-.172 7.126-.113 10.765.162 5.274.425 10.258 1.298 14.81 2.594 4.17 1.208 8.039 2.794 11.502 4.717l-.004.007 1.274.727c.514.29 1.018.605 1.491.909.214.148.421.281.706.462 1.338.941 3.003 2.276 5.098 4.083 1.024.887 1.912 1.679 2.673 2.385zM100.162 141.215c-.402.039-.827.066-1.271.055-1.146-.086-2.12-.322-2.915-.721l-.06-.033c-.48-.397-.787-.897-.909-1.479l-.002-.02-.022-.015c-.222-1.334-.374-2.101-.462-2.334-.021-.053-.029-.183-.042-.423-.056-.954.122-2.053.548-3.294v-.038l-.001-.036v-.017l-.003-.019.068-.098-.003-.036.18-.399c.139-.188.277-.383.395-.573l-.004-.019.07-.076c.344-.408.605-.661.766-.781.316-.294.848-.604 1.589-.958 1.113-.502 2.361-.909 3.765-1.227 1.128-.249 1.818-.415 2.092-.507l-.002-.033c-.589.051-1.231.087-1.911.104-2.412.084-4.787-.153-7.158-.663l-.054.003-.521-.079-.299-.075-.069.04-.058-.031-.019.016c-5.806-1.953-8.667-5.257-8.616-9.907-.184-1.963 1.048-3.323 3.696-4.062l.019-.02c.979-.277 2.145-.489 3.479-.642 5.838-.127 9.3-.249 10.38-.365-5.584-.62-9.965-1.444-13.135-2.461l.049-.078c-.9-.317-1.711-.659-2.419-1.025-.645-.351-1.237-.701-1.771-1.062-1.911-1.2-3.134-2.606-3.689-4.25-.729-1.839-.76-3.94-.062-6.283.352-1.255 1.517-2.207 3.508-2.838 1.129-.54 2.5-.82 4.138-.842l.943.021c.385-.021.786-.044 1.191-.084 5.429-.215 8.914.196 10.487 1.247-2.382-2.352-4.213-4.774-5.5-7.301-.309-.534-.538-1.039-.734-1.509-.021-.089-.084-.196-.145-.305-.73-1.488-.937-2.913-.611-4.277.198-1.061.682-1.976 1.468-2.758l.018-.019c.122-.1.244-.218.329-.332v-.021c1.048-1.034 2.442-1.464 4.166-1.304l-.17-2.958c-2.683-.234-4.812.568-6.386 2.427-2.918 3.207-3.459 6.667-1.606 10.341.809 1.594 1.68 3.001 2.632 4.22-1.758-.138-3.828-.208-6.165-.201-5.769.013-9.296 2.534-10.56 7.602-1.265 4.993.49 8.97 5.283 11.903l.022.018c.704.42 1.462.803 2.24 1.162-2.943 1.073-4.282 3.176-3.975 6.312.105 5.448 3.458 9.315 10.022 11.615.147-.008.258.005.351.019l.188.026.385.016.095.014.439-.029c.385-.037.627-.053.698-.037l.059-.003-.304.273c-.485.47-.749.727-.802.765v.02c-1.211 1.34-1.746 3.601-1.603 6.818.038.975.198 1.868.446 2.65l.205.354c.305.556.573 1.041.8 1.469.64.534 1.222 1.056 1.71 1.561 1.098.438 2.364.679 3.824.743 1.919.095 3.903-.054 5.946-.428l-.164-2.941c-1.37.244-2.872.421-4.487.512z"/></g><path fill="#00499C" d="M103.94 128.168l-.002-.033.127-.009-.125.042"/><path fill="#009FE8" d="M45.88 47.153l.1.219.079.004-.07-.361c-.023.065-.055.109-.109.138"/><path fill="#009FE8" d="M45.132 33.816c.129.587.376 1.07.752 1.415 1.517 1.408 2.536 2.775 3.072 4.09l2.218-.429-6.042-5.076z"/></g></svg>