<?xml version="1.0" encoding="utf-8"?>
<!-- Generator: Adobe Illustrator 16.2.1, SVG Export Plug-In . SVG Version: 6.00 Build 0)  -->
<!DOCTYPE svg PUBLIC "-//W3C//DTD SVG 1.1//EN" "http://www.w3.org/Graphics/SVG/1.1/DTD/svg11.dtd">
<svg version="1.1" xmlns="http://www.w3.org/2000/svg" xmlns:xlink="http://www.w3.org/1999/xlink" x="0px" y="0px"
	 width="115.981px" height="106.716px" viewBox="0 0 115.981 106.716" enable-background="new 0 0 115.981 106.716"
	 xml:space="preserve">
<g id="base">
</g>
<g id="book3">
</g>
<g id="_x38_" display="none">
</g>
<g id="_x37_" display="none">
</g>
<g id="_x36_" display="none">
</g>
<g id="_x35_" display="none">
</g>
<g id="_x34_" display="none">
</g>
<g id="_x33_" display="none">
</g>
<g id="_x32_" display="none">
</g>
<g id="_x31_" display="none">
</g>
<g id="_x30_">
	<g>
		<g>
			<path fill="#009FE8" d="M51.802,30.165c-0.534-0.346-1.063-0.672-1.598-0.978c0.651,0.336,1.424,0.814,2.276,1.421
				C52.257,30.467,52.034,30.326,51.802,30.165"/>
		</g>
		<g>
			<polygon fill="#00398A" points="88.558,22.02 88.651,21.955 88.895,22.331 88.819,22.386 88.549,22.542 88.31,22.186 			"/>
		</g>
		<g>
			<path fill="#009FE8" d="M65.202,45.467c-0.397-0.166-0.597-0.259-0.603-0.273c0.036-0.238,0.098-0.463,0.13-0.703
				c0.097-0.463,0.063-0.81-0.058-1.037c-1.153-2.06-2.326-3.847-3.527-5.381c2.855,3.41,5.335,7.069,7.432,10.937
				c0.613,1.155,1.224,2.308,1.821,3.472l-0.168,0.074l-0.915-1.383l-3.558-5.449C65.765,45.7,65.591,45.618,65.202,45.467"/>
		</g>
		<g>
			<path fill="#FFE100" d="M70.51,91.538c-4.49,0-9.44-0.825-14.72-2.454l-0.121-0.039l-0.071-0.107
				c-0.366-0.56-0.896-1.197-1.525-1.849l-0.855-0.88l1.193,0.279c4.47,1.032,9.181,0.979,14.038-0.164
				c4.776-1.17,8.886-5.643,12.216-13.293c3.384-7.734,5.471-13.645,6.2-17.56c0.762-3.951,0.925-7.613,0.49-10.887
				c-2.031-0.636-4.089-1.398-6.113-2.271c-6.303-2.754-8.804-5.404-7.649-8.098c0.397-0.925,1.329-1.507,2.771-1.73l0.182-0.027
				l0.092,0.096c4.996,1.917,9.682,3.35,13.928,4.259c2.419,0.512,4.399,0.77,5.88,0.77c1.209,0,2.73-0.181,3.112-1.042
				c0.392-0.916-0.312-2.845-5.898-6.819l-0.271-0.194l0.155-0.261c-2.619-1.661-5.578-3.33-8.791-4.965l-6.515-3.155
				c-0.823-0.382-1.652-0.751-2.515-1.12c-0.098-0.053-0.163-0.075-0.227-0.1l-4.995-2.059c-1.062-0.44-2.008-0.835-2.961-1.174
				l-0.086-0.033l-0.063-0.071c-0.748-0.861-1.612-1.719-2.567-2.55c-2.164-1.866-4.524-3.439-7.017-4.677l0.161-0.682
				c0.158,0,0.297,0.024,0.436,0.081c3.667,0.877,7.704,2.156,12.29,3.891c0.608,0.226,1.202,0.444,1.8,0.69l5.225,2.139
				c1.246,0.543,2.487,1.117,3.709,1.689l2.365,1.146c0.243,0.111,0.505,0.242,0.764,0.376c4.27,2.141,8.287,4.509,11.938,7.041
				c3.831,2.607,5.774,4.012,6.297,4.553c4.62,4.614,6.284,8.5,4.942,11.548c-0.291,0.683-0.728,1.302-1.303,1.837
				c-0.702,0.623-1.573,1.124-2.669,1.531l-0.558,0.209l0.074-0.59c0.028-0.205,0.054-0.428,0.083-0.672
				c-0.099,0.197-0.197,0.385-0.293,0.561l0.076-0.016l-0.6,0.878c-0.186,0.263-0.369,0.486-0.552,0.673
				c0.475,0.012,0.946,0.021,1.425,0.03l0.398,0.009l-0.021,0.396c-0.166,1.373-0.375,2.797-0.613,4.229
				c-1.5,9.713-3.516,17.521-5.991,23.205c-3.61,8.285-9.489,13.702-17.471,16.101c-1.718,0.529-3.506,0.89-5.459,1.102
				c-0.068,0.017-0.121,0.03-0.188,0.03l-0.083-0.002c-0.716,0.082-1.486,0.141-2.354,0.178
				C71.256,91.533,70.882,91.538,70.51,91.538z M56.129,88.433c5.591,1.715,10.782,2.504,15.476,2.366
				c0.882-0.035,1.664-0.096,2.385-0.183l0.104-0.011l0.02,0.009l0.066-0.016c1.908-0.208,3.65-0.56,5.325-1.075
				c7.772-2.336,13.499-7.616,17.023-15.699c2.448-5.626,4.449-13.374,5.937-23.032c0.22-1.288,0.404-2.563,0.562-3.802
				c-0.82-0.017-1.61-0.037-2.387-0.083c-0.672,0.037-1.5,0.037-2.303,0c-1.042-0.062-2.099-0.157-3.146-0.281l-0.416-0.052
				l0.148-0.544c-0.469-0.029-0.914-0.064-1.349-0.105c-0.404-0.027-0.825-0.072-1.245-0.116l-0.29-0.028l0.072-0.72l0.291,0.03
				c0.415,0.045,0.829,0.088,1.231,0.117c0.888,0.079,1.805,0.14,2.888,0.184c0.735,0.02,1.453,0,2.134-0.056
				c0.993-0.039,1.832-0.114,2.576-0.237c0.31-0.044,0.602-0.104,0.866-0.165c0.492-0.781,1.006-1.871,1.533-3.247l0.693,0.168
				c-0.096,0.962-0.182,1.777-0.261,2.448c0.751-0.33,1.37-0.714,1.879-1.165c0.491-0.461,0.873-0.998,1.127-1.592
				c1.208-2.749-0.405-6.364-4.797-10.754c-0.633-0.657-3.834-2.861-6.191-4.464c-3.625-2.513-7.61-4.864-11.849-6.993
				c-0.258-0.129-0.511-0.257-0.751-0.366l-2.368-1.146c-1.21-0.568-2.442-1.14-3.679-1.675l-5.22-2.139
				c-0.588-0.24-1.172-0.458-1.775-0.678c-3.592-1.361-6.842-2.437-9.861-3.266c1.648,0.998,3.229,2.146,4.715,3.43
				c0.957,0.83,1.821,1.688,2.578,2.551c0.939,0.339,1.863,0.724,2.842,1.129l4.989,2.056c0.146,0.061,0.251,0.101,0.34,0.151
				c0.831,0.353,1.669,0.723,2.503,1.111l6.521,3.161c3.364,1.711,6.443,3.457,9.16,5.191l0.292,0.188l-0.175,0.293
				c4.671,3.361,6.594,5.815,5.872,7.499c-0.764,1.72-3.947,1.928-9.804,0.693c-4.29-0.919-9.021-2.366-14.058-4.303
				c-1.126,0.196-1.812,0.617-2.101,1.284c-0.953,2.221,1.492,4.626,7.273,7.15c2.072,0.894,4.18,1.673,6.26,2.315l0.219,0.066
				l0.032,0.226c0.485,3.411,0.328,7.227-0.466,11.349c-0.74,3.969-2.842,9.927-6.251,17.711
				c-3.419,7.869-7.694,12.482-12.705,13.705c-4.571,1.076-9.014,1.211-13.267,0.399C55.649,87.774,55.912,88.114,56.129,88.433z
				 M98.521,46.069c0.707,0.051,1.423,0.097,2.152,0.117l0,0c0.177,0,0.422-0.082,0.738-0.385c-0.022,0.003-0.044,0.007-0.069,0.01
				c-0.768,0.126-1.632,0.206-2.642,0.242C98.64,46.062,98.58,46.064,98.521,46.069z"/>
		</g>
		<g>
			<path fill="#D7BE00" d="M84.91,23.98l-6.52-3.159c-0.829-0.388-1.659-0.756-2.528-1.126c-0.094-0.057-0.206-0.094-0.299-0.129
				l-4.927-2.029c-0.629-0.243-1.258-0.483-1.864-0.703c-1.46-0.556-2.864-1.056-4.229-1.479c-2.843-0.944-5.504-1.661-7.978-2.198
				c-5.635-1.162-8.79-0.996-9.439,0.52c-0.665,1.494,1.349,3.913,6.061,7.218c2.859,2.05,6.222,4.101,10.081,6.114l7.534,3.507
				c0.089,0.037,0.205,0.073,0.292,0.129c0.89,0.39,1.759,0.759,2.625,1.108l1.812,0.757c0.203,0.075,0.404,0.147,0.608,0.222
				c0.093,0.036,0.187,0.075,0.276,0.11l0.019,0.019c5.134,1.977,9.823,3.399,14.053,4.306c5.596,1.181,8.737,1.014,9.399-0.48
				c0.648-1.514-1.348-3.935-6.019-7.258C91.265,27.601,88.27,25.789,84.91,23.98"/>
		</g>
		<path fill="#FFE100" d="M102.529,30.536c-0.517-0.536-2.606-2.031-6.247-4.506c-3.596-2.494-7.55-4.84-11.888-7.018
			c-0.261-0.13-0.519-0.26-0.763-0.372l-2.358-1.144c-1.22-0.572-2.457-1.145-3.694-1.681l-5.228-2.14
			c-0.589-0.244-1.181-0.463-1.787-0.685c-4.438-1.681-8.534-2.991-12.302-3.896c-0.091-0.037-0.185-0.059-0.297-0.059
			c1.213,0.604,2.377,1.281,3.499,2.019c-1.122-0.737-2.286-1.414-3.499-2.016c-0.252-0.073-0.514-0.15-0.773-0.204
			c-4.045-0.904-6.276-1.366-6.667-1.385c-7.034-0.425-11.21,0.887-12.539,3.952c-0.683,1.552-0.535,3.341,0.406,5.356
			c0.04,0.071,0.072,0.145,0.108,0.238l-0.662,0.37c-1.607,1.732-2.696,2.972-3.29,3.712c-6.089,7.664-10.376,14.364-12.868,20.092
			c-3.582,8.219-3.562,16.048,0.076,23.471c0.772,1.551,1.697,3.046,2.75,4.504l1.331,1.737
			c4.541,5.448,11.299,10.118,20.276,14.033c0.347,0.167,0.684,0.315,1.034,0.464c0.164,0.071,0.33,0.146,0.511,0.238
			c0.17,0.057,0.336,0.111,0.521,0.204c0.592,0.258,1.181,0.499,1.752,0.736c2.05,0.831,4.046,1.554,5.965,2.179
			c5.691,1.757,10.933,2.568,15.719,2.422c0.83-0.036,1.624-0.094,2.416-0.185c0.038,0.019,0.094,0,0.186-0.018
			c1.864-0.205,3.656-0.556,5.395-1.091c7.92-2.38,13.666-7.684,17.246-15.902c2.492-5.722,4.468-13.422,5.963-23.119
			c0.241-1.421,0.445-2.823,0.611-4.208c-0.942-0.021-1.866-0.039-2.768-0.093c-0.742,0.037-1.518,0.037-2.309,0
			c-0.981-0.058-2.031-0.147-3.125-0.277l0.054-0.203c1.019,0.165,2.037,0.276,3.033,0.352c0.773,0.054,1.55,0.11,2.347,0.129
			c0.513,0.02,1.066-0.423,1.659-1.293c0.519-0.795,1.069-1.94,1.646-3.437c-0.129,1.277-0.24,2.295-0.336,3.049
			c1.037-0.387,1.882-0.868,2.548-1.459c0.537-0.499,0.944-1.069,1.222-1.72C108.677,38.787,107.052,35.057,102.529,30.536z
			 M69.443,86.411c4.515-1.512,8.366-5.914,11.552-13.235C77.81,80.499,73.958,84.9,69.443,86.411z M87.219,55.539
			c-0.645,3.458-2.31,8.387-5.005,14.798C84.909,63.926,86.574,58.997,87.219,55.539c0.495-2.575,0.739-4.997,0.735-7.276
			C87.958,50.542,87.714,52.965,87.219,55.539z M90.49,37.166c-4.235-0.907-8.923-2.329-14.057-4.304l-0.019-0.021
			c-0.002,0-0.003,0.001-0.005,0.001c-0.088-0.038-0.181-0.076-0.271-0.111c-0.204-0.072-0.405-0.146-0.608-0.222l-1.812-0.759
			c-0.866-0.348-1.735-0.717-2.625-1.104c-0.087-0.055-0.203-0.095-0.292-0.132l-7.534-3.509c-3.859-2.013-7.222-4.062-10.081-6.113
			c-4.712-3.304-6.726-5.723-6.061-7.218c0.649-1.515,3.805-1.681,9.439-0.519c2.476,0.537,5.135,1.258,7.978,2.198l0.516-1.587
			c-0.72-0.622-1.471-1.201-2.236-1.76c0.766,0.559,1.517,1.137,2.236,1.758c0.999,0.869,1.866,1.738,2.604,2.586
			c0.979,0.351,1.959,0.759,2.975,1.183l4.927,2.031c0.093,0.037,0.205,0.072,0.299,0.129c0.869,0.37,1.699,0.738,2.528,1.126
			l6.52,3.159c3.381,1.716,6.407,3.434,9.122,5.17l-0.165,0.277c4.671,3.323,6.667,5.744,6.019,7.258
			C99.224,38.18,96.082,38.347,90.49,37.166z"/>
		<g>
			<path fill="#FFE100" d="M56.767,89.402l-0.979-0.318c-2.026-0.663-4.042-1.4-5.988-2.188l-0.53-0.221
				c-0.405-0.169-0.817-0.34-1.233-0.52c-0.183-0.091-0.339-0.142-0.488-0.193c-0.225-0.106-0.385-0.181-0.546-0.251
				c-0.35-0.148-0.688-0.299-1.042-0.467c-8.983-3.917-15.851-8.674-20.398-14.132l-1.342-1.742
				c-1.098-1.523-2.032-3.058-2.783-4.565c-3.671-7.488-3.698-15.488-0.084-23.776c2.5-5.748,6.847-12.536,12.916-20.172
				c0.64-0.797,1.781-2.088,3.309-3.732l0.088-0.07l0.37-0.207c-0.963-2.102-1.089-3.979-0.377-5.588
				c1.389-3.201,5.707-4.6,12.892-4.166c0.149,0.007,0.62,0.028,6.72,1.391c0.268,0.057,0.536,0.133,0.799,0.211
				c2.608,1.285,5.018,2.891,7.227,4.801l0.182,0.156l-0.703,2.16l-0.345-0.115c-2.712-0.896-5.383-1.634-7.939-2.188
				c-2.417-0.498-4.396-0.752-5.876-0.752c-1.231,0-2.78,0.184-3.155,1.06c-0.331,0.751,0,2.62,5.937,6.781
				c2.895,2.075,6.271,4.125,10.041,6.089l7.522,3.503c0.142,0.055,0.241,0.097,0.325,0.147c0.843,0.362,1.707,0.733,2.571,1.081
				l3.88,1.587l-1.263,0.196c-1.193,0.183-1.917,0.608-2.216,1.299c-0.949,2.222,1.495,4.627,7.273,7.151
				c2.051,0.885,4.16,1.664,6.26,2.315l0.219,0.066l0.032,0.227c0.485,3.41,0.328,7.226-0.466,11.346
				c-0.74,3.967-2.842,9.927-6.251,17.716c-3.422,7.866-7.695,12.479-12.705,13.702c-2.607,0.615-5.196,0.927-7.688,0.927l0,0
				c-1.877,0-3.748-0.176-5.573-0.527c0.326,0.388,0.612,0.767,0.847,1.12L56.767,89.402z M38.066,17.657
				c-1.496,1.61-2.611,2.873-3.235,3.647c-6.029,7.589-10.343,14.32-12.82,20.012c-3.525,8.085-3.502,15.881,0.07,23.169
				c0.732,1.473,1.648,2.97,2.718,4.453l1.322,1.724c4.471,5.359,11.246,10.05,20.137,13.927c0.354,0.168,0.683,0.313,1.029,0.459
				c0.175,0.079,0.346,0.154,0.534,0.248c0.137,0.044,0.32,0.105,0.519,0.207c0.397,0.169,0.804,0.337,1.206,0.506l0.527,0.219
				c1.579,0.64,3.207,1.25,4.851,1.81c-0.256-0.311-0.544-0.626-0.851-0.945l-0.86-0.883l1.197,0.279
				c2.122,0.492,4.314,0.739,6.519,0.739l0,0c2.438,0,4.969-0.305,7.52-0.903c4.776-1.17,8.886-5.641,12.216-13.293
				c3.384-7.737,5.471-13.645,6.2-17.56c0.762-3.952,0.925-7.613,0.49-10.883c-2.053-0.646-4.108-1.409-6.113-2.275
				c-6.303-2.754-8.804-5.402-7.649-8.098c0.28-0.654,0.83-1.136,1.638-1.44l-1.649-0.69c-0.865-0.349-1.735-0.721-2.629-1.108
				c-0.093-0.053-0.152-0.074-0.206-0.097l-0.095-0.038l-7.534-3.508c-3.813-1.989-7.222-4.054-10.141-6.147
				c-4.915-3.444-6.936-5.952-6.178-7.659c0.734-1.72,3.916-1.946,9.842-0.725c2.476,0.537,5.054,1.241,7.67,2.096l0.33-1.012
				c-2.113-1.802-4.41-3.323-6.833-4.524c-0.187-0.047-0.437-0.12-0.689-0.171c-5.259-1.177-6.396-1.368-6.607-1.38
				c-6.871-0.414-10.941,0.847-12.193,3.734c-0.633,1.436-0.496,3.139,0.402,5.062c0.035,0.062,0.072,0.144,0.111,0.242
				c0.336,0.644,0.759,1.316,1.295,2.059c1.098,1.512,2.66,3.187,4.643,4.989c0.533,0.491,1.057,0.938,1.564,1.328l-0.438,0.572
				c-0.524-0.404-1.068-0.864-1.613-1.37c-2.02-1.829-3.612-3.544-4.738-5.094c-0.477-0.655-0.865-1.26-1.188-1.841L38.066,17.657z"
				/>
		</g>
		<g>
			<path fill="#FFE100" d="M95.287,46.064l-0.056,0.205c1.094,0.129,2.144,0.221,3.125,0.276c0.791,0.037,1.566,0.037,2.309,0
				c-0.799-0.019-1.573-0.075-2.349-0.129C97.322,46.342,96.304,46.233,95.287,46.064"/>
		</g>
		<g>
			<path fill="#FFED00" d="M57.966,9.041c0.112,0,0.206,0.019,0.297,0.056c3.768,0.904,7.864,2.216,12.304,3.896
				c0.604,0.222,1.196,0.44,1.785,0.684c-0.866-0.371-1.731-0.72-2.64-1.054c-4.782-1.847-9.177-3.287-13.201-4.302
				C57.008,8.56,57.488,8.8,57.966,9.041"/>
		</g>
		<g>
			<path fill="#FFE100" d="M24.32,69.389c-0.237,0.37-0.462,0.756-0.645,1.143c-1.424,3.271-0.129,6.982,3.859,11.154
				c4.006,4.154,9.472,7.756,16.397,10.786c3.451,1.496,6.758,2.642,9.915,3.435c1.202-0.72,1.996-1.553,2.423-2.529
				c0.645-1.462,0.625-2.865-0.076-4.192c-0.074-0.128-0.165-0.274-0.297-0.445c-1.919-0.628-3.915-1.345-5.965-2.178
				c-0.571-0.238-1.16-0.479-1.752-0.737c-0.186-0.093-0.352-0.147-0.521-0.204c-0.181-0.093-0.347-0.167-0.511-0.238
				c-0.351-0.148-0.688-0.297-1.034-0.462c-8.978-3.915-15.735-8.587-20.276-14.035c-0.462-0.553-0.888-1.126-1.295-1.699
				L24.32,69.389z"/>
		</g>
		<g>
			<path fill="#FFED00" d="M55.897,88.739c0.132,0.167,0.223,0.317,0.297,0.445c0.701,1.327,0.721,2.733,0.076,4.189
				c-0.427,0.983-1.221,1.812-2.423,2.532c3.179,0.755,6.226,1.182,9.123,1.238c5.779,0.091,9.363-1.496,10.786-4.765
				c0.205-0.424,0.352-0.886,0.442-1.349l-0.167-0.055l-0.166,0.369l0.166-0.369c-0.792,0.094-1.586,0.148-2.416,0.183
				C66.83,91.308,61.589,90.496,55.897,88.739"/>
		</g>
		<g>
			<path fill="#0E0000" d="M63.432,98.625c-0.157,0-0.32-0.002-0.484-0.003c-2.944-0.058-6.116-0.489-9.44-1.279
				c-3.236-0.814-6.649-1.994-10.158-3.515c-7.07-3.094-12.747-6.83-16.874-11.115c-4.43-4.631-5.827-8.927-4.153-12.771
				c0.125-0.264,0.258-0.519,0.397-0.767c-0.875-1.288-1.644-2.588-2.284-3.875c-3.822-7.801-3.861-16.116-0.106-24.719
				c2.541-5.839,6.937-12.709,13.067-20.421c0.64-0.803,1.77-2.081,3.271-3.699c-0.765-2.065-0.778-3.961-0.035-5.652
				c1.614-3.719,6.197-5.305,13.982-4.834c0.223,0.013,0.715,0.036,6.898,1.418c0.229,0.049,0.469,0.113,0.71,0.183
				c0.159,0.017,0.312,0.052,0.462,0.102c3.745,0.903,7.802,2.191,12.405,3.933c0.605,0.224,1.215,0.449,1.819,0.697l5.229,2.141
				c1.28,0.554,2.531,1.133,3.762,1.711l2.38,1.154c0.228,0.104,0.502,0.242,0.778,0.38c4.31,2.163,8.37,4.559,12.068,7.123
				c4.954,3.367,6.035,4.247,6.466,4.695c4.961,4.959,6.706,9.262,5.164,12.771c-0.351,0.818-0.879,1.564-1.567,2.204
				c-0.627,0.558-1.347,1.021-2.199,1.415c-0.04,0.322-0.07,0.55-0.08,0.68c0.003,0.077,0,0.155-0.008,0.231
				c-0.17,1.391-0.377,2.831-0.624,4.28c-1.529,9.931-3.516,17.613-6.065,23.466c-3.749,8.599-9.864,14.225-18.177,16.722
				c-1.479,0.457-3.012,0.792-4.651,1.021c-0.087,0.248-0.186,0.487-0.296,0.718C73.478,96.723,69.549,98.625,63.432,98.625z
				 M24.757,71.893c-0.665,2.483,0.596,5.373,3.846,8.773c3.856,3.999,9.216,7.521,15.924,10.452
				c3.359,1.454,6.618,2.584,9.684,3.357c3.096,0.735,6.06,1.138,8.79,1.191c4.604,0.054,7.533-0.922,8.949-3.043
				c-0.089,0.002-0.184,0.006-0.272,0.012c-4.926,0.152-10.376-0.684-16.213-2.484c-2.088-0.682-4.126-1.428-6.083-2.22
				l-0.593-0.245c-0.395-0.167-0.798-0.334-1.2-0.508c-0.181-0.09-0.282-0.119-0.385-0.152c-0.063-0.023-0.14-0.055-0.199-0.082
				c-0.162-0.083-0.312-0.149-0.458-0.214c-0.344-0.146-0.695-0.302-1.067-0.478C36.402,82.295,29.417,77.455,24.757,71.893z
				 M48.226,84.254c0.201,0.067,0.401,0.143,0.614,0.25c0.317,0.137,0.704,0.296,1.083,0.455l0.586,0.243
				c1.874,0.762,3.848,1.481,5.851,2.135c5.499,1.697,10.624,2.494,15.209,2.346c0.77-0.031,1.521-0.084,2.27-0.173
				c0.05-0.003,0.097-0.008,0.146-0.011c0.035-0.005,0.062-0.009,0.094-0.013c1.828-0.199,3.497-0.536,5.099-1.028
				c7.554-2.272,12.893-7.203,16.328-15.078c2.411-5.54,4.381-13.197,5.857-22.756c0.219-1.287,0.401-2.538,0.557-3.775
				c-0.133,0.024-0.272,0.047-0.413,0.067c-0.794,0.132-1.706,0.216-2.765,0.255c-0.707,0.057-1.476,0.077-2.271,0.056
				c-0.95-0.037-1.954-0.094-2.997-0.19c-0.401-0.029-0.838-0.072-1.28-0.118l-0.267-0.027c-0.809-0.082-1.402-0.808-1.317-1.619
				c0.084-0.813,0.818-1.403,1.619-1.32l0.269,0.027c0.411,0.043,0.819,0.086,1.218,0.113c1.021,0.094,1.971,0.148,2.854,0.184
				c0.675,0.019,1.335,0,2-0.054c0.996-0.038,1.786-0.108,2.482-0.224c0.349-0.052,0.656-0.115,0.931-0.183
				c0.402-0.097,0.78-0.21,1.151-0.339c0.875-0.329,1.551-0.712,2.067-1.172c0.364-0.342,0.646-0.739,0.846-1.196
				c1.255-2.856-1.788-6.758-4.561-9.529c-0.303-0.311-1.573-1.296-6.031-4.327c-3.593-2.492-7.537-4.817-11.724-6.918
				c-0.245-0.124-0.486-0.244-0.714-0.351l-2.391-1.158c-1.186-0.559-2.411-1.124-3.635-1.653l-5.195-2.13
				c-0.576-0.232-1.149-0.447-1.741-0.664c-4.526-1.713-8.492-2.97-12.136-3.848c-0.023-0.004-0.046-0.011-0.069-0.016
				c-0.098-0.012-0.199-0.026-0.3-0.059c-0.218-0.062-0.438-0.129-0.659-0.174c-5.365-1.199-6.299-1.343-6.458-1.357
				c-4.34-0.265-9.79,0.059-11.092,3.065c-0.503,1.144-0.378,2.487,0.375,4.116c0.004,0.004,0.007,0.008,0.01,0.016
				c0.04,0.08,0.083,0.164,0.121,0.265c0.304,0.577,0.691,1.19,1.186,1.87c1.046,1.441,2.556,3.062,4.485,4.813
				c0.475,0.441,0.976,0.874,1.493,1.268c0.648,0.496,0.773,1.422,0.276,2.069c-0.491,0.649-1.42,0.773-2.07,0.277
				c-0.54-0.412-1.108-0.895-1.694-1.435c-2.101-1.906-3.699-3.63-4.88-5.259c-0.189-0.255-0.36-0.505-0.523-0.746
				c-1.357,1.481-2.055,2.311-2.411,2.757c-5.97,7.508-10.234,14.156-12.672,19.76c-3.391,7.772-3.375,15.254,0.046,22.231
				c0.688,1.383,1.552,2.799,2.556,4.201c0.007,0.006,0.011,0.013,0.018,0.02c0.041,0.046,0.078,0.095,0.113,0.145
				c0.377,0.532,0.772,1.062,1.203,1.579c4.363,5.235,11.001,9.82,19.731,13.631c0.374,0.175,0.688,0.312,1.017,0.451
				C47.9,84.1,48.057,84.171,48.226,84.254z M96.412,39.415c-1.639,0-3.7-0.271-6.23-0.806c-4.362-0.933-9.165-2.401-14.279-4.37
				c-0.059-0.023-0.118-0.049-0.176-0.08l-2.577-1.041c-0.863-0.351-1.746-0.726-2.645-1.12c-0.058-0.025-0.118-0.055-0.175-0.089
				c-0.021-0.009-0.13-0.044-0.152-0.055l-7.534-3.507c-3.905-2.035-7.357-4.13-10.318-6.252c-5.56-3.9-7.581-6.685-6.549-9.019
				c0.989-2.32,4.407-2.746,11.087-1.365c2.631,0.569,5.368,1.322,8.145,2.24c1.255,0.39,2.663,0.883,4.285,1.5
				c0.477,0.171,0.979,0.363,1.486,0.557l0.38,0.145l4.968,2.05c0.056,0.021,0.113,0.048,0.164,0.078
				c0.051,0.016,0.103,0.034,0.151,0.056c0.885,0.375,1.729,0.751,2.574,1.146l6.535,3.167c3.517,1.892,6.582,3.755,9.162,5.569
				c5.52,3.924,7.528,6.711,6.53,9.047C100.605,38.708,99.061,39.415,96.412,39.415z M77.108,31.539
				c4.916,1.885,9.521,3.291,13.688,4.182c6.8,1.438,7.73,0.374,7.745,0.358l0,0c-0.011,0,0.088-1.451-5.53-5.45
				c-2.48-1.739-5.446-3.541-8.802-5.347l-6.461-3.132c-0.799-0.373-1.615-0.733-2.467-1.098c-0.05-0.021-0.099-0.045-0.147-0.074
				c-0.047-0.011-0.09-0.028-0.136-0.047l-5.271-2.163c-0.493-0.188-0.981-0.374-1.459-0.547c-1.586-0.602-2.943-1.076-4.167-1.457
				c-2.7-0.895-5.332-1.618-7.85-2.164c-6.848-1.415-7.767-0.348-7.771-0.334c0,0.008-0.152,1.418,5.552,5.419
				c2.86,2.052,6.196,4.073,9.917,6.012l7.476,3.48c0.096,0.034,0.208,0.084,0.322,0.141c0.853,0.373,1.687,0.729,2.522,1.066
				l2.709,1.093C77.021,31.496,77.065,31.517,77.108,31.539z"/>
		</g>
		<g>
			<path fill="#CD0E19" d="M77.138,65.325l2.305,1.018c-0.127-0.389-0.441-0.685-0.939-0.89
				C77.948,65.217,77.489,65.159,77.138,65.325"/>
		</g>
		<g>
			<path fill="#CD0E19" d="M90.229,60.302h0.019c-0.888-1.384-1.978-2.362-3.249-2.915c-1.183-0.519-2.365-0.61-3.526-0.298
				c-0.724,0.167-1.333,0.48-1.83,0.905c0.039-0.294,0.019-0.572-0.074-0.83c-0.168-0.426-0.479-0.737-0.906-0.904h-0.016
				c-0.737-0.278-2.029-0.612-3.858-0.979c-1.811-0.389-2.717-0.593-2.736-0.593c-0.036-0.018-0.071-0.018-0.089-0.018
				c-1.588-0.165-2.549,0.187-2.884,1.053c-0.093,0.242-0.148,0.5-0.163,0.739c-0.096-0.019-0.185-0.035-0.295-0.035l-4.548-0.557
				c-0.829-0.128-1.437,0.242-1.809,1.091c-0.203,0.461-0.235,0.924-0.129,1.346h0.021c0.129,0.465,0.388,0.798,0.812,0.981
				c0.168,0.055,0.292,0.112,0.427,0.13l-0.299,0.663l-0.371,0.831l-0.46-1.183l-4.433-1.938l2.496,6.576
				c0.127,0.312,0.314,0.554,0.589,0.719l-1.185,2.713l-0.533-0.218c-0.423-0.187-0.846-0.169-1.273,0.034l-0.019-0.02
				c-0.443,0.188-0.775,0.519-0.977,1.018c-0.222,0.499-0.261,0.979-0.095,1.422l0.02-0.02c0.146,0.463,0.425,0.795,0.85,0.979
				c0.851,0.368,1.829,0.646,2.953,0.831c2.496,0.407,3.972,0.019,4.436-1.164c0.201-0.462,0.22-0.923,0.054-1.402
				c-0.167-0.5-0.463-0.831-0.851-1c-0.388-0.184-0.814-0.146-1.295,0.114l3.049-7l0.684-1.571l1.054,0.203
				c-0.332,0.188-0.611,0.519-0.831,1c-0.094,0.238-0.168,0.461-0.184,0.681c-0.074,0.536,0.111,0.998,0.532,1.348l-1.329,3.03
				c-0.093,0.13-0.182,0.278-0.259,0.443c-0.292,0.7-0.203,1.331,0.278,1.902c0.684,0.737,1.515,1.31,2.492,1.734
				c1.718,0.757,3.454,0.813,5.188,0.149v0.019c0.521-0.221,0.869-0.554,1.034-0.999c0.022-0.018,0.038-0.054,0.061-0.111
				c0.127,0.241,0.274,0.499,0.441,0.76c0.5,0.811,1.069,1.495,1.755,2.069c0.461,0.346,0.938,0.645,1.439,0.866
				c1.162,0.498,2.27,0.573,3.36,0.184c1.222-0.422,2.104-1.272,2.676-2.566c0.13-0.313,0.24-0.643,0.334-0.977h0.001
				c0.479-1.942-0.184-3.935-2.014-5.966c-1.052-1.199-1.477-2.105-1.258-2.715c0.127-0.241,0.408-0.37,0.814-0.386
				c0.371-0.021,0.756,0.072,1.163,0.238c0.833,0.35,1.497,0.961,2.032,1.792l0.019,0.018c0.169,0.259,0.387,0.442,0.627,0.554
				c0.407,0.166,0.833,0.166,1.273-0.036c0.441-0.241,0.761-0.574,0.962-1.036C90.672,61.429,90.617,60.857,90.229,60.302z
				 M83.632,68.172c0.095,0.329,0.079,0.627-0.015,0.884c-0.127,0.295-0.388,0.479-0.775,0.537c-0.019-0.021-0.019-0.021-0.019,0
				c-0.351,0.016-0.703-0.036-1.089-0.204c-1.089-0.498-1.845-1.475-2.27-2.938c-0.022-0.035-0.022-0.073-0.022-0.108l-2.305-1.018
				c-0.314,0.131-0.538,0.406-0.704,0.833c-0.127,0.273-0.186,0.59-0.166,0.958c-0.09-0.054-0.186-0.111-0.274-0.146
				c-0.352-0.15-0.739-0.15-1.165,0.018v0.017c-0.962,0.353-1.94,0.296-2.954-0.146c-0.224-0.093-0.427-0.185-0.631-0.314
				l1.146-2.621c0.869,0.167,1.625,0.276,2.251,0.333c1.093,0.108,1.849,0.13,2.273,0.036c0.647-0.131,1.089-0.478,1.351-1.091
				c0.183-0.423,0.221-0.885,0.111-1.347c-0.131-0.462-0.428-0.795-0.852-0.979c-0.241-0.111-0.52-0.147-0.815-0.094
				c-0.018-0.018-0.018-0.018-0.033-0.018c-0.369,0.057-1.312-0.019-2.81-0.24l0.885-2.031c2.254,0.425,3.79,0.795,4.58,1.071
				c0.43,0.165,0.815,0.184,1.15,0.073c-0.853,1.979-0.227,4.137,1.864,6.441C83.064,66.879,83.49,67.581,83.632,68.172z"/>
			<path fill="#CD0E19" d="M68.068,53.968c0.444-0.24,0.737-0.536,0.888-0.904c0.202-0.443,0.22-0.903,0.055-1.402
				c-0.184-0.479-0.463-0.795-0.849-0.962c-0.424-0.183-0.868-0.145-1.349,0.112c-1.94,1.053-3.456,1.755-4.507,2.085
				c0.5-1.107,0.942-2.234,1.33-3.358c0.392-1.036,0.129-1.754-0.755-2.143c-0.466-0.203-0.924-0.203-1.369,0.037
				c-0.424,0.202-0.72,0.591-0.904,1.127c-0.389,1.088-0.849,2.196-1.405,3.358c0.094-0.405,0.149-0.794,0.188-1.162
				c0.131-1.922-0.536-3.196-1.977-3.804c-1.828-0.812-3.732-0.258-5.705,1.645c-0.557,0.534-1.072,1.124-1.534,1.771
				c-0.314-0.682-0.813-1.164-1.532-1.478c-1.718-0.758-3.475-0.294-5.301,1.423c-0.186-0.46-0.479-0.794-0.905-0.96
				c-0.48-0.223-0.979-0.149-1.477,0.201c-0.058,0.037-0.109,0.073-0.163,0.112c-1.204,0.924-2.256,1.256-3.124,0.978
				c-0.518-0.202-0.737-0.793-0.645-1.773c0.034-0.314,0.091-0.646,0.145-0.958c0.113-0.535,0.278-1.057,0.5-1.551
				c0.666-1.515,1.552-2.699,2.66-3.526c1.199-0.89,2.42-1.2,3.692-0.943c0.018,0.185,0.036,0.406,0.018,0.684
				c0.019,0.794,0.315,1.309,0.926,1.568c0.386,0.167,0.828,0.167,1.327-0.018c0.479-0.204,0.83-0.536,1.036-0.999
				c0.129-0.274,0.188-0.571,0.163-0.922c0-2.067-0.61-3.341-1.809-3.84c-1.256-0.573-2.896-0.481-4.948,0.257
				c-2.66,0.961-4.674,3.027-6.02,6.204l-0.018,0.021c-0.242,0.591-0.423,1.161-0.593,1.716c-0.35,1.237-0.479,2.401-0.406,3.528
				c0.127,2.087,0.98,3.471,2.547,4.134c1.312,0.593,2.772,0.483,4.414-0.331c-0.164,0.315-0.33,0.629-0.479,0.961
				c-0.552,1.293-0.827,2.586-0.813,3.879c0,1.902,0.722,3.154,2.18,3.767c1.385,0.645,2.919,0.168,4.597-1.441
				c0.629-0.607,1.204-1.292,1.737-2.031c0.351,1.089,1.035,1.845,2.088,2.308c1.273,0.573,2.698,0.242,4.227-1.013
				c-0.089,0.091-0.147,0.184-0.181,0.274c-0.205,0.462-0.224,0.925-0.039,1.37c0.166,0.422,0.442,0.734,0.829,0.903
				c0.759,0.352,1.443,0.128,2.014-0.702v-0.021c1.128-1.642,2.085-3.12,2.883-4.411l-5.301-2.308
				c-0.425,0.608-0.866,1.181-1.349,1.679c-0.791,0.775-1.44,1.07-1.937,0.904c-0.059-0.019-0.108-0.055-0.165-0.091
				c-0.482-0.442-0.28-1.682,0.588-3.696c0.019-0.016,0.019-0.016,0.019-0.034l-4.081-1.792c0.181,0.35,0.056,1.052-0.408,2.105
				c-0.718,1.644-1.589,2.975-2.602,3.99c-0.72,0.717-1.331,1.014-1.792,0.848c-0.055-0.019-0.108-0.057-0.164-0.091
				c-0.446-0.426-0.259-1.571,0.57-3.473c0.408-0.942,0.96-1.812,1.68-2.606c0.685-0.738,1.295-1.125,1.867-1.143
				c0.168-0.02,0.35,0.017,0.519,0.093c0.09,0.037,0.184,0.074,0.235,0.129l0.022,0.02c0.018,0.035,0.055,0.072,0.072,0.128
				l4.081,1.791c0.423-0.979,1.016-1.884,1.771-2.734c0.945-1.053,1.791-1.423,2.534-1.143c0.094,0.055,0.181,0.11,0.274,0.185
				v0.019c0.312,0.275,0.204,1.071-0.351,2.364c-0.425,0.939-0.888,1.789-1.386,2.549l5.301,2.307
				c0.019-0.039,0.036-0.075,0.056-0.11l0.071,0.164l4.433,1.939l-1.326-3.415C64.171,55.945,65.873,55.169,68.068,53.968z"/>
		</g>
		<g>
			<path fill="#00499C" d="M80.126,106.758l-0.002-0.033c0.055-0.005,0.091-0.005,0.127-0.009
				C80.233,106.736,80.195,106.736,80.126,106.758"/>
		</g>
		<g>
			<path fill="#009FE8" d="M22.065,25.743c0.036,0.093,0.069,0.165,0.1,0.219l0.079,0.004c-0.016-0.097-0.038-0.229-0.07-0.361
				C22.151,25.67,22.119,25.714,22.065,25.743"/>
		</g>
	</g>
</g>
<g id="guide" display="none">
</g>
</svg>
