<svg xmlns="http://www.w3.org/2000/svg" width="115.981" height="106.716" viewBox="0 0 115.981 106.716"><g><path fill="#009FE8" d="M51.802 30.165c-.534-.346-1.063-.672-1.598-.978.651.336 1.424.814 2.276 1.421-.223-.141-.446-.282-.678-.443"/><path fill="#00398A" d="M88.558 22.02l.093-.065.244.376-.076.055-.27.156-.239-.356z"/><path fill="#009FE8" d="M65.202 45.467c-.397-.166-.597-.259-.603-.273l.13-.703c.097-.463.063-.81-.058-1.037-1.153-2.06-2.326-3.847-3.527-5.381 2.855 3.41 5.335 7.069 7.432 10.937.613 1.155 1.224 2.308 1.821 3.472l-.168.074-.915-1.383-3.558-5.449c.009-.024-.165-.106-.554-.257"/><path fill="#FFE100" d="M70.51 91.538c-4.49 0-9.44-.825-14.72-2.454l-.121-.039-.071-.107c-.366-.56-.896-1.197-1.525-1.849l-.855-.88 1.193.279c4.47 1.032 9.181.979 14.038-.164 4.776-1.17 8.886-5.643 12.216-13.293 3.384-7.734 5.471-13.645 6.2-17.56.762-3.951.925-7.613.49-10.887-2.031-.636-4.089-1.398-6.113-2.271-6.303-2.754-8.804-5.404-7.649-8.098.397-.925 1.329-1.507 2.771-1.73l.182-.027.092.096c4.996 1.917 9.682 3.35 13.928 4.259 2.419.512 4.399.77 5.88.77 1.209 0 2.73-.181 3.112-1.042.392-.916-.312-2.845-5.898-6.819l-.271-.194.155-.261c-2.619-1.661-5.578-3.33-8.791-4.965l-6.515-3.155c-.823-.382-1.652-.751-2.515-1.12l-.227-.1-4.995-2.059c-1.062-.44-2.008-.835-2.961-1.174l-.086-.033-.063-.071c-.748-.861-1.612-1.719-2.567-2.55-2.164-1.866-4.524-3.439-7.017-4.677l.161-.682c.158 0 .297.024.436.081 3.667.877 7.704 2.156 12.29 3.891.608.226 1.202.444 1.8.69l5.225 2.139c1.246.543 2.487 1.117 3.709 1.689l2.365 1.146c.243.111.505.242.764.376 4.27 2.141 8.287 4.509 11.938 7.041 3.831 2.607 5.774 4.012 6.297 4.553 4.62 4.614 6.284 8.5 4.942 11.548-.291.683-.728 1.302-1.303 1.837-.702.623-1.573 1.124-2.669 1.531l-.558.209.074-.59.083-.672-.293.561.076-.016-.6.878c-.186.263-.369.486-.552.673l1.425.03.398.009-.021.396c-.166 1.373-.375 2.797-.613 4.229-1.5 9.713-3.516 17.521-5.991 23.205-3.61 8.285-9.489 13.702-17.471 16.101-1.718.529-3.506.89-5.459 1.102l-.188.03-.083-.002c-.716.082-1.486.141-2.354.178-.379.009-.753.014-1.125.014zm-14.381-3.105c5.591 1.715 10.782 2.504 15.476 2.366.882-.035 1.664-.096 2.385-.183l.104-.011.02.009.066-.016c1.908-.208 3.65-.56 5.325-1.075 7.772-2.336 13.499-7.616 17.023-15.699 2.448-5.626 4.449-13.374 5.937-23.032.22-1.288.404-2.563.562-3.802-.82-.017-1.61-.037-2.387-.083-.672.037-1.5.037-2.303 0-1.042-.062-2.099-.157-3.146-.281l-.416-.052.148-.544c-.469-.029-.914-.064-1.349-.105-.404-.027-.825-.072-1.245-.116l-.29-.028.072-.72.291.03c.415.045.829.088 1.231.117.888.079 1.805.14 2.888.184.735.02 1.453 0 2.134-.056.993-.039 1.832-.114 2.576-.237.31-.044.602-.104.866-.165.492-.781 1.006-1.871 1.533-3.247l.693.168c-.096.962-.182 1.777-.261 2.448.751-.33 1.37-.714 1.879-1.165.491-.461.873-.998 1.127-1.592 1.208-2.749-.405-6.364-4.797-10.754-.633-.657-3.834-2.861-6.191-4.464-3.625-2.513-7.61-4.864-11.849-6.993-.258-.129-.511-.257-.751-.366l-2.368-1.146c-1.21-.568-2.442-1.14-3.679-1.675l-5.22-2.139c-.588-.24-1.172-.458-1.775-.678-3.592-1.361-6.842-2.437-9.861-3.266 1.648.998 3.229 2.146 4.715 3.43.957.83 1.821 1.688 2.578 2.551.939.339 1.863.724 2.842 1.129l4.989 2.056.34.151c.831.353 1.669.723 2.503 1.111l6.521 3.161c3.364 1.711 6.443 3.457 9.16 5.191l.292.188-.175.293c4.671 3.361 6.594 5.815 5.872 7.499-.764 1.72-3.947 1.928-9.804.693-4.29-.919-9.021-2.366-14.058-4.303-1.126.196-1.812.617-2.101 1.284-.953 2.221 1.492 4.626 7.273 7.15 2.072.894 4.18 1.673 6.26 2.315l.219.066.032.226c.485 3.411.328 7.227-.466 11.349-.74 3.969-2.842 9.927-6.251 17.711-3.419 7.869-7.694 12.482-12.705 13.705-4.571 1.076-9.014 1.211-13.267.399.303.354.566.694.783 1.013zm42.392-42.364c.707.051 1.423.097 2.152.117.177 0 .422-.082.738-.385l-.069.01c-.768.126-1.632.206-2.642.242l-.179.016z"/><path fill="#D7BE00" d="M84.91 23.98l-6.52-3.159c-.829-.388-1.659-.756-2.528-1.126l-.299-.129-4.927-2.029c-.629-.243-1.258-.483-1.864-.703-1.46-.556-2.864-1.056-4.229-1.479-2.843-.944-5.504-1.661-7.978-2.198-5.635-1.162-8.79-.996-9.439.52-.665 1.494 1.349 3.913 6.061 7.218 2.859 2.05 6.222 4.101 10.081 6.114l7.534 3.507.292.129c.89.39 1.759.759 2.625 1.108l1.812.757.608.222.276.11.019.019c5.134 1.977 9.823 3.399 14.053 4.306 5.596 1.181 8.737 1.014 9.399-.48.648-1.514-1.348-3.935-6.019-7.258-2.602-1.828-5.597-3.64-8.957-5.449"/><path fill="#FFE100" d="M102.529 30.536c-.517-.536-2.606-2.031-6.247-4.506-3.596-2.494-7.55-4.84-11.888-7.018l-.763-.372-2.358-1.144c-1.22-.572-2.457-1.145-3.694-1.681l-5.228-2.14c-.589-.244-1.181-.463-1.787-.685-4.438-1.681-8.534-2.991-12.302-3.896-.091-.037-.185-.059-.297-.059 1.213.604 2.377 1.281 3.499 2.019-1.122-.737-2.286-1.414-3.499-2.016-.252-.073-.514-.15-.773-.204-4.045-.904-6.276-1.366-6.667-1.385-7.034-.425-11.21.887-12.539 3.952-.683 1.552-.535 3.341.406 5.356l.108.238-.662.37c-1.607 1.732-2.696 2.972-3.29 3.712-6.089 7.664-10.376 14.364-12.868 20.092-3.582 8.219-3.562 16.048.076 23.471.772 1.551 1.697 3.046 2.75 4.504l1.331 1.737c4.541 5.448 11.299 10.118 20.276 14.033.347.167.684.315 1.034.464l.511.238c.17.057.336.111.521.204.592.258 1.181.499 1.752.736 2.05.831 4.046 1.554 5.965 2.179 5.691 1.757 10.933 2.568 15.719 2.422.83-.036 1.624-.094 2.416-.185l.186-.018c1.864-.205 3.656-.556 5.395-1.091 7.92-2.38 13.666-7.684 17.246-15.902 2.492-5.722 4.468-13.422 5.963-23.119.241-1.421.445-2.823.611-4.208-.942-.021-1.866-.039-2.768-.093-.742.037-1.518.037-2.309 0-.981-.058-2.031-.147-3.125-.277l.054-.203c1.019.165 2.037.276 3.033.352.773.054 1.55.11 2.347.129.513.02 1.066-.423 1.659-1.293.519-.795 1.069-1.94 1.646-3.437-.129 1.277-.24 2.295-.336 3.049 1.037-.387 1.882-.868 2.548-1.459.537-.499.944-1.069 1.222-1.72 1.274-2.895-.351-6.625-4.874-11.146zm-33.086 55.875c4.515-1.512 8.366-5.914 11.552-13.235-3.185 7.323-7.037 11.724-11.552 13.235zm17.776-30.872c-.645 3.458-2.31 8.387-5.005 14.798 2.695-6.411 4.36-11.34 5.005-14.798.495-2.575.739-4.997.735-7.276.004 2.279-.24 4.702-.735 7.276zm3.271-18.373c-4.235-.907-8.923-2.329-14.057-4.304l-.019-.021-.005.001-.271-.111-.608-.222-1.812-.759c-.866-.348-1.735-.717-2.625-1.104l-.292-.132-7.534-3.509c-3.859-2.013-7.222-4.062-10.081-6.113-4.712-3.304-6.726-5.723-6.061-7.218.649-1.515 3.805-1.681 9.439-.519 2.476.537 5.135 1.258 7.978 2.198l.516-1.587c-.72-.622-1.471-1.201-2.236-1.76.766.559 1.517 1.137 2.236 1.758.999.869 1.866 1.738 2.604 2.586.979.351 1.959.759 2.975 1.183l4.927 2.031.299.129c.869.37 1.699.738 2.528 1.126l6.52 3.159c3.381 1.716 6.407 3.434 9.122 5.17l-.165.277c4.671 3.323 6.667 5.744 6.019 7.258-.663 1.497-3.805 1.664-9.397.483zM56.767 89.402l-.979-.318c-2.026-.663-4.042-1.4-5.988-2.188l-.53-.221c-.405-.169-.817-.34-1.233-.52-.183-.091-.339-.142-.488-.193l-.546-.251c-.35-.148-.688-.299-1.042-.467-8.983-3.917-15.851-8.674-20.398-14.132l-1.342-1.742c-1.098-1.523-2.032-3.058-2.783-4.565-3.671-7.488-3.698-15.488-.084-23.776 2.5-5.748 6.847-12.536 12.916-20.172.64-.797 1.781-2.088 3.309-3.732l.088-.07.37-.207c-.963-2.102-1.089-3.979-.377-5.588 1.389-3.201 5.707-4.6 12.892-4.166.149.007.62.028 6.72 1.391.268.057.536.133.799.211 2.608 1.285 5.018 2.891 7.227 4.801l.182.156-.703 2.16-.345-.115c-2.712-.896-5.383-1.634-7.939-2.188-2.417-.498-4.396-.752-5.876-.752-1.231 0-2.78.184-3.155 1.06-.331.751 0 2.62 5.937 6.781 2.895 2.075 6.271 4.125 10.041 6.089l7.522 3.503.325.147c.843.362 1.707.733 2.571 1.081l3.88 1.587-1.263.196c-1.193.183-1.917.608-2.216 1.299-.949 2.222 1.495 4.627 7.273 7.151 2.051.885 4.16 1.664 6.26 2.315l.219.066.032.227c.485 3.41.328 7.226-.466 11.346-.74 3.967-2.842 9.927-6.251 17.716-3.422 7.866-7.695 12.479-12.705 13.702-2.607.615-5.196.927-7.688.927-1.877 0-3.748-.176-5.573-.527.326.388.612.767.847 1.12l.56.858zm-18.701-71.745c-1.496 1.61-2.611 2.873-3.235 3.647-6.029 7.589-10.343 14.32-12.82 20.012-3.525 8.085-3.502 15.881.07 23.169.732 1.473 1.648 2.97 2.718 4.453l1.322 1.724c4.471 5.359 11.246 10.05 20.137 13.927.354.168.683.313 1.029.459l.534.248c.137.044.32.105.519.207l1.206.506.527.219c1.579.64 3.207 1.25 4.851 1.81-.256-.311-.544-.626-.851-.945l-.86-.883 1.197.279c2.122.492 4.314.739 6.519.739 2.438 0 4.969-.305 7.52-.903 4.776-1.17 8.886-5.641 12.216-13.293 3.384-7.737 5.471-13.645 6.2-17.56.762-3.952.925-7.613.49-10.883-2.053-.646-4.108-1.409-6.113-2.275-6.303-2.754-8.804-5.402-7.649-8.098.28-.654.83-1.136 1.638-1.44l-1.649-.69c-.865-.349-1.735-.721-2.629-1.108l-.206-.097-.095-.038-7.534-3.508c-3.813-1.989-7.222-4.054-10.141-6.147-4.915-3.444-6.936-5.952-6.178-7.659.734-1.72 3.916-1.946 9.842-.725 2.476.537 5.054 1.241 7.67 2.096l.33-1.012c-2.113-1.802-4.41-3.323-6.833-4.524-.187-.047-.437-.12-.689-.171-5.259-1.177-6.396-1.368-6.607-1.38-6.871-.414-10.941.847-12.193 3.734-.633 1.436-.496 3.139.402 5.062l.111.242c.336.644.759 1.316 1.295 2.059 1.098 1.512 2.66 3.187 4.643 4.989.533.491 1.057.938 1.564 1.328l-.438.572c-.524-.404-1.068-.864-1.613-1.37-2.02-1.829-3.612-3.544-4.738-5.094-.477-.655-.865-1.26-1.188-1.841l-.291.163zM95.287 46.064l-.056.205c1.094.129 2.144.221 3.125.276.791.037 1.566.037 2.309 0-.799-.019-1.573-.075-2.349-.129-.994-.074-2.012-.183-3.029-.352"/><path fill="#FFED00" d="M57.966 9.041c.112 0 .206.019.297.056 3.768.904 7.864 2.216 12.304 3.896.604.222 1.196.44 1.785.684-.866-.371-1.731-.72-2.64-1.054-4.782-1.847-9.177-3.287-13.201-4.302.497.239.977.479 1.455.72"/><path fill="#FFE100" d="M24.32 69.389c-.237.37-.462.756-.645 1.143-1.424 3.271-.129 6.982 3.859 11.154 4.006 4.154 9.472 7.756 16.397 10.786 3.451 1.496 6.758 2.642 9.915 3.435 1.202-.72 1.996-1.553 2.423-2.529.645-1.462.625-2.865-.076-4.192-.074-.128-.165-.274-.297-.445-1.919-.628-3.915-1.345-5.965-2.178-.571-.238-1.16-.479-1.752-.737-.186-.093-.352-.147-.521-.204l-.511-.238c-.351-.148-.688-.297-1.034-.462-8.978-3.915-15.735-8.587-20.276-14.035-.462-.553-.888-1.126-1.295-1.699l-.222.201z"/><path fill="#FFED00" d="M55.897 88.739c.132.167.223.317.297.445.701 1.327.721 2.733.076 4.189-.427.983-1.221 1.812-2.423 2.532 3.179.755 6.226 1.182 9.123 1.238 5.779.091 9.363-1.496 10.786-4.765.205-.424.352-.886.442-1.349l-.167-.055-.166.369.166-.369c-.792.094-1.586.148-2.416.183-4.785.151-10.026-.661-15.718-2.418"/><path fill="#0E0000" d="M63.432 98.625l-.484-.003c-2.944-.058-6.116-.489-9.44-1.279-3.236-.814-6.649-1.994-10.158-3.515-7.07-3.094-12.747-6.83-16.874-11.115-4.43-4.631-5.827-8.927-4.153-12.771.125-.264.258-.519.397-.767-.875-1.288-1.644-2.588-2.284-3.875-3.822-7.801-3.861-16.116-.106-24.719 2.541-5.839 6.937-12.709 13.067-20.421.64-.803 1.77-2.081 3.271-3.699-.765-2.065-.778-3.961-.035-5.652 1.614-3.719 6.197-5.305 13.982-4.834.223.013.715.036 6.898 1.418.229.049.469.113.71.183.159.017.312.052.462.102 3.745.903 7.802 2.191 12.405 3.933.605.224 1.215.449 1.819.697l5.229 2.141c1.28.554 2.531 1.133 3.762 1.711l2.38 1.154c.228.104.502.242.778.38 4.31 2.163 8.37 4.559 12.068 7.123 4.954 3.367 6.035 4.247 6.466 4.695 4.961 4.959 6.706 9.262 5.164 12.771-.351.818-.879 1.564-1.567 2.204-.627.558-1.347 1.021-2.199 1.415l-.08.68-.008.231c-.17 1.391-.377 2.831-.624 4.28-1.529 9.931-3.516 17.613-6.065 23.466-3.749 8.599-9.864 14.225-18.177 16.722-1.479.457-3.012.792-4.651 1.021-.087.248-.186.487-.296.718-1.611 3.703-5.54 5.605-11.657 5.605zm-38.675-26.732c-.665 2.483.596 5.373 3.846 8.773 3.856 3.999 9.216 7.521 15.924 10.452 3.359 1.454 6.618 2.584 9.684 3.357 3.096.735 6.06 1.138 8.79 1.191 4.604.054 7.533-.922 8.949-3.043l-.272.012c-4.926.152-10.376-.684-16.213-2.484-2.088-.682-4.126-1.428-6.083-2.22l-.593-.245-1.2-.508c-.181-.09-.282-.119-.385-.152l-.199-.082-.458-.214c-.344-.146-.695-.302-1.067-.478-9.078-3.957-16.063-8.797-20.723-14.359zm23.469 12.361c.201.067.401.143.614.25l1.083.455.586.243c1.874.762 3.848 1.481 5.851 2.135 5.499 1.697 10.624 2.494 15.209 2.346.77-.031 1.521-.084 2.27-.173l.146-.011.094-.013c1.828-.199 3.497-.536 5.099-1.028 7.554-2.272 12.893-7.203 16.328-15.078 2.411-5.54 4.381-13.197 5.857-22.756.219-1.287.401-2.538.557-3.775l-.413.067c-.794.132-1.706.216-2.765.255-.707.057-1.476.077-2.271.056-.95-.037-1.954-.094-2.997-.19-.401-.029-.838-.072-1.28-.118l-.267-.027c-.809-.082-1.402-.808-1.317-1.619.084-.813.818-1.403 1.619-1.32l.269.027c.411.043.819.086 1.218.113 1.021.094 1.971.148 2.854.184.675.019 1.335 0 2-.054.996-.038 1.786-.108 2.482-.224.349-.052.656-.115.931-.183.402-.097.78-.21 1.151-.339.875-.329 1.551-.712 2.067-1.172.364-.342.646-.739.846-1.196 1.255-2.856-1.788-6.758-4.561-9.529-.303-.311-1.573-1.296-6.031-4.327-3.593-2.492-7.537-4.817-11.724-6.918l-.714-.351-2.391-1.158c-1.186-.559-2.411-1.124-3.635-1.653l-5.195-2.13c-.576-.232-1.149-.447-1.741-.664-4.526-1.713-8.492-2.97-12.136-3.848l-.069-.016-.3-.059c-.218-.062-.438-.129-.659-.174-5.365-1.199-6.299-1.343-6.458-1.357-4.34-.265-9.79.059-11.092 3.065-.503 1.144-.378 2.487.375 4.116l.01.016.121.265c.304.577.691 1.19 1.186 1.87 1.046 1.441 2.556 3.062 4.485 4.813.475.441.976.874 1.493 1.268.648.496.773 1.422.276 2.069-.491.649-1.42.773-2.07.277-.54-.412-1.108-.895-1.694-1.435-2.101-1.906-3.699-3.63-4.88-5.259-.189-.255-.36-.505-.523-.746-1.357 1.481-2.055 2.311-2.411 2.757-5.97 7.508-10.234 14.156-12.672 19.76-3.391 7.772-3.375 15.254.046 22.231.688 1.383 1.552 2.799 2.556 4.201l.018.02.113.145c.377.532.772 1.062 1.203 1.579 4.363 5.235 11.001 9.82 19.731 13.631.374.175.688.312 1.017.451l.505.235zm48.186-44.839c-1.639 0-3.7-.271-6.23-.806-4.362-.933-9.165-2.401-14.279-4.37l-.176-.08-2.577-1.041c-.863-.351-1.746-.726-2.645-1.12l-.175-.089-.152-.055-7.534-3.507c-3.905-2.035-7.357-4.13-10.318-6.252-5.56-3.9-7.581-6.685-6.549-9.019.989-2.32 4.407-2.746 11.087-1.365 2.631.569 5.368 1.322 8.145 2.24 1.255.39 2.663.883 4.285 1.5.477.171.979.363 1.486.557l.38.145 4.968 2.05.164.078.151.056c.885.375 1.729.751 2.574 1.146l6.535 3.167c3.517 1.892 6.582 3.755 9.162 5.569 5.52 3.924 7.528 6.711 6.53 9.047-.639 1.442-2.183 2.149-4.832 2.149zm-19.304-7.876c4.916 1.885 9.521 3.291 13.688 4.182 6.8 1.438 7.73.374 7.745.358-.011 0 .088-1.451-5.53-5.45-2.48-1.739-5.446-3.541-8.802-5.347l-6.461-3.132c-.799-.373-1.615-.733-2.467-1.098l-.147-.074-.136-.047-5.271-2.163c-.493-.188-.981-.374-1.459-.547-1.586-.602-2.943-1.076-4.167-1.457-2.7-.895-5.332-1.618-7.85-2.164-6.848-1.415-7.767-.348-7.771-.334 0 .008-.152 1.418 5.552 5.419 2.86 2.052 6.196 4.073 9.917 6.012l7.476 3.48.322.141c.853.373 1.687.729 2.522 1.066l2.709 1.093.13.062z"/><path fill="#CD0E19" d="M77.138 65.325l2.305 1.018c-.127-.389-.441-.685-.939-.89-.556-.236-1.015-.294-1.366-.128"/><g fill="#CD0E19"><path d="M90.229 60.302h.019c-.888-1.384-1.978-2.362-3.249-2.915-1.183-.519-2.365-.61-3.526-.298-.724.167-1.333.48-1.83.905.039-.294.019-.572-.074-.83-.168-.426-.479-.737-.906-.904h-.016c-.737-.278-2.029-.612-3.858-.979-1.811-.389-2.717-.593-2.736-.593l-.089-.018c-1.588-.165-2.549.187-2.884 1.053-.093.242-.148.5-.163.739l-.295-.035-4.548-.557c-.829-.128-1.437.242-1.809 1.091-.203.461-.235.924-.129 1.346h.021c.129.465.388.798.812.981.168.055.292.112.427.13l-.299.663-.371.831-.46-1.183-4.433-1.938 2.496 6.576c.127.312.314.554.589.719l-1.185 2.713-.533-.218c-.423-.187-.846-.169-1.273.034l-.019-.02c-.443.188-.775.519-.977 1.018-.222.499-.261.979-.095 1.422l.02-.02c.146.463.425.795.85.979.851.368 1.829.646 2.953.831 2.496.407 3.972.019 4.436-1.164.201-.462.22-.923.054-1.402-.167-.5-.463-.831-.851-1-.388-.184-.814-.146-1.295.114l3.049-7 .684-1.571 1.054.203c-.332.188-.611.519-.831 1-.094.238-.168.461-.184.681-.074.536.111.998.532 1.348l-1.329 3.03c-.093.13-.182.278-.259.443-.292.7-.203 1.331.278 1.902.684.737 1.515 1.31 2.492 1.734 1.718.757 3.454.813 5.188.149v.019c.521-.221.869-.554 1.034-.999l.061-.111c.127.241.274.499.441.76.5.811 1.069 1.495 1.755 2.069.461.346.938.645 1.439.866 1.162.498 2.27.573 3.36.184 1.222-.422 2.104-1.272 2.676-2.566.13-.313.24-.643.334-.977h.001c.479-1.942-.184-3.935-2.014-5.966-1.052-1.199-1.477-2.105-1.258-2.715.127-.241.408-.37.814-.386.371-.021.756.072 1.163.238.833.35 1.497.961 2.032 1.792l.019.018c.169.259.387.442.627.554.407.166.833.166 1.273-.036.441-.241.761-.574.962-1.036.276-.571.221-1.143-.167-1.698zm-6.597 7.87c.095.329.079.627-.015.884-.127.295-.388.479-.775.537h-.019c-.351.016-.703-.036-1.089-.204-1.089-.498-1.845-1.475-2.27-2.938l-.022-.108-2.305-1.018c-.314.131-.538.406-.704.833-.127.273-.186.59-.166.958l-.274-.146c-.352-.15-.739-.15-1.165.018v.017c-.962.353-1.94.296-2.954-.146-.224-.093-.427-.185-.631-.314l1.146-2.621c.869.167 1.625.276 2.251.333 1.093.108 1.849.13 2.273.036.647-.131 1.089-.478 1.351-1.091.183-.423.221-.885.111-1.347-.131-.462-.428-.795-.852-.979-.241-.111-.52-.147-.815-.094l-.033-.018c-.369.057-1.312-.019-2.81-.24l.885-2.031c2.254.425 3.79.795 4.58 1.071.43.165.815.184 1.15.073-.853 1.979-.227 4.137 1.864 6.441.72.801 1.146 1.503 1.288 2.094zM68.068 53.968c.444-.24.737-.536.888-.904.202-.443.22-.903.055-1.402-.184-.479-.463-.795-.849-.962-.424-.183-.868-.145-1.349.112-1.94 1.053-3.456 1.755-4.507 2.085.5-1.107.942-2.234 1.33-3.358.392-1.036.129-1.754-.755-2.143-.466-.203-.924-.203-1.369.037-.424.202-.72.591-.904 1.127-.389 1.088-.849 2.196-1.405 3.358.094-.405.149-.794.188-1.162.131-1.922-.536-3.196-1.977-3.804-1.828-.812-3.732-.258-5.705 1.645-.557.534-1.072 1.124-1.534 1.771-.314-.682-.813-1.164-1.532-1.478-1.718-.758-3.475-.294-5.301 1.423-.186-.46-.479-.794-.905-.96-.48-.223-.979-.149-1.477.201l-.163.112c-1.204.924-2.256 1.256-3.124.978-.518-.202-.737-.793-.645-1.773.034-.314.091-.646.145-.958.113-.535.278-1.057.5-1.551.666-1.515 1.552-2.699 2.66-3.526 1.199-.89 2.42-1.2 3.692-.943.018.185.036.406.018.684.019.794.315 1.309.926 1.568.386.167.828.167 1.327-.018.479-.204.83-.536 1.036-.999.129-.274.188-.571.163-.922 0-2.067-.61-3.341-1.809-3.84-1.256-.573-2.896-.481-4.948.257-2.66.961-4.674 3.027-6.02 6.204l-.018.021c-.242.591-.423 1.161-.593 1.716-.35 1.237-.479 2.401-.406 3.528.127 2.087.98 3.471 2.547 4.134 1.312.593 2.772.483 4.414-.331-.164.315-.33.629-.479.961-.552 1.293-.827 2.586-.813 3.879 0 1.902.722 3.154 2.18 3.767 1.385.645 2.919.168 4.597-1.441.629-.607 1.204-1.292 1.737-2.031.351 1.089 1.035 1.845 2.088 2.308 1.273.573 2.698.242 4.227-1.013-.089.091-.147.184-.181.274-.205.462-.224.925-.039 1.37.166.422.442.734.829.903.759.352 1.443.128 2.014-.702v-.021c1.128-1.642 2.085-3.12 2.883-4.411l-5.301-2.308c-.425.608-.866 1.181-1.349 1.679-.791.775-1.44 1.07-1.937.904l-.165-.091c-.482-.442-.28-1.682.588-3.696l.019-.034-4.081-1.792c.181.35.056 1.052-.408 2.105-.718 1.644-1.589 2.975-2.602 3.99-.72.717-1.331 1.014-1.792.848l-.164-.091c-.446-.426-.259-1.571.57-3.473.408-.942.96-1.812 1.68-2.606.685-.738 1.295-1.125 1.867-1.143.168-.02.35.017.519.093.09.037.184.074.235.129l.022.02.072.128 4.081 1.791c.423-.979 1.016-1.884 1.771-2.734.945-1.053 1.791-1.423 2.534-1.143l.274.185v.019c.312.275.204 1.071-.351 2.364-.425.939-.888 1.789-1.386 2.549l5.301 2.307.056-.11.071.164 4.433 1.939-1.326-3.415c1.235-.371 2.937-1.147 5.132-2.348z"/></g><path fill="#00499C" d="M80.126 106.758l-.002-.033.127-.009-.125.042"/><path fill="#009FE8" d="M22.065 25.743l.1.219.079.004-.07-.361c-.023.065-.055.109-.109.138"/></g></svg>