<?xml version="1.0" encoding="utf-8"?>
<!-- Generator: Adobe Illustrator 16.2.1, SVG Export Plug-In . SVG Version: 6.00 Build 0)  -->
<!DOCTYPE svg PUBLIC "-//W3C//DTD SVG 1.1//EN" "http://www.w3.org/Graphics/SVG/1.1/DTD/svg11.dtd">
<svg version="1.1" xmlns="http://www.w3.org/2000/svg" xmlns:xlink="http://www.w3.org/1999/xlink" x="0px" y="0px"
	 width="226.406px" height="344.046px" viewBox="0 0 226.406 344.046" enable-background="new 0 0 226.406 344.046"
	 xml:space="preserve">
<g id="base">
</g>
<g id="book3">
</g>
<g id="_x38_" display="none">
</g>
<g id="_x37_" display="none">
</g>
<g id="_x36_" display="none">
</g>
<g id="_x35_" display="none">
</g>
<g id="_x34_" display="none">
</g>
<g id="_x33_" display="none">
</g>
<g id="_x32_" display="none">
</g>
<g id="_x31_" display="none">
</g>
<g id="_x30_">
	<g>
		<path fill="#009FE8" d="M145.957,249.427l0.041,0.004c0.229,0.23,2.014,6.746,5.312,19.563
			c3.365,13.078,5.087,19.719,5.174,19.906l4.609,1.046c11.189,0.167,20.372,1.645,27.539,4.455
			c3.475,1.359,6.781,3.316,9.937,5.859c1.454,1.179,2.679,3.006,3.719,5.497c1.021,2.488,1.355,4.487,1.027,6.007
			c-0.546,2.434-2.694,4.352-6.465,5.751c-10.478,3.876-27.473,3.122-50.962-2.249c-11.744-2.674-22.443-5.755-32.073-9.223
			l-0.932-1.859c-0.083-0.241-0.148-0.503-0.212-0.783c-0.175-1.385-0.307-2.369-0.377-2.979c-0.162-1.169,0.458-9,1.828-23.52
			c1.372-14.535,1.995-22.39,1.886-23.534v-0.021l29.934-3.938L145.957,249.427z"/>
	</g>
	<g>
		<path fill="#00499C" d="M180.259,321.424L180.259,321.424c-9.327,0-20.999-1.586-34.702-4.719
			c-11.726-2.671-22.574-5.792-32.241-9.273l-0.557-0.2l-1.276-2.576c-0.096-0.283-0.173-0.59-0.25-0.92l-0.026-0.152l-0.219-1.74
			c-0.068-0.52-0.122-0.933-0.156-1.25c-0.124-0.885-0.007-4.438,1.824-23.825c1.839-19.513,1.931-22.767,1.887-23.26l-0.011-0.16
			v-1.29l31.998-4.212l0.501,0.533c0.403,0.399,0.669,0.659,5.705,20.247c1.073,4.168,4.086,15.875,4.93,19.029l3.604,0.818
			c11.27,0.184,20.658,1.715,27.901,4.558c3.574,1.396,7.048,3.442,10.324,6.083c1.645,1.331,3.004,3.315,4.15,6.075
			c1.147,2.791,1.51,5.04,1.107,6.889c-0.66,2.954-3.146,5.247-7.391,6.82C192.828,320.575,187.076,321.424,180.259,321.424z
			 M114.866,304.857c9.417,3.358,19.959,6.376,31.347,8.973c13.487,3.081,24.942,4.646,34.045,4.646h0.001
			c6.466,0,11.875-0.788,16.078-2.343c3.247-1.203,5.11-2.781,5.536-4.69c0.26-1.198-0.067-2.974-0.947-5.126
			c-0.946-2.255-2.05-3.911-3.283-4.913c-3.039-2.446-6.25-4.342-9.546-5.627c-6.953-2.727-16.042-4.194-27.027-4.358l-0.301-0.037
			l-5.324-1.205l-0.304-0.664c-0.102-0.221-0.173-0.382-5.259-20.152c-3.138-12.202-4.391-16.691-4.885-18.34l-27.523,3.622
			c-0.092,2.053-0.477,7.473-1.885,22.401c-1.684,17.817-1.927,22.438-1.835,23.182l0.367,2.914
			c0.041,0.172,0.079,0.333,0.127,0.486L114.866,304.857z"/>
	</g>
	<g>
		<path fill="#009FE8" d="M98.592,260.85h0.038c0.242,0.224,2.258,6.684,6.021,19.403c3.833,12.979,5.797,19.567,5.891,19.753
			l4.652,0.882c11.21-0.232,20.463,0.923,27.742,3.483c3.525,1.232,6.907,3.077,10.158,5.512c1.498,1.123,2.791,2.914,3.92,5.368
			c1.111,2.456,1.518,4.451,1.242,5.982c-0.457,2.458-2.543,4.453-6.272,5.989c-10.354,4.258-27.398,4.107-51.113-0.435
			c-11.858-2.259-22.681-4.967-32.453-8.092l-0.998-1.828c-0.09-0.241-0.168-0.5-0.237-0.776c-0.226-1.385-0.396-2.364-0.484-2.974
			c-0.207-1.161,0.141-9.029,0.996-23.62c0.853-14.603,1.193-22.492,1.048-23.636v-0.018l29.834-5.015L98.592,260.85z"/>
	</g>
	<g>
		<path fill="#00499C" d="M132.283,331.785c-8.74,0-19.4-1.194-31.692-3.547c-11.808-2.25-22.786-4.985-32.624-8.138l-0.563-0.179
			l-1.364-2.527c-0.108-0.286-0.201-0.597-0.288-0.925l-0.288-1.717c-0.098-0.598-0.175-1.065-0.228-1.415
			c-0.161-0.915-0.159-4.475,0.983-23.925c1.145-19.604,1.12-22.87,1.055-23.362l-0.011-0.188v-1.248l1.232-0.226l30.647-5.151
			l0.485,0.524c0.413,0.381,0.691,0.633,6.439,20.071c1.219,4.135,4.652,15.757,5.612,18.885l3.64,0.688
			c11.273-0.215,20.737,0.98,28.104,3.57c3.623,1.269,7.175,3.193,10.556,5.725c1.694,1.271,3.124,3.212,4.378,5.938
			c1.245,2.753,1.688,4.995,1.353,6.855c-0.555,2.981-2.964,5.365-7.163,7.094C147.388,330.71,140.568,331.785,132.283,331.785z
			 M69.429,317.467c9.581,3.039,20.247,5.687,31.719,7.87c23.291,4.459,40.277,4.634,50.276,0.52
			c3.213-1.324,5.022-2.972,5.38-4.895c0.218-1.209-0.174-2.977-1.138-5.1c-1.021-2.225-2.187-3.842-3.457-4.798
			c-3.139-2.349-6.424-4.132-9.76-5.3c-7.069-2.485-16.251-3.627-27.224-3.401l-0.155,0.003l-5.521-1.048l-0.329-0.647
			c-0.109-0.223-0.189-0.381-5.985-20c-3.581-12.108-4.994-16.559-5.551-18.192l-27.435,4.61c-0.017,2.121-0.213,7.587-1.081,22.495
			c-1.053,17.92-1.131,22.553-1.019,23.282c0.059,0.371,0.134,0.826,0.229,1.404l0.26,1.588c0.026,0.066,0.073,0.229,0.129,0.395
			L69.429,317.467z"/>
	</g>
	<g>
		<polygon fill="#00398A" points="226.654,139.257 226.748,139.192 226.991,139.568 226.916,139.623 226.646,139.779 
			226.406,139.423 		"/>
	</g>
	<g>
		<path fill="#00499C" d="M139.169,140.648c-0.735,0-1.369-0.552-1.456-1.301c-0.094-0.804,0.485-1.531,1.289-1.624l9.988-1.151
			c0.801-0.097,1.533,0.482,1.624,1.288c0.094,0.806-0.486,1.532-1.287,1.625l-9.987,1.154
			C139.281,140.646,139.225,140.648,139.169,140.648z"/>
	</g>
	<g>
		<path fill="#FFE100" d="M162.417,186.626c-0.237,0.37-0.462,0.756-0.645,1.143c-1.424,3.271-0.129,6.982,3.859,11.154
			c4.006,4.154,9.472,7.756,16.397,10.786c3.451,1.496,6.758,2.642,9.915,3.435c1.202-0.72,1.996-1.553,2.423-2.529
			c0.645-1.462,0.625-2.865-0.076-4.192c-0.074-0.128-0.165-0.274-0.297-0.445c-1.919-0.628-3.915-1.345-5.965-2.178
			c-0.571-0.238-1.16-0.479-1.752-0.737c-0.186-0.093-0.352-0.147-0.521-0.204c-0.181-0.093-0.347-0.167-0.511-0.238
			c-0.351-0.148-0.688-0.297-1.034-0.462c-8.978-3.915-15.735-8.587-20.276-14.035c-0.462-0.553-0.888-1.126-1.295-1.699
			L162.417,186.626z"/>
	</g>
	<g>
		<path fill="#00499C" d="M218.223,223.995l-0.002-0.033c0.055-0.005,0.091-0.005,0.127-0.009
			C218.33,223.974,218.292,223.974,218.223,223.995"/>
	</g>
	<g>
		<path fill="#009FE8" d="M76.809,118.633c-0.255,0.054-0.455,0.096-0.586,0.124c-8.294,1.882-14.389,4.381-18.259,7.507
			c-0.56,0.436-1.07,0.9-1.524,1.373c-1.425,1.448-2.819,3.321-4.174,5.585c-0.453,0.753-0.894,1.546-1.346,2.39
			c-0.45,0.851-0.983,1.942-1.616,3.281l-0.014,0.021c-0.988,2.092-2.196,4.774-3.62,8.069l0.006,0.019
			c-0.123,0.233-0.227,0.46-0.329,0.712l-0.61-1.119c-7.103,15.622-13.981,29.293-20.639,41.035l-0.584,1.119l-0.042-0.013
			c-6.226,11.333-9.481,22.53-9.754,33.595c-0.014,0.305-0.027,0.61-0.016,0.93c-0.145,11.059,2.137,20.896,6.853,29.543
			l1.396-0.689c0.032,0.07,0.066,0.139,0.097,0.188l0.001,0.019c4.52,8.428,10.769,14.871,18.725,19.374
			c0.149,0.081,0.282,0.167,0.434,0.248l0.022,0.014c8.416,4.618,17.653,6.42,27.688,5.402c0.131-0.011,0.24-0.034,0.37-0.041
			c6.511-0.698,12.774-1.48,18.785-2.378c1.861-0.273,3.722-0.569,5.546-0.854c10.962-1.778,21.033-3.901,30.214-6.366
			c1.529-0.412,3.039-0.823,4.531-1.245c13.036-3.777,24.149-8.268,33.384-13.491c5.083-2.89,9.604-6.002,13.528-9.331
			c-0.002-0.016-0.002-0.016,0.016-0.004c0.579-0.515,1.163-1.015,1.72-1.526c0.988-0.904,1.945-1.801,2.853-2.723
			c0.318-0.391,0.66-0.763,0.995-1.154c6.589-7.688,10.797-15.677,12.637-23.997c1.542-8.181,0.875-17.016-1.99-26.543
			c-0.549-1.809-1.152-3.622-1.813-5.428c-0.021,0.004-0.021,0.004-0.007-0.017c-3.729-9.948-9.506-19.94-17.321-29.96l-0.021-0.014
			c-2.133-2.74-4.414-5.47-6.85-8.204c-2.283-2.578-4.705-5.145-7.255-7.722c-1.346-1.34-2.687-2.645-4.019-3.932
			c-0.021,0.003-0.021,0.003-0.021-0.017c-0.447-0.414-0.898-0.847-1.348-1.264c-0.61-0.549-1.215-1.102-1.809-1.642
			c-4.385-3.964-8.791-7.511-13.191-10.646c-0.498-0.369-0.982-0.702-1.472-1.03l-0.003-0.02c-1.845-1.273-3.577-2.382-5.166-3.351
			c-3.389-2.027-6.256-3.37-8.611-3.99C95.567,115.227,80.295,117.942,76.809,118.633"/>
	</g>
	<g>
		<path fill="#00499C" d="M63.009,279.889c-8.006,0-15.579-1.801-22.522-5.354l-0.032,0.009l-0.656-0.36
			c-0.151-0.078-0.299-0.157-0.436-0.246c-8.424-4.57-15.154-11.344-19.917-20.07l-0.159-0.289
			c-4.85-8.905-7.215-19.086-7.067-30.338c-0.011-0.289,0.001-0.633,0.017-0.974c0.278-11.219,3.621-22.752,9.938-34.244l0.64-1.139
			c6.612-11.659,13.537-25.425,20.571-40.903c1.461-3.347,2.661-6.008,3.663-8.116l0.08-0.161c0.73-1.537,1.434-3,2.045-4.12
			c0.241-0.444,0.485-0.875,0.726-1.292l0.189-0.332c1.673-2.886,3.314-5.111,5.025-6.822c0.285-0.295,0.597-0.576,0.941-0.861
			l0.144-0.139c4.04-3.472,10.539-6.27,19.327-8.312c0.197-0.061,0.423-0.113,0.673-0.162c1.9-0.415,15.623-2.864,45.866-8.179
			c0.327-0.068,0.646-0.134,0.966-0.182l0.561-0.085l0.785,0.512c2.477,1.607,5.138,3.281,7.902,4.969
			c1.677,1.024,3.455,2.101,5.318,3.216c5.261,3.145,10.385,6.983,15.236,11.403l0.21,0.193l1.766,1.619
			c0.227,0.212,0.449,0.428,0.675,0.644c0.046,0.047,0.094,0.093,0.145,0.139l0.538,0.492c3.218,3.047,5.977,5.801,8.207,8.188
			c0.784,0.834,1.707,1.883,3.064,3.48l0.204,0.224c2.025,2.417,4.304,5.229,6.765,8.358l0.238,0.302
			c0.792,1.005,1.606,2.052,2.465,3.156c5.419,6.975,10.29,16.205,14.479,27.429l0.055,0.162c0.243,0.655,0.491,1.327,0.723,1.999
			c0.408,1.127,0.794,2.25,1.166,3.374c3.476,10.813,4.439,20.006,2.866,27.331l-0.122,0.583c-1.73,8.423-6.3,16.84-13.545,24.898
			l-0.533,0.563l0.009,0.024l-0.576,0.606c-1.35,1.421-2.845,2.894-4.568,4.51c-1.846,1.717-4.104,3.442-6.913,5.275
			c-1.71,1.095-3.819,2.353-6.291,3.748l0.006,0.035l-1.245,0.668c-0.202,0.113-0.409,0.227-0.617,0.334
			c-9.036,4.982-20.156,9.368-33.015,13.011l-5.309,1.431c-9.036,2.339-19.015,4.403-29.696,6.146
			c-1.916,0.302-3.739,0.587-5.563,0.858c-6.009,0.899-12.347,1.707-18.877,2.408l-0.372-1.452l0.207,1.472
			c-0.103,0.016-0.204,0.025-0.299,0.033C67.069,279.778,65.008,279.889,63.009,279.889z M41.479,271.708
			c8.249,4.312,17.442,5.957,27.336,4.899c0.265-0.033,0.377-0.049,0.484-0.055c6.415-0.689,12.712-1.494,18.643-2.383
			c1.855-0.274,3.669-0.561,5.452-0.84c10.702-1.745,20.593-3.789,29.506-6.099c0.114-0.032,0.267-0.071,0.415-0.105l4.878-1.319
			c12.623-3.575,23.531-7.874,32.411-12.771l-0.051-0.304l1.135-0.297c2.731-1.532,5.033-2.896,6.847-4.059
			c2.655-1.731,4.786-3.354,6.5-4.952c1.439-1.348,2.711-2.59,3.868-3.783l-0.016-0.059l0.613-0.579l1.344-1.456
			c6.704-7.551,10.928-15.381,12.561-23.279l0.003-0.025c0.015-0.092,0.033-0.182,0.06-0.269l0.012-0.092
			c1.479-6.909,0.545-15.586-2.771-25.889c-0.355-1.09-0.733-2.183-1.139-3.307c-0.245-0.717-0.503-1.403-0.752-2.069l-0.062-0.185
			c-4.07-10.877-8.774-19.792-13.986-26.5c-0.868-1.115-1.691-2.174-2.49-3.188l-0.363-0.208l-0.062-0.335
			c-2.3-2.913-4.432-5.542-6.337-7.823l-0.165-0.184c-1.421-1.675-2.36-2.744-3.146-3.575c-2.113-2.269-4.722-4.878-7.758-7.761
			l-0.32-0.284c-0.24-0.223-0.474-0.445-0.707-0.672c-0.182-0.174-0.36-0.35-0.545-0.521l-0.127-0.106l-1.807-1.668
			c-4.737-4.331-9.738-8.083-14.866-11.149c-1.871-1.119-3.659-2.201-5.342-3.23c-2.722-1.661-5.34-3.309-7.796-4.897
			c-0.088,0.018-0.175,0.036-0.263,0.054c-29.896,5.256-44.009,7.773-45.865,8.18c-0.176,0.035-0.314,0.064-0.462,0.11l-0.149,0.037
			c-8.19,1.906-14.207,4.44-17.895,7.528l-0.023,0.047l-0.243,0.195c-0.291,0.238-0.555,0.47-0.806,0.732
			c-1.526,1.523-3.058,3.608-4.569,6.219l-0.188,0.324c-0.228,0.403-0.466,0.819-0.696,1.246c-0.592,1.084-1.303,2.562-2.037,4.109
			l-0.083,0.16c-0.972,2.059-2.139,4.648-3.565,7.912c-7.081,15.58-14.044,29.426-20.707,41.175l-0.627,1.117
			c-6.07,11.046-9.29,22.121-9.558,32.893c-0.014,0.293-0.027,0.56-0.019,0.84c-0.136,10.753,2.086,20.405,6.606,28.753l0.237,0.136
			l0.092,0.479c4.481,8.154,10.793,14.483,18.754,18.809c0.064,0.041,0.115,0.065,0.155,0.09h0.114L41.479,271.708z"/>
	</g>
	<g>
		<path fill="#009FE8" d="M142.482,50.215c-2.794-4.686-5.912-8.396-9.353-11.113c-4.568-3.578-9.907-5.574-16.034-5.965
			c-0.141-0.013-0.3-0.023-0.457-0.027c-0.571-0.033-1.159-0.057-1.76-0.059c-0.504,0.004-1.006,0.008-1.518,0.037
			c0.056-0.309,0.112-0.617,0.152-0.918c0.026-0.106,0.029-0.223,0.05-0.328c0.003-0.058,0.003-0.117,0.021-0.182
			c0.265-2.388-0.019-4.794-0.841-7.185l-0.014-0.054l-0.011-0.035c-0.033-0.047-0.06-0.118-0.075-0.171
			c-0.039-0.122-0.073-0.226-0.133-0.345c-1.716-4.602-4.945-7.871-9.692-9.823c-4.727-1.96-9.557-1.987-14.519-0.116
			c-4.93,1.899-8.526,5.139-10.769,9.705c-0.861,1.729-1.43,3.476-1.71,5.211c-1.31-1.016-2.803-1.875-4.473-2.562
			c-4.73-1.959-9.561-1.986-14.521-0.115c-3.154,1.217-5.769,2.98-7.831,5.305c-1.158,1.298-2.123,2.767-2.938,4.402
			c-2.012,4.066-2.453,8.155-1.298,12.262c0,0.059,0.01,0.094,0.024,0.146c0.131,0.463,0.3,0.932,0.467,1.4
			c0.73,1.918,1.711,3.598,2.949,5.062c0.023,0.012,0.036,0.047,0.063,0.074c0.037,0.05,0.083,0.072,0.115,0.119
			c0.037,0.048,0.048,0.084,0.079,0.131c0.138,0.248,0.088,0.573-0.199,0.953c-0.008,0.023-0.04,0.052-0.054,0.076
			c-0.039,0.05-0.079,0.104-0.123,0.154c-0.253,0.178-0.524,0.361-0.83,0.557c-0.245,0.136-0.508,0.297-0.782,0.463
			c-0.31,0.175-0.658,0.363-1.019,0.574c-0.049,0.016-0.087,0.027-0.132,0.062c-7.49,4.014-13.254,8.172-17.268,12.473
			c-0.105,0.093-0.202,0.2-0.302,0.311c-4.701,5.118-7.424,11.039-8.13,17.751v6.987l2.205,10.141l1.041,3.018
			c0.441,1.197,0.907,2.422,1.434,3.648c0.615,1.45,1.326,2.83,2.131,4.142c1.491,2.487,3.301,4.757,5.437,6.845
			c1.325,1.304,2.756,2.51,4.339,3.652c5.264,3.82,11.567,6.515,18.899,8.089c2.141,0.46,4.325,0.811,6.516,1.061l20.013-0.376
			c7.258-1.114,14.646-3.257,22.195-6.418l31.071-21.404c2.681-2.944,5.066-6.086,7.188-9.455c0.096-0.126,0.169-0.264,0.243-0.387
			c3.906-6.22,6.326-12.472,7.236-18.783c0.653-4.331,0.558-8.463-0.259-12.423l-0.983-3.812c-0.282-0.818-0.583-1.653-0.925-2.473
			C145.889,56.66,144.253,53.232,142.482,50.215"/>
	</g>
	<g>
		<path fill="#00499C" d="M67.383,138.952c-2.999,0-5.228-0.07-6.825-0.206c-2.784-0.24-5.582-0.709-8.315-1.394
			c-2.873-0.722-5.708-1.711-8.432-2.937c-2.205-0.975-4.396-2.121-6.508-3.407c-2.348-1.438-4.554-3.193-6.556-5.208
			c-2.103-2.135-3.993-4.465-5.628-6.93c-1.604-2.443-2.936-5.033-3.965-7.705c-0.923-2.398-1.695-4.878-2.291-7.373
			c-0.655-2.736-1.128-5.576-1.402-8.442c-0.166-1.793-0.224-3.437-0.174-5.03c0.067-2.924,0.577-5.88,1.503-8.779
			c0.923-2.853,2.129-5.561,3.583-8.055c1.462-2.535,3.299-4.867,5.455-6.92c2.099-2.009,4.126-3.676,6.016-4.955
			c1.826-1.258,3.353-2.271,4.563-3.064c1.23-0.81,2.848-1.766,4.809-2.84c0.643-0.354,1.198-0.66,1.67-0.924
			c-0.824-0.896-1.5-1.938-2.012-3.113c-0.774-1.77-1.289-3.945-1.53-6.467c-0.254-2.559,0.056-5.078,0.916-7.488
			c0.87-2.385,1.695-4.17,2.537-5.464c0.796-1.276,1.672-2.39,2.582-3.286c0.783-0.799,1.909-1.736,3.522-2.936
			c1.557-1.147,3.624-2.127,6.146-2.91c2.46-0.764,4.747-1.172,6.801-1.213c1.978-0.05,3.617,0.105,4.884,0.438
			c1.184,0.311,2.378,0.713,3.556,1.201c0.659,0.264,1.335,0.646,2.022,1.144l0.174-0.882c1.304-3.166,2.693-5.473,4.254-7.057
			c1.517-1.562,3.27-2.907,5.199-3.99c2.509-1.46,5.24-2.387,8.105-2.742c1.541-0.174,3.126-0.213,4.729-0.115
			c2.789,0.204,5.403,0.829,7.789,1.861c2.447,1.055,4.409,2.257,5.999,3.675c1.627,1.437,2.897,3.128,3.78,5.022
			c0.87,1.869,1.532,4.115,1.969,6.675c0.24,1.405,0.29,2.604,0.15,3.614c2.607-0.104,5.188,0.225,7.709,0.985
			c2.073,0.618,4.391,1.609,6.88,2.944c0.872,0.478,1.857,1.092,3.029,1.883c0.941,0.654,1.608,1.152,2.061,1.537l4.219,4.377
			l3.575,5.268c0.271,0.425,0.554,0.874,0.856,1.395c0.818,1.379,1.798,3.131,2.831,5.066c1.568,2.937,2.758,5.717,3.528,8.263
			c0.896,2.808,1.462,5.694,1.687,8.579c0.228,2.935,0.095,5.768-0.398,8.423c-0.468,2.521-1.049,4.978-1.722,7.302
			c-0.664,2.244-1.497,4.374-2.479,6.332l-0.299,0.588c-0.812,1.602-1.46,2.865-1.935,3.768c-0.647,1.22-1.11,2-1.54,2.615
			c-1.379,2.062-2.93,4.064-4.601,5.924c-1.984,2.221-4.152,4.273-6.438,6.094c-2.538,1.979-4.877,3.673-7.169,5.193
			c-1.66,1.087-3.29,2.184-4.911,3.313l-13.47,9.331c-2.317,1.382-4.138,2.275-5.492,2.709L90.376,136.6
			c-2.357,0.772-4.818,1.272-7.321,1.485l-13.717,0.857C68.652,138.95,68.001,138.952,67.383,138.952z M64.482,24.85
			c-0.185,0-0.377,0.004-0.572,0.007c-1.778,0.036-3.791,0.399-5.985,1.081c-2.206,0.686-3.979,1.514-5.268,2.466
			c-1.487,1.101-2.5,1.942-3.191,2.646c-0.765,0.752-1.493,1.686-2.183,2.788c-0.718,1.109-1.472,2.745-2.249,4.88
			c-0.718,2.015-0.969,4.046-0.757,6.199c0.216,2.215,0.65,4.088,1.3,5.572c0.619,1.414,1.5,2.517,2.691,3.369l1.887,1.348
			l-2.181,1.229c-0.504,0.285-1.621,0.916-3.338,1.859c-1.894,1.039-3.445,1.953-4.607,2.719c-1.198,0.785-2.707,1.786-4.52,3.038
			c-1.767,1.193-3.664,2.757-5.647,4.651c-1.953,1.861-3.613,3.968-4.938,6.266c-1.353,2.318-2.469,4.832-3.325,7.479
			c-0.842,2.625-1.301,5.305-1.363,7.955c-0.045,1.48,0.007,3.007,0.165,4.672c0.26,2.727,0.708,5.43,1.331,8.033
			c0.567,2.369,1.301,4.725,2.176,7c0.954,2.475,2.19,4.879,3.675,7.14c1.527,2.303,3.299,4.485,5.264,6.479
			c1.83,1.846,3.849,3.45,5.995,4.765c1.996,1.218,4.076,2.304,6.17,3.23c2.574,1.159,5.246,2.091,7.95,2.771
			c2.582,0.646,5.223,1.086,7.848,1.314c1.833,0.157,4.578,0.219,8.423,0.188l13.608-0.854c2.239-0.192,4.478-0.643,6.616-1.343
			l12.014-3.967c0.796-0.255,2.269-0.871,4.811-2.384l13.378-9.271c1.638-1.146,3.296-2.259,4.973-3.355
			c2.219-1.473,4.503-3.126,6.964-5.047c2.145-1.708,4.191-3.646,6.069-5.745c1.575-1.758,3.041-3.647,4.362-5.623
			c0.372-0.533,0.791-1.242,1.368-2.33c0.47-0.887,1.107-2.14,1.912-3.723l0.294-0.579c0.9-1.796,1.668-3.76,2.279-5.831
			c0.646-2.227,1.202-4.587,1.652-7.013c0.453-2.435,0.569-4.938,0.357-7.655c-0.203-2.661-0.729-5.325-1.557-7.916
			c-0.002-0.008-0.003-0.016-0.007-0.022v-0.001v-0.002c-0.717-2.363-1.833-4.969-3.313-7.738c-1.011-1.897-1.968-3.611-2.767-4.959
			c-0.291-0.496-0.556-0.917-0.783-1.277l-3.478-5.118l-3.862-3.991c-0.271-0.221-0.882-0.675-1.714-1.252
			c-1.079-0.731-1.991-1.299-2.767-1.725c-2.302-1.234-4.433-2.147-6.324-2.711c-2.952-0.891-5.87-1.108-8.925-0.662l-4.346,0.634
			l3.08-3.129c0.185-0.184,0.742-1.006,0.272-3.774c-0.394-2.299-0.979-4.294-1.738-5.926c-0.708-1.523-1.738-2.889-3.062-4.061
			c-1.354-1.207-3.056-2.244-5.21-3.172c-2.081-0.9-4.376-1.448-6.813-1.625c-1.439-0.087-2.812-0.054-4.188,0.1
			c-2.448,0.305-4.803,1.104-6.986,2.375c-1.702,0.955-3.229,2.126-4.553,3.492c-1.251,1.27-2.45,3.268-3.569,5.947l-0.433,3.026
			c-0.021,0.169-0.075,0.335-0.156,0.489l0,0v0.004l0,0c-0.002,0.002-0.002,0.002-0.002,0.004c-0.085,0.156-0.196,0.297-0.328,0.412
			c-0.152,0.137-0.327,0.234-0.513,0.296c-0.19,0.063-0.394,0.091-0.608,0.067c-0.199-0.02-0.396-0.08-0.574-0.18
			c0,0,0-0.002-0.003-0.002l0,0l-0.002-0.002l-0.005-0.001v-0.001c-0.127-0.073-0.241-0.162-0.34-0.267
			c-1.126-1.163-2.183-1.948-3.142-2.331c-1.069-0.441-2.136-0.801-3.191-1.079C67.113,24.969,65.909,24.85,64.482,24.85z"/>
	</g>
	<g>
		<path fill="#FFFFFF" d="M112.512,23.871c-1.716-4.603-4.945-7.871-9.692-9.823c-4.727-1.96-9.557-1.987-14.519-0.116
			c-4.93,1.899-8.526,5.139-10.769,9.705c-0.861,1.727-1.43,3.476-1.71,5.211c-1.31-1.016-2.803-1.875-4.473-2.562
			c-4.73-1.959-9.561-1.986-14.521-0.115c-4.927,1.902-8.526,5.137-10.77,9.705c-2.276,4.579-2.529,9.19-0.807,13.811
			c1.767,4.625,5,7.912,9.74,9.846c4.743,1.939,9.59,1.96,14.533,0.096c4.922-1.863,8.521-5.098,10.756-9.684
			c0.864-1.727,1.43-3.477,1.709-5.208c1.312,1.012,2.804,1.872,4.477,2.561c4.739,1.933,9.589,1.958,14.529,0.091
			c4.927-1.859,8.521-5.096,10.761-9.682C114.025,33.109,114.28,28.496,112.512,23.871"/>
	</g>
	<g>
		<path fill="#231815" d="M65.783,50.61c1.542-1.419,3.145-2.336,4.818-2.735c1.897-0.43,3.829-0.137,5.772,0.85
			c0.423,0.236,0.857,0.271,1.304,0.147c0.434-0.157,0.769-0.438,0.996-0.879c0.203-0.395,0.238-0.833,0.111-1.294
			c-0.134-0.479-0.423-0.834-0.848-1.026c-2.73-1.454-5.435-1.851-8.12-1.169c-2.304,0.541-4.514,1.808-6.644,3.82
			c-0.619,0.605-1.204,1.256-1.756,1.955c-0.416,0.578-0.631,0.876-0.648,0.885c-0.264,0.393-0.337,0.824-0.227,1.291
			c0.094,0.473,0.345,0.84,0.736,1.101c0.376,0.269,0.813,0.36,1.328,0.274c0.48-0.133,0.844-0.385,1.059-0.745l-0.012-0.034
			C64.563,51.889,65.271,51.064,65.783,50.61"/>
	</g>
	<g>
		<path fill="#231815" d="M85.473,32.197c1.537-1.423,3.143-2.34,4.817-2.738c1.896-0.428,3.829-0.137,5.771,0.854
			c0.424,0.232,0.859,0.268,1.302,0.145c0.437-0.156,0.769-0.439,0.999-0.88c0.203-0.394,0.238-0.832,0.112-1.294
			c-0.135-0.479-0.423-0.832-0.849-1.023c-2.731-1.454-5.435-1.852-8.12-1.172c-2.303,0.541-4.518,1.809-6.643,3.823
			c-0.619,0.605-1.206,1.255-1.76,1.954c-0.414,0.578-0.628,0.877-0.646,0.883c-0.262,0.396-0.338,0.824-0.227,1.293
			c0.095,0.473,0.347,0.838,0.737,1.1c0.375,0.269,0.813,0.361,1.327,0.275c0.48-0.133,0.845-0.387,1.062-0.744l-0.014-0.035
			C84.252,33.477,84.958,32.649,85.473,32.197"/>
	</g>
	<g>
		<path fill="#009FE8" d="M60.615,122.112c0.475,0.219,0.928,0.421,1.404,0.637c-0.498-0.287-0.998-0.573-1.493-0.857
			C60.572,121.975,60.592,122.042,60.615,122.112"/>
	</g>
	<g>
		<path fill="#4F2006" d="M74.155,111.82c-0.118,0-0.237-0.02-0.354-0.057c-0.58-0.197-0.894-0.824-0.696-1.403
			c0.194-0.58,0.836-0.937,1.417-0.74c0.579,0.194,0.905,0.776,0.711,1.358l-0.028,0.086
			C75.048,111.527,74.617,111.82,74.155,111.82z"/>
	</g>
	<g>
		<path fill="#7A4428" d="M95.545,114.949c-0.337-0.144-1.062-0.473-2.177-0.99c-0.769-0.355-1.621-0.471-2.566-0.344
			c-0.127-0.211-0.248-0.404-0.358-0.583c0-0.058-0.03-0.087-0.055-0.101l-0.005-0.016c-0.058,0-0.14-0.015-0.233-0.003
			c-0.309,0.001-0.808,0.083-1.5,0.206c0.024,0.322-0.03,1.366-0.188,3.121c-0.113,1.525-0.094,2.43,0.059,2.73
			c0.97,0.251,1.681,0.354,2.122,0.348c0.743-0.041,1.281-0.057,1.599-0.025c1.017,0.023,1.853,0.032,2.502,0.016
			c1.211-0.035,1.863-0.244,1.945-0.641c0.069-0.272,0.007-0.656-0.195-1.156c-0.257-0.572-0.399-1.131-0.424-1.644
			C96.022,115.358,95.852,115.064,95.545,114.949"/>
	</g>
	<g>
		<path fill="#7A4428" d="M78.305,109.157c0.146-0.085,0.243-0.214,0.283-0.401c0.289-1.388-0.037-2.468-0.961-3.238
			c-0.391-0.317-1.311-0.781-2.798-1.372c-0.15-0.048-0.314-0.016-0.477,0.134c-0.639,0.611-0.967,0.928-0.979,0.951
			c-0.803,0.701-1.286,1.242-1.428,1.597c-0.132,0.372-0.259,0.646-0.394,0.822c-0.154,0.185-0.027,0.648,0.389,1.405
			c0.422,0.774,1.091,1.299,1.98,1.538c0.073-0.022,0.141-0.046,0.224-0.09c1.409-0.624,2.597-1.022,3.532-1.187
			C77.986,109.256,78.206,109.207,78.305,109.157"/>
	</g>
	<g>
		<path fill="#7A4428" d="M82.593,117.626c0.026-0.104,0.044-0.286,0.022-0.547c0.009-0.257,0.043-0.404,0.044-0.46
			c-0.303-0.157-0.968-0.486-1.979-0.979c-0.941-0.475-1.604-0.902-1.988-1.265l-0.675-0.364c-0.047,0.229-0.18,0.541-0.411,0.904
			c-0.232,0.424-0.371,0.661-0.379,0.701c-0.129,0.449,0,0.912,0.362,1.377c0.409,0.549,1.048,1.041,1.947,1.49
			c0.07,0.035,0.595-0.072,1.538-0.338C82.059,117.893,82.568,117.73,82.593,117.626"/>
	</g>
	<g>
		<path fill="#0E0000" d="M90.61,120.796c-0.611,0-1.439-0.134-2.459-0.397c-0.41-0.105-0.757-0.383-0.947-0.76
			c-0.262-0.516-0.379-1.255-0.214-3.508c0.215-2.392,0.189-2.879,0.189-2.898c-0.049-0.75,0.473-1.434,1.212-1.566
			c0.817-0.145,1.334-0.225,1.746-0.229c0.164-0.003,0.236,0,0.298,0.004c0.237,0.018,0.472,0.092,0.682,0.211l0.002-0.004
			c0.195,0.111,0.362,0.264,0.493,0.442c0.839,0.011,1.637,0.188,2.372,0.528c1.097,0.507,1.809,0.83,2.14,0.973
			c0.433,0.162,1.282,0.689,1.416,2.138c0.021,0.403,0.12,0.777,0.3,1.178c0.345,0.856,0.428,1.53,0.282,2.118
			c-0.361,1.667-2.523,1.733-3.335,1.757c-0.693,0.017-1.537,0.012-2.582-0.015c-0.189-0.014-0.286-0.016-0.404-0.016
			c-0.281,0-0.634,0.016-1.07,0.041C90.703,120.794,90.641,120.796,90.61,120.796z M89.864,117.758
			c0.415,0.074,0.646,0.086,0.746,0.086v1.477l0.017-1.477c0.75-0.045,1.387-0.055,1.761-0.019c0.81,0.013,1.69,0.021,2.319,0.007
			c0.118-0.002,0.22-0.008,0.313-0.014c-0.218-0.543-0.36-1.112-0.409-1.669c-0.427-0.192-1.042-0.474-1.862-0.851
			c-0.519-0.238-1.098-0.309-1.748-0.221c-0.334,0.049-0.668-0.025-0.948-0.191c-0.029,0.429-0.07,0.926-0.121,1.484
			C89.885,116.999,89.869,117.443,89.864,117.758z M79.582,119.967c-0.24,0-0.525-0.068-0.74-0.18
			c-1.076-0.537-1.883-1.171-2.438-1.914c-0.816-1.048-0.778-2.029-0.597-2.662c0.017-0.123,0.102-0.277,0.308-0.651l0.193-0.351
			c0.222-0.354,0.26-0.489,0.26-0.491c0.114-0.437,0.435-0.837,0.848-1.017c0.415-0.182,0.898-0.203,1.296,0.012l0.681,0.365
			c0.111,0.059,0.219,0.137,0.313,0.225c0.134,0.126,0.562,0.48,1.633,1.019c1.014,0.493,1.688,0.825,1.995,0.985
			c0.502,0.258,0.814,0.783,0.801,1.348c-0.002,0.056-0.016,0.203-0.024,0.258c-0.003,0.037-0.014,0.088-0.019,0.156
			c0.02,0.335-0.003,0.639-0.065,0.904c-0.224,0.992-1.112,1.221-2.581,1.604C80.161,119.936,79.809,119.967,79.582,119.967z
			 M79.117,116.475c0.19,0.163,0.419,0.323,0.688,0.48c0.042-0.01,0.089-0.02,0.14-0.035
			C79.647,116.77,79.371,116.619,79.117,116.475z M73.922,112.067c-0.127,0-0.258-0.019-0.379-0.051
			c-1.276-0.341-2.276-1.12-2.896-2.255c-0.354-0.649-1.098-2.002-0.232-3.051c-0.024,0.027,0.026-0.05,0.145-0.383
			c0.248-0.631,0.798-1.287,1.793-2.163c0.17-0.179,0.46-0.454,0.979-0.952c0.416-0.378,0.878-0.562,1.371-0.562
			c0.151,0,0.434,0.043,0.582,0.09c2.238,0.889,2.938,1.358,3.28,1.637c0.955,0.801,1.976,2.252,1.468,4.683
			c-0.123,0.578-0.467,1.067-0.979,1.368c-0.347,0.179-0.642,0.252-1.093,0.339c-0.835,0.144-1.935,0.519-3.217,1.086
			c-0.078,0.051-0.256,0.109-0.401,0.153C74.205,112.046,74.062,112.067,73.922,112.067z M73.058,107.999
			c0.04,0.087,0.1,0.202,0.177,0.347c0.163,0.297,0.377,0.514,0.659,0.662c1.284-0.553,2.391-0.918,3.318-1.104
			c0.024-0.682-0.245-1.016-0.529-1.252c-0.03-0.025-0.38-0.294-1.762-0.875c-0.217,0.208-0.363,0.351-0.431,0.42
			c-0.046,0.052-0.094,0.1-0.146,0.145c-0.865,0.756-1.036,1.055-1.044,1.066C73.225,107.625,73.146,107.82,73.058,107.999z"/>
	</g>
	<g>
		<path fill="#984813" d="M84.292,107.771c-0.137,0.062-0.212,0.185-0.26,0.353c-0.03,0.188-0.002,0.349,0.085,0.495
			c0.063,0.137,0.152,0.244,0.308,0.291c0.153,0.067,0.289,0.062,0.421,0c0.118-0.058,0.198-0.179,0.234-0.362
			c0.043-0.173,0.01-0.333-0.059-0.487c-0.065-0.151-0.177-0.252-0.333-0.32C84.539,107.691,84.404,107.697,84.292,107.771"/>
	</g>
	<g>
		<path fill="#984813" d="M83.844,111.768c-0.137,0.062-0.218,0.184-0.258,0.352c-0.034,0.188-0.003,0.35,0.083,0.499
			c0.061,0.134,0.153,0.241,0.302,0.287c0.161,0.068,0.293,0.063,0.427,0c0.119-0.057,0.199-0.179,0.235-0.362
			c0.04-0.169,0.012-0.334-0.06-0.486c-0.065-0.152-0.18-0.253-0.331-0.318C84.088,111.688,83.955,111.692,83.844,111.768"/>
	</g>
	<g>
		<path fill="#984813" d="M80.914,106.408c-0.133,0.061-0.212,0.186-0.253,0.353c-0.043,0.186-0.008,0.351,0.081,0.498
			c0.06,0.134,0.153,0.24,0.303,0.29c0.158,0.066,0.291,0.061,0.425,0c0.117-0.059,0.197-0.181,0.233-0.364
			c0.043-0.171,0.009-0.335-0.059-0.487c-0.065-0.15-0.177-0.252-0.332-0.318C81.161,106.328,81.024,106.335,80.914,106.408"/>
	</g>
	<g>
		<path fill="#984813" d="M96.674,107.504c-0.135,0.061-0.211,0.185-0.254,0.35c-0.037,0.188-0.005,0.352,0.081,0.499
			c0.061,0.137,0.153,0.243,0.305,0.288c0.156,0.066,0.289,0.062,0.426,0c0.119-0.057,0.195-0.177,0.233-0.363
			c0.04-0.168,0.011-0.332-0.059-0.484c-0.067-0.151-0.177-0.252-0.336-0.319C96.921,107.424,96.784,107.43,96.674,107.504"/>
	</g>
	<g>
		<path fill="#009FE8" d="M42.281,79.476c-0.255,1.088-0.407,2.184-0.457,3.304c0.005,0.018,0.011,0.035,0.017,0.051
			c0.359,1.125,0.698,3.283,1.033,6.467c0.094,0.957,0.218,1.888,0.371,2.807c0.905,2.594,2.493,5.632,4.772,9.128
			c3.348,5.108,7.236,9.463,11.661,13.088c5.738,4.695,11.993,7.796,18.803,9.303c8.226,1.812,17.01,1.238,26.338-1.735
			c1.635-0.521,3.31-1.229,5.042-2.109c0.272-0.183,0.554-0.391,0.848-0.619c1.88-1.393,3.193-2.199,3.947-2.438
			c0.016-0.007,0.758-0.476,2.223-1.408c0.143-0.103,0.288-0.188,0.406-0.246c3.371-2.546,6.9-5.683,10.585-9.432
			c2.832-2.896,5.509-5.917,8.051-9.054c1.988-2.451,3.164-4.046,3.549-4.791c1.171-2.285,2.686-5.188,4.542-8.707
			c0.32-0.7,0.643-1.385,0.964-2.086c0.014-0.008,0.051-0.018,0.068-0.023c0.088-0.629,0.169-1.234,0.249-1.838
			c0.453-4.041,0.345-8.264-0.307-12.682c-0.592-3.977-1.697-8.541-3.327-13.658c-0.038-0.121-0.084-0.262-0.122-0.385
			c-0.137-0.247-0.303-0.582-0.52-0.959c-0.023-0.012-0.033-0.045-0.038-0.065c-0.12-0.31-0.401-0.955-0.889-1.923l-0.005-0.02
			c-2.717-2.637-5.247-4.504-7.553-5.607 M132.533,43.836c-0.417,0.039-0.834,0.132-1.256,0.266
			c-1.582,0.505-3.943,1.472-7.095,2.881c-4.141,1.9-7.592,3.467-10.359,4.677c-11.025,4.831-22.962,9.296-35.792,13.384
			c-0.248,0.08-0.884,0.146-1.894,0.197c-1.01,0.05-1.631,0.113-1.894,0.196c-0.455,0.146-1.661,0.259-3.598,0.313
			c-1.936,0.055-3.516,0.27-4.712,0.649c-0.246,0.078-0.841,0.151-1.811,0.21c-0.951,0.052-1.554,0.108-1.817,0.192
			c-0.229,0.071-1.429,0.185-3.626,0.342c-2.212,0.165-3.856,0.417-4.929,0.758"/>
	</g>
	<g>
		<path fill="#009FE8" d="M160.162,142.98c0.036,0.093,0.069,0.165,0.1,0.219l0.079,0.004c-0.016-0.097-0.038-0.229-0.07-0.361
			C160.248,142.907,160.216,142.951,160.162,142.98"/>
	</g>
</g>
<g id="guide" display="none">
</g>
</svg>
