<svg xmlns="http://www.w3.org/2000/svg" width="226.406" height="344.046" viewBox="0 0 226.406 344.046"><g><path fill="#009FE8" d="M145.957 249.427l.041.004c.229.23 2.014 6.746 5.312 19.563 3.365 13.078 5.087 19.719 5.174 19.906l4.609 1.046c11.189.167 20.372 1.645 27.539 4.455 3.475 1.359 6.781 3.316 9.937 5.859 1.454 1.179 2.679 3.006 3.719 5.497 1.021 2.488 1.355 4.487 1.027 6.007-.546 2.434-2.694 4.352-6.465 5.751-10.478 3.876-27.473 3.122-50.962-2.249-11.744-2.674-22.443-5.755-32.073-9.223l-.932-1.859c-.083-.241-.148-.503-.212-.783-.175-1.385-.307-2.369-.377-2.979-.162-1.169.458-9 1.828-23.52 1.372-14.535 1.995-22.39 1.886-23.534v-.021l29.934-3.938.015.018z"/><path fill="#00499C" d="M180.259 321.424c-9.327 0-20.999-1.586-34.702-4.719-11.726-2.671-22.574-5.792-32.241-9.273l-.557-.2-1.276-2.576c-.096-.283-.173-.59-.25-.92l-.026-.152-.219-1.74c-.068-.52-.122-.933-.156-1.25-.124-.885-.007-4.438 1.824-23.825 1.839-19.513 1.931-22.767 1.887-23.26l-.011-.16v-1.29l31.998-4.212.501.533c.403.399.669.659 5.705 20.247 1.073 4.168 4.086 15.875 4.93 19.029l3.604.818c11.27.184 20.658 1.715 27.901 4.558 3.574 1.396 7.048 3.442 10.324 6.083 1.645 1.331 3.004 3.315 4.15 6.075 1.147 2.791 1.51 5.04 1.107 6.889-.66 2.954-3.146 5.247-7.391 6.82-4.533 1.676-10.285 2.525-17.102 2.525zm-65.393-16.567c9.417 3.358 19.959 6.376 31.347 8.973 13.487 3.081 24.942 4.646 34.045 4.646h.001c6.466 0 11.875-.788 16.078-2.343 3.247-1.203 5.11-2.781 5.536-4.69.26-1.198-.067-2.974-.947-5.126-.946-2.255-2.05-3.911-3.283-4.913-3.039-2.446-6.25-4.342-9.546-5.627-6.953-2.727-16.042-4.194-27.027-4.358l-.301-.037-5.324-1.205-.304-.664c-.102-.221-.173-.382-5.259-20.152-3.138-12.202-4.391-16.691-4.885-18.34l-27.523 3.622c-.092 2.053-.477 7.473-1.885 22.401-1.684 17.817-1.927 22.438-1.835 23.182l.367 2.914.127.486.618 1.231z"/><path fill="#009FE8" d="M98.592 260.85h.038c.242.224 2.258 6.684 6.021 19.403 3.833 12.979 5.797 19.567 5.891 19.753l4.652.882c11.21-.232 20.463.923 27.742 3.483 3.525 1.232 6.907 3.077 10.158 5.512 1.498 1.123 2.791 2.914 3.92 5.368 1.111 2.456 1.518 4.451 1.242 5.982-.457 2.458-2.543 4.453-6.272 5.989-10.354 4.258-27.398 4.107-51.113-.435-11.858-2.259-22.681-4.967-32.453-8.092l-.998-1.828c-.09-.241-.168-.5-.237-.776-.226-1.385-.396-2.364-.484-2.974-.207-1.161.141-9.029.996-23.62.853-14.603 1.193-22.492 1.048-23.636v-.018l29.834-5.015.015.022z"/><path fill="#00499C" d="M132.283 331.785c-8.74 0-19.4-1.194-31.692-3.547-11.808-2.25-22.786-4.985-32.624-8.138l-.563-.179-1.364-2.527c-.108-.286-.201-.597-.288-.925l-.288-1.717-.228-1.415c-.161-.915-.159-4.475.983-23.925 1.145-19.604 1.12-22.87 1.055-23.362l-.011-.188v-1.248l1.232-.226 30.647-5.151.485.524c.413.381.691.633 6.439 20.071 1.219 4.135 4.652 15.757 5.612 18.885l3.64.688c11.273-.215 20.737.98 28.104 3.57 3.623 1.269 7.175 3.193 10.556 5.725 1.694 1.271 3.124 3.212 4.378 5.938 1.245 2.753 1.688 4.995 1.353 6.855-.555 2.981-2.964 5.365-7.163 7.094-5.158 2.123-11.978 3.198-20.263 3.198zm-62.854-14.318c9.581 3.039 20.247 5.687 31.719 7.87 23.291 4.459 40.277 4.634 50.276.52 3.213-1.324 5.022-2.972 5.38-4.895.218-1.209-.174-2.977-1.138-5.1-1.021-2.225-2.187-3.842-3.457-4.798-3.139-2.349-6.424-4.132-9.76-5.3-7.069-2.485-16.251-3.627-27.224-3.401l-.155.003-5.521-1.048-.329-.647c-.109-.223-.189-.381-5.985-20-3.581-12.108-4.994-16.559-5.551-18.192l-27.435 4.61c-.017 2.121-.213 7.587-1.081 22.495-1.053 17.92-1.131 22.553-1.019 23.282l.229 1.404.26 1.588.129.395.662 1.214z"/><path fill="#00398A" d="M226.654 139.257l.094-.065.243.376-.075.055-.27.156-.24-.356z"/><path fill="#00499C" d="M139.169 140.648c-.735 0-1.369-.552-1.456-1.301-.094-.804.485-1.531 1.289-1.624l9.988-1.151c.801-.097 1.533.482 1.624 1.288.094.806-.486 1.532-1.287 1.625l-9.987 1.154-.171.009z"/><path fill="#FFE100" d="M162.417 186.626c-.237.37-.462.756-.645 1.143-1.424 3.271-.129 6.982 3.859 11.154 4.006 4.154 9.472 7.756 16.397 10.786 3.451 1.496 6.758 2.642 9.915 3.435 1.202-.72 1.996-1.553 2.423-2.529.645-1.462.625-2.865-.076-4.192-.074-.128-.165-.274-.297-.445-1.919-.628-3.915-1.345-5.965-2.178-.571-.238-1.16-.479-1.752-.737-.186-.093-.352-.147-.521-.204l-.511-.238c-.351-.148-.688-.297-1.034-.462-8.978-3.915-15.735-8.587-20.276-14.035-.462-.553-.888-1.126-1.295-1.699l-.222.201z"/><path fill="#00499C" d="M218.223 223.995l-.002-.033.127-.009-.125.042"/><path fill="#009FE8" d="M76.809 118.633l-.586.124c-8.294 1.882-14.389 4.381-18.259 7.507-.56.436-1.07.9-1.524 1.373-1.425 1.448-2.819 3.321-4.174 5.585-.453.753-.894 1.546-1.346 2.39-.45.851-.983 1.942-1.616 3.281l-.014.021c-.988 2.092-2.196 4.774-3.62 8.069l.006.019c-.123.233-.227.46-.329.712l-.61-1.119c-7.103 15.622-13.981 29.293-20.639 41.035l-.584 1.119-.042-.013c-6.226 11.333-9.481 22.53-9.754 33.595-.014.305-.027.61-.016.93-.145 11.059 2.137 20.896 6.853 29.543l1.396-.689.097.188.001.019c4.52 8.428 10.769 14.871 18.725 19.374l.434.248.022.014c8.416 4.618 17.653 6.42 27.688 5.402l.37-.041c6.511-.698 12.774-1.48 18.785-2.378 1.861-.273 3.722-.569 5.546-.854 10.962-1.778 21.033-3.901 30.214-6.366 1.529-.412 3.039-.823 4.531-1.245 13.036-3.777 24.149-8.268 33.384-13.491 5.083-2.89 9.604-6.002 13.528-9.331l.016-.004c.579-.515 1.163-1.015 1.72-1.526.988-.904 1.945-1.801 2.853-2.723.318-.391.66-.763.995-1.154 6.589-7.688 10.797-15.677 12.637-23.997 1.542-8.181.875-17.016-1.99-26.543-.549-1.809-1.152-3.622-1.813-5.428l-.007-.017c-3.729-9.948-9.506-19.94-17.321-29.96l-.021-.014c-2.133-2.74-4.414-5.47-6.85-8.204-2.283-2.578-4.705-5.145-7.255-7.722-1.346-1.34-2.687-2.645-4.019-3.932l-.021-.017-1.348-1.264c-.61-.549-1.215-1.102-1.809-1.642-4.385-3.964-8.791-7.511-13.191-10.646-.498-.369-.982-.702-1.472-1.03l-.003-.02c-1.845-1.273-3.577-2.382-5.166-3.351-3.389-2.027-6.256-3.37-8.611-3.99-27.033 4.757-42.305 7.472-45.791 8.163"/><path fill="#00499C" d="M63.009 279.889c-8.006 0-15.579-1.801-22.522-5.354l-.032.009-.656-.36c-.151-.078-.299-.157-.436-.246-8.424-4.57-15.154-11.344-19.917-20.07l-.159-.289c-4.85-8.905-7.215-19.086-7.067-30.338-.011-.289.001-.633.017-.974.278-11.219 3.621-22.752 9.938-34.244l.64-1.139c6.612-11.659 13.537-25.425 20.571-40.903 1.461-3.347 2.661-6.008 3.663-8.116l.08-.161c.73-1.537 1.434-3 2.045-4.12.241-.444.485-.875.726-1.292l.189-.332c1.673-2.886 3.314-5.111 5.025-6.822.285-.295.597-.576.941-.861l.144-.139c4.04-3.472 10.539-6.27 19.327-8.312.197-.061.423-.113.673-.162 1.9-.415 15.623-2.864 45.866-8.179.327-.068.646-.134.966-.182l.561-.085.785.512c2.477 1.607 5.138 3.281 7.902 4.969 1.677 1.024 3.455 2.101 5.318 3.216 5.261 3.145 10.385 6.983 15.236 11.403l.21.193 1.766 1.619.675.644.145.139.538.492c3.218 3.047 5.977 5.801 8.207 8.188.784.834 1.707 1.883 3.064 3.48l.204.224c2.025 2.417 4.304 5.229 6.765 8.358l.238.302c.792 1.005 1.606 2.052 2.465 3.156 5.419 6.975 10.29 16.205 14.479 27.429l.055.162c.243.655.491 1.327.723 1.999.408 1.127.794 2.25 1.166 3.374 3.476 10.813 4.439 20.006 2.866 27.331l-.122.583c-1.73 8.423-6.3 16.84-13.545 24.898l-.533.563.009.024-.576.606c-1.35 1.421-2.845 2.894-4.568 4.51-1.846 1.717-4.104 3.442-6.913 5.275-1.71 1.095-3.819 2.353-6.291 3.748l.006.035-1.245.668-.617.334c-9.036 4.982-20.156 9.368-33.015 13.011l-5.309 1.431c-9.036 2.339-19.015 4.403-29.696 6.146-1.916.302-3.739.587-5.563.858-6.009.899-12.347 1.707-18.877 2.408l-.372-1.452.207 1.472-.299.033c-2.011.219-4.072.33-6.071.33zm-21.53-8.181c8.249 4.312 17.442 5.957 27.336 4.899l.484-.055c6.415-.689 12.712-1.494 18.643-2.383 1.855-.274 3.669-.561 5.452-.84 10.702-1.745 20.593-3.789 29.506-6.099l.415-.105 4.878-1.319c12.623-3.575 23.531-7.874 32.411-12.771l-.051-.304 1.135-.297c2.731-1.532 5.033-2.896 6.847-4.059 2.655-1.731 4.786-3.354 6.5-4.952 1.439-1.348 2.711-2.59 3.868-3.783l-.016-.059.613-.579 1.344-1.456c6.704-7.551 10.928-15.381 12.561-23.279l.003-.025.06-.269.012-.092c1.479-6.909.545-15.586-2.771-25.889-.355-1.09-.733-2.183-1.139-3.307-.245-.717-.503-1.403-.752-2.069l-.062-.185c-4.07-10.877-8.774-19.792-13.986-26.5-.868-1.115-1.691-2.174-2.49-3.188l-.363-.208-.062-.335c-2.3-2.913-4.432-5.542-6.337-7.823l-.165-.184c-1.421-1.675-2.36-2.744-3.146-3.575-2.113-2.269-4.722-4.878-7.758-7.761l-.32-.284c-.24-.223-.474-.445-.707-.672l-.545-.521-.127-.106-1.807-1.668c-4.737-4.331-9.738-8.083-14.866-11.149-1.871-1.119-3.659-2.201-5.342-3.23-2.722-1.661-5.34-3.309-7.796-4.897l-.263.054c-29.896 5.256-44.009 7.773-45.865 8.18-.176.035-.314.064-.462.11l-.149.037c-8.19 1.906-14.207 4.44-17.895 7.528l-.023.047-.243.195c-.291.238-.555.47-.806.732-1.526 1.523-3.058 3.608-4.569 6.219l-.188.324c-.228.403-.466.819-.696 1.246-.592 1.084-1.303 2.562-2.037 4.109l-.083.16c-.972 2.059-2.139 4.648-3.565 7.912-7.081 15.58-14.044 29.426-20.707 41.175l-.627 1.117c-6.07 11.046-9.29 22.121-9.558 32.893-.014.293-.027.56-.019.84-.136 10.753 2.086 20.405 6.606 28.753l.237.136.092.479c4.481 8.154 10.793 14.483 18.754 18.809l.155.09h.114l.337.233z"/><path fill="#009FE8" d="M142.482 50.215c-2.794-4.686-5.912-8.396-9.353-11.113-4.568-3.578-9.907-5.574-16.034-5.965l-.457-.027c-.571-.033-1.159-.057-1.76-.059-.504.004-1.006.008-1.518.037.056-.309.112-.617.152-.918l.05-.328.021-.182c.265-2.388-.019-4.794-.841-7.185l-.014-.054-.011-.035-.075-.171-.133-.345c-1.716-4.602-4.945-7.871-9.692-9.823-4.727-1.96-9.557-1.987-14.519-.116-4.93 1.899-8.526 5.139-10.769 9.705-.861 1.729-1.43 3.476-1.71 5.211-1.31-1.016-2.803-1.875-4.473-2.562-4.73-1.959-9.561-1.986-14.521-.115-3.154 1.217-5.769 2.98-7.831 5.305-1.158 1.298-2.123 2.767-2.938 4.402-2.012 4.066-2.453 8.155-1.298 12.262l.024.146c.131.463.3.932.467 1.4.73 1.918 1.711 3.598 2.949 5.062l.063.074.115.119.079.131c.138.248.088.573-.199.953l-.054.076-.123.154c-.253.178-.524.361-.83.557-.245.136-.508.297-.782.463-.31.175-.658.363-1.019.574l-.132.062c-7.49 4.014-13.254 8.172-17.268 12.473l-.302.311c-4.701 5.118-7.424 11.039-8.13 17.751v6.987l2.205 10.141 1.041 3.018c.441 1.197.907 2.422 1.434 3.648.615 1.45 1.326 2.83 2.131 4.142 1.491 2.487 3.301 4.757 5.437 6.845 1.325 1.304 2.756 2.51 4.339 3.652 5.264 3.82 11.567 6.515 18.899 8.089 2.141.46 4.325.811 6.516 1.061l20.013-.376c7.258-1.114 14.646-3.257 22.195-6.418l31.071-21.404c2.681-2.944 5.066-6.086 7.188-9.455.096-.126.169-.264.243-.387 3.906-6.22 6.326-12.472 7.236-18.783.653-4.331.558-8.463-.259-12.423l-.983-3.812c-.282-.818-.583-1.653-.925-2.473-1.508-3.837-3.144-7.265-4.915-10.282"/><path fill="#00499C" d="M67.383 138.952c-2.999 0-5.228-.07-6.825-.206-2.784-.24-5.582-.709-8.315-1.394-2.873-.722-5.708-1.711-8.432-2.937-2.205-.975-4.396-2.121-6.508-3.407-2.348-1.438-4.554-3.193-6.556-5.208-2.103-2.135-3.993-4.465-5.628-6.93-1.604-2.443-2.936-5.033-3.965-7.705-.923-2.398-1.695-4.878-2.291-7.373-.655-2.736-1.128-5.576-1.402-8.442-.166-1.793-.224-3.437-.174-5.03.067-2.924.577-5.88 1.503-8.779.923-2.853 2.129-5.561 3.583-8.055 1.462-2.535 3.299-4.867 5.455-6.92 2.099-2.009 4.126-3.676 6.016-4.955 1.826-1.258 3.353-2.271 4.563-3.064 1.23-.81 2.848-1.766 4.809-2.84.643-.354 1.198-.66 1.67-.924-.824-.896-1.5-1.938-2.012-3.113-.774-1.77-1.289-3.945-1.53-6.467-.254-2.559.056-5.078.916-7.488.87-2.385 1.695-4.17 2.537-5.464.796-1.276 1.672-2.39 2.582-3.286.783-.799 1.909-1.736 3.522-2.936 1.557-1.147 3.624-2.127 6.146-2.91 2.46-.764 4.747-1.172 6.801-1.213 1.978-.05 3.617.105 4.884.438 1.184.311 2.378.713 3.556 1.201.659.264 1.335.646 2.022 1.144l.174-.882c1.304-3.166 2.693-5.473 4.254-7.057 1.517-1.562 3.27-2.907 5.199-3.99 2.509-1.46 5.24-2.387 8.105-2.742 1.541-.174 3.126-.213 4.729-.115 2.789.204 5.403.829 7.789 1.861 2.447 1.055 4.409 2.257 5.999 3.675 1.627 1.437 2.897 3.128 3.78 5.022.87 1.869 1.532 4.115 1.969 6.675.24 1.405.29 2.604.15 3.614 2.607-.104 5.188.225 7.709.985 2.073.618 4.391 1.609 6.88 2.944.872.478 1.857 1.092 3.029 1.883.941.654 1.608 1.152 2.061 1.537l4.219 4.377 3.575 5.268c.271.425.554.874.856 1.395.818 1.379 1.798 3.131 2.831 5.066 1.568 2.937 2.758 5.717 3.528 8.263.896 2.808 1.462 5.694 1.687 8.579.228 2.935.095 5.768-.398 8.423-.468 2.521-1.049 4.978-1.722 7.302-.664 2.244-1.497 4.374-2.479 6.332l-.299.588c-.812 1.602-1.46 2.865-1.935 3.768-.647 1.22-1.11 2-1.54 2.615-1.379 2.062-2.93 4.064-4.601 5.924-1.984 2.221-4.152 4.273-6.438 6.094-2.538 1.979-4.877 3.673-7.169 5.193-1.66 1.087-3.29 2.184-4.911 3.313l-13.47 9.331c-2.317 1.382-4.138 2.275-5.492 2.709l-12.003 3.961c-2.357.772-4.818 1.272-7.321 1.485l-13.717.857c-.686.008-1.337.01-1.955.01zm-2.901-114.102l-.572.007c-1.778.036-3.791.399-5.985 1.081-2.206.686-3.979 1.514-5.268 2.466-1.487 1.101-2.5 1.942-3.191 2.646-.765.752-1.493 1.686-2.183 2.788-.718 1.109-1.472 2.745-2.249 4.88-.718 2.015-.969 4.046-.757 6.199.216 2.215.65 4.088 1.3 5.572.619 1.414 1.5 2.517 2.691 3.369l1.887 1.348-2.181 1.229c-.504.285-1.621.916-3.338 1.859-1.894 1.039-3.445 1.953-4.607 2.719-1.198.785-2.707 1.786-4.52 3.038-1.767 1.193-3.664 2.757-5.647 4.651-1.953 1.861-3.613 3.968-4.938 6.266-1.353 2.318-2.469 4.832-3.325 7.479-.842 2.625-1.301 5.305-1.363 7.955-.045 1.48.007 3.007.165 4.672.26 2.727.708 5.43 1.331 8.033.567 2.369 1.301 4.725 2.176 7 .954 2.475 2.19 4.879 3.675 7.14 1.527 2.303 3.299 4.485 5.264 6.479 1.83 1.846 3.849 3.45 5.995 4.765 1.996 1.218 4.076 2.304 6.17 3.23 2.574 1.159 5.246 2.091 7.95 2.771 2.582.646 5.223 1.086 7.848 1.314 1.833.157 4.578.219 8.423.188l13.608-.854c2.239-.192 4.478-.643 6.616-1.343l12.014-3.967c.796-.255 2.269-.871 4.811-2.384l13.378-9.271c1.638-1.146 3.296-2.259 4.973-3.355 2.219-1.473 4.503-3.126 6.964-5.047 2.145-1.708 4.191-3.646 6.069-5.745 1.575-1.758 3.041-3.647 4.362-5.623.372-.533.791-1.242 1.368-2.33.47-.887 1.107-2.14 1.912-3.723l.294-.579c.9-1.796 1.668-3.76 2.279-5.831.646-2.227 1.202-4.587 1.652-7.013.453-2.435.569-4.938.357-7.655-.203-2.661-.729-5.325-1.557-7.916l-.007-.022v-.003c-.717-2.363-1.833-4.969-3.313-7.738-1.011-1.897-1.968-3.611-2.767-4.959-.291-.496-.556-.917-.783-1.277l-3.478-5.118-3.862-3.991c-.271-.221-.882-.675-1.714-1.252-1.079-.731-1.991-1.299-2.767-1.725-2.302-1.234-4.433-2.147-6.324-2.711-2.952-.891-5.87-1.108-8.925-.662l-4.346.634 3.08-3.129c.185-.184.742-1.006.272-3.774-.394-2.299-.979-4.294-1.738-5.926-.708-1.523-1.738-2.889-3.062-4.061-1.354-1.207-3.056-2.244-5.21-3.172-2.081-.9-4.376-1.448-6.813-1.625-1.439-.087-2.812-.054-4.188.1-2.448.305-4.803 1.104-6.986 2.375-1.702.955-3.229 2.126-4.553 3.492-1.251 1.27-2.45 3.268-3.569 5.947l-.433 3.026c-.021.169-.075.335-.156.489v.004l-.002.004c-.085.156-.196.297-.328.412-.152.137-.327.234-.513.296-.19.063-.394.091-.608.067-.199-.02-.396-.08-.574-.18l-.003-.002-.002-.002-.005-.001v-.001c-.127-.073-.241-.162-.34-.267-1.126-1.163-2.183-1.948-3.142-2.331-1.069-.441-2.136-.801-3.191-1.079-.87-.227-2.074-.346-3.501-.346z"/><path fill="#fff" d="M112.512 23.871c-1.716-4.603-4.945-7.871-9.692-9.823-4.727-1.96-9.557-1.987-14.519-.116-4.93 1.899-8.526 5.139-10.769 9.705-.861 1.727-1.43 3.476-1.71 5.211-1.31-1.016-2.803-1.875-4.473-2.562-4.73-1.959-9.561-1.986-14.521-.115-4.927 1.902-8.526 5.137-10.77 9.705-2.276 4.579-2.529 9.19-.807 13.811 1.767 4.625 5 7.912 9.74 9.846 4.743 1.939 9.59 1.96 14.533.096 4.922-1.863 8.521-5.098 10.756-9.684.864-1.727 1.43-3.477 1.709-5.208 1.312 1.012 2.804 1.872 4.477 2.561 4.739 1.933 9.589 1.958 14.529.091 4.927-1.859 8.521-5.096 10.761-9.682 2.269-4.598 2.524-9.211.756-13.836"/><path fill="#231815" d="M65.783 50.61c1.542-1.419 3.145-2.336 4.818-2.735 1.897-.43 3.829-.137 5.772.85.423.236.857.271 1.304.147.434-.157.769-.438.996-.879.203-.395.238-.833.111-1.294-.134-.479-.423-.834-.848-1.026-2.73-1.454-5.435-1.851-8.12-1.169-2.304.541-4.514 1.808-6.644 3.82-.619.605-1.204 1.256-1.756 1.955-.416.578-.631.876-.648.885-.264.393-.337.824-.227 1.291.094.473.345.84.736 1.101.376.269.813.36 1.328.274.48-.133.844-.385 1.059-.745l-.012-.034c.911-1.162 1.619-1.987 2.131-2.441M85.473 32.197c1.537-1.423 3.143-2.34 4.817-2.738 1.896-.428 3.829-.137 5.771.854.424.232.859.268 1.302.145.437-.156.769-.439.999-.88.203-.394.238-.832.112-1.294-.135-.479-.423-.832-.849-1.023-2.731-1.454-5.435-1.852-8.12-1.172-2.303.541-4.518 1.809-6.643 3.823-.619.605-1.206 1.255-1.76 1.954-.414.578-.628.877-.646.883-.262.396-.338.824-.227 1.293.095.473.347.838.737 1.1.375.269.813.361 1.327.275.48-.133.845-.387 1.062-.744l-.014-.035c.911-1.161 1.617-1.989 2.132-2.441"/><path fill="#009FE8" d="M60.615 122.112l1.404.637-1.493-.857.089.22"/><path fill="#4F2006" d="M74.155 111.82c-.118 0-.237-.02-.354-.057-.58-.197-.894-.824-.696-1.403.194-.58.836-.937 1.417-.74.579.194.905.776.711 1.358l-.028.086c-.157.463-.588.756-1.05.756z"/><path fill="#7A4428" d="M95.545 114.949c-.337-.144-1.062-.473-2.177-.99-.769-.355-1.621-.471-2.566-.344l-.358-.583-.055-.101-.005-.016-.233-.003c-.309.001-.808.083-1.5.206.024.322-.03 1.366-.188 3.121-.113 1.525-.094 2.43.059 2.73.97.251 1.681.354 2.122.348.743-.041 1.281-.057 1.599-.025 1.017.023 1.853.032 2.502.016 1.211-.035 1.863-.244 1.945-.641.069-.272.007-.656-.195-1.156-.257-.572-.399-1.131-.424-1.644-.049-.509-.219-.803-.526-.918M78.305 109.157c.146-.085.243-.214.283-.401.289-1.388-.037-2.468-.961-3.238-.391-.317-1.311-.781-2.798-1.372-.15-.048-.314-.016-.477.134-.639.611-.967.928-.979.951-.803.701-1.286 1.242-1.428 1.597-.132.372-.259.646-.394.822-.154.185-.027.648.389 1.405.422.774 1.091 1.299 1.98 1.538l.224-.09c1.409-.624 2.597-1.022 3.532-1.187.31-.06.53-.109.629-.159M82.593 117.626c.026-.104.044-.286.022-.547.009-.257.043-.404.044-.46-.303-.157-.968-.486-1.979-.979-.941-.475-1.604-.902-1.988-1.265l-.675-.364c-.047.229-.18.541-.411.904-.232.424-.371.661-.379.701-.129.449 0 .912.362 1.377.409.549 1.048 1.041 1.947 1.49.07.035.595-.072 1.538-.338.985-.252 1.494-.415 1.519-.519"/><path fill="#0E0000" d="M90.61 120.796c-.611 0-1.439-.134-2.459-.397-.41-.105-.757-.383-.947-.76-.262-.516-.379-1.255-.214-3.508.215-2.392.189-2.879.189-2.898-.049-.75.473-1.434 1.212-1.566.817-.145 1.334-.225 1.746-.229l.298.004c.237.018.472.092.682.211l.002-.004c.195.111.362.264.493.442.839.011 1.637.188 2.372.528 1.097.507 1.809.83 2.14.973.433.162 1.282.689 1.416 2.138.021.403.12.777.3 1.178.345.856.428 1.53.282 2.118-.361 1.667-2.523 1.733-3.335 1.757-.693.017-1.537.012-2.582-.015l-.404-.016c-.281 0-.634.016-1.07.041l-.121.003zm-.746-3.038c.415.074.646.086.746.086v1.477l.017-1.477c.75-.045 1.387-.055 1.761-.019.81.013 1.69.021 2.319.007l.313-.014c-.218-.543-.36-1.112-.409-1.669-.427-.192-1.042-.474-1.862-.851-.519-.238-1.098-.309-1.748-.221-.334.049-.668-.025-.948-.191-.029.429-.07.926-.121 1.484-.047.629-.063 1.073-.068 1.388zm-10.282 2.209c-.24 0-.525-.068-.74-.18-1.076-.537-1.883-1.171-2.438-1.914-.816-1.048-.778-2.029-.597-2.662.017-.123.102-.277.308-.651l.193-.351c.222-.354.26-.489.26-.491.114-.437.435-.837.848-1.017.415-.182.898-.203 1.296.012l.681.365c.111.059.219.137.313.225.134.126.562.48 1.633 1.019 1.014.493 1.688.825 1.995.985.502.258.814.783.801 1.348l-.024.258-.019.156c.02.335-.003.639-.065.904-.224.992-1.112 1.221-2.581 1.604-1.285.359-1.637.39-1.864.39zm-.465-3.492c.19.163.419.323.688.48l.14-.035c-.298-.15-.574-.301-.828-.445zm-5.195-4.408c-.127 0-.258-.019-.379-.051-1.276-.341-2.276-1.12-2.896-2.255-.354-.649-1.098-2.002-.232-3.051l.145-.383c.248-.631.798-1.287 1.793-2.163.17-.179.46-.454.979-.952.416-.378.878-.562 1.371-.562.151 0 .434.043.582.09 2.238.889 2.938 1.358 3.28 1.637.955.801 1.976 2.252 1.468 4.683-.123.578-.467 1.067-.979 1.368-.347.179-.642.252-1.093.339-.835.144-1.935.519-3.217 1.086-.078.051-.256.109-.401.153-.138.04-.281.061-.421.061zm-.864-4.068l.177.347c.163.297.377.514.659.662 1.284-.553 2.391-.918 3.318-1.104.024-.682-.245-1.016-.529-1.252-.03-.025-.38-.294-1.762-.875l-.431.42-.146.145c-.865.756-1.036 1.055-1.044 1.066-.075.217-.154.412-.242.591z"/><path fill="#984813" d="M84.292 107.771c-.137.062-.212.185-.26.353-.03.188-.002.349.085.495.063.137.152.244.308.291.153.067.289.062.421 0 .118-.058.198-.179.234-.362.043-.173.01-.333-.059-.487-.065-.151-.177-.252-.333-.32-.149-.05-.284-.044-.396.03M83.844 111.768c-.137.062-.218.184-.258.352-.034.188-.003.35.083.499.061.134.153.241.302.287.161.068.293.063.427 0 .119-.057.199-.179.235-.362.04-.169.012-.334-.06-.486-.065-.152-.18-.253-.331-.318-.154-.052-.287-.048-.398.028M80.914 106.408c-.133.061-.212.186-.253.353-.043.186-.008.351.081.498.06.134.153.24.303.29.158.066.291.061.425 0 .117-.059.197-.181.233-.364.043-.171.009-.335-.059-.487-.065-.15-.177-.252-.332-.318-.151-.052-.288-.045-.398.028M96.674 107.504c-.135.061-.211.185-.254.35-.037.188-.005.352.081.499.061.137.153.243.305.288.156.066.289.062.426 0 .119-.057.195-.177.233-.363.04-.168.011-.332-.059-.484-.067-.151-.177-.252-.336-.319-.149-.051-.286-.045-.396.029"/><path fill="#009FE8" d="M42.281 79.476c-.255 1.088-.407 2.184-.457 3.304l.017.051c.359 1.125.698 3.283 1.033 6.467.094.957.218 1.888.371 2.807.905 2.594 2.493 5.632 4.772 9.128 3.348 5.108 7.236 9.463 11.661 13.088 5.738 4.695 11.993 7.796 18.803 9.303 8.226 1.812 17.01 1.238 26.338-1.735 1.635-.521 3.31-1.229 5.042-2.109.272-.183.554-.391.848-.619 1.88-1.393 3.193-2.199 3.947-2.438.016-.007.758-.476 2.223-1.408.143-.103.288-.188.406-.246 3.371-2.546 6.9-5.683 10.585-9.432 2.832-2.896 5.509-5.917 8.051-9.054 1.988-2.451 3.164-4.046 3.549-4.791 1.171-2.285 2.686-5.188 4.542-8.707l.964-2.086.068-.023c.088-.629.169-1.234.249-1.838.453-4.041.345-8.264-.307-12.682-.592-3.977-1.697-8.541-3.327-13.658l-.122-.385c-.137-.247-.303-.582-.52-.959l-.038-.065c-.12-.31-.401-.955-.889-1.923l-.005-.02c-2.717-2.637-5.247-4.504-7.553-5.607m.001-.003c-.417.039-.834.132-1.256.266-1.582.505-3.943 1.472-7.095 2.881-4.141 1.9-7.592 3.467-10.359 4.677-11.025 4.831-22.962 9.296-35.792 13.384-.248.08-.884.146-1.894.197-1.01.05-1.631.113-1.894.196-.455.146-1.661.259-3.598.313-1.936.055-3.516.27-4.712.649-.246.078-.841.151-1.811.21-.951.052-1.554.108-1.817.192-.229.071-1.429.185-3.626.342-2.212.165-3.856.417-4.929.758M160.162 142.98l.1.219.079.004-.07-.361c-.023.065-.055.109-.109.138"/></g></svg>