<?xml version="1.0" encoding="utf-8"?>
<!-- Generator: Adobe Illustrator 16.2.1, SVG Export Plug-In . SVG Version: 6.00 Build 0)  -->
<!DOCTYPE svg PUBLIC "-//W3C//DTD SVG 1.1//EN" "http://www.w3.org/Graphics/SVG/1.1/DTD/svg11.dtd">
<svg version="1.1" xmlns="http://www.w3.org/2000/svg" xmlns:xlink="http://www.w3.org/1999/xlink" x="0px" y="0px"
	 width="176.198px" height="128.484px" viewBox="0 0 176.198 128.484" enable-background="new 0 0 176.198 128.484"
	 xml:space="preserve">
<g id="base">
</g>
<g id="book3">
</g>
<g id="_x38_" display="none">
</g>
<g id="_x37_" display="none">
</g>
<g id="_x36_" display="none">
</g>
<g id="_x35_" display="none">
</g>
<g id="_x34_" display="none">
</g>
<g id="_x33_" display="none">
</g>
<g id="_x32_" display="none">
</g>
<g id="_x31_" display="none">
</g>
<g id="_x30_">
	<g>
		<g>
			<path fill="#4F2006" d="M147.097,91.602c-0.446,0-0.859-0.268-1.017-0.718l-0.02-0.054c-0.204-0.577,0.1-1.21,0.679-1.412
				c0.577-0.206,1.208,0.1,1.409,0.678c0.205,0.576-0.089,1.236-0.665,1.439C147.356,91.58,147.224,91.602,147.097,91.602z"/>
		</g>
		<g>
			<path fill="#009FE8" d="M34.007,111.986c0.475,0.219,0.928,0.421,1.404,0.637c-0.498-0.287-0.998-0.573-1.493-0.857
				C33.964,111.849,33.983,111.916,34.007,111.986"/>
		</g>
		<g>
			<path fill="#4F2006" d="M47.547,101.694c-0.118,0-0.237-0.02-0.354-0.057c-0.58-0.197-0.894-0.824-0.696-1.403
				c0.194-0.58,0.836-0.937,1.417-0.74c0.579,0.194,0.905,0.776,0.711,1.358l-0.028,0.086
				C48.439,101.401,48.009,101.694,47.547,101.694z"/>
		</g>
		<g>
			<path fill="#B66D13" d="M44.385,89.512c-0.089,1.79-0.01,3.315,0.253,4.567c0.24,1.24,0.686,2.568,1.337,4.007
				c0.67,1.433,1.312,2.776,1.918,4.017c0.611,1.257,1.511,2.365,2.646,3.318c1.156,0.95,2.246,1.512,3.25,1.694
				c1.333,0.835,2.687,1.623,4.04,2.352c1.382,0.741,2.835,1.11,4.387,1.12c1.574,0.018,2.654-0.229,3.282-0.757
				c1.629-0.423,3.028-1.062,4.195-1.899c2.111-1.506,3.691-3.965,4.766-7.344c1.046-3.395,1.331-6.389,0.862-9.01
				c-0.502-2.607-0.866-4.427-1.126-5.486c-0.277-1.055-0.835-2.076-1.688-3.045c-0.854-0.984-1.77-1.971-2.742-2.959
				c-1-0.999-2.019-1.834-3.062-2.49c-1.059-0.65-2.076-1.118-3.053-1.445c-0.964-0.294-2.036-0.553-3.205-0.761
				c-1.172-0.21-2.714-0.434-4.602-0.7c-1.884-0.271-3.616,0.184-5.216,1.369c-1.562,1.158-2.975,3.233-4.239,6.252
				C45.14,85.321,44.475,87.722,44.385,89.512"/>
		</g>
		<g>
			<path fill="#6B3D1B" d="M62.389,111.909h-0.204c-1.761-0.032-3.433-0.459-4.971-1.268c-1.329-0.717-2.644-1.478-3.919-2.273
				c-1.151-0.25-2.326-0.885-3.582-1.934c-1.291-1.057-2.303-2.318-2.996-3.74c-0.53-1.08-1.076-2.248-1.654-3.49l-0.265-0.57
				c-0.742-1.574-1.214-2.984-1.448-4.304c-0.273-1.288-0.371-2.883-0.292-4.841c0.09-2.008,0.785-4.511,2.123-7.662
				c1.368-3.239,2.9-5.459,4.679-6.788c1.847-1.386,3.924-1.931,6.156-1.614c1.922,0.266,3.463,0.5,4.644,0.71
				c1.194,0.212,2.291,0.481,3.361,0.825c1.061,0.326,2.198,0.857,3.359,1.572c1.141,0.719,2.246,1.611,3.293,2.662
				c1.098,1.129,2.007,2.118,2.791,3.037c0.984,1.104,1.635,2.271,1.974,3.551c0.287,1.078,0.658,2.908,1.137,5.596
				c0.538,2.812,0.242,6.055-0.89,9.622c-1.149,3.632-2.918,6.323-5.252,7.992c-1.243,0.915-2.721,1.614-4.388,2.074
				C65.208,111.634,64.008,111.909,62.389,111.909z M54.797,75.937c-1.212,0-2.318,0.387-3.383,1.182
				c-1.38,1.031-2.671,2.958-3.843,5.723c-1.198,2.823-1.843,5.098-1.917,6.758c-0.071,1.734,0.008,3.121,0.242,4.234
				c0.203,1.135,0.611,2.332,1.253,3.701l0.267,0.572c0.571,1.227,1.109,2.379,1.632,3.447c0.529,1.082,1.311,2.051,2.321,2.88
				c0.984,0.821,1.863,1.299,2.622,1.423c0.167,0.028,0.331,0.09,0.475,0.182c1.294,0.812,2.63,1.59,3.97,2.309
				c1.182,0.622,2.425,0.941,3.789,0.965h0.164c1.56,0,2.101-0.305,2.262-0.437c0.144-0.12,0.313-0.208,0.495-0.255
				c1.447-0.374,2.711-0.957,3.76-1.729c1.881-1.347,3.327-3.59,4.302-6.676c1-3.151,1.272-5.965,0.812-8.365
				c-0.471-2.634-0.826-4.396-1.094-5.404c-0.229-0.875-0.692-1.695-1.417-2.507c-0.766-0.897-1.641-1.847-2.688-2.925
				c-0.897-0.899-1.849-1.67-2.814-2.277c-0.963-0.593-1.895-1.032-2.764-1.299c-0.972-0.313-1.961-0.556-3.037-0.746
				c-1.156-0.205-2.665-0.433-4.547-0.693C55.363,75.956,55.076,75.937,54.797,75.937z"/>
		</g>
		<g>
			<path fill="#431C05" d="M68.283,83.979c0.207-0.742,0.317-1.184,0.316-1.316l0.126-0.081c-0.187-0.405-0.807-0.964-1.866-1.669
				c-1.056-0.689-2.011-1.197-2.868-1.527c-0.041,0.361-0.237,0.774-0.571,1.246c-0.287,0.382-0.492,0.642-0.601,0.792
				c0.448,0.379,0.826,0.705,1.137,1.013c0.14,0.13,0.275,0.261,0.393,0.379c0.034,0.048,0.079,0.07,0.115,0.119
				C64.991,83.134,66.265,83.481,68.283,83.979"/>
		</g>
		<g>
			<path fill="#431C05" d="M66.781,93.623c0.392,0.319,0.731,0.601,1.003,0.841c0.595-0.013,1.311,0.047,2.186,0.176
				c0.39,0.07,0.759,0.129,1.071,0.199c0.385-0.49,0.78-0.827,1.168-1.01c0.307-0.118,0.486-0.233,0.504-0.354
				c0.149-0.687-0.091-1.618-0.732-2.788c-0.57-0.998-1.007-1.576-1.336-1.703c-1.064-0.417-1.982-0.627-2.731-0.602
				c-0.745,0.023-1.445-0.1-2.046-0.353c-0.056,0.249-0.266,1.11-0.672,2.575c-0.115,0.482-0.22,0.883-0.295,1.196
				C65.385,92.345,66.006,92.959,66.781,93.623"/>
		</g>
		<g>
			<path fill="#7A4428" d="M68.937,104.823c-0.337-0.144-1.062-0.473-2.177-0.99c-0.769-0.355-1.621-0.471-2.566-0.344
				c-0.127-0.211-0.248-0.404-0.358-0.583c0-0.058-0.03-0.087-0.055-0.101l-0.005-0.016c-0.058,0-0.14-0.015-0.233-0.003
				c-0.309,0.001-0.808,0.083-1.5,0.206c0.024,0.322-0.03,1.366-0.188,3.121c-0.113,1.525-0.094,2.43,0.059,2.73
				c0.97,0.251,1.681,0.354,2.122,0.348c0.743-0.041,1.281-0.057,1.599-0.025c1.017,0.023,1.853,0.032,2.502,0.016
				c1.211-0.035,1.863-0.244,1.945-0.641c0.069-0.272,0.007-0.656-0.195-1.156c-0.257-0.572-0.399-1.131-0.424-1.644
				C69.414,105.232,69.243,104.938,68.937,104.823"/>
		</g>
		<g>
			<path fill="#431C05" d="M59.191,91.202l-0.327-0.496c-0.509-0.361-1.154-0.756-1.977-1.209c-0.585-0.316-0.969-0.602-1.18-0.844
				c-0.201,0.16-0.508,0.354-0.931,0.607c-0.432,0.232-0.741,0.409-0.956,0.518c0.002,0.133-0.032,0.512-0.074,1.165
				c-0.019,0.372-0.044,0.651-0.07,0.872c0.26,0.384,0.66,0.74,1.191,1.057c0.525,0.257,0.799,0.382,0.818,0.395
				c0.286,0.104,0.758-0.049,1.453-0.484C57.642,92.47,58.325,91.94,59.191,91.202"/>
		</g>
		<g>
			<path fill="#7A4428" d="M51.696,99.031c0.146-0.085,0.243-0.214,0.283-0.401c0.289-1.388-0.037-2.468-0.961-3.238
				c-0.391-0.317-1.311-0.781-2.798-1.372c-0.15-0.048-0.314-0.016-0.477,0.134c-0.639,0.611-0.967,0.928-0.979,0.951
				c-0.803,0.701-1.286,1.242-1.428,1.597c-0.132,0.372-0.259,0.646-0.394,0.822c-0.154,0.185-0.027,0.648,0.389,1.405
				c0.422,0.774,1.091,1.299,1.98,1.538c0.073-0.022,0.141-0.046,0.224-0.09c1.409-0.624,2.597-1.022,3.532-1.187
				C51.378,99.13,51.598,99.081,51.696,99.031"/>
		</g>
		<g>
			<path fill="#7A4428" d="M55.984,107.5c0.026-0.104,0.044-0.286,0.022-0.547c0.009-0.257,0.043-0.404,0.044-0.46
				c-0.303-0.157-0.968-0.486-1.979-0.979c-0.941-0.475-1.604-0.902-1.988-1.265l-0.675-0.364c-0.047,0.229-0.18,0.541-0.411,0.904
				c-0.232,0.424-0.371,0.661-0.379,0.701c-0.129,0.449,0,0.912,0.362,1.377c0.409,0.549,1.048,1.041,1.947,1.49
				c0.07,0.035,0.595-0.072,1.538-0.338C55.45,107.767,55.96,107.604,55.984,107.5"/>
		</g>
		<g>
			<path fill="#431C05" d="M49.269,79.61c-0.145,0.455-0.201,1.055-0.208,1.771c-0.025,1.325,0.196,2.318,0.695,2.974
				c0.259,0.325,0.697,0.668,1.309,1.073c2.11-1.407,3.341-2.225,3.711-2.459c0.528-0.342,0.789-0.621,0.777-0.848
				c0.013-0.858-0.341-1.848-1.062-2.955c-0.371-0.559-0.756-1.038-1.152-1.434c-2.285,0.67-3.535,1.068-3.771,1.24
				C49.457,79.048,49.35,79.258,49.269,79.61"/>
		</g>
		<g>
			<path fill="#0E0000" d="M64.002,110.67c-0.611,0-1.439-0.134-2.459-0.397c-0.41-0.105-0.757-0.383-0.947-0.76
				c-0.262-0.516-0.379-1.255-0.214-3.508c0.215-2.392,0.189-2.879,0.189-2.898c-0.049-0.75,0.473-1.434,1.212-1.566
				c0.817-0.145,1.334-0.225,1.746-0.229c0.164-0.003,0.236,0,0.298,0.004c0.237,0.018,0.472,0.092,0.682,0.211l0.002-0.004
				c0.195,0.111,0.362,0.264,0.493,0.442c0.839,0.011,1.637,0.188,2.372,0.528c1.097,0.507,1.809,0.83,2.14,0.973
				c0.433,0.162,1.282,0.689,1.416,2.138c0.021,0.403,0.12,0.777,0.3,1.178c0.345,0.856,0.428,1.53,0.282,2.118
				c-0.361,1.667-2.523,1.733-3.335,1.757c-0.693,0.017-1.537,0.012-2.582-0.015c-0.189-0.014-0.286-0.016-0.404-0.016
				c-0.281,0-0.634,0.016-1.07,0.041C64.095,110.668,64.032,110.67,64.002,110.67z M63.256,107.632
				c0.415,0.074,0.646,0.086,0.746,0.086v1.477l0.017-1.477c0.75-0.045,1.387-0.055,1.761-0.019c0.81,0.013,1.69,0.021,2.319,0.007
				c0.118-0.002,0.22-0.008,0.313-0.014c-0.218-0.543-0.36-1.112-0.409-1.669c-0.427-0.192-1.042-0.474-1.862-0.851
				c-0.519-0.238-1.098-0.309-1.748-0.221c-0.334,0.049-0.668-0.025-0.948-0.191c-0.029,0.429-0.07,0.926-0.121,1.484
				C63.276,106.873,63.261,107.317,63.256,107.632z M52.974,109.841c-0.24,0-0.525-0.068-0.74-0.18
				c-1.076-0.537-1.883-1.171-2.438-1.914c-0.816-1.048-0.778-2.029-0.597-2.662c0.017-0.123,0.102-0.277,0.308-0.651l0.193-0.351
				c0.222-0.354,0.26-0.489,0.26-0.491c0.114-0.437,0.435-0.837,0.848-1.017c0.415-0.182,0.898-0.203,1.296,0.012l0.681,0.365
				c0.111,0.059,0.219,0.137,0.313,0.225c0.134,0.126,0.562,0.48,1.633,1.019c1.014,0.493,1.688,0.825,1.995,0.985
				c0.502,0.258,0.814,0.783,0.801,1.348c-0.002,0.056-0.016,0.203-0.024,0.258c-0.003,0.037-0.014,0.088-0.019,0.156
				c0.02,0.335-0.003,0.639-0.065,0.904c-0.224,0.992-1.112,1.221-2.581,1.604C53.553,109.81,53.2,109.841,52.974,109.841z
				 M52.509,106.349c0.19,0.163,0.419,0.323,0.688,0.48c0.042-0.01,0.089-0.02,0.14-0.035
				C53.039,106.644,52.763,106.493,52.509,106.349z M47.313,101.941c-0.127,0-0.258-0.019-0.379-0.051
				c-1.276-0.341-2.276-1.12-2.896-2.255c-0.354-0.649-1.098-2.002-0.232-3.051c-0.024,0.027,0.026-0.05,0.145-0.383
				c0.248-0.631,0.798-1.287,1.793-2.163c0.17-0.179,0.46-0.454,0.979-0.952c0.416-0.378,0.878-0.562,1.371-0.562
				c0.151,0,0.434,0.043,0.582,0.09c2.238,0.889,2.938,1.358,3.28,1.637c0.955,0.801,1.976,2.252,1.468,4.683
				c-0.123,0.578-0.467,1.067-0.979,1.368c-0.347,0.179-0.642,0.252-1.093,0.339c-0.835,0.144-1.935,0.519-3.217,1.086
				c-0.078,0.051-0.256,0.109-0.401,0.153C47.597,101.92,47.453,101.941,47.313,101.941z M46.449,97.873
				c0.04,0.087,0.1,0.202,0.177,0.347c0.163,0.297,0.377,0.514,0.659,0.662c1.284-0.553,2.391-0.918,3.318-1.104
				c0.024-0.682-0.245-1.016-0.529-1.252c-0.03-0.025-0.38-0.294-1.762-0.875c-0.217,0.208-0.363,0.351-0.431,0.42
				c-0.046,0.052-0.094,0.1-0.146,0.145c-0.865,0.756-1.036,1.055-1.044,1.066C46.616,97.499,46.537,97.694,46.449,97.873z"/>
		</g>
		<g>
			<path fill="#984813" d="M57.684,97.646c-0.137,0.062-0.212,0.185-0.26,0.353c-0.03,0.188-0.002,0.349,0.085,0.495
				c0.063,0.137,0.152,0.244,0.308,0.291c0.153,0.067,0.289,0.062,0.421,0c0.118-0.058,0.198-0.179,0.234-0.362
				c0.043-0.173,0.01-0.333-0.059-0.487c-0.065-0.151-0.177-0.252-0.333-0.32C57.931,97.565,57.796,97.571,57.684,97.646"/>
		</g>
		<g>
			<path fill="#984813" d="M57.235,101.642c-0.137,0.062-0.218,0.184-0.258,0.352c-0.034,0.188-0.003,0.35,0.083,0.499
				c0.061,0.134,0.153,0.241,0.302,0.287c0.161,0.068,0.293,0.063,0.427,0c0.119-0.057,0.199-0.179,0.235-0.362
				c0.04-0.169,0.012-0.334-0.06-0.486c-0.065-0.152-0.18-0.253-0.331-0.318C57.479,101.562,57.347,101.566,57.235,101.642"/>
		</g>
		<g>
			<path fill="#984813" d="M54.306,96.282c-0.133,0.061-0.212,0.186-0.253,0.353c-0.043,0.186-0.008,0.351,0.081,0.498
				c0.06,0.134,0.153,0.24,0.303,0.29c0.158,0.066,0.291,0.061,0.425,0c0.117-0.059,0.197-0.181,0.233-0.364
				c0.043-0.171,0.009-0.335-0.059-0.487c-0.065-0.15-0.177-0.252-0.332-0.318C54.553,96.202,54.416,96.209,54.306,96.282"/>
		</g>
		<g>
			<path fill="#984813" d="M70.065,97.378c-0.135,0.061-0.211,0.185-0.254,0.35c-0.037,0.188-0.005,0.352,0.081,0.499
				c0.061,0.137,0.153,0.243,0.305,0.288c0.156,0.066,0.289,0.062,0.426,0c0.119-0.057,0.195-0.177,0.233-0.363
				c0.04-0.168,0.011-0.332-0.059-0.484c-0.067-0.151-0.177-0.252-0.336-0.319C70.312,97.298,70.176,97.304,70.065,97.378"/>
		</g>
		<g>
			<path fill="#984813" d="M56.574,82.143c-0.133,0.062-0.209,0.184-0.253,0.351c-0.041,0.187-0.005,0.352,0.082,0.498
				c0.058,0.135,0.151,0.241,0.305,0.29c0.155,0.067,0.291,0.062,0.425,0c0.114-0.058,0.191-0.179,0.233-0.366
				c0.043-0.168,0.008-0.33-0.06-0.483c-0.069-0.153-0.176-0.255-0.332-0.32C56.821,82.063,56.688,82.068,56.574,82.143"/>
		</g>
		<g>
			<path fill="#984813" d="M59.273,81.552c-0.137,0.064-0.213,0.185-0.258,0.354c-0.033,0.186-0.003,0.352,0.085,0.499
				c0.06,0.132,0.15,0.239,0.301,0.288c0.159,0.065,0.292,0.062,0.427,0c0.119-0.057,0.197-0.178,0.234-0.365
				c0.04-0.168,0.009-0.332-0.06-0.484c-0.066-0.153-0.176-0.254-0.332-0.319C59.517,81.474,59.386,81.48,59.273,81.552"/>
		</g>
		<g>
			<path fill="#431C05" d="M69.221,42.358c-0.907-0.057-1.368-0.072-1.382-0.072c-0.484,0-1.185,0.479-2.09,1.46
				c-0.666,0.699-1.552,1.79-2.642,3.267l0.649,0.535c0.901,0.203,2.047,0.388,3.451,0.556c0.979,0.11,1.679,0.275,2.105,0.499
				c0.219-0.314,0.625-0.76,1.199-1.332c0.569-0.572,1.017-0.979,1.312-1.217c-0.038-0.186-0.131-0.74-0.258-1.645
				c-0.094-0.5-0.149-0.923-0.188-1.236C70.847,42.765,70.125,42.489,69.221,42.358"/>
		</g>
		<g>
			<path fill="#6B3D1B" d="M69.312,49.901c-0.203,0-0.409-0.049-0.604-0.149c-0.125-0.065-0.538-0.233-1.646-0.358
				c-1.47-0.174-2.642-0.364-3.594-0.579l-0.416-0.115c-0.182-0.054-0.318-0.093-0.399-0.11c-0.447-0.093-0.839-0.419-0.991-0.853
				c-0.149-0.435-0.086-0.917,0.21-1.268c0.093-0.118,0.164-0.209,0.232-0.288c1.077-1.456,1.986-2.576,2.702-3.33
				c1.185-1.284,2.123-1.863,3.032-1.863c0.016,0,0.503,0.016,1.461,0.075c1.225,0.173,2.151,0.53,2.869,1.079
				c0.276,0.211,0.456,0.525,0.501,0.872c0.034,0.294,0.086,0.69,0.172,1.158c0.133,0.921,0.222,1.45,0.259,1.63
				c0.092,0.477-0.085,0.965-0.467,1.268c-0.158,0.127-0.527,0.441-1.197,1.117c-0.673,0.667-0.949,1-1.062,1.163
				C70.125,49.706,69.726,49.901,69.312,49.901z M65.128,46.495c0.638,0.11,1.389,0.218,2.232,0.318
				c0.599,0.066,1.105,0.154,1.534,0.264c0.198-0.215,0.431-0.455,0.705-0.727c0.299-0.301,0.575-0.569,0.824-0.799
				c-0.041-0.259-0.091-0.579-0.145-0.959c-0.041-0.221-0.076-0.436-0.106-0.636c-0.312-0.144-0.69-0.249-1.137-0.313
				c-0.68-0.037-1.111-0.055-1.214-0.059c0.052,0.012-0.319,0.174-1.119,1.041C66.268,45.083,65.735,45.718,65.128,46.495z"/>
		</g>
		<g>
			<path fill="#B66D13" d="M112.487,17.207c-2.566,0.187-4.357,0.685-5.393,1.479c-2.676,0.829-4.967,1.9-6.907,3.25
				c-1.864,1.292-3.509,2.953-4.909,4.966c0.328,1.237,0.758,2.235,1.273,2.991c0.604,0.943,1.31,1.516,2.103,1.736
				c0.962,0.239,2.067,0.019,3.325-0.664c0.665-0.389,1.161-0.684,1.476-0.871c0.575-0.33,1.072-0.551,1.498-0.662
				c0.904-0.259,2.253-0.312,4.044-0.184c0.962,0.074,2.326,0.184,4.099,0.332c1.478,0,2.771-1.607,3.877-4.838
				c0.593-1.866,1.016-3.232,1.295-4.137c0.313-1.018,0.629-1.866,0.904-2.549C117.104,17.317,114.87,17.043,112.487,17.207"/>
		</g>
		<g>
			<path fill="#6B3D1B" d="M99.434,33.022c-0.374,0-0.743-0.045-1.094-0.131c-1.146-0.321-2.104-1.088-2.881-2.293
				c-0.582-0.856-1.074-1.998-1.438-3.363c-0.098-0.37-0.029-0.764,0.188-1.077c1.487-2.134,3.252-3.914,5.238-5.29
				c1.989-1.385,4.299-2.484,7.056-3.359c1.269-0.877,3.197-1.401,5.887-1.598c2.6-0.174,5.002,0.133,7.218,0.923
				c0.333,0.119,0.604,0.369,0.749,0.694c0.146,0.321,0.151,0.691,0.018,1.019c-0.302,0.745-0.595,1.565-0.868,2.444
				c-0.278,0.904-0.703,2.273-1.298,4.145c-0.491,1.441-1.961,5.742-5.113,5.742c-1.875-0.15-3.239-0.262-4.199-0.336
				c-1.593-0.113-2.853-0.07-3.589,0.139c-0.237,0.062-0.612,0.201-1.204,0.542l-1.467,0.864
				C101.481,32.714,100.417,33.022,99.434,33.022z M96.699,27.146c0.258,0.818,0.571,1.496,0.926,2.018
				c0.44,0.682,0.898,1.081,1.38,1.217c0.482,0.119,1.403-0.038,2.354-0.555l1.438-0.848c0.695-0.399,1.288-0.661,1.824-0.801
				c1.019-0.291,2.479-0.366,4.471-0.225c0.971,0.074,2.337,0.186,4.111,0.332c0.197-0.003,1.284-0.289,2.541-3.961
				c0.58-1.834,1.006-3.196,1.279-4.1c0.145-0.456,0.29-0.899,0.441-1.326c-1.532-0.383-3.173-0.516-4.887-0.395
				c-2.837,0.207-4.119,0.773-4.692,1.213c-0.123,0.094-0.259,0.164-0.405,0.209c-2.586,0.805-4.729,1.812-6.551,3.078
				C99.351,24.095,97.931,25.487,96.699,27.146z"/>
		</g>
		<g>
			<path fill="#431C05" d="M112.247,19.979c-1.424-0.204-2.456-0.26-3.123-0.168c-1.089,0.129-1.865,0.203-2.322,0.223
				c-1.479,0.074-2.698,0.165-3.661,0.277c-1.788,0.166-2.75,0.517-2.877,1.031c-0.115,0.353-0.021,0.832,0.275,1.407
				c0.35,0.718,0.537,1.4,0.553,2.064c0.039,0.612,0.278,0.979,0.722,1.093c0.519,0.128,1.568,0.459,3.14,0.995
				c1.123,0.353,2.362,0.387,3.748,0.129c0.187,0.24,0.352,0.479,0.517,0.683c0.02,0.057,0.055,0.095,0.092,0.131h0.314
				c0.479-0.057,1.237-0.186,2.256-0.426c-0.041-0.425,0.071-1.772,0.351-4.006C112.45,21.474,112.45,20.327,112.247,19.979"/>
		</g>
		<g>
			<path fill="#984813" d="M103.271,35.712c0.239,0.057,0.448,0.036,0.645-0.092c0.205-0.111,0.074-0.407,0.128-0.646
				c0.056-0.241,0.318-0.37,0.208-0.574c-0.131-0.184-0.75,0.569-0.992,0.516c-0.237-0.075-0.004-0.939-0.207-0.83
				c-0.205,0.112-0.353,0.299-0.407,0.537c-0.055,0.239-0.039,0.48,0.074,0.684C102.847,35.509,103.031,35.638,103.271,35.712"/>
		</g>
		<g>
			<path fill="#984813" d="M109.396,33.169c0.239,0.056,0.265,0.493,0.47,0.381c0.202-0.128,0.331-0.312,0.406-0.553
				c0.056-0.24-0.265-0.365-0.392-0.551c-0.097-0.202,0.019-0.445-0.22-0.503c-0.236-0.055-0.459-0.037-0.663,0.075
				c-0.204,0.111,0.154,0.368,0.099,0.609c-0.071,0.239-0.544,0.386-0.415,0.592c0.094,0.202,0.278,0.349,0.521,0.403
				L109.396,33.169z"/>
		</g>
		<g>
			<path fill="#984813" d="M49.726,103.786c0.24,0.056,0.271,0.51,0.472,0.38c0.206-0.111,0.351-0.296,0.41-0.536
				c0.05-0.238,0.034-0.479-0.076-0.682c-0.128-0.184-0.295-0.313-0.534-0.367c-0.241-0.076-0.462-0.059-0.667,0.054
				c-0.202,0.109-0.351,0.296-0.406,0.535c-0.054,0.237-0.036,0.479,0.077,0.683c0.127,0.202,0.314,0.333,0.55,0.405L49.726,103.786
				z"/>
		</g>
		<g>
			<path fill="#984813" d="M55.48,102.173c0.241,0.057,0.358-0.199,0.562-0.312c0.202-0.129,0.437-0.075,0.508-0.316
				c0.057-0.24,0.036-0.46-0.093-0.645c-0.091-0.205-0.537,0.053-0.774,0c-0.243-0.056-0.203-0.445-0.405-0.334
				s-0.349,0.295-0.407,0.535c-0.074,0.242-0.036,0.462,0.092,0.666C55.053,101.97,55.239,102.118,55.48,102.173"/>
		</g>
		<g>
			<path fill="#984813" d="M55.349,59.422c0.223,0.129,0.513-0.271,0.649,0.073c0.09,0.229,0.406-0.202,0.516-0.422
				c0.131-0.223,0.148-0.445,0.073-0.666c-0.052-0.203-0.183-0.371-0.403-0.498c-0.224-0.129-0.263,0.286-0.5,0.343
				c-0.222,0.055-0.573-0.233-0.701-0.013c-0.111,0.223-0.129,0.443-0.073,0.664C54.982,59.128,55.131,59.293,55.349,59.422"/>
		</g>
		<g>
			<path fill="#984813" d="M61.592,58.812c0.223,0.111,0.444,0.131,0.648,0.074c0.241-0.074,0.406-0.221,0.534-0.442
				c0.13-0.223,0.146-0.444,0.075-0.666c-0.054-0.221-0.203-0.387-0.424-0.498c-0.224-0.129-0.443-0.148-0.664-0.094
				c-0.226,0.056-0.391,0.205-0.52,0.426c-0.131,0.221,0.639,0.219,0.697,0.458C62.012,58.291,61.371,58.685,61.592,58.812"/>
		</g>
		<g>
			<path fill="#B66D13" d="M41.039,58.222c-0.166-0.055-0.534-0.129-1.105-0.203c-0.575-0.055-1.037-0.147-1.387-0.312
				c-0.462-0.205-0.942-0.574-1.478-1.146c-0.59-0.719-1.031-1.256-1.348-1.625c-1.184-1.367-2.398-2.049-3.659-2.049
				c-1.125,0-2.307,0.221-3.543,0.682c-0.277,4.543,0.296,8.311,1.734,11.285c0.886,1.864,1.643,3.415,2.293,4.652
				c0.606-0.129,1.31-0.238,2.086-0.369c2.4-0.369,4.097-0.941,5.114-1.736c1.553-1.199,2.327-3.23,2.327-6.057
				C42.074,59.551,41.723,58.498,41.039,58.222"/>
		</g>
		<g>
			<path fill="#6B3D1B" d="M32.544,70.804c-0.476,0-0.921-0.263-1.15-0.697c-0.653-1.25-1.416-2.814-2.312-4.699
				c-1.521-3.141-2.147-7.152-1.857-11.918c0.028-0.512,0.359-0.957,0.839-1.137c1.359-0.508,2.705-0.766,4-0.766
				c1.647,0,3.211,0.841,4.643,2.498c0.324,0.379,0.769,0.921,1.37,1.652c0.344,0.363,0.698,0.646,0.994,0.779
				c0.159,0.073,0.427,0.156,0.985,0.209c0.654,0.084,1.106,0.17,1.382,0.26c1.937,0.782,1.937,3.474,1.937,4.357
				c0,3.248-0.95,5.631-2.829,7.084c-1.197,0.932-3.067,1.584-5.715,1.992l-0.392,0.064c-0.594,0.1-1.14,0.189-1.625,0.291
				C32.723,70.794,32.634,70.804,32.544,70.804z M29.771,54.522c-0.138,3.924,0.414,7.205,1.654,9.763
				c0.688,1.448,1.293,2.7,1.83,3.764c0.245-0.042,0.498-0.085,0.758-0.128l0.405-0.068c2.184-0.335,3.699-0.83,4.53-1.477
				c1.213-0.939,1.825-2.631,1.825-5.033c0-1.283-0.197-1.775-0.277-1.921c-0.161-0.035-0.407-0.073-0.73-0.114
				c-0.729-0.068-1.306-0.207-1.774-0.429c-0.598-0.261-1.219-0.733-1.873-1.431c-0.637-0.775-1.075-1.305-1.385-1.668
				c-0.913-1.058-1.812-1.595-2.672-1.595C31.328,54.186,30.558,54.297,29.771,54.522z"/>
		</g>
		<g>
			<path fill="#431C05" d="M40.022,59.976c0.352-0.534,0.648-0.997,0.888-1.348c-0.5-0.793-1.183-1.717-2.05-2.752
				c-0.461-0.463-0.849-0.886-1.162-1.236c-0.871-0.148-1.886-0.426-3.086-0.812c-0.554-0.186-1.054-0.351-1.477-0.517
				c-0.719,0.499-1.402,0.812-2.051,0.903c-0.519,0.076-0.812,0.168-0.869,0.277c-0.478,0.812-0.46,2.014,0.057,3.582
				c0.463,1.387,0.907,2.197,1.312,2.44c1.384,0.792,2.623,1.292,3.713,1.476c1.091,0.166,2.031,0.481,2.841,0.941
				C38.309,62.634,38.938,61.657,40.022,59.976"/>
		</g>
		<g>
			<path fill="#B66D13" d="M22.591,87.306c-0.035-1.348-0.276-2.381-0.701-3.102c-0.445-0.721-1.072-1.09-1.903-1.09
				c-1.327,0-2.161,0.498-2.489,1.515c-0.15,0.405-0.225,1.329-0.225,2.753c0,0.572-0.223,1.125-0.665,1.662
				c-0.461,0.535-1.256,1.385-2.419,2.51c-1.182,1.127-1.532,1.921-1.07,2.346c0.462,0.424,1.978,0.943,4.562,1.532
				c2.569,0.59,4.044-0.276,4.413-2.622C22.443,90.464,22.611,88.637,22.591,87.306"/>
		</g>
		<g>
			<path fill="#6B3D1B" d="M19.102,96.909c-0.524,0-1.1-0.069-1.712-0.211c-3.688-0.842-4.673-1.404-5.15-1.842
				c-0.395-0.363-0.61-0.856-0.616-1.391c-0.005-0.863,0.509-1.744,1.671-2.853c1.281-1.241,2.01-2.048,2.329-2.419
				c0.229-0.278,0.352-0.551,0.352-0.812c0-2.102,0.16-2.812,0.301-3.198c0.278-0.857,1.148-2.366,3.711-2.366
				c1.281,0,2.318,0.588,3.009,1.705c0.557,0.943,0.854,2.198,0.893,3.75c0.021,1.414-0.144,3.282-0.51,5.727
				C22.979,95.524,21.464,96.909,19.102,96.909z M14.456,93.169c0.504,0.203,1.521,0.542,3.513,0.996
				c0.425,0.098,0.804,0.147,1.133,0.147c0.891,0,1.485-0.286,1.707-1.706c0.34-2.262,0.502-4.041,0.483-5.281
				c-0.037-1.361-0.306-2.092-0.521-2.461c-0.229-0.372-0.472-0.45-0.784-0.45c-1.057,0-1.179,0.384-1.254,0.614
				c-0.03,0.086-0.159,0.523-0.159,2.354c0,0.878-0.326,1.717-0.967,2.49c-0.363,0.424-1.151,1.296-2.515,2.615
				C14.79,92.777,14.588,93.001,14.456,93.169z"/>
		</g>
		<g>
			<path fill="#984813" d="M24.703,79.124c0.24,0,0.124,0.704,0.287,0.539c0.17-0.168,0.264-0.389,0.264-0.63
				c0-0.258-0.094-0.462-0.264-0.628c-0.163-0.166-0.77,0.358-1.011,0.358c-0.239,0-0.06-0.524-0.227-0.358
				c-0.165,0.166-0.258,0.37-0.258,0.628c0,0.241,0.093,0.462,0.258,0.63c0.167,0.165,0.389,0.238,0.629,0.238L24.703,79.124z"/>
		</g>
		<g>
			<path fill="#984813" d="M14.927,101.286c0.24,0,0.443-0.072,0.609-0.24c0.165-0.168-0.339-0.268-0.339-0.51
				c0-0.257,0.504-0.578,0.339-0.747c-0.166-0.165-0.369-0.239-0.609-0.239c-0.239,0-0.462,0.074-0.627,0.239
				c-0.164,0.169-0.258,0.37-0.258,0.63c0,0.239,0.094,0.459,0.258,0.627C14.465,101.214,14.688,101.286,14.927,101.286"/>
		</g>
		<g>
			<path fill="#B66D13" d="M138.651,68.084c-0.238,0.257-0.463,0.571-0.664,0.94c-0.661,1.163-0.996,2.438-0.996,3.803
				c0,1.83,0.335,3.068,0.979,3.732c0.367,0.367,0.592,0.629,0.665,0.775c0.203,0.387,0.312,0.941,0.312,1.664
				c0,0.607-0.108,1.365-0.312,2.232c-0.204,0.849-0.314,1.496-0.314,1.957c0,0.85,0.572,1.719,1.737,2.621
				c1.161,0.889,2.251,1.332,3.284,1.332c1.535,0,4.024-0.963,7.48-2.864c0.463-0.258,1.236-0.386,2.326-0.407
				c0.61,0,1.644,0.021,3.086,0.057h0.202c-0.313-1.088-0.683-2.049-1.107-2.881c-0.795-1.569-1.923-3.141-3.418-4.745
				c-1.478-1.608-2.899-3.083-4.246-4.45c-1.35-1.387-3.085-2.401-5.171-3.084C141.109,68.323,139.838,68.103,138.651,68.084"/>
		</g>
		<g>
			<path fill="#6B3D1B" d="M143.343,88.439c-1.332,0-2.662-0.521-4.073-1.596c-1.496-1.159-2.246-2.387-2.246-3.655
				c0-0.551,0.113-1.27,0.351-2.261c0.183-0.782,0.273-1.433,0.273-1.929c0-0.695-0.124-0.988-0.162-1.059
				c-0.055-0.076-0.208-0.24-0.435-0.463c-0.919-0.947-1.359-2.464-1.359-4.65c0-1.588,0.396-3.083,1.167-4.445
				c0.239-0.438,0.528-0.842,0.842-1.18c0.251-0.271,0.643-0.433,0.973-0.418c1.318,0.021,2.737,0.273,4.217,0.746
				c2.318,0.758,4.236,1.904,5.708,3.413c1.627,1.655,2.989,3.079,4.271,4.479c1.573,1.688,2.76,3.339,3.62,5.037
				c0.456,0.898,0.862,1.945,1.197,3.107c0.113,0.392,0.033,0.814-0.212,1.141s-0.63,0.518-1.037,0.518h-0.202
				c-1.459-0.036-2.479-0.055-3.086-0.055c-1.201,0.02-1.602,0.189-1.694,0.242C147.699,87.479,145.124,88.439,143.343,88.439z
				 M139.267,69.414c-0.051,0.073-0.094,0.153-0.139,0.234c-0.562,0.982-0.838,2.046-0.838,3.179c0,1.982,0.429,2.639,0.611,2.827
				c0.602,0.599,0.788,0.886,0.892,1.088c0.301,0.571,0.456,1.335,0.456,2.257c0,0.693-0.119,1.545-0.346,2.527
				c-0.188,0.775-0.281,1.332-0.281,1.662c0,0.406,0.448,0.988,1.231,1.595c0.92,0.7,1.76,1.06,2.489,1.06
				c0.888,0,2.797-0.469,6.854-2.702c0.648-0.363,1.581-0.545,2.932-0.567c0.419,0.001,0.854,0.006,1.478,0.019
				c-0.137-0.339-0.282-0.657-0.433-0.954c-0.752-1.483-1.8-2.938-3.211-4.451c-1.271-1.385-2.609-2.788-4.224-4.426
				c-1.176-1.209-2.739-2.136-4.649-2.759C141.103,69.685,140.154,69.487,139.267,69.414z"/>
		</g>
		<g>
			<path fill="#431C05" d="M148.996,74.251c-0.095,0.092-0.187,0.166-0.28,0.241c-1.789,1.495-3.305,2.567-4.577,3.21
				c-0.422,0.243-0.686,0.408-0.813,0.52c-0.165,0.166-0.259,0.388-0.259,0.646c0,1.846,0.759,3.008,2.293,3.49
				c0.627,0.202,2.047,0.295,4.282,0.295c0.222,0,0.427-0.129,0.61-0.405c0.701-1.053,1.07-1.607,1.089-1.646
				c0.906-1.236,1.401-2.122,1.496-2.657c0.055-0.537,0.167-0.944,0.312-1.22c0.165-0.277-0.166-0.794-0.96-1.533
				C151.377,74.455,150.304,74.14,148.996,74.251"/>
		</g>
		<g>
			<path fill="#B66D13" d="M71.324,103.539c-0.295,0.498-0.684,0.886-1.18,1.181c-0.574,0.297-0.981,0.519-1.241,0.666
				c-0.867,0.497-1.307,1.439-1.307,2.79c0,0.901,0.312,1.884,0.922,2.898c1.035,1.7,1.825,3.231,2.362,4.579
				c0.13,0.312,0.351,0.867,0.629,1.641c2.787-0.736,5.148-2.271,7.09-4.613c2.051-2.459,3.546-6.094,4.506-10.896
				c0.295-1.497,0.518-2.883,0.686-4.155c-0.704-0.184-1.532-0.406-2.479-0.684c-2.454-0.72-3.911-1.088-4.373-1.088
				c-1.366,0-2.423,0.812-3.178,2.437c-0.237,0.498-0.57,1.311-1.033,2.473C72.268,101.857,71.802,102.78,71.324,103.539"/>
		</g>
		<g>
			<path fill="#6B3D1B" d="M71.51,118.595c-0.536,0-1.028-0.333-1.221-0.859c-0.271-0.748-0.482-1.281-0.608-1.581
				c-0.512-1.288-1.273-2.762-2.271-4.407c-0.736-1.228-1.113-2.428-1.113-3.571c0-2.308,1.068-3.403,1.962-3.916
				c0.278-0.157,0.695-0.388,1.288-0.693c0.245-0.147,0.477-0.378,0.66-0.692c0.449-0.707,0.89-1.578,1.327-2.612
				c0.465-1.174,0.809-2.015,1.059-2.528c1.216-2.622,3.034-3.174,4.347-3.174c0.41,0,1.147,0.087,4.74,1.14
				c0.932,0.274,1.747,0.491,2.442,0.675c0.63,0.165,1.041,0.775,0.956,1.425c-0.178,1.367-0.412,2.794-0.698,4.237
				c-1.002,5.013-2.608,8.873-4.782,11.475c-2.098,2.538-4.708,4.232-7.752,5.04C71.732,118.578,71.62,118.595,71.51,118.595z
				 M76.926,97.157c-0.321,0-1.201,0-1.987,1.685c-0.237,0.497-0.557,1.284-1,2.406c-0.515,1.206-1.006,2.174-1.517,2.982
				c-0.386,0.653-0.935,1.204-1.615,1.606c-0.617,0.323-1.011,0.537-1.263,0.68c-0.153,0.089-0.649,0.371-0.649,1.659
				c0,0.664,0.248,1.415,0.738,2.228c1.071,1.764,1.897,3.369,2.454,4.771c0.054,0.126,0.122,0.298,0.208,0.514
				c2.053-0.753,3.799-2.014,5.305-3.835c1.894-2.271,3.318-5.74,4.229-10.322c0.199-0.994,0.369-1.98,0.516-2.943
				c-0.433-0.117-0.9-0.248-1.396-0.395C77.839,97.282,77.1,97.165,76.926,97.157z"/>
		</g>
		<g>
			<path fill="#431C05" d="M78.617,105.091c-0.441-0.277-1.163-0.5-2.139-0.664c-2.496,2.749-3.971,4.376-4.396,4.835
				c-0.631,0.684-0.905,1.144-0.851,1.423c0.242,1.09,1.036,2.125,2.383,3.121c0.683,0.5,1.348,0.885,1.992,1.182
				c2.977-1.94,4.583-3.047,4.857-3.359c0.132-0.166,0.223-0.481,0.261-0.943c0.055-0.646-0.038-1.402-0.244-2.308
				C80.117,106.732,79.488,105.644,78.617,105.091"/>
		</g>
		<g>
			<path fill="#B66D13" d="M98.213,78.589c-0.076,0.444-0.131,0.906-0.148,1.404c1.017,0.5,2.053,0.979,3.139,1.477
				c1.828,0.832,3.656,1.405,5.485,1.719s3.563,0.424,5.17,0.295c1.608-0.127,3.321-0.35,5.19-0.701
				c0.887-0.166,1.903-0.369,3.026-0.609c0.428-1.127,0.631-1.883,0.631-2.289c0-1.145-0.186-1.846-0.572-2.087
				c-0.761-0.277-1.535-0.665-2.293-1.2c-0.792-0.555-1.659-1.33-2.568-2.344c-0.57-0.631-1.143-0.943-1.733-0.943
				c-0.426,0-1.144,0.628-2.161,1.865c-1.017,1.235-1.92,1.846-2.677,1.846c-0.314,0-1.073,0.037-2.271,0.111
				c-1.184,0.073-2.069,0.111-2.679,0.111c-0.167,0-0.646-0.075-1.42-0.223c-0.758-0.129-1.24-0.203-1.426-0.203
				C99.966,76.817,99.081,77.409,98.213,78.589"/>
		</g>
		<g>
			<path fill="#6B3D1B" d="M110.511,84.836c-1.269,0-2.62-0.123-4.042-0.367c-1.925-0.329-3.877-0.939-5.803-1.814
				c-1.104-0.506-2.148-0.991-3.174-1.493c-0.643-0.316-0.91-1.096-0.595-1.739c0.044-0.089,0.096-0.169,0.157-0.245
				c-0.215-0.422-0.19-0.949,0.11-1.356c1.124-1.528,2.382-2.302,3.741-2.302c0.263,0,0.647,0.051,1.641,0.221
				c0.651,0.124,1.055,0.193,1.229,0.205c0.568,0,1.427-0.037,2.574-0.109c1.237-0.076,2.025-0.114,2.351-0.114
				c0.188,0,0.783-0.286,1.675-1.37c1.381-1.684,2.271-2.34,3.163-2.34c0.963,0,1.871,0.459,2.696,1.367
				c0.812,0.906,1.598,1.627,2.351,2.154c0.61,0.434,1.28,0.784,1.994,1.046c0.081,0.031,0.16,0.067,0.236,0.114
				c1.064,0.66,1.189,2.137,1.189,3.191c0,0.373-0.076,1.064-0.714,2.75c-0.156,0.412-0.513,0.715-0.943,0.81
				c-1.137,0.243-2.165,0.448-3.063,0.616c-1.818,0.343-3.56,0.578-5.321,0.719C111.494,84.817,111.009,84.836,110.511,84.836z
				 M99.387,79.19c0.768,0.367,1.547,0.729,2.358,1.101c1.721,0.78,3.458,1.325,5.161,1.616c1.766,0.306,3.399,0.4,4.849,0.283
				c1.669-0.135,3.321-0.357,5.053-0.686c0.688-0.127,1.457-0.279,2.294-0.453c0.298-0.879,0.304-1.155,0.304-1.168
				c0-0.549-0.047-0.852-0.085-1.008c-0.793-0.324-1.542-0.731-2.228-1.219c-0.913-0.637-1.853-1.493-2.786-2.54
				c-0.14-0.151-0.391-0.399-0.624-0.481c-0.175,0.131-0.572,0.478-1.301,1.364c-1.279,1.562-2.484,2.318-3.681,2.318
				c-0.303,0-1.034,0.038-2.188,0.11c-1.221,0.075-2.131,0.113-2.761,0.113c-0.199,0-0.536-0.029-1.669-0.246
				c-0.592-0.102-1.005-0.172-1.192-0.18C100.358,78.116,99.797,78.667,99.387,79.19z"/>
		</g>
		<g>
			<path fill="#431C05" d="M109.089,84.186c-0.055-0.462,0.092-1.071,0.44-1.81c0.282-0.609,0.485-1.035,0.574-1.273
				c-0.72-0.26-1.347-0.481-1.882-0.683c-0.242-0.093-0.442-0.186-0.646-0.26c-0.057-0.019-0.131-0.057-0.201-0.074
				c-0.797,0.018-2.644,0.204-5.579,0.572c-0.056,1.015-0.092,1.607-0.073,1.773l-0.112,0.167c0.388,0.387,1.422,0.758,3.063,1.106
				C106.319,84.058,107.797,84.223,109.089,84.186"/>
		</g>
		<g>
			<path fill="#4F2006" d="M146.918,38.476c-0.446,0-0.859-0.268-1.017-0.718l-0.02-0.054c-0.204-0.577,0.1-1.21,0.679-1.412
				c0.577-0.206,1.208,0.1,1.409,0.678c0.205,0.576-0.089,1.236-0.665,1.439C147.178,38.454,147.045,38.476,146.918,38.476z"/>
		</g>
		<g>
			<path fill="#B66D13" d="M154.072,44.04c-0.518-1.348-1.127-2.438-1.809-3.25c-0.684-0.794-1.606-1.588-2.806-2.346
				c-1.203-0.757-2.328-1.458-3.382-2.106c-1.088-0.646-2.396-1.052-3.949-1.234c-1.533-0.169-2.86-0.095-3.988,0.22
				c-1.719-0.02-3.42,0.019-5.103,0.109c-1.677,0.076-3.337,0.464-5.001,1.146c-1.681,0.701-2.753,1.384-3.216,2.049
				c-1.585,1.054-2.86,2.162-3.801,3.324c-1.715,2.068-2.549,4.598-2.514,7.572c0.019,2.992,0.741,5.336,2.129,7.055
				c1.402,1.717,2.416,2.898,3.063,3.563c0.645,0.647,1.585,1.145,2.824,1.46c1.235,0.35,2.549,0.664,3.934,0.939
				c1.363,0.295,2.714,0.443,4.044,0.463c1.349-0.02,2.584-0.129,3.732-0.332c1.124-0.224,2.323-0.517,3.636-0.888
				c1.309-0.387,3.011-0.904,5.114-1.569c2.085-0.665,3.769-1.791,5.039-3.38c1.275-1.571,2.072-3.767,2.385-6.556
				C154.702,47.492,154.591,45.407,154.072,44.04"/>
		</g>
		<g>
			<path fill="#6B3D1B" d="M134.499,64.267c-0.006,0-0.013,0-0.017,0c-1.467-0.02-2.881-0.181-4.319-0.49
				c-1.293-0.258-2.61-0.566-4-0.939c-1.437-0.391-2.573-1-3.387-1.813c-0.706-0.725-1.79-1.971-3.148-3.619
				c-1.602-1.958-2.421-4.612-2.438-7.891c-0.023-3.292,0.93-6.123,2.832-8.41c0.979-1.214,2.29-2.38,3.889-3.458
				c0.649-0.775,1.807-1.504,3.61-2.277c1.803-0.77,3.644-1.189,5.473-1.25c1.518-0.084,3.155-0.129,4.973-0.131
				c1.246-0.314,2.676-0.389,4.298-0.213c1.781,0.235,3.23,0.701,4.458,1.428c1.088,0.659,2.222,1.365,3.415,2.129
				c1.25,0.791,2.292,1.664,3.094,2.593c0.784,0.932,1.452,2.122,2.049,3.642c0.584,1.578,0.72,3.803,0.414,6.826
				c-0.359,3.038-1.252,5.463-2.656,7.234c-1.428,1.783-3.338,3.063-5.679,3.809c-2.104,0.672-3.816,1.191-5.139,1.566
				c-1.267,0.373-2.534,0.687-3.761,0.928C137.192,64.153,135.868,64.267,134.499,64.267z M140.607,36.277
				c-0.789,0-1.502,0.088-2.122,0.262c-0.113,0.03-0.229,0.046-0.347,0.046c-1.84,0-3.482,0.042-5.027,0.129
				c-1.539,0.051-3.063,0.401-4.566,1.042c-1.997,0.855-2.537,1.409-2.683,1.606c-0.089,0.131-0.207,0.243-0.341,0.332
				c-1.455,0.963-2.631,1.992-3.492,3.056c-1.529,1.843-2.257,4.046-2.24,6.749c0.014,2.67,0.634,4.774,1.847,6.258
				c1.654,2.007,2.54,2.98,2.992,3.441c0.475,0.479,1.225,0.862,2.213,1.131c1.331,0.357,2.591,0.652,3.851,0.903
				c1.286,0.278,2.53,0.419,3.816,0.437c1.213,0,2.38-0.099,3.478-0.293c1.12-0.221,2.311-0.516,3.514-0.873
				c1.314-0.371,3-0.882,5.069-1.543c1.848-0.588,3.339-1.582,4.442-2.953c1.093-1.383,1.802-3.369,2.104-5.897
				c0.315-3.194,0.034-4.821-0.263-5.62c-0.473-1.211-1.017-2.188-1.601-2.881c-0.62-0.725-1.47-1.43-2.506-2.085
				c-1.182-0.755-2.298-1.449-3.359-2.092c-0.911-0.538-2.037-0.893-3.431-1.079C141.503,36.305,141.043,36.277,140.607,36.277z"/>
		</g>
		<g>
			<path fill="#431C05" d="M145.743,39.724c-0.074,0.057-0.148,0.129-0.207,0.188c-1.161,0.977-2.156,1.715-3.009,2.213
				c-0.276,0.168-0.462,0.297-0.533,0.371c-0.112,0.109-0.165,0.24-0.148,0.369c0.148,1.053,0.79,1.645,1.919,1.771
				c0.46,0.058,1.479-0.037,3.066-0.238c0.163-0.018,0.293-0.11,0.426-0.277c0.423-0.684,0.645-1.016,0.663-1.035
				c0.535-0.793,0.812-1.347,0.833-1.625c0.017-0.314,0.056-0.572,0.127-0.738c0.092-0.165-0.166-0.426-0.794-0.756
				C147.443,39.614,146.645,39.54,145.743,39.724"/>
		</g>
		<g>
			<path fill="#431C05" d="M137.396,49.968l0.5,0.241c0.684,0.017,1.514,0.017,2.513-0.021c0.717-0.017,1.235,0,1.548,0.074
				c0.131-0.186,0.391-0.46,0.74-0.85c0.369-0.369,0.667-0.646,0.868-0.811c-0.055-0.092-0.168-0.389-0.333-0.887
				c-0.093-0.277-0.166-0.52-0.222-0.684c-0.405-0.188-0.94-0.26-1.627-0.242c-0.645,0.055-0.958,0.076-0.975,0.076
				c-0.351,0.055-0.812,0.387-1.386,1.016C138.618,48.343,138.084,49.044,137.396,49.968"/>
		</g>
		<g>
			<path fill="#431C05" d="M129.762,39.591c-0.978,0.405-1.771,0.736-2.382,1.016c-1.161,0.534-1.715,0.941-1.678,1.236
				c0.034,0.203,0.221,0.426,0.572,0.663c0.427,0.296,0.719,0.61,0.924,0.942c0.167,0.314,0.424,0.443,0.737,0.389
				c0.387-0.056,1.183-0.131,2.382-0.239c0.851-0.094,1.7-0.353,2.546-0.796c0.188,0.075,0.352,0.148,0.518,0.223
				c0.038,0.018,0.078,0.037,0.094,0.057c0.059-0.02,0.148-0.057,0.242-0.092c0.296-0.132,0.757-0.371,1.385-0.759
				c-0.149-0.203-0.426-0.905-0.813-2.144c-0.352-1.052-0.648-1.662-0.869-1.807c-1.015,0.236-1.716,0.46-2.139,0.662
				C130.594,39.274,130.076,39.497,129.762,39.591"/>
		</g>
		<g>
			<path fill="#431C05" d="M127.927,51.538c-0.463-0.036-0.851-0.074-1.185-0.129c-0.574,0.258-1.274,0.514-2.121,0.756
				c-0.39,0.129-0.758,0.239-1.09,0.332c-0.203,0.482-0.481,0.869-0.796,1.146c-0.276,0.2-0.423,0.35-0.405,0.424
				c0.054,0.535,0.591,1.034,1.567,1.533c0.868,0.46,1.479,0.665,1.812,0.609c1.126-0.149,2.047-0.389,2.768-0.701
				c0.701-0.315,1.387-0.52,2.05-0.609c-0.038-0.205-0.092-0.87-0.165-1.996c-0.016-0.369-0.038-0.664-0.056-0.904
				C129.677,51.832,128.885,51.667,127.927,51.538"/>
		</g>
		<g>
			<path fill="#7A4428" d="M134.74,61.177c-0.572,0.074-1.885,0.35-3.952,0.83c0.036,0.572,0.071,0.905,0.091,0.998l-0.073,0.094
				c0.312,0.202,1.07,0.313,2.272,0.35c1.217,0.035,2.288-0.02,3.213-0.147c-0.075-0.26-0.021-0.608,0.183-1.052
				c0.149-0.371,0.24-0.629,0.297-0.779c-0.534-0.091-1.016-0.164-1.404-0.219c-0.168-0.017-0.331-0.037-0.478-0.056
				C134.83,61.177,134.791,61.16,134.74,61.177"/>
		</g>
		<g>
			<path fill="#431C05" d="M148.077,55.248c-0.019-0.349-0.128-0.776-0.332-1.275c-0.403-0.885-0.94-1.438-1.588-1.66
				c-0.351-0.13-0.888-0.186-1.603-0.166c-1.572,1.772-2.498,2.808-2.773,3.12c-0.388,0.443-0.553,0.74-0.498,0.904
				c0.257,0.572,0.905,1.07,1.938,1.516c0.535,0.203,1.037,0.37,1.533,0.462c1.977-1.349,3.046-2.142,3.215-2.345
				C148.059,55.71,148.097,55.524,148.077,55.248"/>
		</g>
		<g>
			<path fill="#984813" d="M139.52,38.388c0.132-0.146,0.185-0.312,0.167-0.496c-0.017-0.188-0.127-0.334-0.291-0.426
				c-0.169-0.113-0.372-0.148-0.612-0.113c-0.241,0.021-0.425,0.113-0.552,0.26c-0.147,0.148-0.206,0.314-0.187,0.498
				c0.017,0.188,0.127,0.334,0.313,0.426c0.165,0.092,0.369,0.129,0.61,0.111C139.206,38.61,139.396,38.517,139.52,38.388"/>
		</g>
		<g>
			<path fill="#984813" d="M149.418,48.805c0.131-0.148,0.184-0.316,0.169-0.501c-0.021-0.184-0.129-0.33-0.295-0.422
				c-0.168-0.113-0.37-0.149-0.61-0.113c-0.242,0.02-0.427,0.113-0.557,0.262c-0.146,0.146-0.201,0.312-0.182,0.497
				c0.017,0.185,0.129,0.333,0.312,0.426c0.169,0.091,0.37,0.128,0.61,0.108C149.107,49.026,149.292,48.933,149.418,48.805"/>
		</g>
		<g>
			<path fill="#984813" d="M129.014,59.939c0.129-0.149,0.184-0.313,0.165-0.498c-0.015-0.185-0.127-0.334-0.294-0.427
				c-0.167-0.111-0.371-0.146-0.61-0.111c-0.239,0.021-0.426,0.111-0.556,0.261c-0.143,0.146-0.199,0.312-0.183,0.498
				c0.021,0.185,0.132,0.333,0.312,0.427c0.166,0.092,0.371,0.127,0.611,0.108C128.701,60.161,128.885,60.068,129.014,59.939"/>
		</g>
		<g>
			<path fill="#984813" d="M133.74,58.093c0.13-0.148,0.187-0.314,0.169-0.499c-0.021-0.185-0.128-0.333-0.297-0.425
				c-0.165-0.112-0.367-0.147-0.608-0.112c-0.242,0.021-0.426,0.112-0.555,0.262c-0.15,0.146-0.201,0.311-0.184,0.497
				c0.017,0.185,0.126,0.334,0.312,0.426c0.165,0.092,0.369,0.128,0.611,0.108C133.429,58.313,133.612,58.222,133.74,58.093"/>
		</g>
		<g>
			<path fill="#984813" d="M124.176,47.882c0.131-0.149,0.183-0.314,0.166-0.501c-0.019-0.186-0.127-0.333-0.293-0.425
				c-0.168-0.109-0.372-0.146-0.611-0.109c-0.241,0.02-0.427,0.109-0.553,0.258c-0.149,0.148-0.206,0.314-0.185,0.498
				c0.019,0.186,0.129,0.334,0.311,0.428c0.169,0.09,0.374,0.125,0.61,0.108C123.863,48.102,124.049,48.009,124.176,47.882"/>
		</g>
		<g>
			<path fill="#984813" d="M128.792,45.332c0.13-0.147,0.185-0.313,0.164-0.497c-0.017-0.186-0.127-0.334-0.293-0.426
				c-0.166-0.111-0.369-0.148-0.608-0.111c-0.242,0.02-0.425,0.111-0.557,0.26c-0.144,0.146-0.204,0.312-0.184,0.498
				c0.019,0.184,0.129,0.332,0.315,0.425c0.164,0.091,0.369,0.129,0.609,0.11C128.478,45.556,128.663,45.46,128.792,45.332"/>
		</g>
		<g>
			<path fill="#984813" d="M131.749,48.712c0.127-0.148,0.182-0.313,0.165-0.498c-0.021-0.187-0.13-0.332-0.296-0.426
				c-0.165-0.109-0.369-0.146-0.611-0.109c-0.237,0.017-0.425,0.109-0.552,0.257c-0.148,0.147-0.201,0.314-0.187,0.499
				c0.02,0.184,0.132,0.332,0.313,0.425c0.168,0.093,0.371,0.129,0.61,0.11C131.435,48.934,131.618,48.841,131.749,48.712"/>
		</g>
		<g>
			<path fill="#4F2006" d="M96.819,50.257c-0.462,0-0.883-0.283-1.029-0.75l-0.021-0.055c-0.18-0.584,0.14-1.207,0.727-1.391
				c0.589-0.182,1.205,0.141,1.389,0.723c0.185,0.583-0.129,1.234-0.716,1.42C97.056,50.238,96.938,50.257,96.819,50.257z"/>
		</g>
		<g>
			<path fill="#B66D13" d="M104.603,53.735c-0.759-1.127-1.516-1.977-2.291-2.566c-0.758-0.592-1.756-1.107-2.988-1.553
				c-1.221-0.461-2.386-0.867-3.476-1.219c-1.105-0.35-2.383-0.461-3.804-0.313c-1.423,0.129-2.604,0.462-3.544,0.978
				c-1.535,0.352-3.064,0.723-4.562,1.128c-1.496,0.406-2.938,1.087-4.302,2.05c-1.349,0.979-2.182,1.79-2.492,2.475
				c-1.203,1.272-2.128,2.529-2.733,3.765c-1.129,2.219-1.387,4.675-0.738,7.351c0.607,2.68,1.735,4.636,3.339,5.909
				c1.589,1.257,2.735,2.126,3.453,2.587c0.721,0.462,1.664,0.721,2.828,0.775c1.181,0.036,2.418,0.055,3.729,0.036
				c1.314-0.019,2.569-0.147,3.769-0.404c1.199-0.277,2.289-0.61,3.27-1.035c0.979-0.425,2.032-0.942,3.122-1.532
				c1.089-0.611,2.507-1.423,4.26-2.438c1.758-1.017,3.049-2.364,3.882-4.046c0.831-1.681,1.108-3.82,0.831-6.39
				C105.878,56.708,105.357,54.86,104.603,53.735"/>
		</g>
		<g>
			<path fill="#6B3D1B" d="M85.978,76.425c-0.949,0-1.866-0.018-2.727-0.045c-1.414-0.068-2.58-0.397-3.489-0.981
				c-0.74-0.473-1.908-1.343-3.574-2.659c-1.829-1.451-3.104-3.688-3.801-6.648c-0.696-2.975-0.406-5.74,0.865-8.223
				c0.618-1.254,1.564-2.575,2.81-3.918c0.445-0.848,1.359-1.742,2.844-2.791c1.462-1.042,3.039-1.798,4.674-2.241
				c1.342-0.38,2.804-0.743,4.448-1.106c1.062-0.544,2.359-0.898,3.865-1.057c1.638-0.166,3.095-0.033,4.354,0.395
				c1.087,0.352,2.273,0.765,3.515,1.234c1.342,0.48,2.47,1.068,3.332,1.742c0.892,0.68,1.768,1.648,2.584,2.865
				c0.878,1.332,1.446,3.333,1.745,6.126c0.304,2.814-0.017,5.205-0.956,7.104c-0.938,1.901-2.406,3.45-4.364,4.605
				c-1.772,1.027-3.195,1.843-4.29,2.454c-1.284,0.682-2.303,1.184-3.234,1.59c-0.999,0.43-2.146,0.793-3.517,1.108
				c-1.261,0.273-2.609,0.42-4.025,0.438L85.978,76.425z M93.223,49.283c-0.343,0-0.696,0.02-1.063,0.058
				c-1.241,0.127-2.271,0.411-3.056,0.841c-0.108,0.061-0.227,0.104-0.346,0.132c-1.667,0.361-3.132,0.725-4.484,1.107
				c-1.352,0.367-2.648,0.99-3.864,1.857c-1.609,1.136-1.986,1.73-2.075,1.934c-0.06,0.137-0.144,0.264-0.248,0.375
				c-1.131,1.203-1.978,2.362-2.514,3.447c-0.99,1.938-1.208,4.107-0.658,6.463c0.562,2.377,1.531,4.13,2.887,5.207
				c1.57,1.241,2.706,2.086,3.363,2.508c0.522,0.335,1.26,0.527,2.19,0.573c0.813,0.025,1.7,0.041,2.623,0.041l1.024-0.006
				c1.242-0.018,2.415-0.144,3.49-0.377c1.202-0.276,2.204-0.591,3.051-0.957c0.865-0.377,1.827-0.85,3.025-1.489
				c1.062-0.591,2.475-1.4,4.225-2.412c1.525-0.903,2.625-2.053,3.344-3.515c0.717-1.45,0.954-3.359,0.703-5.676
				c-0.312-2.914-0.894-4.308-1.325-4.965c-0.65-0.971-1.331-1.731-2.009-2.249c-0.655-0.511-1.538-0.965-2.642-1.359
				c-1.222-0.461-2.365-0.861-3.433-1.205C94.774,49.393,94.038,49.283,93.223,49.283z"/>
		</g>
		<g>
			<path fill="#431C05" d="M95.197,50.95c-0.054,0.057-0.096,0.11-0.148,0.166c-0.848,1.127-1.606,2.014-2.271,2.622
				c-0.22,0.222-0.368,0.37-0.423,0.442c-0.057,0.129-0.076,0.242-0.036,0.37c0.35,0.905,1.033,1.312,2.066,1.201
				c0.426-0.054,1.347-0.333,2.733-0.832c0.131-0.054,0.242-0.165,0.312-0.351c0.242-0.682,0.369-1.034,0.39-1.053
				c0.331-0.83,0.479-1.366,0.424-1.626c-0.056-0.294-0.072-0.534-0.015-0.701c0.051-0.165-0.243-0.331-0.892-0.535
				C96.693,50.488,95.991,50.599,95.197,50.95"/>
		</g>
		<g>
			<path fill="#431C05" d="M91.822,60.197c-0.28,0.499-0.626,1.237-1.052,2.216l0.516,0.111c0.611-0.111,1.349-0.275,2.234-0.518
				c0.648-0.166,1.128-0.239,1.421-0.239c0.075-0.204,0.24-0.497,0.5-0.921c0.256-0.428,0.464-0.723,0.61-0.889
				c-0.057-0.094-0.221-0.352-0.481-0.757c-0.129-0.223-0.238-0.406-0.332-0.574c-0.406-0.071-0.904-0.034-1.513,0.112
				c-0.572,0.164-0.85,0.258-0.87,0.258C92.562,59.108,92.212,59.516,91.822,60.197"/>
		</g>
		<g>
			<path fill="#431C05" d="M80.545,55.118c-0.793,0.556-1.438,1.015-1.936,1.365c-0.927,0.723-1.331,1.203-1.239,1.461
				c0.057,0.184,0.26,0.352,0.606,0.498c0.43,0.165,0.778,0.389,1.038,0.665c0.221,0.241,0.462,0.296,0.737,0.203
				c0.332-0.128,1.035-0.351,2.106-0.685c0.737-0.257,1.458-0.682,2.139-1.272c0.17,0.056,0.353,0.093,0.52,0.11
				c0.02,0.02,0.056,0.02,0.094,0.039c0.037-0.039,0.091-0.076,0.184-0.113c0.239-0.203,0.609-0.515,1.106-0.979
				c-0.183-0.166-0.57-0.758-1.162-1.771c-0.532-0.868-0.923-1.35-1.147-1.441c-0.866,0.425-1.458,0.756-1.808,1.016
				C81.227,54.64,80.823,54.952,80.545,55.118"/>
		</g>
		<g>
			<path fill="#431C05" d="M82.571,65.719c-0.426,0.055-0.797,0.11-1.111,0.147c-0.46,0.334-1.051,0.703-1.77,1.109
				c-0.329,0.185-0.627,0.35-0.906,0.498c-0.094,0.481-0.256,0.867-0.497,1.183c-0.204,0.259-0.28,0.424-0.258,0.479
				c0.165,0.463,0.737,0.832,1.717,1.093c0.867,0.203,1.461,0.257,1.753,0.164c0.978-0.37,1.774-0.758,2.348-1.18
				c0.57-0.427,1.16-0.758,1.731-0.979c-0.052-0.17-0.236-0.76-0.55-1.756c-0.093-0.314-0.168-0.594-0.241-0.83
				C84.194,65.626,83.456,65.663,82.571,65.719"/>
		</g>
		<g>
			<path fill="#431C05" d="M103.874,63.464c-0.09-0.332-0.296-0.684-0.571-1.07c-0.533-0.721-1.128-1.127-1.771-1.199
				c-0.314-0.038-0.812,0.018-1.46,0.164c-1.053,1.922-1.658,3.049-1.865,3.381c-0.259,0.48-0.352,0.774-0.259,0.905
				c0.353,0.463,1.015,0.792,2.034,0.96c0.517,0.112,1.014,0.148,1.476,0.129c1.511-1.625,2.327-2.549,2.417-2.77
				C103.932,63.871,103.932,63.704,103.874,63.464"/>
		</g>
		<g>
			<path fill="#984813" d="M90.347,51.501c0.09-0.166,0.111-0.315,0.053-0.48c-0.053-0.166-0.184-0.277-0.35-0.334
				c-0.165-0.054-0.352-0.035-0.555,0.039c-0.202,0.073-0.347,0.184-0.461,0.332c-0.094,0.164-0.108,0.312-0.058,0.479
				c0.058,0.167,0.188,0.279,0.354,0.333c0.203,0.057,0.388,0.057,0.59-0.019C90.123,51.777,90.271,51.665,90.347,51.501"/>
		</g>
		<g>
			<path fill="#984813" d="M101.332,58.96c0.093-0.165,0.108-0.313,0.055-0.479c-0.055-0.166-0.184-0.279-0.347-0.333
				c-0.17-0.056-0.353-0.038-0.557,0.036c-0.202,0.074-0.351,0.185-0.46,0.334c-0.095,0.164-0.111,0.312-0.058,0.479
				c0.058,0.169,0.183,0.279,0.354,0.334c0.201,0.055,0.385,0.055,0.587-0.021C101.112,59.239,101.26,59.126,101.332,58.96"/>
		</g>
		<g>
			<path fill="#984813" d="M85.194,73.05c0.093-0.165,0.111-0.313,0.055-0.478c-0.055-0.169-0.186-0.278-0.35-0.335
				c-0.165-0.055-0.354-0.037-0.558,0.037c-0.2,0.074-0.348,0.185-0.461,0.334c-0.09,0.164-0.11,0.312-0.056,0.479
				c0.056,0.166,0.183,0.277,0.351,0.334c0.206,0.055,0.391,0.055,0.591-0.02C84.974,73.327,85.12,73.216,85.194,73.05"/>
		</g>
		<g>
			<path fill="#984813" d="M89.07,70.465c0.094-0.165,0.11-0.313,0.056-0.479c-0.056-0.167-0.186-0.28-0.352-0.335
				c-0.165-0.055-0.349-0.035-0.553,0.039s-0.349,0.184-0.463,0.332c-0.09,0.165-0.11,0.314-0.052,0.479
				c0.052,0.167,0.184,0.28,0.349,0.335c0.204,0.056,0.388,0.056,0.592-0.021C88.85,70.743,88.995,70.631,89.07,70.465"/>
		</g>
		<g>
			<path fill="#984813" d="M78.397,63.153c0.095-0.168,0.109-0.314,0.054-0.48c-0.054-0.166-0.181-0.278-0.35-0.333
				c-0.167-0.056-0.352-0.038-0.555,0.036c-0.201,0.076-0.351,0.184-0.463,0.334c-0.09,0.164-0.109,0.312-0.053,0.479
				c0.053,0.169,0.186,0.279,0.349,0.334c0.206,0.055,0.392,0.055,0.595-0.02C78.176,63.429,78.321,63.319,78.397,63.153"/>
		</g>
		<g>
			<path fill="#984813" d="M82.054,59.958c0.092-0.168,0.11-0.314,0.056-0.479c-0.056-0.168-0.185-0.278-0.351-0.334
				c-0.166-0.057-0.353-0.038-0.552,0.036c-0.207,0.075-0.355,0.187-0.463,0.334c-0.094,0.165-0.109,0.313-0.058,0.479
				c0.058,0.167,0.185,0.278,0.353,0.333c0.203,0.058,0.389,0.058,0.591-0.02C81.831,60.236,81.979,60.124,82.054,59.958"/>
		</g>
		<g>
			<path fill="#984813" d="M85.394,62.395c0.099-0.165,0.114-0.313,0.059-0.479c-0.059-0.167-0.187-0.278-0.352-0.333
				c-0.165-0.057-0.352-0.035-0.555,0.037c-0.202,0.074-0.352,0.184-0.462,0.332c-0.09,0.167-0.108,0.314-0.054,0.48
				c0.054,0.165,0.185,0.277,0.352,0.332c0.202,0.057,0.385,0.057,0.592-0.02C85.172,62.673,85.321,62.56,85.394,62.395"/>
		</g>
	</g>
</g>
<g id="guide" display="none">
</g>
</svg>
