<svg xmlns="http://www.w3.org/2000/svg" width="176.198" height="128.484" viewBox="0 0 176.198 128.484"><g><path fill="#4F2006" d="M147.097 91.602c-.446 0-.859-.268-1.017-.718l-.02-.054c-.204-.577.1-1.21.679-1.412.577-.206 1.208.1 1.409.678.205.576-.089 1.236-.665 1.439-.127.045-.259.067-.386.067z"/><path fill="#009FE8" d="M34.007 111.986l1.404.637-1.493-.857.089.22"/><path fill="#4F2006" d="M47.547 101.694c-.118 0-.237-.02-.354-.057-.58-.197-.894-.824-.696-1.403.194-.58.836-.937 1.417-.74.579.194.905.776.711 1.358l-.028.086c-.158.463-.588.756-1.05.756z"/><path fill="#B66D13" d="M44.385 89.512c-.089 1.79-.01 3.315.253 4.567.24 1.24.686 2.568 1.337 4.007.67 1.433 1.312 2.776 1.918 4.017.611 1.257 1.511 2.365 2.646 3.318 1.156.95 2.246 1.512 3.25 1.694 1.333.835 2.687 1.623 4.04 2.352 1.382.741 2.835 1.11 4.387 1.12 1.574.018 2.654-.229 3.282-.757 1.629-.423 3.028-1.062 4.195-1.899 2.111-1.506 3.691-3.965 4.766-7.344 1.046-3.395 1.331-6.389.862-9.01-.502-2.607-.866-4.427-1.126-5.486-.277-1.055-.835-2.076-1.688-3.045-.854-.984-1.77-1.971-2.742-2.959-1-.999-2.019-1.834-3.062-2.49-1.059-.65-2.076-1.118-3.053-1.445-.964-.294-2.036-.553-3.205-.761-1.172-.21-2.714-.434-4.602-.7-1.884-.271-3.616.184-5.216 1.369-1.562 1.158-2.975 3.233-4.239 6.252-1.248 3.009-1.913 5.41-2.003 7.2"/><path fill="#6B3D1B" d="M62.389 111.909h-.204c-1.761-.032-3.433-.459-4.971-1.268-1.329-.717-2.644-1.478-3.919-2.273-1.151-.25-2.326-.885-3.582-1.934-1.291-1.057-2.303-2.318-2.996-3.74-.53-1.08-1.076-2.248-1.654-3.49l-.265-.57c-.742-1.574-1.214-2.984-1.448-4.304-.273-1.288-.371-2.883-.292-4.841.09-2.008.785-4.511 2.123-7.662 1.368-3.239 2.9-5.459 4.679-6.788 1.847-1.386 3.924-1.931 6.156-1.614 1.922.266 3.463.5 4.644.71 1.194.212 2.291.481 3.361.825 1.061.326 2.198.857 3.359 1.572 1.141.719 2.246 1.611 3.293 2.662 1.098 1.129 2.007 2.118 2.791 3.037.984 1.104 1.635 2.271 1.974 3.551.287 1.078.658 2.908 1.137 5.596.538 2.812.242 6.055-.89 9.622-1.149 3.632-2.918 6.323-5.252 7.992-1.243.915-2.721 1.614-4.388 2.074-.837.568-2.037.843-3.656.843zm-7.592-35.972c-1.212 0-2.318.387-3.383 1.182-1.38 1.031-2.671 2.958-3.843 5.723-1.198 2.823-1.843 5.098-1.917 6.758-.071 1.734.008 3.121.242 4.234.203 1.135.611 2.332 1.253 3.701l.267.572c.571 1.227 1.109 2.379 1.632 3.447.529 1.082 1.311 2.051 2.321 2.88.984.821 1.863 1.299 2.622 1.423.167.028.331.09.475.182 1.294.812 2.63 1.59 3.97 2.309 1.182.622 2.425.941 3.789.965h.164c1.56 0 2.101-.305 2.262-.437.144-.12.313-.208.495-.255 1.447-.374 2.711-.957 3.76-1.729 1.881-1.347 3.327-3.59 4.302-6.676 1-3.151 1.272-5.965.812-8.365-.471-2.634-.826-4.396-1.094-5.404-.229-.875-.692-1.695-1.417-2.507-.766-.897-1.641-1.847-2.688-2.925-.897-.899-1.849-1.67-2.814-2.277-.963-.593-1.895-1.032-2.764-1.299-.972-.313-1.961-.556-3.037-.746-1.156-.205-2.665-.433-4.547-.693-.296-.044-.583-.063-.862-.063z"/><path fill="#431C05" d="M68.283 83.979c.207-.742.317-1.184.316-1.316l.126-.081c-.187-.405-.807-.964-1.866-1.669-1.056-.689-2.011-1.197-2.868-1.527-.041.361-.237.774-.571 1.246l-.601.792c.448.379.826.705 1.137 1.013l.393.379.115.119c.527.199 1.801.546 3.819 1.044M66.781 93.623c.392.319.731.601 1.003.841.595-.013 1.311.047 2.186.176.39.07.759.129 1.071.199.385-.49.78-.827 1.168-1.01.307-.118.486-.233.504-.354.149-.687-.091-1.618-.732-2.788-.57-.998-1.007-1.576-1.336-1.703-1.064-.417-1.982-.627-2.731-.602-.745.023-1.445-.1-2.046-.353-.056.249-.266 1.11-.672 2.575l-.295 1.196c.484.545 1.105 1.159 1.88 1.823"/><path fill="#7A4428" d="M68.937 104.823c-.337-.144-1.062-.473-2.177-.99-.769-.355-1.621-.471-2.566-.344l-.358-.583-.055-.101-.005-.016-.233-.003c-.309.001-.808.083-1.5.206.024.322-.03 1.366-.188 3.121-.113 1.525-.094 2.43.059 2.73.97.251 1.681.354 2.122.348.743-.041 1.281-.057 1.599-.025 1.017.023 1.853.032 2.502.016 1.211-.035 1.863-.244 1.945-.641.069-.272.007-.656-.195-1.156-.257-.572-.399-1.131-.424-1.644-.049-.509-.22-.803-.526-.918"/><path fill="#431C05" d="M59.191 91.202l-.327-.496c-.509-.361-1.154-.756-1.977-1.209-.585-.316-.969-.602-1.18-.844-.201.16-.508.354-.931.607l-.956.518c.002.133-.032.512-.074 1.165-.019.372-.044.651-.07.872.26.384.66.74 1.191 1.057l.818.395c.286.104.758-.049 1.453-.484.504-.313 1.187-.843 2.053-1.581"/><path fill="#7A4428" d="M51.696 99.031c.146-.085.243-.214.283-.401.289-1.388-.037-2.468-.961-3.238-.391-.317-1.311-.781-2.798-1.372-.15-.048-.314-.016-.477.134-.639.611-.967.928-.979.951-.803.701-1.286 1.242-1.428 1.597-.132.372-.259.646-.394.822-.154.185-.027.648.389 1.405.422.774 1.091 1.299 1.98 1.538l.224-.09c1.409-.624 2.597-1.022 3.532-1.187.311-.06.531-.109.629-.159M55.984 107.5c.026-.104.044-.286.022-.547.009-.257.043-.404.044-.46-.303-.157-.968-.486-1.979-.979-.941-.475-1.604-.902-1.988-1.265l-.675-.364c-.047.229-.18.541-.411.904-.232.424-.371.661-.379.701-.129.449 0 .912.362 1.377.409.549 1.048 1.041 1.947 1.49.07.035.595-.072 1.538-.338.985-.252 1.495-.415 1.519-.519"/><path fill="#431C05" d="M49.269 79.61c-.145.455-.201 1.055-.208 1.771-.025 1.325.196 2.318.695 2.974.259.325.697.668 1.309 1.073 2.11-1.407 3.341-2.225 3.711-2.459.528-.342.789-.621.777-.848.013-.858-.341-1.848-1.062-2.955-.371-.559-.756-1.038-1.152-1.434-2.285.67-3.535 1.068-3.771 1.24-.111.076-.218.286-.299.638"/><path fill="#0E0000" d="M64.002 110.67c-.611 0-1.439-.134-2.459-.397-.41-.105-.757-.383-.947-.76-.262-.516-.379-1.255-.214-3.508.215-2.392.189-2.879.189-2.898-.049-.75.473-1.434 1.212-1.566.817-.145 1.334-.225 1.746-.229l.298.004c.237.018.472.092.682.211l.002-.004c.195.111.362.264.493.442.839.011 1.637.188 2.372.528 1.097.507 1.809.83 2.14.973.433.162 1.282.689 1.416 2.138.021.403.12.777.3 1.178.345.856.428 1.53.282 2.118-.361 1.667-2.523 1.733-3.335 1.757-.693.017-1.537.012-2.582-.015l-.404-.016c-.281 0-.634.016-1.07.041l-.121.003zm-.746-3.038c.415.074.646.086.746.086v1.477l.017-1.477c.75-.045 1.387-.055 1.761-.019.81.013 1.69.021 2.319.007l.313-.014c-.218-.543-.36-1.112-.409-1.669-.427-.192-1.042-.474-1.862-.851-.519-.238-1.098-.309-1.748-.221-.334.049-.668-.025-.948-.191-.029.429-.07.926-.121 1.484-.048.629-.063 1.073-.068 1.388zm-10.282 2.209c-.24 0-.525-.068-.74-.18-1.076-.537-1.883-1.171-2.438-1.914-.816-1.048-.778-2.029-.597-2.662.017-.123.102-.277.308-.651l.193-.351c.222-.354.26-.489.26-.491.114-.437.435-.837.848-1.017.415-.182.898-.203 1.296.012l.681.365c.111.059.219.137.313.225.134.126.562.48 1.633 1.019 1.014.493 1.688.825 1.995.985.502.258.814.783.801 1.348l-.024.258-.019.156c.02.335-.003.639-.065.904-.224.992-1.112 1.221-2.581 1.604-1.285.359-1.638.39-1.864.39zm-.465-3.492c.19.163.419.323.688.48l.14-.035c-.298-.15-.574-.301-.828-.445zm-5.196-4.408c-.127 0-.258-.019-.379-.051-1.276-.341-2.276-1.12-2.896-2.255-.354-.649-1.098-2.002-.232-3.051l.145-.383c.248-.631.798-1.287 1.793-2.163.17-.179.46-.454.979-.952.416-.378.878-.562 1.371-.562.151 0 .434.043.582.09 2.238.889 2.938 1.358 3.28 1.637.955.801 1.976 2.252 1.468 4.683-.123.578-.467 1.067-.979 1.368-.347.179-.642.252-1.093.339-.835.144-1.935.519-3.217 1.086-.078.051-.256.109-.401.153-.137.04-.281.061-.421.061zm-.864-4.068l.177.347c.163.297.377.514.659.662 1.284-.553 2.391-.918 3.318-1.104.024-.682-.245-1.016-.529-1.252-.03-.025-.38-.294-1.762-.875l-.431.42-.146.145c-.865.756-1.036 1.055-1.044 1.066-.075.217-.154.412-.242.591z"/><path fill="#984813" d="M57.684 97.646c-.137.062-.212.185-.26.353-.03.188-.002.349.085.495.063.137.152.244.308.291.153.067.289.062.421 0 .118-.058.198-.179.234-.362.043-.173.01-.333-.059-.487-.065-.151-.177-.252-.333-.32-.149-.051-.284-.045-.396.03M57.235 101.642c-.137.062-.218.184-.258.352-.034.188-.003.35.083.499.061.134.153.241.302.287.161.068.293.063.427 0 .119-.057.199-.179.235-.362.04-.169.012-.334-.06-.486-.065-.152-.18-.253-.331-.318-.154-.052-.286-.048-.398.028M54.306 96.282c-.133.061-.212.186-.253.353-.043.186-.008.351.081.498.06.134.153.24.303.29.158.066.291.061.425 0 .117-.059.197-.181.233-.364.043-.171.009-.335-.059-.487-.065-.15-.177-.252-.332-.318-.151-.052-.288-.045-.398.028M70.065 97.378c-.135.061-.211.185-.254.35-.037.188-.005.352.081.499.061.137.153.243.305.288.156.066.289.062.426 0 .119-.057.195-.177.233-.363.04-.168.011-.332-.059-.484-.067-.151-.177-.252-.336-.319-.149-.051-.285-.045-.396.029M56.574 82.143c-.133.062-.209.184-.253.351-.041.187-.005.352.082.498.058.135.151.241.305.29.155.067.291.062.425 0 .114-.058.191-.179.233-.366.043-.168.008-.33-.06-.483-.069-.153-.176-.255-.332-.32-.153-.05-.286-.045-.4.03M59.273 81.552c-.137.064-.213.185-.258.354-.033.186-.003.352.085.499.06.132.15.239.301.288.159.065.292.062.427 0 .119-.057.197-.178.234-.365.04-.168.009-.332-.06-.484-.066-.153-.176-.254-.332-.319-.153-.051-.284-.045-.397.027"/><path fill="#431C05" d="M69.221 42.358c-.907-.057-1.368-.072-1.382-.072-.484 0-1.185.479-2.09 1.46-.666.699-1.552 1.79-2.642 3.267l.649.535c.901.203 2.047.388 3.451.556.979.11 1.679.275 2.105.499.219-.314.625-.76 1.199-1.332.569-.572 1.017-.979 1.312-1.217-.038-.186-.131-.74-.258-1.645-.094-.5-.149-.923-.188-1.236-.53-.408-1.252-.684-2.156-.815"/><path fill="#6B3D1B" d="M69.312 49.901c-.203 0-.409-.049-.604-.149-.125-.065-.538-.233-1.646-.358-1.47-.174-2.642-.364-3.594-.579l-.416-.115-.399-.11c-.447-.093-.839-.419-.991-.853-.149-.435-.086-.917.21-1.268l.232-.288c1.077-1.456 1.986-2.576 2.702-3.33 1.185-1.284 2.123-1.863 3.032-1.863.016 0 .503.016 1.461.075 1.225.173 2.151.53 2.869 1.079.276.211.456.525.501.872.034.294.086.69.172 1.158.133.921.222 1.45.259 1.63.092.477-.085.965-.467 1.268-.158.127-.527.441-1.197 1.117-.673.667-.949 1-1.062 1.163-.249.356-.648.551-1.062.551zm-4.184-3.406c.638.11 1.389.218 2.232.318.599.066 1.105.154 1.534.264.198-.215.431-.455.705-.727.299-.301.575-.569.824-.799l-.145-.959-.106-.636c-.312-.144-.69-.249-1.137-.313l-1.214-.059c.052.012-.319.174-1.119 1.041-.434.458-.967 1.093-1.574 1.87z"/><path fill="#B66D13" d="M112.487 17.207c-2.566.187-4.357.685-5.393 1.479-2.676.829-4.967 1.9-6.907 3.25-1.864 1.292-3.509 2.953-4.909 4.966.328 1.237.758 2.235 1.273 2.991.604.943 1.31 1.516 2.103 1.736.962.239 2.067.019 3.325-.664l1.476-.871c.575-.33 1.072-.551 1.498-.662.904-.259 2.253-.312 4.044-.184.962.074 2.326.184 4.099.332 1.478 0 2.771-1.607 3.877-4.838.593-1.866 1.016-3.232 1.295-4.137.313-1.018.629-1.866.904-2.549-2.068-.739-4.302-1.013-6.685-.849"/><path fill="#6B3D1B" d="M99.434 33.022c-.374 0-.743-.045-1.094-.131-1.146-.321-2.104-1.088-2.881-2.293-.582-.856-1.074-1.998-1.438-3.363-.098-.37-.029-.764.188-1.077 1.487-2.134 3.252-3.914 5.238-5.29 1.989-1.385 4.299-2.484 7.056-3.359 1.269-.877 3.197-1.401 5.887-1.598 2.6-.174 5.002.133 7.218.923.333.119.604.369.749.694.146.321.151.691.018 1.019-.302.745-.595 1.565-.868 2.444-.278.904-.703 2.273-1.298 4.145-.491 1.441-1.961 5.742-5.113 5.742-1.875-.15-3.239-.262-4.199-.336-1.593-.113-2.853-.07-3.589.139-.237.062-.612.201-1.204.542l-1.467.864c-1.156.627-2.22.935-3.203.935zm-2.735-5.876c.258.818.571 1.496.926 2.018.44.682.898 1.081 1.38 1.217.482.119 1.403-.038 2.354-.555l1.438-.848c.695-.399 1.288-.661 1.824-.801 1.019-.291 2.479-.366 4.471-.225.971.074 2.337.186 4.111.332.197-.003 1.284-.289 2.541-3.961.58-1.834 1.006-3.196 1.279-4.1.145-.456.29-.899.441-1.326-1.532-.383-3.173-.516-4.887-.395-2.837.207-4.119.773-4.692 1.213-.123.094-.259.164-.405.209-2.586.805-4.729 1.812-6.551 3.078-1.578 1.093-2.998 2.485-4.23 4.144z"/><path fill="#431C05" d="M112.247 19.979c-1.424-.204-2.456-.26-3.123-.168-1.089.129-1.865.203-2.322.223-1.479.074-2.698.165-3.661.277-1.788.166-2.75.517-2.877 1.031-.115.353-.021.832.275 1.407.35.718.537 1.4.553 2.064.039.612.278.979.722 1.093.519.128 1.568.459 3.14.995 1.123.353 2.362.387 3.748.129l.517.683.092.131h.314c.479-.057 1.237-.186 2.256-.426-.041-.425.071-1.772.351-4.006.218-1.938.218-3.085.015-3.433"/><path fill="#984813" d="M103.271 35.712c.239.057.448.036.645-.092.205-.111.074-.407.128-.646.056-.241.318-.37.208-.574-.131-.184-.75.569-.992.516-.237-.075-.004-.939-.207-.83-.205.112-.353.299-.407.537-.055.239-.039.48.074.684.127.202.311.331.551.405"/><path fill="#984813" d="M109.396 33.169c.239.056.265.493.47.381.202-.128.331-.312.406-.553.056-.24-.265-.365-.392-.551-.097-.202.019-.445-.22-.503-.236-.055-.459-.037-.663.075-.204.111.154.368.099.609-.071.239-.544.386-.415.592.094.202.278.349.521.403l.194-.453zM49.726 103.786c.24.056.271.51.472.38.206-.111.351-.296.41-.536.05-.238.034-.479-.076-.682-.128-.184-.295-.313-.534-.367-.241-.076-.462-.059-.667.054-.202.109-.351.296-.406.535-.054.237-.036.479.077.683.127.202.314.333.55.405l.174-.472zM55.48 102.173c.241.057.358-.199.562-.312.202-.129.437-.075.508-.316.057-.24.036-.46-.093-.645-.091-.205-.537.053-.774 0-.243-.056-.203-.445-.405-.334s-.349.295-.407.535c-.074.242-.036.462.092.666.09.203.276.351.517.406M55.349 59.422c.223.129.513-.271.649.073.09.229.406-.202.516-.422.131-.223.148-.445.073-.666-.052-.203-.183-.371-.403-.498-.224-.129-.263.286-.5.343-.222.055-.573-.233-.701-.013-.111.223-.129.443-.073.664.072.225.221.39.439.519M61.592 58.812c.223.111.444.131.648.074.241-.074.406-.221.534-.442.13-.223.146-.444.075-.666-.054-.221-.203-.387-.424-.498-.224-.129-.443-.148-.664-.094-.226.056-.391.205-.52.426-.131.221.639.219.697.458.074.221-.567.615-.346.742"/><path fill="#B66D13" d="M41.039 58.222c-.166-.055-.534-.129-1.105-.203-.575-.055-1.037-.147-1.387-.312-.462-.205-.942-.574-1.478-1.146-.59-.719-1.031-1.256-1.348-1.625-1.184-1.367-2.398-2.049-3.659-2.049-1.125 0-2.307.221-3.543.682-.277 4.543.296 8.311 1.734 11.285.886 1.864 1.643 3.415 2.293 4.652.606-.129 1.31-.238 2.086-.369 2.4-.369 4.097-.941 5.114-1.736 1.553-1.199 2.327-3.23 2.327-6.057.001-1.793-.35-2.846-1.034-3.122"/><path fill="#6B3D1B" d="M32.544 70.804c-.476 0-.921-.263-1.15-.697-.653-1.25-1.416-2.814-2.312-4.699-1.521-3.141-2.147-7.152-1.857-11.918.028-.512.359-.957.839-1.137 1.359-.508 2.705-.766 4-.766 1.647 0 3.211.841 4.643 2.498.324.379.769.921 1.37 1.652.344.363.698.646.994.779.159.073.427.156.985.209.654.084 1.106.17 1.382.26 1.937.782 1.937 3.474 1.937 4.357 0 3.248-.95 5.631-2.829 7.084-1.197.932-3.067 1.584-5.715 1.992l-.392.064c-.594.1-1.14.189-1.625.291l-.27.031zm-2.773-16.282c-.138 3.924.414 7.205 1.654 9.763.688 1.448 1.293 2.7 1.83 3.764l.758-.128.405-.068c2.184-.335 3.699-.83 4.53-1.477 1.213-.939 1.825-2.631 1.825-5.033 0-1.283-.197-1.775-.277-1.921-.161-.035-.407-.073-.73-.114-.729-.068-1.306-.207-1.774-.429-.598-.261-1.219-.733-1.873-1.431-.637-.775-1.075-1.305-1.385-1.668-.913-1.058-1.812-1.595-2.672-1.595-.734.001-1.504.112-2.291.337z"/><path fill="#431C05" d="M40.022 59.976c.352-.534.648-.997.888-1.348-.5-.793-1.183-1.717-2.05-2.752-.461-.463-.849-.886-1.162-1.236-.871-.148-1.886-.426-3.086-.812-.554-.186-1.054-.351-1.477-.517-.719.499-1.402.812-2.051.903-.519.076-.812.168-.869.277-.478.812-.46 2.014.057 3.582.463 1.387.907 2.197 1.312 2.44 1.384.792 2.623 1.292 3.713 1.476 1.091.166 2.031.481 2.841.941.171-.296.8-1.273 1.884-2.954"/><path fill="#B66D13" d="M22.591 87.306c-.035-1.348-.276-2.381-.701-3.102-.445-.721-1.072-1.09-1.903-1.09-1.327 0-2.161.498-2.489 1.515-.15.405-.225 1.329-.225 2.753 0 .572-.223 1.125-.665 1.662-.461.535-1.256 1.385-2.419 2.51-1.182 1.127-1.532 1.921-1.07 2.346.462.424 1.978.943 4.562 1.532 2.569.59 4.044-.276 4.413-2.622.349-2.346.517-4.173.497-5.504"/><path fill="#6B3D1B" d="M19.102 96.909c-.524 0-1.1-.069-1.712-.211-3.688-.842-4.673-1.404-5.15-1.842-.395-.363-.61-.856-.616-1.391-.005-.863.509-1.744 1.671-2.853 1.281-1.241 2.01-2.048 2.329-2.419.229-.278.352-.551.352-.812 0-2.102.16-2.812.301-3.198.278-.857 1.148-2.366 3.711-2.366 1.281 0 2.318.588 3.009 1.705.557.943.854 2.198.893 3.75.021 1.414-.144 3.282-.51 5.727-.401 2.525-1.916 3.91-4.278 3.91zm-4.646-3.74c.504.203 1.521.542 3.513.996.425.098.804.147 1.133.147.891 0 1.485-.286 1.707-1.706.34-2.262.502-4.041.483-5.281-.037-1.361-.306-2.092-.521-2.461-.229-.372-.472-.45-.784-.45-1.057 0-1.179.384-1.254.614-.03.086-.159.523-.159 2.354 0 .878-.326 1.717-.967 2.49-.363.424-1.151 1.296-2.515 2.615-.302.29-.504.514-.636.682z"/><path fill="#984813" d="M24.703 79.124c.24 0 .124.704.287.539.17-.168.264-.389.264-.63 0-.258-.094-.462-.264-.628-.163-.166-.77.358-1.011.358-.239 0-.06-.524-.227-.358-.165.166-.258.37-.258.628 0 .241.093.462.258.63.167.165.389.238.629.238l.322-.777zM14.927 101.286c.24 0 .443-.072.609-.24.165-.168-.339-.268-.339-.51 0-.257.504-.578.339-.747-.166-.165-.369-.239-.609-.239-.239 0-.462.074-.627.239-.164.169-.258.37-.258.63 0 .239.094.459.258.627.165.168.388.24.627.24"/><path fill="#B66D13" d="M138.651 68.084c-.238.257-.463.571-.664.94-.661 1.163-.996 2.438-.996 3.803 0 1.83.335 3.068.979 3.732.367.367.592.629.665.775.203.387.312.941.312 1.664 0 .607-.108 1.365-.312 2.232-.204.849-.314 1.496-.314 1.957 0 .85.572 1.719 1.737 2.621 1.161.889 2.251 1.332 3.284 1.332 1.535 0 4.024-.963 7.48-2.864.463-.258 1.236-.386 2.326-.407.61 0 1.644.021 3.086.057h.202c-.313-1.088-.683-2.049-1.107-2.881-.795-1.569-1.923-3.141-3.418-4.745-1.478-1.608-2.899-3.083-4.246-4.45-1.35-1.387-3.085-2.401-5.171-3.084-1.385-.443-2.656-.663-3.843-.682"/><path fill="#6B3D1B" d="M143.343 88.439c-1.332 0-2.662-.521-4.073-1.596-1.496-1.159-2.246-2.387-2.246-3.655 0-.551.113-1.27.351-2.261.183-.782.273-1.433.273-1.929 0-.695-.124-.988-.162-1.059-.055-.076-.208-.24-.435-.463-.919-.947-1.359-2.464-1.359-4.65 0-1.588.396-3.083 1.167-4.445.239-.438.528-.842.842-1.18.251-.271.643-.433.973-.418 1.318.021 2.737.273 4.217.746 2.318.758 4.236 1.904 5.708 3.413 1.627 1.655 2.989 3.079 4.271 4.479 1.573 1.688 2.76 3.339 3.62 5.037.456.898.862 1.945 1.197 3.107.113.392.033.814-.212 1.141s-.63.518-1.037.518h-.202c-1.459-.036-2.479-.055-3.086-.055-1.201.02-1.602.189-1.694.242-3.757 2.068-6.332 3.028-8.113 3.028zm-4.076-19.025l-.139.234c-.562.982-.838 2.046-.838 3.179 0 1.982.429 2.639.611 2.827.602.599.788.886.892 1.088.301.571.456 1.335.456 2.257 0 .693-.119 1.545-.346 2.527-.188.775-.281 1.332-.281 1.662 0 .406.448.988 1.231 1.595.92.7 1.76 1.06 2.489 1.06.888 0 2.797-.469 6.854-2.702.648-.363 1.581-.545 2.932-.567.419.001.854.006 1.478.019-.137-.339-.282-.657-.433-.954-.752-1.483-1.8-2.938-3.211-4.451-1.271-1.385-2.609-2.788-4.224-4.426-1.176-1.209-2.739-2.136-4.649-2.759-.986-.318-1.935-.516-2.822-.589z"/><path fill="#431C05" d="M148.996 74.251l-.28.241c-1.789 1.495-3.305 2.567-4.577 3.21-.422.243-.686.408-.813.52-.165.166-.259.388-.259.646 0 1.846.759 3.008 2.293 3.49.627.202 2.047.295 4.282.295.222 0 .427-.129.61-.405.701-1.053 1.07-1.607 1.089-1.646.906-1.236 1.401-2.122 1.496-2.657.055-.537.167-.944.312-1.22.165-.277-.166-.794-.96-1.533-.812-.737-1.885-1.052-3.193-.941"/><path fill="#B66D13" d="M71.324 103.539c-.295.498-.684.886-1.18 1.181-.574.297-.981.519-1.241.666-.867.497-1.307 1.439-1.307 2.79 0 .901.312 1.884.922 2.898 1.035 1.7 1.825 3.231 2.362 4.579.13.312.351.867.629 1.641 2.787-.736 5.148-2.271 7.09-4.613 2.051-2.459 3.546-6.094 4.506-10.896.295-1.497.518-2.883.686-4.155-.704-.184-1.532-.406-2.479-.684-2.454-.72-3.911-1.088-4.373-1.088-1.366 0-2.423.812-3.178 2.437-.237.498-.57 1.311-1.033 2.473-.46 1.089-.926 2.012-1.404 2.771"/><path fill="#6B3D1B" d="M71.51 118.595c-.536 0-1.028-.333-1.221-.859-.271-.748-.482-1.281-.608-1.581-.512-1.288-1.273-2.762-2.271-4.407-.736-1.228-1.113-2.428-1.113-3.571 0-2.308 1.068-3.403 1.962-3.916.278-.157.695-.388 1.288-.693.245-.147.477-.378.66-.692.449-.707.89-1.578 1.327-2.612.465-1.174.809-2.015 1.059-2.528 1.216-2.622 3.034-3.174 4.347-3.174.41 0 1.147.087 4.74 1.14.932.274 1.747.491 2.442.675.63.165 1.041.775.956 1.425-.178 1.367-.412 2.794-.698 4.237-1.002 5.013-2.608 8.873-4.782 11.475-2.098 2.538-4.708 4.232-7.752 5.04-.114.024-.226.041-.336.041zm5.416-21.438c-.321 0-1.201 0-1.987 1.685-.237.497-.557 1.284-1 2.406-.515 1.206-1.006 2.174-1.517 2.982-.386.653-.935 1.204-1.615 1.606-.617.323-1.011.537-1.263.68-.153.089-.649.371-.649 1.659 0 .664.248 1.415.738 2.228 1.071 1.764 1.897 3.369 2.454 4.771l.208.514c2.053-.753 3.799-2.014 5.305-3.835 1.894-2.271 3.318-5.74 4.229-10.322.199-.994.369-1.98.516-2.943-.433-.117-.9-.248-1.396-.395-3.11-.911-3.849-1.028-4.023-1.036z"/><path fill="#431C05" d="M78.617 105.091c-.441-.277-1.163-.5-2.139-.664-2.496 2.749-3.971 4.376-4.396 4.835-.631.684-.905 1.144-.851 1.423.242 1.09 1.036 2.125 2.383 3.121.683.5 1.348.885 1.992 1.182 2.977-1.94 4.583-3.047 4.857-3.359.132-.166.223-.481.261-.943.055-.646-.038-1.402-.244-2.308-.363-1.646-.992-2.734-1.863-3.287"/><path fill="#B66D13" d="M98.213 78.589c-.076.444-.131.906-.148 1.404 1.017.5 2.053.979 3.139 1.477 1.828.832 3.656 1.405 5.485 1.719s3.563.424 5.17.295c1.608-.127 3.321-.35 5.19-.701.887-.166 1.903-.369 3.026-.609.428-1.127.631-1.883.631-2.289 0-1.145-.186-1.846-.572-2.087-.761-.277-1.535-.665-2.293-1.2-.792-.555-1.659-1.33-2.568-2.344-.57-.631-1.143-.943-1.733-.943-.426 0-1.144.628-2.161 1.865-1.017 1.235-1.92 1.846-2.677 1.846-.314 0-1.073.037-2.271.111-1.184.073-2.069.111-2.679.111-.167 0-.646-.075-1.42-.223-.758-.129-1.24-.203-1.426-.203-.94-.001-1.825.591-2.693 1.771"/><path fill="#6B3D1B" d="M110.511 84.836c-1.269 0-2.62-.123-4.042-.367-1.925-.329-3.877-.939-5.803-1.814-1.104-.506-2.148-.991-3.174-1.493-.643-.316-.91-1.096-.595-1.739l.157-.245c-.215-.422-.19-.949.11-1.356 1.124-1.528 2.382-2.302 3.741-2.302.263 0 .647.051 1.641.221.651.124 1.055.193 1.229.205.568 0 1.427-.037 2.574-.109 1.237-.076 2.025-.114 2.351-.114.188 0 .783-.286 1.675-1.37 1.381-1.684 2.271-2.34 3.163-2.34.963 0 1.871.459 2.696 1.367.812.906 1.598 1.627 2.351 2.154.61.434 1.28.784 1.994 1.046l.236.114c1.064.66 1.189 2.137 1.189 3.191 0 .373-.076 1.064-.714 2.75-.156.412-.513.715-.943.81-1.137.243-2.165.448-3.063.616-1.818.343-3.56.578-5.321.719-.469.037-.954.056-1.452.056zm-11.124-5.646c.768.367 1.547.729 2.358 1.101 1.721.78 3.458 1.325 5.161 1.616 1.766.306 3.399.4 4.849.283 1.669-.135 3.321-.357 5.053-.686.688-.127 1.457-.279 2.294-.453.298-.879.304-1.155.304-1.168 0-.549-.047-.852-.085-1.008-.793-.324-1.542-.731-2.228-1.219-.913-.637-1.853-1.493-2.786-2.54-.14-.151-.391-.399-.624-.481-.175.131-.572.478-1.301 1.364-1.279 1.562-2.484 2.318-3.681 2.318-.303 0-1.034.038-2.188.11-1.221.075-2.131.113-2.761.113-.199 0-.536-.029-1.669-.246-.592-.102-1.005-.172-1.192-.18-.533.002-1.094.553-1.504 1.076z"/><path fill="#431C05" d="M109.089 84.186c-.055-.462.092-1.071.44-1.81.282-.609.485-1.035.574-1.273-.72-.26-1.347-.481-1.882-.683l-.646-.26-.201-.074c-.797.018-2.644.204-5.579.572-.056 1.015-.092 1.607-.073 1.773l-.112.167c.388.387 1.422.758 3.063 1.106 1.646.354 3.124.519 4.416.482"/><path fill="#4F2006" d="M146.918 38.476c-.446 0-.859-.268-1.017-.718l-.02-.054c-.204-.577.1-1.21.679-1.412.577-.206 1.208.1 1.409.678.205.576-.089 1.236-.665 1.439-.126.045-.259.067-.386.067z"/><path fill="#B66D13" d="M154.072 44.04c-.518-1.348-1.127-2.438-1.809-3.25-.684-.794-1.606-1.588-2.806-2.346-1.203-.757-2.328-1.458-3.382-2.106-1.088-.646-2.396-1.052-3.949-1.234-1.533-.169-2.86-.095-3.988.22-1.719-.02-3.42.019-5.103.109-1.677.076-3.337.464-5.001 1.146-1.681.701-2.753 1.384-3.216 2.049-1.585 1.054-2.86 2.162-3.801 3.324-1.715 2.068-2.549 4.598-2.514 7.572.019 2.992.741 5.336 2.129 7.055 1.402 1.717 2.416 2.898 3.063 3.563.645.647 1.585 1.145 2.824 1.46 1.235.35 2.549.664 3.934.939 1.363.295 2.714.443 4.044.463 1.349-.02 2.584-.129 3.732-.332 1.124-.224 2.323-.517 3.636-.888 1.309-.387 3.011-.904 5.114-1.569 2.085-.665 3.769-1.791 5.039-3.38 1.275-1.571 2.072-3.767 2.385-6.556.299-2.787.188-4.872-.331-6.239"/><path fill="#6B3D1B" d="M134.499 64.267h-.017c-1.467-.02-2.881-.181-4.319-.49-1.293-.258-2.61-.566-4-.939-1.437-.391-2.573-1-3.387-1.813-.706-.725-1.79-1.971-3.148-3.619-1.602-1.958-2.421-4.612-2.438-7.891-.023-3.292.93-6.123 2.832-8.41.979-1.214 2.29-2.38 3.889-3.458.649-.775 1.807-1.504 3.61-2.277 1.803-.77 3.644-1.189 5.473-1.25 1.518-.084 3.155-.129 4.973-.131 1.246-.314 2.676-.389 4.298-.213 1.781.235 3.23.701 4.458 1.428 1.088.659 2.222 1.365 3.415 2.129 1.25.791 2.292 1.664 3.094 2.593.784.932 1.452 2.122 2.049 3.642.584 1.578.72 3.803.414 6.826-.359 3.038-1.252 5.463-2.656 7.234-1.428 1.783-3.338 3.063-5.679 3.809-2.104.672-3.816 1.191-5.139 1.566-1.267.373-2.534.687-3.761.928-1.268.222-2.592.336-3.961.336zm6.108-27.99c-.789 0-1.502.088-2.122.262-.113.03-.229.046-.347.046-1.84 0-3.482.042-5.027.129-1.539.051-3.063.401-4.566 1.042-1.997.855-2.537 1.409-2.683 1.606-.089.131-.207.243-.341.332-1.455.963-2.631 1.992-3.492 3.056-1.529 1.843-2.257 4.046-2.24 6.749.014 2.67.634 4.774 1.847 6.258 1.654 2.007 2.54 2.98 2.992 3.441.475.479 1.225.862 2.213 1.131 1.331.357 2.591.652 3.851.903 1.286.278 2.53.419 3.816.437 1.213 0 2.38-.099 3.478-.293 1.12-.221 2.311-.516 3.514-.873 1.314-.371 3-.882 5.069-1.543 1.848-.588 3.339-1.582 4.442-2.953 1.093-1.383 1.802-3.369 2.104-5.897.315-3.194.034-4.821-.263-5.62-.473-1.211-1.017-2.188-1.601-2.881-.62-.725-1.47-1.43-2.506-2.085-1.182-.755-2.298-1.449-3.359-2.092-.911-.538-2.037-.893-3.431-1.079-.452-.048-.912-.076-1.348-.076z"/><path fill="#431C05" d="M145.743 39.724l-.207.188c-1.161.977-2.156 1.715-3.009 2.213-.276.168-.462.297-.533.371-.112.109-.165.24-.148.369.148 1.053.79 1.645 1.919 1.771.46.058 1.479-.037 3.066-.238.163-.018.293-.11.426-.277.423-.684.645-1.016.663-1.035.535-.793.812-1.347.833-1.625.017-.314.056-.572.127-.738.092-.165-.166-.426-.794-.756-.643-.353-1.441-.427-2.343-.243M137.396 49.968l.5.241c.684.017 1.514.017 2.513-.021.717-.017 1.235 0 1.548.074.131-.186.391-.46.74-.85.369-.369.667-.646.868-.811-.055-.092-.168-.389-.333-.887l-.222-.684c-.405-.188-.94-.26-1.627-.242l-.975.076c-.351.055-.812.387-1.386 1.016-.404.463-.938 1.164-1.626 2.088M129.762 39.591c-.978.405-1.771.736-2.382 1.016-1.161.534-1.715.941-1.678 1.236.034.203.221.426.572.663.427.296.719.61.924.942.167.314.424.443.737.389.387-.056 1.183-.131 2.382-.239.851-.094 1.7-.353 2.546-.796l.518.223.094.057.242-.092c.296-.132.757-.371 1.385-.759-.149-.203-.426-.905-.813-2.144-.352-1.052-.648-1.662-.869-1.807-1.015.236-1.716.46-2.139.662-.687.332-1.205.555-1.519.649M127.927 51.538c-.463-.036-.851-.074-1.185-.129-.574.258-1.274.514-2.121.756-.39.129-.758.239-1.09.332-.203.482-.481.869-.796 1.146-.276.2-.423.35-.405.424.054.535.591 1.034 1.567 1.533.868.46 1.479.665 1.812.609 1.126-.149 2.047-.389 2.768-.701.701-.315 1.387-.52 2.05-.609-.038-.205-.092-.87-.165-1.996-.016-.369-.038-.664-.056-.904-.629-.167-1.421-.332-2.379-.461"/><path fill="#7A4428" d="M134.74 61.177c-.572.074-1.885.35-3.952.83.036.572.071.905.091.998l-.073.094c.312.202 1.07.313 2.272.35 1.217.035 2.288-.02 3.213-.147-.075-.26-.021-.608.183-1.052l.297-.779c-.534-.091-1.016-.164-1.404-.219l-.478-.056-.149-.019"/><path fill="#431C05" d="M148.077 55.248c-.019-.349-.128-.776-.332-1.275-.403-.885-.94-1.438-1.588-1.66-.351-.13-.888-.186-1.603-.166-1.572 1.772-2.498 2.808-2.773 3.12-.388.443-.553.74-.498.904.257.572.905 1.07 1.938 1.516.535.203 1.037.37 1.533.462 1.977-1.349 3.046-2.142 3.215-2.345.09-.094.128-.28.108-.556"/><path fill="#984813" d="M139.52 38.388c.132-.146.185-.312.167-.496-.017-.188-.127-.334-.291-.426-.169-.113-.372-.148-.612-.113-.241.021-.425.113-.552.26-.147.148-.206.314-.187.498.017.188.127.334.313.426.165.092.369.129.61.111.238-.038.428-.131.552-.26M149.418 48.805c.131-.148.184-.316.169-.501-.021-.184-.129-.33-.295-.422-.168-.113-.37-.149-.61-.113-.242.02-.427.113-.557.262-.146.146-.201.312-.182.497.017.185.129.333.312.426.169.091.37.128.61.108.242-.036.427-.129.553-.257M129.014 59.939c.129-.149.184-.313.165-.498-.015-.185-.127-.334-.294-.427-.167-.111-.371-.146-.61-.111-.239.021-.426.111-.556.261-.143.146-.199.312-.183.498.021.185.132.333.312.427.166.092.371.127.611.108.242-.036.426-.129.555-.258M133.74 58.093c.13-.148.187-.314.169-.499-.021-.185-.128-.333-.297-.425-.165-.112-.367-.147-.608-.112-.242.021-.426.112-.555.262-.15.146-.201.311-.184.497.017.185.126.334.312.426.165.092.369.128.611.108.241-.037.424-.128.552-.257M124.176 47.882c.131-.149.183-.314.166-.501-.019-.186-.127-.333-.293-.425-.168-.109-.372-.146-.611-.109-.241.02-.427.109-.553.258-.149.148-.206.314-.185.498.019.186.129.334.311.428.169.09.374.125.61.108.242-.037.428-.13.555-.257M128.792 45.332c.13-.147.185-.313.164-.497-.017-.186-.127-.334-.293-.426-.166-.111-.369-.148-.608-.111-.242.02-.425.111-.557.26-.144.146-.204.312-.184.498.019.184.129.332.315.425.164.091.369.129.609.11.24-.035.425-.131.554-.259M131.749 48.712c.127-.148.182-.313.165-.498-.021-.187-.13-.332-.296-.426-.165-.109-.369-.146-.611-.109-.237.017-.425.109-.552.257-.148.147-.201.314-.187.499.02.184.132.332.313.425.168.093.371.129.61.11.244-.036.427-.129.558-.258"/><path fill="#4F2006" d="M96.819 50.257c-.462 0-.883-.283-1.029-.75l-.021-.055c-.18-.584.14-1.207.727-1.391.589-.182 1.205.141 1.389.723.185.583-.129 1.234-.716 1.42-.113.034-.231.053-.35.053z"/><path fill="#B66D13" d="M104.603 53.735c-.759-1.127-1.516-1.977-2.291-2.566-.758-.592-1.756-1.107-2.988-1.553-1.221-.461-2.386-.867-3.476-1.219-1.105-.35-2.383-.461-3.804-.313-1.423.129-2.604.462-3.544.978-1.535.352-3.064.723-4.562 1.128-1.496.406-2.938 1.087-4.302 2.05-1.349.979-2.182 1.79-2.492 2.475-1.203 1.272-2.128 2.529-2.733 3.765-1.129 2.219-1.387 4.675-.738 7.351.607 2.68 1.735 4.636 3.339 5.909 1.589 1.257 2.735 2.126 3.453 2.587.721.462 1.664.721 2.828.775 1.181.036 2.418.055 3.729.036 1.314-.019 2.569-.147 3.769-.404 1.199-.277 2.289-.61 3.27-1.035.979-.425 2.032-.942 3.122-1.532 1.089-.611 2.507-1.423 4.26-2.438 1.758-1.017 3.049-2.364 3.882-4.046.831-1.681 1.108-3.82.831-6.39-.278-2.585-.799-4.433-1.553-5.558"/><path fill="#6B3D1B" d="M85.978 76.425c-.949 0-1.866-.018-2.727-.045-1.414-.068-2.58-.397-3.489-.981-.74-.473-1.908-1.343-3.574-2.659-1.829-1.451-3.104-3.688-3.801-6.648-.696-2.975-.406-5.74.865-8.223.618-1.254 1.564-2.575 2.81-3.918.445-.848 1.359-1.742 2.844-2.791 1.462-1.042 3.039-1.798 4.674-2.241 1.342-.38 2.804-.743 4.448-1.106 1.062-.544 2.359-.898 3.865-1.057 1.638-.166 3.095-.033 4.354.395 1.087.352 2.273.765 3.515 1.234 1.342.48 2.47 1.068 3.332 1.742.892.68 1.768 1.648 2.584 2.865.878 1.332 1.446 3.333 1.745 6.126.304 2.814-.017 5.205-.956 7.104-.938 1.901-2.406 3.45-4.364 4.605-1.772 1.027-3.195 1.843-4.29 2.454-1.284.682-2.303 1.184-3.234 1.59-.999.43-2.146.793-3.517 1.108-1.261.273-2.609.42-4.025.438l-1.059.008zm7.245-27.142c-.343 0-.696.02-1.063.058-1.241.127-2.271.411-3.056.841-.108.061-.227.104-.346.132-1.667.361-3.132.725-4.484 1.107-1.352.367-2.648.99-3.864 1.857-1.609 1.136-1.986 1.73-2.075 1.934-.06.137-.144.264-.248.375-1.131 1.203-1.978 2.362-2.514 3.447-.99 1.938-1.208 4.107-.658 6.463.562 2.377 1.531 4.13 2.887 5.207 1.57 1.241 2.706 2.086 3.363 2.508.522.335 1.26.527 2.19.573.813.025 1.7.041 2.623.041l1.024-.006c1.242-.018 2.415-.144 3.49-.377 1.202-.276 2.204-.591 3.051-.957.865-.377 1.827-.85 3.025-1.489 1.062-.591 2.475-1.4 4.225-2.412 1.525-.903 2.625-2.053 3.344-3.515.717-1.45.954-3.359.703-5.676-.312-2.914-.894-4.308-1.325-4.965-.65-.971-1.331-1.731-2.009-2.249-.655-.511-1.538-.965-2.642-1.359-1.222-.461-2.365-.861-3.433-1.205-.657-.223-1.393-.333-2.208-.333z"/><path fill="#431C05" d="M95.197 50.95l-.148.166c-.848 1.127-1.606 2.014-2.271 2.622-.22.222-.368.37-.423.442-.057.129-.076.242-.036.37.35.905 1.033 1.312 2.066 1.201.426-.054 1.347-.333 2.733-.832.131-.054.242-.165.312-.351.242-.682.369-1.034.39-1.053.331-.83.479-1.366.424-1.626-.056-.294-.072-.534-.015-.701.051-.165-.243-.331-.892-.535-.644-.165-1.346-.054-2.14.297M91.822 60.197c-.28.499-.626 1.237-1.052 2.216l.516.111c.611-.111 1.349-.275 2.234-.518.648-.166 1.128-.239 1.421-.239.075-.204.24-.497.5-.921.256-.428.464-.723.61-.889l-.481-.757-.332-.574c-.406-.071-.904-.034-1.513.112l-.87.258c-.293.112-.643.52-1.033 1.201M80.545 55.118l-1.936 1.365c-.927.723-1.331 1.203-1.239 1.461.057.184.26.352.606.498.43.165.778.389 1.038.665.221.241.462.296.737.203.332-.128 1.035-.351 2.106-.685.737-.257 1.458-.682 2.139-1.272.17.056.353.093.52.11l.094.039.184-.113c.239-.203.609-.515 1.106-.979-.183-.166-.57-.758-1.162-1.771-.532-.868-.923-1.35-1.147-1.441-.866.425-1.458.756-1.808 1.016-.556.426-.96.738-1.238.904M82.571 65.719l-1.111.147c-.46.334-1.051.703-1.77 1.109-.329.185-.627.35-.906.498-.094.481-.256.867-.497 1.183-.204.259-.28.424-.258.479.165.463.737.832 1.717 1.093.867.203 1.461.257 1.753.164.978-.37 1.774-.758 2.348-1.18.57-.427 1.16-.758 1.731-.979l-.55-1.756-.241-.83c-.593-.021-1.331.016-2.216.072M103.874 63.464c-.09-.332-.296-.684-.571-1.07-.533-.721-1.128-1.127-1.771-1.199-.314-.038-.812.018-1.46.164-1.053 1.922-1.658 3.049-1.865 3.381-.259.48-.352.774-.259.905.353.463 1.015.792 2.034.96.517.112 1.014.148 1.476.129 1.511-1.625 2.327-2.549 2.417-2.77.057-.093.057-.26-.001-.5"/><path fill="#984813" d="M90.347 51.501c.09-.166.111-.315.053-.48-.053-.166-.184-.277-.35-.334-.165-.054-.352-.035-.555.039-.202.073-.347.184-.461.332-.094.164-.108.312-.058.479.058.167.188.279.354.333.203.057.388.057.59-.019.203-.074.351-.186.427-.35M101.332 58.96c.093-.165.108-.313.055-.479-.055-.166-.184-.279-.347-.333-.17-.056-.353-.038-.557.036-.202.074-.351.185-.46.334-.095.164-.111.312-.058.479.058.169.183.279.354.334.201.055.385.055.587-.021.206-.071.354-.184.426-.35M85.194 73.05c.093-.165.111-.313.055-.478-.055-.169-.186-.278-.35-.335-.165-.055-.354-.037-.558.037-.2.074-.348.185-.461.334-.09.164-.11.312-.056.479.056.166.183.277.351.334.206.055.391.055.591-.02.208-.074.354-.185.428-.351M89.07 70.465c.094-.165.11-.313.056-.479-.056-.167-.186-.28-.352-.335-.165-.055-.349-.035-.553.039s-.349.184-.463.332c-.09.165-.11.314-.052.479.052.167.184.28.349.335.204.056.388.056.592-.021.203-.072.348-.184.423-.35M78.397 63.153c.095-.168.109-.314.054-.48-.054-.166-.181-.278-.35-.333-.167-.056-.352-.038-.555.036-.201.076-.351.184-.463.334-.09.164-.109.312-.053.479.053.169.186.279.349.334.206.055.392.055.595-.02.202-.074.347-.184.423-.35M82.054 59.958c.092-.168.11-.314.056-.479-.056-.168-.185-.278-.351-.334-.166-.057-.353-.038-.552.036-.207.075-.355.187-.463.334-.094.165-.109.313-.058.479.058.167.185.278.353.333.203.058.389.058.591-.02.201-.071.349-.183.424-.349M85.394 62.395c.099-.165.114-.313.059-.479-.059-.167-.187-.278-.352-.333-.165-.057-.352-.035-.555.037-.202.074-.352.184-.462.332-.09.167-.108.314-.054.48.054.165.185.277.352.332.202.057.385.057.592-.02.198-.071.347-.184.42-.349"/></g></svg>