<?xml version="1.0" encoding="utf-8"?>
<!-- Generator: Adobe Illustrator 16.0.0, SVG Export Plug-In . SVG Version: 6.00 Build 0)  -->
<!DOCTYPE svg PUBLIC "-//W3C//DTD SVG 1.1//EN" "http://www.w3.org/Graphics/SVG/1.1/DTD/svg11.dtd">
<svg version="1.1" id="レイヤー_1" xmlns="http://www.w3.org/2000/svg" xmlns:xlink="http://www.w3.org/1999/xlink" x="0px"
	 y="0px" width="587.905px" height="483.997px" viewBox="0 0 587.905 483.997" enable-background="new 0 0 587.905 483.997"
	 xml:space="preserve">
<g>
	<defs>
		<path id="SVGID_1_" d="M587.905,207.134c0-48.964-34.091-89.964-79.833-100.562c-2.739-54.565-47.849-97.966-103.095-97.966
			c-29.802,0-56.649,12.636-75.493,32.835C310.659,16.283,280.624,0,246.784,0c-40.878,0-76.201,23.761-92.922,58.222
			c-9.93-3.178-20.512-4.9-31.495-4.9c-57.01,0-103.227,46.216-103.227,103.226c0,22.143,6.976,42.654,18.843,59.464
			C14.803,234.941,0,263.743,0,296.003c0,57.01,46.216,103.225,103.225,103.225c0.779,0,1.553-0.012,2.326-0.028
			c8.689,48.216,50.861,84.797,101.583,84.797c27.501,0,52.489-10.757,70.99-28.29c17.432,13.449,39.277,21.455,62.997,21.455
			c30.679,0,58.226-13.387,77.133-34.634c11.425,4.358,23.819,6.752,36.774,6.752c57.009,0,103.226-46.216,103.226-103.226
			c0-19.725-5.534-38.154-15.132-53.828C570.169,273.615,587.905,242.449,587.905,207.134z"/>
	</defs>
	<clipPath id="SVGID_2_">
		<use xlink:href="#SVGID_1_"  overflow="visible"/>
	</clipPath>
	<g clip-path="url(#SVGID_2_)">
		<g>
			<path fill="#1E95D4" d="M427.265,410.002c0.89-7.808,1.082-15.585,0.525-23.339c-0.441-7.178-1.306-11.398-2.52-12.674
				L405.177,333c-7.115-6.338-14.341-11.699-21.597-16.027c-5.111,0.096-10.386-0.49-15.957-1.761
				c-3.408-0.725-6.73-0.892-10.105-0.507c-16.763,1.963-31.818-0.63-45.146-7.834c-0.241,0.043-0.441,0.114-0.65,0.197
				c-11.026,3.914-19.659,9.619-25.811,17.109c-5.779,7.102-7.124,12.534-4.033,16.305c7.982,9.557,16.197,12.436,24.713,8.566
				c2.411-1.15,5.556-3.221,9.474-6.318c1.005-0.797,1.948-1.516,2.867-2.134c-1.073,0.929-2.179,2.114-3.415,3.497
				c-4.174,4.455-7.612,9.469-10.256,15.088c-7.479,15.549-5.981,27.667,4.421,36.348c5.077,5.228,12.279,3.475,21.638-5.297
				c9.396-10.67,15.146-16.866,17.155-18.663c-9.946,15.113-15.826,26.881-17.696,35.231c-3.139,13.856,1.677,23.932,14.527,30.218
				c5.656,2.757,13.594-0.922,23.762-11.065c9.344-9.391,14.266-16.43,14.698-21.104c0.998,8.363,2.938,15.936,5.889,22.718
				c4.618,10.427,10.587,15.557,17.983,15.383C418.196,442.675,424.753,431.684,427.265,410.002"/>
			<path fill="#1E95D4" d="M357.518,314.705c3.375-0.385,6.697-0.218,10.105,0.503c5.571,1.274,10.846,1.86,15.957,1.765
				c-9.935-5.898-20.022-9.998-30.223-12.189c-14.272-3.129-27.966-2.445-40.986,2.088
				C325.699,314.075,340.755,316.667,357.518,314.705"/>
			<path fill="#1E95D4" d="M395.909,312.528l-1.537-1.71c-3.351,1.006-5.993,1.816-7.948,2.398
				c-0.742,0.439-1.632,0.743-2.651,1.052c-0.146-0.063-0.285-0.06-0.416,0.013c-2.598,0.984-4.729,2.264-6.344,3.768l4.087,4.431
				c0.75-0.166,1.232-0.249,1.438-0.324c0.008,0.204-0.023,0.378-0.156,0.593c-0.301,0.25-0.569,0.533-0.797,0.854
				c1.556,0.327,3.065,0.731,4.565,1.128c1.128,2.873,0.866,5.504-0.784,7.908c-0.093,1.59,0.881,3.91,3.021,6.922
				c-4.03,4.584-7.016,8.344-8.894,11.275c-0.066,0.138,0.097,0.756,0.508,1.878c0.553-0.087,0.859-0.13,0.898-0.095l0.935-1.064
				c1.622-2.023,4.527-5.127,8.679-9.269c0.938,1.214,2.085,2.491,3.306,3.833c2.327,2.584,7.435,7.708,15.282,15.266
				c-0.622,1.016-1.658,3.195-3.212,6.49l2.037,1.908c-0.243,1.252-0.37,2.467-0.437,3.676l0.398-0.634l2.894,1.841l3.185-4.039
				l0.067,0.064c-0.06,0.207-0.153,0.592-0.269,1.082l4.744,3.717c0.401-0.5,2.372-2.395,5.865-5.687
				c0.303-0.321,0.604-0.642,0.869-0.925c0.328-0.43,0.793-1.133,1.418-2.088c0.996-1.205,1.696-2.092,2.126-2.692l0.494,0.395
				c0.303-0.458,0.56-0.882,0.754-1.301c0.096-0.108,0.057-0.415-0.136-0.997c-0.27-0.859-0.277-2.133,0.016-3.804l0.893-1.171
				l-4.749-3.715l-3.123,3.83l-0.114-0.375c0.062-1.212,0.41-2.359,0.988-3.482c0-0.071,0.032-0.107,0.032-0.174
				c1.482-2.227,2.569-3.891,3.261-4.982c1.563-0.744,3.237-1.381,4.983-1.818c0.487,0.26,1.021,0.554,1.476,0.85
				c0.032-0.107,0.102-0.175,0.14-0.209c0.75-1.234,1.646-4.479,2.682-9.801l-4.481-4.066c-1.007,1.068-2.504,2.67-4.475,4.775
				c-1.705,1.816-3.106,3.449-4.161,4.933l-0.058-0.651l0.699-0.959l-4.749-4.511c0.479-2.36,0.865-4.276,1.236-5.745
				c0.533-2.639,0.819-4.652,0.873-6.072l-4.49-4.205c0.523-1.058,0.843-1.759,0.936-2.137c0.34-1.223,0.088-2.391-0.641-3.542
				l-4.542-3.861c-0.559,0.015-1.447,0.32-2.737,0.913c-1.369,0.602-2.357,0.947-2.937,1.065l-7.029-5.718l0.997-1.274l-1.141-1.071
				C399.179,307.828,397.946,310.285,395.909,312.528 M406.849,350.361l-0.244-0.166c-0.939-1.211-1.994-2.662-3.078-4.285
				c-1.203-1.797-1.965-2.912-2.258-3.383l0.997-1.145c0.988,0.594,1.938,2.086,2.882,4.439
				C405.673,347.048,406.198,348.552,406.849,350.361"/>
			<path fill="#074691" d="M432.882,367.935c0.201-0.28,0.303-0.393,0.332-0.424l-3.933-3.019l-0.494-0.395
				c-0.43,0.601-1.13,1.487-2.126,2.689c-0.625,0.958-1.09,1.661-1.413,2.091c0,0.065-0.036,0.102-0.071,0.137
				c-0.293,0.598-0.207,1.215,0.234,1.895c0.322,0.506,0.447,0.951,0.419,1.263l-0.057,0.142c0,0.068-0.04,0.105-0.04,0.174
				c-0.185,0.42-0.176,0.836,0.118,1.238l0.253,0.445c0.214,1.13,0.615,4.055,1.183,8.808c0.604,4.716,0.804,9.858,0.568,15.461
				c-0.235,5.606-0.479,9.657-0.671,12.222c-0.198,2.426-0.577,4.685-1.096,6.742c-1.144,4.147-2.449,7.746-4.006,10.773
				c-0.355,0.805-0.745,1.574-1.136,2.35l5.774,5.41c1.64-2.814,3.017-6.145,4.205-10.055c0.758-2.307,1.365-4.811,1.901-7.453
				l0.232-0.188l0.624-2.088c0-0.139-0.006-0.277-0.006-0.344l0.062-0.004l0.034-0.102c0.059-0.283,0.089-0.457,0.043-0.631v-0.064
				c1.538-16.637,1.685-29.222,0.439-37.682c-0.045-0.312-0.053-0.584-0.062-0.929c-0.039-0.108-0.039-0.175-0.045-0.241
				c-0.052-0.518-0.171-1.034-0.295-1.619c0.065-0.072,0.141-0.138,0.202-0.209c-0.069-0.066-0.178-0.1-0.283-0.135l0.495-0.669
				c0.09-0.589-0.074-1.345-0.515-2.228c-0.409-0.789-0.562-1.332-0.401-1.649c0.228-0.456,0.395-0.701,0.494-0.739
				c0.105,0.029,0.179,0.025,0.24-0.045L432.882,367.935z M428.987,413.091c0.038,0.031,0.108,0.099,0.108,0.17
				C429.096,413.19,429.025,413.123,428.987,413.091"/>
			<path fill="#074691" d="M383.772,314.271c1.02-0.314,1.909-0.617,2.655-1.053c1.29-0.736,2.16-1.662,2.64-2.889l-3.335-3.727
				c-2.623,0.016-4.596,0.119-5.971,0.226c-0.486,0.02-0.931,0.071-1.344,0.15c-1.792-0.94-3.268-1.659-4.35-2.138
				c-0.704-0.324-1.374-0.545-1.934-0.73c-0.104-0.104-0.169-0.17-0.212-0.273c-1.65-0.742-3.365-1.416-5.213-2.072
				c-0.841-0.324-1.719-0.672-2.665-1.02c-4.404-1.522-9.146-2.956-14.23-4.174c-12.794-3.214-26.23-2.021-40.25,3.52
				c-1.869,0.716-3.756,1.5-5.517,2.314c-1.717,0.746-3.307,1.527-4.908,2.373c-0.031,0.031-0.062,0.069-0.13,0.144
				c-0.882,0.714-1.685,1.227-2.373,1.526c0.008,0.066,0.046,0.17,0.046,0.24c-1.521,1.054-2.975,2.1-4.398,3.25l5.713,5.348
				c0.943-0.789,1.878-1.515,2.827-2.168c0.556-0.087,1.098-0.379,1.671-0.778c0.5-0.396,0.911-0.686,1.252-0.974l0.029,0.034
				l1.215-0.937c0.239-0.113,0.517-0.261,0.78-0.336c1.639-0.68,3.214-1.215,4.722-1.74c4.774-1.887,9.496-3.215,14.134-4.092
				c4.675-0.908,10.571-1.205,17.703-0.955c3.98,0.395,7.905,1.059,11.847,2.076c2.72,0.671,5.4,1.446,8.067,2.396
				c3.455,1.238,6.925,2.746,10.401,4.538c0.248,0.091,0.495,0.186,0.739,0.353c1.301,0.617,2.562,1.332,3.801,2.154
				c0.034,0.037,0.104,0.109,0.146,0.137l0.104-0.035c0.21,0.129,0.455,0.295,0.665,0.428c-0.038-0.172-0.117-0.307-0.186-0.445
				c1.166-0.178,2.991-0.407,5.44-0.661C383.487,314.21,383.63,314.207,383.772,314.271"/>
			<path fill="#074691" d="M305.948,359.295c0.039-0.036,0.077-0.071,0.101-0.105c2.997-5.7,6.56-10.929,10.827-15.694
				c1.304-1.457,2.54-2.779,3.717-3.956c-0.287,0.075-1.862,1.271-4.898,3.578c-3.038,2.312-5.982,4.169-8.91,5.577
				c-1.979,0.891-3.51,1.461-4.646,1.604c-0.518,0.118-1.477,0.217-2.897,0.23c-0.077,0.004-0.209,0.004-0.28,0.012l-0.028-0.037
				c-0.598-0.087-1.224-0.133-1.847-0.182l-1.106-0.312c-0.046-0.027-0.046-0.027-0.076-0.062c-0.102-0.032-0.21-0.062-0.309-0.024
				l-0.041-0.034l-0.029-0.034c-0.04-0.035-0.04-0.035-0.069-0.065c-0.049-0.037-0.049-0.037-0.077-0.067
				c-3.254-1.243-5.789-2.751-7.644-4.487c-0.464-0.436-0.721-0.673-0.787-0.803c-0.325-0.578-1.624-2.196-3.958-4.919l-0.008-0.071
				l-0.03-0.03c-0.974-1.246-1.478-2.714-1.461-4.372c0-0.072,0.032-0.111,0.032-0.18c0.548-2.297,1.714-4.684,3.498-7.16
				c0.736-0.928,1.5-1.746,2.273-2.494c3.671-3.848,7.263-7.18,10.703-9.918l-5.713-5.35c-5.083,4.006-9.402,8.324-13.013,13.037
				c-2.348,3.082-4.018,6.074-4.991,9.041c0.193,1.863,0.264,3.938,0.264,6.149c0.494,1.189,1.019,2.556,1.622,4.127
				c0.146,0.339,0.264,0.718,0.379,1.023c1.159,1.827,2.713,3.68,4.628,5.413c6.306,5.775,11.825,8.533,16.624,8.344l0.028,0.031
				c0.18-0.035,1.136-0.138,2.929-0.332c0.38-0.047,0.759-0.096,1.067-0.137c-0.031,0.03-0.07,0.07-0.1,0.105
				c-0.101,0.174-0.533,0.637-1.269,1.352c-0.331,0.361-0.602,0.643-0.803,0.856c-0.031,0.034-0.101,0.106-0.132,0.212
				c-0.132,0.211-0.362,0.461-0.633,0.812c-0.062,0.144-0.154,0.317-0.263,0.427c-0.132,0.211-0.293,0.461-0.564,0.74
				c-6.483,17.283-4.328,30.691,6.6,40.191c5.857,5.955,12.418,6.814,19.604,2.643c-0.579,2.197-1.105,4.388-1.452,6.548
				l0.008,0.063c-2.188,14.758,2.921,25.102,15.237,31.025c12.467,6.056,23.608,3.172,33.454-8.543
				c3.995-4.768,7.381-9.092,10.092-12.91c0.851,4.012,2.234,8.189,4.104,12.547c4.327,10.021,12.294,14.808,23.78,14.332
				c7.231-0.062,12.987-3.772,17.235-11.096l-5.771-5.414c-2.842,5.244-6.514,8.091-11.13,8.518l-0.031-0.035
				c-0.383-0.018-0.829,0.027-1.24,0.111c-0.043-0.031-0.043-0.031-0.07,0.003c-2.928,0.267-5.61-0.303-8.106-1.708
				c-3.337-1.652-5.886-4.51-7.674-8.53c-0.116-0.306-0.224-0.608-0.371-0.819c-0.626-1.188-1.263-2.512-1.822-4.052
				c-2.956-6.92-4.765-14.769-5.504-23.633c-0.531,4.993-5.633,12.798-15.308,23.479c-0.772,0.751-1.506,1.54-2.21,2.283
				c-0.533,0.638-1.027,1.313-1.561,1.956c-2.829,3.299-5.728,5.609-8.755,6.985c-4.676,2.985-8.595,3.731-11.748,2.314
				c-5.957-2.575-10.191-6.203-12.68-10.821c-2.411-3.934-3.199-8.811-2.379-14.75c0.176-1.696,0.469-3.504,0.856-5.417
				c0.446-2.052,1.144-4.288,2.031-6.665c-0.077,0.004-0.177-0.028-0.238-0.028c3.323-8.19,9.111-18.504,17.349-30.937
				c-2.08,2.002-8.214,8.834-18.415,20.5c-2.582,2.474-4.999,4.479-7.242,6.006h-0.061c-6.021,4.139-10.888,4.328-14.567,0.613
				c-9.551-7.815-11.406-19.262-5.502-34.414h0.069c0-0.07-0.008-0.139,0.024-0.179c0.069,0,0.139-0.071,0.208-0.075
				c0.093-0.24,0.186-0.491,0.356-0.73C305.693,359.718,305.917,359.33,305.948,359.295"/>
			<path fill="#053980" d="M390.913,304.872c0.309-0.251,0.65-0.472,0.982-0.688l-0.179-0.234l-0.943,0.723L390.913,304.872z"/>
			<path fill="#053980" d="M391.896,304.183c-0.332,0.217-0.674,0.434-0.982,0.688l0.545,0.642l0.917-0.688L391.896,304.183z"/>
			<path fill="#F4D924" d="M389.653,213.848l23.568,0.974c12.297,0.703,23.57,1.862,33.922,3.531l-0.193,1.066
				c18.288,3.848,27.423,8.439,27.423,13.825c0,5.34-9.135,9.884-27.423,13.64c-13.773,2.836-29.646,4.598-47.509,5.386
				l-0.051,0.046c-3.615,2.271-5.425,4.83-5.425,7.705c0,8.678,10.72,13.036,32.109,13.036c7.463,0,14.755-0.413,21.854-1.206
				c5.799,9.421,10.207,20.788,13.224,34.103c2.926,12.759,4.363,32.993,4.363,60.692c0,27.703-6.54,46.494-19.628,56.424
				c-13.184,9.885-27.186,16.238-42.085,18.975c3.015,1.256,5.383,2.458,7.141,3.666c19.267-2.135,35.919-6.54,50.021-13.267
				c2.364-1.159,4.683-2.417,6.911-3.669c0.152-0.047,0.329-0.138,0.511-0.276c5.344-3.019,10.216-6.448,14.709-10.304
				c20.471-17.4,30.718-40.645,30.718-69.828c0-20.33-4.08-45.891-12.201-76.7c-1.159-4.595-2.41-9.046-3.714-13.415
				c-2.781,1.205-5.567,2.326-8.349,3.392c-2.18,1.021-4.452,1.998-6.917,2.972c-3.014,1.066-6.212,2.18-9.606,3.246l-0.139-0.65
				c3.203-0.884,6.406-1.9,9.513-2.967c2.374-0.792,4.78-1.623,7.149-2.601c1.576-0.695,2.643-2.688,3.244-6.081
				c-0.877,0.648-1.807,1.297-2.782,1.947c-2.224,1.445-4.729,2.79-7.464,4.134c-2.002,1.021-4.181,1.998-6.457,2.972
				c-2.735,1.066-5.703,2.18-8.863,3.246c-1.58,0.56-3.149,1.065-4.778,1.579c1.629-0.514,3.198-1.02,4.778-1.579
				c3.16-1.066,6.128-2.18,8.863-3.246c2.276-0.974,4.455-1.951,6.457-2.972c2.735-1.344,5.24-2.688,7.464-4.134
				c0.976-0.65,1.905-1.299,2.782-1.947c0.511-3.014,0.703-7.148,0.472-12.387c1.199,3.986,2.172,7.186,2.922,9.604
				c2.597-2.504,4.493-5.062,5.702-7.696c0.928-2.188,1.392-4.467,1.392-6.731c0-10.355-9.694-19.312-29.048-26.916
				c-2.228-0.88-10.344-2.696-24.404-5.339c-14.01-2.736-28.855-4.544-44.585-5.424c-0.981-0.094-1.905-0.14-2.79-0.186
				l-8.585-0.325c-4.354-0.139-8.763-0.185-13.179-0.185l-18.324,0.371c-2.083,0.093-4.129,0.186-6.219,0.325
				c-15.448,0.742-29.365,2.179-41.753,4.358c-0.331,0.053-0.704,0.139-1.027,0.232c9.326,0.509,18.469,2.14,27.332,4.876
				c4.127,1.298,7.792,2.735,11.089,4.312c3.393-0.187,6.87-0.278,10.44-0.325l17.355-0.371h1.064
				C383.665,213.755,386.678,213.801,389.653,213.848"/>
			<path fill="none" stroke="#F4D924" stroke-width="1.9229" d="M389.653,213.848l23.568,0.974
				c12.297,0.703,23.57,1.862,33.922,3.531l-0.193,1.066c18.288,3.848,27.423,8.439,27.423,13.825c0,5.34-9.135,9.884-27.423,13.64
				c-13.773,2.836-29.646,4.598-47.509,5.386l-0.051,0.046c-3.615,2.271-5.425,4.83-5.425,7.705c0,8.678,10.72,13.036,32.109,13.036
				c7.463,0,14.755-0.413,21.854-1.206c5.799,9.421,10.207,20.788,13.224,34.103c2.926,12.759,4.363,32.993,4.363,60.692
				c0,27.703-6.54,46.494-19.628,56.424c-13.184,9.885-27.186,16.238-42.085,18.975c3.015,1.256,5.383,2.458,7.141,3.666
				c19.267-2.135,35.919-6.54,50.021-13.267c2.364-1.159,4.683-2.417,6.911-3.669c0.152-0.047,0.329-0.138,0.511-0.276
				c5.344-3.019,10.216-6.448,14.709-10.304c20.471-17.4,30.718-40.645,30.718-69.828c0-20.33-4.08-45.891-12.201-76.7
				c-1.159-4.595-2.41-9.046-3.714-13.415c-2.781,1.205-5.567,2.326-8.349,3.392c-2.18,1.021-4.452,1.998-6.917,2.972
				c-3.014,1.066-6.212,2.18-9.606,3.246l-0.139-0.65c3.203-0.884,6.406-1.9,9.513-2.967c2.374-0.792,4.78-1.623,7.149-2.601
				c1.576-0.695,2.643-2.688,3.244-6.081c-0.877,0.648-1.807,1.297-2.782,1.947c-2.224,1.445-4.729,2.79-7.464,4.134
				c-2.002,1.021-4.181,1.998-6.457,2.972c-2.735,1.066-5.703,2.18-8.863,3.246c-1.58,0.56-3.149,1.065-4.778,1.579
				c1.629-0.514,3.198-1.02,4.778-1.579c3.16-1.066,6.128-2.18,8.863-3.246c2.276-0.974,4.455-1.951,6.457-2.972
				c2.735-1.344,5.24-2.688,7.464-4.134c0.976-0.65,1.905-1.299,2.782-1.947c0.511-3.014,0.703-7.148,0.472-12.387
				c1.199,3.986,2.172,7.186,2.922,9.604c2.597-2.504,4.493-5.062,5.702-7.696c0.928-2.188,1.392-4.467,1.392-6.731
				c0-10.355-9.694-19.312-29.048-26.916c-2.228-0.88-10.344-2.696-24.404-5.339c-14.01-2.736-28.855-4.544-44.585-5.424
				c-0.981-0.094-1.905-0.14-2.79-0.186l-8.585-0.325c-4.354-0.139-8.763-0.185-13.179-0.185l-18.324,0.371
				c-2.083,0.093-4.129,0.186-6.219,0.325c-15.448,0.742-29.365,2.179-41.753,4.358c-0.331,0.053-0.704,0.139-1.027,0.232
				c9.326,0.509,18.469,2.14,27.332,4.876c4.127,1.298,7.792,2.735,11.089,4.312c3.393-0.187,6.87-0.278,10.44-0.325l17.355-0.371
				h1.064C383.665,213.755,386.678,213.801,389.653,213.848z"/>
			<path fill="#CFB819" d="M413.222,214.822l-23.568-0.974c-2.976-0.046-5.988-0.092-9.005-0.092h-1.064l-17.355,0.371
				c-2.183,0.093-4.359,0.185-6.499,0.325c-5.007,0.231-9.837,0.61-14.521,1.113c-9.705,0.88-18.561,2.186-26.683,3.855
				c-18.322,3.848-27.464,8.439-27.464,13.825c0,5.34,9.142,9.884,27.464,13.64c11.273,2.373,23.94,4.087,38.05,5.061l27.008,0.695
				h1.064c3.109,0,6.215-0.045,9.276-0.092l6.405-0.14c0.697-0.046,1.399-0.046,2.089-0.093c0.323,0,0.646,0,0.972-0.046h0.051
				c17.862-0.788,33.735-2.55,47.509-5.378c18.288-3.764,27.423-8.308,27.423-13.648c0-5.385-9.135-9.977-27.423-13.825
				C436.839,217.333,425.61,215.803,413.222,214.822"/>
			<path fill="#F4D924" d="M447.929,271.851c-7.103,0.793-14.386,1.206-21.854,1.206c-21.39,0-32.113-4.358-32.113-13.036
				c0-2.875,1.813-5.434,5.429-7.705l0.055-0.046h-0.055c-0.321,0.046-0.648,0.046-0.972,0.046
				c-0.692,0.047-1.392,0.047-2.089,0.093l-6.405,0.14c-3.056,0.047-6.167,0.092-9.273,0.092h-1.069l-27.01-0.695
				c-14.099-0.974-26.765-2.688-38.046-5.061c-18.33-3.756-27.464-8.3-27.464-13.64c0-5.385,9.134-9.977,27.464-13.825
				c8.122-1.669,16.984-2.975,26.675-3.855l-0.502-5.425c-8.863-2.744-18.006-4.367-27.332-4.876
				c-0.835,0.139-1.669,0.286-2.55,0.425c-13.269,2.55-20.511,4.034-21.723,4.543c-21.475,7.844-32.194,17.218-32.194,28.122
				c0,5.518,2.737,10.618,8.169,15.401c0.177,0.139,0.416,0.324,0.643,0.557c1.908,1.576,4.124,3.106,6.683,4.645
				c5.433,3.105,12.303,6.078,20.604,8.906c2.085,0.742,4.272,1.441,6.452,2.043c-2.18-0.602-4.367-1.301-6.452-2.043
				c-8.301-2.828-15.171-5.801-20.604-8.906c-2.559-1.538-4.774-3.068-6.683-4.645l-1.532,1.994
				c-2.502,7.287-4.173,12.395-4.961,15.362c-8.16,30.81-12.248,56.373-12.248,76.696c0,29.188,10.255,52.432,30.718,69.834
				c4.312,3.664,9.041,6.964,14.104,9.879l6.267,3.438c20.648,10.348,46.861,15.498,78.744,15.498
				c1.198,0.044,2.403,0.044,3.659,0.044h1.812c0.603-0.044,1.205-0.044,1.854-0.044c2.082,0,4.134,0,6.174-0.049
				c7.187-0.231,14.103-0.647,20.641-1.253c-1.761-1.205-4.122-2.41-7.141-3.663c14.896-2.738,28.901-9.093,42.081-18.976
				c13.087-9.932,19.628-28.725,19.628-56.43c0-27.699-1.434-47.928-4.362-60.686C458.136,292.639,453.724,281.272,447.929,271.851"
				/>
			<path fill="#F4D924" d="M496.188,252.78c-1.024,0.927-2.137,1.854-3.394,2.782c-0.598,3.396-1.668,5.386-3.244,6.081
				c2.781-1.065,5.563-2.183,8.353-3.392C497.853,258.112,497.254,256.304,496.188,252.78"/>
			<path fill="#F4D924" d="M492.794,255.562c1.257-0.928,2.369-1.855,3.394-2.782c-0.75-2.419-1.723-5.618-2.922-9.604
				C493.497,248.414,493.305,252.548,492.794,255.562"/>
			<path fill="#F4D924" d="M472.888,267.21l0.139,0.65c3.395-1.066,6.593-2.18,9.606-3.246c2.461-0.974,4.737-1.951,6.917-2.972
				c-2.367,0.978-4.78,1.809-7.149,2.601C479.294,265.31,476.096,266.327,472.888,267.21"/>
			<path fill="#F5E529" d="M313.367,205.263c0.323-0.093,0.696-0.179,1.027-0.232c12.388-2.179,26.305-3.616,41.753-4.358
				c2.087-0.14,4.129-0.232,6.219-0.325c-3.062,0.047-6.126,0.14-9.231,0.325c-16.656,0.742-31.693,2.179-45.008,4.358
				C309.89,205.084,311.65,205.124,313.367,205.263"/>
			<path fill="#F4D924" d="M291.931,428.173l-0.372,0.883c-0.276,1.437-0.417,2.829-0.417,4.269c0,11.555,8.68,20.971,25.988,28.207
				c17.349,7.239,38.326,10.86,62.915,10.86c12.201,0,23.572-0.881,34.11-2.69c2.644-3.669,3.944-7.24,3.944-10.671
				c0-5.246-1.909-9.372-5.714-12.439c-0.422-0.325-0.877-0.605-1.442-0.881c-6.538,0.604-13.45,1.02-20.646,1.253
				c-2.035,0.046-4.082,0.046-6.177,0.046c-0.642,0-1.244,0-1.847,0.045h-1.816c-1.248,0-2.457,0-3.655-0.045
				c-31.883,0-58.096-5.149-78.744-15.497C295.965,430.446,293.931,429.333,291.931,428.173"/>
			<path fill="#F4D924" d="M410.943,445.71c0.565,0.275,1.021,0.558,1.445,0.883c3.802,3.065,5.711,7.191,5.711,12.439
				c0,3.429-1.301,7.002-3.944,10.666c10.436-1.809,20.04-4.546,28.758-8.167c17.355-7.236,26.034-16.652,26.034-28.206
				c0-1.535-0.139-3.065-0.464-4.598l-0.602,0.049v1.301v-1.301c-2.234,1.25-4.553,2.508-6.914,3.663
				C446.862,439.17,430.21,443.576,410.943,445.71"/>
			<path fill="none" stroke="#F4D924" stroke-width="1.9229" d="M410.943,445.71c0.565,0.275,1.021,0.558,1.445,0.883
				c3.802,3.065,5.711,7.191,5.711,12.439c0,3.429-1.301,7.002-3.944,10.666c10.436-1.809,20.04-4.546,28.758-8.167
				c17.355-7.236,26.034-16.652,26.034-28.206c0-1.535-0.139-3.065-0.464-4.598l-0.602,0.049v1.301v-1.301
				c-2.234,1.25-4.553,2.508-6.914,3.663C446.862,439.17,430.21,443.576,410.943,445.71z"/>
			
				<path fill="none" stroke="#0E0205" stroke-width="7.4225" stroke-linecap="round" stroke-linejoin="round" stroke-miterlimit="10" d="
				M468.392,428.5c-0.187,0.141-0.363,0.227-0.51,0.275 M496.188,252.78c2.597-2.504,4.489-5.062,5.708-7.696
				c0.922-2.188,1.386-4.467,1.386-6.731c0-10.355-9.698-19.312-29.046-26.916c-2.229-0.88-10.35-2.696-24.406-5.339
				c-14.01-2.736-28.857-4.544-44.588-5.424c-0.975-0.094-1.902-0.14-2.789-0.186l-8.578-0.325
				c-4.362-0.139-8.771-0.185-13.184-0.185l-18.324,0.371c-2.09,0.093-4.132,0.186-6.219,0.325
				c-15.448,0.742-29.365,2.179-41.753,4.358c-0.331,0.053-0.704,0.139-1.027,0.236c-0.835,0.135-1.669,0.282-2.55,0.421
				c-13.269,2.55-20.511,4.034-21.723,4.543c-21.475,7.844-32.194,17.218-32.194,28.122c0,5.518,2.737,10.618,8.169,15.401
				 M468.392,428.5c5.334-3.018,10.207-6.451,14.709-10.307c20.463-17.4,30.713-40.641,30.713-69.828
				c0-20.324-4.08-45.893-12.197-76.698c-1.163-4.595-2.414-9.046-3.723-13.415c-0.037-0.14-0.646-1.947-1.706-5.472
				 M462.449,269.44c1.629-0.514,3.198-1.02,4.782-1.579c3.156-1.066,6.124-2.18,8.864-3.246c2.275-0.974,4.45-1.951,6.452-2.968
				c2.731-1.348,5.24-2.692,7.47-4.138c0.973-0.65,1.905-1.299,2.776-1.947c1.261-0.928,2.365-1.855,3.394-2.782 M299.45,269.904
				c-2.18-0.602-4.367-1.301-6.452-2.043c-8.301-2.828-15.171-5.801-20.604-8.906c-2.551-1.538-4.774-3.068-6.676-4.645
				c-0.233-0.232-0.473-0.418-0.649-0.557 M265.069,253.753c-0.325,0.834-0.602,1.67-0.89,2.551
				c-2.502,7.287-4.173,12.395-4.961,15.362c-8.16,30.806-12.248,56.374-12.248,76.698c0,29.188,10.255,52.428,30.718,69.828
				c4.312,3.67,9.041,6.966,14.104,9.885 M291.551,429.054l0.38-0.883 M467.882,428.775c-2.234,1.254-4.553,2.508-6.917,3.666
				c-14.103,6.728-30.761,11.138-50.021,13.266c-6.538,0.609-13.454,1.025-20.646,1.256c-2.035,0.047-4.087,0.047-6.177,0.047
				c-0.642,0-1.244,0-1.847,0.047h-1.809c-1.26,0-2.465,0-3.663-0.047c-31.883,0-58.096-5.147-78.744-15.493
				c-2.087-1.069-4.128-2.182-6.128-3.345 M291.931,428.171c-0.047-0.047-0.094-0.047-0.139-0.094 M291.792,428.078
				c-0.14,0.328-0.186,0.648-0.241,0.977 M291.551,429.054c-0.269,1.436-0.409,2.828-0.409,4.271c0,11.552,8.68,20.968,25.98,28.21
				c17.364,7.24,38.329,10.86,62.923,10.86c12.205,0,23.572-0.887,34.105-2.694c10.44-1.812,20.045-4.547,28.763-8.166
				c17.355-7.242,26.034-16.658,26.034-28.21c0-1.533-0.139-3.062-0.464-4.599c-0.047-0.086-0.092-0.182-0.092-0.227
				 M467.882,430.08v-1.305 M379.582,213.755l-17.354,0.371c-2.188,0.093-4.359,0.185-6.499,0.325
				c-5.011,0.231-9.837,0.61-14.528,1.113c-9.69,0.88-18.553,2.186-26.675,3.855c-18.33,3.848-27.464,8.439-27.464,13.825
				c0,5.34,9.134,9.884,27.464,13.64c11.281,2.373,23.947,4.087,38.046,5.061l27.01,0.695h1.069c3.106,0,6.218-0.045,9.273-0.092
				l6.405-0.14c0.697-0.046,1.396-0.046,2.089-0.093c0.323,0,0.65,0,0.972-0.046h0.055c17.862-0.788,33.726-2.55,47.509-5.378
				c18.284-3.764,27.419-8.308,27.419-13.648c0-5.385-9.135-9.977-27.419-13.825c-10.115-2.086-21.34-3.616-33.732-4.598
				l-23.571-0.974c-2.973-0.046-5.985-0.092-8.999-0.092"/>
			<path fill="#C11920" d="M446.492,318.021c-1.067-1.068-2.32-1.533-3.854-1.488h-0.046c-2.554,0.091-6.866,0.793-12.854,2.088
				c-5.895,1.209-8.864,1.81-8.903,1.81c-0.093,0-0.193,0-0.23,0.048c-4.97,1.578-7.339,3.854-7.204,6.864
				c0,0.886,0.146,1.721,0.426,2.412c-0.279,0.053-0.604,0.192-0.927,0.329l-14.243,4.223c-2.696,0.695-4.041,2.547-4.041,5.566
				c0,1.669,0.464,3.062,1.392,4.221h0.045c0.976,1.211,2.227,1.812,3.713,1.812c0.562,0,1.021-0.047,1.387-0.095v2.317h10.542
				v-5.52l3.431-0.785c-0.787,0.973-1.202,2.318-1.202,4.035c0,0.835,0.09,1.578,0.322,2.27h20.88
				c3.292-1.016,5.56-1.945,6.819-2.824h-0.05c1.72-1.162,2.596-2.785,2.596-4.922c0-1.579-0.456-2.968-1.429-4.221
				c-0.976-1.255-2.234-1.855-3.761-1.855c-0.884,0-1.77,0.28-2.554,0.786h-0.139c-0.974,0.697-3.903,1.674-8.679,2.925v-7.143
				c7.287-1.721,12.302-2.646,15.034-2.789c1.526-0.092,2.693-0.555,3.529-1.344c0.045,7.101,4.685,12.711,13.919,16.891
				c3.203,1.439,5.382,2.971,6.635,4.496h11.128c-1.108-6.396-5.7-11.457-13.774-15.168c-4.725-2.18-7.14-4.361-7.284-6.449
				c0.044-0.929,0.697-1.669,1.909-2.228c1.059-0.511,2.311-0.792,3.756-0.792c2.917,0,5.746,0.928,8.438,2.743l0.046,0.038
				c0.886,0.514,1.762,0.797,2.651,0.797c1.429,0,2.644-0.607,3.718-1.812c1.013-1.254,1.521-2.643,1.521-4.27
				c0.048-2.088-0.88-3.764-2.688-4.919h0.045c-4.457-3.014-8.955-4.501-13.5-4.501c-4.181,0-7.843,1.254-10.953,3.758
				c-1.905,1.487-3.342,3.205-4.27,5.104C447.562,319.461,447.094,318.669,446.492,318.021"/>
			<path fill="#C11920" d="M401.901,317.97c-1.162-1.207-2.46-1.808-3.805-1.808c-1.484,0-2.789,0.694-3.852,2.088
				c-4.406,5.658-7.98,9.698-10.727,12.063c0.059-3.939-0.084-7.84-0.409-11.744c-0.232-3.566-1.901-5.379-5.055-5.379
				c-1.676,0-2.976,0.604-3.949,1.859c-1.064,1.159-1.483,2.686-1.298,4.594c0.233,3.707,0.325,7.655,0.186,11.834
				c-0.277-1.349-0.603-2.556-1.02-3.715c-2.086-5.893-5.707-8.814-10.764-8.77c-6.501-0.045-11.462,4.035-14.899,12.295
				c-0.975,2.369-1.716,4.779-2.272,7.287c-1.809-1.627-3.949-2.412-6.5-2.412c-6.073-0.049-10.717,3.662-13.962,11.137
				c-1.16-1.121-2.458-1.67-3.942-1.67c-1.715-0.047-3.061,0.783-4.135,2.501h20.139c0.511-0.276,1.067-0.415,1.67-0.415
				c0.325,0,0.603,0.041,0.887,0.139l0.049,0.046c0.13,0.05,0.324,0.091,0.462,0.23h14.475c0-3.432,0.602-6.913,1.766-10.394
				c1.438-4.408,3.436-6.633,5.984-6.68c0.371,0,0.688,0.047,1.021,0.139h0.045c1.342,0.459,2.041,2.967,2.041,7.561
				c0,3.387-0.278,6.498-0.789,9.374h18.837c0.046-0.14,0.046-0.23,0.046-0.321l0.375,0.321h15.772l-8.439-8.397
				c3.196-2.736,7.283-7.334,12.296-13.688c0.974-1.256,1.482-2.553,1.437-3.855C403.571,320.617,403.016,319.224,401.901,317.97"/>
			<path fill="none" stroke="#C11920" stroke-width="1.3848" d="M401.901,317.97c-1.162-1.207-2.46-1.808-3.805-1.808
				c-1.484,0-2.789,0.694-3.852,2.088c-4.406,5.658-7.98,9.698-10.727,12.063c0.059-3.939-0.084-7.84-0.409-11.744
				c-0.232-3.566-1.901-5.379-5.055-5.379c-1.676,0-2.976,0.604-3.949,1.859c-1.064,1.159-1.483,2.686-1.298,4.594
				c0.233,3.707,0.325,7.655,0.186,11.834c-0.277-1.349-0.603-2.556-1.02-3.715c-2.086-5.893-5.707-8.814-10.764-8.77
				c-6.501-0.045-11.462,4.035-14.899,12.295c-0.975,2.369-1.716,4.779-2.272,7.287c-1.809-1.627-3.949-2.412-6.5-2.412
				c-6.073-0.049-10.717,3.662-13.962,11.137c-1.16-1.121-2.458-1.67-3.942-1.67c-1.715-0.047-3.061,0.783-4.135,2.501h20.139
				c0.511-0.276,1.067-0.415,1.67-0.415c0.325,0,0.603,0.041,0.887,0.139l0.049,0.046c0.13,0.05,0.324,0.091,0.462,0.23h14.475
				c0-3.432,0.602-6.913,1.766-10.394c1.438-4.408,3.436-6.633,5.984-6.68c0.371,0,0.688,0.047,1.021,0.139h0.045
				c1.342,0.459,2.041,2.967,2.041,7.561c0,3.387-0.278,6.498-0.789,9.374h18.837c0.046-0.14,0.046-0.23,0.046-0.321l0.375,0.321
				h15.772l-8.439-8.397c3.196-2.736,7.283-7.334,12.296-13.688c0.974-1.256,1.482-2.553,1.437-3.855
				C403.571,320.617,403.016,319.224,401.901,317.97z"/>
			<path fill="#C11920" d="M314.666,321.311c0.333,0.509,0.656,1.159,1.028,1.997c1.019,2.271,2.587,3.436,4.774,3.436
				c1.383,0,2.688-0.56,3.895-1.722c1.159-1.202,1.762-2.64,1.762-4.36c0-0.974-0.225-1.945-0.688-2.923
				c-2.688-6.173-6.175-9.185-10.401-9.14c-4.49-0.045-9.327,2.366-14.428,7.24c-6.678,6.306-9.977,15.078-9.883,26.353v0.048
				c0.046,2.043,0.185,3.988,0.455,5.892h10.865c-0.324-1.674-0.463-3.431-0.463-5.241c0-5.385,1.111-10.07,3.299-14.01
				C307.284,324.746,310.546,322.194,314.666,321.311"/>
			<path fill="none" stroke="#C11920" stroke-width="1.3848" d="M314.666,321.311c0.333,0.509,0.656,1.159,1.028,1.997
				c1.019,2.271,2.587,3.436,4.774,3.436c1.383,0,2.688-0.56,3.895-1.722c1.159-1.202,1.762-2.64,1.762-4.36
				c0-0.974-0.225-1.945-0.688-2.923c-2.688-6.173-6.175-9.185-10.401-9.14c-4.49-0.045-9.327,2.366-14.428,7.24
				c-6.678,6.306-9.977,15.078-9.883,26.353v0.048c0.046,2.043,0.185,3.988,0.455,5.892h10.865
				c-0.324-1.674-0.463-3.431-0.463-5.241c0-5.385,1.111-10.07,3.299-14.01C307.284,324.746,310.546,322.194,314.666,321.311z"/>
			<path fill="#C11920" d="M382.085,348.131h-18.837c-0.417,2.413-1.069,4.685-1.854,6.825c-1.346,3.338-2.88,5.056-4.599,5.195
				c-0.229,0-0.413,0-0.648-0.049c-1.995-0.695-2.968-4.637-2.968-11.833v-0.139h-14.475c0.975,0.792,1.43,3.066,1.43,6.825
				c0,5.795-0.825,10.9-2.502,15.309c-1.253,3.108-2.69,4.687-4.313,4.825c-0.185,0-0.371,0-0.603-0.042
				c-1.855-0.648-2.782-4.365-2.782-11.095c0-3.292,0.557-6.63,1.671-9.976c1.066-3.109,2.409-5.055,4.04-5.847h-20.146
				c-0.092,0.189-0.184,0.372-0.323,0.558c-2.412,4.316-5.102,6.635-8.066,7.008c-1.817,0.042-3.209-1.441-4.229-4.455
				c-0.325-1.022-0.609-2.042-0.834-3.11h-10.857c0.556,4.13,1.677,7.796,3.348,11.047c3.105,6.073,7.462,9.091,12.981,9.045
				c4.69,0.046,8.955-2.224,12.767-6.774c-0.094,1.164-0.141,2.322-0.141,3.524c0,4.599,0.834,8.776,2.55,12.579
				c2.459,5.658,6.268,8.49,11.414,8.442c4.962,0.091,8.91-3.343,11.839-10.302c1.113-2.645,1.948-5.428,2.543-8.305
				c2.418,2.737,5.479,4.131,9.192,4.131c4.593,0.09,8.349-2.738,11.315-8.49c-0.134,0.414-0.178,0.742-0.178,1.02
				c0,1.717,0.554,3.105,1.623,4.175c1.021,1.068,2.269,1.626,3.71,1.626c2.735,0.043,4.454-1.531,5.054-4.686v-0.094
				C380.417,358.71,381.385,353.05,382.085,348.131"/>
			<path fill="none" stroke="#C11920" stroke-width="1.3848" d="M382.085,348.131h-18.837c-0.417,2.413-1.069,4.685-1.854,6.825
				c-1.346,3.338-2.88,5.056-4.599,5.195c-0.229,0-0.413,0-0.648-0.049c-1.995-0.695-2.968-4.637-2.968-11.833v-0.139h-14.475
				c0.975,0.792,1.43,3.066,1.43,6.825c0,5.795-0.825,10.9-2.502,15.309c-1.253,3.108-2.69,4.687-4.313,4.825
				c-0.185,0-0.371,0-0.603-0.042c-1.855-0.648-2.782-4.365-2.782-11.095c0-3.292,0.557-6.63,1.671-9.976
				c1.066-3.109,2.409-5.055,4.04-5.847h-20.146c-0.092,0.189-0.184,0.372-0.323,0.558c-2.412,4.316-5.102,6.635-8.066,7.008
				c-1.817,0.042-3.209-1.441-4.229-4.455c-0.325-1.022-0.609-2.042-0.834-3.11h-10.857c0.556,4.13,1.677,7.796,3.348,11.047
				c3.105,6.073,7.462,9.091,12.981,9.045c4.69,0.046,8.955-2.224,12.767-6.774c-0.094,1.164-0.141,2.322-0.141,3.524
				c0,4.599,0.834,8.776,2.55,12.579c2.459,5.658,6.268,8.49,11.414,8.442c4.962,0.091,8.91-3.343,11.839-10.302
				c1.113-2.645,1.948-5.428,2.543-8.305c2.418,2.737,5.479,4.131,9.192,4.131c4.593,0.09,8.349-2.738,11.315-8.49
				c-0.134,0.414-0.178,0.742-0.178,1.02c0,1.717,0.554,3.105,1.623,4.175c1.021,1.068,2.269,1.626,3.71,1.626
				c2.735,0.043,4.454-1.531,5.054-4.686v-0.094C380.417,358.71,381.385,353.05,382.085,348.131z"/>
			<path fill="#C11920" d="M478.46,351.476c0-1.16-0.086-2.276-0.278-3.345h-11.136c0.691,0.883,1.021,1.808,1.063,2.739
				c-0.043,1.064-0.55,1.902-1.619,2.508c-0.047,0-0.047,0.044-0.047,0.09c-1.065,0.506-2.225,0.789-3.531,0.789
				c-3.849-0.049-7.373-1.994-10.579-5.803c-0.042-0.133-0.14-0.227-0.231-0.323h-8.214c-0.692,0.788-1.063,1.904-1.018,3.345
				c0,0.973,0.278,1.992,0.792,3.109c-0.323-0.052-0.695-0.095-1.02-0.095c-1.261,0-2.364,0.556-3.436,1.625v0.044
				c-2.415,2.275-5.39,3.387-8.959,3.387c-0.79,0-1.573-0.045-2.319-0.143v-9.273c2.781-0.701,5.201-1.35,7.191-1.999h-20.876
				c0.458,1.718,1.575,2.834,3.337,3.345v10.762c-0.139,0.511-0.231,1.068-0.231,1.625c0,2.505,1.112,4.27,3.346,5.333
				c3.011,1.303,6.215,1.956,9.645,1.956c6.175,0,11.367-2.094,15.684-6.315h0.05c1.248-1.25,1.855-2.691,1.811-4.27v-0.419
				c0.692,0.558,1.436,1.116,2.27,1.671c2.55,1.768,5.2,3.065,7.937,3.946h0.046c1.808,0.418,3.571,0.646,5.337,0.646
				c4.126,0,7.565-1.249,10.296-3.802C476.884,359.781,478.46,356.07,478.46,351.476"/>
			<path fill="#C11920" d="M443.888,348.131h8.214c-0.877-0.974-2.222-1.439-3.941-1.439
				C446.167,346.692,444.775,347.158,443.888,348.131"/>
			<path fill="#C11920" d="M401.151,348.131v2.967l-2.873-2.967h-15.772l15.966,16.427c0.834,0.744,1.708,1.207,2.68,1.346v9.654
				h-1.846c-1.537,0-2.789,0.598-3.763,1.76h-0.04c-1.069,1.068-1.629,2.51-1.629,4.27s0.56,3.248,1.629,4.407v-0.047
				c1.014,1.159,2.266,1.718,3.803,1.718c3.006,0,6.307-0.464,9.931-1.393c7.929-1.994,11.83-5.01,11.684-9.141
				c0-1.627-0.552-3.019-1.668-4.27c-1.152-1.254-2.412-1.854-3.808-1.854c-1.387-0.049-2.639,0.6-3.751,1.948v-24.826H401.151z"/>
			<path fill="#053980" d="M494.162,253.9c0.362-0.139,0.758-0.239,1.152-0.34l-0.094-0.285l-1.134,0.386L494.162,253.9z"/>
			<path fill="#053980" d="M495.314,253.56c-0.395,0.101-0.79,0.201-1.152,0.34l0.303,0.781l1.089-0.363L495.314,253.56z"/>
		</g>
		<g>
			<defs>
				<path id="SVGID_3_" d="M508.232,207.568l2.683-21.458l-19.446-34.199l-12.07-59.009L377.473,59.373L274.206,77.479
					l-22.128,124.055l34.984,28.667c0,5.341,9.134,9.884,27.464,13.639c11.281,2.373,23.947,4.088,38.046,5.062l27.01,0.696h1.069
					c3.106,0,6.218-0.047,9.273-0.093l6.405-0.14c0.697-0.045,1.396-0.045,2.089-0.092c0.323,0,0.65,0,0.972-0.047h0.055
					c17.862-0.789,33.726-2.55,47.509-5.378c18.284-3.764,27.419-8.307,27.419-13.648L508.232,207.568z"/>
			</defs>
			<clipPath id="SVGID_4_">
				<use xlink:href="#SVGID_3_"  overflow="visible"/>
			</clipPath>
			<g clip-path="url(#SVGID_4_)">
				<g>
					<path fill="#4D2110" d="M365.508,165.878c-1.438,0-2.765-0.861-3.275-2.306l-0.062-0.176c-0.653-1.858,0.326-3.89,2.182-4.543
						c1.852-0.661,3.89,0.323,4.54,2.181c0.654,1.857-0.291,3.979-2.146,4.63C366.336,165.809,365.918,165.878,365.508,165.878z"/>
				</g>
				<g>
					<path fill="#B06C20" d="M388.519,183.774c-1.663-4.334-3.618-7.838-5.82-10.453c-2.199-2.554-5.164-5.109-9.024-7.542
						c-3.867-2.438-7.488-4.694-10.874-6.778c-3.498-2.074-7.71-3.381-12.71-3.973c-4.928-0.541-9.205-0.302-12.828,0.708
						c-5.524-0.061-10.994,0.058-16.4,0.354c-5.403,0.244-10.741,1.487-16.097,3.686c-5.405,2.258-8.853,4.453-10.337,6.593
						c-5.105,3.387-9.204,6.95-12.229,10.689c-5.521,6.655-8.2,14.791-8.085,24.358c0.061,9.622,2.384,17.164,6.846,22.686
						c4.502,5.522,7.773,9.332,9.854,11.469c2.078,2.08,5.1,3.681,9.086,4.689c3.979,1.133,8.197,2.143,12.652,3.029
						c4.391,0.952,8.732,1.423,13.01,1.485c4.335-0.062,8.312-0.41,12.002-1.066c3.617-0.715,7.477-1.662,11.695-2.856
						c4.219-1.241,9.68-2.905,16.454-5.046c6.708-2.145,12.113-5.763,16.213-10.875c4.1-5.046,6.654-12.112,7.661-21.082
						C390.54,194.88,390.185,188.171,388.519,183.774"/>
				</g>
				<g>
					<path fill="#693D1C" d="M325.561,248.837c-0.022,0-0.039,0-0.058,0c-4.72-0.062-9.268-0.576-13.894-1.574
						c-4.159-0.835-8.388-1.825-12.859-3.025c-4.623-1.252-8.282-3.217-10.893-5.833c-2.277-2.333-5.768-6.339-10.129-11.644
						c-5.154-6.295-7.787-14.835-7.849-25.378c-0.068-10.591,2.993-19.694,9.108-27.049c3.153-3.905,7.374-7.657,12.509-11.125
						c2.094-2.495,5.815-4.841,11.618-7.33c5.798-2.473,11.722-3.824,17.607-4.015c4.874-0.275,10.141-0.415,15.992-0.421
						c4.002-1.015,8.606-1.252,13.825-0.688c5.728,0.756,10.382,2.257,14.332,4.596c3.499,2.119,7.154,4.393,10.99,6.845
						c4.02,2.542,7.37,5.352,9.946,8.342c2.529,3,4.68,6.819,6.597,11.711c1.878,5.077,2.31,12.235,1.337,21.956
						c-1.163,9.772-4.036,17.577-8.544,23.271c-4.604,5.74-10.751,9.853-18.28,12.254c-6.766,2.157-12.273,3.833-16.521,5.031
						c-4.068,1.205-8.154,2.215-12.094,2.986C334.221,248.476,329.954,248.837,325.561,248.837z M345.203,158.808
						c-2.534,0-4.83,0.281-6.816,0.839c-0.368,0.1-0.745,0.151-1.125,0.151c-5.916,0-11.203,0.136-16.17,0.412
						c-4.944,0.164-9.854,1.291-14.69,3.352c-6.414,2.752-8.159,4.533-8.618,5.171c-0.296,0.419-0.671,0.78-1.101,1.064
						c-4.684,3.099-8.464,6.408-11.235,9.832c-4.919,5.927-7.262,13.012-7.206,21.705c0.041,8.589,2.046,15.358,5.946,20.13
						c5.314,6.46,8.164,9.583,9.616,11.069c1.533,1.542,3.943,2.777,7.123,3.638c4.28,1.151,8.336,2.103,12.384,2.91
						c4.128,0.889,8.13,1.346,12.277,1.403c3.896,0,7.66-0.318,11.183-0.942c3.603-0.715,7.437-1.658,11.303-2.804
						c4.227-1.194,9.65-2.842,16.308-4.966c5.94-1.895,10.745-5.09,14.286-9.503c3.519-4.445,5.799-10.834,6.771-18.967
						c1.021-10.279,0.109-15.511-0.838-18.075c-1.529-3.896-3.277-7.042-5.152-9.269c-2.003-2.329-4.729-4.598-8.069-6.706
						c-3.79-2.427-7.383-4.664-10.801-6.73c-2.923-1.732-6.547-2.872-11.037-3.467C348.089,158.894,346.613,158.808,345.203,158.808
						z"/>
				</g>
				<g>
					<path fill="#421D0B" d="M361.723,169.894c-0.237,0.181-0.476,0.414-0.661,0.601c-3.738,3.144-6.941,5.518-9.682,7.123
						c-0.887,0.535-1.482,0.951-1.716,1.19c-0.356,0.354-0.533,0.771-0.477,1.185c0.477,3.388,2.545,5.29,6.174,5.703
						c1.482,0.182,4.757-0.123,9.858-0.77c0.535-0.058,0.949-0.354,1.375-0.894c1.361-2.197,2.074-3.265,2.139-3.322
						c1.717-2.558,2.607-4.335,2.673-5.234c0.052-1.01,0.177-1.837,0.409-2.373c0.301-0.532-0.533-1.366-2.558-2.432
						C367.195,169.539,364.629,169.3,361.723,169.894"/>
				</g>
				<g>
					<path fill="#421D0B" d="M334.881,202.841l1.604,0.776c2.2,0.053,4.875,0.053,8.078-0.061c2.321-0.057,3.98,0,4.986,0.238
						c0.423-0.596,1.256-1.484,2.38-2.732c1.184-1.189,2.136-2.083,2.791-2.614c-0.178-0.296-0.535-1.246-1.072-2.851
						c-0.288-0.893-0.535-1.668-0.711-2.199c-1.304-0.6-3.027-0.832-5.225-0.776c-2.083,0.176-3.091,0.244-3.149,0.244
						c-1.125,0.178-2.607,1.244-4.449,3.267C338.804,197.616,337.085,199.873,334.881,202.841"/>
				</g>
				<g>
					<path fill="#421D0B" d="M310.322,169.463c-3.145,1.307-5.698,2.373-7.658,3.266c-3.746,1.722-5.52,3.028-5.401,3.977
						c0.117,0.656,0.706,1.372,1.835,2.135c1.377,0.953,2.32,1.963,2.976,3.033c0.533,1.011,1.363,1.423,2.376,1.25
						c1.247-0.181,3.805-0.421,7.658-0.771c2.734-0.297,5.472-1.13,8.194-2.559c0.597,0.243,1.126,0.476,1.664,0.715
						c0.125,0.057,0.245,0.117,0.303,0.177c0.178-0.061,0.471-0.177,0.775-0.292c0.949-0.422,2.434-1.191,4.452-2.439
						c-0.479-0.655-1.374-2.912-2.614-6.894c-1.126-3.385-2.081-5.344-2.791-5.815c-3.269,0.764-5.526,1.48-6.893,2.132
						C312.998,168.449,311.332,169.166,310.322,169.463"/>
				</g>
				<g>
					<path fill="#421D0B" d="M304.415,207.887c-1.484-0.113-2.729-0.231-3.811-0.406c-1.839,0.826-4.097,1.654-6.818,2.432
						c-1.253,0.412-2.439,0.767-3.504,1.065c-0.659,1.554-1.55,2.795-2.563,3.69c-0.892,0.648-1.362,1.123-1.304,1.361
						c0.174,1.725,1.897,3.325,5.045,4.933c2.791,1.476,4.758,2.139,5.829,1.958c3.615-0.482,6.588-1.247,8.904-2.257
						c2.257-1.008,4.459-1.662,6.592-1.956c-0.125-0.658-0.296-2.799-0.534-6.418c-0.058-1.189-0.12-2.142-0.177-2.914
						C310.052,208.84,307.507,208.307,304.415,207.887"/>
				</g>
				<g>
					<path fill="#421D0B" d="M369.233,219.829c-0.057-1.123-0.413-2.496-1.06-4.104c-1.31-2.848-3.029-4.627-5.115-5.342
						c-1.126-0.418-2.853-0.59-5.161-0.533c-5.054,5.702-8.03,9.026-8.919,10.036c-1.245,1.428-1.773,2.379-1.6,2.913
						c0.826,1.839,2.908,3.437,6.238,4.865c1.717,0.658,3.331,1.201,4.929,1.491c6.354-4.336,9.806-6.89,10.34-7.546
						C369.177,221.314,369.297,220.714,369.233,219.829"/>
				</g>
				<g>
					<path fill="#934823" d="M341.713,165.597c0.414-0.473,0.591-1.003,0.533-1.6c-0.057-0.599-0.414-1.071-0.942-1.37
						c-0.539-0.361-1.189-0.477-1.964-0.361c-0.773,0.069-1.371,0.361-1.777,0.833c-0.478,0.479-0.663,1.01-0.603,1.604
						c0.065,0.601,0.416,1.072,1.009,1.372c0.538,0.292,1.194,0.413,1.97,0.354C340.704,166.31,341.304,166.011,341.713,165.597"/>
				</g>
				<g>
					<path fill="#934823" d="M373.549,199.1c0.42-0.478,0.598-1.015,0.538-1.605c-0.062-0.595-0.413-1.067-0.949-1.363
						c-0.535-0.361-1.185-0.479-1.964-0.361c-0.775,0.064-1.371,0.361-1.786,0.837c-0.467,0.47-0.647,1.009-0.59,1.6
						c0.063,0.595,0.42,1.074,1.005,1.371c0.54,0.294,1.195,0.415,1.965,0.351C372.544,199.813,373.138,199.514,373.549,199.1"/>
				</g>
				<g>
					<path fill="#934823" d="M307.913,234.921c0.421-0.481,0.598-1.008,0.537-1.609c-0.051-0.59-0.411-1.066-0.943-1.366
						c-0.542-0.358-1.196-0.472-1.97-0.358c-0.772,0.066-1.37,0.358-1.789,0.838c-0.46,0.467-0.642,1.005-0.586,1.601
						c0.062,0.595,0.419,1.065,1.005,1.371c0.539,0.295,1.197,0.41,1.967,0.352C306.91,235.63,307.507,235.33,307.913,234.921"/>
				</g>
				<g>
					<path fill="#934823" d="M323.121,228.98c0.413-0.477,0.593-1.009,0.534-1.61c-0.057-0.589-0.404-1.064-0.952-1.36
						c-0.535-0.363-1.176-0.478-1.954-0.363c-0.774,0.066-1.374,0.363-1.784,0.838c-0.476,0.476-0.648,1.004-0.592,1.6
						c0.055,0.594,0.406,1.076,1.002,1.371c0.539,0.295,1.188,0.413,1.969,0.353C322.118,229.689,322.703,229.389,323.121,228.98"/>
				</g>
				<g>
					<path fill="#934823" d="M292.352,196.131c0.419-0.479,0.593-1.009,0.539-1.61c-0.063-0.594-0.416-1.066-0.949-1.362
						c-0.536-0.358-1.194-0.475-1.961-0.358c-0.776,0.063-1.371,0.358-1.782,0.833c-0.479,0.473-0.659,1.009-0.594,1.604
						c0.062,0.596,0.415,1.076,1.005,1.372c0.537,0.292,1.188,0.41,1.966,0.35C291.347,196.843,291.941,196.541,292.352,196.131"/>
				</g>
				<g>
					<path fill="#934823" d="M307.207,187.935c0.411-0.477,0.587-1.013,0.521-1.603c-0.051-0.596-0.41-1.075-0.94-1.369
						c-0.534-0.358-1.187-0.475-1.961-0.358c-0.772,0.06-1.364,0.358-1.786,0.834c-0.469,0.472-0.647,1.008-0.596,1.604
						c0.062,0.59,0.418,1.069,1.018,1.366c0.535,0.296,1.187,0.414,1.964,0.354C306.193,188.647,306.787,188.344,307.207,187.935"/>
				</g>
				<g>
					<path fill="#934823" d="M316.706,198.805c0.418-0.479,0.59-1.008,0.538-1.604c-0.063-0.595-0.417-1.067-0.949-1.366
						c-0.534-0.354-1.192-0.477-1.963-0.354c-0.769,0.053-1.371,0.354-1.781,0.827c-0.477,0.473-0.649,1.009-0.597,1.604
						c0.063,0.589,0.421,1.068,1.007,1.368c0.544,0.294,1.195,0.413,1.963,0.354C315.699,199.516,316.295,199.22,316.706,198.805"/>
				</g>
			</g>
			<g clip-path="url(#SVGID_4_)">
				<g>
					<path fill="#4D2110" d="M418.241,113.994c-1.438,0-2.765-0.861-3.275-2.306l-0.062-0.176c-0.653-1.858,0.326-3.89,2.182-4.543
						c1.852-0.661,3.89,0.323,4.54,2.181c0.654,1.857-0.289,3.979-2.146,4.63C419.069,113.925,418.652,113.994,418.241,113.994z"/>
				</g>
				<g>
					<path fill="#B06C20" d="M441.252,131.891c-1.662-4.334-3.618-7.838-5.82-10.453c-2.199-2.554-5.164-5.109-9.024-7.542
						c-3.867-2.438-7.488-4.694-10.874-6.778c-3.498-2.074-7.709-3.381-12.71-3.973c-4.928-0.541-9.204-0.302-12.828,0.708
						c-5.524-0.061-10.994,0.058-16.4,0.354c-5.404,0.244-10.741,1.488-16.097,3.688c-5.404,2.257-8.853,4.451-10.336,6.592
						c-5.105,3.387-9.204,6.95-12.229,10.689c-5.522,6.655-8.201,14.791-8.086,24.358c0.061,9.621,2.384,17.163,6.845,22.686
						c4.503,5.522,7.774,9.332,9.854,11.47c2.078,2.08,5.101,3.681,9.088,4.688c3.978,1.133,8.198,2.143,12.652,3.029
						c4.39,0.952,8.731,1.423,13.008,1.485c4.336-0.062,8.312-0.411,12.003-1.067c3.616-0.714,7.478-1.661,11.696-2.855
						c4.219-1.242,9.68-2.906,16.453-5.047c6.709-2.145,12.113-5.763,16.214-10.875c4.099-5.046,6.653-12.111,7.66-21.082
						C443.273,142.996,442.917,136.288,441.252,131.891"/>
				</g>
				<g>
					<path fill="#693D1C" d="M378.293,196.954c-0.021,0-0.037,0-0.056,0c-4.719-0.062-9.269-0.577-13.895-1.575
						c-4.158-0.834-8.388-1.824-12.858-3.025c-4.622-1.251-8.283-3.217-10.893-5.833c-2.277-2.333-5.769-6.339-10.13-11.644
						c-5.154-6.294-7.786-14.835-7.849-25.378c-0.067-10.591,2.993-19.694,9.108-27.049c3.153-3.905,7.375-7.657,12.508-11.125
						c2.094-2.495,5.817-4.841,11.619-7.33c5.798-2.473,11.723-3.824,17.608-4.015c4.873-0.275,10.14-0.415,15.99-0.421
						c4.004-1.015,8.608-1.252,13.826-0.688c5.728,0.757,10.383,2.257,14.331,4.596c3.501,2.12,7.155,4.394,10.993,6.845
						c4.018,2.542,7.369,5.352,9.944,8.342c2.53,3,4.68,6.819,6.598,11.711c1.877,5.077,2.308,12.235,1.336,21.956
						c-1.163,9.772-4.035,17.576-8.543,23.271c-4.604,5.74-10.752,9.853-18.281,12.254c-6.766,2.157-12.273,3.833-16.521,5.032
						c-4.067,1.205-8.153,2.214-12.094,2.985C386.953,196.592,382.688,196.954,378.293,196.954z M397.937,106.925
						c-2.534,0-4.829,0.28-6.815,0.838c-0.368,0.1-0.746,0.152-1.126,0.152c-5.914,0-11.203,0.136-16.169,0.412
						c-4.945,0.164-9.854,1.291-14.69,3.352c-6.414,2.752-8.16,4.533-8.619,5.171c-0.295,0.419-0.672,0.78-1.101,1.064
						c-4.682,3.099-8.464,6.408-11.235,9.832c-4.918,5.927-7.262,13.012-7.206,21.705c0.042,8.589,2.046,15.359,5.945,20.13
						c5.314,6.46,8.165,9.583,9.617,11.069c1.534,1.542,3.943,2.776,7.123,3.637c4.28,1.151,8.336,2.104,12.385,2.91
						c4.128,0.889,8.129,1.345,12.277,1.403c3.896,0,7.659-0.318,11.184-0.942c3.602-0.715,7.435-1.658,11.301-2.804
						c4.226-1.194,9.65-2.842,16.31-4.966c5.94-1.895,10.743-5.09,14.285-9.503c3.518-4.445,5.799-10.835,6.77-18.967
						c1.023-10.279,0.11-15.512-0.837-18.076c-1.528-3.896-3.276-7.042-5.152-9.269c-2.004-2.329-4.729-4.598-8.069-6.706
						c-3.79-2.426-7.384-4.663-10.8-6.73c-2.925-1.732-6.547-2.872-11.037-3.467C400.822,107.01,399.347,106.925,397.937,106.925z"
						/>
				</g>
				<g>
					<path fill="#421D0B" d="M414.456,118.01c-0.237,0.181-0.476,0.415-0.661,0.601c-3.737,3.144-6.94,5.518-9.682,7.123
						c-0.886,0.536-1.481,0.951-1.715,1.19c-0.357,0.355-0.533,0.771-0.477,1.185c0.477,3.388,2.545,5.29,6.174,5.703
						c1.481,0.182,4.756-0.123,9.858-0.77c0.534-0.058,0.948-0.354,1.374-0.893c1.362-2.198,2.075-3.265,2.139-3.322
						c1.717-2.557,2.607-4.335,2.674-5.233c0.052-1.01,0.177-1.839,0.408-2.374c0.301-0.533-0.532-1.367-2.558-2.432
						C419.929,117.655,417.362,117.416,414.456,118.01"/>
				</g>
				<g>
					<path fill="#421D0B" d="M387.614,150.957l1.604,0.777c2.2,0.053,4.876,0.053,8.079-0.062c2.321-0.057,3.98,0,4.986,0.238
						c0.424-0.596,1.254-1.484,2.379-2.732c1.185-1.189,2.137-2.082,2.792-2.613c-0.179-0.297-0.536-1.247-1.073-2.852
						c-0.287-0.893-0.534-1.668-0.71-2.199c-1.305-0.6-3.027-0.832-5.225-0.776c-2.083,0.176-3.092,0.244-3.149,0.244
						c-1.127,0.178-2.608,1.244-4.45,3.267C391.537,145.732,389.818,147.989,387.614,150.957"/>
				</g>
				<g>
					<path fill="#421D0B" d="M363.056,117.58c-3.144,1.307-5.698,2.373-7.658,3.266c-3.745,1.722-5.52,3.028-5.402,3.977
						c0.118,0.656,0.707,1.372,1.835,2.135c1.377,0.953,2.321,1.963,2.977,3.033c0.534,1.011,1.365,1.423,2.376,1.25
						c1.248-0.181,3.806-0.421,7.658-0.771c2.735-0.297,5.473-1.13,8.194-2.559c0.598,0.243,1.127,0.476,1.665,0.715
						c0.125,0.057,0.244,0.117,0.302,0.177c0.178-0.06,0.471-0.177,0.776-0.292c0.948-0.422,2.435-1.191,4.453-2.439
						c-0.481-0.655-1.375-2.912-2.616-6.894c-1.126-3.385-2.08-5.345-2.79-5.815c-3.27,0.763-5.527,1.48-6.894,2.132
						C365.731,116.565,364.065,117.282,363.056,117.58"/>
				</g>
				<g>
					<path fill="#421D0B" d="M357.149,156.003c-1.485-0.113-2.73-0.231-3.811-0.406c-1.84,0.826-4.096,1.654-6.819,2.432
						c-1.253,0.412-2.44,0.767-3.504,1.065c-0.659,1.553-1.55,2.795-2.563,3.69c-0.891,0.649-1.362,1.124-1.304,1.361
						c0.174,1.726,1.898,3.325,5.045,4.933c2.792,1.475,4.759,2.138,5.829,1.957c3.616-0.482,6.588-1.247,8.904-2.257
						c2.257-1.008,4.459-1.661,6.592-1.956c-0.125-0.657-0.295-2.799-0.533-6.418c-0.059-1.189-0.12-2.142-0.177-2.914
						C362.784,156.957,360.239,156.423,357.149,156.003"/>
				</g>
				<g>
					<path fill="#421D0B" d="M421.968,167.945c-0.059-1.123-0.412-2.496-1.061-4.104c-1.31-2.847-3.029-4.626-5.114-5.341
						c-1.127-0.419-2.854-0.59-5.162-0.533c-5.054,5.702-8.029,9.026-8.92,10.036c-1.244,1.428-1.772,2.379-1.598,2.913
						c0.825,1.839,2.907,3.437,6.237,4.865c1.717,0.657,3.331,1.201,4.929,1.491c6.354-4.336,9.805-6.89,10.34-7.546
						C421.909,169.431,422.032,168.83,421.968,167.945"/>
				</g>
				<g>
					<path fill="#934823" d="M394.447,113.713c0.415-0.473,0.589-1.003,0.531-1.599c-0.055-0.6-0.412-1.071-0.942-1.37
						c-0.538-0.361-1.188-0.477-1.961-0.361c-0.776,0.069-1.373,0.361-1.779,0.833c-0.478,0.479-0.663,1.01-0.603,1.604
						c0.065,0.601,0.416,1.073,1.009,1.372c0.538,0.292,1.195,0.413,1.971,0.354C393.438,114.426,394.036,114.127,394.447,113.713"
						/>
				</g>
				<g>
					<path fill="#934823" d="M426.283,147.216c0.419-0.478,0.597-1.015,0.538-1.605c-0.062-0.596-0.414-1.067-0.95-1.364
						c-0.535-0.361-1.184-0.478-1.964-0.361c-0.773,0.064-1.372,0.361-1.786,0.837c-0.467,0.47-0.646,1.009-0.59,1.6
						c0.063,0.595,0.42,1.074,1.004,1.372c0.541,0.293,1.196,0.414,1.967,0.35C425.278,147.929,425.871,147.63,426.283,147.216"/>
				</g>
				<g>
					<path fill="#934823" d="M360.647,183.038c0.421-0.481,0.598-1.008,0.536-1.608c-0.052-0.59-0.411-1.067-0.944-1.366
						c-0.542-0.358-1.195-0.472-1.969-0.358c-0.772,0.066-1.369,0.358-1.789,0.838c-0.46,0.467-0.642,1.005-0.585,1.601
						c0.062,0.596,0.418,1.065,1.005,1.372c0.539,0.294,1.196,0.409,1.966,0.351C359.644,183.747,360.239,183.446,360.647,183.038"
						/>
				</g>
				<g>
					<path fill="#934823" d="M375.855,177.097c0.413-0.477,0.593-1.009,0.533-1.61c-0.057-0.589-0.404-1.064-0.952-1.36
						c-0.534-0.363-1.176-0.477-1.952-0.363c-0.776,0.066-1.376,0.363-1.785,0.838c-0.476,0.476-0.649,1.005-0.593,1.601
						c0.056,0.594,0.406,1.075,1.002,1.371c0.539,0.295,1.19,0.413,1.969,0.353C374.852,177.806,375.437,177.505,375.855,177.097"/>
				</g>
				<g>
					<path fill="#934823" d="M345.085,144.248c0.42-0.478,0.594-1.009,0.538-1.61c-0.062-0.594-0.415-1.066-0.948-1.362
						c-0.537-0.357-1.193-0.475-1.959-0.357c-0.777,0.063-1.374,0.357-1.783,0.833c-0.48,0.473-0.66,1.009-0.595,1.604
						c0.062,0.596,0.415,1.075,1.004,1.371c0.538,0.292,1.189,0.41,1.967,0.35C344.079,144.959,344.675,144.657,345.085,144.248"/>
				</g>
				<g>
					<path fill="#934823" d="M359.94,136.051c0.413-0.477,0.588-1.013,0.521-1.603c-0.051-0.596-0.409-1.075-0.94-1.369
						c-0.534-0.357-1.186-0.475-1.961-0.357c-0.771,0.059-1.363,0.357-1.785,0.834c-0.469,0.472-0.649,1.008-0.597,1.605
						c0.062,0.589,0.419,1.068,1.019,1.365c0.534,0.296,1.186,0.415,1.963,0.354C358.927,136.763,359.521,136.461,359.94,136.051"/>
				</g>
				<g>
					<path fill="#934823" d="M369.44,146.921c0.417-0.479,0.589-1.008,0.537-1.603c-0.063-0.596-0.417-1.067-0.949-1.367
						c-0.533-0.354-1.191-0.477-1.961-0.354c-0.771,0.054-1.373,0.354-1.782,0.828c-0.477,0.473-0.65,1.009-0.599,1.604
						c0.065,0.589,0.423,1.069,1.008,1.368c0.544,0.294,1.194,0.413,1.962,0.354C368.432,147.633,369.028,147.336,369.44,146.921"/>
				</g>
			</g>
			<g clip-path="url(#SVGID_4_)">
				<g>
					<path fill="#4D2110" d="M419.582,201.167c-1.438,0-2.765-0.86-3.275-2.306l-0.062-0.177c-0.652-1.857,0.326-3.889,2.182-4.543
						c1.853-0.662,3.89,0.323,4.541,2.181c0.653,1.857-0.291,3.979-2.146,4.63C420.41,201.099,419.994,201.167,419.582,201.167z"/>
				</g>
				<g>
					<path fill="#B06C20" d="M442.592,219.064c-1.661-4.335-3.616-7.838-5.817-10.453c-2.201-2.555-5.165-5.109-9.026-7.542
						c-3.866-2.438-7.488-4.694-10.873-6.778c-3.499-2.074-7.709-3.381-12.712-3.972c-4.925-0.541-9.203-0.303-12.826,0.708
						c-5.524-0.061-10.994,0.058-16.401,0.354c-5.403,0.244-10.742,1.487-16.098,3.686c-5.402,2.258-8.852,4.452-10.335,6.593
						c-5.105,3.386-9.205,6.95-12.229,10.688c-5.523,6.655-8.202,14.791-8.087,24.357c0.062,9.622,2.384,17.164,6.846,22.687
						c4.504,5.523,7.774,9.331,9.854,11.469c2.077,2.081,5.1,3.682,9.087,4.689c3.979,1.134,8.198,2.144,12.653,3.029
						c4.389,0.952,8.731,1.424,13.007,1.485c4.337-0.062,8.312-0.411,12.004-1.067c3.615-0.714,7.478-1.661,11.696-2.855
						c4.218-1.242,9.68-2.904,16.452-5.046c6.709-2.145,12.114-5.763,16.213-10.876c4.1-5.047,6.655-12.111,7.66-21.081
						C444.614,230.169,444.259,223.461,442.592,219.064"/>
				</g>
				<g>
					<path fill="#693D1C" d="M379.634,284.128c-0.02,0-0.037,0-0.057,0c-4.718-0.063-9.268-0.578-13.893-1.576
						c-4.161-0.835-8.389-1.824-12.859-3.025c-4.622-1.252-8.283-3.217-10.893-5.832c-2.277-2.332-5.767-6.34-10.129-11.645
						c-5.155-6.294-7.786-14.835-7.849-25.378c-0.068-10.59,2.992-19.693,9.107-27.049c3.153-3.905,7.375-7.657,12.508-11.125
						c2.094-2.495,5.817-4.841,11.619-7.331c5.798-2.471,11.724-3.823,17.607-4.015c4.874-0.274,10.142-0.414,15.991-0.421
						c4.005-1.015,8.607-1.252,13.826-0.688c5.729,0.756,10.384,2.256,14.331,4.596c3.502,2.119,7.155,4.393,10.993,6.845
						c4.018,2.542,7.369,5.352,9.944,8.342c2.53,3,4.681,6.819,6.596,11.711c1.88,5.077,2.31,12.235,1.339,21.956
						c-1.164,9.773-4.035,17.578-8.543,23.271c-4.605,5.74-10.752,9.854-18.283,12.255c-6.765,2.156-12.273,3.833-16.52,5.032
						c-4.067,1.205-8.154,2.215-12.094,2.984C388.295,283.765,384.029,284.128,379.634,284.128z M399.278,194.098
						c-2.534,0-4.83,0.281-6.816,0.838c-0.368,0.1-0.746,0.152-1.125,0.152c-5.915,0-11.202,0.135-16.17,0.412
						c-4.944,0.164-9.854,1.291-14.689,3.351c-6.414,2.752-8.161,4.533-8.619,5.171c-0.297,0.419-0.672,0.781-1.101,1.064
						c-4.685,3.099-8.465,6.408-11.236,9.832c-4.92,5.928-7.262,13.012-7.206,21.705c0.041,8.59,2.047,15.358,5.946,20.129
						c5.314,6.461,8.165,9.584,9.616,11.069c1.533,1.542,3.943,2.777,7.123,3.638c4.28,1.151,8.337,2.104,12.385,2.91
						c4.129,0.889,8.129,1.346,12.277,1.403c3.896,0,7.66-0.319,11.184-0.942c3.602-0.716,7.435-1.658,11.301-2.805
						c4.227-1.195,9.649-2.843,16.309-4.966c5.94-1.896,10.744-5.09,14.287-9.503c3.517-4.445,5.799-10.836,6.769-18.967
						c1.023-10.279,0.109-15.511-0.837-18.075c-1.527-3.896-3.276-7.042-5.152-9.269c-2.004-2.329-4.728-4.597-8.068-6.706
						c-3.79-2.427-7.385-4.664-10.801-6.731c-2.924-1.732-6.546-2.872-11.037-3.468
						C402.164,194.184,400.688,194.098,399.278,194.098z"/>
				</g>
				<g>
					<path fill="#421D0B" d="M415.798,205.184c-0.238,0.181-0.476,0.414-0.663,0.601c-3.736,3.144-6.94,5.518-9.681,7.123
						c-0.886,0.535-1.482,0.951-1.715,1.19c-0.356,0.354-0.534,0.771-0.477,1.185c0.477,3.387,2.544,5.29,6.173,5.703
						c1.482,0.181,4.757-0.123,9.86-0.771c0.534-0.058,0.948-0.354,1.373-0.894c1.363-2.198,2.074-3.265,2.14-3.321
						c1.717-2.558,2.607-4.335,2.673-5.234c0.053-1.01,0.177-1.837,0.408-2.373c0.302-0.532-0.532-1.366-2.557-2.432
						C421.271,204.828,418.704,204.589,415.798,205.184"/>
				</g>
				<g>
					<path fill="#421D0B" d="M388.954,238.13l1.605,0.777c2.199,0.053,4.876,0.053,8.08-0.061c2.32-0.057,3.979,0,4.986,0.238
						c0.422-0.596,1.254-1.484,2.379-2.732c1.185-1.189,2.137-2.083,2.791-2.614c-0.178-0.296-0.536-1.246-1.073-2.851
						c-0.287-0.893-0.533-1.668-0.709-2.199c-1.307-0.6-3.028-0.833-5.225-0.776c-2.083,0.176-3.093,0.245-3.149,0.245
						c-1.127,0.177-2.61,1.244-4.451,3.267C392.877,232.906,391.16,235.163,388.954,238.13"/>
				</g>
				<g>
					<path fill="#421D0B" d="M364.397,204.752c-3.144,1.308-5.699,2.374-7.658,3.266c-3.745,1.721-5.521,3.028-5.402,3.977
						c0.117,0.656,0.707,1.372,1.835,2.136c1.376,0.953,2.32,1.963,2.977,3.032c0.533,1.01,1.363,1.423,2.377,1.25
						c1.246-0.18,3.804-0.421,7.656-0.771c2.735-0.297,5.474-1.13,8.195-2.559c0.595,0.243,1.127,0.476,1.663,0.715
						c0.126,0.057,0.246,0.117,0.304,0.176c0.177-0.059,0.47-0.176,0.776-0.291c0.947-0.421,2.433-1.191,4.45-2.438
						c-0.479-0.655-1.372-2.912-2.613-6.894c-1.127-3.385-2.082-5.344-2.791-5.815c-3.269,0.764-5.525,1.48-6.893,2.133
						C367.072,203.738,365.406,204.456,364.397,204.752"/>
				</g>
				<g>
					<path fill="#421D0B" d="M358.491,243.177c-1.486-0.113-2.732-0.232-3.811-0.406c-1.84,0.826-4.097,1.653-6.819,2.432
						c-1.254,0.412-2.441,0.766-3.505,1.065c-0.659,1.552-1.549,2.795-2.564,3.69c-0.89,0.648-1.361,1.123-1.302,1.36
						c0.174,1.726,1.898,3.323,5.044,4.933c2.791,1.476,4.759,2.139,5.828,1.957c3.618-0.481,6.59-1.246,8.905-2.257
						c2.257-1.008,4.459-1.662,6.593-1.956c-0.125-0.657-0.295-2.799-0.534-6.418c-0.058-1.189-0.121-2.143-0.176-2.915
						C364.125,244.13,361.581,243.597,358.491,243.177"/>
				</g>
				<g>
					<path fill="#421D0B" d="M423.308,255.119c-0.057-1.123-0.411-2.496-1.06-4.104c-1.309-2.848-3.028-4.627-5.113-5.342
						c-1.128-0.42-2.854-0.59-5.163-0.533c-5.055,5.703-8.029,9.025-8.919,10.035c-1.244,1.429-1.772,2.381-1.6,2.914
						c0.826,1.84,2.909,3.438,6.239,4.865c1.716,0.657,3.329,1.201,4.929,1.49c6.354-4.336,9.804-6.889,10.339-7.545
						C423.251,256.604,423.373,256.003,423.308,255.119"/>
				</g>
				<g>
					<path fill="#934823" d="M395.788,200.886c0.415-0.472,0.59-1.002,0.531-1.599c-0.055-0.6-0.412-1.071-0.941-1.37
						c-0.538-0.36-1.189-0.477-1.962-0.36c-0.775,0.069-1.372,0.36-1.778,0.833c-0.478,0.479-0.664,1.01-0.604,1.605
						c0.065,0.601,0.416,1.072,1.01,1.372c0.537,0.292,1.194,0.413,1.971,0.354C394.777,201.599,395.378,201.301,395.788,200.886"/>
				</g>
				<g>
					<path fill="#934823" d="M427.624,234.39c0.42-0.478,0.597-1.016,0.539-1.605c-0.062-0.595-0.415-1.067-0.95-1.363
						c-0.536-0.362-1.184-0.479-1.965-0.362c-0.773,0.065-1.371,0.362-1.786,0.838c-0.466,0.469-0.646,1.009-0.59,1.6
						c0.062,0.594,0.421,1.074,1.005,1.371c0.541,0.294,1.195,0.414,1.967,0.351C426.62,235.103,427.213,234.804,427.624,234.39"/>
				</g>
				<g>
					<path fill="#934823" d="M361.988,270.211c0.421-0.481,0.598-1.009,0.536-1.608c-0.052-0.59-0.41-1.066-0.943-1.367
						c-0.543-0.357-1.196-0.471-1.97-0.357c-0.773,0.066-1.368,0.357-1.788,0.838c-0.46,0.468-0.642,1.006-0.585,1.602
						c0.061,0.594,0.418,1.064,1.005,1.37c0.539,0.296,1.195,0.41,1.966,0.353C360.985,270.919,361.581,270.621,361.988,270.211"/>
				</g>
				<g>
					<path fill="#934823" d="M377.197,264.27c0.411-0.478,0.593-1.009,0.532-1.61c-0.056-0.588-0.405-1.064-0.952-1.36
						c-0.533-0.362-1.176-0.478-1.952-0.362c-0.775,0.066-1.375,0.362-1.784,0.838c-0.476,0.476-0.649,1.004-0.594,1.601
						c0.056,0.594,0.405,1.075,1.003,1.37c0.537,0.295,1.188,0.414,1.968,0.354C376.191,264.979,376.777,264.679,377.197,264.27"/>
				</g>
				<g>
					<path fill="#934823" d="M346.427,231.421c0.419-0.479,0.594-1.009,0.537-1.61c-0.062-0.594-0.415-1.066-0.949-1.362
						c-0.535-0.358-1.192-0.474-1.958-0.358c-0.776,0.064-1.373,0.358-1.782,0.833c-0.482,0.472-0.661,1.009-0.596,1.604
						c0.062,0.596,0.415,1.075,1.005,1.372c0.536,0.292,1.189,0.409,1.966,0.35C345.42,232.133,346.015,231.831,346.427,231.421"/>
				</g>
				<g>
					<path fill="#934823" d="M361.281,223.225c0.413-0.477,0.589-1.014,0.521-1.604c-0.051-0.595-0.409-1.074-0.941-1.368
						c-0.533-0.358-1.186-0.475-1.96-0.358c-0.772,0.06-1.364,0.358-1.786,0.835c-0.469,0.472-0.648,1.007-0.597,1.604
						c0.062,0.59,0.419,1.069,1.019,1.366c0.533,0.296,1.187,0.414,1.963,0.354C360.268,223.937,360.861,223.634,361.281,223.225"/>
				</g>
				<g>
					<path fill="#934823" d="M370.782,234.095c0.416-0.48,0.589-1.009,0.537-1.604c-0.063-0.594-0.419-1.066-0.949-1.365
						c-0.533-0.355-1.192-0.477-1.964-0.355c-0.77,0.054-1.37,0.355-1.779,0.828c-0.477,0.473-0.65,1.009-0.6,1.604
						c0.065,0.589,0.424,1.068,1.009,1.368c0.544,0.294,1.193,0.413,1.961,0.354C369.772,234.805,370.37,234.509,370.782,234.095"/>
				</g>
			</g>
			<g clip-path="url(#SVGID_4_)">
				<g>
					<path fill="#4D2110" d="M457.134,166.298c-1.438,0-2.765-0.86-3.275-2.305l-0.062-0.176c-0.652-1.858,0.326-3.89,2.182-4.543
						c1.853-0.661,3.89,0.323,4.54,2.181c0.655,1.857-0.29,3.979-2.146,4.63C457.962,166.229,457.546,166.298,457.134,166.298z"/>
				</g>
				<g>
					<path fill="#B06C20" d="M480.145,184.195c-1.663-4.335-3.617-7.838-5.819-10.453c-2.2-2.555-5.164-5.11-9.025-7.542
						c-3.866-2.437-7.488-4.695-10.873-6.778c-3.498-2.074-7.71-3.38-12.713-3.973c-4.925-0.541-9.203-0.302-12.825,0.708
						c-5.524-0.061-10.994,0.058-16.401,0.354c-5.403,0.245-10.742,1.488-16.097,3.687c-5.404,2.257-8.852,4.452-10.337,6.593
						c-5.104,3.387-9.205,6.951-12.228,10.689c-5.523,6.654-8.202,14.791-8.087,24.357c0.062,9.623,2.383,17.164,6.846,22.687
						c4.503,5.523,7.774,9.332,9.854,11.469c2.077,2.08,5.101,3.681,9.086,4.688c3.979,1.134,8.199,2.143,12.653,3.029
						c4.39,0.953,8.732,1.425,13.007,1.486c4.338-0.062,8.314-0.411,12.005-1.067c3.615-0.714,7.477-1.662,11.695-2.856
						c4.218-1.242,9.68-2.905,16.453-5.045c6.708-2.145,12.114-5.763,16.214-10.876c4.099-5.046,6.654-12.112,7.659-21.082
						C482.167,195.3,481.81,188.592,480.145,184.195"/>
				</g>
				<g>
					<path fill="#693D1C" d="M417.185,249.258c-0.02,0-0.037,0-0.056,0c-4.719-0.062-9.267-0.577-13.893-1.575
						c-4.16-0.835-8.389-1.824-12.86-3.025c-4.622-1.251-8.282-3.217-10.892-5.832c-2.277-2.333-5.768-6.34-10.129-11.644
						c-5.155-6.295-7.786-14.836-7.85-25.378c-0.067-10.591,2.994-19.694,9.108-27.049c3.153-3.905,7.374-7.656,12.509-11.125
						c2.093-2.495,5.815-4.841,11.618-7.33c5.798-2.472,11.724-3.824,17.606-4.015c4.875-0.274,10.143-0.415,15.993-0.421
						c4.004-1.015,8.606-1.252,13.825-0.688c5.729,0.756,10.383,2.257,14.331,4.595c3.502,2.12,7.156,4.394,10.993,6.846
						c4.018,2.542,7.369,5.351,9.944,8.341c2.529,3,4.681,6.819,6.597,11.712c1.879,5.077,2.309,12.235,1.338,21.955
						c-1.164,9.773-4.036,17.577-8.543,23.272c-4.605,5.74-10.752,9.854-18.283,12.254c-6.764,2.157-12.272,3.833-16.521,5.031
						c-4.067,1.205-8.154,2.215-12.093,2.985C425.847,248.896,421.581,249.258,417.185,249.258z M436.83,159.228
						c-2.534,0-4.831,0.282-6.817,0.838c-0.367,0.1-0.745,0.152-1.124,0.152c-5.915,0-11.203,0.136-16.17,0.413
						c-4.944,0.164-9.854,1.29-14.69,3.351c-6.413,2.752-8.16,4.533-8.618,5.171c-0.297,0.418-0.672,0.78-1.101,1.064
						c-4.684,3.099-8.465,6.408-11.236,9.831c-4.919,5.927-7.262,13.012-7.206,21.705c0.041,8.589,2.047,15.359,5.946,20.129
						c5.314,6.46,8.165,9.583,9.616,11.069c1.534,1.542,3.942,2.777,7.124,3.638c4.279,1.151,8.336,2.103,12.383,2.909
						c4.129,0.89,8.13,1.346,12.278,1.403c3.896,0,7.66-0.318,11.183-0.942c3.602-0.717,7.436-1.658,11.302-2.805
						c4.227-1.195,9.65-2.842,16.309-4.966c5.941-1.895,10.744-5.089,14.286-9.503c3.519-4.445,5.8-10.835,6.77-18.967
						c1.023-10.279,0.11-15.511-0.837-18.075c-1.527-3.896-3.277-7.042-5.152-9.269c-2.004-2.328-4.728-4.598-8.069-6.707
						c-3.789-2.426-7.383-4.663-10.801-6.73c-2.923-1.732-6.546-2.873-11.037-3.467C439.716,159.314,438.24,159.228,436.83,159.228z
						"/>
				</g>
				<g>
					<path fill="#421D0B" d="M453.35,170.314c-0.238,0.18-0.476,0.414-0.661,0.601c-3.739,3.143-6.943,5.518-9.682,7.122
						c-0.888,0.536-1.483,0.952-1.717,1.191c-0.355,0.354-0.532,0.77-0.477,1.185c0.477,3.387,2.545,5.29,6.174,5.703
						c1.483,0.181,4.758-0.124,9.859-0.771c0.535-0.057,0.949-0.354,1.375-0.893c1.362-2.198,2.073-3.265,2.139-3.322
						c1.717-2.558,2.607-4.335,2.674-5.234c0.051-1.01,0.176-1.838,0.408-2.373c0.301-0.533-0.534-1.367-2.558-2.432
						C458.822,169.959,456.255,169.72,453.35,170.314"/>
				</g>
				<g>
					<path fill="#421D0B" d="M426.507,203.261l1.604,0.776c2.199,0.053,4.875,0.053,8.079-0.061c2.32-0.057,3.979,0,4.987,0.238
						c0.423-0.596,1.254-1.484,2.379-2.732c1.184-1.189,2.136-2.083,2.792-2.614c-0.18-0.296-0.537-1.246-1.074-2.85
						c-0.288-0.893-0.534-1.669-0.709-2.199c-1.308-0.6-3.028-0.832-5.226-0.776c-2.083,0.176-3.092,0.244-3.149,0.244
						c-1.126,0.178-2.609,1.244-4.45,3.267C430.431,198.037,428.712,200.294,426.507,203.261"/>
				</g>
				<g>
					<path fill="#421D0B" d="M401.949,169.883c-3.144,1.307-5.699,2.374-7.658,3.266c-3.746,1.721-5.521,3.028-5.402,3.978
						c0.117,0.655,0.707,1.372,1.835,2.135c1.375,0.953,2.32,1.963,2.977,3.032c0.532,1.01,1.363,1.423,2.376,1.25
						c1.247-0.181,3.804-0.421,7.658-0.771c2.734-0.298,5.472-1.131,8.194-2.559c0.595,0.243,1.126,0.476,1.662,0.715
						c0.127,0.057,0.247,0.116,0.305,0.176c0.177-0.06,0.471-0.176,0.776-0.292c0.947-0.422,2.432-1.19,4.45-2.438
						c-0.479-0.654-1.373-2.912-2.613-6.894c-1.127-3.385-2.081-5.344-2.791-5.815c-3.269,0.763-5.526,1.48-6.894,2.132
						C404.625,168.869,402.958,169.585,401.949,169.883"/>
				</g>
				<g>
					<path fill="#421D0B" d="M396.042,208.308c-1.485-0.112-2.73-0.231-3.81-0.406c-1.84,0.826-4.098,1.654-6.819,2.432
						c-1.254,0.413-2.441,0.766-3.506,1.065c-0.658,1.552-1.548,2.794-2.563,3.689c-0.89,0.648-1.361,1.124-1.303,1.361
						c0.175,1.724,1.899,3.324,5.045,4.932c2.791,1.476,4.758,2.139,5.829,1.958c3.617-0.482,6.588-1.246,8.904-2.257
						c2.256-1.008,4.459-1.662,6.593-1.956c-0.125-0.658-0.296-2.799-0.535-6.418c-0.057-1.19-0.119-2.143-0.176-2.915
						C401.677,209.261,399.133,208.727,396.042,208.308"/>
				</g>
				<g>
					<path fill="#421D0B" d="M460.859,220.249c-0.057-1.123-0.411-2.496-1.059-4.103c-1.31-2.849-3.029-4.627-5.114-5.343
						c-1.128-0.418-2.854-0.589-5.164-0.532c-5.055,5.703-8.029,9.026-8.918,10.036c-1.244,1.428-1.772,2.379-1.6,2.913
						c0.827,1.839,2.909,3.437,6.238,4.865c1.717,0.658,3.33,1.201,4.93,1.491c6.354-4.336,9.804-6.89,10.339-7.545
						C460.803,221.735,460.925,221.134,460.859,220.249"/>
				</g>
				<g>
					<path fill="#934823" d="M433.339,166.018c0.415-0.473,0.591-1.004,0.531-1.601c-0.054-0.599-0.411-1.07-0.94-1.369
						c-0.538-0.361-1.189-0.477-1.963-0.361c-0.774,0.068-1.371,0.361-1.777,0.832c-0.478,0.479-0.664,1.01-0.604,1.605
						c0.067,0.602,0.417,1.072,1.011,1.372c0.537,0.292,1.193,0.413,1.97,0.354C432.329,166.729,432.93,166.431,433.339,166.018"/>
				</g>
				<g>
					<path fill="#934823" d="M465.175,199.521c0.421-0.478,0.598-1.015,0.539-1.605c-0.062-0.595-0.414-1.067-0.949-1.363
						c-0.536-0.362-1.184-0.479-1.965-0.362c-0.774,0.064-1.371,0.362-1.785,0.838c-0.467,0.47-0.647,1.008-0.59,1.599
						c0.062,0.596,0.419,1.074,1.004,1.372c0.541,0.293,1.196,0.414,1.967,0.35C464.171,200.233,464.765,199.934,465.175,199.521"/>
				</g>
				<g>
					<path fill="#934823" d="M399.54,235.342c0.422-0.481,0.598-1.009,0.535-1.609c-0.051-0.59-0.409-1.066-0.942-1.366
						c-0.543-0.358-1.196-0.471-1.971-0.358c-0.771,0.066-1.368,0.358-1.787,0.838c-0.46,0.467-0.642,1.005-0.586,1.601
						c0.061,0.595,0.419,1.065,1.005,1.371c0.539,0.295,1.196,0.41,1.967,0.352C398.537,236.05,399.133,235.75,399.54,235.342"/>
				</g>
				<g>
					<path fill="#934823" d="M414.748,229.401c0.412-0.477,0.594-1.009,0.534-1.61c-0.058-0.589-0.406-1.065-0.953-1.36
						c-0.534-0.362-1.176-0.477-1.952-0.362c-0.775,0.064-1.375,0.362-1.785,0.838c-0.476,0.475-0.648,1.003-0.593,1.6
						c0.055,0.594,0.405,1.075,1.003,1.371c0.537,0.294,1.188,0.414,1.968,0.353C413.745,230.11,414.329,229.81,414.748,229.401"/>
				</g>
				<g>
					<path fill="#934823" d="M383.979,196.552c0.419-0.479,0.593-1.009,0.537-1.61c-0.062-0.594-0.414-1.067-0.947-1.363
						c-0.537-0.357-1.194-0.474-1.96-0.357c-0.776,0.063-1.373,0.357-1.782,0.833c-0.482,0.473-0.66,1.009-0.596,1.604
						c0.062,0.596,0.416,1.076,1.005,1.372c0.536,0.292,1.189,0.41,1.966,0.349C382.972,197.263,383.568,196.961,383.979,196.552"/>
				</g>
				<g>
					<path fill="#934823" d="M398.833,188.355c0.412-0.477,0.588-1.014,0.521-1.604c-0.051-0.595-0.41-1.074-0.941-1.369
						c-0.533-0.357-1.186-0.474-1.96-0.357c-0.773,0.06-1.364,0.357-1.786,0.834c-0.469,0.472-0.648,1.007-0.597,1.604
						c0.062,0.591,0.418,1.069,1.019,1.366c0.534,0.296,1.187,0.414,1.963,0.355C397.819,189.067,398.413,188.765,398.833,188.355"
						/>
				</g>
				<g>
					<path fill="#934823" d="M408.333,199.226c0.416-0.479,0.59-1.009,0.537-1.604c-0.062-0.595-0.418-1.066-0.948-1.366
						c-0.534-0.355-1.192-0.478-1.964-0.355c-0.77,0.054-1.37,0.355-1.78,0.828c-0.477,0.473-0.649,1.009-0.599,1.604
						c0.065,0.59,0.424,1.068,1.009,1.367c0.543,0.295,1.193,0.414,1.961,0.355C407.325,199.937,407.922,199.64,408.333,199.226"/>
				</g>
			</g>
		</g>
	</g>
</g>
</svg>
