<?xml version="1.0" encoding="utf-8"?>
<!-- Generator: Adobe Illustrator 16.0.0, SVG Export Plug-In . SVG Version: 6.00 Build 0)  -->
<!DOCTYPE svg PUBLIC "-//W3C//DTD SVG 1.1//EN" "http://www.w3.org/Graphics/SVG/1.1/DTD/svg11.dtd">
<svg version="1.1" id="レイヤー_1" xmlns="http://www.w3.org/2000/svg" xmlns:xlink="http://www.w3.org/1999/xlink" x="0px"
	 y="0px" width="587.905px" height="483.997px" viewBox="0 0 587.905 483.997" enable-background="new 0 0 587.905 483.997"
	 xml:space="preserve">
<path fill="#D5EBDF" d="M587.905,207.134c0-48.964-34.091-89.964-79.833-100.562c-2.739-54.565-47.849-97.966-103.095-97.966
	c-29.802,0-56.649,12.636-75.493,32.835C310.659,16.283,280.624,0,246.784,0c-40.878,0-76.201,23.761-92.922,58.222
	c-9.93-3.178-20.512-4.9-31.495-4.9c-57.01,0-103.227,46.216-103.227,103.226c0,22.143,6.976,42.654,18.843,59.464
	C14.803,234.941,0,263.743,0,296.004c0,57.009,46.216,103.225,103.225,103.225c0.779,0,1.553-0.012,2.326-0.028
	c8.689,48.215,50.861,84.797,101.583,84.797c27.501,0,52.489-10.758,70.99-28.291c17.432,13.45,39.277,21.456,62.997,21.456
	c30.679,0,58.226-13.388,77.133-34.634c11.425,4.357,23.819,6.752,36.774,6.752c57.009,0,103.226-46.217,103.226-103.227
	c0-19.724-5.534-38.154-15.132-53.827C570.169,273.614,587.905,242.449,587.905,207.134z"/>
</svg>
