<?xml version="1.0" encoding="utf-8"?>
<!-- Generator: Adobe Illustrator 16.0.0, SVG Export Plug-In . SVG Version: 6.00 Build 0)  -->
<!DOCTYPE svg PUBLIC "-//W3C//DTD SVG 1.1//EN" "http://www.w3.org/Graphics/SVG/1.1/DTD/svg11.dtd">
<svg version="1.1" id="レイヤー_1" xmlns="http://www.w3.org/2000/svg" xmlns:xlink="http://www.w3.org/1999/xlink" x="0px"
	 y="0px" width="269.999px" height="294.726px" viewBox="0 0 269.999 294.726" enable-background="new 0 0 269.999 294.726"
	 xml:space="preserve">
<g>
	<g>
		<path fill="#1E95D4" d="M79.856,157.242c7.81-6.009,16.217-13.163,25.205-21.457c0.449-0.406,3.754-2.996,9.889-7.746
			c12.897,14.814,28.888,17.235,47.967,7.244c4.909,13.467,8.165,23.618,9.766,30.463c4.016,17.296,4.683,32.555,1.997,45.742
			c-3.454,16.765-12.15,27.404-26.1,31.908c-17.035,5.505-41.205,1.457-72.496-12.138c-6.133-2.654-10.835-6.968-14.118-12.96
			c-3.149-5.763-4.624-12.309-4.405-19.662c0.198-7.493,2.135-14.77,5.785-21.854C67.282,169.216,72.787,162.703,79.856,157.242"/>
		<path fill="none" stroke="#044591" stroke-width="2.2107" stroke-linecap="round" stroke-miterlimit="10" d="M104.771,134.714
			c-9.151,8.454-17.694,15.735-25.654,21.864c-7.196,5.56-12.792,12.201-16.8,19.916c-3.726,7.205-5.69,14.635-5.907,22.254
			c-0.225,7.482,1.275,14.158,4.473,20.027c3.343,6.104,8.123,10.49,14.354,13.197c31.837,13.831,56.416,17.93,73.757,12.32
			c14.189-4.592,23.051-15.433,26.567-32.516c2.734-13.435,2.071-28.971-2.003-46.586c-1.63-6.959-4.943-17.311-9.926-31.013
			c-19.413,10.175-35.675,7.726-48.792-7.365C108.577,131.664,105.228,134.295,104.771,134.714z"/>
		<path fill="#1E95D4" d="M69.897,197.853l-1.716-2.525l-39.795,4.104c-0.068,0.003-0.153-0.008-0.251-0.016
			c-0.099-0.039-0.21-0.075-0.322-0.125c-0.048-0.135-0.082-0.272-0.13-0.408c-0.248-2.176-0.58-4.348-1.022-6.529
			c-0.019-0.108-0.052-0.231-0.087-0.383c-0.018-0.096-0.067-0.315-0.154-0.685c-0.975-4.178-2.419-8.374-4.322-12.608
			c-1.818-3.848-4.242-7.311-7.243-10.4c-1.55-1.523-3.577-2.665-6.089-3.41l-0.039,0.001c-2.498-0.748-4.243,0.741-5.24,4.479
			c-0.014,0.029-0.012,0.057-0.024,0.084c-0.012,0.015-0.012,0.043-0.024,0.058c-0.185,0.562-0.366,1.138-0.547,1.739
			c-0.013,0.016-0.011,0.042-0.024,0.057c-0.014,0.016-0.023,0.07-0.048,0.154c-0.014,0.043-0.037,0.1-0.051,0.142
			c-1.455,4.935-1.95,9.966-1.502,15.093c0.003,0.084,0.009,0.167,0.011,0.236c0.003,0.041,0.005,0.081,0.005,0.123
			c0.004,0.068,0.006,0.125,0.009,0.193c0.004,0.068,0.008,0.152,0.011,0.221c0.691,13.724,4.062,28.572,10.113,44.537
			c0.093,0.202,0.196,0.391,0.302,0.594c0.106,0.217,0.227,0.419,0.36,0.606c0.014,0.015,0.043,0.041,0.071,0.052
			c0.073,0.066,0.146,0.132,0.216,0.185c0.129,0.106,0.272,0.197,0.415,0.287c0.07,0.038,0.127,0.077,0.197,0.114
			c0.213,0.115,0.466,0.215,0.733,0.301c0.238,0.071,0.49,0.144,0.756,0.201c0.433,0.077,0.893,0.153,1.351,0.216
			c0.238,0.045,0.488,0.076,0.779,0.104c0.851,0.086,1.874,0.111,3.077,0.07c0.262-0.012,0.538-0.023,0.826-0.049
			c0.222-0.012,0.456-0.035,0.718-0.074c0.303-0.027,0.593-0.055,0.882-0.095c0.177-0.034,0.356-0.071,0.535-0.093
			c0.314-0.056,0.632-0.112,0.948-0.18c0.259-0.066,0.519-0.133,0.793-0.202c0.271-0.081,0.546-0.175,0.818-0.257l47.176-14.881
			l0.414-0.336l1.443-1.809l-4.127-18.44L69.897,197.853z"/>
		<path fill="none" stroke="#044591" stroke-width="2.2118" stroke-linecap="round" stroke-miterlimit="10" d="M68.182,195.327
			l-39.795,4.104c-0.069,0.003-0.152-0.006-0.248-0.016c-0.101-0.037-0.211-0.075-0.325-0.125c-0.047-0.136-0.082-0.272-0.13-0.408
			c-0.248-2.176-0.58-4.348-1.022-6.529c-0.019-0.109-0.052-0.231-0.086-0.383c-0.019-0.096-0.068-0.315-0.156-0.686
			c-0.974-4.177-2.42-8.373-4.322-12.607c-1.818-3.848-4.24-7.311-7.242-10.4c-1.548-1.523-3.579-2.666-6.088-3.41l-0.042,0.001
			c-2.496-0.747-4.241,0.741-5.238,4.479c-0.013,0.029-0.012,0.057-0.024,0.084c-0.014,0.015-0.011,0.042-0.025,0.058
			c-0.183,0.562-0.363,1.138-0.546,1.739c-0.013,0.016-0.011,0.042-0.024,0.057c-0.013,0.014-0.023,0.07-0.049,0.154
			c-0.013,0.043-0.036,0.1-0.05,0.141c-1.455,4.936-1.951,9.967-1.501,15.094c0.002,0.084,0.008,0.167,0.01,0.236
			c0.001,0.041,0.004,0.081,0.005,0.124c0.003,0.068,0.005,0.124,0.009,0.192s0.009,0.152,0.011,0.221
			c0.691,13.723,4.062,28.572,10.113,44.537c0.093,0.201,0.195,0.391,0.303,0.594c0.105,0.217,0.225,0.419,0.358,0.606
			c0.016,0.015,0.044,0.041,0.071,0.052c0.074,0.066,0.146,0.132,0.217,0.185c0.129,0.106,0.272,0.197,0.415,0.286
			c0.07,0.039,0.126,0.078,0.197,0.115c0.212,0.115,0.466,0.215,0.733,0.301c0.237,0.071,0.491,0.144,0.756,0.201
			c0.433,0.077,0.892,0.153,1.353,0.217c0.235,0.045,0.487,0.075,0.778,0.104c0.848,0.086,1.874,0.111,3.076,0.07
			c0.262-0.011,0.537-0.023,0.828-0.049c0.221-0.01,0.454-0.035,0.716-0.074c0.303-0.027,0.592-0.055,0.883-0.095
			c0.177-0.034,0.354-0.071,0.535-0.093c0.312-0.056,0.631-0.112,0.946-0.181c0.26-0.065,0.52-0.132,0.793-0.2
			c0.273-0.082,0.546-0.176,0.818-0.258l47.178-14.881l0.413-0.336l1.441-1.809l-4.125-18.439l-0.202-0.448L68.182,195.327z"/>
		<path fill="#1E95D4" d="M146.074,235.342c1.479,2.131,2.943,4.473,4.391,7.029c3.013,4.319,4.338,8.939,3.995,13.883
			c-0.229,3.236-1.393,6.194-3.51,8.867c-0.681,1.027-1.412,2.008-2.207,2.945l-0.277,0.33c0.005,0.028,0.01,0.055,0.016,0.082
			c1.017-0.119,1.931-0.204,2.75-0.26c0.724-0.035,1.676-0.072,2.838-0.092c0.252-0.005,0.505-0.01,0.757-0.015
			c4.306,0.013,8.724,0.47,13.263,1.354c4.188,0.893,8.14,2.477,11.851,4.725c1.848,1.16,3.416,2.865,4.713,5.141l0.018,0.025
			c1.28,2.264,0.265,4.281-3.072,6.071c-0.063,0.04-0.126,0.079-0.191,0.106c-0.518,0.32-1.036,0.627-1.557,0.936
			c-0.074,0.043-0.152,0.084-0.229,0.127c-4.509,2.6-9.347,4.262-14.483,4.993c-0.204,0.038-0.409,0.075-0.615,0.1
			c-13.616,2.481-28.971,2.573-46.04,0.255c-0.541-0.179-1.047-0.408-1.523-0.7c-0.016-0.01-0.034-0.034-0.051-0.046
			c-0.397-0.404-0.767-0.87-1.075-1.39c-0.883-1.72-1.462-3.538-1.718-5.445c-0.092-0.644-0.145-1.31-0.142-1.972
			c-0.021-0.488-0.008-0.941,0.041-1.358c0.075-0.575,0.176-1.171,0.328-1.791c1.312-5.265,4.046-10.739,8.231-16.427
			c2.174-3.205,4.3-6.203,6.369-8.992l-5.412-16.658l0.166-0.171L146.074,235.342z"/>
		<path fill="none" stroke="#044591" stroke-width="2.2118" stroke-linecap="round" stroke-miterlimit="10" d="M150.465,242.372
			c3.013,4.319,4.337,8.938,3.993,13.882c-0.227,3.236-1.392,6.195-3.508,8.867c-0.681,1.027-1.412,2.008-2.208,2.945l-0.276,0.331
			c0.005,0.026,0.01,0.055,0.016,0.081c1.018-0.119,1.931-0.203,2.751-0.26c0.724-0.035,1.672-0.072,2.838-0.091
			c0.251-0.007,0.504-0.011,0.756-0.015c4.307,0.012,8.724,0.469,13.263,1.352c4.188,0.895,8.14,2.478,11.849,4.726
			c1.848,1.161,3.417,2.864,4.715,5.142l0.018,0.025c1.28,2.264,0.265,4.281-3.072,6.072c-0.063,0.039-0.125,0.078-0.191,0.104
			c-0.517,0.322-1.036,0.631-1.557,0.938c-0.076,0.043-0.151,0.086-0.229,0.128c-4.509,2.599-9.347,4.26-14.483,4.991
			c-0.204,0.039-0.407,0.076-0.615,0.1c-13.615,2.482-28.971,2.573-46.04,0.256c-0.54-0.18-1.047-0.408-1.522-0.701
			c-0.017-0.01-0.035-0.033-0.051-0.045c-0.399-0.404-0.768-0.869-1.075-1.389c-0.883-1.721-1.463-3.539-1.719-5.446
			c-0.092-0.644-0.146-1.31-0.142-1.972c-0.021-0.488-0.006-0.94,0.041-1.357c0.075-0.577,0.177-1.172,0.328-1.791
			c1.312-5.266,4.046-10.74,8.23-16.428c2.174-3.205,4.301-6.202,6.37-8.993l-5.412-16.656l0.165-0.173l22.378-1.65
			C147.555,237.472,149.018,239.814,150.465,242.372z"/>
		<path fill="#003C86" d="M90.327,155.134c-0.254,0.22-0.551,0.306-0.862,0.289c-0.339-0.018-0.606-0.169-0.811-0.424
			l-46.285-54.341c-0.22-0.254-0.305-0.537-0.271-0.863c0.017-0.326,0.153-0.592,0.407-0.812c0.253-0.204,0.536-0.291,0.861-0.273
			c0.132,0.017,0.266,0.046,0.385,0.093c0.162,0.074,0.294,0.181,0.427,0.316l45.757,53.729c0.295,0.046,0.546,0.181,0.751,0.407
			c0.188,0.223,0.276,0.461,0.291,0.744c-0.001,0.043-0.001,0.074-0.001,0.117c-0.018,0.325-0.156,0.592-0.408,0.812L90.327,155.134
			z"/>
		<path fill="#1E95D4" d="M90.976,153.999c-0.013-0.282-0.099-0.52-0.29-0.745c-0.205-0.223-0.457-0.359-0.752-0.405l-45.757-53.73
			c-0.131-0.136-0.264-0.241-0.426-0.315c1.555-3.201,4.192-6.334,7.91-9.382c3.078-2.536,5.936-3.933,8.59-4.188
			c0.014,0.192,0.088,0.386,0.203,0.55c0.177,0.282,0.426,0.448,0.736,0.511l44.069,50.322c0.22,0.253,0.485,0.389,0.812,0.406h0.03
			c-0.266,4.548-1.872,8.459-4.821,11.736C98.374,151.992,94.936,153.739,90.976,153.999"/>
		<path fill="#003C86" d="M106.919,136.719c-0.239,0.219-0.507,0.32-0.818,0.303h-0.028c-0.326-0.019-0.592-0.154-0.812-0.406
			L61.19,86.293c-0.311-0.062-0.56-0.228-0.735-0.512c-0.116-0.163-0.188-0.357-0.202-0.549c-0.016-0.104,0-0.223,0.032-0.342
			c0.062-0.31,0.227-0.561,0.512-0.75c0.268-0.176,0.564-0.232,0.889-0.17c0.044,0.016,0.104,0.016,0.149,0.031
			c0.015,0.015,0.015,0.015,0.029,0.015c0.147,0.017,0.295,0.048,0.444,0.108c0.147,0.074,0.281,0.165,0.396,0.285l44.332,50.635
			c0.221,0.253,0.307,0.551,0.289,0.861C107.309,136.232,107.172,136.498,106.919,136.719"/>
		<path fill="#003C86" d="M64.013,89.021c-0.126-0.152-0.336-0.387-0.626-0.722c-0.196-0.241-0.339-0.419-0.433-0.543
			c-0.015-0.024-0.03-0.048-0.037-0.06c-0.096-0.156-0.086-0.328,0.011-0.52c0.076-0.146,0.104-0.264,0.097-0.356l-0.026-0.017
			c0.004-0.018-0.004-0.031,0.001-0.051c-0.073-0.119-0.079-0.233-0.006-0.359l0.07-0.125c0.036-0.32,0.066-0.67,0.098-1.052
			c0.126-2.293,0.055-4.611-0.208-6.946c-0.102-0.945-0.229-1.824-0.371-2.646l1.655-1.017c0.823,4.698,1.153,8.245,0.992,10.642
			c0.002,0.082-0.002,0.184-0.002,0.266c-0.005,0.018-0.01,0.038-0.015,0.058c-0.004,0.151-0.01,0.305-0.027,0.464
			c0.02,0.006,0.025,0.016,0.033,0.028c-0.005,0.021,0.004,0.031,0.011,0.043c-0.024,0.015-0.037,0.022-0.048,0.03l0.055,0.065
			c-0.005,0.019,0,0.05,0.002,0.081l0.009,0.014c0.002,0.029,0.005,0.061,0,0.08c-0.001,0.051,0.003,0.113,0.002,0.163
			c-0.001,0.134,0.003,0.247,0.004,0.329c-0.005,0.02-0.021,0.047-0.025,0.066c-0.095,0.223-0.112,0.383-0.062,0.467
			c0.074,0.119,0.131,0.186,0.149,0.188c0.013-0.006,0.031-0.002,0.046,0.021l-0.316,0.294c0.051,0.054,0.084,0.081,0.093,0.093
			l-1.111,1.016L64.013,89.021z"/>
		<path fill="#003C86" d="M51.077,106.861c-0.735-0.094-1.287-0.184-1.647-0.26c-0.129-0.02-0.244-0.047-0.355-0.096
			c-0.527,0.193-0.962,0.346-1.275,0.453c-0.189,0.068-0.374,0.116-0.536,0.148c-0.016,0.027-0.041,0.043-0.045,0.062
			c-0.485,0.15-0.979,0.288-1.5,0.41c-0.239,0.066-0.5,0.126-0.768,0.174c-1.232,0.279-2.578,0.512-4.01,0.684
			c-3.598,0.462-7.241-0.305-10.951-2.303c-3.129-1.678-5.644-3.617-7.544-5.819l1.834-1.13c1.722,1.834,3.376,3.178,4.961,4.037
			c1.767,0.965,3.332,1.736,4.689,2.306c1.366,0.581,3.083,0.847,5.131,0.792c1.108,0.029,2.209-0.035,3.315-0.172
			c0.758-0.085,1.517-0.221,2.265-0.401c0.997-0.232,2-0.536,2.991-0.913c0.067-0.025,0.135-0.051,0.202-0.076
			c0.38-0.135,0.753-0.281,1.121-0.459c0.012-0.006,0.037-0.021,0.048-0.029l0.019,0.006c0.068-0.025,0.116-0.055,0.185-0.081
			c-0.011,0.04-0.02,0.079-0.048,0.112c0.318,0.086,0.809,0.213,1.46,0.357c0.037,0.011,0.077,0.019,0.116,0.029
			c0.273,0.096,0.499,0.221,0.701,0.361c0.33,0.242,0.547,0.539,0.647,0.891L51.077,106.861L51.077,106.861z"/>
		<path fill="#003C86" d="M37.113,79.594c0.931,2.054,2.298,4.518,4.099,7.393c-0.56-0.564-2.23-2.527-4.995-5.867
			c-0.7-0.709-1.353-1.283-1.974-1.729l-0.011,0.008c-1.654-1.213-2.991-1.315-4.008-0.312c-2.135,1.662-2.904,4.037-2.319,7.111
			c0.157,0.846,0.41,1.633,0.76,2.393c0.39,0.819,0.82,1.627,1.32,2.412c0.234,0.383,0.471,0.767,0.718,1.143
			c0.385,0.541,0.783,1.057,1.214,1.566c0.142,0.178,0.284,0.355,0.431,0.513l-0.085,0.052c-0.049-0.053-0.116-0.111-0.178-0.154
			c-1.119-1.014-2.019-1.699-2.697-2.076c-0.118-0.059-0.226-0.125-0.338-0.172c-0.815-0.439-1.66-0.58-2.531-0.408
			c-0.539,0.115-1.056,0.352-1.51,0.714c-0.689,0.573-1.366,1.138-2.019,1.72c-0.527,0.507-0.785,1.11-0.793,1.825
			c-0.002,0.184,0.026,0.364,0.099,0.536c0.249,0.59,0.524,1.146,0.861,1.668c0.165,0.213,0.341,0.418,0.529,0.617
			c0.202,0.222,0.398,0.432,0.593,0.641l-1.834,1.129c-0.345-0.398-0.658-0.801-0.966-1.223c-0.325-0.444-0.617-0.893-0.839-1.335
			c-0.367-0.782-0.478-1.606-0.371-2.481c0.108-0.926,0.451-1.766,1.023-2.53c0.227-0.271,0.495-0.536,0.794-0.803
			c1.63-1.433,3.071-2.153,4.32-2.162c0.409,0.046,0.812,0.112,1.205,0.186c-0.032,0.003-0.069-0.009-0.115-0.028
			c-0.599-0.838-1.016-1.838-1.236-2.974c-0.038-0.145-0.063-0.292-0.102-0.435c-0.855-3.836-0.001-6.824,2.583-8.992
			c1.641-1.604,3.456-1.795,5.415-0.57c-0.159-0.611-0.282-1.214-0.384-1.831l0.007-0.019c-0.534-4.119,0.897-6.947,4.313-8.488
			c3.45-1.561,6.513-0.668,9.177,2.667c1.086,1.364,1.997,2.604,2.744,3.685c0.241-1.11,0.64-2.264,1.173-3.466
			c1.244-2.733,3.446-3.987,6.605-3.767c3.265,0.123,5.386,2.951,6.369,8.443c0.018,0.137,0.043,0.287,0.073,0.416l-1.654,1.018
			c-0.344-1.82-0.793-3.329-1.378-4.521c-0.785-1.896-1.907-2.941-3.346-3.129l-0.012,0.005c-0.115,0.003-0.224-0.013-0.353-0.031
			c-0.012,0.007-0.012,0.007-0.019-0.005c-0.797-0.088-1.544,0.039-2.232,0.399c-0.93,0.422-1.645,1.193-2.146,2.312
			c-0.031,0.084-0.058,0.15-0.103,0.211c-0.18,0.324-0.35,0.694-0.521,1.113c-0.832,1.9-1.36,4.076-1.6,6.536
			c-0.107-1.172-1.085-2.919-2.951-5.257c-0.576-0.721-1.162-1.434-1.735-2.121c-0.509-0.612-1.059-1.184-1.653-1.693
			c-0.629-0.539-1.326-1.003-2.098-1.371c-0.772-0.367-1.575-0.436-2.392-0.181c-0.141,0.069-0.299,0.134-0.445,0.191
			c-1.376,0.665-2.385,1.55-3.012,2.68c-0.683,1.063-0.928,2.438-0.727,4.083c0.03,0.344,0.08,0.693,0.136,1.055
			c0.241,0.793,0.448,1.56,0.639,2.301C36.758,78.671,36.914,79.137,37.113,79.594"/>
		<path fill="#003C86" d="M32.264,94.275l0.084-0.051c0.183,0.217,0.369,0.416,0.559,0.613
			C32.695,94.654,32.482,94.471,32.264,94.275"/>
		<path fill="#1E95D4" d="M61.204,71.104c0.833,1.732,1.41,4.121,1.749,7.169c0.263,2.333,0.334,4.653,0.207,6.944
			c-0.03,0.383-0.061,0.732-0.097,1.051l-0.072,0.127c-0.071,0.125-0.067,0.24,0.008,0.361c-0.005,0.018,0.003,0.029-0.001,0.049
			l0.026,0.018c0.007,0.093-0.021,0.209-0.097,0.354c-0.097,0.192-0.106,0.364-0.011,0.52c0.007,0.013,0.022,0.036,0.037,0.062
			l-13.748,16.438c-0.068,0.025-0.116,0.055-0.185,0.08l-0.019-0.004c-0.011,0.005-0.036,0.021-0.048,0.027
			c-0.369,0.18-0.742,0.325-1.121,0.46c-0.068,0.024-0.136,0.05-0.202,0.074c-0.991,0.378-1.994,0.682-2.991,0.914
			c-0.748,0.18-1.509,0.315-2.265,0.401c-1.106,0.137-2.207,0.201-3.313,0.172c-2.051,0.054-3.767-0.211-5.133-0.793
			c-1.357-0.568-2.923-1.34-4.689-2.305c-1.759-0.95-3.614-2.518-5.556-4.679c-0.187-0.198-0.362-0.403-0.527-0.617
			c-0.337-0.52-0.612-1.077-0.861-1.667c-0.072-0.17-0.1-0.352-0.098-0.536c0.007-0.714,0.263-1.317,0.793-1.825
			c0.651-0.582,1.328-1.147,2.018-1.721c0.452-0.361,0.971-0.596,1.51-0.713c0.868-0.172,1.714-0.031,2.531,0.408
			c0.112,0.049,0.22,0.113,0.338,0.173c0.679,0.376,1.577,1.062,2.697,2.075c0.281,0.241,0.561,0.48,0.821,0.717
			c-0.318-0.332-0.65-0.707-0.988-1.127c-0.433-0.511-0.832-1.025-1.215-1.567c-0.247-0.376-0.483-0.759-0.719-1.143
			c-0.498-0.784-0.928-1.593-1.318-2.411c-0.353-0.76-0.604-1.546-0.76-2.393c-0.587-3.075,0.184-5.449,2.318-7.109
			c1.017-1.006,2.352-0.902,4.008,0.311l0.011-0.008c0.622,0.445,1.273,1.02,1.973,1.729c2.765,3.34,4.437,5.303,4.997,5.867
			c-1.802-2.876-3.169-5.34-4.099-7.393c-0.201-0.457-0.356-0.924-0.479-1.393c-0.19-0.742-0.397-1.506-0.639-2.301
			c-0.057-0.361-0.106-0.711-0.136-1.055c-0.202-1.646,0.044-3.02,0.726-4.084c0.629-1.13,1.637-2.015,3.014-2.68
			c0.146-0.057,0.305-0.121,0.444-0.189c0.816-0.256,1.62-0.188,2.392,0.182c0.772,0.365,1.469,0.829,2.098,1.367
			c0.595,0.512,1.144,1.082,1.653,1.695c0.572,0.689,1.159,1.4,1.735,2.121c1.867,2.338,2.844,4.084,2.952,5.256
			c0.238-2.46,0.768-4.636,1.599-6.535c0.172-0.42,0.342-0.787,0.521-1.113c0.045-0.061,0.071-0.126,0.103-0.211
			c0.501-1.119,1.217-1.889,2.146-2.312c0.689-0.357,1.437-0.486,2.234-0.398c0.006,0.011,0.006,0.011,0.018,0.004
			c0.13,0.021,0.238,0.037,0.352,0.032l0.013-0.007C59.296,68.161,60.418,69.206,61.204,71.104"/>
		<path fill="#003C86" d="M173.812,197.806c0.044,0.319,0.204,0.569,0.44,0.753c0.258,0.202,0.543,0.26,0.852,0.207l67.731-10.059
			c0.318-0.046,0.56-0.195,0.741-0.451c0.192-0.246,0.262-0.523,0.218-0.844c-0.053-0.308-0.204-0.549-0.45-0.74
			c-0.106-0.073-0.223-0.135-0.337-0.176c-0.165-0.049-0.325-0.057-0.508-0.041l-66.962,9.947c-0.243-0.151-0.509-0.213-0.799-0.18
			c-0.279,0.041-0.492,0.158-0.679,0.354c-0.028,0.032-0.046,0.054-0.075,0.086c-0.192,0.248-0.261,0.524-0.217,0.844
			L173.812,197.806z"/>
		<path fill="#1E95D4" d="M174.061,196.576c0.187-0.193,0.397-0.312,0.679-0.354c0.29-0.033,0.556,0.027,0.799,0.182l66.962-9.95
			c0.182-0.015,0.343-0.007,0.509,0.042c0.896-3.296,0.968-7.223,0.203-11.771c-0.623-3.773-1.808-6.586-3.563-8.446
			c-0.13,0.13-0.304,0.225-0.493,0.271c-0.307,0.094-0.59,0.055-0.854-0.096l-63.59,8.55c-0.321,0.045-0.599-0.024-0.845-0.217
			c-0.013-0.009-0.013-0.009-0.021-0.02c-2.679,3.453-3.987,7.293-3.925,11.523C169.981,190.459,171.363,193.891,174.061,196.576"/>
		<path fill="#003C86" d="M173.445,174.031c0.034,0.31,0.165,0.553,0.4,0.735c0.01,0.011,0.01,0.011,0.021,0.02
			c0.246,0.192,0.523,0.262,0.845,0.217l63.59-8.55c0.265,0.15,0.548,0.189,0.855,0.096c0.188-0.045,0.362-0.14,0.492-0.271
			c0.076-0.065,0.139-0.16,0.191-0.266c0.151-0.264,0.189-0.55,0.105-0.865c-0.084-0.296-0.263-0.525-0.537-0.686
			c-0.042-0.016-0.086-0.054-0.127-0.069c-0.019,0.001-0.019,0.001-0.03-0.008c-0.116-0.082-0.243-0.153-0.389-0.202
			c-0.155-0.039-0.308-0.058-0.467-0.045l-63.981,8.611c-0.317,0.045-0.568,0.204-0.753,0.44
			C173.47,173.434,173.4,173.712,173.445,174.031"/>
		<path fill="#003C86" d="M235.035,165.539c-0.019-0.023-0.035-0.033-0.061-0.028l0.131,0.401c-0.09,0.033-0.128,0.043-0.144,0.045
			l0.481,1.476c0.193-0.069,0.491-0.165,0.908-0.284c0.293-0.122,0.509-0.211,0.649-0.257c0.011-0.017,0.024-0.019,0.037-0.021
			c0.16-0.093,0.237-0.25,0.243-0.472c0.004-0.167,0.047-0.288,0.102-0.356l0.036-0.021c0.011-0.016,0.023-0.02,0.033-0.036
			c0.11-0.065,0.174-0.163,0.169-0.302l0.01-0.141c0.131-0.291,0.494-1.025,1.105-2.203c0.601-1.174,1.356-2.383,2.287-3.633
			c0.78-1.047,1.391-1.85,1.836-2.406c0.078-0.086,0.153-0.188,0.229-0.286c0.205-0.255,0.431-0.498,0.654-0.743
			c0.214-0.215,0.433-0.415,0.665-0.619c0.219-0.203,0.439-0.391,0.678-0.568c0.199-0.168,0.413-0.328,0.645-0.477
			c0.204-0.143,0.42-0.288,0.638-0.434c0.208-0.131,0.417-0.258,0.626-0.375c0.21-0.116,0.415-0.246,0.622-0.375l-0.474-2.129
			c-0.688,0.334-1.384,0.767-2.107,1.316c-0.273,0.213-0.54,0.439-0.812,0.652c-0.693,0.558-1.324,1.155-1.921,1.775
			c-0.552,0.58-1.068,1.182-1.564,1.818c-2.132,2.711-3.633,4.945-4.479,6.689c-0.038,0.077-0.078,0.141-0.13,0.223
			c-0.009,0.03-0.018,0.045-0.027,0.062c-0.071,0.127-0.123,0.263-0.186,0.416c-0.027,0.005-0.053,0.013-0.079,0.019
			c0.005,0.026,0.024,0.051,0.044,0.072l-0.219,0.076c-0.112,0.121-0.193,0.321-0.229,0.593c-0.029,0.242-0.08,0.393-0.167,0.44
			C235.141,165.516,235.066,165.547,235.035,165.539"/>
		<path fill="#003C86" d="M237.973,185.883c-0.284-0.089-0.536-0.158-0.775-0.175c-0.41-0.033-0.755,0.043-1.055,0.249l0.181,1.377
			c0.604,0.404,1.069,0.691,1.403,0.879c0.113,0.071,0.225,0.131,0.332,0.176c0.263,0.496,0.488,0.891,0.662,1.172
			c0.112,0.183,0.229,0.336,0.328,0.469c0.008,0.039,0.014,0.066,0.006,0.095c0.262,0.427,0.551,0.848,0.87,1.291
			c0.144,0.204,0.289,0.421,0.452,0.649c0.771,1.033,1.635,2.105,2.609,3.18c2.426,2.734,5.679,4.562,9.754,5.473
			c0.79,0.186,1.589,0.342,2.389,0.453c0.805,0.113,1.614,0.141,2.445,0.066c0.233-0.01,0.452-0.031,0.68-0.068l-0.47-2.102
			c-0.936,0.098-1.861,0.053-2.806-0.139c-0.913-0.17-1.797-0.404-2.675-0.668c-0.819-0.245-1.602-0.529-2.341-0.852
			c-1.212-0.521-2.611-1.375-4.203-2.547c-0.854-0.711-1.648-1.479-2.393-2.325c-0.518-0.579-1.012-1.177-1.471-1.81
			c-0.6-0.824-1.158-1.713-1.677-2.666c-0.041-0.061-0.083-0.12-0.113-0.197c-0.201-0.344-0.38-0.707-0.534-1.088
			c-0.001-0.014-0.009-0.039-0.012-0.053l-0.029-0.008c-0.029-0.062-0.059-0.139-0.087-0.202c-0.018,0.046-0.022,0.088-0.027,0.13
			c-0.297-0.143-0.748-0.375-1.349-0.699C238.026,185.939,237.992,185.92,237.973,185.883"/>
		<path fill="#003C86" d="M259.592,176.152c-0.223,0.119-0.45,0.227-0.662,0.328c-0.237,0.123-0.477,0.23-0.713,0.354
			c-1.218,0.577-2.583,1.173-4.072,1.781c0.788-0.135,3.264-0.74,7.423-1.818c0.978-0.164,1.846-0.246,2.595-0.246l0.018,0.01
			c2.023-0.007,3.169,0.711,3.431,2.137c0.863,2.93-0.133,5.566-3.011,7.914c-1.216,0.896-2.531,1.592-3.93,2.109
			c-0.903,0.369-1.848,0.678-2.807,0.918c-0.526,0.131-1.016,0.24-1.469,0.328c0.075,0.025,0.626-0.002,1.681-0.056
			c1.058-0.055,2.024-0.021,2.913,0.114c0.592,0.104,1.034,0.214,1.314,0.361c0.138,0.051,0.374,0.179,0.7,0.397
			c0.019,0.011,0.05,0.031,0.065,0.041l0.002,0.014c0.125,0.112,0.258,0.22,0.394,0.329l0.15,0.174
			c0.221,0.367,0.427,0.738,0.622,1.111c0.515,0.885,0.783,1.838,0.789,2.862c-0.004,0.474-0.131,0.904-0.378,1.292
			c-0.599,0.924-1.45,1.518-2.559,1.793c-0.103,0.021-0.211,0.046-0.305,0.053c-0.94,0.209-1.82,0.364-2.671,0.47
			c-0.392,0.046-0.771,0.089-1.165,0.135c-0.054-0.001-0.108,0.01-0.164,0.009l0.47,2.104c0.557-0.056,1.1-0.107,1.653-0.176
			c1.171-0.163,2.293-0.427,3.364-0.777c0.674-0.219,1.279-0.494,1.809-0.791c0.119-0.096,0.236-0.191,0.353-0.286
			c0.697-0.614,1.17-1.358,1.432-2.234c0.24-0.858,0.271-1.712,0.07-2.556c-0.023-0.105-0.048-0.211-0.074-0.332
			c-0.272-1.159-0.612-2.124-1.042-2.874c-0.105-0.159-0.214-0.327-0.331-0.482c-0.183-0.265-0.39-0.511-0.609-0.738
			c-0.092-0.104-0.194-0.192-0.308-0.265c-0.279-0.201-0.57-0.387-0.898-0.55l0.57-0.237c0.341-0.16,0.697-0.363,1.055-0.625
			c0.601-0.424,1.174-0.898,1.724-1.424c2.613-2.539,3.508-5.375,2.681-8.521c-0.41-2.282-1.779-3.504-4.079-3.671
			c0.478-0.413,0.938-0.835,1.354-1.273l0.01-0.017c2.807-3.04,3.255-6.207,1.357-9.488c-1.909-3.337-4.913-4.416-9-3.27
			c-1.659,0.467-3.109,0.93-4.327,1.38c0.431-1.054,0.766-2.224,1.02-3.517c0.573-2.973-0.505-5.314-3.212-7
			c-1.663-1.114-3.562-1.162-5.682-0.15l0.475,2.129c0.013-0.003,0.013-0.003,0.027-0.005c0.294-0.177,0.597-0.314,0.924-0.401
			c0.195-0.057,0.381-0.099,0.581-0.129c0.281-0.049,0.554-0.068,0.847-0.064c0.168,0.005,0.336,0.008,0.509,0.04
			c0.362,0.071,0.691,0.179,1.006,0.344c0.298,0.156,0.562,0.335,0.811,0.527c0.25,0.181,0.461,0.384,0.634,0.596
			c0.175,0.224,0.328,0.48,0.456,0.745c0.508,0.899,0.643,1.951,0.425,3.152c-0.021,0.088-0.043,0.176-0.042,0.245
			c-0.043,0.369-0.105,0.772-0.215,1.214c-0.403,2.047-1.217,4.129-2.433,6.274c0.803-0.943,2.76-1.823,5.876-2.655
			c0.854-0.219,1.68-0.431,2.49-0.652c0.775-0.201,1.553-0.318,2.362-0.361c0.866-0.039,1.684,0.139,2.426,0.544
			c0.742,0.403,1.327,0.911,1.778,1.505c0.454,0.605,0.739,1.139,0.871,1.609c0.136,0.484,0.235,0.863,0.284,1.144
			c0.021,0.343,0.015,0.69-0.021,1.032c-0.062,1.277-0.646,2.518-1.759,3.751c-0.255,0.292-0.522,0.588-0.816,0.89
			c-0.08,0.072-0.149,0.144-0.232,0.203c-0.23,0.205-0.463,0.41-0.697,0.602c-0.048,0.037-0.095,0.075-0.13,0.098
			c-0.227,0.176-0.452,0.351-0.676,0.525c-0.154,0.116-0.297,0.218-0.456,0.322c-0.153,0.118-0.323,0.227-0.493,0.332
			c-0.308,0.181-0.628,0.363-0.939,0.529c-0.159,0.09-0.319,0.182-0.479,0.273C260.226,175.818,259.915,175.984,259.592,176.152"/>
		<path fill="#1E95D4" d="M243.088,157.016c-0.075,0.098-0.15,0.198-0.229,0.285c-0.446,0.558-1.056,1.359-1.836,2.408
			c-0.931,1.247-1.687,2.459-2.287,3.631c-0.611,1.178-0.975,1.912-1.105,2.203l-0.01,0.142c0.005,0.138-0.059,0.235-0.169,0.302
			c-0.011,0.016-0.022,0.02-0.033,0.035l-0.036,0.021c-0.055,0.067-0.098,0.188-0.102,0.356c-0.006,0.222-0.083,0.38-0.243,0.47
			c-0.013,0.004-0.026,0.006-0.037,0.021c-0.141,0.047-0.356,0.137-0.649,0.256l1.621,18.736c0.02,0.037,0.054,0.058,0.096,0.061
			c0.601,0.325,1.053,0.557,1.349,0.699c0.005-0.042,0.01-0.084,0.027-0.13c0.028,0.063,0.058,0.138,0.087,0.202l0.029,0.007
			c0.003,0.015,0.011,0.04,0.012,0.054c0.154,0.381,0.333,0.744,0.534,1.088c0.03,0.076,0.072,0.137,0.113,0.197
			c0.519,0.953,1.077,1.842,1.677,2.666c0.459,0.631,0.953,1.23,1.471,1.81c0.744,0.847,1.539,1.612,2.393,2.325
			c1.592,1.172,2.991,2.026,4.203,2.547c0.738,0.322,1.521,0.605,2.341,0.852c0.878,0.264,1.762,0.498,2.675,0.669
			c1.001,0.193,1.982,0.237,2.971,0.13c0.393-0.047,0.772-0.09,1.164-0.135c0.851-0.107,1.73-0.262,2.671-0.471
			c0.094-0.008,0.202-0.031,0.306-0.055c1.107-0.273,1.959-0.866,2.558-1.791c0.247-0.387,0.374-0.818,0.378-1.291
			c-0.006-1.025-0.274-1.98-0.789-2.863c-0.195-0.373-0.401-0.743-0.622-1.111l-0.15-0.175c-0.136-0.108-0.269-0.218-0.395-0.327
			l-0.001-0.016c-0.016-0.008-0.047-0.029-0.065-0.041c-0.325-0.219-0.562-0.346-0.7-0.398c-0.28-0.146-0.723-0.254-1.314-0.359
			c-0.889-0.134-1.855-0.168-2.912-0.115c-1.056,0.055-1.606,0.082-1.682,0.055c0.453-0.086,0.942-0.195,1.469-0.326
			c0.959-0.24,1.903-0.548,2.807-0.917c1.398-0.519,2.714-1.214,3.93-2.11c2.878-2.347,3.874-4.984,3.011-7.914
			c-0.262-1.427-1.407-2.145-3.431-2.137l-0.018-0.01c-0.749,0-1.617,0.084-2.595,0.245c-4.159,1.079-6.635,1.685-7.423,1.819
			c1.489-0.609,2.854-1.204,4.072-1.781c0.236-0.122,0.476-0.23,0.713-0.353c0.212-0.103,0.438-0.208,0.662-0.328
			c0.323-0.169,0.634-0.335,0.942-0.502c0.16-0.091,0.32-0.182,0.479-0.272c0.312-0.167,0.632-0.35,0.939-0.528
			c0.17-0.107,0.34-0.216,0.493-0.333c0.159-0.104,0.302-0.207,0.456-0.323c0.224-0.175,0.448-0.351,0.676-0.524
			c0.036-0.021,0.082-0.061,0.13-0.099c0.234-0.191,0.467-0.396,0.697-0.601c0.083-0.06,0.152-0.129,0.232-0.203
			c0.294-0.301,0.562-0.598,0.816-0.89c1.112-1.233,1.696-2.474,1.759-3.75c0.035-0.342,0.041-0.69,0.021-1.032
			c-0.049-0.281-0.148-0.661-0.284-1.145c-0.132-0.471-0.417-1.004-0.871-1.61c-0.451-0.594-1.036-1.101-1.778-1.505
			c-0.742-0.403-1.56-0.581-2.426-0.542c-0.81,0.042-1.587,0.159-2.362,0.36c-0.811,0.223-1.637,0.434-2.49,0.652
			c-3.116,0.833-5.073,1.713-5.876,2.656c1.216-2.146,2.029-4.228,2.433-6.275c0.109-0.44,0.172-0.844,0.215-1.215
			c-0.001-0.068,0.021-0.156,0.042-0.244c0.218-1.2,0.083-2.252-0.425-3.153c-0.128-0.263-0.281-0.52-0.456-0.745
			c-0.173-0.211-0.384-0.412-0.634-0.594c-0.25-0.193-0.513-0.373-0.81-0.527c-0.315-0.166-0.645-0.272-1.007-0.344
			c-0.173-0.032-0.341-0.037-0.509-0.041c-0.293-0.004-0.565,0.016-0.847,0.065c-0.2,0.03-0.386,0.071-0.581,0.128
			c-0.327,0.086-0.631,0.224-0.924,0.4c-0.222,0.133-0.44,0.266-0.65,0.381c-0.209,0.116-0.418,0.245-0.626,0.375
			c-0.218,0.146-0.434,0.291-0.638,0.434c-0.231,0.148-0.445,0.307-0.645,0.477c-0.239,0.177-0.459,0.365-0.678,0.568
			c-0.232,0.203-0.451,0.404-0.665,0.619C243.519,156.516,243.293,156.761,243.088,157.016"/>
		<path fill="#1E95D4" d="M109.873,101.055c3.606-7,7.711-11.95,12.324-14.833c4.165-2.58,8.932-3.593,14.326-3.022
			c2.806,0.291,5.965,1.055,9.48,2.283c-0.114-2.139,0.338-4.23,1.354-6.272c1.619-3.302,4.267-5.498,7.945-6.603
			c3.668-1.111,7.27-0.775,10.824,0.985c3.532,1.778,5.973,4.456,7.306,8.022c0.706,1.883,1.001,3.711,0.9,5.518
			c1.34-1.121,2.938-1.967,4.804-2.529c3.667-1.11,7.268-0.776,10.824,0.984c2.177,1.089,3.934,2.524,5.264,4.285
			c0.842,1.115,1.524,2.357,2.042,3.739c1.358,3.578,1.207,7.03-0.419,10.347c-1.293,2.613-3.238,4.543-5.797,5.77
			c3.982,2.936,7.071,5.848,9.273,8.724c2.81,3.632,4.419,7.604,4.822,11.899c0.566,5.868-1.102,12.352-5.019,19.443
			c-2.278,4.131-5.637,7.449-10.049,9.98c-4.281,2.425-9.261,3.932-14.938,4.506c-12.022,1.203-24.276-1.555-36.735-8.27
			c-12.483-6.724-21.497-15.455-27.045-26.193c-2.643-5.065-4.112-10.061-4.407-14.955
			C106.655,109.803,107.62,105.197,109.873,101.055"/>
		<path fill="none" stroke="#044591" stroke-width="2.2095" stroke-linecap="round" stroke-miterlimit="10" d="M120.29,86.631
			c4.112-2.842,8.658-4.279,13.655-4.32c4.994-0.04,8.696,0.789,11.13,2.502c-0.007-2.213,0.7-4.585,2.141-7.123
			c1.44-2.537,3.554-4.3,6.337-5.311c2.794-1.006,5.126-1.46,6.992-1.359c1.867,0.099,3.738,0.573,5.58,1.43
			c1.861,0.846,3.441,1.92,4.743,3.188c1.304,1.269,2.211,2.548,2.735,3.841c0.529,1.281,0.894,2.492,1.095,3.631
			c0.255,1.464,0.395,2.29,0.449,2.479c1.039-0.527,1.858-0.927,2.474-1.203c1.079-0.512,2.184-0.876,3.314-1.126
			c1.264-0.282,2.538-0.379,3.836-0.315c1.605,0.076,3.285,0.575,5.023,1.461c2.312,1.193,4.225,2.649,5.74,4.401
			c0.543,0.625,1.115,1.458,1.7,2.508c0.576,0.999,0.991,1.886,1.249,2.645c0.529,1.46,0.739,3.101,0.612,4.927
			c-0.112,1.828-0.723,3.838-1.794,6.007c-1.072,2.169-2.826,3.938-5.267,5.308c3.938,2.375,7.176,5.395,9.703,9.059
			c2.536,3.664,3.932,7.996,4.183,12.992s-1.121,10.269-4.134,15.826c-3.01,5.544-6.701,9.605-11.066,12.159
			c-4.364,2.554-11.047,4.271-20.025,5.149c-8.977,0.866-19.785-2.143-32.401-9.045s-21.104-14.381-25.444-22.451
			c-4.325-8.061-6.585-14.538-6.769-19.445s1.12-10.059,3.884-15.453C112.743,93.602,116.189,89.479,120.29,86.631z"/>
		<path fill="#F2F2F3" d="M147.357,79.21c1.62-3.302,4.266-5.499,7.945-6.604c3.668-1.108,7.268-0.774,10.825,0.985
			c3.531,1.779,5.972,4.457,7.305,8.025c0.705,1.881,1.001,3.709,0.9,5.515c1.34-1.121,2.938-1.967,4.805-2.528
			c3.666-1.11,7.268-0.776,10.823,0.984c3.531,1.779,5.973,4.457,7.305,8.024c1.359,3.577,1.207,7.032-0.418,10.346
			c-1.655,3.315-4.309,5.525-7.981,6.618c-3.676,1.091-7.286,0.75-10.831-1.004c-3.531-1.75-5.971-4.426-7.299-8.006
			c-0.706-1.883-1.002-3.709-0.887-5.511c-1.339,1.122-2.952,1.961-4.817,2.523c-3.674,1.093-7.286,0.752-10.831-1.003
			c-3.532-1.749-5.973-4.426-7.299-8.006C145.55,85.979,145.701,82.525,147.357,79.21"/>
		<path fill="#0E0205" d="M168.916,89.536c-1.031-1.186-2.154-1.99-3.369-2.417c-1.387-0.456-2.843-0.388-4.363,0.221
			c-0.344,0.139-0.672,0.146-1.003,0.016c-0.311-0.156-0.535-0.402-0.67-0.74c-0.127-0.316-0.123-0.651,0.009-0.986
			c0.132-0.334,0.369-0.57,0.709-0.695c2.148-0.876,4.187-0.953,6.132-0.254c1.671,0.568,3.235,1.684,4.667,3.328
			c0.429,0.5,0.817,1.033,1.169,1.598c0.278,0.447,0.421,0.681,0.435,0.686c0.151,0.328,0.177,0.654,0.062,0.98
			c-0.105,0.345-0.311,0.607-0.622,0.771c-0.302,0.184-0.652,0.215-1.019,0.101c-0.345-0.136-0.594-0.347-0.737-0.624l0.011-0.027
			C169.734,90.57,169.262,89.915,168.916,89.536"/>
		<path fill="#0E0205" d="M179.814,100.98c-0.99-1.219-2.085-2.062-3.283-2.531c-1.37-0.504-2.83-0.488-4.37,0.068
			c-0.348,0.125-0.675,0.121-1.004-0.021c-0.306-0.166-0.521-0.42-0.643-0.762c-0.115-0.322-0.099-0.655,0.044-0.986
			c0.143-0.329,0.389-0.558,0.732-0.67c2.177-0.801,4.217-0.807,6.139-0.04c1.649,0.628,3.171,1.794,4.546,3.489
			c0.411,0.515,0.782,1.061,1.113,1.639c0.262,0.455,0.396,0.693,0.408,0.699c0.142,0.332,0.154,0.662,0.029,0.983
			c-0.119,0.339-0.332,0.595-0.648,0.75c-0.31,0.171-0.657,0.19-1.022,0.063c-0.339-0.148-0.583-0.367-0.715-0.65l0.012-0.027
			C180.596,102.043,180.144,101.373,179.814,100.98"/>
		<path fill="#0E0205" d="M128.442,99.446l2.053-3.479c7.184,8.865,19.307,16.871,36.381,23.99
			c5.326,2.253,10.836,4.258,16.539,6.034l6.906,2.025c-3.635,12.46-13.301,16.958-29.02,13.479
			c-7.858-1.729-15.344-4.723-22.471-8.988c-9.862-6.658-14.215-14.736-13.052-24.235
			C126.134,105.314,127.024,102.365,128.442,99.446"/>
		<path fill="#1E95D4" d="M79.799,157.386c7.81-6.009,16.217-13.164,25.206-21.458c0.449-0.406,3.753-2.996,9.888-7.746
			c0.064,0.067,0.126,0.136,0.176,0.2c0.622,1.05,1.169,1.905,1.64,2.573c0.992,1.396,2.172,2.762,3.58,4.078
			c1.698,1.488,2.998,2.617,3.892,3.414c2.143,1.879,5.496,4.216,10.065,7.015c4.867,2.986,9.817,5.679,14.853,8.107l4.703,1.786
			c4.158,1.389,7.27,2.303,9.359,2.756c1.786,0.279,3.12,0.506,4.007,0.662c1.623,0.278,2.859,0.453,3.696,0.504
			c0.716,2.475,1.3,4.676,1.761,6.611c4.017,17.297,4.685,32.555,1.999,45.74c-3.455,16.767-12.152,27.404-26.1,31.91
			c-17.036,5.505-41.204,1.458-72.495-12.139c-6.134-2.652-10.837-6.967-14.12-12.959c-3.147-5.762-4.624-12.309-4.405-19.662
			c0.2-7.492,2.135-14.77,5.785-21.854C67.226,169.359,72.729,162.846,79.799,157.386"/>
	</g>
	<g>
		
			<line fill="none" stroke="#3E3A39" stroke-width="3.3733" stroke-linecap="round" stroke-linejoin="round" stroke-miterlimit="10" x1="162.659" y1="56.784" x2="160.41" y2="1.687"/>
		
			<line fill="none" stroke="#3E3A39" stroke-width="3.3733" stroke-linecap="round" stroke-linejoin="round" stroke-miterlimit="10" x1="184.023" y1="57.908" x2="197.517" y2="8.434"/>
		
			<line fill="none" stroke="#3E3A39" stroke-width="3.3733" stroke-linecap="round" stroke-linejoin="round" stroke-miterlimit="10" x1="197.517" y1="65.779" x2="235.805" y2="29.051"/>
	</g>
</g>
</svg>
