<?xml version="1.0" encoding="utf-8"?>
<!-- Generator: Adobe Illustrator 16.0.0, SVG Export Plug-In . SVG Version: 6.00 Build 0)  -->
<!DOCTYPE svg PUBLIC "-//W3C//DTD SVG 1.1//EN" "http://www.w3.org/Graphics/SVG/1.1/DTD/svg11.dtd">
<svg version="1.1" id="レイヤー_1" xmlns="http://www.w3.org/2000/svg" xmlns:xlink="http://www.w3.org/1999/xlink" x="0px"
	 y="0px" width="269.999px" height="294.725px" viewBox="0 0 269.999 294.725" enable-background="new 0 0 269.999 294.725"
	 xml:space="preserve">
<g>
	<g>
		<path fill="#1E95D4" d="M79.856,157.242c7.81-6.009,16.217-13.163,25.205-21.457c0.449-0.407,3.754-2.996,9.889-7.747
			c12.897,14.815,28.888,17.236,47.967,7.244c4.909,13.467,8.165,23.618,9.766,30.464c4.016,17.295,4.683,32.555,1.997,45.741
			c-3.454,16.765-12.15,27.404-26.1,31.908c-17.035,5.505-41.205,1.458-72.496-12.138c-6.133-2.654-10.835-6.967-14.118-12.959
			c-3.149-5.764-4.624-12.31-4.405-19.662c0.198-7.494,2.135-14.771,5.785-21.854C67.282,169.215,72.787,162.704,79.856,157.242"/>
		<path fill="none" stroke="#044591" stroke-width="2.2107" stroke-linecap="round" stroke-miterlimit="10" d="M104.771,134.714
			c-9.151,8.455-17.694,15.736-25.654,21.864c-7.196,5.56-12.792,12.201-16.8,19.917c-3.726,7.205-5.69,14.634-5.907,22.253
			c-0.225,7.483,1.275,14.158,4.473,20.027c3.343,6.104,8.123,10.49,14.354,13.197c31.837,13.831,56.416,17.931,73.757,12.32
			c14.189-4.591,23.051-15.433,26.567-32.516c2.734-13.435,2.071-28.97-2.003-46.586c-1.63-6.959-4.943-17.31-9.926-31.012
			c-19.413,10.175-35.675,7.726-48.792-7.365C108.577,131.665,105.228,134.294,104.771,134.714z"/>
		<path fill="#1E95D4" d="M69.897,197.852l-1.716-2.525l-39.795,4.105c-0.068,0.002-0.153-0.008-0.251-0.017
			c-0.099-0.038-0.21-0.075-0.322-0.125c-0.048-0.135-0.082-0.272-0.13-0.408c-0.248-2.176-0.58-4.347-1.022-6.528
			c-0.019-0.109-0.052-0.232-0.087-0.383c-0.018-0.096-0.067-0.316-0.154-0.686c-0.975-4.178-2.419-8.373-4.322-12.607
			c-1.818-3.849-4.242-7.311-7.243-10.401c-1.55-1.522-3.577-2.665-6.089-3.41l-0.039,0.001c-2.498-0.748-4.243,0.742-5.24,4.48
			c-0.014,0.029-0.012,0.057-0.024,0.084c-0.012,0.014-0.012,0.042-0.024,0.057c-0.185,0.562-0.366,1.138-0.547,1.74
			c-0.013,0.015-0.011,0.041-0.024,0.057c-0.014,0.015-0.023,0.07-0.048,0.154c-0.014,0.042-0.037,0.099-0.051,0.141
			c-1.455,4.935-1.95,9.967-1.502,15.094c0.003,0.083,0.009,0.166,0.011,0.235c0.003,0.042,0.005,0.081,0.005,0.124
			c0.004,0.068,0.006,0.124,0.009,0.192c0.004,0.069,0.008,0.152,0.011,0.221c0.691,13.724,4.062,28.573,10.113,44.537
			c0.093,0.202,0.196,0.392,0.302,0.594c0.106,0.218,0.227,0.419,0.36,0.606c0.014,0.015,0.043,0.041,0.071,0.053
			c0.073,0.066,0.146,0.131,0.216,0.184c0.129,0.106,0.272,0.197,0.415,0.287c0.07,0.039,0.127,0.078,0.197,0.115
			c0.213,0.115,0.466,0.215,0.733,0.3c0.238,0.071,0.49,0.144,0.756,0.202c0.433,0.076,0.893,0.152,1.351,0.215
			c0.238,0.045,0.488,0.076,0.779,0.105c0.851,0.086,1.874,0.11,3.077,0.07c0.262-0.012,0.538-0.023,0.826-0.05
			c0.222-0.011,0.456-0.034,0.718-0.074c0.303-0.026,0.593-0.054,0.882-0.095c0.177-0.034,0.356-0.07,0.535-0.093
			c0.314-0.056,0.632-0.112,0.948-0.18c0.259-0.066,0.519-0.133,0.793-0.202c0.271-0.08,0.546-0.174,0.818-0.257l47.176-14.88
			l0.414-0.336l1.443-1.809l-4.127-18.441L69.897,197.852z"/>
		<path fill="none" stroke="#044591" stroke-width="2.2118" stroke-linecap="round" stroke-miterlimit="10" d="M68.182,195.327
			l-39.795,4.105c-0.069,0.002-0.152-0.006-0.248-0.017c-0.101-0.037-0.211-0.075-0.325-0.125c-0.047-0.136-0.082-0.272-0.13-0.408
			c-0.248-2.176-0.58-4.347-1.022-6.528c-0.019-0.109-0.052-0.232-0.086-0.383c-0.019-0.096-0.068-0.316-0.156-0.686
			c-0.974-4.178-2.42-8.373-4.322-12.607c-1.818-3.849-4.24-7.311-7.242-10.401c-1.548-1.523-3.579-2.665-6.088-3.41l-0.042,0.001
			c-2.496-0.746-4.241,0.741-5.238,4.48c-0.013,0.029-0.012,0.056-0.024,0.084c-0.014,0.014-0.011,0.041-0.025,0.057
			c-0.183,0.562-0.363,1.138-0.546,1.74c-0.013,0.015-0.011,0.041-0.024,0.057c-0.013,0.014-0.023,0.07-0.049,0.153
			c-0.013,0.043-0.036,0.1-0.05,0.142c-1.455,4.936-1.951,9.967-1.501,15.094c0.002,0.083,0.008,0.166,0.01,0.235
			c0.001,0.042,0.004,0.081,0.005,0.124c0.003,0.068,0.005,0.124,0.009,0.192c0.004,0.069,0.009,0.152,0.011,0.221
			c0.691,13.724,4.062,28.573,10.113,44.537c0.093,0.202,0.195,0.392,0.303,0.594c0.105,0.217,0.225,0.419,0.358,0.606
			c0.016,0.015,0.044,0.041,0.071,0.053c0.074,0.066,0.146,0.131,0.217,0.184c0.129,0.106,0.272,0.197,0.415,0.287
			c0.07,0.039,0.126,0.078,0.197,0.115c0.212,0.115,0.466,0.215,0.733,0.3c0.237,0.071,0.491,0.144,0.756,0.202
			c0.433,0.076,0.892,0.152,1.353,0.217c0.235,0.045,0.487,0.074,0.778,0.103c0.848,0.087,1.874,0.111,3.076,0.071
			c0.262-0.012,0.537-0.023,0.828-0.05c0.221-0.01,0.454-0.034,0.716-0.074c0.303-0.026,0.592-0.054,0.883-0.095
			c0.177-0.034,0.354-0.07,0.535-0.093c0.312-0.056,0.631-0.112,0.946-0.181c0.26-0.065,0.52-0.132,0.793-0.199
			c0.273-0.082,0.546-0.177,0.818-0.259l47.178-14.88l0.413-0.336l1.441-1.809l-4.125-18.439l-0.202-0.449L68.182,195.327z"/>
		<path fill="#1E95D4" d="M146.074,235.342c1.479,2.13,2.943,4.473,4.391,7.029c3.013,4.318,4.338,8.939,3.995,13.883
			c-0.229,3.236-1.393,6.193-3.51,8.867c-0.681,1.026-1.412,2.008-2.207,2.945l-0.277,0.33c0.005,0.027,0.01,0.055,0.016,0.082
			c1.017-0.119,1.931-0.205,2.75-0.26c0.724-0.036,1.676-0.073,2.838-0.093c0.252-0.005,0.505-0.01,0.757-0.015
			c4.306,0.014,8.724,0.471,13.263,1.354c4.188,0.893,8.14,2.477,11.851,4.725c1.848,1.161,3.416,2.865,4.713,5.142l0.018,0.024
			c1.28,2.265,0.265,4.281-3.072,6.071c-0.063,0.04-0.126,0.079-0.191,0.106c-0.518,0.321-1.036,0.628-1.557,0.937
			c-0.074,0.043-0.152,0.084-0.229,0.127c-4.509,2.6-9.347,4.261-14.483,4.992c-0.204,0.039-0.409,0.076-0.615,0.1
			c-13.616,2.481-28.971,2.574-46.04,0.256c-0.541-0.18-1.047-0.408-1.523-0.701c-0.016-0.01-0.034-0.033-0.051-0.045
			c-0.397-0.405-0.767-0.871-1.075-1.391c-0.883-1.719-1.462-3.538-1.718-5.445c-0.092-0.643-0.145-1.309-0.142-1.971
			c-0.021-0.488-0.008-0.941,0.041-1.359c0.075-0.574,0.176-1.17,0.328-1.791c1.312-5.264,4.046-10.739,8.231-16.426
			c2.174-3.205,4.3-6.203,6.369-8.992l-5.412-16.658l0.166-0.172L146.074,235.342z"/>
		<path fill="none" stroke="#044591" stroke-width="2.2118" stroke-linecap="round" stroke-miterlimit="10" d="M150.465,242.372
			c3.013,4.319,4.337,8.939,3.993,13.883c-0.227,3.235-1.392,6.194-3.508,8.867c-0.681,1.027-1.412,2.008-2.208,2.944l-0.276,0.331
			c0.005,0.027,0.01,0.055,0.016,0.081c1.018-0.118,1.931-0.203,2.751-0.259c0.724-0.035,1.672-0.072,2.838-0.092
			c0.251-0.006,0.504-0.01,0.756-0.015c4.307,0.013,8.724,0.47,13.263,1.353c4.188,0.895,8.14,2.477,11.849,4.725
			c1.848,1.162,3.417,2.865,4.715,5.143l0.018,0.025c1.28,2.264,0.265,4.281-3.072,6.071c-0.063,0.04-0.125,0.079-0.191,0.104
			c-0.517,0.322-1.036,0.63-1.557,0.938c-0.076,0.042-0.151,0.085-0.229,0.127c-4.509,2.6-9.347,4.26-14.483,4.992
			c-0.204,0.038-0.407,0.076-0.615,0.1c-13.615,2.482-28.971,2.572-46.04,0.256c-0.54-0.181-1.047-0.408-1.522-0.701
			c-0.017-0.01-0.035-0.034-0.051-0.046c-0.399-0.403-0.768-0.869-1.075-1.389c-0.883-1.72-1.463-3.538-1.719-5.446
			c-0.092-0.644-0.146-1.309-0.142-1.972c-0.021-0.487-0.006-0.94,0.041-1.357c0.075-0.577,0.177-1.171,0.328-1.791
			c1.312-5.265,4.046-10.739,8.23-16.428c2.174-3.204,4.301-6.202,6.37-8.993l-5.412-16.656l0.165-0.172l22.378-1.651
			C147.555,237.471,149.018,239.815,150.465,242.372z"/>
		<path fill="#003C86" d="M90.327,155.133c-0.254,0.221-0.551,0.307-0.862,0.289c-0.339-0.018-0.606-0.168-0.811-0.424
			l-46.285-54.341c-0.22-0.254-0.305-0.536-0.271-0.862c0.017-0.326,0.153-0.592,0.407-0.812c0.253-0.205,0.536-0.291,0.861-0.273
			c0.132,0.016,0.266,0.046,0.385,0.092c0.162,0.075,0.294,0.181,0.427,0.316l45.757,53.729c0.295,0.047,0.546,0.182,0.751,0.408
			c0.188,0.223,0.276,0.461,0.291,0.743c-0.001,0.044-0.001,0.074-0.001,0.118c-0.018,0.324-0.156,0.592-0.408,0.812L90.327,155.133
			z"/>
		<path fill="#1E95D4" d="M90.976,153.999c-0.013-0.281-0.099-0.52-0.29-0.744c-0.205-0.223-0.457-0.359-0.752-0.406l-45.757-53.73
			c-0.131-0.135-0.264-0.241-0.426-0.315c1.555-3.202,4.192-6.334,7.91-9.382c3.078-2.536,5.936-3.932,8.59-4.188
			c0.014,0.192,0.088,0.385,0.203,0.549c0.177,0.282,0.426,0.449,0.736,0.511l44.069,50.322c0.22,0.253,0.485,0.388,0.812,0.406
			h0.03c-0.266,4.548-1.872,8.46-4.821,11.737C98.374,151.992,94.936,153.739,90.976,153.999"/>
		<path fill="#003C86" d="M106.919,136.718c-0.239,0.219-0.507,0.32-0.818,0.304h-0.028c-0.326-0.019-0.592-0.154-0.812-0.407
			L61.19,86.292c-0.311-0.062-0.56-0.227-0.735-0.511c-0.116-0.164-0.188-0.357-0.202-0.55c-0.016-0.103,0-0.222,0.032-0.341
			c0.062-0.31,0.227-0.561,0.512-0.751c0.268-0.175,0.564-0.232,0.889-0.17c0.044,0.016,0.104,0.016,0.149,0.031
			c0.015,0.015,0.015,0.015,0.029,0.015c0.147,0.017,0.295,0.047,0.444,0.108c0.147,0.075,0.281,0.166,0.396,0.286l44.332,50.635
			c0.221,0.252,0.307,0.55,0.289,0.861C107.309,136.232,107.172,136.498,106.919,136.718"/>
		<path fill="#003C86" d="M64.013,89.021c-0.126-0.153-0.336-0.387-0.626-0.722c-0.196-0.242-0.339-0.419-0.433-0.543
			c-0.015-0.024-0.03-0.048-0.037-0.06c-0.096-0.156-0.086-0.328,0.011-0.52c0.076-0.146,0.104-0.263,0.097-0.356l-0.026-0.017
			c0.004-0.018-0.004-0.031,0.001-0.05c-0.073-0.12-0.079-0.234-0.006-0.36l0.07-0.125c0.036-0.319,0.066-0.67,0.098-1.051
			c0.126-2.293,0.055-4.611-0.208-6.946c-0.102-0.946-0.229-1.825-0.371-2.647l1.655-1.017c0.823,4.698,1.153,8.246,0.992,10.642
			c0.002,0.082-0.002,0.183-0.002,0.265c-0.005,0.018-0.01,0.038-0.015,0.058c-0.004,0.151-0.01,0.305-0.027,0.464
			c0.02,0.005,0.025,0.015,0.033,0.028c-0.005,0.021,0.004,0.031,0.011,0.043c-0.024,0.015-0.037,0.022-0.048,0.03l0.055,0.065
			c-0.005,0.019,0,0.05,0.002,0.081l0.009,0.014c0.002,0.03,0.005,0.062,0,0.081c-0.001,0.051,0.003,0.114,0.002,0.163
			c-0.001,0.134,0.003,0.248,0.004,0.33c-0.005,0.019-0.021,0.046-0.025,0.065c-0.095,0.223-0.112,0.383-0.062,0.467
			c0.074,0.119,0.131,0.186,0.149,0.188c0.013-0.006,0.031-0.002,0.046,0.021l-0.316,0.293c0.051,0.053,0.084,0.081,0.093,0.092
			l-1.111,1.016L64.013,89.021z"/>
		<path fill="#003C86" d="M51.077,106.861c-0.735-0.093-1.287-0.184-1.647-0.259c-0.129-0.021-0.244-0.047-0.355-0.096
			c-0.527,0.192-0.962,0.345-1.275,0.453c-0.189,0.067-0.374,0.116-0.536,0.148c-0.016,0.027-0.041,0.042-0.045,0.062
			c-0.485,0.151-0.979,0.288-1.5,0.411c-0.239,0.065-0.5,0.125-0.768,0.174c-1.232,0.279-2.578,0.512-4.01,0.683
			c-3.598,0.462-7.241-0.305-10.951-2.303c-3.129-1.678-5.644-3.617-7.544-5.819l1.834-1.129c1.722,1.833,3.376,3.178,4.961,4.037
			c1.767,0.965,3.332,1.736,4.689,2.305c1.366,0.581,3.083,0.847,5.131,0.792c1.108,0.029,2.209-0.036,3.315-0.172
			c0.758-0.085,1.517-0.222,2.265-0.402c0.997-0.232,2-0.536,2.991-0.914c0.067-0.025,0.135-0.05,0.202-0.076
			c0.38-0.135,0.753-0.281,1.121-0.458c0.012-0.007,0.037-0.022,0.048-0.03l0.019,0.006c0.068-0.026,0.116-0.056,0.185-0.082
			c-0.011,0.04-0.02,0.079-0.048,0.113c0.318,0.085,0.809,0.212,1.46,0.357c0.037,0.01,0.077,0.018,0.116,0.028
			c0.273,0.097,0.499,0.222,0.701,0.362c0.33,0.242,0.547,0.539,0.647,0.891L51.077,106.861L51.077,106.861z"/>
		<path fill="#003C86" d="M37.113,79.594c0.931,2.054,2.298,4.517,4.099,7.393c-0.56-0.564-2.23-2.527-4.995-5.868
			c-0.7-0.708-1.353-1.283-1.974-1.729l-0.011,0.008c-1.654-1.212-2.991-1.315-4.008-0.312c-2.135,1.662-2.904,4.036-2.319,7.111
			c0.157,0.846,0.41,1.633,0.76,2.392c0.39,0.82,0.82,1.627,1.32,2.412c0.234,0.383,0.471,0.767,0.718,1.143
			c0.385,0.542,0.783,1.057,1.214,1.567c0.142,0.178,0.284,0.354,0.431,0.512l-0.085,0.052c-0.049-0.053-0.116-0.111-0.178-0.155
			c-1.119-1.013-2.019-1.699-2.697-2.075c-0.118-0.059-0.226-0.125-0.338-0.172c-0.815-0.44-1.66-0.581-2.531-0.408
			c-0.539,0.116-1.056,0.352-1.51,0.714c-0.689,0.573-1.366,1.138-2.019,1.72c-0.527,0.507-0.785,1.11-0.793,1.825
			c-0.002,0.184,0.026,0.365,0.099,0.536c0.249,0.591,0.524,1.147,0.861,1.668c0.165,0.213,0.341,0.418,0.529,0.617
			c0.202,0.222,0.398,0.432,0.593,0.642l-1.834,1.129c-0.345-0.398-0.658-0.802-0.966-1.223c-0.325-0.444-0.617-0.893-0.839-1.335
			c-0.367-0.782-0.478-1.606-0.371-2.481c0.108-0.926,0.451-1.765,1.023-2.53c0.227-0.271,0.495-0.536,0.794-0.803
			c1.63-1.432,3.071-2.153,4.32-2.162c0.409,0.046,0.812,0.112,1.205,0.186c-0.032,0.002-0.069-0.008-0.115-0.029
			c-0.599-0.838-1.016-1.838-1.236-2.973c-0.038-0.145-0.063-0.292-0.102-0.435c-0.855-3.836-0.001-6.824,2.583-8.992
			c1.641-1.604,3.456-1.795,5.415-0.571c-0.159-0.611-0.282-1.213-0.384-1.831l0.007-0.019c-0.534-4.118,0.897-6.947,4.313-8.488
			c3.45-1.561,6.513-0.668,9.177,2.667c1.086,1.365,1.997,2.605,2.744,3.684c0.241-1.11,0.64-2.263,1.173-3.465
			c1.244-2.733,3.446-3.987,6.605-3.766c3.265,0.123,5.386,2.951,6.369,8.442c0.018,0.137,0.043,0.288,0.073,0.417l-1.654,1.017
			c-0.344-1.819-0.793-3.329-1.378-4.521c-0.785-1.897-1.907-2.942-3.346-3.129l-0.012,0.005c-0.115,0.003-0.224-0.012-0.353-0.031
			c-0.012,0.006-0.012,0.006-0.019-0.004c-0.797-0.088-1.544,0.039-2.232,0.399c-0.93,0.422-1.645,1.193-2.146,2.312
			c-0.031,0.084-0.058,0.151-0.103,0.21c-0.18,0.325-0.35,0.695-0.521,1.114c-0.832,1.899-1.36,4.075-1.6,6.536
			c-0.107-1.172-1.085-2.918-2.951-5.257c-0.576-0.721-1.162-1.433-1.735-2.121c-0.509-0.613-1.059-1.185-1.653-1.694
			c-0.629-0.539-1.326-1.002-2.098-1.37c-0.772-0.368-1.575-0.436-2.392-0.181c-0.141,0.069-0.299,0.134-0.445,0.191
			c-1.376,0.665-2.385,1.55-3.012,2.68c-0.683,1.063-0.928,2.438-0.727,4.083c0.03,0.344,0.08,0.694,0.136,1.055
			c0.241,0.794,0.448,1.56,0.639,2.301C36.758,78.671,36.914,79.137,37.113,79.594"/>
		<path fill="#003C86" d="M32.264,94.276l0.084-0.051c0.183,0.217,0.369,0.416,0.559,0.614
			C32.695,94.655,32.482,94.47,32.264,94.276"/>
		<path fill="#1E95D4" d="M61.204,71.103c0.833,1.733,1.41,4.121,1.749,7.169c0.263,2.333,0.334,4.653,0.207,6.944
			c-0.03,0.383-0.061,0.732-0.097,1.051l-0.072,0.126c-0.071,0.125-0.067,0.24,0.008,0.361c-0.005,0.018,0.003,0.03-0.001,0.049
			l0.026,0.017c0.007,0.093-0.021,0.21-0.097,0.355c-0.097,0.192-0.106,0.365-0.011,0.52c0.007,0.013,0.022,0.036,0.037,0.061
			l-13.748,16.438c-0.068,0.025-0.116,0.055-0.185,0.08l-0.019-0.004c-0.011,0.005-0.036,0.021-0.048,0.028
			c-0.369,0.179-0.742,0.325-1.121,0.46c-0.068,0.025-0.136,0.05-0.202,0.074c-0.991,0.378-1.994,0.682-2.991,0.914
			c-0.748,0.18-1.509,0.316-2.265,0.401c-1.106,0.136-2.207,0.202-3.313,0.172c-2.051,0.054-3.767-0.211-5.133-0.792
			c-1.357-0.569-2.923-1.34-4.689-2.305c-1.759-0.95-3.614-2.518-5.556-4.679c-0.187-0.198-0.362-0.404-0.527-0.617
			c-0.337-0.52-0.612-1.077-0.861-1.667c-0.072-0.171-0.1-0.352-0.098-0.537c0.007-0.714,0.263-1.317,0.793-1.826
			c0.651-0.582,1.328-1.147,2.018-1.72c0.452-0.362,0.971-0.597,1.51-0.714c0.868-0.172,1.714-0.031,2.531,0.409
			c0.112,0.048,0.22,0.113,0.338,0.173c0.679,0.375,1.577,1.061,2.697,2.076c0.281,0.241,0.561,0.48,0.821,0.716
			c-0.318-0.332-0.65-0.708-0.988-1.127c-0.433-0.511-0.832-1.025-1.215-1.567c-0.247-0.375-0.483-0.759-0.719-1.143
			c-0.498-0.784-0.928-1.592-1.318-2.411c-0.353-0.76-0.604-1.546-0.76-2.393c-0.587-3.075,0.184-5.449,2.318-7.109
			c1.017-1.005,2.352-0.902,4.008,0.31l0.011-0.007c0.622,0.444,1.273,1.019,1.973,1.728c2.765,3.34,4.437,5.303,4.997,5.867
			c-1.802-2.875-3.169-5.339-4.099-7.393c-0.201-0.456-0.356-0.923-0.479-1.392c-0.19-0.742-0.397-1.507-0.639-2.301
			c-0.057-0.362-0.106-0.711-0.136-1.056c-0.202-1.646,0.044-3.019,0.726-4.083c0.629-1.13,1.637-2.015,3.014-2.68
			c0.146-0.057,0.305-0.121,0.444-0.19c0.816-0.256,1.62-0.188,2.392,0.181c0.772,0.366,1.469,0.83,2.098,1.368
			c0.595,0.511,1.144,1.082,1.653,1.694c0.572,0.69,1.159,1.4,1.735,2.122c1.867,2.338,2.844,4.084,2.952,5.256
			c0.238-2.46,0.768-4.636,1.599-6.536c0.172-0.419,0.342-0.788,0.521-1.113c0.045-0.061,0.071-0.126,0.103-0.211
			c0.501-1.119,1.217-1.889,2.146-2.312c0.689-0.357,1.437-0.487,2.234-0.399c0.006,0.011,0.006,0.011,0.018,0.004
			c0.13,0.02,0.238,0.036,0.352,0.032l0.013-0.006C59.296,68.161,60.418,69.206,61.204,71.103"/>
		<path fill="#003C86" d="M173.812,197.805c0.044,0.319,0.204,0.569,0.44,0.753c0.258,0.202,0.543,0.261,0.852,0.207l67.731-10.058
			c0.318-0.047,0.56-0.195,0.741-0.451c0.192-0.246,0.262-0.524,0.218-0.844c-0.053-0.309-0.204-0.549-0.45-0.74
			c-0.106-0.074-0.223-0.135-0.337-0.176c-0.165-0.049-0.325-0.057-0.508-0.041l-66.962,9.947c-0.243-0.152-0.509-0.213-0.799-0.18
			c-0.279,0.04-0.492,0.158-0.679,0.354c-0.028,0.033-0.046,0.055-0.075,0.086c-0.192,0.248-0.261,0.525-0.217,0.844
			L173.812,197.805z"/>
		<path fill="#1E95D4" d="M174.061,196.577c0.187-0.194,0.397-0.312,0.679-0.354c0.29-0.033,0.556,0.026,0.799,0.181l66.962-9.95
			c0.182-0.014,0.343-0.006,0.509,0.042c0.896-3.296,0.968-7.222,0.203-11.771c-0.623-3.772-1.808-6.585-3.563-8.446
			c-0.13,0.131-0.304,0.225-0.493,0.271c-0.307,0.095-0.59,0.055-0.854-0.096l-63.59,8.55c-0.321,0.045-0.599-0.024-0.845-0.217
			c-0.013-0.009-0.013-0.009-0.021-0.02c-2.679,3.453-3.987,7.293-3.925,11.523C169.981,190.459,171.363,193.89,174.061,196.577"/>
		<path fill="#003C86" d="M173.445,174.032c0.034,0.309,0.165,0.552,0.4,0.734c0.01,0.012,0.01,0.012,0.021,0.02
			c0.246,0.192,0.523,0.262,0.845,0.217l63.59-8.55c0.265,0.151,0.548,0.19,0.855,0.096c0.188-0.045,0.362-0.14,0.492-0.271
			c0.076-0.066,0.139-0.161,0.191-0.266c0.151-0.265,0.189-0.551,0.105-0.865c-0.084-0.297-0.263-0.525-0.537-0.686
			c-0.042-0.017-0.086-0.055-0.127-0.07c-0.019,0.002-0.019,0.002-0.03-0.008c-0.116-0.082-0.243-0.152-0.389-0.202
			c-0.155-0.038-0.308-0.058-0.467-0.045l-63.981,8.611c-0.317,0.045-0.568,0.204-0.753,0.44
			C173.47,173.434,173.4,173.711,173.445,174.032"/>
		<path fill="#003C86" d="M235.035,165.54c-0.019-0.024-0.035-0.034-0.061-0.029l0.131,0.402c-0.09,0.033-0.128,0.043-0.144,0.045
			l0.481,1.475c0.193-0.069,0.491-0.164,0.908-0.283c0.293-0.123,0.509-0.212,0.649-0.258c0.011-0.016,0.024-0.019,0.037-0.021
			c0.16-0.093,0.237-0.249,0.243-0.472c0.004-0.167,0.047-0.288,0.102-0.356l0.036-0.021c0.011-0.016,0.023-0.02,0.033-0.037
			c0.11-0.064,0.174-0.162,0.169-0.301l0.01-0.141c0.131-0.291,0.494-1.025,1.105-2.203c0.601-1.174,1.356-2.384,2.287-3.633
			c0.78-1.047,1.391-1.85,1.836-2.406c0.078-0.086,0.153-0.188,0.229-0.287c0.205-0.255,0.431-0.498,0.654-0.743
			c0.214-0.215,0.433-0.415,0.665-0.619c0.219-0.202,0.439-0.391,0.678-0.567c0.199-0.169,0.413-0.328,0.645-0.478
			c0.204-0.143,0.42-0.288,0.638-0.433c0.208-0.131,0.417-0.259,0.626-0.375c0.21-0.117,0.415-0.246,0.622-0.375l-0.474-2.129
			c-0.688,0.334-1.384,0.766-2.107,1.316c-0.273,0.213-0.54,0.439-0.812,0.651c-0.693,0.558-1.324,1.155-1.921,1.776
			c-0.552,0.58-1.068,1.182-1.564,1.818c-2.132,2.71-3.633,4.945-4.479,6.688c-0.038,0.077-0.078,0.142-0.13,0.224
			c-0.009,0.029-0.018,0.045-0.027,0.061c-0.071,0.127-0.123,0.264-0.186,0.416c-0.027,0.005-0.053,0.013-0.079,0.019
			c0.005,0.026,0.024,0.051,0.044,0.073l-0.219,0.076c-0.112,0.121-0.193,0.32-0.229,0.592c-0.029,0.242-0.08,0.393-0.167,0.44
			C235.141,165.515,235.066,165.547,235.035,165.54"/>
		<path fill="#003C86" d="M237.973,185.883c-0.284-0.09-0.536-0.159-0.775-0.176c-0.41-0.033-0.755,0.043-1.055,0.25l0.181,1.376
			c0.604,0.404,1.069,0.692,1.403,0.88c0.113,0.07,0.225,0.13,0.332,0.176c0.263,0.496,0.488,0.891,0.662,1.172
			c0.112,0.182,0.229,0.336,0.328,0.468c0.008,0.04,0.014,0.066,0.006,0.095c0.262,0.428,0.551,0.848,0.87,1.291
			c0.144,0.204,0.289,0.421,0.452,0.649c0.771,1.034,1.635,2.106,2.609,3.181c2.426,2.733,5.679,4.562,9.754,5.473
			c0.79,0.185,1.589,0.342,2.389,0.452c0.805,0.114,1.614,0.141,2.445,0.066c0.233-0.009,0.452-0.03,0.68-0.067l-0.47-2.102
			c-0.936,0.097-1.861,0.053-2.806-0.139c-0.913-0.17-1.797-0.404-2.675-0.668c-0.819-0.246-1.602-0.529-2.341-0.852
			c-1.212-0.521-2.611-1.375-4.203-2.547c-0.854-0.712-1.648-1.479-2.393-2.326c-0.518-0.578-1.012-1.177-1.471-1.809
			c-0.6-0.824-1.158-1.713-1.677-2.666c-0.041-0.061-0.083-0.121-0.113-0.198c-0.201-0.343-0.38-0.706-0.534-1.087
			c-0.001-0.015-0.009-0.04-0.012-0.053l-0.029-0.008c-0.029-0.063-0.059-0.14-0.087-0.203c-0.018,0.047-0.022,0.088-0.027,0.131
			c-0.297-0.143-0.748-0.375-1.349-0.699C238.026,185.94,237.992,185.92,237.973,185.883"/>
		<path fill="#003C86" d="M259.592,176.153c-0.223,0.119-0.45,0.227-0.662,0.328c-0.237,0.123-0.477,0.23-0.713,0.354
			c-1.218,0.576-2.583,1.172-4.072,1.781c0.788-0.135,3.264-0.74,7.423-1.818c0.978-0.164,1.846-0.246,2.595-0.246l0.018,0.01
			c2.023-0.008,3.169,0.711,3.431,2.137c0.863,2.93-0.133,5.566-3.011,7.914c-1.216,0.896-2.531,1.592-3.93,2.109
			c-0.903,0.368-1.848,0.678-2.807,0.918c-0.526,0.131-1.016,0.24-1.469,0.328c0.075,0.025,0.626-0.002,1.681-0.057
			c1.058-0.055,2.024-0.02,2.913,0.114c0.592,0.104,1.034,0.214,1.314,0.361c0.138,0.052,0.374,0.179,0.7,0.397
			c0.019,0.012,0.05,0.031,0.065,0.041l0.002,0.014c0.125,0.112,0.258,0.22,0.394,0.329l0.15,0.175
			c0.221,0.367,0.427,0.738,0.622,1.11c0.515,0.886,0.783,1.839,0.789,2.862c-0.004,0.474-0.131,0.904-0.378,1.293
			c-0.599,0.924-1.45,1.517-2.559,1.792c-0.103,0.022-0.211,0.046-0.305,0.053c-0.94,0.209-1.82,0.364-2.671,0.47
			c-0.392,0.047-0.771,0.09-1.165,0.135c-0.054,0-0.108,0.01-0.164,0.01l0.47,2.103c0.557-0.056,1.1-0.106,1.653-0.175
			c1.171-0.164,2.293-0.428,3.364-0.777c0.674-0.22,1.279-0.494,1.809-0.791c0.119-0.097,0.236-0.192,0.353-0.287
			c0.697-0.613,1.17-1.357,1.432-2.234c0.24-0.858,0.271-1.711,0.07-2.555c-0.023-0.106-0.048-0.212-0.074-0.332
			c-0.272-1.16-0.612-2.125-1.042-2.875c-0.105-0.158-0.214-0.326-0.331-0.482c-0.183-0.265-0.39-0.51-0.609-0.738
			c-0.092-0.104-0.194-0.191-0.308-0.264c-0.279-0.201-0.57-0.387-0.898-0.551l0.57-0.236c0.341-0.16,0.697-0.363,1.055-0.625
			c0.601-0.425,1.174-0.898,1.724-1.424c2.613-2.539,3.508-5.375,2.681-8.522c-0.41-2.282-1.779-3.504-4.079-3.671
			c0.478-0.412,0.938-0.834,1.354-1.273l0.01-0.016c2.807-3.041,3.255-6.207,1.357-9.489c-1.909-3.337-4.913-4.416-9-3.269
			c-1.659,0.467-3.109,0.929-4.327,1.379c0.431-1.053,0.766-2.224,1.02-3.516c0.573-2.973-0.505-5.314-3.212-7.001
			c-1.663-1.114-3.562-1.162-5.682-0.149l0.475,2.129c0.013-0.004,0.013-0.004,0.027-0.006c0.294-0.176,0.597-0.314,0.924-0.4
			c0.195-0.057,0.381-0.1,0.581-0.129c0.281-0.05,0.554-0.068,0.847-0.064c0.168,0.004,0.336,0.008,0.509,0.039
			c0.362,0.072,0.691,0.18,1.006,0.344c0.298,0.156,0.562,0.335,0.811,0.527c0.25,0.182,0.461,0.385,0.634,0.596
			c0.175,0.225,0.328,0.48,0.456,0.745c0.508,0.899,0.643,1.951,0.425,3.152c-0.021,0.089-0.043,0.177-0.042,0.245
			c-0.043,0.369-0.105,0.773-0.215,1.214c-0.403,2.048-1.217,4.129-2.433,6.274c0.803-0.943,2.76-1.822,5.876-2.654
			c0.854-0.22,1.68-0.432,2.49-0.653c0.775-0.2,1.553-0.318,2.362-0.36c0.866-0.04,1.684,0.139,2.426,0.543s1.327,0.911,1.778,1.505
			c0.454,0.606,0.739,1.139,0.871,1.61c0.136,0.483,0.235,0.862,0.284,1.143c0.021,0.344,0.015,0.691-0.021,1.033
			c-0.062,1.276-0.646,2.518-1.759,3.75c-0.255,0.293-0.522,0.588-0.816,0.89c-0.08,0.073-0.149,0.144-0.232,0.203
			c-0.23,0.206-0.463,0.411-0.697,0.603c-0.048,0.036-0.095,0.074-0.13,0.098c-0.227,0.176-0.452,0.35-0.676,0.524
			c-0.154,0.116-0.297,0.218-0.456,0.323c-0.153,0.117-0.323,0.226-0.493,0.332c-0.308,0.18-0.628,0.362-0.939,0.529
			c-0.159,0.09-0.319,0.182-0.479,0.273C260.226,175.819,259.915,175.984,259.592,176.153"/>
		<path fill="#1E95D4" d="M243.088,157.015c-0.075,0.099-0.15,0.198-0.229,0.285c-0.446,0.558-1.056,1.36-1.836,2.409
			c-0.931,1.246-1.687,2.458-2.287,3.631c-0.611,1.177-0.975,1.912-1.105,2.203l-0.01,0.141c0.005,0.139-0.059,0.235-0.169,0.302
			c-0.011,0.017-0.022,0.021-0.033,0.036l-0.036,0.021c-0.055,0.066-0.098,0.188-0.102,0.355c-0.006,0.223-0.083,0.38-0.243,0.471
			c-0.013,0.004-0.026,0.006-0.037,0.021c-0.141,0.046-0.356,0.136-0.649,0.256l1.621,18.736c0.02,0.037,0.054,0.057,0.096,0.061
			c0.601,0.324,1.053,0.557,1.349,0.699c0.005-0.043,0.01-0.084,0.027-0.131c0.028,0.063,0.058,0.139,0.087,0.203l0.029,0.006
			c0.003,0.016,0.011,0.04,0.012,0.055c0.154,0.381,0.333,0.743,0.534,1.088c0.03,0.076,0.072,0.137,0.113,0.197
			c0.519,0.953,1.077,1.842,1.677,2.666c0.459,0.631,0.953,1.23,1.471,1.809c0.744,0.848,1.539,1.613,2.393,2.326
			c1.592,1.172,2.991,2.025,4.203,2.547c0.738,0.322,1.521,0.604,2.341,0.852c0.878,0.264,1.762,0.498,2.675,0.668
			c1.001,0.193,1.982,0.238,2.971,0.13c0.393-0.046,0.772-0.089,1.164-0.135c0.851-0.107,1.73-0.261,2.671-0.47
			c0.094-0.009,0.202-0.032,0.306-0.055c1.107-0.273,1.959-0.867,2.558-1.791c0.247-0.388,0.374-0.818,0.378-1.292
			c-0.006-1.025-0.274-1.979-0.789-2.862c-0.195-0.373-0.401-0.744-0.622-1.111l-0.15-0.176c-0.136-0.107-0.269-0.217-0.395-0.327
			l-0.001-0.015c-0.016-0.009-0.047-0.029-0.065-0.041c-0.325-0.219-0.562-0.347-0.7-0.398c-0.28-0.146-0.723-0.255-1.314-0.359
			c-0.889-0.135-1.855-0.169-2.912-0.115c-1.056,0.055-1.606,0.081-1.682,0.055c0.453-0.086,0.942-0.195,1.469-0.327
			c0.959-0.24,1.903-0.548,2.807-0.917c1.398-0.519,2.714-1.213,3.93-2.109c2.878-2.348,3.874-4.984,3.011-7.914
			c-0.262-1.428-1.407-2.145-3.431-2.137l-0.018-0.01c-0.749,0-1.617,0.083-2.595,0.244c-4.159,1.079-6.635,1.686-7.423,1.82
			c1.489-0.609,2.854-1.205,4.072-1.781c0.236-0.123,0.476-0.231,0.713-0.354c0.212-0.102,0.438-0.207,0.662-0.328
			c0.323-0.168,0.634-0.335,0.942-0.502c0.16-0.09,0.32-0.182,0.479-0.272c0.312-0.167,0.632-0.349,0.939-0.528
			c0.17-0.107,0.34-0.215,0.493-0.333c0.159-0.104,0.302-0.206,0.456-0.323c0.224-0.174,0.448-0.35,0.676-0.523
			c0.036-0.022,0.082-0.061,0.13-0.1c0.234-0.191,0.467-0.395,0.697-0.6c0.083-0.061,0.152-0.129,0.232-0.204
			c0.294-0.301,0.562-0.597,0.816-0.89c1.112-1.232,1.696-2.473,1.759-3.75c0.035-0.342,0.041-0.689,0.021-1.031
			c-0.049-0.281-0.148-0.662-0.284-1.146c-0.132-0.47-0.417-1.003-0.871-1.61c-0.451-0.594-1.036-1.1-1.778-1.504
			s-1.56-0.582-2.426-0.543c-0.81,0.043-1.587,0.159-2.362,0.361c-0.811,0.222-1.637,0.434-2.49,0.651
			c-3.116,0.833-5.073,1.713-5.876,2.656c1.216-2.146,2.029-4.228,2.433-6.274c0.109-0.441,0.172-0.845,0.215-1.215
			c-0.001-0.068,0.021-0.157,0.042-0.244c0.218-1.201,0.083-2.253-0.425-3.154c-0.128-0.263-0.281-0.52-0.456-0.744
			c-0.173-0.211-0.384-0.413-0.634-0.594c-0.25-0.193-0.513-0.373-0.81-0.528c-0.315-0.165-0.645-0.272-1.007-0.344
			c-0.173-0.032-0.341-0.036-0.509-0.04c-0.293-0.004-0.565,0.016-0.847,0.064c-0.2,0.03-0.386,0.071-0.581,0.129
			c-0.327,0.086-0.631,0.223-0.924,0.399c-0.222,0.133-0.44,0.267-0.65,0.382c-0.209,0.115-0.418,0.244-0.626,0.375
			c-0.218,0.146-0.434,0.291-0.638,0.434c-0.231,0.148-0.445,0.307-0.645,0.477c-0.239,0.176-0.459,0.365-0.678,0.568
			c-0.232,0.203-0.451,0.404-0.665,0.619C243.519,156.516,243.293,156.76,243.088,157.015"/>
		<path fill="#1E95D4" d="M109.873,101.055c3.606-7.001,7.711-11.951,12.324-14.833c4.165-2.58,8.932-3.592,14.326-3.022
			c2.806,0.291,5.965,1.055,9.48,2.283c-0.114-2.139,0.338-4.23,1.354-6.272c1.619-3.302,4.267-5.498,7.945-6.603
			c3.668-1.11,7.27-0.774,10.824,0.986c3.532,1.779,5.973,4.456,7.306,8.023c0.706,1.883,1.001,3.71,0.9,5.517
			c1.34-1.121,2.938-1.967,4.804-2.529c3.667-1.11,7.268-0.776,10.824,0.985c2.177,1.088,3.934,2.524,5.264,4.285
			c0.842,1.116,1.524,2.357,2.042,3.739c1.358,3.578,1.207,7.031-0.419,10.346c-1.293,2.614-3.238,4.544-5.797,5.77
			c3.982,2.936,7.071,5.848,9.273,8.724c2.81,3.632,4.419,7.604,4.822,11.899c0.566,5.869-1.102,12.352-5.019,19.444
			c-2.278,4.13-5.637,7.449-10.049,9.98c-4.281,2.424-9.261,3.931-14.938,4.505c-12.022,1.204-24.276-1.555-36.735-8.269
			c-12.483-6.725-21.497-15.456-27.045-26.194c-2.643-5.065-4.112-10.061-4.407-14.955
			C106.655,109.803,107.62,105.197,109.873,101.055"/>
		<path fill="none" stroke="#044591" stroke-width="2.2095" stroke-linecap="round" stroke-miterlimit="10" d="M120.29,86.631
			c4.112-2.841,8.658-4.28,13.655-4.32c4.994-0.041,8.696,0.788,11.13,2.501c-0.007-2.213,0.7-4.585,2.141-7.123
			c1.44-2.537,3.554-4.3,6.337-5.311c2.794-1.005,5.126-1.46,6.992-1.359c1.867,0.099,3.738,0.573,5.58,1.429
			c1.861,0.847,3.441,1.92,4.743,3.189c1.304,1.269,2.211,2.547,2.735,3.841c0.529,1.282,0.894,2.492,1.095,3.631
			c0.255,1.464,0.395,2.29,0.449,2.479c1.039-0.528,1.858-0.927,2.474-1.203c1.079-0.512,2.184-0.876,3.314-1.126
			c1.264-0.282,2.538-0.379,3.836-0.315c1.605,0.076,3.285,0.575,5.023,1.46c2.312,1.194,4.225,2.65,5.74,4.402
			c0.543,0.625,1.115,1.458,1.7,2.508c0.576,1,0.991,1.885,1.249,2.645c0.529,1.46,0.739,3.1,0.612,4.926
			c-0.112,1.829-0.723,3.839-1.794,6.007c-1.072,2.169-2.826,3.938-5.267,5.308c3.938,2.375,7.176,5.395,9.703,9.058
			c2.536,3.665,3.932,7.997,4.183,12.992c0.251,4.997-1.121,10.269-4.134,15.826c-3.01,5.544-6.701,9.606-11.066,12.159
			c-4.364,2.554-11.047,4.271-20.025,5.15c-8.977,0.865-19.785-2.144-32.401-9.045c-12.616-6.902-21.104-14.382-25.444-22.451
			c-4.325-8.061-6.585-14.539-6.769-19.446c-0.184-4.907,1.12-10.058,3.884-15.453C112.743,93.601,116.189,89.478,120.29,86.631z"/>
		<path fill="#F2F2F3" d="M147.357,79.21c1.62-3.302,4.266-5.499,7.945-6.604c3.668-1.109,7.268-0.774,10.825,0.986
			c3.531,1.779,5.972,4.456,7.305,8.024c0.705,1.882,1.001,3.709,0.9,5.515c1.34-1.121,2.938-1.967,4.805-2.529
			c3.666-1.11,7.268-0.776,10.823,0.985c3.531,1.78,5.973,4.457,7.305,8.024c1.359,3.578,1.207,7.032-0.418,10.346
			c-1.655,3.316-4.309,5.525-7.981,6.618c-3.676,1.091-7.286,0.751-10.831-1.003c-3.531-1.75-5.971-4.426-7.299-8.006
			c-0.706-1.883-1.002-3.709-0.887-5.511c-1.339,1.122-2.952,1.961-4.817,2.523c-3.674,1.092-7.286,0.752-10.831-1.002
			c-3.532-1.75-5.973-4.427-7.299-8.007C145.55,85.979,145.701,82.525,147.357,79.21"/>
		<path fill="#0E0205" d="M168.916,89.536c-1.031-1.186-2.154-1.99-3.369-2.417c-1.387-0.457-2.843-0.388-4.363,0.22
			c-0.344,0.138-0.672,0.146-1.003,0.015c-0.311-0.156-0.535-0.401-0.67-0.739c-0.127-0.317-0.123-0.652,0.009-0.986
			s0.369-0.571,0.709-0.695c2.148-0.876,4.187-0.954,6.132-0.254c1.671,0.569,3.235,1.683,4.667,3.329
			c0.429,0.5,0.817,1.033,1.169,1.598c0.278,0.447,0.421,0.68,0.435,0.685c0.151,0.328,0.177,0.655,0.062,0.981
			c-0.105,0.344-0.311,0.607-0.622,0.771c-0.302,0.184-0.652,0.214-1.019,0.1c-0.345-0.136-0.594-0.347-0.737-0.624l0.011-0.027
			C169.734,90.57,169.262,89.915,168.916,89.536"/>
		<path fill="#0E0205" d="M179.814,100.981c-0.99-1.219-2.085-2.063-3.283-2.532c-1.37-0.504-2.83-0.488-4.37,0.069
			c-0.348,0.125-0.675,0.121-1.004-0.021c-0.306-0.167-0.521-0.419-0.643-0.762c-0.115-0.322-0.099-0.655,0.044-0.986
			c0.143-0.33,0.389-0.558,0.732-0.67c2.177-0.801,4.217-0.808,6.139-0.041c1.649,0.628,3.171,1.794,4.546,3.489
			c0.411,0.515,0.782,1.062,1.113,1.639c0.262,0.456,0.396,0.694,0.408,0.699c0.142,0.333,0.154,0.662,0.029,0.984
			c-0.119,0.339-0.332,0.595-0.648,0.75c-0.31,0.171-0.657,0.19-1.022,0.063c-0.339-0.148-0.583-0.366-0.715-0.65l0.012-0.027
			C180.596,102.042,180.144,101.374,179.814,100.981"/>
		<path fill="#0E0205" d="M128.442,99.446l2.053-3.48c7.184,8.866,19.307,16.871,36.381,23.991
			c5.326,2.252,10.836,4.257,16.539,6.034l6.906,2.025c-3.635,12.46-13.301,16.958-29.02,13.479
			c-7.858-1.729-15.344-4.723-22.471-8.989c-9.862-6.658-14.215-14.736-13.052-24.235
			C126.134,105.314,127.024,102.366,128.442,99.446"/>
		<path fill="#1E95D4" d="M79.799,157.385c7.81-6.008,16.217-13.164,25.206-21.458c0.449-0.406,3.753-2.996,9.888-7.747
			c0.064,0.068,0.126,0.136,0.176,0.201c0.622,1.049,1.169,1.906,1.64,2.573c0.992,1.396,2.172,2.762,3.58,4.079
			c1.698,1.488,2.998,2.616,3.892,3.414c2.143,1.878,5.496,4.216,10.065,7.015c4.867,2.986,9.817,5.679,14.853,8.107l4.703,1.787
			c4.158,1.388,7.27,2.303,9.359,2.756c1.786,0.279,3.12,0.505,4.007,0.662c1.623,0.277,2.859,0.453,3.696,0.503
			c0.716,2.475,1.3,4.677,1.761,6.612c4.017,17.297,4.685,32.555,1.999,45.739c-3.455,16.767-12.152,27.405-26.1,31.911
			c-17.036,5.504-41.204,1.457-72.495-12.139c-6.134-2.653-10.837-6.967-14.12-12.959c-3.147-5.763-4.624-12.309-4.405-19.662
			c0.2-7.493,2.135-14.77,5.785-21.854C67.226,169.36,72.729,162.846,79.799,157.385"/>
	</g>
	<g>
		
			<line fill="none" stroke="#3E3A39" stroke-width="3.3733" stroke-linecap="round" stroke-linejoin="round" stroke-miterlimit="10" x1="162.659" y1="56.784" x2="160.41" y2="1.687"/>
		
			<line fill="none" stroke="#3E3A39" stroke-width="3.3733" stroke-linecap="round" stroke-linejoin="round" stroke-miterlimit="10" x1="184.023" y1="57.909" x2="197.517" y2="8.433"/>
		
			<line fill="none" stroke="#3E3A39" stroke-width="3.3733" stroke-linecap="round" stroke-linejoin="round" stroke-miterlimit="10" x1="197.517" y1="65.78" x2="235.805" y2="29.051"/>
	</g>
</g>
</svg>
