<?xml version="1.0" encoding="utf-8"?>
<!-- Generator: Adobe Illustrator 16.0.0, SVG Export Plug-In . SVG Version: 6.00 Build 0)  -->
<!DOCTYPE svg PUBLIC "-//W3C//DTD SVG 1.1//EN" "http://www.w3.org/Graphics/SVG/1.1/DTD/svg11.dtd">
<svg version="1.1" id="レイヤー_1" xmlns="http://www.w3.org/2000/svg" xmlns:xlink="http://www.w3.org/1999/xlink" x="0px"
	 y="0px" width="24.193px" height="19.534px" viewBox="0 0 24.193 19.534" enable-background="new 0 0 24.193 19.534"
	 xml:space="preserve">
<g>
	<path fill="#0E0205" d="M9.498,5.327C8.467,4.141,7.344,3.336,6.129,2.91C4.742,2.454,3.285,2.522,1.766,3.13
		C1.422,3.269,1.094,3.276,0.762,3.146C0.451,2.99,0.227,2.744,0.092,2.406c-0.127-0.317-0.123-0.652,0.01-0.986
		c0.131-0.334,0.369-0.571,0.709-0.695C2.959-0.152,4.996-0.229,6.941,0.47c1.672,0.569,3.236,1.683,4.668,3.329
		c0.428,0.5,0.816,1.033,1.168,1.598c0.279,0.447,0.422,0.68,0.436,0.685c0.15,0.328,0.176,0.655,0.061,0.981
		c-0.105,0.344-0.311,0.607-0.621,0.771c-0.303,0.184-0.652,0.214-1.02,0.1c-0.344-0.136-0.594-0.347-0.736-0.624l0.01-0.027
		C10.316,6.361,9.844,5.706,9.498,5.327"/>
	<path fill="#0E0205" d="M20.396,16.771c-0.99-1.219-2.086-2.063-3.283-2.532c-1.371-0.504-2.83-0.488-4.371,0.069
		c-0.348,0.125-0.674,0.121-1.004-0.021c-0.305-0.167-0.52-0.419-0.643-0.762c-0.115-0.322-0.098-0.655,0.045-0.986
		c0.143-0.33,0.389-0.558,0.732-0.67c2.176-0.801,4.217-0.808,6.139-0.041c1.648,0.628,3.17,1.794,4.545,3.489
		c0.412,0.515,0.783,1.062,1.113,1.639c0.262,0.456,0.396,0.694,0.408,0.699c0.143,0.333,0.154,0.662,0.029,0.984
		c-0.119,0.339-0.332,0.595-0.648,0.75c-0.309,0.171-0.656,0.19-1.021,0.063c-0.34-0.148-0.584-0.366-0.715-0.65l0.012-0.027
		C21.178,17.833,20.725,17.164,20.396,16.771"/>
</g>
</svg>
