<svg xmlns="http://www.w3.org/2000/svg" width="92.23" height="135.334" viewBox="0 0 92.23 135.334"><g><path fill="#245E27" d="M73.233 52.982l-.024-.026c-5.032-11.257-6.679-25.629-4.929-43.096l-43.325.815c1.888 18.515-.638 33.638-7.551 45.343l-.058.074c-.617.882-1.199 1.805-1.729 2.751-4.224 7.144-6.573 15.321-7.061 24.525-.663 12.644 2.362 23.505 9.096 32.595 6.644 8.99 14.984 13.613 25.04 13.868 10.026.228 18.847-3.992 26.435-12.642 7.645-8.747 11.803-19.437 12.468-32.083.312-5.915-.189-11.438-1.488-16.57-.684-2.612-1.595-5.064-2.759-7.349-1.399-2.739-2.765-5.48-4.115-8.205"/><path stroke="#245E27" stroke-width="1.996" stroke-linecap="round" stroke-linejoin="round" stroke-miterlimit="10" d="M73.209 52.956c-5.032-11.257-6.679-25.629-4.929-43.096l-43.325.815c1.888 18.515-.638 33.638-7.551 45.343l-.058.074c-.617.882-1.199 1.805-1.729 2.751-4.224 7.144-6.573 15.321-7.061 24.525-.663 12.644 2.362 23.505 9.096 32.595 6.644 8.99 14.984 13.613 25.04 13.868 10.026.228 18.847-3.992 26.435-12.642 7.645-8.747 11.803-19.437 12.468-32.083.312-5.915-.189-11.438-1.488-16.57-.685-2.612-1.595-5.064-2.759-7.349-1.399-2.739-2.764-5.481-4.114-8.206l-.025-.025z" fill="none"/><path fill="#9EC94C" d="M72.347 53.534l-.098-.166c-4.994-11.155-6.691-25.316-5.102-42.488l-41.045.77c1.7 18.261-.906 33.216-7.792 44.849l-.097.138c-.602.844-1.17 1.741-1.685 2.666l-.001.022c-4.147 7.012-6.455 15.038-6.929 24.071-.651 12.394 2.319 23.054 8.902 31.977l.016.001c6.438 8.708 14.512 13.192 24.228 13.461 9.718.191 18.246-3.896 25.596-12.261l.001-.013c7.491-8.588 11.564-19.083 12.218-31.478.307-5.815-.177-11.239-1.458-16.286-.656-2.548-1.559-4.927-2.688-7.158l-.001.015c-1.375-2.717-2.738-5.431-4.065-8.12"/></g></svg>