<?xml version="1.0" encoding="utf-8"?>
<!-- Generator: Adobe Illustrator 16.2.1, SVG Export Plug-In . SVG Version: 6.00 Build 0)  -->
<!DOCTYPE svg PUBLIC "-//W3C//DTD SVG 1.1//EN" "http://www.w3.org/Graphics/SVG/1.1/DTD/svg11.dtd">
<svg version="1.1" xmlns="http://www.w3.org/2000/svg" xmlns:xlink="http://www.w3.org/1999/xlink" x="0px" y="0px" width="92.23px"
	 height="135.334px" viewBox="0 0 92.23 135.334" enable-background="new 0 0 92.23 135.334" xml:space="preserve">
<g id="base">
</g>
<g id="book3">
</g>
<g id="_x38_" display="none">
</g>
<g id="_x37_" display="none">
</g>
<g id="_x36_" display="none">
</g>
<g id="_x35_" display="none">
</g>
<g id="_x34_" display="none">
</g>
<g id="_x33_" display="none">
</g>
<g id="_x32_" display="none">
</g>
<g id="_x31_" display="none">
</g>
<g id="_x30_">
	<g>
		<path fill="#245E27" d="M73.233,52.982l-0.024-0.026C68.177,41.699,66.53,27.327,68.28,9.86l-43.325,0.815
			c1.888,18.515-0.638,33.638-7.551,45.343c-0.018,0.012-0.043,0.035-0.058,0.074c-0.617,0.882-1.199,1.805-1.729,2.751
			c-4.224,7.144-6.573,15.321-7.061,24.525c-0.663,12.644,2.362,23.505,9.096,32.595c6.644,8.99,14.984,13.613,25.04,13.868
			c10.026,0.228,18.847-3.992,26.435-12.642c7.645-8.747,11.803-19.437,12.468-32.083c0.312-5.915-0.189-11.438-1.488-16.57
			c-0.684-2.612-1.595-5.064-2.759-7.349C75.949,58.448,74.583,55.707,73.233,52.982"/>
		
			<path fill="none" stroke="#245E27" stroke-width="1.9958" stroke-linecap="round" stroke-linejoin="round" stroke-miterlimit="10" d="
			M73.209,52.956C68.177,41.699,66.53,27.327,68.28,9.86l-43.325,0.815c1.888,18.515-0.638,33.638-7.551,45.343
			c-0.018,0.011-0.043,0.035-0.058,0.074c-0.617,0.882-1.199,1.805-1.729,2.751c-4.224,7.144-6.573,15.321-7.061,24.525
			c-0.663,12.644,2.362,23.505,9.096,32.595c6.644,8.99,14.984,13.613,25.04,13.868c10.026,0.228,18.847-3.992,26.435-12.642
			c7.645-8.747,11.803-19.437,12.468-32.083c0.312-5.915-0.189-11.438-1.488-16.57c-0.685-2.612-1.595-5.064-2.759-7.349
			c-1.399-2.739-2.764-5.481-4.114-8.206L73.209,52.956z"/>
		<path fill="#9EC94C" d="M72.347,53.534c-0.038-0.051-0.073-0.103-0.098-0.166c-4.994-11.155-6.691-25.316-5.102-42.488
			L26.102,11.65c1.7,18.261-0.906,33.216-7.792,44.849c-0.04,0.039-0.067,0.087-0.097,0.138c-0.602,0.844-1.17,1.741-1.685,2.666
			l-0.001,0.022c-4.147,7.012-6.455,15.038-6.929,24.071C8.947,95.79,11.917,106.45,18.5,115.373l0.016,0.001
			c6.438,8.708,14.512,13.192,24.228,13.461c9.718,0.191,18.246-3.896,25.596-12.261l0.001-0.013
			c7.491-8.588,11.564-19.083,12.218-31.478c0.307-5.815-0.177-11.239-1.458-16.286c-0.656-2.548-1.559-4.927-2.688-7.158
			l-0.001,0.015C75.037,58.937,73.674,56.223,72.347,53.534"/>
	</g>
</g>
<g id="guide" display="none">
</g>
</svg>
