<svg xmlns="http://www.w3.org/2000/svg" width="143.333" height="168.667" viewBox="0 0 143.333 168.667"><g><path fill="#AFB5D4" d="M55.271 47.471c.525-5.663-1.657-8.388-6.565-8.183l-27.57-.039c-3.948-.169-6.425 1.254-7.411 4.292-.223.783-.403 1.721-.548 2.82-.117.591-.223 1.689-.316 3.327-.254 5.235-.738 10.123-1.471 14.669-.538 5.651 1.66 8.363 6.594 8.161l27.57.038c4.867.245 7.574-2.478 8.113-8.14l1.604-16.945zm-7.142-2.06c.659.187.917.865.8 2.051l-1.604 16.946c-.105 1.162-.508 1.849-1.194 2.049l-27.571-.038c-.674-.19-.957-.864-.854-2.051l1.63-16.948c.118-1.2.533-1.888 1.247-2.046l27.546.037z"/><path stroke="#737A90" stroke-width="2.036" stroke-linecap="round" stroke-linejoin="round" stroke-miterlimit="10" d="M48.129 45.411l-27.547-.037c-.714.158-1.129.846-1.247 2.046l-1.63 16.948c-.103 1.187.181 1.86.854 2.051l27.571.038c.687-.2 1.089-.887 1.194-2.049l1.604-16.946c.118-1.186-.14-1.864-.799-2.051zm7.142 2.06l-1.603 16.946c-.541 5.662-3.248 8.385-8.115 8.14l-27.57-.038c-4.934.202-7.132-2.51-6.594-8.161.732-4.546 1.219-9.434 1.471-14.669.094-1.638.2-2.736.316-3.327.145-1.1.325-2.037.548-2.82.986-3.038 3.463-4.461 7.411-4.292l27.57.039c4.909-.206 7.092 2.519 6.566 8.182z" fill="none"/><path fill="#C5CDE3" d="M24.389 34.891l20.246.028-.017 12.448-20.246-.028z"/><path stroke="#737A90" stroke-width="2.036" stroke-linecap="round" stroke-linejoin="round" stroke-miterlimit="10" fill="none" d="M24.389 34.891l20.246.028-.017 12.448-20.246-.028z"/><path fill="#AFB5D4" d="M133.509 13.3c-1.022-.862-2.262-1.289-3.726-1.29l-3.859-.046c-2.82.211-5.784.345-8.906.377-1.591.021-3.212.032-4.866.03-11.044-.205-18.368-.36-21.955-.456l-32.025-.379c-6.887-.15-14.639-.07-23.273.219-1.969.054-3.977.142-6.036.228-2.639.059-5.062.056-7.275-.009l-3.598-.106-.515-.015c-1.451-.001-2.709.425-3.758 1.285-.713.608-1.166 1.321-1.389 2.11-.09.334-.145.959-.146 1.897l-.002 2.265c-.001 1.408.501 2.611 1.523 3.599 1.046 1.005 2.535 1.556 4.451 1.657h.012c4.207.242 8.416.337 12.645.269 1.906-.036 5.283-.158 10.15-.387 6.462-.104 12.857-.097 19.187.026l26.11.035c3.959.219 7.919.21 11.883-.047 3.807-.029 7.612-.102 11.418-.184 3.896-.096 7.793-.063 11.692.078 1.552.039 3.104.077 4.657.12.299 0 .609 0 .906.012.777.025 1.659.054 2.641.08h.068l.242.002c1.465.002 2.706-.497 3.73-1.498 1.037-.986 1.555-2.186 1.557-3.596l.006-3.088c0-1.236-.514-2.298-1.549-3.188"/><path fill="#C5CDE3" d="M126.813 24.589c-.297-.012-.607-.012-.906-.012-1.554-.043-3.105-.081-4.66-.12-3.896-.142-7.793-.174-11.689-.078-3.806.082-7.611.154-11.418.184-3.964.257-7.924.266-11.883.047l-26.11-.035c-6.329-.123-12.722-.131-19.187-.026-4.867.229-8.244.351-10.15.387-4.229.068-8.436-.026-12.645-.269.14 1.271.257 2.711.332 4.301l.072 4.861c0 .162 0 .339-.016.514-.055 2.252-.084 4.396-.074 6.434l.294 12.551c.075 1.037.151 2.038.243 2.989l.101 2.075c.215 3.461.442 6.713.687 9.724l.151 1.725c.114 1.462.218 2.965.304 4.5.039.663.051 1.338.051 2.026v.475c-.03 1.323-.096 2.639-.213 3.949l-.108 1.125v.073c-.143 1.116-.272 2.239-.393 3.349-.17 1.413-.287 2.825-.328 4.252l-.015.523c-.012.313-.001.623.023.938.014.34.056.676.105 1.013.27 1.554.668 3.09 1.184 4.602.247.763.529 1.539.877 2.304.208.459.709 2.461 1.52 5.999.334 1.137.425 2.191.268 3.15-.156.938-.545 1.786-1.182 2.547-.363.452-.648 1.012-.855 1.675-.377 1.186-.523 2.737-.422 4.648.039.786.115 1.651.229 2.576l1.444 24.626-.005 3.564c.311.037.62.087.916.149.932.225 1.863.46 2.783.727l2.901.104c.815.089 1.643.141 2.458.153l.232.014c.907.014 1.812.015 2.731.004.83-.013 1.657-.036 2.487-.073.904-.036 1.799-.061 2.678-.069.842-.013 1.684.003 2.512.04.816.037 1.619.064 2.41.065.943-.009 1.89-.034 2.861-.085l1.825-.094c2.058-.134 3.741-.384 5.048-.732 2.15-.583 4.844-.154 8.074 1.3.686.312 1.41.664 2.148 1.064 4.18 2.281 8.359 2.536 12.529.78.338-.138.688-.278 1.038-.389 3.999-1.142 8.016-2.161 12.067-3.046l.494-.15c.479-.146.971-.269 1.449-.356.982-.189 1.967-.248 2.951-.187.297.028.607.077.906.151.98.188 1.955.505 2.925.92.606.188 1.228.312 1.864.402 2.677.477 4.127.728 4.348.769 1.76.25 3.159.376 4.18.377 1.697.003 3.457-.068 5.256-.203 1.101-.088 2.967-.26 5.568-.542l4.349-.131.005-3.202c-.013-.398-.012-.802-.012-1.187.067-10.35.521-20.846 1.363-31.493.604-5.627.932-9.889 1.002-12.786.027-1.29.004-2.314-.075-3.065-.126-1.285-.2-2.361-.241-3.222-.038-.766-.023-1.351.016-1.777.076-.674.275-1.424.574-2.249l.335-.85c1.416-2.884 2.236-5.083 2.456-6.593.08-.577.08-1.054-.006-1.428-.377-1.415-.881-2.536-1.502-3.353-.54-.685-.823-2.263-.859-4.739-.012-.537.003-1.098.016-1.711l.107-3.022v-.103c-.008-12.61.46-25.022 1.398-37.245.129-1.749.277-3.761.448-6.022-.979-.027-1.861-.056-2.639-.081"/><path fill="#AFB5D4" d="M17.474 11.853l.514.014-.295-.013z"/><path fill="#C5CDE3" d="M18.497 28.967c-.075-1.59-.192-3.029-.332-4.301h-.012c.14 1.385.254 2.764.329 4.123l.015.178"/><path fill="#AFB5D4" d="M62.356 149.256c-3.23-1.454-5.924-1.883-8.074-1.3-1.307.349-2.99.599-5.048.732l-1.825.094c-.972.051-1.918.076-2.861.085-.791-.001-1.594-.028-2.41-.065-.828-.037-1.67-.053-2.512-.04-.879.009-1.773.033-2.678.069-.83.037-1.657.061-2.487.073-.919.011-1.824.01-2.731-.004l-.232-.01c-.815-.017-1.643-.068-2.458-.157l-2.901-.104-1.488.047-2.213.101-.609.021c-.219.013-.441.013-.66.012-2.085.986-3.135 2.595-3.138 4.845l-.005 3.875c-.003 1.413.449 2.614 1.367 3.604.941 1 2.081 1.503 3.389 1.505l101.282.139c1.334.001 2.446-.498 3.368-1.497.933-.987 1.398-2.186 1.402-3.598l.006-3.876c.001-1.412-.464-2.625-1.395-3.629-.84-.896-1.836-1.387-3.015-1.462l-4.349.131c-2.602.282-4.468.454-5.568.543-1.799.134-3.559.205-5.256.202-1.021-.001-2.42-.127-4.18-.377-.221-.041-1.671-.292-4.348-.769-.637-.09-1.258-.215-1.864-.402-.97-.415-1.942-.73-2.923-.92-.301-.074-.611-.123-.909-.151-.983-.062-1.968-.003-2.95.187-.479.088-.97.21-1.447.357l-.496.149c-4.052.885-8.068 1.904-12.067 3.046-.351.112-.7.251-1.038.389-4.17 1.756-8.348 1.501-12.529-.78-.739-.401-1.464-.754-2.15-1.065"/><path stroke="#737A90" stroke-width="2.036" stroke-linecap="round" stroke-linejoin="round" stroke-miterlimit="10" d="M18.165 24.666h-.012c-1.916-.102-3.405-.652-4.451-1.657-1.022-.987-1.524-2.19-1.523-3.599l.002-2.265c.002-.938.057-1.563.146-1.897.223-.789.676-1.502 1.389-2.11 1.049-.86 2.307-1.286 3.758-1.285l.515.015 3.598.106c2.213.064 4.637.067 7.275.009 2.062-.086 4.067-.174 6.036-.228 8.632-.289 16.387-.369 23.273-.219l32.025.379c3.587.096 10.911.251 21.955.456 1.654.002 3.275-.009 4.866-.03 3.122-.032 6.086-.166 8.906-.377l3.858.046c1.465.001 2.704.428 3.727 1.29 1.035.891 1.549 1.952 1.549 3.189l-.006 3.088c-.002 1.41-.52 2.609-1.557 3.596-1.024 1.001-2.266 1.498-3.731 1.496l-.241-.002h-.067m0 0c-.982-.024-1.864-.053-2.642-.078-.297-.012-.607-.012-.906-.012-1.554-.043-3.105-.081-4.657-.121-3.899-.141-7.796-.173-11.692-.077-3.806.082-7.611.154-11.418.184-3.964.257-7.924.266-11.883.046l-26.11-.035c-6.329-.122-12.722-.13-19.187-.027-4.867.23-8.244.353-10.15.389-4.229.068-8.438-.026-12.645-.269m106.265 124.049l.005-3.202c-.013-.398-.012-.802-.012-1.187.067-10.35.521-20.846 1.363-31.493.604-5.627.932-9.889 1.002-12.786.027-1.29.004-2.314-.075-3.065-.126-1.285-.2-2.361-.241-3.222-.038-.766-.023-1.351.016-1.777.076-.674.275-1.424.576-2.248l.333-.851c1.416-2.884 2.236-5.083 2.456-6.593.08-.577.08-1.054-.006-1.428-.377-1.415-.881-2.536-1.502-3.353-.54-.685-.823-2.263-.859-4.739-.012-.535.003-1.098.016-1.711l.107-3.022v-.103c-.008-12.61.46-25.022 1.398-37.245.129-1.749.277-3.761.448-6.024m-111.763-12.813l3.715-.022m-3.242 12.834c.14 1.271.257 2.711.332 4.301l.072 4.861c0 .162 0 .339-.016.514-.055 2.252-.084 4.396-.074 6.434l.294 12.551c.075 1.04.151 2.038.243 2.989l.101 2.075c.215 3.461.442 6.713.687 9.724l.151 1.725c.114 1.462.218 2.965.304 4.5.039.663.051 1.338.051 2.026v.475c-.03 1.323-.096 2.639-.213 3.949l-.108 1.124v.074c-.143 1.116-.272 2.239-.393 3.349-.17 1.413-.288 2.825-.328 4.252l-.015.523c-.012.313-.001.623.023.938.014.34.056.676.105 1.013.27 1.554.668 3.09 1.184 4.602.247.763.529 1.539.877 2.304.208.459.709 2.461 1.52 5.999.334 1.137.425 2.191.268 3.15-.156.938-.545 1.786-1.182 2.547-.363.452-.648 1.012-.855 1.675-.377 1.186-.523 2.737-.422 4.648.039.786.115 1.651.229 2.576l1.444 24.626-.005 3.564m101.991.962l-4.349.131c-2.602.282-4.468.454-5.568.543-1.799.134-3.559.205-5.257.202-1.02-.001-2.419-.127-4.179-.377-.221-.041-1.671-.292-4.348-.769-.637-.09-1.258-.215-1.864-.402-.97-.415-1.942-.73-2.925-.92-.299-.074-.609-.123-.907-.151-.983-.062-1.968-.003-2.95.187-.479.088-.97.21-1.449.357l-.494.149c-4.052.885-8.068 1.904-12.067 3.046-.351.11-.7.247-1.038.389-4.17 1.756-8.35 1.501-12.529-.78-.738-.4-1.463-.753-2.148-1.064-3.23-1.454-5.924-1.883-8.074-1.303-1.307.352-2.99.602-5.048.735l-1.825.094c-.972.051-1.918.076-2.861.085-.791-.001-1.594-.028-2.41-.065-.828-.037-1.67-.053-2.512-.04-.879.009-1.773.033-2.678.069-.83.037-1.657.064-2.487.073-.919.011-1.824.01-2.731-.004l-.232-.01c-.815-.017-1.643-.068-2.458-.157l-2.901-.104-1.488.047-2.213.101-.609.021c-.219.013-.441.013-.66.012-2.085.986-3.135 2.595-3.138 4.844l-.005 3.876c-.003 1.413.449 2.614 1.367 3.604.941 1 2.081 1.503 3.389 1.505l101.282.139c1.333.001 2.446-.498 3.366-1.497.935-.987 1.4-2.186 1.404-3.598l.006-3.877c.001-1.411-.464-2.624-1.396-3.628-.842-.897-1.838-1.388-3.016-1.463z" fill="none"/><path fill="#AFB5D4" d="M117.483 30.978h-.025c-1.554-.04-2.901 1.169-4.042 3.619-1.208 2.412-1.847 5.333-1.903 8.771l-.262 40.246c-.807 1.76-1.352 3.8-1.627 6.098-.129 1.024-.21 2.1-.225 3.225-.145 2.9.225 5.187 1.102 6.851l-1.025 32.248c-.055 3.037.421 5.638 1.415 7.825.979 2.152 2.208 3.228 3.67 3.229h.026c1.411.002 2.681-1.067 3.782-3.218 1.092-2.185 1.677-4.785 1.774-7.82l.491-38.048c-.763-.589-1.162-2.013-1.212-4.278-.011-.312-.011-.637.002-.974l1.746-8.273 1.578-37.096c.068-3.437-.393-6.358-1.412-8.773-1.018-2.457-2.299-3.668-3.853-3.632M103.086 34.583c-1.046-2.455-2.352-3.665-3.904-3.63h-.028c-1.553-.039-2.887 1.167-3.989 3.617-1.144 2.412-1.743 5.335-1.801 8.772l-.535 49.421-1.175 8.947c-.223 1.1-.045 2.989.562 5.675l.045 24.624c-.055 3.036.43 5.638 1.465 7.826.977 2.153 2.206 3.226 3.695 3.229h.027c1.396.001 2.655-1.068 3.757-3.217 1.054-2.186 1.626-4.786 1.723-7.822l-.093-29.374c-.877-1.967-1.182-4.214-.922-6.726l1.799-9.698.863-42.87c.041-3.436-.458-6.361-1.489-8.774M85.272 34.557c-1.07-2.453-2.367-3.663-3.902-3.63h-.028c-1.554-.037-2.89 1.17-3.991 3.62-1.144 2.411-1.721 5.335-1.725 8.771l-.472 63.919 1.132 5.177c.27 1.187.15 3.487-.373 6.923l-.51 12.649c-.004 3.038.525 5.639 1.568 7.828 1.021 2.152 2.249 3.226 3.698 3.229h.026c1.45.001 2.693-1.07 3.734-3.219 1.037-2.186 1.574-4.785 1.613-7.823l.822-88.668c.017-3.437-.508-6.361-1.592-8.776"/><path fill="#AFB5D4" d="M63.635 30.902c-1.57-.037-2.89 1.172-3.968 3.62-1.092 2.411-1.612 5.335-1.566 8.771l.713 10.126-.469 3.247.916 47.799.848 4.703c.604 2.111.174 5.224-1.283 9.321l-.07 13.474c-.013 3.037.512 5.639 1.598 7.826 1.031 2.152 2.285 3.226 3.751 3.229h.022c1.438.001 2.669-1.067 3.707-3.219 1.038-2.185 1.56-4.783 1.564-7.821l.254-14.548.602-4.826-.928-3.325-.066-65.971c.004-3.436-.55-6.359-1.642-8.775-1.086-2.45-2.405-3.663-3.961-3.63h-.022zM46.494 30.881h-.028c-1.562-.039-2.887 1.17-3.938 3.618-1.079 2.412-1.572 5.334-1.487 8.77l2.031 9.779-1.457 4.522 1.261 44.549c.889 3.412 1.334 6.711 1.33 9.901l-1.17 5.066-.512 14.855c.035 3.038.598 5.639 1.699 7.827 1.07 2.152 2.309 3.225 3.746 3.227h.027c1.449.003 2.682-1.068 3.68-3.218 1.002-2.185 1.495-4.783 1.461-7.821l-.654-12.077c-.039-1.287.053-2.274.264-2.975.193-.697.35-1.161.492-1.396.118-.242.248-.514.361-.827.379-.947.561-1.913.549-2.897.001-.698-.062-1.388-.205-2.074-.217-1.102-.5-2.189-.848-3.278l-.516-3.127-.557-44.947c1.035-2.357 1.624-4.108 1.74-5.223l-.744-3.922-.769-5.928c-.062-3.436-.653-6.362-1.775-8.775-1.134-2.451-2.468-3.664-3.981-3.629M29.277 30.856h-.027c-1.563-.037-2.861 1.171-3.858 3.621-1.055 2.409-1.549 4.809-1.49 7.194-.062.4-.09.786-.053 1.175.115.901.451 1.702.98 2.402.582.765.981 1.639 1.189 2.6.091.388.193.937.306 1.679-.454 1.185-.868 2.532-1.247 4.073l-.596 2.322 2.211 47.398 2.037 5.304c.709 1.987.5 3.849-.629 5.597-.945 1.062-1.493 3.223-1.614 6.474.358 3.45.291 7.188-.196 11.225.062 3.038.653 5.639 1.752 7.826 1.096 2.152 2.389 3.228 3.852 3.229h.026c1.411.002 2.628-1.068 3.63-3.218.973-2.185 1.43-4.785 1.383-7.822l-.267-13.8c.978-4.085 1.279-6.937.917-8.549l-1.002-5.05-2.137-47.151c-.011-.497.182-1.086.6-1.749.414-.66.869-1.796 1.377-3.397.116-.446.219-.786.311-1.024l-1.518-6.554c-.154-.761-.244-1.621-.256-2.574.066-2.65-.475-5.184-1.621-7.599-1.174-2.454-2.52-3.665-4.06-3.632"/><path fill="#AFB5D4" d="M132.851 55.726l-.323-8.801c-.405-5.664-3.056-8.392-7.937-8.188l-27.572-.037c-2.732-.117-4.623.62-5.676 2.218-.219.486-.416.976-.569 1.476-.17.562-.274 1.15-.287 1.751-.015.8.021 1.588.124 2.374.104.735.167 1.463.18 2.176.011.999.051 1.986.101 2.975.046.898.112 1.801.175 2.699l.053.65.791 9.8c.102 1.1.32 2.176.641 3.225.09.264.18.539.285.799 1.122 1.916 2.907 2.969 5.38 3.136 3.418-.096 6.835-.03 10.251.188 1.541.013 3.225.093 5.048.206 2.604.119 5.358.158 8.261.111 1.307-.099 2.625-.185 3.961-.27.621-.051 1.258-.107 1.889-.174l1.66-.147c3.312-.657 4.807-3.33 4.463-8.014l-.899-8.153zm-7.83-10.862c.687.188 1.072.866 1.164 2.053.729 4.887 1.138 10.088 1.192 15.626.22 1.448.062 2.51-.469 3.194l-.129.131c-5.711.777-10.722 1.032-15.02.775-4.295-.255-7.312-.407-9.033-.459-1.748-.068-3.066-.194-3.963-.355l-.541-.505c-.217-.349-.361-.847-.412-1.497l-1.023-11.202-.196-5.749c-.087-1.2.196-1.889.858-2.05l27.572.038z"/><path stroke="#737A90" stroke-width="2.036" stroke-linecap="round" stroke-linejoin="round" stroke-miterlimit="10" d="M132.527 46.925c-.405-5.664-3.056-8.392-7.937-8.188l-27.572-.037c-2.732-.117-4.623.62-5.676 2.218-.219.486-.416.976-.569 1.476-.17.562-.274 1.15-.287 1.751-.015.8.021 1.588.124 2.374.104.735.167 1.463.18 2.176.011.999.051 1.986.101 2.975.046.898.112 1.801.175 2.699l.053.65.791 9.8c.102 1.1.32 2.176.641 3.225.09.264.18.539.285.799 1.122 1.916 2.907 2.969 5.38 3.136 3.418-.096 6.835-.03 10.251.188 1.541.013 3.225.093 5.048.206 2.604.119 5.358.158 8.261.111 1.307-.099 2.625-.185 3.961-.27.621-.051 1.258-.107 1.889-.174l1.66-.147c3.312-.657 4.807-3.33 4.463-8.014l-.896-8.152-.326-8.802zm-7.506-2.061l-27.571-.038c-.662.161-.945.85-.858 2.05l.196 5.749 1.023 11.202c.051.65.195 1.148.412 1.497l.541.505c.896.161 2.215.287 3.963.355 1.721.052 4.738.204 9.033.459 4.298.257 9.309.002 15.02-.775l.129-.131c.531-.685.688-1.746.469-3.194-.055-5.538-.463-10.739-1.192-15.626-.092-1.187-.478-1.865-1.165-2.053z" fill="none"/><path fill="#C5CDE3" d="M121.69 37.736c-.048-1.167-.785-1.762-2.225-1.778l-9.683-.064c-1.797-.076-3.466-.093-4.995-.057-1.93-.042-3.068.308-3.406 1.048-.195 1.661-.238 3.571-.1 5.722l.047 5.602c.205.162.4.286.594.349.895.152 1.773.202 2.641.155h.206l.362.001c3.873.016 7.639.046 11.315.064l4.735.083c.406-.939.588-1.863.576-2.801l-.067-8.324z"/><path stroke="#737A90" stroke-width="2.036" stroke-linecap="round" stroke-linejoin="round" stroke-miterlimit="10" d="M119.466 35.958l-9.683-.064c-1.797-.076-3.466-.093-4.995-.057-1.93-.042-3.068.308-3.406 1.048-.195 1.661-.238 3.571-.1 5.722l.047 5.602c.205.162.4.286.594.349.895.152 1.773.202 2.641.155h.206l.362.001c3.873.016 7.639.046 11.315.064l4.735.083c.406-.939.588-1.863.576-2.801l-.068-8.323c-.047-1.168-.785-1.762-2.224-1.779z" fill="none"/></g></svg>