<?xml version="1.0" encoding="utf-8"?>
<!-- Generator: Adobe Illustrator 16.2.1, SVG Export Plug-In . SVG Version: 6.00 Build 0)  -->
<!DOCTYPE svg PUBLIC "-//W3C//DTD SVG 1.1//EN" "http://www.w3.org/Graphics/SVG/1.1/DTD/svg11.dtd">
<svg version="1.1" xmlns="http://www.w3.org/2000/svg" xmlns:xlink="http://www.w3.org/1999/xlink" x="0px" y="0px"
	 width="143.333px" height="168.667px" viewBox="0 0 143.333 168.667" enable-background="new 0 0 143.333 168.667"
	 xml:space="preserve">
<g id="base">
</g>
<g id="book3">
</g>
<g id="_x38_" display="none">
</g>
<g id="_x37_" display="none">
</g>
<g id="_x36_" display="none">
</g>
<g id="_x35_" display="none">
</g>
<g id="_x34_" display="none">
</g>
<g id="_x33_" display="none">
</g>
<g id="_x32_" display="none">
</g>
<g id="_x31_" display="none">
</g>
<g id="_x30_">
	<g>
		<path fill="#AFB5D4" d="M55.271,47.471c0.525-5.663-1.657-8.388-6.565-8.183l-27.57-0.039c-3.948-0.169-6.425,1.254-7.411,4.292
			c-0.223,0.783-0.403,1.721-0.548,2.82c-0.117,0.591-0.223,1.689-0.316,3.327c-0.254,5.235-0.738,10.123-1.471,14.669
			c-0.538,5.651,1.66,8.363,6.594,8.161l27.57,0.038c4.867,0.245,7.574-2.478,8.113-8.14L55.271,47.471z M48.129,45.411
			c0.659,0.187,0.917,0.865,0.8,2.051l-1.604,16.946c-0.105,1.162-0.508,1.849-1.194,2.049L18.56,66.419
			c-0.674-0.19-0.957-0.864-0.854-2.051l1.63-16.948c0.118-1.2,0.533-1.888,1.247-2.046L48.129,45.411z"/>
		
			<path fill="none" stroke="#737A90" stroke-width="2.0363" stroke-linecap="round" stroke-linejoin="round" stroke-miterlimit="10" d="
			M48.129,45.411l-27.547-0.037c-0.714,0.158-1.129,0.846-1.247,2.046l-1.63,16.948c-0.103,1.187,0.181,1.86,0.854,2.051
			l27.571,0.038c0.687-0.2,1.089-0.887,1.194-2.049l1.604-16.946C49.046,46.276,48.788,45.598,48.129,45.411z M55.271,47.471
			l-1.603,16.946c-0.541,5.662-3.248,8.385-8.115,8.14l-27.57-0.038c-4.934,0.202-7.132-2.51-6.594-8.161
			c0.732-4.546,1.219-9.434,1.471-14.669c0.094-1.638,0.2-2.736,0.316-3.327c0.145-1.1,0.325-2.037,0.548-2.82
			c0.986-3.038,3.463-4.461,7.411-4.292l27.57,0.039C53.614,39.083,55.797,41.808,55.271,47.471z"/>
		
			<rect x="24.38" y="34.905" transform="matrix(1 0.0014 -0.0014 1 0.0576 -0.0482)" fill="#C5CDE3" width="20.246" height="12.448"/>
		
			<rect x="24.38" y="34.905" transform="matrix(1 0.0014 -0.0014 1 0.0576 -0.0482)" fill="none" stroke="#737A90" stroke-width="2.0363" stroke-linecap="round" stroke-linejoin="round" stroke-miterlimit="10" width="20.246" height="12.448"/>
		<path fill="#AFB5D4" d="M133.509,13.3c-1.022-0.862-2.262-1.289-3.726-1.29l-3.859-0.046c-2.82,0.211-5.784,0.345-8.906,0.377
			c-1.591,0.021-3.212,0.032-4.866,0.03c-11.044-0.205-18.368-0.36-21.955-0.456l-32.025-0.379
			c-6.887-0.15-14.639-0.07-23.273,0.219c-1.969,0.054-3.977,0.142-6.036,0.228c-2.639,0.059-5.062,0.056-7.275-0.009l-3.598-0.106
			l-0.515-0.015c-1.451-0.001-2.709,0.425-3.758,1.285c-0.713,0.608-1.166,1.321-1.389,2.11c-0.09,0.334-0.145,0.959-0.146,1.897
			l-0.002,2.265c-0.001,1.408,0.501,2.611,1.523,3.599c1.046,1.005,2.535,1.556,4.451,1.657h0.012
			c4.207,0.242,8.416,0.337,12.645,0.269c1.906-0.036,5.283-0.158,10.15-0.387c6.462-0.104,12.857-0.097,19.187,0.026l26.11,0.035
			c3.959,0.219,7.919,0.21,11.883-0.047c3.807-0.029,7.612-0.102,11.418-0.184c3.896-0.096,7.793-0.063,11.692,0.078
			c1.552,0.039,3.104,0.077,4.657,0.12c0.299,0,0.609,0,0.906,0.012c0.777,0.025,1.659,0.054,2.641,0.08h0.068l0.242,0.002
			c1.465,0.002,2.706-0.497,3.73-1.498c1.037-0.986,1.555-2.186,1.557-3.596l0.006-3.088C135.058,15.252,134.544,14.19,133.509,13.3
			"/>
		<path fill="#C5CDE3" d="M126.813,24.589c-0.297-0.012-0.607-0.012-0.906-0.012c-1.554-0.043-3.105-0.081-4.66-0.12
			c-3.896-0.142-7.793-0.174-11.689-0.078c-3.806,0.082-7.611,0.154-11.418,0.184c-3.964,0.257-7.924,0.266-11.883,0.047
			l-26.11-0.035c-6.329-0.123-12.722-0.131-19.187-0.026c-4.867,0.229-8.244,0.351-10.15,0.387
			c-4.229,0.068-8.436-0.026-12.645-0.269c0.14,1.271,0.257,2.711,0.332,4.301l0.072,4.861c0,0.162,0,0.339-0.016,0.514
			c-0.055,2.252-0.084,4.396-0.074,6.434l0.294,12.551c0.075,1.037,0.151,2.038,0.243,2.989l0.101,2.075
			c0.215,3.461,0.442,6.713,0.687,9.724c0.05,0.589,0.102,1.165,0.151,1.725c0.114,1.462,0.218,2.965,0.304,4.5
			c0.039,0.663,0.051,1.338,0.051,2.026v0.475c-0.03,1.323-0.096,2.639-0.213,3.949c-0.04,0.387-0.066,0.763-0.108,1.125v0.073
			c-0.143,1.116-0.272,2.239-0.393,3.349c-0.17,1.413-0.287,2.825-0.328,4.252c-0.013,0.172-0.015,0.348-0.015,0.523
			c-0.012,0.313-0.001,0.623,0.023,0.938c0.014,0.34,0.056,0.676,0.105,1.013c0.27,1.554,0.668,3.09,1.184,4.602
			c0.247,0.763,0.529,1.539,0.877,2.304c0.208,0.459,0.709,2.461,1.52,5.999c0.334,1.137,0.425,2.191,0.268,3.15
			c-0.156,0.938-0.545,1.786-1.182,2.547c-0.363,0.452-0.648,1.012-0.855,1.675c-0.377,1.186-0.523,2.737-0.422,4.648
			c0.039,0.786,0.115,1.651,0.229,2.576l1.444,24.626l-0.005,3.564c0.311,0.037,0.62,0.087,0.916,0.149
			c0.932,0.225,1.863,0.46,2.783,0.727c0.972,0.039,1.93,0.067,2.901,0.104c0.815,0.089,1.643,0.141,2.458,0.153
			c0.079,0,0.154,0,0.232,0.014c0.907,0.014,1.812,0.015,2.731,0.004c0.83-0.013,1.657-0.036,2.487-0.073
			c0.904-0.036,1.799-0.061,2.678-0.069c0.842-0.013,1.684,0.003,2.512,0.04c0.816,0.037,1.619,0.064,2.41,0.065
			c0.943-0.009,1.89-0.034,2.861-0.085c0.609-0.034,1.214-0.059,1.825-0.094c2.058-0.134,3.741-0.384,5.048-0.732
			c2.15-0.583,4.844-0.154,8.074,1.3c0.686,0.312,1.41,0.664,2.148,1.064c4.18,2.281,8.359,2.536,12.529,0.78
			c0.338-0.138,0.688-0.278,1.038-0.389c3.999-1.142,8.016-2.161,12.067-3.046c0.17-0.046,0.324-0.099,0.494-0.15
			c0.479-0.146,0.971-0.269,1.449-0.356c0.982-0.189,1.967-0.248,2.951-0.187c0.297,0.028,0.607,0.077,0.906,0.151
			c0.98,0.188,1.955,0.505,2.925,0.92c0.606,0.188,1.228,0.312,1.864,0.402c2.677,0.477,4.127,0.728,4.348,0.769
			c1.76,0.25,3.159,0.376,4.18,0.377c1.697,0.003,3.457-0.068,5.256-0.203c1.101-0.088,2.967-0.26,5.568-0.542l4.349-0.131
			l0.005-3.202c-0.013-0.398-0.012-0.802-0.012-1.187c0.067-10.35,0.521-20.846,1.363-31.493c0.604-5.627,0.932-9.889,1.002-12.786
			c0.027-1.29,0.004-2.314-0.075-3.065c-0.126-1.285-0.2-2.361-0.241-3.222c-0.038-0.766-0.023-1.351,0.016-1.777
			c0.076-0.674,0.275-1.424,0.574-2.249c0.104-0.274,0.221-0.562,0.335-0.85c1.416-2.884,2.236-5.083,2.456-6.593
			c0.08-0.577,0.08-1.054-0.006-1.428c-0.377-1.415-0.881-2.536-1.502-3.353c-0.54-0.685-0.823-2.263-0.859-4.739
			c-0.012-0.537,0.003-1.098,0.016-1.711l0.107-3.022v-0.103c-0.008-12.61,0.46-25.022,1.398-37.245
			c0.129-1.749,0.277-3.761,0.448-6.022C128.473,24.643,127.591,24.614,126.813,24.589"/>
		<polygon fill="#AFB5D4" points="17.474,11.853 17.988,11.867 17.693,11.854 		"/>
		<path fill="#C5CDE3" d="M18.497,28.967c-0.075-1.59-0.192-3.029-0.332-4.301h-0.012c0.14,1.385,0.254,2.764,0.329,4.123
			C18.482,28.845,18.482,28.902,18.497,28.967"/>
		<path fill="#AFB5D4" d="M62.356,149.256c-3.23-1.454-5.924-1.883-8.074-1.3c-1.307,0.349-2.99,0.599-5.048,0.732
			c-0.611,0.035-1.216,0.06-1.825,0.094c-0.972,0.051-1.918,0.076-2.861,0.085c-0.791-0.001-1.594-0.028-2.41-0.065
			c-0.828-0.037-1.67-0.053-2.512-0.04c-0.879,0.009-1.773,0.033-2.678,0.069c-0.83,0.037-1.657,0.061-2.487,0.073
			c-0.919,0.011-1.824,0.01-2.731-0.004c-0.078-0.01-0.153-0.01-0.232-0.01c-0.815-0.017-1.643-0.068-2.458-0.157
			c-0.972-0.037-1.93-0.065-2.901-0.104c-0.504,0.012-0.995,0.036-1.488,0.047c-0.737,0.038-1.475,0.064-2.213,0.101
			c-0.195,0.012-0.401,0.012-0.609,0.021c-0.219,0.013-0.441,0.013-0.66,0.012c-2.085,0.986-3.135,2.595-3.138,4.845l-0.005,3.875
			c-0.003,1.413,0.449,2.614,1.367,3.604c0.941,1,2.081,1.503,3.389,1.505l101.282,0.139c1.334,0.001,2.446-0.498,3.368-1.497
			c0.933-0.987,1.398-2.186,1.402-3.598l0.006-3.876c0.001-1.412-0.464-2.625-1.395-3.629c-0.84-0.896-1.836-1.387-3.015-1.462
			l-4.349,0.131c-2.602,0.282-4.468,0.454-5.568,0.543c-1.799,0.134-3.559,0.205-5.256,0.202c-1.021-0.001-2.42-0.127-4.18-0.377
			c-0.221-0.041-1.671-0.292-4.348-0.769c-0.637-0.09-1.258-0.215-1.864-0.402c-0.97-0.415-1.942-0.73-2.923-0.92
			c-0.301-0.074-0.611-0.123-0.909-0.151c-0.983-0.062-1.968-0.003-2.95,0.187c-0.479,0.088-0.97,0.21-1.447,0.357
			c-0.172,0.051-0.326,0.104-0.496,0.149c-4.052,0.885-8.068,1.904-12.067,3.046c-0.351,0.112-0.7,0.251-1.038,0.389
			c-4.17,1.756-8.348,1.501-12.529-0.78C63.767,149.92,63.042,149.567,62.356,149.256"/>
		
			<path fill="none" stroke="#737A90" stroke-width="2.0363" stroke-linecap="round" stroke-linejoin="round" stroke-miterlimit="10" d="
			M18.165,24.666h-0.012c-1.916-0.102-3.405-0.652-4.451-1.657c-1.022-0.987-1.524-2.19-1.523-3.599l0.002-2.265
			c0.002-0.938,0.057-1.563,0.146-1.897c0.223-0.789,0.676-1.502,1.389-2.11c1.049-0.86,2.307-1.286,3.758-1.285l0.515,0.015
			l3.598,0.106c2.213,0.064,4.637,0.067,7.275,0.009c2.062-0.086,4.067-0.174,6.036-0.228c8.632-0.289,16.387-0.369,23.273-0.219
			l32.025,0.379c3.587,0.096,10.911,0.251,21.955,0.456c1.654,0.002,3.275-0.009,4.866-0.03c3.122-0.032,6.086-0.166,8.906-0.377
			l3.858,0.046c1.465,0.001,2.704,0.428,3.727,1.29c1.035,0.891,1.549,1.952,1.549,3.189l-0.006,3.088
			c-0.002,1.41-0.52,2.609-1.557,3.596c-1.024,1.001-2.266,1.498-3.731,1.496l-0.241-0.002h-0.067 M129.455,24.667
			c-0.982-0.024-1.864-0.053-2.642-0.078c-0.297-0.012-0.607-0.012-0.906-0.012c-1.554-0.043-3.105-0.081-4.657-0.121
			c-3.899-0.141-7.796-0.173-11.692-0.077c-3.806,0.082-7.611,0.154-11.418,0.184c-3.964,0.257-7.924,0.266-11.883,0.046
			l-26.11-0.035c-6.329-0.122-12.722-0.13-19.187-0.027c-4.867,0.23-8.244,0.353-10.15,0.389c-4.229,0.068-8.438-0.026-12.645-0.269
			 M124.43,148.716l0.005-3.202c-0.013-0.398-0.012-0.802-0.012-1.187c0.067-10.35,0.521-20.846,1.363-31.493
			c0.604-5.627,0.932-9.889,1.002-12.786c0.027-1.29,0.004-2.314-0.075-3.065c-0.126-1.285-0.2-2.361-0.241-3.222
			c-0.038-0.766-0.023-1.351,0.016-1.777c0.076-0.674,0.275-1.424,0.576-2.248c0.102-0.275,0.219-0.562,0.333-0.851
			c1.416-2.884,2.236-5.083,2.456-6.593c0.08-0.577,0.08-1.054-0.006-1.428c-0.377-1.415-0.881-2.536-1.502-3.353
			c-0.54-0.685-0.823-2.263-0.859-4.739c-0.012-0.535,0.003-1.098,0.016-1.711l0.107-3.022v-0.103
			c-0.008-12.61,0.46-25.022,1.398-37.245c0.129-1.749,0.277-3.761,0.448-6.024 M17.692,11.854l3.715-0.022 M18.165,24.666
			c0.14,1.271,0.257,2.711,0.332,4.301l0.072,4.861c0,0.162,0,0.339-0.016,0.514c-0.055,2.252-0.084,4.396-0.074,6.434l0.294,12.551
			c0.075,1.04,0.151,2.038,0.243,2.989l0.101,2.075c0.215,3.461,0.442,6.713,0.687,9.724c0.05,0.589,0.102,1.165,0.151,1.725
			c0.114,1.462,0.218,2.965,0.304,4.5c0.039,0.663,0.051,1.338,0.051,2.026v0.475c-0.03,1.323-0.096,2.639-0.213,3.949
			c-0.04,0.387-0.066,0.763-0.108,1.124v0.074c-0.143,1.116-0.272,2.239-0.393,3.349c-0.17,1.413-0.288,2.825-0.328,4.252
			c-0.013,0.172-0.015,0.348-0.015,0.523c-0.012,0.313-0.001,0.623,0.023,0.938c0.014,0.34,0.056,0.676,0.105,1.013
			c0.27,1.554,0.668,3.09,1.184,4.602c0.247,0.763,0.529,1.539,0.877,2.304c0.208,0.459,0.709,2.461,1.52,5.999
			c0.334,1.137,0.425,2.191,0.268,3.15c-0.156,0.938-0.545,1.786-1.182,2.547c-0.363,0.452-0.648,1.012-0.855,1.675
			c-0.377,1.186-0.523,2.737-0.422,4.648c0.039,0.786,0.115,1.651,0.229,2.576l1.444,24.626l-0.005,3.564 M124.43,148.716
			l-4.349,0.131c-2.602,0.282-4.468,0.454-5.568,0.543c-1.799,0.134-3.559,0.205-5.257,0.202c-1.02-0.001-2.419-0.127-4.179-0.377
			c-0.221-0.041-1.671-0.292-4.348-0.769c-0.637-0.09-1.258-0.215-1.864-0.402c-0.97-0.415-1.942-0.73-2.925-0.92
			c-0.299-0.074-0.609-0.123-0.907-0.151c-0.983-0.062-1.968-0.003-2.95,0.187c-0.479,0.088-0.97,0.21-1.449,0.357
			c-0.17,0.051-0.324,0.104-0.494,0.149c-4.052,0.885-8.068,1.904-12.067,3.046c-0.351,0.11-0.7,0.247-1.038,0.389
			c-4.17,1.756-8.35,1.501-12.529-0.78c-0.738-0.4-1.463-0.753-2.148-1.064c-3.23-1.454-5.924-1.883-8.074-1.303
			c-1.307,0.352-2.99,0.602-5.048,0.735c-0.611,0.035-1.216,0.06-1.825,0.094c-0.972,0.051-1.918,0.076-2.861,0.085
			c-0.791-0.001-1.594-0.028-2.41-0.065c-0.828-0.037-1.67-0.053-2.512-0.04c-0.879,0.009-1.773,0.033-2.678,0.069
			c-0.83,0.037-1.657,0.064-2.487,0.073c-0.919,0.011-1.824,0.01-2.731-0.004c-0.078-0.01-0.153-0.01-0.232-0.01
			c-0.815-0.017-1.643-0.068-2.458-0.157c-0.972-0.037-1.93-0.065-2.901-0.104c-0.504,0.012-0.995,0.036-1.488,0.047
			c-0.737,0.038-1.475,0.064-2.213,0.101c-0.195,0.012-0.401,0.012-0.609,0.021c-0.219,0.013-0.441,0.013-0.66,0.012
			c-2.085,0.986-3.135,2.595-3.138,4.844l-0.005,3.876c-0.003,1.413,0.449,2.614,1.367,3.604c0.941,1,2.081,1.503,3.389,1.505
			l101.282,0.139c1.333,0.001,2.446-0.498,3.366-1.497c0.935-0.987,1.4-2.186,1.404-3.598l0.006-3.877
			c0.001-1.411-0.464-2.624-1.396-3.628C126.604,149.282,125.608,148.791,124.43,148.716z"/>
		<path fill="#AFB5D4" d="M117.483,30.978h-0.025c-1.554-0.04-2.901,1.169-4.042,3.619c-1.208,2.412-1.847,5.333-1.903,8.771
			l-0.262,40.246c-0.807,1.76-1.352,3.8-1.627,6.098c-0.129,1.024-0.21,2.1-0.225,3.225c-0.145,2.9,0.225,5.187,1.102,6.851
			l-1.025,32.248c-0.055,3.037,0.421,5.638,1.415,7.825c0.979,2.152,2.208,3.228,3.67,3.229h0.026
			c1.411,0.002,2.681-1.067,3.782-3.218c1.092-2.185,1.677-4.785,1.774-7.82l0.491-38.048c-0.763-0.589-1.162-2.013-1.212-4.278
			c-0.011-0.312-0.011-0.637,0.002-0.974l1.746-8.273l1.578-37.096c0.068-3.437-0.393-6.358-1.412-8.773
			C120.318,32.153,119.037,30.942,117.483,30.978"/>
		<path fill="#AFB5D4" d="M103.086,34.583c-1.046-2.455-2.352-3.665-3.904-3.63h-0.028c-1.553-0.039-2.887,1.167-3.989,3.617
			c-1.144,2.412-1.743,5.335-1.801,8.772l-0.535,49.421l-1.175,8.947c-0.223,1.1-0.045,2.989,0.562,5.675l0.045,24.624
			c-0.055,3.036,0.43,5.638,1.465,7.826c0.977,2.153,2.206,3.226,3.695,3.229h0.027c1.396,0.001,2.655-1.068,3.757-3.217
			c1.054-2.186,1.626-4.786,1.723-7.822l-0.093-29.374c-0.877-1.967-1.182-4.214-0.922-6.726l1.799-9.698l0.863-42.87
			C104.616,39.921,104.117,36.996,103.086,34.583"/>
		<path fill="#AFB5D4" d="M85.272,34.557c-1.07-2.453-2.367-3.663-3.902-3.63h-0.028c-1.554-0.037-2.89,1.17-3.991,3.62
			c-1.144,2.411-1.721,5.335-1.725,8.771l-0.472,63.919l1.132,5.177c0.27,1.187,0.15,3.487-0.373,6.923l-0.51,12.649
			c-0.004,3.038,0.525,5.639,1.568,7.828c1.021,2.152,2.249,3.226,3.698,3.229h0.026c1.45,0.001,2.693-1.07,3.734-3.219
			c1.037-2.186,1.574-4.785,1.613-7.823l0.822-88.668C86.881,39.896,86.356,36.972,85.272,34.557"/>
		<path fill="#AFB5D4" d="M63.635,30.902c-1.57-0.037-2.89,1.172-3.968,3.62c-1.092,2.411-1.612,5.335-1.566,8.771l0.713,10.126
			l-0.469,3.247l0.916,47.799l0.848,4.703c0.604,2.111,0.174,5.224-1.283,9.321l-0.07,13.474c-0.013,3.037,0.512,5.639,1.598,7.826
			c1.031,2.152,2.285,3.226,3.751,3.229h0.022c1.438,0.001,2.669-1.067,3.707-3.219c1.038-2.185,1.56-4.783,1.564-7.821
			l0.254-14.548l0.602-4.826l-0.928-3.325L69.26,43.308c0.004-3.436-0.55-6.359-1.642-8.775c-1.086-2.45-2.405-3.663-3.961-3.63
			H63.635z"/>
		<path fill="#AFB5D4" d="M46.494,30.881h-0.028c-1.562-0.039-2.887,1.17-3.938,3.618c-1.079,2.412-1.572,5.334-1.487,8.77
			l2.031,9.779l-1.457,4.522l1.261,44.549c0.889,3.412,1.334,6.711,1.33,9.901l-1.17,5.066l-0.512,14.855
			c0.035,3.038,0.598,5.639,1.699,7.827c1.07,2.152,2.309,3.225,3.746,3.227h0.027c1.449,0.003,2.682-1.068,3.68-3.218
			c1.002-2.185,1.495-4.783,1.461-7.821l-0.654-12.077c-0.039-1.287,0.053-2.274,0.264-2.975c0.193-0.697,0.35-1.161,0.492-1.396
			c0.118-0.242,0.248-0.514,0.361-0.827c0.379-0.947,0.561-1.913,0.549-2.897c0.001-0.698-0.062-1.388-0.205-2.074
			c-0.217-1.102-0.5-2.189-0.848-3.278l-0.516-3.127l-0.557-44.947c1.035-2.357,1.624-4.108,1.74-5.223l-0.744-3.922l-0.769-5.928
			c-0.062-3.436-0.653-6.362-1.775-8.775C49.341,32.059,48.007,30.846,46.494,30.881"/>
		<path fill="#AFB5D4" d="M29.277,30.856H29.25c-1.563-0.037-2.861,1.171-3.858,3.621c-1.055,2.409-1.549,4.809-1.49,7.194
			c-0.062,0.4-0.09,0.786-0.053,1.175c0.115,0.901,0.451,1.702,0.98,2.402c0.582,0.765,0.981,1.639,1.189,2.6
			c0.091,0.388,0.193,0.937,0.306,1.679c-0.454,1.185-0.868,2.532-1.247,4.073l-0.596,2.322l2.211,47.398l2.037,5.304
			c0.709,1.987,0.5,3.849-0.629,5.597c-0.945,1.062-1.493,3.223-1.614,6.474c0.358,3.45,0.291,7.188-0.196,11.225
			c0.062,3.038,0.653,5.639,1.752,7.826c1.096,2.152,2.389,3.228,3.852,3.229h0.026c1.411,0.002,2.628-1.068,3.63-3.218
			c0.973-2.185,1.43-4.785,1.383-7.822l-0.267-13.8c0.978-4.085,1.279-6.937,0.917-8.549l-1.002-5.05l-2.137-47.151
			c-0.011-0.497,0.182-1.086,0.6-1.749c0.414-0.66,0.869-1.796,1.377-3.397c0.116-0.446,0.219-0.786,0.311-1.024l-1.518-6.554
			c-0.154-0.761-0.244-1.621-0.256-2.574c0.066-2.65-0.475-5.184-1.621-7.599C32.163,32.034,30.817,30.823,29.277,30.856"/>
		<path fill="#AFB5D4" d="M132.851,55.726l-0.323-8.801c-0.405-5.664-3.056-8.392-7.937-8.188l-27.572-0.037
			c-2.732-0.117-4.623,0.62-5.676,2.218c-0.219,0.486-0.416,0.976-0.569,1.476c-0.17,0.562-0.274,1.15-0.287,1.751
			c-0.015,0.8,0.021,1.588,0.124,2.374c0.104,0.735,0.167,1.463,0.18,2.176c0.011,0.999,0.051,1.986,0.101,2.975
			c0.046,0.898,0.112,1.801,0.175,2.699c0.014,0.213,0.04,0.437,0.053,0.65l0.791,9.8c0.102,1.1,0.32,2.176,0.641,3.225
			c0.09,0.264,0.18,0.539,0.285,0.799c1.122,1.916,2.907,2.969,5.38,3.136c3.418-0.096,6.835-0.03,10.251,0.188
			c1.541,0.013,3.225,0.093,5.048,0.206c2.604,0.119,5.358,0.158,8.261,0.111c1.307-0.099,2.625-0.185,3.961-0.27
			c0.621-0.051,1.258-0.107,1.889-0.174c0.559-0.049,1.102-0.097,1.66-0.147c3.312-0.657,4.807-3.33,4.463-8.014L132.851,55.726z
			 M125.021,44.864c0.687,0.188,1.072,0.866,1.164,2.053c0.729,4.887,1.138,10.088,1.192,15.626c0.22,1.448,0.062,2.51-0.469,3.194
			c-0.039,0.053-0.079,0.091-0.129,0.131c-5.711,0.777-10.722,1.032-15.02,0.775c-4.295-0.255-7.312-0.407-9.033-0.459
			c-1.748-0.068-3.066-0.194-3.963-0.355l-0.541-0.505c-0.217-0.349-0.361-0.847-0.412-1.497l-1.023-11.202l-0.196-5.749
			c-0.087-1.2,0.196-1.889,0.858-2.05L125.021,44.864z"/>
		
			<path fill="none" stroke="#737A90" stroke-width="2.0363" stroke-linecap="round" stroke-linejoin="round" stroke-miterlimit="10" d="
			M132.527,46.925c-0.405-5.664-3.056-8.392-7.937-8.188l-27.572-0.037c-2.732-0.117-4.623,0.62-5.676,2.218
			c-0.219,0.486-0.416,0.976-0.569,1.476c-0.17,0.562-0.274,1.15-0.287,1.751c-0.015,0.8,0.021,1.588,0.124,2.374
			c0.104,0.735,0.167,1.463,0.18,2.176c0.011,0.999,0.051,1.986,0.101,2.975c0.046,0.898,0.112,1.801,0.175,2.699
			c0.014,0.213,0.04,0.437,0.053,0.65l0.791,9.8c0.102,1.1,0.32,2.176,0.641,3.225c0.09,0.264,0.18,0.539,0.285,0.799
			c1.122,1.916,2.907,2.969,5.38,3.136c3.418-0.096,6.835-0.03,10.251,0.188c1.541,0.013,3.225,0.093,5.048,0.206
			c2.604,0.119,5.358,0.158,8.261,0.111c1.307-0.099,2.625-0.185,3.961-0.27c0.621-0.051,1.258-0.107,1.889-0.174
			c0.559-0.049,1.102-0.097,1.66-0.147c3.312-0.657,4.807-3.33,4.463-8.014l-0.896-8.152L132.527,46.925z M125.021,44.864
			L97.45,44.826c-0.662,0.161-0.945,0.85-0.858,2.05l0.196,5.749l1.023,11.202c0.051,0.65,0.195,1.148,0.412,1.497l0.541,0.505
			c0.896,0.161,2.215,0.287,3.963,0.355c1.721,0.052,4.738,0.204,9.033,0.459c4.298,0.257,9.309,0.002,15.02-0.775
			c0.05-0.04,0.09-0.078,0.129-0.131c0.531-0.685,0.688-1.746,0.469-3.194c-0.055-5.538-0.463-10.739-1.192-15.626
			C126.094,45.73,125.708,45.052,125.021,44.864z"/>
		<path fill="#C5CDE3" d="M121.69,37.736c-0.048-1.167-0.785-1.762-2.225-1.778l-9.683-0.064c-1.797-0.076-3.466-0.093-4.995-0.057
			c-1.93-0.042-3.068,0.308-3.406,1.048c-0.195,1.661-0.238,3.571-0.1,5.722l0.047,5.602c0.205,0.162,0.4,0.286,0.594,0.349
			c0.895,0.152,1.773,0.202,2.641,0.155h0.206l0.362,0.001c3.873,0.016,7.639,0.046,11.315,0.064l4.735,0.083
			c0.406-0.939,0.588-1.863,0.576-2.801L121.69,37.736z"/>
		
			<path fill="none" stroke="#737A90" stroke-width="2.0363" stroke-linecap="round" stroke-linejoin="round" stroke-miterlimit="10" d="
			M119.466,35.958l-9.683-0.064c-1.797-0.076-3.466-0.093-4.995-0.057c-1.93-0.042-3.068,0.308-3.406,1.048
			c-0.195,1.661-0.238,3.571-0.1,5.722l0.047,5.602c0.205,0.162,0.4,0.286,0.594,0.349c0.895,0.152,1.773,0.202,2.641,0.155h0.206
			l0.362,0.001c3.873,0.016,7.639,0.046,11.315,0.064l4.735,0.083c0.406-0.939,0.588-1.863,0.576-2.801l-0.068-8.323
			C121.643,36.569,120.905,35.975,119.466,35.958z"/>
	</g>
</g>
<g id="guide" display="none">
</g>
</svg>
