<svg xmlns="http://www.w3.org/2000/svg" width="145.333" height="61.333" viewBox="0 0 145.333 61.333"><g><path fill="#5A6174" d="M10.517 38.058l-.01 10.858c4.939 1.742 10.509 2.856 16.733 3.336 3.558-.019 8.221.721 13.976 2.223 30.021 3.251 61.973 1.569 95.875-5.021l-1.423-11.9-125.151.504z"/><path stroke="#737A90" stroke-width="2.058" stroke-linecap="round" stroke-linejoin="round" stroke-miterlimit="10" d="M10.517 38.058l125.151-.505 1.423 11.9c-33.902 6.591-65.854 8.272-95.875 5.021-5.755-1.502-10.418-2.241-13.976-2.223-6.225-.479-11.794-1.594-16.733-3.336l.01-10.857z" fill="none"/><path fill="#C5CDE3" d="M91.027 8.548c-.926-.083-2.16-.057-3.697.067-3.874.438-7.504.537-10.894.311-3.389-.229-5.465-.367-6.23-.395l-.413-.011c-.716-.044-1.651-.112-2.808-.228-5.949-.571-9.951-.603-12.039-.105-.798.146-1.573.6-2.332 1.361-.119.121-.225.24-.319.357-.547.688-.799 1.497-.783 2.427-.184 5.44-.062 10.569.37 15.407.027 1.092.444 2.009 1.272 2.771.79.756 1.739 1.139 2.861 1.13 1.12-.004 2.055-.39 2.829-1.152.748-.766 1.105-1.694 1.077-2.782-.631-3.997-.754-8.074-.383-12.254 3.174-.21 6.395-.108 9.668.293 7.442.555 13.403.66 17.881.348l.274 11.505c.032 1.091.445 2.006 1.272 2.76.791.765 1.742 1.148 2.862 1.143 1.096-.007 2.044-.391 2.82-1.13.745-.787 1.116-1.714 1.085-2.808l-.337-15.009c-.052-1.354-.449-2.333-1.174-2.954-.707-.61-1.666-.966-2.862-1.052"/><path stroke="#737A90" stroke-width="2.058" stroke-linecap="round" stroke-linejoin="round" stroke-miterlimit="10" d="M91.027 8.548c1.195.086 2.154.442 2.864 1.053.726.621 1.123 1.6 1.174 2.954l.337 15.009c.031 1.094-.34 2.021-1.085 2.808-.776.739-1.724 1.123-2.82 1.13-1.121.006-2.072-.378-2.862-1.143-.827-.754-1.24-1.669-1.272-2.76l-.274-11.505c-4.478.312-10.438.207-17.881-.348-3.273-.401-6.494-.503-9.668-.293-.371 4.18-.248 8.257.383 12.254.028 1.088-.329 2.017-1.077 2.782-.773.763-1.707 1.149-2.829 1.152-1.122.009-2.071-.374-2.861-1.13-.829-.763-1.245-1.68-1.272-2.771-.432-4.838-.554-9.967-.37-15.407-.016-.93.236-1.739.783-2.427.094-.117.2-.236.319-.357.759-.762 1.533-1.215 2.332-1.361 2.087-.497 6.09-.466 12.039.105 1.157.115 2.092.184 2.808.228l.413.011c.765.027 2.841.166 6.23.395 3.389.227 7.02.128 10.894-.311 1.535-.125 2.77-.151 3.695-.068z" fill="none"/><path fill="#AFB5D4" d="M110.395 25.451c-16.002-2.224-28.331-2.727-36.99-1.51-13.757 1.644-23.279 2.274-28.561 1.91-5.3-.348-11.121-.077-17.457.831-6.337.884-11.716 1.974-16.112 3.24-1.841 2.704-2.369 6.151-1.554 10.351l.022.096.055.451.021.713c.003.793-.069 1.578-.196 2.341-.259 2.212-.066 3.836.578 4.891 12.694-1.885 25.081-3.356 37.172-4.448 5.878-.514 10.73-.857 14.574-1.029l10.951-.529c11.483-.75 19.468-.807 23.961-.181l19.856 2.437c7.088.918 13.951 2.377 20.616 4.375.572-1.142.746-3.025.519-5.636-.018-.188-.031-.366-.062-.54-.083-.834-.155-1.522-.218-2.08l-.003-.027-.101-.848c-.049-.448-.101-.889-.137-1.323-.199-1.811-.354-3.335-.502-4.557l-.102-.911c-.112-.861-.234-1.656-.366-2.414-.203-1.018-1.065-1.705-2.554-2.066-7.737-1.747-15.545-2.929-23.41-3.537"/><path stroke="#737A90" stroke-width="2.058" stroke-linecap="round" stroke-linejoin="round" stroke-miterlimit="10" d="M110.395 25.451c7.865.607 15.673 1.79 23.411 3.535 1.489.361 2.352 1.049 2.554 2.066.132.758.254 1.553.366 2.414l.102.911c.147 1.222.303 2.746.502 4.557.036.435.088.875.137 1.323l.101.848.003.027c.063.558.135 1.246.218 2.08.031.174.044.352.062.54.228 2.61.054 4.494-.519 5.636-6.665-1.998-13.528-3.457-20.616-4.375l-19.856-2.436c-4.494-.626-12.478-.569-23.961.181l-10.951.529c-3.844.172-8.696.516-14.574 1.029-12.091 1.092-24.478 2.563-37.172 4.448-.646-1.055-.837-2.679-.578-4.891.127-.763.199-1.548.196-2.341l-.021-.713c-.014-.162-.027-.313-.055-.451l-.022-.096c-.815-4.199-.288-7.646 1.554-10.351 4.396-1.267 9.775-2.356 16.112-3.24 6.336-.908 12.157-1.179 17.457-.831 5.281.364 14.803-.267 28.561-1.91 8.657-1.215 20.987-.712 36.989 1.511z" fill="none"/></g></svg>