<?xml version="1.0" encoding="utf-8"?>
<!-- Generator: Adobe Illustrator 16.2.1, SVG Export Plug-In . SVG Version: 6.00 Build 0)  -->
<!DOCTYPE svg PUBLIC "-//W3C//DTD SVG 1.1//EN" "http://www.w3.org/Graphics/SVG/1.1/DTD/svg11.dtd">
<svg version="1.1" xmlns="http://www.w3.org/2000/svg" xmlns:xlink="http://www.w3.org/1999/xlink" x="0px" y="0px"
	 width="145.333px" height="61.333px" viewBox="0 0 145.333 61.333" enable-background="new 0 0 145.333 61.333"
	 xml:space="preserve">
<g id="base">
</g>
<g id="book3">
</g>
<g id="_x38_" display="none">
</g>
<g id="_x37_" display="none">
</g>
<g id="_x36_" display="none">
</g>
<g id="_x35_" display="none">
</g>
<g id="_x34_" display="none">
</g>
<g id="_x33_" display="none">
</g>
<g id="_x32_" display="none">
</g>
<g id="_x31_" display="none">
</g>
<g id="_x30_">
	<g>
		<path fill="#5A6174" d="M10.517,38.058l-0.01,10.858c4.939,1.742,10.509,2.856,16.733,3.336c3.558-0.019,8.221,0.721,13.976,2.223
			c30.021,3.251,61.973,1.569,95.875-5.021l-1.423-11.9L10.517,38.058z"/>
		
			<path fill="none" stroke="#737A90" stroke-width="2.0575" stroke-linecap="round" stroke-linejoin="round" stroke-miterlimit="10" d="
			M10.517,38.058l125.151-0.505l1.423,11.9c-33.902,6.591-65.854,8.272-95.875,5.021c-5.755-1.502-10.418-2.241-13.976-2.223
			c-6.225-0.479-11.794-1.594-16.733-3.336L10.517,38.058z"/>
		<path fill="#C5CDE3" d="M91.027,8.548c-0.926-0.083-2.16-0.057-3.697,0.067c-3.874,0.438-7.504,0.537-10.894,0.311
			c-3.389-0.229-5.465-0.367-6.23-0.395c-0.128-0.003-0.271-0.006-0.413-0.011c-0.716-0.044-1.651-0.112-2.808-0.228
			c-5.949-0.571-9.951-0.603-12.039-0.105c-0.798,0.146-1.573,0.6-2.332,1.361c-0.119,0.121-0.225,0.24-0.319,0.357
			c-0.547,0.688-0.799,1.497-0.783,2.427c-0.184,5.44-0.062,10.569,0.37,15.407c0.027,1.092,0.444,2.009,1.272,2.771
			c0.79,0.756,1.739,1.139,2.861,1.13c1.12-0.004,2.055-0.39,2.829-1.152c0.748-0.766,1.105-1.694,1.077-2.782
			c-0.631-3.997-0.754-8.074-0.383-12.254c3.174-0.21,6.395-0.108,9.668,0.293c7.442,0.555,13.403,0.66,17.881,0.348l0.274,11.505
			c0.032,1.091,0.445,2.006,1.272,2.76c0.791,0.765,1.742,1.148,2.862,1.143c1.096-0.007,2.044-0.391,2.82-1.13
			c0.745-0.787,1.116-1.714,1.085-2.808l-0.337-15.009c-0.052-1.354-0.449-2.333-1.174-2.954C93.182,8.99,92.223,8.634,91.027,8.548
			"/>
		
			<path fill="none" stroke="#737A90" stroke-width="2.0575" stroke-linecap="round" stroke-linejoin="round" stroke-miterlimit="10" d="
			M91.027,8.548c1.195,0.086,2.154,0.442,2.864,1.053c0.726,0.621,1.123,1.6,1.174,2.954l0.337,15.009
			c0.031,1.094-0.34,2.021-1.085,2.808c-0.776,0.739-1.724,1.123-2.82,1.13c-1.121,0.006-2.072-0.378-2.862-1.143
			c-0.827-0.754-1.24-1.669-1.272-2.76l-0.274-11.505c-4.478,0.312-10.438,0.207-17.881-0.348c-3.273-0.401-6.494-0.503-9.668-0.293
			c-0.371,4.18-0.248,8.257,0.383,12.254c0.028,1.088-0.329,2.017-1.077,2.782c-0.773,0.763-1.707,1.149-2.829,1.152
			c-1.122,0.009-2.071-0.374-2.861-1.13c-0.829-0.763-1.245-1.68-1.272-2.771c-0.432-4.838-0.554-9.967-0.37-15.407
			c-0.016-0.93,0.236-1.739,0.783-2.427c0.094-0.117,0.2-0.236,0.319-0.357c0.759-0.762,1.533-1.215,2.332-1.361
			c2.087-0.497,6.09-0.466,12.039,0.105c1.157,0.115,2.092,0.184,2.808,0.228c0.142,0.005,0.284,0.008,0.413,0.011
			c0.765,0.027,2.841,0.166,6.23,0.395c3.389,0.227,7.02,0.128,10.894-0.311C88.867,8.491,90.102,8.465,91.027,8.548z"/>
		<path fill="#AFB5D4" d="M110.395,25.451c-16.002-2.224-28.331-2.727-36.99-1.51c-13.757,1.644-23.279,2.274-28.561,1.91
			c-5.3-0.348-11.121-0.077-17.457,0.831c-6.337,0.884-11.716,1.974-16.112,3.24c-1.841,2.704-2.369,6.151-1.554,10.351
			c0.001,0.021,0.007,0.061,0.022,0.096c0.027,0.138,0.041,0.289,0.055,0.451c0.006,0.216,0.01,0.449,0.021,0.713
			c0.003,0.793-0.069,1.578-0.196,2.341c-0.259,2.212-0.066,3.836,0.578,4.891c12.694-1.885,25.081-3.356,37.172-4.448
			c5.878-0.514,10.73-0.857,14.574-1.029l10.951-0.529c11.483-0.75,19.468-0.807,23.961-0.181l19.856,2.437
			c7.088,0.918,13.951,2.377,20.616,4.375c0.572-1.142,0.746-3.025,0.519-5.636c-0.018-0.188-0.031-0.366-0.062-0.54
			c-0.083-0.834-0.155-1.522-0.218-2.08c-0.001-0.018-0.001-0.018-0.003-0.027c-0.039-0.336-0.066-0.625-0.101-0.848
			c-0.049-0.448-0.101-0.889-0.137-1.323c-0.199-1.811-0.354-3.335-0.502-4.557c-0.038-0.312-0.063-0.613-0.102-0.911
			c-0.112-0.861-0.234-1.656-0.366-2.414c-0.203-1.018-1.065-1.705-2.554-2.066C126.068,27.241,118.26,26.059,110.395,25.451"/>
		
			<path fill="none" stroke="#737A90" stroke-width="2.0575" stroke-linecap="round" stroke-linejoin="round" stroke-miterlimit="10" d="
			M110.395,25.451c7.865,0.607,15.673,1.79,23.411,3.535c1.489,0.361,2.352,1.049,2.554,2.066c0.132,0.758,0.254,1.553,0.366,2.414
			c0.039,0.298,0.064,0.6,0.102,0.911c0.147,1.222,0.303,2.746,0.502,4.557c0.036,0.435,0.088,0.875,0.137,1.323
			c0.034,0.223,0.062,0.512,0.101,0.848c0.001,0.01,0.001,0.01,0.003,0.027c0.063,0.558,0.135,1.246,0.218,2.08
			c0.031,0.174,0.044,0.352,0.062,0.54c0.228,2.61,0.054,4.494-0.519,5.636c-6.665-1.998-13.528-3.457-20.616-4.375L96.86,42.577
			c-4.494-0.626-12.478-0.569-23.961,0.181l-10.951,0.529c-3.844,0.172-8.696,0.516-14.574,1.029
			c-12.091,1.092-24.478,2.563-37.172,4.448c-0.646-1.055-0.837-2.679-0.578-4.891c0.127-0.763,0.199-1.548,0.196-2.341
			c-0.011-0.264-0.015-0.497-0.021-0.713c-0.014-0.162-0.027-0.313-0.055-0.451c-0.015-0.035-0.021-0.074-0.022-0.096
			c-0.815-4.199-0.288-7.646,1.554-10.351c4.396-1.267,9.775-2.356,16.112-3.24c6.336-0.908,12.157-1.179,17.457-0.831
			c5.281,0.364,14.803-0.267,28.561-1.91C82.063,22.725,94.393,23.228,110.395,25.451z"/>
	</g>
</g>
<g id="guide" display="none">
</g>
</svg>
