<?xml version="1.0" encoding="utf-8"?>
<!-- Generator: Adobe Illustrator 16.2.1, SVG Export Plug-In . SVG Version: 6.00 Build 0)  -->
<!DOCTYPE svg PUBLIC "-//W3C//DTD SVG 1.1//EN" "http://www.w3.org/Graphics/SVG/1.1/DTD/svg11.dtd">
<svg version="1.1" xmlns="http://www.w3.org/2000/svg" xmlns:xlink="http://www.w3.org/1999/xlink" x="0px" y="0px"
	 width="139.333px" height="107.333px" viewBox="0 0 139.333 107.333" enable-background="new 0 0 139.333 107.333"
	 xml:space="preserve">
<g id="base">
</g>
<g id="book3">
</g>
<g id="_x38_" display="none">
</g>
<g id="_x37_" display="none">
</g>
<g id="_x36_" display="none">
</g>
<g id="_x35_" display="none">
</g>
<g id="_x34_" display="none">
</g>
<g id="_x33_" display="none">
</g>
<g id="_x32_" display="none">
</g>
<g id="_x31_" display="none">
</g>
<g id="_x30_">
	<g>
		<path fill="#9EC94C" d="M117.241,31.977c2.307-0.218,3.972-0.99,4.998-2.323c-2.314-0.317-4.814-1.572-7.528-3.771
			c-6.725-7.628-16.971-12.093-30.744-13.39c0.369-1.451,1.371-2.699,3.005-3.73c-3.63-0.697-7.815-0.396-12.584,0.901
			c-1.13-0.575-1.183-1.701-0.162-3.361c-4.727,0.124-9.203,2.06-13.396,5.786c-5.648-1.926-11.419-2.492-17.303-1.708
			c2.722,0.867,4.45,2.086,5.181,3.661c-8.353,1.126-16.233,4.891-23.656,11.296c-2.715,2.339-5.343,3.68-7.877,4.023
			c1.063,1.342,2.748,2.117,5.06,2.349c-5.079,7.049-9.322,10.912-12.718,11.587c1.217,1.38,3.125,2.134,5.705,2.265
			c-0.512,1.234-1.197,2.384-2.057,3.418c-0.42,0.512-0.879,0.986-1.375,1.448c-1.058,0.971-2.285,1.842-3.705,2.6
			c-1.294,0.711-2.744,1.329-4.335,1.875c1.539,2.429,4.865,3.364,9.978,2.816c-0.767,1.383-1.355,2.832-1.776,4.331
			c-0.379,1.347-0.542,2.721-0.484,4.119c0.038,1.364,0.304,2.677,0.784,3.937c0.467,1.228,1.166,2.455,2.073,3.68
			c0.834-1.221,1.8-2.229,2.898-3.038c0.417,1.288,0.885,2.527,1.415,3.739c0.188,0.426,0.387,0.852,0.587,1.276
			c3.469,7.206,9.049,12.896,16.723,17.053c-0.054-1.137,0.164-2.209,0.655-3.231c5.679,5.447,12.818,8.992,21.438,10.604
			c-0.104-1.179,0.19-2.262,0.86-3.271c0.523,0.59,1.086,1.165,1.699,1.702c0.588,0.492,1.209,0.965,1.86,1.421
			c0.692,0.513,1.42,0.952,2.171,1.34c0.859,0.44,1.766,0.815,2.712,1.146c0.488,0.163,0.995,0.29,1.513,0.375
			c0.931,0.181,1.873,0.246,2.827,0.199c0.811-0.062,1.583-0.222,2.314-0.493c0.834-0.31,1.615-0.647,2.357-1.031
			c0.784-0.361,1.489-0.799,2.138-1.305c0.666-0.488,1.326-0.998,1.979-1.521c0.661-0.512,1.264-1.108,1.796-1.771
			c0.698,1.017,1.018,2.102,0.945,3.277c8.579-1.563,15.626-5.066,21.163-10.487c0.519,1.026,0.763,2.103,0.74,3.241
			c9.091-4.938,15.095-12.095,18.003-21.47c1.222,0.565,2.353,1.493,3.402,2.784c3.205-5.253,3.174-10.675-0.095-16.295
			c5.125,0.578,8.429-0.339,9.904-2.759c-1.606-0.551-3.056-1.185-4.368-1.899c-1.442-0.767-2.704-1.644-3.788-2.621
			c-0.508-0.464-0.98-0.94-1.411-1.452c-0.891-1.041-1.601-2.192-2.145-3.434c2.579-0.114,4.465-0.858,5.644-2.232
			C126.846,42.938,122.504,39.051,117.241,31.977"/>
		<path fill="none" stroke="#245E27" stroke-width="2.0479" stroke-linecap="round" stroke-miterlimit="10" d="M117.241,31.977
			c5.263,7.074,9.605,10.961,13.02,11.655c-1.179,1.374-3.065,2.118-5.644,2.232c0.544,1.241,1.254,2.393,2.145,3.434
			c0.431,0.512,0.903,0.988,1.411,1.452c1.084,0.978,2.346,1.854,3.788,2.621c1.312,0.715,2.762,1.349,4.368,1.899
			c-1.475,2.42-4.779,3.337-9.904,2.759c3.269,5.62,3.3,11.042,0.095,16.295c-1.049-1.291-2.181-2.219-3.402-2.784
			c-2.908,9.375-8.912,16.532-18.003,21.47c0.022-1.139-0.222-2.215-0.74-3.241c-5.537,5.421-12.584,8.924-21.163,10.487
			c0.073-1.176-0.248-2.261-0.945-3.277c-0.532,0.663-1.135,1.26-1.796,1.771c-0.652,0.522-1.313,1.032-1.979,1.521
			c-0.648,0.506-1.354,0.943-2.138,1.305c-0.742,0.384-1.523,0.722-2.357,1.031c-0.731,0.271-1.503,0.432-2.314,0.493
			c-0.954,0.047-1.896-0.019-2.827-0.199c-0.518-0.085-1.024-0.212-1.513-0.375c-0.946-0.331-1.854-0.706-2.712-1.146
			c-0.751-0.388-1.479-0.827-2.171-1.34c-0.651-0.456-1.272-0.929-1.86-1.421c-0.613-0.537-1.176-1.112-1.699-1.702
			c-0.67,1.01-0.964,2.093-0.86,3.271c-8.619-1.611-15.759-5.156-21.438-10.604c-0.492,1.022-0.709,2.095-0.655,3.231
			c-7.674-4.156-13.254-9.847-16.723-17.053c-0.201-0.425-0.399-0.851-0.587-1.276c-0.529-1.212-0.998-2.451-1.415-3.739
			c-1.098,0.81-2.064,1.817-2.898,3.038c-0.907-1.225-1.606-2.452-2.073-3.68c-0.48-1.26-0.746-2.572-0.784-3.937
			c-0.058-1.398,0.105-2.772,0.484-4.119c0.421-1.499,1.009-2.948,1.776-4.331c-5.113,0.548-8.439-0.388-9.978-2.816
			c1.591-0.546,3.041-1.164,4.335-1.875c1.42-0.758,2.646-1.629,3.705-2.6c0.497-0.462,0.956-0.937,1.375-1.448
			c0.859-1.034,1.544-2.184,2.057-3.418c-2.58-0.131-4.487-0.885-5.705-2.265c3.396-0.675,7.639-4.538,12.718-11.587
			c-2.312-0.231-3.997-1.007-5.06-2.349c2.534-0.344,5.162-1.685,7.877-4.023c7.423-6.405,15.304-10.17,23.656-11.296
			c-0.731-1.575-2.459-2.794-5.181-3.661c5.884-0.786,11.655-0.218,17.303,1.708c4.193-3.727,8.669-5.662,13.396-5.786
			c-1.021,1.66-0.968,2.786,0.162,3.361c4.769-1.297,8.954-1.599,12.584-0.901c-1.634,1.031-2.636,2.279-3.005,3.73
			c13.773,1.297,24.02,5.762,30.744,13.39c2.713,2.198,5.214,3.453,7.528,3.771C121.212,30.986,119.547,31.759,117.241,31.977z"/>
		<path fill="#D8382A" d="M90.216,62.379c-0.037,0.014-0.065,0.013-0.089,0.013l0.087,0.011
			C90.216,62.392,90.216,62.392,90.216,62.379"/>
		<path fill="#1F1A1A" d="M90.127,62.392c-0.466,3.011-2.301,5.605-5.519,7.782c-3.849,2.647-8.501,3.936-13.968,3.884
			c-5.483-0.041-10.192-1.401-14.133-4.089c-2.85-1.942-4.686-4.16-5.503-6.66c-0.065-0.016-0.142-0.013-0.204-0.027
			c-7.619-0.721-15.346-1.942-23.181-3.651c8.918,10.685,18.159,17.108,27.715,19.261c9.558,2.136,19.832,2.14,30.802-0.018
			c11.922-2.316,21.228-9.624,27.891-21.914c-7.798,2.44-15.739,4.242-23.811,5.42c0,0.013,0,0.013-0.001,0.023L90.127,62.392z"/>
		<path fill="#D8382A" d="M84.608,70.174c3.218-2.177,5.053-4.771,5.519-7.782c-12.701,1.851-25.734,2.153-39.123,0.917
			c0.817,2.5,2.653,4.718,5.503,6.66c3.94,2.688,8.649,4.048,14.133,4.089C76.107,74.109,80.759,72.823,84.608,70.174"/>
		
			<path fill="none" stroke="#1F1A1A" stroke-width="0.0125" stroke-linecap="round" stroke-linejoin="round" stroke-miterlimit="10" d="
			M90.216,62.379c8.072-1.178,16.013-2.979,23.811-5.42c-6.663,12.29-15.969,19.598-27.891,21.914
			c-10.97,2.157-21.244,2.153-30.806,0.017c-9.552-2.151-18.793-8.575-27.711-19.26c7.835,1.709,15.562,2.931,23.181,3.651"/>
		
			<path fill="none" stroke="#D8382A" stroke-width="0.0125" stroke-linecap="round" stroke-linejoin="round" stroke-miterlimit="10" d="
			M50.8,63.281c0.062,0.015,0.139,0.012,0.204,0.027c13.389,1.236,26.421,0.934,39.123-0.917c0.023,0,0.052,0.001,0.089-0.013
			 M51.004,63.309c0.817,2.5,2.653,4.718,5.503,6.66c3.94,2.688,8.649,4.048,14.133,4.089c5.467,0.054,10.119-1.234,13.968-3.884
			c3.218-2.177,5.053-4.771,5.519-7.782"/>
		<path fill="#FFFFFF" d="M88.625,29.891c-3.526-0.598-6.725,0.094-9.63,2.084c-2.902,1.977-4.62,4.673-5.169,8.08
			c-0.561,3.413,0.212,6.537,2.3,9.369c2.126,2.842,4.945,4.562,8.475,5.157c3.517,0.585,6.719-0.116,9.592-2.124
			c2.9-1.978,4.618-4.682,5.182-8.094c0.55-3.409-0.225-6.521-2.315-9.338C94.949,32.182,92.141,30.462,88.625,29.891"/>
		<path fill="#FFFFFF" d="M39.125,39.972c-0.56,3.396,0.216,6.513,2.316,9.353c2.112,2.845,4.932,4.566,8.461,5.159
			c3.502,0.6,6.704-0.114,9.59-2.118c2.903-1.994,4.632-4.688,5.197-8.085c0.56-3.409-0.216-6.536-2.341-9.365
			c-2.102-2.845-4.907-4.55-8.407-5.122c-3.53-0.597-6.746,0.105-9.646,2.084C41.421,33.856,39.703,36.562,39.125,39.972"/>
		<path fill="#1F1A1A" d="M90.216,39.439c-0.703-1.351-1.782-2.258-3.24-2.738c-1.473-0.487-2.892-0.401-4.269,0.248
			c-1.383,0.662-2.301,1.691-2.778,3.1c-0.476,1.405-0.366,2.774,0.33,4.123c0.701,1.349,1.779,2.257,3.24,2.74
			c1.461,0.482,2.872,0.396,4.251-0.253c1.379-0.653,2.299-1.686,2.777-3.102C91.01,42.151,90.911,40.784,90.216,39.439"/>
		<path fill="#1F1A1A" d="M59.58,39.456c-0.704-1.351-1.783-2.254-3.243-2.735c-1.47-0.485-2.89-0.402-4.268,0.25
			c-1.383,0.66-2.302,1.689-2.779,3.095c-0.476,1.411-0.365,2.778,0.327,4.124c0.706,1.352,1.786,2.259,3.244,2.74
			c1.458,0.482,2.872,0.396,4.251-0.257c1.381-0.648,2.297-1.678,2.774-3.099C60.374,42.173,60.271,40.803,59.58,39.456"/>
		<path fill="#C06513" d="M87.333,21.337c-0.516-0.866-1.408-1.03-2.665-0.483c-4.91,2.221-9.519,4.731-13.827,7.508
			c-0.881,0.571-1.553,0.695-2.032,0.368c-5.866-3.89-9.857-6.334-11.998-7.343c-2.178-1.029-3.7-1.173-4.568-0.412
			c-0.881,0.736-1.191,1.67-0.915,2.835c-8.11,0.313-14.153,1.711-18.144,4.173c-3.967,2.438-6.045,4.143-6.236,5.128
			c-0.208,0.964,1.214,1.418,4.271,1.353c-2.605,2.04-4.715,4.509-6.312,7.415c-0.783,1.411-1.129,2.509-1.04,3.298
			c0.012,0.102,0.039,0.199,0.068,0.312c0.015,0.063,0.04,0.111,0.054,0.163c0.039,0.086,0.104,0.15,0.17,0.213
			c0.168,0.163,0.366,0.289,0.583,0.4c0.274,0.141,0.574,0.241,0.872,0.314c0.232,0.089,0.476,0.153,0.724,0.216
			c4.512,0.974,8.973,0.762,13.353-0.65c0.122-4.235,1.314-7.656,3.591-10.288c2.244-2.629,5.008-3.557,8.254-2.76
			c2.548,0.617,4.764,1.448,6.634,2.49l2.808,1.77c1.793,1.165,3.302,1.994,4.506,2.486c1.193,0.488,2.651,0.722,4.38,0.7
			c1.753-0.011,3.669-0.567,5.753-1.671c2.088-1.119,3.637-1.95,4.649-2.5c1.168-0.609,2.421-1.191,3.769-1.727
			c1.657-0.617,3.301-1.026,4.925-1.21c2.612-0.295,4.693,0.101,6.244,1.19c0.766,0.541,1.405,1.269,1.926,2.183
			c0.538,0.91,0.977,1.865,1.336,2.852c0.645,1.888,0.814,4.062,0.497,6.5c4.673,1.426,9.667,1.812,14.985,1.152
			c1.571-0.173,2.413-0.716,2.529-1.653c0.182-0.998-0.428-2.392-1.807-4.156c-2.045-2.641-4.162-4.859-6.352-6.628
			c0.751,0.116,1.625,0.03,2.64-0.243c2.248-0.628,2.312-1.716,0.165-3.259c-8.005-5.619-15.631-8.204-22.86-7.748
			C88.113,22.862,87.805,22.101,87.333,21.337"/>
	</g>
</g>
<g id="guide" display="none">
</g>
</svg>
