<svg xmlns="http://www.w3.org/2000/svg" width="139.333" height="107.333" viewBox="0 0 139.333 107.333"><g><path fill="#9EC94C" d="M117.241 31.977c2.307-.218 3.972-.99 4.998-2.323-2.314-.317-4.814-1.572-7.528-3.771-6.725-7.628-16.971-12.093-30.744-13.39.369-1.451 1.371-2.699 3.005-3.73-3.63-.697-7.815-.396-12.584.901-1.13-.575-1.183-1.701-.162-3.361-4.727.124-9.203 2.06-13.396 5.786-5.648-1.926-11.419-2.492-17.303-1.708 2.722.867 4.45 2.086 5.181 3.661-8.353 1.126-16.233 4.891-23.656 11.296-2.715 2.339-5.343 3.68-7.877 4.023 1.063 1.342 2.748 2.117 5.06 2.349-5.079 7.049-9.322 10.912-12.718 11.587 1.217 1.38 3.125 2.134 5.705 2.265-.512 1.234-1.197 2.384-2.057 3.418-.42.512-.879.986-1.375 1.448-1.058.971-2.285 1.842-3.705 2.6-1.294.711-2.744 1.329-4.335 1.875 1.539 2.429 4.865 3.364 9.978 2.816-.767 1.383-1.355 2.832-1.776 4.331-.379 1.347-.542 2.721-.484 4.119.038 1.364.304 2.677.784 3.937.467 1.228 1.166 2.455 2.073 3.68.834-1.221 1.8-2.229 2.898-3.038.417 1.288.885 2.527 1.415 3.739.188.426.387.852.587 1.276 3.469 7.206 9.049 12.896 16.723 17.053-.054-1.137.164-2.209.655-3.231 5.679 5.447 12.818 8.992 21.438 10.604-.104-1.179.19-2.262.86-3.271.523.59 1.086 1.165 1.699 1.702.588.492 1.209.965 1.86 1.421.692.513 1.42.952 2.171 1.34.859.44 1.766.815 2.712 1.146.488.163.995.29 1.513.375.931.181 1.873.246 2.827.199.811-.062 1.583-.222 2.314-.493.834-.31 1.615-.647 2.357-1.031.784-.361 1.489-.799 2.138-1.305.666-.488 1.326-.998 1.979-1.521.661-.512 1.264-1.108 1.796-1.771.698 1.017 1.018 2.102.945 3.277 8.579-1.563 15.626-5.066 21.163-10.487.519 1.026.763 2.103.74 3.241 9.091-4.938 15.095-12.095 18.003-21.47 1.222.565 2.353 1.493 3.402 2.784 3.205-5.253 3.174-10.675-.095-16.295 5.125.578 8.429-.339 9.904-2.759-1.606-.551-3.056-1.185-4.368-1.899-1.442-.767-2.704-1.644-3.788-2.621-.508-.464-.98-.94-1.411-1.452-.891-1.041-1.601-2.192-2.145-3.434 2.579-.114 4.465-.858 5.644-2.232-3.415-.695-7.757-4.582-13.02-11.656"/><path stroke="#245E27" stroke-width="2.048" stroke-linecap="round" stroke-miterlimit="10" d="M117.241 31.977c5.263 7.074 9.605 10.961 13.02 11.655-1.179 1.374-3.065 2.118-5.644 2.232.544 1.241 1.254 2.393 2.145 3.434.431.512.903.988 1.411 1.452 1.084.978 2.346 1.854 3.788 2.621 1.312.715 2.762 1.349 4.368 1.899-1.475 2.42-4.779 3.337-9.904 2.759 3.269 5.62 3.3 11.042.095 16.295-1.049-1.291-2.181-2.219-3.402-2.784-2.908 9.375-8.912 16.532-18.003 21.47.022-1.139-.222-2.215-.74-3.241-5.537 5.421-12.584 8.924-21.163 10.487.073-1.176-.248-2.261-.945-3.277-.532.663-1.135 1.26-1.796 1.771-.652.522-1.313 1.032-1.979 1.521-.648.506-1.354.943-2.138 1.305-.742.384-1.523.722-2.357 1.031-.731.271-1.503.432-2.314.493-.954.047-1.896-.019-2.827-.199-.518-.085-1.024-.212-1.513-.375-.946-.331-1.854-.706-2.712-1.146-.751-.388-1.479-.827-2.171-1.34-.651-.456-1.272-.929-1.86-1.421-.613-.537-1.176-1.112-1.699-1.702-.67 1.01-.964 2.093-.86 3.271-8.619-1.611-15.759-5.156-21.438-10.604-.492 1.022-.709 2.095-.655 3.231-7.674-4.156-13.254-9.847-16.723-17.053-.201-.425-.399-.851-.587-1.276-.529-1.212-.998-2.451-1.415-3.739-1.098.81-2.064 1.817-2.898 3.038-.907-1.225-1.606-2.452-2.073-3.68-.48-1.26-.746-2.572-.784-3.937-.058-1.398.105-2.772.484-4.119.421-1.499 1.009-2.948 1.776-4.331-5.113.548-8.439-.388-9.978-2.816 1.591-.546 3.041-1.164 4.335-1.875 1.42-.758 2.646-1.629 3.705-2.6.497-.462.956-.937 1.375-1.448.859-1.034 1.544-2.184 2.057-3.418-2.58-.131-4.487-.885-5.705-2.265 3.396-.675 7.639-4.538 12.718-11.587-2.312-.231-3.997-1.007-5.06-2.349 2.534-.344 5.162-1.685 7.877-4.023 7.423-6.405 15.304-10.17 23.656-11.296-.731-1.575-2.459-2.794-5.181-3.661 5.884-.786 11.655-.218 17.303 1.708 4.193-3.727 8.669-5.662 13.396-5.786-1.021 1.66-.968 2.786.162 3.361 4.769-1.297 8.954-1.599 12.584-.901-1.634 1.031-2.636 2.279-3.005 3.73 13.773 1.297 24.02 5.762 30.744 13.39 2.713 2.198 5.214 3.453 7.528 3.771-1.027 1.333-2.692 2.106-4.998 2.324z" fill="none"/><path fill="#D8382A" d="M90.216 62.379l-.089.013.087.011.002-.024"/><path fill="#1F1A1A" d="M90.127 62.392c-.466 3.011-2.301 5.605-5.519 7.782-3.849 2.647-8.501 3.936-13.968 3.884-5.483-.041-10.192-1.401-14.133-4.089-2.85-1.942-4.686-4.16-5.503-6.66l-.204-.027c-7.619-.721-15.346-1.942-23.181-3.651 8.918 10.685 18.159 17.108 27.715 19.261 9.558 2.136 19.832 2.14 30.802-.018 11.922-2.316 21.228-9.624 27.891-21.914-7.798 2.44-15.739 4.242-23.811 5.42l-.001.023-.088-.011z"/><path fill="#D8382A" d="M84.608 70.174c3.218-2.177 5.053-4.771 5.519-7.782-12.701 1.851-25.734 2.153-39.123.917.817 2.5 2.653 4.718 5.503 6.66 3.94 2.688 8.649 4.048 14.133 4.089 5.467.051 10.119-1.235 13.968-3.884"/><path stroke="#1F1A1A" stroke-width=".013" stroke-linecap="round" stroke-linejoin="round" stroke-miterlimit="10" d="M90.216 62.379c8.072-1.178 16.013-2.979 23.811-5.42-6.663 12.29-15.969 19.598-27.891 21.914-10.97 2.157-21.244 2.153-30.806.017-9.552-2.151-18.793-8.575-27.711-19.26 7.835 1.709 15.562 2.931 23.181 3.651" fill="none"/><path stroke="#D8382A" stroke-width=".013" stroke-linecap="round" stroke-linejoin="round" stroke-miterlimit="10" d="M50.8 63.281l.204.027c13.389 1.236 26.421.934 39.123-.917l.089-.013m-39.212.931c.817 2.5 2.653 4.718 5.503 6.66 3.94 2.688 8.649 4.048 14.133 4.089 5.467.054 10.119-1.234 13.968-3.884 3.218-2.177 5.053-4.771 5.519-7.782" fill="none"/><path fill="#fff" d="M88.625 29.891c-3.526-.598-6.725.094-9.63 2.084-2.902 1.977-4.62 4.673-5.169 8.08-.561 3.413.212 6.537 2.3 9.369 2.126 2.842 4.945 4.562 8.475 5.157 3.517.585 6.719-.116 9.592-2.124 2.9-1.978 4.618-4.682 5.182-8.094.55-3.409-.225-6.521-2.315-9.338-2.111-2.843-4.919-4.563-8.435-5.134M39.125 39.972c-.56 3.396.216 6.513 2.316 9.353 2.112 2.845 4.932 4.566 8.461 5.159 3.502.6 6.704-.114 9.59-2.118 2.903-1.994 4.632-4.688 5.197-8.085.56-3.409-.216-6.536-2.341-9.365-2.102-2.845-4.907-4.55-8.407-5.122-3.53-.597-6.746.105-9.646 2.084-2.874 1.978-4.592 4.684-5.17 8.094"/><path fill="#1F1A1A" d="M90.216 39.439c-.703-1.351-1.782-2.258-3.24-2.738-1.473-.487-2.892-.401-4.269.248-1.383.662-2.301 1.691-2.778 3.1-.476 1.405-.366 2.774.33 4.123.701 1.349 1.779 2.257 3.24 2.74 1.461.482 2.872.396 4.251-.253 1.379-.653 2.299-1.686 2.777-3.102.483-1.406.384-2.773-.311-4.118M59.58 39.456c-.704-1.351-1.783-2.254-3.243-2.735-1.47-.485-2.89-.402-4.268.25-1.383.66-2.302 1.689-2.779 3.095-.476 1.411-.365 2.778.327 4.124.706 1.352 1.786 2.259 3.244 2.74 1.458.482 2.872.396 4.251-.257 1.381-.648 2.297-1.678 2.774-3.099.488-1.401.385-2.771-.306-4.118"/><path fill="#C06513" d="M87.333 21.337c-.516-.866-1.408-1.03-2.665-.483-4.91 2.221-9.519 4.731-13.827 7.508-.881.571-1.553.695-2.032.368-5.866-3.89-9.857-6.334-11.998-7.343-2.178-1.029-3.7-1.173-4.568-.412-.881.736-1.191 1.67-.915 2.835-8.11.313-14.153 1.711-18.144 4.173-3.967 2.438-6.045 4.143-6.236 5.128-.208.964 1.214 1.418 4.271 1.353-2.605 2.04-4.715 4.509-6.312 7.415-.783 1.411-1.129 2.509-1.04 3.298l.068.312.054.163c.039.086.104.15.17.213.168.163.366.289.583.4.274.141.574.241.872.314.232.089.476.153.724.216 4.512.974 8.973.762 13.353-.65.122-4.235 1.314-7.656 3.591-10.288 2.244-2.629 5.008-3.557 8.254-2.76 2.548.617 4.764 1.448 6.634 2.49l2.808 1.77c1.793 1.165 3.302 1.994 4.506 2.486 1.193.488 2.651.722 4.38.7 1.753-.011 3.669-.567 5.753-1.671 2.088-1.119 3.637-1.95 4.649-2.5 1.168-.609 2.421-1.191 3.769-1.727 1.657-.617 3.301-1.026 4.925-1.21 2.612-.295 4.693.101 6.244 1.19.766.541 1.405 1.269 1.926 2.183.538.91.977 1.865 1.336 2.852.645 1.888.814 4.062.497 6.5 4.673 1.426 9.667 1.812 14.985 1.152 1.571-.173 2.413-.716 2.529-1.653.182-.998-.428-2.392-1.807-4.156-2.045-2.641-4.162-4.859-6.352-6.628.751.116 1.625.03 2.64-.243 2.248-.628 2.312-1.716.165-3.259-8.005-5.619-15.631-8.204-22.86-7.748-.15-.763-.458-1.524-.93-2.288"/></g></svg>