<svg xmlns="http://www.w3.org/2000/svg" width="78" height="112.666" viewBox="0 0 78 112.666"><g><path fill="#245E27" d="M53.395 9.604c-2.757.1-5.76 2.016-9.031 5.765l-.068.083c-2.469 3.539-4.279 6.787-5.429 9.761-3.837-.797-6.704.082-8.61 2.655-1.971 2.489-2.897 6.75-2.789 12.802-1.484 11.33-9.518 27.458-24.109 48.373-.148.181-.207.394-.174.633.014.228.102.427.26.602l14.637 15.487c.134.131.281.221.475.27.176.054.364.054.554.014.181-.035.339-.134.474-.262 19.709-19.292 36.006-38.16 48.861-56.611l.551-.414.029-.034c2.248-1.967 3.334-4.128 3.252-6.499l-.004-.063c-.264-2.944-1.594-4.947-3.998-6.016-1.326-.604-2.598-.988-3.814-1.139.527-2.408.023-4.398-1.514-5.986-1.326-1.409-3.074-2.246-5.25-2.506 2.322-5.354 2.971-9.424 1.963-12.194-1.161-3.37-3.249-4.942-6.266-4.721m.117 1.994l.012-.002c1.982-.072 3.383 1.042 4.172 3.354.826 2.576.068 6.428-2.25 11.559-2.084.366-3.784 1.425-5.125 3.19-1.385 1.805-2.245 4.044-2.574 6.711-.374 2.87.264 4.993 1.893 6.346 1.581 1.362 3.365 1.969 5.355 1.829l.012.006.123-.004c-.164 2.644.379 4.545 1.641 5.685 1.385 1.471 3.705 1.861 6.986 1.176l.088-.024c.211-.059.432-.132.637-.203-12.252 17.097-27.447 34.571-45.6 52.408l-13.357-14.128c14.584-20.991 22.578-37.21 24.002-48.644l-.002-.142c-.104-5.495.695-9.383 2.394-11.66 1.582-1.992 3.99-2.574 7.219-1.726 2.337 1.153 3.792 2.853 4.354 5.123.578 2.373.519 4.508-.163 6.401l.012-.001.004.009c-.672 1.762-1.673 2.949-3.002 3.583-1.225.55-2.344.486-3.383-.196-1.11-.77-2.519-2.377-4.239-4.831-.12.087-.189.262-.194.508-.02.255.179.992.563 2.249.39 1.251 1.291 2.497 2.698 3.728 1.663 1.105 3.472 1.227 5.431.352 1.833-.81 3.188-2.387 4.06-4.725.84-2.223.92-4.739.227-7.534-.639-2.614-2.201-4.646-4.711-6.061 1.097-2.84 2.832-5.942 5.167-9.312 2.78-3.167 5.288-4.843 7.55-5.024m-3.712 25.057c.287-2.302 1.019-4.225 2.193-5.775 1.089-1.435 2.511-2.262 4.267-2.47l.012-.004.012-.003c2.191.038 3.91.69 5.139 1.969 1.146 1.252 1.441 2.857.857 4.815l-.01.016-.104.325-.031.077.004.01-.004.029-.006.025-.02.032.006.015c-.672 1.928-1.676 3.521-2.992 4.784l-.014.007c-.984.924-1.998 1.542-3.031 1.861l-.162.046c-.361.088-.711.146-1.064.18-1.428.089-2.705-.359-3.832-1.333-1.079-.994-1.487-2.531-1.22-4.606m8.446 12.216c-.895-.959-1.223-2.545-1.004-4.777 1.137-.437 2.24-1.143 3.32-2.162 1.414-1.332 2.506-2.99 3.283-4.974 1.119.091 2.293.423 3.545.996 1.676.79 2.605 2.231 2.816 4.317.014 1.792-.824 3.44-2.541 4.948l-.531.409-.145.105c-1.105.764-2.332 1.341-3.674 1.754l-.025.008c-2.341.489-4.036.274-5.044-.624"/><path fill="#9EC94C" d="M53.523 11.596l-.012.002c-2.262.182-4.77 1.857-7.552 5.025-2.335 3.369-4.07 6.472-5.167 9.312 2.51 1.415 4.072 3.446 4.711 6.061.693 2.795.613 5.312-.227 7.534-.871 2.338-2.228 3.915-4.06 4.725-1.959.875-3.768.754-5.431-.352-1.407-1.23-2.309-2.477-2.698-3.728-.385-1.257-.583-1.994-.563-2.249.005-.246.074-.421.197-.508 1.718 2.454 3.127 4.062 4.236 4.831 1.039.683 2.158.746 3.383.196 1.329-.634 2.33-1.821 3.002-3.583l-.016-.008c.682-1.894.741-4.028.163-6.401-.562-2.271-2.017-3.97-4.354-5.123-3.228-.849-5.637-.267-7.219 1.726-1.698 2.277-2.497 6.165-2.394 11.66l.002.142c-1.42 11.433-9.415 27.652-23.999 48.643l13.355 14.126c18.152-17.837 33.348-35.312 45.6-52.408-.205.071-.426.145-.637.201l-.088.026c-3.281.686-5.602.295-6.986-1.176-1.262-1.14-1.805-3.041-1.641-5.685l-.123.004-.012-.006c-1.99.14-3.774-.467-5.355-1.829-1.629-1.353-2.267-3.476-1.893-6.346.329-2.667 1.189-4.906 2.574-6.711 1.341-1.766 3.041-2.824 5.125-3.19 2.318-5.131 3.076-8.982 2.25-11.559-.788-2.31-2.188-3.425-4.171-3.352M51.993 30.88c-1.175 1.551-1.903 3.474-2.193 5.775-.267 2.075.142 3.611 1.22 4.606 1.127.974 2.404 1.422 3.832 1.333.354-.034.703-.092 1.064-.18l.162-.046c1.033-.319 2.047-.938 3.031-1.861l.016-.007c1.314-1.263 2.318-2.856 2.99-4.784l-.006-.015.02-.032.006-.025.004-.029-.004-.01.031-.077.104-.325.01-.016c.584-1.958.289-3.563-.857-4.815-1.229-1.278-2.947-1.931-5.139-1.969l-.012.003-.012.004c-1.756.208-3.178 1.035-4.267 2.47M57.242 44.094c-.219 2.233.109 3.818 1.004 4.777 1.008.897 2.703 1.113 5.047.625l.023-.008c1.342-.413 2.568-.99 3.674-1.754l.145-.105.531-.409c1.717-1.508 2.555-3.156 2.539-4.948-.209-2.086-1.139-3.527-2.814-4.317-1.252-.573-2.426-.905-3.545-.996-.777 1.983-1.867 3.642-3.283 4.974-1.081 1.018-2.184 1.724-3.321 2.161"/></g></svg>