<?xml version="1.0" encoding="utf-8"?>
<!-- Generator: Adobe Illustrator 16.2.1, SVG Export Plug-In . SVG Version: 6.00 Build 0)  -->
<!DOCTYPE svg PUBLIC "-//W3C//DTD SVG 1.1//EN" "http://www.w3.org/Graphics/SVG/1.1/DTD/svg11.dtd">
<svg version="1.1" xmlns="http://www.w3.org/2000/svg" xmlns:xlink="http://www.w3.org/1999/xlink" x="0px" y="0px" width="78px"
	 height="112.666px" viewBox="0 0 78 112.666" enable-background="new 0 0 78 112.666" xml:space="preserve">
<g id="base">
</g>
<g id="book3">
</g>
<g id="_x38_" display="none">
</g>
<g id="_x37_" display="none">
</g>
<g id="_x36_" display="none">
</g>
<g id="_x35_" display="none">
</g>
<g id="_x34_" display="none">
</g>
<g id="_x33_" display="none">
</g>
<g id="_x32_" display="none">
</g>
<g id="_x31_" display="none">
</g>
<g id="_x30_">
	<g>
		<path fill="#245E27" d="M53.395,9.604c-2.757,0.1-5.76,2.016-9.031,5.765c-0.035,0.022-0.051,0.053-0.068,0.083
			c-2.469,3.539-4.279,6.787-5.429,9.761c-3.837-0.797-6.704,0.082-8.61,2.655c-1.971,2.489-2.897,6.75-2.789,12.802
			c-1.484,11.33-9.518,27.458-24.109,48.373c-0.148,0.181-0.207,0.394-0.174,0.633c0.014,0.228,0.102,0.427,0.26,0.602
			l14.637,15.487c0.134,0.131,0.281,0.221,0.475,0.27c0.176,0.054,0.364,0.054,0.554,0.014c0.181-0.035,0.339-0.134,0.474-0.262
			c19.709-19.292,36.006-38.16,48.861-56.611c0.186-0.145,0.363-0.271,0.551-0.414c0.008-0.014,0.02-0.021,0.029-0.034
			c2.248-1.967,3.334-4.128,3.252-6.499c-0.006-0.024-0.012-0.048-0.004-0.063c-0.264-2.944-1.594-4.947-3.998-6.016
			c-1.326-0.604-2.598-0.988-3.814-1.139c0.527-2.408,0.023-4.398-1.514-5.986c-1.326-1.409-3.074-2.246-5.25-2.506
			c2.322-5.354,2.971-9.424,1.963-12.194C58.5,10.955,56.412,9.383,53.395,9.604 M53.512,11.598l0.012-0.002
			c1.982-0.072,3.383,1.042,4.172,3.354c0.826,2.576,0.068,6.428-2.25,11.559c-2.084,0.366-3.784,1.425-5.125,3.19
			c-1.385,1.805-2.245,4.044-2.574,6.711c-0.374,2.87,0.264,4.993,1.893,6.346c1.581,1.362,3.365,1.969,5.355,1.829l0.012,0.006
			c0.039-0.01,0.08-0.006,0.123-0.004c-0.164,2.644,0.379,4.545,1.641,5.685c1.385,1.471,3.705,1.861,6.986,1.176
			c0.025-0.006,0.049-0.013,0.088-0.024c0.211-0.059,0.432-0.132,0.637-0.203c-12.252,17.097-27.447,34.571-45.6,52.408
			L5.525,89.501c14.584-20.991,22.578-37.21,24.002-48.644c-0.002-0.05-0.004-0.103-0.002-0.142
			c-0.104-5.495,0.695-9.383,2.394-11.66c1.582-1.992,3.99-2.574,7.219-1.726c2.337,1.153,3.792,2.853,4.354,5.123
			c0.578,2.373,0.519,4.508-0.163,6.401l0.012-0.001l0.004,0.009c-0.672,1.762-1.673,2.949-3.002,3.583
			c-1.225,0.55-2.344,0.486-3.383-0.196c-1.11-0.77-2.519-2.377-4.239-4.831c-0.12,0.087-0.189,0.262-0.194,0.508
			c-0.02,0.255,0.179,0.992,0.563,2.249c0.39,1.251,1.291,2.497,2.698,3.728c1.663,1.105,3.472,1.227,5.431,0.352
			c1.833-0.81,3.188-2.387,4.06-4.725c0.84-2.223,0.92-4.739,0.227-7.534c-0.639-2.614-2.201-4.646-4.711-6.061
			c1.097-2.84,2.832-5.942,5.167-9.312C48.742,13.455,51.25,11.779,53.512,11.598 M49.8,36.655c0.287-2.302,1.019-4.225,2.193-5.775
			c1.089-1.435,2.511-2.262,4.267-2.47l0.012-0.004l0.012-0.003c2.191,0.038,3.91,0.69,5.139,1.969
			c1.146,1.252,1.441,2.857,0.857,4.815c-0.016,0.003-0.016,0.003-0.01,0.016c-0.039,0.101-0.072,0.215-0.104,0.325
			c-0.023,0.022-0.027,0.048-0.031,0.077l0.004,0.01l-0.004,0.029c-0.016,0.004-0.012,0.015-0.006,0.025
			c-0.012,0.019-0.012,0.019-0.02,0.032l0.006,0.015c-0.672,1.928-1.676,3.521-2.992,4.784l-0.014,0.007
			c-0.984,0.924-1.998,1.542-3.031,1.861c-0.066,0.004-0.117,0.018-0.162,0.046c-0.361,0.088-0.711,0.146-1.064,0.18
			c-1.428,0.089-2.705-0.359-3.832-1.333C49.941,40.267,49.533,38.73,49.8,36.655 M58.246,48.871
			c-0.895-0.959-1.223-2.545-1.004-4.777c1.137-0.437,2.24-1.143,3.32-2.162c1.414-1.332,2.506-2.99,3.283-4.974
			c1.119,0.091,2.293,0.423,3.545,0.996c1.676,0.79,2.605,2.231,2.816,4.317c0.014,1.792-0.824,3.44-2.541,4.948
			c-0.186,0.144-0.363,0.27-0.531,0.409c-0.059,0.029-0.107,0.057-0.145,0.105c-1.105,0.764-2.332,1.341-3.674,1.754
			c-0.014,0.006-0.014,0.006-0.025,0.008C60.949,49.984,59.254,49.769,58.246,48.871"/>
		<path fill="#9EC94C" d="M53.523,11.596l-0.012,0.002c-2.262,0.182-4.77,1.857-7.552,5.025c-2.335,3.369-4.07,6.472-5.167,9.312
			c2.51,1.415,4.072,3.446,4.711,6.061c0.693,2.795,0.613,5.312-0.227,7.534c-0.871,2.338-2.228,3.915-4.06,4.725
			c-1.959,0.875-3.768,0.754-5.431-0.352c-1.407-1.23-2.309-2.477-2.698-3.728c-0.385-1.257-0.583-1.994-0.563-2.249
			c0.005-0.246,0.074-0.421,0.197-0.508c1.718,2.454,3.127,4.062,4.236,4.831c1.039,0.683,2.158,0.746,3.383,0.196
			c1.329-0.634,2.33-1.821,3.002-3.583l-0.016-0.008c0.682-1.894,0.741-4.028,0.163-6.401c-0.562-2.271-2.017-3.97-4.354-5.123
			c-3.228-0.849-5.637-0.267-7.219,1.726c-1.698,2.277-2.497,6.165-2.394,11.66c-0.002,0.039,0,0.092,0.002,0.142
			C28.104,52.291,20.109,68.51,5.525,89.501l13.355,14.126c18.152-17.837,33.348-35.312,45.6-52.408
			c-0.205,0.071-0.426,0.145-0.637,0.201c-0.039,0.014-0.062,0.021-0.088,0.026c-3.281,0.686-5.602,0.295-6.986-1.176
			c-1.262-1.14-1.805-3.041-1.641-5.685c-0.043-0.002-0.084-0.006-0.123,0.004l-0.012-0.006c-1.99,0.14-3.774-0.467-5.355-1.829
			c-1.629-1.353-2.267-3.476-1.893-6.346c0.329-2.667,1.189-4.906,2.574-6.711c1.341-1.766,3.041-2.824,5.125-3.19
			c2.318-5.131,3.076-8.982,2.25-11.559C56.906,12.638,55.506,11.523,53.523,11.596"/>
		<path fill="#9EC94C" d="M51.993,30.88c-1.175,1.551-1.903,3.474-2.193,5.775c-0.267,2.075,0.142,3.611,1.22,4.606
			c1.127,0.974,2.404,1.422,3.832,1.333c0.354-0.034,0.703-0.092,1.064-0.18c0.045-0.028,0.096-0.042,0.162-0.046
			c1.033-0.319,2.047-0.938,3.031-1.861l0.016-0.007c1.314-1.263,2.318-2.856,2.99-4.784l-0.006-0.015
			c0.008-0.014,0.008-0.014,0.02-0.032c-0.006-0.011-0.01-0.021,0.006-0.025l0.004-0.029l-0.004-0.01
			c0.004-0.029,0.01-0.055,0.031-0.077c0.031-0.11,0.064-0.225,0.104-0.325c-0.006-0.013-0.006-0.013,0.01-0.016
			c0.584-1.958,0.289-3.563-0.857-4.815c-1.229-1.278-2.947-1.931-5.139-1.969l-0.012,0.003L56.26,28.41
			C54.504,28.618,53.082,29.445,51.993,30.88"/>
		<path fill="#9EC94C" d="M57.242,44.094c-0.219,2.233,0.109,3.818,1.004,4.777c1.008,0.897,2.703,1.113,5.047,0.625
			c0.01-0.002,0.01-0.002,0.023-0.008c1.342-0.413,2.568-0.99,3.674-1.754c0.037-0.049,0.086-0.076,0.145-0.105
			c0.17-0.14,0.346-0.266,0.531-0.409c1.717-1.508,2.555-3.156,2.539-4.948c-0.209-2.086-1.139-3.527-2.814-4.317
			c-1.252-0.573-2.426-0.905-3.545-0.996c-0.777,1.983-1.867,3.642-3.283,4.974C59.482,42.951,58.379,43.657,57.242,44.094"/>
	</g>
</g>
<g id="guide" display="none">
</g>
</svg>
