<svg xmlns="http://www.w3.org/2000/svg" width="67.333" height="63.333" viewBox="0 0 67.333 63.333"><g><path fill="#245E27" d="M54.86 18.079c-.942-.715-2.263-1.538-3.931-2.48l-.104-.048c-1.554-.692-3.262-1.268-5.126-1.731l-.022-.026c-3.421-.792-6.822-1.146-10.199-1.089-3.473.059-6.696.642-9.687 1.737h.026c-3.02 1.043-5.777 2.554-8.268 4.539v.024c-2.474 1.958-4.627 4.23-6.483 6.791-1.865 2.584-3.319 5.405-4.357 8.492-1.08 3.186-1.06 6.412.038 9.674v-.023c.604 1.85 1.627 3.051 3.074 3.601 1.049.451 2.344.519 3.884.207.151 1.351.554 2.663 1.185 3.926 1.848 3.642 4.617 5.144 8.307 4.512 3.351-.559 5.892-2.329 7.617-5.29 1.086 2.401 3.078 4.042 5.975 4.91h-.027c2.136.701 4.195.518 6.164-.543 3.406-1.794 5.588-4.556 6.536-8.266.794-3.088 1.06-6.185.79-9.299-.013-.249-.039-.502-.078-.749.193.15.375.29.57.425.658.538 1.371.939 2.146 1.229.685.264 1.462.462 2.331.577.789.062 1.592.013 2.383-.145 1.279-.312 2.238-1.087 2.902-2.298l.023-.023c.508-.914.859-1.862 1.067-2.849l.026-.026c.154-.863.248-1.714.287-2.549v-.052c.003-.762-.05-1.537-.151-2.302v-.023c-.169-1.061-.477-2.113-.902-3.124v.023c-.4-.998-.89-1.938-1.499-2.825l-.025-.049c-.566-.904-1.227-1.755-1.99-2.554v-.023c-.772-.839-1.602-1.592-2.482-2.281m-9.678-2.335h-.025c1.719.437 3.323.966 4.787 1.605 1.551.863 2.766 1.641 3.646 2.303h-.027c.789.603 1.539 1.29 2.227 2.055h.023c.674.713 1.254 1.487 1.758 2.304l.027.023c.529.786.981 1.616 1.342 2.501l.024.05c.376.738.62 1.513.722 2.325.143 1 .178 1.962.127 2.875-.055.949-.209 1.862-.471 2.751-.207.76-.621 1.386-1.245 1.845-.827.562-1.723.864-2.694.9-.775-.002-1.63-.23-2.561-.68-.932-.465-1.591-.865-1.965-1.177l-.621-.528c-.659-.551-1.744-1.774-3.257-3.68l.797 3.676c.462 2.103.63 4.242.507 6.425-.118 2.189-.548 4.287-1.275 6.299-.795 2.161-2.153 3.909-4.074 5.221l-.957.648-.076.025c-1.438.759-2.93.893-4.482.391h-.024c-.864-.263-1.615-.613-2.276-1.025-2.106-1.69-3.219-3.854-3.356-6.505-.065-1.449-.036-3.4.112-5.849-.739 1.461-1.195 2.935-1.354 4.396-.193 1.45-.43 2.539-.729 3.273-.312.714-.638 1.376-.963 1.975-.323.599-.802 1.186-1.425 1.748-.271.249-.558.474-.829.674-.4.3-.829.572-1.298.822-.762.36-1.576.636-2.457.797-1.49.238-2.759-.016-3.834-.729-1.875-1.642-2.971-3.691-3.275-6.18-.271-2.19-.243-4.363.084-6.55l.054-.426c.103-.561.261-1.285.468-2.173l-1.4 2.049c-.686 1.285-1.092 2.481-1.196 3.597-.104 1.1-.159 1.739-.159 1.925l-.129.049c-1.592.511-2.937.184-4.036-1.004l-.237-.374c-.191-.312-.348-.663-.461-1.052-.969-2.851-.98-5.663-.045-8.423.975-2.898 2.341-5.558 4.104-7.971 1.752-2.436 3.772-4.568 6.092-6.417 2.295-1.844 4.846-3.252 7.645-4.215 2.785-1.006 5.788-1.55 9.012-1.61 3.211-.055 6.434.283 9.655 1.041"/><path fill="#9EC94C" d="M45.156 15.744h.025c-3.221-.758-6.443-1.096-9.656-1.041-3.224.061-6.227.604-9.012 1.61-2.799.963-5.35 2.372-7.645 4.215-2.32 1.849-4.34 3.981-6.092 6.417-1.763 2.413-3.129 5.072-4.104 7.971-.936 2.76-.924 5.572.045 8.423.113.389.269.74.461 1.052l.233.376c1.1 1.188 2.444 1.515 4.036 1.004l.129-.049c0-.186.055-.825.159-1.925.104-1.115.511-2.312 1.196-3.597l1.4-2.049c-.208.888-.365 1.612-.468 2.173l-.054.426c-.327 2.187-.355 4.359-.084 6.55.305 2.488 1.4 4.538 3.275 6.18 1.075.713 2.344.967 3.834.729.881-.161 1.695-.437 2.457-.797.469-.25.897-.522 1.298-.822.271-.2.559-.425.829-.674.621-.562 1.102-1.149 1.425-1.748s.649-1.261.963-1.975c.3-.734.532-1.823.729-3.273.158-1.462.614-2.936 1.354-4.396-.148 2.448-.177 4.399-.112 5.849.138 2.65 1.25 4.814 3.356 6.505.661.412 1.41.763 2.276 1.025h.024c1.553.502 3.045.368 4.482-.391l.076-.025c.311-.213.635-.438.957-.648 1.921-1.312 3.279-3.06 4.074-5.221.728-2.012 1.157-4.109 1.275-6.299.12-2.183-.045-4.322-.507-6.425l-.797-3.676c1.511 1.905 2.598 3.129 3.257 3.68l.621.528c.374.312 1.033.712 1.965 1.177.931.449 1.785.678 2.561.68.972-.036 1.867-.338 2.694-.9.623-.459 1.038-1.085 1.245-1.845.261-.889.416-1.802.471-2.751.051-.913.014-1.875-.127-2.875-.102-.812-.346-1.587-.722-2.325l-.024-.05c-.36-.885-.812-1.715-1.342-2.501l-.027-.023c-.504-.816-1.086-1.591-1.758-2.304h-.023c-.688-.765-1.438-1.452-2.227-2.055h.027c-.881-.662-2.096-1.439-3.646-2.303-1.459-.641-3.063-1.17-4.782-1.607"/></g></svg>