<svg xmlns="http://www.w3.org/2000/svg" width="227.989" height="372.391" viewBox="0 0 227.989 372.391"><g><path fill="#E50212" d="M92.416 321.228c-4.563 1.744-9.145 3.523-13.705 5.319-6.838 2.735-13.607 6.102-20.277 10.142-9.402-6.186-17.479-5.9-24.25.854-2.315 2.271-2.792 4.918-1.413 7.93 2.427 5.29 6.708 8.351 12.836 9.19 12.896 1.806 25.123.079 36.714-5.206 1.947-.883 3.808-1.921 5.6-3.098-.804 2.677-.215 4.981 1.751 6.935 6.537 1.872 10.827-.375 12.871-6.72 2.078-6.485-1.298-14.94-10.127-25.346"/><path stroke="#3D3938" stroke-width="1.847" stroke-linecap="round" stroke-linejoin="round" stroke-miterlimit="10" d="M89.278 353.169l.394.125" fill="none"/><path stroke="#7F050B" stroke-width="1.847" stroke-linecap="round" stroke-linejoin="round" stroke-miterlimit="10" d="M78.71 326.547c-6.836 2.735-13.607 6.102-20.277 10.142-9.402-6.186-17.479-5.9-24.249.854-2.317 2.271-2.793 4.918-1.414 7.93 2.427 5.29 6.708 8.351 12.836 9.19 12.896 1.806 25.121.079 36.714-5.206 1.947-.883 3.808-1.921 5.6-3.098-.804 2.677-.215 4.981 1.751 6.935 6.537 1.872 10.827-.375 12.869-6.72 2.08-6.485-1.296-14.94-10.125-25.347-4.563 1.745-9.141 3.524-13.705 5.32z" fill="none"/><path fill="#9E2287" d="M26.283 326.829c-.951.944-1.438 2.09-1.443 3.415-.007 1.322.468 2.477 1.408 3.421.872.884 1.916 1.375 3.136 1.445v.308c-.008 1.36.451 2.5 1.39 3.444.939.951 2.072 1.425 3.431 1.431 1.253.006 2.321-.398 3.234-1.224l.173.174c.94.951 2.088 1.442 3.413 1.442 1.321.008 2.475-.466 3.427-1.404.879-.875 1.349-1.904 1.44-3.087l.292.003c1.359.006 2.496-.454 3.445-1.393.949-.941 1.421-2.072 1.428-3.43.004-1.235-.385-2.305-1.187-3.2l.224-.224c.949-.942 1.436-2.087 1.445-3.41.005-1.328-.47-2.479-1.409-3.427-.891-.901-1.955-1.372-3.174-1.427l.001-.364c.007-1.357-.451-2.49-1.39-3.441-.94-.95-2.071-1.421-3.43-1.427-1.237-.009-2.304.401-3.202 1.203l-.205-.224c-.942-.95-2.087-1.438-3.411-1.444-1.324-.006-2.479.468-3.428 1.409-.898.89-1.366 1.937-1.424 3.154h-.311c-1.356-.009-2.493.447-3.441 1.389-.951.942-1.42 2.073-1.429 3.428-.004 1.256.402 2.322 1.24 3.24l-.243.22"/><path stroke="#59155B" stroke-width="1.847" stroke-linecap="round" stroke-linejoin="round" stroke-miterlimit="10" d="M24.839 330.244c-.007 1.322.468 2.477 1.408 3.421.872.884 1.916 1.375 3.136 1.445v.308c-.008 1.36.451 2.5 1.391 3.444.94.951 2.071 1.425 3.428 1.431 1.256.006 2.323-.398 3.235-1.224l.173.174c.94.951 2.088 1.442 3.413 1.442 1.321.008 2.475-.466 3.425-1.404.881-.875 1.352-1.904 1.442-3.087l.292.003c1.359.006 2.496-.454 3.445-1.393.949-.941 1.42-2.072 1.428-3.43.004-1.235-.386-2.305-1.187-3.2l.224-.224c.951-.942 1.436-2.087 1.443-3.41.007-1.328-.468-2.479-1.409-3.427-.889-.901-1.95-1.372-3.172-1.427l.003-.364c.007-1.357-.452-2.49-1.391-3.441-.94-.95-2.071-1.421-3.43-1.427-1.237-.009-2.302.401-3.202 1.203l-.205-.224c-.94-.95-2.088-1.438-3.411-1.444-1.324-.006-2.479.468-3.428 1.409-.898.89-1.368 1.937-1.424 3.154h-.31c-1.359-.009-2.494.447-3.444 1.389-.949.942-1.418 2.073-1.427 3.428-.004 1.256.402 2.322 1.24 3.24l-.243.219c-.95.945-1.437 2.091-1.443 3.416z" fill="none"/><path fill="#42AF35" d="M83.594 301.146c-.273-.134-.548-.273-.822-.431-1.079-.572-2.073-1.093-2.965-1.563-.209.703-.436 1.406-.698 2.113-1.518 4.203-3.46 8.072-5.87 11.618-.708 1.011-1.435 2.003-2.197 2.979-.811 1.008-1.659 1.999-2.557 2.959-.155.15-.327.322-.482.497-1.365 1.415-2.833 2.784-4.404 4.066-.466.392-.95.767-1.449 1.159.615.709 1.247 1.401 1.898 2.035.426.418.854.813 1.282 1.212 1.112 1.003 2.276 1.901 3.491 2.712l.343.247.394.241c3.458 2.166 7.316 3.631 11.558 4.354 4.635.816 9.137.979 13.484.465 3.44-.41 6.794-1.235 10.048-2.471l.69-.273c.326-.119.651-.253.981-.39.068-.055.137-.087.224-.099l.361-.171.116-22.527c-3.88-.381-8.187-1.572-12.903-3.537-.616-.262-1.251-.544-1.888-.834-2.107-.958-4.984-2.414-8.635-4.361zm4.289 8.066c1.144 1.159 1.722 2.569 1.713 4.223-.001.515-.057 1.012-.179 1.474-.262 1.029-.783 1.939-1.577 2.724-1.157 1.146-2.569 1.721-4.219 1.712-1.651-.009-3.057-.593-4.202-1.755-.36-.361-.65-.738-.89-1.14-.561-.913-.831-1.927-.825-3.078.011-1.648.6-3.056 1.758-4.2 1.157-1.146 2.568-1.724 4.218-1.718 1.652.014 3.057.601 4.203 1.758m-11.897 14.807c.187-.192.377-.344.569-.5 1.051-.817 2.257-1.221 3.649-1.216 1.648.006 3.052.597 4.199 1.756 1.042 1.053 1.621 2.328 1.715 3.805v.413c-.01 1.648-.6 3.055-1.758 4.2-1.157 1.146-2.57 1.724-4.218 1.709-1.652-.006-3.055-.596-4.2-1.753-1.146-1.156-1.724-2.566-1.715-4.217.009-1.649.599-3.059 1.759-4.197m17.302-6.718c1.052-.872 2.31-1.294 3.737-1.288 1.648.006 3.055.602 4.2 1.756 1.145 1.16 1.722 2.569 1.712 4.218-.009 1.654-.599 3.058-1.756 4.203-1.157 1.146-2.571 1.721-4.22 1.715-1.647-.009-3.052-.602-4.199-1.759-.924-.933-1.468-2.02-1.648-3.252-.052-.314-.069-.64-.066-.965.011-1.651.603-3.056 1.758-4.203.153-.152.307-.288.482-.425"/><path fill="#EBE600" d="M89.596 313.435c.009-1.653-.57-3.063-1.713-4.223-1.146-1.157-2.552-1.744-4.202-1.759-1.649-.006-3.061.572-4.218 1.718-1.158 1.145-1.749 2.552-1.757 4.2-.007 1.151.263 2.165.824 3.078.24.401.529.778.89 1.14 1.145 1.159 2.549 1.746 4.203 1.755 1.648.009 3.061-.566 4.217-1.712.794-.784 1.315-1.694 1.577-2.724.123-.462.178-.959.179-1.473M76.555 323.519c-.192.156-.382.308-.569.5-1.16 1.139-1.75 2.549-1.759 4.197-.009 1.65.567 3.061 1.715 4.217 1.146 1.157 2.548 1.747 4.2 1.756 1.649.012 3.061-.566 4.218-1.712 1.158-1.146 1.749-2.552 1.758-4.2v-.413c-.094-1.477-.673-2.746-1.715-3.802-1.144-1.162-2.551-1.753-4.199-1.759-1.392-.005-2.598.395-3.649 1.216M97.023 316.013c-1.426-.006-2.683.416-3.735 1.288-.174.137-.328.271-.482.425-1.157 1.147-1.749 2.552-1.758 4.203 0 .325.014.65.063.965.185 1.232.727 2.319 1.651 3.252 1.145 1.157 2.552 1.75 4.199 1.759 1.649.006 3.065-.569 4.22-1.715 1.157-1.146 1.747-2.549 1.756-4.203.009-1.648-.567-3.058-1.712-4.218-1.146-1.155-2.553-1.75-4.202-1.756"/><path stroke="#0F491D" stroke-width="1.847" stroke-linecap="round" stroke-linejoin="round" stroke-miterlimit="10" d="M82.771 300.715c-1.079-.572-2.073-1.093-2.965-1.563-.211.703-.439 1.406-.698 2.113-1.518 4.203-3.46 8.072-5.87 11.618-.708 1.011-1.433 2.003-2.197 2.979-.811 1.008-1.659 1.999-2.557 2.959-.155.15-.329.322-.484.497-1.363 1.415-2.833 2.787-4.402 4.066-.466.392-.949.767-1.449 1.159.615.709 1.247 1.401 1.896 2.035.427.418.854.813 1.283 1.212 1.112 1.003 2.276 1.901 3.49 2.712l.344.247.394.241c3.459 2.166 7.317 3.631 11.558 4.354 4.635.816 9.137.979 13.484.465 3.44-.41 6.796-1.235 10.048-2.471l.689-.273c.329-.119.654-.253.982-.39.068-.055.138-.087.222-.099l.361-.171.118-22.527c-3.88-.384-8.187-1.572-12.903-3.537-.616-.262-1.251-.544-1.888-.834-2.107-.96-4.986-2.416-8.636-4.363-.27-.132-.545-.272-.82-.429z" fill="none"/><path fill="#E50212" d="M119.242 321.82c4.546 1.794 9.107 3.622 13.654 5.468 6.805 2.802 13.539 6.234 20.164 10.345 9.467-6.087 17.541-5.714 24.242 1.104 2.291 2.294 2.738 4.941 1.33 7.944-2.482 5.261-6.793 8.278-12.932 9.063-12.912 1.665-25.119-.187-36.654-5.593-1.939-.904-3.789-1.959-5.568-3.154.771 2.687.162 4.985-1.82 6.912-6.56 1.809-10.826-.485-12.803-6.851-2.012-6.503 1.45-14.921 10.387-25.238"/><path stroke="#3D3938" stroke-width="1.847" stroke-linecap="round" stroke-linejoin="round" stroke-miterlimit="10" d="M122.05 353.794c-.137.053-.272.088-.395.116" fill="none"/><path stroke="#7F050B" stroke-width="1.847" stroke-linecap="round" stroke-linejoin="round" stroke-miterlimit="10" d="M132.896 327.288c6.805 2.802 13.539 6.234 20.164 10.345 9.467-6.087 17.541-5.714 24.242 1.104 2.291 2.294 2.74 4.941 1.33 7.944-2.482 5.261-6.791 8.278-12.932 9.061-12.912 1.668-25.119-.184-36.654-5.59-1.937-.904-3.789-1.959-5.568-3.154.771 2.687.162 4.985-1.82 6.912-6.56 1.809-10.826-.485-12.803-6.851-2.012-6.505 1.45-14.923 10.387-25.239 4.546 1.794 9.107 3.622 13.654 5.468z" fill="none"/><path fill="#9E2287" d="M185.31 328.107c.941.948 1.418 2.102 1.412 3.428-.01 1.322-.494 2.471-1.445 3.412-.877.869-1.932 1.343-3.152 1.407v.313c-.006 1.354-.477 2.482-1.428 3.424-.951.942-2.088 1.401-3.445 1.393-1.256-.006-2.318-.427-3.221-1.253l-.174.172c-.953.938-2.102 1.412-3.426 1.406-1.326-.003-2.473-.491-3.412-1.441-.873-.884-1.332-1.915-1.41-3.099l-.291-.006c-1.355-.003-2.49-.474-3.43-1.427-.941-.947-1.398-2.084-1.393-3.444.01-1.235.408-2.3 1.221-3.188l-.221-.225c-.943-.95-1.42-2.104-1.408-3.427.004-1.322.494-2.471 1.441-3.412.902-.887 1.967-1.349 3.188-1.393v-.36c.006-1.354.477-2.488 1.426-3.427.953-.942 2.084-1.401 3.443-1.393 1.24.006 2.301.422 3.191 1.235l.209-.227c.949-.937 2.104-1.41 3.424-1.404 1.322.006 2.471.494 3.412 1.445.887.895 1.346 1.947 1.395 3.165l.307.003c1.357.009 2.486.479 3.43 1.424.941.953 1.398 2.087 1.393 3.447-.008 1.253-.428 2.317-1.273 3.224l.237.228"/><path stroke="#59155B" stroke-width="1.847" stroke-linecap="round" stroke-linejoin="round" stroke-miterlimit="10" d="M186.722 331.535c-.01 1.322-.494 2.471-1.445 3.412-.877.869-1.932 1.343-3.152 1.407v.313c-.006 1.354-.477 2.482-1.426 3.427-.953.942-2.09 1.401-3.447 1.39-1.256-.006-2.318-.427-3.221-1.253l-.174.172c-.949.938-2.102 1.412-3.426 1.406-1.326-.003-2.473-.491-3.412-1.441-.873-.881-1.332-1.915-1.408-3.099l-.293-.006c-1.357-.003-2.49-.474-3.43-1.427-.941-.947-1.398-2.084-1.393-3.444.008-1.235.408-2.3 1.221-3.188l-.221-.225c-.943-.95-1.42-2.104-1.408-3.427.004-1.322.494-2.471 1.441-3.412.902-.89 1.965-1.349 3.188-1.393v-.36c.008-1.354.477-2.488 1.426-3.427.953-.942 2.084-1.401 3.443-1.393 1.24.003 2.301.422 3.191 1.235l.209-.227c.949-.937 2.104-1.41 3.424-1.404 1.322.006 2.471.494 3.412 1.445.887.895 1.348 1.947 1.395 3.165l.307.003c1.357.009 2.486.479 3.43 1.424.941.953 1.398 2.087 1.393 3.447-.008 1.253-.428 2.317-1.273 3.224l.238.227c.94.95 1.417 2.103 1.411 3.429z" fill="none"/><path fill="#42AF35" d="M133.199 301.357c.275-.137.552-.273.826-.43l2.98-1.529c.199.709.42 1.413.678 2.119 1.469 4.215 3.377 8.112 5.744 11.679.703 1.018 1.416 2.021 2.17 3 .802 1.018 1.636 2.018 2.527 2.985l.479.503c1.352 1.433 2.801 2.816 4.361 4.112.461.396.939.776 1.432 1.178-.619.7-1.258 1.384-1.914 2.015-.432.412-.859.802-1.295 1.194-1.121.994-2.297 1.878-3.518 2.68l-.345.241-.398.235c-3.483 2.134-7.354 3.555-11.603 4.235-4.645.771-9.146.887-13.489.328-3.435-.447-6.782-1.308-10.022-2.575l-.688-.282c-.322-.122-.652-.258-.975-.397-.07-.053-.139-.085-.226-.104l-.358-.175.117-22.527c3.887-.337 8.201-1.488 12.94-3.403.618-.253 1.256-.526 1.891-.816 2.121-.935 5.018-2.361 8.686-4.266m-4.373 8.017c-1.156 1.146-1.748 2.553-1.76 4.2 0 .518.05 1.012.168 1.482.252 1.029.766 1.944 1.551 2.738 1.145 1.157 2.552 1.75 4.199 1.759 1.648.009 3.062-.57 4.219-1.715.363-.361.658-.736.898-1.131.57-.907.85-1.919.856-3.072.009-1.648-.565-3.062-1.714-4.218-1.145-1.154-2.549-1.744-4.198-1.756-1.649-.008-3.063.57-4.219 1.713m11.744 14.923c-.188-.188-.374-.343-.562-.497-1.048-.831-2.243-1.25-3.638-1.256-1.649-.011-3.063.567-4.219 1.713-1.055 1.04-1.646 2.311-1.758 3.787l-.001.413c-.009 1.647.567 3.058 1.716 4.22 1.146 1.157 2.547 1.75 4.197 1.756 1.654.012 3.062-.566 4.226-1.715 1.152-1.146 1.744-2.549 1.75-4.2.013-1.652-.563-3.061-1.711-4.221m-17.233-6.886c-1.045-.89-2.295-1.325-3.721-1.334-1.65-.003-3.062.575-4.219 1.718-1.158 1.143-1.75 2.552-1.758 4.2-.008 1.65.57 3.061 1.714 4.218 1.146 1.156 2.548 1.75 4.198 1.759 1.65.006 3.065-.57 4.224-1.713.932-.921 1.482-2.002 1.685-3.24.049-.312.068-.634.07-.963.007-1.647-.568-3.063-1.713-4.217-.153-.154-.308-.297-.48-.428"/><path fill="#EBE600" d="M127.066 313.574c.012-1.647.604-3.055 1.76-4.2 1.158-1.143 2.57-1.721 4.217-1.712 1.652.009 3.057.602 4.201 1.756 1.145 1.156 1.723 2.569 1.714 4.218-.007 1.153-.286 2.165-.856 3.072-.244.395-.535.77-.898 1.131-1.156 1.145-2.568 1.724-4.219 1.715-1.647-.009-3.055-.602-4.201-1.759-.786-.794-1.297-1.709-1.549-2.738-.119-.471-.169-.965-.169-1.483M140.008 323.8c.188.151.374.309.562.497 1.148 1.16 1.725 2.569 1.712 4.221-.006 1.651-.598 3.055-1.75 4.2-1.163 1.148-2.571 1.727-4.226 1.715-1.648-.006-3.051-.602-4.197-1.756-1.148-1.162-1.725-2.572-1.716-4.22l.001-.413c.111-1.477.703-2.747 1.758-3.787 1.155-1.146 2.569-1.724 4.219-1.713 1.394.006 2.589.425 3.637 1.256M119.617 316.077c1.426.009 2.676.444 3.722 1.328.172.137.325.279.479.434 1.145 1.153 1.72 2.566 1.713 4.217-.002.329-.021.651-.072.963-.199 1.238-.751 2.319-1.689 3.24-1.151 1.143-2.566 1.719-4.217 1.713-1.65-.009-3.055-.603-4.198-1.759-1.144-1.157-1.724-2.567-1.714-4.218.008-1.648.6-3.058 1.758-4.2 1.155-1.143 2.567-1.721 4.218-1.718"/><path stroke="#0F491D" stroke-width="1.847" stroke-linecap="round" stroke-linejoin="round" stroke-miterlimit="10" d="M134.025 300.928l2.98-1.529c.199.709.42 1.413.678 2.119 1.469 4.215 3.377 8.112 5.744 11.679.703 1.018 1.416 2.021 2.17 3 .802 1.018 1.636 2.018 2.527 2.985l.479.503c1.35 1.433 2.799 2.816 4.361 4.112.461.396.939.776 1.432 1.178-.619.697-1.258 1.384-1.914 2.015-.432.409-.859.802-1.295 1.194-1.121.994-2.297 1.878-3.518 2.68l-.348.241-.396.235c-3.483 2.134-7.354 3.555-11.603 4.235-4.643.771-9.146.887-13.489.328-3.435-.447-6.782-1.308-10.022-2.575l-.688-.282c-.322-.122-.652-.256-.975-.397-.072-.053-.139-.085-.226-.104l-.358-.175.117-22.527c3.885-.337 8.201-1.488 12.94-3.403.618-.253 1.256-.526 1.891-.816 2.12-.934 5.017-2.36 8.685-4.265.277-.138.553-.275.828-.431z" fill="none"/><path fill="#4A99D4" d="M118.011 286.804l-19.142-.099-.079 15.347 19.139.094z"/><path fill="#00416D" d="M111.978 303.578c2.597-.521 4.784-1.607 6.582-3.284-7.035 1.5-13.601 1.599-19.661.349.769 1.29 2.5 2.229 5.191 2.808 2.661.583 5.293.63 7.888.127"/><path fill="#E06906" d="M202.896 170.79c-.119-.009-.24-.013-.354 0-4.008.362-8.297 3.561-12.83 9.633-.562-2.704-1.85-4.646-3.838-5.817l-.189-.092c-2.846-1.273-5.158-.391-6.904 2.635-1.453 2.493-2.15 5.452-2.082 8.843.041 3.002.545 6.237 1.5 9.74l-5.264 4.314c-.189.154-.316.338-.414.564-.082.23-.111.469-.07.701.85 5.602 3.938 10.255 9.264 13.97.232.157.494.241.791.253.277 0 .541-.087.768-.253l5.109-3.453c5 .294 8.936-.631 11.771-2.805 9.785.206 15.094-1.896 15.908-6.287.057-.194.066-.404.016-.602-.588-3.155-2.564-5.233-5.932-6.278.826-.345 1.879-1.145 3.174-2.426 2.035-1.598 3.562-3.607 4.557-6.014.898-2.113.451-3.884-1.346-5.315l-.01-.021c-2.238-1.832-4.826-2.304-7.76-1.387-1.137.345-2.254.75-3.371 1.175.797-1.274 1.406-2.467 1.857-3.565.85-2.141.871-3.814.07-5.046-.661-1.307-2.144-2.129-4.421-2.467m-.223 2.756c1.121.174 1.869.536 2.268 1.087.279.619.293 1.41.029 2.372-1.141 4.182-2.979 7.802-5.539 10.859.916.061 1.951-.553 3.1-1.812l.709-.31.023-.015c2.061-.929 4.164-1.733 6.318-2.418 1.963-.621 3.705-.323 5.211.911l.012.003c.451.372.686.786.713 1.263.002.231-.027.468-.133.727-.312 1.479-1.051 2.783-2.209 3.935-2.326 2.593-5.402 4.895-9.213 6.876.932.311 1.727.453 2.396.433 1.635.485 3.227 1.206 4.787 2.137 1.061.724 1.768 1.655 2.148 2.801-1.107 2.805-5.617 4.084-13.562 3.865-.348-.02-.646.097-.92.32-2.508 2-6.066 2.819-10.713 2.479-.324-.029-.604.055-.865.229l-4.689 3.188c-3.957-2.956-6.363-6.558-7.236-10.815l5.324-4.371c.213-.183.361-.396.451-.661.072-.265.068-.53-.002-.787-1.047-3.574-1.588-6.872-1.65-9.892-.047-2.869.527-5.341 1.73-7.427.883-1.503 2-2.012 3.375-1.509.586.381 1.076.884 1.467 1.487.174.262.328.537.463.828.25.487.441 1.019.576 1.552.291 1.076.477 2.161.566 3.282.094 1.174.277 2.347.553 3.511.275.98.68 2.009 1.215 3.078l.654 1.184c.709-.557.783-2.047.217-4.456-.133-.83-.184-1.683-.164-2.571l-.021-.233c4.574-6.796 8.77-10.502 12.611-11.13"/><path fill="#FCDF00" d="M204.941 174.633c-.396-.551-1.146-.911-2.268-1.087-3.842.628-8.037 4.334-12.611 11.13l.021.233c-.02.889.031 1.741.164 2.571.566 2.408.492 3.899-.217 4.456l-.654-1.184c-.535-1.069-.939-2.098-1.215-3.078-.275-1.162-.459-2.337-.553-3.513-.09-1.119-.275-2.204-.566-3.28-.135-.533-.326-1.063-.576-1.552-.135-.292-.289-.566-.463-.828-.391-.604-.881-1.107-1.467-1.488-1.373-.505-2.492.007-3.375 1.51-1.203 2.086-1.777 4.561-1.725 7.425.057 3.021.598 6.319 1.645 9.894.07.259.074.522.002.789-.09.263-.238.477-.451.659l-5.324 4.371c.873 4.258 3.279 7.859 7.234 10.812l4.691-3.186c.262-.175.541-.259.865-.229 4.646.34 8.205-.482 10.713-2.479.273-.224.572-.34.92-.32 7.945.219 12.455-1.061 13.562-3.865-.381-1.146-1.088-2.077-2.146-2.801-1.562-.931-3.154-1.651-4.789-2.137-.67.021-1.465-.122-2.396-.433 3.811-1.981 6.887-4.283 9.213-6.876 1.158-1.152 1.896-2.455 2.209-3.935.105-.257.135-.497.133-.728-.027-.477-.262-.89-.713-1.262l-.012-.003c-1.506-1.234-3.248-1.532-5.211-.911-2.154.685-4.258 1.489-6.318 2.42l-.023.012-.709.312c-1.148 1.258-2.184 1.87-3.1 1.811 2.561-3.058 4.395-6.678 5.539-10.859.264-.961.25-1.755-.029-2.371"/><path fill="#fff" d="M183.445 194.801c.311-.388.588-.712.814-.953 2.795-2.856 5.699-2.827 8.709.113.531.519.871 1.122 1.02 1.808.119.517.154 1.083.062 1.702-.164 1.306-.822 2.622-1.98 3.978-.396.463-.848.939-1.365 1.419.482-.015.928-.015 1.359.023 1.801.131 3.23.602 4.285 1.415 1.166.881 1.746 1.95 1.738 3.235l-.021.552c-.193 3.849-2.211 5.765-6.043 5.744-.703-.006-1.768-.128-3.174-.396l-.381-.069c-.012-.448-.045-.893-.113-1.36l-.062-.497c-.732-4.898-2.588-8.639-5.549-11.216-.424-.381-.887-.727-1.385-1.055-.189-.157-.393-.294-.617-.416-1.061-.643-2.225-1.18-3.5-1.599-1.471-.509-2.932-.804-4.387-.933-.252-1.411-.367-2.479-.365-3.182.021-4.021 2.145-6.02 6.357-5.999 1.289.008 2.35.599 3.215 1.771 1.043 1.378 1.498 3.357 1.383 5.915"/><path stroke="#9F9FA0" stroke-width="1.847" stroke-linecap="round" stroke-linejoin="round" stroke-miterlimit="10" d="M188.468 213.372l.381.069c1.406.268 2.471.39 3.174.396 3.832.018 5.85-1.896 6.043-5.746.018-.187.018-.357.018-.55.012-1.285-.568-2.354-1.734-3.235-1.055-.813-2.484-1.284-4.285-1.415-.432-.038-.877-.038-1.357-.023.516-.479.967-.956 1.363-1.419 1.158-1.355 1.816-2.672 1.98-3.978.092-.619.057-1.186-.062-1.702-.148-.686-.488-1.289-1.02-1.809-3.01-2.939-5.914-2.969-8.715-.112-.221.237-.498.565-.809.953.115-2.558-.34-4.537-1.383-5.913-.865-1.175-1.93-1.764-3.215-1.771-4.211-.021-6.336 1.979-6.355 5.999-.004.703.111 1.771.363 3.182" fill="none"/><path fill="#374499" d="M137.675 210.567c.479-.119.977-.222 1.477-.32 7.587-1.593 14.268-4.688 20.051-9.275 2.953-2.344 5.947-3.823 9.023-4.422 1.533-.305 3.062-.381 4.629-.253 1.457.13 2.916.424 4.389.933 1.273.419 2.438.956 3.498 1.599.225.122.426.259.617.416.498.328.961.674 1.385 1.055l-56.959 22.974-.101-.262c.382-7.281 4.149-11.4 11.298-12.362.228-.034.469-.075.693-.083"/><path fill="#53C0DC" d="M125.681 223.321l.104-.049 56.959-22.974c2.961 2.577 4.816 6.317 5.549 11.216.033.154.043.325.062.497l-54.651 22.038c-.378-.102-.755-.206-1.116-.331-4.614-1.517-6.915-4.985-6.907-10.397"/><path fill="#fff" d="M125.785 223.272l-.104.049v-.049l.003-.262.101.262z"/><path fill="#374499" d="M150.91 236.187c-6.924-.107-12.66-.825-17.206-2.137l54.651-22.038c.068.468.102.912.113 1.36.045 1.273-.08 2.491-.363 3.674-1.176 4.927-5.197 9.061-12.037 12.446-9.252 4.558-17.649 6.781-25.158 6.695"/><path stroke="#181E6B" stroke-width="1.847" stroke-linecap="round" stroke-linejoin="round" stroke-miterlimit="10" d="M137.675 210.567c-.225.008-.465.049-.693.081-7.148.962-10.916 5.081-11.298 12.362l-.003.262v.049c-.008 5.412 2.293 8.88 6.906 10.397.361.125.738.229 1.116.331 4.546 1.312 10.281 2.029 17.206 2.137 7.51.087 15.906-2.137 25.158-6.694 6.84-3.386 10.861-7.52 12.037-12.446.283-1.183.408-2.4.363-3.674-.012-.448-.045-.893-.113-1.36-.02-.172-.029-.343-.064-.497-.73-4.898-2.586-8.639-5.547-11.216-.424-.381-.887-.727-1.385-1.055-.191-.157-.393-.294-.617-.416-1.061-.643-2.225-1.18-3.498-1.599-1.473-.509-2.932-.803-4.389-.933-1.566-.128-3.096-.052-4.629.253-3.076.599-6.07 2.078-9.023 4.422-5.783 4.587-12.464 7.683-20.051 9.275-.499.1-.997.202-1.476.321z" fill="none"/><path fill="#E06906" d="M42.993 249.633l.683 1.035 1.085.843c-.924 1.5-1.833 3.052-2.699 4.656-.449-.102-.926-.188-1.379-.244l.053-.041-.023-.002-.023-.004-.535-.078-.975-.084-.458-.035c-6.305-.462-11.394 1.822-15.271 6.854-1.346 1.741-2.305 3.525-2.911 5.356l.01.015c-.143.479-.275.95-.384 1.425-.171.805-.254 1.471-.251 2.058.026.947.353 1.561.938 1.837l.508.209c.709.247 1.376.352 1.984.332 1.115-.07 2.039-.66 2.75-1.797.376-.878.699-1.628.997-2.268l.033-.072c.08-.146.146-.285.201-.436l-.012-.015c.204-.372.379-.704.512-1.003-.099.316-.204.68-.336 1.066l-.003.021c-.043.14-.074.294-.093.459l-.038.094c-.379 1.485-.564 2.993-.566 4.484-.029 2.593.466 4.477 1.483 5.671.625.725 1.418 1.184 2.416 1.384l.401.096c.947.104 1.776-.63 2.492-2.18.226-.459.454-1.026.656-1.68.799-3.41 1.327-5.425 1.552-6.049-.259 2.081-.398 3.897-.457 5.43-.018 1.724.052 3.115.262 4.186.213 1.215.59 2.197 1.129 2.921.802 1.081 1.946 1.637 3.44 1.64.243.006.475-.003.71-.032 1.275-.11 2.418-1.887 3.421-5.287.898-3.143 1.193-5.229.887-6.264.349.7.752 1.357 1.191 1.944.477.646.977 1.224 1.493 1.753.131.139.265.253.394.363.359.349.722.648 1.068.897 1.304.841 2.477.875 3.543.11l.227-.18c1.714-1.462 1.896-4.52.542-9.171-.471-1.686-1.087-3.278-1.814-4.764l-.621-1.183-1.19-1.857 1.275-2.942c.599-1.392 1.315-2.775 2.145-4.18 1.055.306 2.093.55 3.136.753-1.052 1.729-2.155 3.694-3.315 5.895 1.362 2.718 2.328 5.012 2.899 6.878 1.042 3.356 1.481 5.999 1.289 7.94-.204 2.322-.923 3.919-2.124 4.791-1.132.9-2.492 1.383-4.098 1.424l-.013.012c-1.746.061-3.118-.616-4.135-2.006l-.143-.238c-.06-.104-.096-.206-.131-.311l-.055.244c-.116.54-.247 1.119-.408 1.74-1.065 4.096-3.064 6.218-5.962 6.381-2.95.287-5.05-.904-6.332-3.581-.282-.579-.512-1.181-.689-1.794l-.032-.04-.07.075c-1.023 1.209-2.102 1.572-3.257 1.093-3.482-.613-5.334-3.215-5.58-7.796-.932.576-2.186.494-3.724-.229-2.872-1.328-4.013-3.593-3.408-6.808.552-2.677 1.811-5.305 3.767-7.865 5.059-6.537 11.645-9.318 19.743-8.328.602-1.221 1.258-2.427 1.965-3.606l.235.085zm9.473 10.845l.071.116-.071-.116"/><path fill="#FCDF00" d="M44.762 251.511l.302.221c2.832 1.36 5.625 2.418 8.369 3.194-.829 1.404-1.543 2.785-2.144 4.18l-1.273 2.938 1.19 1.861.621 1.183c.725 1.485 1.343 3.078 1.814 4.764 1.354 4.651 1.168 7.709-.542 9.171l-.229.18c-1.064.768-2.237.73-3.542-.11-.346-.249-.708-.549-1.066-.897-.132-.11-.263-.225-.394-.363-.516-.529-1.016-1.107-1.496-1.753-.436-.587-.838-1.244-1.19-1.944.308 1.034.014 3.121-.885 6.264-1.003 3.4-2.145 5.177-3.423 5.284-.234.032-.466.041-.709.035-1.494-.003-2.638-.559-3.44-1.64-.541-.724-.917-1.706-1.131-2.921-.208-1.07-.279-2.462-.26-4.186.058-1.532.196-3.349.457-5.43-.226.624-.751 2.639-1.551 6.049-.204.653-.432 1.221-.659 1.68-.715 1.55-1.544 2.284-2.491 2.18l-.401-.096c-.997-.2-1.789-.659-2.416-1.384-1.017-1.194-1.513-3.078-1.483-5.671.002-1.491.187-2.999.566-4.484l.038-.094c.019-.165.049-.319.093-.459l.003-.023c.132-.384.237-.747.336-1.066-.132.302-.308.631-.512 1.006l.012.015c-.055.15-.122.29-.201.436l-.033.072c-.297.64-.621 1.39-.997 2.268-.711 1.137-1.635 1.727-2.749 1.797-.609.02-1.276-.085-1.985-.332l-.51-.209c-.584-.276-.909-.89-.939-1.84 0-.584.083-1.253.256-2.055.107-.475.24-.945.382-1.425l-.01-.015c.606-1.831 1.565-3.615 2.91-5.356 3.879-5.032 8.968-7.316 15.273-6.854l.458.035.974.084.536.078-.006.047c.454.056.929.143 1.379.244.865-1.605 1.773-3.159 2.698-4.659m2.482 8.502l-.016.035.016-.035z"/><path fill="#D72C1B" d="M40.684 255.923l.006-.047.023.004.023.002-.052.041"/><path fill="#D72629" d="M51.224 282.606l-.013.012.013-.012z"/><path fill="#9D0D27" d="M51.21 282.618l.014-.012.009.015z"/><path fill="#fff" d="M34.856 248.593c-1.359.421-2.357.775-2.996 1.102-3.565 1.822-4.403 4.615-2.5 8.351.578 1.14 1.588 1.831 3.032 2.063 1.304.247 2.783.015 4.436-.7.396-.166.792-.375 1.205-.59-.225.647-.417 1.267-.558 1.866-.404 1.734-.377 3.211.064 4.433.491 1.363 1.363 2.227 2.579 2.61 3.998 1.224 6.583-.067 7.755-3.878.104-.323.209-.718.298-1.218 1.071 2.325 2.369 3.857 3.911 4.609 1.304.657 2.521.698 3.659.103 3.738-1.904 4.716-4.651 2.896-8.218-.323-.637-.904-1.515-1.775-2.653-1.343.561-2.786.947-4.318 1.177-1.324.218-2.596.282-3.834.187-.255-.012-.496-.035-.737-.088-1.083-.125-2.146-.39-3.157-.753-3.208-1.168-6.083-3.487-8.592-6.955-.375-.497-.698-1.018-.99-1.55l-.205.07-.171.032h-.002z"/><path stroke="#9F9FA0" stroke-width="1.847" stroke-linecap="round" stroke-linejoin="round" stroke-miterlimit="10" d="M56.861 256.473c.871 1.139 1.452 2.017 1.775 2.653 1.821 3.566.843 6.313-2.894 8.218-1.139.596-2.357.555-3.661-.103-1.543-.746-2.84-2.284-3.911-4.609-.088.5-.193.895-.298 1.218-1.17 3.811-3.757 5.102-7.753 3.878-1.217-.384-2.089-1.247-2.582-2.613-.44-1.219-.466-2.695-.064-4.428.143-.602.334-1.221.56-1.868-.413.215-.81.424-1.205.59-1.652.715-3.133.947-4.436.7-1.443-.232-2.454-.924-3.032-2.063-1.904-3.735-1.065-6.528 2.5-8.351.638-.326 1.637-.681 2.996-1.102l.173-.032.207-.07" fill="none"/><path fill="#374499" d="M58.076 211.116c-6.702 3.352-13.106 9.142-19.216 17.411-4.516 6.124-6.191 11.633-4.998 16.536.285 1.122.709 2.221 1.304 3.308l33.638-41.751c-3.269 1.064-6.852 2.572-10.728 4.496M86.445 211.262c-.632-1.291-1.346-2.378-2.149-3.273l-39.48 49.007c1.01.363 2.074.628 3.157.753.241.056.481.076.737.088 1.237.096 2.51.034 3.834-.184 1.53-.232 2.975-.619 4.316-1.18 1.449-.593 2.776-1.375 3.984-2.317 2.449-1.944 4.44-4.63 5.986-8.062 3.005-6.7 7.522-12.487 13.509-17.354.398-.322.795-.645 1.174-.971l.571-.393c3.119-2.186 5.007-4.717 5.639-7.583.545-2.562.132-5.415-1.278-8.531"/><path fill="#53C0DC" d="M84.294 207.988c-2.032-2.299-4.552-3.356-7.595-3.186-.41.018-.841.064-1.271.128-2.046.334-4.266.896-6.625 1.689l-33.638 41.751.068.119c.291.532.616 1.053.99 1.55 2.508 3.468 5.384 5.787 8.592 6.955l39.479-49.006z"/><path stroke="#181E6B" stroke-width="1.847" stroke-linecap="round" stroke-linejoin="round" stroke-miterlimit="10" d="M38.861 228.527c-4.517 6.124-6.194 11.633-5 16.536.285 1.122.709 2.221 1.304 3.308l.07.119c.289.532.615 1.053.988 1.553 2.508 3.465 5.384 5.784 8.592 6.952 1.009.363 2.074.628 3.157.753.241.053.481.073.737.088 1.237.096 2.51.034 3.834-.184 1.53-.232 2.975-.619 4.318-1.18 1.449-.593 2.774-1.375 3.982-2.317 2.449-1.947 4.44-4.63 5.988-8.062 3.007-6.7 7.521-12.487 13.507-17.354.398-.322.793-.645 1.174-.971l.57-.393c3.122-2.186 5.008-4.72 5.639-7.583.545-2.562.134-5.415-1.276-8.531-.629-1.291-1.346-2.378-2.151-3.273-2.032-2.299-4.552-3.356-7.595-3.186-.41.018-.841.064-1.27.128-2.048.334-4.267.896-6.626 1.689-3.27 1.063-6.851 2.572-10.727 4.496-6.701 3.353-13.106 9.143-19.215 17.412z" fill="none"/><path fill="#53C0DC" d="M138.838 197.023c-.292-.256-.565-.496-.858-.724l-.65-.021-15.877 13.648-.553 106.67c5.881-.675 11.66-1.846 17.342-3.518l.596-116.055z"/><path fill="#374499" d="M148.464 243.159c-.873-8.112-1.51-17.138-1.923-27.069-.354-8.456-2.914-14.812-7.703-19.066l-.597 116.057c.461-.14.927-.273 1.392-.424 3.494-1.082 6.714-2.579 9.698-4.468 2.947-1.878 5.637-4.148 8.074-6.816-.402-1.657-.787-3.305-1.141-4.956-1.828-8.647-3.352-17.353-4.539-26.14-1.224-9.029-2.311-18.054-3.261-27.118"/><path fill="#fff" d="M121.453 209.928l15.879-13.651-58.333-.709 15.443 14.048 13.304 12.095z"/><path fill="#374499" d="M111.617 317.237c3.111-.07 6.205-.297 9.283-.64l.554-106.67-13.708 11.783-13.306-12.094-.552 106.754c1.032.125 2.062.233 3.093.344 4.86.474 9.74.65 14.636.523"/><path fill="#53C0DC" d="M78.999 195.568l-1.615-.027c.079 1.269.039 1.991-.132 2.165l-.068.067-.594 114.848c1.991.732 4.049 1.343 6.178 1.819l.46.102c3.535.762 7.091 1.384 10.66 1.828l.554-106.754-15.443-14.048z"/><path fill="#374499" d="M70.421 215.694c-.512 9.926-1.247 18.949-2.201 27.05-1.043 9.049-2.224 18.067-3.542 27.081-1.282 8.775-2.892 17.461-4.809 26.091-.369 1.648-.772 3.296-1.195 4.944.977 1.023 1.987 1.988 3.01 2.904 4.43 3.889 9.399 6.854 14.904 8.856l.593-114.848c-4.111 4.188-6.358 10.162-6.76 17.922"/><path stroke="#181E6B" stroke-width="1.847" stroke-linecap="round" stroke-linejoin="round" stroke-miterlimit="10" d="M78.999 195.568l-1.615-.027c.079 1.269.041 1.991-.134 2.165l-.068.067c-4.111 4.187-6.358 10.16-6.761 17.921-.513 9.926-1.249 18.945-2.201 27.05-1.043 9.049-2.224 18.067-3.543 27.081-1.282 8.775-2.889 17.461-4.806 26.091-.371 1.648-.775 3.296-1.196 4.944.975 1.023 1.985 1.988 3.01 2.904 4.431 3.889 9.399 6.854 14.906 8.856 1.989.732 4.047 1.343 6.177 1.819l.46.102c3.535.762 7.092 1.384 10.66 1.828 1.031.125 2.061.233 3.093.344 4.86.474 9.741.65 14.636.523 3.111-.07 6.205-.297 9.285-.643 5.875-.672 11.658-1.843 17.34-3.515.461-.14.927-.273 1.392-.424 3.494-1.082 6.715-2.579 9.698-4.468 2.947-1.878 5.637-4.148 8.074-6.816-.402-1.657-.789-3.305-1.141-4.956-1.83-8.647-3.352-17.353-4.539-26.14-1.227-9.028-2.312-18.054-3.264-27.117-.871-8.112-1.508-17.138-1.92-27.069-.354-8.456-2.916-14.812-7.703-19.066-.291-.256-.564-.499-.859-.724l-.648-.022m0 .001l-15.879 13.65-13.707 11.783-13.304-12.095-15.443-14.048m58.333.71l-58.333-.709" fill="none"/><path fill="#9E2287" d="M108.453 241.563l-.205-.227c-.941-.95-2.092-1.436-3.413-1.447-1.322 0-2.477.477-3.427 1.412-.896.89-1.366 1.934-1.423 3.157l-.311-.006c-1.356-.006-2.496.456-3.443 1.393-.952.944-1.421 2.075-1.429 3.43-.004 1.256.402 2.319 1.24 3.238l-.241.221c-.952.938-1.44 2.09-1.443 3.412-.009 1.323.465 2.477 1.407 3.431.869.877 1.917 1.363 3.138 1.441l-.001.308c-.009 1.357.449 2.494 1.391 3.442.939.95 2.069 1.421 3.427 1.427 1.256.006 2.324-.401 3.24-1.218l.168.174c.941.945 2.088 1.434 3.414 1.442 1.322.006 2.475-.472 3.427-1.41.88-.872 1.349-1.897 1.44-3.084h.292c1.356.006 2.493-.45 3.444-1.396.952-.936 1.42-2.069 1.429-3.427.006-1.238-.386-2.302-1.188-3.203l.225-.221c.949-.942 1.438-2.087 1.443-3.413.009-1.319-.468-2.473-1.406-3.424-.889-.898-1.955-1.366-3.173-1.424l.001-.363c.009-1.354-.451-2.494-1.393-3.444-.938-.951-2.068-1.419-3.428-1.428-1.238-.007-2.306.406-3.202 1.207M111.213 275.874c-1.238-.002-2.307.398-3.202 1.204l-.206-.224c-.94-.951-2.088-1.437-3.413-1.445-1.322-.006-2.477.469-3.425 1.407-.898.89-1.368 1.933-1.424 3.153h-.311c-1.357-.006-2.494.451-3.443 1.393-.952.939-1.42 2.072-1.426 3.427-.009 1.256.398 2.323 1.237 3.241l-.243.221c-.948.939-1.436 2.087-1.443 3.41-.007 1.328.467 2.477 1.408 3.43.872.878 1.917 1.366 3.136 1.438v.312c-.007 1.36.451 2.49 1.393 3.441.94.953 2.068 1.424 3.428 1.427 1.253.009 2.321-.397 3.237-1.221l.17.175c.94.947 2.087 1.436 3.411 1.444 1.325.006 2.479-.471 3.428-1.407.88-.875 1.35-1.9 1.442-3.09l.294.006c1.357.006 2.49-.45 3.441-1.392.951-.942 1.42-2.073 1.428-3.428.006-1.241-.385-2.305-1.187-3.206l.224-.221c.951-.941 1.436-2.087 1.446-3.412.007-1.322-.47-2.477-1.41-3.43-.888-.893-1.952-1.366-3.171-1.422l.002-.36c.006-1.36-.454-2.497-1.392-3.444-.939-.947-2.071-1.421-3.429-1.427"/><path stroke="#59155B" stroke-width="1.847" stroke-linecap="round" stroke-linejoin="round" stroke-miterlimit="10" d="M108.248 241.337c-.941-.95-2.092-1.436-3.413-1.447-1.322 0-2.477.474-3.427 1.412-.897.89-1.366 1.934-1.423 3.154l-.311-.003c-1.356-.006-2.494.453-3.443 1.393-.952.944-1.421 2.075-1.429 3.43-.004 1.256.402 2.319 1.24 3.238l-.243.221c-.951.938-1.436 2.09-1.442 3.412-.009 1.323.465 2.477 1.407 3.431.869.877 1.917 1.363 3.138 1.441l-.001.308c-.009 1.357.449 2.494 1.391 3.442.939.95 2.069 1.421 3.427 1.427 1.256.006 2.324-.401 3.24-1.218l.168.174c.941.945 2.088 1.431 3.414 1.442 1.322.006 2.477-.474 3.427-1.41.881-.872 1.349-1.897 1.44-3.084h.291c1.357.006 2.494-.453 3.445-1.396.951-.936 1.42-2.069 1.429-3.427.005-1.238-.386-2.305-1.188-3.203l.225-.221c.949-.942 1.438-2.087 1.443-3.413.008-1.319-.468-2.473-1.406-3.424-.889-.898-1.955-1.366-3.173-1.424l.001-.363c.009-1.354-.45-2.494-1.393-3.444-.938-.951-2.068-1.419-3.428-1.428-1.236-.009-2.305.404-3.201 1.206l-.205-.226zm-.237 35.741l-.206-.224c-.94-.951-2.088-1.437-3.413-1.445-1.322-.006-2.477.469-3.425 1.407-.898.89-1.368 1.933-1.424 3.153h-.311c-1.357-.006-2.494.451-3.443 1.393-.951.939-1.42 2.072-1.426 3.427-.007 1.256.398 2.323 1.237 3.241l-.243.221c-.951.939-1.436 2.087-1.443 3.41-.007 1.328.467 2.477 1.408 3.43.872.878 1.917 1.366 3.136 1.438v.314c-.007 1.357.451 2.487 1.393 3.438.94.953 2.068 1.424 3.428 1.427 1.253.009 2.321-.397 3.237-1.221l.17.175c.94.947 2.087 1.436 3.409 1.444 1.327.006 2.481-.471 3.43-1.407.88-.875 1.35-1.9 1.442-3.09l.295.006c1.354.006 2.488-.45 3.44-1.392.951-.942 1.42-2.073 1.427-3.428.007-1.241-.384-2.305-1.186-3.206l.224-.221c.951-.941 1.436-2.087 1.445-3.412.008-1.322-.469-2.477-1.409-3.43-.888-.893-1.952-1.366-3.171-1.422l.002-.36c.006-1.36-.454-2.497-1.392-3.444-.94-.947-2.072-1.424-3.43-1.428-1.237 0-2.304.403-3.201 1.206z" fill="none"/><path fill="#E06906" d="M165.869 174.24c2.805-3.629 4.236-8.02 4.266-13.173.029-5.156-1.361-9.563-4.123-13.185-2.904-3.864-6.432-5.841-10.588-5.897-2.709-15.24-8.236-28.463-16.635-39.644-4.541-6.037-9.429-10.704-14.74-13.994-5.651-3.569-11.347-5.353-17.087-5.349-5.739-.063-11.453 1.66-17.141 5.17-5.309 3.271-10.248 7.886-14.849 13.84-8.373 10.886-14.007 23.812-16.904 38.75-4.157.008-7.708 1.951-10.649 5.785-2.802 3.593-4.233 7.981-4.261 13.137-.029 5.156 1.359 9.563 4.122 13.222 2.972 3.933 6.604 5.877 10.9 5.864.378 0 .791.002 1.203-.029 2.943 9.055 7.717 15.879 14.258 20.553 5.956 4.257 12.576 7.01 19.819 8.251 3.538.602 6.527.822 8.967.596 8.276.901 16.528.056 24.722-2.552 4.233-1.352 7.576-2.811 10.094-4.349l.174-.099.137-.104c6.66-5.568 11.68-12.654 15.061-21.227.721.106 1.51.179 2.299.184 4.294.057 7.945-1.847 10.955-5.75m1.586-13.188c-.023 4.501-1.252 8.345-3.711 11.527-2.449 3.183-5.377 4.748-8.814 4.73-.447-.003-.928-.039-1.375-.076 3.141-9.296 4.047-19.224 2.697-29.779l-.398-2.754c3.127.224 5.799 1.819 8.016 4.787 2.424 3.206 3.606 7.063 3.585 11.565m-60.509-75.371c5.261.027 10.473 1.67 15.68 4.927 5.037 3.154 9.721 7.611 14.021 13.341 8.089 10.795 13.419 23.541 16.058 38.227.166.862.299 1.756.465 2.65l.402 2.959c1.283 10.211.443 19.762-2.592 28.713l-.279.758c-.211.584-.418 1.199-.66 1.78-3.205 8.062-7.949 14.703-14.23 19.927-2.342 1.468-5.51 2.824-9.472 4.08-7.918 2.534-15.894 3.316-23.897 2.38-2.304.229-5.157.079-8.554-.523-6.831-1.174-13.075-3.746-18.689-7.8-5.992-4.29-10.391-10.567-13.166-18.829-.237-.653-.442-1.342-.644-2.029-.067-.173-.135-.381-.17-.586-2.462-8.64-2.965-18.094-1.535-28.36.177-1.236.356-2.473.568-3.676.178-.893.318-1.783.496-2.644 2.824-14.385 8.284-26.83 16.348-37.338 4.36-5.681 9.057-10.092 14.122-13.193 5.24-3.205 10.473-4.792 15.728-4.764m-57.404 62.488c2.247-2.908 4.937-4.478 8.03-4.701-.212 1.135-.39 2.3-.532 3.469-1.465 10.543-.965 20.272 1.531 29.151l-.378-.002c-3.435-.018-6.35-1.614-8.774-4.825-2.423-3.207-3.604-7.062-3.58-11.565.023-4.5 1.245-8.344 3.703-11.527"/><path fill="#FCDF00" d="M163.746 172.579c2.461-3.183 3.686-7.026 3.709-11.527.021-4.502-1.16-8.358-3.584-11.564-2.219-2.968-4.891-4.563-8.018-4.787.135.895.264 1.825.398 2.752 1.35 10.558.445 20.485-2.695 29.781.447.037.926.073 1.373.076 3.438.017 6.365-1.548 8.817-4.731M122.626 90.607c-5.207-3.257-10.419-4.899-15.68-4.927-5.255-.027-10.489 1.56-15.729 4.763-5.065 3.103-9.762 7.513-14.122 13.193-8.063 10.508-13.523 22.953-16.348 37.34-.177.858-.318 1.749-.496 2.642-.212 1.203-.391 2.439-.568 3.676-1.43 10.27-.927 19.721 1.535 28.36.035.205.103.411.17.586.202.688.407 1.376.644 2.029 2.774 8.262 7.173 14.537 13.166 18.829 5.614 4.054 11.858 6.626 18.689 7.8 3.399.603 6.25.753 8.554.523 8.004.937 15.979.154 23.896-2.38 3.963-1.256 7.131-2.612 9.473-4.08 6.281-5.224 11.025-11.865 14.23-19.927.242-.581.449-1.196.662-1.78l.277-.758c3.035-8.951 3.875-18.502 2.592-28.715l-.402-2.957c-.166-.896-.299-1.788-.465-2.65-2.639-14.686-7.969-27.432-16.058-38.227-4.299-5.728-8.982-10.184-14.02-13.34M57.572 143.468c-3.093.224-5.783 1.793-8.03 4.701-2.458 3.183-3.68 7.027-3.703 11.529-.025 4.501 1.157 8.355 3.58 11.562 2.424 3.211 5.338 4.808 8.774 4.825l.378.002c-2.497-8.882-2.996-18.608-1.531-29.15.142-1.17.319-2.334.532-3.469"/><path fill="#fff" d="M109.867 139.203c-.023 4.229 1.367 7.879 4.204 10.916 2.834 3.007 6.298 4.536 10.318 4.557 4.021.021 7.498-1.474 10.368-4.447 2.865-3.012 4.298-6.646 4.319-10.874.019-4.26-1.367-7.911-4.207-10.915-2.835-3.005-6.296-4.532-10.319-4.555-4.022-.021-7.5 1.473-10.367 4.446-2.868 2.978-4.295 6.611-4.316 10.872M99.647 128.257c-2.837-3.006-6.299-4.535-10.32-4.555-4.021-.023-7.5 1.474-10.37 4.447-2.866 2.975-4.329 6.611-4.35 10.871-.023 4.228 1.401 7.877 4.239 10.917 2.834 3.003 6.299 4.534 10.319 4.555 4.021.022 7.498-1.472 10.368-4.447 2.868-3.008 4.293-6.647 4.316-10.872.024-4.262-1.365-7.911-4.202-10.916"/><path fill="#F4F4F5" d="M144.24 188.207c2.531-4.502 3.169-8.348 1.936-11.517-1.241-3.166-6.638-2.903-16.193.791-7.248 2.818-14.955 4.357-23.103 4.625-8.158-.368-15.83-1.988-23.05-4.862-9.518-3.794-14.91-4.114-16.183-.96-1.271 3.156-.672 7.009 1.815 11.539 2.469 4.53 7.431 8.613 14.868 12.258 5.863 2.885 11.989 4.6 18.359 5.132l2.988.151c.722.023 1.446.025 2.168.014l3.007-.121c6.376-.469 12.505-2.122 18.396-4.943 7.47-3.57 12.476-7.6 14.992-12.107"/><path fill="#D72629" d="M78.496 182.114l-5.247-2.362c3.303 8.898 10.112 14.897 20.424 17.975 5.164 1.555 10.005 2.215 14.525 1.962 9.989-.497 18.373-3.905 25.144-10.247 3.398-3.158 5.803-6.274 7.195-9.344-15.635 6.811-31.544 8.808-47.734 5.973-5.064-.901-9.834-2.217-14.307-3.957"/><path fill="#E17C9E" d="M106.933 195.148c3.764 0 6.486-1.151 8.18-3.446.85-1.131 1.578-2.811 2.211-5.058-6.811.896-13.668.908-20.57.03.589 2.185 1.302 3.821 2.104 4.941 1.706 2.351 4.398 3.531 8.075 3.533"/><path fill="#D72629" d="M72.125 157.819c-1.822-.011-3.405.634-4.684 1.899-1.279 1.265-1.942 2.844-1.95 4.664-.009 1.82.636 3.405 1.899 4.684 1.267 1.279 2.843 1.938 4.665 1.949 1.82.009 3.407-.638 4.683-1.901 1.281-1.264 1.94-2.841 1.949-4.664.01-1.819-.637-3.404-1.901-4.684-1.265-1.277-2.841-1.938-4.661-1.947M146.48 160.132c-1.263-1.281-2.842-1.94-4.666-1.951-1.822-.009-3.404.637-4.684 1.899-1.277 1.267-1.938 2.843-1.947 4.664-.01 1.822.634 3.407 1.9 4.683 1.264 1.282 2.842 1.943 4.663 1.952 1.821.007 3.408-.637 4.681-1.902 1.281-1.263 1.942-2.842 1.953-4.662.006-1.822-.636-3.405-1.9-4.683"/><path stroke="#332C2A" stroke-width="4.157" stroke-linecap="round" stroke-miterlimit="10" d="M76.942 115.633c19.052-5.758 38.743-5.656 59.108.308" fill="none"/><path fill="#1A1414" d="M128.25 134.704c-1.423-1.469-3.1-2.213-5.074-2.227-1.977-.008-3.67.722-5.1 2.175-1.399 1.487-2.115 3.271-2.125 5.349-.01 2.08.686 3.87 2.072 5.338 1.418 1.503 3.098 2.25 5.072 2.259 1.977.012 3.663-.718 5.098-2.206 1.399-1.453 2.113-3.238 2.123-5.313.014-2.081-.684-3.872-2.063-5.374h-.003zM95.546 134.437c-1.421-1.467-3.097-2.212-5.074-2.224-1.975-.009-3.667.718-5.097 2.171-1.401 1.488-2.114 3.273-2.125 5.352-.012 2.078.686 3.868 2.069 5.338 1.417 1.503 3.096 2.248 5.072 2.26 1.979.009 3.666-.721 5.1-2.209 1.398-1.453 2.111-3.236 2.122-5.313.013-2.081-.682-3.874-2.067-5.375"/><path fill="#E38100" d="M119.896 179.747c3.338-4.364 5.033-9.63 5.066-15.816.027-6.185-1.609-11.47-4.908-15.833-3.322-4.397-7.334-6.603-12.059-6.624-4.724-.026-8.756 2.136-12.095 6.499-3.34 4.331-5.035 9.598-5.063 15.782-.035 6.188 1.606 11.47 4.899 15.869 3.296 4.364 7.303 6.566 12.029 6.589 4.725.026 8.756-2.136 12.131-6.466"/><path fill="#332C2A" d="M89.817 60.365c-.555 1.302-1.331 3.153-1.547 4.647-.641 4.619-2.661 3.796.498 7.525.273.325.666.845 1.163 1.553-4.998-.853-8.805-2.814-11.451-5.904-.185-.327-.326-.003-.452.961-.09 1.032-.061 2.217.12 3.575.511 3.988 1.921 7.02 4.25 9.095l.582.483c-1.927.267-3.869.272-5.844.043-1.256-.13-2.506-.412-3.744-.883-.909-.347-2.144-.903-3.667-1.667-.19-.14.85 1.396 3.104 4.587 2.321 3.257 4.008 5.363 5.083 6.314 2.673 2.368 5.276 3.789 7.816 4.268 5.424 1.007 10.461.449 15.132-1.674 1.043.707 2.239 1.3 3.563 1.771 1.251.436 2.452.7 3.572.775 1.458.091 2.833-.039 4.09-.427 1.442-.423 2.602-1.14 3.448-2.149 1.111.95 2.413 1.646 3.873 2.117 1.438.438 2.896.599 4.395.47 1.459-.112 2.904-.398 4.334-.871.965-.287 2.34-.829 4.133-1.594 1.635-.679 4.422-1.317 8.357-1.917 3.371-.479 5.025-.744 4.955-.798-1.299-1.124-2.789-1.888-4.489-2.257-1.39-.335-3.11-.445-5.153-.335-.891.012-1.838.144-2.82.362.965-.545 1.846-1.176 2.658-1.911 1.743-1.571 3.127-3.473 4.115-5.718.557-1.218 1.308-3.447 2.238-6.725-1.367 1.179-2.918 2.462-4.663 3.826-3.519 2.749-6.174 4.314-7.962 4.702-.496.118-1.326.231-2.442.363 1.324-3.069 2.363-5.176 3.126-6.34.832-1.233 2.596-3.081 5.286-5.541l3.623-3.279c-1.245-.677-5.079 3.465-6.936 3.524-1.67.06-1.188-4.031-3.062-3.371.831-1.491 1.138-3.827.895-7.042-.242-3.229-.438-4.658-.631-4.264-.746 1.597-1.771 3.101-3.079 4.521-1.312 1.386-2.767 2.548-4.352 3.449-1.152.684-2.67 1.343-4.548 2.003.011-2.044.231-3.831.646-5.357.896-3.104 2.282-6.156 4.21-9.153.465-.566.829-1.127 1.106-1.68.087-.154-.978.186-3.2 1.016-2.293.865-4.027 1.61-5.201 2.243-2.668 1.427-4.602 2.859-5.83 4.299-.483.632-.918 1.248-1.281 1.815-.699-.847-1.521-2.02-2.458-3.518-1.227-1.983-2.075-4.188-2.541-6.647-.215-1.993-.347-2.976-.398-2.958-1.222.407-2.394 1.244-3.517 2.49-2.28 2.48-3.33 5.945-3.146 10.4.057 2.198.338 4.416.859 6.636-1.734-.56-3.104-1.167-4.08-1.843-1.232-.883-4.238-2.431-3.855-5.519.084-.689.977 1.747.86.988-.053-.205 2.258 4.415-.387-.128l.646.649z"/><path fill="#E50212" d="M152.816 213.302c-.129-8.624-1.117-13.546-2.947-14.762-1.835-1.209-4.285-1.566-7.367-1.052-4.662.479-10.171 2.974-16.568 7.46-6.383 4.488-10.732 8.246-13.049 11.258l1.479.009c1.837.012 2.742.924 2.732 2.761l-.026 5.14c1.464-.628 3.116-1.34 4.978-2.104 5.271-2.209 9.059-3.753 11.365-4.65-2.307.897-6.094 2.441-11.365 4.65-1.861.765-3.514 1.477-4.978 2.104l-.012 2.369c1.494.697 3.327 1.581 5.536 2.674 1.899.956 3.756 1.912 5.568 2.831-1.812-.919-3.669-1.875-5.568-2.831-2.209-1.093-4.042-1.977-5.536-2.674l-.021 4.348c-.012 1.773-.855 2.675-2.54 2.735h-.226l-.842-.006c6.471 8.13 14.723 13.81 24.74 17.057 6.674 2.18 10.818-1.337 12.426-10.557 1.615-9.221 2.346-18.133 2.221-26.76"/><path fill="#E50212" d="M99.742 218.886c.01-1.837.924-2.741 2.766-2.735l.994.009c-2.288-3.037-6.598-6.839-12.931-11.391-6.35-4.554-11.837-7.105-16.493-7.632-3.069-.548-5.53-.217-7.374.977-1.846 1.191-2.885 6.103-3.1 14.729-.216 8.621.423 17.545 1.94 26.779 1.514 9.237 5.62 12.801 12.315 10.686 9.966-3.128 18.224-8.656 24.778-16.609l-.224-.191-.378-.015c-1.58-.131-2.363-1.05-2.355-2.75l.021-4.43c-1.533.691-3.444 1.596-5.735 2.703-1.913.937-3.77 1.866-5.598 2.771 1.828-.904 3.686-1.834 5.598-2.771 2.291-1.107 4.202-2.012 5.735-2.703l.013-2.218c-1.493-.663-3.208-1.41-5.127-2.227-5.245-2.259-9.021-3.843-11.317-4.767 2.296.924 6.072 2.508 11.317 4.767 1.92.816 3.635 1.563 5.127 2.227l.028-5.209zM102.508 216.15c-1.841-.006-2.756.898-2.766 2.735l-.026 5.209-.012 2.215-.023 4.433c-.007 1.7.777 2.619 2.355 2.747l.379.018h.359l10.653.055.843.006.205-.021c1.582-.107 2.379-1.011 2.387-2.715l.027-4.433.009-2.218.026-5.206c.008-1.77-.845-2.703-2.562-2.761l-1.479-.012-9.383-.044-.992-.008z"/><path stroke="#7F050B" stroke-width="1.847" stroke-linecap="round" stroke-linejoin="round" stroke-miterlimit="10" d="M116.884 226.399l.172.085m16.356-9.124c-2.308.897-6.094 2.441-11.365 4.65-1.861.765-3.514 1.477-4.978 2.104m0 .001l.026-5.14c.01-1.837-.896-2.752-2.732-2.761m2.693 10.27l-.02 4.348c-.012 1.773-.855 2.675-2.54 2.735m13.666-1.578c-1.812-.919-3.669-1.875-5.568-2.831-2.209-1.093-4.042-1.977-5.537-2.674m.012-2.369l-.013 2.369m-13.556-10.325l-.993-.009c-1.841-.006-2.756.898-2.767 2.735l-.023 5.206m0 .001c-1.494-.66-3.209-1.407-5.129-2.224-5.245-2.259-9.018-3.846-11.317-4.767m20.229-.942l9.384.047m1.479.009c1.718.058 2.569.991 2.561 2.761l-.023 5.206m-2.538-7.967l-1.479-.012m-10.109 17.304l-.135.191c-6.555 7.953-14.814 13.481-24.78 16.609-6.695 2.109-10.801-1.448-12.317-10.686-1.516-9.234-2.157-18.158-1.939-26.779.214-8.627 1.254-13.538 3.1-14.729 1.844-1.193 4.303-1.524 7.374-.974 4.652.52 10.143 3.075 16.491 7.629 6.334 4.552 10.646 8.354 12.931 11.391m10.773 17.408l-.844-.006m1.068.006h-.224m0 0l.203-.021m.021.021l-.021-.021m0 .001c1.582-.107 2.381-1.011 2.387-2.715l.021-4.433m-17.181-.087l-.021 4.43c-.007 1.7.776 2.619 2.354 2.747l.379.018h.361m-14.406-1.721c1.828-.904 3.686-1.834 5.601-2.771 2.289-1.107 4.197-2.012 5.732-2.703m13.726 7.25l-10.654-.055m-3.058-9.415l-.015 2.221m17.182.086l.016-2.218m0 .001l.169-.066m-4.185-7.91c2.316-3.012 6.666-6.77 13.047-11.258 6.399-4.486 11.908-6.98 16.57-7.46 3.082-.515 5.532-.157 7.367 1.052 1.83 1.216 2.818 6.138 2.947 14.762.125 8.627-.605 17.539-2.221 26.76-1.607 9.22-5.752 12.736-12.427 10.557-10.017-3.247-18.269-8.927-24.739-17.057" fill="none"/><path fill="#E40012" d="M116.054 42.612c-.496-.19-1.01-.349-1.512-.487-4.131-1.069-8.207-.886-12.202.573l-1.478.61c-1.329.68-2.603 1.533-3.865 2.557-.362.29-.708.581-1.033.889-6.305 6.032-9.314 13.373-9.05 22.033 4.546 1.312 9.146 2.091 13.803 2.373l13.677.157c5.516-.059 10.95-.82 16.303-2.305.372-9.224-2.971-16.993-10.072-23.302-.597-.533-1.21-1.036-1.829-1.47-.91-.638-1.818-1.192-2.742-1.628"/><path stroke="#7F050B" stroke-width="1.847" stroke-linecap="round" stroke-linejoin="round" stroke-miterlimit="10" d="M86.915 68.787c-.266-8.662 2.744-16.001 9.05-22.034.327-.307.671-.598 1.035-.888 1.259-1.023 2.535-1.877 3.863-2.557l1.477-.61c3.997-1.459 8.07-1.646 12.203-.573.5.14 1.016.297 1.512.488.926.435 1.833.988 2.741 1.63.618.432 1.232.935 1.829 1.471 7.102 6.308 10.444 14.074 10.072 23.299" fill="none"/><path fill="#EBE600" d="M86.915 68.787c.044 1.358.156 2.75.374 4.179 3.506 3.23 7.979 5.418 13.386 6.58 4 1 8.052 1.262 12.164.749l1.511-.234c.363-.045.739-.114 1.118-.181 6.039-1.019 10.98-3.243 14.812-6.693.228-1.425.357-2.815.418-4.174-5.353 1.484-10.785 2.248-16.303 2.305l-13.677-.154c-4.656-.286-9.257-1.067-13.803-2.377z"/><path stroke="#7F050B" stroke-width="1.847" stroke-linecap="round" stroke-linejoin="round" stroke-miterlimit="10" d="M130.279 73.187c.228-1.425.357-2.816.418-4.174-5.353 1.484-10.787 2.248-16.303 2.305l-13.677-.154c-4.657-.285-9.256-1.065-13.803-2.376.044 1.358.156 2.75.374 4.179" fill="none"/><path fill="#E40012" d="M137.751 67.056c-.549-.227-1.268-.421-2.162-.613-1.439 2.607-3.22 4.848-5.311 6.744-3.833 3.453-8.773 5.675-14.814 6.693-.377.066-.756.135-1.116.181l-1.511.235c-4.111.512-8.164.25-12.164-.75-5.407-1.162-9.88-3.35-13.386-6.58-2.069-1.919-3.827-4.179-5.244-6.798-.891.185-1.613.369-2.166.589-1.36.509-2.411 1.295-3.19 2.37-.209.294-.398.636-.59.999 3.713 9.484 10.903 15.193 21.562 17.084.979.177 1.974.337 2.972.498 4.014.862 8.07 1.072 12.16.61.5-.084 1.017-.148 1.516-.215 1.82-.214 3.645-.459 5.447-.777 10.684-1.785 17.93-7.418 21.741-16.866-.188-.362-.376-.706-.581-.997-.768-1.087-1.808-1.884-3.163-2.407"/><path stroke="#7F050B" stroke-width="1.847" stroke-linecap="round" stroke-linejoin="round" stroke-miterlimit="10" d="M135.589 66.442c-1.439 2.607-3.22 4.848-5.311 6.744-3.833 3.453-8.774 5.675-14.814 6.693-.377.066-.756.135-1.116.181l-1.511.235c-4.111.512-8.164.25-12.164-.75-5.407-1.162-9.88-3.35-13.386-6.58-2.068-1.919-3.828-4.179-5.244-6.798-.891.185-1.613.369-2.166.589-1.36.507-2.412 1.295-3.19 2.37-.209.294-.398.636-.59.996 3.714 9.487 10.903 15.196 21.562 17.087.979.177 1.974.337 2.972.498 4.014.862 8.07 1.07 12.16.61.5-.084 1.017-.148 1.516-.215 1.82-.214 3.645-.459 5.447-.777 10.684-1.785 17.93-7.418 21.741-16.866-.188-.362-.376-.706-.581-.997-.77-1.087-1.81-1.884-3.164-2.407-.549-.226-1.266-.42-2.161-.613z" fill="none"/><path fill="#C7358C" d="M145.07 17.263c-1.467 1.264-2.21 2.859-2.228 4.766 0 .741.115 1.515.336 2.357.616.243 1.235.572 1.846 1.006.807.553 1.616 1.262 2.401 2.143 1.117-.631 2.357-.951 3.73-.945.533.006 1.033.059 1.531.146.879-1.488 1.799-2.704 2.75-3.642.465-.482.947-.874 1.434-1.198-.316-2.132-1.525-3.993-3.65-5.585-1.727-1.315-3.584-1.532-5.566-.629-1.012.458-1.875.984-2.584 1.581M156.873 21.895c-.488.324-.971.716-1.434 1.198-.953.938-1.873 2.153-2.752 3.642.789.161 1.525.438 2.227.857.238.119.463.274.686.448.324.244.652.52.941.812 1.488 1.503 2.217 3.295 2.205 5.408v.053l.002.034c-.002.431-.041.857-.111 1.285.877-.061 1.684-.195 2.422-.382 3.805-.96 5.936-3.456 6.418-7.527.266-2.18-.461-3.884-2.209-5.15-3.015-2.197-5.813-2.433-8.395-.678M164.99 46.526c.156-.241.277-.497.398-.771 2.068-4.681.627-8.179-4.33-10.504-.738.188-1.545.32-2.424.383-.266 1.527-.994 2.864-2.148 4.01-1.227 1.212-2.641 1.927-4.271 2.145-.33.029-.658.048-.982.062.188.672.387 1.291.625 1.84.463 1.086 1.039 2.016 1.703 2.777 1.727 1.967 4.148 2.805 7.256 2.509 1.874-.161 3.257-.979 4.173-2.451"/><path fill="#EBE600" d="M155.599 28.041c-.223-.175-.447-.33-.686-.45-.701-.416-1.438-.696-2.227-.856-.498-.087-.998-.141-1.531-.146-1.373-.006-2.613.315-3.732.946-.604.321-1.155.749-1.674 1.263-.275.273-.52.564-.743.854-.119.154-.241.324-.347.496l-.055.068c-.74 1.165-1.109 2.486-1.115 3.965-.008 1.221.229 2.319.719 3.337.205.429.459.826.748 1.225.227.292.466.568.738.845 1.487 1.501 3.268 2.25 5.383 2.26l.154.003c.324-.015.65-.03.982-.062 1.631-.218 3.047-.933 4.271-2.145 1.154-1.146 1.883-2.482 2.146-4.01.074-.43.113-.859.115-1.287l-.002-.034v-.053c.012-2.113-.719-3.903-2.205-5.406-.289-.294-.617-.573-.939-.812z"/><path fill="#C7358C" d="M145.024 25.392c-.61-.436-1.229-.762-1.846-1.006-.636-.244-1.255-.404-1.89-.474-1.818-.2-3.693.289-5.627 1.465-1.359.834-2.19 1.947-2.508 3.337-.123.498-.158 1.029-.147 1.598.077 1.909.533 3.457 1.357 4.646 1.209 1.724 3.212 2.664 6.03 2.815 1.119.057 2.387-.039 3.814-.254-.49-1.018-.729-2.116-.719-3.337.006-1.479.373-2.8 1.114-3.965l-.063-.119.119.051c.105-.172.228-.342.348-.496.223-.29.467-.581.744-.854.517-.514 1.067-.941 1.672-1.263-.782-.883-1.591-1.592-2.398-2.144M144.956 38.742c-.288-.397-.542-.794-.747-1.223-1.426.214-2.697.31-3.816.255-2.468 2.203-3.219 5.068-2.279 8.612.559 2.116 1.89 3.447 3.985 3.956 4.203 1.069 7.149-.221 8.833-3.89.369-.808.682-1.732.926-2.763-.236-.549-.438-1.17-.625-1.841l-.154-.003c-2.113-.009-3.895-.756-5.383-2.259-.275-.274-.513-.551-.74-.844"/><path stroke="#0F491D" stroke-width="1.847" stroke-linecap="round" stroke-linejoin="round" stroke-miterlimit="10" d="M120.75 62.003c.603-3.848 1.875-7.447 3.836-10.823 3.445-5.944 8.299-10.318 14.571-13.104" fill="none"/><path stroke="#7A1664" stroke-width="1.847" stroke-linecap="round" stroke-linejoin="round" stroke-miterlimit="10" d="M156.873 21.895c-.488.324-.973.716-1.438 1.198-.949.938-1.869 2.153-2.748 3.642m4.186-4.84c2.582-1.755 5.381-1.519 8.395.678 1.748 1.267 2.475 2.971 2.209 5.15-.482 4.071-2.613 6.567-6.418 7.527m-.001 0c4.957 2.328 6.398 5.823 4.33 10.506-.121.273-.242.529-.398.771-.916 1.474-2.299 2.29-4.174 2.45-3.107.296-5.529-.544-7.256-2.509-.666-.759-1.24-1.691-1.701-2.775m-4.436-16.159c-.785-.881-1.593-1.59-2.398-2.145-.611-.432-1.23-.761-1.848-1.004m0 .001c-.22-.843-.335-1.616-.335-2.357.018-1.906.762-3.502 2.228-4.766.709-.597 1.572-1.123 2.584-1.582 1.98-.903 3.84-.687 5.566.629 2.125 1.592 3.334 3.453 3.652 5.585m-16.48 15.876c-2.816-.15-4.819-1.091-6.033-2.815-.818-1.188-1.275-2.736-1.353-4.646-.011-.566.024-1.098.147-1.596.316-1.39 1.147-2.501 2.508-3.337 1.933-1.176 3.808-1.664 5.627-1.468.635.075 1.254.232 1.889.477m1.031 13.133c-1.426.215-2.699.313-3.816.253m11.467 5.92c-.246 1.028-.561 1.954-.928 2.761-1.684 3.669-4.631 4.959-8.833 3.89-2.096-.509-3.427-1.84-3.985-3.956-.939-3.545-.188-6.409 2.279-8.615m11.467 5.92c-.236-.551-.439-1.172-.627-1.843m7.4-6.215c.881-.062 1.688-.197 2.426-.384m-16.453-5.033l-.064-.119.119.052" fill="none"/><path stroke="#E06906" stroke-width="1.847" stroke-linecap="round" stroke-linejoin="round" stroke-miterlimit="10" d="M154.914 27.591c-.701-.418-1.438-.696-2.227-.856-.498-.087-.996-.141-1.531-.146-1.373-.006-2.613.315-3.732.945-.604.322-1.155.75-1.674 1.263-.275.273-.52.563-.742.855-.12.153-.242.324-.348.497l-.055.067c-.74 1.165-1.109 2.486-1.115 3.965-.008 1.218.23 2.319.719 3.337.205.429.461.826.748 1.224.227.293.466.569.738.846 1.486 1.501 3.268 2.248 5.383 2.262h.154c.324-.015.652-.029.982-.062 1.631-.217 3.047-.931 4.271-2.144 1.156-1.146 1.883-2.482 2.15-4.01.07-.43.109-.858.111-1.287l-.002-.034v-.053c.012-2.113-.719-3.903-2.205-5.406-.289-.294-.617-.571-.938-.812-.225-.176-.449-.331-.687-.451z" fill="none"/></g></svg>