<svg xmlns="http://www.w3.org/2000/svg" width="220.438" height="389.04" viewBox="0 0 220.438 389.04"><g><path fill="#4DA934" d="M111.025 263.708h-19.165v21.662l3.682-.514c3.977.462 7.141.582 9.532.378l5.951.136v-21.662z"/><path fill="#2E6D2C" d="M105.072 287.866v-2.632c-2.39.204-5.554.084-9.53-.378.5 1.184 1.757 2.114 3.801 2.818 1.465.328 2.995.43 4.596.311l1.133-.119z"/><path fill="#E06A05" d="M60.484 240.724l.099-.28c2.873-5.334 6.493-6.854 10.889-4.585l2.163-.859-1.825-4.858c-.102-.238-.121-.495-.071-.766.069-.255.182-.469.366-.662.186-.196.419-.329.67-.38l10.286-2.295c.345-.086.665-.033.961.132.292.165.502.417.62.739l2.708 7.57c1.599.276 3.056 1.553 4.376 3.851l.115.216c2.675 7.573 1.674 12.836-2.973 15.781-3.695 3.51-8.624 4.917-14.778 4.221l.023.015c-2.155-.202-4.48-1.077-6.991-2.589-2.523-1.405-4.396-3.205-5.61-5.399l-.027-.062c-1.577-3.298-1.919-6.573-1.001-9.79m8.966-2.721c-2.514-.784-4.64.412-6.396 3.597-.662 2.525-.383 5.082.843 7.674 1.002 1.769 2.529 3.223 4.577 4.347l.062.037c2.095 1.267 4.045 1.995 5.836 2.2l.017-.003c5.301.596 9.542-.6 12.706-3.59l.209-.162c3.431-2.365 4.101-6.538 2.008-12.536-.928-1.557-1.905-2.364-2.907-2.435-.293.008-.555-.077-.795-.236-.227-.18-.391-.403-.503-.675l-2.609-7.262-7.604 1.697 1.762 4.627c.125.355.128.702-.029 1.046-.157.324-.401.566-.738.702l-2.849 1.225c-2.192 1.471-3.476 3.588-3.848 6.331l-.993 5.904-.322-1.322c-.918-3.727-.385-7.456 1.573-11.166"/><path fill="#FCDF00" d="M63.053 241.6c1.758-3.185 3.885-4.381 6.397-3.597-1.958 3.71-2.491 7.439-1.575 11.166l.322 1.322.994-5.904c.371-2.743 1.653-4.858 3.847-6.331l2.849-1.225c.338-.136.582-.378.738-.702.157-.344.154-.69.029-1.046l-1.761-4.627 7.603-1.697 2.61 7.262c.11.271.278.495.503.675.241.162.502.244.796.236 1 .07 1.979.878 2.906 2.435 2.093 5.998 1.423 10.171-2.008 12.536l-.208.162c-3.165 2.99-7.406 4.186-12.706 3.59l-.017.003c-1.792-.205-3.742-.934-5.836-2.2l-.062-.037c-2.049-1.124-3.576-2.578-4.578-4.347-1.224-2.592-1.505-5.149-.843-7.674"/><path fill="#003C8F" d="M84.021 181.362c-.296-.113-.593-.107-.888-.011-7.096 2.259-15.401 7.854-24.876 16.781l-.103.103c-5.311 6.185-7.763 11.887-7.355 17.088.002.131.046.265.09.413 4.397 11.407 10.396 20.939 17.997 28.601.164.154.346.259.563.329.206.08.421.094.651.066 11.16-1.854 18.834-5.299 23.046-10.364.169-.207.271-.443.304-.702.033-.261-.012-.523-.115-.759-3.224-6.928-8.325-13.514-15.299-19.745l3.111-2.912 1.412-1.336c.248-.241.396-.551.412-.881l1.947-25.27c.028-.315-.044-.603-.218-.86-.173-.259-.388-.447-.679-.541m-13.333 9.878l.284-.201c3.954-2.877 7.636-4.992 11.061-6.367l-1.757 22.6-.616.6-.422.398.016-.009-4.165 3.917-.024.027c-3.122 2.599-5.942 4.321-8.458 5.214l-1.292.433-.171.377.186-.008.018-.01.006.018-.023-.008-.201.054c4.013.336 7.626-.753 10.838-3.271 2.392 2.12 4.558 4.289 6.514 6.495l.147.161.081.094c3.22 3.707 5.8 7.552 7.755 11.51-3.947 4.099-10.654 6.976-20.118 8.631-2.575-2.661-4.972-5.555-7.162-8.654l-.189-.291c-3.041-4.354-5.692-9.146-7.958-14.375l-.147-.327c-.472-1.089-.922-2.206-1.344-3.311-.169-3.921 1.506-8.179 4.986-12.781l.209-.283c.466-.603.941-1.218 1.479-1.816 3.676-3.451 7.166-6.404 10.467-8.817"/><path fill="#9AC743" d="M70.972 191.039l-.286.201c-3.299 2.413-6.79 5.366-10.469 8.814-.537.599-1.014 1.214-1.479 1.816l-.211.283 16.546 10.028.015-.005 4.167-3.917-.018.009.422-.398-8.687-16.831z"/><path fill="#DF6512" d="M82.032 184.672c-3.425 1.375-7.106 3.49-11.062 6.367l8.69 16.832.615-.6 1.757-22.599z"/><path fill="#095CAA" d="M58.527 202.154c-3.479 4.603-5.151 8.86-4.984 12.781.422 1.104.872 2.222 1.344 3.311l10.258-.018.169-.377 1.292-.433c2.516-.893 5.336-2.615 8.459-5.214l.009-.022-16.547-10.028z"/><path fill="#9AC743" d="M54.887 218.246l.147.327c2.266 5.229 4.917 10.021 7.958 14.375l.189.289 19.494-11.472-.053-.108-.144-.159c-1.957-2.206-4.123-4.375-6.515-6.495-3.21 2.519-6.825 3.607-10.838 3.271l.203-.054-.187.008-10.254.018z"/><path fill="#DF6512" d="M82.709 221.753l-.033.013-19.494 11.474c2.188 3.1 4.587 5.993 7.162 8.654 9.462-1.655 16.168-4.532 20.118-8.631-1.955-3.958-4.539-7.803-7.753-11.51"/><path fill="#095CAA" d="M65.328 218.221l.024.008-.006-.018z"/><path fill="#004497" d="M110.788 302.596c-.341-1.863-.729-3.728-1.187-5.611-5.553 1.621-11.569 2.646-18.013 3.044l-1.572.11c-4.382-.13-8.535.555-12.46 2.045l.016.037c1.65.903 3.154 1.955 4.493 3.172.918.828 1.738 1.771 2.488 2.813 2.736 3.825 4.259 9.025 4.562 15.585 4.832-.235 9.77-1.049 14.826-2.438-1.572-9.334.705-15.588 6.847-18.757m-17.009 3.858c.275.276.291.587.032.917-.501.312-.995.508-1.499.599-.33.05-.75-.131-1.242-.536-2.313-1.94-5.341-4.03-9.05-6.242l3.356-.288c3.619 1.968 6.421 3.818 8.403 5.55"/><path fill="#fff" d="M93.812 307.371c.259-.33.243-.641-.032-.917-1.982-1.732-4.784-3.582-8.402-5.551l-3.354.288c3.707 2.212 6.734 4.302 9.05 6.242.49.405.91.586 1.24.536.502-.09.997-.286 1.498-.598M103.941 321.353c1.979-.558 3.976-1.196 5.979-1.922 1.812-.671 2.551-2.092 2.229-4.277-.12-4.107-.58-8.294-1.362-12.558-6.141 3.169-8.418 9.423-6.846 18.757M76.25 302.729l-.44.183-.177.074-.39.182-.14.062-.639.325c-1.368.73-2.626 1.62-3.77 2.671-.2.177-.386.372-.586.569-2.143 2.196-3.055 4.588-2.776 7.168.339 3.034 2.264 5.452 5.753 7.24 3.045 1.537 6.473 2.407 10.282 2.599 1.903.093 3.814.084 5.747-.01-.303-6.56-1.825-11.76-4.562-15.585-.749-1.043-1.57-1.985-2.485-2.813-1.342-1.217-2.846-2.269-4.496-3.172-.456.16-.895.325-1.321.507"/><path stroke="#003C8F" stroke-width="2.749" stroke-linecap="round" stroke-linejoin="round" stroke-miterlimit="10" d="M109.602 296.984c-5.553 1.621-11.569 2.646-18.013 3.044l-1.57.11c-4.382-.134-8.537.555-12.462 2.045-.441.167-.883.347-1.307.545l-.44.183-.177.074-.388.182-.141.062-.64.325c-1.368.73-2.626 1.62-3.771 2.671-.197.177-.384.372-.584.569-2.143 2.196-3.057 4.588-2.775 7.168.338 3.034 2.263 5.452 5.753 7.24 3.046 1.537 6.472 2.407 10.281 2.599 1.903.093 3.814.084 5.747-.01 4.832-.235 9.77-1.049 14.826-2.438 1.979-.558 3.976-1.196 5.979-1.924 1.812-.665 2.551-2.09 2.229-4.275-.12-4.104-.58-8.294-1.362-12.558-.34-1.864-.728-3.728-1.185-5.612z" fill="none"/><path fill="#4DA934" d="M110.707 256.942l-35.804-1.257c1.613 15.572 3.819 30.418 6.607 44.51 7.585 2.323 17.307 2.6 29.196.861v-44.114z"/><path stroke="#2E6D2C" stroke-width="2.753" stroke-linecap="square" stroke-miterlimit="10" d="M74.903 255.686c1.613 15.572 3.819 30.418 6.607 44.51 7.585 2.323 17.307 2.6 29.196.861v-44.114l-35.803-1.257z" fill="none"/><path fill="#004497" d="M135.828 302.479c-.455-1.839-.961-3.675-1.537-5.53-5.438 1.966-11.379 3.364-17.785 4.166l-1.564.214c-4.38.139-8.484 1.085-12.309 2.819l.016.034c1.705.802 3.273 1.757 4.686 2.886.966.77 1.85 1.656 2.658 2.651 2.974 3.646 4.813 8.744 5.528 15.272 4.813-.534 9.688-1.657 14.649-3.36-2.151-9.221-.272-15.605 5.658-19.152m-16.735 4.917c.295.256.328.565.09.91-.479.343-.961.571-1.458.692-.326.072-.756-.082-1.272-.459-2.433-1.791-5.585-3.688-9.426-5.665l3.333-.495c3.735 1.736 6.649 3.409 8.733 5.017"/><path fill="#fff" d="M119.183 308.306c.238-.345.205-.657-.089-.91-2.087-1.607-4.999-3.28-8.734-5.017l-3.333.495c3.841 1.978 6.993 3.874 9.425 5.665.518.377.945.531 1.273.459.497-.121.98-.35 1.458-.692M130.17 321.631c1.939-.68 3.895-1.444 5.85-2.293 1.768-.782 2.415-2.244 1.958-4.41-.378-4.087-1.101-8.245-2.149-12.452-5.931 3.55-7.812 9.934-5.659 19.155M101.363 304.771l-.432.207-.17.089-.377.207-.139.066-.616.365c-1.318.816-2.519 1.783-3.596 2.901-.188.19-.359.398-.548.606-2.002 2.33-2.766 4.772-2.324 7.33.527 3.005 2.602 5.302 6.198 6.868 3.133 1.341 6.607 2 10.423 1.949 1.909-.025 3.816-.153 5.737-.369-.715-6.528-2.555-11.627-5.528-15.272-.809-.995-1.691-1.882-2.658-2.651-1.412-1.129-2.98-2.084-4.686-2.886-.442.191-.875.381-1.284.59"/><path stroke="#003C8F" stroke-width="2.75" stroke-linecap="round" stroke-linejoin="round" stroke-miterlimit="10" d="M134.293 296.948c-5.439 1.966-11.381 3.364-17.787 4.166l-1.564.214c-4.38.139-8.486 1.085-12.311 2.819-.428.19-.858.397-1.268.623l-.432.207-.17.089-.379.207-.135.066-.618.365c-1.318.816-2.521 1.783-3.596 2.901-.188.19-.361.398-.55.606-2 2.33-2.764 4.772-2.321 7.33.526 3.005 2.601 5.302 6.197 6.868 3.135 1.341 6.607 2 10.423 1.949 1.909-.025 3.816-.153 5.737-.369 4.813-.534 9.688-1.657 14.649-3.36 1.939-.683 3.896-1.444 5.85-2.293 1.77-.782 2.415-2.244 1.958-4.41-.376-4.087-1.101-8.245-2.149-12.452-.455-1.836-.959-3.672-1.537-5.527h.003z" fill="none"/><path fill="#4DA934" d="M103.981 255.956h39.521c-1.672 15.574-3.96 30.42-6.833 44.514-7.844 2.322-18.735 2.665-32.688 1.065v-45.579z"/><path stroke="#2E6D2C" stroke-width="2.753" stroke-linecap="square" stroke-miterlimit="10" d="M143.503 255.956c-1.672 15.574-3.958 30.42-6.833 44.514-7.846 2.322-18.735 2.665-32.688 1.065v-45.579h39.521z" fill="none"/><path fill="#9AC743" d="M80.923 182.539v-8.054h7.863c-4.901 31.041-7.245 61.13-7.035 90.277-.467-.12-.912-.26-1.379-.393-2.493-.726-4.696-1.62-6.57-2.669-2.34-27.099.034-53.473 7.121-79.161"/><path fill="#095CAA" d="M88.788 174.485h10.079c-4.007 34.429-5.557 65.26-4.644 92.497-1.032-.103-2.048-.225-3.046-.361-3.306-.449-6.452-1.068-9.426-1.858-.208-29.148 2.132-59.237 7.037-90.278"/><path fill="#DF6512" d="M108.589 267.325l-1.839.071c-1.015.019-2.029.035-3.045.035h-.589c-3.077-.017-6.037-.173-8.893-.449-.913-27.237.636-58.068 4.646-92.497h10.357l-.637 92.84zM106.75 267.396l1.839-.071v.106l-1.839-.035M108.589 267.432v-.103c.225-.02.432-.02.638-.02v.122h-.584l-.054.001"/><path fill="#9AC743" d="M109.225 174.485h10.465c3.99 34.153 4.816 64.694 2.475 91.637-1.498.19-2.99.376-4.455.533-2.908.311-5.729.532-8.484.654-.204 0-.41 0-.636.016l.635-92.84z"/><path fill="#095CAA" d="M119.689 174.485h10.081c4.801 30.523 6.606 60.323 5.384 89.382l-.049.018c-.881.189-1.74.361-2.583.517-3.391.652-6.691 1.205-9.927 1.65l-.432.07c2.343-26.942 1.514-57.483-2.474-91.637"/><path fill="#DF6512" d="M137.96 174.485v7.795c5.988 28.271 8.226 54.748 6.71 79.455-3.322.811-6.418 1.495-9.258 2.081l-.257.051c1.222-29.059-.584-58.858-5.385-89.382h8.19zM144.67 261.735v.089c-3.08.977-6.177 1.838-9.291 2.577l.035-.585c2.838-.586 5.935-1.27 9.256-2.081"/><path fill="#095CAA" d="M122.114 266.707c-4.284.48-8.571.725-12.89.725v-.122c2.754-.122 5.576-.344 8.484-.654 1.465-.157 2.957-.343 4.456-.533l-.05.584M122.56 266.655l-.445.052.051-.585.431-.07-.037.603"/><path fill="#9AC743" d="M122.56 266.655l.036-.604c3.235-.445 6.538-.998 9.927-1.65.843-.155 1.702-.327 2.581-.517l.051-.018-.034.603c-4.18.965-8.363 1.686-12.561 2.186M135.12 264.47l.035-.603.257-.051-.033.585-.259.069"/><path stroke="#060F31" stroke-width=".344" stroke-linecap="square" stroke-miterlimit="10" d="M94.241 267.415c0-.156 0-.296-.018-.433m-12.471-2.011v-.208m26.837 2.562v1.121m13.576-2.324l-.051.585m12.99-1.736c.017-.172.017-.345.017-.501l.034-.603" fill="none"/><path stroke="#003C8F" stroke-width="2.753" stroke-linecap="square" stroke-miterlimit="10" d="M80.923 174.485h57.035v7.795c5.99 28.271 8.228 54.748 6.712 79.455-3.322.811-6.418 1.495-9.254 2.081l-.262.051-.051.018c-.879.189-1.738.361-2.581.517-3.389.652-6.691 1.205-9.927 1.65l-.431.07c-1.497.19-2.993.376-4.456.533-2.908.311-5.729.532-8.484.654-.204 0-.411 0-.636.016l-1.839.071c-1.015.019-2.032.035-3.045.035h-.589c-3.077-.017-6.035-.173-8.893-.449-1.032-.103-2.048-.225-3.046-.361-3.306-.449-6.452-1.068-9.427-1.858-.467-.12-.912-.26-1.379-.393-2.493-.726-4.696-1.62-6.57-2.669-2.34-27.101.034-53.475 7.121-79.162v-8.054z" fill="none"/><path fill="#fff" d="M95.376 212.493c-5.334-9.259-9.619-19.1-12.869-29.524l31.332 3.319c-7.314 8.431-13.472 17.172-18.463 26.205"/><path fill="#E06A05" d="M166.461 235.884c.035-.305-.023-.581-.188-.827-.166-.251-.39-.453-.657-.563l-15.708-6.401c-.254-.102-.515-.116-.787-.057-.267.043-.519.167-.713.376l-3.427 3.541c-3.605.217-6.499 1.742-8.662 4.545l-.045.055c-3.713 5.275-4.4 9.698-2.072 13.282.134.196.286.347.482.457.018 1.81.336 3.155.938 4.071.603 1.065 1.476 1.693 2.631 1.853.059 2.317 1.237 4.003 3.541 5.075 1.192.951 3.792 1.14 7.796.568l.214-.049 3.487-1.069.096-.046c3.173-1.278 5.188-2.713 6.026-4.3.938-1.519.893-3.15-.118-4.866.411-.503.655-1.049.773-1.654.983-1.762 1.04-3.932.147-6.52l5.903-6.686c.206-.226.318-.493.343-.785m-9.153 6.94c-.047.263.087 1.234.378 2.948.297 1.714.268 2.913-.128 3.612l-.124.225-.023.046-.117.207c-2.811 3.439-6.153 5.866-10.048 7.308l1.322-.35c3.403-.938 6.242-2.111 8.517-3.536.247.629.236 1.211-.033 1.766-.701 1.1-2.258 2.132-4.631 3.093l-3.313 1.021c-3.006.427-4.918.381-5.757-.119l-.276-.172c-1.637-.729-2.401-1.855-2.279-3.367.105-1.523.124-2.231.042-2.138-.099.086-.257.103-.511.073-.269-.033-.536-.027-.846.029-.688.124-1.189-.04-1.52-.504-.924-.955-1.322-2.168-1.17-3.669.153-1.497.209-2.245.149-2.237l-.387.173c-.222.105-.394.152-.494.159-1.601-2.302-.778-5.392 2.452-9.271 1.776-2.233 4.147-3.383 7.123-3.468.367-.015.678-.148.934-.406l3.161-3.267 13.083 5.327-5.185 5.856c-.167.187-.271.402-.319.661"/><path fill="#FCDF00" d="M157.687 245.772c-.29-1.714-.428-2.686-.379-2.948.049-.259.152-.475.319-.661l5.185-5.856-13.083-5.327-3.163 3.27c-.253.255-.564.389-.93.403-2.978.085-5.349 1.234-7.125 3.468-3.23 3.88-4.053 6.97-2.452 9.271.101-.007.273-.054.493-.159l.388-.173c.06-.008.004.74-.148 2.237-.153 1.501.246 2.714 1.169 3.669.33.464.832.628 1.521.504.311-.057.576-.062.846-.029.253.029.412.013.51-.073.082-.094.063.614-.042 2.138-.122 1.512.643 2.638 2.279 3.367l.278.172c.839.5 2.747.546 5.755.119l3.313-1.021c2.373-.961 3.932-1.993 4.631-3.093.27-.555.28-1.137.033-1.766-2.274 1.425-5.111 2.598-8.517 3.536l-1.322.35c3.895-1.441 7.237-3.868 10.049-7.308l.118-.207.021-.046.126-.225c.393-.698.422-1.898.127-3.612"/><path fill="#003C8F" d="M138.005 181.999l.312-1.366.314-1.299 1.331.328c13.836 3.266 24.92 11.111 33.229 23.55l-.051-.048c4.691 6.323 6.4 12.999 5.109 20.022l-.033.136c-1.791 6.143-4.66 12.052-8.606 17.749-2.698 3.932-5.931 7.76-9.686 11.494-.27.256-.592.397-.984.4-.376-.014-.701-.147-.962-.417l-18.67-19.301c-.24-.253-.36-.545-.379-.884-.023-.341.079-.65.281-.91l8.969-11.281c.652-3.641.254-6.385-1.192-8.214l-.14-.206c-1.956-3.447-4.674-5.932-8.185-7.457l-1.266-.537.368-.854.72-1.646 1.251.538c.276.116.551.252.822.383 1.831.89 3.48 2.021 4.925 3.391l.257.236c1.31 1.285 2.446 2.779 3.416 4.478.636.746 1.124 1.611 1.455 2.583l.105.304c.574 1.789.679 3.972.308 6.519l-.049.341c-.05.324-.114.65-.18.989-.03.221-.116.408-.269.582l-4.34 5.48-4.09 5.134 16.865 17.438c3.167-3.234 5.92-6.549 8.265-9.929l.134-.205.05-.071c3.458-4.994 6.044-10.15 7.757-15.488.053-.119.085-.222.102-.324.118-.324.214-.668.315-.991 1.093-6.254-.441-12.214-4.633-17.862l-.035-.052c-.467-.696-.95-1.39-1.449-2.068l-.209-.274c-3.431-4.697-7.338-8.623-11.682-11.78l-.273-.199c-4.721-3.394-9.978-5.892-15.76-7.519-.736-.216-1.472-.397-2.206-.579l-1.331-.314z"/><path fill="#DF6512" d="M138.317 180.633l-.312 1.366 1.333.313c.734.182 1.47.363 2.206.579 5.782 1.627 11.039 4.125 15.76 7.519l-11.82 15.161c-1.446-1.369-3.094-2.501-4.925-3.391-.272-.134-.549-.267-.822-.383l-1.251-.538-.72 1.646c-.395-.219-.74-.577-1.049-1.084-.536-.935-.923-2.193-1.157-3.797-.236-1.62-.207-4.505.081-8.684.309-4.184.8-6.56 1.497-7.128.694-.569 1.031-.997 1.013-1.288-.019-.102.047-.204.166-.291"/><path fill="#9AC743" d="M157.304 190.41l.273.199c4.344 3.157 8.251 7.083 11.682 11.78l.209.274-18.601 10.474-.172-.308-.085.035c-.332-.969-.818-1.834-1.454-2.58-.97-1.698-2.107-3.192-3.416-4.478l-.258-.236 11.822-15.16z"/><path fill="#095CAA" d="M150.717 213.172l.15-.034 18.601-10.474c.498.679.982 1.372 1.449 2.068l.035.052c4.191 5.648 5.726 11.608 4.633 17.862-.1.323-.198.667-.315.991l-24.245-3.947c.371-2.546.266-4.729-.308-6.518"/><path fill="#9AC743" d="M150.527 221.603c.152-.174.238-.361.269-.582.065-.339.13-.665.18-.989l.049-.341 24.245 3.947c-.017.103-.049.205-.102.324-1.713 5.338-4.299 10.494-7.757 15.488l-.05.068-.134.208-21.04-12.644 4.34-5.479z"/><path fill="#DF6512" d="M142.1 232.217l4.088-5.134 21.04 12.644c-2.347 3.38-5.098 6.694-8.265 9.929l-16.863-17.439z"/><path fill="#fff" d="M86.671 188.891c-.774-.329-1.513-.655-2.256-.981-.771-.345-1.528-.741-2.235-1.186-.516-.311-.997-.654-1.445-1.049l-.222-.263c-.74-.738-1.328-1.58-1.79-2.491-.294-.568-.568-1.121-.811-1.687v-.019c-.309-1.118-.499-2.408-.583-3.871-.379-3.665-.292-7.055.257-10.184h64.882c.05.428.085.857.103 1.288.189 3.474-.206 7.261-1.223 11.358-.912 2.803-2.216 4.693-3.956 5.676-1.153.669-2.169 1.224-3.011 1.669-.569.276-1.152.534-1.738.79-1.377.586-2.804 1.104-4.285 1.533-1.584.462-3.164.876-4.764 1.222-1.566.36-3.166.637-4.766.841-3.045.449-6.092.726-9.137.845-1.222.034-2.428.051-3.65.034-.445-.018-.891-.018-1.355-.018-1.258-.068-2.531-.136-3.804-.19-1.739-.119-3.492-.342-5.229-.685l-1.706-.381c-2.457-.568-4.885-1.306-7.276-2.251"/><path stroke="#003C8F" stroke-width="2.753" stroke-linecap="round" stroke-linejoin="round" stroke-miterlimit="10" d="M77.912 181.234v-.019c-.308-1.118-.499-2.408-.584-3.871-.378-3.665-.291-7.055.258-10.184h64.883c.049.428.084.859.1 1.288.191 3.474-.204 7.261-1.221 11.358-.912 2.803-2.218 4.693-3.954 5.676-1.155.671-2.171 1.224-3.013 1.669-.568.276-1.153.534-1.738.79-1.377.586-2.805 1.104-4.283 1.533-1.584.462-3.166.876-4.766 1.222-1.566.36-3.166.634-4.767.841-3.045.449-6.091.726-9.136.845-1.222.034-2.426.051-3.65.034-.445-.018-.891-.018-1.357-.018-1.256-.068-2.531-.136-3.802-.19-1.74-.119-3.492-.344-5.229-.685l-1.706-.381c-2.457-.569-4.885-1.308-7.277-2.253-.773-.329-1.514-.655-2.255-.981-.771-.345-1.53-.741-2.235-1.186-.518-.311-.997-.654-1.445-1.049m-.001.002l-.224-.259c-.74-.742-1.325-1.584-1.79-2.495-.29-.568-.566-1.121-.809-1.687m2.823 4.441c-.325-.259-.637-.555-.929-.861-.844-.879-1.463-2.084-1.894-3.579" fill="none"/><path fill="#D7272A" d="M103.407 152.685c1.842 2.649 3.963 4.938 6.395 6.847 2.449 1.913 5.081 3.313 7.914 4.23 2.549.85 5.159 1.407 7.838 1.693 2.545.229 5.104.181 7.657-.175 1.182-.158 2.533-.531 4.041-1.083-14.811 1.361-26.896-4.359-36.229-17.157.039 1.535.827 3.42 2.384 5.645"/><path fill="#fff" d="M156.066 105.191c-1.833-2.994-4.088-4.51-6.726-4.562-2.623-.049-4.856 1.392-6.696 4.307-1.837 2.894-2.753 6.436-2.747 10.6-.01 4.163.922 7.729 2.772 10.728 1.832 2.994 4.086 4.511 6.724 4.562 2.621.049 4.854-1.393 6.695-4.306 1.857-2.911 2.774-6.467 2.751-10.635.01-4.164-.92-7.727-2.773-10.694M131.076 103.077c-2.498-3.267-5.738-5.104-9.726-5.511-3.987-.408-7.555.73-10.667 3.414-3.113 2.669-4.899 6.106-5.332 10.332-.43 4.227.588 7.973 3.08 11.256 2.518 3.271 5.775 5.109 9.762 5.518 3.969.405 7.521-.733 10.635-3.42 3.148-2.68 4.936-6.134 5.366-10.36.431-4.228-.603-7.956-3.118-11.229"/><path fill="#1B1616" d="M151.257 114.026c-.936-1.553-2.118-2.441-3.575-2.652-1.459-.207-2.761.325-3.934 1.576-1.144 1.29-1.809 2.931-1.979 4.925-.17 2.001.207 3.792 1.116 5.342.933 1.588 2.115 2.476 3.573 2.686 1.457.211 2.76-.321 3.934-1.608 1.143-1.254 1.808-2.897 1.976-4.895.167-1.998-.208-3.791-1.111-5.374M116.546 112.342c1.517-1.371 3.245-2.001 5.22-1.876 1.973.121 3.609.966 4.942 2.512 1.296 1.582 1.888 3.409 1.761 5.489-.133 2.076-.948 3.816-2.43 5.188-1.519 1.405-3.245 2.036-5.218 1.912-1.976-.121-3.614-.965-4.944-2.549-1.297-1.547-1.892-3.374-1.76-5.451.131-2.079.946-3.819 2.429-5.225"/><path stroke="#332C2A" stroke-width="7.669" stroke-linecap="round" stroke-miterlimit="10" d="M103.44 90.516c21.043-6.691 38.517-6.375 52.446.953" fill="none"/><path fill="#E38100" d="M156.719 140.509c.104-6.192-1.446-11.547-4.688-16.028-3.256-4.519-7.241-6.878-11.958-7.062-4.716-.202-8.77 1.84-12.174 6.085-3.405 4.229-5.157 9.448-5.263 15.643-.105 6.193 1.446 11.547 4.687 16.064 3.242 4.498 7.211 6.839 11.928 7.023 4.716.2 8.782-1.819 12.203-6.05 3.404-4.245 5.161-9.484 5.265-15.675"/><path fill="#FCDF00" d="M176.507 139.689c.474-4.825-.34-9.07-2.42-12.73-2.077-3.66-4.838-5.656-8.259-5.99-3.409-.336-6.504 1.09-9.268 4.277-2.749 3.186-4.366 7.193-4.841 12.02-.469 4.826.341 9.07 2.419 12.73 2.098 3.661 4.857 5.658 8.26 5.993 3.43.336 6.521-1.09 9.27-4.277 2.748-3.189 4.367-7.194 4.839-12.023"/><path stroke="#E06A05" stroke-width="2.752" stroke-linecap="round" stroke-linejoin="round" stroke-miterlimit="10" d="M176.507 139.689c-.472 4.828-2.091 8.834-4.839 12.022-2.748 3.188-5.84 4.613-9.27 4.277-3.402-.335-6.162-2.332-8.26-5.993-2.078-3.66-2.888-7.904-2.419-12.73.475-4.826 2.092-8.834 4.841-12.02 2.764-3.188 5.858-4.613 9.268-4.277 3.421.334 6.182 2.33 8.259 5.99 2.08 3.661 2.893 7.906 2.42 12.731z" fill="none"/><path fill="#FCDF00" d="M77.911 130.05c.472-4.827-.339-9.07-2.418-12.729-2.097-3.66-4.857-5.66-8.262-5.994-3.426-.332-6.521 1.092-9.267 4.281-2.75 3.186-4.369 7.193-4.841 12.02-.472 4.827.343 9.071 2.419 12.73 2.08 3.659 4.839 5.656 8.262 5.994 3.407.333 6.503-1.095 9.268-4.28 2.747-3.188 4.366-7.195 4.839-12.022"/><path stroke="#E06A05" stroke-width="2.752" stroke-linecap="round" stroke-linejoin="round" stroke-miterlimit="10" d="M75.493 117.32c-2.097-3.66-4.856-5.66-8.264-5.994-3.424-.332-6.519 1.092-9.265 4.281-2.75 3.186-4.369 7.193-4.841 12.02-.472 4.827.343 9.071 2.419 12.73 2.08 3.659 4.838 5.656 8.263 5.994 3.406.333 6.502-1.095 9.267-4.28 2.749-3.188 4.366-7.194 4.839-12.021.472-4.827-.339-9.071-2.418-12.73z" fill="none"/><path fill="#FCDF00" d="M151.262 78.328l-.119-.185c-6.995-11.364-15.621-17.858-25.886-19.466-1.697-.32-3.443-.477-5.239-.494-10.332-.372-20.005 4.332-29.025 14.078l-.151.157c-7.582 8.403-13.512 17.603-17.821 27.568-.531 1.383-1.031 2.767-1.513 4.155l-.515 1.56c-2.759 8.232-4.474 16.41-5.112 24.537-.157 3.908-.01 7.879.405 11.929.865 8.847 4.29 16.769 10.256 23.797 7.757 8.828 19.055 13.841 33.888 15.016 15.158 1.756 27.415-.95 36.738-8.109 7.214-5.742 12.109-12.849 14.669-21.361 1.192-3.893 2.107-7.759 2.71-11.623.946-8.096.848-16.455-.264-25.065l-.204-1.626c-.204-1.456-.422-2.911-.662-4.37-1.977-11.203-6.032-21.379-12.155-30.498"/><path stroke="#E06A05" stroke-width="2.752" stroke-linecap="round" stroke-linejoin="round" stroke-miterlimit="10" d="M151.143 78.144c-6.995-11.364-15.623-17.858-25.886-19.466-1.697-.32-3.443-.477-5.239-.494-10.332-.372-20.003 4.332-29.026 14.078l-.15.157c-7.582 8.402-13.512 17.602-17.821 27.567-.533 1.383-1.031 2.767-1.513 4.155l-.513 1.56c-2.761 8.232-4.476 16.41-5.114 24.537-.157 3.908-.01 7.879.405 11.929.865 8.847 4.29 16.769 10.256 23.797 7.759 8.828 19.055 13.841 33.888 15.016 15.158 1.756 27.415-.95 36.738-8.109 7.214-5.742 12.109-12.849 14.669-21.361 1.192-3.893 2.107-7.759 2.71-11.623.946-8.096.848-16.455-.264-25.065l-.204-1.626c-.204-1.456-.422-2.911-.662-4.37-1.978-11.201-6.033-21.377-12.156-30.496l-.118-.186z" fill="none"/><path fill="#332C2A" d="M140.31 27.512c.518-.518.931-1.049 1.26-1.568.101-.146-.994.092-3.282.715-2.362.648-4.167 1.234-5.392 1.754-2.795 1.181-4.852 2.43-6.208 3.746-.542.589-1.029 1.162-1.444 1.691-.621-.906-1.327-2.151-2.123-3.732-1.041-2.088-1.683-4.362-1.922-6.858-.029-2.008-.07-2.995-.123-2.984-1.255.293-2.501 1.018-3.738 2.157-2.5 2.263-3.864 5.62-4.092 10.074-.147 2.197-.071 4.433.244 6.693-1.678-.717-2.988-1.449-3.898-2.214-1.146-.992-2.253-2.934-3.333-5.856-.862-2.312-1.299-3.857-1.346-4.624-.03-.208-.335.245-.925 1.361-.678 1.248-1.19 2.596-1.541 4.067-1.065 4.543-.189 8.829 2.617 12.837.242.351.585.902 1.013 1.654-4.902-1.31-8.512-3.616-10.864-6.939-.16-.345-.326-.032-.54.917-.185 1.018-.268 2.203-.21 3.572.142 4.022 1.268 7.174 3.396 9.455l.536.536c-1.945.089-3.881-.085-5.829-.499-1.238-.242-2.46-.639-3.648-1.221-.871-.43-2.052-1.1-3.499-2-.176-.157.718 1.469 2.668 4.857 2.011 3.462 3.503 5.719 4.489 6.762 2.441 2.605 5.557 4.485 9.372 5.602 3.812 1.115 8.231.822 13.257-.9.973.805 2.117 1.504 3.389 2.095 1.206.55 2.381.925 3.486 1.101 1.445.229 2.829.225 4.119-.047 1.479-.287 2.694-.895 3.63-1.82 1.022 1.049 2.257 1.861 3.667 2.465 1.396.568 2.836.865 4.338.874 1.466.023 2.933-.128 4.401-.469.987-.196 2.408-.611 4.267-1.205 1.69-.526 4.529-.907 8.508-1.14 3.403-.168 5.073-.281 5.013-.342-1.194-1.238-2.61-2.137-4.27-2.662-1.354-.461-3.057-.73-5.105-.811-.892-.068-1.845-.025-2.844.102 1.013-.451 1.949-1 2.825-1.656 1.881-1.407 3.437-3.172 4.632-5.321.665-1.161 1.62-3.314 2.848-6.495-1.469 1.049-3.135 2.184-4.996 3.383-3.764 2.415-6.556 3.732-8.372 3.951-.508.07-1.34.11-2.466.139 1.597-2.939 2.832-4.943 3.7-6.033.94-1.15 2.868-2.829 5.778-5.031l3.917-2.938c-1.186-.79-2.712-1.233-4.569-1.344-1.669-.095-3.482.091-5.414.576.969-1.41 1.488-3.709 1.544-6.936.057-3.242-.012-4.684-.235-4.308-.893 1.52-2.051 2.927-3.489 4.22-1.438 1.262-2.988 2.283-4.651 3.037-1.214.571-2.787 1.092-4.716 1.578.198-2.037.576-3.797 1.137-5.28 1.172-3.014 2.837-5.928 5.033-8.738"/><path fill="#D7272A" d="M150.122 157.711c-5.838 3.146-12.264 5.075-19.263 5.773-6.999.681-12.948.789-17.828.312-4.896-.479-10.718-1.741-17.449-3.763-6.731-2.042-12.664-5.177-17.781-9.394 10.319 10.409 21.93 16.09 34.812 17.054 12.861 1.555 25.354-1.77 37.509-9.982"/><path fill="#fff" d="M149.86 115.977c.415-4.244-.652-7.996-3.184-11.268-2.564-3.275-5.843-5.1-9.867-5.492-4.02-.393-7.59.761-10.742 3.477-3.117 2.721-4.893 6.194-5.305 10.438-.415 4.229.653 7.98 3.184 11.271 2.564 3.273 5.842 5.096 9.866 5.49 4.022.394 7.591-.762 10.74-3.478 3.122-2.737 4.897-6.212 5.308-10.438M114.77 112.545c.413-4.243-.652-7.995-3.184-11.267-2.565-3.274-5.842-5.099-9.865-5.491-4.023-.396-7.594.758-10.743 3.477-3.152 2.717-4.926 6.189-5.343 10.434-.411 4.229.655 7.979 3.22 11.271 2.565 3.275 5.844 5.099 9.867 5.49 4.021.396 7.591-.758 10.742-3.477 3.121-2.736 4.893-6.207 5.306-10.437"/><path fill="#1B1616" d="M139.739 110.564c-1.22-1.637-2.795-2.592-4.753-2.854-1.964-.26-3.729.25-5.339 1.512-1.58 1.299-2.515 2.977-2.788 5.043-.276 2.062.188 3.928 1.378 5.562 1.215 1.668 2.79 2.625 4.753 2.885 1.958.262 3.727-.25 5.34-1.543 1.574-1.268 2.508-2.947 2.781-5.01.277-2.06-.188-3.927-1.372-5.595M96.571 106.347c1.517-1.37 3.245-2.004 5.219-1.881 1.975.124 3.609.968 4.942 2.517 1.299 1.581 1.892 3.41 1.76 5.486-.129 2.077-.947 3.817-2.428 5.189-1.52 1.405-3.246 2.037-5.221 1.914-1.974-.125-3.608-.967-4.94-2.55-1.3-1.546-1.892-3.376-1.761-5.453.129-2.077.946-3.817 2.429-5.222"/><path stroke="#332C2A" stroke-width="6.191" stroke-linecap="round" stroke-miterlimit="10" d="M90.137 86.635c23.41-3.466 43.025-1.549 58.883 5.756" fill="none"/><path fill="#E38100" d="M126.058 154.443c3.73-4.041 5.905-9.134 6.507-15.296.604-6.162-.543-11.581-3.422-16.232-2.91-4.692-6.706-7.258-11.412-7.719-4.707-.46-8.925 1.323-12.658 5.365-3.725 4.007-5.897 9.101-6.501 15.263-.604 6.162.545 11.578 3.423 16.267 2.876 4.654 6.67 7.221 11.378 7.679 4.707.461 8.925-1.321 12.685-5.327"/></g></svg>