<?xml version="1.0" encoding="utf-8"?>
<!-- Generator: Adobe Illustrator 16.2.1, SVG Export Plug-In . SVG Version: 6.00 Build 0)  -->
<!DOCTYPE svg PUBLIC "-//W3C//DTD SVG 1.1//EN" "http://www.w3.org/Graphics/SVG/1.1/DTD/svg11.dtd">
<svg version="1.1" xmlns="http://www.w3.org/2000/svg" xmlns:xlink="http://www.w3.org/1999/xlink" x="0px" y="0px"
	 width="227.989px" height="372.391px" viewBox="0 0 227.989 372.391" enable-background="new 0 0 227.989 372.391"
	 xml:space="preserve">
<g id="base">
</g>
<g id="book3">
</g>
<g id="_x38_" display="none">
</g>
<g id="_x37_" display="none">
</g>
<g id="_x36_" display="none">
</g>
<g id="_x35_" display="none">
</g>
<g id="_x34_" display="none">
</g>
<g id="_x33_" display="none">
</g>
<g id="_x32_" display="none">
</g>
<g id="_x31_" display="none">
</g>
<g id="_x30_">
	<g>
		<path fill="#E50212" d="M92.416,321.228c-4.563,1.744-9.145,3.523-13.705,5.319c-6.838,2.735-13.607,6.102-20.277,10.142
			c-9.402-6.186-17.479-5.9-24.25,0.854c-2.315,2.271-2.792,4.918-1.413,7.93c2.427,5.29,6.708,8.351,12.836,9.19
			c12.896,1.806,25.123,0.079,36.714-5.206c1.947-0.883,3.808-1.921,5.6-3.098c-0.804,2.677-0.215,4.981,1.751,6.935
			c6.537,1.872,10.827-0.375,12.871-6.72C104.621,340.089,101.245,331.634,92.416,321.228"/>
		
			<path fill="none" stroke="#3D3938" stroke-width="1.847" stroke-linecap="round" stroke-linejoin="round" stroke-miterlimit="10" d="
			M89.278,353.169c0.137,0.056,0.273,0.091,0.394,0.125"/>
		
			<path fill="none" stroke="#7F050B" stroke-width="1.847" stroke-linecap="round" stroke-linejoin="round" stroke-miterlimit="10" d="
			M78.71,326.547c-6.836,2.735-13.607,6.102-20.277,10.142c-9.402-6.186-17.479-5.9-24.249,0.854
			c-2.317,2.271-2.793,4.918-1.414,7.93c2.427,5.29,6.708,8.351,12.836,9.19c12.896,1.806,25.121,0.079,36.714-5.206
			c1.947-0.883,3.808-1.921,5.6-3.098c-0.804,2.677-0.215,4.981,1.751,6.935c6.537,1.872,10.827-0.375,12.869-6.72
			c2.08-6.485-1.296-14.94-10.125-25.347C87.852,322.972,83.274,324.751,78.71,326.547z"/>
		<path fill="#9E2287" d="M26.283,326.829c-0.951,0.944-1.438,2.09-1.443,3.415c-0.007,1.322,0.468,2.477,1.408,3.421
			c0.872,0.884,1.916,1.375,3.136,1.445c0,0.104,0,0.209,0,0.308c-0.008,1.36,0.451,2.5,1.39,3.444
			c0.939,0.951,2.072,1.425,3.431,1.431c1.253,0.006,2.321-0.398,3.234-1.224c0.054,0.052,0.121,0.122,0.173,0.174
			c0.94,0.951,2.088,1.442,3.413,1.442c1.321,0.008,2.475-0.466,3.427-1.404c0.879-0.875,1.349-1.904,1.44-3.087
			c0.087-0.003,0.19,0.003,0.292,0.003c1.359,0.006,2.496-0.454,3.445-1.393c0.949-0.941,1.421-2.072,1.428-3.43
			c0.004-1.235-0.385-2.305-1.187-3.2c0.069-0.07,0.138-0.137,0.224-0.224c0.949-0.942,1.436-2.087,1.445-3.41
			c0.005-1.328-0.47-2.479-1.409-3.427c-0.891-0.901-1.955-1.372-3.174-1.427c0-0.122,0-0.241,0.001-0.364
			c0.007-1.357-0.451-2.49-1.39-3.441c-0.94-0.95-2.071-1.421-3.43-1.427c-1.237-0.009-2.304,0.401-3.202,1.203
			c-0.068-0.087-0.137-0.157-0.205-0.224c-0.942-0.95-2.087-1.438-3.411-1.444c-1.324-0.006-2.479,0.468-3.428,1.409
			c-0.898,0.89-1.366,1.937-1.424,3.154h-0.311c-1.356-0.009-2.493,0.447-3.441,1.389c-0.951,0.942-1.42,2.073-1.429,3.428
			c-0.004,1.256,0.402,2.322,1.24,3.24C26.438,326.678,26.37,326.745,26.283,326.829"/>
		
			<path fill="none" stroke="#59155B" stroke-width="1.847" stroke-linecap="round" stroke-linejoin="round" stroke-miterlimit="10" d="
			M24.839,330.244c-0.007,1.322,0.468,2.477,1.408,3.421c0.872,0.884,1.916,1.375,3.136,1.445c0,0.104,0,0.209,0,0.308
			c-0.008,1.36,0.451,2.5,1.391,3.444c0.94,0.951,2.071,1.425,3.428,1.431c1.256,0.006,2.323-0.398,3.235-1.224
			c0.054,0.052,0.122,0.122,0.173,0.174c0.94,0.951,2.088,1.442,3.413,1.442c1.321,0.008,2.475-0.466,3.425-1.404
			c0.881-0.875,1.352-1.904,1.442-3.087c0.087-0.003,0.19,0.003,0.292,0.003c1.359,0.006,2.496-0.454,3.445-1.393
			c0.949-0.941,1.42-2.072,1.428-3.43c0.004-1.235-0.386-2.305-1.187-3.2c0.068-0.07,0.138-0.137,0.224-0.224
			c0.951-0.942,1.436-2.087,1.443-3.41c0.007-1.328-0.468-2.479-1.409-3.427c-0.889-0.901-1.95-1.372-3.172-1.427
			c0-0.122,0.003-0.241,0.003-0.364c0.007-1.357-0.452-2.49-1.391-3.441c-0.94-0.95-2.071-1.421-3.43-1.427
			c-1.237-0.009-2.302,0.401-3.202,1.203c-0.068-0.087-0.137-0.157-0.205-0.224c-0.94-0.95-2.088-1.438-3.411-1.444
			c-1.324-0.006-2.479,0.468-3.428,1.409c-0.898,0.89-1.368,1.937-1.424,3.154h-0.31c-1.359-0.009-2.494,0.447-3.444,1.389
			c-0.949,0.942-1.418,2.073-1.427,3.428c-0.004,1.256,0.402,2.322,1.24,3.24c-0.087,0.067-0.154,0.135-0.243,0.219
			C25.332,327.773,24.845,328.919,24.839,330.244z"/>
		<path fill="#42AF35" d="M83.594,301.146c-0.273-0.134-0.548-0.273-0.822-0.431c-1.079-0.572-2.073-1.093-2.965-1.563
			c-0.209,0.703-0.436,1.406-0.698,2.113c-1.518,4.203-3.46,8.072-5.87,11.618c-0.708,1.011-1.435,2.003-2.197,2.979
			c-0.811,1.008-1.659,1.999-2.557,2.959c-0.155,0.15-0.327,0.322-0.482,0.497c-1.365,1.415-2.833,2.784-4.404,4.066
			c-0.466,0.392-0.95,0.767-1.449,1.159c0.615,0.709,1.247,1.401,1.898,2.035c0.426,0.418,0.854,0.813,1.282,1.212
			c1.112,1.003,2.276,1.901,3.491,2.712c0.121,0.087,0.222,0.16,0.343,0.247c0.118,0.087,0.254,0.157,0.394,0.241
			c3.458,2.166,7.316,3.631,11.558,4.354c4.635,0.816,9.137,0.979,13.484,0.465c3.44-0.41,6.794-1.235,10.048-2.471
			c0.224-0.084,0.464-0.187,0.69-0.273c0.326-0.119,0.651-0.253,0.981-0.39c0.068-0.055,0.137-0.087,0.224-0.099
			c0.12-0.055,0.24-0.122,0.361-0.171l0.116-22.527c-3.88-0.381-8.187-1.572-12.903-3.537c-0.616-0.262-1.251-0.544-1.888-0.834
			C90.122,304.549,87.245,303.093,83.594,301.146L83.594,301.146z M87.883,309.212c1.144,1.159,1.722,2.569,1.713,4.223
			c-0.001,0.515-0.057,1.012-0.179,1.474c-0.262,1.029-0.783,1.939-1.577,2.724c-1.157,1.146-2.569,1.721-4.219,1.712
			c-1.651-0.009-3.057-0.593-4.202-1.755c-0.36-0.361-0.65-0.738-0.89-1.14c-0.561-0.913-0.831-1.927-0.825-3.078
			c0.011-1.648,0.6-3.056,1.758-4.2c1.157-1.146,2.568-1.724,4.218-1.718C85.332,307.468,86.737,308.055,87.883,309.212
			 M75.986,324.019c0.187-0.192,0.377-0.344,0.569-0.5c1.051-0.817,2.257-1.221,3.649-1.216c1.648,0.006,3.052,0.597,4.199,1.756
			c1.042,1.053,1.621,2.328,1.715,3.805v0.413c-0.01,1.648-0.6,3.055-1.758,4.2c-1.157,1.146-2.57,1.724-4.218,1.709
			c-1.652-0.006-3.055-0.596-4.2-1.753c-1.146-1.156-1.724-2.566-1.715-4.217C74.236,326.567,74.826,325.157,75.986,324.019
			 M93.288,317.301c1.052-0.872,2.31-1.294,3.737-1.288c1.648,0.006,3.055,0.602,4.2,1.756c1.145,1.16,1.722,2.569,1.712,4.218
			c-0.009,1.654-0.599,3.058-1.756,4.203c-1.157,1.146-2.571,1.721-4.22,1.715c-1.647-0.009-3.052-0.602-4.199-1.759
			c-0.924-0.933-1.468-2.02-1.648-3.252c-0.052-0.314-0.069-0.64-0.066-0.965c0.011-1.651,0.603-3.056,1.758-4.203
			C92.959,317.574,93.113,317.438,93.288,317.301"/>
		<path fill="#EBE600" d="M89.596,313.435c0.009-1.653-0.57-3.063-1.713-4.223c-1.146-1.157-2.552-1.744-4.202-1.759
			c-1.649-0.006-3.061,0.572-4.218,1.718c-1.158,1.145-1.749,2.552-1.757,4.2c-0.007,1.151,0.263,2.165,0.824,3.078
			c0.24,0.401,0.529,0.778,0.89,1.14c1.145,1.159,2.549,1.746,4.203,1.755c1.648,0.009,3.061-0.566,4.217-1.712
			c0.794-0.784,1.315-1.694,1.577-2.724C89.54,314.446,89.595,313.949,89.596,313.435"/>
		<path fill="#EBE600" d="M76.555,323.519c-0.192,0.156-0.382,0.308-0.569,0.5c-1.16,1.139-1.75,2.549-1.759,4.197
			c-0.009,1.65,0.567,3.061,1.715,4.217c1.146,1.157,2.548,1.747,4.2,1.756c1.649,0.012,3.061-0.566,4.218-1.712
			c1.158-1.146,1.749-2.552,1.758-4.2v-0.413c-0.094-1.477-0.673-2.746-1.715-3.802c-1.144-1.162-2.551-1.753-4.199-1.759
			C78.812,322.298,77.606,322.698,76.555,323.519"/>
		<path fill="#EBE600" d="M97.023,316.013c-1.426-0.006-2.683,0.416-3.735,1.288c-0.174,0.137-0.328,0.271-0.482,0.425
			c-1.157,1.147-1.749,2.552-1.758,4.203c0,0.325,0.014,0.65,0.063,0.965c0.185,1.232,0.727,2.319,1.651,3.252
			c1.145,1.157,2.552,1.75,4.199,1.759c1.649,0.006,3.065-0.569,4.22-1.715c1.157-1.146,1.747-2.549,1.756-4.203
			c0.009-1.648-0.567-3.058-1.712-4.218C100.079,316.614,98.672,316.019,97.023,316.013"/>
		
			<path fill="none" stroke="#0F491D" stroke-width="1.847" stroke-linecap="round" stroke-linejoin="round" stroke-miterlimit="10" d="
			M82.771,300.715c-1.079-0.572-2.073-1.093-2.965-1.563c-0.211,0.703-0.439,1.406-0.698,2.113c-1.518,4.203-3.46,8.072-5.87,11.618
			c-0.708,1.011-1.433,2.003-2.197,2.979c-0.811,1.008-1.659,1.999-2.557,2.959c-0.155,0.15-0.329,0.322-0.484,0.497
			c-1.363,1.415-2.833,2.787-4.402,4.066c-0.466,0.392-0.949,0.767-1.449,1.159c0.615,0.709,1.247,1.401,1.896,2.035
			c0.427,0.418,0.854,0.813,1.283,1.212c1.112,1.003,2.276,1.901,3.49,2.712c0.121,0.087,0.222,0.16,0.344,0.247
			c0.118,0.087,0.256,0.157,0.394,0.241c3.459,2.166,7.317,3.631,11.558,4.354c4.635,0.816,9.137,0.979,13.484,0.465
			c3.44-0.41,6.796-1.235,10.048-2.471c0.224-0.084,0.464-0.187,0.689-0.273c0.329-0.119,0.654-0.253,0.982-0.39
			c0.068-0.055,0.138-0.087,0.222-0.099c0.121-0.055,0.242-0.122,0.361-0.171l0.118-22.527c-3.88-0.384-8.187-1.572-12.903-3.537
			c-0.616-0.262-1.251-0.544-1.888-0.834c-2.107-0.96-4.986-2.416-8.636-4.363C83.321,301.012,83.046,300.872,82.771,300.715z"/>
		<path fill="#E50212" d="M119.242,321.82c4.546,1.794,9.107,3.622,13.654,5.468c6.805,2.802,13.539,6.234,20.164,10.345
			c9.467-6.087,17.541-5.714,24.242,1.104c2.291,2.294,2.738,4.941,1.33,7.944c-2.482,5.261-6.793,8.278-12.932,9.063
			c-12.912,1.665-25.119-0.187-36.654-5.593c-1.939-0.904-3.789-1.959-5.568-3.154c0.771,2.687,0.162,4.985-1.82,6.912
			c-6.56,1.809-10.826-0.485-12.803-6.851C106.843,340.555,110.305,332.137,119.242,321.82"/>
		
			<path fill="none" stroke="#3D3938" stroke-width="1.847" stroke-linecap="round" stroke-linejoin="round" stroke-miterlimit="10" d="
			M122.05,353.794c-0.137,0.053-0.272,0.088-0.395,0.116"/>
		
			<path fill="none" stroke="#7F050B" stroke-width="1.847" stroke-linecap="round" stroke-linejoin="round" stroke-miterlimit="10" d="
			M132.896,327.288c6.805,2.802,13.539,6.234,20.164,10.345c9.467-6.087,17.541-5.714,24.242,1.104
			c2.291,2.294,2.74,4.941,1.33,7.944c-2.482,5.261-6.791,8.278-12.932,9.061c-12.912,1.668-25.119-0.184-36.654-5.59
			c-1.937-0.904-3.789-1.959-5.568-3.154c0.771,2.687,0.162,4.985-1.82,6.912c-6.56,1.809-10.826-0.485-12.803-6.851
			c-2.012-6.505,1.45-14.923,10.387-25.239C123.788,323.614,128.349,325.442,132.896,327.288z"/>
		<path fill="#9E2287" d="M185.31,328.107c0.941,0.948,1.418,2.102,1.412,3.428c-0.01,1.322-0.494,2.471-1.445,3.412
			c-0.877,0.869-1.932,1.343-3.152,1.407v0.313c-0.006,1.354-0.477,2.482-1.428,3.424c-0.951,0.942-2.088,1.401-3.445,1.393
			c-1.256-0.006-2.318-0.427-3.221-1.253c-0.051,0.053-0.123,0.122-0.174,0.172c-0.953,0.938-2.102,1.412-3.426,1.406
			c-1.326-0.003-2.473-0.491-3.412-1.441c-0.873-0.884-1.332-1.915-1.41-3.099c-0.086-0.006-0.188-0.006-0.291-0.006
			c-1.355-0.003-2.49-0.474-3.43-1.427c-0.941-0.947-1.398-2.084-1.393-3.444c0.01-1.235,0.408-2.3,1.221-3.188
			c-0.066-0.07-0.137-0.137-0.221-0.225c-0.943-0.95-1.42-2.104-1.408-3.427c0.004-1.322,0.494-2.471,1.441-3.412
			c0.902-0.887,1.967-1.349,3.188-1.393c-0.004-0.116,0-0.238,0-0.36c0.006-1.354,0.477-2.488,1.426-3.427
			c0.953-0.942,2.084-1.401,3.443-1.393c1.24,0.006,2.301,0.422,3.191,1.235c0.068-0.084,0.135-0.151,0.209-0.227
			c0.949-0.937,2.104-1.41,3.424-1.404c1.322,0.006,2.471,0.494,3.412,1.445c0.887,0.895,1.346,1.947,1.395,3.165
			c0.102,0,0.205,0.003,0.307,0.003c1.357,0.009,2.486,0.479,3.43,1.424c0.941,0.953,1.398,2.087,1.393,3.447
			c-0.008,1.253-0.428,2.317-1.273,3.224C185.156,327.951,185.228,328.021,185.31,328.107"/>
		
			<path fill="none" stroke="#59155B" stroke-width="1.847" stroke-linecap="round" stroke-linejoin="round" stroke-miterlimit="10" d="
			M186.722,331.535c-0.01,1.322-0.494,2.471-1.445,3.412c-0.877,0.869-1.932,1.343-3.152,1.407v0.313
			c-0.006,1.354-0.477,2.482-1.426,3.427c-0.953,0.942-2.09,1.401-3.447,1.39c-1.256-0.006-2.318-0.427-3.221-1.253
			c-0.051,0.053-0.123,0.122-0.174,0.172c-0.949,0.938-2.102,1.412-3.426,1.406c-1.326-0.003-2.473-0.491-3.412-1.441
			c-0.873-0.881-1.332-1.915-1.408-3.099c-0.088,0-0.189-0.006-0.293-0.006c-1.357-0.003-2.49-0.474-3.43-1.427
			c-0.941-0.947-1.398-2.084-1.393-3.444c0.008-1.235,0.408-2.3,1.221-3.188c-0.068-0.07-0.137-0.137-0.221-0.225
			c-0.943-0.95-1.42-2.104-1.408-3.427c0.004-1.322,0.494-2.471,1.441-3.412c0.902-0.89,1.965-1.349,3.188-1.393
			c-0.004-0.116,0-0.238,0-0.36c0.008-1.354,0.477-2.488,1.426-3.427c0.953-0.942,2.084-1.401,3.443-1.393
			c1.24,0.003,2.301,0.422,3.191,1.235c0.068-0.084,0.135-0.151,0.209-0.227c0.949-0.937,2.104-1.41,3.424-1.404
			c1.322,0.006,2.471,0.494,3.412,1.445c0.887,0.895,1.348,1.947,1.395,3.165c0.102,0,0.205,0.003,0.307,0.003
			c1.357,0.009,2.486,0.479,3.43,1.424c0.941,0.953,1.398,2.087,1.393,3.447c-0.008,1.253-0.428,2.317-1.273,3.224
			c0.084,0.07,0.156,0.14,0.238,0.227C186.251,329.056,186.728,330.209,186.722,331.535z"/>
		<path fill="#42AF35" d="M133.199,301.357c0.275-0.137,0.552-0.273,0.826-0.43c1.084-0.559,2.084-1.067,2.98-1.529
			c0.199,0.709,0.42,1.413,0.678,2.119c1.469,4.215,3.377,8.112,5.744,11.679c0.703,1.018,1.416,2.021,2.17,3
			c0.802,1.018,1.636,2.018,2.527,2.985c0.152,0.157,0.324,0.331,0.479,0.503c1.352,1.433,2.801,2.816,4.361,4.112
			c0.461,0.396,0.939,0.776,1.432,1.178c-0.619,0.7-1.258,1.384-1.914,2.015c-0.432,0.412-0.859,0.802-1.295,1.194
			c-1.121,0.994-2.297,1.878-3.518,2.68c-0.121,0.087-0.225,0.157-0.345,0.241c-0.125,0.084-0.259,0.154-0.398,0.235
			c-3.483,2.134-7.354,3.555-11.603,4.235c-4.645,0.771-9.146,0.887-13.489,0.328c-3.435-0.447-6.782-1.308-10.022-2.575
			c-0.225-0.087-0.463-0.194-0.688-0.282c-0.322-0.122-0.652-0.258-0.975-0.397c-0.07-0.053-0.139-0.085-0.226-0.104
			c-0.119-0.053-0.238-0.123-0.358-0.175l0.117-22.527c3.887-0.337,8.201-1.488,12.94-3.403c0.618-0.253,1.256-0.526,1.891-0.816
			C126.634,304.688,129.531,303.262,133.199,301.357 M128.826,309.374c-1.156,1.146-1.748,2.553-1.76,4.2
			c0,0.518,0.05,1.012,0.168,1.482c0.252,1.029,0.766,1.944,1.551,2.738c1.145,1.157,2.552,1.75,4.199,1.759
			c1.648,0.009,3.062-0.57,4.219-1.715c0.363-0.361,0.658-0.736,0.898-1.131c0.57-0.907,0.85-1.919,0.856-3.072
			c0.009-1.648-0.565-3.062-1.714-4.218c-1.145-1.154-2.549-1.744-4.198-1.756C131.396,307.653,129.982,308.231,128.826,309.374
			 M140.57,324.297c-0.188-0.188-0.374-0.343-0.562-0.497c-1.048-0.831-2.243-1.25-3.638-1.256
			c-1.649-0.011-3.063,0.567-4.219,1.713c-1.055,1.04-1.646,2.311-1.758,3.787c-0.001,0.137-0.001,0.273-0.001,0.413
			c-0.009,1.647,0.567,3.058,1.716,4.22c1.146,1.157,2.547,1.75,4.197,1.756c1.654,0.012,3.062-0.566,4.226-1.715
			c1.152-1.146,1.744-2.549,1.75-4.2C142.294,326.866,141.718,325.457,140.57,324.297 M123.337,317.411
			c-1.045-0.89-2.295-1.325-3.721-1.334c-1.65-0.003-3.062,0.575-4.219,1.718c-1.158,1.143-1.75,2.552-1.758,4.2
			c-0.008,1.65,0.57,3.061,1.714,4.218c1.146,1.156,2.548,1.75,4.198,1.759c1.65,0.006,3.065-0.57,4.224-1.713
			c0.932-0.921,1.482-2.002,1.685-3.24c0.049-0.312,0.068-0.634,0.07-0.963c0.007-1.647-0.568-3.063-1.713-4.217
			C123.664,317.685,123.509,317.542,123.337,317.411"/>
		<path fill="#EBE600" d="M127.066,313.574c0.012-1.647,0.604-3.055,1.76-4.2c1.158-1.143,2.57-1.721,4.217-1.712
			c1.652,0.009,3.057,0.602,4.201,1.756c1.145,1.156,1.723,2.569,1.714,4.218c-0.007,1.153-0.286,2.165-0.856,3.072
			c-0.244,0.395-0.535,0.77-0.898,1.131c-1.156,1.145-2.568,1.724-4.219,1.715c-1.647-0.009-3.055-0.602-4.201-1.759
			c-0.786-0.794-1.297-1.709-1.549-2.738C127.116,314.586,127.066,314.092,127.066,313.574"/>
		<path fill="#EBE600" d="M140.008,323.8c0.188,0.151,0.374,0.309,0.562,0.497c1.148,1.16,1.725,2.569,1.712,4.221
			c-0.006,1.651-0.598,3.055-1.75,4.2c-1.163,1.148-2.571,1.727-4.226,1.715c-1.648-0.006-3.051-0.602-4.197-1.756
			c-1.148-1.162-1.725-2.572-1.716-4.22c0-0.14,0-0.276,0.001-0.413c0.111-1.477,0.703-2.747,1.758-3.787
			c1.155-1.146,2.569-1.724,4.219-1.713C137.765,322.55,138.96,322.969,140.008,323.8"/>
		<path fill="#EBE600" d="M119.617,316.077c1.426,0.009,2.676,0.444,3.722,1.328c0.172,0.137,0.325,0.279,0.479,0.434
			c1.145,1.153,1.72,2.566,1.713,4.217c-0.002,0.329-0.021,0.651-0.072,0.963c-0.199,1.238-0.751,2.319-1.689,3.24
			c-1.151,1.143-2.566,1.719-4.217,1.713c-1.65-0.009-3.055-0.603-4.198-1.759c-1.144-1.157-1.724-2.567-1.714-4.218
			c0.008-1.648,0.6-3.058,1.758-4.2C116.554,316.652,117.966,316.074,119.617,316.077"/>
		
			<path fill="none" stroke="#0F491D" stroke-width="1.847" stroke-linecap="round" stroke-linejoin="round" stroke-miterlimit="10" d="
			M134.025,300.928c1.084-0.559,2.084-1.067,2.98-1.529c0.199,0.709,0.42,1.413,0.678,2.119c1.469,4.215,3.377,8.112,5.744,11.679
			c0.703,1.018,1.416,2.021,2.17,3c0.802,1.018,1.636,2.018,2.527,2.985c0.152,0.157,0.324,0.331,0.479,0.503
			c1.35,1.433,2.799,2.816,4.361,4.112c0.461,0.396,0.939,0.776,1.432,1.178c-0.619,0.697-1.258,1.384-1.914,2.015
			c-0.432,0.409-0.859,0.802-1.295,1.194c-1.121,0.994-2.297,1.878-3.518,2.68c-0.121,0.087-0.225,0.157-0.348,0.241
			c-0.122,0.084-0.256,0.154-0.396,0.235c-3.483,2.134-7.354,3.555-11.603,4.235c-4.643,0.771-9.146,0.887-13.489,0.328
			c-3.435-0.447-6.782-1.308-10.022-2.575c-0.225-0.087-0.463-0.194-0.688-0.282c-0.322-0.122-0.652-0.256-0.975-0.397
			c-0.072-0.053-0.139-0.085-0.226-0.104c-0.12-0.053-0.238-0.123-0.358-0.175l0.117-22.527c3.885-0.337,8.201-1.488,12.94-3.403
			c0.618-0.253,1.256-0.526,1.891-0.816c2.12-0.934,5.017-2.36,8.685-4.265C133.474,301.221,133.75,301.084,134.025,300.928z"/>
		<polygon fill="#4A99D4" points="118.011,286.804 98.869,286.705 98.79,302.052 117.929,302.146 		"/>
		<path fill="#00416D" d="M111.978,303.578c2.597-0.521,4.784-1.607,6.582-3.284c-7.035,1.5-13.601,1.599-19.661,0.349
			c0.769,1.29,2.5,2.229,5.191,2.808C106.751,304.034,109.383,304.081,111.978,303.578"/>
		<path fill="#E06906" d="M202.896,170.79c-0.119-0.009-0.24-0.013-0.354,0c-4.008,0.362-8.297,3.561-12.83,9.633
			c-0.562-2.704-1.85-4.646-3.838-5.817c-0.064-0.028-0.127-0.062-0.189-0.092c-2.846-1.273-5.158-0.391-6.904,2.635
			c-1.453,2.493-2.15,5.452-2.082,8.843c0.041,3.002,0.545,6.237,1.5,9.74l-5.264,4.314c-0.189,0.154-0.316,0.338-0.414,0.564
			c-0.082,0.23-0.111,0.469-0.07,0.701c0.85,5.602,3.938,10.255,9.264,13.97c0.232,0.157,0.494,0.241,0.791,0.253
			c0.277,0,0.541-0.087,0.768-0.253l5.109-3.453c5,0.294,8.936-0.631,11.771-2.805c9.785,0.206,15.094-1.896,15.908-6.287
			c0.057-0.194,0.066-0.404,0.016-0.602c-0.588-3.155-2.564-5.233-5.932-6.278c0.826-0.345,1.879-1.145,3.174-2.426
			c2.035-1.598,3.562-3.607,4.557-6.014c0.898-2.113,0.451-3.884-1.346-5.315l-0.01-0.021c-2.238-1.832-4.826-2.304-7.76-1.387
			c-1.137,0.345-2.254,0.75-3.371,1.175c0.797-1.274,1.406-2.467,1.857-3.565c0.85-2.141,0.871-3.814,0.07-5.046
			C206.656,171.95,205.173,171.128,202.896,170.79 M202.673,173.546c1.121,0.174,1.869,0.536,2.268,1.087
			c0.279,0.619,0.293,1.41,0.029,2.372c-1.141,4.182-2.979,7.802-5.539,10.859c0.916,0.061,1.951-0.553,3.1-1.812
			c0.326-0.141,0.557-0.251,0.709-0.31l0.023-0.015c2.061-0.929,4.164-1.733,6.318-2.418c1.963-0.621,3.705-0.323,5.211,0.911
			l0.012,0.003c0.451,0.372,0.686,0.786,0.713,1.263c0.002,0.231-0.027,0.468-0.133,0.727c-0.312,1.479-1.051,2.783-2.209,3.935
			c-2.326,2.593-5.402,4.895-9.213,6.876c0.932,0.311,1.727,0.453,2.396,0.433c1.635,0.485,3.227,1.206,4.787,2.137
			c1.061,0.724,1.768,1.655,2.148,2.801c-1.107,2.805-5.617,4.084-13.562,3.865c-0.348-0.02-0.646,0.097-0.92,0.32
			c-2.508,2-6.066,2.819-10.713,2.479c-0.324-0.029-0.604,0.055-0.865,0.229l-4.689,3.188c-3.957-2.956-6.363-6.558-7.236-10.815
			l5.324-4.371c0.213-0.183,0.361-0.396,0.451-0.661c0.072-0.265,0.068-0.53-0.002-0.787c-1.047-3.574-1.588-6.872-1.65-9.892
			c-0.047-2.869,0.527-5.341,1.73-7.427c0.883-1.503,2-2.012,3.375-1.509c0.586,0.381,1.076,0.884,1.467,1.487
			c0.174,0.262,0.328,0.537,0.463,0.828c0.25,0.487,0.441,1.019,0.576,1.552c0.291,1.076,0.477,2.161,0.566,3.282
			c0.094,1.174,0.277,2.347,0.553,3.511c0.275,0.98,0.68,2.009,1.215,3.078l0.654,1.184c0.709-0.557,0.783-2.047,0.217-4.456
			c-0.133-0.83-0.184-1.683-0.164-2.571c0.004-0.087-0.016-0.162-0.021-0.233C194.636,177.88,198.832,174.174,202.673,173.546"/>
		<path fill="#FCDF00" d="M204.941,174.633c-0.396-0.551-1.146-0.911-2.268-1.087c-3.842,0.628-8.037,4.334-12.611,11.13
			c0.006,0.072,0.025,0.147,0.021,0.233c-0.02,0.889,0.031,1.741,0.164,2.571c0.566,2.408,0.492,3.899-0.217,4.456l-0.654-1.184
			c-0.535-1.069-0.939-2.098-1.215-3.078c-0.275-1.162-0.459-2.337-0.553-3.513c-0.09-1.119-0.275-2.204-0.566-3.28
			c-0.135-0.533-0.326-1.063-0.576-1.552c-0.135-0.292-0.289-0.566-0.463-0.828c-0.391-0.604-0.881-1.107-1.467-1.488
			c-1.373-0.505-2.492,0.007-3.375,1.51c-1.203,2.086-1.777,4.561-1.725,7.425c0.057,3.021,0.598,6.319,1.645,9.894
			c0.07,0.259,0.074,0.522,0.002,0.789c-0.09,0.263-0.238,0.477-0.451,0.659l-5.324,4.371c0.873,4.258,3.279,7.859,7.234,10.812
			l4.691-3.186c0.262-0.175,0.541-0.259,0.865-0.229c4.646,0.34,8.205-0.482,10.713-2.479c0.273-0.224,0.572-0.34,0.92-0.32
			c7.945,0.219,12.455-1.061,13.562-3.865c-0.381-1.146-1.088-2.077-2.146-2.801c-1.562-0.931-3.154-1.651-4.789-2.137
			c-0.67,0.021-1.465-0.122-2.396-0.433c3.811-1.981,6.887-4.283,9.213-6.876c1.158-1.152,1.896-2.455,2.209-3.935
			c0.105-0.257,0.135-0.497,0.133-0.728c-0.027-0.477-0.262-0.89-0.713-1.262l-0.012-0.003c-1.506-1.234-3.248-1.532-5.211-0.911
			c-2.154,0.685-4.258,1.489-6.318,2.42l-0.023,0.012c-0.152,0.06-0.383,0.17-0.709,0.312c-1.148,1.258-2.184,1.87-3.1,1.811
			c2.561-3.058,4.395-6.678,5.539-10.859C205.234,176.043,205.22,175.249,204.941,174.633"/>
		<path fill="#FFFFFF" d="M183.445,194.801c0.311-0.388,0.588-0.712,0.814-0.953c2.795-2.856,5.699-2.827,8.709,0.113
			c0.531,0.519,0.871,1.122,1.02,1.808c0.119,0.517,0.154,1.083,0.062,1.702c-0.164,1.306-0.822,2.622-1.98,3.978
			c-0.396,0.463-0.848,0.939-1.365,1.419c0.482-0.015,0.928-0.015,1.359,0.023c1.801,0.131,3.23,0.602,4.285,1.415
			c1.166,0.881,1.746,1.95,1.738,3.235c-0.004,0.192-0.004,0.363-0.021,0.552c-0.193,3.849-2.211,5.765-6.043,5.744
			c-0.703-0.006-1.768-0.128-3.174-0.396c-0.125-0.018-0.26-0.052-0.381-0.069c-0.012-0.448-0.045-0.893-0.113-1.36
			c-0.02-0.172-0.029-0.343-0.062-0.497c-0.732-4.898-2.588-8.639-5.549-11.216c-0.424-0.381-0.887-0.727-1.385-1.055
			c-0.189-0.157-0.393-0.294-0.617-0.416c-1.061-0.643-2.225-1.18-3.5-1.599c-1.471-0.509-2.932-0.804-4.387-0.933
			c-0.252-1.411-0.367-2.479-0.365-3.182c0.021-4.021,2.145-6.02,6.357-5.999c1.289,0.008,2.35,0.599,3.215,1.771
			C183.105,190.264,183.56,192.243,183.445,194.801"/>
		
			<path fill="none" stroke="#9F9FA0" stroke-width="1.847" stroke-linecap="round" stroke-linejoin="round" stroke-miterlimit="10" d="
			M188.468,213.372c0.121,0.018,0.258,0.052,0.381,0.069c1.406,0.268,2.471,0.39,3.174,0.396c3.832,0.018,5.85-1.896,6.043-5.746
			c0.018-0.187,0.018-0.357,0.018-0.55c0.012-1.285-0.568-2.354-1.734-3.235c-1.055-0.813-2.484-1.284-4.285-1.415
			c-0.432-0.038-0.877-0.038-1.357-0.023c0.516-0.479,0.967-0.956,1.363-1.419c1.158-1.355,1.816-2.672,1.98-3.978
			c0.092-0.619,0.057-1.186-0.062-1.702c-0.148-0.686-0.488-1.289-1.02-1.809c-3.01-2.939-5.914-2.969-8.715-0.112
			c-0.221,0.237-0.498,0.565-0.809,0.953c0.115-2.558-0.34-4.537-1.383-5.913c-0.865-1.175-1.93-1.764-3.215-1.771
			c-4.211-0.021-6.336,1.979-6.355,5.999c-0.004,0.703,0.111,1.771,0.363,3.182"/>
		<path fill="#374499" d="M137.675,210.567c0.479-0.119,0.977-0.222,1.477-0.32c7.587-1.593,14.268-4.688,20.051-9.275
			c2.953-2.344,5.947-3.823,9.023-4.422c1.533-0.305,3.062-0.381,4.629-0.253c1.457,0.13,2.916,0.424,4.389,0.933
			c1.273,0.419,2.438,0.956,3.498,1.599c0.225,0.122,0.426,0.259,0.617,0.416c0.498,0.328,0.961,0.674,1.385,1.055l-56.959,22.974
			l-0.101-0.262c0.382-7.281,4.149-11.4,11.298-12.362C137.21,210.616,137.451,210.575,137.675,210.567"/>
		<path fill="#53C0DC" d="M125.681,223.321l0.104-0.049l56.959-22.974c2.961,2.577,4.816,6.317,5.549,11.216
			c0.033,0.154,0.043,0.325,0.062,0.497l-54.651,22.038c-0.378-0.102-0.755-0.206-1.116-0.331
			C127.974,232.201,125.673,228.733,125.681,223.321"/>
		<path fill="#FFFFFF" d="M125.785,223.272l-0.104,0.049c0.003-0.018,0-0.035,0-0.049c0.003-0.088,0.006-0.175,0.003-0.262
			L125.785,223.272z"/>
		<path fill="#374499" d="M150.91,236.187c-6.924-0.107-12.66-0.825-17.206-2.137l54.651-22.038c0.068,0.468,0.102,0.912,0.113,1.36
			c0.045,1.273-0.08,2.491-0.363,3.674c-1.176,4.927-5.197,9.061-12.037,12.446C166.816,234.05,158.419,236.273,150.91,236.187"/>
		
			<path fill="none" stroke="#181E6B" stroke-width="1.847" stroke-linecap="round" stroke-linejoin="round" stroke-miterlimit="10" d="
			M137.675,210.567c-0.225,0.008-0.465,0.049-0.693,0.081c-7.148,0.962-10.916,5.081-11.298,12.362c0.003,0.087,0,0.174-0.003,0.262
			c0,0.018,0.003,0.031,0,0.049c-0.008,5.412,2.293,8.88,6.906,10.397c0.361,0.125,0.738,0.229,1.116,0.331
			c4.546,1.312,10.281,2.029,17.206,2.137c7.51,0.087,15.906-2.137,25.158-6.694c6.84-3.386,10.861-7.52,12.037-12.446
			c0.283-1.183,0.408-2.4,0.363-3.674c-0.012-0.448-0.045-0.893-0.113-1.36c-0.02-0.172-0.029-0.343-0.064-0.497
			c-0.73-4.898-2.586-8.639-5.547-11.216c-0.424-0.381-0.887-0.727-1.385-1.055c-0.191-0.157-0.393-0.294-0.617-0.416
			c-1.061-0.643-2.225-1.18-3.498-1.599c-1.473-0.509-2.932-0.803-4.389-0.933c-1.566-0.128-3.096-0.052-4.629,0.253
			c-3.076,0.599-6.07,2.078-9.023,4.422c-5.783,4.587-12.464,7.683-20.051,9.275C138.652,210.346,138.154,210.448,137.675,210.567z"
			/>
		<path fill="#E06906" d="M42.993,249.633l0.683,1.035l1.085,0.843c-0.924,1.5-1.833,3.052-2.699,4.656
			c-0.449-0.102-0.926-0.188-1.379-0.244c0.025,0.003,0.051-0.018,0.053-0.041c-0.013,0.009-0.013,0.009-0.023-0.002
			c-0.01-0.015-0.01-0.015-0.023-0.004c-0.168-0.022-0.359-0.043-0.535-0.078c-0.327-0.029-0.651-0.058-0.975-0.084
			c-0.167-0.023-0.324-0.029-0.458-0.035c-6.305-0.462-11.394,1.822-15.271,6.854c-1.346,1.741-2.305,3.525-2.911,5.356l0.01,0.015
			c-0.143,0.479-0.275,0.95-0.384,1.425c-0.171,0.805-0.254,1.471-0.251,2.058c0.026,0.947,0.353,1.561,0.938,1.837
			c0.185,0.069,0.347,0.14,0.508,0.209c0.709,0.247,1.376,0.352,1.984,0.332c1.115-0.07,2.039-0.66,2.75-1.797
			c0.376-0.878,0.699-1.628,0.997-2.268c0.004-0.025,0.03-0.046,0.033-0.072c0.08-0.146,0.146-0.285,0.201-0.436l-0.012-0.015
			c0.204-0.372,0.379-0.704,0.512-1.003c-0.099,0.316-0.204,0.68-0.336,1.066l-0.003,0.021c-0.043,0.14-0.074,0.294-0.093,0.459
			c-0.018,0.035-0.034,0.07-0.038,0.094c-0.379,1.485-0.564,2.993-0.566,4.484c-0.029,2.593,0.466,4.477,1.483,5.671
			c0.625,0.725,1.418,1.184,2.416,1.384c0.141,0.038,0.271,0.067,0.401,0.096c0.947,0.104,1.776-0.63,2.492-2.18
			c0.226-0.459,0.454-1.026,0.656-1.68c0.799-3.41,1.327-5.425,1.552-6.049c-0.259,2.081-0.398,3.897-0.457,5.43
			c-0.018,1.724,0.052,3.115,0.262,4.186c0.213,1.215,0.59,2.197,1.129,2.921c0.802,1.081,1.946,1.637,3.44,1.64
			c0.243,0.006,0.475-0.003,0.71-0.032c1.275-0.11,2.418-1.887,3.421-5.287c0.898-3.143,1.193-5.229,0.887-6.264
			c0.349,0.7,0.752,1.357,1.191,1.944c0.477,0.646,0.977,1.224,1.493,1.753c0.131,0.139,0.265,0.253,0.394,0.363
			c0.359,0.349,0.722,0.648,1.068,0.897c1.304,0.841,2.477,0.875,3.543,0.11c0.08-0.061,0.161-0.125,0.227-0.18
			c1.714-1.462,1.896-4.52,0.542-9.171c-0.471-1.686-1.087-3.278-1.814-4.764c-0.195-0.39-0.414-0.782-0.621-1.183
			c-0.397-0.619-0.795-1.242-1.19-1.857l1.275-2.942c0.599-1.392,1.315-2.775,2.145-4.18c1.055,0.306,2.093,0.55,3.136,0.753
			c-1.052,1.729-2.155,3.694-3.315,5.895c1.362,2.718,2.328,5.012,2.899,6.878c1.042,3.356,1.481,5.999,1.289,7.94
			c-0.204,2.322-0.923,3.919-2.124,4.791c-1.132,0.9-2.492,1.383-4.098,1.424l-0.013,0.012c-1.746,0.061-3.118-0.616-4.135-2.006
			c-0.041-0.081-0.102-0.16-0.143-0.238c-0.06-0.104-0.096-0.206-0.131-0.311c-0.009,0.075-0.017,0.147-0.055,0.244
			c-0.116,0.54-0.247,1.119-0.408,1.74c-1.065,4.096-3.064,6.218-5.962,6.381c-2.95,0.287-5.05-0.904-6.332-3.581
			c-0.282-0.579-0.512-1.181-0.689-1.794c-0.024-0.003-0.035-0.018-0.032-0.04c-0.016,0.034-0.042,0.058-0.07,0.075
			c-1.023,1.209-2.102,1.572-3.257,1.093c-3.482-0.613-5.334-3.215-5.58-7.796c-0.932,0.576-2.186,0.494-3.724-0.229
			c-2.872-1.328-4.013-3.593-3.408-6.808c0.552-2.677,1.811-5.305,3.767-7.865c5.059-6.537,11.645-9.318,19.743-8.328
			c0.602-1.221,1.258-2.427,1.965-3.606L42.993,249.633L42.993,249.633z M52.466,260.478c0.033,0.038,0.055,0.067,0.071,0.116
			C52.521,260.545,52.5,260.516,52.466,260.478"/>
		<path fill="#FCDF00" d="M44.762,251.511l0.302,0.221c2.832,1.36,5.625,2.418,8.369,3.194c-0.829,1.404-1.543,2.785-2.144,4.18
			l-1.273,2.938c0.397,0.619,0.793,1.242,1.19,1.861c0.207,0.4,0.424,0.79,0.621,1.183c0.725,1.485,1.343,3.078,1.814,4.764
			c1.354,4.651,1.168,7.709-0.542,9.171c-0.067,0.055-0.146,0.119-0.229,0.18c-1.064,0.768-2.237,0.73-3.542-0.11
			c-0.346-0.249-0.708-0.549-1.066-0.897c-0.132-0.11-0.263-0.225-0.394-0.363c-0.516-0.529-1.016-1.107-1.496-1.753
			c-0.436-0.587-0.838-1.244-1.19-1.944c0.308,1.034,0.014,3.121-0.885,6.264c-1.003,3.4-2.145,5.177-3.423,5.284
			c-0.234,0.032-0.466,0.041-0.709,0.035c-1.494-0.003-2.638-0.559-3.44-1.64c-0.541-0.724-0.917-1.706-1.131-2.921
			c-0.208-1.07-0.279-2.462-0.26-4.186c0.058-1.532,0.196-3.349,0.457-5.43c-0.226,0.624-0.751,2.639-1.551,6.049
			c-0.204,0.653-0.432,1.221-0.659,1.68c-0.715,1.55-1.544,2.284-2.491,2.18c-0.129-0.028-0.26-0.058-0.401-0.096
			c-0.997-0.2-1.789-0.659-2.416-1.384c-1.017-1.194-1.513-3.078-1.483-5.671c0.002-1.491,0.187-2.999,0.566-4.484
			c0.004-0.023,0.021-0.059,0.038-0.094c0.019-0.165,0.049-0.319,0.093-0.459l0.003-0.023c0.132-0.384,0.237-0.747,0.336-1.066
			c-0.132,0.302-0.308,0.631-0.512,1.006l0.012,0.015c-0.055,0.15-0.122,0.29-0.201,0.436c-0.004,0.026-0.029,0.047-0.033,0.072
			c-0.297,0.64-0.621,1.39-0.997,2.268c-0.711,1.137-1.635,1.727-2.749,1.797c-0.609,0.02-1.276-0.085-1.985-0.332
			c-0.161-0.069-0.324-0.14-0.51-0.209c-0.584-0.276-0.909-0.89-0.939-1.84c0-0.584,0.083-1.253,0.256-2.055
			c0.107-0.475,0.24-0.945,0.382-1.425l-0.01-0.015c0.606-1.831,1.565-3.615,2.91-5.356c3.879-5.032,8.968-7.316,15.273-6.854
			c0.132,0.006,0.291,0.012,0.458,0.035c0.324,0.029,0.648,0.055,0.974,0.084c0.177,0.035,0.368,0.056,0.536,0.078l-0.006,0.047
			c0.454,0.056,0.929,0.143,1.379,0.244C42.929,254.565,43.837,253.011,44.762,251.511 M47.244,260.013l-0.016,0.035L47.244,260.013
			z"/>
		<path fill="#D72C1B" d="M40.684,255.923l0.006-0.047c0.013-0.011,0.013-0.011,0.023,0.004c0.01,0.011,0.01,0.011,0.023,0.002
			C40.735,255.905,40.707,255.926,40.684,255.923"/>
		<path fill="#D72629" d="M51.224,282.606l-0.013,0.012L51.224,282.606z"/>
		<polygon fill="#9D0D27" points="51.21,282.618 51.224,282.606 51.233,282.621 		"/>
		<path fill="#FFFFFF" d="M34.856,248.593c-1.359,0.421-2.357,0.775-2.996,1.102c-3.565,1.822-4.403,4.615-2.5,8.351
			c0.578,1.14,1.588,1.831,3.032,2.063c1.304,0.247,2.783,0.015,4.436-0.7c0.396-0.166,0.792-0.375,1.205-0.59
			c-0.225,0.647-0.417,1.267-0.558,1.866c-0.404,1.734-0.377,3.211,0.064,4.433c0.491,1.363,1.363,2.227,2.579,2.61
			c3.998,1.224,6.583-0.067,7.755-3.878c0.104-0.323,0.209-0.718,0.298-1.218c1.071,2.325,2.369,3.857,3.911,4.609
			c1.304,0.657,2.521,0.698,3.659,0.103c3.738-1.904,4.716-4.651,2.896-8.218c-0.323-0.637-0.904-1.515-1.775-2.653
			c-1.343,0.561-2.786,0.947-4.318,1.177c-1.324,0.218-2.596,0.282-3.834,0.187c-0.255-0.012-0.496-0.035-0.737-0.088
			c-1.083-0.125-2.146-0.39-3.157-0.753c-3.208-1.168-6.083-3.487-8.592-6.955c-0.375-0.497-0.698-1.018-0.99-1.55
			c-0.068,0.018-0.137,0.053-0.205,0.07c-0.051,0.015-0.121,0.018-0.171,0.032H34.856z"/>
		
			<path fill="none" stroke="#9F9FA0" stroke-width="1.847" stroke-linecap="round" stroke-linejoin="round" stroke-miterlimit="10" d="
			M56.861,256.473c0.871,1.139,1.452,2.017,1.775,2.653c1.821,3.566,0.843,6.313-2.894,8.218c-1.139,0.596-2.357,0.555-3.661-0.103
			c-1.543-0.746-2.84-2.284-3.911-4.609c-0.088,0.5-0.193,0.895-0.298,1.218c-1.17,3.811-3.757,5.102-7.753,3.878
			c-1.217-0.384-2.089-1.247-2.582-2.613c-0.44-1.219-0.466-2.695-0.064-4.428c0.143-0.602,0.334-1.221,0.56-1.868
			c-0.413,0.215-0.81,0.424-1.205,0.59c-1.652,0.715-3.133,0.947-4.436,0.7c-1.443-0.232-2.454-0.924-3.032-2.063
			c-1.904-3.735-1.065-6.528,2.5-8.351c0.638-0.326,1.637-0.681,2.996-1.102c0.052-0.015,0.121-0.018,0.173-0.032
			c0.068-0.018,0.137-0.053,0.207-0.07"/>
		<path fill="#374499" d="M58.076,211.116c-6.702,3.352-13.106,9.142-19.216,17.411c-4.516,6.124-6.191,11.633-4.998,16.536
			c0.285,1.122,0.709,2.221,1.304,3.308l33.638-41.751C65.535,207.684,61.952,209.192,58.076,211.116"/>
		<path fill="#374499" d="M86.445,211.262c-0.632-1.291-1.346-2.378-2.149-3.273l-39.48,49.007c1.01,0.363,2.074,0.628,3.157,0.753
			c0.241,0.056,0.481,0.076,0.737,0.088c1.237,0.096,2.51,0.034,3.834-0.184c1.53-0.232,2.975-0.619,4.316-1.18
			c1.449-0.593,2.776-1.375,3.984-2.317c2.449-1.944,4.44-4.63,5.986-8.062c3.005-6.7,7.522-12.487,13.509-17.354
			c0.398-0.322,0.795-0.645,1.174-0.971c0.189-0.122,0.381-0.259,0.571-0.393c3.119-2.186,5.007-4.717,5.639-7.583
			C88.268,217.231,87.855,214.378,86.445,211.262"/>
		<path fill="#53C0DC" d="M84.294,207.988c-2.032-2.299-4.552-3.356-7.595-3.186c-0.41,0.018-0.841,0.064-1.271,0.128
			c-2.046,0.334-4.266,0.896-6.625,1.689l-33.638,41.751c0.019,0.035,0.054,0.067,0.068,0.119c0.291,0.532,0.616,1.053,0.99,1.55
			c2.508,3.468,5.384,5.787,8.592,6.955L84.294,207.988z"/>
		
			<path fill="none" stroke="#181E6B" stroke-width="1.847" stroke-linecap="round" stroke-linejoin="round" stroke-miterlimit="10" d="
			M38.861,228.527c-4.517,6.124-6.194,11.633-5,16.536c0.285,1.122,0.709,2.221,1.304,3.308c0.018,0.035,0.054,0.067,0.07,0.119
			c0.289,0.532,0.615,1.053,0.988,1.553c2.508,3.465,5.384,5.784,8.592,6.952c1.009,0.363,2.074,0.628,3.157,0.753
			c0.241,0.053,0.481,0.073,0.737,0.088c1.237,0.096,2.51,0.034,3.834-0.184c1.53-0.232,2.975-0.619,4.318-1.18
			c1.449-0.593,2.774-1.375,3.982-2.317c2.449-1.947,4.44-4.63,5.988-8.062c3.007-6.7,7.521-12.487,13.507-17.354
			c0.398-0.322,0.793-0.645,1.174-0.971c0.189-0.122,0.381-0.259,0.57-0.393c3.122-2.186,5.008-4.72,5.639-7.583
			c0.545-2.562,0.134-5.415-1.276-8.531c-0.629-1.291-1.346-2.378-2.151-3.273c-2.032-2.299-4.552-3.356-7.595-3.186
			c-0.41,0.018-0.841,0.064-1.27,0.128c-2.048,0.334-4.267,0.896-6.626,1.689c-3.27,1.063-6.851,2.572-10.727,4.496
			C51.375,214.468,44.97,220.258,38.861,228.527z"/>
		<path fill="#53C0DC" d="M138.838,197.023c-0.292-0.256-0.565-0.496-0.858-0.724l-0.65-0.021l-15.877,13.648l-0.553,106.67
			c5.881-0.675,11.66-1.846,17.342-3.518L138.838,197.023z"/>
		<path fill="#374499" d="M148.464,243.159c-0.873-8.112-1.51-17.138-1.923-27.069c-0.354-8.456-2.914-14.812-7.703-19.066
			l-0.597,116.057c0.461-0.14,0.927-0.273,1.392-0.424c3.494-1.082,6.714-2.579,9.698-4.468c2.947-1.878,5.637-4.148,8.074-6.816
			c-0.402-1.657-0.787-3.305-1.141-4.956c-1.828-8.647-3.352-17.353-4.539-26.14C150.501,261.248,149.414,252.223,148.464,243.159"
			/>
		<polygon fill="#FFFFFF" points="121.453,209.928 137.332,196.277 78.999,195.568 94.442,209.616 107.746,221.711 		"/>
		<path fill="#374499" d="M111.617,317.237c3.111-0.07,6.205-0.297,9.283-0.64l0.554-106.67l-13.708,11.783L94.44,209.616
			L93.888,316.37c1.032,0.125,2.062,0.233,3.093,0.344C101.841,317.188,106.721,317.364,111.617,317.237"/>
		<path fill="#53C0DC" d="M78.999,195.568l-1.615-0.027c0.079,1.269,0.039,1.991-0.132,2.165c-0.018,0.015-0.054,0.047-0.068,0.067
			l-0.594,114.848c1.991,0.732,4.049,1.343,6.178,1.819c0.152,0.035,0.307,0.07,0.46,0.102c3.535,0.762,7.091,1.384,10.66,1.828
			l0.554-106.754L78.999,195.568z"/>
		<path fill="#374499" d="M70.421,215.694c-0.512,9.926-1.247,18.949-2.201,27.05c-1.043,9.049-2.224,18.067-3.542,27.081
			c-1.282,8.775-2.892,17.461-4.809,26.091c-0.369,1.648-0.772,3.296-1.195,4.944c0.977,1.023,1.987,1.988,3.01,2.904
			c4.43,3.889,9.399,6.854,14.904,8.856l0.593-114.848C73.07,201.96,70.823,207.934,70.421,215.694"/>
		
			<path fill="none" stroke="#181E6B" stroke-width="1.847" stroke-linecap="round" stroke-linejoin="round" stroke-miterlimit="10" d="
			M78.999,195.568l-1.615-0.027c0.079,1.269,0.041,1.991-0.134,2.165c-0.016,0.015-0.051,0.047-0.068,0.067
			c-4.111,4.187-6.358,10.16-6.761,17.921c-0.513,9.926-1.249,18.945-2.201,27.05c-1.043,9.049-2.224,18.067-3.543,27.081
			c-1.282,8.775-2.889,17.461-4.806,26.091c-0.371,1.648-0.775,3.296-1.196,4.944c0.975,1.023,1.985,1.988,3.01,2.904
			c4.431,3.889,9.399,6.854,14.906,8.856c1.989,0.732,4.047,1.343,6.177,1.819c0.152,0.035,0.307,0.07,0.46,0.102
			c3.535,0.762,7.092,1.384,10.66,1.828c1.031,0.125,2.061,0.233,3.093,0.344c4.86,0.474,9.741,0.65,14.636,0.523
			c3.111-0.07,6.205-0.297,9.285-0.643c5.875-0.672,11.658-1.843,17.34-3.515c0.461-0.14,0.927-0.273,1.392-0.424
			c3.494-1.082,6.715-2.579,9.698-4.468c2.947-1.878,5.637-4.148,8.074-6.816c-0.402-1.657-0.789-3.305-1.141-4.956
			c-1.83-8.647-3.352-17.353-4.539-26.14c-1.227-9.028-2.312-18.054-3.264-27.117c-0.871-8.112-1.508-17.138-1.92-27.069
			c-0.354-8.456-2.916-14.812-7.703-19.066c-0.291-0.256-0.564-0.499-0.859-0.724l-0.648-0.022 M137.332,196.277l-15.879,13.65
			l-13.707,11.783l-13.304-12.095l-15.443-14.048 M137.332,196.277l-58.333-0.709"/>
		<path fill="#9E2287" d="M108.453,241.563c-0.07-0.087-0.137-0.15-0.205-0.227c-0.941-0.95-2.092-1.436-3.413-1.447
			c-1.322,0-2.477,0.477-3.427,1.412c-0.896,0.89-1.366,1.934-1.423,3.157c-0.105,0-0.208-0.006-0.311-0.006
			c-1.356-0.006-2.496,0.456-3.443,1.393c-0.952,0.944-1.421,2.075-1.429,3.43c-0.004,1.256,0.402,2.319,1.24,3.238
			c-0.089,0.066-0.156,0.137-0.241,0.221c-0.952,0.938-1.44,2.09-1.443,3.412c-0.009,1.323,0.465,2.477,1.407,3.431
			c0.869,0.877,1.917,1.363,3.138,1.441c0,0.099-0.001,0.203-0.001,0.308c-0.009,1.357,0.449,2.494,1.391,3.442
			c0.939,0.95,2.069,1.421,3.427,1.427c1.256,0.006,2.324-0.401,3.24-1.218c0.049,0.049,0.118,0.119,0.168,0.174
			c0.941,0.945,2.088,1.434,3.414,1.442c1.322,0.006,2.475-0.472,3.427-1.41c0.88-0.872,1.349-1.897,1.44-3.084
			c0.086,0,0.189,0,0.292,0c1.356,0.006,2.493-0.45,3.444-1.396c0.952-0.936,1.42-2.069,1.429-3.427
			c0.006-1.238-0.386-2.302-1.188-3.203c0.07-0.063,0.141-0.137,0.225-0.221c0.949-0.942,1.438-2.087,1.443-3.413
			c0.009-1.319-0.468-2.473-1.406-3.424c-0.889-0.898-1.955-1.366-3.173-1.424c0.001-0.119,0.001-0.241,0.001-0.363
			c0.009-1.354-0.451-2.494-1.393-3.444c-0.938-0.951-2.068-1.419-3.428-1.428C110.417,240.349,109.349,240.762,108.453,241.563"/>
		<path fill="#9E2287" d="M111.213,275.874c-1.238-0.002-2.307,0.398-3.202,1.204c-0.069-0.085-0.138-0.157-0.206-0.224
			c-0.94-0.951-2.088-1.437-3.413-1.445c-1.322-0.006-2.477,0.469-3.425,1.407c-0.898,0.89-1.368,1.933-1.424,3.153h-0.311
			c-1.357-0.006-2.494,0.451-3.443,1.393c-0.952,0.939-1.42,2.072-1.426,3.427c-0.009,1.256,0.398,2.323,1.237,3.241
			c-0.086,0.07-0.156,0.134-0.243,0.221c-0.948,0.939-1.436,2.087-1.443,3.41c-0.007,1.328,0.467,2.477,1.408,3.43
			c0.872,0.878,1.917,1.366,3.136,1.438c0.001,0.11,0,0.21,0,0.312c-0.007,1.36,0.451,2.49,1.393,3.441
			c0.94,0.953,2.068,1.424,3.428,1.427c1.253,0.009,2.321-0.397,3.237-1.221c0.052,0.056,0.118,0.122,0.17,0.175
			c0.94,0.947,2.087,1.436,3.411,1.444c1.325,0.006,2.479-0.471,3.428-1.407c0.88-0.875,1.35-1.9,1.442-3.09
			c0.087,0.006,0.188,0.006,0.294,0.006c1.357,0.006,2.49-0.45,3.441-1.392c0.951-0.942,1.42-2.073,1.428-3.428
			c0.006-1.241-0.385-2.305-1.187-3.206c0.067-0.069,0.138-0.137,0.224-0.221c0.951-0.941,1.436-2.087,1.446-3.412
			c0.007-1.322-0.47-2.477-1.41-3.43c-0.888-0.893-1.952-1.366-3.171-1.422c-0.002-0.119,0.002-0.241,0.002-0.36
			c0.006-1.36-0.454-2.497-1.392-3.444C113.703,276.354,112.571,275.88,111.213,275.874"/>
		
			<path fill="none" stroke="#59155B" stroke-width="1.847" stroke-linecap="round" stroke-linejoin="round" stroke-miterlimit="10" d="
			M108.248,241.337c-0.941-0.95-2.092-1.436-3.413-1.447c-1.322,0-2.477,0.474-3.427,1.412c-0.897,0.89-1.366,1.934-1.423,3.154
			c-0.106,0-0.208-0.003-0.311-0.003c-1.356-0.006-2.494,0.453-3.443,1.393c-0.952,0.944-1.421,2.075-1.429,3.43
			c-0.004,1.256,0.402,2.319,1.24,3.238c-0.089,0.066-0.156,0.137-0.243,0.221c-0.951,0.938-1.436,2.09-1.442,3.412
			c-0.009,1.323,0.465,2.477,1.407,3.431c0.869,0.877,1.917,1.363,3.138,1.441c0,0.099-0.001,0.203-0.001,0.308
			c-0.009,1.357,0.449,2.494,1.391,3.442c0.939,0.95,2.069,1.421,3.427,1.427c1.256,0.006,2.324-0.401,3.24-1.218
			c0.049,0.049,0.118,0.119,0.168,0.174c0.941,0.945,2.088,1.431,3.414,1.442c1.322,0.006,2.477-0.474,3.427-1.41
			c0.881-0.872,1.349-1.897,1.44-3.084c0.086,0,0.189,0,0.291,0c1.357,0.006,2.494-0.453,3.445-1.396
			c0.951-0.936,1.42-2.069,1.429-3.427c0.005-1.238-0.386-2.305-1.188-3.203c0.07-0.063,0.141-0.137,0.225-0.221
			c0.949-0.942,1.438-2.087,1.443-3.413c0.008-1.319-0.468-2.473-1.406-3.424c-0.889-0.898-1.955-1.366-3.173-1.424
			c0.001-0.119,0.001-0.241,0.001-0.363c0.009-1.354-0.45-2.494-1.393-3.444c-0.938-0.951-2.068-1.419-3.428-1.428
			c-1.236-0.009-2.305,0.404-3.201,1.206C108.382,241.477,108.316,241.413,108.248,241.337z M108.011,277.078
			c-0.068-0.085-0.138-0.157-0.206-0.224c-0.94-0.951-2.088-1.437-3.413-1.445c-1.322-0.006-2.477,0.469-3.425,1.407
			c-0.898,0.89-1.368,1.933-1.424,3.153h-0.311c-1.357-0.006-2.494,0.451-3.443,1.393c-0.951,0.939-1.42,2.072-1.426,3.427
			c-0.007,1.256,0.398,2.323,1.237,3.241c-0.086,0.07-0.156,0.134-0.243,0.221c-0.951,0.939-1.436,2.087-1.443,3.41
			c-0.007,1.328,0.467,2.477,1.408,3.43c0.872,0.878,1.917,1.366,3.136,1.438c0.001,0.11,0,0.21,0,0.314
			c-0.007,1.357,0.451,2.487,1.393,3.438c0.94,0.953,2.068,1.424,3.428,1.427c1.253,0.009,2.321-0.397,3.237-1.221
			c0.052,0.056,0.118,0.122,0.17,0.175c0.94,0.947,2.087,1.436,3.409,1.444c1.327,0.006,2.481-0.471,3.43-1.407
			c0.88-0.875,1.35-1.9,1.442-3.09c0.087,0.006,0.188,0.006,0.295,0.006c1.354,0.006,2.488-0.45,3.44-1.392
			c0.951-0.942,1.42-2.073,1.427-3.428c0.007-1.241-0.384-2.305-1.186-3.206c0.067-0.069,0.138-0.137,0.224-0.221
			c0.951-0.941,1.436-2.087,1.445-3.412c0.008-1.322-0.469-2.477-1.409-3.43c-0.888-0.893-1.952-1.366-3.171-1.422
			c-0.002-0.119,0.002-0.241,0.002-0.36c0.006-1.36-0.454-2.497-1.392-3.444c-0.94-0.947-2.072-1.424-3.43-1.428
			C109.975,275.872,108.908,276.275,108.011,277.078L108.011,277.078z"/>
		<path fill="#E06906" d="M165.869,174.24c2.805-3.629,4.236-8.02,4.266-13.173c0.029-5.156-1.361-9.563-4.123-13.185
			c-2.904-3.864-6.432-5.841-10.588-5.897c-2.709-15.24-8.236-28.463-16.635-39.644c-4.541-6.037-9.429-10.704-14.74-13.994
			c-5.651-3.569-11.347-5.353-17.087-5.349c-5.739-0.063-11.453,1.66-17.141,5.17c-5.309,3.271-10.248,7.886-14.849,13.84
			c-8.373,10.886-14.007,23.812-16.904,38.75c-4.157,0.008-7.708,1.951-10.649,5.785c-2.802,3.593-4.233,7.981-4.261,13.137
			c-0.029,5.156,1.359,9.563,4.122,13.222c2.972,3.933,6.604,5.877,10.9,5.864c0.378,0,0.791,0.002,1.203-0.029
			c2.943,9.055,7.717,15.879,14.258,20.553c5.956,4.257,12.576,7.01,19.819,8.251c3.538,0.602,6.527,0.822,8.967,0.596
			c8.276,0.901,16.528,0.056,24.722-2.552c4.233-1.352,7.576-2.811,10.094-4.349l0.174-0.099l0.137-0.104
			c6.66-5.568,11.68-12.654,15.061-21.227c0.721,0.106,1.51,0.179,2.299,0.184C159.208,180.047,162.859,178.143,165.869,174.24
			 M167.455,161.052c-0.023,4.501-1.252,8.345-3.711,11.527c-2.449,3.183-5.377,4.748-8.814,4.73
			c-0.447-0.003-0.928-0.039-1.375-0.076c3.141-9.296,4.047-19.224,2.697-29.779c-0.137-0.929-0.264-1.859-0.398-2.754
			c3.127,0.224,5.799,1.819,8.016,4.787C166.294,152.693,167.476,156.55,167.455,161.052 M106.946,85.681
			c5.261,0.027,10.473,1.67,15.68,4.927c5.037,3.154,9.721,7.611,14.021,13.341c8.089,10.795,13.419,23.541,16.058,38.227
			c0.166,0.862,0.299,1.756,0.465,2.65c0.135,0.996,0.268,1.959,0.402,2.959c1.283,10.211,0.443,19.762-2.592,28.713
			c-0.105,0.242-0.174,0.518-0.279,0.758c-0.211,0.584-0.418,1.199-0.66,1.78c-3.205,8.062-7.949,14.703-14.23,19.927
			c-2.342,1.468-5.51,2.824-9.472,4.08c-7.918,2.534-15.894,3.316-23.897,2.38c-2.304,0.229-5.157,0.079-8.554-0.523
			c-6.831-1.174-13.075-3.746-18.689-7.8c-5.992-4.29-10.391-10.567-13.166-18.829c-0.237-0.653-0.442-1.342-0.644-2.029
			c-0.067-0.173-0.135-0.381-0.17-0.586c-2.462-8.64-2.965-18.094-1.535-28.36c0.177-1.236,0.356-2.473,0.568-3.676
			c0.178-0.893,0.318-1.783,0.496-2.644c2.824-14.385,8.284-26.83,16.348-37.338c4.36-5.681,9.057-10.092,14.122-13.193
			C96.458,87.24,101.691,85.653,106.946,85.681 M49.542,148.169c2.247-2.908,4.937-4.478,8.03-4.701
			c-0.212,1.135-0.39,2.3-0.532,3.469c-1.465,10.543-0.965,20.272,1.531,29.151c-0.137-0.002-0.275-0.002-0.378-0.002
			c-3.435-0.018-6.35-1.614-8.774-4.825c-2.423-3.207-3.604-7.062-3.58-11.565C45.862,155.196,47.084,151.352,49.542,148.169"/>
		<path fill="#FCDF00" d="M163.746,172.579c2.461-3.183,3.686-7.026,3.709-11.527c0.021-4.502-1.16-8.358-3.584-11.564
			c-2.219-2.968-4.891-4.563-8.018-4.787c0.135,0.895,0.264,1.825,0.398,2.752c1.35,10.558,0.445,20.485-2.695,29.781
			c0.447,0.037,0.926,0.073,1.373,0.076C158.367,177.327,161.294,175.762,163.746,172.579"/>
		<path fill="#FCDF00" d="M122.626,90.607c-5.207-3.257-10.419-4.899-15.68-4.927c-5.255-0.027-10.489,1.56-15.729,4.763
			c-5.065,3.103-9.762,7.513-14.122,13.193c-8.063,10.508-13.523,22.953-16.348,37.34c-0.177,0.858-0.318,1.749-0.496,2.642
			c-0.212,1.203-0.391,2.439-0.568,3.676c-1.43,10.27-0.927,19.721,1.535,28.36c0.035,0.205,0.103,0.411,0.17,0.586
			c0.202,0.688,0.407,1.376,0.644,2.029c2.774,8.262,7.173,14.537,13.166,18.829c5.614,4.054,11.858,6.626,18.689,7.8
			c3.399,0.603,6.25,0.753,8.554,0.523c8.004,0.937,15.979,0.154,23.896-2.38c3.963-1.256,7.131-2.612,9.473-4.08
			c6.281-5.224,11.025-11.865,14.23-19.927c0.242-0.581,0.449-1.196,0.662-1.78c0.102-0.241,0.172-0.516,0.277-0.758
			c3.035-8.951,3.875-18.502,2.592-28.715c-0.135-0.998-0.268-1.961-0.402-2.957c-0.166-0.896-0.299-1.788-0.465-2.65
			c-2.639-14.686-7.969-27.432-16.058-38.227C132.347,98.219,127.664,93.763,122.626,90.607"/>
		<path fill="#FCDF00" d="M57.572,143.468c-3.093,0.224-5.783,1.793-8.03,4.701c-2.458,3.183-3.68,7.027-3.703,11.529
			c-0.025,4.501,1.157,8.355,3.58,11.562c2.424,3.211,5.338,4.808,8.774,4.825c0.103,0,0.241,0,0.378,0.002
			c-2.497-8.882-2.996-18.608-1.531-29.15C57.182,145.767,57.359,144.603,57.572,143.468"/>
		<path fill="#FFFFFF" d="M109.867,139.203c-0.023,4.229,1.367,7.879,4.204,10.916c2.834,3.007,6.298,4.536,10.318,4.557
			c4.021,0.021,7.498-1.474,10.368-4.447c2.865-3.012,4.298-6.646,4.319-10.874c0.019-4.26-1.367-7.911-4.207-10.915
			c-2.835-3.005-6.296-4.532-10.319-4.555c-4.022-0.021-7.5,1.473-10.367,4.446C111.315,131.309,109.888,134.942,109.867,139.203"/>
		<path fill="#FFFFFF" d="M99.647,128.257c-2.837-3.006-6.299-4.535-10.32-4.555c-4.021-0.023-7.5,1.474-10.37,4.447
			c-2.866,2.975-4.329,6.611-4.35,10.871c-0.023,4.228,1.401,7.877,4.239,10.917c2.834,3.003,6.299,4.534,10.319,4.555
			c4.021,0.022,7.498-1.472,10.368-4.447c2.868-3.008,4.293-6.647,4.316-10.872C103.873,134.911,102.484,131.262,99.647,128.257"/>
		<path fill="#F4F4F5" d="M144.24,188.207c2.531-4.502,3.169-8.348,1.936-11.517c-1.241-3.166-6.638-2.903-16.193,0.791
			c-7.248,2.818-14.955,4.357-23.103,4.625c-8.158-0.368-15.83-1.988-23.05-4.862c-9.518-3.794-14.91-4.114-16.183-0.96
			c-1.271,3.156-0.672,7.009,1.815,11.539c2.469,4.53,7.431,8.613,14.868,12.258c5.863,2.885,11.989,4.6,18.359,5.132l2.988,0.151
			c0.722,0.023,1.446,0.025,2.168,0.014l3.007-0.121c6.376-0.469,12.505-2.122,18.396-4.943
			C136.718,196.744,141.724,192.714,144.24,188.207"/>
		<path fill="#D72629" d="M78.496,182.114l-5.247-2.362c3.303,8.898,10.112,14.897,20.424,17.975
			c5.164,1.555,10.005,2.215,14.525,1.962c9.989-0.497,18.373-3.905,25.144-10.247c3.398-3.158,5.803-6.274,7.195-9.344
			c-15.635,6.811-31.544,8.808-47.734,5.973C87.739,185.17,82.969,183.854,78.496,182.114"/>
		<path fill="#E17C9E" d="M106.933,195.148c3.764,0,6.486-1.151,8.18-3.446c0.85-1.131,1.578-2.811,2.211-5.058
			c-6.811,0.896-13.668,0.908-20.57,0.03c0.589,2.185,1.302,3.821,2.104,4.941C100.564,193.966,103.256,195.146,106.933,195.148"/>
		<path fill="#D72629" d="M72.125,157.819c-1.822-0.011-3.405,0.634-4.684,1.899c-1.279,1.265-1.942,2.844-1.95,4.664
			c-0.009,1.82,0.636,3.405,1.899,4.684c1.267,1.279,2.843,1.938,4.665,1.949c1.82,0.009,3.407-0.638,4.683-1.901
			c1.281-1.264,1.94-2.841,1.949-4.664c0.01-1.819-0.637-3.404-1.901-4.684C75.521,158.489,73.945,157.828,72.125,157.819"/>
		<path fill="#D72629" d="M146.48,160.132c-1.263-1.281-2.842-1.94-4.666-1.951c-1.822-0.009-3.404,0.637-4.684,1.899
			c-1.277,1.267-1.938,2.843-1.947,4.664c-0.01,1.822,0.634,3.407,1.9,4.683c1.264,1.282,2.842,1.943,4.663,1.952
			c1.821,0.007,3.408-0.637,4.681-1.902c1.281-1.263,1.942-2.842,1.953-4.662C148.386,162.993,147.744,161.41,146.48,160.132"/>
		<path fill="none" stroke="#332C2A" stroke-width="4.1567" stroke-linecap="round" stroke-miterlimit="10" d="M76.942,115.633
			c19.052-5.758,38.743-5.656,59.108,0.308"/>
		<path fill="#1A1414" d="M128.25,134.704c-1.423-1.469-3.1-2.213-5.074-2.227c-1.977-0.008-3.67,0.722-5.1,2.175
			c-1.399,1.487-2.115,3.271-2.125,5.349c-0.01,2.08,0.686,3.87,2.072,5.338c1.418,1.503,3.098,2.25,5.072,2.259
			c1.977,0.012,3.663-0.718,5.098-2.206c1.399-1.453,2.113-3.238,2.123-5.313c0.014-2.081-0.684-3.872-2.063-5.374H128.25z"/>
		<path fill="#1A1414" d="M95.546,134.437c-1.421-1.467-3.097-2.212-5.074-2.224c-1.975-0.009-3.667,0.718-5.097,2.171
			c-1.401,1.488-2.114,3.273-2.125,5.352c-0.012,2.078,0.686,3.868,2.069,5.338c1.417,1.503,3.096,2.248,5.072,2.26
			c1.979,0.009,3.666-0.721,5.1-2.209c1.398-1.453,2.111-3.236,2.122-5.313C97.626,137.731,96.931,135.938,95.546,134.437"/>
		<path fill="#E38100" d="M119.896,179.747c3.338-4.364,5.033-9.63,5.066-15.816c0.027-6.185-1.609-11.47-4.908-15.833
			c-3.322-4.397-7.334-6.603-12.059-6.624c-4.724-0.026-8.756,2.136-12.095,6.499c-3.34,4.331-5.035,9.598-5.063,15.782
			c-0.035,6.188,1.606,11.47,4.899,15.869c3.296,4.364,7.303,6.566,12.029,6.589C112.49,186.239,116.521,184.077,119.896,179.747"/>
		<path fill="#332C2A" d="M89.817,60.365c-0.555,1.302-1.331,3.153-1.547,4.647c-0.641,4.619-2.661,3.796,0.498,7.525
			c0.273,0.325,0.666,0.845,1.163,1.553c-4.998-0.853-8.805-2.814-11.451-5.904c-0.185-0.327-0.326-0.003-0.452,0.961
			c-0.09,1.032-0.061,2.217,0.12,3.575c0.511,3.988,1.921,7.02,4.25,9.095L82.98,82.3c-1.927,0.267-3.869,0.272-5.844,0.043
			c-1.256-0.13-2.506-0.412-3.744-0.883c-0.909-0.347-2.144-0.903-3.667-1.667c-0.19-0.14,0.85,1.396,3.104,4.587
			c2.321,3.257,4.008,5.363,5.083,6.314c2.673,2.368,5.276,3.789,7.816,4.268c5.424,1.007,10.461,0.449,15.132-1.674
			c1.043,0.707,2.239,1.3,3.563,1.771c1.251,0.436,2.452,0.7,3.572,0.775c1.458,0.091,2.833-0.039,4.09-0.427
			c1.442-0.423,2.602-1.14,3.448-2.149c1.111,0.95,2.413,1.646,3.873,2.117c1.438,0.438,2.896,0.599,4.395,0.47
			c1.459-0.112,2.904-0.398,4.334-0.871c0.965-0.287,2.34-0.829,4.133-1.594c1.635-0.679,4.422-1.317,8.357-1.917
			c3.371-0.479,5.025-0.744,4.955-0.798c-1.299-1.124-2.789-1.888-4.489-2.257c-1.39-0.335-3.11-0.445-5.153-0.335
			c-0.891,0.012-1.838,0.144-2.82,0.362c0.965-0.545,1.846-1.176,2.658-1.911c1.743-1.571,3.127-3.473,4.115-5.718
			c0.557-1.218,1.308-3.447,2.238-6.725c-1.367,1.179-2.918,2.462-4.663,3.826c-3.519,2.749-6.174,4.314-7.962,4.702
			c-0.496,0.118-1.326,0.231-2.442,0.363c1.324-3.069,2.363-5.176,3.126-6.34c0.832-1.233,2.596-3.081,5.286-5.541l3.623-3.279
			c-1.245-0.677-5.079,3.465-6.936,3.524c-1.67,0.06-1.188-4.031-3.062-3.371c0.831-1.491,1.138-3.827,0.895-7.042
			c-0.242-3.229-0.438-4.658-0.631-4.264c-0.746,1.597-1.771,3.101-3.079,4.521c-1.312,1.386-2.767,2.548-4.352,3.449
			c-1.152,0.684-2.67,1.343-4.548,2.003c0.011-2.044,0.231-3.831,0.646-5.357c0.896-3.104,2.282-6.156,4.21-9.153
			c0.465-0.566,0.829-1.127,1.106-1.68c0.087-0.154-0.978,0.186-3.2,1.016c-2.293,0.865-4.027,1.61-5.201,2.243
			c-2.668,1.427-4.602,2.859-5.83,4.299c-0.483,0.632-0.918,1.248-1.281,1.815c-0.699-0.847-1.521-2.02-2.458-3.518
			c-1.227-1.983-2.075-4.188-2.541-6.647c-0.215-1.993-0.347-2.976-0.398-2.958c-1.222,0.407-2.394,1.244-3.517,2.49
			c-2.28,2.48-3.33,5.945-3.146,10.4c0.057,2.198,0.338,4.416,0.859,6.636c-1.734-0.56-3.104-1.167-4.08-1.843
			c-1.232-0.883-4.238-2.431-3.855-5.519c0.084-0.689,0.977,1.747,0.86,0.988c-0.053-0.205,2.258,4.415-0.387-0.128L89.817,60.365z"
			/>
		<path fill="#E50212" d="M152.816,213.302c-0.129-8.624-1.117-13.546-2.947-14.762c-1.835-1.209-4.285-1.566-7.367-1.052
			c-4.662,0.479-10.171,2.974-16.568,7.46c-6.383,4.488-10.732,8.246-13.049,11.258l1.479,0.009
			c1.837,0.012,2.742,0.924,2.732,2.761l-0.026,5.14c1.464-0.628,3.116-1.34,4.978-2.104c5.271-2.209,9.059-3.753,11.365-4.65
			c-2.307,0.897-6.094,2.441-11.365,4.65c-1.861,0.765-3.514,1.477-4.978,2.104l-0.012,2.369c1.494,0.697,3.327,1.581,5.536,2.674
			c1.899,0.956,3.756,1.912,5.568,2.831c-1.812-0.919-3.669-1.875-5.568-2.831c-2.209-1.093-4.042-1.977-5.536-2.674l-0.021,4.348
			c-0.012,1.773-0.855,2.675-2.54,2.735c-0.087,0-0.155,0-0.226,0l-0.842-0.006c6.471,8.13,14.723,13.81,24.74,17.057
			c6.674,2.18,10.818-1.337,12.426-10.557C152.21,230.841,152.941,221.929,152.816,213.302"/>
		<path fill="#E50212" d="M99.742,218.886c0.01-1.837,0.924-2.741,2.766-2.735l0.994,0.009c-2.288-3.037-6.598-6.839-12.931-11.391
			c-6.35-4.554-11.837-7.105-16.493-7.632c-3.069-0.548-5.53-0.217-7.374,0.977c-1.846,1.191-2.885,6.103-3.1,14.729
			c-0.216,8.621,0.423,17.545,1.94,26.779c1.514,9.237,5.62,12.801,12.315,10.686c9.966-3.128,18.224-8.656,24.778-16.609
			l-0.224-0.191c-0.122,0-0.257,0-0.378-0.015c-1.58-0.131-2.363-1.05-2.355-2.75l0.021-4.43c-1.533,0.691-3.444,1.596-5.735,2.703
			c-1.913,0.937-3.77,1.866-5.598,2.771c1.828-0.904,3.686-1.834,5.598-2.771c2.291-1.107,4.202-2.012,5.735-2.703l0.013-2.218
			c-1.493-0.663-3.208-1.41-5.127-2.227c-5.245-2.259-9.021-3.843-11.317-4.767c2.296,0.924,6.072,2.508,11.317,4.767
			c1.92,0.816,3.635,1.563,5.127,2.227L99.742,218.886z"/>
		<path fill="#E50212" d="M102.508,216.15c-1.841-0.006-2.756,0.898-2.766,2.735l-0.026,5.209l-0.012,2.215l-0.023,4.433
			c-0.007,1.7,0.777,2.619,2.355,2.747c0.121,0.018,0.259,0.018,0.379,0.018h0.359l10.653,0.055l0.843,0.006
			c0.07,0,0.139,0,0.205-0.021c1.582-0.107,2.379-1.011,2.387-2.715l0.027-4.433l0.009-2.218l0.026-5.206
			c0.008-1.77-0.845-2.703-2.562-2.761l-1.479-0.012l-9.383-0.044L102.508,216.15z"/>
		
			<path fill="none" stroke="#7F050B" stroke-width="1.847" stroke-linecap="round" stroke-linejoin="round" stroke-miterlimit="10" d="
			M116.884,226.399c0.055,0.018,0.121,0.053,0.172,0.085 M133.412,217.36c-2.308,0.897-6.094,2.441-11.365,4.65
			c-1.861,0.765-3.514,1.477-4.978,2.104 M117.069,224.115l0.026-5.14c0.01-1.837-0.896-2.752-2.732-2.761 M117.056,226.484
			l-0.02,4.348c-0.012,1.773-0.855,2.675-2.54,2.735 M128.162,231.989c-1.812-0.919-3.669-1.875-5.568-2.831
			c-2.209-1.093-4.042-1.977-5.537-2.674 M117.069,224.115l-0.013,2.369 M103.5,216.159l-0.993-0.009
			c-1.841-0.006-2.756,0.898-2.767,2.735l-0.023,5.206 M99.717,224.092c-1.494-0.66-3.209-1.407-5.129-2.224
			c-5.245-2.259-9.018-3.846-11.317-4.767 M103.5,216.159l9.384,0.047 M114.363,216.215c1.718,0.058,2.569,0.991,2.561,2.761
			l-0.023,5.206 M114.363,216.215l-1.479-0.012 M102.775,233.507c-0.051,0.052-0.086,0.122-0.135,0.191
			c-6.555,7.953-14.814,13.481-24.78,16.609c-6.695,2.109-10.801-1.448-12.317-10.686c-1.516-9.234-2.157-18.158-1.939-26.779
			c0.214-8.627,1.254-13.538,3.1-14.729c1.844-1.193,4.303-1.524,7.374-0.974c4.652,0.52,10.143,3.075,16.491,7.629
			c6.334,4.552,10.646,8.354,12.931,11.391 M114.273,233.567l-0.844-0.006 M114.497,233.567c-0.087,0-0.157,0-0.224,0
			 M114.273,233.567c0.066,0,0.137,0,0.203-0.021 M114.497,233.567l-0.021-0.021 M114.476,233.547
			c1.582-0.107,2.381-1.011,2.387-2.715l0.021-4.433 M99.703,226.312l-0.021,4.43c-0.007,1.7,0.776,2.619,2.354,2.747
			c0.122,0.018,0.26,0.018,0.379,0.018h0.361 M88.37,231.786c1.828-0.904,3.686-1.834,5.601-2.771
			c2.289-1.107,4.197-2.012,5.732-2.703 M113.429,233.562l-10.654-0.055 M99.717,224.092l-0.015,2.221 M116.884,226.399l0.016-2.218
			 M116.9,224.182c0.05-0.018,0.119-0.046,0.169-0.066 M112.884,216.206c2.316-3.012,6.666-6.77,13.047-11.258
			c6.399-4.486,11.908-6.98,16.57-7.46c3.082-0.515,5.532-0.157,7.367,1.052c1.83,1.216,2.818,6.138,2.947,14.762
			c0.125,8.627-0.605,17.539-2.221,26.76c-1.607,9.22-5.752,12.736-12.427,10.557c-10.017-3.247-18.269-8.927-24.739-17.057"/>
		<path fill="#E40012" d="M116.054,42.612c-0.496-0.19-1.01-0.349-1.512-0.487c-4.131-1.069-8.207-0.886-12.202,0.573
			c-0.5,0.203-0.98,0.406-1.478,0.61c-1.329,0.68-2.603,1.533-3.865,2.557c-0.362,0.29-0.708,0.581-1.033,0.889
			c-6.305,6.032-9.314,13.373-9.05,22.033c4.546,1.312,9.146,2.091,13.803,2.373l13.677,0.157c5.516-0.059,10.95-0.82,16.303-2.305
			c0.372-9.224-2.971-16.993-10.072-23.302c-0.597-0.533-1.21-1.036-1.829-1.47C117.886,43.602,116.978,43.048,116.054,42.612"/>
		
			<path fill="none" stroke="#7F050B" stroke-width="1.847" stroke-linecap="round" stroke-linejoin="round" stroke-miterlimit="10" d="
			M86.915,68.787c-0.266-8.662,2.744-16.001,9.05-22.034c0.327-0.307,0.671-0.598,1.035-0.888c1.259-1.023,2.535-1.877,3.863-2.557
			c0.498-0.204,0.978-0.407,1.477-0.61c3.997-1.459,8.07-1.646,12.203-0.573c0.5,0.14,1.016,0.297,1.512,0.488
			c0.926,0.435,1.833,0.988,2.741,1.63c0.618,0.432,1.232,0.935,1.829,1.471c7.102,6.308,10.444,14.074,10.072,23.299"/>
		<path fill="#EBE600" d="M86.915,68.787c0.044,1.358,0.156,2.75,0.374,4.179c3.506,3.23,7.979,5.418,13.386,6.58
			c4,1,8.052,1.262,12.164,0.749c0.496-0.083,1.016-0.148,1.511-0.234c0.363-0.045,0.739-0.114,1.118-0.181
			c6.039-1.019,10.98-3.243,14.812-6.693c0.228-1.425,0.357-2.815,0.418-4.174c-5.353,1.484-10.785,2.248-16.303,2.305
			l-13.677-0.154C96.062,70.878,91.461,70.097,86.915,68.787L86.915,68.787z"/>
		
			<path fill="none" stroke="#7F050B" stroke-width="1.847" stroke-linecap="round" stroke-linejoin="round" stroke-miterlimit="10" d="
			M130.279,73.187c0.228-1.425,0.357-2.816,0.418-4.174c-5.353,1.484-10.787,2.248-16.303,2.305l-13.677-0.154
			c-4.657-0.285-9.256-1.065-13.803-2.376c0.044,1.358,0.156,2.75,0.374,4.179"/>
		<path fill="#E40012" d="M137.751,67.056c-0.549-0.227-1.268-0.421-2.162-0.613c-1.439,2.607-3.22,4.848-5.311,6.744
			c-3.833,3.453-8.773,5.675-14.814,6.693c-0.377,0.066-0.756,0.135-1.116,0.181c-0.495,0.086-1.015,0.152-1.511,0.235
			c-4.111,0.512-8.164,0.25-12.164-0.75c-5.407-1.162-9.88-3.35-13.386-6.58c-2.069-1.919-3.827-4.179-5.244-6.798
			c-0.891,0.185-1.613,0.369-2.166,0.589c-1.36,0.509-2.411,1.295-3.19,2.37c-0.209,0.294-0.398,0.636-0.59,0.999
			c3.713,9.484,10.903,15.193,21.562,17.084c0.979,0.177,1.974,0.337,2.972,0.498c4.014,0.862,8.07,1.072,12.16,0.61
			c0.5-0.084,1.017-0.148,1.516-0.215c1.82-0.214,3.645-0.459,5.447-0.777c10.684-1.785,17.93-7.418,21.741-16.866
			c-0.188-0.362-0.376-0.706-0.581-0.997C140.146,68.376,139.106,67.579,137.751,67.056"/>
		
			<path fill="none" stroke="#7F050B" stroke-width="1.847" stroke-linecap="round" stroke-linejoin="round" stroke-miterlimit="10" d="
			M135.589,66.442c-1.439,2.607-3.22,4.848-5.311,6.744c-3.833,3.453-8.774,5.675-14.814,6.693
			c-0.377,0.066-0.756,0.135-1.116,0.181c-0.495,0.086-1.015,0.152-1.511,0.235c-4.111,0.512-8.164,0.25-12.164-0.75
			c-5.407-1.162-9.88-3.35-13.386-6.58c-2.068-1.919-3.828-4.179-5.244-6.798c-0.891,0.185-1.613,0.369-2.166,0.589
			c-1.36,0.507-2.412,1.295-3.19,2.37c-0.209,0.294-0.398,0.636-0.59,0.996c3.714,9.487,10.903,15.196,21.562,17.087
			c0.979,0.177,1.974,0.337,2.972,0.498c4.014,0.862,8.07,1.07,12.16,0.61c0.5-0.084,1.017-0.148,1.516-0.215
			c1.82-0.214,3.645-0.459,5.447-0.777c10.684-1.785,17.93-7.418,21.741-16.866c-0.188-0.362-0.376-0.706-0.581-0.997
			c-0.77-1.087-1.81-1.884-3.164-2.407C137.201,66.829,136.484,66.635,135.589,66.442z"/>
		<path fill="#C7358C" d="M145.07,17.263c-1.467,1.264-2.21,2.859-2.228,4.766c0,0.741,0.115,1.515,0.336,2.357
			c0.616,0.243,1.235,0.572,1.846,1.006c0.807,0.553,1.616,1.262,2.401,2.143c1.117-0.631,2.357-0.951,3.73-0.945
			c0.533,0.006,1.033,0.059,1.531,0.146c0.879-1.488,1.799-2.704,2.75-3.642c0.465-0.482,0.947-0.874,1.434-1.198
			c-0.316-2.132-1.525-3.993-3.65-5.585c-1.727-1.315-3.584-1.532-5.566-0.629C146.642,16.14,145.779,16.666,145.07,17.263"/>
		<path fill="#C7358C" d="M156.873,21.895c-0.488,0.324-0.971,0.716-1.434,1.198c-0.953,0.938-1.873,2.153-2.752,3.642
			c0.789,0.161,1.525,0.438,2.227,0.857c0.238,0.119,0.463,0.274,0.686,0.448c0.324,0.244,0.652,0.52,0.941,0.812
			c1.488,1.503,2.217,3.295,2.205,5.408c0.002,0.017,0.002,0.036,0,0.053c0.002,0.016,0.002,0.016,0.002,0.034
			c-0.002,0.431-0.041,0.857-0.111,1.285c0.877-0.061,1.684-0.195,2.422-0.382c3.805-0.96,5.936-3.456,6.418-7.527
			c0.266-2.18-0.461-3.884-2.209-5.15C162.253,20.376,159.455,20.14,156.873,21.895"/>
		<path fill="#C7358C" d="M164.99,46.526c0.156-0.241,0.277-0.497,0.398-0.771c2.068-4.681,0.627-8.179-4.33-10.504
			c-0.738,0.188-1.545,0.32-2.424,0.383c-0.266,1.527-0.994,2.864-2.148,4.01c-1.227,1.212-2.641,1.927-4.271,2.145
			c-0.33,0.029-0.658,0.048-0.982,0.062c0.188,0.672,0.387,1.291,0.625,1.84c0.463,1.086,1.039,2.016,1.703,2.777
			c1.727,1.967,4.148,2.805,7.256,2.509C162.691,48.816,164.074,47.998,164.99,46.526"/>
		<path fill="#EBE600" d="M155.599,28.041c-0.223-0.175-0.447-0.33-0.686-0.45c-0.701-0.416-1.438-0.696-2.227-0.856
			c-0.498-0.087-0.998-0.141-1.531-0.146c-1.373-0.006-2.613,0.315-3.732,0.946c-0.604,0.321-1.155,0.749-1.674,1.263
			c-0.275,0.273-0.52,0.564-0.743,0.854c-0.119,0.154-0.241,0.324-0.347,0.496c-0.017,0.016-0.037,0.051-0.055,0.068
			c-0.74,1.165-1.109,2.486-1.115,3.965c-0.008,1.221,0.229,2.319,0.719,3.337c0.205,0.429,0.459,0.826,0.748,1.225
			c0.227,0.292,0.466,0.568,0.738,0.845c1.487,1.501,3.268,2.25,5.383,2.26c0.051,0.003,0.102,0.003,0.154,0.003
			c0.324-0.015,0.65-0.03,0.982-0.062c1.631-0.218,3.047-0.933,4.271-2.145c1.154-1.146,1.883-2.482,2.146-4.01
			c0.074-0.43,0.113-0.859,0.115-1.287c0-0.018,0-0.018-0.002-0.034c0.002-0.018,0.002-0.036,0-0.053
			c0.012-2.113-0.719-3.903-2.205-5.406c-0.289-0.294-0.617-0.573-0.939-0.812H155.599z"/>
		<path fill="#C7358C" d="M145.024,25.392c-0.61-0.436-1.229-0.762-1.846-1.006c-0.636-0.244-1.255-0.404-1.89-0.474
			c-1.818-0.2-3.693,0.289-5.627,1.465c-1.359,0.834-2.19,1.947-2.508,3.337c-0.123,0.498-0.158,1.029-0.147,1.598
			c0.077,1.909,0.533,3.457,1.357,4.646c1.209,1.724,3.212,2.664,6.03,2.815c1.119,0.057,2.387-0.039,3.814-0.254
			c-0.49-1.018-0.729-2.116-0.719-3.337c0.006-1.479,0.373-2.8,1.114-3.965c-0.013-0.053-0.046-0.087-0.063-0.119
			c0.035,0.015,0.069,0.032,0.119,0.051c0.105-0.172,0.228-0.342,0.348-0.496c0.223-0.29,0.467-0.581,0.744-0.854
			c0.517-0.514,1.067-0.941,1.672-1.263C146.64,26.653,145.831,25.944,145.024,25.392"/>
		<path fill="#C7358C" d="M144.956,38.742c-0.288-0.397-0.542-0.794-0.747-1.223c-1.426,0.214-2.697,0.31-3.816,0.255
			c-2.468,2.203-3.219,5.068-2.279,8.612c0.559,2.116,1.89,3.447,3.985,3.956c4.203,1.069,7.149-0.221,8.833-3.89
			c0.369-0.808,0.682-1.732,0.926-2.763c-0.236-0.549-0.438-1.17-0.625-1.841c-0.051,0-0.104,0-0.154-0.003
			c-2.113-0.009-3.895-0.756-5.383-2.259C145.421,39.312,145.183,39.035,144.956,38.742"/>
		
			<path fill="none" stroke="#0F491D" stroke-width="1.847" stroke-linecap="round" stroke-linejoin="round" stroke-miterlimit="10" d="
			M120.75,62.003c0.603-3.848,1.875-7.447,3.836-10.823c3.445-5.944,8.299-10.318,14.571-13.104"/>
		
			<path fill="none" stroke="#7A1664" stroke-width="1.847" stroke-linecap="round" stroke-linejoin="round" stroke-miterlimit="10" d="
			M156.873,21.895c-0.488,0.324-0.973,0.716-1.438,1.198c-0.949,0.938-1.869,2.153-2.748,3.642 M156.873,21.895
			c2.582-1.755,5.381-1.519,8.395,0.678c1.748,1.267,2.475,2.971,2.209,5.15c-0.482,4.071-2.613,6.567-6.418,7.527 M161.058,35.25
			c4.957,2.328,6.398,5.823,4.33,10.506c-0.121,0.273-0.242,0.529-0.398,0.771c-0.916,1.474-2.299,2.29-4.174,2.45
			c-3.107,0.296-5.529-0.544-7.256-2.509c-0.666-0.759-1.24-1.691-1.701-2.775 M147.423,27.534c-0.785-0.881-1.593-1.59-2.398-2.145
			c-0.611-0.432-1.23-0.761-1.848-1.004 M143.177,24.386c-0.22-0.843-0.335-1.616-0.335-2.357c0.018-1.906,0.762-3.502,2.228-4.766
			c0.709-0.597,1.572-1.123,2.584-1.582c1.98-0.903,3.84-0.687,5.566,0.629c2.125,1.592,3.334,3.453,3.652,5.585 M140.392,37.771
			c-2.816-0.15-4.819-1.091-6.033-2.815c-0.818-1.188-1.275-2.736-1.353-4.646c-0.011-0.566,0.024-1.098,0.147-1.596
			c0.316-1.39,1.147-2.501,2.508-3.337c1.933-1.176,3.808-1.664,5.627-1.468c0.635,0.075,1.254,0.232,1.889,0.477 M144.208,37.519
			c-1.426,0.215-2.699,0.313-3.816,0.253 M151.859,43.692c-0.246,1.028-0.561,1.954-0.928,2.761
			c-1.684,3.669-4.631,4.959-8.833,3.89c-2.096-0.509-3.427-1.84-3.985-3.956c-0.939-3.545-0.188-6.409,2.279-8.615 M151.859,43.692
			c-0.236-0.551-0.439-1.172-0.627-1.843 M158.632,35.634c0.881-0.062,1.688-0.197,2.426-0.384 M144.605,30.217
			c-0.014-0.051-0.047-0.087-0.064-0.119c0.034,0.015,0.069,0.032,0.119,0.052"/>
		
			<path fill="none" stroke="#E06906" stroke-width="1.847" stroke-linecap="round" stroke-linejoin="round" stroke-miterlimit="10" d="
			M154.914,27.591c-0.701-0.418-1.438-0.696-2.227-0.856c-0.498-0.087-0.996-0.141-1.531-0.146
			c-1.373-0.006-2.613,0.315-3.732,0.945c-0.604,0.322-1.155,0.75-1.674,1.263c-0.275,0.273-0.52,0.563-0.742,0.855
			c-0.12,0.153-0.242,0.324-0.348,0.497c-0.017,0.015-0.037,0.05-0.055,0.067c-0.74,1.165-1.109,2.486-1.115,3.965
			c-0.008,1.218,0.23,2.319,0.719,3.337c0.205,0.429,0.461,0.826,0.748,1.224c0.227,0.293,0.466,0.569,0.738,0.846
			c1.486,1.501,3.268,2.248,5.383,2.262c0.051,0,0.1,0,0.154,0c0.324-0.015,0.652-0.029,0.982-0.062
			c1.631-0.217,3.047-0.931,4.271-2.144c1.156-1.146,1.883-2.482,2.15-4.01c0.07-0.43,0.109-0.858,0.111-1.287
			c0-0.018,0-0.018-0.002-0.034c0.002-0.018,0.002-0.035,0-0.053c0.012-2.113-0.719-3.903-2.205-5.406
			c-0.289-0.294-0.617-0.571-0.938-0.812C155.376,27.866,155.152,27.711,154.914,27.591z"/>
	</g>
</g>
<g id="guide" display="none">
</g>
</svg>
