<?xml version="1.0" encoding="utf-8"?>
<!-- Generator: Adobe Illustrator 16.0.0, SVG Export Plug-In . SVG Version: 6.00 Build 0)  -->
<!DOCTYPE svg PUBLIC "-//W3C//DTD SVG 1.1//EN" "http://www.w3.org/Graphics/SVG/1.1/DTD/svg11.dtd">
<svg version="1.1" id="レイヤー_1" xmlns="http://www.w3.org/2000/svg" xmlns:xlink="http://www.w3.org/1999/xlink" x="0px"
	 y="0px" width="234.619px" height="422.146px" viewBox="0 0 234.619 422.146" enable-background="new 0 0 234.619 422.146"
	 xml:space="preserve">
<g>
	<path fill="#094E98" d="M141.634,408.397c75.066,28.67,81.475-16.874,38.102-22.583c0.042-0.027,0.076-0.058,0.119-0.081
		c-5.856-0.784-12.682-0.977-20.496-0.371c-4.516-0.081-10.26,0.405-15.164,0.186c-1.657,9.986-2.896,15.771-3.291,19.042
		l0.004,0.002C140.6,407.034,140.786,408.072,141.634,408.397"/>
	<path fill="none" stroke="#094E98" stroke-width="8.5748" stroke-linecap="round" stroke-linejoin="round" d="M141.634,408.397
		c75.066,28.67,81.475-16.874,38.102-22.583c0.042-0.027,0.076-0.058,0.119-0.081c-5.856-0.784-12.682-0.977-20.496-0.371
		c-4.516-0.081-10.26,0.405-15.164,0.186c-1.657,9.986-2.896,15.771-3.291,19.042l0.004,0.002
		C140.6,407.034,140.786,408.072,141.634,408.397z"/>
	<path fill="#FFFFFF" d="M140.905,404.637c0.383-3.157,1.551-8.679,3.125-18.057c4.483,2.743,10.94,9.562,7.833,25.456
		c-3.253-1.038-6.661-2.229-10.228-3.592c-0.849-0.323-1.034-1.363-0.726-3.808H140.905z"/>
	<path fill="#FFFFFF" d="M191.827,388.888c23.508,9.289,20.095,32.994-17.332,28.358
		C176.671,399.907,184.646,392.247,191.827,388.888"/>
	<path fill="#065AA2" d="M144.029,386.58c0.055-0.327,0.109-0.646,0.167-0.982c4.904,0.216,10.648-0.271,15.164-0.187
		c7.813-0.605,14.64-0.408,20.496,0.368c-0.043,0.026-0.078,0.056-0.121,0.081c4.604,0.607,8.631,1.663,12.092,3.027
		c-7.181,3.359-15.156,11.022-17.332,28.358c-6.504-0.806-14.04-2.464-22.633-5.21C154.969,396.142,148.513,389.323,144.029,386.58"
		/>
	<path fill="#FFFFFF" d="M185.045,386.154c-5.365-0.606-5.39-0.603-8.027,0.716c-2.823,1.412-6.241,3.244-8.571,5.403
		c-0.661,0.606-1.055,0.932-0.228,1.571c0.582,0.45,1.394,0.803,2.1,0.966c0.796,0.18,1.335,0.057,1.924-0.494
		C173.038,393.568,182.66,387.415,185.045,386.154"/>
	<path fill="#094E98" d="M134.403,404.655c0,0,0,0,0-0.003c-0.392-3.272-1.628-9.054-3.287-19.042
		c-4.902,0.222-10.648-0.267-15.159-0.184c-7.819-0.609-14.643-0.412-20.499,0.366c0.038,0.026,0.077,0.058,0.117,0.083
		c-43.375,5.713-36.966,51.255,38.099,22.586C134.524,408.136,134.704,407.095,134.403,404.655"/>
	<path fill="none" stroke="#094E98" stroke-width="8.5748" stroke-linecap="round" stroke-linejoin="round" d="M134.403,404.655
		c0,0,0,0,0-0.003c-0.392-3.272-1.628-9.054-3.287-19.042c-4.902,0.222-10.648-0.267-15.159-0.184
		c-7.819-0.609-14.643-0.412-20.499,0.366c0.038,0.026,0.077,0.058,0.117,0.083c-43.375,5.713-36.966,51.255,38.099,22.586
		C134.524,408.136,134.704,407.095,134.403,404.655z"/>
	<path fill="#FFFFFF" d="M134.403,404.702c-0.379-3.158-1.547-8.684-3.122-18.06c-4.482,2.743-10.942,9.562-7.833,25.458
		c3.258-1.037,6.665-2.23,10.227-3.594C134.524,408.182,134.704,407.142,134.403,404.702L134.403,404.702z"/>
	<path fill="#FFFFFF" d="M83.487,388.952c-23.512,9.285-20.099,32.994,17.328,28.355C98.638,399.97,90.666,392.308,83.487,388.952"
		/>
	<path fill="#065AA2" d="M131.281,386.643c-0.057-0.327-0.112-0.647-0.165-0.985c-4.902,0.223-10.648-0.269-15.159-0.186
		c-7.819-0.604-14.643-0.408-20.499,0.368c0.038,0.026,0.077,0.058,0.117,0.083c-4.599,0.605-8.631,1.663-12.089,3.029
		c7.179,3.355,15.151,11.016,17.328,28.355c6.506-0.803,14.038-2.465,22.634-5.207C120.339,396.204,126.799,389.386,131.281,386.643
		"/>
	<path fill="#FFFFFF" d="M90.269,386.219c5.364-0.611,5.385-0.603,8.023,0.715c2.825,1.409,6.24,3.241,8.573,5.397
		c0.661,0.612,1.055,0.937,0.226,1.579c-0.582,0.45-1.388,0.798-2.098,0.963c-0.795,0.183-1.335,0.055-1.921-0.494
		C102.273,393.633,92.652,387.479,90.269,386.219"/>
	<path fill="#4AA738" d="M90.873,366.754c1.203,7.484,1.903,12.451,1.903,12.451s24.305,5.215,38.282,2.184
		c-0.028-4.606-0.049-8.14-0.055-11.007c-0.006-5.08,0.443-12.791,0.547-15.684c0.686-0.117,12.167,0.073,12.856,0.191
		c0.106,2.887-0.075,10.397-0.089,15.461c0,2.87-0.017,6.415-0.047,11.038c13.973,3.031,38.278-2.184,38.278-2.184
		s0.878-5.048,2.094-12.632c2.026-12.651,5.002-32.377,6.443-47.594c0.057-0.635,0.099-1.269,0.155-1.905
		c-7.406,2.669-26.265,8.311-53.497,8.375c-27.232-0.064-46.094-5.706-53.493-8.375c0.055,0.637,0.09,1.271,0.151,1.905
		C85.846,334.271,88.847,354.11,90.873,366.754"/>
	<path fill="none" stroke="#3D7D38" stroke-width="8.3604" d="M90.873,366.754c1.203,7.484,1.903,12.451,1.903,12.451
		s24.305,5.215,38.282,2.184c-0.028-4.606-0.049-8.14-0.055-11.007c-0.006-5.08,0.443-12.791,0.547-15.684
		c0.686-0.117,12.167,0.073,12.856,0.191c0.106,2.887-0.075,10.397-0.089,15.461c0,2.87-0.017,6.415-0.047,11.038
		c13.973,3.031,38.278-2.184,38.278-2.184s0.878-5.048,2.094-12.632c2.026-12.651,5.002-32.377,6.443-47.594
		c0.057-0.635,0.099-1.269,0.155-1.905c-7.406,2.669-26.265,8.311-53.497,8.375c-27.232-0.064-46.094-5.706-53.493-8.375
		c0.055,0.637,0.09,1.271,0.151,1.905C85.846,334.271,88.847,354.11,90.873,366.754"/>
	<path fill="#4AA738" d="M90.873,366.754c1.203,7.484,1.903,12.451,1.903,12.451s24.305,5.215,38.282,2.184
		c-0.028-4.606-0.049-8.14-0.055-11.007c-0.006-5.08,0.443-12.791,0.547-15.684c0.686-0.117,12.167,0.073,12.856,0.191
		c0.106,2.887-0.075,10.397-0.089,15.461c0,2.87-0.017,6.415-0.047,11.038c13.973,3.031,38.278-2.184,38.278-2.184
		s0.878-5.048,2.094-12.632c2.026-12.651,5.002-32.377,6.443-47.594c0.057-0.635,0.099-1.269,0.155-1.905
		c-7.406,2.669-26.265,8.311-53.497,8.375c-27.232-0.064-46.094-5.706-53.493-8.375c0.055,0.637,0.09,1.271,0.151,1.905
		C85.846,334.271,88.847,354.11,90.873,366.754"/>
	<path fill="#094E98" d="M190.911,320.271c3.669-41.385-1.541-82.017-10.728-119.535l-0.399-12.485l-83.977,2.591l-0.873,11.508
		c-8.871,36.776-13.873,76.5-10.417,116.953C95.923,323.542,135.386,335.287,190.911,320.271"/>
	<path fill="none" stroke="#094E98" stroke-width="8.5748" stroke-linecap="round" stroke-linejoin="round" d="M190.911,320.271
		c3.669-41.385-1.541-82.017-10.728-119.535l-0.399-12.485l-83.977,2.591l-0.873,11.508c-8.871,36.776-13.873,76.5-10.417,116.953
		C95.923,323.542,135.386,335.287,190.911,320.271z"/>
	<path fill="#E37811" d="M92.658,231.196c-16.201,9.609-40.734,26.568-48.312,47.446c1.938,0.104,16.14,16.304,11.124,22.756
		c-3.546,4.552-11.001-1.696-13.239-3.903c1.363,2.031,2.865,16.81-1.168,18.447c-9.241,3.754-11.822-8.98-13.43-18.126
		c-0.14,2.98,2.225,16.533-3.034,16.339c-9.39,0.893-10.798-17.073-9.427-19.039c-1.32,3.436,0.761,12.775-8.261,11.66
		c-5.529-0.686-5.019-32.081,24.342-33.809c8.548-21.251,34.436-42.461,49.259-48.635"/>
	<path fill="none" stroke="#E37811" stroke-width="8.3604" d="M92.658,231.196c-16.201,9.609-40.734,26.568-48.312,47.446
		c1.938,0.104,16.14,16.304,11.124,22.756c-3.546,4.552-11.001-1.696-13.239-3.903c1.363,2.031,2.865,16.81-1.168,18.447
		c-9.241,3.754-11.822-8.98-13.43-18.126c-0.14,2.98,2.225,16.533-3.034,16.339c-9.39,0.893-10.798-17.073-9.427-19.039
		c-1.32,3.436,0.761,12.775-8.261,11.66c-5.529-0.686-5.019-32.081,24.342-33.809c8.548-21.251,34.436-42.461,49.259-48.635"/>
	<path fill="#F4D924" d="M92.658,231.196c-16.201,9.609-40.734,26.568-48.312,47.446c1.938,0.104,16.14,16.304,11.124,22.756
		c-3.546,4.552-11.001-1.696-13.239-3.903c1.363,2.031,2.865,16.81-1.168,18.447c-9.241,3.754-11.822-8.98-13.43-18.126
		c-0.14,2.98,2.225,16.533-3.034,16.339c-9.39,0.893-10.798-17.073-9.427-19.039c-1.318,3.436,0.765,12.775-8.259,11.66
		c-5.531-0.686-5.021-32.081,24.34-33.809c8.548-21.251,34.44-42.461,49.259-48.635"/>
	<path fill="#094E98" d="M20.92,263.284c0,0,32.834,9.676,37.324,13.822c0,0,4.493-16.588,37.668-45.965l0.345-34.904
		C96.258,196.237,40.272,215.244,20.92,263.284"/>
	<path fill="none" stroke="#094E98" stroke-width="8.5748" stroke-linecap="round" stroke-linejoin="round" d="M20.92,263.284
		c0,0,32.834,9.676,37.324,13.822c0,0,4.493-16.588,37.668-45.965l0.345-34.904C96.258,196.237,40.272,215.244,20.92,263.284z"/>
	<path fill="#1070B2" d="M40,233.48l31.144,22.957c2.749-3.372,6.076-7.145,10.069-11.278l-22.334-28.559
		C52.49,221.317,45.989,226.923,40,233.48"/>
	<path fill="#E37428" d="M20.92,263.284c0,0,32.834,9.676,37.324,13.822c0,0,1.29-4.746,7.559-13.649l-37.08-15.307
		C25.746,252.84,23.1,257.876,20.92,263.284"/>
	<path fill="#A1C659" d="M28.723,248.15l37.08,15.306c1.48-2.105,3.249-4.449,5.341-7.019L40,233.48
		C35.938,237.928,32.114,242.812,28.723,248.15"/>
	<path fill="#E37428" d="M95.913,231.142l0.345-34.904c0,0-8.399,2.855-19.812,9.138l15.925,28.959
		C93.52,233.287,94.689,232.227,95.913,231.142"/>
	<path fill="#A1C659" d="M92.37,234.334l-15.925-28.959c-5.374,2.962-11.415,6.684-17.567,11.224l22.334,28.562
		C84.467,241.792,88.161,238.183,92.37,234.334"/>
	<path fill="#1070B2" d="M135.019,189.632l-13.692,0.422c-3.736,32.123-10.229,98.721-5.065,136.447
		c6.564,0.764,13.956,1.228,22.086,1.171C138.427,307.638,136.073,225.372,135.019,189.632"/>
	<path fill="#1070B2" d="M180.183,200.736l-0.399-12.485l-10.639,0.33c4.256,21.539,11.087,67.979,8.405,134.855
		c4.341-0.891,8.793-1.93,13.362-3.165C194.58,278.892,189.37,238.255,180.183,200.736"/>
	<path fill="#E37428" d="M105.174,190.55l-9.367,0.292l-0.873,11.508c-8.871,36.778-13.873,76.498-10.417,116.953
		c2.689,1.004,6.964,2.42,12.629,3.806C94.573,258.386,100.915,212.842,105.174,190.55"/>
	<path fill="#A1C659" d="M121.326,190.054l-16.152,0.496c-4.259,22.292-10.601,67.836-8.028,132.559
		c5.218,1.28,11.631,2.524,19.116,3.393C111.098,288.774,117.59,222.177,121.326,190.054"/>
	<path fill="#A1C659" d="M169.145,188.581l-15.874,0.488c3.706,31.718,10.389,99.273,5.177,137.397
		c6.082-0.674,12.457-1.665,19.102-3.03C180.234,256.563,173.401,210.12,169.145,188.581"/>
	<path fill="#E37428" d="M153.271,189.069l-18.252,0.564c1.057,35.738,3.408,118.004,3.329,138.038
		c6.272-0.05,12.985-0.416,20.1-1.205C163.66,288.343,156.976,220.787,153.271,189.069"/>
	<polygon fill="#FFFFFF" points="157.406,210.655 134.127,243.246 110.85,209.49 	"/>
	<path fill="#DA3B28" d="M180.425,201.781c-0.083-0.349-0.163-0.702-0.246-1.045l-0.399-12.485l-83.982,2.591l-0.869,11.508
		c-0.214,0.886-0.417,1.781-0.625,2.671C109.759,207.121,138.463,208.688,180.425,201.781"/>
	<path fill="#094E98" d="M88.322,177.94c-2.567,3.323-0.055,19.232,2.846,22.072c18.012,17.657,84.812,13.103,92.119-3.89
		c2.065-4.812,5.295-18.896-1.197-19.158C178.835,176.834,90.517,174.821,88.322,177.94"/>
	<path fill="none" stroke="#094E98" stroke-width="8.5748" stroke-linecap="round" stroke-linejoin="round" d="M88.322,177.94
		c-2.567,3.323-0.055,19.232,2.846,22.072c18.012,17.657,84.812,13.103,92.119-3.89c2.065-4.812,5.295-18.896-1.197-19.158
		C178.835,176.834,90.517,174.821,88.322,177.94"/>
	<path fill="#094E98" d="M88.322,177.94c-2.567,3.323-0.055,19.232,2.846,22.072c18.012,17.657,84.812,13.103,92.119-3.89
		c2.065-4.812,5.295-18.896-1.197-19.158C178.835,176.834,90.517,174.821,88.322,177.94"/>
	<path fill="none" stroke="#094E98" stroke-width="8.5748" stroke-linecap="round" stroke-linejoin="round" d="M88.322,177.94
		c-2.567,3.323-0.055,19.232,2.846,22.072c18.012,17.657,84.812,13.103,92.119-3.89c2.065-4.812,5.295-18.896-1.197-19.158
		C178.835,176.834,90.517,174.821,88.322,177.94"/>
	<path fill="#094E98" d="M88.322,177.94c-2.567,3.323-0.055,19.232,2.846,22.072c18.012,17.657,84.812,13.103,92.119-3.89
		c2.065-4.812,5.295-18.896-1.197-19.158C178.835,176.834,90.517,174.821,88.322,177.94"/>
	<path fill="none" stroke="#094E98" stroke-width="8.5748" stroke-linecap="round" stroke-linejoin="round" d="M88.322,177.94
		c-2.567,3.323-0.055,19.232,2.846,22.072c18.012,17.657,84.812,13.103,92.119-3.89c2.065-4.812,5.295-18.896-1.197-19.158
		C178.835,176.834,90.517,174.821,88.322,177.94"/>
	<path fill="#FFFFFF" d="M88.322,177.94c-2.567,3.323-0.055,19.232,2.846,22.072c18.012,17.657,84.812,13.103,92.119-3.89
		c2.065-4.812,5.295-18.896-1.197-19.158C178.835,176.834,90.517,174.821,88.322,177.94"/>
	<path fill="#FFFFFF" d="M88.322,177.94c-2.567,3.323-0.055,19.232,2.846,22.072c18.012,17.657,84.812,13.103,92.119-3.89
		c2.065-4.812,5.295-18.896-1.197-19.158C178.835,176.834,90.517,174.821,88.322,177.94"/>
	<path fill="#FFFFFF" d="M88.322,177.94c-2.567,3.323-0.055,19.232,2.846,22.072c18.012,17.657,84.812,13.103,92.119-3.89
		c2.065-4.812,5.295-18.896-1.197-19.158C178.835,176.834,90.517,174.821,88.322,177.94"/>
	<path fill="#E37811" d="M191.583,121.207c0,14.064,8.698,25.462,19.428,25.462c10.731,0,19.428-11.397,19.428-25.462
		c0-14.057-8.697-25.456-19.428-25.456C200.281,95.751,191.583,107.15,191.583,121.207"/>
	<path fill="none" stroke="#E37811" stroke-width="8.3604" d="M191.583,121.207c0,14.064,8.698,25.462,19.428,25.462
		c10.731,0,19.428-11.397,19.428-25.462c0-14.057-8.697-25.456-19.428-25.456C200.281,95.751,191.583,107.15,191.583,121.207z"/>
	<path fill="#E37811" d="M40.761,120.078c0,14.064,8.696,25.458,19.424,25.458c10.732,0,19.43-11.394,19.43-25.458
		c0-14.06-8.698-25.46-19.43-25.46C49.457,94.618,40.761,106.019,40.761,120.078"/>
	<path fill="none" stroke="#E37811" stroke-width="8.3604" d="M40.761,120.078c0,14.064,8.696,25.458,19.424,25.458
		c10.732,0,19.43-11.394,19.43-25.458c0-14.06-8.698-25.46-19.43-25.46C49.457,94.618,40.761,106.019,40.761,120.078z"/>
	<path fill="#F4D924" d="M191.583,121.207c0,14.064,8.698,25.462,19.428,25.462c10.731,0,19.428-11.397,19.428-25.462
		c0-14.057-8.697-25.456-19.428-25.456C200.281,95.751,191.583,107.15,191.583,121.207"/>
	<path fill="#F4D924" d="M40.761,120.078c0,14.064,8.696,25.458,19.424,25.458c10.732,0,19.43-11.394,19.43-25.458
		c0-14.06-8.698-25.46-19.43-25.46C49.457,94.618,40.761,106.019,40.761,120.078"/>
	<path fill="#E37811" d="M86.831,178.194c-20.863-14.795-28.785-45.771-24.548-77.561c7.096-53.272,39.869-96.453,73.187-96.453
		c33.323,0,66.088,43.181,73.194,96.453c4.432,33.293-6.707,62.644-27.278,79.976c0,0-21.971,13.716-51.974,10.327
		C129.412,190.937,107.985,193.195,86.831,178.194"/>
	<path fill="none" stroke="#E37811" stroke-width="8.3604" d="M86.831,178.194c-20.863-14.795-28.785-45.771-24.548-77.561
		c7.096-53.272,39.869-96.453,73.187-96.453c33.323,0,66.088,43.181,73.194,96.453c4.432,33.293-6.707,62.644-27.278,79.976
		c0,0-21.971,13.716-51.974,10.327C129.412,190.937,107.985,193.195,86.831,178.194z"/>
	<path fill="#F4D924" d="M86.831,178.194c-20.863-14.795-28.785-45.771-24.548-77.561c7.096-53.272,39.869-96.453,73.187-96.453
		c33.323,0,66.088,43.181,73.194,96.453c4.432,33.293-6.707,62.644-27.278,79.976c0,0-21.971,13.716-51.974,10.327
		C129.412,190.937,107.985,193.195,86.831,178.194"/>
	<path fill="#FFFFFF" d="M85.484,87.607c0,13.261,10.205,24.015,22.794,24.015c12.585,0,22.789-10.754,22.789-24.015
		s-10.204-24.01-22.789-24.01C95.689,63.598,85.484,74.347,85.484,87.607"/>
	<path fill="#FFFFFF" d="M186,87.607c0,13.261-10.202,24.015-22.791,24.015c-12.591,0-22.791-10.754-22.791-24.015
		s10.2-24.01,22.791-24.01C175.798,63.598,186,74.347,186,87.607"/>
	<path fill="#E78C14" d="M109.667,125.611c0,19.271,11.911,34.881,26.611,34.881c14.694,0,26.613-15.61,26.613-34.881
		S150.972,90.72,136.278,90.72C121.578,90.72,109.667,106.341,109.667,125.611"/>
	<path fill="none" stroke="#231815" stroke-width="9.6453" stroke-linecap="round" d="M87.995,55.037
		c0,0,46.531-23.318,94.201-1.196"/>
	<path fill="#DA3834" d="M81.364,153.136c0,0,51.486,35.513,112.86-2.782C194.225,150.354,137.933,201.472,81.364,153.136"/>
</g>
<path display="none" fill="none" d="M1246.037,278.443c0,5.5-4.5,10-10,10H-41.908c-5.5,0-10-4.5-10-10v-27.558v-841.881
	c0-5.5,4.5-10,10-10h1277.945c5.5,0,10,4.5,10,10v839.881V278.443z"/>
</svg>
