<?xml version="1.0" encoding="utf-8"?>
<!-- Generator: Adobe Illustrator 16.0.0, SVG Export Plug-In . SVG Version: 6.00 Build 0)  -->
<!DOCTYPE svg PUBLIC "-//W3C//DTD SVG 1.1//EN" "http://www.w3.org/Graphics/SVG/1.1/DTD/svg11.dtd">
<svg version="1.1" id="レイヤー_1" xmlns="http://www.w3.org/2000/svg" xmlns:xlink="http://www.w3.org/1999/xlink" x="0px"
	 y="0px" width="234.619px" height="422.146px" viewBox="0 0 234.619 422.146" enable-background="new 0 0 234.619 422.146"
	 xml:space="preserve">
<g>
	<path fill="#094E98" d="M141.634,408.397c75.066,28.67,81.475-16.873,38.102-22.582c0.042-0.027,0.076-0.059,0.119-0.082
		c-5.856-0.783-12.682-0.977-20.496-0.371c-4.516-0.08-10.26,0.406-15.164,0.186c-1.657,9.986-2.896,15.771-3.291,19.043
		l0.004,0.002C140.6,407.034,140.786,408.073,141.634,408.397"/>
	<path fill="none" stroke="#094E98" stroke-width="8.5748" stroke-linecap="round" stroke-linejoin="round" d="M141.634,408.397
		c75.066,28.67,81.475-16.873,38.102-22.582c0.042-0.027,0.076-0.059,0.119-0.082c-5.856-0.783-12.682-0.977-20.496-0.371
		c-4.516-0.08-10.26,0.406-15.164,0.186c-1.657,9.986-2.896,15.771-3.291,19.043l0.004,0.002
		C140.6,407.034,140.786,408.073,141.634,408.397z"/>
	<path fill="#FFFFFF" d="M140.905,404.638c0.383-3.158,1.551-8.68,3.125-18.057c4.483,2.742,10.94,9.561,7.833,25.455
		c-3.253-1.037-6.661-2.229-10.228-3.592c-0.849-0.322-1.034-1.363-0.726-3.807H140.905z"/>
	<path fill="#FFFFFF" d="M191.827,388.888c23.508,9.289,20.095,32.994-17.332,28.359
		C176.671,399.907,184.646,392.247,191.827,388.888"/>
	<path fill="#065AA2" d="M144.029,386.581c0.055-0.328,0.109-0.646,0.167-0.982c4.904,0.215,10.648-0.271,15.164-0.188
		c7.813-0.605,14.64-0.408,20.496,0.369c-0.043,0.025-0.078,0.055-0.121,0.08c4.604,0.607,8.631,1.664,12.092,3.027
		c-7.181,3.359-15.156,11.023-17.332,28.359c-6.504-0.807-14.04-2.465-22.633-5.211
		C154.969,396.142,148.513,389.323,144.029,386.581"/>
	<path fill="#FFFFFF" d="M185.045,386.155c-5.365-0.607-5.39-0.604-8.027,0.715c-2.823,1.412-6.241,3.244-8.571,5.404
		c-0.661,0.605-1.055,0.932-0.228,1.57c0.582,0.451,1.394,0.803,2.1,0.967c0.796,0.18,1.335,0.057,1.924-0.494
		C173.038,393.569,182.66,387.415,185.045,386.155"/>
	<path fill="#094E98" d="M134.403,404.655c0,0,0,0,0-0.002c-0.392-3.273-1.628-9.055-3.287-19.043
		c-4.902,0.223-10.648-0.266-15.159-0.184c-7.819-0.609-14.643-0.412-20.499,0.367c0.038,0.025,0.077,0.057,0.117,0.082
		c-43.375,5.713-36.966,51.256,38.099,22.586C134.524,408.136,134.704,407.095,134.403,404.655"/>
	<path fill="none" stroke="#094E98" stroke-width="8.5748" stroke-linecap="round" stroke-linejoin="round" d="M134.403,404.655
		c0,0,0,0,0-0.002c-0.392-3.273-1.628-9.055-3.287-19.043c-4.902,0.223-10.648-0.266-15.159-0.184
		c-7.819-0.609-14.643-0.412-20.499,0.367c0.038,0.025,0.077,0.057,0.117,0.082c-43.375,5.713-36.966,51.256,38.099,22.586
		C134.524,408.136,134.704,407.095,134.403,404.655z"/>
	<path fill="#FFFFFF" d="M134.403,404.702c-0.379-3.158-1.547-8.684-3.122-18.059c-4.482,2.742-10.942,9.561-7.833,25.457
		c3.258-1.037,6.665-2.23,10.227-3.594C134.524,408.183,134.704,407.142,134.403,404.702L134.403,404.702z"/>
	<path fill="#FFFFFF" d="M83.487,388.952c-23.512,9.285-20.099,32.994,17.328,28.355C98.638,399.97,90.666,392.308,83.487,388.952"
		/>
	<path fill="#065AA2" d="M131.281,386.644c-0.057-0.328-0.112-0.648-0.165-0.986c-4.902,0.223-10.648-0.268-15.159-0.186
		c-7.819-0.604-14.643-0.408-20.499,0.369c0.038,0.025,0.077,0.057,0.117,0.082c-4.599,0.605-8.631,1.664-12.089,3.029
		c7.179,3.355,15.151,11.016,17.328,28.355c6.506-0.803,14.038-2.465,22.634-5.207C120.339,396.204,126.799,389.386,131.281,386.644
		"/>
	<path fill="#FFFFFF" d="M90.269,386.22c5.364-0.611,5.385-0.604,8.023,0.715c2.825,1.408,6.24,3.24,8.573,5.396
		c0.661,0.613,1.055,0.938,0.226,1.58c-0.582,0.449-1.388,0.797-2.098,0.963c-0.795,0.182-1.335,0.055-1.921-0.494
		C102.273,393.634,92.652,387.479,90.269,386.22"/>
	<path fill="#4AA738" d="M90.873,366.755c1.203,7.484,1.903,12.451,1.903,12.451s24.305,5.215,38.282,2.184
		c-0.028-4.607-0.049-8.141-0.055-11.008c-0.006-5.08,0.443-12.791,0.547-15.684c0.686-0.117,12.167,0.074,12.856,0.191
		c0.106,2.887-0.075,10.398-0.089,15.461c0,2.871-0.017,6.416-0.047,11.039c13.973,3.031,38.278-2.184,38.278-2.184
		s0.878-5.049,2.094-12.633c2.026-12.65,5.002-32.377,6.443-47.594c0.057-0.635,0.099-1.268,0.155-1.904
		c-7.406,2.668-26.265,8.311-53.497,8.375c-27.232-0.064-46.094-5.707-53.493-8.375c0.055,0.637,0.09,1.27,0.151,1.904
		C85.846,334.271,88.847,354.11,90.873,366.755"/>
	<path fill="none" stroke="#3D7D38" stroke-width="8.3604" d="M90.873,366.755c1.203,7.484,1.903,12.451,1.903,12.451
		s24.305,5.215,38.282,2.184c-0.028-4.607-0.049-8.141-0.055-11.008c-0.006-5.08,0.443-12.791,0.547-15.684
		c0.686-0.117,12.167,0.074,12.856,0.191c0.106,2.887-0.075,10.398-0.089,15.461c0,2.871-0.017,6.416-0.047,11.039
		c13.973,3.031,38.278-2.184,38.278-2.184s0.878-5.049,2.094-12.633c2.026-12.65,5.002-32.377,6.443-47.594
		c0.057-0.635,0.099-1.268,0.155-1.904c-7.406,2.668-26.265,8.311-53.497,8.375c-27.232-0.064-46.094-5.707-53.493-8.375
		c0.055,0.637,0.09,1.27,0.151,1.904C85.846,334.271,88.847,354.11,90.873,366.755"/>
	<path fill="#4AA738" d="M90.873,366.755c1.203,7.484,1.903,12.451,1.903,12.451s24.305,5.215,38.282,2.184
		c-0.028-4.607-0.049-8.141-0.055-11.008c-0.006-5.08,0.443-12.791,0.547-15.684c0.686-0.117,12.167,0.074,12.856,0.191
		c0.106,2.887-0.075,10.398-0.089,15.461c0,2.871-0.017,6.416-0.047,11.039c13.973,3.031,38.278-2.184,38.278-2.184
		s0.878-5.049,2.094-12.633c2.026-12.65,5.002-32.377,6.443-47.594c0.057-0.635,0.099-1.268,0.155-1.904
		c-7.406,2.668-26.265,8.311-53.497,8.375c-27.232-0.064-46.094-5.707-53.493-8.375c0.055,0.637,0.09,1.27,0.151,1.904
		C85.846,334.271,88.847,354.11,90.873,366.755"/>
	<path fill="#094E98" d="M190.911,320.272c3.669-41.385-1.541-82.018-10.728-119.535l-0.399-12.486l-83.977,2.592l-0.873,11.508
		c-8.871,36.775-13.873,76.5-10.417,116.953C95.923,323.542,135.386,335.288,190.911,320.272"/>
	<path fill="none" stroke="#094E98" stroke-width="8.5748" stroke-linecap="round" stroke-linejoin="round" d="M190.911,320.272
		c3.669-41.385-1.541-82.018-10.728-119.535l-0.399-12.486l-83.977,2.592l-0.873,11.508c-8.871,36.775-13.873,76.5-10.417,116.953
		C95.923,323.542,135.386,335.288,190.911,320.272z"/>
	<path fill="#E37811" d="M92.658,231.196c-16.201,9.609-40.734,26.568-48.312,47.447c1.938,0.104,16.14,16.303,11.124,22.756
		c-3.546,4.551-11.001-1.697-13.239-3.904c1.363,2.031,2.865,16.811-1.168,18.447c-9.241,3.754-11.822-8.98-13.43-18.125
		c-0.14,2.98,2.225,16.533-3.034,16.338c-9.39,0.893-10.798-17.072-9.427-19.039c-1.32,3.436,0.761,12.775-8.261,11.66
		c-5.529-0.686-5.019-32.08,24.342-33.809c8.548-21.25,34.436-42.461,49.259-48.635"/>
	<path fill="none" stroke="#E37811" stroke-width="8.3604" d="M92.658,231.196c-16.201,9.609-40.734,26.568-48.312,47.447
		c1.938,0.104,16.14,16.303,11.124,22.756c-3.546,4.551-11.001-1.697-13.239-3.904c1.363,2.031,2.865,16.811-1.168,18.447
		c-9.241,3.754-11.822-8.98-13.43-18.125c-0.14,2.98,2.225,16.533-3.034,16.338c-9.39,0.893-10.798-17.072-9.427-19.039
		c-1.32,3.436,0.761,12.775-8.261,11.66c-5.529-0.686-5.019-32.08,24.342-33.809c8.548-21.25,34.436-42.461,49.259-48.635"/>
	<path fill="#F4D924" d="M92.658,231.196c-16.201,9.609-40.734,26.568-48.312,47.447c1.938,0.104,16.14,16.303,11.124,22.756
		c-3.546,4.551-11.001-1.697-13.239-3.904c1.363,2.031,2.865,16.811-1.168,18.447c-9.241,3.754-11.822-8.98-13.43-18.125
		c-0.14,2.98,2.225,16.533-3.034,16.338c-9.39,0.893-10.798-17.072-9.427-19.039c-1.318,3.436,0.765,12.775-8.259,11.66
		c-5.531-0.686-5.021-32.08,24.34-33.809c8.548-21.25,34.44-42.461,49.259-48.635"/>
	<path fill="#094E98" d="M20.92,263.284c0,0,32.834,9.676,37.324,13.822c0,0,4.493-16.588,37.668-45.965l0.345-34.904
		C96.258,196.237,40.272,215.245,20.92,263.284"/>
	<path fill="none" stroke="#094E98" stroke-width="8.5748" stroke-linecap="round" stroke-linejoin="round" d="M20.92,263.284
		c0,0,32.834,9.676,37.324,13.822c0,0,4.493-16.588,37.668-45.965l0.345-34.904C96.258,196.237,40.272,215.245,20.92,263.284z"/>
	<path fill="#1070B2" d="M40,233.481l31.144,22.957c2.749-3.373,6.076-7.145,10.069-11.279l-22.334-28.559
		C52.49,221.317,45.989,226.923,40,233.481"/>
	<path fill="#E37428" d="M20.92,263.284c0,0,32.834,9.676,37.324,13.822c0,0,1.29-4.746,7.559-13.648l-37.08-15.307
		C25.746,252.841,23.1,257.876,20.92,263.284"/>
	<path fill="#A1C659" d="M28.723,248.151l37.08,15.305c1.48-2.105,3.249-4.449,5.341-7.018L40,233.481
		C35.938,237.929,32.114,242.812,28.723,248.151"/>
	<path fill="#E37428" d="M95.913,231.142l0.345-34.904c0,0-8.399,2.855-19.812,9.139l15.925,28.959
		C93.52,233.288,94.689,232.228,95.913,231.142"/>
	<path fill="#A1C659" d="M92.37,234.335l-15.925-28.959c-5.374,2.961-11.415,6.684-17.567,11.223l22.334,28.562
		C84.467,241.792,88.161,238.183,92.37,234.335"/>
	<path fill="#1070B2" d="M135.019,189.632l-13.692,0.422c-3.736,32.123-10.229,98.721-5.065,136.447
		c6.564,0.764,13.956,1.229,22.086,1.172C138.427,307.638,136.073,225.372,135.019,189.632"/>
	<path fill="#1070B2" d="M180.183,200.737l-0.399-12.486l-10.639,0.33c4.256,21.539,11.087,67.98,8.405,134.855
		c4.341-0.891,8.793-1.93,13.362-3.164C194.58,278.892,189.37,238.255,180.183,200.737"/>
	<path fill="#E37428" d="M105.174,190.55l-9.367,0.293l-0.873,11.508c-8.871,36.777-13.873,76.498-10.417,116.953
		c2.689,1.004,6.964,2.42,12.629,3.805C94.573,258.386,100.915,212.843,105.174,190.55"/>
	<path fill="#A1C659" d="M121.326,190.054l-16.152,0.496c-4.259,22.293-10.601,67.836-8.028,132.559
		c5.218,1.281,11.631,2.525,19.116,3.393C111.098,288.774,117.59,222.177,121.326,190.054"/>
	<path fill="#A1C659" d="M169.145,188.581l-15.874,0.488c3.706,31.719,10.389,99.273,5.177,137.398
		c6.082-0.674,12.457-1.666,19.102-3.031C180.234,256.563,173.401,210.12,169.145,188.581"/>
	<path fill="#E37428" d="M153.271,189.069l-18.252,0.564c1.057,35.738,3.408,118.004,3.329,138.039
		c6.272-0.051,12.985-0.416,20.1-1.205C163.66,288.343,156.976,220.788,153.271,189.069"/>
	<polygon fill="#FFFFFF" points="157.406,210.655 134.127,243.247 110.85,209.491 	"/>
	<path fill="#DA3B28" d="M180.425,201.782c-0.083-0.35-0.163-0.703-0.246-1.045l-0.399-12.486l-83.982,2.592l-0.869,11.508
		c-0.214,0.885-0.417,1.781-0.625,2.67C109.759,207.122,138.463,208.688,180.425,201.782"/>
	<path fill="#094E98" d="M88.322,177.94c-2.567,3.324-0.055,19.232,2.846,22.072c18.012,17.658,84.812,13.104,92.119-3.889
		c2.065-4.812,5.295-18.896-1.197-19.158C178.835,176.835,90.517,174.821,88.322,177.94"/>
	<path fill="none" stroke="#094E98" stroke-width="8.5748" stroke-linecap="round" stroke-linejoin="round" d="M88.322,177.94
		c-2.567,3.324-0.055,19.232,2.846,22.072c18.012,17.658,84.812,13.104,92.119-3.889c2.065-4.812,5.295-18.896-1.197-19.158
		C178.835,176.835,90.517,174.821,88.322,177.94"/>
	<path fill="#094E98" d="M88.322,177.94c-2.567,3.324-0.055,19.232,2.846,22.072c18.012,17.658,84.812,13.104,92.119-3.889
		c2.065-4.812,5.295-18.896-1.197-19.158C178.835,176.835,90.517,174.821,88.322,177.94"/>
	<path fill="none" stroke="#094E98" stroke-width="8.5748" stroke-linecap="round" stroke-linejoin="round" d="M88.322,177.94
		c-2.567,3.324-0.055,19.232,2.846,22.072c18.012,17.658,84.812,13.104,92.119-3.889c2.065-4.812,5.295-18.896-1.197-19.158
		C178.835,176.835,90.517,174.821,88.322,177.94"/>
	<path fill="#094E98" d="M88.322,177.94c-2.567,3.324-0.055,19.232,2.846,22.072c18.012,17.658,84.812,13.104,92.119-3.889
		c2.065-4.812,5.295-18.896-1.197-19.158C178.835,176.835,90.517,174.821,88.322,177.94"/>
	<path fill="none" stroke="#094E98" stroke-width="8.5748" stroke-linecap="round" stroke-linejoin="round" d="M88.322,177.94
		c-2.567,3.324-0.055,19.232,2.846,22.072c18.012,17.658,84.812,13.104,92.119-3.889c2.065-4.812,5.295-18.896-1.197-19.158
		C178.835,176.835,90.517,174.821,88.322,177.94"/>
	<path fill="#FFFFFF" d="M88.322,177.94c-2.567,3.324-0.055,19.232,2.846,22.072c18.012,17.658,84.812,13.104,92.119-3.889
		c2.065-4.812,5.295-18.896-1.197-19.158C178.835,176.835,90.517,174.821,88.322,177.94"/>
	<path fill="#FFFFFF" d="M88.322,177.94c-2.567,3.324-0.055,19.232,2.846,22.072c18.012,17.658,84.812,13.104,92.119-3.889
		c2.065-4.812,5.295-18.896-1.197-19.158C178.835,176.835,90.517,174.821,88.322,177.94"/>
	<path fill="#FFFFFF" d="M88.322,177.94c-2.567,3.324-0.055,19.232,2.846,22.072c18.012,17.658,84.812,13.104,92.119-3.889
		c2.065-4.812,5.295-18.896-1.197-19.158C178.835,176.835,90.517,174.821,88.322,177.94"/>
	<path fill="#E37811" d="M191.583,121.208c0,14.064,8.698,25.461,19.428,25.461c10.731,0,19.428-11.396,19.428-25.461
		c0-14.057-8.697-25.457-19.428-25.457C200.281,95.751,191.583,107.151,191.583,121.208"/>
	<path fill="none" stroke="#E37811" stroke-width="8.3604" d="M191.583,121.208c0,14.064,8.698,25.461,19.428,25.461
		c10.731,0,19.428-11.396,19.428-25.461c0-14.057-8.697-25.457-19.428-25.457C200.281,95.751,191.583,107.151,191.583,121.208z"/>
	<path fill="#E37811" d="M40.761,120.079c0,14.064,8.696,25.457,19.424,25.457c10.732,0,19.43-11.393,19.43-25.457
		c0-14.061-8.698-25.461-19.43-25.461C49.457,94.618,40.761,106.019,40.761,120.079"/>
	<path fill="none" stroke="#E37811" stroke-width="8.3604" d="M40.761,120.079c0,14.064,8.696,25.457,19.424,25.457
		c10.732,0,19.43-11.393,19.43-25.457c0-14.061-8.698-25.461-19.43-25.461C49.457,94.618,40.761,106.019,40.761,120.079z"/>
	<path fill="#F4D924" d="M191.583,121.208c0,14.064,8.698,25.461,19.428,25.461c10.731,0,19.428-11.396,19.428-25.461
		c0-14.057-8.697-25.457-19.428-25.457C200.281,95.751,191.583,107.151,191.583,121.208"/>
	<path fill="#F4D924" d="M40.761,120.079c0,14.064,8.696,25.457,19.424,25.457c10.732,0,19.43-11.393,19.43-25.457
		c0-14.061-8.698-25.461-19.43-25.461C49.457,94.618,40.761,106.019,40.761,120.079"/>
	<path fill="#E37811" d="M86.831,178.194c-20.863-14.795-28.785-45.771-24.548-77.561C69.379,47.362,102.152,4.18,135.469,4.18
		c33.323,0,66.088,43.182,73.194,96.454c4.432,33.293-6.707,62.645-27.278,79.977c0,0-21.971,13.715-51.974,10.326
		C129.412,190.937,107.985,193.196,86.831,178.194"/>
	<path fill="none" stroke="#E37811" stroke-width="8.3604" d="M86.831,178.194c-20.863-14.795-28.785-45.771-24.548-77.561
		C69.379,47.362,102.152,4.18,135.469,4.18c33.323,0,66.088,43.182,73.194,96.454c4.432,33.293-6.707,62.645-27.278,79.977
		c0,0-21.971,13.715-51.974,10.326C129.412,190.937,107.985,193.196,86.831,178.194z"/>
	<path fill="#F4D924" d="M86.831,178.194c-20.863-14.795-28.785-45.771-24.548-77.561C69.379,47.362,102.152,4.18,135.469,4.18
		c33.323,0,66.088,43.182,73.194,96.454c4.432,33.293-6.707,62.645-27.278,79.977c0,0-21.971,13.715-51.974,10.326
		C129.412,190.937,107.985,193.196,86.831,178.194"/>
	<path fill="#FFFFFF" d="M85.484,87.608c0,13.26,10.205,24.014,22.794,24.014c12.585,0,22.789-10.754,22.789-24.014
		c0-13.263-10.204-24.011-22.789-24.011C95.689,63.598,85.484,74.346,85.484,87.608"/>
	<path fill="#FFFFFF" d="M186,87.608c0,13.26-10.202,24.014-22.791,24.014c-12.591,0-22.791-10.754-22.791-24.014
		c0-13.263,10.2-24.011,22.791-24.011C175.798,63.598,186,74.346,186,87.608"/>
	<path fill="#231815" d="M98.925,76.995c0,6.506,5.01,11.783,11.183,11.783c6.183,0,11.191-5.277,11.191-11.783
		c0-6.515-5.008-11.792-11.191-11.792C103.935,65.203,98.925,70.48,98.925,76.995"/>
	<path fill="#E78C14" d="M109.667,125.612c0,19.27,11.911,34.881,26.611,34.881c14.694,0,26.613-15.611,26.613-34.881
		c0-19.271-11.919-34.893-26.613-34.893C121.578,90.72,109.667,106.341,109.667,125.612"/>
	<path fill="#231815" d="M172.432,76.995c0,6.506-5.01,11.783-11.188,11.783c-6.176,0-11.186-5.277-11.186-11.783
		c0-6.515,5.01-11.792,11.186-11.792C167.422,65.203,172.432,70.48,172.432,76.995"/>
	<path fill="none" stroke="#231815" stroke-width="9.6453" stroke-linecap="round" d="M87.995,55.038
		c0,0,46.531-23.319,94.201-1.197"/>
	<path fill="#DA3834" d="M81.364,153.136c0,0,51.486,35.514,112.86-2.781C194.225,150.354,137.933,201.472,81.364,153.136"/>
	<path fill="#094E98" d="M205.99,280.403c-16.121,15.197-48.634,9.777-63.614-15.199c0,0,24.699-17.623,27.552-22.848l13.253,6.846
		c0-1.744,0.282-10.895-0.197-14.99c-1.505-8.684-2.172-28.051,5.518-30.043c11.303-2.93,21.588,22.932,21.588,22.932
		S226.139,261.407,205.99,280.403"/>
	<path fill="none" stroke="#094E98" stroke-width="8.5748" stroke-linecap="round" stroke-linejoin="round" d="M205.99,280.403
		c-16.121,15.197-48.634,9.777-63.614-15.199c0,0,24.699-17.623,27.552-22.848l13.253,6.846c0-1.744,0.282-10.895-0.197-14.99
		c-1.505-8.684-2.172-28.051,5.518-30.043c11.303-2.93,21.588,22.932,21.588,22.932S226.139,261.407,205.99,280.403z"/>
	<path fill="#1070B2" d="M181.743,248.456l34.405,14.904c-3.469,11.615-12.985,20.973-24.434,24.244L181.743,248.456z"/>
	<path fill="#A1C659" d="M182.76,233.419l30.264,1.648c0,0,4.072,13.812,3.124,27.549l-33.575-14.133L182.76,233.419z"/>
	<path fill="#E37428" d="M177.86,245.696l-14.292,38.883c0,0-18.256-10.354-21.497-20.016c0,0,25.653-17.223,27.553-22.848
		C169.624,241.716,173.378,243.382,177.86,245.696"/>
	<path fill="#A1C659" d="M177.86,246.038l3.883,2.418l9.971,39.148c-11.625,3.643-24.254-1.311-28.146-3.027L177.86,246.038z"/>
	<path fill="#E37428" d="M182.042,223.456c0,0-0.934-14.76,7.295-19.129c6.158-3.207,13.259,7.818,13.259,7.818
		s6.165,7.512,10.427,22.922l-30.264-1.648C182.574,232.853,182.042,223.456,182.042,223.456"/>
</g>
</svg>
