<?xml version="1.0" encoding="utf-8"?>
<!-- Generator: Adobe Illustrator 16.0.0, SVG Export Plug-In . SVG Version: 6.00 Build 0)  -->
<!DOCTYPE svg PUBLIC "-//W3C//DTD SVG 1.1//EN" "http://www.w3.org/Graphics/SVG/1.1/DTD/svg11.dtd">
<svg version="1.1" id="レイヤー_1" xmlns="http://www.w3.org/2000/svg" xmlns:xlink="http://www.w3.org/1999/xlink" x="0px"
	 y="0px" width="22.374px" height="23.573px" viewBox="0 0 22.374 23.573" enable-background="new 0 0 22.374 23.573"
	 xml:space="preserve">
<path display="none" fill="#D5EBDF" d="M525.702-275.222c0-48.964-34.091-89.964-79.833-100.562
	c-2.739-54.565-47.849-97.966-103.095-97.966c-29.802,0-56.649,12.636-75.493,32.835c-18.825-25.158-48.86-41.441-82.7-41.441
	c-40.878,0-76.201,23.761-92.922,58.222c-9.93-3.178-20.512-4.9-31.495-4.9c-57.01,0-103.227,46.216-103.227,103.226
	c0,22.143,6.976,42.654,18.843,59.464c-23.181,18.93-37.983,47.731-37.983,79.992c0,57.009,46.216,103.225,103.225,103.225
	c0.779,0,1.553-0.012,2.326-0.029C52.037-34.941,94.208,1.641,144.93,1.641c27.501,0,52.489-10.758,70.99-28.291
	c17.432,13.45,39.277,21.456,62.997,21.456c30.679,0,58.226-13.388,77.133-34.634c11.425,4.358,23.819,6.752,36.774,6.752
	c57.009,0,103.226-46.216,103.226-103.226c0-19.724-5.534-38.154-15.132-53.828C507.965-208.742,525.702-239.908,525.702-275.222z"
	/>
<path fill="#231815" d="M22.374,11.791c0,6.506-5.01,11.782-11.188,11.782C5.01,23.573,0,18.297,0,11.791C0,5.277,5.01,0,11.186,0
	C17.364,0,22.374,5.277,22.374,11.791"/>
<g display="none">
	<defs>
		<path id="SVGID_1_" d="M525.702-275.222c0-48.964-34.091-89.964-79.833-100.562c-2.739-54.565-47.849-97.966-103.095-97.966
			c-29.802,0-56.649,12.636-75.493,32.835c-18.825-25.158-48.86-41.441-82.7-41.441c-40.878,0-76.201,23.761-92.922,58.222
			c-9.93-3.178-20.512-4.9-31.495-4.9c-57.01,0-103.227,46.216-103.227,103.226c0,22.143,6.976,42.654,18.843,59.464
			c-23.181,18.93-37.983,47.731-37.983,79.992c0,57.009,46.216,103.225,103.225,103.225c0.779,0,1.553-0.012,2.326-0.029
			C52.037-34.941,94.208,1.641,144.93,1.641c27.501,0,52.489-10.758,70.99-28.291c17.432,13.45,39.277,21.456,62.997,21.456
			c30.679,0,58.226-13.388,77.133-34.634c11.425,4.358,23.819,6.752,36.774,6.752c57.009,0,103.226-46.216,103.226-103.226
			c0-19.724-5.534-38.154-15.132-53.828C507.965-208.742,525.702-239.908,525.702-275.222z"/>
	</defs>
	<clipPath id="SVGID_2_" display="inline">
		<use xlink:href="#SVGID_1_"  overflow="visible"/>
	</clipPath>
</g>
<path display="none" fill="none" d="M901.48,355.003c0,5.5-4.5,10-10,10H-386.465c-5.5,0-10-4.5-10-10v-27.558v-841.881
	c0-5.5,4.5-10,10-10H891.48c5.5,0,10,4.5,10,10v839.881V355.003z"/>
</svg>
