<?xml version="1.0" encoding="utf-8"?>
<!-- Generator: Adobe Illustrator 16.0.0, SVG Export Plug-In . SVG Version: 6.00 Build 0)  -->
<!DOCTYPE svg PUBLIC "-//W3C//DTD SVG 1.1//EN" "http://www.w3.org/Graphics/SVG/1.1/DTD/svg11.dtd">
<svg version="1.1" id="レイヤー_1" xmlns="http://www.w3.org/2000/svg" xmlns:xlink="http://www.w3.org/1999/xlink" x="0px"
	 y="0px" width="118.396px" height="76.614px" viewBox="0 0 118.396 76.614" enable-background="new 0 0 118.396 76.614"
	 xml:space="preserve">
<g>
	<path fill="#0E0205" d="M97.618,72.574c-4.565,1.984-8.126,3.465-13.167,3.924c-4.646,0.42-9.454-1.059-12.907-3.98
		c-2.798,3.318-7.554,4.313-11.754,4.06c-3.308-0.204-7.774-1.616-11.133-3.882c-7.534,3.469-15.136,4.271-23.588,2.736
		c-4.741-0.859-8.75-3.568-12.243-6.629C8.875,65.342-0.185,51.789,0.003,51.885c4.033,2.048,7.291,3.48,11.572,3.93
		c3.141,0.33,6.125,0.276,9.077-0.129c-0.293-0.262-0.587-0.513-0.88-0.775c-8.524-7.553-7.322-23.043-6.231-21.217
		c4.694,5.463,11.078,7.989,17.879,9.106c-0.68-0.754-1.182-1.628-1.816-2.367c-11.887-13.87-3.102-28.832-3.006-28.306
		c0.188,1.049,4.295,12.33,8.86,15.507c1.99,1.38,4.162,2.16,6.362,2.862c-0.799-3.366-1.248-6.807-1.404-10.316
		C39.673,3.544,50.571,0.152,50.744,0.002c0.146-0.126-0.037,7.467,4.635,14.942c1.183,1.894,2.411,3.749,3.859,5.464
		c0.608-0.946,1.263-1.882,2.023-2.799c2.42-2.93,5.699-4.964,9.009-6.797c3.973-2.194,13.332-5.553,13.114-5.111
		c-0.477,0.973-1.077,1.817-1.746,2.594c-2.844,4.49-5.039,9.072-6.476,14.325c-0.769,2.798-0.967,5.581-0.967,8.368
		c2.423-0.882,4.83-1.815,7.104-3.15c4.881-2.875,9.211-7.392,11.481-12.498c0.097-0.21,2.77,12.059-0.307,17.614
		c5.47-1.928,11.482-2.521,15.585-0.3c0.306,0.163-10.586,8.916-13.807,13.841c-2.005,3.063-3.368,6.518-4.839,9.884
		c1.267-0.131,2.533-0.314,3.808-0.591c6.807-1.482,19.691-13.742,19.598-13.386c-2.115,7.615-3.665,13.93-9.775,19.456
		c-1.276,1.147-2.651,2.132-4.111,2.999c1.428-0.303,2.867-0.553,4.37-0.621c5.69-0.275,10.664,0.246,15.077,3.969
		C118.977,68.713,104.101,69.754,97.618,72.574"/>
</g>
</svg>
