<?xml version="1.0" encoding="utf-8"?>
<!-- Generator: Adobe Illustrator 16.0.0, SVG Export Plug-In . SVG Version: 6.00 Build 0)  -->
<!DOCTYPE svg PUBLIC "-//W3C//DTD SVG 1.1//EN" "http://www.w3.org/Graphics/SVG/1.1/DTD/svg11.dtd">
<svg version="1.1" id="レイヤー_1" xmlns="http://www.w3.org/2000/svg" xmlns:xlink="http://www.w3.org/1999/xlink" x="0px"
	 y="0px" width="118.396px" height="76.615px" viewBox="0 0 118.396 76.615" enable-background="new 0 0 118.396 76.615"
	 xml:space="preserve">
<path display="none" fill="#D5EBDF" d="M525.702-138.292c0-48.964-34.091-89.964-79.833-100.562
	c-2.739-54.565-47.849-97.966-103.095-97.966c-29.802,0-56.649,12.636-75.493,32.835c-18.825-25.158-48.86-41.441-82.7-41.441
	c-40.878,0-76.201,23.761-92.922,58.222c-9.93-3.178-20.512-4.9-31.495-4.9c-57.01,0-103.227,46.216-103.227,103.226
	c0,22.143,6.976,42.654,18.843,59.464c-23.181,18.93-37.983,47.731-37.983,79.992c0,57.009,46.216,103.225,103.225,103.225
	c0.779,0,1.553-0.012,2.326-0.029c8.689,48.215,50.861,84.797,101.583,84.797c27.501,0,52.489-10.758,70.99-28.291
	c17.432,13.45,39.277,21.456,62.997,21.456c30.679,0,58.226-13.388,77.133-34.634c11.425,4.358,23.819,6.752,36.774,6.752
	c57.009,0,103.226-46.216,103.226-103.226c0-19.724-5.534-38.154-15.132-53.828C507.965-71.811,525.702-102.977,525.702-138.292z"/>
<path fill="#0E0205" d="M97.618,72.574c-4.565,1.984-8.126,3.465-13.167,3.924c-4.646,0.42-9.453-1.059-12.906-3.98
	c-2.799,3.318-7.555,4.313-11.754,4.06c-3.309-0.204-7.775-1.616-11.133-3.882c-7.535,3.469-15.136,4.271-23.588,2.736
	c-4.741-0.859-8.75-3.568-12.243-6.629C8.875,65.342-0.185,51.789,0.003,51.885c4.033,2.048,7.291,3.48,11.572,3.93
	c3.141,0.33,6.125,0.276,9.077-0.129c-0.293-0.262-0.587-0.513-0.88-0.775c-8.524-7.553-7.322-23.043-6.231-21.217
	c4.694,5.463,11.078,7.989,17.879,9.106c-0.68-0.754-1.182-1.628-1.816-2.367c-11.887-13.87-3.102-28.832-3.006-28.306
	c0.188,1.049,4.295,12.33,8.86,15.507c1.99,1.38,4.162,2.16,6.362,2.862c-0.799-3.366-1.248-6.807-1.404-10.316
	C39.673,3.544,50.572,0.152,50.744,0.002c0.146-0.126-0.037,7.467,4.635,14.942c1.184,1.894,2.41,3.749,3.859,5.464
	c0.607-0.946,1.262-1.882,2.023-2.799c2.42-2.93,5.699-4.964,9.008-6.797c3.973-2.194,13.332-5.553,13.114-5.111
	c-0.478,0.973-1.077,1.817-1.745,2.594c-2.844,4.49-5.039,9.072-6.477,14.325c-0.768,2.798-0.967,5.581-0.967,8.368
	c2.424-0.882,4.83-1.815,7.104-3.15c4.882-2.875,9.211-7.392,11.482-12.498c0.096-0.21,2.77,12.059-0.308,17.614
	c5.47-1.928,11.481-2.521,15.585-0.3c0.307,0.163-10.586,8.916-13.807,13.841c-2.006,3.063-3.368,6.518-4.84,9.884
	c1.267-0.131,2.533-0.314,3.808-0.591c6.807-1.482,19.69-13.742,19.599-13.386c-2.115,7.615-3.666,13.93-9.775,19.456
	c-1.275,1.147-2.65,2.132-4.111,2.999c1.428-0.303,2.867-0.553,4.37-0.621c5.69-0.275,10.663,0.246,15.077,3.969
	C118.976,68.713,104.101,69.754,97.618,72.574"/>
<g display="none">
	<path display="inline" fill="#1E95D4" d="M136.485-55.771c1.479,2.13,2.943,4.472,4.391,7.029
		c3.013,4.319,4.338,8.939,3.995,13.882c-0.229,3.236-1.393,6.194-3.51,8.867c-0.681,1.027-1.412,2.008-2.207,2.945l-0.277,0.331
		c0.005,0.028,0.01,0.055,0.016,0.082c1.017-0.119,1.931-0.204,2.75-0.26c0.724-0.036,1.676-0.073,2.838-0.092
		c0.252-0.004,0.505-0.01,0.757-0.014c4.306,0.013,8.724,0.47,13.263,1.354c4.188,0.893,8.14,2.477,11.851,4.725
		c1.848,1.161,3.416,2.865,4.713,5.141l0.018,0.025c1.28,2.264,0.265,4.281-3.072,6.072c-0.063,0.04-0.126,0.079-0.191,0.106
		c-0.518,0.321-1.036,0.628-1.557,0.937c-0.074,0.042-0.152,0.084-0.229,0.127c-4.509,2.6-9.347,4.261-14.483,4.993
		c-0.204,0.038-0.409,0.075-0.615,0.1c-13.616,2.481-28.971,2.573-46.04,0.255c-0.541-0.179-1.047-0.409-1.523-0.701
		c-0.016-0.01-0.034-0.034-0.051-0.046c-0.397-0.405-0.767-0.87-1.075-1.39c-0.883-1.72-1.462-3.539-1.718-5.445
		c-0.092-0.644-0.145-1.309-0.142-1.972c-0.021-0.488-0.008-0.941,0.041-1.358c0.075-0.575,0.176-1.17,0.328-1.791
		c1.312-5.265,4.046-10.74,8.231-16.427c2.174-3.205,4.3-6.203,6.369-8.992l-5.412-16.658l0.166-0.171L136.485-55.771z"/>
	<path display="inline" fill="none" stroke="#044591" stroke-width="2.2118" stroke-linecap="round" stroke-miterlimit="10" d="
		M140.875-48.741c3.013,4.319,4.337,8.938,3.993,13.882c-0.227,3.235-1.392,6.194-3.508,8.867c-0.681,1.027-1.412,2.007-2.208,2.944
		l-0.276,0.332c0.005,0.027,0.01,0.055,0.016,0.081c1.018-0.118,1.931-0.203,2.751-0.259c0.724-0.036,1.672-0.073,2.838-0.091
		c0.251-0.006,0.504-0.011,0.756-0.015c4.307,0.012,8.724,0.469,13.263,1.353c4.188,0.894,8.14,2.477,11.849,4.725
		c1.848,1.162,3.417,2.865,4.715,5.142l0.018,0.025c1.28,2.264,0.265,4.282-3.072,6.072c-0.063,0.04-0.125,0.079-0.191,0.104
		c-0.517,0.322-1.036,0.63-1.557,0.938c-0.076,0.042-0.151,0.085-0.229,0.127c-4.509,2.599-9.347,4.26-14.483,4.992
		c-0.204,0.038-0.407,0.076-0.615,0.1c-13.615,2.482-28.971,2.573-46.04,0.255c-0.54-0.18-1.047-0.408-1.522-0.701
		c-0.017-0.01-0.035-0.034-0.051-0.046c-0.399-0.404-0.768-0.869-1.075-1.389c-0.883-1.72-1.463-3.539-1.719-5.446
		c-0.092-0.644-0.146-1.31-0.142-1.972c-0.021-0.488-0.006-0.94,0.041-1.357c0.075-0.577,0.177-1.171,0.328-1.791
		c1.312-5.265,4.046-10.739,8.23-16.428c2.174-3.204,4.301-6.202,6.37-8.993l-5.412-16.656l0.165-0.172l22.378-1.651
		C137.965-53.641,139.428-51.298,140.875-48.741z"/>
</g>
<g display="none">
	<defs>
		<path id="SVGID_1_" d="M525.702-138.292c0-48.964-34.091-89.964-79.833-100.562c-2.739-54.565-47.849-97.966-103.095-97.966
			c-29.802,0-56.649,12.636-75.493,32.835c-18.825-25.158-48.86-41.441-82.7-41.441c-40.878,0-76.201,23.761-92.922,58.222
			c-9.93-3.178-20.512-4.9-31.495-4.9c-57.01,0-103.227,46.216-103.227,103.226c0,22.143,6.976,42.654,18.843,59.464
			c-23.181,18.93-37.983,47.731-37.983,79.992c0,57.009,46.216,103.225,103.225,103.225c0.779,0,1.553-0.012,2.326-0.029
			c8.689,48.215,50.861,84.797,101.583,84.797c27.501,0,52.489-10.758,70.99-28.291c17.432,13.45,39.277,21.456,62.997,21.456
			c30.679,0,58.226-13.388,77.133-34.634c11.425,4.358,23.819,6.752,36.774,6.752c57.009,0,103.226-46.216,103.226-103.226
			c0-19.724-5.534-38.154-15.132-53.828C507.965-71.811,525.702-102.977,525.702-138.292z"/>
	</defs>
	<clipPath id="SVGID_2_" display="inline">
		<use xlink:href="#SVGID_1_"  overflow="visible"/>
	</clipPath>
</g>
<path display="none" fill="none" d="M901.48,491.934c0,5.5-4.5,10-10,10H-386.465c-5.5,0-10-4.5-10-10v-27.558v-841.881
	c0-5.5,4.5-10,10-10H891.48c5.5,0,10,4.5,10,10v839.881V491.934z"/>
</svg>
