<?xml version="1.0" encoding="utf-8"?>
<!-- Generator: Adobe Illustrator 16.0.0, SVG Export Plug-In . SVG Version: 6.00 Build 0)  -->
<!DOCTYPE svg PUBLIC "-//W3C//DTD SVG 1.1//EN" "http://www.w3.org/Graphics/SVG/1.1/DTD/svg11.dtd">
<svg version="1.1" id="レイヤー_1" xmlns="http://www.w3.org/2000/svg" xmlns:xlink="http://www.w3.org/1999/xlink" x="0px"
	 y="0px" width="118.142px" height="114.626px" viewBox="0 0 118.142 114.626" enable-background="new 0 0 118.142 114.626"
	 xml:space="preserve">
<path display="none" fill="none" d="M1170.564,573.159c0,5.5-4.5,10-10,10H-117.381c-5.5,0-10-4.5-10-10v-27.558V-296.28
	c0-5.5,4.5-10,10-10h1277.945c5.5,0,10,4.5,10,10v839.881V573.159z"/>
<g>
	<polygon fill="#FFFFFF" points="55.113,32.136 31.833,64.727 8.556,30.971 	"/>
	<path fill="#E37811" d="M47.539,90.655c0,0,0-2.503-8.269-18.453c-29.705,8.634-20.888-16.627-18.845-18.85
		C19.148,55.87-0.692,55.287,5.308,40.44c8.652-21.4,27.06-9.503,30.386-5.361c1.602-6.455-15.836-21.958,2.324-30.329
		c11.751-5.423,15.758,29.464,11.436,38.416c2.993,0.163,15.503-9.202,18.112,1.936c3.874,16.51-8.954,12.479-14.094,16.449
		c7.127,13.817,11.183,19.977,11.183,19.977"/>
	<path fill="none" stroke="#E37811" stroke-width="8.3604" d="M47.539,90.655c0,0,0-2.503-8.269-18.453
		c-29.705,8.634-20.888-16.627-18.845-18.85C19.148,55.87-0.692,55.287,5.308,40.44c8.652-21.4,27.06-9.503,30.386-5.361
		c1.602-6.455-15.836-21.958,2.324-30.329c11.751-5.423,15.758,29.464,11.436,38.416c2.993,0.163,15.503-9.202,18.112,1.936
		c3.874,16.51-8.954,12.479-14.094,16.449c7.127,13.817,11.183,19.977,11.183,19.977"/>
	<path fill="#F4D924" d="M35.935,35.079c1.602-6.455-15.834-21.958,2.321-30.329c11.752-5.427,15.762,29.463,11.438,38.417
		c2.998,0.162,15.505-9.205,18.114,1.935c3.874,16.51-8.952,12.479-14.092,16.451c1.672,4.474,3.476,8.515,5.371,12.184
		c2.846,5.492-11.309,14.852-14.609,8.687c-1.708-3.187-3.365-6.569-4.967-10.224c-28.929,8.41-21.321-15.331-19.013-18.614
		C18.173,55.82-0.263,54.819,5.551,40.443C14.199,19.04,32.608,30.934,35.935,35.079"/>
	<path fill="#094E98" d="M103.697,101.883c-16.121,15.197-48.634,9.777-63.614-15.199c0,0,24.699-17.623,27.552-22.847l13.253,6.845
		c0-1.744,0.282-10.895-0.197-14.99c-1.505-8.683-2.172-28.051,5.518-30.042c11.303-2.93,21.588,22.931,21.588,22.931
		S123.846,82.888,103.697,101.883"/>
	<path fill="none" stroke="#094E98" stroke-width="8.5748" stroke-linecap="round" stroke-linejoin="round" d="M103.697,101.883
		c-16.121,15.197-48.634,9.777-63.614-15.199c0,0,24.699-17.623,27.552-22.847l13.253,6.845c0-1.744,0.282-10.895-0.197-14.99
		c-1.505-8.683-2.172-28.051,5.518-30.042c11.303-2.93,21.588,22.931,21.588,22.931S123.846,82.888,103.697,101.883z"/>
	<path fill="#1070B2" d="M79.45,69.937l34.405,14.904c-3.469,11.615-12.985,20.972-24.434,24.244L79.45,69.937z"/>
	<path fill="#A1C659" d="M80.466,54.9l30.264,1.647c0,0,4.072,13.813,3.124,27.549L80.279,69.963L80.466,54.9z"/>
	<path fill="#E37428" d="M75.567,67.177l-14.292,38.882c0,0-18.256-10.353-21.497-20.016c0,0,25.653-17.223,27.553-22.847
		C67.331,63.197,71.085,64.863,75.567,67.177"/>
	<path fill="#A1C659" d="M75.567,67.518l3.883,2.419l9.971,39.148c-11.625,3.643-24.254-1.312-28.146-3.027L75.567,67.518z"/>
	<path fill="#E37428" d="M79.749,44.936c0,0-0.934-14.76,7.295-19.128c6.158-3.208,13.259,7.818,13.259,7.818
		s6.165,7.512,10.427,22.921L80.466,54.9C80.281,54.333,79.749,44.936,79.749,44.936"/>
</g>
</svg>
