<?xml version="1.0" encoding="utf-8"?>
<!-- Generator: Adobe Illustrator 16.0.0, SVG Export Plug-In . SVG Version: 6.00 Build 0)  -->
<!DOCTYPE svg PUBLIC "-//W3C//DTD SVG 1.1//EN" "http://www.w3.org/Graphics/SVG/1.1/DTD/svg11.dtd">
<svg version="1.1" id="レイヤー_1" xmlns="http://www.w3.org/2000/svg" xmlns:xlink="http://www.w3.org/1999/xlink" x="0px"
	 y="0px" width="72.463px" height="90.655px" viewBox="0 0 72.463 90.655" enable-background="new 0 0 72.463 90.655"
	 xml:space="preserve">
<g>
	<path fill="#E37811" d="M47.539,90.656c0,0,0-2.504-8.269-18.453c-29.705,8.633-20.888-16.627-18.845-18.85
		c-1.278,2.518-21.118,1.934-15.118-12.912c8.652-21.4,27.06-9.504,30.387-5.361c1.602-6.455-15.836-21.959,2.323-30.33
		C49.77-0.672,53.776,34.215,49.453,43.166c2.993,0.164,15.503-9.201,18.112,1.936c3.874,16.51-8.954,12.479-14.095,16.449
		c7.127,13.818,11.183,19.977,11.183,19.977"/>
	<path fill="none" stroke="#E37811" stroke-width="8.3604" d="M47.539,90.656c0,0,0-2.504-8.269-18.453
		c-29.705,8.633-20.888-16.627-18.845-18.85c-1.278,2.518-21.118,1.934-15.118-12.912c8.652-21.4,27.06-9.504,30.387-5.361
		c1.602-6.455-15.836-21.959,2.323-30.33C49.77-0.672,53.776,34.215,49.453,43.166c2.993,0.164,15.503-9.201,18.112,1.936
		c3.874,16.51-8.954,12.479-14.095,16.449c7.127,13.818,11.183,19.977,11.183,19.977"/>
	<path fill="#F4D924" d="M35.692,35.08c1.602-6.455-15.834-21.959,2.321-30.33c11.752-5.426,15.762,29.463,11.438,38.418
		c2.997,0.162,15.505-9.205,18.114,1.934c3.873,16.51-8.952,12.479-14.093,16.451c1.672,4.475,3.477,8.516,5.371,12.184
		c2.846,5.492-11.309,14.852-14.608,8.688c-1.708-3.188-3.365-6.57-4.967-10.225c-28.929,8.41-21.321-15.33-19.013-18.613
		C17.93,55.82-0.506,54.82,5.309,40.443C13.956,19.041,32.365,30.936,35.692,35.08"/>
</g>
</svg>
