<?xml version="1.0" encoding="utf-8"?>
<!-- Generator: Adobe Illustrator 16.2.1, SVG Export Plug-In . SVG Version: 6.00 Build 0)  -->
<!DOCTYPE svg PUBLIC "-//W3C//DTD SVG 1.1//EN" "http://www.w3.org/Graphics/SVG/1.1/DTD/svg11.dtd">
<svg version="1.1" xmlns="http://www.w3.org/2000/svg" xmlns:xlink="http://www.w3.org/1999/xlink" x="0px" y="0px" width="154px"
	 height="154px" viewBox="0 0 154 154" enable-background="new 0 0 154 154" xml:space="preserve">
<g id="base">
</g>
<g id="book3">
</g>
<g id="_x38_" display="none">
</g>
<g id="_x37_" display="none">
</g>
<g id="_x36_" display="none">
</g>
<g id="_x35_" display="none">
</g>
<g id="_x34_" display="none">
</g>
<g id="_x33_" display="none">
</g>
<g id="_x32_" display="none">
</g>
<g id="_x31_" display="none">
</g>
<g id="_x30_">
	<g>
		
			<path fill="#DCDDDD" stroke="#DCDDDD" stroke-width="27.0791" stroke-linecap="round" stroke-linejoin="round" stroke-miterlimit="10" d="
			M62.471,62.866c-1.264,4.875-2.798,13.36-3.881,21.936c7.582-4.875,15.526-7.041,25.817-7.041c16.068,0,26.72,8.396,26.72,21.214
			c0,7.763-3.701,14.714-10.2,19.137c-6.5,4.423-14.715,6.5-25.817,6.5c-7.402,0-13.812-0.722-22.658-2.708
			c-0.271-7.492-0.632-10.381-2.076-16.068c8.937,2.799,17.332,4.243,24.103,4.243c11.915,0,19.859-4.243,19.859-10.652
			c0-4.784-4.694-7.583-12.818-7.583c-6.771,0-13.631,1.805-19.77,5.416c-2.347,1.264-3.25,2.076-5.056,4.062l-14.984-0.632
			c0.181-0.812,0.181-0.902,0.271-1.805c0.451-4.333,2.348-18.776,4.152-31.234c0.271-1.986,0.451-3.43,0.542-5.777L62.471,62.866z
			 M60.847,43.006c4.423,2.257,9.839,4.153,18.415,6.41c6.139,1.625,13.901,3.25,18.145,3.881l-4.784,14.534
			c-16.34-3.34-28.436-6.951-38.997-11.826L60.847,43.006z"/>
	</g>
	<g>
		
			<path fill="#EA5514" stroke="#EA5514" stroke-width="27.0791" stroke-linecap="round" stroke-linejoin="round" stroke-miterlimit="10" d="
			M62.471,52.376c-1.264,4.875-2.798,13.36-3.881,21.936c7.582-4.875,15.526-7.041,25.817-7.041c16.068,0,26.72,8.396,26.72,21.214
			c0,7.763-3.701,14.714-10.2,19.137c-6.5,4.423-14.715,6.5-25.817,6.5c-7.402,0-13.812-0.722-22.658-2.708
			c-0.271-7.492-0.632-10.381-2.076-16.068c8.937,2.799,17.332,4.243,24.103,4.243c11.915,0,19.859-4.243,19.859-10.652
			c0-4.784-4.694-7.583-12.818-7.583c-6.771,0-13.631,1.805-19.77,5.416c-2.347,1.264-3.25,2.076-5.056,4.062l-14.984-0.632
			c0.181-0.812,0.181-0.902,0.271-1.805c0.451-4.333,2.348-18.776,4.152-31.234c0.271-1.986,0.451-3.43,0.542-5.777L62.471,52.376z
			 M60.847,32.516c4.423,2.257,9.839,4.153,18.415,6.41c6.139,1.625,13.901,3.25,18.145,3.881l-4.784,14.534
			c-16.34-3.34-28.436-6.951-38.997-11.826L60.847,32.516z"/>
	</g>
	<g>
		<path fill="#C9CACA" stroke="#C9CACA" stroke-miterlimit="10" d="M62.471,54.644c-1.264,4.875-2.798,13.36-3.881,21.936
			c7.582-4.875,15.526-7.041,25.817-7.041c16.068,0,26.72,8.396,26.72,21.214c0,7.763-3.701,14.714-10.2,19.137
			c-6.5,4.423-14.715,6.5-25.817,6.5c-7.402,0-13.812-0.722-22.658-2.708c-0.271-7.492-0.632-10.381-2.076-16.068
			c8.937,2.799,17.332,4.243,24.103,4.243c11.915,0,19.859-4.243,19.859-10.652c0-4.784-4.694-7.583-12.818-7.583
			c-6.771,0-13.631,1.805-19.77,5.416c-2.347,1.264-3.25,2.076-5.056,4.062l-14.984-0.632c0.181-0.812,0.181-0.902,0.271-1.805
			c0.451-4.333,2.348-18.776,4.152-31.234c0.271-1.986,0.451-3.43,0.542-5.777L62.471,54.644z M60.847,34.784
			c4.423,2.257,9.839,4.153,18.415,6.41c6.139,1.625,13.901,3.25,18.145,3.881l-4.784,14.534
			c-16.34-3.34-28.436-6.951-38.997-11.826L60.847,34.784z"/>
	</g>
	<g>
		<path fill="#FFFFFF" d="M62.471,52.376c-1.264,4.875-2.798,13.36-3.881,21.936c7.582-4.875,15.526-7.041,25.817-7.041
			c16.068,0,26.72,8.396,26.72,21.214c0,7.763-3.701,14.714-10.2,19.137c-6.5,4.423-14.715,6.5-25.817,6.5
			c-7.402,0-13.812-0.722-22.658-2.708c-0.271-7.492-0.632-10.381-2.076-16.068c8.937,2.799,17.332,4.243,24.103,4.243
			c11.915,0,19.859-4.243,19.859-10.652c0-4.784-4.694-7.583-12.818-7.583c-6.771,0-13.631,1.805-19.77,5.416
			c-2.347,1.264-3.25,2.076-5.056,4.062l-14.984-0.632c0.181-0.812,0.181-0.902,0.271-1.805c0.451-4.333,2.348-18.776,4.152-31.234
			c0.271-1.986,0.451-3.43,0.542-5.777L62.471,52.376z M60.847,32.516c4.423,2.257,9.839,4.153,18.415,6.41
			c6.139,1.625,13.901,3.25,18.145,3.881l-4.784,14.534c-16.34-3.34-28.436-6.951-38.997-11.826L60.847,32.516z"/>
	</g>
</g>
<g id="guide" display="none">
</g>
</svg>
