<?xml version="1.0" encoding="utf-8"?>
<!-- Generator: Adobe Illustrator 16.2.1, SVG Export Plug-In . SVG Version: 6.00 Build 0)  -->
<!DOCTYPE svg PUBLIC "-//W3C//DTD SVG 1.1//EN" "http://www.w3.org/Graphics/SVG/1.1/DTD/svg11.dtd">
<svg version="1.1" xmlns="http://www.w3.org/2000/svg" xmlns:xlink="http://www.w3.org/1999/xlink" x="0px" y="0px" width="154px"
	 height="154px" viewBox="0 0 154 154" enable-background="new 0 0 154 154" xml:space="preserve">
<g id="base">
</g>
<g id="book3">
</g>
<g id="_x38_" display="none">
</g>
<g id="_x37_" display="none">
</g>
<g id="_x36_" display="none">
</g>
<g id="_x35_" display="none">
</g>
<g id="_x34_" display="none">
</g>
<g id="_x33_" display="none">
</g>
<g id="_x32_" display="none">
</g>
<g id="_x31_" display="none">
</g>
<g id="_x30_">
	<g>
		
			<path fill="#DCDDDD" stroke="#DCDDDD" stroke-width="27.0791" stroke-linecap="round" stroke-linejoin="round" stroke-miterlimit="10" d="
			M31.255,78.086c4.242,0.632,9.117,0.812,18.505,0.812h43.149c9.027,0,12.458-0.181,18.506-0.812v17.422
			c-4.333-0.451-8.305-0.541-18.596-0.541H49.851c-10.11,0-13.09,0.09-18.596,0.541V78.086z"/>
	</g>
	<g>
		
			<path fill="#EA5514" stroke="#EA5514" stroke-width="27.0791" stroke-linecap="round" stroke-linejoin="round" stroke-miterlimit="10" d="
			M31.255,67.596c4.242,0.633,9.117,0.812,18.505,0.812h43.149c9.027,0,12.458-0.18,18.506-0.812v17.423
			c-4.333-0.452-8.305-0.542-18.596-0.542H49.851c-10.11,0-13.09,0.09-18.596,0.542V67.596z"/>
	</g>
	<g>
		<path fill="#C9CACA" stroke="#C9CACA" stroke-miterlimit="10" d="M31.255,69.864c4.242,0.632,9.117,0.812,18.505,0.812h43.149
			c9.027,0,12.458-0.181,18.506-0.812v17.423c-4.333-0.452-8.305-0.543-18.596-0.543H49.851c-10.11,0-13.09,0.091-18.596,0.543
			V69.864z"/>
	</g>
	<g>
		<path fill="#FFFFFF" d="M31.255,67.596c4.242,0.633,9.117,0.812,18.505,0.812h43.149c9.027,0,12.458-0.18,18.506-0.812v17.423
			c-4.333-0.452-8.305-0.542-18.596-0.542H49.851c-10.11,0-13.09,0.09-18.596,0.542V67.596z"/>
	</g>
</g>
<g id="guide" display="none">
</g>
</svg>
