<?xml version="1.0" encoding="utf-8"?>
<!-- Generator: Adobe Illustrator 16.2.1, SVG Export Plug-In . SVG Version: 6.00 Build 0)  -->
<!DOCTYPE svg PUBLIC "-//W3C//DTD SVG 1.1//EN" "http://www.w3.org/Graphics/SVG/1.1/DTD/svg11.dtd">
<svg version="1.1" xmlns="http://www.w3.org/2000/svg" xmlns:xlink="http://www.w3.org/1999/xlink" x="0px" y="0px" width="154px"
	 height="154px" viewBox="0 0 154 154" enable-background="new 0 0 154 154" xml:space="preserve">
<g id="base">
</g>
<g id="book3">
</g>
<g id="_x38_" display="none">
</g>
<g id="_x37_" display="none">
</g>
<g id="_x36_" display="none">
</g>
<g id="_x35_" display="none">
</g>
<g id="_x34_" display="none">
</g>
<g id="_x33_" display="none">
</g>
<g id="_x32_" display="none">
</g>
<g id="_x31_" display="none">
</g>
<g id="_x30_">
	<g>
		
			<path fill="#DCDDDD" stroke="#DCDDDD" stroke-width="27.0791" stroke-linecap="round" stroke-linejoin="round" stroke-miterlimit="10" d="
			M56.931,56.66c-0.993-5.688-1.444-7.583-2.347-10.201l16.609-2.527c0.091,2.799,0.542,5.867,1.265,10.02l0.992,4.965l14.083-2.166
			c6.409-0.992,8.937-1.443,12.908-2.617l2.527,15.165c-3.069,0.271-3.069,0.271-12.818,1.716L76.068,73.18l2.167,11.374
			l16.699-2.528c6.229-0.992,9.208-1.624,12.999-2.798l2.709,15.256c-5.146,0.542-5.146,0.542-12.729,1.625l-17.062,2.618
			l2.527,13.089c1.444,7.763,1.625,8.666,2.709,12.097l-17.152,2.799c0-3.07-0.36-5.688-1.624-12.549l-2.348-12.998l-17.873,2.798
			c-6.229,0.993-6.681,1.083-12.367,2.528l-2.438-15.347c3.701-0.181,7.492-0.542,12.908-1.444l17.242-2.708l-2.076-11.374
			l-12.458,1.986c-7.673,1.173-9.749,1.533-13.45,2.527l-2.437-15.438c3.972-0.09,6.95-0.451,13.27-1.443l12.548-1.896L56.931,56.66
			z"/>
	</g>
	<g>
		
			<path fill="#EA5514" stroke="#EA5514" stroke-width="27.0791" stroke-linecap="round" stroke-linejoin="round" stroke-miterlimit="10" d="
			M56.931,46.17c-0.993-5.687-1.444-7.582-2.347-10.2l16.609-2.528c0.091,2.799,0.542,5.868,1.265,10.021l0.992,4.965l14.083-2.166
			c6.409-0.993,8.937-1.444,12.908-2.618l2.527,15.166c-3.069,0.271-3.069,0.271-12.818,1.715l-14.082,2.166l2.167,11.375
			l16.699-2.528c6.229-0.993,9.208-1.624,12.999-2.798l2.709,15.256c-5.146,0.541-5.146,0.541-12.729,1.625l-17.062,2.617
			l2.527,13.09c1.444,7.763,1.625,8.666,2.709,12.096l-17.152,2.799c0-3.069-0.36-5.688-1.624-12.548l-2.348-12.999l-17.873,2.799
			c-6.229,0.992-6.681,1.083-12.367,2.527l-2.438-15.346c3.701-0.182,7.492-0.542,12.908-1.445l17.242-2.707l-2.076-11.375
			l-12.458,1.986c-7.673,1.174-9.749,1.534-13.45,2.527l-2.437-15.437c3.972-0.09,6.95-0.451,13.27-1.444l12.548-1.896L56.931,46.17
			z"/>
	</g>
	<g>
		<path fill="#C9CACA" stroke="#C9CACA" stroke-miterlimit="10" d="M56.931,48.438c-0.993-5.687-1.444-7.583-2.347-10.2
			l16.609-2.528c0.091,2.798,0.542,5.868,1.265,10.021l0.992,4.965l14.083-2.166c6.409-0.994,8.937-1.445,12.908-2.619l2.527,15.166
			c-3.069,0.271-3.069,0.271-12.818,1.715l-14.082,2.167l2.167,11.374l16.699-2.527c6.229-0.993,9.208-1.625,12.999-2.799
			l2.709,15.256c-5.146,0.541-5.146,0.541-12.729,1.625l-17.062,2.617l2.527,13.09c1.444,7.764,1.625,8.666,2.709,12.096
			l-17.152,2.799c0-3.068-0.36-5.688-1.624-12.547l-2.348-13L47.092,95.74c-6.229,0.993-6.681,1.084-12.367,2.527l-2.438-15.346
			c3.701-0.181,7.492-0.541,12.908-1.444l17.242-2.708l-2.076-11.375l-12.458,1.986c-7.673,1.174-9.749,1.535-13.45,2.527
			l-2.437-15.436c3.972-0.09,6.95-0.451,13.27-1.445l12.548-1.895L56.931,48.438z"/>
	</g>
	<g>
		<path fill="#FFFFFF" d="M56.931,46.17c-0.993-5.687-1.444-7.582-2.347-10.2l16.609-2.528c0.091,2.799,0.542,5.868,1.265,10.021
			l0.992,4.965l14.083-2.166c6.409-0.993,8.937-1.444,12.908-2.618l2.527,15.166c-3.069,0.271-3.069,0.271-12.818,1.715
			l-14.082,2.166l2.167,11.375l16.699-2.528c6.229-0.993,9.208-1.624,12.999-2.798l2.709,15.256
			c-5.146,0.541-5.146,0.541-12.729,1.625l-17.062,2.617l2.527,13.09c1.444,7.763,1.625,8.666,2.709,12.096l-17.152,2.799
			c0-3.069-0.36-5.688-1.624-12.548l-2.348-12.999l-17.873,2.799c-6.229,0.992-6.681,1.083-12.367,2.527l-2.438-15.346
			c3.701-0.182,7.492-0.542,12.908-1.445l17.242-2.707l-2.076-11.375l-12.458,1.986c-7.673,1.174-9.749,1.534-13.45,2.527
			l-2.437-15.437c3.972-0.09,6.95-0.451,13.27-1.444l12.548-1.896L56.931,46.17z"/>
	</g>
</g>
<g id="guide" display="none">
</g>
</svg>
