<?xml version="1.0" encoding="utf-8"?>
<!-- Generator: Adobe Illustrator 16.2.1, SVG Export Plug-In . SVG Version: 6.00 Build 0)  -->
<!DOCTYPE svg PUBLIC "-//W3C//DTD SVG 1.1//EN" "http://www.w3.org/Graphics/SVG/1.1/DTD/svg11.dtd">
<svg version="1.1" xmlns="http://www.w3.org/2000/svg" xmlns:xlink="http://www.w3.org/1999/xlink" x="0px" y="0px" width="154px"
	 height="154px" viewBox="0 0 154 154" enable-background="new 0 0 154 154" xml:space="preserve">
<g id="base">
</g>
<g id="book3">
</g>
<g id="_x38_" display="none">
</g>
<g id="_x37_" display="none">
</g>
<g id="_x36_" display="none">
</g>
<g id="_x35_" display="none">
</g>
<g id="_x34_" display="none">
</g>
<g id="_x33_" display="none">
</g>
<g id="_x32_" display="none">
</g>
<g id="_x31_" display="none">
</g>
<g id="_x30_">
	<g>
		
			<path fill="#DCDDDD" stroke="#DCDDDD" stroke-width="27.0791" stroke-linecap="round" stroke-linejoin="round" stroke-miterlimit="10" d="
			M77.217,43.926c-0.091,0.182-1.354,2.709-3.882,7.854l24.283-0.271c2.617,0,3.791-0.271,5.506-1.173l8.034,7.943
			c-1.083,1.174-1.354,1.715-2.076,3.882c-5.326,16.067-10.11,25.817-16.79,34.845c-5.777,7.764-13.18,14.623-21.936,20.4
			c-4.875,3.16-8.576,5.146-15.527,8.306c-3.34-5.868-5.506-8.666-10.562-13.541c13.722-4.874,22.478-10.2,30.602-18.505
			c-5.597-4.604-10.02-7.493-16.79-11.193l9.479-11.375c8.034,4.333,10.923,6.139,16.609,10.291
			c3.701-5.688,5.868-10.562,7.764-16.52L66.926,65.05c-5.235,9.026-11.465,16.429-20.582,24.464
			c-4.333-4.695-7.131-6.951-12.999-10.201c10.652-8.395,17.151-15.888,22.478-25.908c2.527-4.604,4.062-8.484,5.235-12.638
			L77.217,43.926z"/>
	</g>
	<g>
		
			<path fill="#EA5514" stroke="#EA5514" stroke-width="27.0791" stroke-linecap="round" stroke-linejoin="round" stroke-miterlimit="10" d="
			M77.217,33.437c-0.091,0.181-1.354,2.708-3.882,7.854l24.283-0.271c2.617,0,3.791-0.271,5.506-1.174l8.034,7.943
			c-1.083,1.174-1.354,1.716-2.076,3.883c-5.326,16.067-10.11,25.816-16.79,34.844c-5.777,7.764-13.18,14.624-21.936,20.401
			c-4.875,3.159-8.576,5.146-15.527,8.306c-3.34-5.868-5.506-8.666-10.562-13.541c13.722-4.875,22.478-10.201,30.602-18.506
			c-5.597-4.604-10.02-7.492-16.79-11.193l9.479-11.375c8.034,4.334,10.923,6.139,16.609,10.291
			c3.701-5.687,5.868-10.561,7.764-16.52l-25.005,0.182c-5.235,9.026-11.465,16.429-20.582,24.463
			c-4.333-4.694-7.131-6.951-12.999-10.201c10.652-8.395,17.151-15.887,22.478-25.907c2.527-4.604,4.062-8.485,5.235-12.638
			L77.217,33.437z"/>
	</g>
	<g>
		<path fill="#C9CACA" stroke="#C9CACA" stroke-miterlimit="10" d="M77.217,35.705c-0.091,0.18-1.354,2.707-3.882,7.854
			l24.283-0.271c2.617,0,3.791-0.271,5.506-1.174l8.034,7.944c-1.083,1.173-1.354,1.716-2.076,3.882
			c-5.326,16.068-10.11,25.817-16.79,34.844c-5.777,7.764-13.18,14.625-21.936,20.402c-4.875,3.159-8.576,5.145-15.527,8.305
			c-3.34-5.867-5.506-8.666-10.562-13.541c13.722-4.875,22.478-10.201,30.602-18.506c-5.597-4.604-10.02-7.492-16.79-11.193
			l9.479-11.374c8.034,4.333,10.923,6.139,16.609,10.291c3.701-5.687,5.868-10.562,7.764-16.52l-25.005,0.181
			c-5.235,9.027-11.465,16.43-20.582,24.463c-4.333-4.693-7.131-6.951-12.999-10.2c10.652-8.396,17.151-15.888,22.478-25.907
			c2.527-4.604,4.062-8.486,5.235-12.639L77.217,35.705z"/>
	</g>
	<g>
		<path fill="#FFFFFF" d="M77.217,33.437c-0.091,0.181-1.354,2.708-3.882,7.854l24.283-0.271c2.617,0,3.791-0.271,5.506-1.174
			l8.034,7.943c-1.083,1.174-1.354,1.716-2.076,3.883c-5.326,16.067-10.11,25.816-16.79,34.844
			c-5.777,7.764-13.18,14.624-21.936,20.401c-4.875,3.159-8.576,5.146-15.527,8.306c-3.34-5.868-5.506-8.666-10.562-13.541
			c13.722-4.875,22.478-10.201,30.602-18.506c-5.597-4.604-10.02-7.492-16.79-11.193l9.479-11.375
			c8.034,4.334,10.923,6.139,16.609,10.291c3.701-5.687,5.868-10.561,7.764-16.52l-25.005,0.182
			c-5.235,9.026-11.465,16.429-20.582,24.463c-4.333-4.694-7.131-6.951-12.999-10.201c10.652-8.395,17.151-15.887,22.478-25.907
			c2.527-4.604,4.062-8.485,5.235-12.638L77.217,33.437z"/>
	</g>
</g>
<g id="guide" display="none">
</g>
</svg>
