<?xml version="1.0" encoding="utf-8"?>
<!-- Generator: Adobe Illustrator 16.2.1, SVG Export Plug-In . SVG Version: 6.00 Build 0)  -->
<!DOCTYPE svg PUBLIC "-//W3C//DTD SVG 1.1//EN" "http://www.w3.org/Graphics/SVG/1.1/DTD/svg11.dtd">
<svg version="1.1" xmlns="http://www.w3.org/2000/svg" xmlns:xlink="http://www.w3.org/1999/xlink" x="0px" y="0px" width="154px"
	 height="154px" viewBox="0 0 154 154" enable-background="new 0 0 154 154" xml:space="preserve">
<g id="base">
</g>
<g id="book3">
</g>
<g id="_x38_" display="none">
</g>
<g id="_x37_" display="none">
</g>
<g id="_x36_" display="none">
</g>
<g id="_x35_" display="none">
</g>
<g id="_x34_" display="none">
</g>
<g id="_x33_" display="none">
</g>
<g id="_x32_" display="none">
</g>
<g id="_x31_" display="none">
</g>
<g id="_x30_">
	<g>
		
			<path fill="#DCDDDD" stroke="#DCDDDD" stroke-width="27.0791" stroke-linecap="round" stroke-linejoin="round" stroke-miterlimit="10" d="
			M62.978,97.928c0.181-1.806,0.181-2.618,0.181-4.062c0-1.715,0-1.715-0.36-7.041l-1.806-28.616
			c-0.181-3.701-0.632-7.764-1.083-12.187h21.033c-0.271,2.077-0.812,8.396-1.084,12.187l-1.805,28.616
			c-0.181,3.792-0.271,5.597-0.271,6.951c0,0.903,0,1.896,0.091,4.153H62.978z M61.354,121.127v-17.061h18.144v17.061H61.354z"/>
	</g>
	<g>
		
			<path fill="#EA5514" stroke="#EA5514" stroke-width="27.0791" stroke-linecap="round" stroke-linejoin="round" stroke-miterlimit="10" d="
			M62.978,87.438c0.181-1.806,0.181-2.618,0.181-4.062c0-1.715,0-1.715-0.36-7.041l-1.806-28.616
			c-0.181-3.701-0.632-7.764-1.083-12.187h21.033c-0.271,2.077-0.812,8.396-1.084,12.187l-1.805,28.616
			c-0.181,3.792-0.271,5.597-0.271,6.951c0,0.903,0,1.896,0.091,4.153H62.978z M61.354,110.638V93.577h18.144v17.061H61.354z"/>
	</g>
	<g>
		<path fill="#C9CACA" stroke="#C9CACA" stroke-miterlimit="10" d="M62.978,89.707c0.181-1.806,0.181-2.618,0.181-4.062
			c0-1.715,0-1.715-0.36-7.041l-1.806-28.616c-0.181-3.701-0.632-7.764-1.083-12.187h21.033c-0.271,2.077-0.812,8.396-1.084,12.187
			l-1.805,28.616c-0.181,3.792-0.271,5.597-0.271,6.951c0,0.903,0,1.896,0.091,4.153H62.978z M61.354,112.906V95.845h18.144v17.061
			H61.354z"/>
	</g>
	<g>
		<path fill="#FFFFFF" d="M62.978,87.438c0.181-1.806,0.181-2.618,0.181-4.062c0-1.715,0-1.715-0.36-7.041l-1.806-28.616
			c-0.181-3.701-0.632-7.764-1.083-12.187h21.033c-0.271,2.077-0.812,8.396-1.084,12.187l-1.805,28.616
			c-0.181,3.792-0.271,5.597-0.271,6.951c0,0.903,0,1.896,0.091,4.153H62.978z M61.354,110.638V93.577h18.144v17.061H61.354z"/>
	</g>
</g>
<g id="guide" display="none">
</g>
</svg>
