<?xml version="1.0" encoding="utf-8"?>
<!-- Generator: Adobe Illustrator 16.2.1, SVG Export Plug-In . SVG Version: 6.00 Build 0)  -->
<!DOCTYPE svg PUBLIC "-//W3C//DTD SVG 1.1//EN" "http://www.w3.org/Graphics/SVG/1.1/DTD/svg11.dtd">
<svg version="1.1" xmlns="http://www.w3.org/2000/svg" xmlns:xlink="http://www.w3.org/1999/xlink" x="0px" y="0px" width="154px"
	 height="154px" viewBox="0 0 154 154" enable-background="new 0 0 154 154" xml:space="preserve">
<g id="base">
</g>
<g id="book3">
</g>
<g id="_x38_" display="none">
</g>
<g id="_x37_" display="none">
</g>
<g id="_x36_" display="none">
</g>
<g id="_x35_" display="none">
</g>
<g id="_x34_" display="none">
</g>
<g id="_x33_" display="none">
</g>
<g id="_x32_" display="none">
</g>
<g id="_x31_" display="none">
</g>
<g id="_x30_">
	<g>
		
			<path fill="#DCDDDD" stroke="#DCDDDD" stroke-width="27.0791" stroke-linecap="round" stroke-linejoin="round" stroke-miterlimit="10" d="
			M52.204,65.242c3.521,6.681,6.318,14.082,8.756,22.839l-14.082,4.243c-2.348-9.479-4.152-14.895-8.034-23.381L52.204,65.242z
			 M104.741,66.777c-0.541,1.625-0.632,1.986-1.354,5.506c-2.709,12.729-6.229,21.937-11.284,29.43
			c-4.875,7.221-11.284,13.359-18.957,18.324c-3.159,1.986-5.597,3.34-10.923,6.049c-3.069-5.508-4.875-7.764-9.93-12.729
			c18.145-7.041,27.984-16.068,33.581-31.054c2.347-6.319,3.882-13.722,3.972-19.047L104.741,66.777z M72.063,61.451
			c4.784,9.298,6.409,13.36,8.756,22.026l-13.812,4.243c-1.715-7.493-4.152-14.264-8.124-22.658L72.063,61.451z"/>
	</g>
	<g>
		
			<path fill="#EA5514" stroke="#EA5514" stroke-width="27.0791" stroke-linecap="round" stroke-linejoin="round" stroke-miterlimit="10" d="
			M52.204,54.753c3.521,6.681,6.318,14.082,8.756,22.839l-14.082,4.242c-2.348-9.479-4.152-14.895-8.034-23.38L52.204,54.753z
			 M104.741,56.287c-0.541,1.625-0.632,1.986-1.354,5.507c-2.709,12.729-6.229,21.937-11.284,29.429
			c-4.875,7.222-11.284,13.359-18.957,18.324c-3.159,1.986-5.597,3.341-10.923,6.049c-3.069-5.507-4.875-7.764-9.93-12.729
			c18.145-7.041,27.984-16.068,33.581-31.053c2.347-6.319,3.882-13.722,3.972-19.047L104.741,56.287z M72.063,50.961
			c4.784,9.299,6.409,13.361,8.756,22.027L67.008,77.23c-1.715-7.492-4.152-14.263-8.124-22.658L72.063,50.961z"/>
	</g>
	<g>
		<path fill="#C9CACA" stroke="#C9CACA" stroke-miterlimit="10" d="M52.204,57.021c3.521,6.68,6.318,14.082,8.756,22.838
			l-14.082,4.242c-2.348-9.478-4.152-14.895-8.034-23.379L52.204,57.021z M104.741,58.556c-0.541,1.625-0.632,1.985-1.354,5.507
			c-2.709,12.729-6.229,21.936-11.284,29.428c-4.875,7.223-11.284,13.36-18.957,18.325c-3.159,1.985-5.597,3.341-10.923,6.048
			c-3.069-5.506-4.875-7.764-9.93-12.729c18.145-7.041,27.984-16.067,33.581-31.053c2.347-6.318,3.882-13.721,3.972-19.047
			L104.741,58.556z M72.063,53.229c4.784,9.298,6.409,13.36,8.756,22.026l-13.812,4.242c-1.715-7.492-4.152-14.262-8.124-22.658
			L72.063,53.229z"/>
	</g>
	<g>
		<path fill="#FFFFFF" d="M52.204,54.753c3.521,6.681,6.318,14.082,8.756,22.839l-14.082,4.242
			c-2.348-9.479-4.152-14.895-8.034-23.38L52.204,54.753z M104.741,56.287c-0.541,1.625-0.632,1.986-1.354,5.507
			c-2.709,12.729-6.229,21.937-11.284,29.429c-4.875,7.222-11.284,13.359-18.957,18.324c-3.159,1.986-5.597,3.341-10.923,6.049
			c-3.069-5.507-4.875-7.764-9.93-12.729c18.145-7.041,27.984-16.068,33.581-31.053c2.347-6.319,3.882-13.722,3.972-19.047
			L104.741,56.287z M72.063,50.961c4.784,9.299,6.409,13.361,8.756,22.027L67.008,77.23c-1.715-7.492-4.152-14.263-8.124-22.658
			L72.063,50.961z"/>
	</g>
</g>
<g id="guide" display="none">
</g>
</svg>
