<?xml version="1.0" encoding="utf-8"?>
<!-- Generator: Adobe Illustrator 16.2.1, SVG Export Plug-In . SVG Version: 6.00 Build 0)  -->
<!DOCTYPE svg PUBLIC "-//W3C//DTD SVG 1.1//EN" "http://www.w3.org/Graphics/SVG/1.1/DTD/svg11.dtd">
<svg version="1.1" xmlns="http://www.w3.org/2000/svg" xmlns:xlink="http://www.w3.org/1999/xlink" x="0px" y="0px" width="154px"
	 height="154px" viewBox="0 0 154 154" enable-background="new 0 0 154 154" xml:space="preserve">
<g id="base">
</g>
<g id="book3">
</g>
<g id="_x38_" display="none">
</g>
<g id="_x37_" display="none">
</g>
<g id="_x36_" display="none">
</g>
<g id="_x35_" display="none">
</g>
<g id="_x34_" display="none">
</g>
<g id="_x33_" display="none">
</g>
<g id="_x32_" display="none">
</g>
<g id="_x31_" display="none">
</g>
<g id="_x30_">
	<g>
		
			<path fill="#DCDDDD" stroke="#DCDDDD" stroke-width="27.0791" stroke-linecap="round" stroke-linejoin="round" stroke-miterlimit="10" d="
			M38.896,73.059c3.159-0.361,3.159-0.361,10.381-1.715c12.458-2.528,21.033-3.611,28.346-3.611c8.847,0,14.895,1.715,19.77,5.597
			c4.874,3.882,7.492,9.839,7.492,17.061c0,13.812-8.937,24.103-25.005,28.977c-6.229,1.896-7.854,2.167-20.492,3.611
			c-1.083-5.597-2.166-8.576-5.506-14.443c8.485,0,15.165-0.902,21.936-2.979c6.139-1.896,11.104-5.597,12.909-9.749
			c0.722-1.535,1.083-3.43,1.083-5.326c0-5.687-4.784-9.027-12.999-9.027c-6.048,0-13.541,1.083-23.651,3.34
			c-6.048,1.354-8.034,1.896-11.283,3.16L38.896,73.059z"/>
	</g>
	<g>
		
			<path fill="#EA5514" stroke="#EA5514" stroke-width="27.0791" stroke-linecap="round" stroke-linejoin="round" stroke-miterlimit="10" d="
			M38.896,62.569c3.159-0.361,3.159-0.361,10.381-1.715c12.458-2.528,21.033-3.611,28.346-3.611c8.847,0,14.895,1.715,19.77,5.597
			c4.874,3.882,7.492,9.839,7.492,17.061c0,13.812-8.937,24.103-25.005,28.977c-6.229,1.896-7.854,2.167-20.492,3.611
			c-1.083-5.597-2.166-8.576-5.506-14.443c8.485,0,15.165-0.902,21.936-2.979c6.139-1.896,11.104-5.597,12.909-9.749
			c0.722-1.535,1.083-3.43,1.083-5.326c0-5.687-4.784-9.027-12.999-9.027c-6.048,0-13.541,1.083-23.651,3.34
			c-6.048,1.354-8.034,1.896-11.283,3.16L38.896,62.569z"/>
	</g>
	<g>
		<path fill="#C9CACA" stroke="#C9CACA" stroke-miterlimit="10" d="M38.896,64.837c3.159-0.361,3.159-0.361,10.381-1.715
			c12.458-2.528,21.033-3.611,28.346-3.611c8.847,0,14.895,1.715,19.77,5.597c4.874,3.882,7.492,9.839,7.492,17.061
			c0,13.812-8.937,24.103-25.005,28.977c-6.229,1.896-7.854,2.167-20.492,3.611c-1.083-5.597-2.166-8.576-5.506-14.443
			c8.485,0,15.165-0.902,21.936-2.979c6.139-1.896,11.104-5.597,12.909-9.749c0.722-1.535,1.083-3.43,1.083-5.326
			c0-5.687-4.784-9.027-12.999-9.027c-6.048,0-13.541,1.083-23.651,3.34c-6.048,1.354-8.034,1.896-11.283,3.16L38.896,64.837z"/>
	</g>
	<g>
		<path fill="#FFFFFF" d="M38.896,62.569c3.159-0.361,3.159-0.361,10.381-1.715c12.458-2.528,21.033-3.611,28.346-3.611
			c8.847,0,14.895,1.715,19.77,5.597c4.874,3.882,7.492,9.839,7.492,17.061c0,13.812-8.937,24.103-25.005,28.977
			c-6.229,1.896-7.854,2.167-20.492,3.611c-1.083-5.597-2.166-8.576-5.506-14.443c8.485,0,15.165-0.902,21.936-2.979
			c6.139-1.896,11.104-5.597,12.909-9.749c0.722-1.535,1.083-3.43,1.083-5.326c0-5.687-4.784-9.027-12.999-9.027
			c-6.048,0-13.541,1.083-23.651,3.34c-6.048,1.354-8.034,1.896-11.283,3.16L38.896,62.569z"/>
	</g>
</g>
<g id="guide" display="none">
</g>
</svg>
