<?xml version="1.0" encoding="utf-8"?>
<!-- Generator: Adobe Illustrator 16.2.1, SVG Export Plug-In . SVG Version: 6.00 Build 0)  -->
<!DOCTYPE svg PUBLIC "-//W3C//DTD SVG 1.1//EN" "http://www.w3.org/Graphics/SVG/1.1/DTD/svg11.dtd">
<svg version="1.1" xmlns="http://www.w3.org/2000/svg" xmlns:xlink="http://www.w3.org/1999/xlink" x="0px" y="0px" width="154px"
	 height="154px" viewBox="0 0 154 154" enable-background="new 0 0 154 154" xml:space="preserve">
<g id="base">
</g>
<g id="book3">
</g>
<g id="_x38_" display="none">
</g>
<g id="_x37_" display="none">
</g>
<g id="_x36_" display="none">
</g>
<g id="_x35_" display="none">
</g>
<g id="_x34_" display="none">
</g>
<g id="_x33_" display="none">
</g>
<g id="_x32_" display="none">
</g>
<g id="_x31_" display="none">
</g>
<g id="_x30_">
	<g>
		
			<path fill="#DCDDDD" stroke="#DCDDDD" stroke-width="27.0791" stroke-linecap="round" stroke-linejoin="round" stroke-miterlimit="10" d="
			M102.771,123.184c-7.854-9.93-15.798-17.783-25.908-25.637c-8.485,10.021-19.228,17.965-33.22,24.734
			c-3.159-6.318-5.055-9.027-10.11-14.263c11.735-4.514,21.033-10.382,29.248-18.235c8.396-8.033,13.902-16.067,18.145-26.539
			l-23.471,0.361c-7.763,0.18-10.651,0.361-14.353,0.902L42.65,48.439c3.521,0.451,5.958,0.633,9.479,0.633
			c0.722,0,2.437,0,5.055-0.091l30.873-0.452c4.242-0.09,4.784-0.09,7.222-0.992l7.943,8.125c-1.354,1.354-1.896,2.256-3.25,5.325
			c-4.784,11.284-8.214,17.603-13.27,24.374c10.923,7.854,14.624,11.012,28.706,24.463L102.771,123.184z"/>
	</g>
	<g>
		
			<path fill="#EA5514" stroke="#EA5514" stroke-width="27.0791" stroke-linecap="round" stroke-linejoin="round" stroke-miterlimit="10" d="
			M102.771,112.694c-7.854-9.93-15.798-17.783-25.908-25.637c-8.485,10.021-19.228,17.964-33.22,24.733
			c-3.159-6.318-5.055-9.026-10.11-14.262c11.735-4.514,21.033-10.382,29.248-18.235c8.396-8.034,13.902-16.067,18.145-26.54
			l-23.471,0.361c-7.763,0.181-10.651,0.361-14.353,0.902L42.65,37.95c3.521,0.451,5.958,0.632,9.479,0.632
			c0.722,0,2.437,0,5.055-0.09l30.873-0.452c4.242-0.09,4.784-0.09,7.222-0.993l7.943,8.125c-1.354,1.354-1.896,2.257-3.25,5.326
			c-4.784,11.283-8.214,17.603-13.27,24.373c10.923,7.854,14.624,11.013,28.706,24.463L102.771,112.694z"/>
	</g>
	<g>
		<path fill="#C9CACA" stroke="#C9CACA" stroke-miterlimit="10" d="M102.771,114.963c-7.854-9.93-15.798-17.783-25.908-25.637
			c-8.485,10.02-19.228,17.963-33.22,24.733c-3.159-6.319-5.055-9.026-10.11-14.263c11.735-4.514,21.033-10.381,29.248-18.234
			c8.396-8.035,13.902-16.068,18.145-26.54l-23.471,0.361c-7.763,0.181-10.651,0.36-14.353,0.902L42.65,40.219
			c3.521,0.451,5.958,0.631,9.479,0.631c0.722,0,2.437,0,5.055-0.09l30.873-0.451c4.242-0.09,4.784-0.09,7.222-0.993l7.943,8.124
			c-1.354,1.354-1.896,2.258-3.25,5.326c-4.784,11.284-8.214,17.604-13.27,24.373c10.923,7.854,14.624,11.014,28.706,24.464
			L102.771,114.963z"/>
	</g>
	<g>
		<path fill="#FFFFFF" d="M102.771,112.694c-7.854-9.93-15.798-17.783-25.908-25.637c-8.485,10.021-19.228,17.964-33.22,24.733
			c-3.159-6.318-5.055-9.026-10.11-14.262c11.735-4.514,21.033-10.382,29.248-18.235c8.396-8.034,13.902-16.067,18.145-26.54
			l-23.471,0.361c-7.763,0.181-10.651,0.361-14.353,0.902L42.65,37.95c3.521,0.451,5.958,0.632,9.479,0.632
			c0.722,0,2.437,0,5.055-0.09l30.873-0.452c4.242-0.09,4.784-0.09,7.222-0.993l7.943,8.125c-1.354,1.354-1.896,2.257-3.25,5.326
			c-4.784,11.283-8.214,17.603-13.27,24.373c10.923,7.854,14.624,11.013,28.706,24.463L102.771,112.694z"/>
	</g>
</g>
<g id="guide" display="none">
</g>
</svg>
