<?xml version="1.0" encoding="utf-8"?>
<!-- Generator: Adobe Illustrator 16.2.1, SVG Export Plug-In . SVG Version: 6.00 Build 0)  -->
<!DOCTYPE svg PUBLIC "-//W3C//DTD SVG 1.1//EN" "http://www.w3.org/Graphics/SVG/1.1/DTD/svg11.dtd">
<svg version="1.1" xmlns="http://www.w3.org/2000/svg" xmlns:xlink="http://www.w3.org/1999/xlink" x="0px" y="0px" width="154px"
	 height="154px" viewBox="0 0 154 154" enable-background="new 0 0 154 154" xml:space="preserve">
<g id="base">
</g>
<g id="book3">
</g>
<g id="_x38_" display="none">
</g>
<g id="_x37_" display="none">
</g>
<g id="_x36_" display="none">
</g>
<g id="_x35_" display="none">
</g>
<g id="_x34_" display="none">
</g>
<g id="_x33_" display="none">
</g>
<g id="_x32_" display="none">
</g>
<g id="_x31_" display="none">
</g>
<g id="_x30_">
	<g>
		<g>
			
				<path fill="#DCDDDD" stroke="#DCDDDD" stroke-width="27.0791" stroke-linecap="round" stroke-linejoin="round" stroke-miterlimit="10" d="
				M35.396,97.65c2.166-1.444,7.222-5.868,16.249-14.172c0.09-2.257,0.09-3.25,0.181-5.055c0.09-2.979,0.09-2.979,0.09-4.965
				c-10.472,0.812-10.472,0.812-12.999,1.264l-0.723-14.083c2.799,0.181,2.799,0.181,3.431,0.181c0.993,0,8.485-0.271,10.742-0.451
				c0.181-2.076,0.181-2.708,0.181-7.041c0.09-0.903,0.09-1.896,0.09-2.889c0-0.361,0-0.632,0-0.632c0-1.264-0.09-2.076-0.271-4.243
				l16.068,0.09c-0.722,3.611-1.174,8.034-1.354,13.451l5.146,4.604c-1.896,1.625-3.521,3.25-5.687,5.868
				c-0.091,0.632-0.091,0.903-0.091,1.264c0,0.812,0,0.812-0.09,1.444c4.333-3.069,6.68-4.513,9.749-5.958
				c5.326-2.528,11.014-3.882,16.068-3.882c16.158,0,27.262,11.555,27.262,28.255c0,18.957-12.908,31.233-32.678,31.233
				c-4.333,0-8.125-0.451-12.638-1.625c-0.181-7.042-0.632-9.75-2.618-15.888c6.59,2.076,10.2,2.798,14.805,2.798
				c10.742,0,17.513-6.5,17.513-16.791c0-8.395-5.056-13.45-13.36-13.45c-3.972,0-8.125,1.354-13.541,4.423
				c-4.514,2.437-6.771,4.152-10.472,7.583c-0.09,4.152-0.09,5.958-0.09,7.763c0,11.375,0.361,25.096,0.812,29.609H50.832
				c0.541-3.791,0.541-4.333,0.541-19.95c0-1.173,0-1.173,0.181-4.784c-0.993,1.173-0.993,1.173-3.34,3.611
				c-3.34,3.701-4.423,4.965-5.867,6.951L35.396,97.65z"/>
		</g>
		<g>
			
				<path fill="#EA5514" stroke="#EA5514" stroke-width="27.0791" stroke-linecap="round" stroke-linejoin="round" stroke-miterlimit="10" d="
				M35.396,87.161c2.166-1.444,7.222-5.868,16.249-14.172c0.09-2.257,0.09-3.25,0.181-5.055c0.09-2.979,0.09-2.979,0.09-4.965
				c-10.472,0.812-10.472,0.812-12.999,1.264l-0.723-14.083c2.799,0.181,2.799,0.181,3.431,0.181c0.993,0,8.485-0.271,10.742-0.451
				c0.181-2.076,0.181-2.708,0.181-7.041c0.09-0.903,0.09-1.896,0.09-2.889c0-0.361,0-0.632,0-0.632c0-1.264-0.09-2.076-0.271-4.243
				l16.068,0.09c-0.722,3.611-1.174,8.034-1.354,13.451l5.146,4.604c-1.896,1.625-3.521,3.25-5.687,5.868
				c-0.091,0.632-0.091,0.903-0.091,1.264c0,0.812,0,0.812-0.09,1.444c4.333-3.069,6.68-4.513,9.749-5.958
				c5.326-2.528,11.014-3.882,16.068-3.882c16.158,0,27.262,11.555,27.262,28.255c0,18.957-12.908,31.233-32.678,31.233
				c-4.333,0-8.125-0.451-12.638-1.625c-0.181-7.042-0.632-9.75-2.618-15.888c6.59,2.076,10.2,2.798,14.805,2.798
				c10.742,0,17.513-6.5,17.513-16.791c0-8.395-5.056-13.45-13.36-13.45c-3.972,0-8.125,1.354-13.541,4.423
				c-4.514,2.437-6.771,4.152-10.472,7.583c-0.09,4.152-0.09,5.958-0.09,7.763c0,11.375,0.361,25.096,0.812,29.609H50.832
				c0.541-3.791,0.541-4.333,0.541-19.95c0-1.173,0-1.173,0.181-4.784c-0.993,1.173-0.993,1.173-3.34,3.611
				c-3.34,3.701-4.423,4.965-5.867,6.951L35.396,87.161z"/>
		</g>
		<g>
			<path fill="#C9CACA" stroke="#C9CACA" stroke-miterlimit="10" d="M35.396,89.429c2.166-1.444,7.222-5.868,16.249-14.172
				c0.09-2.257,0.09-3.25,0.181-5.055c0.09-2.979,0.09-2.979,0.09-4.965c-10.472,0.812-10.472,0.812-12.999,1.264l-0.723-14.083
				c2.799,0.181,2.799,0.181,3.431,0.181c0.993,0,8.485-0.271,10.742-0.451c0.181-2.076,0.181-2.708,0.181-7.041
				c0.09-0.903,0.09-1.896,0.09-2.889c0-0.361,0-0.632,0-0.632c0-1.264-0.09-2.076-0.271-4.243l16.068,0.09
				c-0.722,3.611-1.174,8.034-1.354,13.451l5.146,4.604c-1.896,1.625-3.521,3.25-5.687,5.868c-0.091,0.632-0.091,0.903-0.091,1.264
				c0,0.812,0,0.812-0.09,1.444c4.333-3.069,6.68-4.513,9.749-5.958c5.326-2.528,11.014-3.882,16.068-3.882
				c16.158,0,27.262,11.555,27.262,28.255c0,18.957-12.908,31.233-32.678,31.233c-4.333,0-8.125-0.451-12.638-1.625
				c-0.181-7.042-0.632-9.75-2.618-15.888c6.59,2.076,10.2,2.798,14.805,2.798c10.742,0,17.513-6.5,17.513-16.791
				c0-8.395-5.056-13.45-13.36-13.45c-3.972,0-8.125,1.354-13.541,4.423c-4.514,2.437-6.771,4.152-10.472,7.583
				c-0.09,4.152-0.09,5.958-0.09,7.763c0,11.375,0.361,25.096,0.812,29.609H50.832c0.541-3.791,0.541-4.333,0.541-19.95
				c0-1.173,0-1.173,0.181-4.784c-0.993,1.173-0.993,1.173-3.34,3.611c-3.34,3.701-4.423,4.965-5.867,6.951L35.396,89.429z"/>
		</g>
		<g>
			<path fill="#FFFFFF" d="M35.396,87.161c2.166-1.444,7.222-5.868,16.249-14.172c0.09-2.257,0.09-3.25,0.181-5.055
				c0.09-2.979,0.09-2.979,0.09-4.965c-10.472,0.812-10.472,0.812-12.999,1.264l-0.723-14.083c2.799,0.181,2.799,0.181,3.431,0.181
				c0.993,0,8.485-0.271,10.742-0.451c0.181-2.076,0.181-2.708,0.181-7.041c0.09-0.903,0.09-1.896,0.09-2.889
				c0-0.361,0-0.632,0-0.632c0-1.264-0.09-2.076-0.271-4.243l16.068,0.09c-0.722,3.611-1.174,8.034-1.354,13.451l5.146,4.604
				c-1.896,1.625-3.521,3.25-5.687,5.868c-0.091,0.632-0.091,0.903-0.091,1.264c0,0.812,0,0.812-0.09,1.444
				c4.333-3.069,6.68-4.513,9.749-5.958c5.326-2.528,11.014-3.882,16.068-3.882c16.158,0,27.262,11.555,27.262,28.255
				c0,18.957-12.908,31.233-32.678,31.233c-4.333,0-8.125-0.451-12.638-1.625c-0.181-7.042-0.632-9.75-2.618-15.888
				c6.59,2.076,10.2,2.798,14.805,2.798c10.742,0,17.513-6.5,17.513-16.791c0-8.395-5.056-13.45-13.36-13.45
				c-3.972,0-8.125,1.354-13.541,4.423c-4.514,2.437-6.771,4.152-10.472,7.583c-0.09,4.152-0.09,5.958-0.09,7.763
				c0,11.375,0.361,25.096,0.812,29.609H50.832c0.541-3.791,0.541-4.333,0.541-19.95c0-1.173,0-1.173,0.181-4.784
				c-0.993,1.173-0.993,1.173-3.34,3.611c-3.34,3.701-4.423,4.965-5.867,6.951L35.396,87.161z"/>
		</g>
	</g>
</g>
<g id="guide" display="none">
</g>
</svg>
