<?xml version="1.0" encoding="utf-8"?>
<!-- Generator: Adobe Illustrator 16.2.1, SVG Export Plug-In . SVG Version: 6.00 Build 0)  -->
<!DOCTYPE svg PUBLIC "-//W3C//DTD SVG 1.1//EN" "http://www.w3.org/Graphics/SVG/1.1/DTD/svg11.dtd">
<svg version="1.1" xmlns="http://www.w3.org/2000/svg" xmlns:xlink="http://www.w3.org/1999/xlink" x="0px" y="0px" width="154px"
	 height="154px" viewBox="0 0 154 154" enable-background="new 0 0 154 154" xml:space="preserve">
<g id="base">
</g>
<g id="book3">
</g>
<g id="_x38_" display="none">
</g>
<g id="_x37_" display="none">
</g>
<g id="_x36_" display="none">
</g>
<g id="_x35_" display="none">
</g>
<g id="_x34_" display="none">
</g>
<g id="_x33_" display="none">
</g>
<g id="_x32_" display="none">
</g>
<g id="_x31_" display="none">
</g>
<g id="_x30_">
	<g>
		
			<path fill="#DCDDDD" stroke="#DCDDDD" stroke-width="27.0791" stroke-linecap="round" stroke-linejoin="round" stroke-miterlimit="10" d="
			M47.337,88.691c-6.499,0-8.666,0.091-13.27,0.452V74.158c4.875,0.542,5.958,0.633,13.541,0.633h13.359V62.604h-7.763
			c-7.674,0-8.576,0-13.631,0.451V47.98c3.791,0.631,5.416,0.722,13.812,0.722h38.545c8.306,0,10.562-0.091,14.443-0.722v15.074
			c-4.514-0.361-6.59-0.451-14.172-0.451H76.766v12.188h21.123c8.215,0,10.382-0.091,14.173-0.633v14.985
			c-4.604-0.361-6.68-0.452-13.902-0.452H76.675v11.104c0,4.062,0.181,5.326,1.174,6.139c1.083,0.993,3.069,1.354,7.132,1.354
			c9.93,0,17.783-0.812,23.65-2.438l0.361,15.978c-0.902-0.09-0.902-0.09-1.715-0.09c-0.903,0-1.625,0-3.521,0.181
			c-5.777,0.542-14.173,0.903-18.957,0.903c-10.021,0-15.256-0.812-18.596-2.979c-3.701-2.347-5.236-6.681-5.236-14.443V88.691
			H47.337z"/>
	</g>
	<g>
		
			<path fill="#EA5514" stroke="#EA5514" stroke-width="27.0791" stroke-linecap="round" stroke-linejoin="round" stroke-miterlimit="10" d="
			M47.337,78.202c-6.499,0-8.666,0.091-13.27,0.452V63.669c4.875,0.542,5.958,0.632,13.541,0.632h13.359V52.114h-7.763
			c-7.674,0-8.576,0-13.631,0.451V37.49c3.791,0.632,5.416,0.723,13.812,0.723h38.545c8.306,0,10.562-0.091,14.443-0.723v15.075
			c-4.514-0.361-6.59-0.451-14.172-0.451H76.766v12.187h21.123c8.215,0,10.382-0.09,14.173-0.632v14.985
			c-4.604-0.361-6.68-0.452-13.902-0.452H76.675v11.104c0,4.062,0.181,5.326,1.174,6.139c1.083,0.993,3.069,1.354,7.132,1.354
			c9.93,0,17.783-0.812,23.65-2.438l0.361,15.978c-0.902-0.091-0.902-0.091-1.715-0.091c-0.903,0-1.625,0-3.521,0.182
			c-5.777,0.541-14.173,0.902-18.957,0.902c-10.021,0-15.256-0.812-18.596-2.979c-3.701-2.348-5.236-6.681-5.236-14.443V78.202
			H47.337z"/>
	</g>
	<g>
		<path fill="#C9CACA" stroke="#C9CACA" stroke-miterlimit="10" d="M47.337,80.471c-6.499,0-8.666,0.09-13.27,0.451V65.938
			c4.875,0.541,5.958,0.631,13.541,0.631h13.359V54.383h-7.763c-7.674,0-8.576,0-13.631,0.451V39.758
			c3.791,0.633,5.416,0.723,13.812,0.723h38.545c8.306,0,10.562-0.09,14.443-0.723v15.076c-4.514-0.361-6.59-0.451-14.172-0.451
			H76.766v12.186h21.123c8.215,0,10.382-0.09,14.173-0.631v14.984c-4.604-0.361-6.68-0.451-13.902-0.451H76.675v11.104
			c0,4.062,0.181,5.326,1.174,6.139c1.083,0.992,3.069,1.354,7.132,1.354c9.93,0,17.783-0.812,23.65-2.438l0.361,15.979
			c-0.902-0.091-0.902-0.091-1.715-0.091c-0.903,0-1.625,0-3.521,0.181c-5.777,0.541-14.173,0.902-18.957,0.902
			c-10.021,0-15.256-0.812-18.596-2.979c-3.701-2.348-5.236-6.68-5.236-14.443V80.471H47.337z"/>
	</g>
	<g>
		<path fill="#FFFFFF" d="M47.337,78.202c-6.499,0-8.666,0.091-13.27,0.452V63.669c4.875,0.542,5.958,0.632,13.541,0.632h13.359
			V52.114h-7.763c-7.674,0-8.576,0-13.631,0.451V37.49c3.791,0.632,5.416,0.723,13.812,0.723h38.545
			c8.306,0,10.562-0.091,14.443-0.723v15.075c-4.514-0.361-6.59-0.451-14.172-0.451H76.766v12.187h21.123
			c8.215,0,10.382-0.09,14.173-0.632v14.985c-4.604-0.361-6.68-0.452-13.902-0.452H76.675v11.104c0,4.062,0.181,5.326,1.174,6.139
			c1.083,0.993,3.069,1.354,7.132,1.354c9.93,0,17.783-0.812,23.65-2.438l0.361,15.978c-0.902-0.091-0.902-0.091-1.715-0.091
			c-0.903,0-1.625,0-3.521,0.182c-5.777,0.541-14.173,0.902-18.957,0.902c-10.021,0-15.256-0.812-18.596-2.979
			c-3.701-2.348-5.236-6.681-5.236-14.443V78.202H47.337z"/>
	</g>
</g>
<g id="guide" display="none">
</g>
</svg>
