<?xml version="1.0" encoding="utf-8"?>
<!-- Generator: Adobe Illustrator 16.2.1, SVG Export Plug-In . SVG Version: 6.00 Build 0)  -->
<!DOCTYPE svg PUBLIC "-//W3C//DTD SVG 1.1//EN" "http://www.w3.org/Graphics/SVG/1.1/DTD/svg11.dtd">
<svg version="1.1" xmlns="http://www.w3.org/2000/svg" xmlns:xlink="http://www.w3.org/1999/xlink" x="0px" y="0px" width="154px"
	 height="154px" viewBox="0 0 154 154" enable-background="new 0 0 154 154" xml:space="preserve">
<g id="base">
</g>
<g id="book3">
</g>
<g id="_x38_" display="none">
</g>
<g id="_x37_" display="none">
</g>
<g id="_x36_" display="none">
</g>
<g id="_x35_" display="none">
</g>
<g id="_x34_" display="none">
</g>
<g id="_x33_" display="none">
</g>
<g id="_x32_" display="none">
</g>
<g id="_x31_" display="none">
</g>
<g id="_x30_">
	<g>
		
			<path fill="#DCDDDD" stroke="#DCDDDD" stroke-width="27.0791" stroke-linecap="round" stroke-linejoin="round" stroke-miterlimit="10" d="
			M33.066,52.143c1.534,0.09,2.708,0.09,3.43,0.09c2.348,0,5.597-0.181,15.437-0.812c14.082-0.903,20.672-1.264,48.205-2.257
			c7.492-0.271,8.305-0.361,9.93-0.722l0.812,16.339c-1.264-0.18-1.625-0.18-2.527-0.18c-6.319,0-14.443,2.437-20.673,6.319
			c-9.026,5.506-14.353,13.18-14.353,20.582c0,5.145,2.438,8.666,7.583,11.103c3.7,1.806,11.374,3.25,17.241,3.25
			c0.902,0,1.444,0,2.708-0.181l-2.076,17.242c-1.264-0.271-1.715-0.271-3.34-0.451c-10.291-0.993-17.062-2.438-22.839-5.055
			c-10.651-4.965-16.158-13.27-16.158-24.734c0-7.493,2.527-14.263,7.673-20.401c2.348-2.889,4.514-4.694,8.847-7.673l-31.233,2.798
			c-3.521,0.361-4.424,0.451-7.764,1.173L33.066,52.143z"/>
	</g>
	<g>
		
			<path fill="#EA5514" stroke="#EA5514" stroke-width="27.0791" stroke-linecap="round" stroke-linejoin="round" stroke-miterlimit="10" d="
			M33.066,41.653c1.534,0.09,2.708,0.09,3.43,0.09c2.348,0,5.597-0.181,15.437-0.812c14.082-0.903,20.672-1.264,48.205-2.257
			c7.492-0.271,8.305-0.361,9.93-0.722l0.812,16.339c-1.264-0.18-1.625-0.18-2.527-0.18c-6.319,0-14.443,2.437-20.673,6.319
			c-9.026,5.506-14.353,13.18-14.353,20.582c0,5.145,2.438,8.666,7.583,11.103c3.7,1.806,11.374,3.25,17.241,3.25
			c0.902,0,1.444,0,2.708-0.181l-2.076,17.242c-1.264-0.271-1.715-0.271-3.34-0.451c-10.291-0.993-17.062-2.438-22.839-5.055
			c-10.651-4.965-16.158-13.27-16.158-24.734c0-7.493,2.527-14.263,7.673-20.401c2.348-2.889,4.514-4.694,8.847-7.673l-31.233,2.798
			c-3.521,0.361-4.424,0.451-7.764,1.173L33.066,41.653z"/>
	</g>
	<g>
		<path fill="#C9CACA" stroke="#C9CACA" stroke-miterlimit="10" d="M33.066,43.921c1.534,0.09,2.708,0.09,3.43,0.09
			c2.348,0,5.597-0.181,15.437-0.812c14.082-0.903,20.672-1.264,48.205-2.257c7.492-0.271,8.305-0.361,9.93-0.722l0.812,16.339
			c-1.264-0.18-1.625-0.18-2.527-0.18c-6.319,0-14.443,2.437-20.673,6.319c-9.026,5.506-14.353,13.18-14.353,20.582
			c0,5.145,2.438,8.666,7.583,11.103c3.7,1.806,11.374,3.25,17.241,3.25c0.902,0,1.444,0,2.708-0.181l-2.076,17.242
			c-1.264-0.271-1.715-0.271-3.34-0.451c-10.291-0.993-17.062-2.438-22.839-5.055c-10.651-4.965-16.158-13.27-16.158-24.734
			c0-7.493,2.527-14.263,7.673-20.401c2.348-2.889,4.514-4.694,8.847-7.673l-31.233,2.798c-3.521,0.361-4.424,0.451-7.764,1.173
			L33.066,43.921z"/>
	</g>
	<g>
		<path fill="#FFFFFF" d="M33.066,41.653c1.534,0.09,2.708,0.09,3.43,0.09c2.348,0,5.597-0.181,15.437-0.812
			c14.082-0.903,20.672-1.264,48.205-2.257c7.492-0.271,8.305-0.361,9.93-0.722l0.812,16.339c-1.264-0.18-1.625-0.18-2.527-0.18
			c-6.319,0-14.443,2.437-20.673,6.319c-9.026,5.506-14.353,13.18-14.353,20.582c0,5.145,2.438,8.666,7.583,11.103
			c3.7,1.806,11.374,3.25,17.241,3.25c0.902,0,1.444,0,2.708-0.181l-2.076,17.242c-1.264-0.271-1.715-0.271-3.34-0.451
			c-10.291-0.993-17.062-2.438-22.839-5.055c-10.651-4.965-16.158-13.27-16.158-24.734c0-7.493,2.527-14.263,7.673-20.401
			c2.348-2.889,4.514-4.694,8.847-7.673l-31.233,2.798c-3.521,0.361-4.424,0.451-7.764,1.173L33.066,41.653z"/>
	</g>
</g>
<g id="guide" display="none">
</g>
</svg>
