<?xml version="1.0" encoding="utf-8"?>
<!-- Generator: Adobe Illustrator 16.2.1, SVG Export Plug-In . SVG Version: 6.00 Build 0)  -->
<!DOCTYPE svg PUBLIC "-//W3C//DTD SVG 1.1//EN" "http://www.w3.org/Graphics/SVG/1.1/DTD/svg11.dtd">
<svg version="1.1" xmlns="http://www.w3.org/2000/svg" xmlns:xlink="http://www.w3.org/1999/xlink" x="0px" y="0px" width="154px"
	 height="154px" viewBox="0 0 154 154" enable-background="new 0 0 154 154" xml:space="preserve">
<g id="base">
</g>
<g id="book3">
</g>
<g id="_x38_" display="none">
</g>
<g id="_x37_" display="none">
</g>
<g id="_x36_" display="none">
</g>
<g id="_x35_" display="none">
</g>
<g id="_x34_" display="none">
</g>
<g id="_x33_" display="none">
</g>
<g id="_x32_" display="none">
</g>
<g id="_x31_" display="none">
</g>
<g id="_x30_">
	<g>
		
			<path fill="#DCDDDD" stroke="#DCDDDD" stroke-width="27.0791" stroke-linecap="round" stroke-linejoin="round" stroke-miterlimit="10" d="
			M78.886,44.111c-0.451,0.812-0.632,1.084-1.083,2.258c-0.181,0.271-0.361,0.812-0.632,1.354c-0.361,0.902-0.632,1.535-0.812,1.896
			c-1.174,2.617-1.174,2.617-1.806,3.881l22.658-0.271c3.521,0,4.514-0.181,6.681-0.993l7.492,7.402
			c-1.083,1.805-1.354,2.348-2.618,6.409c-4.604,14.985-10.742,26.72-18.686,35.747c-8.215,9.389-18.416,16.52-33.22,23.29
			c-2.979-5.777-5.777-9.298-10.833-13.722c12.818-4.693,22.207-10.471,30.15-18.414c6.681-6.771,11.735-15.256,15.075-25.638
			l-24.012,0.271C61.374,76.881,55.325,83.471,46.75,90.24c-4.604-5.235-6.861-7.221-12.819-10.832
			c11.014-7.764,18.145-15.979,24.013-27.533c2.347-4.693,3.431-7.673,3.882-10.832L78.886,44.111z"/>
	</g>
	<g>
		
			<path fill="#EA5514" stroke="#EA5514" stroke-width="27.0791" stroke-linecap="round" stroke-linejoin="round" stroke-miterlimit="10" d="
			M78.886,33.622c-0.451,0.812-0.632,1.083-1.083,2.257c-0.181,0.271-0.361,0.812-0.632,1.354c-0.361,0.902-0.632,1.534-0.812,1.896
			c-1.174,2.617-1.174,2.617-1.806,3.882l22.658-0.271c3.521,0,4.514-0.182,6.681-0.994l7.492,7.402
			c-1.083,1.806-1.354,2.348-2.618,6.41c-4.604,14.984-10.742,26.72-18.686,35.747c-8.215,9.388-18.416,16.52-33.22,23.29
			c-2.979-5.777-5.777-9.299-10.833-13.722c12.818-4.694,22.207-10.472,30.15-18.415c6.681-6.771,11.735-15.256,15.075-25.637
			l-24.012,0.271C61.374,66.391,55.325,72.98,46.75,79.751c-4.604-5.235-6.861-7.222-12.819-10.833
			c11.014-7.764,18.145-15.978,24.013-27.532c2.347-4.694,3.431-7.673,3.882-10.833L78.886,33.622z"/>
	</g>
	<g>
		<path fill="#C9CACA" stroke="#C9CACA" stroke-miterlimit="10" d="M78.886,35.891c-0.451,0.812-0.632,1.083-1.083,2.256
			c-0.181,0.271-0.361,0.812-0.632,1.355c-0.361,0.902-0.632,1.533-0.812,1.895c-1.174,2.618-1.174,2.618-1.806,3.883l22.658-0.271
			c3.521,0,4.514-0.181,6.681-0.993l7.492,7.402c-1.083,1.806-1.354,2.347-2.618,6.409c-4.604,14.984-10.742,26.721-18.686,35.748
			c-8.215,9.388-18.416,16.52-33.22,23.289c-2.979-5.777-5.777-9.298-10.833-13.721c12.818-4.694,22.207-10.472,30.15-18.416
			c6.681-6.77,11.735-15.256,15.075-25.637l-24.012,0.271C61.374,68.658,55.325,75.248,46.75,82.02
			c-4.604-5.236-6.861-7.223-12.819-10.833c11.014-7.764,18.145-15.978,24.013-27.532c2.347-4.695,3.431-7.674,3.882-10.833
			L78.886,35.891z"/>
	</g>
	<g>
		<path fill="#FFFFFF" d="M78.886,33.622c-0.451,0.812-0.632,1.083-1.083,2.257c-0.181,0.271-0.361,0.812-0.632,1.354
			c-0.361,0.902-0.632,1.534-0.812,1.896c-1.174,2.617-1.174,2.617-1.806,3.882l22.658-0.271c3.521,0,4.514-0.182,6.681-0.994
			l7.492,7.402c-1.083,1.806-1.354,2.348-2.618,6.41c-4.604,14.984-10.742,26.72-18.686,35.747
			c-8.215,9.388-18.416,16.52-33.22,23.29c-2.979-5.777-5.777-9.299-10.833-13.722c12.818-4.694,22.207-10.472,30.15-18.415
			c6.681-6.771,11.735-15.256,15.075-25.637l-24.012,0.271C61.374,66.391,55.325,72.98,46.75,79.751
			c-4.604-5.235-6.861-7.222-12.819-10.833c11.014-7.764,18.145-15.978,24.013-27.532c2.347-4.694,3.431-7.673,3.882-10.833
			L78.886,33.622z"/>
	</g>
</g>
<g id="guide" display="none">
</g>
</svg>
