<?xml version="1.0" encoding="utf-8"?>
<!-- Generator: Adobe Illustrator 16.2.1, SVG Export Plug-In . SVG Version: 6.00 Build 0)  -->
<!DOCTYPE svg PUBLIC "-//W3C//DTD SVG 1.1//EN" "http://www.w3.org/Graphics/SVG/1.1/DTD/svg11.dtd">
<svg version="1.1" xmlns="http://www.w3.org/2000/svg" xmlns:xlink="http://www.w3.org/1999/xlink" x="0px" y="0px" width="154px"
	 height="154px" viewBox="0 0 154 154" enable-background="new 0 0 154 154" xml:space="preserve">
<g id="base">
</g>
<g id="book3">
</g>
<g id="_x38_" display="none">
</g>
<g id="_x37_" display="none">
</g>
<g id="_x36_" display="none">
</g>
<g id="_x35_" display="none">
</g>
<g id="_x34_" display="none">
</g>
<g id="_x33_" display="none">
</g>
<g id="_x32_" display="none">
</g>
<g id="_x31_" display="none">
</g>
<g id="_x30_">
	<g>
		
			<path fill="#DCDDDD" stroke="#DCDDDD" stroke-width="27.0791" stroke-linecap="round" stroke-linejoin="round" stroke-miterlimit="10" d="
			M49.569,48.219c11.374,6.68,17.242,10.833,24.824,17.693L63.742,79.994c-7.854-8.215-15.526-14.172-24.554-19.047L49.569,48.219z
			 M40.091,104.277c9.208-0.723,18.687-2.979,27.172-6.5c11.374-4.693,19.498-11.464,26.449-22.297
			c3.791-5.777,6.229-10.742,8.847-17.693c4.423,5.326,6.499,7.133,13.27,12.098c-8.215,17.783-16.79,28.435-29.428,36.559
			c-9.75,6.319-18.325,9.66-35.116,13.541c-3.521,0.812-4.062,0.902-6.499,1.625L40.091,104.277z"/>
	</g>
	<g>
		
			<path fill="#EA5514" stroke="#EA5514" stroke-width="27.0791" stroke-linecap="round" stroke-linejoin="round" stroke-miterlimit="10" d="
			M49.569,37.729c11.374,6.68,17.242,10.833,24.824,17.692L63.742,69.505c-7.854-8.215-15.526-14.173-24.554-19.048L49.569,37.729z
			 M40.091,93.787c9.208-0.722,18.687-2.979,27.172-6.499c11.374-4.694,19.498-11.464,26.449-22.297
			c3.791-5.777,6.229-10.742,8.847-17.693c4.423,5.326,6.499,7.132,13.27,12.097c-8.215,17.783-16.79,28.436-29.428,36.56
			c-9.75,6.319-18.325,9.659-35.116,13.54c-3.521,0.812-4.062,0.903-6.499,1.625L40.091,93.787z"/>
	</g>
	<g>
		<path fill="#C9CACA" stroke="#C9CACA" stroke-miterlimit="10" d="M49.569,39.998c11.374,6.68,17.242,10.832,24.824,17.692
			L63.742,71.773C55.889,63.559,48.216,57.6,39.188,52.726L49.569,39.998z M40.091,96.056c9.208-0.722,18.687-2.979,27.172-6.499
			c11.374-4.694,19.498-11.465,26.449-22.297c3.791-5.777,6.229-10.742,8.847-17.693c4.423,5.326,6.499,7.131,13.27,12.096
			c-8.215,17.783-16.79,28.436-29.428,36.561c-9.75,6.318-18.325,9.658-35.116,13.54c-3.521,0.812-4.062,0.903-6.499,1.625
			L40.091,96.056z"/>
	</g>
	<g>
		<path fill="#FFFFFF" d="M49.569,37.729c11.374,6.68,17.242,10.833,24.824,17.692L63.742,69.505
			c-7.854-8.215-15.526-14.173-24.554-19.048L49.569,37.729z M40.091,93.787c9.208-0.722,18.687-2.979,27.172-6.499
			c11.374-4.694,19.498-11.464,26.449-22.297c3.791-5.777,6.229-10.742,8.847-17.693c4.423,5.326,6.499,7.132,13.27,12.097
			c-8.215,17.783-16.79,28.436-29.428,36.56c-9.75,6.319-18.325,9.659-35.116,13.54c-3.521,0.812-4.062,0.903-6.499,1.625
			L40.091,93.787z"/>
	</g>
</g>
<g id="guide" display="none">
</g>
</svg>
