<?xml version="1.0" encoding="utf-8"?>
<!-- Generator: Adobe Illustrator 16.2.1, SVG Export Plug-In . SVG Version: 6.00 Build 0)  -->
<!DOCTYPE svg PUBLIC "-//W3C//DTD SVG 1.1//EN" "http://www.w3.org/Graphics/SVG/1.1/DTD/svg11.dtd">
<svg version="1.1" id="illust" xmlns="http://www.w3.org/2000/svg" xmlns:xlink="http://www.w3.org/1999/xlink" x="0px" y="0px"
	 width="768px" height="430.271px" viewBox="0 0 768 430.271" enable-background="new 0 0 768 430.271" xml:space="preserve">
<g>
	<g>
		<linearGradient id="SVGID_1_" gradientUnits="userSpaceOnUse" x1="37.3164" y1="292.0791" x2="80.0181" y2="292.0791">
			<stop  offset="0" style="stop-color:#DF9257"/>
			<stop  offset="0.5" style="stop-color:#D7742D"/>
			<stop  offset="1" style="stop-color:#BB6232"/>
		</linearGradient>
		<path fill="url(#SVGID_1_)" d="M77.576,277.258c0.083,0.759,0.085,1.52,0.022,2.278c0.055,0.08,0.111,0.159,0.161,0.243
			c1.386,2.258,2.275,4.741,2.259,7.294c-0.009,1.115-0.187,2.222-0.487,3.308c-0.238,0.857-0.558,1.695-0.85,2.541
			c-0.017-0.449,0.063-0.903,0.121-1.348c0.27-2.061,0.45-4.129,0.074-6.19c-0.23-1.264-0.662-2.505-1.34-3.651
			c-0.067-0.113-0.139-0.225-0.211-0.335c-0.124,0.6-0.269,1.194-0.402,1.79c-0.069-0.444-0.042-0.902-0.036-1.351
			c0.004-0.354,0.007-0.708,0.004-1.063c-0.684-0.906-1.529-1.726-2.499-2.431c-0.756-0.552-1.583-1.032-2.453-1.448
			c-0.993-0.477-4.139-1.618-3.093-1.236c1.625,0.596-0.939-0.461-4.941-1.68c-0.95-0.288-1.91-0.564-2.896-0.755
			c-0.448-0.089-0.927-0.177-1.393-0.149c-0.145,0.009-0.35,0.029-0.437,0.142c-0.005,0.009-0.014,0.042-0.02,0.071
			c3.156,9.5,5.52,23.581,3.468,43.172c-0.013,3.945-2.666,7.727-7.199,9.541c-6.304,2.523-13.858,0.29-16.873-4.99
			c-3.014-5.279-0.347-11.605,5.957-14.131c5.736-2.295,12.505-0.653,15.949,3.637c0.23-0.166,0.335-0.375,0.335-0.375
			s5.829-28.668-16.865-49.697c-1.125-0.908,5.777-3.969,6.72-3.2c0.343,0.185,0.589,0.504,0.874,0.746
			c0.922,0.78,2.015,1.413,3.128,1.986c1.332,0.685,2.722,1.286,4.119,1.867c3.03,1.258,6.127,2.402,9.076,3.79
			c1.349,0.636,2.674,1.323,3.889,2.129c1.044,0.69,2.025,1.479,2.748,2.421C76.126,272.316,77.298,274.716,77.576,277.258z
			 M74.489,272.143c-0.912-1.223-2.116-2.283-3.519-3.119c-0.817-0.484-1.695-0.898-2.609-1.241
			c-1.044-0.394-2.135-0.683-3.222-0.979c-1.69-0.461-3.39-0.9-5.112-1.271c-0.978-0.21-1.966-0.406-2.969-0.518
			c-0.435-0.048-0.897-0.094-1.337-0.043c0.049,0.1,0.101,0.199,0.151,0.3c0.153,0.169,0.288,0.354,0.443,0.512
			c0.828,0.853,1.843,1.571,2.885,2.23c1.245,0.789,2.559,1.501,3.883,2.193c2.869,1.496,5.82,2.886,8.594,4.507
			c1.271,0.742,2.51,1.533,3.625,2.435c0.528,0.425,1.031,0.879,1.481,1.366c-0.092-0.955-0.256-1.905-0.541-2.844
			C75.869,274.432,75.297,273.231,74.489,272.143z"/>
		<g>
			<g>
				
					<linearGradient id="SVGID_2_" gradientUnits="userSpaceOnUse" x1="762.5977" y1="58.3584" x2="771.5469" y2="58.3584" gradientTransform="matrix(1.0772 -0.4314 0.515 0.9022 -801.3051 558.1648)">
					<stop  offset="0" style="stop-color:#DF9257"/>
					<stop  offset="0.5" style="stop-color:#D7742D"/>
					<stop  offset="1" style="stop-color:#BB6232"/>
				</linearGradient>
				<path fill="url(#SVGID_2_)" d="M61.806,302.128c2.09-20.188-9.612-38.285-13.996-44.268c-2.058,0.804-4.202,2.095-3.536,2.633
					C59.475,274.584,61.876,292.1,61.806,302.128z"/>
			</g>
			
				<linearGradient id="SVGID_3_" gradientUnits="userSpaceOnUse" x1="738.002" y1="87.2129" x2="753.2959" y2="87.2129" gradientTransform="matrix(1.0772 -0.4314 0.515 0.9022 -801.3051 558.1648)">
				<stop  offset="0" style="stop-color:#DF9257"/>
				<stop  offset="0.5" style="stop-color:#D7742D"/>
				<stop  offset="1" style="stop-color:#BB6232"/>
			</linearGradient>
			<path fill="url(#SVGID_3_)" d="M54.224,310.411c-0.692-1.212-1.657-2.237-2.803-3.058c-2.388-0.611-5.045-0.507-7.474,0.467
				c-5.145,2.06-7.322,7.224-4.861,11.532c1.196,2.096,3.27,3.603,5.676,4.36c1.428-0.06,2.863-0.352,4.233-0.899
				C54.527,320.597,56.869,315.045,54.224,310.411z"/>
			
				<linearGradient id="SVGID_4_" gradientUnits="userSpaceOnUse" x1="780.9873" y1="50.458" x2="785.7677" y2="50.458" gradientTransform="matrix(1.0772 -0.4314 0.515 0.9022 -801.3051 558.1648)">
				<stop  offset="0" style="stop-color:#DF9257"/>
				<stop  offset="0.5" style="stop-color:#D7742D"/>
				<stop  offset="1" style="stop-color:#BB6232"/>
			</linearGradient>
			<path fill="url(#SVGID_4_)" d="M74.848,271.854c0.289,0.388,0.543,0.791,0.772,1.205c-0.105-0.625-0.235-1.248-0.419-1.86
				c-0.184-0.267-0.375-0.53-0.574-0.79c-0.722-0.941-1.704-1.729-2.747-2.42c-1.216-0.807-2.54-1.493-3.889-2.129
				c-2.949-1.387-6.047-2.531-9.075-3.79c-1.057-0.438-2.109-0.891-3.135-1.381c0.586,1.016,2.064,2.708,5.789,4.819
				c1.319,0.309,2.627,0.65,3.93,1.004c1.085,0.297,2.177,0.587,3.221,0.979c0.914,0.345,1.792,0.757,2.608,1.243
				C72.733,269.571,73.937,270.627,74.848,271.854z"/>
			
				<linearGradient id="SVGID_5_" gradientUnits="userSpaceOnUse" x1="800.1226" y1="110.791" x2="804.902" y2="110.791" gradientTransform="matrix(1.1224 -0.3411 0.4072 0.94 -873.5273 444.7011)">
				<stop  offset="0" style="stop-color:#DF9257"/>
				<stop  offset="0.5" style="stop-color:#D7742D"/>
				<stop  offset="1" style="stop-color:#BB6232"/>
			</linearGradient>
			<path fill="url(#SVGID_5_)" d="M77.896,281.709c0.241,0.41,0.448,0.833,0.627,1.264c-0.032-0.633-0.088-1.262-0.201-1.887
				c-0.152-0.28-0.311-0.559-0.477-0.832c-0.611-0.996-1.495-1.861-2.452-2.635c-1.116-0.902-2.354-1.693-3.624-2.437
				c-2.772-1.622-5.721-3.015-8.588-4.515c-1-0.524-1.994-1.061-2.958-1.631c0.463,1.059,1.738,2.863,5.198,5.27
				c1.276,0.414,2.539,0.861,3.793,1.32c1.046,0.386,2.1,0.763,3.092,1.239c0.868,0.418,1.695,0.899,2.45,1.45
				C76.057,279.264,77.132,280.414,77.896,281.709z"/>
			<g>
				<linearGradient id="SVGID_6_" gradientUnits="userSpaceOnUse" x1="58.2231" y1="287.8652" x2="80.4932" y2="287.8652">
					<stop  offset="0" style="stop-color:#DF9257"/>
					<stop  offset="0.5" style="stop-color:#D7742D"/>
					<stop  offset="1" style="stop-color:#BB6232"/>
				</linearGradient>
				<path fill="url(#SVGID_6_)" d="M79.142,289.93c-0.481-1.108-1.271-2.109-2.15-3.024c-1.026-1.065-2.196-2.03-3.407-2.946
					c-2.644-2.002-5.51-3.783-8.272-5.666c-1.277-0.871-2.537-1.76-3.714-2.724c-0.985-0.806-1.934-1.67-2.664-2.653
					c-0.232-0.312-0.397-0.699-0.713-0.957c0.369,1.363,0.737,2.729,1.109,4.091c0.445,1.647,0.891,3.295,1.336,4.942
					c0.014,0.045,0.025,0.091,0.038,0.135c-0.003,0.002,0.034-0.106,0.049-0.119c0.109-0.109,0.328-0.106,0.479-0.101
					c0.49,0.023,0.978,0.169,1.432,0.31c1,0.31,1.961,0.704,2.907,1.111c1.667,0.719,3.292,1.502,4.902,2.306
					c1.034,0.517,2.075,1.026,3.038,1.634c0.843,0.531,1.633,1.127,2.337,1.786c1.21,1.134,2.152,2.456,2.749,3.893
					c0.529,1.275,0.784,2.62,0.825,3.968c0.066,2.195-0.448,4.339-1.056,6.463c-0.131,0.459-0.288,0.926-0.341,1.396
					c0.439-0.851,0.907-1.69,1.291-2.562c0.486-1.102,0.849-2.239,1.032-3.404C80.771,295.138,80.234,292.442,79.142,289.93"/>
				
					<linearGradient id="SVGID_7_" gradientUnits="userSpaceOnUse" x1="841.9727" y1="174.8301" x2="846.9924" y2="174.8301" gradientTransform="matrix(1.1644 -0.2213 0.2642 0.9752 -955.4614 300.6127)">
					<stop  offset="0" style="stop-color:#DF9257"/>
					<stop  offset="0.5" style="stop-color:#D7742D"/>
					<stop  offset="1" style="stop-color:#BB6232"/>
				</linearGradient>
				<path fill="url(#SVGID_7_)" d="M78.815,291.713c0.189,0.454,0.338,0.917,0.458,1.387c0.066-0.663,0.106-1.325,0.086-1.988
					c-0.115-0.309-0.237-0.615-0.369-0.92c-0.479-1.105-1.266-2.103-2.143-3.014c-1.022-1.062-2.187-2.022-3.394-2.936
					c-2.635-1.994-5.491-3.771-8.243-5.646c-0.962-0.656-1.915-1.322-2.829-2.024c0.318,1.153,1.364,3.175,4.593,6.062
					c1.266,0.572,2.511,1.177,3.745,1.793c1.031,0.515,2.07,1.024,3.029,1.629c0.841,0.53,1.626,1.123,2.328,1.779
					C77.283,288.963,78.222,290.281,78.815,291.713z"/>
			</g>
		</g>
	</g>
	<g>
		<linearGradient id="SVGID_8_" gradientUnits="userSpaceOnUse" x1="64.7671" y1="290.791" x2="722.9414" y2="290.791">
			<stop  offset="0" style="stop-color:#DF9257"/>
			<stop  offset="0.5" style="stop-color:#D7742D"/>
			<stop  offset="1" style="stop-color:#BB6232"/>
		</linearGradient>
		<path fill="url(#SVGID_8_)" d="M507.27,223.502c-32.957,10.84-64.646,25.783-94.887,43.381
			c-29.328,16.896-57.479,35.251-85.567,51.108c-53.685,30.92-108.924,50.562-166.553,55.724
			c-27.672,2.466-55.782,1.289-83.545-1.966c-3.945-0.474-7.942-1.022-11.95-1.64v0.915c3.971,0.639,7.927,1.211,11.827,1.71
			c27.955,3.497,56.208,4.938,84.147,2.737c58.091-4.604,113.725-23.703,167.67-53.844c28.193-15.432,56.34-33.222,85.533-49.356
			c30.066-16.796,61.545-30.807,94.358-40.678c64.757-19.077,134.882-23.058,214.639,4.435V221.6
			C642.67,196.309,572.365,202.513,507.27,223.502z"/>
		<linearGradient id="SVGID_9_" gradientUnits="userSpaceOnUse" x1="64.7671" y1="265.5723" x2="722.9414" y2="265.5723">
			<stop  offset="0" style="stop-color:#DF9257"/>
			<stop  offset="0.5" style="stop-color:#D7742D"/>
			<stop  offset="1" style="stop-color:#BB6232"/>
		</linearGradient>
		<path fill="url(#SVGID_9_)" d="M158.979,368.932c56.375-6.656,110.554-27.744,163.538-60.764
			c27.81-17.007,55.979-36.9,85.663-55.897c30.707-19.813,62.952-37.351,96.272-50.888c66.041-26.367,136.828-38.784,218.489-19.702
			v-14.619c-82.159-16.764-153.116-2.043-219.505,26.32c-33.44,14.532-65.881,33.023-96.751,53.647
			c-29.812,19.763-57.989,40.21-85.7,57.627c-52.737,33.767-106.537,55.366-162.463,62.555c-26.688,3.429-54.273,3.224-81.33,0.851
			c-4.118-0.371-8.274-0.824-12.425-1.354v0.903c4.112,0.554,8.226,1.032,12.296,1.432
			C104.307,371.647,132.031,372.11,158.979,368.932z"/>
		<linearGradient id="SVGID_10_" gradientUnits="userSpaceOnUse" x1="64.7671" y1="314.1426" x2="722.9414" y2="314.1426">
			<stop  offset="0" style="stop-color:#DF9257"/>
			<stop  offset="0.5" style="stop-color:#D7742D"/>
			<stop  offset="1" style="stop-color:#BB6232"/>
		</linearGradient>
		<path fill="url(#SVGID_10_)" d="M511.181,253.966c-32.396,7.245-63.27,18.729-92.848,33.331
			c-28.813,14.047-56.953,30.267-85.443,44.508c-54.684,27.954-111.426,45.519-170.807,48.55
			c-28.682,1.447-57.332-0.729-85.816-4.899c-3.831-0.581-7.667-1.219-11.5-1.907v0.929c3.796,0.707,7.594,1.366,11.384,1.97
			c28.68,4.418,57.474,6.867,86.43,5.701c59.858-2.446,117.01-19.435,171.971-46.577c28.601-13.8,56.739-29.444,85.411-42.735
			c29.395-13.81,60.041-24.387,92.272-30.691c63.482-12.074,132.924-7.891,210.706,27.586v-14.262
			C644.626,242.081,574.999,240.051,511.181,253.966z"/>
		<linearGradient id="SVGID_11_" gradientUnits="userSpaceOnUse" x1="64.7671" y1="238.2812" x2="722.9414" y2="238.2812">
			<stop  offset="0" style="stop-color:#DF9257"/>
			<stop  offset="0.5" style="stop-color:#D7742D"/>
			<stop  offset="1" style="stop-color:#BB6232"/>
		</linearGradient>
		<path fill="url(#SVGID_11_)" d="M157.296,362.526c54.708-8.61,107.489-31.573,159.568-67.354
			c27.45-18.528,55.655-40.483,85.802-62.358c31.314-22.862,64.264-44.007,98.012-61.305
			c67.348-33.979,138.761-55.155,222.264-44.945v-14.846c-83.982-7.759-155.558,15.812-223.256,51.882
			c-33.85,18.317-66.977,40.436-98.447,64.115c-30.268,22.646-58.485,45.144-85.842,64.067
			c-26.77,18.625-52.242,33.567-79.323,45.193c-26.163,11.364-52.49,19.467-79.213,23.864c-13.107,2.171-26.281,3.486-39.517,3.978
			c-13.396,0.483-26.649,0.386-39.65-0.422c-4.304-0.257-8.629-0.606-12.925-1.04v0.888c4.257,0.461,8.537,0.839,12.79,1.128
			C104.105,367.114,131.313,366.626,157.296,362.526z"/>
		<linearGradient id="SVGID_12_" gradientUnits="userSpaceOnUse" x1="64.7671" y1="335.8252" x2="722.9414" y2="335.8252">
			<stop  offset="0" style="stop-color:#DF9257"/>
			<stop  offset="0.5" style="stop-color:#D7742D"/>
			<stop  offset="1" style="stop-color:#BB6232"/>
		</linearGradient>
		<path fill="url(#SVGID_12_)" d="M515.171,284.777c-31.756,3.76-61.746,11.874-90.629,23.52
			c-28.269,11.217-56.41,25.257-85.326,37.822c-55.742,24.859-114.049,40.219-175.233,41.014
			c-14.781,0.182-29.733-0.486-44.678-1.965c-14.334-1.43-28.839-3.35-43.462-5.986c-3.683-0.664-7.377-1.376-11.076-2.135v0.94
			c3.664,0.777,7.322,1.507,10.967,2.191c14.737,2.77,29.329,4.819,43.729,6.384c15.064,1.625,30.142,2.438,45.041,2.404
			c30.498-0.029,60.161-3.786,89.003-10.259c29.554-6.384,59.486-16.868,87.438-28.684c29.035-12.109,57.177-25.56,85.297-36.025
			c28.689-10.862,58.436-18.099,90.005-20.945c62.223-5.32,130.971,6.815,206.694,49.9v-14.148
			C646.661,287.714,577.728,277.68,515.171,284.777z"/>
		<g>
			<linearGradient id="SVGID_13_" gradientUnits="userSpaceOnUse" x1="272.2461" y1="330.7559" x2="329.7461" y2="330.7559">
				<stop  offset="0" style="stop-color:#DF9257"/>
				<stop  offset="0.5" style="stop-color:#D7742D"/>
				<stop  offset="1" style="stop-color:#BB6232"/>
			</linearGradient>
			<path fill-rule="evenodd" clip-rule="evenodd" fill="url(#SVGID_13_)" d="M324.25,327.299
				c-5.925-13.864-13.161-30.797-18.29-42.797c-0.122,0.053-0.244,0.104-0.366,0.156c-11.013,7.87-22.184,15.658-33.348,23.454
				c7.082,16.57,14.165,33.142,21.246,49.713c-8.015-1.886-14.282,9.734-10.878,16.151c3.059,5.77,9.831,2.176,12.387-1.459
				c1.521-2.165,2.717-5.1,2.549-7.736c-0.225-3.525-2.985-8.509-4.992-13.204c-5.286-12.369-11.998-27.667-16.259-38.552
				c10.51-6.929,20.852-14.851,30.965-21.411c6.19,14.48,12.379,28.962,18.567,43.443c-8.096-1.556-14.19,9.442-10.878,16.152
				c1.206,2.445,4.3,3.585,6.525,3.091c5.949-1.322,8.65-8.17,8.226-12.719C329.396,338.275,326.355,332.226,324.25,327.299z"/>
			<linearGradient id="SVGID_14_" gradientUnits="userSpaceOnUse" x1="408.1606" y1="257.6064" x2="433.4277" y2="257.6064">
				<stop  offset="0" style="stop-color:#DF9257"/>
				<stop  offset="0.5" style="stop-color:#D7742D"/>
				<stop  offset="1" style="stop-color:#BB6232"/>
			</linearGradient>
			<path fill-rule="evenodd" clip-rule="evenodd" fill="url(#SVGID_14_)" d="M423.896,256.861c-1.231,1.079-1.529,2.761-2.561,3.53
				c-3.825-7.674-7.65-15.348-11.476-23.021c-0.483,0.466-2.149,0.534-1.582,1.351c6.501,13.041,13.002,26.082,19.503,39.122
				c0.73-1.833,1.465-4.306,2.564-6.913c0.96-2.276,2.287-4.712,2.79-6.839c0.334-1.406,0.469-3.577-0.068-5.038
				C431.592,255.054,427.111,254.046,423.896,256.861z M427.636,273.03c-1.675-3.359-3.351-6.721-5.025-10.081
				c-0.232-3.681,4.548-6.176,6.392-1.12C430.275,265.32,428.331,270.563,427.636,273.03z"/>
			<linearGradient id="SVGID_15_" gradientUnits="userSpaceOnUse" x1="524.0469" y1="175.2891" x2="581.8916" y2="175.2891">
				<stop  offset="0" style="stop-color:#DF9257"/>
				<stop  offset="0.5" style="stop-color:#D7742D"/>
				<stop  offset="1" style="stop-color:#BB6232"/>
			</linearGradient>
			<path fill-rule="evenodd" clip-rule="evenodd" fill="url(#SVGID_15_)" d="M547.19,128.229c-3.379-3.913-5.137-8.939-7.155-14.562
				c-0.193-0.54-0.348-1.762-1.187-1.933c-0.781,0.152-1.562,0.304-2.345,0.455c-0.295,0.104-0.203,0.467-0.108,0.833
				c6.04,31.092,12.08,62.183,18.121,93.275c-3.795-1.398-7.574-1.632-13.223,0.136c-6.024,1.885-12.871,8.531-15.592,14.385
				c-1.437,3.093-2.271,7.502-1.102,11.029c1.629,4.911,7.54,7.195,11.361,6.985c1.558-0.085,3.914-0.562,5.731-1.113
				c7.954-2.414,15.572-10.762,17.221-17.134c0.539-2.087,0.566-4.574,0.298-6.817c-1.272-10.622-4.531-23.325-6.732-34.653
				c-2.354-12.116-4.617-23.771-6.782-34.913c14.298,0.029,27.279,8.179,31.471,22.816c3.487,12.177,0.306,21.605-1.467,30.027
				c-0.144,0.681-1.186,2.117-0.015,2.706c1.727-0.122,1.922-2.203,2.309-3.422c2.849-8.99,5.721-21.482,2.423-33.459
				C575.238,144.065,557.198,139.818,547.19,128.229z"/>
			<linearGradient id="SVGID_16_" gradientUnits="userSpaceOnUse" x1="234.3052" y1="330.0439" x2="261.6465" y2="330.0439">
				<stop  offset="0" style="stop-color:#DF9257"/>
				<stop  offset="0.5" style="stop-color:#D7742D"/>
				<stop  offset="1" style="stop-color:#BB6232"/>
			</linearGradient>
			<path fill-rule="evenodd" clip-rule="evenodd" fill="url(#SVGID_16_)" d="M240.743,308.209c-1.888-1.375-3.205-3.406-4.699-5.674
				c-0.144-0.218-0.346-0.739-0.726-0.728c-0.318,0.146-0.637,0.294-0.956,0.443c-0.115,0.075-0.035,0.226,0.047,0.378
				c6.066,13.069,12.133,26.138,18.2,39.207c-1.786-0.223-3.435,0.067-5.663,1.431c-2.377,1.455-4.574,5.094-5.089,7.953
				c-0.271,1.511-0.137,3.54,0.759,4.972c1.248,1.995,4.042,2.388,5.659,1.899c0.659-0.198,1.618-0.653,2.337-1.084
				c3.146-1.889,5.484-6.354,5.481-9.333c-0.001-0.975-0.268-2.073-0.634-3.033c-1.733-4.548-4.551-9.805-6.761-14.566
				c-2.364-5.093-4.638-9.992-6.812-14.676c6.143-1.47,12.627,0.773,16.062,6.786c2.858,5.004,2.544,9.486,2.724,13.38
				c0.015,0.314-0.272,1.056,0.296,1.194c0.728-0.234,0.579-1.171,0.609-1.747c0.219-4.256,0.057-10.057-2.697-14.989
				C254.556,312.275,246.335,312.276,240.743,308.209z"/>
			<linearGradient id="SVGID_17_" gradientUnits="userSpaceOnUse" x1="430.0342" y1="226.4385" x2="471.127" y2="226.4385">
				<stop  offset="0" style="stop-color:#DF9257"/>
				<stop  offset="0.5" style="stop-color:#D7742D"/>
				<stop  offset="1" style="stop-color:#BB6232"/>
			</linearGradient>
			<path fill-rule="evenodd" clip-rule="evenodd" fill="url(#SVGID_17_)" d="M463.543,217.375
				c-1.037-10.019-8.835-15.69-15.031-18.4c-5.803-2.538-11.324-2.566-15.549-7.534c-0.457-0.538-0.735-2.675-2.322-1.869
				c-0.202,0.094-0.403,0.186-0.606,0.279c7.914,17.264,15.828,34.529,23.742,51.794c-9.701-0.756-19.212,12.604-13.2,19.979
				c1.549,1.9,4.774,2.18,6.954,1.577c6.646-1.837,11.906-10.544,10.677-15.891c-0.625-2.718-2.438-5.317-3.61-7.874
				c-3.819-8.332-7.059-15.399-10.829-23.626c6.411,1.474,16.084,0.082,21.279,5.641c4.101,4.388,4.976,10.968,4.96,16.42
				c1.78-1.285,0.981-4.189,0.669-6.538C469.942,225.826,467.443,220.088,463.543,217.375z M437.241,201.574
				c9.572,0.724,20.206,1.848,24.561,14.399C453.71,210.92,443.358,211.949,437.241,201.574z"/>
			<linearGradient id="SVGID_18_" gradientUnits="userSpaceOnUse" x1="81.4204" y1="368.709" x2="113.2603" y2="368.709">
				<stop  offset="0" style="stop-color:#DF9257"/>
				<stop  offset="0.5" style="stop-color:#D7742D"/>
				<stop  offset="1" style="stop-color:#BB6232"/>
			</linearGradient>
			<path fill-rule="evenodd" clip-rule="evenodd" fill="url(#SVGID_18_)" d="M100.13,366.955c-0.391-2.96-0.953-5.758-1.535-8.534
				c4.175-4.721,9.509-11.165,8.923-21.37c-0.147-2.564-0.729-4.913-1.693-7.688c-0.672-1.938-1.939-5.513-3.711-5.884
				c-0.814-0.171-2.748,1.582-3.159,2.064c-4.579,5.366-5.721,17.692-3.194,25.593c-5.135,5.788-14.145,11.963-14.338,22.823
				c-0.094,5.349,1.938,9.646,4.708,12.991c3.335,4.025,9.712,7.551,16.903,5.434c0.313,3.072,1.728,6.923,1.923,10.386
				c0.227,4.023-1.07,7.135-3.994,8.567c-2.374,1.162-7.332,1.545-8.052-1.434c7.146,0.648,6.779-10.227,0.338-10.057
				c-4.758,0.126-6.466,6.323-4.164,9.981c1.358,2.161,4.682,4.047,7.573,4.118c5.254,0.13,9.351-2.991,9.932-7.743
				c0.701-5.734-1.579-9.169-1.842-14.494c4.149-2.188,7.857-5.176,8.431-10.75C113.988,373.113,108.652,366.017,100.13,366.955z
				 M102.387,331.28c1.691-0.532,3.065,1.497,3.198,3.181c0.259,3.261-1.329,6.689-2.872,9.158
				c-1.619,2.591-3.541,4.763-5.648,6.126C95.476,343.271,96.978,332.982,102.387,331.28z M85.137,379.845
				c-0.679-7.813,4.125-12.865,7.978-16.57c1.36-1.307,2.593-2.636,4.042-3.748c0.574,2.462,0.929,5.132,1.409,7.683
				c-0.417,0.647-1.235,0.716-1.864,1.097c-2.806,1.701-5.865,5.335-5.447,10.383c0.209,2.532,1.769,5.252,3.553,6.731
				c0.942,0.78,2.409,1.746,3.66,1.347c-0.115-0.987-1.149-1.212-1.67-1.592c-0.542-0.394-1.24-0.842-1.672-1.45
				c-2.771-3.898,0.357-9.659,4.598-10.397c0.942,5.859,2.013,11.596,3.062,17.352C92.962,392.943,85.754,386.965,85.137,379.845z
				 M104.354,390.142c-0.927-5.78-2.049-11.375-3.068-17.067c4.864-0.127,8.48,4.204,8.478,8.67
				C109.76,385.518,107.439,388.64,104.354,390.142z"/>
			<linearGradient id="SVGID_19_" gradientUnits="userSpaceOnUse" x1="121.771" y1="378.4902" x2="132.6567" y2="378.4902">
				<stop  offset="0" style="stop-color:#DF9257"/>
				<stop  offset="0.5" style="stop-color:#D7742D"/>
				<stop  offset="1" style="stop-color:#BB6232"/>
			</linearGradient>
			<path fill-rule="evenodd" clip-rule="evenodd" fill="url(#SVGID_19_)" d="M131.798,379.151c-0.574,0.283-1.144,0.568-1.717,0.854
				c-0.399-1.817-0.799-3.634-1.199-5.452c0.574-0.283,1.144-0.568,1.717-0.854c-0.279-1.271-0.559-2.543-0.839-3.815
				c-0.573,0.284-1.144,0.57-1.717,0.854c-0.52-2.361-1.039-4.723-1.559-7.085c-0.363,0.08-0.727,0.16-1.09,0.24
				c0.539,2.451,1.079,4.905,1.618,7.358c-0.84,0.399-1.617,0.838-2.495,1.215c-0.519-2.361-1.039-4.724-1.559-7.087
				c-0.363,0.08-0.726,0.16-1.09,0.24c0.54,2.453,1.079,4.905,1.619,7.358c-0.535,0.31-1.107,0.594-1.717,0.854
				c0.279,1.271,0.559,2.543,0.839,3.815c0.646-0.212,1.02-0.597,1.737-0.764c0.393,1.788,0.786,3.574,1.179,5.361
				c-0.535,0.308-1.107,0.593-1.717,0.854c0.286,1.303,0.572,2.604,0.859,3.906c0.686-0.186,1.051-0.577,1.737-0.763
				c0.52,2.362,1.039,4.724,1.559,7.086c0.363-0.08,0.727-0.16,1.09-0.24c-0.546-2.483-1.092-4.966-1.638-7.449
				c0.877-0.376,1.654-0.815,2.495-1.216c0.5,2.271,0.999,4.544,1.499,6.813c0.364-0.079,0.727-0.16,1.09-0.239
				c-0.52-2.361-1.039-4.724-1.559-7.086c0.61-0.26,1.182-0.545,1.717-0.854C132.371,381.755,132.084,380.453,131.798,379.151z
				 M126.556,381.731c-0.399-1.816-0.799-3.633-1.199-5.45c0.824-0.358,1.591-0.753,2.313-1.175
				c0.061-0.014,0.121-0.027,0.181-0.041c0.4,1.818,0.799,3.635,1.199,5.451C128.173,380.893,127.396,381.333,126.556,381.731z"/>
			<linearGradient id="SVGID_20_" gradientUnits="userSpaceOnUse" x1="132.1763" y1="364.2998" x2="144.2568" y2="364.2998">
				<stop  offset="0" style="stop-color:#DF9257"/>
				<stop  offset="0.5" style="stop-color:#D7742D"/>
				<stop  offset="1" style="stop-color:#BB6232"/>
			</linearGradient>
			<path fill-rule="evenodd" clip-rule="evenodd" fill="url(#SVGID_20_)" d="M143.955,368.544c-0.361-1.282-0.723-2.565-1.084-3.85
				c-0.555,0.316-1.108,0.636-1.665,0.952c-0.504-1.791-1.008-3.581-1.512-5.373c0.556-0.315,1.109-0.635,1.665-0.951
				c-0.353-1.254-0.705-2.507-1.059-3.761c-0.555,0.317-1.109,0.636-1.665,0.951c-0.655-2.327-1.311-4.655-1.966-6.983
				c-0.358,0.102-0.716,0.202-1.074,0.303c0.68,2.417,1.36,4.835,2.041,7.253c-0.815,0.447-1.565,0.931-2.42,1.357
				c-0.655-2.329-1.311-4.655-1.966-6.984c-0.358,0.101-0.716,0.201-1.074,0.302c0.68,2.418,1.361,4.835,2.042,7.253
				c-0.516,0.34-1.07,0.657-1.665,0.952c0.353,1.253,0.705,2.507,1.059,3.761c0.632-0.248,0.983-0.654,1.689-0.862
				c0.496,1.761,0.992,3.522,1.487,5.283c-0.516,0.339-1.07,0.656-1.665,0.951c0.361,1.284,0.723,2.567,1.083,3.851
				c0.674-0.226,1.016-0.638,1.69-0.862c0.656,2.328,1.311,4.656,1.966,6.984c0.358-0.102,0.716-0.202,1.074-0.303
				c-0.688-2.447-1.377-4.895-2.066-7.342c0.854-0.427,1.604-0.91,2.42-1.357c0.63,2.237,1.261,4.477,1.89,6.715
				c0.358-0.101,0.717-0.202,1.075-0.303c-0.656-2.327-1.311-4.655-1.967-6.983C142.884,369.202,143.439,368.884,143.955,368.544z
				 M137.787,367.575c-0.504-1.79-1.008-3.581-1.512-5.372c0.801-0.406,1.544-0.843,2.241-1.308c0.06-0.017,0.119-0.033,0.179-0.051
				c0.504,1.792,1.008,3.582,1.512,5.373C139.354,366.643,138.603,367.127,137.787,367.575z"/>
			<linearGradient id="SVGID_21_" gradientUnits="userSpaceOnUse" x1="621.145" y1="144.1973" x2="679.1924" y2="144.1973">
				<stop  offset="0" style="stop-color:#DF9257"/>
				<stop  offset="0.5" style="stop-color:#D7742D"/>
				<stop  offset="1" style="stop-color:#BB6232"/>
			</linearGradient>
			<path fill-rule="evenodd" clip-rule="evenodd" fill="url(#SVGID_21_)" d="M663.451,48.155c-0.16-1.29,0.491-3.778-1.359-4.507
				c-1.072,0.103-2.145,0.205-3.217,0.309c-0.528,0.129-0.429,0.774-0.326,1.423c4.816,50.238,9.633,100.479,14.449,150.717
				c-6.576-3.585-15.828-4.035-24.663-0.881c-7.093,2.531-16.708,9.361-21.609,16.446c-3.587,5.187-7.084,13.682-4.909,21.339
				c1.562,5.506,7.809,9.415,11.21,10.519c20.916,6.783,45.864-16.122,46.151-31.321c0.244-12.846-2.641-27.548-4.053-42.274
				C671.245,129.457,668.31,87.376,663.451,48.155z"/>
			<linearGradient id="SVGID_22_" gradientUnits="userSpaceOnUse" x1="360.5459" y1="263.0479" x2="384.9995" y2="263.0479">
				<stop  offset="0" style="stop-color:#DF9257"/>
				<stop  offset="0.5" style="stop-color:#D7742D"/>
				<stop  offset="1" style="stop-color:#BB6232"/>
			</linearGradient>
			<path fill-rule="evenodd" clip-rule="evenodd" fill="url(#SVGID_22_)" d="M379.212,271.29
				c-5.406-16.312-10.574-33.38-16.266-49.089c-0.187-0.517-0.152-1.604-0.984-1.73c-0.433,0.144-0.865,0.287-1.297,0.431
				c-0.205,0.104-0.103,0.359,0,0.617c6.711,20.253,13.422,40.507,20.133,60.76c-3.048-0.857-6.903-0.174-10.249,1.957
				c-2.685,1.711-6.005,5.431-7.359,8.812c-0.99,2.476-1.633,6.305-0.016,9.257c1.161,2.122,4.104,3.146,5.61,3.28
				c9.259,0.828,17.387-10.96,16.075-17.251C383.752,283.017,381.18,277.228,379.212,271.29z"/>
			<linearGradient id="SVGID_23_" gradientUnits="userSpaceOnUse" x1="211.603" y1="353.1885" x2="226.2598" y2="353.1885">
				<stop  offset="0" style="stop-color:#DF9257"/>
				<stop  offset="0.5" style="stop-color:#D7742D"/>
				<stop  offset="1" style="stop-color:#BB6232"/>
			</linearGradient>
			<path fill-rule="evenodd" clip-rule="evenodd" fill="url(#SVGID_23_)" d="M222.718,357.011
				c-3.272-8.216-6.447-16.826-9.848-24.724c-0.112-0.26-0.127-0.819-0.558-0.858c-0.218,0.087-0.436,0.173-0.653,0.26
				c-0.103,0.059-0.042,0.188,0.019,0.317c4.063,10.2,8.126,20.401,12.189,30.602c-1.592-0.349-3.551,0.121-5.205,1.316
				c-1.328,0.961-2.92,2.973-3.513,4.751c-0.434,1.302-0.647,3.289,0.273,4.756c0.661,1.055,2.204,1.492,2.981,1.515
				c4.781,0.145,8.599-6.158,7.734-9.35C225.406,362.897,223.909,360.002,222.718,357.011z"/>
			<linearGradient id="SVGID_24_" gradientUnits="userSpaceOnUse" x1="179.2637" y1="376.6035" x2="189.8052" y2="376.6035">
				<stop  offset="0" style="stop-color:#DF9257"/>
				<stop  offset="0.5" style="stop-color:#D7742D"/>
				<stop  offset="1" style="stop-color:#BB6232"/>
			</linearGradient>
			<path fill-rule="evenodd" clip-rule="evenodd" fill="url(#SVGID_24_)" d="M187.502,358.776c-3.893-1.021-8.3,3.278-8.238,5.98
				c0.053,2.288,0.693,4.878,1.063,7.485c1.018,7.163,1.875,14.62,3.063,21.553c0.039,0.229-0.062,0.677,0.283,0.79
				c0.197-0.027,0.392-0.057,0.589-0.084c0.095-0.027,0.071-0.143,0.048-0.256c-1.264-8.894-2.527-17.785-3.791-26.678
				c1.234,0.579,2.937,0.576,4.535-0.063c1.284-0.514,2.998-1.814,3.844-3.119c0.62-0.955,1.198-2.497,0.74-3.839
				C189.312,359.58,188.135,358.941,187.502,358.776z"/>
		</g>
	</g>
</g>
<g>
	<path fill="#599DE4" d="M213.912,230.188l-0.332-1.729c-1.367-6.624-1.926-14.724-1.671-24.265
		c4.157,0.397,7.685,0.775,10.607,1.079c6.601,0.709,11.251,1.35,13.947,1.902c2.006,0.446,3.945,0.923,5.796,1.434
		c5.951,1.63,11.725,3.698,17.3,6.189l0.023,0.013c3.438,1.542,6.685,3.244,9.755,5.092c0.25,0.155,0.499,0.292,0.734,0.45
		c3.141,2.312,6.169,4.798,9.085,7.473c5.261,4.787,9.851,10.021,13.756,15.721c0.79,1.344,1.49,2.669,2.094,3.974
		c-0.604-1.305-1.304-2.63-2.094-3.974c3.017,4.369,5.631,9.006,7.828,13.92l0.67,2.402c-0.029-0.123,0.104-0.02,0.39,0.312
		c0.39,1.351,0.714,2.562,0.982,3.674l0.058,0.191l-0.329-0.456l1.298,5.018l0.969-0.24c3.346,11.715,3.362,23.537,0.06,35.476
		c-0.939,3.379-2.083,6.65-3.436,9.812l-25.815,1.506c1.943-13.435,1.367-26.812-1.692-40.135c-0.315-1.252-0.647-2.499-0.98-3.749
		c-1.154-4.19-2.736-8.267-4.728-12.188l-0.427-0.879c-0.387-0.758-0.782-1.477-1.207-2.134c-1.03-1.629-2.719-3.668-5.05-6.104
		c-0.683-0.774-1.325-1.409-1.877-1.875c-0.296-0.297-0.607-0.568-0.902-0.843c-3.066-2.791-6.554-5.262-10.464-7.447
		c-4.195-2.318-8.845-4.288-13.959-5.908c-3.398-1.063-6.894-1.942-10.513-2.596L213.912,230.188z"/>
	<path fill="#599DE4" d="M270.072,220.354c0.877,0.532,1.742,1.089,2.57,1.649c3.547,2.588,6.784,5.403,9.732,8.436
		c4.393,4.496,7.692,8.498,9.879,11.996c0.238,0.358,0.455,0.726,0.659,1.113c-3.905-5.7-8.495-10.934-13.756-15.721
		C276.241,225.151,273.212,222.668,270.072,220.354"/>
	<path fill="#599DE4" d="M260.949,249.396c-0.438-0.451-0.876-0.883-1.323-1.299c0.552,0.467,1.194,1.1,1.877,1.876
		C261.316,249.787,261.134,249.6,260.949,249.396"/>
	<path fill="#599DE4" d="M298.042,250.226l0.295-0.09c0.716,1.617,1.283,3.223,1.722,4.819c0.281,0.983,0.496,1.827,0.683,2.512
		c-2.197-4.915-4.809-9.55-7.828-13.92c-0.204-0.387-0.421-0.752-0.659-1.112c-2.187-3.497-5.486-7.5-9.879-11.995
		c-2.948-3.035-6.186-5.851-9.73-8.438c4.782,3.164,9.08,6.695,12.888,10.64c4.393,4.496,7.692,8.498,9.882,11.993
		c1.069,1.716,1.98,3.407,2.75,5.089l-0.274,0.107L298.042,250.226z"/>
	<polygon fill="#223C86" points="298.336,250.136 298.042,250.226 297.889,249.831 298.164,249.722 298.267,249.687 
		298.419,250.099 298.336,250.131 	"/>
	<path fill="#599DE4" d="M270.45,267.116c-0.344-0.25-0.516-0.382-0.519-0.399c0.089-0.219,0.194-0.427,0.283-0.644
		c0.195-0.428,0.238-0.768,0.173-1.017c-0.651-2.239-1.385-4.223-2.201-5.97c1.991,3.924,3.573,8,4.728,12.19
		c0.333,1.25,0.665,2.498,0.98,3.749l-0.178,0.032l-0.573-1.531l-2.215-6.044C270.943,267.465,270.791,267.345,270.45,267.116"/>
	
		<path fill="none" stroke="#2A4A97" stroke-width="1.979" stroke-linecap="round" stroke-linejoin="round" stroke-miterlimit="10" d="
		M267.759,258.21c-0.593-0.88-1.306-1.894-2.134-3.025c-1.579-2.154-2.949-3.903-4.123-5.212c-0.683-0.774-1.325-1.409-1.877-1.875
		c-0.296-0.295-0.607-0.568-0.902-0.843 M269.337,219.903c0.25,0.155,0.499,0.292,0.734,0.451c3.141,2.312,6.169,4.797,9.085,7.472
		c5.261,4.79,9.851,10.021,13.756,15.721c3.017,4.37,5.631,9.006,7.828,13.92c0.802,1.751,1.532,3.529,2.212,5.339
		c0.704,1.843,1.303,3.703,1.825,5.564c3.346,11.713,3.362,23.535,0.06,35.476c-0.939,3.377-2.086,6.648-3.436,9.81
		c-4.068,9.482-9.997,17.863-17.777,25.141"/>
	<path fill="none" stroke="#2A4A97" stroke-width="1.979" stroke-linecap="square" stroke-miterlimit="10" d="M268.186,259.087
		l-0.427-0.877c-0.387-0.758-0.782-1.477-1.207-2.134c-1.03-1.63-2.719-3.668-5.05-6.104c-0.187-0.186-0.368-0.372-0.554-0.577
		c-0.438-0.451-0.876-0.883-1.323-1.298 M208.749,201.993c4.16,0.398,7.687,0.774,10.609,1.08
		c6.604,0.709,11.255,1.347,13.945,1.899c2.006,0.447,3.944,0.926,5.799,1.437c5.948,1.626,11.721,3.695,17.303,6.189
		c1.172,0.528,2.31,1.067,3.438,1.647c0.018-0.003,0.018-0.003,0.021,0.015c4.616,2.287,8.883,4.869,12.779,7.741
		c3.547,2.587,6.784,5.402,9.732,8.438c4.393,4.495,7.692,8.498,9.879,11.995c0.238,0.36,0.455,0.726,0.659,1.112
		c0.79,1.344,1.49,2.669,2.094,3.974 M258.723,247.255c-3.066-2.791-6.554-5.262-10.464-7.447
		c-4.195-2.318-8.845-4.288-13.959-5.908c-3.398-1.064-6.894-1.942-10.513-2.596"/>
	
		<path fill="none" stroke="#2A4A97" stroke-width="1.979" stroke-linecap="round" stroke-linejoin="round" stroke-miterlimit="10" d="
		M275.586,315.161c1.943-13.435,1.367-26.812-1.695-40.135c-0.312-1.251-0.645-2.499-0.978-3.749
		c-1.154-4.19-2.736-8.267-4.728-12.19"/>
	
		<line fill="none" stroke="#2A4A97" stroke-width="1.979" stroke-linecap="round" stroke-miterlimit="10" x1="223.788" y1="231.304" x2="213.912" y2="230.188"/>
	<path fill="#599DE4" d="M172.958,209.606c-0.256,0.055-0.45,0.093-0.579,0.119c-8.212,1.862-14.242,4.339-18.079,7.435
		c-0.551,0.43-1.058,0.893-1.505,1.356c-1.415,1.436-2.796,3.292-4.135,5.531c-0.446,0.748-0.888,1.529-1.335,2.368
		c-0.444,0.838-0.971,1.921-1.596,3.243l-0.017,0.025c-0.98,2.07-2.175,4.725-3.585,7.988l0.006,0.019
		c-0.123,0.229-0.227,0.458-0.323,0.704l-0.604-1.109c-7.031,15.466-13.845,29.003-20.438,40.626l-0.576,1.107l-0.039-0.011
		c-6.167,11.217-9.385,22.304-9.656,33.26c-0.015,0.3-0.026,0.603-0.018,0.915c-0.144,10.948,2.12,20.688,6.785,29.249l1.384-0.68
		c0.031,0.065,0.063,0.135,0.095,0.187l0.003,0.015c4.473,8.346,10.658,14.721,18.537,19.182c0.146,0.082,0.278,0.163,0.428,0.246
		l0.022,0.013c8.331,4.572,17.478,6.358,27.411,5.346c0.129-0.008,0.237-0.032,0.369-0.037c6.441-0.694,12.644-1.468,18.595-2.354
		c1.843-0.274,3.685-0.563,5.49-0.849c10.851-1.761,20.821-3.862,29.912-6.302c1.513-0.407,3.011-0.812,4.484-1.232
		c12.904-3.74,23.909-8.185,33.05-13.354c5.03-2.865,9.508-5.945,13.395-9.237c-0.003-0.017-0.003-0.017,0.017-0.003
		c0.573-0.513,1.146-1.008,1.699-1.513c0.979-0.894,1.926-1.782,2.825-2.699c0.314-0.386,0.652-0.753,0.988-1.139
		c6.521-7.615,10.687-15.521,12.506-23.758c1.528-8.102,0.868-16.847-1.968-26.279c-0.541-1.79-1.144-3.586-1.8-5.371
		c-0.018,0.003-0.018,0.003,0-0.019c-3.696-9.847-9.415-19.74-17.15-29.66l-0.021-0.013c-2.111-2.713-4.369-5.415-6.782-8.123
		c-2.263-2.549-4.655-5.091-7.183-7.644c-1.335-1.326-2.655-2.619-3.977-3.893c-0.018,0.005-0.018,0.005-0.021-0.013
		c-0.443-0.412-0.891-0.843-1.338-1.254c-0.602-0.545-1.2-1.09-1.784-1.623c-4.342-3.928-8.708-7.439-13.062-10.544
		c-0.493-0.363-0.975-0.692-1.456-1.02l-0.003-0.019c-1.828-1.263-3.544-2.359-5.117-3.314c-3.354-2.009-6.194-3.341-8.523-3.953
		C191.527,206.233,176.407,208.924,172.958,209.606"/>
	<path fill="none" stroke="#2A4A97" stroke-width="2.001" stroke-linecap="round" stroke-miterlimit="10" d="M153.445,216.235
		c-0.334,0.276-0.639,0.545-0.931,0.849c-1.604,1.604-3.175,3.74-4.736,6.438c-0.292,0.507-0.593,1.038-0.895,1.588
		c-0.583,1.073-1.255,2.463-2.051,4.141l-0.015,0.021c-1.031,2.177-2.229,4.834-3.615,8.014
		c-7.028,15.466-13.842,29.003-20.435,40.624c-0.203,0.36-0.407,0.737-0.615,1.099c-6.167,11.217-9.385,22.304-9.656,33.26
		c-0.015,0.3-0.026,0.603-0.018,0.915c-0.144,10.948,2.117,20.688,6.785,29.249l0.063,0.116c0.028,0.052,0.034,0.086,0.062,0.121
		c0.023,0.013,0.026,0.031,0.029,0.049c4.611,8.479,11.041,14.938,19.259,19.401c0.152,0.099,0.317,0.176,0.49,0.27
		c0.017-0.003,0.017-0.003,0.04,0.013l0.021,0.012c8.5,4.461,17.826,6.134,27.97,5.041c0.132-0.009,0.274-0.039,0.403-0.045
		c6.447-0.691,12.642-1.482,18.593-2.369c0.02-0.003,0.02-0.003,0.037-0.006c1.845-0.276,3.685-0.565,5.491-0.848
		c10.576-1.726,20.317-3.739,29.229-6.049c0.249-0.069,0.501-0.126,0.75-0.195l0.018-0.003c1.513-0.406,3.014-0.813,4.492-1.214
		c12.742-3.613,23.538-7.882,32.419-12.779c0.305-0.157,0.605-0.332,0.895-0.483c-0.003-0.021-0.003-0.021,0.014-0.024
		c2.883-1.607,5.21-2.99,7.021-4.155c2.653-1.728,4.859-3.402,6.642-5.061c1.59-1.491,3.088-2.959,4.467-4.404
		c-0.006-0.019,0.014-0.021,0.022-0.043c0.341-0.369,0.677-0.739,1.015-1.105l0.018-0.006c7.027-7.816,11.395-15.833,13.099-24.085
		l0.012-0.04c0.003-0.077,0.023-0.153,0.049-0.216l0.029-0.21c1.509-7.016,0.583-15.782-2.797-26.291
		c-0.361-1.102-0.739-2.201-1.146-3.327c-0.24-0.693-0.498-1.39-0.751-2.062c-0.002-0.021-0.002-0.021-0.005-0.034
		c-4.109-11.015-8.813-19.942-14.117-26.767c-0.926-1.189-1.8-2.313-2.645-3.388c-0.023-0.011-0.023-0.011-0.026-0.03
		c-2.59-3.284-4.818-6.028-6.672-8.237l-0.023-0.017c-1.22-1.442-2.264-2.642-3.157-3.594c-2.16-2.312-4.848-4.997-8.062-8.042
		l-0.018,0.003c-0.44-0.409-0.87-0.844-1.314-1.253c-0.023-0.016-0.023-0.016-0.043-0.029c-0.562-0.518-1.142-1.051-1.728-1.602
		c-0.023-0.011-0.046-0.043-0.069-0.057c-4.771-4.362-9.748-8.1-14.953-11.215c-1.852-1.105-3.616-2.174-5.277-3.19
		c-2.911-1.78-5.536-3.435-7.868-4.944c-0.106-0.071-0.194-0.128-0.304-0.199c-0.309,0.048-0.616,0.111-0.923,0.178
		c-28.288,4.968-43.407,7.66-45.37,8.088c-0.197,0.04-0.378,0.077-0.572,0.136c-0.017,0.008-0.037,0.011-0.052,0.017
		c-8.529,1.982-14.695,4.633-18.509,7.912C153.492,216.189,153.459,216.213,153.445,216.235z"/>
	<path fill="#599DE4" d="M241.415,339.094h0.037c0.229,0.227,1.997,6.676,5.26,19.367c3.33,12.948,5.037,19.521,5.12,19.708
		l4.564,1.037c11.073,0.162,20.171,1.629,27.265,4.413c3.438,1.341,6.711,3.278,9.837,5.799c1.438,1.16,2.652,2.974,3.679,5.438
		c1.011,2.463,1.344,4.444,1.02,5.948c-0.538,2.408-2.668,4.307-6.404,5.695c-10.374,3.836-27.195,3.089-50.449-2.227
		c-11.624-2.649-22.217-5.7-31.754-9.134l-0.923-1.84c-0.08-0.24-0.144-0.496-0.209-0.772c-0.172-1.373-0.301-2.347-0.37-2.952
		c-0.163-1.156,0.453-8.908,1.809-23.282c1.357-14.395,1.974-22.165,1.868-23.302v-0.018l29.634-3.898L241.415,339.094z"/>
	<path fill="none" stroke="#2A4A97" stroke-width="1.99" stroke-linecap="round" stroke-miterlimit="10" d="M241.415,339.094
		l-0.018-0.019l-29.634,3.898v0.018c0.105,1.137-0.511,8.907-1.868,23.302c-1.355,14.374-1.972,22.126-1.809,23.282
		c0.069,0.605,0.198,1.576,0.37,2.952c0.065,0.276,0.129,0.532,0.209,0.772l0.923,1.84c9.537,3.434,20.13,6.484,31.754,9.134
		c23.254,5.315,40.075,6.062,50.449,2.227c3.736-1.389,5.866-3.287,6.404-5.695c0.324-1.504-0.009-3.485-1.02-5.948
		c-1.026-2.465-2.24-4.278-3.679-5.438c-3.126-2.521-6.398-4.458-9.837-5.799c-7.094-2.784-16.191-4.251-27.265-4.413l-4.564-1.037
		c-0.083-0.187-1.79-6.76-5.12-19.708c-3.263-12.691-5.03-19.141-5.26-19.367H241.415z"/>
	<path fill="#599DE4" d="M237.97,141.874c-2.765-4.641-5.851-8.315-9.258-11.004c-4.521-3.543-9.807-5.521-15.873-5.904
		c-0.137-0.014-0.295-0.022-0.452-0.028c-0.563-0.032-1.146-0.058-1.742-0.059c-0.496,0.004-0.994,0.01-1.501,0.035
		c0.054-0.303,0.111-0.609,0.148-0.911c0.026-0.1,0.029-0.219,0.052-0.32c0.003-0.058,0.003-0.115,0.021-0.178
		c0.26-2.363-0.018-4.747-0.828-7.117l-0.018-0.052c-0.006-0.015-0.006-0.015-0.014-0.034c-0.035-0.046-0.055-0.117-0.072-0.169
		c-0.04-0.118-0.071-0.225-0.129-0.341c-1.702-4.559-4.896-7.793-9.598-9.728c-4.68-1.937-9.464-1.966-14.371-0.114
		c-4.887,1.884-8.444,5.086-10.662,9.609c-0.856,1.711-1.416,3.441-1.693,5.159c-1.295-1.007-2.776-1.855-4.43-2.537
		c-4.682-1.939-9.463-1.967-14.375-0.115c-3.123,1.207-5.71,2.952-7.758,5.253c-1.141,1.283-2.098,2.736-2.903,4.357
		c-1.994,4.025-2.427,8.076-1.289,12.139c0,0.058,0.015,0.095,0.032,0.145c0.126,0.46,0.292,0.922,0.458,1.39
		c0.722,1.896,1.69,3.561,2.919,5.011c0.026,0.009,0.035,0.043,0.063,0.075c0.034,0.046,0.08,0.071,0.114,0.116
		c0.035,0.046,0.044,0.082,0.081,0.127c0.135,0.246,0.083,0.568-0.198,0.946c-0.015,0.021-0.043,0.052-0.055,0.073
		c-0.04,0.052-0.079,0.104-0.122,0.153c-0.253,0.176-0.52,0.357-0.823,0.551c-0.243,0.138-0.498,0.294-0.771,0.458
		c-0.31,0.173-0.653,0.361-1.009,0.568c-0.054,0.019-0.085,0.029-0.134,0.061c-7.416,3.979-13.12,8.094-17.092,12.352
		c-0.103,0.089-0.206,0.199-0.304,0.307c-4.652,5.065-7.346,10.928-8.048,17.572v6.922l2.187,10.033l1.028,2.992
		c0.436,1.185,0.896,2.395,1.421,3.607c0.61,1.438,1.312,2.805,2.111,4.103c1.474,2.463,3.264,4.71,5.381,6.776
		c1.31,1.289,2.728,2.483,4.296,3.615c5.208,3.779,11.445,6.451,18.709,8.008c2.12,0.455,4.28,0.803,6.449,1.051l19.815-0.374
		c7.18-1.101,14.498-3.223,21.97-6.351l30.761-21.191c2.652-2.915,5.02-6.026,7.117-9.361c0.094-0.126,0.166-0.261,0.243-0.384
		c3.862-6.156,6.261-12.347,7.163-18.595c0.648-4.286,0.551-8.378-0.258-12.299l-0.971-3.771c-0.281-0.814-0.582-1.638-0.917-2.451
		C241.345,148.255,239.727,144.858,237.97,141.874"/>
	<path fill="none" stroke="#2A4A97" stroke-width="1.992" stroke-linecap="round" stroke-miterlimit="10" d="M245.157,154.439
		c-0.737-2.433-1.868-5.079-3.391-7.931c-1.091-2.048-2.024-3.707-2.768-4.963c-0.295-0.5-0.566-0.93-0.799-1.298l-3.539-5.217
		l-3.913-4.042c-0.396-0.334-1.026-0.806-1.911-1.423c-1.101-0.742-2.057-1.338-2.874-1.786c-2.424-1.298-4.619-2.229-6.544-2.803
		c-3.12-0.942-6.257-1.168-9.464-0.701c0.854-0.865,1.083-2.552,0.668-5.006c-0.422-2.456-1.046-4.535-1.837-6.24
		c-0.791-1.703-1.919-3.2-3.39-4.495c-1.473-1.312-3.323-2.433-5.544-3.391c-2.221-0.96-4.628-1.532-7.22-1.725
		c-1.468-0.087-2.934-0.06-4.415,0.104c-2.674,0.334-5.164,1.186-7.49,2.54c-1.818,1.023-3.421,2.261-4.819,3.702
		c-1.404,1.427-2.704,3.603-3.898,6.517l-0.462,3.193 M171.547,119.477c-1.286-1.335-2.508-2.21-3.627-2.659
		c-1.127-0.462-2.241-0.836-3.33-1.125c-1.088-0.285-2.569-0.427-4.435-0.385c-1.865,0.037-3.975,0.401-6.329,1.135
		c-2.355,0.73-4.238,1.618-5.648,2.661c-1.411,1.044-2.541,1.962-3.334,2.771c-0.802,0.79-1.597,1.791-2.355,3.012
		c-0.785,1.21-1.563,2.911-2.361,5.104c-0.779,2.182-1.057,4.437-0.828,6.78c0.225,2.325,0.686,4.323,1.398,5.957
		c0.714,1.63,1.763,2.945,3.155,3.939c-0.39,0.221-1.541,0.873-3.45,1.926c-1.928,1.055-3.476,1.965-4.661,2.75
		c-1.192,0.781-2.693,1.776-4.502,3.024c-1.83,1.233-3.756,2.824-5.767,4.752c-2.029,1.93-3.754,4.11-5.146,6.526
		c-1.401,2.401-2.538,4.969-3.418,7.682c-0.874,2.733-1.353,5.494-1.421,8.295c-0.049,1.587,0.018,3.178,0.169,4.795
		c0.264,2.752,0.708,5.468,1.355,8.155c0.584,2.438,1.321,4.812,2.209,7.116c0.993,2.577,2.249,5.014,3.778,7.345
		c1.585,2.39,3.382,4.599,5.39,6.638c1.894,1.908,3.975,3.563,6.215,4.94c2.049,1.244,4.14,2.34,6.28,3.286
		c2.619,1.181,5.315,2.119,8.108,2.822c2.625,0.658,5.298,1.112,8,1.344c1.891,0.162,4.707,0.22,8.475,0.193l13.549-0.851
		c2.37-0.199,4.674-0.667,6.914-1.398l11.899-3.927c1.2-0.384,2.891-1.209,5.051-2.492l13.332-9.232
		c1.612-1.129,3.24-2.224,4.888-3.305c2.39-1.586,4.705-3.281,6.994-5.064c2.246-1.79,4.304-3.747,6.197-5.867
		c1.612-1.797,3.095-3.708,4.44-5.729c0.436-0.619,0.903-1.436,1.434-2.428c0.527-0.993,1.254-2.433,2.197-4.287
		c0.926-1.848,1.722-3.864,2.355-6.021c0.633-2.177,1.2-4.543,1.673-7.088c0.47-2.546,0.588-5.189,0.372-7.959
		c-0.214-2.788-0.756-5.51-1.606-8.169"/>
	<path fill="#FFFFFF" d="M208.304,115.792c-1.702-4.559-4.896-7.793-9.598-9.726c-4.68-1.939-9.464-1.968-14.371-0.114
		c-4.887,1.883-8.444,5.086-10.662,9.607c-0.856,1.71-1.416,3.441-1.693,5.158c-1.295-1.006-2.776-1.855-4.43-2.537
		c-4.682-1.938-9.463-1.966-14.375-0.112c-4.882,1.881-8.44,5.087-10.661,9.608c-2.255,4.529-2.506,9.096-0.799,13.672
		c1.748,4.577,4.951,7.831,9.645,9.75c4.692,1.914,9.491,1.935,14.386,0.09c4.876-1.84,8.438-5.049,10.649-9.588
		c0.854-1.708,1.413-3.438,1.693-5.155c1.295,1.003,2.773,1.854,4.43,2.537c4.693,1.914,9.493,1.938,14.386,0.09
		c4.874-1.843,8.433-5.047,10.65-9.586C209.803,124.938,210.051,120.372,208.304,115.792"/>
	<path fill="#34302E" d="M162.041,142.265c1.527-1.408,3.111-2.316,4.773-2.709c1.874-0.424,3.788-0.135,5.711,0.842
		c0.418,0.229,0.851,0.266,1.292,0.145c0.43-0.153,0.762-0.434,0.988-0.871c0.2-0.39,0.234-0.822,0.108-1.278
		c-0.134-0.478-0.418-0.827-0.842-1.017c-2.702-1.439-5.378-1.834-8.037-1.159c-2.283,0.536-4.47,1.791-6.575,3.784
		c-0.613,0.598-1.195,1.242-1.74,1.934c-0.412,0.574-0.624,0.871-0.644,0.877c-0.256,0.389-0.332,0.813-0.225,1.279
		c0.096,0.468,0.345,0.828,0.731,1.09c0.372,0.263,0.806,0.357,1.312,0.269c0.479-0.129,0.839-0.38,1.048-0.735l-0.008-0.032
		C160.835,143.529,161.531,142.713,162.041,142.265"/>
	<path fill="#34302E" d="M181.53,124.034c1.526-1.407,3.114-2.315,4.772-2.713c1.877-0.424,3.791-0.131,5.711,0.848
		c0.421,0.23,0.852,0.265,1.295,0.145c0.428-0.155,0.76-0.436,0.988-0.874c0.201-0.389,0.235-0.822,0.106-1.278
		c-0.132-0.476-0.416-0.824-0.843-1.018c-2.701-1.438-5.375-1.833-8.033-1.156c-2.284,0.537-4.473,1.79-6.579,3.783
		c-0.612,0.597-1.194,1.244-1.739,1.936c-0.412,0.57-0.624,0.87-0.641,0.875c-0.259,0.388-0.334,0.813-0.225,1.279
		c0.092,0.47,0.341,0.83,0.731,1.092c0.372,0.262,0.802,0.354,1.312,0.268c0.476-0.132,0.836-0.38,1.051-0.736l-0.012-0.036
		C180.323,125.298,181.023,124.484,181.53,124.034"/>
	<path fill="#130000" d="M225.29,142.682c1.929-2.742,3.307-5.061,4.146-6.92c-10.039,14.088-27.245,24.288-51.616,30.62
		c-7.615,1.969-15.506,3.43-23.666,4.399l-9.937,0.83c27.17,3.798,49.524-1.027,67.074-14.479
		C216.771,152.91,221.432,148.109,225.29,142.682"/>
	<path fill="#599DE4" d="M194.523,350.397h0.037c0.237,0.221,2.235,6.615,5.96,19.208c3.793,12.85,5.739,19.372,5.831,19.554
		l4.609,0.877c11.094-0.229,20.251,0.914,27.46,3.448c3.489,1.222,6.839,3.046,10.056,5.458c1.484,1.11,2.766,2.884,3.883,5.312
		c1.098,2.433,1.504,4.405,1.229,5.924c-0.453,2.432-2.519,4.409-6.209,5.929c-10.254,4.214-27.124,4.065-50.602-0.429
		c-11.741-2.237-22.457-4.915-32.13-8.014l-0.988-1.813c-0.092-0.231-0.163-0.489-0.234-0.762c-0.225-1.369-0.387-2.341-0.479-2.947
		c-0.206-1.146,0.139-8.938,0.986-23.379c0.842-14.459,1.183-22.269,1.036-23.402v-0.017l29.535-4.963L194.523,350.397z"/>
	<path fill="none" stroke="#2A4A97" stroke-width="1.994" stroke-linecap="round" stroke-miterlimit="10" d="M194.523,350.397
		l-0.02-0.016l-29.535,4.963v0.017c0.146,1.134-0.194,8.943-1.036,23.402c-0.848,14.441-1.192,22.232-0.986,23.379
		c0.093,0.606,0.255,1.578,0.479,2.947c0.071,0.272,0.143,0.53,0.234,0.762l0.988,1.813c9.673,3.099,20.389,5.776,32.13,8.014
		c23.478,4.494,40.348,4.643,50.602,0.429c3.69-1.52,5.756-3.497,6.209-5.929c0.274-1.519-0.132-3.491-1.229-5.924
		c-1.117-2.429-2.398-4.202-3.883-5.312c-3.217-2.412-6.566-4.236-10.056-5.458c-7.209-2.534-16.366-3.677-27.46-3.448l-4.609-0.877
		c-0.092-0.182-2.038-6.704-5.831-19.554c-3.725-12.593-5.723-18.987-5.96-19.208H194.523z"/>
	<path fill="#599DE4" d="M218.344,206.962c-28.44,5.019-43.602,7.754-45.511,8.171c-9.322,2.108-15.798,4.972-19.445,8.591
		c-1.874,1.854-3.69,4.406-5.459,7.655c-1.186,2.171-3.033,6.027-5.529,11.584c-6.808,14.968-13.538,28.317-20.196,40.053
		c-6.015,10.611-9.218,21.371-9.576,32.258c-0.346,10.146,1.771,19.399,6.35,27.741c4.473,8.188,10.699,14.407,18.682,18.658
		c8.331,4.428,17.5,6.079,27.499,4.981c51.089-5.612,86.354-17.002,105.809-34.221c15.926-14.098,20.761-31.44,14.515-52.065
		c-4.9-16.227-15.69-32.504-32.34-48.867c-6.592-6.469-13.237-12.006-19.89-16.606C226.985,210.534,222.032,207.901,218.344,206.962
		"/>
	<path fill="#599DE4" d="M142.422,232.803c-1.646,3.3-3.054,6.745-4.233,10.367c-4.737,14.505-4.625,29.028,0.323,43.537
		c5.005,14.516,14.005,25.79,27.019,33.834c9.804,6.05,20.351,9.355,31.616,9.926l-0.427-4.005l0.006-0.081l-0.074-0.606
		c1.988,0.643,3.169,0.933,3.544,0.862c0.396-0.075,0.591-0.167,0.628-0.29c0.009-0.061,0-0.097-0.029-0.148
		c-0.077-0.629-0.092-1.015-0.037-1.164c0.089-0.246,0.158-0.511,0.161-0.806c-0.018,0.004-0.13-0.071-0.35-0.207
		c-0.175-0.106-0.45-0.133-0.829-0.062c-0.865,0.161-1.959,0.127-3.279-0.076l-2.252-21.518c1.042-1.203,2.03-2.261,2.974-3.174
		c-0.018,0.335-0.167,0.79-0.444,1.383c-0.358,0.711-0.628,1.244-0.811,1.629l0.206,0.061c0.556-0.26,1.187-0.938,1.902-2.022
		c0.597-0.887,1.043-1.729,1.344-2.525c-0.372-0.22-0.856-0.21-1.416,0.028c-0.51,0.289-0.813,0.444-0.87,0.453
		c0.005-0.179-0.012-0.487-0.026-0.891c-0.028-0.362-0.055-0.613-0.077-0.74c-0.971,0.332-1.771,1.158-2.406,2.464
		c-0.195,0.404-0.378,0.886-0.57,1.444l-0.28-2.594l-0.305,0.04c-23.832-16.94-28.74-37.679-14.729-62.213L142.422,232.803z"/>
	<path fill="#599DE4" d="M196.942,326.284c-0.089,0.033-0.161,0.068-0.216,0.097l-0.006,0.081c0.095-0.021,0.228-0.044,0.355-0.066
		C197.015,326.369,196.972,326.335,196.942,326.284"/>
	<path fill="#599DE4" d="M210.144,325.545c-0.578,0.123-1.06,0.372-1.398,0.741c-1.395,1.502-2.748,2.508-4.049,3.041l0.424,2.197
		L210.144,325.545z"/>
	
		<path fill="none" stroke="#2A4A97" stroke-width="2.086" stroke-linecap="round" stroke-linejoin="round" stroke-miterlimit="10" d="
		M197.147,330.464c-11.266-0.567-21.812-3.873-31.616-9.925c-13.014-8.045-22.014-19.318-27.019-33.832
		c-4.948-14.509-5.061-29.032-0.323-43.535c1.18-3.624,2.587-7.067,4.233-10.368c0.384-0.77,0.789-1.546,1.213-2.304
		 M179.438,234.442c-0.252,0.417-0.487,0.85-0.739,1.268c-14.011,24.532-9.103,45.271,14.729,62.211 M196.652,325.775l0.074,0.607
		l-0.006,0.077l0.427,4.004 M203.803,330.501c-2.258,0.086-4.476,0.086-6.656-0.037 M193.733,297.881l0.28,2.594 M194.208,302.367
		l2.252,21.516"/>
	<path fill="#599DE4" d="M203.812,285.656c-2.092,2.249-3.963,4.655-5.587,7.231c-1.53,2.36-2.24,3.894-2.152,4.574l-3.196,17.584
		c0.77,3.653,1.799,7.021,3.082,10.072c1.63,1.156,3.152,2.566,4.612,4.264c0.909,1.016,1.917,1.845,3.066,2.506
		c5.741,3.278,9.879,7.59,12.403,12.959c0.086,0.042,0.169,0.069,0.249,0.094c4.387,1.328,8.433,1.535,12.111,0.607
		c3.47-0.896,5.156-2.294,5.057-4.202c-0.29-4.864-2.208-7.679-5.79-8.44c-1.028-0.198-2.502-0.277-4.456-0.209
		c-0.501,0.014-0.965,0.019-1.397,0.005c0.556-0.044,1.178-0.161,1.888-0.312c2.353-0.43,4.599-1.215,6.738-2.368
		c5.972-3.16,8.318-7.325,7.055-12.479c-0.384-2.828-3.061-3.946-8.045-3.361c-5.444,1.177-8.693,1.797-9.745,1.895
		c6.645-2.449,11.231-4.793,13.762-6.987c4.211-3.636,5.033-7.932,2.446-12.894c-1.14-2.187-4.492-2.868-10.06-2.039
		c-5.122,0.788-8.306,1.86-9.531,3.235c1.63-2.867,2.778-5.704,3.426-8.529c0.966-4.357,0.275-7.361-2.088-9.022
		C214.267,277.469,209.642,279.407,203.812,285.656"/>
	<path fill="#599DE4" d="M203.637,331.887c-1.149-0.66-2.157-1.489-3.066-2.505c-1.46-1.697-2.982-3.107-4.615-4.264
		c1.76,4.169,3.985,7.802,6.688,10.861c3.768,4.301,8.243,7.273,13.397,8.866C213.516,339.478,209.378,335.166,203.637,331.887"/>
	<path fill="#599DE4" d="M192.377,298.727c-0.265,0.149-0.484,0.227-0.651,0.261c-0.151,0.024-0.26,0.063-0.343,0.139
		c-0.087,1.122-0.499,2.792-1.249,5.053c-1.41,4.264-2.298,7.267-2.678,9.009c-0.635,2.974-0.866,5.741-0.692,8.257
		c1.249,0.235,2.521,0.489,3.808,0.734c0.522,0.704,1.178,1.418,1.954,2.149c0.058,0.108,0.117,0.214,0.175,0.316
		c0.323,0.606,0.597,1.139,0.837,1.579c-0.283,0.051-0.585,0.107-0.905,0.168c-0.619,0.115-0.725,0.17-0.332,0.197l0.028,0.479
		c0.138-0.003,0.793,0.187,1.971,0.553c0.037,0.109,0.092,0.195,0.146,0.283c0.141,0.226,0.298,0.45,0.433,0.64
		c0.335,0.035,0.714,0.081,1.117,0.162c1.028,0.2,1.769,0.512,2.255,0.948c0.098,0.003,0.209-0.019,0.341-0.043
		c0.249,0.496,0.511,0.975,0.773,1.45c0.372,0.654,0.783,1.298,1.188,1.902c0.612,0.917,1.28,1.785,1.981,2.627
		c1.003,1.231,2.086,2.359,3.252,3.405c2.187,1.737,4.115,3.016,5.796,3.815c1.665,0.802,3.462,1.481,5.404,1.997
		c0.476,0.146,0.969,0.29,1.481,0.428L206.963,282.8c-0.361,0.26-0.702,0.52-1.06,0.797c-0.643,0.526-1.284,1.154-1.911,1.867
		c-0.657,0.764-1.676,1.982-3.055,3.697c-1.372,1.711-2.507,3.376-3.412,5.002c-0.909,1.606-1.461,2.621-1.679,3.032l0.005,0.019
		l-0.022,0.197c-0.003,0.197-0.098,0.327-0.255,0.416c-0.015,0.022-0.031,0.026-0.052,0.049l-0.052,0.031
		c-0.077,0.092-0.144,0.258-0.16,0.494c-0.021,0.315-0.134,0.531-0.364,0.652c-0.017,0-0.04,0.003-0.055,0.025
		c-0.203,0.058-0.513,0.175-0.931,0.326c-0.055,0.012-0.095,0.021-0.132,0.026c-0.396-0.236-0.849-0.387-1.381-0.423
		L192.377,298.727z M196.32,312.955l-0.579,0.126c-0.172-0.415-0.124-1.104,0.126-2.066c0.121-0.508,0.304-1.107,0.519-1.824
		l0.04,0.105c0.012,0.606,0.006,1.307-0.025,2.067C196.36,312.209,196.339,312.738,196.32,312.955 M198.213,327.344
		c-0.152-0.205-0.324-0.387-0.507-0.548c-0.241-0.982-0.734-2.177-1.473-3.541c0.483,0.088,0.991,0.189,1.513,0.29
		c2.458,0.457,3.627,1.526,3.529,3.217c-0.054,0.651-0.312,1.262-0.775,1.797c-0.481,0.556-1.041,0.892-1.686,1.011
		c-0.017,0.003-0.034,0.006-0.055,0.012c0.299-0.077,0.425-0.236,0.364-0.461c-0.043-0.125-0.104-0.231-0.221-0.347
		c-0.134-0.112-0.358-0.362-0.679-0.729c0.018-0.023,0.015-0.043,0.009-0.061C198.237,327.889,198.237,327.672,198.213,327.344"/>
	<path fill="#599DE4" d="M221.048,332.647c0.643-0.097,1.338-0.229,2.087-0.387c2.452-0.508,4.793-1.328,7.057-2.427
		c0.02-0.003,0.04-0.006,0.057-0.012c0.018-0.003,0.184-0.071,0.505-0.206c0.111-0.041,0.197-0.096,0.283-0.15
		c0.022,0.013,0.061,0.007,0.083,0.023c0.021-0.006,0.034-0.026,0.049-0.049l0.026,0.016c5.381-3.404,7.454-7.441,6.263-12.12
		c-0.298-2.025-1.874-3.096-4.733-3.195l-0.021-0.015c-1.057-0.039-2.289,0.035-3.675,0.213c-5.923,1.305-9.444,2.033-10.564,2.177
		c5.484-1.999,9.704-3.904,12.655-5.715c-0.022-0.012-0.049-0.048-0.071-0.063c0.833-0.541,1.569-1.089,2.188-1.627
		c0.567-0.513,1.078-1.015,1.533-1.509c1.633-1.682,2.524-3.402,2.676-5.197c0.286-2.034-0.203-4.164-1.481-6.359
		c-0.664-1.181-2.071-1.854-4.236-2c-1.276-0.271-2.723-0.216-4.385,0.168c-0.314,0.072-0.627,0.172-0.945,0.251
		c-0.396,0.074-0.809,0.15-1.224,0.202c-5.532,1.12-8.953,2.39-10.28,3.84c1.828-2.959,3.08-5.856,3.756-8.72
		c0.181-0.617,0.29-1.182,0.37-1.701c0.003-0.097,0.038-0.225,0.074-0.343c0.37-1.684,0.229-3.175-0.438-4.473
		c-0.457-1.021-1.169-1.825-2.154-2.425c-0.021,0.006-0.021,0.006-0.023-0.011c-0.147-0.072-0.3-0.16-0.418-0.255l-0.003-0.018
		c-1.768-1.057-3.894-0.876-6.387,0.572c-0.873,0.434-1.765,0.986-2.707,1.666l11.504,62.437c0.141,0.032,0.266,0.086,0.407,0.118
		c0.108,0.04,0.226,0.057,0.329,0.077l0.599-0.012l0.006,0.018c0.172-0.015,0.363-0.012,0.618-0.018
		c0.272,0.006,0.513,0.043,0.705,0.144c2.086,0.026,4.456-0.201,7.071-0.662c0.418-0.058,0.851-0.137,1.295-0.26
		c1.141-0.361,2.061-0.843,2.768-1.441c0.015-0.021,0.035-0.024,0.049-0.047c0.39-0.521,0.576-1.099,0.562-1.717l-0.006-0.019
		l0.014-0.023c-0.103-1.401-0.132-2.214-0.103-2.473c0.005-0.06-0.015-0.188-0.061-0.435c-0.177-0.978-0.63-2.041-1.367-3.188
		c-0.003-0.019-0.003-0.019-0.006-0.038c-0.003-0.019-0.003-0.019-0.008-0.038l-0.003-0.02l-0.003-0.018
		c-0.043-0.017-0.068-0.048-0.091-0.081c-0.003-0.021-0.003-0.021-0.009-0.037l-0.278-0.356c-0.188-0.162-0.373-0.319-0.539-0.485
		l-0.003-0.021c-0.023-0.015-0.065-0.046-0.088-0.061c-0.45-0.326-0.777-0.519-0.969-0.599c-0.39-0.223-1.006-0.398-1.834-0.575
		c-1.249-0.238-2.609-0.336-4.103-0.314C221.925,332.679,221.152,332.688,221.048,332.647"/>
	<path fill="#2A4A97" d="M193.382,295.314c0.006,0.037,0.031,0.071,0.058,0.106l-0.312,0.1c-0.163,0.162-0.289,0.438-0.352,0.82
		c-0.055,0.34-0.133,0.55-0.259,0.612c-0.177,0.089-0.286,0.131-0.329,0.117c-0.023-0.034-0.049-0.046-0.083-0.044l0.16,0.574
		c-0.126,0.044-0.184,0.055-0.201,0.058l0.313,1.07l0.071,0.279c0.532,0.035,0.985,0.186,1.381,0.424
		c0.037-0.007,0.077-0.015,0.132-0.024c0.418-0.153,0.728-0.271,0.931-0.328c0.015-0.022,0.038-0.025,0.055-0.027
		c0.23-0.121,0.344-0.337,0.364-0.652c0.017-0.234,0.083-0.398,0.16-0.492l0.052-0.03c0.021-0.023,0.037-0.027,0.052-0.05
		c0.157-0.086,0.252-0.221,0.255-0.416l0.022-0.197l-0.005-0.019c0.218-0.411,0.77-1.426,1.679-3.031
		c0.905-1.629,2.04-3.294,3.412-5.001c1.379-1.717,2.397-2.935,3.055-3.698c0.627-0.714,1.269-1.341,1.911-1.866
		c1.326-1.043,2.569-1.877,3.767-2.465c0.244-0.14,0.493-0.286,0.74-0.409l-0.562-3.048c-1.132,0.501-2.281,1.22-3.496,2.122
		c-0.773,0.553-1.547,1.204-2.332,1.911h-0.114l-0.688,0.517c-0.029,0.043-0.061,0.089-0.075,0.111l-0.02-0.017l-0.037,0.028
		c-0.084,0.07-0.133,0.12-0.161,0.182l-0.018,0.021c-4.346,4.888-7.316,8.816-8.893,11.769c-0.058,0.11-0.118,0.199-0.194,0.309
		c-0.012,0.042-0.029,0.065-0.044,0.087c-0.105,0.176-0.183,0.366-0.283,0.574C193.457,295.302,193.419,295.306,193.382,295.314
		 M203.987,284.28c-0.003-0.019-0.009-0.057,0.006-0.078C203.978,284.224,203.984,284.262,203.987,284.28"/>
	<path fill="#2A4A97" d="M209.849,277.677l0.562,3.05c2.178-1.064,4.054-1.119,5.646-0.167l0.003,0.02
		c0.115,0.095,0.271,0.183,0.418,0.255c0.003,0.019,0.003,0.019,0.023,0.013c0.985,0.598,1.697,1.4,2.154,2.423
		c0.668,1.299,0.809,2.789,0.438,4.473c-0.036,0.119-0.071,0.245-0.074,0.343c-0.08,0.518-0.189,1.084-0.37,1.699
		c-0.676,2.866-1.928,5.763-3.758,8.724c1.329-1.452,4.75-2.721,10.279-3.84c0.418-0.054,0.831-0.13,1.227-0.204
		c0.318-0.078,0.631-0.177,0.945-0.253c1.662-0.381,3.108-0.435,4.385-0.168c2.165,0.148,3.572,0.821,4.236,2.002
		c1.278,2.195,1.768,4.323,1.481,6.36c-0.151,1.794-1.043,3.515-2.676,5.195c-0.455,0.495-0.966,0.997-1.533,1.51
		c-0.619,0.538-1.355,1.086-2.188,1.627c0.022,0.015,0.049,0.052,0.071,0.064c-2.954,1.81-7.171,3.713-12.655,5.715
		c1.12-0.146,4.642-0.874,10.564-2.179c1.386-0.177,2.618-0.251,3.675-0.211l0.021,0.014c2.859,0.098,4.436,1.168,4.733,3.197
		c1.191,4.677-0.882,8.714-6.263,12.116l-0.026-0.014c-0.017,0.023-0.028,0.043-0.049,0.049c-0.022-0.017-0.061-0.011-0.083-0.021
		c-0.086,0.053-0.172,0.107-0.283,0.148c-0.324,0.136-0.487,0.203-0.508,0.206c-0.014,0.006-0.034,0.009-0.054,0.012
		c-2.264,1.1-4.604,1.919-7.057,2.429c-0.749,0.155-1.447,0.286-2.087,0.385c0.104,0.04,0.877,0.033,2.373,0.008
		c1.493-0.02,2.854,0.08,4.103,0.316c0.828,0.177,1.444,0.354,1.834,0.574c0.191,0.081,0.519,0.273,0.969,0.602
		c0.022,0.013,0.064,0.044,0.088,0.06l0.003,0.018c0.166,0.168,0.351,0.325,0.539,0.485l0.278,0.358
		c0.006,0.015,0.006,0.015,0.009,0.037c0.022,0.033,0.048,0.066,0.091,0.081l0.003,0.017l0.003,0.021
		c0.005,0.02,0.005,0.02,0.005,0.037c0.006,0.021,0.006,0.021,0.009,0.039c0.737,1.146,1.19,2.211,1.367,3.188
		c0.046,0.247,0.065,0.375,0.061,0.435c-0.029,0.261,0,1.071,0.103,2.473l-0.014,0.023l0.006,0.019
		c0.014,0.62-0.173,1.197-0.562,1.717c-0.014,0.021-0.034,0.023-0.049,0.047c-0.707,0.597-1.627,1.08-2.768,1.441
		c-0.444,0.123-0.877,0.202-1.295,0.26c-2.126,0.371-4.068,0.594-5.851,0.65l0.556,3.009c2.596-0.072,5.037-0.422,7.304-1.094
		c1.459-0.425,2.679-0.978,3.679-1.688c0.367-0.632,0.828-1.299,1.342-1.997c0.123-0.489,0.274-1.043,0.449-1.678
		c0.031-0.142,0.083-0.285,0.118-0.411c0.056-0.845,0.002-1.789-0.201-2.783c-0.643-3.283-1.742-5.434-3.298-6.488l-0.003-0.02
		c-0.063-0.026-0.39-0.219-1.001-0.574c-0.128-0.074-0.26-0.145-0.366-0.202c0.021-0.003,0.037-0.009,0.055-0.012
		c0.071-0.031,0.317-0.079,0.717-0.132c0.188-0.034,0.341-0.064,0.453-0.086c0.017-0.003,0.054-0.007,0.088-0.032
		c0.092-0.035,0.224-0.06,0.387-0.111c0.055-0.029,0.126-0.06,0.184-0.071c0.089-0.039,0.198-0.077,0.35-0.104
		c6.06-3.937,8.495-8.664,7.263-14.194c-0.458-3.237-2.329-5.032-5.563-5.39c0.696-0.559,1.37-1.127,1.979-1.727l0.015-0.023
		c4.117-4.141,4.91-8.584,2.409-13.312c-2.521-4.808-6.698-6.485-12.525-5.082c-2.364,0.569-4.439,1.146-6.179,1.72
		c0.663-1.465,1.198-3.098,1.622-4.908c0.959-4.163-0.432-7.521-4.166-10.043C215.685,276.428,212.952,276.271,209.849,277.677"/>
	<path fill="#2A4A97" d="M193.068,329.169c-0.336,0.081-0.37,0.107-0.098,0.118l0.264,1.113c0.177,0.006,0.874,0.189,2.086,0.551
		c0.286,0.082,0.553,0.15,0.811,0.181l0.003,0.019c0.149,0.264,0.304,0.491,0.435,0.68c0.015,0.057,0.021,0.093,0.006,0.136
		c0.351,0.616,0.734,1.223,1.164,1.865c0.188,0.292,0.384,0.609,0.6,0.937c1.033,1.501,2.197,3.059,3.515,4.625
		c3.283,3.982,7.793,6.73,13.498,8.245c0.759,0.21,1.532,0.398,2.28,0.553c0.711,0.159,1.396,0.287,2.095,0.393
		c0.02-0.004,0.034-0.006,0.074-0.015c0.444-0.022,0.816,0.005,1.1,0.069c0.016-0.02,0.029-0.061,0.046-0.086
		c0.662,0.017,1.327,0.028,1.963,0.009l-0.556-3.009c-0.404,0.018-0.813,0.015-1.221,0.012c-0.192-0.102-0.433-0.138-0.705-0.144
		c-0.252,0.006-0.45,0.003-0.618,0.018l-0.006-0.018l-0.599,0.012c-0.104-0.021-0.221-0.037-0.329-0.078
		c-0.671-0.165-1.29-0.366-1.889-0.546c-1.942-0.516-3.739-1.195-5.404-1.997c-1.681-0.8-3.609-2.078-5.796-3.815
		c-1.166-1.046-2.249-2.174-3.252-3.405c-0.701-0.841-1.366-1.71-1.981-2.627c-0.404-0.604-0.815-1.248-1.188-1.902
		c-0.263-0.476-0.521-0.954-0.773-1.45c-0.132,0.024-0.243,0.046-0.341,0.043c-0.486-0.437-1.227-0.748-2.255-0.945
		c-0.403-0.084-0.782-0.128-1.117-0.165c-0.557-0.053-1.023-0.044-1.396,0.024c-0.396,0.074-0.596,0.148-0.618,0.229l0.094,0.102
		L193.068,329.169z"/>
	<path fill="#599DE4" d="M300.597,312.503c0.068,0.011,0.138,0.025,0.215,0.034c-0.395,0.673-0.76,1.294-1.117,1.877
		c-0.066,0.155-0.127,0.292-0.204,0.428c-0.553,1.182-1.137,2.313-1.71,3.398c-0.547,1.032-1.052,1.924-1.533,2.69
		c-0.902,1.471-1.671,2.521-2.329,3.126c-0.256,0.418-0.519,0.851-0.796,1.305c-0.141,0.286-0.268,0.58-0.408,0.871
		c-0.024,0.031-0.033,0.065-0.054,0.082c-0.028,0.066-0.06,0.139-0.089,0.207c-0.195,0.39-0.412,0.794-0.631,1.184
		c-0.347,0.622-0.728,1.242-1.105,1.819c-0.576,0.882-1.198,1.716-1.856,2.525c-0.942,1.185-1.957,2.27-3.054,3.277
		c-2.061,1.68-3.88,2.913-5.473,3.694c-1.573,0.78-3.278,1.448-5.118,1.962c-0.57,0.181-1.156,0.374-1.793,0.541
		c-0.101,0.037-0.213,0.057-0.31,0.075l-0.57-0.006l-0.003,0.021c-0.166-0.012-0.352-0.006-0.59-0.012
		c-0.258,0.012-0.487,0.047-0.671,0.145c-1.982,0.046-4.24-0.139-6.735-0.548c-0.398-0.054-0.812-0.122-1.235-0.231
		c-1.086-0.337-1.968-0.784-2.647-1.342c-0.018-0.021-0.034-0.024-0.049-0.046c-0.378-0.489-0.559-1.039-0.554-1.626l0.004-0.02
		l-0.011-0.02c0.079-1.334,0.102-2.104,0.067-2.353c-0.006-0.056,0.015-0.182,0.058-0.417c0.158-0.931,0.573-1.948,1.261-3.051
		c0.004-0.018,0.004-0.018,0.006-0.033c0.005-0.021,0.005-0.021,0.009-0.035v-0.021l0.002-0.017c0.04-0.01,0.066-0.044,0.089-0.075
		c0.003-0.021,0.003-0.021,0.006-0.035l0.262-0.343c0.174-0.156,0.35-0.31,0.507-0.471l0.002-0.02
		c0.021-0.013,0.061-0.04,0.084-0.055c0.421-0.317,0.73-0.504,0.913-0.585c0.37-0.211,0.952-0.39,1.74-0.566
		c1.186-0.238,2.479-0.351,3.902-0.345c1.418,0.002,2.154,0.002,2.255-0.037c-0.613-0.088-1.275-0.2-1.989-0.341
		c-2.341-0.462-4.575-1.212-6.741-2.231c-0.021-0.003-0.04-0.006-0.055-0.009c-0.021-0.001-0.174-0.067-0.484-0.194
		c-0.103-0.034-0.188-0.086-0.271-0.137c-0.021,0.014-0.058,0.009-0.078,0.019c-0.017-0.003-0.031-0.022-0.049-0.04l-0.02,0.015
		c-5.16-3.178-7.181-6.997-6.097-11.465c0.258-1.93,1.745-2.967,4.464-3.088l0.02-0.018c1.007-0.048,2.181,0.009,3.499,0.161
		c5.653,1.172,9.008,1.826,10.079,1.952c-5.24-1.84-9.277-3.606-12.107-5.293c0.02-0.016,0.046-0.049,0.068-0.063
		c-0.803-0.508-1.507-1.016-2.104-1.521c-0.544-0.484-1.034-0.957-1.473-1.42c-1.575-1.581-2.438-3.208-2.607-4.915
		c-0.295-1.936,0.146-3.962,1.338-6.066c0.622-1.13,1.952-1.787,4.012-1.948c1.21-0.275,2.588-0.24,4.172,0.106
		c0.301,0.071,0.599,0.158,0.902,0.228c0.375,0.063,0.771,0.132,1.17,0.184c5.271,0.999,8.544,2.17,9.821,3.537
		c-1.771-2.798-3.001-5.538-3.676-8.257c-0.179-0.585-0.287-1.121-0.367-1.614c-0.003-0.094-0.04-0.211-0.074-0.329
		c-0.373-1.598-0.259-3.014,0.363-4.258c0.427-0.979,1.095-1.748,2.023-2.328c0.018,0.002,0.018,0.002,0.02-0.014
		c0.143-0.069,0.287-0.153,0.396-0.245l0.003-0.019c1.67-1.022,3.693-0.878,6.085,0.474c1.144,0.548,2.339,1.324,3.61,2.3
		c0.619,0.496,1.235,1.083,1.84,1.757c0.633,0.721,1.616,1.866,2.945,3.479c1.203,1.48,2.215,2.911,3.065,4.292
		c0.084,0.144,0.172,0.291,0.24,0.429c0.883,1.52,1.419,2.477,1.631,2.866l-0.003,0.019l0.021,0.188
		c0.006,0.187,0.097,0.315,0.249,0.394c0.015,0.021,0.031,0.023,0.046,0.045l0.052,0.028c0.077,0.086,0.143,0.245,0.16,0.47
		c0.021,0.299,0.135,0.504,0.355,0.614c0.018,0.002,0.034,0.006,0.049,0.028c0.194,0.052,0.489,0.158,0.891,0.3
		c0.052,0.012,0.089,0.015,0.126,0.021c0.061-0.025,0.12-0.052,0.184-0.098c0.326-0.182,0.693-0.286,1.127-0.32l0.062-0.268
		c0.256,0.136,0.462,0.207,0.625,0.236c0.144,0.025,0.249,0.061,0.326,0.132c0.095,1.068,0.505,2.653,1.244,4.79
		c0.025,0.079,0.049,0.158,0.074,0.216c0.281-0.228,0.55-0.385,0.839-0.465c0.101-0.037,0.176-0.061,0.244-0.031
		c0.157,0.064,0.212,0.277,0.146,0.652c-0.033,0.197-0.266,0.694-0.698,1.486c0.034,0.024,0.063,0.066,0.095,0.107
		c0.369,0.415,0.536,0.741,0.496,0.972c-0.003,0.02-0.009,0.058-0.035,0.088c0.115-0.033,0.237-0.091,0.358-0.143
		c1.387-0.556,1.206,1.369-0.567,5.756C301.119,311.282,300.863,311.903,300.597,312.503"/>
	<path fill="#2A4A97" d="M298.316,295.79c0.124,0.04,0.179,0.047,0.195,0.053l-0.287,1.021l-0.062,0.268
		c-0.434,0.034-0.801,0.138-1.127,0.32c-0.063,0.046-0.123,0.075-0.184,0.098c-0.037-0.006-0.074-0.009-0.126-0.02
		c-0.401-0.143-0.696-0.249-0.891-0.301c-0.015-0.023-0.031-0.026-0.049-0.026c-0.221-0.114-0.335-0.317-0.357-0.613
		c-0.016-0.228-0.081-0.387-0.158-0.473l-0.052-0.028c-0.015-0.021-0.031-0.023-0.046-0.045c-0.152-0.08-0.243-0.209-0.249-0.394
		l-0.021-0.188l0.003-0.019c-0.212-0.387-0.748-1.347-1.631-2.865c-0.068-0.141-0.156-0.285-0.24-0.428
		c-0.851-1.384-1.862-2.813-3.065-4.294c-1.329-1.614-2.312-2.759-2.945-3.479c-0.604-0.676-1.221-1.262-1.84-1.756
		c-1.271-0.976-2.467-1.754-3.61-2.302c-0.625-0.346-1.206-0.615-1.782-0.805l0.496-2.889c1.381,0.462,2.868,1.253,4.427,2.387
		c0.742,0.517,1.487,1.124,2.243,1.788h0.109l0.656,0.483c0.029,0.043,0.057,0.085,0.071,0.105l0.02-0.013l0.035,0.021
		c0.08,0.068,0.129,0.117,0.154,0.175l0.015,0.021c4.195,4.599,7.065,8.303,8.596,11.097c0.058,0.101,0.117,0.186,0.192,0.289
		c0.013,0.04,0.024,0.063,0.039,0.081c0.101,0.166,0.184,0.347,0.278,0.544c0.034,0.007,0.072,0.018,0.105,0.021
		c-0.006,0.034-0.027,0.067-0.054,0.101l0.298,0.09c0.161,0.156,0.28,0.416,0.347,0.778c0.054,0.326,0.135,0.524,0.252,0.581
		c0.169,0.086,0.275,0.12,0.312,0.11c0.022-0.036,0.043-0.048,0.08-0.045L298.316,295.79z M287.007,283.175
		c0.018,0.02,0.009,0.058,0.006,0.072C287.016,283.232,287.025,283.194,287.007,283.175"/>
	<path fill="#2A4A97" d="M280.289,276.627l-0.496,2.889c-1.624-0.536-3.065-0.436-4.303,0.329l-0.003,0.021
		c-0.108,0.092-0.253,0.176-0.396,0.245c-0.002,0.016-0.002,0.016-0.02,0.014c-0.929,0.578-1.6,1.349-2.023,2.327
		c-0.622,1.245-0.738,2.661-0.363,4.259c0.037,0.118,0.071,0.235,0.074,0.329c0.08,0.493,0.188,1.029,0.367,1.614
		c0.675,2.719,1.905,5.459,3.676,8.257c-1.277-1.363-4.55-2.54-9.821-3.537c-0.402-0.052-0.795-0.12-1.17-0.182
		c-0.304-0.071-0.602-0.158-0.902-0.23c-1.584-0.346-2.962-0.38-4.172-0.105c-2.06,0.161-3.39,0.818-4.012,1.948
		c-1.191,2.104-1.633,4.132-1.338,6.066c0.17,1.707,1.032,3.334,2.607,4.915c0.438,0.463,0.929,0.936,1.473,1.418
		c0.597,0.507,1.301,1.015,2.104,1.522c-0.022,0.015-0.049,0.049-0.068,0.063c2.833,1.687,6.867,3.453,12.104,5.293
		c-1.068-0.127-4.423-0.78-10.076-1.952c-1.318-0.152-2.492-0.206-3.499-0.161l-0.02,0.018c-2.719,0.121-4.206,1.158-4.464,3.088
		c-1.084,4.468,0.937,8.287,6.097,11.465l0.02-0.015c0.018,0.018,0.032,0.038,0.049,0.041c0.021-0.011,0.058-0.006,0.078-0.021
		c0.083,0.052,0.169,0.104,0.271,0.138c0.311,0.127,0.464,0.193,0.481,0.194c0.018,0.003,0.037,0.006,0.058,0.009
		c2.166,1.021,4.4,1.772,6.741,2.231c0.66,0.133,1.287,0.235,1.863,0.317l-0.006,0.038c-0.281,0.025-0.983,0.033-2.123,0.022
		c-1.424-0.006-2.717,0.106-3.902,0.345c-0.788,0.18-1.37,0.358-1.74,0.566c-0.183,0.081-0.492,0.268-0.913,0.585
		c-0.023,0.015-0.062,0.042-0.084,0.055l-0.002,0.02c-0.157,0.161-0.333,0.314-0.507,0.471l-0.262,0.343
		c-0.003,0.015-0.003,0.015-0.006,0.035c-0.022,0.031-0.049,0.065-0.089,0.075l-0.002,0.017v0.021
		c-0.004,0.014-0.004,0.014-0.009,0.035c-0.002,0.019-0.002,0.019-0.006,0.036c-0.688,1.1-1.103,2.117-1.261,3.048
		c-0.043,0.235-0.063,0.36-0.058,0.417c0.031,0.247,0.012,1.019-0.067,2.352l0.011,0.021l-0.004,0.02
		c-0.005,0.587,0.176,1.139,0.554,1.626c0.015,0.021,0.031,0.024,0.049,0.044c0.68,0.56,1.562,1.007,2.647,1.344
		c0.424,0.109,0.837,0.181,1.235,0.231c1.578,0.271,3.062,0.433,4.435,0.505l-0.492,2.868c-2.053-0.095-3.997-0.392-5.825-0.911
		c-1.393-0.384-2.558-0.899-3.516-1.562c-0.358-0.595-0.806-1.227-1.301-1.89c-0.123-0.462-0.275-0.987-0.447-1.589
		c-0.033-0.133-0.082-0.272-0.117-0.39c-0.062-0.801-0.022-1.702,0.16-2.646c0.576-3.134,1.597-5.194,3.062-6.214l0.004-0.021
		c0.06-0.025,0.369-0.212,0.945-0.556c0.123-0.069,0.246-0.145,0.347-0.196c-0.018-0.005-0.034-0.008-0.052-0.011
		c-0.071-0.028-0.3-0.069-0.683-0.116c-0.18-0.032-0.323-0.058-0.432-0.077c-0.015-0.003-0.055-0.007-0.086-0.032
		c-0.089-0.031-0.212-0.055-0.37-0.101c-0.052-0.025-0.12-0.055-0.171-0.066c-0.087-0.032-0.192-0.068-0.336-0.096
		c-5.811-3.673-8.183-8.143-7.071-13.419c0.401-3.085,2.157-4.815,5.229-5.188c-0.664-0.524-1.312-1.058-1.896-1.62l-0.018-0.022
		c-3.964-3.895-4.769-8.116-2.441-12.641c2.344-4.602,6.3-6.247,11.859-4.977c2.257,0.516,4.234,1.04,5.896,1.565
		c-0.648-1.385-1.176-2.937-1.6-4.646c-0.962-3.952,0.327-7.164,3.849-9.606C275.525,276.104,277.753,275.806,280.289,276.627"/>
	<path fill="#2A4A97" d="M296.248,320.929c0.206-0.24,0.436-0.496,0.645-0.758c-0.406,2.164-0.739,3.881-0.969,5.116
		c-0.177,0.914-0.289,1.575-0.36,1.985c-0.026,0.126-0.04,0.235-0.063,0.357c-0.174,0.048-0.326,0.075-0.479,0.105l-0.003,0.018
		c-0.134,0.25-0.283,0.47-0.406,0.649c-0.012,0.054-0.018,0.089-0.003,0.131c-0.324,0.587-0.685,1.172-1.086,1.784
		c-0.181,0.287-0.358,0.588-0.559,0.903c-0.877,1.327-1.883,2.668-2.985,4.049c-0.098,0.13-0.195,0.261-0.31,0.39
		c-3.077,3.827-7.336,6.491-12.745,7.996c-0.722,0.211-1.454,0.398-2.166,0.553c-0.673,0.162-1.323,0.289-1.984,0.396
		c-0.021-0.003-0.04-0.006-0.075-0.012c-0.421-0.015-0.775,0.012-1.046,0.077c-0.017-0.021-0.025-0.058-0.043-0.08
		c-1.023,0.046-2.02,0.038-3.005-0.018l0.492-2.868c0.806,0.046,1.576,0.068,2.301,0.043c0.184-0.098,0.413-0.133,0.671-0.146
		c0.238,0.007,0.424,0,0.59,0.013l0.003-0.021l0.57,0.006c0.097-0.018,0.209-0.037,0.307-0.074c0.64-0.167,1.226-0.361,1.796-0.542
		c1.84-0.511,3.545-1.179,5.118-1.96c1.593-0.78,3.412-2.017,5.473-3.693c1.097-1.011,2.111-2.093,3.054-3.277
		c0.658-0.812,1.28-1.646,1.856-2.527c0.378-0.575,0.759-1.197,1.105-1.819c0.219-0.39,0.433-0.794,0.631-1.184
		c0.029-0.066,0.061-0.141,0.089-0.209c0.021-0.015,0.029-0.047,0.054-0.082c0.138-0.291,0.268-0.583,0.408-0.87
		c0.277-0.454,0.54-0.887,0.796-1.303C294.574,323.451,295.345,322.401,296.248,320.929"/>
	<path fill="#2A4A97" d="M271.201,329.473l0.006-0.038c0.057,0.011,0.092,0.017,0.126,0.022
		C271.312,329.473,271.275,329.468,271.201,329.473"/>
</g>
<g>
	<path d="M239.473,52.958c-3,0.9-6.42,1.561-10.38,2.04c0,2.82-0.06,5.7-0.06,8.22c4.08-1.2,8.34-1.979,11.46-1.979
		c9.839,0,17.399,4.979,17.399,14.64c0,8.699-4.919,15.059-15.179,15.059c-4.14,0-7.979-1.56-11.22-5.34
		c1.26-1.56,2.7-3.899,3.72-5.76c2.22,2.7,4.8,4.08,7.56,4.08c4.86,0,7.439-3.42,7.439-8.039c0-4.801-3.479-8.22-9.899-8.22
		c-3.24,0.06-7.38,0.779-11.28,2.039v11.88c0,5.52-3.54,10.38-10.919,10.38c-5.22,0-11.16-2.94-11.16-10.26
		c0-4.08,2.76-8.279,7.26-11.579c2.16-1.561,4.8-3.061,7.62-4.261V55.599c-3.96,0.239-8.4,0.3-13.26,0.3l-0.12-7.2
		c4.98,0,9.42-0.06,13.38-0.239v-10.2l9.479,0.24c0,0.72-0.6,1.26-1.56,1.38c-0.18,2.34-0.3,5.1-0.42,7.859
		c3.36-0.479,6.479-1.199,9.18-2.22L239.473,52.958z M221.833,72.697c-3.48,2.101-8.04,4.8-8.04,8.82c0,2.46,1.44,4.02,4.08,4.02
		c2.46,0,4.02-1.38,4.02-4.26C221.893,79.777,221.893,76.237,221.833,72.697z M255.612,58.778c-3.24-3-8.7-6.12-13.5-7.979
		l3.66-6.24c5.22,1.8,10.739,4.86,14.099,7.8L255.612,58.778z"/>
	<path d="M306.942,60.698c-0.18,0.06-0.42,0.06-0.6,0.06c-0.48,0-1.02-0.12-1.38-0.359c-18.06,4.859-31.499,11.339-31.439,17.759
		c0.06,4.5,4.74,6.3,13.02,6.3c5.58,0,14.819-0.479,21.299-1.62l0.72,7.68c-6.9,0.9-18.419,1.141-21.839,1.141
		c-11.76,0-21-2.88-21-13.2c0-6.3,5.64-11.579,14.52-16.379c-2.22-4.32-2.88-10.979-2.82-23.939l10.68,0.84
		c-0.06,0.9-0.66,1.38-1.98,1.561c-0.06,1.739-0.06,3.359-0.06,4.859c0,5.94,0.36,10.38,1.38,13.26
		c5.1-2.28,10.859-4.439,16.979-6.54L306.942,60.698z"/>
	<path d="M339.235,39.819c-0.12,0.84-0.9,1.14-1.98,1.26c-0.54,2.939-1.44,8.1-2.1,11.579c1.56-0.18,3.72-0.359,4.92-0.359
		c9.899-0.061,12.959,6.899,12.959,16.259v0.061c-0.24,13.259-3.96,22.679-13.14,22.679c-2.4,0-6-1.14-10.799-4.92
		c0.96-1.86,1.92-4.319,2.52-6.479c4.08,2.88,6.419,3.6,8.04,3.6c2.52,0,3.72-2.04,4.68-5.46c0.78-2.64,1.26-7.619,1.26-9.839
		c-0.06-5.94-1.86-8.94-6.12-8.94c-1.44,0-3.48,0.12-5.76,0.42c-2.7,10.979-6,21.659-11.1,31.319l-6.959-3.42
		c4.919-8.88,7.979-17.22,10.379-27.059c-2.16,0.359-6.479,0.959-9.12,1.439l-0.66-7.439l11.159-1.26c0.78-4.38,1.56-9.42,2.1-14.46
		L339.235,39.819z M354.415,48.639c-1.26-2.521-4.56-6.479-6.96-8.34l3.54-2.46c2.7,2.22,5.7,5.76,7.14,8.279L354.415,48.639z
		 M362.334,72.638c-1.44-7.68-5.34-15.539-9.96-19.739l6.36-3.96c5.52,5.1,9.899,13.079,11.459,20.939L362.334,72.638z
		 M363.834,46.179c-1.26-2.46-4.56-6.42-6.899-8.34l3.48-2.399c2.7,2.159,5.76,5.699,7.14,8.279L363.834,46.179z"/>
	<path d="M373.538,44.139c1.86,0,4.62-0.06,6.3-0.18c6.899-0.48,32.818-2.101,42.958-2.58l0.12,8.1c-5.34-0.18-8.28,0.3-13.02,3.66
		c-6.6,4.38-14.759,12.659-14.759,19.499s6.06,10.8,19.199,12.18l-3.72,7.499c-17.04-2.04-23.759-9.239-23.759-19.619
		c0-7.319,6.72-16.799,15.72-23.099c-7.44,0.66-21.299,1.74-26.819,2.34c-0.12,0.479-0.9,0.9-1.44,1.02L373.538,44.139z
		 M413.616,58.418c2.58,2.101,5.7,5.58,7.32,8.1l-3.54,2.82c-1.32-2.34-4.92-6.36-7.08-8.22L413.616,58.418z M420.756,53.078
		c2.7,2.16,5.76,5.4,7.319,8.04l-3.479,2.76c-1.38-2.22-4.74-6.18-7.14-8.16L420.756,53.078z"/>
	<path d="M448.627,61.898c3.3-1.44,7.98-2.221,11.459-2.221c9.12,0,15.419,5.58,15.419,15c0,10.739-9.359,16.979-22.439,16.979
		c-7.74,0-13.199-3.54-13.199-9.6c0-4.86,4.919-8.82,10.56-8.82c6.359,0,11.159,4.26,12.179,9.479c2.94-1.439,4.98-4.26,4.98-7.979
		c0-5.159-4.26-8.459-10.32-8.459c-8.16,0-15.719,3.419-19.979,7.439c-1.44,1.319-3.84,3.72-5.4,5.46l-5.34-5.34
		c4.26-4.26,19.379-18.6,27.419-26.039c-2.94,0.42-13.319,0.96-18.119,1.26c-0.18,0.42-0.9,0.78-1.44,0.899l-0.66-8.459
		c7.68,0,24.599-0.66,28.559-1.32l0.9-0.42l4.86,6.12c-0.36,0.359-1.08,0.6-1.74,0.66c-3.12,2.279-12.779,10.919-17.699,15.299
		V61.898z M451.807,85.117c1.02,0,2.88-0.18,3.66-0.36c-0.42-3.18-2.94-5.46-5.64-5.46c-1.98,0-3.78,1.021-3.78,2.761
		C446.047,84.877,449.827,85.117,451.807,85.117z"/>
	<path d="M525.21,88.777c-4.02-3.36-9.78-7.2-14.58-9.42c0.06,3.239-0.9,6.18-2.1,7.8c-1.2,2.699-4.74,4.319-10.259,4.439
		c-8.52,0.061-15.419-4.199-15.6-10.92c-0.06-7.259,7.08-10.799,14.58-10.919c1.38,0,3.9,0.12,5.34,0.36
		c0-0.961-0.18-1.801-0.24-2.641c-0.54-8.1-1.26-22.079-1.32-29.099l9.72,0.48c0,0.6-0.48,1.14-1.5,1.38
		c-0.06,1.439,0.06,8.579,0.06,10.199c3.66-0.12,12.06-0.9,18.179-2.04l0.72,7.5c-5.459,0.899-13.379,1.56-18.839,1.68
		c0.06,4.2,0.48,7.979,0.6,10.8c0.12,0.899,0.24,1.979,0.3,3c6.899,2.22,14.099,6.06,19.859,10.319L525.21,88.777z M497.551,75.938
		c-6.3,0-8.04,2.52-8.04,4.5c0.06,3.239,3.66,4.56,7.74,4.56c3.54,0,5.76-1.86,5.76-4.5c0-1.14-0.06-2.52-0.18-3.779
		C501.031,76.178,499.171,75.938,497.551,75.938z"/>
	<path d="M545.767,82.777c0-3.18,2.58-5.82,5.76-5.82c3.18,0,5.7,2.641,5.7,5.82c0,3.239-2.52,5.819-5.7,5.819
		C548.227,88.597,545.767,85.897,545.767,82.777z M548.167,72.577l-1.5-30.898h9.959l-1.44,30.898H548.167z"/>
</g>
</svg>
