<?xml version="1.0" encoding="utf-8"?>
<!-- Generator: Adobe Illustrator 16.2.1, SVG Export Plug-In . SVG Version: 6.00 Build 0)  -->
<!DOCTYPE svg PUBLIC "-//W3C//DTD SVG 1.1//EN" "http://www.w3.org/Graphics/SVG/1.1/DTD/svg11.dtd">
<svg version="1.1" id="レイヤー_1" xmlns="http://www.w3.org/2000/svg" xmlns:xlink="http://www.w3.org/1999/xlink" x="0px"
	 y="0px" width="118px" height="126.5px" viewBox="0 0 118 126.5" enable-background="new 0 0 118 126.5" xml:space="preserve">
<g>
	<path fill="#353535" d="M43.861,7.098c-1.578,0.038-3.027,0.381-4.273,0.992c-1.879,0.91-3.23,2.408-4.037,4.012
		c-0.816,1.611-1.148,3.331-1.15,4.964v36.842c-0.58-0.666-1.172-1.288-1.783-1.86c-1.234-1.151-2.543-2.108-3.963-2.795
		c-1.414-0.687-2.955-1.095-4.545-1.095c-1.684-0.003-3.387,0.469-4.945,1.363c-1.74,0.981-3.025,2.364-3.787,3.872
		c-0.77,1.509-1.037,3.087-1.037,4.53c0.002,1.465,0.268,2.814,0.623,3.981c0.361,1.171,0.805,2.147,1.266,2.923
		c0.656,1.092,6.646,11.096,12.467,21.032c2.908,4.967,5.777,9.921,7.904,13.721c1.064,1.898,1.945,3.514,2.541,4.671
		c0.299,0.576,0.525,1.044,0.656,1.338c0.012,0.025,0.016,0.041,0.027,0.065v5.536c0,0.695,0.281,1.375,0.773,1.866
		c0.49,0.492,1.17,0.772,1.865,0.772h43.764c0.695,0,1.375-0.28,1.865-0.772c0.492-0.491,0.773-1.171,0.773-1.866v-7.574l0.01-0.05
		c0.039-0.181,0.205-0.649,0.484-1.237c0.486-1.042,1.293-2.478,2.215-4.121c1.387-2.477,3.043-5.444,4.377-8.644
		c1.326-3.201,2.363-6.648,2.371-10.189c0,0,0-19.132,0-20.745c-0.002-1.502-0.041-3.235-0.371-5.048
		c-0.25-1.357-0.666-2.77-1.385-4.134c-0.539-1.021-1.25-2.012-2.158-2.897c-1.363-1.331-3.154-2.403-5.352-3.112
		c-1.604-0.518-3.43-0.85-5.51-0.994c-0.068-0.241-0.146-0.485-0.244-0.734c-0.512-1.294-1.49-2.701-3.068-3.751
		c-1.576-1.054-3.689-1.692-6.25-1.688c-1.766-0.002-3.33,0.347-4.637,0.949c-0.107,0.049-0.203,0.104-0.305,0.155
		c-0.229-0.733-0.588-1.447-1.092-2.141c-0.801-1.096-1.973-2.132-3.521-2.885c-1.551-0.754-3.463-1.212-5.693-1.21
		c-1.678-0.002-3.162,0.311-4.422,0.85V17.358c-0.002-1.139-0.152-2.316-0.508-3.48c-0.525-1.736-1.539-3.475-3.186-4.763
		c-0.82-0.641-1.787-1.157-2.865-1.501c-1.078-0.346-2.262-0.521-3.533-0.521C44.104,7.093,43.982,7.095,43.861,7.098z"/>
	<path fill="#FFFFFF" d="M46.615,12.82c0.855,0.398,1.387,0.96,1.803,1.748c0.404,0.78,0.619,1.796,0.619,2.79v36.214
		c0,1.458,1.18,2.64,2.639,2.64c1.457,0,2.639-1.182,2.639-2.64c0,0,0-6.609,0-14.204c-0.002-0.02,0.041-0.312,0.172-0.624
		c0.199-0.494,0.561-1.059,1.158-1.492c0.605-0.431,1.486-0.824,3.092-0.833c2.32,0.009,3.617,0.68,4.389,1.327
		c0.383,0.327,0.631,0.666,0.764,0.921c0.068,0.125,0.105,0.229,0.121,0.283l0.004,0.019c0,1.816,0,14.457,0,14.457
		c0,1.456,1.184,2.639,2.641,2.639s2.639-1.183,2.639-2.639v-7.965c0.084-0.253,0.139-0.52,0.143-0.8h0.004v-0.009
		c0.006-0.077,0.072-0.396,0.229-0.734c0.232-0.521,0.635-1.102,1.262-1.544c0.633-0.438,1.516-0.815,3.055-0.824
		c1.15,0,1.975,0.182,2.572,0.416c0.893,0.357,1.326,0.813,1.619,1.259c0.141,0.223,0.234,0.445,0.289,0.629
		c0.057,0.181,0.066,0.33,0.064,0.335c0,1.612,0,13.782,0,13.782c0,1.458,1.182,2.639,2.639,2.639s2.639-1.181,2.639-2.639
		c0,0,0-6.076,0-10.21c1.857,0.178,3.316,0.536,4.428,0.993c1.205,0.496,2.025,1.087,2.648,1.738
		c0.465,0.489,0.824,1.021,1.115,1.613c0.432,0.887,0.705,1.92,0.859,3.038s0.188,2.312,0.186,3.486v20.745
		c0.004,1.987-0.498,4.228-1.32,6.505c-1.229,3.421-3.148,6.89-4.807,9.844c-0.83,1.482-1.594,2.835-2.191,4.062
		c-0.299,0.616-0.557,1.201-0.762,1.798c-0.199,0.601-0.367,1.202-0.375,1.982v4.985H45.102v-3.299
		c-0.006-0.375-0.055-0.564-0.092-0.732c-0.078-0.312-0.156-0.508-0.244-0.729c-0.168-0.413-0.381-0.862-0.654-1.41
		c-1.018-2.028-2.881-5.372-5.162-9.36c-6.83-11.936-17.305-29.426-18.195-30.91c-0.201-0.33-0.514-0.991-0.744-1.749
		c-0.232-0.762-0.393-1.632-0.391-2.438c0-0.804,0.148-1.522,0.459-2.128c0.316-0.606,0.777-1.155,1.699-1.689
		c0.867-0.488,1.6-0.665,2.332-0.67c0.693,0.002,1.424,0.17,2.248,0.567c1.234,0.591,2.646,1.729,4.068,3.377
		c1.338,1.543,2.684,3.53,3.975,5.822v7.67c0,1.458,1.18,2.64,2.639,2.64c1.457,0,2.639-1.182,2.639-2.64V17.065
		c0-0.596,0.086-1.215,0.258-1.777c0.262-0.848,0.695-1.537,1.289-2.022c0.602-0.479,1.395-0.847,2.771-0.892l0.227-0.003
		C45.275,12.372,46.037,12.561,46.615,12.82z"/>
</g>
</svg>
