<?xml version="1.0" encoding="utf-8"?>
<!-- Generator: Adobe Illustrator 16.2.1, SVG Export Plug-In . SVG Version: 6.00 Build 0)  -->
<!DOCTYPE svg PUBLIC "-//W3C//DTD SVG 1.1//EN" "http://www.w3.org/Graphics/SVG/1.1/DTD/svg11.dtd">
<svg version="1.1" id="レイヤー_1" xmlns="http://www.w3.org/2000/svg" xmlns:xlink="http://www.w3.org/1999/xlink" x="0px"
	 y="0px" width="86px" height="78.5px" viewBox="0 0 86 78.5" enable-background="new 0 0 86 78.5" xml:space="preserve">
<circle fill="#7A103B" cx="44.067" cy="41.157" r="31.766"/>
<circle fill="#F991BB" cx="42.933" cy="39.267" r="31.766"/>
<g>
	<path fill="#595757" d="M37.036,47.67c0.102-0.811,0.102-0.861,0.102-2.331c0-3.495,0.607-5.521,2.229-7.497
		c1.216-1.419,1.621-1.723,5.219-3.9c2.481-1.47,3.292-2.533,3.292-4.205c0-2.381-1.772-3.8-4.812-3.8
		c-2.279,0-3.951,0.811-4.914,2.381c-0.506,0.811-0.709,1.521-0.911,3.091l-10.437-0.963c0.507-3.647,1.317-5.623,3.242-7.751
		c2.938-3.343,7.447-5.065,13.273-5.065c9.321,0,15.146,4.407,15.146,11.398c0,3.09-1.013,5.471-3.141,7.446
		c-1.216,1.114-1.723,1.47-6.13,4.205c-2.128,1.368-2.888,2.685-2.888,5.015c0,0.608,0.051,1.166,0.152,1.977H37.036z
		 M46.864,51.114v9.575H36.682v-9.575H46.864z"/>
</g>
</svg>
