<?xml version="1.0" encoding="utf-8"?>
<!-- Generator: Adobe Illustrator 16.2.1, SVG Export Plug-In . SVG Version: 6.00 Build 0)  -->
<!DOCTYPE svg PUBLIC "-//W3C//DTD SVG 1.1//EN" "http://www.w3.org/Graphics/SVG/1.1/DTD/svg11.dtd">
<svg version="1.1" id="レイヤー_1" xmlns="http://www.w3.org/2000/svg" xmlns:xlink="http://www.w3.org/1999/xlink" x="0px"
	 y="0px" width="103px" height="98px" viewBox="0 0 103 98" enable-background="new 0 0 103 98" xml:space="preserve">
<g>
	<path fill="#F7EC00" d="M53.619,4.666c-24.301,0-44,19.7-44,44c0,24.301,19.699,44.001,44,44.001c24.3,0,44-19.7,44-44.001
		C97.619,24.366,77.919,4.666,53.619,4.666z M53.619,88.267c-21.87,0-39.6-17.73-39.6-39.601s17.729-39.6,39.6-39.6
		s39.6,17.729,39.6,39.6S75.489,88.267,53.619,88.267z"/>
	<path fill="#A1FFD2" d="M53.619,13.467c-19.44,0-35.2,15.76-35.2,35.2c0,19.439,15.76,35.199,35.2,35.199s35.2-15.76,35.2-35.199
		C88.819,29.227,73.06,13.467,53.619,13.467z M53.619,79.467c-17.01,0-30.801-13.79-30.801-30.801c0-17.01,13.791-30.8,30.801-30.8
		c17.011,0,30.8,13.79,30.8,30.8C84.419,65.677,70.63,79.467,53.619,79.467z"/>
	<path fill="#F7EC00" d="M53.619,22.267c-14.581,0-26.4,11.82-26.4,26.4c0,14.581,11.819,26.4,26.4,26.4
		c14.58,0,26.4-11.819,26.4-26.4C80.02,34.086,68.199,22.267,53.619,22.267z M53.619,70.667c-12.15,0-22-9.851-22-22s9.85-22,22-22
		s22,9.85,22,22S65.77,70.667,53.619,70.667z"/>
	<path fill="#97FFCD" d="M53.619,31.066c-9.72,0-17.601,7.88-17.601,17.6c0,9.721,7.881,17.601,17.601,17.601
		c9.719,0,17.6-7.88,17.6-17.601C71.219,38.946,63.338,31.066,53.619,31.066z M53.619,61.866c-7.291,0-13.201-5.91-13.201-13.2
		s5.91-13.199,13.201-13.199c7.289,0,13.199,5.909,13.199,13.199S60.908,61.866,53.619,61.866z"/>
	<circle fill="#F7EC00" cx="53.619" cy="48.667" r="8.8"/>
</g>
</svg>
