<svg xmlns="http://www.w3.org/2000/svg" width="271.532" height="338" viewBox="0 0 271.532 338"><g><path fill="#980C27" d="M130.489 163.036c-10.105.882-16.572 3.483-19.48 7.923-2.872 4.172-4.976 9.417-6.315 15.846-1.341 6.125-2.373 11.637-3.14 16.573-2.296 10.795.843 19.52 9.455 26.064h.036c7.58 5.819 16.843 8.344 27.712 7.58 11.33-.768 19.596-4.938 24.729-12.401 6.045-8.612 6.008-19.903-.271-33.911-1.646-3.752-3.751-7.732-6.237-11.942-3.444-5.854-6.124-10.028-8.037-12.555-2.032-3.023-8.154-4.057-18.452-3.177m.306 3.293c8.575-.729 13.743-.116 15.502 1.874 1.878 2.488 4.441 6.544 7.848 12.25 2.409 4.056 4.438 7.92 6.085 11.634 5.627 12.631 5.815 22.85.497 30.66-4.631 6.622-12.018 10.295-22.199 10.945-9.989.726-18.485-1.569-25.491-6.852-7.501-5.779-10.257-13.319-8.266-22.773l.037-.113c.728-4.899 1.761-10.337 3.102-16.461 1.225-5.93 3.213-10.832 5.815-14.658 2.603-3.599 8.306-5.741 17.07-6.506"/><path fill="#D56F45" d="M146.297 168.203c-1.759-1.989-6.927-2.603-15.502-1.874-8.764.765-14.466 2.907-17.068 6.506-2.602 3.826-4.595 8.727-5.817 14.658-1.341 6.125-2.374 11.561-3.102 16.461l-.037.111c-1.992 9.456.765 16.996 8.266 22.775 7.003 5.282 15.502 7.577 25.491 6.852 10.182-.65 17.568-4.327 22.199-10.947 5.318-7.809 5.129-18.027-.497-30.658-1.646-3.714-3.676-7.578-6.085-11.634-3.407-5.706-5.973-9.762-7.848-12.25"/><path fill="#980C27" d="M140.71 215.589l-.191-1.416 14.886-4.173 7.006 34.143 6.047 1.337c10.987 2.527 19.212 6.509 24.728 12.059 6.466 6.392 7.998 11.904 4.554 16.535h.037c-2.908 4.479-9.223 6.391-18.907 5.662-4.21-.306-8.995-1.568-14.354-3.825-3.636-1.494-7.577-3.521-11.824-5.971-.041-.076-.155-.231-.27-.269l-.536-.537c-.076-.076-.192-.151-.306-.189-.037-.115-.153-.23-.153-.346-.382-.497-.688-1.149-.997-1.874-.608-1.572-1.146-3.14-1.684-4.783-.112-.349-.188-.654-.267-.959-.958-3.023-1.724-6.087-2.297-9.263-1.072-6.085-2.145-12.249-3.099-18.335-.883-5.931-1.685-11.825-2.373-17.796m20.478 31.92c-.461-.037-.879-.076-1.265-.113l-6.966-33.3-8.842 2.524c.69 5.437 1.417 10.872 2.221 16.229.956 6.124 1.992 12.209 3.063 18.296.955 5.053 2.37 9.914 4.324 14.661l.076.306.036.075c3.791 2.643 7.732 4.862 11.867 6.697 1.799.729 3.56 1.379 5.245 1.915 2.947.919 5.624 1.455 8.151 1.646 8.113.649 13.433-.804 15.962-4.249 2.104-3.406.727-7.501-4.176-12.322-5.512-5.399-13.776-9.227-24.877-11.599l-2.717-.344c-.686-.156-1.415-.306-2.102-.422"/><path fill="#D72C1B" d="M159.923 247.396c.385.037.804.076 1.265.113.688.116 1.416.267 2.104.423l2.718.344c11.1 2.372 19.364 6.199 24.876 11.599 4.9 4.821 6.279 8.916 4.176 12.322-2.529 3.445-7.849 4.898-15.962 4.249-2.527-.191-5.204-.728-8.151-1.646-1.686-.536-3.446-1.187-5.244-1.915-4.136-1.835-8.077-4.056-11.868-6.697l-.036-.076-.076-.307c-1.954-4.745-3.369-9.606-4.327-14.659-1.068-6.087-2.104-12.172-3.06-18.296-.805-5.356-1.531-10.792-2.221-16.229l8.841-2.524 6.965 33.299z"/><path fill="#980C27" d="M135.045 217.004c-.268.229-.5.537-.574.92l-9.339 34.676-.038.076-1.647 6.05c-.421.916-.996 1.876-1.682 2.83-3.177 4.518-7.655 8.229-13.358 11.1-5.664 2.794-10.947 3.94-15.807 3.406h-.04c-4.363-.496-7.158-2.296-8.307-5.435-1.071-3.37-.151-7.159 2.795-11.367h-.041c3.181-4.593 7.658-8.229 13.322-11.1 5.129-2.526 9.914-3.676 14.43-3.522l1.342.04 8.84-32.497c.114-.497.078-.917-.152-1.301-.078-.113-.154-.228-.27-.345-.191-.231-.459-.382-.766-.419-.461-.154-.881-.078-1.261.152-.423.229-.651.57-.806.995l-8.189 30.006c-4.557.038-9.417 1.341-14.623 3.865-6.274 3.141-11.138 7.158-14.621 12.174-3.675 5.319-4.784 10.103-3.177 14.426 1.455 4.44 5.168 7.006 11.14 7.657 5.435.65 11.33-.611 17.645-3.711 6.314-3.099 11.214-7.197 14.658-12.213.767-1.107 1.456-2.181 1.991-3.216l.077-.228c1.147-2.334 1.759-4.554 1.839-6.659l9.261-34.562c.113-.458.076-.879-.155-1.262-.075-.193-.227-.347-.382-.461-.191-.152-.381-.306-.648-.343-.463-.115-.844-.077-1.266.19l-.191.078"/><path fill="#D72C1B" d="M134.471 217.922c.074-.381.307-.687.574-.92l.19-.074c.422-.267.803-.306 1.266-.19.268.037.457.19.648.343-.038-.688-.191-1.339-.458-1.991-.882-2.18-2.566-3.635-4.9-4.285-1.916-.574-3.943-.766-6.048-.65-.152.076-.342.113-.534.152l-.69.229c.115.116.191.229.27.345.23.383.267.805.152 1.303l-8.84 32.495-1.342-.04c-4.516-.153-9.301.997-14.43 3.522-5.664 2.87-10.143 6.507-13.322 11.1h.041c-2.946 4.209-3.864 7.997-2.795 11.367 1.148 3.139 3.943 4.938 8.307 5.435h.04c4.859.536 10.143-.612 15.807-3.406 5.703-2.87 10.182-6.582 13.358-11.1.686-.957 1.261-1.913 1.682-2.832l1.647-6.048.038-.076 9.339-34.679zM181.09 83.846c-.881-.65-1.763-1.263-2.68-1.875-1.877-1.225-3.788-2.373-5.74-3.444-1.607-.843-3.177-1.569-4.825-2.259-2.18-.881-4.359-1.761-6.581-2.602-2.183-.843-4.479-1.531-6.777-2.106l-.304-.076c2.258-4.247 3.06-8.688 2.411-13.282-.881-6.084-3.902-10.908-9.032-14.506-5.129-3.636-10.946-4.975-17.377-4.057-6.394.918-11.56 3.827-15.466 8.764-1.452 1.801-2.562 3.676-3.328 5.629l-.649-.768c-1.073-1.071-2.259-2.064-3.599-2.908-1.685-1.07-3.406-1.953-5.168-2.641-2.104-.805-4.247-1.303-6.544-1.416-1.953-.115-3.905-.077-5.741.269-1.916.268-3.751.765-5.511 1.53-2.068.766-3.982 1.876-5.705 3.252-1.528 1.188-2.833 2.527-4.018 4.02-1.379 1.762-2.526 3.675-3.292 5.818-.766 1.99-1.225 4.133-1.301 6.315-.115 1.913.037 3.79.422 5.702.458 2.182 1.186 4.173 2.258 6.125.383.842 1.223 1.912 2.448 3.291-1.454.881-2.907 1.761-4.324 2.681-1.417.88-2.832 1.835-4.211 2.831-2.027 1.454-4.02 2.986-5.972 4.67-1.529 1.34-2.983 2.68-4.363 4.057-1.569 1.608-3.023 3.254-4.44 4.976-1.302 1.569-2.562 3.254-3.711 4.976-1.071 1.606-2.106 3.331-2.986 5.053s-1.607 3.444-2.221 5.241c-.726 2.145-1.262 4.367-1.606 6.624-.385 2.22-.574 4.479-.574 6.773 0 2.336.189 4.633.611 6.929.422 2.297.996 4.517 1.762 6.698.765 2.105 1.724 4.211 2.871 6.162 1.148 2.028 2.489 3.866 3.982 5.627 1.491 1.875 3.212 3.597 5.011 5.244 1.531 1.377 3.063 2.679 4.786 3.862 1.76 1.229 3.56 2.453 5.471 3.484 1.993 1.148 4.058 2.221 6.204 3.218 2.144.994 4.323 1.873 6.504 2.717 2.184.841 4.481 1.568 6.773 2.218 2.3.652 4.633 1.15 6.968 1.61 2.449.459 4.861.84 7.232 1.109 2.489.269 4.979.458 7.465.574 1.914.074 3.826.153 5.739.037 1.917-.037 3.909-.114 5.86-.19 1.99-.152 3.979-.306 6.007-.535 2.03-.229 4.059-.536 6.086-.881 1.992-.307 3.981-.651 5.971-1.072 1.953-.384 3.866-.842 5.782-1.341 1.834-.458 3.711-.956 5.548-1.605 2.372-.768 4.785-1.608 7.082-2.49 2.296-.918 4.517-1.913 6.736-2.984 2.143-1.108 4.249-2.259 6.312-3.443 2.03-1.225 4.022-2.489 5.973-3.867 1.912-1.377 3.79-2.832 5.587-4.363 1.8-1.53 3.524-3.1 5.166-4.784 1.53-1.532 3.063-3.177 4.481-4.859l1.451-1.839c.806-1.032 1.571-2.106 2.26-3.215 1.377-2.028 2.604-4.209 3.636-6.429.997-2.105 1.84-4.288 2.451-6.509.613-2.221 1.032-4.479 1.263-6.812.229-2.297.266-4.593.076-6.891-.154-2.372-.534-4.668-1.072-6.965-.537-2.221-1.261-4.403-2.143-6.585-.88-2.066-1.95-4.095-3.218-5.969-1.299-1.99-2.753-3.867-4.322-5.59-1.682-1.875-3.481-3.521-5.436-5.053-.803-.649-1.566-1.261-2.409-1.875"/><path fill="#D56F45" d="M109.86 180.242c-1.194 0-2.406-.048-3.579-.093l-.066-.004c-2.474-.113-4.989-.307-7.475-.573-2.238-.255-4.608-.618-7.251-1.112-2.095-.414-4.563-.928-6.981-1.614-2.604-.736-4.822-1.464-6.793-2.223-1.805-.698-4.176-1.639-6.515-2.724-2.134-.989-4.225-2.074-6.218-3.224-1.938-1.046-3.773-2.298-5.486-3.493-1.847-1.27-3.464-2.672-4.804-3.88-2.119-1.938-3.719-3.611-5.034-5.267-1.615-1.901-2.924-3.751-4-5.65-1.097-1.87-2.069-3.953-2.883-6.191-.752-2.145-1.331-4.346-1.771-6.729-.415-2.258-.613-4.535-.613-6.964 0-2.301.192-4.59.576-6.806.347-2.275.891-4.515 1.614-6.652.62-1.821 1.353-3.545 2.23-5.268.838-1.64 1.846-3.347 2.997-5.072 1.133-1.698 2.387-3.377 3.724-4.991 1.499-1.823 2.956-3.455 4.45-4.986 1.29-1.29 2.72-2.619 4.376-4.068 1.796-1.551 3.753-3.081 5.987-4.682 1.404-1.017 2.826-1.971 4.22-2.838 1.354-.879 2.761-1.733 4.13-2.562-1.283-1.455-1.984-2.408-2.328-3.167-1.062-1.934-1.807-3.954-2.269-6.166-.403-1.988-.542-3.869-.428-5.753.075-2.154.518-4.301 1.313-6.372.717-2.01 1.804-3.93 3.319-5.867 1.267-1.597 2.593-2.922 4.054-4.053 1.774-1.421 3.711-2.525 5.754-3.281 1.717-.746 3.587-1.266 5.551-1.54 1.661-.312 3.536-.401 5.777-.271 2.215.11 4.374.576 6.604 1.428 1.766.691 3.513 1.586 5.199 2.66 1.26.789 2.447 1.75 3.633 2.934l.434.511.021.025c.765-1.856 1.854-3.665 3.239-5.382 3.903-4.937 9.15-7.909 15.587-8.834 6.476-.924 12.384.453 17.515 4.09 5.163 3.623 8.23 8.547 9.11 14.635.646 4.551-.137 8.986-2.321 13.19l.025.005c2.54.627 4.827 1.339 6.846 2.118 2.28.862 4.566 1.788 6.585 2.603 1.726.723 3.308 1.464 4.841 2.267 1.94 1.065 3.877 2.228 5.758 3.454 1.021.682 1.875 1.278 2.688 1.882.841.61 1.591 1.214 2.417 1.88 2.056 1.613 3.841 3.273 5.457 5.074 1.578 1.729 3.037 3.619 4.341 5.612 1.217 1.8 2.306 3.818 3.231 5.998.931 2.295 1.634 4.457 2.154 6.614.579 2.479.933 4.769 1.079 6.997.182 2.237.158 4.567-.081 6.922-.229 2.354-.644 4.593-1.267 6.846-.584 2.116-1.411 4.316-2.465 6.539-1.051 2.268-2.281 4.439-3.649 6.454-.643 1.038-1.385 2.096-2.265 3.226-.255.312-.495.621-.736.929-.236.305-.474.607-.719.911-1.333 1.587-2.845 3.228-4.493 4.875-1.503 1.541-3.196 3.109-5.177 4.795-1.729 1.475-3.614 2.945-5.602 4.373-1.746 1.234-3.648 2.465-5.984 3.875-2.083 1.196-4.212 2.357-6.327 3.449-2.359 1.142-4.567 2.121-6.751 2.993-2.234.858-4.622 1.693-7.093 2.493-1.863.659-3.775 1.164-5.562 1.611-2.209.574-4.05 1.001-5.79 1.343-1.804.38-3.704.723-5.98 1.073-2.266.385-4.259.672-6.093.882-2.028.229-4.053.386-6.009.533-1.837.074-3.906.155-5.876.194-.645.039-1.336.059-2.102.059zm-16.318-133.81c-1.413 0-2.662.106-3.816.324-1.939.27-3.775.781-5.471 1.518-2.016.746-3.915 1.83-5.662 3.227-1.435 1.113-2.737 2.418-3.99 3.988-1.486 1.903-2.553 3.789-3.258 5.764-.783 2.037-1.217 4.142-1.289 6.258-.113 1.854.023 3.704.419 5.658.454 2.172 1.187 4.158 2.236 6.069.347.765 1.072 1.734 2.424 3.257l.152.172-.195.119c-1.428.864-2.903 1.758-4.321 2.677-1.392.864-2.803 1.813-4.201 2.825-2.223 1.596-4.173 3.119-5.96 4.66-1.646 1.443-3.07 2.766-4.354 4.048-1.482 1.523-2.933 3.146-4.428 4.962-1.327 1.604-2.573 3.272-3.698 4.96-1.144 1.713-2.144 3.407-2.977 5.033-.869 1.706-1.592 3.413-2.204 5.218-.72 2.116-1.26 4.333-1.604 6.589-.38 2.199-.57 4.467-.57 6.745 0 2.406.198 4.661.606 6.895.437 2.363 1.009 4.545 1.755 6.669.806 2.214 1.767 4.274 2.854 6.129 1.066 1.881 2.361 3.711 3.965 5.6 1.304 1.643 2.892 3.303 4.994 5.227 1.328 1.196 2.936 2.591 4.767 3.848 1.705 1.189 3.529 2.437 5.453 3.473 1.989 1.146 4.069 2.227 6.19 3.211 2.33 1.08 4.696 2.018 6.495 2.713 1.957.756 4.167 1.479 6.758 2.213 2.406.683 4.864 1.194 6.95 1.604 2.631.493 4.993.855 7.219 1.11 2.479.265 4.985.458 7.451.569l.064.005c1.169.044 2.378.092 3.563.092.756 0 1.441-.018 2.093-.057 1.97-.04 4.04-.121 5.86-.192 1.954-.15 3.974-.306 5.996-.533 1.822-.208 3.813-.496 6.074-.88 2.272-.349 4.164-.69 5.962-1.069 1.737-.342 3.572-.766 5.772-1.34 1.782-.444 3.683-.946 5.534-1.602 2.471-.796 4.85-1.633 7.076-2.487 2.174-.868 4.372-1.844 6.722-2.979 2.104-1.089 4.228-2.246 6.302-3.437 2.324-1.404 4.219-2.629 5.957-3.857 1.976-1.422 3.854-2.886 5.573-4.353 1.974-1.678 3.659-3.237 5.154-4.771 1.641-1.644 3.143-3.273 4.471-4.851l.712-.9c.243-.312.486-.623.739-.934.867-1.116 1.604-2.164 2.242-3.195 1.361-2.004 2.58-4.158 3.626-6.409 1.042-2.204 1.864-4.383 2.439-6.479.617-2.231 1.026-4.448 1.256-6.78.235-2.333.263-4.64.077-6.855-.144-2.213-.493-4.482-1.067-6.938-.517-2.138-1.216-4.282-2.134-6.557-.918-2.153-1.992-4.15-3.197-5.933-1.294-1.979-2.741-3.852-4.307-5.568-1.602-1.785-3.369-3.43-5.409-5.03-.826-.665-1.574-1.265-2.408-1.87-.812-.602-1.658-1.196-2.672-1.873-1.871-1.221-3.8-2.376-5.728-3.436-1.519-.795-3.093-1.531-4.809-2.25-2.012-.812-4.297-1.736-6.574-2.598-2.003-.774-4.275-1.48-6.754-2.099l-.176-.048-.082-.024h-.32l.15-.282c2.229-4.192 3.033-8.621 2.393-13.164-.866-5.979-3.881-10.815-8.954-14.377-5.05-3.577-10.856-4.936-17.24-4.022-6.337.909-11.499 3.835-15.341 8.694-1.437 1.777-2.547 3.653-3.304 5.578l-.114.298-.435-.511-.424-.501c-1.155-1.151-2.32-2.093-3.555-2.869-1.666-1.061-3.394-1.944-5.135-2.626-2.189-.835-4.308-1.294-6.484-1.402-.65-.042-1.283-.061-1.874-.061z"/><path fill="#980C27" d="M109.86 181.564c-1.24 0-2.482-.051-3.697-.101-2.509-.116-5.051-.311-7.564-.58-2.271-.258-4.674-.625-7.352-1.128-2.137-.419-4.637-.941-7.101-1.639-2.63-.743-4.89-1.485-6.904-2.263-1.822-.704-4.221-1.652-6.6-2.757-2.169-1.009-4.296-2.111-6.319-3.276-1.97-1.065-3.84-2.34-5.584-3.552-1.895-1.308-3.557-2.747-4.929-3.983-2.185-1.996-3.83-3.72-5.188-5.428-1.645-1.942-3.002-3.858-4.114-5.821-1.133-1.933-2.138-4.09-2.976-6.393-.779-2.22-1.376-4.485-1.827-6.94-.428-2.335-.635-4.691-.635-7.201 0-2.375.198-4.741.594-7.031.36-2.342.923-4.656 1.668-6.852.639-1.879 1.393-3.661 2.308-5.445.856-1.682 1.891-3.433 3.071-5.202 1.159-1.74 2.442-3.457 3.806-5.103 1.514-1.842 2.995-3.5 4.521-5.067 1.334-1.332 2.785-2.681 4.452-4.139 1.836-1.584 3.824-3.139 6.086-4.76 1.442-1.042 2.887-2.016 4.292-2.887 1.326-.862 2.714-1.703 4.1-2.545l.239-.145c.711-.432 1.645-.205 2.077.508.432.715.204 1.645-.509 2.077l-.239.146c-1.361.824-2.721 1.65-4.049 2.512-1.367.852-2.755 1.783-4.145 2.789-2.193 1.57-4.111 3.07-5.869 4.587-1.607 1.406-3.01 2.712-4.282 3.983-1.454 1.49-2.88 3.087-4.34 4.865-1.304 1.57-2.521 3.202-3.625 4.855-1.114 1.671-2.089 3.32-2.896 4.9-.846 1.652-1.542 3.303-2.134 5.044-.691 2.027-1.212 4.167-1.548 6.361-.37 2.15-.554 4.344-.554 6.547 0 2.326.19 4.501.585 6.654.422 2.298.979 4.414 1.7 6.472.768 2.115 1.695 4.105 2.748 5.896 1.03 1.818 2.278 3.584 3.832 5.414 1.285 1.616 2.828 3.229 4.88 5.107 1.291 1.161 2.858 2.521 4.621 3.734 1.681 1.168 3.468 2.393 5.336 3.398 1.981 1.145 4.03 2.204 6.118 3.173 2.299 1.067 4.638 1.993 6.415 2.681 1.929.745 4.1 1.456 6.64 2.174 2.359.669 4.784 1.173 6.846 1.578 2.595.487 4.926.844 7.113 1.094 2.443.262 4.926.452 7.363.564 1.834.074 3.736.15 5.582.039 1.964-.041 3.943-.118 5.888-.192l.064-.007c1.905-.146 3.873-.296 5.831-.521 1.792-.201 3.754-.485 6.007-.867 2.269-.351 4.141-.685 5.91-1.06 1.762-.348 3.569-.766 5.709-1.326 1.765-.44 3.634-.934 5.431-1.566 2.493-.81 4.85-1.638 7.04-2.476 2.107-.843 4.28-1.806 6.62-2.938 2.063-1.066 4.17-2.217 6.222-3.392 2.276-1.378 4.146-2.584 5.852-3.791 1.942-1.399 3.79-2.841 5.479-4.279 1.945-1.657 3.602-3.19 5.064-4.688 1.613-1.616 3.093-3.22 4.404-4.779l.682-.86c.249-.318.497-.637.757-.956.802-1.028 1.529-2.067 2.146-3.06 1.345-1.979 2.526-4.072 3.549-6.271 1.011-2.139 1.805-4.244 2.365-6.271.593-2.161.992-4.31 1.214-6.56.227-2.261.253-4.486.075-6.615-.139-2.154-.48-4.353-1.042-6.745-.488-2.044-1.165-4.127-2.068-6.365-.875-2.05-1.91-3.976-3.065-5.689-1.269-1.935-2.672-3.751-4.193-5.414-1.555-1.735-3.27-3.33-5.249-4.882-.786-.639-1.546-1.246-2.368-1.844-.813-.602-1.67-1.202-2.629-1.841-1.822-1.19-3.72-2.329-5.626-3.376-1.456-.763-2.993-1.482-4.681-2.189-2.153-.869-4.324-1.745-6.536-2.582-1.937-.748-4.122-1.43-6.504-2.028-.144-.021-.262-.058-.349-.087-.688-.143-1.205-.752-1.205-1.481 0-.835.677-1.511 1.513-1.511.269 0 .481.06.618.108l.056.013c2.54.635 4.88 1.361 6.952 2.16 2.253.855 4.466 1.748 6.604 2.61 1.786.749 3.402 1.506 4.959 2.322 2 1.099 3.965 2.277 5.867 3.518 1.008.675 1.902 1.302 2.747 1.925.872.634 1.665 1.27 2.467 1.918 2.102 1.647 3.941 3.359 5.607 5.219 1.617 1.772 3.124 3.718 4.469 5.77 1.249 1.856 2.375 3.949 3.338 6.202.969 2.406 1.695 4.63 2.223 6.826.599 2.567.962 4.926 1.112 7.22.188 2.287.161 4.698-.082 7.139-.234 2.389-.679 4.766-1.311 7.065-.604 2.192-1.461 4.463-2.54 6.75-1.088 2.336-2.352 4.572-3.753 6.635-.64 1.03-1.43 2.156-2.314 3.292-.268.33-.504.634-.74.937-.24.309-.483.616-.733.926-1.385 1.646-2.921 3.313-4.584 4.977-1.518 1.553-3.24 3.148-5.255 4.867-1.753 1.491-3.664 2.984-5.687 4.438-1.777 1.255-3.705 2.503-6.072 3.935-2.119 1.215-4.261 2.385-6.402 3.492-2.442 1.179-4.676 2.17-6.869 3.045-2.262.868-4.669 1.716-7.177 2.524-1.875.663-3.825 1.179-5.649 1.634-2.187.571-4.05 1.003-5.854 1.359-1.804.382-3.727.728-6.031 1.082-2.285.387-4.304.678-6.146.888-2.014.229-4.012.384-5.943.531l-.12.009c-2.021.08-4.021.156-5.942.195-.707.046-1.419.064-2.135.064zM74.991 84.133c-.415 0-.831-.17-1.129-.507-1.494-1.679-2.273-2.742-2.697-3.669-1.08-1.961-1.869-4.1-2.36-6.44-.423-2.108-.571-4.101-.452-6.103.08-2.27.551-4.559 1.4-6.768.756-2.115 1.908-4.158 3.509-6.209 1.343-1.687 2.743-3.084 4.286-4.282 1.871-1.497 3.93-2.671 6.107-3.476 1.757-.768 3.743-1.318 5.825-1.609 1.704-.322 3.7-.418 6.038-.281 2.343.117 4.636.611 6.994 1.513 1.857.728 3.686 1.661 5.441 2.78 1.03.648 2.019 1.404 2.994 2.292.707-1.347 1.578-2.659 2.596-3.919 4.11-5.201 9.641-8.34 16.426-9.312 6.83-.977 13.046.478 18.465 4.321 5.47 3.834 8.721 9.059 9.654 15.521.695 4.911-.169 9.69-2.573 14.208-.391.736-1.308 1.019-2.042.625-.739-.392-1.018-1.308-.627-2.044 2.096-3.941 2.853-8.101 2.249-12.36-.822-5.681-3.571-10.091-8.403-13.479-4.772-3.386-10.256-4.662-16.297-3.799-5.988.86-10.865 3.621-14.488 8.206-1.359 1.682-2.403 3.441-3.109 5.242-.195.495-.636.852-1.161.938-.521.089-1.057-.108-1.4-.514l-.608-.718c-1.08-1.072-2.157-1.941-3.293-2.655-1.598-1.018-3.246-1.861-4.911-2.513-2.044-.781-4.036-1.213-6.07-1.314-2.097-.123-3.854-.042-5.387.244-1.904.269-3.579.732-5.187 1.432-1.946.724-3.727 1.738-5.361 3.047-1.369 1.061-2.599 2.293-3.781 3.779-1.393 1.781-2.393 3.547-3.049 5.387-.742 1.93-1.147 3.889-1.215 5.861-.105 1.774.023 3.512.395 5.35.426 2.031 1.113 3.898 2.099 5.695.415.898 1.482 2.145 2.255 3.014.555.623.498 1.58-.126 2.135-.291.256-.648.381-1.007.381z"/><path fill="#fff" d="M155.138 58.508c-.804-5.742-3.634-10.333-8.496-13.741-4.822-3.481-10.295-4.745-16.341-3.903-6.05.88-10.911 3.637-14.585 8.344-1.876 2.335-3.178 4.822-3.865 7.502-.309-.459-.614-.879-.959-1.339l-1.068-1.187c-1.034-1.035-2.184-1.99-3.447-2.794-1.529-.996-3.177-1.8-4.859-2.488-1.991-.766-4.058-1.226-6.203-1.378-1.836-.077-3.633 0-5.436.306-1.836.268-3.558.729-5.241 1.418-1.952.765-3.752 1.798-5.397 3.098-1.416 1.111-2.679 2.413-3.828 3.83-1.263 1.645-2.334 3.481-3.099 5.473-.728 1.913-1.148 3.902-1.225 6.009-.076 1.761.076 3.598.421 5.396.421 2.028 1.11 3.942 2.104 5.818.459.842.994 1.682 1.568 2.41.612.768 1.303 1.493 2.029 2.182 1.493 1.34 3.177 2.449 5.014 3.332 1.801.917 3.712 1.529 5.664 1.95 2.069.422 4.174.537 6.242.461 2.219-.116 4.323-.423 6.35-1.112 1.956-.689 3.791-1.645 5.476-2.871 1.417-1.033 2.719-2.295 3.867-3.672 1.145-1.416 2.104-2.91 2.906-4.556.385-.919.768-1.876 1.11-2.833.155-.459.27-.994.422-1.49 1.378 2.218 3.254 4.246 5.665 5.893 4.821 3.445 10.295 4.746 16.344 3.865 6.045-.879 10.948-3.635 14.582-8.306 3.712-4.67 5.127-9.875 4.285-15.617"/><path fill="#332C2A" d="M85.554 65.09c1.53-2.639 3.792-4.361 6.701-5.127 2.983-.804 5.739-.422 8.418 1.072 2.643 1.529 4.364 3.749 5.129 6.699.804 2.946.421 5.701-1.108 8.341-1.534 2.643-3.714 4.364-6.699 5.129-2.91.804-5.702.423-8.345-1.069-2.639-1.531-4.324-3.752-5.129-6.699s-.458-5.665 1.033-8.346M136.577 57.283c-2.184-2.104-4.824-3.1-7.846-3.062-3.063.114-5.628 1.225-7.734 3.444-2.105 2.182-3.138 4.786-3.062 7.846.115 3.024 1.225 5.55 3.406 7.693 2.258 2.106 4.822 3.1 7.886 3.062 3.023-.076 5.55-1.225 7.694-3.444 2.104-2.183 3.099-4.822 3.062-7.847-.078-3.02-1.186-5.586-3.406-7.692M144.268 118.561c-7.576 1.647-15.233 3.102-22.963 4.248-7.77 1.148-15.656 1.952-23.693 2.451-7.999.498-16.571.114-25.644-1.225l-10.832-2.182c7.579 21.128 22.274 32.687 44.245 34.678 6.394.61 13.129.304 20.132-.88l.155-.04c7.078-.841 13.587-2.413 19.595-4.825 20.518-8.111 31.386-23.345 32.649-45.735l-9.761 5.167c-8.344 3.826-16.265 6.583-23.883 8.343"/><path fill="#332C2A" d="M120.424 121.088v.075l.268-.114-.268.039z"/><path fill="#E68B00" d="M136.461 90.009c-.993-5.704-3.713-10.182-8.306-13.587-4.556-3.33-9.567-4.556-15.119-3.676-5.51.957-9.877 3.713-13.166 8.383-3.214 4.67-4.363 9.799-3.444 15.464.957 5.663 3.674 10.181 8.268 13.511 4.554 3.406 9.568 4.631 15.08 3.674 5.55-.882 9.913-3.636 13.167-8.307 3.253-4.668 4.439-9.797 3.52-15.462"/><path fill="#980C27" d="M147.981 182.442l.19-.039c14.239-1.53 27.943-3.599 41.07-6.239l1.225-.267c.077.919.268 1.839.459 2.719l-1.035.188c-13.242 2.681-27.058 4.786-41.451 6.317-.38.035-.726-.039-1.03-.269-.27-.268-.461-.574-.5-.919 0-.382.078-.689.31-1.033.073-.115.226-.192.343-.267.114-.076.266-.153.419-.191M143.084 174.367h-.192c-.309 0-.574-.114-.843-.269-.307-.23-.498-.573-.498-.919-.037-.421.039-.727.306-1.033.192-.27.496-.458.881-.458 16.765-1.993 32.879-4.364 48.381-7.236-.27.957-.459 1.915-.613 2.911-15.08 2.756-30.772 5.09-47.039 6.964-.155.04-.271.04-.383.04"/><path fill="#980C27" d="M195.825 176.355c.459 1.419 1.225 2.603 2.297 3.637 3.099 3.215 6.965 4.9 11.558 5.052h.115v-.038h.077l.307.038.152-.038v.038h.078c.036.116.112.27.227.383.115.229.231.423.308.65.152.268.307.499.463.688 1.337 2.069 2.713 3.792 4.245 5.093h.039c1.607 1.377 3.673 1.99 6.276 1.912.458-.075.726-.19.879-.535.269-.191.424-.575.424-1.069 0-1.913-.424-3.753-1.189-5.59-.227-.461-.459-.92-.652-1.301-.378-.767-.763-1.492-1.22-2.22.379.267.801.495 1.184.728.346.229.727.419 1.075.688l.379.15c2.453 1.762 4.747 2.258 6.931 1.569 1.797-.65 2.677-1.683 2.641-2.984 0-.19 0-.343.036-.498-.306-.881-.84-1.646-1.646-2.41-.42-.499-.879-.92-1.455-1.304-1.76-1.184-3.633-2.257-5.549-3.177-1.188-.573-2.376-1.071-3.596-1.565.267 0 .571.037.801.074 2.027.232 4.056.232 6.125.114.535-.038 1.071-.114 1.567-.228 1.609-.155 2.833-.501 3.638-1.034.114-.115.23-.269.307-.421.269-.614.308-1.263.076-1.835-.152-.501-.459-.957-.88-1.343v-.036c-.421-.422-.92-.766-1.454-1.034v-.038c-1.687-.843-3.443-1.571-5.205-2.105h-.038c-1.381-.422-2.796-.805-4.25-1.035 0 0-.459-.153-1.34-.346-.882-.229-2.065-.42-3.601-.611-1.489-.15-3.097-.344-4.818-.46 0-.074 0-.074.077-.114.113-.036.226-.076.343-.076l1.838-.574c.879-.19 1.914-.533 3.023-1.11 1.226-.611 2.031-1.069 2.372-1.415.306-.345.498-.881.611-1.568-.037-3.023-1.566-4.555-4.669-4.632h-.037c-3.288.115-6.047.88-8.191 2.336-2.066 1.148-3.751 2.908-5.053 5.242l-.535.882c-.115.151-.229.307-.421.419-.843.728-1.604 1.492-2.372 2.259-.117.153-.27.192-.383.269-1.071.345-2.104.649-3.179.765-1.337.269-2.678.498-4.057.768.155-.996.347-1.954.61-2.911 1.227-.228 2.453-.421 3.678-.651l1.605-.343.884-.958c.19-.114.342-.306.533-.497.574-.461 1.076-1.032 1.531-1.645.229-.346.498-.652.689-.995 1.415-1.8 2.946-3.292 4.593-4.44 2.183-1.569 5.587-2.643 10.143-3.216v-.039c4.977.115 7.425 2.604 7.348 7.464v.117c-.115 1.261-.571 2.371-1.415 3.29 1.8.228 3.558.652 5.32 1.226 1.913.574 3.79 1.34 5.628 2.257v.038c.802.346 1.531.918 2.142 1.608.69.65 1.188 1.418 1.494 2.299v.037c.457 1.299.381 2.524-.078 3.788-.306.688-.689 1.224-1.263 1.608-.764.572-1.875 1.071-3.289 1.338 2.37 1.457 3.862 3.177 4.437 5.245v.037c.115.269.156.537.193.803 0 .193 0 .422-.078.614.078 2.449-1.416 4.21-4.516 5.358-1.914.651-3.827.651-5.818-.038.535 1.606.803 2.908.803 3.902 0 2.451-1.183 3.714-3.56 3.829-3.405.154-6.164-.688-8.229-2.563-1.875-1.608-3.559-3.673-5.09-6.202-4.859-.306-9.032-2.183-12.402-5.588-.954-.956-1.759-2.027-2.446-3.178-.154-.305-.306-.572-.424-.879l-2.602.537c-.191-.881-.383-1.8-.459-2.72l4.977-.958c.116.461.266.919.382 1.416m14.429 8.805h-.075.075z"/><path fill="#D72C1B" d="M227.134 174.443c.535-.04 1.071-.116 1.567-.229 1.609-.154 2.833-.501 3.638-1.034.114-.114.23-.269.307-.421.269-.612.308-1.263.076-1.835-.152-.501-.459-.96-.88-1.341v-.04c-.421-.42-.918-.764-1.454-1.032v-.038c-1.687-.843-3.443-1.57-5.207-2.105h-.036c-1.381-.422-2.796-.806-4.25-1.034 0 0-.459-.154-1.342-.347-.88-.229-2.063-.42-3.595-.609-1.493-.155-3.101-.346-4.82-.462 0-.074 0-.074.075-.114.114-.036.226-.076.345-.076l1.836-.572c.879-.192 1.914-.537 3.023-1.11 1.226-.614 2.029-1.07 2.372-1.418.306-.344.498-.88.614-1.566-.04-3.024-1.569-4.556-4.67-4.633h-.039c-3.291.115-6.047.88-8.19 2.334-2.067 1.15-3.752 2.91-5.054 5.244l-.535.882c-.115.151-.229.306-.421.419-.843.728-1.605 1.492-2.372 2.258-.113.154-.27.193-.383.27-1.072.345-2.107.65-3.176.765-1.342.27-2.681.498-4.06.768-15.078 2.756-30.771 5.09-47.038 6.964-.154.04-.27.04-.382.04h-.193c.076.306.113.649.27.957.571 1.569 1.337 3.062 2.257 4.401.728.955 1.416 1.989 2.145 2.909.114-.078.267-.154.42-.192l.193-.039c14.236-1.53 27.94-3.596 41.067-6.238l1.225-.268 4.977-.957c.115.46.266.92.384 1.415.457 1.419 1.223 2.604 2.295 3.637 3.099 3.215 6.965 4.898 11.558 5.052h.115v-.038h.076l.308.038.152-.038v.038h.078c.036.117.112.267.227.383.115.229.231.423.308.65.152.268.307.498.46.688 1.341 2.069 2.716 3.792 4.248 5.093h.035c1.611 1.379 3.677 1.989 6.28 1.914.458-.077.726-.193.882-.535.266-.193.421-.577.421-1.071 0-1.915-.421-3.753-1.189-5.591l-.649-1.3c-.381-.767-.766-1.492-1.223-2.22.379.267.801.497 1.184.728.346.229.727.419 1.072.688l.385.15c2.448 1.762 4.742 2.258 6.928 1.569 1.797-.65 2.677-1.683 2.641-2.984 0-.19 0-.344.036-.498-.306-.881-.84-1.646-1.646-2.408-.42-.499-.879-.92-1.455-1.303-1.762-1.187-3.633-2.26-5.549-3.18-1.185-.57-2.373-1.071-3.596-1.565.265 0 .571.037.801.074 2.027.23 4.053.23 6.123.113M117.325 184.698l.114-.189c1.032-1.571 1.724-3.329 2.065-5.242.269-1.455.231-2.871-.078-4.212-.074.039-.151.076-.229.076-.152 0-.346.038-.497.076-15.651 1.723-30.85 2.872-45.624 3.601l-8.803.269c-.307-.231-.574-.499-.919-.729-.307-.268-.613-.535-.996-.728-.763-.497-1.567-.804-2.448-.958l-2.489-2.181c-1.261-.995-2.564-1.722-3.864-2.142-2.067-.652-3.829-1.034-5.242-1.074-1.302-.037-2.031-.073-2.185-.073-.379.113-.763.188-1.224.305h-.036c-2.871.765-4.021 2.563-3.369 5.357l.076.114c.041.115.076.231.151.307.461.843 1.15 1.303 2.146 1.493 1.187.23 2.372.192 3.558-.074 1.035-.231 1.99-.424 2.987-.538l-.461.23c-1.223.651-2.373 1.416-3.405 2.295l-1.302 1.034-1.109.688c-.152.078-.307.153-.461.191-2.257 1.11-4.592 1.646-7.117 1.607-2.261-.037-4.06.114-5.361.496-.956.271-1.606.768-1.991 1.532h-.037c-.268.805-.268 1.684 0 2.68.384 1.11 1.072 2.106 2.028 2.986.614.499 1.265.804 2.032.842v-.037h.037c.385-.767.957-1.338 1.685-1.801.574-.418 1.225-.725 1.914-.918.306-.114.648-.19.994-.228.804-.077 1.529-.077 2.259-.114v.037c-1.034.268-1.99.765-2.794 1.492-1.035.921-1.533 1.989-1.608 3.254 0 .498.038.994.152 1.492.193.765.726 1.377 1.493 1.76.996.574 1.99.728 3.139.612l.154-.346c.111-.228.227-.457.381-.686.192-.612.612-1.189 1.148-1.687.766-.688 1.646-1.187 2.565-1.529 1.071-.345 2.18-.499 3.328-.384.879.039 1.762.231 2.529.536l.955.383c-.649-.038-1.339 0-2.104.039-.959.115-1.878.307-2.719.573-1.111.345-2.066.92-2.755 1.799-.806.879-1.072 1.952-.921 3.102.423 1.453 1.572 2.372 3.523 2.68 2.716.343 5.586-.154 8.61-1.456 2.985-1.262 5.168-3.33 6.508-6.2.113-.152.192-.307.343-.46.154-.114.306-.191.537-.269.151-.037.343-.115.498-.19 2.37-.918 4.094-2.486 5.128-4.859l.957-2.068 7.425-.153c12.783-.381 25.913-1.377 39.424-3.025.266 0 .458 0 .688.079.076.037.231.114.346.228.078.076.194.155.271.305"/><path fill="#980C27" d="M117.554 185.275c-.038-.192-.117-.422-.229-.577-.077-.15-.194-.227-.27-.304-.114-.115-.27-.192-.346-.229-.229-.079-.422-.079-.688-.079-13.511 1.648-26.641 2.645-39.424 3.025l-7.425.152-.957 2.069c-1.034 2.371-2.758 3.941-5.131 4.857-.152.078-.344.155-.495.192-.231.077-.383.154-.537.27-.15.152-.228.307-.343.459-1.34 2.87-3.522 4.937-6.508 6.202-3.024 1.3-5.895 1.797-8.61 1.454-1.954-.308-3.101-1.226-3.523-2.68-.153-1.149.115-2.223.921-3.102.688-.879 1.644-1.454 2.753-1.799.843-.27 1.762-.458 2.721-.573.765-.038 1.454-.077 2.104-.038l-.955-.386c-.768-.303-1.65-.495-2.529-.533-1.148-.116-2.258.038-3.328.383-.919.343-1.8.841-2.565 1.529-.536.499-.956 1.074-1.148 1.685-.154.23-.27.46-.381.686l-.154.349c-1.148.114-2.144-.039-3.141-.613-.763-.381-1.3-.995-1.491-1.76-.114-.498-.152-.997-.152-1.492.076-1.265.573-2.336 1.608-3.254.804-.728 1.76-1.225 2.794-1.492v-.037c-.729.037-1.457.037-2.259.114-.346.037-.688.111-.995.228-.688.191-1.339.497-1.913.918-.728.463-1.3 1.034-1.685 1.801h-.04v.038c-.764-.038-1.415-.345-2.029-.843-.956-.879-1.643-1.875-2.028-2.984-.268-.997-.268-1.876 0-2.681h.037c.385-.765 1.035-1.262 1.991-1.532 1.302-.382 3.101-.533 5.36-.496 2.526.039 4.861-.497 7.118-1.607.154-.037.309-.113.461-.191l1.109-.688 1.302-1.034c1.032-.881 2.183-1.644 3.405-2.295l.462-.23c-.998.114-1.953.306-2.988.538-1.186.267-2.371.302-3.558.074-.996-.192-1.686-.65-2.146-1.493-.075-.076-.113-.191-.151-.307l-.076-.114c-.651-2.795.498-4.593 3.369-5.357h.037c.461-.116.845-.191 1.224-.305l2.185.076c1.413.037 3.175.421 5.242 1.07 1.3.421 2.604 1.149 3.864 2.143l2.489 2.181c.881.155 1.686.461 2.448.959.383.191.689.459.996.727.345.229.612.499.919.728l8.803-.27c14.776-.726 29.973-1.875 45.624-3.595.151-.041.345-.079.497-.079.077 0 .154-.037.229-.076.27-.076.5-.229.689-.421.231-.267.308-.649.271-1.032-.039-.383-.231-.69-.537-.881-.266-.268-.614-.383-.997-.268-16.226 1.8-31.96 2.984-47.268 3.673l-6.621.192c-.497-.611-1.148-1.034-1.838-1.38-1.874-.88-3.599-2.066-5.13-3.52-1.184-.804-2.335-1.339-3.56-1.724-2.411-.803-4.399-1.185-6.084-1.223-1.722-.038-2.642-.038-2.793.038h-.04c-.38.038-.802.114-1.263.269h-.039c-4.707 1.188-6.505 4.132-5.397 8.802l.039.115c.421 1.264 1.188 2.259 2.297 2.984-1.453.499-2.985.767-4.554.767-2.641-.076-4.708.153-6.165.573-1.835.574-3.06 1.53-3.75 2.985v.038c-.649 1.38-.728 2.986-.152 4.71v.037c.537 1.608 1.494 2.984 2.795 4.211h.038c1.069.916 2.297 1.454 3.674 1.567.115 1.074.768 2.337 1.763 3.83.075.074.152.15.266.229 1.146 1.07 2.947 1.607 5.358 1.492.688 2.487 2.641 3.941 5.78 4.399 3.175.422 6.542-.075 10.067-1.606 3.481-1.492 6.047-3.826 7.691-7.042.42-.192.881-.383 1.264-.536 1.453-.69 2.642-1.646 3.676-2.832.956-1.031 1.607-2.221 2.104-3.483l6.158-.19c12.708-.423 25.765-1.417 39.159-3.025.381-.039.687-.229.955-.497.192-.307.346-.652.27-1.033"/><path fill="#009844" d="M54.437 169.697"/><path fill="#D72C1B" d="M180.896 153.391l-3.558.689c-37.013 9.951-75.172 13.664-114.481 11.022 2.64 1.877 5.515 3.562 8.613 5.092 7.846 3.865 16.571 6.392 26.14 7.693 9.952 1.34 20.133 1.187 30.545-.422 5.091-.805 9.991-1.875 14.773-3.29 4.287-1.379 8.651-2.911 13.091-4.593 4.403-1.725 8.804-4.021 13.205-7.044 4.403-3.024 8.307-6.007 11.672-9.147"/><path fill="#D72C1B" d="M126.896 163.382c-2.721.801-4.75 1.604-6.128 2.373-1.031.535-1.989 1.225-2.794 2.104-.843.921-1.722 1.876-2.64 2.986-.537.651-.993 1.225-1.302 1.608-.115.152-.192.266-.306.382-2.602 3.826-4.593 8.727-5.817 14.658-1.341 6.124-2.374 11.561-3.102 16.461l-.037.111c-1.992 9.456.765 16.996 8.266 22.775 7.003 5.282 15.502 7.577 25.491 6.852 10.182-.65 17.568-4.327 22.199-10.947 5.318-7.809 5.129-18.027-.497-30.658-1.646-3.714-3.676-7.578-6.085-11.634-2.641-4.48-4.821-7.962-6.544-10.413-.232-.574-.691-1.34-1.304-2.296-.993-1.339-1.568-2.106-1.682-2.297-.384-.575-.728-.955-.961-1.226-.458-.418-1.146-.803-1.988-.995-2.371-.533-7.271-.533-14.769.156m-1.573 1.797h-.306l.268-.115.038.115z"/></g></svg>