<?xml version="1.0" encoding="utf-8"?>
<!-- Generator: Adobe Illustrator 16.2.1, SVG Export Plug-In . SVG Version: 6.00 Build 0)  -->
<!DOCTYPE svg PUBLIC "-//W3C//DTD SVG 1.1//EN" "http://www.w3.org/Graphics/SVG/1.1/DTD/svg11.dtd">
<svg version="1.1" xmlns="http://www.w3.org/2000/svg" xmlns:xlink="http://www.w3.org/1999/xlink" x="0px" y="0px" width="165px"
	 height="229.544px" viewBox="0 0 165 229.544" enable-background="new 0 0 165 229.544" xml:space="preserve">
<g id="base">
</g>
<g id="book3">
</g>
<g id="_x38_" display="none">
</g>
<g id="_x37_" display="none">
</g>
<g id="_x36_" display="none">
</g>
<g id="_x35_" display="none">
</g>
<g id="_x34_" display="none">
</g>
<g id="_x33_" display="none">
</g>
<g id="_x32_" display="none">
</g>
<g id="_x31_" display="none">
</g>
<g id="_x30_">
	<path fill="#D72C1C" d="M87.094,212.065c-1.107-4.9-1.583-9.854-1.447-14.855c0.136-5.123,0.34-10.262,0.613-15.384
		c0.255-4.92,0.611-9.854,1.055-14.788l10.158-0.699l0.238,26.701c9.649-1.072,17.426-0.137,23.331,2.809
		c5.906,2.943,8.305,6.347,7.182,10.21c-1.106,3.862-5.259,6.67-12.44,8.44c-6.074,1.498-14.497,0.969-25.236-1.566
		C89.425,212.661,88.268,212.372,87.094,212.065"/>
	<path fill="none" stroke="#9C0C27" stroke-width="2.723" stroke-miterlimit="10" d="M87.094,212.065
		c1.174,0.307,2.331,0.596,3.453,0.867c10.739,2.535,19.162,3.064,25.236,1.566c7.182-1.771,11.334-4.578,12.44-8.44
		c1.123-3.863-1.275-7.267-7.182-10.211c-5.905-2.944-13.682-3.88-23.331-2.808l-0.238-26.701l-10.158,0.699
		c-0.443,4.935-0.8,9.868-1.055,14.788c-0.273,5.122-0.478,10.261-0.613,15.384C85.511,202.212,85.986,207.165,87.094,212.065z"/>
	<path fill="#9C0C27" d="M87.002,127.542c-8.372-0.018-13.903,1.701-16.592,5.122c-2.672,3.217-4.799,7.401-6.382,12.575
		c-1.531,4.951-2.79,9.427-3.76,13.41c-2.673,8.729-0.698,16.115,5.922,22.155l0.018,0.017c5.836,5.311,13.255,8.05,22.257,8.203
		c9.394,0.17,16.474-2.638,21.221-8.422c5.633-6.656,6.382-15.964,2.247-27.927c-1.106-3.217-2.535-6.655-4.288-10.278
		c-2.399-5.054-4.307-8.695-5.701-10.908C100.497,128.869,95.528,127.56,87.002,127.542"/>
	<path fill="#D72C1C" d="M68.18,216.166c-1.106-4.899-1.583-9.853-1.447-14.854c0.136-5.123,0.341-10.262,0.613-15.385
		c0.255-4.916,0.612-9.853,1.055-14.787l10.159-0.699l0.238,26.701c9.649-1.071,17.426-0.136,23.331,2.809
		c5.904,2.943,8.304,6.347,7.181,10.209c-1.107,3.863-5.258,6.671-12.439,8.441c-6.074,1.498-14.498,0.97-25.236-1.565
		C70.511,216.763,69.354,216.474,68.18,216.166"/>
	<path fill="none" stroke="#9C0C27" stroke-width="2.723" stroke-miterlimit="10" d="M68.18,216.166
		c1.175,0.308,2.331,0.597,3.454,0.869c10.738,2.535,19.162,3.063,25.236,1.565c7.182-1.771,11.332-4.578,12.439-8.441
		c1.123-3.862-1.276-7.266-7.181-10.209c-5.905-2.944-13.682-3.88-23.331-2.809L78.56,170.44L68.4,171.14
		c-0.442,4.935-0.8,9.871-1.055,14.787c-0.272,5.123-0.478,10.262-0.613,15.385C66.597,206.313,67.073,211.267,68.18,216.166z"/>
	<path fill="#D72C1C" d="M133.789,55.045c-0.772-0.592-1.559-1.167-2.362-1.737c-1.658-1.154-3.358-2.218-5.103-3.224
		c-1.375-0.778-2.776-1.483-4.239-2.13c-1.931-0.848-3.873-1.661-5.834-2.471c-1.96-0.811-3.973-1.478-6.039-2.035
		c-0.089-0.024-0.16-0.049-0.249-0.073c2.1-3.772,2.913-7.718,2.423-11.849c-0.647-5.447-3.239-9.842-7.762-13.205
		c-4.52-3.36-9.673-4.697-15.457-4.01c-5.75,0.684-10.446,3.191-14.07,7.521c-1.317,1.577-2.354,3.221-3.088,4.949
		c-0.199-0.231-0.396-0.448-0.593-0.663c-0.94-1.001-1.988-1.902-3.16-2.703c-1.452-0.991-2.97-1.819-4.552-2.47
		c-1.855-0.789-3.793-1.258-5.832-1.443c-1.744-0.135-3.467-0.102-5.168,0.118c-1.701,0.219-3.364,0.622-4.95,1.237
		c-1.868,0.686-3.603,1.625-5.188,2.824c-1.365,1.034-2.597,2.189-3.688,3.5c-1.286,1.555-2.314,3.268-3.084,5.137
		c-0.745,1.783-1.188,3.664-1.312,5.646c-0.121,1.707-0.022,3.406,0.283,5.114c0.352,1.942,0.98,3.782,1.856,5.542
		c0.382,0.759,1.098,1.752,2.151,2.994c-1.329,0.757-2.642,1.512-3.95,2.3c-1.291,0.786-2.563,1.604-3.812,2.454
		c-1.87,1.248-3.678,2.592-5.436,4.05c-1.421,1.144-2.751,2.328-4.024,3.558c-1.429,1.365-2.778,2.81-4.07,4.313
		c-1.22,1.394-2.379,2.866-3.444,4.394c-1.027,1.439-1.962,2.92-2.806,4.457c-0.812,1.514-1.501,3.051-2.067,4.622
		c-0.711,1.933-1.244,3.911-1.622,5.923c-0.38,1.978-0.601,4.004-0.649,6.047c-0.056,2.109,0.069,4.181,0.398,6.228
		c0.331,2.063,0.811,4.076,1.454,6.035c0.622,1.928,1.441,3.797,2.426,5.596c0.985,1.813,2.129,3.525,3.398,5.138
		c1.33,1.688,2.803,3.293,4.401,4.795c1.33,1.262,2.719,2.446,4.202,3.554c1.558,1.164,3.158,2.258,4.835,3.272
		c1.752,1.074,3.581,2.07,5.452,2.995c1.924,0.933,3.856,1.8,5.799,2.595c1.958,0.793,3.956,1.496,5.999,2.125
		c2.057,0.61,4.139,1.149,6.244,1.6c2.156,0.445,4.306,0.822,6.447,1.15c2.207,0.301,4.439,0.514,6.665,0.677
		c1.707,0.122,3.426,0.192,5.118,0.179c1.759-0.021,3.516-0.061,5.274-0.079c1.787-0.075,3.569-0.187,5.363-0.348
		c1.844-0.168,3.667-0.367,5.501-0.619c1.786-0.229,3.581-0.513,5.373-0.845c1.74-0.326,3.478-0.672,5.192-1.062
		c1.681-0.389,3.355-0.827,5.025-1.317c2.163-0.649,4.285-1.347,6.382-2.127c2.067-0.74,4.104-1.582,6.097-2.519
		c1.964-0.899,3.864-1.881,5.739-2.94c1.845-1.023,3.662-2.129,5.438-3.313c1.755-1.201,3.453-2.464,5.091-3.787
		c1.639-1.323,3.218-2.709,4.739-4.155c1.426-1.384,2.812-2.813,4.125-4.287c0.452-0.515,0.902-1.047,1.335-1.578
		c0.728-0.924,1.437-1.863,2.108-2.834c1.271-1.81,2.397-3.705,3.38-5.67c0.94-1.873,1.716-3.828,2.332-5.832
		c0.606-1.955,1.036-3.957,1.286-6.021c0.268-2.067,0.348-4.128,0.237-6.202c-0.099-2.126-0.38-4.197-0.812-6.248
		c-0.428-2.019-1.023-4-1.782-5.928c-0.74-1.913-1.658-3.736-2.736-5.473c-1.138-1.797-2.4-3.493-3.769-5.075
		c-1.466-1.69-3.053-3.229-4.741-4.653C135.205,56.176,134.504,55.593,133.789,55.045"/>
	
		<path fill="none" stroke="#9C0C27" stroke-width="2.717" stroke-linecap="round" stroke-linejoin="round" stroke-miterlimit="10" d="
		M109.963,43.375c0.089,0.022,0.16,0.049,0.249,0.073c2.066,0.558,4.079,1.225,6.039,2.035c1.961,0.81,3.903,1.621,5.834,2.471
		c1.463,0.646,2.864,1.352,4.239,2.129c1.743,1.007,3.443,2.07,5.103,3.225c0.804,0.57,1.59,1.146,2.362,1.737
		c0.715,0.548,1.416,1.131,2.12,1.714c1.688,1.424,3.275,2.963,4.742,4.653c1.368,1.582,2.63,3.278,3.768,5.075
		c1.078,1.736,1.996,3.56,2.736,5.472c0.759,1.929,1.354,3.91,1.782,5.929c0.432,2.051,0.714,4.122,0.812,6.248
		c0.109,2.073,0.03,4.135-0.237,6.202c-0.25,2.063-0.68,4.065-1.286,6.019c-0.617,2.006-1.392,3.961-2.332,5.834
		c-0.982,1.965-2.108,3.86-3.38,5.67c-0.672,0.971-1.381,1.91-2.108,2.834c-0.433,0.531-0.883,1.063-1.335,1.578
		c-1.313,1.474-2.699,2.903-4.125,4.287c-1.521,1.446-3.101,2.832-4.739,4.155s-3.336,2.586-5.09,3.787
		c-1.776,1.185-3.594,2.29-5.438,3.313c-1.875,1.06-3.775,2.039-5.739,2.94c-1.992,0.937-4.029,1.778-6.097,2.519
		c-2.097,0.78-4.219,1.478-6.382,2.129c-1.67,0.488-3.345,0.927-5.026,1.315c-1.714,0.39-3.451,0.735-5.191,1.062
		c-1.792,0.332-3.587,0.615-5.373,0.845c-1.834,0.252-3.657,0.451-5.501,0.619c-1.794,0.161-3.576,0.272-5.363,0.348
		c-1.759,0.019-3.516,0.058-5.274,0.079c-1.692,0.014-3.411-0.057-5.118-0.179c-2.226-0.163-4.458-0.376-6.665-0.679
		c-2.142-0.326-4.291-0.703-6.447-1.148c-2.105-0.45-4.188-0.989-6.244-1.602c-2.043-0.627-4.041-1.332-5.999-2.125
		c-1.942-0.793-3.875-1.66-5.799-2.593c-1.871-0.925-3.699-1.921-5.452-2.995c-1.677-1.015-3.277-2.108-4.835-3.272
		c-1.483-1.107-2.872-2.292-4.202-3.556c-1.599-1.502-3.071-3.104-4.401-4.793c-1.27-1.612-2.413-3.324-3.398-5.138
		c-0.983-1.799-1.804-3.668-2.426-5.596c-0.644-1.959-1.123-3.972-1.454-6.035c-0.329-2.047-0.454-4.118-0.398-6.229
		c0.049-2.041,0.27-4.067,0.649-6.045c0.378-2.012,0.911-3.99,1.622-5.923c0.566-1.571,1.256-3.108,2.067-4.622
		c0.844-1.537,1.778-3.018,2.806-4.457c1.065-1.527,2.225-3,3.444-4.394c1.292-1.504,2.642-2.948,4.07-4.313
		c1.273-1.229,2.604-2.414,4.024-3.559c1.758-1.457,3.565-2.801,5.436-4.049c1.249-0.85,2.521-1.668,3.812-2.454
		c1.309-0.788,2.621-1.543,3.95-2.3"/>
	<path fill="none" stroke="#9C0C27" stroke-width="2.717" stroke-miterlimit="10" d="M38.772,51.616
		c-1.054-1.243-1.77-2.234-2.151-2.994c-0.876-1.76-1.505-3.6-1.856-5.543c-0.305-1.708-0.404-3.406-0.283-5.113
		c0.124-1.981,0.567-3.863,1.312-5.646c0.77-1.87,1.798-3.582,3.084-5.14c1.092-1.309,2.323-2.463,3.688-3.498
		c1.585-1.198,3.319-2.139,5.188-2.823c1.586-0.616,3.249-1.019,4.95-1.238c1.701-0.219,3.424-0.254,5.168-0.118
		c2.039,0.186,3.977,0.655,5.832,1.444c1.582,0.649,3.1,1.478,4.552,2.468c1.172,0.803,2.22,1.703,3.16,2.703
		c0.196,0.217,0.394,0.434,0.593,0.665c0.734-1.729,1.771-3.374,3.088-4.951c3.624-4.329,8.32-6.837,14.07-7.521
		c5.784-0.688,10.938,0.65,15.457,4.011c4.522,3.362,7.114,7.756,7.762,13.204c0.49,4.131-0.323,8.076-2.423,11.848"/>
	<path fill="#FFFFFF" d="M111.1,31.781c-0.613-5.16-3.062-9.333-7.32-12.521c-4.265-3.205-9.118-4.474-14.565-3.826
		c-5.429,0.646-9.851,3.018-13.261,7.135c-1.72,2.068-2.911,4.279-3.607,6.62c-0.252-0.398-0.521-0.794-0.825-1.185
		c-0.301-0.375-0.619-0.748-0.95-1.102c-0.885-0.955-1.893-1.811-2.992-2.569c-1.376-0.931-2.818-1.7-4.312-2.325
		c-1.749-0.75-3.6-1.215-5.518-1.381c-1.641-0.13-3.277-0.088-4.894,0.121s-3.179,0.6-4.701,1.176
		c-1.769,0.653-3.407,1.549-4.915,2.668c-1.287,0.976-2.454,2.09-3.487,3.323c-1.211,1.462-2.182,3.081-2.911,4.861
		c-0.704,1.692-1.127,3.469-1.245,5.347c-0.118,1.604-0.027,3.219,0.268,4.842c0.339,1.842,0.923,3.586,1.752,5.248
		c0.402,0.791,0.849,1.523,1.356,2.198c0.529,0.707,1.121,1.372,1.758,1.979c1.346,1.244,2.819,2.283,4.409,3.137
		c1.621,0.834,3.319,1.452,5.061,1.859c1.844,0.397,3.71,0.569,5.587,0.535c1.963-0.029,3.863-0.307,5.697-0.85
		c1.778-0.57,3.427-1.382,4.943-2.436c1.31-0.924,2.498-2.006,3.551-3.226c1.068-1.222,1.969-2.56,2.705-3.998
		c0.397-0.817,0.762-1.647,1.054-2.503c0.151-0.445,0.285-0.906,0.403-1.348c1.218,2.045,2.869,3.849,4.954,5.414
		c4.276,3.185,9.132,4.455,14.562,3.81c5.447-0.647,9.866-3.021,13.263-7.118C110.313,41.571,111.712,36.941,111.1,31.781"/>
	
		<path fill="none" stroke="#231815" stroke-width="2.886" stroke-linecap="round" stroke-linejoin="round" stroke-miterlimit="10" d="
		M47.985,42.919c5.28-7.332,11.423-8.771,18.444-4.283"/>
	
		<path fill="none" stroke="#231815" stroke-width="2.886" stroke-linecap="round" stroke-linejoin="round" stroke-miterlimit="10" d="
		M96.755,36.726c-6.854-5.889-13.162-5.848-18.935,0.163"/>
	<path fill="#332C2A" d="M100.045,85.347c-6.832,1.359-13.745,2.473-20.707,3.334c-6.963,0.846-14.027,1.411-21.228,1.688
		c-7.202,0.274-14.861-0.287-22.961-1.666l-9.667-2.203c6.302,19.072,19.254,29.76,38.865,32.029
		c5.742,0.686,11.783,0.565,18.089-0.339c0.05-0.005,0.086-0.009,0.118-0.013c6.343-0.602,12.24-1.9,17.662-3.913
		c18.533-6.806,28.619-20.231,30.275-40.25l-8.883,4.409C114.06,81.663,106.877,83.971,100.045,85.347"/>
	<path fill="#332C2A" d="M78.623,87.124l0.004,0.034c0.116-0.031,0.184-0.056,0.198-0.058L78.623,87.124z"/>
	<path fill="#E68C00" d="M93.672,59.554c-0.725-5.095-3.094-9.191-7.108-12.324c-4.011-3.097-8.499-4.307-13.463-3.632
		c-4.961,0.709-8.952,3.099-11.972,7.203c-3,4.103-4.148,8.687-3.456,13.786c0.726,5.095,3.094,9.191,7.104,12.289
		c4.016,3.131,8.504,4.342,13.464,3.633c4.964-0.676,8.956-3.066,11.974-7.17S94.398,64.649,93.672,59.554"/>
	<path fill="#D72C1C" d="M78.782,129.058c-0.901,0.389-1.719,0.899-2.433,1.549c-0.766,0.68-1.566,1.427-2.399,2.261
		c-0.494,0.493-0.902,0.92-1.191,1.261c-0.085,0.085-0.17,0.17-0.255,0.271c-2.45,2.978-4.408,6.858-5.871,11.64
		c-1.531,4.935-2.775,9.377-3.744,13.325c-0.017,0.016-0.017,0.05-0.017,0.084c-2.332,7.623-0.613,14.074,5.155,19.35
		c5.378,4.85,12.202,7.35,20.489,7.503c8.423,0.154,14.789-2.33,19.076-7.437c4.918-6.04,5.514-14.479,1.77-25.303
		c-1.071-3.132-2.468-6.468-4.17-9.99c-1.854-3.863-3.385-6.892-4.61-9.053c-0.153-0.494-0.46-1.14-0.919-1.939
		c-0.732-1.191-1.141-1.872-1.226-2.059c-0.289-0.478-0.529-0.834-0.715-1.056c-0.322-0.407-0.852-0.731-1.548-0.953
		c-1.891-0.631-5.939-0.952-12.185-0.936C81.71,128.035,79.974,128.528,78.782,129.058 M82.305,128.919l0.273-0.083v0.083H82.305z"
		/>
	<path fill="#9C0C27" d="M142.385,148.254v-0.019c-0.035-3.336-1.753-6.245-5.157-8.711h0.018c-2.74-2.026-6.483-3.662-11.232-4.885
		c-4.101-1.072-8.542-1.736-13.289-1.99c-2.536-0.154-4.902-0.154-7.08-0.037c-0.493,0.189-1.106,0.394-1.803,0.632
		c-1.72,0.491-2.791,0.817-3.25,0.952c0.067,0.119,0.136,0.24,0.221,0.373c0.153,0.257,0.271,0.496,0.374,0.733
		c0,0.017,0,0.017,0.017,0.017c0.051,0.154,0.103,0.324,0.153,0.477c0.018-0.018,0.05-0.018,0.085-0.018
		c3.166-0.508,6.875-0.646,11.13-0.407c4.561,0.256,8.814,0.886,12.763,1.905c4.339,1.123,7.776,2.604,10.295,4.442
		c2.587,1.89,3.932,4.084,4.033,6.585c0.051,3.797-1.701,6.824-5.258,9.122c-2.213,1.412-4.97,2.468-8.289,3.198
		c-0.355,0.085-0.646,0.273-0.851,0.597c-0.101,0.152-0.169,0.304-0.186,0.46c-0.051,0.187-0.051,0.375,0,0.561
		c0.051,0.222,0.136,0.425,0.271,0.578c0.085,0.103,0.205,0.205,0.324,0.289c0.322,0.188,0.662,0.257,1.021,0.17
		c3.676-0.799,6.739-1.973,9.19-3.555h-0.019C140.343,156.849,142.504,153.035,142.385,148.254"/>
	<path fill="#D72C1C" d="M135.628,141.719c-2.519-1.838-5.956-3.319-10.295-4.44c-3.948-1.021-8.202-1.651-12.763-1.908
		c-4.255-0.237-7.963-0.101-11.13,0.41c-0.034,0-0.067,0-0.084,0.016c-0.052-0.153-0.104-0.323-0.154-0.475l-0.102,0.033
		c0.017-0.017,0.051-0.033,0.085-0.052c-0.103-0.237-0.221-0.478-0.374-0.731c-0.715,0.272-1.43,0.731-2.161,1.362
		c-2.586,2.211-3.88,5.326-3.88,9.324c0,0.019,0.086,0.681,0.238,2.024c0.237,1.582,0.562,3.045,0.952,4.392
		c1.276,4.235,3.148,6.364,5.6,6.364c2.245,0,4.815-0.834,7.725-2.485c1.515-0.867,2.604-1.429,3.233-1.701
		c1.243-0.528,2.434-0.782,3.591-0.782c1.685,0,2.928,0.51,3.728,1.531c0.526,0.646,0.97,1.768,1.327,3.352
		c0.392,1.685,0.748,2.791,1.088,3.336c0.631,1.021,1.635,1.533,3.047,1.533h0.051c-0.136-0.155-0.221-0.358-0.271-0.58
		c-0.051-0.187-0.051-0.375,0-0.562c0.017-0.153,0.085-0.308,0.186-0.459c0.205-0.324,0.495-0.512,0.852-0.597
		c3.318-0.731,6.075-1.786,8.288-3.198c3.557-2.298,5.309-5.326,5.258-9.122C139.56,145.803,138.215,143.608,135.628,141.719"/>
	<path fill="#D72C1C" d="M71.438,145.974c0.597-1.583,0.886-2.383,0.886-2.4c0-1.379-0.731-2.416-2.179-3.078
		c-0.492-0.224-0.952-0.342-1.378-0.359c-0.051,0.119-0.085,0.255-0.136,0.408c-0.051,0.154-0.085,0.289-0.136,0.408
		c-0.069,0.222-0.12,0.41-0.17,0.562c-6.434,0.833-11.964,2.604-16.593,5.292h-0.017c-4.713,2.74-7.078,5.752-7.113,9.053
		c0.12,3.318,2.127,6.109,6.022,8.373c4.545,2.638,10.587,3.966,18.107,3.966c0.154,0,0.29,0.017,0.426,0.067
		c0.188,0.051,0.375,0.17,0.544,0.34c0.171,0.17,0.29,0.357,0.341,0.578c0.357-0.374,0.681-0.969,0.987-1.805
		c0.407-1.513,0.612-2.279,0.612-2.33c0-0.816-0.103-1.599-0.323-2.365c-0.272-0.92-0.68-1.666-1.208-2.263
		c-0.527-0.801-1.702-1.549-3.558-2.264c-0.731-0.289-1.326-0.459-1.751-0.528c-0.018,0.137-0.069,0.274-0.138,0.409
		c-0.102,0.221-0.238,0.392-0.424,0.511c-0.103,0.084-0.223,0.136-0.341,0.188c-0.359,0.118-0.715,0.084-1.056-0.07
		c-1.923-0.936-3.386-1.649-4.39-2.176c-0.272-0.24-0.596-0.513-0.955-0.802c-1.58-1.327-2.5-2.093-2.755-2.315
		c-0.562-0.713-1.072-1.342-1.531-1.887l-0.019-0.018c0-0.018,0-0.018,0.019-0.034c0.118-0.153,0.271-0.272,0.459-0.358
		c0.799,0.647,1.6,0.97,2.365,0.97h0.188c0.084,0.053,0.187,0.12,0.271,0.172c0-0.017,0-0.017,0.018-0.017
		c1.072-0.92,2.655-1.875,4.748-2.877h-0.018c2.025-0.987,4.033-1.771,6.024-2.349c0.357-0.119,0.697-0.086,1.021,0.101
		c0.103,0.053,0.188,0.123,0.273,0.207c0.187,0.152,0.306,0.356,0.391,0.611c0.034,0.12,0.051,0.255,0.051,0.391
		C69.942,148.066,70.742,147.284,71.438,145.974"/>
	<path fill="#9C0C27" d="M68.172,139.183c-1.004,0-1.752-0.018-2.264-0.066c-5.955,0.985-11.146,2.772-15.553,5.342
		c-5.82,3.388-8.646,7.216-8.475,11.453c0.034,4.254,2.484,7.812,7.368,10.668c4.9,2.895,11.402,4.341,19.484,4.341
		c0.375,0,0.698-0.136,0.97-0.392c0.256-0.272,0.393-0.595,0.393-0.97c0-0.135-0.018-0.256-0.052-0.375
		c-0.051-0.221-0.17-0.407-0.341-0.578c-0.169-0.17-0.356-0.289-0.544-0.34c-0.136-0.051-0.271-0.067-0.426-0.067
		c-7.521,0-13.562-1.328-18.106-3.966c-3.896-2.264-5.903-5.055-6.023-8.372c0.035-3.302,2.4-6.313,7.113-9.054h0.017
		c4.629-2.688,10.159-4.459,16.593-5.292c0.051-0.152,0.101-0.341,0.17-0.561c0.051-0.121,0.086-0.256,0.136-0.41
		c0.051-0.153,0.085-0.289,0.136-0.408c0.222-0.63,0.323-0.936,0.323-0.953H68.172z"/>
	<path fill="#9C0C27" d="M61.246,149.325h0.018c-2.093,1.003-3.676,1.956-4.748,2.876c-0.018,0-0.018,0-0.018,0.019
		c-0.085-0.052-0.188-0.121-0.272-0.173h-0.187c-0.766,0-1.566-0.323-2.365-0.969c-0.188,0.085-0.341,0.203-0.459,0.356
		c-0.019,0.018-0.019,0.018-0.019,0.035l0.019,0.017c0.459,0.545,0.968,1.175,1.531,1.889c0.255,0.222,1.175,0.987,2.756,2.313
		c0.358,0.289,0.681,0.563,0.954,0.802c1.003,0.526,2.467,1.241,4.39,2.178c0.341,0.152,0.697,0.187,1.056,0.068
		c0.118-0.052,0.238-0.103,0.341-0.187c0.186-0.121,0.322-0.291,0.424-0.512c0.068-0.136,0.12-0.273,0.138-0.409
		c0.017-0.202,0-0.407-0.069-0.629c-0.119-0.358-0.356-0.631-0.697-0.782c-2.28-1.106-3.914-1.906-4.884-2.416
		c-0.051-0.037-0.103-0.07-0.153-0.086c0.884-0.63,2.025-1.275,3.438-1.941c1.888-0.918,3.743-1.649,5.598-2.194
		c0.357-0.119,0.613-0.34,0.799-0.662c0.12-0.205,0.171-0.409,0.171-0.631c0-0.137-0.017-0.272-0.051-0.392
		c-0.085-0.256-0.204-0.459-0.391-0.612c-0.085-0.084-0.171-0.153-0.273-0.205c-0.323-0.188-0.663-0.222-1.021-0.103
		C65.279,147.554,63.271,148.338,61.246,149.325"/>
	<path fill="#9C0C27" d="M91.525,143.012h0.018c-1.345-1.175-3.132-1.651-5.327-1.464c-1.565,0.119-2.858,0.51-3.88,1.174
		c-0.493-0.46-1.021-0.816-1.582-1.055l-0.018-0.018c-1.583-0.714-3.199-0.834-4.867-0.356h0.017
		c-1.548,0.424-2.756,1.276-3.641,2.534c-0.357-0.101-0.714-0.17-1.107-0.187c-1.275-0.119-2.671,0.324-4.151,1.327
		c-1.411,0.919-2.621,2.179-3.641,3.795c-0.494,0.768-0.92,1.548-1.261,2.35c-0.544,1.547-0.816,2.738-0.816,3.606
		c0,0.442,0,0.868,0.018,1.276h1.905c0.018-0.102,0.052-0.205,0.086-0.291c0.152-0.729,0.477-1.683,0.936-2.875
		c0.255-0.678,0.442-1.174,0.596-1.479c0.271-0.562,0.596-1.056,0.952-1.465c0.154-0.169,0.306-0.339,0.46-0.492
		c0.663-0.885,1.43-1.6,2.264-2.161h0.017c0.886-0.596,1.702-0.884,2.468-0.867c0.664,0.051,1.209,0.338,1.616,0.9h0.018
		c0.442,0.598,0.732,1.38,0.851,2.314c0.103,0.92,0.034,1.787-0.221,2.604c-0.205,0.629-0.494,1.054-0.868,1.31v0.018
		c-0.154,0.066-0.289,0.136-0.426,0.188c-0.357,0.357-0.833,0.528-1.464,0.528c-0.833,0-1.463-0.393-1.854-1.192
		c-0.153-0.17-0.272-0.357-0.374-0.562c-0.152-0.321-0.238-0.834-0.256-1.498c-0.119-0.017-0.237-0.034-0.356-0.017
		c-0.018,0.017-0.018,0.033-0.034,0.051c-0.358,0.919-0.528,1.702-0.528,2.35c0,0.697,0.29,1.428,0.852,2.213
		c0.187,0.151,0.374,0.289,0.596,0.424h4.952c0.05-0.034,0.119-0.067,0.17-0.086h-0.018c0.646-0.306,1.175-0.815,1.6-1.514v0.034
		c0.308-0.767,0.478-1.293,0.494-1.548c0.119,0.018,0.255,0.05,0.391,0.118c0.085,0.085,0.188,0.17,0.307,0.256
		c0.63,0.459,1.634,0.696,2.995,0.696c0.136,0,0.306-0.033,0.511-0.084c0.885-0.018,1.77-0.272,2.638-0.766
		c-0.393,0.358-0.732,0.766-1.056,1.19v0.034c-0.102,0.153-0.187,0.306-0.254,0.459c-0.053,0.086-0.12,0.188-0.171,0.289
		c-0.17,0.326-0.308,0.629-0.426,0.92h2.195c0.018-0.017,0.034-0.034,0.05-0.049c0.035-0.053,0.07-0.086,0.086-0.104
		c0.545-0.511,1.327-1.07,2.332-1.667c0.323-0.204,0.766-0.341,1.328-0.409c0.458-0.153,0.917-0.221,1.395-0.221
		c0.868,0,1.565,0.306,2.076,0.901c0.322,0.442,0.527,0.955,0.596,1.549h2.739c-0.051-1.258-0.459-2.349-1.208-3.252
		c-0.153-0.203-0.323-0.39-0.511-0.56c1.447-0.918,2.161-2.364,2.145-4.321v-0.019C93.856,145.887,93.074,144.286,91.525,143.012
		 M89.789,145.104c0.902,0.731,1.346,1.649,1.362,2.773c0.018,0.97-0.341,1.668-1.038,2.109h-0.017
		c-0.663,0.358-1.413,0.478-2.281,0.34c-1.038-0.151-1.889-0.646-2.569-1.445c-0.085-0.085-0.171-0.171-0.255-0.237
		c-0.067-0.647-0.238-1.362-0.493-2.127c-0.188-0.563-0.393-1.071-0.614-1.532c0.682-0.408,1.532-0.646,2.554-0.732
		C87.815,144.135,88.922,144.424,89.789,145.104 M79.597,144.134h0.018c0.986,0.527,1.752,1.617,2.297,3.251
		c0.477,1.431,0.392,2.45-0.238,3.062c-0.119,0.069-0.223,0.138-0.323,0.207l-0.018,0.015c-0.255,0.257-0.527,0.428-0.816,0.512
		c-0.256,0.138-0.511,0.204-0.783,0.204h-0.153c-0.153,0.018-0.306,0.034-0.46,0.034c-0.425,0-0.833-0.138-1.225-0.427
		c-0.459-0.254-0.834-0.595-1.123-1.037c-0.204-0.305-0.357-0.646-0.46-1.004v-0.017l-0.017-0.019
		c-0.017-0.067-0.051-0.135-0.068-0.187c-0.05-0.032-0.119-0.069-0.17-0.084c-0.221-1.209-0.664-2.213-1.293-3.03
		c-0.086-0.119-0.153-0.221-0.238-0.306c0.509-0.696,1.208-1.157,2.093-1.397C77.64,143.622,78.626,143.692,79.597,144.134
		L79.597,144.134z"/>
	<path fill="#9C0C27" d="M68.723,156.098v0.017c1.413,0.799,2.995,0.767,4.748-0.119h-4.952
		C68.587,156.03,68.654,156.062,68.723,156.098"/>
	<path fill="#9C0C27" d="M62.971,156.914c0.051-0.222,0.119-0.526,0.221-0.919h-1.905c0.051,1.412,0.188,2.62,0.408,3.624
		c0.153,0.75,0.579,1.735,1.276,2.979c0.051,0.101,0.119,0.203,0.17,0.289h0.017c0.018-0.019,0.052-0.019,0.068-0.019
		c-0.085-0.34-0.171-0.765-0.238-1.292v-0.118c-0.017-0.121-0.017-0.237-0.017-0.342c-0.017-0.187-0.034-0.356-0.034-0.511v-0.049
		c-0.051-0.802-0.085-1.193-0.085-1.209C62.852,158.188,62.886,157.374,62.971,156.914"/>
	<path fill="#9C0C27" d="M68.501,168.23h-0.204c-0.374-0.017-0.697,0.119-0.97,0.374c-0.273,0.256-0.409,0.579-0.426,0.952
		c-0.018,0.376,0.119,0.698,0.375,0.971c0.254,0.272,0.578,0.41,0.952,0.427c5.53,0.135,11.147-1.209,16.848-4.017
		c2.568-1.276,4.561-2.791,6.006-4.577c1.363-1.686,2.146-3.388,2.333-5.124c0.05-0.424,0.05-0.85,0.033-1.241h-2.739
		c0.033,0.291,0.033,0.612,0,0.937c-0.153,1.258-0.731,2.5-1.736,3.709c-1.243,1.497-2.944,2.774-5.105,3.846v0.017
		c-4.629,2.281-9.189,3.524-13.682,3.711c-0.067,0-0.136,0-0.203,0.017c-0.223,0-0.46,0-0.698,0.019
		C69.028,168.249,68.756,168.249,68.501,168.23"/>
	<path fill="#9C0C27" d="M80.651,155.995c-0.085,0.204-0.136,0.408-0.17,0.596c-0.323,0.816-0.477,1.633-0.477,2.467v0.307
		c0.034,0.188,0.136,0.273,0.289,0.273c0.052,0,0.119-0.068,0.188-0.188c0.018,0.019,0.018,0.035,0.034,0.053
		c0.187-0.461,0.544-1.108,1.056-1.907c0.425-0.681,0.85-1.207,1.275-1.6H80.651z"/>
	<path fill="#D72C1C" d="M89.789,145.104c-0.867-0.682-1.974-0.971-3.352-0.852c-1.021,0.086-1.872,0.326-2.554,0.731
		c0.222,0.461,0.426,0.972,0.614,1.533c0.255,0.765,0.426,1.479,0.493,2.127c0.085,0.065,0.17,0.151,0.255,0.237
		c0.681,0.8,1.531,1.293,2.569,1.447c0.868,0.135,1.618,0.017,2.281-0.341h0.017c0.696-0.442,1.056-1.141,1.038-2.11
		C91.135,146.755,90.691,145.835,89.789,145.104"/>
	<path fill="#D72C1C" d="M79.614,144.134h-0.018c-0.971-0.441-1.957-0.512-2.979-0.223c-0.885,0.24-1.583,0.701-2.093,1.397
		c0.085,0.085,0.151,0.187,0.238,0.306c0.629,0.817,1.072,1.821,1.293,3.03c0.051,0.015,0.12,0.052,0.17,0.084
		c0.018,0.052,0.052,0.119,0.068,0.187l0.017,0.019v0.017c0.103,0.357,0.256,0.699,0.46,1.004c0.289,0.442,0.664,0.783,1.123,1.037
		c0.392,0.289,0.8,0.427,1.225,0.427c0.154,0,0.308-0.017,0.46-0.034h0.153c0.272,0,0.528-0.066,0.783-0.204
		c0.289-0.084,0.562-0.255,0.816-0.512l0.018-0.015c0.102-0.069,0.204-0.138,0.323-0.207c0.629-0.611,0.715-1.631,0.238-3.062
		C81.366,145.751,80.601,144.661,79.614,144.134"/>
	<path fill="#D72C1C" d="M90.113,154.445c-0.511-0.595-1.208-0.899-2.076-0.899c-0.478,0-0.937,0.066-1.395,0.22
		c-0.562,0.069-1.005,0.204-1.328,0.409c-1.005,0.597-1.787,1.158-2.332,1.666c-0.015,0.019-0.051,0.053-0.086,0.104
		c-0.424,0.392-0.867,0.937-1.325,1.649c-0.512,0.8-0.869,1.447-1.056,1.908c-0.017-0.019-0.017-0.037-0.034-0.054
		c-0.068,0.12-0.136,0.187-0.188,0.187c-0.153,0-0.255-0.084-0.289-0.271v-0.306c0-0.834,0.153-1.651,0.477-2.468
		c0.085-0.459,0.288-0.953,0.596-1.515c0.051-0.102,0.118-0.202,0.171-0.289c0.067-0.153,0.152-0.307,0.254-0.459v-0.034
		c0.323-0.425,0.663-0.832,1.056-1.191c-0.868,0.492-1.753,0.748-2.638,0.767c-0.205,0.05-0.375,0.084-0.511,0.084
		c-1.361,0-2.365-0.237-2.995-0.696c-0.119-0.086-0.222-0.172-0.307-0.256c-0.136-0.069-0.271-0.103-0.39-0.119
		c-0.018,0.254-0.188,0.783-0.495,1.547v-0.033c-0.425,0.697-0.953,1.208-1.6,1.515h0.018c-1.839,0.972-3.472,1.038-4.918,0.204
		v-0.018c-0.291-0.151-0.562-0.34-0.8-0.526c-0.562-0.783-0.852-1.515-0.852-2.213c0-0.646,0.17-1.431,0.528-2.349
		c0.017-0.017,0.017-0.034,0.034-0.051c0.119-0.018,0.237,0,0.356,0.017c0.018,0.663,0.104,1.176,0.256,1.497
		c0.102,0.205,0.222,0.393,0.374,0.563c0.392,0.8,1.021,1.189,1.854,1.189c0.631,0,1.106-0.171,1.464-0.526
		c0.137-0.052,0.271-0.12,0.426-0.188v-0.018c0.374-0.255,0.663-0.681,0.868-1.31c0.255-0.816,0.323-1.685,0.221-2.603
		c-0.118-0.937-0.408-1.72-0.851-2.316h-0.018c-0.407-0.562-0.952-0.85-1.616-0.901c-0.766-0.017-1.582,0.272-2.468,0.868h-0.017
		c-0.834,0.562-1.601,1.275-2.264,2.161c-0.154,0.153-0.306,0.323-0.46,0.491c-0.356,0.41-0.681,0.904-0.952,1.466
		c-0.153,0.307-0.341,0.801-0.596,1.481c-0.459,1.19-0.783,2.144-0.936,2.875c-0.153,0.527-0.256,0.936-0.307,1.209
		c-0.085,0.459-0.119,1.274-0.119,2.434c0,0.016,0.034,0.408,0.085,1.208v0.051c0,0.151,0.018,0.321,0.034,0.51
		c0,0.103,0,0.222,0.017,0.343c0.12,0.117,0.255,0.235,0.442,0.373c0.767,0.561,1.175,0.866,1.243,0.952
		c0.392,0.46,0.885,1.175,1.514,2.127c0.29,0.408,0.885,1.261,1.77,2.554c0.205,0.289,0.392,0.543,0.545,0.765
		c0.255,0.019,0.527,0.019,0.783,0.019c0.237-0.019,0.475-0.019,0.698-0.019c0.067-0.017,0.136-0.017,0.203-0.017
		c4.492-0.187,9.053-1.43,13.682-3.711v-0.017c2.161-1.071,3.863-2.349,5.105-3.846c1.005-1.209,1.583-2.451,1.736-3.709
		c0.102-0.986-0.103-1.821-0.596-2.484V154.445z"/>
	<path fill="#9C0C27" d="M104.517,137.822c-1.804,0.732-3.353,1.685-4.646,2.877c-1.378,1.224-2.263,2.484-2.671,3.761
		c-0.937,2.823-0.494,4.763,1.36,5.818c-0.799,1.686-0.646,3.251,0.494,4.698c0.29,0.407,0.613,0.764,0.987,1.071
		c-0.494,0.562-0.902,1.207-1.208,1.94c-0.579,1.412-0.597,2.67-0.035,3.761c0.682,1.616,2.11,2.553,4.307,2.808
		c2.604,0.34,6.074-0.646,10.414-2.978l0.017-0.019c1.414,1.176,3.217,1.992,5.412,2.469c3.113,0.629,6.057,0.222,8.865-1.226
		c0.323-0.172,0.545-0.442,0.664-0.799c0.12-0.358,0.085-0.698-0.085-1.022c-0.17-0.34-0.442-0.562-0.8-0.68
		c-0.358-0.119-0.698-0.087-1.037,0.085c-0.188,0.101-0.393,0.203-0.598,0.287c-0.305,0.138-0.612,0.257-0.918,0.375
		c-1.771,0.597-3.608,0.699-5.53,0.308h-0.017c-1.923-0.408-3.456-1.157-4.613-2.246c0.478-0.239,0.954-0.512,1.448-0.834
		c0.152-0.188,0.372-0.426,0.646-0.715c0.817-0.885,1.481-1.702,1.991-2.468c0.289-0.698,0.545-1.276,0.731-1.735
		c-0.119-0.085-0.237-0.153-0.356-0.204c-0.528,0.46-1.208,0.986-2.026,1.565c-2.534,1.804-4.662,2.704-6.348,2.704
		c-0.289,0-0.562-0.101-0.799-0.321c-0.187-0.086-0.34-0.171-0.494-0.291l-0.017-0.017c-0.34-0.407-0.307-1.071,0.119-1.974
		c0.392-1.7,1.481-3.539,3.268-5.53c0.596-0.681,1.174-1.244,1.7-1.666c-0.049-0.104-0.117-0.189-0.186-0.273
		c-0.018-0.018-0.034-0.053-0.052-0.069c-0.391,0.119-0.629,0.205-0.714,0.238c-0.494,0.205-1.005,0.46-1.498,0.783
		c-0.288,0.188-0.731,0.512-1.344,0.936c-0.442,0.306-1.192,0.988-2.229,2.025c-0.018,0.018-0.018,0.018-0.018,0.034
		c-0.493,0.664-0.885,1.311-1.21,1.957c-0.116,0.221-0.203,0.426-0.287,0.63c-0.086,0.017-0.17,0.051-0.256,0.084
		c-0.885,0.426-1.872,0.631-2.942,0.614c-1.227-0.018-2.145-0.426-2.741-1.191c-0.203-0.357-0.306-0.732-0.306-1.124
		c-0.035-0.067-0.052-0.151-0.052-0.255c0-0.153,0.068-0.374,0.205-0.646c0.152-1.822,1.446-3.438,3.896-4.884
		c0.188-0.119,0.393-0.222,0.597-0.323c0.579-0.375,1.293-0.748,2.127-1.14c0.97-0.461,1.906-0.783,2.825-0.972
		c0.034-0.033,0.067-0.067,0.118-0.084c-0.051-0.086-0.084-0.153-0.118-0.221c-0.289-0.033-0.63-0.052-1.021-0.052
		c-1.242,0-2.468,0.17-3.658,0.511c-0.29,0.086-0.528,0.153-0.749,0.238c-0.698,0.323-1.378,0.682-2.008,1.072l-0.425,0.288
		c-0.035,0.018-0.068,0.034-0.086,0.052l-0.136,0.102c-0.681,0.494-1.312,1.039-1.905,1.633c-0.12,0.121-0.239,0.242-0.358,0.375
		c-0.698-0.51-0.852-1.395-0.425-2.637c0.323-0.885,0.952-1.752,1.905-2.604c1.072-0.971,2.365-1.77,3.847-2.383h0.016
		c3.592-1.481,7.13-1.481,10.585-0.017c3.047,1.294,5.599,2.962,7.657,5.003c1.141,0.936,2.298,2.025,3.455,3.266
		c0.528,0.75,1.056,1.584,1.6,2.486c0.051,0.086,0.103,0.17,0.153,0.256c0.085,0.119,0.154,0.254,0.222,0.375
		c0.392,0.696,0.697,1.293,0.902,1.752c0.033-0.017,0.067-0.017,0.103-0.034c0.084-0.034,0.151-0.068,0.237-0.101
		c-0.017-0.035-0.017-0.07-0.017-0.087c-0.188-1.241-0.323-1.957-0.392-2.161c-0.494-1.431-1.056-2.656-1.72-3.677
		c-0.152-0.221-0.324-0.491-0.545-0.8c-0.323-0.424-0.577-0.766-0.799-1.055c-0.289-0.375-0.527-0.713-0.716-1.039
		c-0.187-0.237-0.374-0.492-0.561-0.764c-0.426-0.562-1.106-1.277-2.042-2.16c-1.871-1.482-4.033-2.726-6.483-3.763
		C113.061,136.053,108.823,136.053,104.517,137.822 M107.972,158.941c0.731,0.629,1.583,0.986,2.536,1.104
		c-2.895,1.362-5.26,1.959-7.08,1.806h-0.017c-1.055-0.138-1.77-0.545-2.145-1.243v-0.018c-0.187-0.459-0.152-0.987,0.085-1.582
		v0.017c0.29-0.715,0.732-1.293,1.328-1.733c0.033-0.019,0.067-0.053,0.102-0.086c0.358,0.049,0.749,0.086,1.174,0.101
		c0.937,0.018,1.838-0.101,2.689-0.323C106.78,157.783,107.223,158.447,107.972,158.941"/>
	<path fill="#D72C1C" d="M110.508,160.047c-0.953-0.119-1.805-0.478-2.536-1.104c-0.749-0.496-1.192-1.16-1.327-1.959
		c-0.852,0.222-1.753,0.34-2.689,0.323c-0.426-0.016-0.815-0.051-1.175-0.102c-0.033,0.034-0.067,0.069-0.101,0.086
		c-0.596,0.442-1.038,1.021-1.328,1.735v-0.017c-0.237,0.595-0.271,1.123-0.085,1.582v0.017c0.375,0.698,1.09,1.105,2.145,1.244
		h0.017C105.248,162.004,107.612,161.407,110.508,160.047"/>
	<path fill="#D72C1C" d="M109.537,143.693c0.392,0,0.731,0.019,1.021,0.051c0.035,0.067,0.068,0.138,0.119,0.222
		c-0.051,0.017-0.084,0.051-0.119,0.084c-0.918,0.188-1.854,0.511-2.824,0.972c-0.834,0.391-1.549,0.764-2.127,1.139
		c-0.204,0.103-0.408,0.205-0.597,0.324c-2.45,1.444-3.744,3.063-3.896,4.884c-0.137,0.272-0.204,0.493-0.204,0.646
		c0,0.102,0.016,0.188,0.051,0.255c0,0.392,0.103,0.767,0.305,1.124c0.598,0.766,1.516,1.174,2.742,1.191
		c1.07,0.017,2.058-0.188,2.943-0.615c0.085-0.032,0.169-0.066,0.255-0.084c0.084-0.203,0.171-0.408,0.289-0.629
		c0.323-0.646,0.715-1.293,1.208-1.957c0-0.017,0-0.017,0.018-0.034c1.037-1.037,1.787-1.718,2.229-2.025
		c0.612-0.424,1.056-0.748,1.344-0.937c0.493-0.322,1.004-0.577,1.498-0.782c0.085-0.034,0.323-0.119,0.714-0.238
		c0.018,0.017,0.034,0.052,0.052,0.069c0.068,0.084,0.137,0.169,0.187,0.273c-0.527,0.422-1.105,0.985-1.701,1.666
		c-1.786,1.991-2.876,3.829-3.268,5.53c-0.427,0.902-0.459,1.565-0.119,1.976l0.017,0.015c0.154,0.12,0.308,0.205,0.494,0.291
		c0.237,0.221,0.51,0.321,0.799,0.321c1.686,0,3.813-0.9,6.348-2.705c0.818-0.578,1.498-1.104,2.026-1.564
		c0.119,0.051,0.237,0.119,0.356,0.204c-0.187,0.459-0.442,1.037-0.731,1.735c-0.51,0.766-1.174,1.582-1.991,2.468
		c-0.272,0.289-0.493,0.526-0.646,0.715c-0.494,0.322-0.971,0.595-1.448,0.834c1.157,1.089,2.69,1.838,4.612,2.246h0.018
		c1.922,0.392,3.759,0.289,5.53-0.308c0.306-0.119,0.613-0.237,0.918-0.375c0.087-0.287,0.188-0.611,0.29-0.985
		c0.578-2.043,0.901-3.147,0.953-3.318c0.018-0.085,0.442-1.021,1.242-2.842c0.34-0.767,0.596-1.36,0.782-1.819
		c-0.066-0.121-0.136-0.257-0.221-0.375c-0.051-0.086-0.103-0.17-0.154-0.257c-0.543-0.901-1.07-1.735-1.599-2.485
		c-1.157-1.24-2.314-2.33-3.455-3.267c-2.059-2.041-4.61-3.709-7.657-5.002c-3.456-1.465-6.993-1.465-10.585,0.017h-0.016
		c-1.481,0.613-2.774,1.414-3.847,2.383c-0.953,0.852-1.582,1.719-1.905,2.603c-0.427,1.243-0.273,2.128,0.425,2.638
		c0.119-0.136,0.238-0.254,0.358-0.375c0.594-0.595,1.225-1.139,1.904-1.633l0.137-0.102c0.018-0.016,0.051-0.034,0.086-0.053
		l0.425-0.287c0.63-0.391,1.311-0.749,2.008-1.072c0.22-0.085,0.459-0.152,0.749-0.238
		C107.069,143.863,108.295,143.693,109.537,143.693"/>
</g>
<g id="guide" display="none">
</g>
</svg>
