<?xml version="1.0" encoding="utf-8"?>
<!-- Generator: Adobe Illustrator 16.0.0, SVG Export Plug-In . SVG Version: 6.00 Build 0)  -->
<!DOCTYPE svg PUBLIC "-//W3C//DTD SVG 1.1//EN" "http://www.w3.org/Graphics/SVG/1.1/DTD/svg11.dtd">
<svg version="1.1" id="レイヤー_1" xmlns="http://www.w3.org/2000/svg" xmlns:xlink="http://www.w3.org/1999/xlink" x="0px"
	 y="0px" width="356.793px" height="557.557px" viewBox="0 0 356.793 557.557" enable-background="new 0 0 356.793 557.557"
	 xml:space="preserve">
<line fill="none" stroke="#00499C" stroke-width="5.243" stroke-linecap="round" stroke-miterlimit="10" x1="247.678" y1="249.988" x2="231.315" y2="242.598"/>
<path fill="#009FE8" d="M230.49,173.208c-52.161-0.292-79.997-0.342-83.523-0.212c-17.242,0.757-29.67,3.857-37.322,9.312
	c-3.914,2.779-7.969,6.88-12.146,12.27c-2.808,3.61-7.32,10.101-13.54,19.512c-16.888,25.307-33.129,47.658-48.723,67.057
	c-14.091,17.538-23.23,36.3-27.351,56.254c-3.858,18.586-3.056,36.36,2.409,53.275c5.328,16.596,14.407,30.156,27.231,40.668
	c13.399,10.971,29.179,17.088,47.303,18.419c92.608,6.806,158.95-2.356,199.045-27.555c2.012-1.276,3.955-2.553,5.838-3.89
	c15.03-11.854,25.603-25.174,31.714-39.896c5.274-13.906,6.898-29.662,4.913-47.336c-2.993-26.824-13.552-55.195-31.613-85.052
	c-3.179-5.264-6.591-10.551-10.232-15.899c-3.397-4.996-6.863-9.787-10.383-14.348c-6.397-8.381-12.972-16.03-19.659-22.948
	C244.706,182.7,236.743,176.181,230.49,173.208"/>
<path fill="none" stroke="#00499C" stroke-width="5.2802" stroke-linecap="round" stroke-miterlimit="10" d="M109.613,179.67
	c-3.952,2.776-8.103,6.916-12.477,12.447c-3.165,4.013-7.771,10.605-13.899,19.812c-17.315,25.22-33.636,47.08-48.951,65.612
	c-15.253,18.462-24.947,37.731-29.065,57.75c-4.085,20.012-3.325,38.613,2.31,55.791c5.439,16.825,14.753,30.572,27.944,41.248
	c13.725,11.085,29.938,17.322,48.561,18.672c36.68,2.654,69.269,2.91,97.697,0.762c27.773-2.094,51.392-6.453,70.926-13.078
	c6.374-2.188,11.539-4.068,15.458-5.728c5.22-2.221,9.652-4.488,13.318-6.856c4.156-2.689,7.977-5.399,11.47-8.098
	c15.166-11.824,25.547-24.942,31.103-39.385c5.425-13.215,6.233-31.195,2.49-53.906c-3.738-22.684-9.388-41.377-17.008-56.099
	c-7.627-14.716-13.344-25.092-17.208-31.165c-3.996-6.264-9.381-13.943-16.196-23.003c-7.013-9.321-14.662-17.602-22.878-24.873
	c-8.217-7.213-15.219-13.593-21.045-19.146c-52.523-0.284-80.586-0.364-84.214-0.235C130.275,170.963,117.49,174.143,109.613,179.67
	z"/>
<path fill="#009FE8" d="M248.573,414.663l0.067,0.002c0.425,0.396,3.922,11.949,10.419,34.689
	c6.635,23.201,10.026,34.982,10.19,35.316l8.283,1.646c19.991-0.237,36.47,1.975,49.408,6.652
	c6.271,2.259,12.269,5.593,18.034,9.989c2.646,2.03,4.926,5.24,6.901,9.64c1.941,4.397,2.636,7.952,2.116,10.687
	c-0.858,4.374-4.608,7.896-11.276,10.58c-18.533,7.422-48.92,6.885-91.138-1.592c-21.108-4.218-40.365-9.213-57.733-14.947
	l-1.753-3.279c-0.16-0.426-0.289-0.887-0.42-1.385c-0.372-2.475-0.652-4.221-0.812-5.305c-0.344-2.08,0.396-16.099,2.146-42.1
	c1.763-26.032,2.5-40.089,2.253-42.131l-0.001-0.035l53.281-8.461L248.573,414.663z"/>
<path fill="none" stroke="#00499C" stroke-width="5.2696" stroke-linecap="round" stroke-miterlimit="10" d="M248.573,414.663
	l-0.033-0.033l-53.281,8.461l0.001,0.035c0.247,2.042-0.49,16.099-2.253,42.131c-1.75,26.001-2.49,40.02-2.146,42.1
	c0.16,1.084,0.44,2.83,0.812,5.305c0.131,0.498,0.26,0.959,0.42,1.385l1.753,3.279c17.368,5.734,36.625,10.729,57.733,14.947
	c42.218,8.477,72.604,9.014,91.138,1.592c6.668-2.684,10.418-6.206,11.276-10.58c0.52-2.734-0.175-6.289-2.116-10.687
	c-1.976-4.399-4.256-7.609-6.901-9.64c-5.766-4.396-11.764-7.73-18.034-9.989c-12.938-4.678-29.417-6.89-49.408-6.652l-8.283-1.646
	c-0.164-0.334-3.556-12.115-10.19-35.316c-6.497-22.74-9.994-34.293-10.419-34.689L248.573,414.663z"/>
<path fill="#009FE8" d="M296.616,94.645c-2.466-9.44-5.976-17.366-10.536-23.748c-6.062-8.422-14.247-14.51-24.575-18.228
	c-0.236-0.093-0.504-0.184-0.771-0.275c-0.966-0.337-1.965-0.673-2.998-0.977c-0.865-0.242-1.729-0.485-2.625-0.691
	c0.247-0.5,0.499-1.004,0.719-1.503c0.096-0.168,0.157-0.366,0.248-0.535c0.032-0.099,0.061-0.202,0.132-0.301
	c1.637-3.97,2.348-8.249,2.129-12.765l-0.001-0.097l-0.004-0.067c-0.035-0.097-0.038-0.229-0.042-0.328
	c-0.006-0.231-0.011-0.43-0.056-0.659c-0.659-8.764-4.584-15.987-11.764-21.705c-7.147-5.719-15.438-8.171-24.888-7.422
	c-9.417,0.812-17.208,4.582-23.335,11.315c-2.338,2.538-4.178,5.261-5.523,8.104c-1.752-2.397-3.892-4.619-6.421-6.63
	c-7.147-5.717-15.434-8.168-24.888-7.422c-6.025,0.521-11.388,2.25-16.1,5.215c-2.63,1.655-5.02,3.701-7.236,6.101
	c-5.484,5.988-8.269,12.794-8.332,20.423c-0.029,0.104-0.027,0.166-0.024,0.268c-0.011,0.857,0.046,1.746,0.102,2.636
	c0.298,3.658,1.147,7.033,2.55,10.168c0.035,0.03,0.038,0.097,0.073,0.159c0.032,0.097,0.099,0.163,0.134,0.262
	c0.04,0.098,0.04,0.162,0.075,0.26c0.114,0.493-0.139,1.03-0.814,1.542c-0.035,0.032-0.097,0.068-0.132,0.101
	c-0.101,0.068-0.194,0.14-0.29,0.208c-0.53,0.178-1.079,0.359-1.707,0.538c-0.486,0.115-1.012,0.258-1.572,0.404
	c-0.62,0.151-1.315,0.301-2.031,0.483c-0.098,0.003-0.166,0.005-0.263,0.043c-14.87,3.167-26.835,7.449-35.866,12.84
	c-0.231,0.104-0.462,0.243-0.686,0.381C78.67,79.199,71.052,88.018,66.5,99.196l-3.476,12.013l-1.26,18.516l0.288,5.703
	c0.159,2.273,0.353,4.613,0.65,6.981c0.337,2.796,0.872,5.523,1.602,8.175c1.321,5.015,3.299,9.816,5.929,14.464
	c1.628,2.898,3.487,5.688,5.642,8.438c7.144,9.179,16.626,16.95,28.446,23.302c3.453,1.855,7.032,3.542,10.672,5.061l34.572,9.312
	c13.018,1.701,26.781,1.698,41.327,0.021l64.033-21.316c6.071-3.727,11.735-7.938,17.06-12.668c0.225-0.17,0.421-0.371,0.609-0.542
	c9.804-8.747,17.076-18.284,21.784-28.672c3.277-7.119,5.162-14.266,5.728-21.475l0.21-7.039c-0.075-1.553-0.183-3.134-0.354-4.712
	C299.27,107.416,298.166,100.71,296.616,94.645"/>
<path fill="none" stroke="#00499C" stroke-width="5.2802" stroke-linecap="round" stroke-miterlimit="10" d="M302.776,120.063
	c-0.054-4.586-0.688-9.751-1.9-15.463c-0.866-4.104-1.648-7.449-2.312-10.007c-0.26-1.019-0.51-1.899-0.727-2.651l-3.532-10.837
	l-4.757-8.982c-0.52-0.778-1.371-1.913-2.6-3.428c-1.534-1.843-2.897-3.36-4.086-4.546c-3.555-3.469-6.897-6.188-9.953-8.153
	c-4.935-3.201-10.273-5.169-16.067-5.976c1.917-1.071,3.159-3.878,3.671-8.35c0.512-4.47,0.473-8.395-0.051-11.75
	c-0.519-3.354-1.722-6.522-3.62-9.509c-1.896-3.016-4.546-5.885-7.921-8.667c-3.376-2.783-7.265-4.991-11.669-6.623
	c-2.494-0.892-5.053-1.583-7.71-2.039c-4.805-0.764-9.549-0.538-14.271,0.644c-3.682,0.857-7.073,2.205-10.225,4.002
	c-3.16,1.768-6.512,4.897-10.052,9.345l-2.401,5.312 M192.592,22.386c-1.562-2.961-3.236-5.094-4.96-6.433
	c-1.722-1.372-3.465-2.582-5.212-3.625c-1.741-1.042-4.246-2.032-7.505-2.904c-3.257-0.868-7.096-1.295-11.549-1.208
	c-4.459,0.084-8.17,0.677-11.147,1.78c-2.973,1.104-5.389,2.125-7.178,3.133c-1.789,0.971-3.667,2.308-5.602,4.042
	c-1.966,1.705-4.176,4.27-6.665,7.672c-2.45,3.397-4.061,7.171-4.845,11.35c-0.783,4.148-0.974,7.851-0.562,11.043
	c0.415,3.188,1.581,6,3.494,8.423c-0.783,0.183-3.117,0.742-6.956,1.603c-3.873,0.862-7.021,1.671-9.475,2.432
	c-2.458,0.758-5.564,1.733-9.328,2.988c-3.794,1.225-7.943,3.02-12.4,5.348c-4.495,2.333-8.575,5.249-12.208,8.745
	c-3.642,3.465-6.905,7.348-9.796,11.616c-2.89,4.306-5.116,8.851-6.635,13.675c-0.882,2.73-1.564,5.524-2.122,8.41
	c-0.92,4.914-1.51,9.845-1.744,14.835c-0.209,4.529-0.122,9.018,0.264,13.459c0.425,4.974,1.384,9.834,2.864,14.647
	c1.548,4.942,3.557,9.678,6.023,14.233c2.322,4.26,5.101,8.18,8.301,11.696c2.921,3.189,6.004,6.141,9.244,8.861
	c3.957,3.362,8.158,6.354,12.651,8.971c4.226,2.463,8.639,4.592,13.209,6.352c3.203,1.234,8.061,2.753,14.621,4.591l23.933,5.337
	c4.213,0.847,8.449,1.196,12.706,1.048l22.62-0.835c2.277-0.061,5.627-0.645,10.021-1.785l27.776-9.32
	c3.367-1.147,6.739-2.228,10.146-3.274c4.942-1.553,9.812-3.333,14.678-5.281c4.802-1.973,9.362-4.342,13.709-7.068
	c3.704-2.309,7.231-4.878,10.59-7.708c1.07-0.851,2.29-2.042,3.705-3.498c1.413-1.456,3.404-3.588,5.973-6.329
	c2.529-2.74,4.922-5.843,7.107-9.268c2.187-3.458,4.361-7.283,6.464-11.465c2.101-4.179,3.632-8.712,4.652-13.622
	c1.023-4.945,1.455-9.941,1.32-14.99"/>
<path fill="#FFFFFF" d="M258.235,34.469c-0.661-8.762-4.577-15.987-11.76-21.704c-7.153-5.719-15.44-8.169-24.891-7.422
	c-9.418,0.811-17.209,4.585-23.336,11.314c-2.338,2.542-4.184,5.262-5.523,8.106c-1.752-2.395-3.892-4.619-6.42-6.63
	c-7.148-5.717-15.433-8.169-24.89-7.424c-9.418,0.814-17.208,4.586-23.335,11.318c-6.185,6.733-8.918,14.53-8.254,23.326
	c0.73,8.829,4.654,16.085,11.838,21.767c7.182,5.683,15.5,8.134,24.922,7.39c9.384-0.742,17.176-4.517,23.297-11.283
	c2.344-2.539,4.188-5.259,5.533-8.104c1.743,2.397,3.883,4.617,6.41,6.63c7.185,5.684,15.504,8.138,24.919,7.387
	c9.391-0.74,17.182-4.516,23.302-11.28C256.242,51.093,258.97,43.295,258.235,34.469"/>
<path fill="#009FE8" d="M168.242,432.383l0.064-0.001c0.445,0.383,4.356,11.829,11.679,34.371
	c7.468,22.996,11.288,34.681,11.46,35.007l8.355,1.348c20.014-0.947,36.601,0.676,49.719,4.905
	c6.362,2.036,12.488,5.164,18.413,9.36c2.725,1.939,5.127,5.073,7.258,9.403c2.098,4.339,2.926,7.882,2.505,10.632
	c-0.702,4.41-4.331,8.069-10.921,10.994c-18.295,8.098-48.748,8.639-91.324,1.663c-21.29-3.479-40.753-7.788-58.355-12.921
	l-1.87-3.218c-0.177-0.421-0.324-0.878-0.473-1.372c-0.46-2.457-0.809-4.199-0.999-5.284c-0.421-2.069-0.18-16.136,0.65-42.238
	c0.833-26.132,1.063-40.235,0.747-42.271l-0.002-0.037l53.06-10.377L168.242,432.383z"/>
<path fill="none" stroke="#00499C" stroke-width="5.2802" stroke-linecap="round" stroke-miterlimit="10" d="M168.242,432.383
	l-0.035-0.035l-53.06,10.377l0.002,0.037c0.317,2.035,0.086,16.139-0.747,42.271c-0.83,26.103-1.071,40.169-0.65,42.238
	c0.19,1.085,0.539,2.827,0.999,5.284c0.149,0.494,0.296,0.951,0.473,1.372l1.87,3.218c17.603,5.133,37.066,9.442,58.355,12.921
	c42.576,6.976,73.029,6.435,91.324-1.663c6.59-2.925,10.219-6.584,10.921-10.994c0.421-2.75-0.407-6.293-2.505-10.632
	c-2.131-4.33-4.533-7.464-7.258-9.403c-5.925-4.196-12.051-7.324-18.413-9.36c-13.118-4.229-29.705-5.853-49.719-4.905l-8.355-1.348
	c-0.172-0.326-3.992-12.011-11.46-35.007c-7.323-22.542-11.234-33.988-11.679-34.371L168.242,432.383z"/>
<path fill="#009FE8" d="M230.49,173.208c-52.161-0.292-79.997-0.342-83.523-0.212c-17.242,0.757-29.67,3.857-37.322,9.312
	c-3.914,2.779-7.969,6.88-12.146,12.27c-2.808,3.61-7.32,10.101-13.54,19.512c-16.888,25.307-33.129,47.658-48.723,67.057
	c-14.091,17.538-23.23,36.3-27.351,56.254c-3.858,18.586-3.056,36.36,2.409,53.275c5.328,16.596,14.407,30.156,27.231,40.668
	c13.399,10.971,29.179,17.088,47.303,18.419c92.608,6.806,158.95-2.356,199.045-27.555c32.819-20.652,46.963-51.004,42.465-91.122
	c-3.519-31.566-17.487-65.192-41.846-100.952c-9.653-14.138-19.688-26.579-30.042-37.296
	C244.706,182.7,236.743,176.181,230.49,173.208"/>
<g>
	<path fill="#FFFFFF" d="M237.493,67.083c0,0,4.276,4.057,6.612,13.376c2.332,9.322,5.929,26.952,21.389,20.283
		C280.956,94.074,262.416,63.292,237.493,67.083z"/>
</g>
</svg>
