<?xml version="1.0" encoding="utf-8"?>
<!-- Generator: Adobe Illustrator 16.0.0, SVG Export Plug-In . SVG Version: 6.00 Build 0)  -->
<!DOCTYPE svg PUBLIC "-//W3C//DTD SVG 1.1//EN" "http://www.w3.org/Graphics/SVG/1.1/DTD/svg11.dtd">
<svg version="1.1" id="レイヤー_1" xmlns="http://www.w3.org/2000/svg" xmlns:xlink="http://www.w3.org/1999/xlink" x="0px"
	 y="0px" width="335.719px" height="187.88px" viewBox="0 0 335.719 187.88" enable-background="new 0 0 335.719 187.88"
	 xml:space="preserve">
<path fill="#009FE8" d="M211.159,45.241c-0.456,5.252-0.448,10.473,0.063,15.664c0.427,4.805,1.08,7.621,1.919,8.456l14.214,27.133
	c4.881,4.124,9.823,7.591,14.768,10.365c3.428-0.157,6.974,0.141,10.737,0.894c2.298,0.426,4.529,0.477,6.786,0.159
	c11.207-1.615,21.35-0.145,30.419,4.449c0.16-0.034,0.294-0.084,0.432-0.145c7.328-2.822,13.014-6.805,17.005-11.938
	c3.752-4.866,4.559-8.535,2.414-11.008c-5.521-6.266-11.086-8.051-16.728-5.305c-1.596,0.816-3.668,2.261-6.239,4.409
	c-0.661,0.553-1.281,1.052-1.888,1.482c0.707-0.642,1.428-1.456,2.229-2.406c2.72-3.063,4.935-6.487,6.609-10.304
	c4.739-10.562,3.519-18.664-3.616-24.298c-3.499-3.417-8.298-2.113-14.417,3.939c-6.113,7.325-9.858,11.583-11.174,12.824
	c6.4-10.314,10.135-18.312,11.238-23.947c1.858-9.349-1.552-16.02-10.282-20.007c-3.844-1.748-9.101,0.861-15.74,7.847
	c-6.098,6.464-9.273,11.275-9.483,14.419c-0.818-5.593-2.252-10.637-4.354-15.133c-3.283-6.91-7.38-10.247-12.337-9.997
	C216.659,23.164,212.455,30.654,211.159,45.241"/>
<path fill="#009FE8" d="M259.646,107.911c-2.257,0.318-4.488,0.268-6.786-0.155c-3.764-0.756-7.31-1.054-10.737-0.897
	c6.771,3.778,13.608,6.347,20.489,7.635c9.63,1.843,18.801,1.139,27.453-2.133C280.996,107.766,270.854,106.295,259.646,107.911"/>
<path fill="#009FE8" d="M233.935,110.059l1.062,1.121c2.229-0.735,3.985-1.327,5.285-1.752c0.489-0.308,1.08-0.528,1.764-0.754
	c0.096,0.041,0.188,0.037,0.275-0.015c1.723-0.708,3.135-1.603,4.192-2.64l-2.822-2.899c-0.502,0.125-0.821,0.188-0.963,0.241
	c-0.006-0.137,0.011-0.252,0.097-0.4c0.195-0.172,0.372-0.368,0.521-0.588c-1.051-0.189-2.069-0.434-3.082-0.673
	c-0.811-1.908-0.68-3.676,0.382-5.318c0.033-1.068-0.662-2.606-2.15-4.589c2.623-3.146,4.557-5.722,5.767-7.72
	c0.041-0.094-0.078-0.505-0.376-1.252c-0.368,0.068-0.575,0.103-0.603,0.081l-0.604,0.731c-1.053,1.388-2.95,3.521-5.658,6.372
	c-0.649-0.798-1.442-1.634-2.283-2.511c-1.611-1.693-5.125-5.04-10.521-9.968c0.395-0.692,1.051-2.171,2.033-4.41l-1.396-1.243
	c0.137-0.844,0.203-1.661,0.223-2.473l-0.253,0.433l-1.975-1.184l-2.061,2.766l-0.053-0.041c0.039-0.14,0.096-0.401,0.165-0.729
	l-3.251-2.409c-0.258,0.341-1.548,1.648-3.834,3.919c-0.19,0.22-0.388,0.44-0.562,0.635c-0.215,0.294-0.513,0.774-0.916,1.425
	c-0.647,0.827-1.099,1.434-1.377,1.845l-0.337-0.255c-0.193,0.313-0.361,0.6-0.484,0.885c-0.065,0.074-0.028,0.279,0.11,0.667
	c0.196,0.572,0.225,1.426,0.057,2.553l-0.578,0.8l3.25,2.406l2.025-2.626l0.088,0.252c-0.02,0.814-0.237,1.588-0.602,2.353
	c0,0.047-0.022,0.072-0.017,0.117c-0.956,1.521-1.654,2.657-2.098,3.4c-1.037,0.528-2.15,0.984-3.315,1.31
	c-0.331-0.166-0.689-0.354-1.004-0.542c-0.02,0.07-0.064,0.117-0.088,0.141c-0.483,0.842-1.027,3.034-1.626,6.622l3.079,2.648
	c0.657-0.735,1.63-1.835,2.915-3.283c1.112-1.25,2.023-2.369,2.706-3.382l0.049,0.436l-0.451,0.655l3.265,2.942
	c-0.279,1.59-0.506,2.883-0.725,3.874c-0.313,1.78-0.465,3.135-0.479,4.088l3.09,2.741c-0.333,0.719-0.537,1.194-0.588,1.451
	c-0.207,0.826-0.017,1.604,0.489,2.363l3.117,2.51c0.374-0.02,0.964-0.242,1.82-0.663c0.904-0.427,1.562-0.677,1.95-0.766
	l4.817,3.708l-0.646,0.872l0.782,0.7C231.827,113.269,232.607,111.6,233.935,110.059 M225.921,84.879l0.167,0.108
	c0.652,0.795,1.385,1.749,2.142,2.818c0.84,1.184,1.37,1.917,1.574,2.229l-0.651,0.786c-0.671-0.381-1.336-1.365-2.011-2.927
	C226.769,87.08,226.388,86.081,225.921,84.879"/>
<path fill="#00499C" d="M208.146,73.557c-0.132,0.191-0.197,0.269-0.218,0.289l2.692,1.956l0.338,0.255
	c0.28-0.411,0.731-1.018,1.377-1.843c0.405-0.653,0.703-1.133,0.915-1.427c-0.005-0.044,0.021-0.068,0.041-0.093
	c0.188-0.404,0.118-0.818-0.189-1.267c-0.228-0.333-0.317-0.63-0.303-0.838l0.038-0.097c-0.001-0.046,0.02-0.071,0.019-0.118
	c0.116-0.284,0.104-0.563-0.1-0.828l-0.174-0.293c-0.165-0.755-0.485-2.709-0.957-5.888c-0.488-3.151-0.71-6.598-0.652-10.359
	c0.056-3.764,0.146-6.487,0.231-8.209c0.088-1.631,0.3-3.152,0.614-4.541c0.689-2.802,1.502-5.24,2.493-7.298
	c0.223-0.545,0.471-1.07,0.72-1.596l-3.973-3.525c-1.05,1.917-1.908,4.173-2.64,6.818c-0.467,1.561-0.828,3.251-1.142,5.033
	l-0.152,0.131l-0.385,1.411c0.005,0.094,0.015,0.185,0.016,0.231l-0.042,0.004l-0.02,0.07c-0.037,0.189-0.054,0.308-0.023,0.423
	l0.004,0.041c-0.734,11.187-0.604,19.63,0.376,25.283c0.039,0.208,0.049,0.391,0.063,0.621c0.026,0.074,0.029,0.117,0.03,0.163
	c0.046,0.346,0.135,0.69,0.23,1.08c-0.043,0.05-0.09,0.096-0.134,0.144c0.047,0.043,0.12,0.063,0.195,0.086l-0.321,0.457
	c-0.053,0.396,0.069,0.901,0.383,1.486c0.287,0.52,0.401,0.883,0.297,1.098c-0.141,0.311-0.251,0.478-0.317,0.506
	c-0.068-0.019-0.117-0.016-0.16,0.034L208.146,73.557z M209.948,43.2c-0.026-0.02-0.075-0.065-0.075-0.112
	C209.873,43.135,209.922,43.18,209.948,43.2"/>
<path fill="#00499C" d="M242.04,108.67c-0.676,0.23-1.269,0.45-1.758,0.755c-0.851,0.517-1.42,1.153-1.722,1.985l2.308,2.44
	c1.756-0.057,3.074-0.162,4.001-0.259c0.324-0.02,0.623-0.063,0.896-0.125c1.22,0.599,2.225,1.055,2.957,1.356
	c0.475,0.207,0.931,0.342,1.306,0.457c0.074,0.068,0.12,0.11,0.149,0.18c1.118,0.469,2.281,0.889,3.535,1.295
	c0.57,0.205,1.166,0.422,1.804,0.638c2.981,0.942,6.188,1.819,9.621,2.543c8.636,1.928,17.628,0.886,26.932-3.081
	c1.243-0.513,2.492-1.073,3.66-1.651c1.135-0.531,2.191-1.082,3.246-1.678c0.021-0.021,0.045-0.048,0.086-0.099
	c0.581-0.495,1.111-0.852,1.563-1.065c-0.002-0.045-0.03-0.113-0.031-0.161c0.999-0.734,1.956-1.46,2.888-2.258l-3.926-3.485
	c-0.615,0.547-1.233,1.049-1.858,1.503c-0.373,0.07-0.726,0.276-1.106,0.554c-0.329,0.274-0.596,0.476-0.817,0.676l-0.025-0.024
	l-0.798,0.651c-0.155,0.081-0.338,0.183-0.518,0.239c-1.086,0.485-2.131,0.872-3.135,1.251c-3.166,1.352-6.312,2.326-9.405,2.998
	c-3.118,0.692-7.068,0.997-11.856,0.957c-2.679-0.193-5.323-0.57-7.984-1.18c-1.839-0.403-3.649-0.875-5.452-1.463
	c-2.341-0.77-4.695-1.718-7.061-2.859c-0.164-0.056-0.332-0.115-0.499-0.223c-0.886-0.391-1.745-0.848-2.588-1.378
	c-0.026-0.023-0.073-0.072-0.102-0.087l-0.068,0.024c-0.145-0.082-0.312-0.19-0.456-0.274c0.031,0.113,0.082,0.203,0.136,0.296
	c-0.784,0.141-2.002,0.326-3.641,0.54C242.234,108.709,242.142,108.714,242.04,108.67"/>
<path fill="#00499C" d="M293.436,77.081c-0.024,0.027-0.047,0.05-0.065,0.074c-1.909,3.876-4.203,7.447-6.982,10.719
	c-0.849,1.001-1.651,1.91-2.419,2.72c0.187-0.055,1.227-0.886,3.221-2.488c1.995-1.604,3.94-2.903,5.875-3.9
	c1.312-0.633,2.33-1.041,3.089-1.158c0.345-0.09,0.983-0.172,1.938-0.206c0.051-0.005,0.141-0.007,0.185-0.014l0.025,0.023
	c0.397,0.05,0.819,0.069,1.241,0.09l0.748,0.189c0.028,0.018,0.028,0.018,0.05,0.042c0.07,0.019,0.144,0.04,0.208,0.011l0.024,0.022
	l0.021,0.021c0.027,0.023,0.027,0.023,0.053,0.044c0.029,0.023,0.029,0.023,0.051,0.044c2.203,0.774,3.934,1.741,5.204,2.872
	c0.318,0.284,0.495,0.438,0.543,0.524c0.231,0.382,1.128,1.444,2.745,3.227l0.004,0.05l0.02,0.02c0.681,0.818,1.04,1.793,1.06,2.906
	c0.003,0.047-0.019,0.075-0.016,0.121c-0.329,1.55-1.067,3.172-2.222,4.865c-0.473,0.635-0.975,1.198-1.479,1.714
	c-2.393,2.647-4.744,4.945-7.002,6.844l3.926,3.486c3.339-2.776,6.159-5.752,8.496-8.977c1.521-2.11,2.588-4.147,3.187-6.154
	c-0.162-1.247-0.247-2.635-0.288-4.118c-0.349-0.79-0.727-1.697-1.16-2.738c-0.104-0.229-0.19-0.478-0.272-0.681
	c-0.811-1.206-1.885-2.421-3.197-3.548c-4.338-3.762-8.089-5.513-11.3-5.3l-0.025-0.02c-0.114,0.026-0.758,0.113-1.957,0.275
	c-0.253,0.038-0.507,0.078-0.714,0.111c0.022-0.022,0.047-0.049,0.066-0.071c0.063-0.119,0.347-0.438,0.827-0.931
	c0.218-0.249,0.389-0.44,0.521-0.589c0.025-0.022,0.066-0.072,0.088-0.143c0.085-0.146,0.232-0.316,0.407-0.558
	c0.04-0.095,0.103-0.213,0.169-0.29c0.085-0.144,0.189-0.313,0.366-0.505c4.043-11.709,2.354-20.664-5.146-26.84
	c-4.033-3.889-8.449-4.349-13.196-1.423c0.352-1.484,0.662-2.961,0.858-4.416l-0.009-0.044c1.203-9.938-2.407-16.783-10.775-20.537
	c-8.469-3.838-15.891-1.705-22.282,6.331c-2.596,3.269-4.788,6.228-6.54,8.839c-0.643-2.676-1.645-5.454-2.975-8.342
	c-3.084-6.645-8.515-9.714-16.207-9.189c-4.853,0.172-8.642,2.762-11.362,7.751l3.968,3.527c1.812-3.567,4.225-5.542,7.314-5.91
	l0.021,0.021c0.255,0.007,0.554-0.032,0.83-0.097c0.028,0.02,0.028,0.02,0.044-0.003c1.959-0.231,3.769,0.103,5.471,1
	c2.267,1.05,4.026,2.92,5.297,5.584c0.083,0.204,0.161,0.406,0.263,0.544c0.438,0.785,0.896,1.66,1.298,2.684
	c2.106,4.587,3.46,9.82,4.114,15.753c0.263-3.358,3.546-8.684,9.848-16.021c0.502-0.517,0.983-1.06,1.439-1.57
	c0.347-0.437,0.664-0.9,1.011-1.341c1.84-2.262,3.743-3.864,5.749-4.842c3.081-2.085,5.696-2.657,7.835-1.763
	c4.044,1.622,6.951,3.979,8.698,7.031c1.688,2.594,2.305,5.854,1.861,9.852c-0.089,1.141-0.253,2.359-0.479,3.647
	c-0.265,1.385-0.691,2.897-1.241,4.507c0.051-0.002,0.116,0.018,0.158,0.016c-2.079,5.553-5.776,12.573-11.081,21.059
	c1.36-1.379,5.354-6.073,11.986-14.08c1.684-1.703,3.273-3.093,4.747-4.156l0.045-0.001c3.96-2.883,7.221-3.097,9.755-0.672
	c6.547,5.071,7.996,12.715,4.306,22.983l-0.046,0.002c0.002,0.048,0.008,0.094-0.013,0.122c-0.048,0-0.094,0.048-0.136,0.054
	c-0.062,0.161-0.118,0.332-0.227,0.495C293.602,76.793,293.455,77.058,293.436,77.081"/>
<path fill="#009FE8" d="M87.927,68.131l-2.112,2.376c-8.24,9.029-16.58,21.083-25.007,36.139c6.835,3.217,12.653,5.891,17.479,8.114
	c10.902,4.998,18.714,8.293,23.404,9.92c3.528,1.162,6.979,2.21,10.332,3.126c10.738,2.967,21.611,5.083,32.574,6.366
	c20.281,2.28,39.225,1.047,56.794-3.726c10.972-2.929,19.79-6.094,26.414-9.505c3.242-1.677,6.223-3.457,8.968-5.356l-0.33-0.422
	l0.604-0.481l0.374,0.422c2.6-1.847,4.971-3.823,7.123-5.901c4.572-4.403,6.766-6.526,6.637-6.379
	c-0.156,0.172,0.145,0.13,0.896-0.125c1.851-1.734,3.473-3.314,4.918-4.796l0.263-0.244l-0.929,0.399l6.645-6.589l-40.77-37.797
	l-11.321,9.188c0.007,0.047-0.34,0.089-1.081,0.134c-0.761,0.068-1.152,0.115-1.176,0.141c-0.068,0.42-0.093,0.839-0.157,1.259
	c-0.091,0.842-0.334,1.416-0.66,1.738c-5.063,4.706-9.805,8.168-14.249,10.403c-3.382,1.688-8.336,3.417-14.871,5.196
	c-8.913,2.384-18.418,3.457-28.552,3.174c-8.655-0.279-17.691-1.507-27.128-3.714c-6.264-1.486-12.501-3.344-18.718-5.672
	L87.927,68.131z"/>
<path fill="#00398A" d="M237.421,115.104c-0.199,0.175-0.426,0.326-0.647,0.478l0.125,0.156l0.619-0.502L237.421,115.104z"/>
<path fill="#00398A" d="M236.773,115.583c0.222-0.152,0.446-0.302,0.647-0.478l-0.374-0.422l-0.604,0.479L236.773,115.583z"/>
<path fill="none" stroke="#00499C" stroke-width="5.243" stroke-linecap="square" stroke-miterlimit="10" d="M60.81,106.645
	c6.829,3.22,12.653,5.893,17.474,8.113c10.911,5,18.715,8.295,23.411,9.921c3.524,1.163,6.977,2.211,10.329,3.127
	c10.74,2.964,21.611,5.083,32.574,6.362c20.284,2.285,39.222,1.05,56.791-3.726c10.971-2.926,19.794-6.091,26.415-9.503
	c3.244-1.676,6.229-3.456,8.97-5.358c0.226-0.147,0.449-0.302,0.647-0.481c2.6-1.845,4.971-3.819,7.123-5.898 M208.624,63.133
	c-0.064,0.422-0.087,0.839-0.156,1.265c-0.091,0.84-0.333,1.41-0.663,1.732c-5.062,4.71-9.799,8.172-14.246,10.406
	c-3.38,1.688-8.337,3.419-14.871,5.197c-8.913,2.382-18.418,3.457-28.553,3.172c-8.652-0.277-17.69-1.508-27.127-3.712
	c-6.263-1.488-12.501-3.344-18.718-5.673"/>
<line fill="none" stroke="#00499C" stroke-width="5.243" stroke-linecap="round" stroke-miterlimit="10" x1="104.29" y1="75.521" x2="87.927" y2="68.131"/>
<path fill="#FFE100" d="M239.896,176.134l-15.827-0.231c-8.26-0.253-15.842-0.828-22.812-1.765l0.11-0.717
	c-12.337-2.256-18.547-5.171-18.643-8.782c-0.095-3.581,5.951-6.793,18.151-9.64c9.188-2.146,19.799-3.614,31.771-4.461l0.032-0.032
	c2.381-1.588,3.553-3.337,3.501-5.265c-0.155-5.82-7.422-8.552-21.772-8.169c-5.006,0.135-9.887,0.542-14.636,1.2
	c-4.054-6.214-7.218-13.76-9.479-22.638c-2.192-8.504-3.518-22.051-4.012-40.629c-0.494-18.581,3.558-31.301,12.155-38.195
	c8.665-6.865,17.945-11.377,27.888-13.48c-2.047-0.789-3.652-1.551-4.857-2.33c-12.88,1.774-23.972,5.028-33.313,9.792
	c-1.563,0.82-3.098,1.705-4.566,2.584c-0.103,0.035-0.222,0.099-0.339,0.194c-3.527,2.12-6.735,4.509-9.684,7.174
	c-13.415,12.037-19.876,27.812-19.354,47.386c0.365,13.635,3.56,30.707,9.558,51.226c0.859,3.06,1.778,6.023,2.733,8.932
	c1.843-0.86,3.69-1.662,5.537-2.425c1.442-0.722,2.952-1.418,4.585-2.115c2.002-0.77,4.127-1.575,6.386-2.35l0.105,0.433
	c-2.132,0.65-4.265,1.391-6.328,2.162c-1.575,0.573-3.176,1.171-4.748,1.871c-1.045,0.496-1.724,1.85-2.068,4.138
	c0.579-0.451,1.19-0.903,1.831-1.356c1.471-1.01,3.125-1.955,4.933-2.907c1.323-0.72,2.77-1.413,4.281-2.108
	c1.813-0.764,3.784-1.563,5.885-2.334c1.047-0.405,2.09-0.772,3.176-1.146c-1.086,0.374-2.129,0.742-3.176,1.146
	c-2.101,0.771-4.071,1.57-5.885,2.334c-1.512,0.695-2.958,1.388-4.281,2.108c-1.808,0.952-3.462,1.897-4.933,2.907
	c-0.641,0.454-1.252,0.905-1.831,1.356c-0.288,2.029-0.342,4.806-0.096,8.316c-0.873-2.652-1.584-4.781-2.127-6.389
	c-1.7,1.725-2.924,3.474-3.69,5.262c-0.584,1.486-0.85,3.021-0.81,4.541c0.185,6.945,6.846,12.778,19.962,17.534
	c1.509,0.551,6.987,1.623,16.463,3.144c9.445,1.585,19.438,2.534,30.004,2.843c0.659,0.043,1.278,0.059,1.876,0.074l5.761,0.062
	c2.924,0.017,5.884-0.03,8.844-0.108l12.28-0.578c1.4-0.1,2.77-0.196,4.169-0.329c10.346-0.772,19.656-1.986,27.925-3.67
	c0.222-0.042,0.47-0.105,0.684-0.174c-6.262-0.176-12.421-1.104-18.417-2.78c-2.792-0.797-5.274-1.695-7.516-2.695
	c-2.27,0.186-4.601,0.312-6.996,0.406l-11.631,0.557l-0.712,0.02C243.912,176.088,241.89,176.111,239.896,176.134"/>
<path fill="none" stroke="#FFE100" stroke-width="1.2902" d="M239.896,176.134l-15.827-0.231c-8.26-0.253-15.842-0.828-22.812-1.765
	l0.11-0.717c-12.337-2.256-18.547-5.171-18.643-8.782c-0.095-3.581,5.951-6.793,18.151-9.64c9.188-2.146,19.799-3.614,31.771-4.461
	l0.032-0.032c2.381-1.588,3.553-3.337,3.501-5.265c-0.155-5.82-7.422-8.552-21.772-8.169c-5.006,0.135-9.887,0.542-14.636,1.2
	c-4.054-6.214-7.218-13.76-9.479-22.638c-2.192-8.504-3.518-22.051-4.012-40.629c-0.494-18.581,3.558-31.301,12.155-38.195
	c8.665-6.865,17.945-11.377,27.888-13.48c-2.047-0.789-3.652-1.551-4.857-2.33c-12.88,1.774-23.972,5.028-33.313,9.792
	c-1.563,0.82-3.098,1.705-4.566,2.584c-0.103,0.035-0.222,0.099-0.339,0.194c-3.527,2.12-6.735,4.509-9.684,7.174
	c-13.415,12.037-19.876,27.812-19.354,47.386c0.365,13.635,3.56,30.707,9.558,51.226c0.859,3.06,1.778,6.023,2.733,8.932
	c1.843-0.86,3.69-1.662,5.537-2.425c1.442-0.722,2.952-1.418,4.585-2.115c2.002-0.77,4.127-1.575,6.386-2.35l0.105,0.433
	c-2.132,0.65-4.265,1.391-6.328,2.162c-1.575,0.573-3.176,1.171-4.748,1.871c-1.045,0.496-1.724,1.85-2.068,4.138
	c0.579-0.451,1.19-0.903,1.831-1.356c1.471-1.01,3.125-1.955,4.933-2.907c1.323-0.72,2.77-1.413,4.281-2.108
	c1.813-0.764,3.784-1.563,5.885-2.334c1.047-0.405,2.09-0.772,3.176-1.146c-1.086,0.374-2.129,0.742-3.176,1.146
	c-2.101,0.771-4.071,1.57-5.885,2.334c-1.512,0.695-2.958,1.388-4.281,2.108c-1.808,0.952-3.462,1.897-4.933,2.907
	c-0.641,0.454-1.252,0.905-1.831,1.356c-0.288,2.029-0.342,4.806-0.096,8.316c-0.873-2.652-1.584-4.781-2.127-6.389
	c-1.7,1.725-2.924,3.474-3.69,5.262c-0.584,1.486-0.85,3.021-0.81,4.541c0.185,6.945,6.846,12.778,19.962,17.534
	c1.509,0.551,6.987,1.623,16.463,3.144c9.445,1.585,19.438,2.534,30.004,2.843c0.659,0.043,1.278,0.059,1.876,0.074l5.761,0.062
	c2.924,0.017,5.884-0.03,8.844-0.108l12.28-0.578c1.4-0.1,2.77-0.196,4.169-0.329c10.346-0.772,19.656-1.986,27.925-3.67
	c0.222-0.042,0.47-0.105,0.684-0.174c-6.262-0.176-12.421-1.104-18.417-2.78c-2.792-0.797-5.274-1.695-7.516-2.695
	c-2.27,0.186-4.601,0.312-6.996,0.406l-11.631,0.557l-0.712,0.02C243.912,176.088,241.89,176.111,239.896,176.134z"/>
<path fill="#D7BE00" d="M224.068,175.903l15.827,0.231c1.994-0.023,4.017-0.046,6.046-0.1l0.712-0.02l11.631-0.557
	c1.464-0.101,2.921-0.202,4.354-0.334c3.355-0.243,6.588-0.586,9.721-1.006c6.491-0.765,12.409-1.799,17.827-3.065
	c12.222-2.909,18.27-6.15,18.172-9.762c-0.094-3.582-6.305-6.466-18.664-8.66c-7.606-1.388-16.129-2.31-25.61-2.71l-18.128,0.016
	l-0.711,0.019c-2.088,0.055-4.173,0.141-6.225,0.229l-4.294,0.207c-0.467,0.043-0.935,0.056-1.396,0.099
	c-0.221,0.005-0.438,0.012-0.65,0.05h-0.033c-11.972,0.848-22.582,2.315-31.771,4.457c-12.2,2.851-18.246,6.063-18.151,9.645
	c0.096,3.611,6.306,6.526,18.643,8.782C208.187,174.64,215.741,175.465,224.068,175.903"/>
<path fill="#FFE100" d="M199.773,138.27c4.746-0.656,9.627-1.063,14.633-1.198c14.347-0.381,21.618,2.35,21.774,8.169
	c0.05,1.928-1.122,3.677-3.506,5.265l-0.033,0.034l0.036-0.001c0.213-0.038,0.431-0.044,0.651-0.05
	c0.465-0.043,0.933-0.055,1.396-0.099l4.294-0.207c2.052-0.087,4.136-0.172,6.221-0.229l0.719-0.019l18.126-0.016
	c9.474,0.399,18.002,1.325,25.608,2.71c12.361,2.194,18.57,5.078,18.668,8.66c0.094,3.612-5.951,6.854-18.176,9.762
	c-5.418,1.266-11.338,2.299-17.824,3.065l0.435,3.63c5.991,1.68,12.155,2.604,18.417,2.78c0.559-0.106,1.116-0.221,1.705-0.33
	c8.854-1.948,13.684-3.071,14.487-3.436c14.267-5.646,21.29-12.124,21.094-19.439c-0.1-3.699-2.029-7.071-5.758-10.183
	c-0.121-0.09-0.285-0.209-0.438-0.361c-1.306-1.024-2.827-2.011-4.568-2.997c-3.696-1.986-8.357-3.855-13.977-5.604
	c-1.413-0.46-2.891-0.89-4.365-1.256c1.475,0.366,2.952,0.795,4.365,1.256c5.619,1.748,10.28,3.618,13.977,5.604
	c1.741,0.986,3.263,1.973,4.568,2.997l0.988-1.365c1.551-4.933,2.577-8.387,3.053-10.393c4.927-20.809,7.21-38.029,6.848-51.661
	c-0.523-19.578-7.816-34.983-21.856-46.291c-2.956-2.379-6.188-4.507-9.634-6.373l-4.263-2.194
	c-14.035-6.57-31.713-9.557-53.096-8.987c-0.805-0.008-1.613,0.015-2.452,0.038l-1.218,0.031c-0.403,0.042-0.806,0.051-1.24,0.063
	c-1.399,0.038-2.774,0.074-4.145,0.144c-4.815,0.283-9.444,0.687-13.822,1.21c1.205,0.776,2.811,1.541,4.856,2.328
	c-9.939,2.103-19.225,6.616-27.882,13.48c-8.603,6.896-12.652,19.619-12.157,38.201c0.494,18.577,1.82,32.121,4.009,40.624
	C192.553,124.511,195.717,132.057,199.773,138.27"/>
<path fill="#FFE100" d="M167.742,151.926c0.673-0.639,1.402-1.282,2.227-1.925c0.345-2.289,1.023-3.642,2.068-4.138
	c-1.847,0.764-3.694,1.564-5.54,2.425C166.534,148.379,166.968,149.583,167.742,151.926"/>
<path fill="#FFE100" d="M169.969,150c-0.824,0.644-1.554,1.286-2.227,1.925c0.547,1.609,1.258,3.739,2.134,6.392
	C169.623,154.807,169.681,152.029,169.969,150"/>
<path fill="#FFE100" d="M183.113,141.83l-0.105-0.433c-2.255,0.777-4.384,1.58-6.386,2.35c-1.632,0.697-3.143,1.393-4.585,2.115
	c1.572-0.698,3.177-1.298,4.748-1.871C178.849,143.221,180.979,142.48,183.113,141.83"/>
<path fill="#FFED00" d="M291.213,180.527c-0.214,0.068-0.458,0.132-0.684,0.174c-8.269,1.684-17.579,2.897-27.925,3.67
	c-1.399,0.133-2.766,0.229-4.169,0.329c2.058-0.085,4.109-0.203,6.191-0.383c11.156-0.794,21.216-2.027,30.109-3.728
	C293.551,180.584,292.366,180.59,291.213,180.527"/>
<path fill="#FFE100" d="M301.609,30.632l0.231-0.599c0.159-0.967,0.228-1.904,0.201-2.869c-0.207-7.75-6.196-13.91-17.933-18.455
	c-11.768-4.544-25.902-6.599-42.392-6.159c-8.187,0.218-15.799,1.013-22.831,2.414c-1.708,2.508-2.52,4.927-2.458,7.229
	c0.095,3.518,1.448,6.252,4.059,8.241c0.286,0.21,0.598,0.391,0.979,0.566c4.375-0.523,9.007-0.926,13.83-1.21
	c1.362-0.069,2.737-0.105,4.138-0.143c0.432-0.012,0.836-0.021,1.241-0.063l1.215-0.031c0.84-0.022,1.652-0.045,2.454-0.036
	c21.382-0.571,39.057,2.415,53.095,8.986C298.86,29.182,300.244,29.891,301.609,30.632"/>
<path fill="#FFE100" d="M221.466,21c-0.381-0.176-0.692-0.357-0.981-0.566c-2.607-1.988-3.961-4.723-4.056-8.241
	c-0.062-2.302,0.75-4.722,2.457-7.227c-6.968,1.4-13.359,3.408-19.145,5.993c-11.512,5.164-17.164,11.634-16.956,19.383
	c0.028,1.03,0.146,2.054,0.391,3.076l0.404-0.042l-0.024-0.874l0.024,0.874c1.475-0.879,3.009-1.764,4.572-2.581
	C197.494,26.028,208.586,22.774,221.466,21"/>
<path fill="none" stroke="#FFE100" stroke-width="1.2902" d="M221.466,21c-0.381-0.176-0.692-0.357-0.981-0.566
	c-2.607-1.988-3.961-4.723-4.056-8.241c-0.062-2.302,0.75-4.722,2.457-7.227c-6.968,1.4-13.359,3.408-19.145,5.993
	c-11.512,5.164-17.164,11.634-16.956,19.383c0.028,1.03,0.146,2.054,0.391,3.076l0.404-0.042l-0.024-0.874l0.024,0.874
	c1.475-0.879,3.009-1.764,4.572-2.581C197.494,26.028,208.586,22.774,221.466,21z"/>
<path fill="none" stroke="#0E0000" stroke-width="4.9802" stroke-linecap="round" stroke-linejoin="round" stroke-miterlimit="10" d="
	M183.247,33.569c0.123-0.097,0.237-0.159,0.336-0.193 M167.742,151.926c-1.696,1.727-2.92,3.476-3.687,5.264
	c-0.582,1.484-0.853,3.021-0.811,4.541c0.185,6.945,6.847,12.778,19.963,17.534c1.509,0.551,6.987,1.623,16.463,3.144
	c9.445,1.585,19.439,2.532,30.004,2.843c0.657,0.043,1.277,0.059,1.876,0.074l5.76,0.062c2.926,0.016,5.885-0.031,8.845-0.109
	l12.285-0.578c1.398-0.1,2.765-0.196,4.164-0.329c10.346-0.772,19.658-1.984,27.93-3.669c0.221-0.043,0.465-0.106,0.682-0.177
	c0.556-0.104,1.113-0.219,1.702-0.328c8.854-1.948,13.684-3.071,14.487-3.436c14.264-5.645,21.284-12.124,21.091-19.438
	c-0.101-3.701-2.026-7.073-5.755-10.185 M183.247,33.569c-3.526,2.121-6.734,4.511-9.684,7.176
	C160.15,52.783,153.688,68.554,154.21,88.13c0.364,13.633,3.559,30.709,9.557,51.226c0.859,3.06,1.781,6.023,2.733,8.932
	c0.029,0.091,0.47,1.293,1.242,3.638 M190.074,140.148c-1.08,0.374-2.129,0.742-3.179,1.146c-2.098,0.771-4.068,1.57-5.884,2.334
	c-1.51,0.695-2.956,1.388-4.278,2.106c-1.808,0.954-3.463,1.898-4.934,2.909c-0.641,0.454-1.254,0.905-1.831,1.356
	c-0.825,0.644-1.554,1.286-2.227,1.925 M299.393,136.921c1.475,0.366,2.952,0.795,4.365,1.256c5.619,1.748,10.28,3.618,13.977,5.604
	c1.741,0.988,3.26,1.973,4.564,2.997c0.157,0.152,0.321,0.271,0.442,0.361 M322.741,147.139c0.207-0.565,0.379-1.129,0.55-1.726
	c1.551-4.933,2.577-8.387,3.053-10.393c4.928-20.808,7.21-38.031,6.848-51.664c-0.523-19.575-7.817-34.98-21.856-46.286
	c-2.955-2.383-6.188-4.51-9.634-6.377 M301.845,30.035l-0.235,0.599 M183.583,33.376c1.472-0.88,3.005-1.763,4.569-2.582
	c9.343-4.764,20.437-8.021,33.313-9.794c4.378-0.523,9.007-0.927,13.83-1.21c1.362-0.069,2.739-0.106,4.138-0.143
	c0.434-0.012,0.836-0.021,1.239-0.064l1.217-0.032c0.84-0.022,1.648-0.044,2.454-0.034c21.382-0.571,39.06,2.414,53.095,8.983
	c1.415,0.678,2.806,1.389,4.171,2.133 M301.609,30.634c0.027,0.031,0.059,0.028,0.092,0.061 M301.701,30.694
	c0.088-0.222,0.112-0.439,0.144-0.66 M301.845,30.035c0.153-0.967,0.224-1.903,0.197-2.871c-0.206-7.749-6.196-13.909-17.93-18.456
	c-11.771-4.546-25.903-6.6-42.394-6.16c-8.189,0.218-15.8,1.016-22.833,2.417c-6.968,1.402-13.359,3.409-19.143,5.993
	c-11.512,5.167-17.165,11.636-16.959,19.385c0.028,1.028,0.147,2.051,0.392,3.076c0.035,0.058,0.07,0.121,0.071,0.149
	 M183.56,32.501l0.023,0.875 M246.656,176.014l11.63-0.557c1.462-0.101,2.919-0.202,4.352-0.334
	c3.357-0.244,6.588-0.586,9.724-1.006c6.486-0.766,12.406-1.799,17.824-3.065c12.225-2.909,18.27-6.15,18.172-9.762
	c-0.094-3.582-6.303-6.466-18.664-8.66c-7.61-1.386-16.135-2.312-25.608-2.71l-18.126,0.016l-0.719,0.019
	c-2.085,0.056-4.169,0.141-6.221,0.229l-4.294,0.207c-0.467,0.043-0.932,0.056-1.396,0.099c-0.221,0.005-0.438,0.012-0.651,0.05
	l-0.036,0.001c-11.968,0.846-22.575,2.312-31.77,4.455c-12.197,2.852-18.243,6.064-18.148,9.646
	c0.096,3.611,6.306,6.526,18.641,8.781c6.822,1.22,14.377,2.044,22.704,2.483l15.829,0.231c1.992-0.023,4.018-0.046,6.038-0.1"/>
<path fill="#CD0E19" d="M199.907,107.279c0.735,0.698,1.582,0.986,2.613,0.929h0.03c1.71-0.106,4.59-0.654,8.585-1.631
	c3.932-0.916,5.911-1.37,5.937-1.372c0.064-0.001,0.13-0.003,0.158-0.038c3.301-1.146,4.852-2.716,4.703-4.731
	c-0.014-0.596-0.124-1.151-0.325-1.61c0.188-0.041,0.4-0.139,0.618-0.237l9.477-3.088c1.794-0.515,2.663-1.78,2.607-3.805
	c-0.028-1.121-0.364-2.048-1.007-2.808l-0.028,0.002c-0.68-0.796-1.528-1.177-2.524-1.15c-0.375,0.009-0.684,0.048-0.931,0.088
	l-0.041-1.554l-7.067,0.188l0.1,3.703l-2.291,0.587c0.514-0.667,0.768-1.576,0.736-2.729c-0.015-0.559-0.087-1.056-0.258-1.517
	l-14.002,0.375c-2.193,0.74-3.694,1.404-4.523,2.015l0.03-0.001c-1.131,0.812-1.692,1.916-1.652,3.349
	c0.025,1.058,0.362,1.983,1.036,2.806c0.674,0.823,1.528,1.205,2.555,1.178c0.589-0.017,1.182-0.22,1.697-0.574l0.097-0.003
	c0.639-0.485,2.584-1.191,5.764-2.117l0.129,4.791c-4.857,1.286-8.201,1.994-10.031,2.14c-1.024,0.089-1.8,0.42-2.346,0.965
	c-0.153-4.763-3.37-8.444-9.637-11.079c-2.175-0.91-3.663-1.898-4.531-2.897l-7.467,0.198c0.863,4.27,4.032,7.582,9.515,9.928
	c3.21,1.377,4.869,2.797,4.998,4.195c-0.008,0.624-0.438,1.132-1.236,1.528c-0.705,0.36-1.54,0.572-2.505,0.599
	c-1.956,0.051-3.871-0.521-5.713-1.69l-0.032-0.024c-0.601-0.33-1.194-0.502-1.794-0.486c-0.957,0.026-1.76,0.454-2.455,1.282
	c-0.657,0.859-0.976,1.799-0.946,2.89c0.004,1.403,0.655,2.508,1.894,3.251l-0.033,0.001c3.043,1.941,6.086,2.859,9.137,2.778
	c2.8-0.075,5.237-0.982,7.281-2.717c1.25-1.031,2.182-2.21,2.768-3.5C199.168,106.332,199.491,106.854,199.907,107.279"/>
<path fill="#CD0E19" d="M229.815,106.516c0.806,0.789,1.686,1.169,2.588,1.145c0.996-0.027,1.859-0.516,2.546-1.47
	c2.851-3.875,5.181-6.648,6.976-8.285c0.035,2.646,0.198,5.258,0.485,7.872c0.223,2.388,1.372,3.573,3.491,3.517
	c1.122-0.03,1.979-0.458,2.613-1.318c0.69-0.797,0.944-1.829,0.787-3.104c-0.222-2.482-0.355-5.129-0.334-7.936
	c0.208,0.9,0.447,1.705,0.75,2.475c1.501,3.915,3.985,5.81,7.373,5.688c4.362-0.084,7.615-2.913,9.774-8.512
	c0.611-1.605,1.066-3.237,1.393-4.928c1.244,1.057,2.694,1.547,4.403,1.502c4.076-0.078,7.123-2.647,9.164-7.721
	c0.799,0.732,1.681,1.076,2.675,1.049c1.154,0.002,2.04-0.58,2.729-1.75L273.72,85.1c-0.335,0.196-0.707,0.3-1.11,0.31
	c-0.217,0.005-0.406-0.019-0.595-0.078l-0.035-0.03c-0.089-0.031-0.219-0.054-0.313-0.146l-9.71,0.258
	c0.061,2.302-0.281,4.648-0.996,7.004c-0.885,2.983-2.187,4.51-3.896,4.585c-0.247,0.008-0.464-0.019-0.688-0.074l-0.031,0.002
	c-0.904-0.285-1.419-1.955-1.503-5.037c-0.06-2.271,0.073-4.362,0.361-6.3l-12.632,0.336c-0.029,0.095-0.025,0.156-0.023,0.216
	l-0.258-0.208l-10.583,0.282l5.811,5.48c-2.09,1.893-4.753,5.05-8.002,9.401c-0.631,0.858-0.95,1.737-0.896,2.61
	C228.648,104.771,229.049,105.695,229.815,106.516"/>
<path fill="none" stroke="#CD0E19" stroke-width="0.9291" d="M229.815,106.516c0.806,0.789,1.686,1.169,2.588,1.145
	c0.996-0.027,1.859-0.516,2.546-1.47c2.851-3.875,5.181-6.648,6.976-8.285c0.035,2.646,0.198,5.258,0.485,7.872
	c0.223,2.388,1.372,3.573,3.491,3.517c1.122-0.03,1.979-0.458,2.613-1.318c0.69-0.797,0.944-1.829,0.787-3.104
	c-0.222-2.482-0.355-5.129-0.334-7.936c0.208,0.9,0.447,1.705,0.75,2.475c1.501,3.915,3.985,5.81,7.373,5.688
	c4.362-0.084,7.615-2.913,9.774-8.512c0.611-1.605,1.066-3.237,1.393-4.928c1.244,1.057,2.694,1.547,4.403,1.502
	c4.076-0.078,7.123-2.647,9.164-7.721c0.799,0.732,1.681,1.076,2.675,1.049c1.154,0.002,2.04-0.58,2.729-1.75L273.72,85.1
	c-0.335,0.196-0.707,0.3-1.11,0.31c-0.217,0.005-0.406-0.019-0.595-0.078l-0.035-0.03c-0.089-0.031-0.219-0.054-0.313-0.146
	l-9.71,0.258c0.061,2.302-0.281,4.648-0.996,7.004c-0.885,2.983-2.187,4.51-3.896,4.585c-0.247,0.008-0.464-0.019-0.688-0.074
	l-0.031,0.002c-0.904-0.285-1.419-1.955-1.503-5.037c-0.06-2.271,0.073-4.362,0.361-6.3l-12.632,0.336
	c-0.029,0.095-0.025,0.156-0.023,0.216l-0.258-0.208l-10.583,0.282l5.811,5.48c-2.09,1.893-4.753,5.05-8.002,9.401
	c-0.631,0.858-0.95,1.737-0.896,2.61C228.648,104.771,229.049,105.695,229.815,106.516z"/>
<path fill="#CD0E19" d="M288.268,102.714c-0.228-0.336-0.458-0.766-0.723-1.319c-0.727-1.507-1.799-2.258-3.264-2.22
	c-0.933,0.024-1.796,0.422-2.584,1.223c-0.757,0.828-1.137,1.803-1.104,2.957c0.018,0.653,0.189,1.302,0.514,1.948
	c1.918,4.094,4.31,6.05,7.14,5.945c3.017-0.051,6.215-1.755,9.545-5.116c4.372-4.347,6.424-10.29,6.161-17.849l-0.001-0.034
	c-0.067-1.371-0.196-2.67-0.41-3.943l-7.288,0.193c0.245,1.117,0.372,2.293,0.404,3.507c0.099,3.611-0.565,6.775-1.965,9.458
	C293.156,100.279,291.02,102.049,288.268,102.714"/>
<path fill="none" stroke="#CD0E19" stroke-width="0.9291" d="M288.268,102.714c-0.228-0.336-0.458-0.766-0.723-1.319
	c-0.727-1.507-1.799-2.258-3.264-2.22c-0.933,0.024-1.796,0.422-2.584,1.223c-0.757,0.828-1.137,1.803-1.104,2.957
	c0.018,0.653,0.189,1.302,0.514,1.948c1.918,4.094,4.31,6.05,7.14,5.945c3.017-0.051,6.215-1.755,9.545-5.116
	c4.372-4.347,6.424-10.29,6.161-17.849l-0.001-0.034c-0.067-1.371-0.196-2.67-0.41-3.943l-7.288,0.193
	c0.245,1.117,0.372,2.293,0.404,3.507c0.099,3.611-0.565,6.775-1.965,9.458C293.156,100.279,291.02,102.049,288.268,102.714z"/>
<path fill="#CD0E19" d="M242.571,85.931l12.632-0.336c0.237-1.627,0.636-3.162,1.122-4.612c0.845-2.264,1.841-3.442,2.991-3.567
	c0.156-0.004,0.279-0.006,0.437,0.02c1.35,0.433,2.072,3.058,2.2,7.885l0.003,0.093l9.707-0.259
	c-0.665-0.512-1.014-2.03-1.081-4.552c-0.103-3.887,0.362-7.326,1.404-10.313c0.785-2.106,1.723-3.191,2.808-3.313
	c0.124-0.002,0.248-0.007,0.405,0.018c1.256,0.401,1.948,2.877,2.067,7.391c0.06,2.21-0.258,4.459-0.941,6.72
	c-0.665,2.105-1.529,3.435-2.608,3.995l13.513-0.36c0.058-0.129,0.116-0.254,0.208-0.38c1.539-2.938,3.301-4.542,5.284-4.844
	c1.218-0.061,2.176,0.909,2.916,2.912c0.235,0.68,0.444,1.358,0.615,2.07l7.284-0.193c-0.449-2.76-1.268-5.198-2.444-7.35
	c-2.191-4.018-5.169-5.963-8.871-5.834c-3.146,0.054-5.967,1.651-8.437,4.772c0.041-0.781,0.048-1.56,0.029-2.366
	c-0.085-3.084-0.719-5.874-1.938-8.391c-1.749-3.752-4.353-5.585-7.806-5.46c-3.329,0.028-5.917,2.402-7.755,7.123
	c-0.698,1.792-1.208,3.675-1.558,5.614c-1.673-1.792-3.749-2.672-6.235-2.605c-3.09,0.022-5.557,1.984-7.443,5.896
	c0.086-0.281,0.106-0.501,0.101-0.688c-0.03-1.15-0.425-2.073-1.158-2.771c-0.704-0.696-1.553-1.05-2.522-1.024
	c-1.834,0.02-2.958,1.107-3.306,3.232l0.004,0.065C243.503,78.807,242.95,82.62,242.571,85.931"/>
<path fill="none" stroke="#CD0E19" stroke-width="0.9291" d="M242.571,85.931l12.632-0.336c0.237-1.627,0.636-3.162,1.122-4.612
	c0.845-2.264,1.841-3.442,2.991-3.567c0.156-0.004,0.279-0.006,0.437,0.02c1.35,0.433,2.072,3.058,2.2,7.885l0.003,0.093
	l9.707-0.259c-0.665-0.512-1.014-2.03-1.081-4.552c-0.103-3.887,0.362-7.326,1.404-10.313c0.785-2.106,1.723-3.191,2.808-3.313
	c0.124-0.002,0.248-0.007,0.405,0.018c1.256,0.401,1.948,2.877,2.067,7.391c0.06,2.21-0.258,4.459-0.941,6.72
	c-0.665,2.105-1.529,3.435-2.608,3.995l13.513-0.36c0.058-0.129,0.116-0.254,0.208-0.38c1.539-2.938,3.301-4.542,5.284-4.844
	c1.218-0.061,2.176,0.909,2.916,2.912c0.235,0.68,0.444,1.358,0.615,2.07l7.284-0.193c-0.449-2.76-1.268-5.198-2.444-7.35
	c-2.191-4.018-5.169-5.963-8.871-5.834c-3.146,0.054-5.967,1.651-8.437,4.772c0.041-0.781,0.048-1.56,0.029-2.366
	c-0.085-3.084-0.719-5.874-1.938-8.391c-1.749-3.752-4.353-5.585-7.806-5.46c-3.329,0.028-5.917,2.402-7.755,7.123
	c-0.698,1.792-1.208,3.675-1.558,5.614c-1.673-1.792-3.749-2.672-6.235-2.605c-3.09,0.022-5.557,1.984-7.443,5.896
	c0.086-0.281,0.106-0.501,0.101-0.688c-0.03-1.15-0.425-2.073-1.158-2.771c-0.704-0.696-1.553-1.05-2.522-1.024
	c-1.834,0.02-2.958,1.107-3.306,3.232l0.004,0.065C243.503,78.807,242.95,82.62,242.571,85.931z"/>
<path fill="#CD0E19" d="M177.867,85.411c0.021,0.779,0.1,1.526,0.248,2.239l7.468-0.2c-0.478-0.579-0.716-1.194-0.76-1.818
	c0.009-0.715,0.336-1.287,1.042-1.712c0.028,0,0.025-0.03,0.025-0.06c0.71-0.36,1.479-0.57,2.356-0.592
	c2.583-0.038,4.98,1.205,7.198,3.702c0.033,0.088,0.098,0.151,0.161,0.213l5.511-0.147c0.453-0.54,0.681-1.296,0.623-2.262
	c-0.018-0.652-0.22-1.331-0.588-2.072c0.218,0.03,0.47,0.052,0.688,0.047c0.843-0.023,1.575-0.416,2.275-1.151l-0.001-0.029
	c1.574-1.57,3.553-2.37,5.948-2.435c0.528-0.013,1.057,0.003,1.556,0.057l0.165,6.22c-1.853,0.52-3.463,0.997-4.781,1.469l14-0.374
	c-0.341-1.143-1.111-1.873-2.303-2.183l-0.193-7.218c0.086-0.346,0.138-0.722,0.127-1.094c-0.043-1.681-0.822-2.845-2.336-3.519
	c-2.041-0.819-4.204-1.199-6.505-1.138c-4.139,0.109-7.589,1.607-10.404,4.515h-0.034c-0.815,0.861-1.197,1.839-1.139,2.898
	l0.007,0.281c-0.478-0.363-0.985-0.724-1.554-1.082c-1.741-1.139-3.542-1.961-5.394-2.506l-0.029,0.002
	c-1.223-0.248-2.407-0.369-3.589-0.337c-2.769,0.075-5.055,0.975-6.84,2.735C178.779,79.814,177.786,82.333,177.867,85.411"/>
<path fill="#CD0E19" d="M201.117,87.037l-5.511,0.147c0.609,0.637,1.519,0.925,2.671,0.895
	C199.613,88.044,200.539,87.706,201.117,87.037"/>
<path fill="#CD0E19" d="M229.778,86.272l-0.052-1.989l1.98,1.939l10.583-0.282l-11.003-10.733c-0.574-0.484-1.172-0.779-1.827-0.856
	l-0.172-6.475l1.238-0.032c1.033-0.028,1.862-0.45,2.493-1.247l0.03-0.001c0.698-0.736,1.047-1.712,1.016-2.894
	c-0.031-1.179-0.433-2.168-1.171-2.926v0.031c-0.701-0.758-1.552-1.113-2.583-1.083c-2.016,0.052-4.22,0.423-6.633,1.111
	c-5.283,1.479-7.846,3.572-7.678,6.338c0.029,1.092,0.428,2.016,1.198,2.834c0.796,0.822,1.651,1.201,2.588,1.177
	c0.928,0.006,1.755-0.45,2.481-1.376l0.443,16.653L229.778,86.272z"/>
<path fill="#009FE8" d="M166.59,76.191c-2.121,4.85-3.798,9.82-4.976,14.931c-1.138,4.706-1.426,7.598-0.895,8.659l4.789,30.397
	c3.325,5.495,6.913,10.386,10.726,14.616c3.315,0.957,6.59,2.378,9.931,4.306c2.049,1.143,4.156,1.912,6.407,2.335
	c11.188,2.072,20.361,6.729,27.519,14.018c0.167,0.02,0.312,0.011,0.455,0.003c7.886-0.329,14.583-2.288,20.03-5.887
	c5.138-3.426,7.08-6.658,5.836-9.701c-3.238-7.742-7.96-11.232-14.216-10.43c-1.781,0.259-4.214,0.97-7.351,2.188
	c-0.808,0.309-1.558,0.587-2.271,0.803c0.875-0.387,1.82-0.93,2.894-1.574c3.575-2.04,6.785-4.589,9.604-7.679
	c7.909-8.529,9.351-16.631,4.378-24.292c-2.229-4.374-7.218-4.678-14.989-0.888c-8.176,5.003-13.107,7.854-14.763,8.609
	c9.412-7.755,15.534-14.167,18.402-19.175c4.782-8.298,3.678-15.747-3.351-22.35c-3.095-2.901-8.935-2.108-17.51,2.401
	c-7.874,4.193-12.441,7.749-13.659,10.676c1.021-5.586,1.281-10.849,0.728-15.807c-0.905-7.629-3.729-12.123-8.523-13.485
	C178.924,56.949,172.519,62.726,166.59,76.191"/>
<path fill="#009FE8" d="M192.572,151.436c-2.251-0.424-4.355-1.192-6.41-2.335c-3.338-1.928-6.615-3.351-9.928-4.306
	c5.234,5.776,10.911,10.417,17.043,13.857c8.569,4.854,17.528,7.136,26.813,6.801C212.937,158.165,203.761,153.508,192.572,151.436"
	/>
<path fill="#009FE8" d="M167.408,145.205l0.653,1.412c2.364,0.015,4.223,0.016,5.594,0.034c0.563-0.136,1.202-0.159,1.927-0.15
	c0.071,0.066,0.164,0.094,0.267,0.07c1.862-0.116,3.491-0.513,4.832-1.166l-1.751-3.661c-0.521-0.049-0.846-0.086-0.992-0.079
	c0.04-0.135,0.092-0.241,0.221-0.352c0.24-0.1,0.469-0.234,0.681-0.389c-0.941-0.529-1.823-1.08-2.712-1.642
	c-0.158-2.066,0.53-3.71,2.073-4.931c0.374-1.01,0.206-2.698-0.568-5.059c3.503-2.152,6.18-3.979,7.974-5.495
	c0.065-0.078,0.083-0.505,0.036-1.316c-0.367-0.052-0.577-0.086-0.596-0.112l-0.809,0.501c-1.45,0.978-3.94,2.398-7.438,4.24
	c-0.36-0.966-0.846-2.017-1.368-3.126c-0.984-2.128-3.251-6.44-6.807-12.866c0.604-0.535,1.708-1.73,3.358-3.548l-0.926-1.629
	c0.396-0.76,0.724-1.514,1.009-2.281l-0.383,0.332l-1.499-1.764l-2.853,1.97l-0.033-0.058c0.086-0.119,0.217-0.348,0.394-0.638
	l-2.325-3.34c-0.353,0.242-2.003,1.069-4.902,2.495c-0.258,0.149-0.518,0.292-0.745,0.427c-0.302,0.207-0.737,0.571-1.333,1.062
	c-0.881,0.579-1.502,1.009-1.896,1.312l-0.243-0.357c-0.281,0.238-0.539,0.455-0.744,0.691c-0.086,0.047-0.119,0.255-0.108,0.67
	c0,0.602-0.248,1.428-0.768,2.442l-0.811,0.577l2.32,3.338l2.775-1.845l0.001,0.261c-0.283,0.771-0.733,1.441-1.333,2.051
	c-0.007,0.045-0.04,0.063-0.056,0.105c-1.394,1.141-2.426,1.994-3.09,2.56c-1.152,0.17-2.356,0.247-3.568,0.181
	c-0.268-0.266-0.55-0.561-0.785-0.842c-0.042,0.059-0.096,0.095-0.127,0.11c-0.729,0.644-1.955,2.557-3.684,5.777l2.086,3.513
	c0.857-0.489,2.145-1.224,3.83-2.188c1.459-0.834,2.688-1.606,3.663-2.351l-0.093,0.428l-0.641,0.479l2.157,3.849
	c-0.777,1.427-1.41,2.584-1.938,3.455c-0.872,1.593-1.449,2.837-1.77,3.735l2.059,3.608c-0.544,0.576-0.893,0.962-1.027,1.188
	c-0.461,0.719-0.531,1.522-0.298,2.405l2.166,3.392c0.359,0.099,0.992,0.079,1.942-0.048c0.996-0.11,1.704-0.135,2.104-0.098
	l3.394,5.08l-0.896,0.621l0.521,0.921C164.372,147.587,165.652,146.246,167.408,145.205 M167.89,118.666l0.122,0.15
	c0.364,0.971,0.753,2.115,1.133,3.376c0.416,1.394,0.683,2.265,0.779,2.626l-0.871,0.535c-0.52-0.575-0.836-1.722-0.967-3.426
	C167.99,121.033,167.945,119.958,167.89,118.666"/>
<path fill="#00499C" d="M154.608,102.167c-0.184,0.144-0.27,0.191-0.296,0.209l1.933,2.727l0.244,0.355
	c0.391-0.303,1.016-0.733,1.896-1.312c0.596-0.491,1.031-0.854,1.333-1.062c0.014-0.047,0.039-0.063,0.071-0.077
	c0.307-0.329,0.368-0.746,0.225-1.268c-0.108-0.392-0.098-0.704-0.018-0.899l0.064-0.076c0.014-0.043,0.042-0.063,0.054-0.107
	c0.212-0.235,0.281-0.503,0.182-0.819l-0.084-0.333c0.091-0.772,0.41-2.739,0.99-5.912c0.549-3.156,1.441-6.508,2.709-10.072
	c1.262-3.564,2.227-6.123,2.86-7.736c0.61-1.525,1.3-2.906,2.047-4.125c1.563-2.445,3.116-4.508,4.723-6.142
	c0.385-0.449,0.79-0.87,1.198-1.291l-2.647-4.634c-1.61,1.491-3.164,3.359-4.701,5.644c-0.948,1.333-1.835,2.829-2.709,4.423
	l-0.188,0.072l-0.814,1.222c-0.03,0.089-0.05,0.182-0.063,0.225l-0.046-0.011l-0.041,0.059c-0.091,0.167-0.146,0.275-0.155,0.391
	l-0.012,0.047c-4.295,10.413-6.895,18.489-7.769,24.184c-0.035,0.209-0.084,0.385-0.148,0.611c0.003,0.077-0.009,0.12-0.019,0.163
	c-0.069,0.345-0.094,0.7-0.132,1.099c-0.059,0.035-0.118,0.063-0.172,0.101c0.032,0.056,0.096,0.095,0.154,0.136l-0.454,0.337
	c-0.174,0.362-0.222,0.882-0.104,1.538c0.104,0.584,0.096,0.97-0.074,1.14c-0.235,0.25-0.391,0.374-0.465,0.378
	c-0.065-0.041-0.099-0.053-0.161-0.018L154.608,102.167z M166.092,73.857c-0.017-0.025-0.046-0.084-0.033-0.127
	C166.046,73.773,166.075,73.833,166.092,73.857"/>
<path fill="#00499C" d="M175.58,146.499c-0.721-0.006-1.359,0.016-1.925,0.152c-0.98,0.211-1.724,0.637-2.271,1.33l1.403,3.064
	c1.696,0.515,2.983,0.839,3.89,1.042c0.32,0.086,0.617,0.138,0.894,0.173c0.969,0.96,1.777,1.717,2.384,2.241
	c0.385,0.347,0.773,0.621,1.098,0.857c0.049,0.086,0.078,0.144,0.082,0.21c0.914,0.805,1.884,1.578,2.949,2.375
	c0.473,0.375,0.969,0.777,1.507,1.188c2.534,1.852,5.309,3.723,8.343,5.515c7.596,4.609,16.488,6.516,26.618,5.738
	c1.355-0.089,2.72-0.225,4.019-0.398c1.246-0.142,2.433-0.325,3.628-0.553c0.035-0.016,0.058-0.028,0.116-0.064
	c0.709-0.289,1.33-0.457,1.831-0.512c0.011-0.046,0.009-0.118,0.017-0.166c1.19-0.375,2.335-0.765,3.474-1.225l-2.609-4.57
	c-0.765,0.319-1.516,0.592-2.257,0.831c-0.373-0.058-0.782,0.027-1.229,0.168c-0.4,0.156-0.724,0.258-0.997,0.379l-0.015-0.025
	l-0.966,0.359c-0.177,0.025-0.381,0.067-0.575,0.062c-1.185,0.11-2.305,0.138-3.383,0.188c-3.446,0.258-6.757,0.175-9.915-0.181
	c-3.191-0.341-7.046-1.321-11.59-2.902c-2.489-1.044-4.888-2.257-7.222-3.693c-1.62-0.967-3.192-2.005-4.716-3.146
	c-1.982-1.481-3.917-3.148-5.803-4.991c-0.138-0.11-0.276-0.221-0.399-0.372c-0.724-0.656-1.394-1.369-2.024-2.146
	c-0.015-0.031-0.052-0.087-0.068-0.118l-0.069,0.006c-0.11-0.126-0.238-0.282-0.348-0.411c-0.006,0.119,0.012,0.223,0.03,0.326
	c-0.786-0.119-2.007-0.334-3.631-0.661C175.745,146.595,175.653,146.566,175.58,146.499"/>
<path fill="#00499C" d="M234.648,132.963c-0.028,0.018-0.055,0.032-0.089,0.049c-3.055,3.072-6.392,5.732-10.088,7.957
	c-1.13,0.681-2.189,1.284-3.176,1.811c0.192,0.002,1.445-0.449,3.862-1.332c2.413-0.887,4.681-1.495,6.848-1.822
	c1.448-0.181,2.55-0.242,3.312-0.106c0.354,0.024,1,0.152,1.91,0.426c0.049,0.012,0.135,0.035,0.183,0.047l0.017,0.028
	c0.355,0.172,0.755,0.329,1.143,0.483l0.66,0.422c0.018,0.025,0.018,0.025,0.032,0.058c0.062,0.042,0.12,0.081,0.195,0.077
	l0.016,0.03l0.018,0.029l0.03,0.057c0.021,0.028,0.021,0.028,0.034,0.055c1.848,1.448,3.185,2.92,4.035,4.409
	c0.21,0.378,0.325,0.577,0.35,0.675c0.093,0.437,0.607,1.742,1.569,3.956l-0.017,0.043l0.02,0.031
	c0.38,0.995,0.408,2.042,0.065,3.105c-0.013,0.045-0.037,0.062-0.051,0.109c-0.809,1.37-2.036,2.679-3.681,3.914
	c-0.65,0.455-1.311,0.826-1.954,1.159c-3.131,1.748-6.108,3.182-8.866,4.263l2.609,4.57c4.078-1.567,7.714-3.488,10.979-5.805
	c2.129-1.522,3.793-3.114,5.015-4.834c0.237-1.234,0.609-2.583,1.05-4.007c-0.081-0.87-0.147-1.853-0.224-2.98
	c-0.029-0.248-0.033-0.519-0.044-0.736c-0.384-1.405-1.014-2.907-1.907-4.411c-2.911-4.972-5.913-7.845-9.04-8.677l-0.02-0.027
	c-0.122-0.01-0.759-0.134-1.95-0.367c-0.255-0.044-0.508-0.09-0.719-0.119c0.033-0.019,0.061-0.032,0.089-0.051
	c0.095-0.094,0.471-0.305,1.086-0.618c0.288-0.165,0.516-0.296,0.687-0.395c0.03-0.014,0.085-0.049,0.129-0.107
	c0.127-0.11,0.323-0.225,0.569-0.402c0.068-0.078,0.166-0.17,0.25-0.22c0.128-0.112,0.282-0.235,0.514-0.367
	c7.612-9.842,8.886-18.909,3.744-27.189c-2.594-5.008-6.645-6.866-12.104-5.604c0.808-1.299,1.584-2.612,2.228-3.929l0.02-0.047
	c4.336-9.069,3.105-16.746-3.653-23.009c-6.826-6.379-14.573-6.738-23.248-1.144c-3.518,2.273-6.559,4.383-9.062,6.307
	c0.247-2.757,0.19-5.716-0.146-8.9c-0.799-7.316-4.979-11.982-12.474-13.959c-4.666-1.396-9.109-0.15-13.307,3.722l2.643,4.635
	c2.87-2.813,5.809-3.917,8.861-3.273l0.018,0.027c0.242,0.09,0.541,0.149,0.819,0.179c0.016,0.028,0.016,0.028,0.045,0.012
	c1.941,0.41,3.549,1.312,4.883,2.712c1.82,1.727,2.893,4.073,3.244,7.017c0.016,0.223,0.024,0.439,0.081,0.601
	c0.168,0.89,0.306,1.872,0.364,2.976c0.529,5.042,0.138,10.46-1.15,16.311c1.332-3.11,6.173-7.123,14.524-12.075
	c0.645-0.332,1.275-0.692,1.875-1.035c0.47-0.307,0.925-0.639,1.391-0.944c2.486-1.566,4.809-2.476,7.035-2.764
	c3.603-0.992,6.271-0.693,8.021,0.845c3.327,2.841,5.331,6.02,6.02,9.491c0.773,3.01,0.306,6.309-1.398,9.97
	c-0.461,1.059-1,2.167-1.633,3.32c-0.7,1.233-1.583,2.534-2.631,3.889c0.044,0.016,0.105,0.058,0.153,0.066
	c-3.772,4.617-9.55,10.114-17.326,16.479c1.737-0.878,7.051-4.058,15.938-9.546c2.151-1.073,4.111-1.892,5.852-2.426l0.046,0.014
	c4.697-1.47,7.866-0.626,9.496,2.5c4.603,6.927,3.521,14.67-3.292,23.257l-0.046-0.012c-0.014,0.044-0.02,0.091-0.049,0.106
	c-0.047-0.012-0.104,0.02-0.152,0.008c-0.11,0.138-0.217,0.278-0.376,0.409C234.903,132.745,234.679,132.946,234.648,132.963"/>
<path fill="#009FE8" d="M41.92,58.334l-2.775,1.583C28.396,65.859,16.579,74.65,3.722,86.269
	c5.466,5.258,10.146,9.676,14.019,13.341c8.771,8.264,15.142,13.917,19.086,16.977c2.983,2.238,5.927,4.347,8.822,6.298
	c9.269,6.272,18.934,11.792,28.954,16.536c18.575,8.702,36.997,13.62,55.256,14.726c11.385,0.749,20.796,0.572,28.193-0.539
	c3.632-0.56,7.041-1.289,10.261-2.219l-0.173-0.504l0.726-0.26l0.219,0.516c3.07-0.917,5.963-2.037,8.679-3.323
	c5.766-2.721,8.543-4.035,8.363-3.935c-0.196,0.112,0.1,0.168,0.899,0.169c2.316-1.056,4.373-2.039,6.221-2.981l0.328-0.15
	l-1.008,0.083l8.441-4.132l-26.638-49.092l-13.731,5.104c-0.013,0.043-0.354-0.025-1.072-0.225c-0.749-0.175-1.135-0.26-1.166-0.245
	c-0.196,0.38-0.354,0.772-0.557,1.156c-0.356,0.767-0.769,1.234-1.189,1.433c-6.334,2.854-11.954,4.625-16.902,5.325
	c-3.762,0.515-9.041,0.566-15.832,0.157c-9.247-0.598-18.632-2.632-28.194-6.165c-8.146-3.05-16.344-7.125-24.62-12.263
	c-5.479-3.431-10.82-7.208-15.993-11.423L41.92,58.334z"/>
<path fill="#00398A" d="M169.085,151.139c-0.246,0.099-0.508,0.174-0.771,0.249l0.068,0.189l0.756-0.278L169.085,151.139z"/>
<path fill="#00398A" d="M168.313,151.387c0.264-0.074,0.525-0.149,0.771-0.249l-0.219-0.516l-0.726,0.26L168.313,151.387z"/>
<path fill="none" stroke="#00499C" stroke-width="5.2669" stroke-linecap="square" stroke-miterlimit="10" d="M3.724,86.267
	c5.466,5.258,10.144,9.678,14.018,13.343c8.768,8.263,15.142,13.917,19.085,16.977c2.98,2.238,5.931,4.347,8.823,6.298
	c9.267,6.272,18.939,11.793,28.958,16.536c18.571,8.702,36.993,13.62,55.251,14.727c11.384,0.748,20.792,0.571,28.194-0.54
	c3.627-0.56,7.041-1.289,10.261-2.219c0.264-0.074,0.525-0.149,0.771-0.249c3.07-0.917,5.963-2.037,8.679-3.323 M158.401,92.412
	c-0.198,0.38-0.352,0.772-0.555,1.156c-0.358,0.767-0.771,1.234-1.191,1.436c-6.334,2.851-11.956,4.622-16.902,5.322
	c-3.762,0.515-9.041,0.569-15.832,0.157c-9.247-0.598-18.632-2.632-28.197-6.165c-8.143-3.05-16.346-7.127-24.617-12.263
	c-5.479-3.431-10.82-7.208-15.993-11.423"/>
<line fill="none" stroke="#00499C" stroke-width="5.2669" stroke-linecap="round" stroke-miterlimit="10" x1="55.113" y1="70.631" x2="41.92" y2="58.334"/>
</svg>
