<?xml version="1.0" encoding="utf-8"?>
<!-- Generator: Adobe Illustrator 16.0.0, SVG Export Plug-In . SVG Version: 6.00 Build 0)  -->
<!DOCTYPE svg PUBLIC "-//W3C//DTD SVG 1.1//EN" "http://www.w3.org/Graphics/SVG/1.1/DTD/svg11.dtd">
<svg version="1.1" id="レイヤー_1" xmlns="http://www.w3.org/2000/svg" xmlns:xlink="http://www.w3.org/1999/xlink" x="0px"
	 y="0px" width="41.952px" height="64.691px" viewBox="0 0 41.952 64.691" enable-background="new 0 0 41.952 64.691"
	 xml:space="preserve">
<g>
	<path fill="#431C05" d="M40.391,2.908c0.245,0.789,0.357,1.193,0.361,1.205c0.101,0.425-0.17,1.147-0.842,2.155
		c-0.475,0.736-1.245,1.752-2.315,3.03l-0.611-0.458c-0.373-0.752-0.779-1.722-1.227-2.926c-0.307-0.841-0.602-1.421-0.891-1.752
		c0.229-0.26,0.533-0.712,0.916-1.345c0.384-0.623,0.647-1.103,0.794-1.414c0.172-0.007,0.68-0.043,1.505-0.124
		c0.462-0.024,0.847-0.067,1.131-0.1C39.685,1.561,40.085,2.138,40.391,2.908"/>
	
		<path fill="none" stroke="#6B3D1B" stroke-width="2.3579" stroke-linecap="round" stroke-linejoin="round" stroke-miterlimit="10" d="
		M40.391,2.908c-0.306-0.77-0.706-1.348-1.179-1.729c-0.284,0.033-0.669,0.076-1.131,0.1c-0.825,0.081-1.333,0.117-1.505,0.124
		c-0.146,0.312-0.41,0.791-0.794,1.414c-0.383,0.633-0.687,1.084-0.916,1.345c0.289,0.331,0.584,0.911,0.891,1.752
		c0.447,1.204,0.854,2.174,1.227,2.926c0.214,0.382,0.355,0.621,0.403,0.734c0.062-0.088,0.146-0.175,0.208-0.275
		c1.07-1.278,1.841-2.293,2.315-3.03c0.672-1.007,0.942-1.73,0.842-2.155C40.749,4.101,40.636,3.697,40.391,2.908z"/>
	<path fill="#984813" d="M28.309,18.792c-0.162-0.168,0.126-0.509-0.204-0.557c-0.222-0.029,0.09-0.401,0.261-0.545
		c0.169-0.16,0.362-0.224,0.571-0.208c0.193,0.004,0.366,0.083,0.527,0.253c0.162,0.168-0.195,0.292-0.195,0.513
		c-0.003,0.208,0.329,0.457,0.161,0.616c-0.173,0.144-0.364,0.208-0.57,0.206C28.646,19.054,28.467,18.96,28.309,18.792"/>
	<path fill="#984813" d="M27.511,13.157c-0.146-0.173-0.209-0.364-0.204-0.556c0.013-0.229,0.106-0.404,0.276-0.566
		c0.167-0.162,0.359-0.224,0.569-0.208c0.207,0,0.387,0.097,0.53,0.268c0.163,0.168,0.225,0.359,0.224,0.566
		c0.001,0.209-0.096,0.387-0.264,0.548c-0.165,0.161-0.329-0.518-0.552-0.516C27.88,12.673,27.671,13.324,27.511,13.157"/>
	<path fill="#B66D13" d="M32.427,31.158c0.084,0.136,0.229,0.445,0.415,0.93c0.173,0.498,0.353,0.887,0.575,1.16
		c0.275,0.363,0.702,0.708,1.324,1.058c0.763,0.368,1.33,0.644,1.723,0.843c1.458,0.748,2.32,1.677,2.591,2.787
		c0.24,0.992,0.298,2.083,0.154,3.271c-3.947,1.215-7.395,1.518-10.325,0.882c-1.832-0.382-3.361-0.718-4.593-1.026
		c-0.016-0.562-0.069-1.206-0.12-1.918c-0.188-2.195-0.046-3.816,0.436-4.883c0.728-1.625,2.354-2.743,4.845-3.348
		C31.034,30.53,32.037,30.615,32.427,31.158"/>
	
		<path fill="none" stroke="#6B3D1B" stroke-width="2.3579" stroke-linecap="round" stroke-linejoin="round" stroke-miterlimit="10" d="
		M32.843,32.091c0.172,0.495,0.353,0.882,0.574,1.155c0.275,0.365,0.702,0.71,1.324,1.06c0.763,0.368,1.33,0.644,1.723,0.843
		c1.458,0.748,2.32,1.677,2.589,2.787c0.242,0.99,0.3,2.083,0.156,3.271c-3.947,1.215-7.391,1.518-10.322,0.882
		c-1.835-0.382-3.366-0.719-4.596-1.023c-0.016-0.565-0.069-1.209-0.12-1.921c-0.188-2.195-0.044-3.816,0.438-4.883
		c0.726-1.625,2.35-2.743,4.843-3.348c1.582-0.384,2.585-0.299,2.976,0.245C32.511,31.296,32.657,31.604,32.843,32.091z"/>
	<path fill="#431C05" d="M31.098,32.429c0.395-0.423,0.74-0.784,0.998-1.069c0.808,0.271,1.768,0.675,2.865,1.22
		c0.507,0.307,0.964,0.56,1.341,0.76c0.317,0.737,0.777,1.572,1.377,2.549c0.281,0.449,0.534,0.854,0.771,1.192
		c-0.285,0.741-0.416,1.411-0.362,2c0.046,0.474,0.028,0.753-0.057,0.826c-0.612,0.597-1.676,0.839-3.171,0.718
		c-1.32-0.111-2.133-0.33-2.434-0.637c-0.993-1.049-1.7-2.035-2.094-2.956c-0.381-0.927-0.86-1.69-1.439-2.308
		C29.12,34.511,29.846,33.749,31.098,32.429"/>
	<path fill="#B66D13" d="M10.718,53.653c1.197-0.259,2.16-0.267,2.886-0.045c0.731,0.238,1.192,0.71,1.371,1.444
		c0.283,1.172,0.021,2.016-0.805,2.521c-0.328,0.217-1.125,0.48-2.38,0.786c-0.506,0.122-0.945,0.435-1.325,0.942
		c-0.373,0.521-0.952,1.402-1.696,2.669c-0.741,1.284-1.366,1.762-1.84,1.446c-0.473-0.315-1.253-1.541-2.327-3.695
		c-1.07-2.139-0.619-3.625,1.371-4.455C7.964,54.458,9.542,53.918,10.718,53.653"/>
	
		<path fill="none" stroke="#6B3D1B" stroke-width="2.3579" stroke-linecap="round" stroke-linejoin="round" stroke-miterlimit="10" d="
		M10.718,53.653c-1.177,0.266-2.754,0.806-4.745,1.614c-1.99,0.83-2.441,2.316-1.371,4.455c1.074,2.154,1.854,3.38,2.327,3.695
		c0.476,0.317,1.099-0.162,1.84-1.446c0.744-1.267,1.323-2.147,1.696-2.669c0.38-0.508,0.819-0.82,1.325-0.942
		c1.255-0.306,2.052-0.569,2.38-0.786c0.825-0.506,1.088-1.35,0.805-2.521c-0.179-0.734-0.64-1.206-1.371-1.444
		C12.878,53.386,11.916,53.394,10.718,53.653z"/>
	<path fill="#984813" d="M17.484,50.039c-0.051-0.213-0.647,0.043-0.535-0.139c0.111-0.182,0.285-0.312,0.499-0.365
		c0.227-0.055,0.426-0.016,0.608,0.096c0.182,0.111-0.151,0.758-0.098,0.971c0.049,0.209,0.473-0.061,0.361,0.121
		c-0.11,0.182-0.269,0.309-0.497,0.363c-0.213,0.051-0.428,0.018-0.61-0.094c-0.183-0.112-0.292-0.291-0.345-0.504L17.484,50.039z"
		/>
	<path fill="#984813" d="M0.027,63.403c-0.052-0.212-0.03-0.405,0.081-0.589c0.11-0.184,0.31,0.24,0.522,0.189
		c0.228-0.055,0.401-0.57,0.586-0.457c0.182,0.109,0.289,0.271,0.34,0.484c0.055,0.214,0.035,0.424-0.075,0.604
		c-0.115,0.181-0.271,0.308-0.499,0.362c-0.211,0.05-0.427,0.018-0.61-0.094C0.191,63.793,0.079,63.615,0.027,63.403"/>
</g>
</svg>
