<?xml version="1.0" encoding="utf-8"?>
<!-- Generator: Adobe Illustrator 16.0.0, SVG Export Plug-In . SVG Version: 6.00 Build 0)  -->
<!DOCTYPE svg PUBLIC "-//W3C//DTD SVG 1.1//EN" "http://www.w3.org/Graphics/SVG/1.1/DTD/svg11.dtd">
<svg version="1.1" id="レイヤー_1" xmlns="http://www.w3.org/2000/svg" xmlns:xlink="http://www.w3.org/1999/xlink" x="0px"
	 y="0px" width="30.759px" height="73.887px" viewBox="0 0 30.759 73.887" enable-background="new 0 0 30.759 73.887"
	 xml:space="preserve">
<g>
	<path fill="#431C05" d="M25.726,1.692c-0.705,0.428-1.058,0.655-1.068,0.662c-0.358,0.25-0.636,0.97-0.803,2.169
		c-0.133,0.866-0.23,2.137-0.278,3.804l0.762,0.062c0.777-0.315,1.726-0.771,2.859-1.372c0.788-0.425,1.395-0.664,1.828-0.718
		c0.001-0.348,0.074-0.889,0.208-1.615C29.36,3.963,29.481,3.432,29.58,3.1c-0.124-0.12-0.48-0.484-1.045-1.091
		c-0.328-0.325-0.589-0.612-0.779-0.827C27.149,1.154,26.467,1.322,25.726,1.692"/>
	
		<path fill="none" stroke="#6B3D1B" stroke-width="2.3579" stroke-linecap="round" stroke-linejoin="round" stroke-miterlimit="10" d="
		M25.726,1.692c0.741-0.37,1.424-0.539,2.03-0.51c0.19,0.214,0.451,0.501,0.779,0.827C29.1,2.616,29.456,2.98,29.58,3.1
		c-0.099,0.332-0.22,0.863-0.347,1.585C29.1,5.411,29.026,5.952,29.025,6.3c-0.434,0.054-1.04,0.293-1.828,0.718
		c-1.134,0.601-2.082,1.057-2.859,1.372c-0.414,0.144-0.679,0.227-0.789,0.282c0.011-0.107,0.005-0.229,0.027-0.344
		c0.048-1.667,0.146-2.938,0.278-3.804c0.167-1.199,0.444-1.92,0.803-2.169C24.668,2.347,25.021,2.12,25.726,1.692z"/>
	<path fill="#984813" d="M24.216,21.594c0.23-0.019,0.24-0.465,0.521-0.281c0.186,0.125,0.198-0.36,0.167-0.581
		c-0.02-0.232-0.121-0.408-0.291-0.536c-0.145-0.124-0.327-0.18-0.561-0.162c-0.231,0.019-0.047,0.35-0.193,0.516
		c-0.138,0.155-0.549,0.122-0.53,0.353c0.032,0.222,0.135,0.397,0.29,0.533C23.787,21.565,23.983,21.612,24.216,21.594"/>
	<path fill="#984813" d="M28.554,17.909c0.224-0.033,0.397-0.133,0.521-0.281c0.141-0.179,0.187-0.374,0.17-0.606
		c-0.02-0.232-0.121-0.407-0.289-0.534c-0.155-0.137-0.354-0.184-0.575-0.152c-0.232,0.019-0.405,0.12-0.541,0.274
		c-0.141,0.156-0.186,0.353-0.167,0.584c0.017,0.232,0.589-0.167,0.756-0.018C28.598,17.302,28.322,17.927,28.554,17.909"/>
	<path fill="#B66D13" d="M12.922,28.105c-0.151,0.045-0.464,0.181-0.927,0.42c-0.457,0.257-0.852,0.428-1.198,0.485
		c-0.449,0.087-0.997,0.061-1.692-0.088C8.29,28.69,7.684,28.52,7.258,28.408C5.67,28,4.408,28.12,3.469,28.771
		c-0.839,0.582-1.606,1.361-2.29,2.345c2.146,3.529,4.522,6.043,7.136,7.515c1.626,0.931,2.991,1.695,4.116,2.282
		c0.387-0.411,0.854-0.856,1.365-1.354c1.599-1.518,2.567-2.822,2.915-3.941c0.535-1.698,0.062-3.614-1.4-5.72
		C14.384,28.56,13.577,27.958,12.922,28.105"/>
	
		<path fill="none" stroke="#6B3D1B" stroke-width="2.3579" stroke-linecap="round" stroke-linejoin="round" stroke-miterlimit="10" d="
		M11.994,28.526c-0.456,0.256-0.851,0.426-1.197,0.484c-0.449,0.088-0.997,0.062-1.692-0.088c-0.815-0.232-1.421-0.402-1.847-0.514
		C5.67,28,4.408,28.121,3.47,28.772c-0.839,0.581-1.607,1.359-2.291,2.343c2.146,3.529,4.521,6.042,7.135,7.513
		c1.627,0.934,2.994,1.697,4.116,2.285c0.388-0.412,0.854-0.857,1.365-1.356c1.599-1.517,2.566-2.822,2.915-3.94
		c0.536-1.697,0.064-3.613-1.399-5.72c-0.927-1.337-1.733-1.94-2.389-1.792C12.771,28.151,12.458,28.286,11.994,28.526z"/>
	<path fill="#431C05" d="M13.074,29.939c-0.015-0.581-0.033-1.079-0.037-1.464c-0.783-0.333-1.77-0.668-2.952-0.991
		c-0.583-0.106-1.091-0.222-1.507-0.321c-0.726,0.34-1.626,0.66-2.722,0.991c-0.508,0.149-0.965,0.284-1.368,0.379
		c-0.28,0.744-0.626,1.332-1.058,1.734c-0.35,0.325-0.522,0.545-0.507,0.656c0.063,0.853,0.697,1.741,1.895,2.643
		c1.062,0.794,1.813,1.17,2.241,1.139c1.441-0.125,2.624-0.392,3.53-0.82c0.9-0.441,1.766-0.692,2.608-0.768
		C13.171,32.809,13.133,31.756,13.074,29.939"/>
	<path fill="#B66D13" d="M14.22,59.34c-0.723-0.988-1.438-1.634-2.127-1.951c-0.704-0.307-1.362-0.259-1.983,0.172
		c-0.99,0.688-1.354,1.49-1.073,2.419c0.1,0.379,0.522,1.106,1.259,2.167c0.295,0.427,0.416,0.955,0.362,1.585
		c-0.067,0.638-0.218,1.681-0.502,3.122c-0.299,1.453-0.148,2.225,0.415,2.304c0.562,0.077,1.959-0.32,4.194-1.218
		c2.22-0.889,2.87-2.299,1.933-4.24C15.745,61.77,14.924,60.32,14.22,59.34"/>
	
		<path fill="none" stroke="#6B3D1B" stroke-width="2.3579" stroke-linecap="round" stroke-linejoin="round" stroke-miterlimit="10" d="
		M14.22,59.34c0.704,0.98,1.525,2.43,2.478,4.359c0.938,1.941,0.287,3.352-1.933,4.24c-2.235,0.897-3.632,1.295-4.194,1.218
		c-0.565-0.078-0.714-0.851-0.415-2.304c0.284-1.441,0.435-2.484,0.502-3.122c0.054-0.63-0.067-1.158-0.362-1.585
		c-0.736-1.061-1.159-1.788-1.259-2.167c-0.281-0.929,0.083-1.731,1.073-2.419c0.621-0.431,1.279-0.479,1.983-0.172
		C12.782,57.706,13.497,58.352,14.22,59.34z"/>
	<path fill="#984813" d="M11.56,52.145c0.181-0.125,0.458,0.463,0.495,0.252c0.038-0.21-0.007-0.424-0.132-0.604
		c-0.133-0.191-0.308-0.295-0.519-0.333c-0.21-0.038-0.39,0.666-0.569,0.79c-0.178,0.123-0.314-0.359-0.354-0.15
		c-0.037,0.211-0.001,0.411,0.132,0.603c0.126,0.18,0.309,0.297,0.52,0.335s0.412-0.021,0.593-0.146L11.56,52.145z"/>
	<path fill="#984813" d="M15.741,73.729c0.18-0.125,0.293-0.283,0.33-0.494c0.039-0.211-0.392-0.024-0.516-0.204
		c-0.134-0.192,0.077-0.693-0.134-0.733c-0.211-0.036-0.398,0.014-0.579,0.138c-0.18,0.124-0.306,0.294-0.343,0.503
		c-0.035,0.211-0.001,0.409,0.133,0.602c0.123,0.18,0.308,0.297,0.517,0.336C15.359,73.913,15.562,73.853,15.741,73.729"/>
</g>
</svg>
