<?xml version="1.0" encoding="utf-8"?>
<!-- Generator: Adobe Illustrator 16.0.0, SVG Export Plug-In . SVG Version: 6.00 Build 0)  -->
<!DOCTYPE svg PUBLIC "-//W3C//DTD SVG 1.1//EN" "http://www.w3.org/Graphics/SVG/1.1/DTD/svg11.dtd">
<svg version="1.1" id="レイヤー_1" xmlns="http://www.w3.org/2000/svg" xmlns:xlink="http://www.w3.org/1999/xlink" x="0px"
	 y="0px" width="103.477px" height="81.857px" viewBox="0 0 103.477 81.857" enable-background="new 0 0 103.477 81.857"
	 xml:space="preserve">
<g>
	<g>
		<path fill="#4F2006" d="M79.566,12.832c-1.197,0-2.301-0.716-2.726-1.918l-0.053-0.146c-0.543-1.546,0.271-3.236,1.815-3.78
			c1.541-0.55,3.236,0.269,3.778,1.814c0.544,1.545-0.242,3.311-1.786,3.853C80.255,12.774,79.908,12.832,79.566,12.832z"/>
	</g>
	<g>
		<path fill="#B66D13" d="M98.711,27.722c-1.383-3.607-3.01-6.521-4.842-8.697c-1.83-2.125-4.296-4.251-7.509-6.275
			c-3.217-2.028-6.231-3.906-9.047-5.64c-2.912-1.726-6.415-2.813-10.576-3.305c-4.099-0.45-7.658-0.252-10.673,0.589
			c-4.597-0.05-9.147,0.048-13.646,0.294c-4.496,0.204-8.938,1.238-13.394,3.068c-4.496,1.878-7.365,3.704-8.601,5.485
			c-4.247,2.818-7.658,5.783-10.174,8.894c-4.596,5.537-6.824,12.306-6.729,20.267c0.052,8.006,1.983,14.281,5.696,18.875
			c3.746,4.595,6.469,7.764,8.197,9.542c1.729,1.73,4.244,3.063,7.561,3.902c3.311,0.943,6.822,1.783,10.528,2.52
			c3.652,0.793,7.265,1.185,10.822,1.236c3.608-0.052,6.917-0.342,9.987-0.888c3.009-0.595,6.222-1.383,9.731-2.376
			c3.51-1.033,8.054-2.418,13.69-4.199c5.581-1.784,10.078-4.795,13.489-9.048c3.411-4.199,5.537-10.077,6.374-17.541
			C100.394,36.962,100.098,31.38,98.711,27.722"/>
	</g>
	<g>
		<path fill="#6B3D1B" d="M46.327,81.857c-0.017,0-0.031,0-0.047,0c-3.926-0.053-7.71-0.48-11.56-1.311
			c-3.461-0.695-6.979-1.518-10.699-2.518c-3.846-1.041-6.892-2.676-9.062-4.853c-1.895-1.94-4.799-5.274-8.428-9.688
			c-4.289-5.237-6.479-12.343-6.53-21.115c-0.057-8.812,2.489-16.386,7.577-22.506c2.624-3.249,6.137-6.371,10.408-9.256
			c1.741-2.076,4.84-4.028,9.667-6.099c4.824-2.057,9.754-3.182,14.65-3.341c4.055-0.228,8.438-0.345,13.305-0.35
			c3.331-0.845,7.162-1.042,11.503-0.573c4.767,0.629,8.64,1.877,11.925,3.823c2.913,1.764,5.953,3.655,9.146,5.696
			c3.343,2.115,6.132,4.453,8.273,6.941c2.105,2.496,3.896,5.674,5.489,9.745c1.562,4.224,1.921,10.18,1.112,18.268
			c-0.967,8.131-3.357,14.625-7.107,19.363c-3.832,4.776-8.946,8.198-15.212,10.196c-5.628,1.794-10.212,3.189-13.745,4.187
			c-3.385,1.003-6.785,1.843-10.062,2.483C53.534,81.556,49.984,81.857,46.327,81.857z M62.672,6.949
			c-2.108,0-4.019,0.234-5.672,0.697c-0.306,0.083-0.62,0.126-0.936,0.126c-4.922,0-9.32,0.113-13.454,0.343
			c-4.113,0.136-8.199,1.074-12.222,2.789c-5.337,2.29-6.79,3.771-7.172,4.302c-0.246,0.349-0.559,0.649-0.915,0.885
			c-3.896,2.578-7.043,5.332-9.349,8.18C8.86,29.204,6.91,35.098,6.957,42.331c0.034,7.147,1.702,12.779,4.947,16.749
			c4.423,5.375,6.794,7.973,8.001,9.209c1.276,1.283,3.281,2.311,5.927,3.027c3.562,0.958,6.937,1.75,10.305,2.421
			c3.435,0.739,6.764,1.12,10.215,1.167c3.242,0,6.374-0.264,9.305-0.783c2.997-0.596,6.187-1.379,9.403-2.334
			c3.517-0.994,8.029-2.365,13.569-4.132c4.942-1.576,8.939-4.234,11.887-7.907c2.927-3.699,4.825-9.015,5.633-15.781
			c0.851-8.553,0.091-12.906-0.696-15.039c-1.272-3.242-2.727-5.859-4.287-7.712c-1.667-1.938-3.934-3.826-6.714-5.58
			c-3.153-2.019-6.144-3.88-8.987-5.6c-2.432-1.441-5.446-2.39-9.183-2.885C65.073,7.021,63.845,6.949,62.672,6.949z"/>
	</g>
	<g>
		<path fill="#431C05" d="M76.417,16.173c-0.197,0.15-0.396,0.345-0.551,0.5c-3.109,2.615-5.775,4.591-8.055,5.926
			c-0.738,0.446-1.233,0.792-1.428,0.99c-0.297,0.295-0.443,0.641-0.396,0.986c0.396,2.818,2.117,4.401,5.137,4.745
			c1.233,0.151,3.958-0.103,8.203-0.641c0.444-0.048,0.789-0.295,1.144-0.743c1.133-1.829,1.726-2.717,1.779-2.764
			c1.429-2.127,2.17-3.607,2.224-4.354c0.044-0.84,0.147-1.529,0.341-1.975c0.25-0.443-0.444-1.137-2.128-2.023
			C80.971,15.877,78.835,15.678,76.417,16.173"/>
	</g>
	<g>
		<path fill="#431C05" d="M54.083,43.586l1.335,0.646c1.831,0.044,4.057,0.044,6.723-0.05c1.931-0.048,3.312,0,4.148,0.198
			c0.352-0.496,1.044-1.235,1.979-2.273c0.985-0.989,1.777-1.732,2.322-2.175c-0.148-0.247-0.445-1.037-0.893-2.372
			c-0.239-0.743-0.444-1.388-0.59-1.83c-1.087-0.499-2.52-0.692-4.349-0.646c-1.732,0.146-2.571,0.203-2.619,0.203
			c-0.938,0.148-2.171,1.035-3.703,2.718C57.347,39.239,55.917,41.117,54.083,43.586"/>
	</g>
	<g>
		<path fill="#431C05" d="M33.649,15.814c-2.615,1.088-4.741,1.975-6.371,2.717c-3.116,1.433-4.593,2.52-4.495,3.31
			c0.099,0.545,0.589,1.141,1.526,1.777c1.146,0.792,1.932,1.633,2.478,2.523c0.443,0.841,1.134,1.184,1.977,1.04
			c1.037-0.15,3.165-0.35,6.371-0.641c2.275-0.248,4.554-0.94,6.818-2.129c0.496,0.202,0.938,0.396,1.384,0.596
			c0.105,0.047,0.205,0.097,0.252,0.146c0.148-0.049,0.393-0.146,0.646-0.243c0.789-0.351,2.024-0.99,3.704-2.029
			c-0.399-0.544-1.144-2.422-2.175-5.736c-0.938-2.816-1.732-4.446-2.322-4.838c-2.721,0.635-4.598,1.231-5.735,1.774
			C35.876,14.971,34.49,15.567,33.649,15.814"/>
	</g>
	<g>
		<path fill="#431C05" d="M28.735,47.785c-1.236-0.094-2.272-0.193-3.17-0.338c-1.531,0.687-3.409,1.376-5.674,2.023
			c-1.043,0.343-2.03,0.638-2.916,0.887c-0.549,1.292-1.288,2.325-2.133,3.07c-0.741,0.54-1.134,0.935-1.084,1.132
			c0.145,1.436,1.578,2.766,4.197,4.104c2.322,1.228,3.959,1.779,4.849,1.628c3.01-0.401,5.482-1.037,7.409-1.878
			c1.878-0.838,3.711-1.382,5.485-1.627c-0.104-0.547-0.246-2.329-0.444-5.34c-0.048-0.99-0.1-1.783-0.146-2.425
			C33.425,48.578,31.307,48.134,28.735,47.785"/>
	</g>
	<g>
		<path fill="#431C05" d="M82.666,57.721c-0.048-0.934-0.343-2.077-0.882-3.414c-1.089-2.37-2.521-3.85-4.255-4.445
			c-0.938-0.348-2.374-0.49-4.296-0.443c-4.205,4.745-6.681,7.51-7.421,8.35c-1.035,1.188-1.476,1.98-1.33,2.424
			c0.688,1.53,2.42,2.86,5.19,4.048c1.428,0.547,2.771,1,4.102,1.24c5.286-3.607,8.157-5.732,8.602-6.278
			C82.618,58.957,82.72,58.457,82.666,57.721"/>
	</g>
	<g>
		<path fill="#984813" d="M59.769,12.598c0.345-0.394,0.491-0.834,0.442-1.331c-0.046-0.499-0.344-0.891-0.784-1.139
			c-0.447-0.3-0.989-0.397-1.632-0.3c-0.646,0.057-1.143,0.3-1.48,0.693c-0.397,0.398-0.552,0.84-0.502,1.335
			c0.056,0.5,0.347,0.893,0.84,1.141c0.448,0.244,0.994,0.344,1.64,0.295C58.928,13.19,59.427,12.942,59.769,12.598"/>
	</g>
	<g>
		<path fill="#984813" d="M86.257,40.474c0.349-0.398,0.497-0.845,0.448-1.335c-0.052-0.495-0.345-0.888-0.79-1.134
			c-0.446-0.301-0.985-0.398-1.635-0.301c-0.645,0.053-1.141,0.301-1.486,0.697c-0.389,0.391-0.537,0.839-0.49,1.331
			c0.052,0.495,0.35,0.894,0.836,1.141c0.449,0.244,0.994,0.344,1.635,0.292C85.421,41.066,85.915,40.818,86.257,40.474"/>
	</g>
	<g>
		<path fill="#984813" d="M31.646,70.278c0.351-0.4,0.497-0.839,0.446-1.339c-0.043-0.49-0.341-0.887-0.785-1.137
			c-0.451-0.298-0.994-0.393-1.639-0.298c-0.643,0.056-1.139,0.298-1.488,0.698c-0.383,0.389-0.533,0.836-0.487,1.331
			c0.051,0.495,0.349,0.886,0.837,1.141c0.448,0.246,0.995,0.341,1.636,0.293C30.812,70.867,31.307,70.618,31.646,70.278"/>
	</g>
	<g>
		<path fill="#984813" d="M44.3,65.335c0.343-0.396,0.493-0.84,0.443-1.34c-0.047-0.49-0.337-0.886-0.792-1.132
			c-0.445-0.301-0.979-0.396-1.625-0.301c-0.646,0.055-1.145,0.301-1.485,0.697c-0.396,0.396-0.539,0.836-0.492,1.332
			c0.046,0.494,0.338,0.895,0.833,1.14c0.448,0.246,0.989,0.345,1.638,0.294C43.464,65.925,43.951,65.675,44.3,65.335"/>
	</g>
	<g>
		<path fill="#984813" d="M18.698,38.004c0.349-0.398,0.493-0.84,0.447-1.339c-0.052-0.495-0.345-0.888-0.79-1.134
			c-0.445-0.297-0.992-0.395-1.63-0.297c-0.646,0.053-1.142,0.297-1.483,0.693c-0.399,0.394-0.549,0.84-0.494,1.334
			c0.052,0.496,0.345,0.895,0.836,1.141c0.446,0.244,0.989,0.341,1.635,0.291C17.861,38.596,18.355,38.344,18.698,38.004"/>
	</g>
	<g>
		<path fill="#984813" d="M31.058,31.184c0.343-0.397,0.489-0.843,0.434-1.334c-0.043-0.496-0.341-0.894-0.782-1.139
			c-0.444-0.298-0.987-0.395-1.632-0.298c-0.643,0.05-1.135,0.298-1.486,0.694c-0.39,0.393-0.539,0.838-0.495,1.335
			c0.051,0.491,0.347,0.889,0.847,1.136c0.444,0.247,0.987,0.345,1.633,0.295C30.214,31.776,30.709,31.525,31.058,31.184"/>
	</g>
	<g>
		<path fill="#984813" d="M38.962,40.228c0.347-0.399,0.49-0.839,0.447-1.334c-0.053-0.495-0.348-0.888-0.79-1.137
			c-0.443-0.295-0.992-0.397-1.633-0.295c-0.641,0.044-1.141,0.295-1.481,0.688c-0.396,0.394-0.541,0.84-0.498,1.334
			c0.055,0.491,0.352,0.889,0.839,1.138c0.452,0.245,0.994,0.344,1.632,0.295C38.123,40.82,38.619,40.573,38.962,40.228"/>
	</g>
</g>
</svg>
