<?xml version="1.0" encoding="utf-8"?>
<!-- Generator: Adobe Illustrator 16.0.0, SVG Export Plug-In . SVG Version: 6.00 Build 0)  -->
<!DOCTYPE svg PUBLIC "-//W3C//DTD SVG 1.1//EN" "http://www.w3.org/Graphics/SVG/1.1/DTD/svg11.dtd">
<svg version="1.1" id="レイヤー_1" xmlns="http://www.w3.org/2000/svg" xmlns:xlink="http://www.w3.org/1999/xlink" x="0px"
	 y="0px" width="516.303px" height="317.256px" viewBox="0 0 516.303 317.256" enable-background="new 0 0 516.303 317.256"
	 xml:space="preserve">
<path fill="#4EBDEF" d="M510.062,155.405c0,21.708-5.689,40.751-17.082,59.563c-11.396,18.812-12.135,44.513-32.509,58.738
	c-20.375,14.227-49.93,26.724-76.867,34.682c-26.941,7.955-61.473,0.072-92.563,0.072s-64.701,6.363-91.641-1.595
	c-26.94-7.951-46.192-26.767-66.565-40.996c-20.375-14.224-25.064-34.239-36.46-53.049c-11.395-18.811-36.031-35.707-36.031-57.416
	c0-21.708-6.556-47.817,4.838-66.627c11.395-18.811,49.994-27.715,70.368-41.941c20.376-14.227,35.754-36.846,62.694-44.802
	c26.94-7.956,61.706,9.995,92.797,9.995s50.268,7.787,77.206,15.744c26.941,7.956,68.042-2.237,88.416,11.988
	c20.376,14.226,43.552,31.769,54.95,50.578C523.004,109.15,510.062,133.698,510.062,155.405z"/>
<path fill="#4EBDEF" d="M50.636,204.094c18.307,1.524,29.33,1.396,35.616,27.234c6.284,25.838,16.06,19.554,25.836,41.199
	c9.777,21.648-14.663,57.962-48.882,39.804c-34.218-18.155-69.833-16.757-62.15-53.069C8.737,222.949,33.876,202.698,50.636,204.094
	z"/>
</svg>
