<?xml version="1.0" encoding="utf-8"?>
<!-- Generator: Adobe Illustrator 16.0.0, SVG Export Plug-In . SVG Version: 6.00 Build 0)  -->
<!DOCTYPE svg PUBLIC "-//W3C//DTD SVG 1.1//EN" "http://www.w3.org/Graphics/SVG/1.1/DTD/svg11.dtd">
<svg version="1.1" id="レイヤー_1" xmlns="http://www.w3.org/2000/svg" xmlns:xlink="http://www.w3.org/1999/xlink" x="0px"
	 y="0px" width="165.539px" height="62.424px" viewBox="0 0 165.539 62.424" enable-background="new 0 0 165.539 62.424"
	 xml:space="preserve">
<g>
	
		<circle fill="#3D3A39" stroke="#3D3A39" stroke-width="4.4635" stroke-linecap="round" stroke-linejoin="round" stroke-miterlimit="10" cx="15.131" cy="19.307" r="12.899"/>
	<circle fill="#FFFFFF" cx="15.131" cy="19.307" r="12.899"/>
</g>
<g>
	
		<circle fill="#3D3A39" stroke="#3D3A39" stroke-width="4.4635" stroke-linecap="round" stroke-linejoin="round" stroke-miterlimit="10" cx="52.96" cy="47.292" r="12.899"/>
	<circle fill="#FFFFFF" cx="52.96" cy="47.292" r="12.899"/>
</g>
<g>
	
		<circle fill="#3D3A39" stroke="#3D3A39" stroke-width="4.4635" stroke-linecap="round" stroke-linejoin="round" stroke-miterlimit="10" cx="115.942" cy="33.275" r="12.899"/>
	<circle fill="#FFFFFF" cx="115.942" cy="33.275" r="12.899"/>
</g>
<g>
	
		<path fill="#3D3A39" stroke="#3D3A39" stroke-width="4.4635" stroke-linecap="round" stroke-linejoin="round" stroke-miterlimit="10" d="
		M144.293,3.774c6.271-3.376,14.096-1.027,17.471,5.244c3.375,6.276,1.029,14.098-5.244,17.473
		c-6.275,3.377-14.096,1.028-17.473-5.244C135.672,14.974,138.02,7.151,144.293,3.774z"/>
	<path fill="#FFFFFF" d="M144.293,3.774c6.271-3.376,14.096-1.027,17.471,5.244c3.375,6.276,1.029,14.098-5.244,17.473
		c-6.275,3.377-14.096,1.028-17.473-5.244C135.672,14.974,138.02,7.151,144.293,3.774z"/>
</g>
</svg>
