<?xml version="1.0" encoding="utf-8"?>
<!-- Generator: Adobe Illustrator 16.0.0, SVG Export Plug-In . SVG Version: 6.00 Build 0)  -->
<!DOCTYPE svg PUBLIC "-//W3C//DTD SVG 1.1//EN" "http://www.w3.org/Graphics/SVG/1.1/DTD/svg11.dtd">
<svg version="1.1" id="レイヤー_1" xmlns="http://www.w3.org/2000/svg" xmlns:xlink="http://www.w3.org/1999/xlink" x="0px"
	 y="0px" width="250.728px" height="476.513px" viewBox="0 0 250.728 476.513" enable-background="new 0 0 250.728 476.513"
	 xml:space="preserve">
<g>
	<path fill="#D52828" d="M107.048,356.849l0.105-1.68l-24.199-1.762l-0.172,1.635c-0.783,7.51-1.361,15.785-1.678,24.775
		l-0.322-0.023c-1.742-0.062-3.273,0.643-4.57,2.107H76.19v0.016c-1.172,1.344-1.807,2.959-1.869,4.877
		c-0.066,1.936,0.465,3.592,1.553,5.021l-0.021-0.027c1.188,1.6,2.676,2.406,4.443,2.426h0.02l0.447,0.025
		c-0.021,1.654-0.021,3.336-0.043,5.055c-1.51,0.09-2.85,0.789-3.996,2.086h-0.021v0.02c-1.172,1.344-1.809,2.959-1.869,4.869
		c-0.066,1.939,0.463,3.596,1.547,5.021l-0.018-0.021c1.209,1.594,2.699,2.404,4.465,2.422c0,1.148,0.02,2.236,0.043,3.277
		c-1.572,0.064-2.959,0.768-4.146,2.105h-0.021v0.021c-1.172,1.338-1.809,2.955-1.869,4.871c-0.023,0.275,0,0.572,0.018,0.846
		c-20.285-4.568-37.471-4.549-51.545,0.029c-6.848,2.182-12.102,5.266-15.736,9.229c-3.699,3.975-5.316,8.16-4.871,12.564v0.018
		c0.361,4.514,2.854,8.486,7.465,11.959h0.021c4.697,3.521,11.141,6.01,19.373,7.461h0.02c19.459,3.398,44.893,0.461,76.256-8.805
		c1.342-0.088,1.891-3.342,1.684-9.764v-0.018c-0.258-5.977-0.469-11.334-0.643-16.098c0.49-0.318,0.98-0.746,1.428-1.234
		c0-0.025,0-0.025,0.02-0.025c1.193-1.334,1.832-2.994,1.891-4.928c0.066-1.939-0.441-3.598-1.529-5.021
		c-0.682-0.871-1.445-1.488-2.273-1.891c-0.066-1.426-0.105-2.854-0.131-4.252c0.727-0.363,1.406-0.879,2.023-1.576
		c0-0.02,0-0.02,0.02-0.02c1.193-1.34,1.832-3,1.891-4.939c0.066-1.928-0.441-3.594-1.529-5.014
		c-0.766-0.977-1.635-1.658-2.613-2.041c-0.02-2.023-0.041-4.045-0.041-6.021c0.654-0.357,1.254-0.848,1.781-1.482
		c1.189-1.342,1.83-2.982,1.895-4.916c0.066-1.932-0.445-3.596-1.531-5.02c-0.613-0.787-1.299-1.361-2.041-1.762
		C106.278,372.735,106.599,364.612,107.048,356.849 M102.71,382.284v0.043c1.17,0.594,2.105,1.463,2.848,2.594
		c0.406,0.617,0.637,1.275,0.746,1.98c0.189,1.465-0.109,2.805-0.852,4.021c-0.617,0.996-1.467,1.764-2.512,2.311
		c-0.127,0.047-0.23,0.066-0.32,0.066c0,2.23-0.041,4.527-0.102,6.867l-0.041-0.084v1.637v0.066h0.016
		c0.127,0.02,0.26,0.02,0.402,0.037c1.385,0.303,2.449,1.068,3.213,2.322c0.619,0.996,0.896,2.084,0.787,3.25
		c-0.021,0.195-0.039,0.385-0.082,0.617c-0.234,1.385-0.85,2.555-1.871,3.508c-0.596,0.555-1.297,0.982-2.086,1.262v0.232
		c0.021,1.549-0.043,3.146-0.236,4.822v-0.188l-0.143,1.762v0.107c0.74,0.234,1.547,0.744,2.422,1.555
		c0.572,0.51,0.977,0.977,1.209,1.379c0.512,0.746,0.748,1.617,0.705,2.617v0.043v0.064v0.209v0.277
		c-0.234,1.26-0.744,2.359-1.533,3.361c-0.508,0.637-1.125,1.129-1.85,1.467v0.127c0.191,5.004,0.406,10.652,0.682,16.996
		c0.15,4.168,0.402,6.293,0.762,6.396c-30.725,9.082-55.65,11.992-74.725,8.695c-7.588-1.336-13.584-3.617-17.945-6.822
		c-3.719-2.787-5.762-5.953-6.127-9.547c-0.295-3.469,1.02-6.785,3.977-9.955c3.32-3.553,8.086-6.312,14.293-8.312
		c14.207-4.555,31.686-4.316,52.439,0.697l2.68,0.619l0.107,0.025c-0.406-0.236-0.723-0.645-0.98-1.217
		c-0.318-0.66-0.486-1.445-0.529-2.336c-0.086-1.129,0.082-2.215,0.484-3.303c0.475-1.203,1.279-2.102,2.402-2.697
		c1.023-0.529,2.084-0.895,3.172-1.043c0.062-0.021,0.129-0.021,0.189-0.021v-0.104c-0.061-1.934-0.082-4.127-0.105-6.572v-0.018
		h-0.338c-1.127,0-2.232-0.445-3.318-1.32c-0.402-0.322-0.723-0.68-0.998-1.043c-0.172-0.15-0.322-0.316-0.471-0.51v-0.023
		c-0.613-0.785-0.912-1.719-0.85-2.805c0.021-0.445,0.086-0.857,0.191-1.236c0.428-1.037,1.043-1.934,1.873-2.635
		c1.125-0.936,2.4-1.447,3.826-1.51v-0.275c0-2.748,0.021-5.443,0.062-8.057h-0.146c-1.402,0.037-2.68-0.387-3.848-1.281
		c-1.088-0.828-1.873-1.914-2.359-3.248c-0.088-0.408-0.131-0.811-0.111-1.238c0.023-0.615,0.15-1.188,0.365-1.68
		c0.256-0.402,0.531-0.809,0.828-1.189c0.428-0.555,0.955-1,1.594-1.342c1.256-0.617,2.549-0.977,3.934-1.062v-0.066
		c0.277-8.906,0.811-17.074,1.553-24.537l17.564,1.275C103.112,365.956,102.839,373.946,102.71,382.284"/>
	<path fill="#D57998" d="M102.71,382.327v-0.043l-18.27-0.637c-1.385,0.084-2.678,0.443-3.934,1.061
		c-0.639,0.342-1.166,0.787-1.594,1.342c-0.297,0.381-0.572,0.787-0.828,1.189c-0.215,0.492-0.344,1.064-0.365,1.68
		c-0.02,0.428,0.021,0.83,0.111,1.238c0.486,1.338,1.271,2.424,2.359,3.248c1.168,0.895,2.445,1.318,3.848,1.281h0.146
		c0.045-0.023,0.086-0.023,0.127-0.023l18.309,0.637c0.09,0,0.193-0.02,0.32-0.066c1.045-0.547,1.895-1.314,2.512-2.311
		c0.742-1.217,1.041-2.557,0.852-4.021c-0.109-0.705-0.34-1.363-0.746-1.98C104.815,383.79,103.88,382.921,102.71,382.327"/>
	<path fill="#DC640F" d="M102.71,382.284c0.129-8.338,0.402-16.328,0.848-23.967l-17.564-1.275
		c-0.742,7.463-1.275,15.631-1.553,24.537v0.066L102.71,382.284z"/>
	<path fill="#DC640F" d="M102.478,400.083l0.041,0.084c0.059-2.34,0.102-4.637,0.102-6.867l-18.309-0.637
		c-0.041,0-0.082,0-0.125,0.023c-0.039,2.613-0.064,5.309-0.064,8.057v0.275l0.148,0.021c0.023,0.02,0.062,0.041,0.107,0.064
		l18.1,0.615V400.083z"/>
	<path fill="#D57998" d="M102.478,401.786v-0.066l-18.1-0.615c-0.045-0.023-0.084-0.045-0.107-0.064l-0.148-0.018
		c-1.426,0.059-2.701,0.57-3.826,1.506c-0.83,0.701-1.447,1.598-1.871,2.635c-0.107,0.379-0.17,0.791-0.193,1.236
		c-0.062,1.086,0.238,2.02,0.85,2.805v0.023c0.148,0.193,0.301,0.359,0.471,0.51c0.275,0.363,0.594,0.721,0.998,1.043
		c1.086,0.875,2.191,1.32,3.318,1.32h0.338v0.018l18.65,0.664c0.787-0.279,1.49-0.707,2.086-1.262
		c1.021-0.953,1.637-2.123,1.871-3.508c0.041-0.232,0.061-0.422,0.08-0.617c0.111-1.166-0.168-2.254-0.783-3.25
		c-0.768-1.254-1.83-2.02-3.213-2.322c-0.146-0.018-0.277-0.018-0.402-0.037H102.478z"/>
	<path fill="#DC640F" d="M102.856,413.015v-0.232l-18.65-0.664c0.023,2.445,0.043,4.637,0.105,6.572v0.104l18.166,0.617l0.143-1.762
		v0.188C102.813,416.161,102.878,414.563,102.856,413.015"/>
	<path fill="#D57998" d="M106.813,425.663v-0.277v-0.209v-0.064v-0.043c0.041-1-0.193-1.875-0.705-2.617
		c-0.232-0.402-0.639-0.869-1.211-1.379c-0.871-0.811-1.68-1.32-2.42-1.555v-0.107l-18.166-0.617c-0.062,0-0.127,0-0.188,0.021
		c-1.086,0.148-2.148,0.514-3.172,1.043c-1.125,0.596-1.934,1.494-2.4,2.703c-0.4,1.082-0.574,2.168-0.488,3.297
		c0.043,0.887,0.209,1.676,0.529,2.336c0.256,0.572,0.574,0.98,0.98,1.217l-0.107-0.025c0.086,0.025,0.17,0.062,0.256,0.104
		c0.146,0.047,0.293,0.092,0.469,0.131c0.02,0,0.062,0,0.125,0.021c0.17,0.02,0.363,0.045,0.553,0.045l22.561,0.805
		c0.727-0.338,1.342-0.83,1.85-1.467C106.069,428.022,106.579,426.923,106.813,425.663"/>
	<path fill="#DC640F" d="M103.431,430.618v-0.127l-22.561-0.805c-0.193,0-0.383-0.025-0.555-0.045
		c-0.062-0.021-0.105-0.021-0.125-0.021c-0.17-0.037-0.322-0.084-0.471-0.129c-0.082-0.043-0.168-0.08-0.254-0.105l-2.68-0.617
		c-20.754-5.016-38.232-5.254-52.439-0.699c-6.207,2-10.973,4.76-14.293,8.312c-2.957,3.17-4.271,6.486-3.977,9.955
		c0.365,3.594,2.404,6.76,6.127,9.547c4.361,3.207,10.357,5.486,17.945,6.822c19.074,3.297,44,0.387,74.725-8.695
		c-0.359-0.104-0.611-2.229-0.762-6.396C103.837,441.271,103.622,435.622,103.431,430.618"/>
	<path fill="#D52828" d="M20.624,445.208c-2.193,2.744-3.02,5.85-2.512,9.314c0.514,3.488,2.193,6.189,5.066,8.123
		c3.229,2.191,7.246,2.83,12.074,1.957l-0.254-0.127c-3.998,0-7.207-1.084-9.613-3.277c-2.125-1.938-3.316-4.422-3.574-7.484
		c-0.254-2.961,0.451-5.721,2.084-8.336c1.727-2.744,4.193-4.68,7.404-5.785C26.603,440.255,23.024,442.126,20.624,445.208"/>
	<path fill="#D52828" d="M150.863,365.925l0.105-1.68l-24.198-1.766l-0.172,1.639c-0.789,7.506-1.361,15.777-1.682,24.768
		l-0.32-0.02c-1.744-0.061-3.271,0.639-4.566,2.109h-0.025v0.018c-1.17,1.344-1.809,2.959-1.871,4.871
		c-0.066,1.939,0.469,3.598,1.553,5.021l-0.023-0.018c1.193,1.588,2.68,2.398,4.443,2.416h0.025l0.443,0.025
		c-0.018,1.658-0.018,3.336-0.041,5.057c-1.508,0.086-2.852,0.789-3.994,2.084h-0.025v0.023c-1.17,1.34-1.807,2.957-1.867,4.871
		c-0.066,1.938,0.467,3.592,1.549,5.021l-0.016-0.025c1.207,1.596,2.701,2.406,4.461,2.426c0,1.148,0.02,2.232,0.045,3.273
		c-1.578,0.068-2.961,0.766-4.146,2.105h-0.025v0.016c-1.17,1.346-1.807,2.963-1.867,4.881c-0.023,0.27,0,0.572,0.018,0.85
		c-20.289-4.572-37.471-4.553-51.547,0.018c-6.846,2.189-12.1,5.275-15.734,9.229c-3.705,3.977-5.316,8.168-4.871,12.568v0.018
		c0.365,4.512,2.85,8.49,7.467,11.951h0.018c4.703,3.533,11.143,6.02,19.373,7.469h0.02c19.459,3.4,44.895,0.465,76.26-8.805
		c1.342-0.086,1.893-3.34,1.68-9.762v-0.021c-0.252-5.975-0.467-11.332-0.639-16.1c0.488-0.316,0.98-0.742,1.424-1.234
		c0-0.016,0-0.016,0.025-0.016c1.189-1.344,1.828-3.004,1.889-4.941c0.064-1.93-0.443-3.586-1.527-5.014
		c-0.684-0.869-1.453-1.49-2.277-1.893c-0.062-1.422-0.104-2.848-0.129-4.254c0.721-0.357,1.408-0.867,2.02-1.574
		c0-0.018,0-0.018,0.025-0.018c1.189-1.34,1.828-3,1.889-4.936c0.064-1.932-0.443-3.594-1.527-5.018
		c-0.766-0.98-1.639-1.662-2.619-2.045c-0.021-2.018-0.043-4.039-0.043-6.016c0.656-0.361,1.254-0.848,1.787-1.486
		c1.195-1.342,1.834-2.975,1.891-4.914c0.068-1.938-0.445-3.594-1.527-5.018c-0.617-0.787-1.299-1.363-2.039-1.762
		C150.095,381.81,150.416,373.685,150.863,365.925 M146.521,391.354v0.047c1.172,0.588,2.107,1.463,2.852,2.594
		c0.404,0.617,0.641,1.281,0.748,1.975c0.189,1.471-0.107,2.809-0.852,4.018c-0.617,1.004-1.471,1.77-2.512,2.318
		c-0.127,0.045-0.236,0.068-0.32,0.068c0,2.232-0.041,4.525-0.102,6.865l-0.045-0.084v1.639v0.064h0.021
		c0.125,0.021,0.254,0.021,0.404,0.041c1.381,0.297,2.443,1.066,3.209,2.318c0.617,1.002,0.891,2.084,0.785,3.256
		c-0.02,0.191-0.037,0.383-0.082,0.613c-0.23,1.383-0.852,2.557-1.873,3.508c-0.594,0.553-1.295,0.979-2.08,1.258v0.23
		c0.02,1.557-0.045,3.15-0.238,4.828v-0.189l-0.146,1.762v0.109c0.746,0.238,1.553,0.746,2.424,1.551
		c0.574,0.512,0.979,0.98,1.211,1.385c0.514,0.744,0.748,1.615,0.703,2.611v0.047v0.061v0.211v0.277
		c-0.23,1.256-0.746,2.365-1.533,3.361c-0.512,0.641-1.123,1.125-1.852,1.465v0.133c0.195,4.994,0.406,10.65,0.684,16.992
		c0.146,4.166,0.402,6.293,0.768,6.404c-30.731,9.076-55.651,11.992-74.729,8.689c-7.592-1.336-13.584-3.615-17.949-6.824
		c-3.719-2.787-5.76-5.955-6.121-9.547c-0.301-3.465,1.02-6.783,3.979-9.955c3.314-3.551,8.08-6.311,14.287-8.314
		c14.207-4.553,31.686-4.316,52.439,0.705l2.684,0.617l0.102,0.018c-0.404-0.234-0.721-0.635-0.975-1.209
		c-0.322-0.66-0.49-1.447-0.535-2.338c-0.084-1.127,0.084-2.221,0.488-3.297c0.471-1.217,1.275-2.109,2.402-2.699
		c1.023-0.537,2.09-0.896,3.172-1.049c0.062-0.021,0.129-0.021,0.189-0.021v-0.105c-0.061-1.93-0.08-4.121-0.105-6.572v-0.02h-0.344
		c-1.125,0-2.232-0.445-3.312-1.316c-0.402-0.318-0.727-0.682-1.004-1.041c-0.166-0.148-0.314-0.318-0.463-0.512v-0.018
		c-0.619-0.789-0.914-1.727-0.852-2.811c0.021-0.443,0.082-0.852,0.189-1.234c0.428-1.041,1.047-1.932,1.873-2.635
		c1.127-0.936,2.402-1.441,3.828-1.508v-0.279c0-2.742,0.018-5.447,0.062-8.059h-0.146c-1.404,0.041-2.682-0.381-3.848-1.277
		c-1.088-0.828-1.877-1.914-2.365-3.254c-0.084-0.402-0.129-0.805-0.104-1.234c0.02-0.619,0.146-1.188,0.357-1.676
		c0.26-0.41,0.533-0.811,0.828-1.197c0.432-0.545,0.965-0.992,1.598-1.336c1.258-0.615,2.553-0.98,3.936-1.064v-0.059
		c0.273-8.912,0.807-17.082,1.553-24.543l17.567,1.273C146.927,375.024,146.65,383.022,146.521,391.354"/>
	<path fill="#D57998" d="M146.521,391.401v-0.047l-18.264-0.637c-1.383,0.084-2.678,0.449-3.936,1.064
		c-0.633,0.344-1.166,0.791-1.598,1.336c-0.295,0.387-0.568,0.787-0.828,1.197c-0.213,0.488-0.338,1.057-0.357,1.676
		c-0.025,0.43,0.02,0.832,0.104,1.234c0.488,1.34,1.277,2.426,2.365,3.254c1.166,0.896,2.439,1.318,3.848,1.277h0.146
		c0.047-0.023,0.088-0.023,0.127-0.023l18.309,0.641c0.084,0,0.193-0.023,0.32-0.068c1.041-0.549,1.895-1.314,2.512-2.318
		c0.744-1.209,1.041-2.547,0.852-4.018c-0.107-0.697-0.344-1.357-0.748-1.975C148.628,392.864,147.693,391.989,146.521,391.401"/>
	<path fill="#DC640F" d="M146.521,391.354c0.129-8.332,0.406-16.33,0.855-23.965l-17.567-1.273
		c-0.746,7.461-1.279,15.631-1.553,24.543v0.059L146.521,391.354z"/>
	<path fill="#DC640F" d="M146.289,409.155l0.045,0.084c0.061-2.34,0.105-4.633,0.105-6.865l-18.309-0.641
		c-0.043,0-0.082,0-0.127,0.023c-0.045,2.611-0.064,5.316-0.064,8.059v0.279l0.148,0.02c0.02,0.018,0.062,0.047,0.102,0.062
		l18.1,0.617V409.155z"/>
	<path fill="#D57998" d="M146.289,410.858v-0.064l-18.1-0.617c-0.039-0.016-0.082-0.045-0.102-0.062l-0.148-0.023
		c-1.428,0.07-2.701,0.576-3.826,1.512c-0.828,0.703-1.451,1.594-1.873,2.635c-0.105,0.383-0.17,0.791-0.195,1.234
		c-0.059,1.084,0.242,2.021,0.854,2.807v0.021c0.15,0.193,0.301,0.361,0.465,0.512c0.279,0.359,0.6,0.723,1.004,1.041
		c1.08,0.871,2.188,1.316,3.312,1.316h0.344v0.018l18.653,0.666c0.785-0.279,1.486-0.705,2.084-1.258
		c1.018-0.951,1.637-2.125,1.869-3.508c0.043-0.23,0.062-0.422,0.082-0.615c0.105-1.17-0.168-2.254-0.783-3.254
		c-0.768-1.252-1.83-2.021-3.211-2.318c-0.154-0.021-0.277-0.021-0.402-0.041H146.289z"/>
	<path fill="#DC640F" d="M146.675,422.083v-0.23l-18.653-0.664c0.025,2.451,0.045,4.643,0.109,6.572v0.105l18.159,0.617l0.15-1.762
		v0.189C146.63,425.233,146.695,423.64,146.675,422.083"/>
	<path fill="#D57998" d="M150.628,434.735v-0.277v-0.211v-0.061v-0.047c0.043-0.996-0.189-1.867-0.703-2.611
		c-0.232-0.404-0.639-0.873-1.215-1.385c-0.867-0.805-1.678-1.312-2.422-1.551v-0.109l-18.159-0.617c-0.064,0-0.129,0-0.189,0.021
		c-1.084,0.152-2.15,0.512-3.172,1.049c-1.127,0.59-1.934,1.482-2.404,2.699c-0.404,1.076-0.57,2.17-0.49,3.297
		c0.045,0.891,0.215,1.678,0.537,2.338c0.254,0.574,0.57,0.975,0.975,1.209l-0.102-0.018c0.078,0.018,0.166,0.064,0.25,0.104
		c0.152,0.039,0.299,0.088,0.473,0.125c0.018,0,0.059,0,0.123,0.023c0.168,0.023,0.363,0.043,0.553,0.043l22.563,0.805
		c0.727-0.34,1.338-0.824,1.85-1.465C149.884,437.101,150.396,435.991,150.628,434.735"/>
	<path fill="#DC640F" d="M147.246,439.694v-0.135l-22.563-0.803c-0.189,0-0.385-0.02-0.553-0.043
		c-0.064-0.023-0.105-0.023-0.123-0.023c-0.174-0.037-0.32-0.086-0.473-0.125c-0.084-0.039-0.172-0.09-0.25-0.104l-2.682-0.617
		c-20.756-5.021-38.234-5.258-52.438-0.705c-6.211,2.004-10.977,4.764-14.293,8.314c-2.957,3.172-4.277,6.49-3.977,9.949
		c0.357,3.598,2.4,6.766,6.121,9.553c4.363,3.209,10.359,5.488,17.949,6.824c19.076,3.303,43.998,0.387,74.729-8.689
		c-0.365-0.111-0.619-2.238-0.77-6.404C147.65,450.345,147.437,444.688,147.246,439.694"/>
	<path fill="#D52828" d="M64.44,454.284c-2.189,2.738-3.023,5.844-2.51,9.312c0.512,3.488,2.191,6.189,5.059,8.121
		c3.236,2.193,7.252,2.83,12.082,1.961l-0.256-0.131c-3.998,0-7.209-1.088-9.613-3.273c-2.125-1.936-3.316-4.424-3.574-7.488
		c-0.254-2.957,0.447-5.717,2.084-8.334c1.725-2.742,4.191-4.676,7.4-5.787C70.415,449.325,66.841,451.2,64.44,454.284"/>
	<path fill="#E7B31A" d="M105.808,206.417c1.859-3.512,6.109-5.133,12.809-4.824c6.484,0.281,14.676,2.33,24.551,6.17
		c2.822,1.1,5.557,3.971,8.182,8.643c2.387,4.219,5.078,10.631,8.088,19.268c3.811,10.982,11.434,34.838,22.863,71.551
		c5.029,15.344,6.502,29.045,4.404,41.078c-1.885,10.918-6.586,20.094-14.139,27.496c-6.91,6.785-15.711,11.703-26.396,14.707
		c-10.098,2.871-20.844,3.816-32.256,2.82c-11.348-1.006-21.922-3.797-31.73-8.352c-10.322-4.754-18.627-10.955-24.893-18.586
		c-6.869-8.285-10.752-17.625-11.688-28.025c-1.027-11.482,1.619-23.689,7.93-36.641c13.947-28.607,25.891-51.266,35.85-67.977
		C97.433,221.108,102.899,212.009,105.808,206.417"/>
	<path fill="none" stroke="#E7B21A" stroke-width="6.3753" stroke-miterlimit="10" d="M118.616,201.593
		c6.482,0.281,14.676,2.33,24.553,6.17c2.82,1.1,5.555,3.971,8.178,8.643c2.391,4.221,5.078,10.631,8.09,19.268
		c3.811,10.982,11.434,34.838,22.861,71.551c5.031,15.344,6.504,29.045,4.406,41.078c-1.885,10.918-6.59,20.094-14.139,27.496
		c-6.914,6.785-15.711,11.703-26.396,14.707c-10.1,2.871-20.844,3.816-32.256,2.82c-11.35-1.006-21.922-3.797-31.729-8.352
		c-10.324-4.754-18.629-10.955-24.896-18.584c-6.867-8.287-10.75-17.627-11.688-28.027c-1.027-11.482,1.621-23.689,7.934-36.641
		c13.945-28.607,25.887-51.266,35.848-67.977c8.047-12.637,13.514-21.734,16.426-27.328
		C107.665,202.905,111.919,201.284,118.616,201.593z"/>
	<path fill="#E7B31A" d="M41.247,81.511c6.711-11.592,15.621-21.58,26.725-30.006c11.068-8.389,23.434-14.508,37.135-18.398
		c14.164-4.02,28.717-5.363,43.69-4.01c14.969,1.354,29.029,5.287,42.195,11.783c12.781,6.283,23.869,14.525,33.25,24.762
		c9.418,10.285,16.385,21.709,20.889,34.311c4.709,13.119,6.453,26.562,5.209,40.352c-3.121,34.445-16.404,59.402-39.859,74.887
		c-20.519,13.795-47.177,19.217-79.988,16.252c-15.314-1.385-29.352-4.789-42.129-10.178l-0.023-0.004
		c-13.178-5.596-24.363-13.041-33.555-22.303c-20.16-20.24-28.791-46.484-25.881-78.688C30.151,106.479,34.255,93.563,41.247,81.511
		 M70.028,54.228C59.31,62.345,50.683,72.017,44.2,83.226c-6.738,11.629-10.713,24.068-11.918,37.354
		c-2.814,31.1,5.479,56.422,24.889,75.996c8.92,8.961,19.746,16.131,32.516,21.568c12.469,5.26,26.18,8.566,41.105,9.914
		c31.909,2.889,57.846-2.344,77.811-15.674c22.557-14.988,35.346-39.127,38.354-72.387c1.203-13.281-0.479-26.227-5.02-38.879
		c-4.367-12.193-11.115-23.258-20.227-33.174c-9.086-9.932-19.814-17.947-32.21-24.029c-12.799-6.314-26.459-10.129-41.01-11.441
		c-14.553-1.314-28.696-0.018-42.459,3.889C92.765,40.124,80.749,46.081,70.028,54.228"/>
	<path fill="#F2D724" d="M44.2,83.226c6.484-11.209,15.109-20.879,25.828-28.998c10.721-8.146,22.736-14.104,36.002-17.865
		c13.764-3.906,27.906-5.203,42.458-3.889c14.553,1.312,28.213,5.127,41.012,11.441c12.396,6.082,23.125,14.098,32.21,24.029
		c9.111,9.916,15.857,20.98,20.227,33.174c4.541,12.652,6.223,25.598,5.02,38.879c-3.008,33.26-15.797,57.398-38.355,72.387
		c-19.962,13.33-45.9,18.562-77.809,15.674c-14.926-1.348-28.637-4.654-41.105-9.914c-12.771-5.438-23.596-12.607-32.516-21.568
		c-19.414-19.574-27.705-44.896-24.889-75.996C33.485,107.294,37.462,94.854,44.2,83.226"/>
	<path fill="#FFFFFF" d="M73.353,89.476c2.09,1.127,4.043,2.643,5.822,4.574c3.031,3.229,5.336,7.377,6.902,12.438
		c3.521-4.793,7.922-8.502,13.225-11.109c3.1-1.529,6.346-2.619,9.727-3.27c4.877-0.945,9.73-0.953,14.541-0.006
		c4.836,0.926,9.314,2.715,13.459,5.391c6.581,4.238,11.323,9.924,14.194,17.02c2.82,6.959,3.391,14.057,1.693,21.293
		c-1.055,4.354-2.793,8.281-5.199,11.814l-2.012,2.646c-2.74,3.287-5.95,6.021-9.663,8.221c-3.707,2.17-7.719,3.689-12.031,4.508
		c-4.875,0.941-9.73,0.951-14.521,0.006c-4.832-0.928-9.334-2.717-13.496-5.414c-6.094-3.936-10.561-8.941-13.395-15.029
		c-2.662,4.973-6.139,8.811-10.412,11.533c-3.092,1.959-6.252,3.033-9.527,3.205c-3.252,0.193-6.381-0.51-9.406-2.129
		c-2.686-1.414-5.078-3.439-7.158-6.074c-2.084-2.639-3.762-5.748-5.059-9.293l-0.914-2.832c-1.047-3.736-1.596-7.744-1.656-12.072
		c-0.029-7.172,1.385-13.887,4.23-20.143c2.898-6.375,6.795-11.113,11.699-14.225c3.072-1.957,6.23-3.014,9.504-3.186
		C67.179,87.149,70.325,87.86,73.353,89.476"/>
	<path fill="#D57998" d="M73.239,89.317c2.113,1.105,4.059,2.645,5.848,4.576c1.57,1.65,2.934,3.562,4.098,5.711
		c-11.416-2.029-20.691,0-27.826,6.148c-5.932,5.102-11.486,12.396-16.684,21.846l-0.107-0.758
		c-0.033-0.086-0.072-0.154-0.086-0.217c-0.055-0.113-0.064-0.176-0.045-0.238c0.111-0.244,0.166-0.369,0.166-0.389
		c0.025-0.297-0.066-0.453-0.291-0.496c-0.049-0.004-0.09-0.008-0.131,0.008c-0.008-0.213-0.008-0.426-0.01-0.617
		c-0.029-7.203,1.389-13.947,4.26-20.244c2.918-6.398,6.842-11.174,11.746-14.287c3.092-1.957,6.271-3.01,9.568-3.18
		C67.019,86.987,70.19,87.702,73.239,89.317"/>
	<path fill="#D57998" d="M94.368,98.874c-0.322-0.008-0.635-0.041-0.955-0.047c1.871-1.385,3.832-2.594,5.906-3.594
		c3.113-1.529,6.365-2.637,9.766-3.291c4.9-0.963,9.775-0.969,14.631,0.004c4.83,0.926,9.35,2.721,13.512,5.416
		c6.622,4.26,11.364,9.943,14.276,17.088c2.834,7.006,3.406,14.148,1.705,21.4c-0.1,0.398-0.229,0.811-0.324,1.207
		c-0.205-0.086-0.473,0.062-0.781,0.418l-0.41,0.986c-0.191,0.535-0.467,1.213-0.842,2.031c-0.264,0.553-0.5,1.02-0.705,1.447
		c-0.943-2.959-2.094-5.828-3.455-8.639c-2.387-4.938-5.473-9.41-9.286-13.4c-3.904-4.145-8.232-7.812-12.994-10.99
		c-4.471-3-9.303-5.396-14.447-7.164C104.911,99.976,99.72,99.013,94.368,98.874"/>
	<path fill="#1271B2" d="M65.897,93.53c4.719-1.342,9.111-1.223,13.188,0.363c3.045,3.254,5.303,7.266,6.766,12.023
		c3.646-4.504,8.141-8.061,13.469-10.684c6.424-0.678,13.006,0.217,19.748,2.637c6.906,2.475,13.178,6.346,18.795,11.596
		c4.061,3.801,7.409,7.998,10.036,12.602c2.555,4.467,4.311,9.076,5.311,13.783c-1.08,4.373-2.816,8.326-5.229,11.875l-2.029,2.67
		c0.305-5.695-0.799-11.398-3.281-17.133c-2.563-5.984-6.364-11.328-11.409-16.066c-6.746-6.355-14.4-10.477-22.938-12.355
		c-7.99-1.787-15.545-1.174-22.645,1.824c-3.699-3.805-8.322-5.438-13.844-4.893c-5.816,0.539-11.375,3.355-16.688,8.453
		c-3.961,3.789-7.211,8.377-9.76,13.723c-2.443,5.123-3.988,10.434-4.633,15.91l-0.916-2.83c-1.049-3.734-1.594-7.789-1.668-12.137
		c1.354-4.369,3.176-8.523,5.469-12.428c2.383-4.021,5.174-7.559,8.365-10.592C56.409,97.669,61.042,94.901,65.897,93.53"/>
	<path fill="#F2D724" d="M42.659,179.409c2.977-5.838,5.037-9.549,6.205-11.145c1-1.42,2.086-1.877,3.23-1.367
		c1.67,1.088,3.283,1.85,4.857,2.312c1.162,0.336,11.463,3.912,30.924,10.719c14.219,4.971,23.045,7.639,26.443,7.99
		c-0.23,10.754-8.428,18.781-24.576,24.111c-4.809,1.59-11.65,3.289-20.521,5.127c-8.77,1.846-14.443,3.188-17.014,4.039
		c-18.156,6.043-24.311-0.713-18.48-20.277C35.571,194.675,38.548,187.493,42.659,179.409"/>
	<path fill="none" stroke="#E7B21A" stroke-width="3.3922" stroke-miterlimit="10" d="M48.864,168.265
		c0.998-1.42,2.086-1.877,3.23-1.367c1.67,1.088,3.281,1.85,4.857,2.312c1.162,0.336,11.465,3.912,30.924,10.719
		c14.219,4.971,23.045,7.639,26.443,7.99c-0.23,10.754-8.428,18.781-24.582,24.111c-4.803,1.59-11.645,3.289-20.516,5.125
		c-8.77,1.848-14.447,3.189-17.014,4.041c-18.154,6.043-24.311-0.713-18.48-20.277c1.844-6.244,4.816-13.426,8.932-21.51
		C45.636,173.571,47.696,169.86,48.864,168.265z"/>
	<path fill="#CB2A2B" d="M60.114,179.001c0.406,0.057,2.693,0.65,6.91,1.777c6.078,1.551,10.957,2.926,14.654,4.176
		c1.727,0.432,3.141,0.836,4.279,1.195c2.07,0.631,3.354,1.262,3.834,1.838c0.613,0.738,0.609,1.48-0.012,2.236l0.047-0.041
		c-0.021,0.02-0.072,0.061-0.092,0.078c-3.295,2.789-7.406,5.633-12.33,8.484c-6.227,3.676-12.162,6.672-17.76,9.041
		c-16.203,6.816-22.693,5.355-19.445-4.402c1.482-4.398,3.354-8.572,5.643-12.516c2.492-4.229,5.25-7.85,8.309-10.875
		C55.298,178.888,57.286,178.55,60.114,179.001"/>
	<path fill="#D57998" d="M71.048,169.712c5.746,3.562,9.725,8.27,11.967,14.111c-8.588,5.25-15.533,9.068-20.799,11.49
		c-5.398,2.469-8.406,3.518-9.055,3.137c-1.697-1.002-0.865-4.332,2.48-9.996C58.558,183.507,63.702,177.243,71.048,169.712"/>
	<path fill="#F2D724" d="M58.731,143.606c6.055-3.094,11.422-4.996,16.146-5.738c7.773-1.166,13.4,0.895,16.861,6.168
		c0.82,1.266,1.82,2.697,3.016,4.318c1.229,1.707,2.244,3.162,3.049,4.365c0.83,1.268,3.139,3.238,6.924,5.908
		c3.922,2.752,6.373,4.809,7.363,6.113c2.973,2.887,5.057,7.609,6.252,14.189c1.258,6.822,0.275,10.393-2.934,10.764
		c-11.877,1.375-25.406,1.492-40.609,0.371c-14.807-1.064-28.381-3.055-40.713-6.027c-13.006-3.111-22.199-6.711-27.555-10.793
		c-5.996-4.566-6.424-9.248-1.244-13.994c1.879-1.725,9.67-4.043,23.322-6.959C43.632,149.116,53.667,146.212,58.731,143.606"/>
	<path fill="none" stroke="#E7B21A" stroke-width="3.3922" stroke-miterlimit="10" d="M74.878,137.868
		c7.773-1.166,13.4,0.895,16.859,6.168c0.824,1.266,1.822,2.697,3.018,4.318c1.229,1.707,2.242,3.162,3.049,4.365
		c0.828,1.268,3.139,3.238,6.922,5.904c3.924,2.756,6.375,4.812,7.365,6.117c2.973,2.887,5.061,7.609,6.248,14.189
		c1.262,6.822,0.277,10.393-2.93,10.764c-11.877,1.375-25.406,1.492-40.609,0.371c-14.803-1.064-28.379-3.055-40.713-6.027
		c-13.006-3.111-22.195-6.711-27.553-10.793c-5.998-4.566-6.426-9.248-1.246-13.994c1.879-1.725,9.67-4.043,23.322-6.959
		c15.021-3.176,25.057-6.08,30.121-8.686C64.786,140.513,70.149,138.61,74.878,137.868z"/>
	<path fill="#E7B31A" d="M108.534,17.208c-2.664-0.102-5.293,0.67-7.875,2.283c4.281,0.166,8.992,3.873,14.135,11.121
		c1.055,1.504,2.252,2.766,3.557,3.781c-0.27,0.039-0.533,0.076-0.797,0.135c-1.797,0.346-3.289,0.779-4.516,1.277
		c-0.605-0.668-1.199-1.395-1.768-2.158c-0.119-0.16-0.244-0.316-0.346-0.479c-5.492-7.365-11.037-11.434-16.645-12.176
		c5.135-5.773,10.01-8.5,14.639-8.18c4.643,0.25,9.031,2.672,13.182,7.246l0.01,0.059c0.645,0.805,1.227,1.566,1.77,2.256
		c0.023-0.896,0.135-1.785,0.277-2.701c1.221-8.545-0.016-15.107-3.713-19.674c8.041,0.219,13.715,2.131,17.006,5.689
		c3.088,3.328,4.661,7.643,4.719,12.93c1.287-0.689,2.711-1.24,4.279-1.641c8.178-2.283,13.201-5.969,15.094-11.037
		c4.363,7.182,5.934,12.93,4.682,17.273c-0.279,0.977-0.664,1.879-1.121,2.73c-1.289,2.301-3.283,4.223-5.994,5.744
		c-1.922-0.008-5.451,0.189-10.572,0.619l-0.008-0.039l-5.004,0.719c0.818-0.666,1.844-1.312,3.061-1.924
		c1.238-0.588,3.939-1.521,8.092-2.797c4.061-1.301,6.535-3.709,7.438-7.211c0.668-2.494,0.49-5.305-0.504-8.43
		c-1.072,4.012-5.576,7.051-13.529,9.09c-4.145,1.053-6.971,3.418-8.514,7.088c-0.768,1.871-1.018,3.607-0.746,5.203
		c-0.225,0.139-0.4,0.277-0.541,0.428c-1.018-1.625-1.588-3.918-1.709-6.885c-0.025-1.436,0.229-4.348,0.762-8.758
		c0.471-4.322-0.65-7.893-3.379-10.682c-1.941-1.99-4.455-3.436-7.592-4.361c3.086,3.24,3.971,8.957,2.613,17.174
		c-0.721,4.271,0.232,8.119,2.836,11.561c0.4,0.537,0.842,1.035,1.266,1.479c-0.424,0.082-0.793,0.154-1.137,0.244
		c-2.176,0.055-4.723-1.328-7.607-4.156c-1.086-1.088-3.08-3.486-5.938-7.195C115.524,19.188,112.245,17.306,108.534,17.208"/>
	<path fill="#F2D724" d="M100.659,19.491c2.58-1.613,5.211-2.385,7.875-2.283c3.711,0.098,6.99,1.98,9.857,5.646
		c2.861,3.709,4.857,6.107,5.941,7.195c2.885,2.828,5.43,4.211,7.607,4.156c0.045-0.004,0.086-0.008,0.127-0.01
		c0.357-0.031,0.686-0.08,1.033-0.152c0.014-0.023,0.014-0.023,0.033-0.029c-0.025-0.018-0.029-0.039-0.055-0.053
		c-0.426-0.443-0.867-0.941-1.268-1.479c-2.604-3.441-3.553-7.293-2.836-11.561c1.357-8.217,0.473-13.934-2.609-17.174
		c3.133,0.926,5.645,2.371,7.588,4.361c2.729,2.789,3.85,6.359,3.379,10.682c-0.535,4.41-0.787,7.322-0.766,8.758
		c0.125,2.967,0.695,5.26,1.713,6.885c0.309,0.477,0.662,0.906,1.045,1.266c-0.031-0.059-0.051-0.119-0.08-0.182l-0.412-1.359
		c0.008-0.062-0.004-0.107-0.012-0.152c-0.275-1.596-0.021-3.332,0.752-5.203c1.54-3.67,4.37-6.035,8.506-7.088
		c7.959-2.039,12.459-5.078,13.529-9.09c0.996,3.125,1.172,5.936,0.506,8.43c-0.895,3.506-3.375,5.91-7.434,7.211
		c-4.156,1.275-6.854,2.209-8.096,2.797c-1.221,0.611-2.242,1.258-3.061,1.924c-1.182,0.975-1.957,2-2.338,3.102
		c-0.172,0.527-0.256,1.08-0.242,1.67c0.004,0.109,0.008,0.221,0.012,0.322l0.049,0.107c-0.116-0.115-0.225-0.232-0.344-0.367
		c-0.305-0.369-0.584-0.744-0.82-1.125l-2.377-0.139c-0.113-0.029-0.227-0.053-0.342-0.082c-1.371-0.393-2.662-1.164-3.883-2.363
		c-1.539,2.771-4.295,3.818-8.264,3.166c-0.482-0.08-0.979-0.186-1.455-0.314c-0.365-0.1-0.734-0.225-1.105-0.342
		c-0.064-0.014-0.139-0.045-0.205-0.057l-1.354-0.592c-0.174-0.086-0.316-0.172-0.488-0.256c-0.027-0.02-0.045-0.018-0.072-0.031
		c-0.514-0.299-0.996-0.604-1.48-0.947c-0.049-0.035-0.1-0.07-0.156-0.131c-0.029-0.016-0.049-0.016-0.074-0.029
		c-0.021-0.021-0.027-0.041-0.055-0.059c-0.025-0.014-0.053-0.041-0.074-0.055c-0.027-0.02-0.078-0.055-0.107-0.074
		c-1.303-1.014-2.498-2.275-3.555-3.779C109.647,23.364,104.942,19.657,100.659,19.491"/>
	<path fill="#F2D724" d="M105.808,206.417c1.859-3.512,6.109-5.133,12.809-4.824c6.484,0.281,14.676,2.33,24.551,6.17
		c2.822,1.1,5.557,3.971,8.182,8.643c2.387,4.219,5.078,10.631,8.088,19.268c3.811,10.982,11.434,34.838,22.863,71.551
		c5.029,15.344,6.502,29.045,4.404,41.078c-1.885,10.918-6.586,20.094-14.139,27.496c-6.91,6.785-15.711,11.703-26.396,14.707
		c-10.098,2.871-20.844,3.816-32.256,2.82c-11.348-1.006-21.922-3.797-31.73-8.352c-10.322-4.754-18.627-10.955-24.893-18.586
		c-6.869-8.285-10.752-17.625-11.688-28.025c-1.027-11.482,1.619-23.689,7.93-36.641c13.947-28.607,25.891-51.266,35.85-67.977
		C97.433,221.108,102.899,212.009,105.808,206.417"/>
	<path fill="#E3D422" d="M134.138,243.073c3.902-3.494,7.422-4.637,10.528-3.451c1.26,0.475,3.094,1.959,5.514,4.424
		c1.859,1.846,3.438,3.607,4.707,5.281c4.568,5.812,9.498,10.271,14.814,13.391c5.361,3.195,11.465,5.227,18.301,6.07
		c5.566,0.738,11.445,3.746,17.662,9.035c6.422,5.465,10.617,11.307,12.596,17.484c0.773,2.35,0.977,5.438,0.605,9.25
		c-0.287,3.457-0.963,6.695-2.043,9.73c-2.193,6.404-6.896,11.684-14.066,15.865c-6.576,3.805-14.269,6.248-23.142,7.299
		c-8.707,1.01-16.811,0.475-24.318-1.564c-7.996-2.193-13.857-5.713-17.59-10.598c-4.396-5.746-7.68-12.08-9.83-19.002
		c-1.422-4.557-2.869-11.623-4.367-21.205c-0.52-3.379-0.525-8.375,0.02-15.008c0.543-6.795,1.363-11.727,2.438-14.779
		C127.706,250.399,130.433,246.323,134.138,243.073"/>
	<path fill="none" stroke="#E7B21A" stroke-width="6.332" stroke-miterlimit="10" d="M134.138,243.073
		c-3.705,3.25-6.432,7.326-8.174,12.223c-1.074,3.053-1.895,7.984-2.438,14.779c-0.545,6.633-0.539,11.629-0.02,15.008
		c1.498,9.582,2.945,16.648,4.367,21.205c2.15,6.922,5.434,13.256,9.83,19.002c3.733,4.885,9.594,8.404,17.59,10.598
		c7.508,2.039,15.611,2.574,24.318,1.564c8.873-1.051,16.566-3.494,23.142-7.299c7.17-4.182,11.873-9.461,14.066-15.865
		c1.08-3.035,1.756-6.273,2.043-9.73c0.371-3.812,0.168-6.9-0.605-9.25c-1.979-6.178-6.174-12.02-12.596-17.484
		c-6.217-5.289-12.095-8.297-17.662-9.035c-6.836-0.84-12.939-2.875-18.301-6.07c-5.316-3.119-10.246-7.578-14.814-13.391
		c-1.27-1.674-2.848-3.436-4.707-5.281c-2.42-2.465-4.254-3.949-5.514-4.424C141.56,238.437,138.04,239.579,134.138,243.073z"/>
	<path fill="#F2D724" d="M132.087,235.706l23.842-7.955l0.535,6.363c0.588,5.111,1.41,9.893,2.471,14.324
		c3.416,14.229,8.57,22.346,15.473,24.35l-31.531,2.957l-17.815-16.484c0.398-2.311,0.988-5.037,1.807-8.156
		C128.429,244.864,130.157,239.733,132.087,235.706"/>
	<path fill="#F2D724" d="M134.138,243.073c3.902-3.494,7.422-4.637,10.528-3.451c1.26,0.475,3.094,1.959,5.514,4.424
		c1.859,1.846,3.438,3.607,4.707,5.281c4.568,5.812,9.498,10.271,14.814,13.391c5.361,3.195,11.465,5.227,18.301,6.07
		c5.566,0.738,11.445,3.746,17.662,9.035c6.422,5.465,10.617,11.307,12.596,17.484c0.773,2.35,0.977,5.438,0.605,9.25
		c-0.287,3.457-0.963,6.695-2.043,9.73c-2.193,6.404-6.896,11.684-14.066,15.865c-6.576,3.805-14.269,6.248-23.142,7.299
		c-8.707,1.01-16.811,0.475-24.318-1.564c-7.996-2.193-13.857-5.713-17.59-10.598c-4.396-5.746-7.68-12.08-9.83-19.002
		c-1.422-4.557-2.869-11.623-4.367-21.205c-0.52-3.379-0.525-8.375,0.02-15.008c0.543-6.795,1.363-11.727,2.438-14.779
		C127.706,250.399,130.433,246.323,134.138,243.073"/>
	<path fill="#E7B31A" d="M180.658,306.13l-0.002-0.031c1.879-3.578,4.193-6.547,6.963-8.932c1.309-1.146,3.062-2.291,5.277-3.402
		c0.271-1.836,1.5-3.736,3.613-5.693c0.59-0.557,1.84-1.584,3.729-3.076c1.414-1.143,2.391-1.963,2.924-2.457
		c0.537-0.521,2.24-2.551,5.119-6.121c2.986-3.705,4.904-6.061,5.773-7.012l0.027-0.006c1.133-1.225,2.52-1.961,4.172-2.201
		l0.02,0.012c2.246-0.367,4.189,0.389,5.83,2.262c1.635,1.842,2.357,4.18,2.188,7.023l-0.014-0.008
		c-0.064,1.49-0.58,3.779-1.539,6.889l0.002,0.029c-0.9,2.791-1.4,4.797-1.525,6.051c-0.154,1.715,0.207,3.141,1.121,4.268
		c0.018,0.014,0.018,0.014,0.018,0.047l0.021,0.01c0.326,0.307,1.787,1.543,4.367,3.709c2.895,2.418,4.928,4.301,6.059,5.629
		c1.918,2.191,3.48,4.963,4.678,8.305c1.729,4.734,1.455,7.949-0.793,9.652c-1.254,1.393-4.236,1.225-8.902-0.514
		c-0.018-0.012-0.051-0.037-0.076-0.037c-1.375-0.602-2.514-1.082-3.455-1.484c-4.715,1.604-8.748,2.906-12.088,3.969
		c-6.998,2.9-14.121,3.285-21.396,1.137l0.014,0.016c-0.904-0.277-1.797-0.564-2.689-0.852l0.02,0.012
		c-4.725-1.568-7.965-3.398-9.701-5.453C177.917,315.208,177.996,311.276,180.658,306.13 M182.718,309.255
		c-0.094,0.43-0.18,0.816-0.236,1.201c-0.648,2.182-0.484,3.906,0.477,5.205c1.494,1.654,4.232,3.125,8.209,4.461
		c0.826,0.264,1.686,0.533,2.549,0.791c6.541,1.934,12.945,1.584,19.238-1.033c0.059-0.039,0.102-0.059,0.162-0.068
		c3.461-1.082,7.674-2.48,12.664-4.164c0.031-0.002,0.057-0.035,0.086-0.039c0.178-0.053,0.359-0.123,0.545-0.189
		c0.432-0.389,0.707-0.787,0.824-1.178c0.029-0.346-0.088-0.676-0.367-0.971c-1.328-1.477-3.156-2.695-5.48-3.615
		c-0.082-0.061-0.133-0.1-0.164-0.129c-1.617-1.242-5.264-2.137-10.916-2.695c-2.83-0.293-5.176-0.318-7.045-0.139
		c0.006-0.07,0.027-0.137,0.051-0.195c0.154-0.439,0.457-0.771,0.865-0.957c2.975-1.484,7.225-1.684,12.709-0.629
		c5.791,1.068,9.975,3.123,12.533,6.152l0.018,0.012c1.061,1.246,1.408,2.553,1.076,3.912c-0.129,0.621-0.396,1.24-0.84,1.854
		c0.4,0.172,0.84,0.354,1.289,0.57c0.027-0.012,0.049,0.008,0.059,0.018c2.922,1.08,4.736,1.445,5.461,1.094
		c0.941-1.057,0.881-3.041-0.176-5.953c-1.033-2.895-2.383-5.314-4.059-7.246c-1.074-1.227-2.969-2.975-5.68-5.254
		c-2.928-2.445-4.506-3.811-4.713-4.055c-0.02-0.016-0.033-0.021-0.055-0.037c-1.545-1.783-2.188-4.059-1.949-6.816
		c0.104-1.412,0.67-3.666,1.676-6.789c0.844-2.725,1.303-4.764,1.375-6.064l0.012-0.02c0.105-1.857-0.355-3.406-1.367-4.611
		c-0.775-0.92-1.695-1.311-2.773-1.156l-0.014,0.018c-0.887,0.117-1.631,0.494-2.205,1.143l0.01-0.02
		c-0.852,0.936-2.73,3.236-5.656,6.861c-3.059,3.805-4.869,5.973-5.459,6.5c-0.564,0.523-1.602,1.393-3.113,2.594
		c-1.785,1.42-2.965,2.396-3.527,2.924l-0.014,0.014c-0.418,0.369-0.785,0.748-1.1,1.117c1.023-0.404,2.174-0.854,3.418-1.326
		c0.424-0.178,0.863-0.162,1.295,0.035c0.318,0.145,0.553,0.352,0.727,0.648c-0.613,0.348-1.271,0.719-2.029,1.121
		c-3.213,1.715-4.871,2.621-5.006,2.703c-2.564,1.424-4.605,2.801-6.177,4.111c-2.055,1.426-3.521,2.715-4.422,3.881
		C184.255,304.464,183.322,306.61,182.718,309.255"/>
	<path fill="#F2D724" d="M182.482,310.456c0.057-0.385,0.139-0.771,0.236-1.201c0.604-2.645,1.537-4.791,2.783-6.41
		c0.9-1.166,2.367-2.455,4.422-3.881c1.572-1.311,3.611-2.688,6.177-4.115c0.135-0.078,1.793-0.984,5.006-2.699
		c0.762-0.402,1.416-0.773,2.029-1.121c-0.174-0.297-0.408-0.504-0.727-0.648c-0.432-0.197-0.869-0.213-1.297-0.035
		c-1.24,0.473-2.393,0.922-3.416,1.326c0.314-0.369,0.686-0.748,1.1-1.117l0.014-0.014c0.564-0.527,1.742-1.508,3.527-2.924
		c1.512-1.201,2.551-2.07,3.113-2.594c0.59-0.527,2.4-2.697,5.459-6.5c2.924-3.625,4.805-5.926,5.658-6.861l-0.012,0.02
		c0.574-0.648,1.32-1.025,2.209-1.143l0.01-0.018c1.078-0.154,1.998,0.236,2.773,1.156c1.014,1.205,1.473,2.754,1.367,4.609
		l-0.012,0.021c-0.07,1.301-0.527,3.34-1.375,6.064c-1.004,3.123-1.572,5.377-1.672,6.789c-0.242,2.756,0.4,5.033,1.945,6.816
		c0.021,0.016,0.037,0.021,0.055,0.037c0.207,0.244,1.785,1.609,4.715,4.055c2.709,2.279,4.605,4.025,5.68,5.254
		c1.674,1.93,3.023,4.352,4.059,7.246c1.055,2.912,1.115,4.896,0.174,5.953c-0.725,0.352-2.541-0.014-5.461-1.094
		c-0.01-0.012-0.031-0.029-0.059-0.018c-0.449-0.217-0.889-0.398-1.287-0.57c0.441-0.613,0.705-1.232,0.838-1.854
		c0.334-1.363-0.012-2.666-1.078-3.912l-0.016-0.012c-2.559-3.029-6.742-5.084-12.533-6.154c-5.484-1.053-9.736-0.854-12.709,0.631
		c-0.408,0.182-0.711,0.518-0.865,0.957c-0.023,0.059-0.045,0.125-0.051,0.195c1.869-0.18,4.215-0.154,7.045,0.139
		c5.652,0.559,9.297,1.449,10.916,2.695c0.033,0.029,0.082,0.068,0.164,0.129c2.324,0.92,4.152,2.139,5.48,3.615
		c0.279,0.293,0.396,0.625,0.367,0.971c-0.113,0.391-0.393,0.789-0.824,1.178c-0.186,0.066-0.367,0.133-0.545,0.189
		c-0.029,0.004-0.053,0.035-0.086,0.039c-4.99,1.684-9.203,3.082-12.664,4.164c-0.061,0.01-0.104,0.029-0.16,0.068
		c-6.299,2.617-12.703,2.967-19.242,1.033c-0.861-0.258-1.721-0.527-2.547-0.791c-3.973-1.336-6.715-2.807-8.207-4.461
		C181.994,314.362,181.833,312.638,182.482,310.456"/>
</g>
<path display="none" fill="none" d="M1416.41,207.873c0,5.5-4.5,10-10,10H128.464c-5.5,0-10-4.5-10-10v-27.558v-841.881
	c0-5.5,4.5-10,10-10H1406.41c5.5,0,10,4.5,10,10v839.881V207.873z"/>
</svg>
