<?xml version="1.0" encoding="utf-8"?>
<!-- Generator: Adobe Illustrator 16.0.0, SVG Export Plug-In . SVG Version: 6.00 Build 0)  -->
<!DOCTYPE svg PUBLIC "-//W3C//DTD SVG 1.1//EN" "http://www.w3.org/Graphics/SVG/1.1/DTD/svg11.dtd">
<svg version="1.1" id="レイヤー_1" xmlns="http://www.w3.org/2000/svg" xmlns:xlink="http://www.w3.org/1999/xlink" x="0px"
	 y="0px" width="21.637px" height="24.098px" viewBox="0 0 21.637 24.098" enable-background="new 0 0 21.637 24.098"
	 xml:space="preserve">
<path fill="#1A1616" d="M19.181,4.255c1.895,2.545,2.693,5.471,2.395,8.768c-0.301,3.336-1.609,6.055-3.926,8.189
	c-2.32,2.16-4.967,3.105-7.918,2.842c-2.992-0.271-5.402-1.676-7.281-4.217c-1.893-2.52-2.693-5.428-2.387-8.762
	C0.358,7.778,1.669,5.04,3.987,2.878c2.299-2.158,4.924-3.107,7.914-2.832C14.856,0.312,17.286,1.716,19.181,4.255"/>
<path display="none" fill="none" d="M841.716,115.265c0,5.5-4.5,10-10,10H-446.229c-5.5,0-10-4.5-10-10V87.707v-841.881
	c0-5.5,4.5-10,10-10H831.716c5.5,0,10,4.5,10,10V85.707V115.265z"/>
</svg>
