<?xml version="1.0" encoding="utf-8"?>
<!-- Generator: Adobe Illustrator 16.0.0, SVG Export Plug-In . SVG Version: 6.00 Build 0)  -->
<!DOCTYPE svg PUBLIC "-//W3C//DTD SVG 1.1//EN" "http://www.w3.org/Graphics/SVG/1.1/DTD/svg11.dtd">
<svg version="1.1" id="レイヤー_1" xmlns="http://www.w3.org/2000/svg" xmlns:xlink="http://www.w3.org/1999/xlink" x="0px"
	 y="0px" width="154.178px" height="106.934px" viewBox="0 0 154.178 106.934" enable-background="new 0 0 154.178 106.934"
	 xml:space="preserve">
<g>
	<path fill="#F2D724" d="M152.111,2.224c-0.426-0.947-1.189-0.639-2.271,0.893c-8.732,12.16-19.51,20.996-32.334,26.51
		c-8.225,3.521-19.451,6.23-33.682,8.096c-8.037,1.068-13.115,1.797-15.238,2.166c-5.268,0.928-9.594,2.105-12.998,3.521
		c-8.417,3.555-13.761,9.963-16.029,19.26c-1.857,7.59-1.055,14.545,2.369,20.891C45,89.298,49.833,93.878,56.412,97.31
		c6.348,3.287,13.146,4.916,20.4,4.916c7.562-0.016,14.186-1.846,19.895-5.514c11.482-7.369,21.709-17.363,30.674-29.977
		c7.227-10.18,13.201-21.369,17.959-33.588c3.824-9.842,6.125-18.242,6.908-25.217C152.611,5.044,152.568,3.167,152.111,2.224"/>
	<path fill="none" stroke="#E7B21A" stroke-width="3.3728" stroke-miterlimit="10" d="M152.111,2.224
		c0.457,0.943,0.5,2.82,0.137,5.707c-0.783,6.975-3.084,15.375-6.908,25.217c-4.758,12.219-10.732,23.408-17.959,33.588
		c-8.965,12.613-19.191,22.607-30.674,29.977c-5.709,3.668-12.332,5.498-19.895,5.514c-7.254,0-14.053-1.629-20.4-4.916
		C49.833,93.878,45,89.298,41.928,83.56c-3.424-6.346-4.227-13.301-2.369-20.891c2.268-9.297,7.611-15.705,16.029-19.26
		c3.404-1.416,7.73-2.594,12.998-3.521c2.123-0.369,7.201-1.098,15.238-2.166c14.23-1.865,25.457-4.574,33.682-8.096
		c12.824-5.514,23.602-14.35,32.334-26.51C150.922,1.585,151.686,1.276,152.111,2.224z"/>
	<path fill="#E7B31A" d="M51.135,71.8l0.004-0.033c0.027-1.15,0.01-2.293-0.053-3.426c0-0.105-0.016-0.201-0.037-0.262
		c-0.5-2.557-1.902-5.086-4.221-7.598c-0.039-0.051-0.078-0.104-0.131-0.139c-3.691-3.195-6.078-5.361-7.209-6.482l0.012,0.018
		c-0.295-0.395-1.537-3.041-3.719-7.967c-2.59-5.752-4.672-8.41-6.275-7.973c-5.52,0.264-8.934,5.061-10.211,14.348
		c-0.326,2.232-0.699,5.596-1.102,10.105l-0.004,0.033c-0.387,3.455-0.955,5.938-1.727,7.457l-0.018,0.014
		c-0.994,1.838-2.523,4.186-4.637,7.01l0.008-0.029c-2.518,3.295-4.377,5.775-5.578,7.445c-4.564,6.455-6.625,11.877-6.18,16.262
		c0.158,1.846,0.426,3.178,0.785,3.984l0.012,0.016c0.791,1.75,2.002,2.512,3.629,2.322c0.201-0.02,0.379-0.072,0.561-0.148
		c1.906-0.83,3.168-1.441,3.766-1.867c0.422,0.096,0.885,0.102,1.412,0.055l-0.014-0.016c0.262-0.008,0.709-0.096,1.312-0.25
		l15.82-1.641c0.08-0.008,0.172-0.025,0.254-0.061c6.451-1.684,11.629-5.074,15.555-10.191C48.182,86.194,50.844,79.204,51.135,71.8
		 M47.686,71.673l0.008-0.027c-0.297,6.711-2.742,13.061-7.287,19.045c-3.422,4.453-7.943,7.434-13.562,8.934l-15.818,1.639
		c-0.107,0-0.199,0.02-0.285,0.049c-0.383,0.104-0.668,0.148-0.826,0.189l-0.018,0.012c-0.158,0.008-0.291,0-0.381-0.012
		c-0.018-0.016-0.031-0.033-0.059-0.041c-0.016-0.092-0.027-0.215-0.039-0.342l0.004-0.029c-0.008-0.477,0.076-0.971,0.25-1.504
		c-0.291-1.688,1.43-4.252,5.139-7.709c1.406-1.314,3.041-2.689,4.902-4.123c0.33-0.273,1.248-0.959,2.732-2.062
		c2.277-1.475,3.963-2.566,5.053-3.275c-0.025-0.033-0.037-0.049-0.053-0.066c-2.605,0.998-4.426,1.73-5.459,2.184
		c-1.268,0.535-2.438,1.088-3.566,1.625c-1.475,1.016-2.805,2.006-4.033,2.949c-6.068,4.723-8.873,8.826-8.398,12.279
		c0.035,0.402,0.104,0.785,0.191,1.117c-0.391,0.162-1.068,0.475-2.041,0.898c-0.064-0.053-0.107-0.135-0.148-0.234l0.025,0.031
		c-0.254-0.588-0.418-1.564-0.527-2.904c-0.244-3.766,1.609-8.418,5.566-13.988c1.168-1.641,2.992-4.102,5.502-7.332l0.014-0.014
		c2.24-2.977,3.879-5.461,4.928-7.449c0.967-1.766,1.674-4.674,2.121-8.736l0.002-0.031c0.422-4.449,0.773-7.762,1.098-9.963
		l-0.014-0.02c0.982-7.088,3.342-10.883,7.094-11.393c0.227,0.236,1.17,2.223,2.834,5.941c2.473,5.6,3.943,8.586,4.387,8.975
		l0.035,0.006c1.154,1.156,3.586,3.346,7.311,6.584c1.75,1.918,2.834,3.85,3.287,5.797C47.704,69.677,47.713,70.663,47.686,71.673"
		/>
	<path fill="#F2D724" d="M47.694,71.646l-0.008,0.027c0.025-1.01,0.018-1.996-0.033-3.002c-0.453-1.947-1.537-3.879-3.287-5.797
		c-3.725-3.238-6.156-5.428-7.311-6.584l-0.035-0.006c-0.443-0.389-1.914-3.375-4.387-8.975c-1.664-3.719-2.607-5.705-2.834-5.941
		c-3.752,0.51-6.111,4.305-7.094,11.393l0.014,0.02c-0.324,2.201-0.676,5.514-1.096,9.963l-0.004,0.031
		c-0.447,4.062-1.154,6.971-2.121,8.734c-1.049,1.99-2.688,4.475-4.932,7.451l-0.01,0.014c-2.51,3.23-4.334,5.691-5.502,7.328
		c-3.959,5.574-5.812,10.227-5.566,13.992c0.109,1.34,0.273,2.316,0.525,2.906l-0.023-0.033c0.047,0.1,0.084,0.182,0.148,0.234
		c0.973-0.424,1.65-0.736,2.041-0.895c-0.088-0.336-0.156-0.719-0.191-1.121c-0.475-3.453,2.33-7.557,8.396-12.279
		c1.23-0.943,2.561-1.934,4.035-2.949c1.129-0.537,2.299-1.09,3.566-1.625c1.033-0.453,2.854-1.186,5.459-2.184
		c0.014,0.018,0.027,0.033,0.053,0.066c-1.09,0.709-2.775,1.801-5.053,3.275c-1.484,1.104-2.402,1.789-2.732,2.062
		c-1.861,1.434-3.496,2.809-4.902,4.123c-3.709,3.461-5.43,6.021-5.139,7.709c-0.174,0.533-0.258,1.027-0.25,1.504l-0.004,0.029
		c0.012,0.127,0.023,0.246,0.039,0.34c0.027,0.01,0.041,0.029,0.059,0.043c0.09,0.012,0.223,0.02,0.383,0.012l0.016-0.012
		c0.158-0.043,0.443-0.086,0.826-0.189c0.084-0.029,0.178-0.049,0.285-0.049l15.818-1.639c5.619-1.5,10.139-4.482,13.562-8.934
		C44.952,84.706,47.395,78.356,47.694,71.646"/>
</g>
<path display="none" fill="none" d="M913.252,14.543c0,5.5-4.5,10-10,10H-374.693c-5.5,0-10-4.5-10-10v-27.558v-841.881
	c0-5.5,4.5-10,10-10H903.252c5.5,0,10,4.5,10,10v839.881V14.543z"/>
</svg>
