<?xml version="1.0" encoding="utf-8"?>
<!-- Generator: Adobe Illustrator 16.0.0, SVG Export Plug-In . SVG Version: 6.00 Build 0)  -->
<!DOCTYPE svg PUBLIC "-//W3C//DTD SVG 1.1//EN" "http://www.w3.org/Graphics/SVG/1.1/DTD/svg11.dtd">
<svg version="1.1" id="レイヤー_1" xmlns="http://www.w3.org/2000/svg" xmlns:xlink="http://www.w3.org/1999/xlink" x="0px"
	 y="0px" width="159.214px" height="99.92px" viewBox="0 0 159.214 99.92" enable-background="new 0 0 159.214 99.92"
	 xml:space="preserve">
<g>
	<path fill="#E3D422" d="M19.271,52.87c-0.986-3.633-0.398-7.936,1.732-12.9c2.24-5.227,5.703-9.779,10.371-13.623
		c5.37-4.379,11.518-7.09,18.436-8.098c8.1-1.197,16.73,0.025,25.906,3.604c2.32-2.92,7.141-6.064,14.492-9.463
		c7.822-3.613,15.893-6.207,24.211-7.789c9.666-1.859,17.852-1.885,24.59-0.08c7.967,2.113,13.234,6.654,15.797,13.615
		c3.586,9.738-0.719,18.717-12.912,26.934c-4.453,3-9.365,5.453-14.725,7.396c-4.805,1.719-8.381,2.518-10.754,2.371
		c3.717,7.516,3.045,14.562-2.01,21.096c-4.379,5.709-11.225,10.141-20.539,13.295c-8.912,3.047-17.318,4.074-25.253,3.068
		c-8.559-1.055-13.975-4.285-16.258-9.684c-0.055,4.588-2.633,8.221-7.76,10.9c-4.795,2.527-10.43,3.576-16.889,3.115
		c-6.805-0.453-12.412-2.486-16.85-6.115c-5.127-4.145-7.676-9.75-7.67-16.811c0-2.5,2.688-6.135,8.07-10.926
		c5.422-4.783,8.133-8.309,8.133-10.576L19.271,52.87z"/>
	<path fill="none" stroke="#E7B21A" stroke-width="6.3732" stroke-miterlimit="10" d="M19.271,52.87l0.119-0.67
		c0,2.268-2.711,5.793-8.133,10.576c-5.383,4.791-8.07,8.426-8.07,10.926c-0.006,7.061,2.543,12.666,7.67,16.811
		c4.438,3.629,10.045,5.662,16.85,6.115c6.459,0.461,12.094-0.588,16.889-3.115c5.127-2.68,7.705-6.312,7.76-10.9
		c2.283,5.398,7.699,8.629,16.258,9.684c7.936,1.006,16.342-0.021,25.253-3.068c9.314-3.154,16.16-7.586,20.539-13.295
		c5.055-6.533,5.727-13.58,2.01-21.096c2.373,0.146,5.949-0.652,10.754-2.371c5.359-1.943,10.271-4.396,14.725-7.396
		c12.193-8.217,16.498-17.195,12.912-26.934c-2.562-6.961-7.83-11.502-15.803-13.615c-6.732-1.805-14.918-1.779-24.584,0.08
		c-8.318,1.582-16.389,4.176-24.211,7.789c-7.351,3.398-12.171,6.543-14.492,9.463c-9.176-3.578-17.807-4.801-25.906-3.604
		c-6.918,1.008-13.066,3.719-18.436,8.098c-4.668,3.844-8.131,8.396-10.371,13.623C18.872,44.935,18.284,49.237,19.271,52.87z"/>
	<path fill="#F2D724" d="M19.271,52.87c-0.986-3.633-0.398-7.936,1.732-12.9c2.24-5.227,5.703-9.779,10.371-13.623
		c5.37-4.379,11.518-7.09,18.436-8.098c8.1-1.197,16.73,0.025,25.906,3.604c2.32-2.92,7.141-6.064,14.492-9.463
		c7.822-3.613,15.893-6.207,24.211-7.789c9.666-1.859,17.852-1.885,24.59-0.08c7.967,2.113,13.234,6.654,15.797,13.615
		c3.586,9.738-0.719,18.717-12.912,26.934c-4.453,3-9.365,5.453-14.725,7.396c-4.805,1.719-8.381,2.518-10.754,2.371
		c3.717,7.516,3.045,14.562-2.01,21.096c-4.379,5.709-11.225,10.141-20.539,13.295c-8.912,3.047-17.318,4.074-25.253,3.068
		c-8.559-1.055-13.975-4.285-16.258-9.684c-0.055,4.588-2.633,8.221-7.76,10.9c-4.795,2.527-10.43,3.576-16.889,3.115
		c-6.805-0.453-12.412-2.486-16.85-6.115c-5.127-4.145-7.676-9.75-7.67-16.811c0-2.5,2.688-6.135,8.07-10.926
		c5.422-4.783,8.133-8.309,8.133-10.576L19.271,52.87z"/>
</g>
</svg>
