<?xml version="1.0" encoding="utf-8"?>
<!-- Generator: Adobe Illustrator 16.0.0, SVG Export Plug-In . SVG Version: 6.00 Build 0)  -->
<!DOCTYPE svg PUBLIC "-//W3C//DTD SVG 1.1//EN" "http://www.w3.org/Graphics/SVG/1.1/DTD/svg11.dtd">
<svg version="1.1" id="レイヤー_1" xmlns="http://www.w3.org/2000/svg" xmlns:xlink="http://www.w3.org/1999/xlink" x="0px"
	 y="0px" width="113.521px" height="195.864px" viewBox="0 0 113.521 195.864" enable-background="new 0 0 113.521 195.864"
	 xml:space="preserve">
<g>
	<path fill="#0052A3" d="M58.416,190.193c30.962,11.826,33.605-6.959,15.715-9.314c0.017-0.012,0.032-0.023,0.05-0.033
		c-2.417-0.323-5.231-0.401-8.454-0.153c-1.863-0.033-4.232,0.168-6.254,0.077c-0.687,4.119-1.195,6.505-1.357,7.854h0.001
		C57.989,189.629,58.063,190.058,58.416,190.193"/>
	<path fill="none" stroke="#0052A3" stroke-width="3.5361" stroke-linecap="round" stroke-linejoin="round" d="M58.416,190.193
		c30.962,11.826,33.605-6.959,15.715-9.314c0.017-0.012,0.032-0.023,0.05-0.033c-2.417-0.323-5.231-0.401-8.454-0.153
		c-1.863-0.033-4.232,0.168-6.254,0.077c-0.687,4.119-1.195,6.505-1.357,7.854h0.001C57.989,189.629,58.063,190.058,58.416,190.193z
		"/>
	<path fill="#FFFFFF" d="M58.115,188.642c0.156-1.303,0.639-3.579,1.289-7.449c1.849,1.134,4.511,3.945,3.229,10.502
		c-1.342-0.429-2.746-0.922-4.217-1.481C58.063,190.08,57.989,189.65,58.115,188.642L58.115,188.642z"/>
	<path fill="#FFFFFF" d="M79.117,182.146c9.698,3.831,8.29,13.609-7.147,11.697C72.866,186.692,76.155,183.533,79.117,182.146"/>
	<path fill="#005EAD" d="M59.404,181.193c0.021-0.135,0.045-0.266,0.068-0.402c2.021,0.09,4.391-0.111,6.254-0.078
		c3.221-0.248,6.037-0.17,8.453,0.15c-0.018,0.012-0.032,0.024-0.049,0.035c1.896,0.25,3.56,0.686,4.986,1.248
		c-2.962,1.385-6.25,4.546-7.147,11.697c-2.683-0.334-5.79-1.018-9.336-2.148C63.915,185.138,61.252,182.327,59.404,181.193"/>
	<path fill="#FFFFFF" d="M76.32,181.019c-2.213-0.25-2.223-0.248-3.312,0.295c-1.163,0.582-2.572,1.339-3.535,2.229
		c-0.272,0.25-0.436,0.383-0.093,0.647c0.238,0.186,0.574,0.33,0.865,0.398c0.328,0.074,0.55,0.021,0.795-0.203
		C71.368,184.078,75.335,181.539,76.32,181.019"/>
	<path fill="#0052A3" d="M55.43,188.65h0.003c-0.163-1.35-0.672-3.736-1.357-7.855c-2.021,0.092-4.392-0.109-6.253-0.075
		c-3.223-0.251-6.037-0.171-8.454,0.149c0.017,0.012,0.033,0.023,0.05,0.035c-17.888,2.357-15.244,21.141,15.714,9.316
		C55.483,190.085,55.557,189.655,55.43,188.65"/>
	<path fill="none" stroke="#0052A3" stroke-width="3.5361" stroke-linecap="round" stroke-linejoin="round" d="M55.43,188.65h0.003
		c-0.163-1.35-0.672-3.736-1.357-7.855c-2.021,0.092-4.392-0.109-6.253-0.075c-3.223-0.251-6.037-0.171-8.454,0.149
		c0.017,0.012,0.033,0.023,0.05,0.035c-17.888,2.357-15.244,21.141,15.714,9.316C55.483,190.085,55.557,189.655,55.43,188.65z"/>
	<path fill="#FFFFFF" d="M55.433,188.668c-0.156-1.303-0.638-3.581-1.289-7.447c-1.85,1.131-4.511,3.942-3.229,10.499
		c1.342-0.429,2.745-0.921,4.217-1.48c0.352-0.136,0.426-0.564,0.299-1.571H55.433z"/>
	<path fill="#FFFFFF" d="M34.432,182.171c-9.695,3.832-8.288,13.609,7.148,11.698C40.682,186.718,37.393,183.556,34.432,182.171"/>
	<path fill="#005EAD" d="M54.144,181.221c-0.023-0.136-0.045-0.269-0.068-0.405c-2.021,0.09-4.392-0.113-6.253-0.078
		c-3.223-0.248-6.037-0.168-8.452,0.153c0.017,0.009,0.031,0.021,0.048,0.032c-1.896,0.25-3.56,0.687-4.986,1.248
		c2.961,1.385,6.25,4.547,7.146,11.698c2.684-0.333,5.79-1.019,9.336-2.149C49.633,185.164,52.295,182.352,54.144,181.221"/>
	<path fill="#FFFFFF" d="M37.229,181.046c2.213-0.252,2.221-0.251,3.311,0.295c1.164,0.58,2.572,1.338,3.535,2.227
		c0.271,0.251,0.435,0.386,0.095,0.65c-0.241,0.187-0.575,0.328-0.867,0.396c-0.326,0.074-0.551,0.023-0.794-0.203
		C42.18,184.103,38.213,181.566,37.229,181.046"/>
	<path fill="#4AB034" d="M37.478,173.017c0.495,3.087,0.787,5.135,0.787,5.135s10.024,2.151,15.788,0.902
		c-0.015-1.9-0.022-3.357-0.023-4.541c-0.004-2.097,0.183-5.274,0.226-6.468c0.283-0.05,5.018,0.028,5.302,0.079
		c0.045,1.19-0.03,4.289-0.034,6.375c-0.001,1.184-0.01,2.648-0.021,4.555c5.764,1.249,15.788-0.902,15.788-0.902
		s0.361-2.081,0.864-5.21c0.836-5.218,2.063-13.354,2.656-19.63c0.025-0.262,0.041-0.521,0.064-0.785
		c-3.053,1.102-10.834,3.428-22.064,3.453c-11.23-0.025-19.011-2.352-22.063-3.453c0.022,0.264,0.038,0.523,0.063,0.785
		C35.406,159.619,36.643,167.802,37.478,173.017"/>
	<path fill="none" stroke="#3B801C" stroke-width="3.448" d="M37.478,173.017c0.495,3.087,0.787,5.135,0.787,5.135
		s10.024,2.151,15.788,0.902c-0.015-1.9-0.022-3.357-0.023-4.541c-0.004-2.097,0.183-5.274,0.226-6.468
		c0.283-0.05,5.018,0.028,5.302,0.079c0.045,1.19-0.03,4.289-0.034,6.375c-0.001,1.184-0.01,2.648-0.021,4.555
		c5.764,1.249,15.788-0.902,15.788-0.902s0.361-2.081,0.864-5.21c0.836-5.218,2.063-13.354,2.656-19.63
		c0.025-0.262,0.041-0.521,0.064-0.785c-3.053,1.102-10.834,3.428-22.064,3.453c-11.23-0.025-19.011-2.352-22.063-3.453
		c0.022,0.264,0.038,0.523,0.063,0.785C35.406,159.619,36.643,167.802,37.478,173.017"/>
	<path fill="#4AB034" d="M37.478,173.017c0.495,3.087,0.787,5.135,0.787,5.135s10.024,2.151,15.788,0.902
		c-0.015-1.9-0.022-3.357-0.023-4.541c-0.004-2.097,0.183-5.274,0.226-6.468c0.283-0.05,5.018,0.028,5.302,0.079
		c0.045,1.19-0.03,4.289-0.034,6.375c-0.001,1.184-0.01,2.648-0.021,4.555c5.764,1.249,15.788-0.902,15.788-0.902
		s0.361-2.081,0.864-5.21c0.836-5.218,2.063-13.354,2.656-19.63c0.025-0.262,0.041-0.521,0.064-0.785
		c-3.053,1.102-10.834,3.428-22.064,3.453c-11.23-0.025-19.011-2.352-22.063-3.453c0.022,0.264,0.038,0.523,0.063,0.785
		C35.406,159.619,36.643,167.802,37.478,173.017"/>
	<path fill="#0052A3" d="M78.741,153.847c1.511-17.068-0.638-33.828-4.425-49.303l-0.166-5.15l-34.637,1.067l-0.359,4.747
		c-3.657,15.172-5.721,31.553-4.298,48.238C39.561,155.195,55.837,160.041,78.741,153.847"/>
	<path fill="none" stroke="#0052A3" stroke-width="3.5361" stroke-linecap="round" stroke-linejoin="round" d="M78.741,153.847
		c1.511-17.068-0.638-33.828-4.425-49.303l-0.166-5.15l-34.637,1.067l-0.359,4.747c-3.657,15.172-5.721,31.553-4.298,48.238
		C39.561,155.195,55.837,160.041,78.741,153.847z"/>
	<path fill="#EE7A00" d="M38.214,117.109c-6.679,3.961-16.797,10.955-19.924,19.568c0.798,0.041,6.656,6.725,4.587,9.385
		c-1.46,1.879-4.537-0.701-5.461-1.609c0.563,0.838,1.184,6.933-0.48,7.607c-3.811,1.549-4.876-3.705-5.539-7.477
		c-0.058,1.23,0.918,6.82-1.253,6.74c-3.87,0.367-4.451-7.043-3.888-7.854c-0.543,1.416,0.315,5.27-3.405,4.811
		c-2.281-0.283-2.071-13.232,10.038-13.946c3.526-8.765,14.203-17.513,20.317-20.059"/>
	<path fill="none" stroke="#EE7A00" stroke-width="3.448" d="M38.214,117.109c-6.679,3.961-16.797,10.955-19.924,19.568
		c0.798,0.041,6.656,6.725,4.587,9.385c-1.46,1.879-4.537-0.701-5.461-1.609c0.563,0.838,1.184,6.933-0.48,7.607
		c-3.811,1.549-4.876-3.705-5.539-7.477c-0.058,1.23,0.918,6.82-1.253,6.74c-3.87,0.367-4.451-7.043-3.888-7.854
		c-0.543,1.416,0.315,5.27-3.405,4.811c-2.281-0.283-2.071-13.232,10.038-13.946c3.526-8.765,14.203-17.513,20.317-20.059"/>
	<path fill="#FFE100" d="M38.215,117.109c-6.68,3.961-16.798,10.955-19.925,19.568c0.798,0.041,6.656,6.725,4.587,9.385
		c-1.46,1.879-4.537-0.701-5.461-1.609c0.563,0.838,1.184,6.933-0.48,7.607c-3.811,1.549-4.876-3.705-5.539-7.477
		c-0.058,1.23,0.918,6.82-1.253,6.74c-3.87,0.367-4.451-7.043-3.888-7.854c-0.542,1.416,0.316,5.27-3.404,4.811
		c-2.282-0.283-2.072-13.232,10.037-13.946c3.526-8.765,14.204-17.513,20.317-20.059"/>
	<path fill="#0052A3" d="M8.628,130.341c0,0,13.541,3.992,15.395,5.701c0,0,1.854-6.842,15.533-18.957l0.146-14.396
		C39.702,102.689,16.611,110.529,8.628,130.341"/>
	<path fill="none" stroke="#0052A3" stroke-width="3.5361" stroke-linecap="round" stroke-linejoin="round" d="M8.628,130.341
		c0,0,13.541,3.992,15.395,5.701c0,0,1.854-6.842,15.533-18.957l0.146-14.396C39.702,102.689,16.611,110.529,8.628,130.341z"/>
	<path fill="#EE7A00" d="M75.302,117.466c6.68,3.963,16.799,10.955,19.927,19.568c-0.799,0.041-6.658,6.725-4.59,9.385
		c1.462,1.879,4.54-0.701,5.464-1.609c-0.564,0.838-1.184,6.933,0.479,7.609c3.811,1.547,4.877-3.707,5.54-7.479
		c0.057,1.232-0.918,6.82,1.253,6.74c3.872,0.367,4.452-7.043,3.887-7.853c0.544,1.415-0.313,5.269,3.409,4.81
		c2.279-0.283,2.068-13.232-10.042-13.946c-3.525-8.764-14.204-17.513-20.318-20.059"/>
	<path fill="none" stroke="#EE7A00" stroke-width="3.448" d="M75.302,117.466c6.68,3.963,16.799,10.955,19.927,19.568
		c-0.799,0.041-6.658,6.725-4.59,9.385c1.462,1.879,4.54-0.701,5.464-1.609c-0.564,0.838-1.184,6.933,0.479,7.609
		c3.811,1.547,4.877-3.707,5.54-7.479c0.057,1.232-0.918,6.82,1.253,6.74c3.872,0.367,4.452-7.043,3.887-7.853
		c0.544,1.415-0.313,5.269,3.409,4.81c2.279-0.283,2.068-13.232-10.042-13.946c-3.525-8.764-14.204-17.513-20.318-20.059"/>
	<path fill="#FFE100" d="M75.302,117.466c6.68,3.963,16.799,10.955,19.927,19.568c-0.799,0.041-6.658,6.725-4.59,9.385
		c1.462,1.879,4.54-0.701,5.464-1.609c-0.564,0.838-1.184,6.933,0.479,7.609c3.811,1.547,4.877-3.707,5.54-7.479
		c0.057,1.232-0.918,6.82,1.253,6.74c3.872,0.367,4.452-7.043,3.887-7.853c0.544,1.415-0.314,5.269,3.407,4.81
		c2.281-0.283,2.07-13.232-10.04-13.946c-3.525-8.764-14.204-17.513-20.318-20.059"/>
	<path fill="#0052A3" d="M104.89,130.699c0,0-13.542,3.992-15.395,5.701c0,0-1.854-6.842-15.538-18.957l-0.141-14.396
		C73.817,103.046,96.908,110.886,104.89,130.699"/>
	<path fill="none" stroke="#0052A3" stroke-width="3.5361" stroke-linecap="round" stroke-linejoin="round" d="M104.89,130.699
		c0,0-13.542,3.992-15.395,5.701c0,0-1.854-6.842-15.538-18.957l-0.141-14.396C73.817,103.046,96.908,110.886,104.89,130.699z"/>
	<path fill="#0076BE" d="M97.023,118.408l-12.848,9.469c-1.133-1.393-2.505-2.947-4.152-4.652l9.213-11.779
		C91.871,113.391,94.552,115.703,97.023,118.408"/>
	<path fill="#ED7623" d="M104.89,130.699c0,0-13.542,3.992-15.395,5.701c0,0-0.531-1.955-3.116-5.628l15.293-6.314
		C102.9,126.391,103.992,128.469,104.89,130.699"/>
	<path fill="#A6CE57" d="M101.673,124.458l-15.294,6.314c-0.611-0.87-1.341-1.837-2.204-2.896l12.848-9.469
		C98.697,120.242,100.274,122.253,101.673,124.458"/>
	<path fill="#ED7623" d="M75.146,118.036l-0.143-14.396c0,0,3.465,1.178,8.172,3.77l-6.567,11.943
		C76.135,118.921,75.65,118.482,75.146,118.036"/>
	<path fill="#0076BE" d="M16.498,118.05l12.845,9.469c1.133-1.393,2.506-2.947,4.152-4.652l-9.212-11.779
		C21.648,113.033,18.966,115.345,16.498,118.05"/>
	<path fill="#ED7623" d="M8.628,130.341c0,0,13.541,3.992,15.395,5.701c0,0,0.531-1.958,3.115-5.629L11.846,124.1
		C10.62,126.034,9.528,128.112,8.628,130.341"/>
	<path fill="#A6CE57" d="M11.846,124.1l15.292,6.313c0.611-0.869,1.341-1.837,2.204-2.895l-12.845-9.469
		C14.823,119.884,13.246,121.896,11.846,124.1"/>
	<path fill="#ED7623" d="M39.558,117.085l0.144-14.396c0,0-3.466,1.177-8.173,3.77l6.568,11.941
		C38.571,117.97,39.053,117.533,39.558,117.085"/>
	<path fill="#A6CE57" d="M38.097,118.4l-6.568-11.941c-2.218,1.221-4.709,2.754-7.247,4.629l9.213,11.779
		C34.834,121.478,36.359,119.99,38.097,118.4"/>
	<path fill="#0076BE" d="M55.687,99.963l-5.648,0.175c-1.541,13.249-4.219,40.717-2.088,56.277c2.708,0.314,5.756,0.507,9.107,0.48
		C57.091,148.634,56.121,114.707,55.687,99.963"/>
	<path fill="#0076BE" d="M74.315,104.542l-0.165-5.148l-4.387,0.135c1.754,8.884,4.571,28.041,3.465,55.622
		c1.791-0.366,3.626-0.796,5.512-1.304C80.253,136.779,78.104,120.019,74.315,104.542"/>
	<path fill="#ED7623" d="M43.378,100.343l-3.865,0.121l-0.359,4.745c-3.657,15.172-5.721,31.555-4.298,48.238
		c1.11,0.412,2.874,0.998,5.21,1.57C39.005,128.322,41.622,109.537,43.378,100.343"/>
	<path fill="#A6CE57" d="M50.039,100.138l-6.66,0.205c-1.757,9.194-4.374,27.979-3.312,54.674c2.152,0.527,4.797,1.041,7.884,1.398
		C45.82,140.855,48.498,113.387,50.039,100.138"/>
	<path fill="#A6CE57" d="M69.763,99.529l-6.551,0.203c1.529,13.082,4.285,40.945,2.138,56.668c2.507-0.277,5.137-0.686,7.878-1.249
		C74.334,127.57,71.518,108.412,69.763,99.529"/>
	<path fill="#ED7623" d="M63.212,99.732l-7.525,0.231c0.434,14.743,1.404,48.671,1.373,56.933c2.586-0.018,5.355-0.169,8.29-0.496
		C67.5,140.677,64.742,112.814,63.212,99.732"/>
	<polygon fill="#FFFFFF" points="64.919,108.634 55.318,122.077 45.718,108.155 	"/>
	<path fill="#E73826" d="M74.415,104.973c-0.034-0.143-0.066-0.288-0.102-0.431l-0.163-5.148l-34.639,1.067l-0.359,4.747
		c-0.088,0.367-0.172,0.735-0.257,1.102C45.268,107.177,57.107,107.824,74.415,104.973"/>
	<path fill="#0052A3" d="M36.426,95.142c-1.058,1.372-0.022,7.932,1.173,9.104c7.43,7.284,34.982,5.403,37.993-1.605
		c0.854-1.983,2.187-7.792-0.493-7.902C73.759,94.686,37.333,93.855,36.426,95.142"/>
	<path fill="none" stroke="#0052A3" stroke-width="3.5361" stroke-linecap="round" stroke-linejoin="round" d="M36.426,95.142
		c-1.058,1.372-0.022,7.932,1.173,9.104c7.43,7.284,34.982,5.403,37.993-1.605c0.854-1.983,2.187-7.792-0.493-7.902
		C73.759,94.686,37.333,93.855,36.426,95.142"/>
	<path fill="#0052A3" d="M36.426,95.142c-1.058,1.372-0.022,7.932,1.173,9.104c7.43,7.284,34.982,5.403,37.993-1.605
		c0.854-1.983,2.187-7.792-0.493-7.902C73.759,94.686,37.333,93.855,36.426,95.142"/>
	<path fill="none" stroke="#0052A3" stroke-width="3.5361" stroke-linecap="round" stroke-linejoin="round" d="M36.426,95.142
		c-1.058,1.372-0.022,7.932,1.173,9.104c7.43,7.284,34.982,5.403,37.993-1.605c0.854-1.983,2.187-7.792-0.493-7.902
		C73.759,94.686,37.333,93.855,36.426,95.142"/>
	<path fill="#0052A3" d="M36.426,95.142c-1.058,1.372-0.022,7.932,1.173,9.104c7.43,7.284,34.982,5.403,37.993-1.605
		c0.854-1.983,2.187-7.792-0.493-7.902C73.759,94.686,37.333,93.855,36.426,95.142"/>
	<path fill="none" stroke="#0052A3" stroke-width="3.5361" stroke-linecap="round" stroke-linejoin="round" d="M36.426,95.142
		c-1.058,1.372-0.022,7.932,1.173,9.104c7.43,7.284,34.982,5.403,37.993-1.605c0.854-1.983,2.187-7.792-0.493-7.902
		C73.759,94.686,37.333,93.855,36.426,95.142"/>
	<path fill="#FFFFFF" d="M36.426,95.142c-1.058,1.372-0.022,7.932,1.173,9.104c7.43,7.284,34.982,5.403,37.993-1.605
		c0.854-1.983,2.187-7.792-0.493-7.902C73.759,94.686,37.333,93.855,36.426,95.142"/>
	<path fill="#FFFFFF" d="M36.426,95.142c-1.058,1.372-0.022,7.932,1.173,9.104c7.43,7.284,34.982,5.403,37.993-1.605
		c0.854-1.983,2.187-7.792-0.493-7.902C73.759,94.686,37.333,93.855,36.426,95.142"/>
	<path fill="#FFFFFF" d="M36.426,95.142c-1.058,1.372-0.022,7.932,1.173,9.104c7.43,7.284,34.982,5.403,37.993-1.605
		c0.854-1.983,2.187-7.792-0.493-7.902C73.759,94.686,37.333,93.855,36.426,95.142"/>
	<path fill="#EE7A00" d="M78.688,72.912c0,5.8,3.587,10.501,8.014,10.501c4.426,0,8.013-4.702,8.013-10.501
		c0-5.798-3.587-10.499-8.013-10.499C82.275,62.413,78.688,67.114,78.688,72.912"/>
	<ellipse fill="none" stroke="#EE7A00" stroke-width="3.448" cx="86.701" cy="72.912" rx="8.013" ry="10.501"/>
	<path fill="#EE7A00" d="M16.482,72.447c0,5.799,3.587,10.499,8.012,10.499s8.014-4.699,8.014-10.499
		c0-5.8-3.589-10.501-8.014-10.501S16.482,66.646,16.482,72.447"/>
	<ellipse fill="none" stroke="#EE7A00" stroke-width="3.448" cx="24.495" cy="72.447" rx="8.013" ry="10.499"/>
	<path fill="#FFE100" d="M78.688,72.912c0,5.8,3.587,10.501,8.014,10.501c4.426,0,8.013-4.702,8.013-10.501
		c0-5.798-3.587-10.499-8.013-10.499C82.275,62.413,78.688,67.114,78.688,72.912"/>
	<path fill="#FFE100" d="M16.482,72.447c0,5.799,3.587,10.499,8.012,10.499s8.014-4.699,8.014-10.499
		c0-5.8-3.589-10.501-8.014-10.501S16.482,66.646,16.482,72.447"/>
	<path fill="#EE7A00" d="M35.481,96.415c-8.604-6.103-11.872-18.878-10.123-31.99C28.286,42.454,41.8,24.646,55.542,24.646
		c13.745,0,27.261,17.808,30.19,39.779c1.828,13.732-2.764,25.839-11.252,32.987c0,0-9.062,5.657-21.436,4.26
		C53.044,101.671,44.208,102.603,35.481,96.415"/>
	<path fill="none" stroke="#EE7A00" stroke-width="3.448" d="M35.481,96.415c-8.604-6.103-11.872-18.878-10.123-31.99
		C28.286,42.454,41.8,24.646,55.542,24.646c13.745,0,27.261,17.808,30.19,39.779c1.828,13.732-2.764,25.839-11.252,32.987
		c0,0-9.062,5.657-21.436,4.26C53.044,101.671,44.208,102.603,35.481,96.415z"/>
	<path fill="#FFE100" d="M35.481,96.415c-8.604-6.103-11.872-18.878-10.123-31.99C28.286,42.454,41.8,24.646,55.542,24.646
		c13.745,0,27.261,17.808,30.19,39.779c1.828,13.732-2.764,25.839-11.252,32.987c0,0-9.062,5.657-21.436,4.26
		C53.044,101.671,44.208,102.603,35.481,96.415"/>
	<path fill="#FFFFFF" d="M34.926,59.054c0,5.47,4.211,9.905,9.401,9.905c5.189,0,9.399-4.435,9.399-9.905
		c0-5.469-4.21-9.903-9.399-9.903C41.744,50.122,36.654,54.327,34.926,59.054"/>
	<path fill="#FFFFFF" d="M76.383,59.054c0,5.47-4.207,9.905-9.399,9.905c-5.193,0-9.4-4.435-9.4-9.905
		c0-5.469,5.852-10.924,9.4-9.903C70.57,50.182,74.724,55.433,76.383,59.054"/>
	<path fill="#231815" d="M41.355,59.539c0,2.684,2.065,4.86,4.612,4.86c2.549,0,4.616-2.176,4.616-4.86
		c0-2.688-2.067-4.862-4.616-4.862C43.42,54.677,41.355,56.852,41.355,59.539"/>
	<path fill="#F19000" d="M44.901,74.727c0,7.949,4.913,14.389,10.976,14.389c6.06,0,10.975-6.44,10.975-14.389
		c0-7.945-4.915-14.389-10.975-14.389C49.814,60.338,44.901,66.782,44.901,74.727"/>
	<path fill="#231815" d="M69.902,59.539c0,2.684-2.065,4.86-4.616,4.86c-2.547,0-4.611-2.176-4.611-4.86
		c0-2.688,2.064-4.862,4.611-4.862C67.836,54.677,69.902,56.852,69.902,59.539"/>
	<path fill="#0E0000" d="M71.802,29.932c-1.882,0.819-3.351,1.428-5.432,1.618c-1.915,0.173-3.897-0.437-5.322-1.641
		c-1.153,1.367-3.117,1.779-4.848,1.673c-1.363-0.084-3.206-0.666-4.59-1.602c-3.109,1.432-6.244,1.762-9.729,1.129
		c-1.955-0.354-3.608-1.473-5.053-2.735c-1.627-1.427-5.364-7.016-5.286-6.978c1.662,0.847,3.008,1.438,4.772,1.622
		c1.297,0.137,2.528,0.113,3.744-0.054c-0.121-0.107-0.242-0.211-0.364-0.318c-3.516-3.116-3.019-9.505-2.568-8.752
		c1.937,2.253,4.569,3.295,7.374,3.756c-0.28-0.31-0.487-0.671-0.75-0.976c-4.9-5.721-1.278-11.893-1.238-11.674
		c0.077,0.433,1.771,5.083,3.654,6.395c0.819,0.571,1.717,0.893,2.623,1.181c-0.33-1.387-0.516-2.808-0.579-4.255
		C47.905,1.46,52.399,0.062,52.47,0c0.06-0.053-0.015,3.078,1.912,6.163c0.486,0.781,0.994,1.548,1.591,2.253
		c0.251-0.39,0.521-0.775,0.833-1.155c0.999-1.208,2.352-2.047,3.719-2.802c1.636-0.907,5.496-2.292,5.407-2.109
		c-0.197,0.399-0.446,0.75-0.72,1.069c-1.174,1.854-2.08,3.742-2.672,5.91c-0.315,1.153-0.398,2.302-0.398,3.452
		c1-0.365,1.992-0.75,2.929-1.301c2.015-1.186,3.802-3.05,4.737-5.154c0.04-0.088,1.141,4.974-0.127,7.265
		c2.256-0.795,4.737-1.04,6.429-0.124c0.126,0.067-4.364,3.678-5.694,5.71c-0.828,1.262-1.39,2.687-1.998,4.075
		c0.523-0.054,1.046-0.131,1.571-0.244c2.806-0.611,8.123-5.667,8.084-5.523c-0.872,3.142-1.511,5.745-4.033,8.027
		c-0.524,0.471-1.093,0.877-1.694,1.235c0.588-0.125,1.184-0.227,1.802-0.254c2.347-0.115,4.398,0.1,6.218,1.634
		C80.615,28.338,74.475,28.77,71.802,29.932"/>
	<path fill="none" stroke="#231815" stroke-width="3.9784" stroke-linecap="round" d="M35.063,49.873
		c0,0,17.514-20.294,40.034-0.833"/>
	<path fill="#E73534" d="M70.443,96.685c0,0-11.746-9.914-28.774-0.556C41.668,96.129,55.318,90.918,70.443,96.685"/>
</g>
</svg>
