<?xml version="1.0" encoding="utf-8"?>
<!-- Generator: Adobe Illustrator 16.0.0, SVG Export Plug-In . SVG Version: 6.00 Build 0)  -->
<!DOCTYPE svg PUBLIC "-//W3C//DTD SVG 1.1//EN" "http://www.w3.org/Graphics/SVG/1.1/DTD/svg11.dtd">
<svg version="1.1" id="レイヤー_1" xmlns="http://www.w3.org/2000/svg" xmlns:xlink="http://www.w3.org/1999/xlink" x="0px"
	 y="0px" width="468.421px" height="123.921px" viewBox="0 0 468.421 123.921" enable-background="new 0 0 468.421 123.921"
	 xml:space="preserve">
<g>
	<path fill="#009E41" d="M301.56,0l144.568,0.01c12.291,0,22.293,10.02,22.293,22.308v79.298c0,12.281-10.002,22.305-22.293,22.305
		H22.274C9.996,123.921,0,113.897,0,101.616V22.318C0,10.03,9.996,0.01,22.274,0.01L166.855,0H301.56z"/>
	<path fill="#FFFFFF" d="M444.8,14.005H23.602c-5.278,0-9.576,4.309-9.576,9.594v76.751c0,5.283,4.298,9.55,9.576,9.55H444.8
		c5.271,0,9.582-4.267,9.582-9.55V23.599C454.382,18.314,450.072,14.005,444.8,14.005z"/>
</g>
<g>
	<g>
		<path fill="#980C27" d="M58.832,68.6c-3.989,0.348-6.542,1.375-7.69,3.127c-1.134,1.647-1.964,3.718-2.493,6.255
			c-0.529,2.418-0.937,4.594-1.239,6.543c-0.906,4.261,0.333,7.706,3.732,10.29h0.015c2.992,2.297,6.649,3.293,10.939,2.992
			c4.473-0.303,7.736-1.949,9.762-4.896c2.386-3.4,2.372-7.857-0.107-13.387c-0.65-1.481-1.481-3.053-2.462-4.715
			c-1.36-2.311-2.417-3.958-3.173-4.956C65.314,68.661,62.897,68.252,58.832,68.6 M58.952,69.9c3.385-0.288,5.426-0.046,6.12,0.74
			c0.742,0.982,1.753,2.583,3.098,4.836c0.951,1.601,1.752,3.126,2.402,4.593c2.221,4.986,2.296,9.021,0.196,12.104
			c-1.828,2.614-4.744,4.064-8.764,4.321c-3.943,0.286-7.297-0.619-10.063-2.705c-2.961-2.281-4.049-5.258-3.263-8.99
			c0-0.03,0-0.03,0.015-0.045c0.287-1.934,0.695-4.081,1.224-6.498c0.483-2.341,1.269-4.276,2.296-5.787
			C53.241,71.047,55.493,70.202,58.952,69.9"/>
	</g>
	<g>
		<path fill="#D56F45" d="M65.072,70.64c-0.694-0.785-2.734-1.027-6.12-0.74c-3.459,0.302-5.71,1.147-6.738,2.568
			c-1.027,1.51-1.814,3.445-2.297,5.787c-0.529,2.418-0.937,4.563-1.224,6.498c-0.015,0.015-0.015,0.015-0.015,0.044
			c-0.787,3.733,0.302,6.71,3.263,8.991c2.765,2.086,6.12,2.991,10.063,2.705c4.02-0.257,6.936-1.709,8.764-4.322
			c2.1-3.082,2.024-7.116-0.196-12.103c-0.65-1.466-1.451-2.992-2.402-4.593C66.825,73.223,65.812,71.622,65.072,70.64"/>
	</g>
	<g>
		<path fill="#980C27" d="M62.867,89.347l-0.076-0.56l5.877-1.647l2.766,13.479l2.387,0.527c4.337,0.998,7.584,2.57,9.762,4.762
			c2.552,2.522,3.157,4.699,1.797,6.527h0.015c-1.148,1.768-3.641,2.522-7.464,2.234c-1.662-0.12-3.551-0.619-5.667-1.51
			c-1.435-0.59-2.991-1.39-4.668-2.357c-0.016-0.029-0.061-0.091-0.106-0.105c-0.06-0.061-0.137-0.137-0.211-0.212
			c-0.03-0.03-0.076-0.06-0.121-0.075c-0.015-0.045-0.061-0.091-0.061-0.137c-0.151-0.195-0.272-0.453-0.394-0.739
			c-0.24-0.62-0.453-1.239-0.665-1.888c-0.044-0.139-0.075-0.259-0.105-0.379c-0.378-1.193-0.68-2.403-0.907-3.657
			c-0.423-2.401-0.847-4.835-1.223-7.237C63.455,94.03,63.138,91.703,62.867,89.347 M70.95,101.947
			c-0.182-0.015-0.347-0.03-0.499-0.045l-2.75-13.146l-3.49,0.996c0.272,2.146,0.559,4.293,0.876,6.406
			c0.377,2.418,0.787,4.82,1.209,7.224c0.377,1.995,0.936,3.913,1.707,5.788l0.03,0.12c0.014,0.015,0.014,0.015,0.014,0.03
			c1.497,1.043,3.052,1.919,4.685,2.644c0.71,0.287,1.405,0.544,2.071,0.756c1.164,0.362,2.22,0.574,3.218,0.649
			c3.203,0.257,5.303-0.316,6.301-1.677c0.831-1.345,0.287-2.962-1.648-4.864c-2.176-2.132-5.438-3.643-9.821-4.579l-1.072-0.136
			C71.509,102.053,71.222,101.993,70.95,101.947"/>
	</g>
	<g>
		<path fill="#D72C1B" d="M70.451,101.902c0.152,0.015,0.317,0.03,0.499,0.045c0.271,0.046,0.559,0.105,0.831,0.167l1.073,0.136
			c4.382,0.937,7.645,2.447,9.82,4.579c1.935,1.902,2.479,3.52,1.648,4.864c-0.999,1.36-3.098,1.934-6.301,1.677
			c-0.998-0.075-2.054-0.287-3.218-0.649c-0.666-0.212-1.36-0.469-2.07-0.756c-1.633-0.725-3.188-1.602-4.685-2.644
			c0-0.016,0-0.016-0.014-0.031l-0.03-0.121c-0.771-1.873-1.33-3.791-1.708-5.786c-0.421-2.403-0.831-4.806-1.208-7.224
			c-0.318-2.113-0.604-4.26-0.877-6.406l3.49-0.996L70.451,101.902z"/>
	</g>
	<g>
		<path fill="#980C27" d="M60.63,89.905c-0.105,0.09-0.197,0.211-0.227,0.363l-3.687,13.688c-0.015,0-0.015,0.03-0.015,0.03
			l-0.65,2.389c-0.166,0.361-0.393,0.74-0.664,1.117c-1.254,1.783-3.022,3.248-5.273,4.381c-2.236,1.104-4.321,1.556-6.24,1.346
			h-0.016c-1.722-0.196-2.826-0.907-3.279-2.146c-0.423-1.33-0.06-2.826,1.104-4.486h-0.016c1.256-1.814,3.023-3.25,5.259-4.383
			c2.025-0.997,3.914-1.451,5.696-1.391l0.53,0.016l3.49-12.828c0.045-0.196,0.031-0.362-0.06-0.514
			c-0.031-0.045-0.061-0.09-0.106-0.137c-0.076-0.091-0.181-0.15-0.302-0.165c-0.182-0.061-0.348-0.03-0.498,0.061
			c-0.167,0.09-0.257,0.226-0.318,0.393l-3.233,11.846c-1.799,0.015-3.717,0.529-5.772,1.526c-2.477,1.239-4.397,2.825-5.772,4.805
			c-1.451,2.101-1.888,3.988-1.254,5.695c0.575,1.753,2.04,2.766,4.397,3.023c2.146,0.256,4.473-0.242,6.966-1.465
			c2.493-1.224,4.427-2.842,5.787-4.822c0.303-0.438,0.575-0.86,0.786-1.27c0.016-0.028,0.016-0.06,0.03-0.09
			c0.453-0.921,0.694-1.797,0.726-2.629l3.656-13.645c0.045-0.18,0.03-0.346-0.061-0.498c-0.03-0.076-0.09-0.137-0.151-0.182
			c-0.076-0.06-0.15-0.12-0.256-0.135c-0.183-0.046-0.333-0.031-0.5,0.075C60.675,89.89,60.66,89.89,60.63,89.905"/>
	</g>
	<g>
		<path fill="#D72C1B" d="M60.403,90.267c0.029-0.15,0.121-0.271,0.227-0.362c0.03-0.015,0.045-0.015,0.075-0.029
			c0.167-0.105,0.317-0.121,0.5-0.075c0.105,0.015,0.18,0.075,0.256,0.135c-0.015-0.271-0.076-0.528-0.181-0.785
			c-0.348-0.861-1.013-1.436-1.935-1.692c-0.756-0.227-1.557-0.302-2.388-0.257c-0.06,0.03-0.135,0.045-0.211,0.061
			c-0.091,0.029-0.182,0.061-0.272,0.09c0.045,0.047,0.076,0.092,0.106,0.137c0.091,0.15,0.105,0.317,0.06,0.514l-3.49,12.828
			l-0.53-0.016c-1.783-0.061-3.671,0.395-5.696,1.391c-2.236,1.133-4.004,2.568-5.259,4.383h0.016
			c-1.163,1.661-1.525,3.156-1.104,4.486c0.454,1.239,1.557,1.949,3.279,2.146h0.016c1.918,0.211,4.004-0.242,6.24-1.346
			c2.251-1.133,4.02-2.598,5.273-4.381c0.271-0.379,0.498-0.756,0.664-1.119l0.65-2.387c0,0,0-0.03,0.015-0.03L60.403,90.267z"/>
	</g>
	<g>
		<path fill="#D72C1B" d="M78.807,37.338c-0.348-0.257-0.696-0.499-1.058-0.74c-0.741-0.483-1.496-0.937-2.266-1.36
			c-0.635-0.333-1.254-0.62-1.905-0.892c-0.86-0.348-1.721-0.695-2.598-1.027c-0.862-0.333-1.769-0.604-2.675-0.832
			c-0.044,0-0.075-0.03-0.12-0.03c0.892-1.677,1.208-3.43,0.952-5.243c-0.348-2.402-1.541-4.306-3.565-5.727
			c-2.025-1.436-4.321-1.964-6.86-1.602c-2.524,0.362-4.563,1.511-6.105,3.46c-0.573,0.71-1.012,1.451-1.314,2.222
			c-0.09-0.106-0.181-0.212-0.256-0.303c-0.424-0.423-0.892-0.815-1.42-1.148c-0.665-0.423-1.345-0.771-2.041-1.043
			c-0.831-0.317-1.676-0.514-2.583-0.559c-0.771-0.045-1.542-0.03-2.267,0.106c-0.756,0.105-1.481,0.302-2.176,0.604
			c-0.816,0.303-1.572,0.741-2.252,1.284c-0.604,0.469-1.118,0.998-1.586,1.587c-0.544,0.695-0.998,1.451-1.3,2.297
			c-0.302,0.786-0.483,1.632-0.513,2.493c-0.046,0.755,0.015,1.496,0.167,2.251c0.181,0.861,0.468,1.647,0.891,2.418
			c0.151,0.332,0.483,0.755,0.966,1.299c-0.574,0.348-1.147,0.695-1.707,1.059c-0.559,0.348-1.118,0.725-1.662,1.118
			c-0.8,0.574-1.587,1.179-2.357,1.843c-0.604,0.529-1.178,1.058-1.723,1.602c-0.62,0.635-1.193,1.284-1.753,1.964
			c-0.514,0.62-1.012,1.285-1.465,1.964c-0.423,0.634-0.832,1.315-1.179,1.995c-0.347,0.68-0.634,1.359-0.876,2.069
			c-0.287,0.847-0.498,1.724-0.634,2.615c-0.152,0.876-0.227,1.768-0.227,2.674c0,0.922,0.075,1.829,0.241,2.735
			c0.167,0.907,0.394,1.783,0.696,2.644c0.302,0.831,0.68,1.663,1.133,2.433c0.453,0.801,0.982,1.526,1.572,2.222
			c0.588,0.74,1.268,1.42,1.978,2.07c0.604,0.543,1.209,1.057,1.889,1.524c0.695,0.485,1.405,0.968,2.16,1.375
			c0.787,0.454,1.602,0.877,2.449,1.271c0.846,0.392,1.707,0.739,2.568,1.072c0.862,0.332,1.769,0.619,2.674,0.875
			c0.908,0.258,1.829,0.454,2.75,0.636c0.967,0.181,1.919,0.332,2.855,0.438c0.982,0.106,1.965,0.181,2.947,0.227
			c0.755,0.029,1.51,0.061,2.266,0.015c0.757-0.015,1.543-0.045,2.313-0.075c0.786-0.061,1.571-0.121,2.372-0.211
			c0.801-0.091,1.602-0.212,2.402-0.348c0.787-0.121,1.572-0.257,2.357-0.423c0.771-0.152,1.526-0.333,2.283-0.529
			c0.724-0.181,1.465-0.377,2.19-0.634c0.937-0.303,1.889-0.635,2.796-0.983c0.906-0.362,1.783-0.755,2.66-1.178
			c0.846-0.438,1.677-0.892,2.492-1.359c0.802-0.483,1.588-0.983,2.358-1.527c0.755-0.543,1.496-1.118,2.206-1.723
			c0.71-0.604,1.391-1.224,2.04-1.889c0.604-0.605,1.209-1.254,1.769-1.918c0.196-0.243,0.377-0.484,0.573-0.726
			c0.318-0.408,0.62-0.832,0.892-1.269c0.543-0.801,1.028-1.662,1.435-2.538c0.394-0.831,0.727-1.693,0.968-2.569
			c0.242-0.877,0.408-1.768,0.499-2.689c0.091-0.907,0.105-1.813,0.03-2.72c-0.061-0.937-0.211-1.843-0.423-2.75
			c-0.212-0.877-0.498-1.738-0.846-2.6c-0.348-0.816-0.77-1.617-1.271-2.356c-0.513-0.786-1.087-1.526-1.706-2.207
			c-0.664-0.74-1.375-1.39-2.146-1.995C79.441,37.822,79.14,37.58,78.807,37.338"/>
	</g>
	<g>
		<path fill="#D56F45" d="M50.688,75.393c-0.472,0-0.95-0.019-1.413-0.037l-0.026-0.001c-0.976-0.044-1.969-0.121-2.951-0.226
			c-0.883-0.101-1.819-0.244-2.862-0.439c-0.827-0.164-1.802-0.366-2.756-0.637c-1.028-0.291-1.904-0.578-2.682-0.878
			c-0.712-0.275-1.648-0.646-2.572-1.075c-0.842-0.39-1.667-0.818-2.455-1.272c-0.765-0.413-1.489-0.907-2.166-1.379
			c-0.729-0.501-1.368-1.055-1.896-1.532c-0.836-0.765-1.468-1.426-1.987-2.079c-0.638-0.75-1.154-1.481-1.579-2.23
			c-0.433-0.738-0.817-1.561-1.138-2.444c-0.297-0.847-0.525-1.715-0.699-2.656c-0.164-0.891-0.242-1.79-0.242-2.749
			c0-0.908,0.076-1.812,0.228-2.687c0.137-0.898,0.352-1.782,0.637-2.626c0.245-0.719,0.534-1.399,0.88-2.079
			c0.331-0.647,0.729-1.321,1.183-2.002c0.447-0.67,0.942-1.333,1.47-1.971c0.592-0.72,1.167-1.364,1.757-1.968
			c0.509-0.509,1.074-1.034,1.728-1.606c0.709-0.612,1.481-1.216,2.363-1.848c0.555-0.401,1.116-0.778,1.666-1.12
			c0.534-0.347,1.09-0.685,1.63-1.012c-0.506-0.574-0.783-0.951-0.919-1.25c-0.419-0.764-0.713-1.561-0.896-2.434
			c-0.159-0.785-0.214-1.527-0.169-2.271c0.03-0.85,0.204-1.698,0.519-2.515c0.283-0.793,0.712-1.552,1.31-2.316
			c0.5-0.63,1.024-1.153,1.601-1.6c0.7-0.561,1.465-0.997,2.271-1.295c0.678-0.294,1.416-0.5,2.191-0.608
			c0.656-0.123,1.396-0.158,2.281-0.107c0.874,0.044,1.727,0.228,2.606,0.564c0.697,0.273,1.387,0.626,2.053,1.05
			c0.497,0.312,0.966,0.691,1.434,1.159c0.055,0.065,0.112,0.132,0.171,0.201l0.008,0.01c0.302-0.733,0.732-1.447,1.279-2.125
			c1.541-1.949,3.612-3.123,6.153-3.487c2.556-0.365,4.889,0.179,6.914,1.614c2.038,1.43,3.249,3.375,3.597,5.777
			c0.255,1.797-0.054,3.548-0.917,5.208c0.004,0.001,0.007,0.001,0.01,0.001c1.002,0.248,1.905,0.529,2.702,0.836
			c0.9,0.34,1.803,0.706,2.6,1.027c0.681,0.285,1.306,0.578,1.911,0.895c0.766,0.42,1.53,0.879,2.273,1.363
			c0.403,0.269,0.74,0.505,1.062,0.743c0.332,0.241,0.628,0.479,0.954,0.742c0.812,0.637,1.516,1.292,2.154,2.003
			c0.623,0.683,1.199,1.429,1.713,2.216c0.48,0.71,0.91,1.507,1.276,2.368c0.367,0.906,0.645,1.759,0.851,2.611
			c0.229,0.979,0.368,1.882,0.426,2.762c0.072,0.883,0.062,1.803-0.032,2.732c-0.091,0.929-0.254,1.813-0.5,2.703
			c-0.231,0.835-0.557,1.704-0.973,2.581c-0.415,0.896-0.901,1.753-1.441,2.548c-0.253,0.41-0.546,0.827-0.894,1.273
			c-0.101,0.124-0.195,0.246-0.291,0.367c-0.093,0.121-0.187,0.24-0.284,0.36c-0.526,0.626-1.123,1.274-1.774,1.924
			c-0.593,0.608-1.262,1.228-2.043,1.893c-0.683,0.582-1.427,1.163-2.211,1.726c-0.689,0.487-1.44,0.973-2.362,1.53
			c-0.822,0.473-1.663,0.931-2.498,1.362c-0.931,0.451-1.803,0.837-2.665,1.182c-0.882,0.339-1.825,0.668-2.8,0.984
			c-0.736,0.26-1.491,0.459-2.196,0.636c-0.872,0.227-1.599,0.396-2.286,0.53c-0.712,0.15-1.462,0.285-2.361,0.424
			c-0.895,0.152-1.681,0.265-2.405,0.348c-0.801,0.09-1.6,0.152-2.372,0.21c-0.725,0.029-1.542,0.061-2.32,0.077
			C51.263,75.384,50.99,75.393,50.688,75.393z M44.246,22.568c-0.558,0-1.051,0.042-1.507,0.128c-0.766,0.106-1.49,0.309-2.16,0.599
			c-0.796,0.294-1.545,0.722-2.235,1.274c-0.566,0.439-1.081,0.955-1.575,1.574c-0.586,0.751-1.008,1.496-1.286,2.275
			c-0.309,0.804-0.48,1.635-0.509,2.47c-0.044,0.732,0.009,1.462,0.166,2.234c0.179,0.857,0.468,1.641,0.883,2.396
			c0.137,0.302,0.423,0.685,0.957,1.286l0.06,0.068l-0.077,0.047c-0.563,0.341-1.146,0.693-1.706,1.056
			c-0.549,0.341-1.106,0.716-1.659,1.116c-0.877,0.629-1.647,1.231-2.353,1.839c-0.65,0.57-1.212,1.092-1.719,1.598
			c-0.585,0.602-1.158,1.242-1.748,1.959c-0.524,0.633-1.016,1.292-1.46,1.958c-0.452,0.676-0.846,1.345-1.175,1.987
			c-0.343,0.673-0.628,1.348-0.87,2.06c-0.284,0.835-0.497,1.71-0.633,2.601c-0.15,0.868-0.226,1.763-0.226,2.663
			c0,0.95,0.079,1.84,0.24,2.722c0.172,0.933,0.398,1.794,0.693,2.633c0.318,0.874,0.697,1.688,1.126,2.419
			c0.421,0.743,0.933,1.465,1.565,2.21c0.515,0.648,1.142,1.304,1.972,2.063c0.524,0.472,1.159,1.023,1.881,1.519
			c0.673,0.469,1.394,0.962,2.153,1.371c0.786,0.453,1.606,0.879,2.444,1.268c0.92,0.427,1.854,0.797,2.564,1.071
			c0.773,0.298,1.645,0.584,2.668,0.874c0.95,0.27,1.92,0.472,2.744,0.633c1.039,0.195,1.971,0.338,2.85,0.438
			c0.979,0.104,1.968,0.181,2.942,0.225l0.025,0.002c0.461,0.018,0.938,0.036,1.407,0.036c0.298,0,0.569-0.007,0.826-0.022
			c0.777-0.016,1.595-0.048,2.313-0.076c0.771-0.06,1.569-0.121,2.367-0.21c0.719-0.082,1.505-0.196,2.398-0.348
			c0.897-0.137,1.644-0.272,2.354-0.422c0.686-0.135,1.41-0.302,2.279-0.529c0.704-0.176,1.454-0.374,2.185-0.632
			c0.976-0.314,1.915-0.645,2.793-0.982c0.858-0.343,1.726-0.728,2.654-1.176c0.831-0.43,1.669-0.887,2.487-1.357
			c0.918-0.554,1.666-1.038,2.352-1.522c0.78-0.562,1.521-1.139,2.2-1.718c0.779-0.663,1.444-1.278,2.035-1.884
			c0.647-0.649,1.241-1.292,1.765-1.915c0.095-0.119,0.188-0.237,0.281-0.355c0.096-0.124,0.192-0.246,0.292-0.369
			c0.342-0.441,0.633-0.854,0.885-1.262c0.538-0.791,1.019-1.641,1.432-2.53c0.411-0.87,0.736-1.73,0.963-2.558
			c0.244-0.881,0.405-1.756,0.496-2.677c0.093-0.921,0.104-1.832,0.03-2.707c-0.057-0.874-0.195-1.77-0.421-2.739
			c-0.204-0.844-0.48-1.69-0.842-2.588c-0.362-0.851-0.787-1.639-1.262-2.342c-0.511-0.781-1.082-1.521-1.7-2.198
			c-0.632-0.705-1.33-1.354-2.135-1.986c-0.326-0.263-0.622-0.499-0.951-0.738c-0.32-0.237-0.655-0.472-1.055-0.739
			c-0.739-0.482-1.5-0.938-2.261-1.356c-0.6-0.314-1.221-0.605-1.898-0.888c-0.794-0.321-1.696-0.686-2.595-1.026
			c-0.791-0.305-1.688-0.584-2.667-0.828c-0.016,0.001-0.047-0.01-0.069-0.019c-0.015-0.006-0.025-0.01-0.032-0.01h-0.126
			l0.06-0.111c0.88-1.655,1.197-3.403,0.944-5.197c-0.342-2.36-1.532-4.27-3.535-5.675c-1.994-1.412-4.286-1.949-6.806-1.588
			c-2.501,0.359-4.54,1.514-6.056,3.432c-0.567,0.702-1.005,1.442-1.304,2.202l-0.045,0.118l-0.171-0.202
			c-0.06-0.069-0.117-0.137-0.167-0.197c-0.456-0.455-0.916-0.826-1.403-1.133c-0.658-0.418-1.34-0.768-2.027-1.037
			c-0.865-0.33-1.701-0.511-2.56-0.554C44.729,22.575,44.479,22.568,44.246,22.568z"/>
	</g>
	<g>
		<path fill="#980C27" d="M50.688,75.915c-0.49,0-0.98-0.02-1.459-0.04c-0.991-0.046-1.994-0.123-2.986-0.229
			c-0.896-0.102-1.845-0.247-2.902-0.445c-0.843-0.165-1.831-0.372-2.803-0.646c-1.038-0.293-1.93-0.586-2.726-0.894
			c-0.719-0.278-1.666-0.652-2.605-1.088c-0.856-0.398-1.696-0.833-2.495-1.293c-0.778-0.42-1.516-0.923-2.205-1.402
			c-0.748-0.516-1.404-1.084-1.946-1.573c-0.862-0.788-1.512-1.468-2.048-2.143c-0.649-0.767-1.185-1.523-1.624-2.298
			c-0.447-0.763-0.844-1.615-1.175-2.524c-0.308-0.876-0.543-1.771-0.721-2.74c-0.169-0.922-0.25-1.852-0.25-2.843
			c0-0.938,0.078-1.872,0.234-2.776c0.142-0.924,0.364-1.838,0.658-2.705c0.252-0.742,0.55-1.445,0.911-2.15
			c0.338-0.664,0.746-1.355,1.212-2.054c0.458-0.687,0.964-1.365,1.502-2.014c0.598-0.727,1.182-1.382,1.785-2
			c0.526-0.526,1.099-1.058,1.757-1.634c0.725-0.625,1.51-1.239,2.402-1.879c0.57-0.411,1.14-0.795,1.695-1.139
			c0.523-0.34,1.071-0.673,1.618-1.005l0.094-0.057c0.281-0.171,0.649-0.081,0.82,0.2c0.17,0.282,0.081,0.649-0.201,0.82
			l-0.094,0.058c-0.538,0.326-1.074,0.651-1.598,0.991c-0.54,0.336-1.088,0.705-1.636,1.102c-0.866,0.62-1.623,1.212-2.317,1.811
			c-0.635,0.555-1.188,1.071-1.69,1.573c-0.574,0.588-1.137,1.218-1.713,1.92c-0.515,0.62-0.996,1.264-1.431,1.917
			c-0.44,0.66-0.825,1.311-1.143,1.935c-0.334,0.652-0.609,1.304-0.842,1.991c-0.273,0.8-0.479,1.645-0.611,2.511
			c-0.146,0.849-0.218,1.715-0.218,2.584c0,0.918,0.075,1.777,0.231,2.627c0.167,0.907,0.387,1.742,0.671,2.555
			c0.303,0.835,0.669,1.621,1.085,2.328c0.407,0.718,0.899,1.415,1.513,2.137c0.507,0.638,1.117,1.275,1.927,2.017
			c0.509,0.458,1.128,0.995,1.824,1.474c0.663,0.461,1.369,0.944,2.106,1.342c0.782,0.452,1.591,0.87,2.415,1.252
			c0.908,0.421,1.831,0.787,2.533,1.058c0.761,0.294,1.618,0.575,2.621,0.858c0.931,0.264,1.889,0.463,2.703,0.623
			c1.024,0.192,1.944,0.333,2.808,0.432c0.964,0.103,1.944,0.178,2.907,0.223c0.724,0.029,1.475,0.06,2.204,0.016
			c0.775-0.016,1.557-0.047,2.324-0.076l0.025-0.002c0.752-0.058,1.529-0.117,2.302-0.206c0.708-0.079,1.482-0.191,2.372-0.342
			c0.896-0.138,1.634-0.27,2.333-0.418c0.695-0.137,1.409-0.302,2.254-0.523c0.696-0.174,1.435-0.369,2.144-0.618
			c0.984-0.32,1.915-0.646,2.779-0.978c0.832-0.333,1.69-0.713,2.614-1.16c0.814-0.421,1.646-0.875,2.456-1.339
			c0.898-0.544,1.636-1.02,2.31-1.497c0.767-0.552,1.496-1.122,2.163-1.689c0.768-0.654,1.422-1.259,1.999-1.851
			c0.637-0.638,1.221-1.271,1.739-1.887c0.087-0.108,0.179-0.224,0.269-0.34c0.099-0.125,0.196-0.251,0.299-0.377
			c0.316-0.406,0.604-0.816,0.848-1.208c0.531-0.782,0.997-1.608,1.401-2.476c0.399-0.844,0.712-1.675,0.934-2.476
			c0.234-0.853,0.392-1.701,0.479-2.589c0.09-0.893,0.1-1.771,0.03-2.611c-0.055-0.851-0.189-1.718-0.411-2.663
			c-0.193-0.807-0.46-1.629-0.816-2.513c-0.346-0.809-0.754-1.569-1.21-2.246c-0.5-0.764-1.055-1.481-1.655-2.137
			c-0.614-0.686-1.291-1.314-2.072-1.927c-0.31-0.252-0.61-0.492-0.935-0.728c-0.321-0.238-0.659-0.475-1.038-0.727
			c-0.719-0.47-1.468-0.919-2.221-1.333c-0.575-0.301-1.181-0.585-1.848-0.864c-0.85-0.343-1.707-0.688-2.58-1.02
			c-0.765-0.295-1.627-0.564-2.568-0.8c-0.057-0.008-0.103-0.022-0.137-0.035c-0.271-0.056-0.476-0.296-0.476-0.584
			c0-0.33,0.267-0.597,0.597-0.597c0.106,0,0.19,0.024,0.244,0.043c0.008,0.001,0.015,0.003,0.022,0.005
			c1.003,0.251,1.926,0.538,2.745,0.853c0.889,0.338,1.763,0.69,2.607,1.03c0.706,0.296,1.343,0.595,1.958,0.917
			c0.79,0.434,1.565,0.899,2.316,1.389c0.398,0.266,0.751,0.514,1.084,0.76c0.344,0.25,0.657,0.501,0.974,0.757
			c0.83,0.65,1.556,1.326,2.213,2.06c0.639,0.7,1.233,1.468,1.764,2.278c0.493,0.733,0.938,1.559,1.318,2.448
			c0.382,0.95,0.669,1.828,0.877,2.695c0.236,1.014,0.38,1.944,0.439,2.85c0.074,0.903,0.063,1.855-0.032,2.818
			c-0.093,0.943-0.268,1.881-0.518,2.789c-0.238,0.865-0.577,1.762-1.002,2.665c-0.43,0.922-0.929,1.805-1.482,2.619
			c-0.252,0.407-0.564,0.852-0.914,1.3c-0.105,0.13-0.199,0.25-0.292,0.37c-0.095,0.122-0.191,0.243-0.29,0.366
			c-0.547,0.649-1.153,1.308-1.81,1.964c-0.599,0.613-1.279,1.243-2.075,1.921c-0.692,0.589-1.446,1.178-2.245,1.752
			c-0.702,0.495-1.463,0.988-2.397,1.553c-0.836,0.479-1.682,0.941-2.527,1.378c-0.964,0.465-1.846,0.857-2.712,1.202
			c-0.893,0.343-1.843,0.677-2.833,0.997c-0.74,0.262-1.51,0.465-2.23,0.645c-0.863,0.226-1.599,0.396-2.311,0.537
			c-0.712,0.15-1.471,0.287-2.381,0.427c-0.902,0.152-1.699,0.268-2.426,0.35c-0.795,0.09-1.583,0.152-2.346,0.21l-0.047,0.003
			c-0.798,0.032-1.587,0.062-2.346,0.077C51.251,75.907,50.971,75.915,50.688,75.915z"/>
	</g>
	<g>
		<path fill="#980C27" d="M36.922,37.451c-0.164,0-0.328-0.067-0.445-0.2c-0.59-0.663-0.897-1.083-1.065-1.448
			c-0.426-0.774-0.738-1.619-0.932-2.542c-0.167-0.832-0.226-1.619-0.179-2.409c0.032-0.896,0.217-1.8,0.553-2.672
			c0.298-0.835,0.753-1.641,1.385-2.451c0.53-0.666,1.083-1.218,1.692-1.691c0.738-0.591,1.551-1.054,2.411-1.372
			c0.694-0.303,1.478-0.521,2.3-0.636c0.673-0.127,1.46-0.165,2.384-0.111c0.925,0.046,1.83,0.242,2.761,0.597
			c0.733,0.287,1.455,0.655,2.148,1.097c0.407,0.256,0.797,0.555,1.182,0.905c0.279-0.532,0.623-1.05,1.025-1.547
			c1.623-2.053,3.806-3.292,6.484-3.676c2.696-0.386,5.15,0.188,7.29,1.706c2.159,1.514,3.442,3.576,3.811,6.127
			c0.274,1.939-0.066,3.826-1.016,5.609c-0.154,0.291-0.516,0.402-0.806,0.247c-0.292-0.155-0.402-0.517-0.248-0.807
			c0.827-1.556,1.126-3.198,0.888-4.88c-0.324-2.242-1.41-3.983-3.317-5.321c-1.884-1.336-4.049-1.84-6.434-1.5
			c-2.364,0.339-4.289,1.43-5.719,3.24c-0.537,0.664-0.949,1.358-1.228,2.069c-0.077,0.195-0.251,0.336-0.458,0.371
			c-0.206,0.035-0.417-0.043-0.553-0.203l-0.24-0.283c-0.426-0.423-0.852-0.767-1.3-1.048c-0.631-0.401-1.282-0.735-1.939-0.992
			c-0.807-0.308-1.593-0.479-2.396-0.519c-0.828-0.048-1.521-0.017-2.126,0.097c-0.752,0.106-1.413,0.289-2.047,0.565
			c-0.769,0.286-1.471,0.686-2.117,1.203c-0.541,0.419-1.026,0.905-1.493,1.492c-0.55,0.703-0.944,1.4-1.204,2.126
			c-0.293,0.762-0.453,1.535-0.479,2.313c-0.042,0.701,0.009,1.387,0.156,2.112c0.168,0.803,0.439,1.539,0.829,2.249
			c0.164,0.355,0.585,0.847,0.89,1.19c0.219,0.246,0.196,0.624-0.05,0.843C37.205,37.401,37.064,37.451,36.922,37.451z"/>
	</g>
	<g>
		<path fill="#FFFFFF" d="M68.562,27.335c-0.317-2.267-1.435-4.079-3.354-5.424c-1.904-1.375-4.064-1.874-6.451-1.541
			c-2.388,0.347-4.308,1.436-5.758,3.294c-0.741,0.921-1.254,1.904-1.526,2.961c-0.122-0.181-0.243-0.347-0.378-0.528
			c-0.136-0.151-0.287-0.317-0.422-0.469c-0.408-0.408-0.862-0.786-1.361-1.103c-0.604-0.393-1.254-0.71-1.918-0.982
			c-0.786-0.302-1.602-0.484-2.449-0.544c-0.725-0.03-1.434,0-2.146,0.121c-0.725,0.105-1.404,0.288-2.069,0.56
			c-0.771,0.302-1.481,0.71-2.131,1.223c-0.559,0.438-1.058,0.952-1.511,1.512c-0.499,0.649-0.921,1.375-1.223,2.161
			c-0.287,0.755-0.454,1.541-0.483,2.372c-0.03,0.695,0.03,1.42,0.166,2.13c0.166,0.801,0.438,1.556,0.831,2.297
			c0.182,0.332,0.393,0.664,0.619,0.952c0.242,0.303,0.515,0.589,0.801,0.861c0.589,0.529,1.254,0.967,1.979,1.315
			c0.711,0.362,1.465,0.604,2.236,0.77c0.817,0.167,1.647,0.212,2.464,0.182c0.876-0.046,1.707-0.167,2.506-0.439
			c0.772-0.272,1.497-0.649,2.162-1.134c0.56-0.408,1.073-0.906,1.527-1.449c0.452-0.559,0.831-1.149,1.147-1.799
			c0.152-0.362,0.303-0.741,0.438-1.119c0.062-0.181,0.106-0.392,0.167-0.588c0.544,0.875,1.285,1.676,2.236,2.326
			c1.903,1.36,4.064,1.874,6.452,1.526c2.387-0.347,4.322-1.435,5.757-3.279C68.336,31.657,68.895,29.602,68.562,27.335"/>
	</g>
	<g>
		<path fill="#332C2A" d="M41.092,29.934c0.604-1.042,1.497-1.722,2.646-2.024c1.178-0.317,2.266-0.167,3.323,0.423
			c1.043,0.604,1.723,1.48,2.025,2.645c0.317,1.163,0.166,2.25-0.438,3.292c-0.605,1.043-1.466,1.723-2.645,2.025
			c-1.149,0.317-2.251,0.167-3.294-0.422c-1.042-0.605-1.708-1.481-2.025-2.645C40.367,32.064,40.504,30.992,41.092,29.934"/>
	</g>
	<g>
		<path fill="#332C2A" d="M61.235,26.852c-0.862-0.831-1.904-1.224-3.097-1.209c-1.209,0.045-2.222,0.483-3.053,1.36
			c-0.831,0.861-1.239,1.889-1.208,3.097c0.045,1.194,0.483,2.191,1.345,3.037c0.891,0.832,1.903,1.224,3.113,1.209
			c1.193-0.03,2.191-0.483,3.038-1.36c0.831-0.861,1.223-1.903,1.208-3.097C62.549,28.696,62.111,27.683,61.235,26.852"/>
	</g>
	<g>
		<path fill="#332C2A" d="M64.271,51.042c-2.991,0.65-6.014,1.225-9.065,1.677c-3.067,0.454-6.181,0.771-9.354,0.968
			c-3.158,0.196-6.542,0.045-10.124-0.483l-4.276-0.861c2.992,8.341,8.793,12.904,17.467,13.689c2.524,0.241,5.183,0.12,7.948-0.347
			c0.031-0.016,0.046-0.016,0.061-0.016c2.794-0.332,5.364-0.953,7.735-1.905c8.1-3.202,12.39-9.216,12.889-18.055l-3.853,2.04
			C70.405,49.259,67.278,50.348,64.271,51.042"/>
	</g>
	<g>
		<path fill="#332C2A" d="M54.858,52.04v0.03c0.061-0.03,0.091-0.045,0.106-0.045L54.858,52.04z"/>
	</g>
	<g>
		<path fill="#E68B00" d="M61.189,39.771c-0.392-2.252-1.466-4.02-3.279-5.364c-1.798-1.314-3.777-1.799-5.969-1.451
			c-2.175,0.378-3.899,1.466-5.197,3.309c-1.269,1.843-1.723,3.869-1.36,6.105c0.378,2.235,1.45,4.019,3.264,5.333
			c1.798,1.345,3.777,1.828,5.954,1.45c2.191-0.348,3.913-1.435,5.198-3.279C61.084,44.032,61.552,42.007,61.189,39.771"/>
	</g>
	<g>
		<path fill="#980C27" d="M65.737,76.261c0.031-0.015,0.045-0.015,0.075-0.015c5.622-0.604,11.031-1.421,16.213-2.463l0.484-0.105
			c0.03,0.363,0.105,0.726,0.181,1.073l-0.409,0.074c-5.228,1.059-10.682,1.89-16.364,2.494c-0.15,0.014-0.287-0.016-0.407-0.106
			c-0.106-0.106-0.182-0.227-0.197-0.363c0-0.151,0.031-0.272,0.122-0.408c0.029-0.046,0.089-0.076,0.135-0.105
			C65.616,76.306,65.676,76.276,65.737,76.261"/>
	</g>
	<g>
		<path fill="#980C27" d="M63.804,73.073c-0.032,0-0.062,0.015-0.076,0c-0.122,0-0.227-0.045-0.333-0.106
			c-0.121-0.091-0.197-0.226-0.197-0.362c-0.015-0.167,0.016-0.287,0.121-0.408c0.076-0.106,0.196-0.181,0.348-0.181
			c6.618-0.787,12.979-1.723,19.099-2.857c-0.106,0.378-0.181,0.756-0.242,1.149c-5.953,1.088-12.148,2.009-18.569,2.749
			C63.894,73.073,63.848,73.073,63.804,73.073"/>
	</g>
	<g>
		<path fill="#980C27" d="M84.625,73.858c0.181,0.56,0.483,1.027,0.907,1.436c1.223,1.27,2.75,1.935,4.562,1.995h0.045v-0.015h0.03
			c0.046,0,0.076,0.015,0.121,0.015c0.03,0,0.03,0,0.061-0.015v0.015h0.031c0.014,0.046,0.044,0.106,0.089,0.151
			c0.045,0.091,0.091,0.167,0.122,0.257c0.06,0.105,0.121,0.197,0.183,0.272c0.528,0.817,1.071,1.497,1.676,2.01h0.016
			c0.634,0.543,1.45,0.786,2.478,0.755c0.181-0.03,0.287-0.075,0.347-0.211c0.106-0.075,0.167-0.227,0.167-0.422
			c0-0.755-0.167-1.481-0.469-2.207c-0.09-0.182-0.181-0.363-0.258-0.513c-0.149-0.303-0.301-0.589-0.481-0.876
			c0.149,0.105,0.316,0.195,0.467,0.287c0.136,0.091,0.287,0.166,0.424,0.272c0.059,0.015,0.089,0.045,0.15,0.06
			c0.968,0.695,1.874,0.891,2.736,0.619c0.709-0.256,1.057-0.664,1.042-1.178c0-0.075,0-0.135,0.014-0.197
			c-0.121-0.348-0.332-0.649-0.649-0.952c-0.166-0.197-0.347-0.363-0.575-0.515c-0.694-0.467-1.434-0.891-2.19-1.254
			c-0.469-0.226-0.938-0.423-1.419-0.618c0.105,0,0.226,0.015,0.316,0.029c0.801,0.092,1.601,0.092,2.418,0.045
			c0.211-0.015,0.423-0.045,0.619-0.09c0.635-0.062,1.118-0.198,1.436-0.408c0.045-0.046,0.091-0.106,0.121-0.167
			c0.106-0.242,0.121-0.499,0.03-0.724c-0.06-0.198-0.181-0.378-0.347-0.53v-0.014c-0.166-0.167-0.363-0.302-0.574-0.408v-0.015
			c-0.666-0.333-1.359-0.62-2.055-0.831h-0.015c-0.545-0.167-1.104-0.318-1.678-0.409c0,0-0.181-0.061-0.529-0.137
			c-0.348-0.09-0.815-0.166-1.421-0.241c-0.588-0.059-1.223-0.136-1.902-0.182c0-0.029,0-0.029,0.031-0.045
			c0.044-0.014,0.089-0.03,0.135-0.03c0.242-0.075,0.483-0.151,0.726-0.227c0.347-0.075,0.755-0.21,1.193-0.438
			c0.484-0.241,0.802-0.422,0.937-0.559c0.121-0.136,0.196-0.348,0.241-0.619c-0.015-1.193-0.618-1.798-1.843-1.829h-0.015
			c-1.298,0.046-2.387,0.348-3.233,0.922c-0.816,0.454-1.481,1.148-1.995,2.069c-0.076,0.121-0.136,0.227-0.211,0.348
			c-0.045,0.06-0.09,0.121-0.167,0.166c-0.333,0.287-0.633,0.589-0.936,0.892c-0.046,0.061-0.106,0.076-0.151,0.106
			c-0.423,0.136-0.831,0.256-1.255,0.302c-0.528,0.106-1.057,0.197-1.601,0.303c0.061-0.393,0.137-0.771,0.241-1.149
			c0.484-0.089,0.968-0.166,1.452-0.257l0.634-0.135l0.349-0.378c0.075-0.045,0.135-0.121,0.21-0.196
			c0.227-0.182,0.425-0.407,0.604-0.649c0.091-0.137,0.197-0.258,0.272-0.393c0.559-0.71,1.164-1.299,1.813-1.753
			c0.861-0.62,2.206-1.043,4.004-1.27v-0.015c1.964,0.045,2.931,1.027,2.9,2.946v0.046c-0.045,0.498-0.225,0.936-0.559,1.299
			c0.71,0.09,1.405,0.257,2.101,0.484c0.755,0.227,1.496,0.529,2.222,0.891v0.015c0.316,0.136,0.604,0.362,0.845,0.635
			c0.273,0.257,0.469,0.56,0.59,0.908v0.015c0.181,0.513,0.15,0.997-0.031,1.496c-0.121,0.271-0.272,0.483-0.499,0.635
			c-0.301,0.226-0.74,0.423-1.298,0.528c0.936,0.575,1.525,1.254,1.751,2.07v0.015c0.045,0.106,0.062,0.212,0.076,0.317
			c0,0.077,0,0.167-0.031,0.243c0.031,0.967-0.559,1.662-1.783,2.115c-0.755,0.257-1.511,0.257-2.297-0.015
			c0.211,0.634,0.317,1.148,0.317,1.541c0,0.968-0.467,1.466-1.405,1.512c-1.344,0.061-2.433-0.272-3.248-1.012
			c-0.74-0.635-1.405-1.45-2.009-2.449c-1.918-0.121-3.566-0.861-4.896-2.206c-0.376-0.377-0.694-0.8-0.965-1.254
			c-0.061-0.12-0.121-0.226-0.167-0.347L82.69,74.75c-0.076-0.348-0.151-0.71-0.181-1.074l1.964-0.378
			C84.519,73.481,84.579,73.662,84.625,73.858 M90.32,77.334L90.32,77.334h-0.03H90.32z"/>
	</g>
	<g>
		<path fill="#D72C1B" d="M96.984,73.103c0.211-0.016,0.423-0.046,0.619-0.09c0.635-0.061,1.118-0.198,1.436-0.408
			c0.045-0.045,0.091-0.106,0.121-0.167c0.106-0.242,0.121-0.499,0.03-0.724c-0.06-0.198-0.181-0.379-0.347-0.529v-0.016
			c-0.166-0.166-0.362-0.301-0.574-0.407v-0.015c-0.666-0.333-1.359-0.62-2.056-0.831h-0.014c-0.545-0.167-1.104-0.318-1.678-0.408
			c0,0-0.181-0.061-0.53-0.137c-0.347-0.09-0.814-0.166-1.419-0.24c-0.589-0.062-1.224-0.137-1.903-0.183
			c0-0.029,0-0.029,0.03-0.045c0.045-0.014,0.089-0.03,0.136-0.03c0.241-0.076,0.482-0.151,0.725-0.226
			c0.347-0.076,0.755-0.212,1.193-0.438c0.484-0.243,0.801-0.422,0.937-0.56c0.121-0.136,0.196-0.347,0.242-0.618
			c-0.016-1.194-0.619-1.798-1.843-1.829h-0.016c-1.299,0.046-2.387,0.348-3.233,0.921c-0.816,0.455-1.481,1.149-1.995,2.07
			c-0.075,0.121-0.136,0.228-0.211,0.348c-0.045,0.06-0.09,0.121-0.167,0.166c-0.333,0.287-0.634,0.589-0.936,0.891
			c-0.045,0.061-0.106,0.077-0.151,0.106c-0.423,0.136-0.832,0.257-1.253,0.302c-0.53,0.106-1.059,0.197-1.603,0.303
			c-5.953,1.088-12.148,2.009-18.569,2.749c-0.061,0.016-0.106,0.016-0.151,0.016c-0.032,0-0.062,0.014-0.076,0
			c0.03,0.121,0.044,0.256,0.106,0.377c0.226,0.62,0.528,1.209,0.891,1.738c0.287,0.377,0.559,0.785,0.847,1.148
			c0.045-0.031,0.105-0.061,0.166-0.076c0.031-0.015,0.045-0.015,0.077-0.015c5.62-0.604,11.03-1.419,16.212-2.463l0.484-0.105
			l1.964-0.378c0.045,0.182,0.105,0.363,0.151,0.559c0.181,0.56,0.483,1.028,0.906,1.436c1.223,1.27,2.75,1.934,4.562,1.995h0.045
			v-0.015h0.03c0.046,0,0.076,0.015,0.121,0.015c0.03,0,0.03,0,0.061-0.015v0.015h0.031c0.014,0.046,0.044,0.105,0.089,0.151
			c0.045,0.091,0.091,0.167,0.122,0.257c0.06,0.105,0.121,0.197,0.181,0.272c0.53,0.817,1.072,1.497,1.677,2.01h0.014
			c0.636,0.544,1.452,0.785,2.479,0.756c0.181-0.031,0.287-0.077,0.348-0.211c0.105-0.076,0.166-0.228,0.166-0.423
			c0-0.756-0.166-1.481-0.469-2.207c-0.09-0.181-0.18-0.363-0.256-0.513c-0.15-0.303-0.303-0.589-0.483-0.876
			c0.149,0.105,0.316,0.196,0.467,0.287c0.136,0.091,0.287,0.166,0.423,0.272c0.061,0.015,0.09,0.045,0.152,0.06
			c0.966,0.695,1.872,0.891,2.735,0.619c0.709-0.256,1.057-0.664,1.042-1.178c0-0.075,0-0.136,0.014-0.197
			c-0.121-0.348-0.332-0.649-0.649-0.951c-0.166-0.197-0.347-0.363-0.575-0.514c-0.695-0.469-1.434-0.892-2.19-1.255
			c-0.468-0.225-0.937-0.423-1.419-0.618c0.104,0,0.226,0.015,0.316,0.029C95.367,73.149,96.167,73.149,96.984,73.103"/>
	</g>
	<g>
		<path fill="#D72C1B" d="M53.635,77.151c0.014-0.03,0.03-0.059,0.045-0.075c0.407-0.62,0.68-1.314,0.815-2.069
			c0.106-0.575,0.092-1.133-0.031-1.663c-0.029,0.015-0.06,0.03-0.09,0.03c-0.061,0-0.137,0.015-0.196,0.03
			C48,74.084,42,74.539,36.167,74.826l-3.475,0.106c-0.121-0.091-0.227-0.197-0.363-0.288c-0.121-0.105-0.242-0.211-0.393-0.287
			c-0.301-0.196-0.619-0.317-0.967-0.378l-0.982-0.861c-0.498-0.393-1.013-0.68-1.525-0.845c-0.816-0.258-1.512-0.408-2.07-0.424
			c-0.514-0.015-0.802-0.029-0.862-0.029c-0.149,0.045-0.301,0.074-0.483,0.12h-0.015c-1.133,0.302-1.587,1.012-1.33,2.115
			c0.015,0.016,0.015,0.03,0.03,0.045c0.016,0.045,0.03,0.091,0.06,0.121c0.182,0.333,0.454,0.514,0.847,0.589
			c0.469,0.091,0.937,0.076,1.405-0.029c0.408-0.091,0.786-0.167,1.179-0.212l-0.182,0.091c-0.482,0.257-0.937,0.559-1.344,0.906
			c-0.167,0.136-0.347,0.272-0.514,0.408c-0.151,0.091-0.287,0.182-0.438,0.272c-0.061,0.031-0.121,0.061-0.182,0.076
			c-0.891,0.438-1.812,0.65-2.81,0.634c-0.893-0.015-1.603,0.045-2.117,0.196c-0.377,0.107-0.634,0.303-0.786,0.605h-0.015
			c-0.105,0.318-0.105,0.665,0,1.058c0.152,0.438,0.423,0.832,0.801,1.179c0.243,0.197,0.5,0.317,0.802,0.332v-0.015h0.015
			c0.152-0.303,0.378-0.528,0.665-0.711c0.227-0.165,0.483-0.286,0.756-0.362c0.121-0.045,0.256-0.075,0.392-0.09
			c0.317-0.031,0.604-0.031,0.892-0.045v0.015c-0.408,0.106-0.786,0.302-1.103,0.589c-0.409,0.363-0.605,0.785-0.635,1.284
			c0,0.197,0.015,0.393,0.061,0.589c0.076,0.302,0.286,0.543,0.589,0.695c0.393,0.227,0.786,0.287,1.239,0.242l0.061-0.137
			c0.044-0.09,0.089-0.18,0.15-0.271c0.076-0.242,0.242-0.47,0.454-0.666c0.302-0.271,0.65-0.468,1.013-0.604
			c0.423-0.136,0.86-0.197,1.313-0.151c0.347,0.015,0.696,0.091,0.999,0.211l0.377,0.151c-0.256-0.015-0.528,0-0.83,0.015
			c-0.379,0.045-0.741,0.121-1.073,0.227c-0.439,0.136-0.816,0.363-1.088,0.71c-0.318,0.347-0.423,0.771-0.363,1.225
			c0.167,0.574,0.621,0.936,1.391,1.058c1.072,0.135,2.205-0.061,3.399-0.575c1.179-0.498,2.04-1.314,2.569-2.448
			c0.044-0.06,0.076-0.121,0.135-0.182c0.061-0.045,0.121-0.076,0.212-0.106c0.06-0.015,0.135-0.045,0.197-0.075
			c0.936-0.362,1.616-0.981,2.024-1.918c0.121-0.273,0.257-0.544,0.378-0.816l2.931-0.061c5.046-0.15,10.23-0.543,15.563-1.194
			c0.105,0,0.181,0,0.271,0.031c0.03,0.015,0.091,0.045,0.136,0.09C53.559,77.061,53.604,77.092,53.635,77.151"/>
	</g>
	<g>
		<path fill="#980C27" d="M53.725,77.379c-0.015-0.076-0.046-0.167-0.09-0.228c-0.03-0.059-0.077-0.089-0.106-0.12
			c-0.045-0.045-0.106-0.076-0.136-0.091c-0.091-0.031-0.167-0.031-0.271-0.031c-5.333,0.651-10.517,1.044-15.563,1.194l-2.931,0.06
			c-0.121,0.272-0.257,0.544-0.378,0.817c-0.408,0.936-1.088,1.556-2.025,1.918c-0.06,0.031-0.136,0.061-0.195,0.076
			c-0.091,0.03-0.151,0.061-0.212,0.106c-0.06,0.06-0.09,0.121-0.135,0.181c-0.529,1.133-1.391,1.949-2.569,2.449
			c-1.194,0.513-2.327,0.709-3.399,0.574c-0.771-0.122-1.224-0.484-1.391-1.058c-0.061-0.454,0.045-0.877,0.363-1.225
			c0.272-0.347,0.649-0.574,1.087-0.71c0.333-0.106,0.695-0.181,1.074-0.227c0.302-0.015,0.574-0.03,0.83-0.015l-0.377-0.152
			c-0.303-0.12-0.651-0.196-0.999-0.21c-0.453-0.046-0.891,0.015-1.313,0.151c-0.363,0.135-0.71,0.332-1.013,0.604
			c-0.212,0.197-0.377,0.424-0.454,0.665c-0.061,0.091-0.106,0.182-0.15,0.271l-0.061,0.138c-0.453,0.045-0.846-0.016-1.24-0.242
			c-0.301-0.15-0.513-0.393-0.588-0.695c-0.045-0.197-0.061-0.394-0.061-0.589c0.03-0.499,0.227-0.922,0.635-1.284
			c0.317-0.287,0.695-0.483,1.103-0.589v-0.015c-0.288,0.015-0.575,0.015-0.892,0.045c-0.136,0.015-0.271,0.044-0.393,0.09
			c-0.272,0.075-0.529,0.196-0.755,0.362c-0.287,0.183-0.513,0.408-0.665,0.711h-0.016v0.015c-0.302-0.015-0.559-0.136-0.801-0.333
			c-0.377-0.347-0.648-0.74-0.801-1.178c-0.105-0.394-0.105-0.74,0-1.058h0.015c0.152-0.302,0.409-0.498,0.786-0.605
			c0.514-0.15,1.224-0.21,2.116-0.196c0.998,0.016,1.919-0.196,2.81-0.634c0.061-0.015,0.122-0.045,0.182-0.076
			c0.15-0.09,0.287-0.181,0.438-0.272c0.167-0.136,0.347-0.272,0.514-0.408c0.408-0.348,0.862-0.649,1.344-0.906l0.183-0.091
			c-0.394,0.045-0.771,0.121-1.18,0.212c-0.468,0.105-0.936,0.119-1.405,0.029c-0.393-0.076-0.665-0.256-0.847-0.589
			c-0.03-0.03-0.045-0.076-0.06-0.121c-0.016-0.015-0.016-0.029-0.03-0.045c-0.257-1.104,0.197-1.813,1.33-2.115h0.015
			c0.182-0.046,0.333-0.075,0.483-0.12c0.061,0,0.349,0.014,0.862,0.03c0.558,0.015,1.253,0.166,2.07,0.422
			c0.513,0.166,1.027,0.454,1.525,0.846l0.982,0.861c0.348,0.062,0.666,0.182,0.967,0.379c0.151,0.075,0.272,0.181,0.393,0.287
			c0.136,0.09,0.242,0.197,0.363,0.287l3.475-0.106C42,74.539,48,74.084,54.178,73.406c0.06-0.016,0.136-0.031,0.196-0.031
			c0.03,0,0.061-0.015,0.09-0.03c0.106-0.03,0.197-0.09,0.272-0.167c0.091-0.105,0.121-0.256,0.106-0.407
			c-0.015-0.151-0.091-0.273-0.212-0.348c-0.105-0.105-0.242-0.151-0.394-0.105c-6.405,0.71-12.617,1.178-18.66,1.45l-2.614,0.076
			c-0.196-0.241-0.453-0.408-0.725-0.544c-0.74-0.348-1.421-0.816-2.025-1.39c-0.467-0.317-0.922-0.528-1.405-0.681
			c-0.952-0.316-1.737-0.467-2.402-0.482c-0.68-0.015-1.042-0.015-1.103,0.015h-0.016c-0.15,0.015-0.316,0.045-0.499,0.106h-0.016
			c-1.858,0.469-2.568,1.631-2.13,3.475c0.015,0.016,0.015,0.016,0.015,0.045c0.166,0.499,0.469,0.892,0.907,1.178
			c-0.574,0.197-1.178,0.303-1.797,0.303c-1.042-0.03-1.859,0.061-2.434,0.226c-0.724,0.227-1.208,0.604-1.48,1.179v0.015
			c-0.256,0.544-0.287,1.179-0.06,1.859v0.015c0.212,0.635,0.59,1.178,1.104,1.662h0.015c0.422,0.362,0.907,0.574,1.45,0.619
			c0.045,0.424,0.303,0.923,0.696,1.512c0.03,0.029,0.06,0.06,0.105,0.091c0.453,0.422,1.164,0.634,2.115,0.589
			c0.272,0.982,1.042,1.556,2.282,1.737c1.253,0.166,2.583-0.03,3.975-0.635c1.374-0.589,2.387-1.51,3.036-2.78
			c0.166-0.076,0.348-0.151,0.499-0.212c0.574-0.272,1.043-0.649,1.451-1.118c0.377-0.407,0.634-0.877,0.831-1.375l2.431-0.075
			c5.017-0.167,10.171-0.559,15.459-1.194c0.15-0.015,0.271-0.09,0.377-0.196C53.694,77.666,53.755,77.53,53.725,77.379"/>
	</g>
	<g>
		<path fill="#009844" d="M28.808,71.229"/>
	</g>
	<g>
		<path fill="#D72C1B" d="M78.731,64.792l-1.404,0.272c-14.612,3.928-29.676,5.394-45.194,4.351c1.042,0.741,2.177,1.406,3.4,2.01
			c3.097,1.526,6.542,2.523,10.319,3.037c3.929,0.529,7.948,0.468,12.058-0.167c2.01-0.318,3.944-0.74,5.832-1.299
			c1.692-0.544,3.416-1.149,5.168-1.813c1.738-0.681,3.476-1.588,5.213-2.781C75.861,67.209,77.402,66.032,78.731,64.792"/>
	</g>
	<g>
		<path fill="#D72C1B" d="M57.413,68.736c-1.074,0.316-1.875,0.633-2.419,0.937c-0.407,0.211-0.785,0.483-1.103,0.83
			c-0.333,0.364-0.68,0.741-1.042,1.179c-0.212,0.257-0.392,0.483-0.514,0.635c-0.045,0.06-0.076,0.105-0.121,0.151
			c-1.027,1.51-1.813,3.445-2.297,5.787c-0.529,2.417-0.937,4.563-1.224,6.498c-0.015,0.015-0.015,0.015-0.015,0.044
			c-0.787,3.733,0.302,6.71,3.263,8.991c2.765,2.086,6.12,2.991,10.063,2.705c4.02-0.257,6.936-1.709,8.764-4.322
			c2.1-3.082,2.024-7.116-0.196-12.103c-0.65-1.466-1.451-2.992-2.402-4.593c-1.042-1.769-1.903-3.143-2.583-4.111
			c-0.092-0.227-0.273-0.529-0.515-0.906c-0.392-0.529-0.619-0.832-0.664-0.907c-0.151-0.227-0.287-0.377-0.379-0.484
			c-0.181-0.165-0.452-0.317-0.785-0.393C62.308,68.465,60.373,68.465,57.413,68.736 M56.792,69.446h-0.121l0.106-0.045
			L56.792,69.446z"/>
	</g>
</g>
<path fill="#3E3A39" d="M127.188,36.17c0-0.84,0.295-1.566,1.544-1.566c1.408,0,1.658,0.794,1.658,2.157
	c0,0.999-0.227,3.633-0.272,4.019c2.112,0.908,2.861,1.362,2.861,2.271c0,0.727-0.59,1.657-1.385,1.657
	c-0.432,0-0.568-0.068-1.998-0.817c-1.294,4.768-4.519,7.039-6.222,7.039c-0.771,0-1.476-0.75-1.476-1.521
	c0-0.727,0.295-0.908,2.225-2.044c2.157-1.271,2.588-3.928,2.725-4.7c-0.954-0.363-3.27-1.135-4.859-1.385
	c-0.477,1.839-1.112,3.61-1.885,5.336c-0.84,1.93-1.884,3.02-3.474,3.02c-1.816,0-4.2-1.566-4.2-4.768
	c0-2.089,1.067-4.723,4.382-5.835c1.317-0.454,2.498-0.5,3.042-0.545c0.068-0.363,0.545-2.066,0.59-2.293
	c0.068-0.295,0.25-1.226,0.25-1.476c0-0.409-0.228-0.59-0.863-0.59c-0.136,0-3.496,0.205-4.178,0.205c-0.477,0-1.566,0-1.566-1.431
	c0-1.453,1.021-1.453,1.907-1.453c1.476,0,3.837-0.113,5.313-0.113c0.5,0,2.475,0,2.475,1.907c0,0.817-0.295,2.157-0.363,2.475
	c-0.091,0.454-0.659,2.498-0.75,2.906c0.59,0.091,1.93,0.341,4.473,1.09C127.188,38.531,127.188,38.304,127.188,36.17z
	 M117.561,41.438c-1.748,0.636-2.565,1.953-2.565,3.451c0,1.521,0.977,1.907,1.362,1.907c0.59,0,1.044-0.636,1.612-2.043
	c0.545-1.317,0.862-2.316,1.203-3.656C118.243,41.233,117.97,41.278,117.561,41.438z"/>
<path fill="#3E3A39" d="M153.351,40.598c0.228,0.636,0.545,1.544,0.545,3.042c0,4.519-3.02,6.448-6.698,6.993
	c-1.658,0.25-3.088,0.272-3.383,0.272c-0.454,0-1.793,0-1.793-1.476c0-1.203,0.794-1.203,2.248-1.226
	c5.2-0.045,6.267-2.021,6.653-3.61c-0.636,0.704-1.43,1.566-3.792,1.566c-3.61,0-5.586-2.021-5.586-4.473
	c0-2.407,1.953-4.519,5.586-4.519c0.34,0,2.021,0,3.292,0.658l-0.045-1.952c-2.52,0.068-5.381,0.113-8.378,0.113
	c-2.384,0-2.497-0.022-2.792-0.091c-0.227-0.068-0.794-0.318-0.794-1.294c0-1.34,1.021-1.34,1.748-1.34h3.996
	c2.021,0,2.18,0,6.176-0.068l-0.022-1.067c0-0.363-0.023-1.544,1.498-1.544c1.544,0,1.544,1.135,1.544,1.499v1.044
	c0.432-0.023,3.679-0.114,3.747-0.114c0.568,0,1.499,0.091,1.499,1.362c0,1.249-0.908,1.34-1.521,1.362
	c-0.159,0-0.499,0-3.724,0.091V40.598z M150.422,41.597c0-1.907-2.089-2.157-2.861-2.157c-1.271,0-3.111,0.567-3.111,2.248
	c0,1.68,1.816,2.157,2.929,2.157C149.718,43.844,150.422,42.618,150.422,41.597z M154.441,39.054
	c-0.068-0.137-0.068-0.295-0.068-0.363c0-0.568,0.568-0.704,0.817-0.704c0.477,0,0.636,0.341,1.022,1.067
	c0.658,1.203,0.658,1.793,0.658,1.907c0,0.658-0.681,0.749-0.84,0.749c-0.137,0-0.5-0.022-0.682-0.522
	c-0.227-0.658-0.25-0.727-0.431-1.112C154.85,39.916,154.509,39.212,154.441,39.054z M156.871,37.782
	c0-0.568,0.567-0.682,0.795-0.682c0.454,0,0.59,0.272,1.158,1.431c0.136,0.272,0.477,1.135,0.477,1.476
	c0,0.591-0.545,0.727-0.795,0.727c-0.341,0-0.567-0.227-0.681-0.522c-0.182-0.545-0.205-0.613-0.409-1.022
	C156.916,38.146,156.871,38.032,156.871,37.782z"/>
<path fill="#3E3A39" d="M172.657,46.001c-1.112,1.794-2.315,2.748-3.996,2.748c-2.951,0-4.563-3.02-4.563-6.63
	c0-6.925,5.154-10.603,10.876-10.603c6.925,0,9.695,4.518,9.695,9.468c0,1.135,0,5.063-4.132,7.788
	c-2.339,1.566-5.131,1.771-5.495,1.771c-1.499,0-1.521-1.385-1.521-1.566c0-1.181,0.84-1.317,1.68-1.431
	c1.816-0.272,6.335-0.976,6.335-6.766c0-3.724-2.021-6.199-5.562-6.426C175.223,40.257,173.77,44.162,172.657,46.001z
	 M170.432,35.443c-2.611,1.612-3.429,4.496-3.429,6.721c0,2.18,0.886,3.406,1.794,3.406c0.953,0,1.635-1.271,2.248-2.906
	c1.249-3.315,1.635-5.767,1.975-8.242C172.498,34.558,171.522,34.785,170.432,35.443z"/>
<path fill="#3E3A39" d="M193.348,45.797c-0.363,0.636-0.704,1.067-1.499,1.067c-0.931,0-1.612-0.659-1.612-1.317
	c0-0.545,0.113-0.749,1.657-3.428c0.931-1.589,1.635-3.61,2.202-5.358c-0.658,0.023-2.679,0.045-3.065-0.045
	c-0.431-0.113-0.84-0.522-0.84-1.34c0-1.181,0.817-1.316,1.113-1.362c0.182-0.022,3.179-0.091,3.61-0.091
	c0.091-0.363,0.386-2.043,0.5-2.384c0.159-0.545,0.613-0.863,1.339-0.863c0.318,0,1.635,0.045,1.635,1.204
	c0,0.499-0.159,1.067-0.386,1.93c0.205,0,2.135-0.091,2.18-0.091c0.409,0,1.453,0.022,1.453,1.408c0,1.317-0.999,1.385-1.521,1.408
	c-0.636,0.022-1.816,0.068-2.952,0.136C196.414,39.054,195.324,42.346,193.348,45.797z M202.521,38.645
	c-0.045-0.613,0.113-1.453,1.453-1.453c0.863,0,1.431,0.363,1.476,1.317l0.25,4.632c1.271,0.613,2.452,1.385,3.497,2.315
	c0.568,0.522,0.817,0.954,0.817,1.453c0,0.727-0.545,1.544-1.476,1.544c-0.477,0-0.704-0.25-1.635-1.021
	c-0.885-0.727-1.021-0.772-1.385-1.09c0,0.817-0.022,1.521-0.386,2.248c-1.113,2.248-3.724,2.271-4.496,2.271
	c-4.019,0-5.54-2.203-5.54-4.314c0-1.907,1.362-4.473,5.926-4.473c0.75,0,1.271,0.068,1.771,0.136L202.521,38.645z M200.795,44.503
	c-1.112,0-3.065,0.295-3.065,1.975c0,1.862,2.293,1.862,2.702,1.862c2.452,0,2.498-1.566,2.475-3.451
	C202.476,44.707,201.931,44.503,200.795,44.503z M203.861,31.901c0.862,0,3.428,1.385,5.335,2.884
	c0.681,0.545,0.999,1.021,0.999,1.589c0,0.863-0.794,1.499-1.499,1.499c-0.522,0-0.84-0.272-1.34-0.704
	c-1.407-1.226-1.68-1.362-4.178-2.725c-0.227-0.136-0.794-0.454-0.794-1.135c0-0.318,0.159-0.613,0.227-0.727
	C202.748,32.378,203.157,31.901,203.861,31.901z"/>
<path fill="#3E3A39" d="M221.963,31.493c0.045-0.136,0.341-0.772,1.294-0.772c0.386,0,1.635,0.068,1.635,1.226
	c0,0.477-0.431,2.225-0.59,2.838c2.021-0.023,3.156-0.023,4.246,0.749c0.431,0.295,2.112,1.635,2.112,5.767
	c0,6.244-1.136,9.513-5.018,9.513c-1.226,0-2.452-0.272-3.542-0.817c-0.477-0.227-0.931-0.545-0.931-1.294
	c0-0.545,0.341-1.476,1.204-1.476c0.34,0,0.431,0.022,1.385,0.408c0.477,0.205,1.135,0.318,1.635,0.318
	c1.135,0,1.544-0.5,1.884-1.953c0.272-1.181,0.454-2.906,0.454-4.949c0-2.452-0.386-3.565-2.929-3.565c-0.408,0-0.681,0-1.203,0.045
	c-0.999,3.655-2.157,7.016-3.338,9.854c-1.067,2.588-1.476,3.156-2.384,3.156c-0.84,0-1.726-0.681-1.726-1.43
	c0-0.522,0.182-0.817,0.658-1.658c0.817-1.453,1.93-4.155,2.498-5.79c0.431-1.204,0.976-3.179,1.203-3.905
	c-0.477,0.045-2.565,0.295-2.997,0.295c-0.477,0-0.908-0.137-1.135-0.5c-0.227-0.34-0.25-0.749-0.25-0.931
	c0-1.203,0.771-1.34,1.112-1.408c0.5-0.091,0.977-0.114,3.974-0.295C221.328,34.399,221.827,31.856,221.963,31.493z M231.114,32.469
	c1.544,0,3.156,2.316,3.247,2.475c1.975,2.792,2.089,6.63,2.089,7.606c0,0.386,0,1.612-1.658,1.612
	c-1.226,0-1.362-0.817-1.407-1.476c-0.159-1.953-0.25-3.27-0.977-5.132c-0.454-1.181-0.772-1.498-2.089-2.792
	c-0.272-0.25-0.567-0.545-0.567-1.044c0-0.522,0.363-0.863,0.522-0.977C230.614,32.492,230.932,32.469,231.114,32.469z"/>
<path fill="#3E3A39" d="M245.833,32.287c0,0.386-0.295,1.998-0.341,2.339c-0.272,2.021-0.499,4.882-0.499,7.833
	c0,1.635,0.068,3.247,0.25,4.836c0.045,0.386,0.205,1.635,0.205,1.93c0,0.522-0.114,1.453-1.59,1.453
	c-1.112,0-1.339-0.682-1.521-1.499c-0.023-0.182-0.363-2.089-0.363-6.607c0-5.472,0.636-9.741,0.794-10.399
	c0.272-1.112,0.863-1.112,1.703-1.112C244.606,31.062,245.833,31.106,245.833,32.287z M260,49.157
	c-0.886,0.363-3.769,0.522-5.086,0.522c-2.929,0.022-7.402-0.318-7.402-4.428c0-0.84,0.386-3.655,2.27-3.655
	c0.727,0,1.658,0.386,1.658,1.226c0,0.341-0.023,0.432-0.454,1.204c-0.272,0.5-0.363,0.84-0.363,1.135
	c0,1.34,1.612,1.589,3.769,1.589c0.613,0,1.771-0.045,2.997-0.205c0.318-0.045,1.771-0.295,2.066-0.295
	c0.817,0,1.431,0.363,1.431,1.408C260.886,48.681,260.477,48.953,260,49.157z M258.751,35.603c-0.363,0-1.952-0.023-2.271-0.023
	c-1.271,0-3.996,0.023-6.062,0.182c-0.137,0-0.455,0.023-0.613,0.023c-0.863,0-1.499-0.386-1.499-1.453
	c0-1.271,0.84-1.408,1.158-1.453c0.545-0.091,3.769-0.25,6.812-0.25c2.997,0,3.179,0.068,3.451,0.227
	c0.477,0.272,0.613,0.794,0.613,1.294C260.341,35.466,259.433,35.603,258.751,35.603z"/>
<path fill="#3E3A39" d="M276.9,38.418c0.432-0.068,1.136-0.182,2.18-0.182c0.432,0,4.133,0,6.222,1.68
	c1.521,1.204,1.998,3.065,1.998,4.541c0,2.384-1.112,4.655-4.155,5.699c-1.271,0.432-2.611,0.59-3.928,0.59
	c-0.908,0-2.089,0-2.089-1.476c0-1.249,0.976-1.249,1.589-1.249c1.612,0,5.404,0,5.404-3.542c0-3.179-2.815-3.633-4.95-3.633
	c-1.203,0-1.748,0.091-2.271,0.182v3.542c0,2.18,0,6.108-4.2,6.108c-2.906,0-4.882-2.203-4.882-4.904
	c0-4.337,4.246-5.994,6.199-6.721v-2.566c-1.386,0.045-4.224,0.045-4.292,0.045c-0.794,0-1.748,0-1.748-1.385
	c0-1.362,1.067-1.362,1.681-1.362c2.747,0,3.064,0,4.359-0.046v-1.612c0-0.568,0.022-1.521,1.43-1.521
	c1.385,0,1.453,0.908,1.453,1.521v1.476c1.93-0.091,2.157-0.091,2.361-0.091c0.409,0,1.477,0,1.477,1.362
	c0,0.976-0.591,1.226-0.772,1.271c-0.295,0.091-0.591,0.113-3.065,0.204V38.418z M274.062,41.801
	c-1.203,0.477-3.451,1.544-3.451,3.769c0,1.294,0.908,2.316,1.953,2.316c1.021,0,1.498-0.954,1.498-3.406V41.801z M282.213,31.538
	c1.453,0,5.585,3.564,5.585,5.131c0,0.84-0.817,1.499-1.611,1.499c-0.613,0-0.795-0.25-1.521-1.271
	c-1.203-1.635-2.089-2.225-3.179-2.952c-0.522-0.34-0.704-0.885-0.704-1.113c0-0.363,0.272-0.727,0.363-0.84
	C281.283,31.879,281.668,31.538,282.213,31.538z"/>
<path fill="#3E3A39" d="M300.929,39.916c2.271-1.203,4.154-1.453,5.653-1.453c0.817,0,2.771,0.091,4.587,0.886
	c1.998,0.863,2.951,2.884,2.951,4.904c0,3.042-1.861,4.563-3.065,5.131c-1.407,0.659-3.429,1.271-7.129,1.271
	c-2.294,0-4.791-0.295-5.586-0.636c-0.249-0.114-0.862-0.386-0.862-1.294c0-0.522,0.295-1.407,1.248-1.407
	c0.296,0,1.612,0.25,1.885,0.295c0.932,0.136,2.385,0.272,3.792,0.272c1.839,0,6.539-0.204,6.539-3.701
	c0-2.838-3.292-3.11-4.587-3.11c-1.453,0-4.449,0.25-6.562,2.248c-0.522,0.499-0.794,0.749-1.453,0.749
	c-0.771,0-1.657-0.5-1.657-1.294c0-0.477,0.137-0.727,0.682-1.726c0.84-1.476,1.407-3.088,1.952-4.7
	c-2.066,0.022-2.293,0.022-2.771,0.022c-0.521-0.022-1.589-0.022-1.589-1.43c0-1.385,1.044-1.385,1.839-1.385
	c0.522,0,2.838,0,3.315-0.022c0.091-0.318,0.386-1.748,0.477-2.021c0.182-0.659,0.704-0.886,1.407-0.886
	c1.521,0,1.658,0.749,1.658,1.294c0,0.454-0.205,1.204-0.295,1.567c1.771-0.023,4.518-0.068,7.537-0.182
	c0.341-0.023,1.953-0.091,2.271-0.091c0.499,0,1.521,0.045,1.521,1.408c0,1.317-0.976,1.362-1.521,1.385
	c-3.588,0.159-7.152,0.228-10.717,0.295C301.587,38.667,301.406,39.031,300.929,39.916z"/>
<path fill="#3E3A39" d="M326.366,39.916c2.271-1.203,4.155-1.453,5.653-1.453c0.817,0,2.77,0.091,4.586,0.886
	c1.998,0.863,2.952,2.884,2.952,4.904c0,3.042-1.862,4.563-3.065,5.131c-1.407,0.659-3.428,1.271-7.129,1.271
	c-2.293,0-4.791-0.295-5.586-0.636c-0.25-0.114-0.862-0.386-0.862-1.294c0-0.522,0.295-1.407,1.249-1.407
	c0.295,0,1.611,0.25,1.884,0.295c0.931,0.136,2.384,0.272,3.792,0.272c1.839,0,6.539-0.204,6.539-3.701
	c0-2.838-3.292-3.11-4.586-3.11c-1.453,0-4.451,0.25-6.562,2.248c-0.521,0.499-0.795,0.749-1.453,0.749
	c-0.771,0-1.657-0.5-1.657-1.294c0-0.477,0.136-0.727,0.681-1.726c0.841-1.476,1.408-3.088,1.953-4.7
	c-2.066,0.022-2.293,0.022-2.77,0.022c-0.522-0.022-1.59-0.022-1.59-1.43c0-1.385,1.045-1.385,1.839-1.385
	c0.522,0,2.839,0,3.315-0.022c0.091-0.318,0.386-1.748,0.477-2.021c0.182-0.659,0.704-0.886,1.408-0.886
	c1.521,0,1.657,0.749,1.657,1.294c0,0.454-0.204,1.204-0.296,1.567c1.771-0.023,4.519-0.068,7.539-0.182
	c0.34-0.023,1.952-0.091,2.27-0.091c0.5,0,1.521,0.045,1.521,1.408c0,1.317-0.977,1.362-1.521,1.385
	c-3.587,0.159-7.151,0.228-10.717,0.295C327.024,38.667,326.842,39.031,326.366,39.916z"/>
<path fill="#3E3A39" d="M349.735,36.283c0-1.021,0.999-1.226,1.499-1.226c0.816,0,1.066,0.454,1.226,0.794
	c0.136,0.318,0.25,0.794,0.749,2.634c0.795-0.272,1.953-0.659,2.385-0.772c-0.068-0.182-0.205-0.567-0.522-1.181
	c-0.296-0.567-0.318-0.749-0.318-0.931c0-0.886,0.931-1.158,1.362-1.158c0.205,0,0.84,0.045,1.227,0.704
	c0.272,0.499,0.727,1.521,0.885,1.93c0.818-0.091,1.295-0.091,1.521-0.091c2.18,0,4.496,1.271,4.496,4.745
	c0,1.227-0.341,2.748-1.203,3.792c-1.09,1.294-2.839,1.544-3.996,1.544c-0.228,0-1.908,0-2.839-0.636
	c-0.408-0.272-0.499-0.727-0.499-1.044c0-0.227,0.022-1.249,1.158-1.249c0.227,0,0.317,0.022,1.09,0.182
	c0.045,0.022,0.635,0.091,1.066,0.091c1.477,0,2.566-0.682,2.566-2.634c0-2.226-1.612-2.248-2.521-2.271
	c0.249,0.84,0.341,1.158,0.341,1.566c0,1.271-1.045,1.317-1.386,1.317c-0.908,0-1.09-0.522-1.226-0.885
	c-0.068-0.228-0.363-1.227-0.432-1.431c-0.817,0.25-1.726,0.567-2.543,0.886c0.953,3.814,1.976,8.015,1.976,8.854
	c0,1.249-1.204,1.317-1.544,1.317c-1.136,0-1.271-0.886-1.385-1.521c-0.409-2.588-0.637-3.383-1.635-7.583
	c-0.228,0.114-1.271,0.568-1.477,0.659c-0.499,0.204-0.727,0.25-0.885,0.25c-0.841,0-1.295-0.794-1.295-1.453
	c0-0.5,0.205-0.863,0.75-1.135c0.635-0.318,2.088-0.863,2.247-0.931C350.461,38.917,349.735,36.76,349.735,36.283z"/>
<path fill="#3E3A39" d="M376.669,47.295c0.205,0,0.841,0.068,1.09,0.091c0.545,0.068,1.09,0.068,1.521,0.068
	c1.453,0,7.039,0,7.039-4.813c0-1.316-0.387-2.361-1.203-3.02c-0.613-0.477-1.521-0.931-3.134-0.931
	c-2.521,0-4.813,0.749-7.356,1.589c-0.272,0.091-0.567,0.182-0.84,0.182c-0.954,0-1.362-0.84-1.362-1.544
	c0-1.044,0.636-1.294,1.612-1.589c2.656-0.795,5.403-1.317,8.196-1.317c5.177,0,7.038,3.179,7.038,6.562
	c0,4.518-3.156,6.312-4.654,6.834c-1.839,0.636-3.814,0.817-5.768,0.817c-2.543,0-3.587-0.182-3.587-1.499
	C375.262,48.204,375.353,47.295,376.669,47.295z"/>
<path fill="#3E3A39" d="M398.428,33.763c0.068,0,2.089-0.023,2.293-0.023c0.091-0.454,0.341-1.975,0.432-2.271
	c0.272-0.749,0.999-0.794,1.294-0.794c1.045,0,1.59,0.431,1.59,1.294c0,0.477-0.137,1.226-0.228,1.703
	c1.635-0.045,3.792-0.091,6.085-0.182c0.295-0.023,1.521-0.091,1.771-0.091c0.386,0,1.476,0.023,1.476,1.408
	c0,1.317-0.977,1.385-1.521,1.408c-2.77,0.136-5.608,0.227-8.378,0.295c-0.567,2.588-0.704,3.247-1.953,7.356
	c-0.477,1.612-1.702,5.312-2.202,6.198c-0.067,0.136-0.386,0.727-1.203,0.727c-0.499,0-1.681-0.272-1.681-1.362
	c0-0.25,0.023-0.5,0.522-1.589c0.545-1.181,2.339-5.631,3.497-11.285c-0.613,0.023-2.634,0.046-3.111-0.068
	c-0.363-0.091-0.771-0.477-0.771-1.317c0-0.954,0.408-1.476,1.498-1.431L398.428,33.763z M415.117,50.383
	c-1.09,0.295-3.179,0.295-3.883,0.295c-5.381,0-7.697-0.908-7.697-3.724c0-0.659,0.25-2.634,1.998-2.634
	c0.545,0,1.385,0.25,1.385,0.999c0,0.272-0.09,0.477-0.136,0.59c-0.182,0.432-0.204,0.5-0.204,0.727
	c0,0.613,0.454,0.908,1.248,1.067c0.591,0.136,1.453,0.204,2.385,0.204c1.476,0,2.497-0.113,3.905-0.25
	c0.272-0.023,0.408-0.045,0.612-0.045c0.954,0,1.363,0.522,1.363,1.34C416.093,49.68,415.797,50.202,415.117,50.383z
	 M414.958,41.324c-0.295,0.204-0.591,0.227-0.954,0.227c-0.158,0-1.044-0.068-1.566-0.091c-0.317-0.022-0.59-0.022-1.09-0.022
	c-1.498,0-2.656,0.091-2.997,0.113c-1.771,0.159-2.043,0.182-2.247,0.182c-1.249,0-1.249-1.181-1.249-1.385
	c0-0.704,0.341-1.181,1.316-1.385c1.476-0.318,3.996-0.409,5.563-0.409c3.7,0,3.7,0.591,3.7,1.703
	C415.434,40.552,415.298,41.074,414.958,41.324z"/>
<path fill="#3E3A39" d="M432.968,37.986c2.589,0,6.948,0.954,6.948,5.699c0,6.039-5.903,6.856-9.945,6.856
	c-1.93,0-4.723-0.272-5.631-0.636c-0.771-0.295-0.817-1.112-0.817-1.316c0-0.159,0-1.362,1.317-1.362c0.113,0,0.249,0,0.931,0.136
	c1.294,0.25,2.77,0.409,4.064,0.409c1.158,0,3.338-0.091,4.995-0.931c1.498-0.75,1.93-1.907,1.93-3.179
	c0-0.84-0.341-1.589-1.067-2.203c-1.021-0.84-2.883-0.84-3.179-0.84c-4.109,0-6.471,2.066-6.947,2.521
	c-0.636,0.636-0.954,0.931-1.771,0.931c-1.067,0-1.544-0.636-1.544-1.907c0-1.249,0.205-4.995,0.341-6.085
	c0.113-0.795,0.272-1.499,1.476-1.499c1.158,0,1.544,0.522,1.544,1.249c0,0.114-0.136,1.34-0.159,1.59
	c-0.113,0.999-0.204,1.68-0.227,2.929C427.814,38.509,430.902,37.986,432.968,37.986z M436.533,34.535
	c-0.34,0.25-0.635,0.272-1.135,0.272c-0.545,0-3.36-0.091-8.424-0.84c-2.043-0.318-2.701-0.545-2.701-1.567
	c0-0.136,0-1.453,1.294-1.453c0.272,0,1.181,0.182,1.771,0.295c2.111,0.431,5.404,0.658,7.107,0.704
	c1.839,0.068,2.565,0.159,2.565,1.567C437.01,33.672,436.919,34.263,436.533,34.535z"/>
<path fill="#F2300A" d="M116.302,68.128c0.117,0,3.571-0.039,3.92-0.039c0.156-0.777,0.583-3.377,0.738-3.883
	c0.466-1.28,1.708-1.358,2.212-1.358c1.787,0,2.718,0.737,2.718,2.213c0,0.814-0.233,2.095-0.389,2.911
	c2.795-0.077,6.483-0.155,10.404-0.311c0.505-0.039,2.601-0.155,3.029-0.155c0.66,0,2.523,0.039,2.523,2.407
	c0,2.251-1.67,2.367-2.602,2.407c-4.735,0.233-9.588,0.388-14.324,0.505c-0.97,4.425-1.204,5.551-3.339,12.578
	c-0.815,2.755-2.911,9.083-3.766,10.597c-0.116,0.233-0.66,1.242-2.057,1.242c-0.854,0-2.873-0.466-2.873-2.329
	c0-0.428,0.039-0.854,0.892-2.717c0.932-2.019,3.999-9.628,5.979-19.294c-1.048,0.039-4.503,0.079-5.318-0.116
	c-0.622-0.155-1.32-0.815-1.32-2.251c0-1.631,0.699-2.523,2.562-2.446L116.302,68.128z M144.835,96.545
	c-1.863,0.505-5.435,0.505-6.639,0.505c-9.2,0-13.16-1.553-13.16-6.366c0-1.126,0.427-4.503,3.416-4.503
	c0.932,0,2.369,0.426,2.369,1.708c0,0.466-0.155,0.815-0.233,1.008c-0.31,0.738-0.349,0.855-0.349,1.242
	c0,1.049,0.777,1.553,2.135,1.825c1.009,0.233,2.484,0.349,4.076,0.349c2.523,0,4.27-0.193,6.677-0.427
	c0.466-0.039,0.698-0.077,1.047-0.077c1.631,0,2.33,0.893,2.33,2.291C146.504,95.342,146,96.234,144.835,96.545z M144.563,81.056
	c-0.504,0.349-1.009,0.387-1.631,0.387c-0.271,0-1.786-0.116-2.679-0.155c-0.542-0.039-1.008-0.039-1.863-0.039
	c-2.561,0-4.542,0.156-5.124,0.194c-3.028,0.272-3.494,0.311-3.843,0.311c-2.135,0-2.135-2.019-2.135-2.368
	c0-1.204,0.582-2.019,2.25-2.368c2.524-0.544,6.832-0.7,9.511-0.7c6.327,0,6.327,1.01,6.327,2.912
	C145.378,79.735,145.146,80.629,144.563,81.056z"/>
<path fill="#F2300A" d="M180.523,75.116c4.503,6.367,7.685,10.209,11.141,13.587c1.358,1.359,2.058,2.135,2.058,3.299
	c0,1.747-1.437,3.067-2.95,3.067c-1.087,0-1.903-0.388-4.931-3.999c-2.989-3.532-5.357-7.026-10.559-14.557
	c-0.932-1.358-2.484-3.61-3.688-3.61c-1.087,0-1.708,0.854-3.338,3.571c-1.165,1.98-3.067,5.124-4.232,7.066
	c-1.203,2.057-1.824,2.795-3.105,2.795c-1.397,0-3.183-1.049-3.183-2.795c0-1.087,0.698-1.98,1.397-2.912
	c1.708-2.213,2.95-4.076,6.366-9.395c2.019-3.106,3.416-4.542,5.901-4.542C174.583,66.692,175.592,68.128,180.523,75.116z
	 M182.27,68.051c-0.388-0.621-0.466-0.932-0.466-1.165c0-0.893,0.97-1.203,1.397-1.203c0.544,0,0.815,0.193,1.786,1.708
	c0.233,0.387,1.592,2.678,1.592,3.571c0,0.932-0.971,1.242-1.476,1.242c-0.466,0-0.776-0.195-1.087-0.815
	c-0.155-0.271-0.776-1.592-0.932-1.863C182.774,68.944,182.581,68.556,182.27,68.051z M186.54,66.576
	c-0.155-0.35-0.233-0.544-0.233-0.777c0-0.776,0.932-1.165,1.397-1.165c0.504,0,0.738,0.117,1.746,1.67
	c0.234,0.349,1.592,2.64,1.592,3.454c0,0.894-0.931,1.243-1.475,1.243c-0.388,0-0.776-0.272-0.97-0.583
	c-0.117-0.194-0.855-1.668-1.049-2.019C187.394,68.128,186.695,66.847,186.54,66.576z"/>
<path fill="#F2300A" d="M224.634,75.349c4.425,0,11.878,1.63,11.878,9.744c0,10.326-10.093,11.723-17.002,11.723
	c-3.3,0-8.075-0.466-9.627-1.087c-1.32-0.504-1.397-1.901-1.397-2.25c0-0.272,0-2.329,2.251-2.329c0.194,0,0.427,0,1.592,0.232
	c2.213,0.428,4.736,0.7,6.949,0.7c1.979,0,5.707-0.155,8.54-1.592c2.562-1.282,3.3-3.261,3.3-5.435c0-1.437-0.582-2.717-1.824-3.766
	c-1.748-1.436-4.931-1.436-5.435-1.436c-7.026,0-11.064,3.533-11.879,4.309c-1.087,1.087-1.63,1.591-3.027,1.591
	c-1.825,0-2.64-1.087-2.64-3.261c0-2.136,0.349-8.541,0.582-10.404c0.195-1.359,0.466-2.562,2.524-2.562
	c1.979,0,2.64,0.892,2.64,2.135c0,0.194-0.234,2.291-0.272,2.718c-0.194,1.708-0.349,2.872-0.388,5.007
	C215.822,76.242,221.102,75.349,224.634,75.349z M230.729,69.448c-0.583,0.428-1.086,0.466-1.941,0.466
	c-0.931,0-5.745-0.156-14.401-1.436c-3.495-0.544-4.62-0.932-4.62-2.679c0-0.233,0-2.484,2.212-2.484
	c0.466,0,2.018,0.311,3.028,0.505c3.61,0.737,9.238,1.125,12.15,1.203c3.144,0.116,4.387,0.271,4.387,2.679
	C231.544,67.973,231.388,68.982,230.729,69.448z"/>
<path fill="#F2300A" d="M256.79,74.068l-5.125,0.271c-0.544,0.04-2.834,0.155-2.834-2.407c0-2.329,1.941-2.406,2.64-2.446
	l5.474-0.232c0.077-1.592,0.194-4.348,0.312-4.813c0.271-1.166,1.358-1.553,2.445-1.553c2.368,0,2.562,1.436,2.562,2.445
	c0,0.195,0,0.816-0.038,1.397c-0.078,0.737-0.271,3.959-0.312,4.619c4.581-4.308,7.609-5.163,10.171-5.163
	c1.825,0,6.911,0.504,6.911,6.794c0,1.901-0.118,2.484-1.786,9.976c-0.117,0.466-0.815,3.688-0.815,5.435
	c0,2.212,1.397,2.562,2.251,2.562c0.699,0,0.893-0.078,2.33-0.621c0.466-0.195,0.854-0.271,1.125-0.271
	c1.204,0,1.98,1.164,1.98,2.406c0,2.562-3.028,3.61-5.979,3.61c-6.715,0-6.715-5.357-6.715-6.716c0-2.057,0.31-4.969,1.318-10.249
	c0.776-4.114,0.893-4.542,0.893-5.356c0-0.544,0-2.523-2.445-2.523c-3.766,0-7.996,4.891-9.511,6.638
	c-0.078,2.874-0.117,5.785-0.117,8.658c0,1.242,0.079,6.638,0.079,7.764c0,1.475,0,3.378-2.485,3.378c-2.601,0-2.601-1.553-2.601-4
	c0-2.64,0.038-7.298,0.078-9.705c-1.438,2.174-2.562,3.921-3.377,5.046c-0.7,0.97-1.204,1.476-2.253,1.476
	c-1.358,0-2.678-1.126-2.678-2.524c0-1.009,0.349-1.358,1.98-3.183c2.213-2.408,5.356-6.639,6.482-8.968L256.79,74.068z"/>
<path fill="#F2300A" d="M300.707,88.704c-0.621,1.086-1.203,1.825-2.562,1.825c-1.592,0-2.755-1.126-2.755-2.252
	c0-0.932,0.193-1.281,2.833-5.861c1.591-2.717,2.796-6.172,3.766-9.162c-1.126,0.04-4.581,0.078-5.24-0.077
	c-0.737-0.193-1.438-0.894-1.438-2.291c0-2.019,1.398-2.251,1.902-2.329c0.311-0.039,5.435-0.156,6.172-0.156
	c0.156-0.621,0.661-3.493,0.855-4.076c0.271-0.932,1.048-1.475,2.29-1.475c0.544,0,2.795,0.078,2.795,2.058
	c0,0.853-0.271,1.824-0.66,3.299c0.35,0,3.65-0.156,3.727-0.156c0.7,0,2.484,0.039,2.484,2.407c0,2.251-1.708,2.368-2.601,2.406
	c-1.086,0.039-3.105,0.118-5.046,0.233C305.948,77.174,304.084,82.803,300.707,88.704z M316.39,76.475
	c-0.077-1.047,0.193-2.485,2.484-2.485c1.475,0,2.445,0.622,2.523,2.252l0.427,7.919c2.175,1.048,4.192,2.368,5.979,3.958
	c0.971,0.894,1.397,1.632,1.397,2.485c0,1.242-0.932,2.64-2.523,2.64c-0.814,0-1.204-0.427-2.796-1.747
	c-1.513-1.242-1.746-1.32-2.367-1.863c0,1.397-0.039,2.602-0.659,3.844c-1.902,3.843-6.367,3.882-7.688,3.882
	c-6.87,0-9.472-3.766-9.472-7.377c0-3.261,2.329-7.647,10.133-7.647c1.28,0,2.173,0.117,3.027,0.232L316.39,76.475z M313.439,86.491
	c-1.901,0-5.24,0.504-5.24,3.377c0,3.184,3.922,3.184,4.619,3.184c4.192,0,4.271-2.679,4.231-5.901
	C316.313,86.84,315.38,86.491,313.439,86.491z M318.68,64.945c1.475,0,5.861,2.368,9.123,4.931c1.164,0.932,1.708,1.747,1.708,2.716
	c0,1.476-1.358,2.563-2.562,2.563c-0.893,0-1.436-0.466-2.291-1.204c-2.406-2.096-2.871-2.329-7.143-4.659
	c-0.388-0.232-1.358-0.776-1.358-1.94c0-0.544,0.271-1.048,0.389-1.242C316.778,65.76,317.477,64.945,318.68,64.945z"/>
<path fill="#F2300A" d="M347.417,66.771c0,0.504-0.232,2.561-0.271,2.988c-0.078,1.049-0.389,4.426-0.389,7.726
	c0,3.338,0.389,9.123,1.941,11.802c0.387,0.66,1.202,1.358,2.29,1.358c2.058,0,3.339-2.329,4.192-5.008
	c0.62-1.864,0.815-2.601,2.368-2.601c1.475,0,2.757,0.854,2.757,2.33c0,1.669-1.01,3.882-2.135,5.901
	c-1.281,2.29-3.495,5.202-7.454,5.202c-9.006,0-9.006-15.49-9.006-19.643c0-3.183,0.311-9.627,0.581-10.675
	c0.467-1.67,1.631-1.747,2.796-1.747C346.641,64.402,347.417,65.294,347.417,66.771z M370.167,90.8c0-6.406,0-11.724-1.824-15.955
	c-1.242-2.795-3.3-3.067-4.775-3.261c-1.009-0.117-2.367-0.272-2.367-2.484c0-0.738,0.271-2.563,2.718-2.563
	c1.552,0,6.056,0.66,8.655,4.931c2.331,3.843,3.067,11.374,3.067,18.517c0,1.631,0,3.727-2.717,3.727
	C370.167,93.711,370.167,91.809,370.167,90.8z"/>
<path fill="#F2300A" d="M407.37,82.104c4.426,1.593,9.005,3.649,12.5,6.793c1.126,1.01,1.708,1.631,1.708,2.718
	c0,1.824-1.514,3.261-2.95,3.261c-1.203,0-1.901-0.699-3.766-2.563c-2.601-2.601-4.892-3.843-7.569-4.969
	c0.077,4.62-0.116,9.861-9.083,9.861c-5.126,0-10.639-2.019-10.639-8.036c0-5.552,5.164-8.308,11.413-8.308
	c1.358,0,2.369,0.116,3.066,0.195l-0.387-15.373c-0.038-1.553,0.505-2.757,2.678-2.757c2.213,0,2.757,1.125,2.757,2.718v3.726
	c2.251,0,7.104-0.155,9.705-0.271c0.271,0,0.814-0.039,1.165-0.039c1.708,0,2.406,1.087,2.406,2.523c0,1.474-0.698,2.368-1.94,2.523
	c-0.893,0.117-6.366,0.311-11.219,0.311L407.37,82.104z M398.908,85.404c-2.099,0-6.212,0.504-6.212,3.765
	c0,2.873,3.183,3.416,5.086,3.416c1.436,0,2.872-0.349,3.571-1.049c0.815-0.853,0.815-1.902,0.815-5.745
	C401.236,85.559,400.46,85.404,398.908,85.404z"/>
<path fill="#F2300A" d="M440.529,92.663c0,1.786-1.477,3.261-3.261,3.261c-1.785,0-3.262-1.475-3.262-3.261
	c0-1.825,1.477-3.261,3.262-3.261C439.052,89.402,440.529,90.838,440.529,92.663z M438.976,84.433
	c-0.117,1.087-0.466,1.941-1.67,1.941c-1.201,0-1.63-0.621-1.746-1.901l-1.087-10.754v-8.19c0-1.359,0.582-2.64,2.757-2.64
	c1.979,0,2.832,0.97,2.832,2.64v8.19L438.976,84.433z"/>
</svg>
