<?xml version="1.0" encoding="utf-8"?>
<!-- Generator: Adobe Illustrator 16.2.1, SVG Export Plug-In . SVG Version: 6.00 Build 0)  -->
<!DOCTYPE svg PUBLIC "-//W3C//DTD SVG 1.1//EN" "http://www.w3.org/Graphics/SVG/1.1/DTD/svg11.dtd">
<svg version="1.1" xmlns="http://www.w3.org/2000/svg" xmlns:xlink="http://www.w3.org/1999/xlink" x="0px" y="0px"
	 width="528.783px" height="346px" viewBox="0 0 528.783 346" enable-background="new 0 0 528.783 346" xml:space="preserve">
<g id="base">
</g>
<g id="book3">
</g>
<g id="_x38_" display="none">
</g>
<g id="_x37_" display="none">
</g>
<g id="_x36_" display="none">
</g>
<g id="_x35_" display="none">
</g>
<g id="_x34_">
	<g>
		<g>
			<g>
				<path fill="#F8B62D" d="M412.869,165.229c0,37.854-12.707,67.873-43.715,91.561c-27.605,21.089-61.285,47.636-101.654,47.636
					c-40.368,0-77.277-22.318-104.883-43.407c-31.008-23.688-58.578-57.935-58.578-95.789s31.477-66.986,62.484-90.675
					c27.605-21.089,60.608-43.498,100.977-43.498c40.369,0,70.235,26.515,97.84,47.604
					C396.349,102.348,412.869,127.375,412.869,165.229z"/>
			</g>
		</g>
	</g>
	<ellipse fill="#F8B62D" cx="298" cy="300.194" rx="30.5" ry="14"/>
	<ellipse fill="#F8B62D" cx="243.5" cy="310.194" rx="15.5" ry="8"/>
</g>
<g id="_x33_" display="none">
</g>
<g id="_x32_" display="none">
</g>
<g id="_x31_" display="none">
</g>
<g id="_x30_" display="none">
</g>
<g id="guide" display="none">
</g>
</svg>
