<?xml version="1.0" encoding="utf-8"?>
<!-- Generator: Adobe Illustrator 16.2.1, SVG Export Plug-In . SVG Version: 6.00 Build 0)  -->
<!DOCTYPE svg PUBLIC "-//W3C//DTD SVG 1.1//EN" "http://www.w3.org/Graphics/SVG/1.1/DTD/svg11.dtd">
<svg version="1.1" xmlns="http://www.w3.org/2000/svg" xmlns:xlink="http://www.w3.org/1999/xlink" x="0px" y="0px"
	 width="528.783px" height="346px" viewBox="0 0 528.783 346" enable-background="new 0 0 528.783 346" xml:space="preserve">
<g id="base">
</g>
<g id="book3">
</g>
<g id="_x38_" display="none">
</g>
<g id="_x37_" display="none">
</g>
<g id="_x36_" display="none">
</g>
<g id="_x35_" display="none">
</g>
<g id="_x34_">
	<g>
		<g>
			<g>
				<path fill="#F8B62D" d="M503.416,154.779c0,39.572-8.088,91.055-68.708,112.822c-40.554,14.561-96.519,7.768-150.708,7.768
					c-54.188,0-112.482,13.28-153.037-1.281c-60.62-21.767-116.346-79.736-116.346-119.309s66.896-66.429,127.517-88.195
					C182.688,52.022,229.812,37.806,284,37.806c54.189,0,95.532,30.312,136.086,44.874
					C480.706,104.446,503.416,115.207,503.416,154.779z"/>
			</g>
		</g>
	</g>
	<ellipse fill="#F8B62D" cx="308" cy="313.194" rx="30.5" ry="14"/>
	<ellipse fill="#F8B62D" cx="253.5" cy="323.194" rx="15.5" ry="8"/>
</g>
<g id="_x33_" display="none">
</g>
<g id="_x32_" display="none">
</g>
<g id="_x31_" display="none">
</g>
<g id="_x30_" display="none">
</g>
<g id="guide">
</g>
</svg>
