<?xml version="1.0" encoding="utf-8"?>
<!-- Generator: Adobe Illustrator 16.2.1, SVG Export Plug-In . SVG Version: 6.00 Build 0)  -->
<!DOCTYPE svg PUBLIC "-//W3C//DTD SVG 1.1//EN" "http://www.w3.org/Graphics/SVG/1.1/DTD/svg11.dtd">
<svg version="1.1" xmlns="http://www.w3.org/2000/svg" xmlns:xlink="http://www.w3.org/1999/xlink" x="0px" y="0px" width="166px"
	 height="68px" viewBox="0 0 166 68" enable-background="new 0 0 166 68" xml:space="preserve">
<g id="base">
</g>
<g id="book3">
</g>
<g id="_x38_" display="none">
</g>
<g id="_x37_" display="none">
</g>
<g id="_x36_" display="none">
</g>
<g id="_x35_" display="none">
</g>
<g id="_x34_">
	<g>
		<path d="M40.418,25.021c4.561-0.576,6.673-0.72,12.722-0.72c0.336,0,1.344,0,2.353,0.048l0.144,8.112
			c-2.304-0.288-3.648-0.336-6.288-0.336c-5.281,0-8.689,0.288-13.489,1.2l-0.48-6.816c-2.304,0.24-2.88,0.288-4.368,0.384
			c-0.816,4.513-1.681,8.065-3.024,13.058c-1.2,4.225-1.488,5.28-3.553,11.473c-0.768,2.305-0.768,2.305-1.104,3.456l-8.833-3.216
			c3.168-6.145,6.289-15.697,8.064-24.578c-0.336,0-0.576,0-0.768,0c-1.536,0-2.544-0.048-4.608-0.145c-0.048,0-0.24,0-0.48,0
			c-0.384,0-0.576,0-1.104,0.049l0.144-7.825c1.872,0.288,4.417,0.48,7.297,0.48c0.144,0,0.48,0,0.912,0
			c0.624-3.841,0.816-5.713,0.816-7.201c0-0.144,0-0.384,0-0.72l8.977,0.672c-0.288,0.96-0.433,1.44-0.624,2.784
			c-0.048,0.288-0.336,1.681-0.769,4.129c3.312-0.337,5.232-0.624,7.873-1.248L40.418,25.021z M42.099,38.223
			c-1.824,2.16-2.592,3.744-2.592,5.232c0,2.208,1.968,3.265,6,3.265c3.744,0,8.4-0.769,11.329-1.872l0.576,8.4
			c-0.96,0.096-1.393,0.145-2.544,0.288c-4.513,0.624-6.433,0.769-9.361,0.769c-9.409,0-14.113-3.024-14.113-9.073
			c0-2.784,1.104-5.473,3.744-9.312L42.099,38.223z"/>
		<path d="M61.791,16.573c2.832,0.672,7.776,1.008,13.825,1.008c0.576,0,1.2,0,2.641-0.048c-0.048-3.168-0.097-4.032-0.288-5.232
			h8.448c-0.24,1.296-0.24,1.632-0.384,4.992c6.385-0.384,10.849-0.912,13.633-1.68l0.24,7.344c-1.392,0.097-1.68,0.097-4.225,0.433
			c-3.216,0.432-5.904,0.672-9.648,0.816c0,1.199,0,1.199,0,3.023c5.425-0.288,9.073-0.72,12.385-1.439l0.192,7.345
			c-1.008,0.048-1.008,0.048-3.072,0.239c-2.16,0.24-6.769,0.576-9.409,0.673c0.048,2.208,0.048,2.208,0.145,4.224
			c2.496,0.673,4.032,1.248,6.576,2.593c2.448,1.296,3.024,1.632,6.433,3.984c0.72,0.479,1.057,0.672,1.824,1.151l-4.561,7.729
			c-1.439-1.536-1.439-1.536-3.264-3.072c-2.257-1.921-4.608-3.408-6.817-4.272c0,2.16-0.336,3.6-1.151,4.849
			c-1.585,2.447-5.232,3.792-10.465,3.792c-7.873,0-12.338-3.217-12.338-8.785c0-3.504,2.209-6.385,6.049-7.824
			c2.256-0.864,5.137-1.296,8.545-1.296c0.624,0,0.768,0,1.488,0c-0.048-1.633-0.097-2.593-0.097-2.833
			c-1.008,0-2.976,0.048-3.696,0.048c-2.784,0-4.992-0.048-7.729-0.191c-2.112-0.096-2.352-0.145-3.792-0.145l0.096-7.152
			c2.112,0.433,6.913,0.769,11.81,0.769c1.008,0,1.728,0,3.216-0.049c0-0.336,0-0.479,0-0.72c0-0.096,0-0.096-0.048-1.248
			c0-0.672,0-0.672,0-1.152c-1.104,0.048-1.584,0.048-2.017,0.048c-2.592,0-3.408-0.048-8.929-0.287
			c-1.824-0.049-1.824-0.049-3.6-0.145c-0.673-0.048-1.152-0.048-1.297-0.048c-0.191,0-0.479,0-0.815,0L61.791,16.573z
			 M75.664,43.936c-2.928,0-4.608,0.815-4.608,2.304c0,1.2,1.345,1.921,3.744,1.921c2.688,0,3.841-0.912,3.841-3.072
			c0-0.288-0.048-0.816-0.048-0.816C77.44,43.983,76.769,43.936,75.664,43.936z"/>
		<path d="M120.035,36.062c-2.832,2.16-4.32,4.177-4.32,5.904c0,2.496,3.12,3.601,10.417,3.601c5.664,0,12.529-0.96,15.697-2.208
			l0.576,9.217c-1.296,0.048-1.296,0.048-4.752,0.479c-4.033,0.528-8.018,0.769-11.953,0.769c-5.425,0-9.266-0.528-12.193-1.729
			c-4.272-1.728-6.433-4.656-6.433-8.688c0-4.272,2.112-7.776,6.864-11.569L120.035,36.062z M110.242,14.269
			c3.12,0.816,8.978,1.296,15.89,1.296c6.24,0,10.849-0.288,13.345-0.863l0.192,7.344c-2.977,1.44-9.024,5.281-13.345,8.497
			l-5.905-4.08c1.393-0.96,1.488-1.008,3.793-2.4c0.624-0.384,0.672-0.432,1.152-0.672c0.336-0.192,0.384-0.192,0.768-0.433
			c-1.584,0.145-2.304,0.192-3.937,0.192c-3.648,0-6.048-0.144-10.801-0.576c-0.864-0.096-1.008-0.096-1.68-0.144L110.242,14.269z
			 M136.404,26.029c1.681,1.776,2.977,3.601,4.177,6.049l-4.32,2.496c-1.393-2.688-2.448-4.176-4.225-6.192L136.404,26.029z
			 M141.877,23.006c1.824,1.968,2.881,3.456,4.177,5.809l-4.225,2.447c-1.152-2.208-2.353-3.888-4.128-5.952L141.877,23.006z"/>
	</g>
</g>
<g id="_x33_" display="none">
</g>
<g id="_x32_" display="none">
</g>
<g id="_x31_" display="none">
</g>
<g id="_x30_" display="none">
</g>
<g id="guide">
</g>
</svg>
