<?xml version="1.0" encoding="utf-8"?>
<!-- Generator: Adobe Illustrator 16.2.1, SVG Export Plug-In . SVG Version: 6.00 Build 0)  -->
<!DOCTYPE svg PUBLIC "-//W3C//DTD SVG 1.1//EN" "http://www.w3.org/Graphics/SVG/1.1/DTD/svg11.dtd">
<svg version="1.1" xmlns="http://www.w3.org/2000/svg" xmlns:xlink="http://www.w3.org/1999/xlink" x="0px" y="0px" width="166px"
	 height="82px" viewBox="0 0 166 82" enable-background="new 0 0 166 82" xml:space="preserve">
<g id="base">
</g>
<g id="book3">
</g>
<g id="_x38_" display="none">
</g>
<g id="_x37_" display="none">
</g>
<g id="_x36_" display="none">
</g>
<g id="_x35_" display="none">
</g>
<g id="_x34_">
	<g>
		<path d="M53.476,24.733c-1.2,0.288-1.2,0.288-2.688,0.815c-2.832,0.912-5.473,1.585-9.312,2.305
			c-0.048,2.4-0.096,5.473-0.145,6.528h7.873c3.696,0,5.521-0.096,7.585-0.336v7.873c-1.969-0.192-3.12-0.24-7.44-0.24h-8.545
			c-0.576,4.416-1.488,7.345-3.217,10.177c-1.775,2.784-4.608,5.568-7.969,7.681c-1.392,0.912-2.352,1.44-4.656,2.448
			c-1.824-3.217-3.072-4.801-5.952-7.2c5.809-2.112,8.784-3.984,10.849-6.865c1.296-1.728,1.92-3.408,2.353-6.24h-9.457
			c-4.368,0-5.473,0.048-7.488,0.24v-7.873c2.016,0.288,3.168,0.336,7.632,0.336h10.081c0.097-1.44,0.097-2.353,0.097-4.032v-1.344
			c-4.561,0.479-4.945,0.479-12.674,0.815c-0.479-2.688-1.056-4.416-2.448-7.296c1.633,0.096,2.497,0.096,3.217,0.096
			c6.385,0,15.553-1.104,21.025-2.496c2.448-0.624,4.225-1.297,6.049-2.208L53.476,24.733z"/>
		<path d="M69.294,59.344c-2.688,0-4.416,0.049-5.952,0.192v-7.104c1.872,0.288,3.12,0.336,5.952,0.336h16.994v-5.664H71.311
			c-2.929,0-4.513,0.048-6.049,0.191v-6.961c2.112,0.192,3.793,0.288,6.049,0.288h14.978v-5.28H69.774
			c-3.216,0-4.513,0.048-5.952,0.24v-7.104c2.16,0.288,3.264,0.336,5.952,0.336h19.634c2.304,0,3.024-0.048,4.32-0.144
			c-0.048,1.199-0.096,2.976-0.096,4.464v22.37c0,2.208,0.096,4.368,0.239,5.952h-7.584v-2.112H69.294z"/>
		<path d="M110.627,56.896c-4.417,0-6.049,0.049-8.209,0.288v-8.736c2.305,0.336,3.601,0.384,8.353,0.384h19.202v-18.77h-18.626
			c-4.416,0-6.24,0.048-8.257,0.24v-8.737c2.305,0.336,3.841,0.433,8.401,0.433h22.033c2.593,0,3.937-0.048,5.329-0.145
			c-0.097,1.681-0.145,2.496-0.145,4.896v25.059c0,4.032,0.048,5.137,0.288,7.921h-9.024v-2.833H110.627z"/>
	</g>
</g>
<g id="_x33_" display="none">
</g>
<g id="_x32_" display="none">
</g>
<g id="_x31_" display="none">
</g>
<g id="_x30_" display="none">
</g>
<g id="guide">
</g>
</svg>
