<?xml version="1.0" encoding="utf-8"?>
<!-- Generator: Adobe Illustrator 16.2.1, SVG Export Plug-In . SVG Version: 6.00 Build 0)  -->
<!DOCTYPE svg PUBLIC "-//W3C//DTD SVG 1.1//EN" "http://www.w3.org/Graphics/SVG/1.1/DTD/svg11.dtd">
<svg version="1.1" xmlns="http://www.w3.org/2000/svg" xmlns:xlink="http://www.w3.org/1999/xlink" x="0px" y="0px" width="166px"
	 height="69.859px" viewBox="0 0 166 69.859" enable-background="new 0 0 166 69.859" xml:space="preserve">
<g id="base">
</g>
<g id="book3">
</g>
<g id="_x38_" display="none">
</g>
<g id="_x37_" display="none">
</g>
<g id="_x36_" display="none">
</g>
<g id="_x35_" display="none">
</g>
<g id="_x34_">
	<g>
		<path d="M17.089,25.625c1.823,0.192,2.976,0.24,5.28,0.24c3.696,0,7.44-0.192,12.001-0.672c-0.24-0.576-0.24-0.624-0.721-1.872
			c-0.815-2.16-1.344-3.456-1.968-4.801l8.641-1.056c0.336,1.872,1.104,4.272,2.112,6.769c5.185-0.816,8.977-1.633,11.857-2.641
			l0.863,8.064c-1.392,0.192-1.392,0.192-3.936,0.673c-2.16,0.432-4.081,0.768-6.001,1.056c2.017,4.128,4.704,8.593,8.209,13.441
			l-7.969,3.216c-1.44-1.488-2.593-2.112-5.137-2.64c-1.632-0.336-3.264-0.48-5.28-0.48c-5.376,0-8.593,1.536-8.593,4.08
			c0,2.545,2.977,3.841,8.833,3.841c5.473,0,11.425-1.296,15.265-3.265l1.057,8.593c-0.864,0.192-1.248,0.24-2.208,0.48
			c-6.192,1.439-9.121,1.824-14.065,1.824c-6.528,0-11.137-1.104-13.921-3.312c-2.4-1.969-3.745-4.753-3.745-7.825
			c0-2.544,1.009-5.04,2.785-6.912c2.832-2.977,7.488-4.465,13.824-4.465c2.593,0,4.033,0.192,6.577,0.961
			c-0.864-1.152-1.776-2.688-2.977-5.041c-0.432-0.768-0.528-0.96-0.815-1.488c-4.129,0.576-10.321,0.96-16.897,1.104
			c-1.345,0.048-1.585,0.048-2.448,0.144L17.089,25.625z"/>
		<path d="M76.729,17.368c0.192,3.169,1.296,8.929,2.736,14.21c2.16-0.769,3.553-1.248,5.521-1.776
			c4.561-1.345,4.561-1.345,6.289-1.872c1.104-0.336,1.296-0.385,1.968-0.721l2.736,8.545c-4.753,0.721-11.474,2.496-17.186,4.465
			c-6.145,2.16-9.312,4.704-9.312,7.536c0,2.929,2.88,4.225,9.553,4.225c4.368,0,9.696-0.576,14.064-1.536
			c0.721-0.144,1.2-0.288,2.545-0.72l0.624,9.12c-1.2,0.049-1.729,0.097-4.177,0.385c-5.328,0.576-8.593,0.815-12.097,0.815
			c-6.913,0-11.761-1.008-14.93-3.024c-2.736-1.775-4.416-5.232-4.416-9.024c0-3.696,1.824-7.393,4.944-9.889
			c1.68-1.345,3.072-2.16,6-3.648c-1.151-4.177-1.392-5.328-2.832-12.625c-0.479-2.208-0.527-2.496-0.768-3.168L76.729,17.368z"/>
		<path d="M102.716,32.826c1.488,0,1.488,0,6.337-0.816c6.769-1.104,11.137-1.488,16.129-1.488c6.289,0,10.369,1.681,12.625,5.28
			c1.2,1.921,1.824,4.081,1.824,6.48c0,5.905-3.792,11.474-10.032,14.737c-4.177,2.209-8.497,3.36-16.37,4.32
			c-0.863-3.504-1.584-5.28-3.312-8.256c5.568-0.24,9.841-0.961,13.345-2.353c3.217-1.2,5.377-2.832,6.48-4.849
			c0.576-1.056,0.912-2.256,0.912-3.264c0-2.881-2.112-4.369-6.097-4.369c-5.616,0-15.073,1.633-19.97,3.457L102.716,32.826z
			 M110.589,17.129c5.809,1.775,12.385,2.64,19.874,2.64c0.863,0,1.68,0,3.312-0.048l-1.056,8.161
			c-9.745-0.288-16.993-1.152-24.626-2.929L110.589,17.129z"/>
	</g>
</g>
<g id="_x33_" display="none">
</g>
<g id="_x32_" display="none">
</g>
<g id="_x31_" display="none">
</g>
<g id="_x30_" display="none">
</g>
<g id="guide">
</g>
</svg>
