<?xml version="1.0" encoding="utf-8"?>
<!-- Generator: Adobe Illustrator 16.2.1, SVG Export Plug-In . SVG Version: 6.00 Build 0)  -->
<!DOCTYPE svg PUBLIC "-//W3C//DTD SVG 1.1//EN" "http://www.w3.org/Graphics/SVG/1.1/DTD/svg11.dtd">
<svg version="1.1" xmlns="http://www.w3.org/2000/svg" xmlns:xlink="http://www.w3.org/1999/xlink" x="0px" y="0px" width="206px"
	 height="78px" viewBox="0 0 206 78" enable-background="new 0 0 206 78" xml:space="preserve">
<g id="base">
</g>
<g id="book3">
</g>
<g id="_x38_" display="none">
</g>
<g id="_x37_" display="none">
</g>
<g id="_x36_" display="none">
</g>
<g id="_x35_" display="none">
</g>
<g id="_x34_">
	<g>
		<path d="M31.441,40.562c-2.832,2.16-4.32,4.177-4.32,5.904c0,2.496,3.12,3.601,10.417,3.601c5.665,0,12.529-0.96,15.697-2.208
			l0.576,9.217c-1.296,0.048-1.296,0.048-4.752,0.479c-4.032,0.528-8.017,0.769-11.953,0.769c-5.425,0-9.265-0.528-12.193-1.729
			c-4.272-1.728-6.433-4.656-6.433-8.688c0-4.272,2.112-7.776,6.864-11.569L31.441,40.562z M21.648,18.769
			c3.121,0.816,8.978,1.296,15.89,1.296c6.24,0,10.849-0.288,13.346-0.863l0.191,7.344c-2.976,1.44-9.024,5.281-13.345,8.497
			l-5.904-4.08c1.392-0.96,1.487-1.008,3.792-2.4c0.624-0.384,0.672-0.432,1.152-0.672c0.336-0.192,0.384-0.192,0.768-0.433
			c-1.584,0.145-2.304,0.192-3.937,0.192c-3.648,0-6.048-0.144-10.801-0.576c-0.864-0.096-1.008-0.096-1.68-0.144L21.648,18.769z"/>
		<path d="M58.863,22.225c1.824,0.433,3.601,0.576,8.16,0.576c0-0.191,0-0.336,0-0.479c0-0.048,0-0.192,0-0.384
			c0.049-0.576,0.049-1.009,0.049-1.152c0-1.345-0.145-2.929-0.336-3.937l8.448,0.048c-0.336,1.536-0.384,2.064-0.528,5.568
			c4.272-0.432,6.097-0.768,7.825-1.344l0.24,7.488c-0.721,0.048-0.721,0.048-3.121,0.433c-1.439,0.239-3.072,0.384-5.136,0.527
			c0,0.433,0,0.433,0,1.536v0.912c-0.049,0.288-0.049,0.48-0.049,0.576c0,0.192,0,0.384,0.049,0.672
			c2.016,1.681,2.784,3.36,2.784,6.097c0,1.729-0.385,3.217-1.2,4.753c-0.24,0.479-0.24,0.479-1.681,2.592
			c-1.008,1.632-1.487,2.736-1.487,3.648c0,1.488,1.872,2.112,6.48,2.112c3.84,0,7.152-0.48,8.593-1.2
			c1.199-0.624,1.68-1.632,1.68-3.408c0-2.448-0.528-5.232-1.68-8.881c3.936,1.393,5.808,1.872,8.88,2.208
			c0.097,0.384,0.145,0.672,0.192,0.912c0.672,2.929,0.912,4.753,0.912,7.201c0,4.032-1.536,6.864-4.513,8.305
			c-2.111,1.056-4.08,1.536-8.16,1.92c-2.064,0.191-4.608,0.336-6.24,0.336c-4.896,0-9.073-0.72-11.426-1.92
			c-2.063-1.057-3.168-2.881-3.168-5.28c0-1.2,0.288-2.4,0.816-3.553c-0.624,0.048-0.624,0.048-0.721,0.048
			c-1.584,0-3.456-0.96-4.512-2.353c-1.152-1.487-1.824-3.6-1.824-5.616c0-4.992,3.6-8.833,8.688-9.217
			c0-0.864,0.048-0.96,0.048-1.104c0-0.816,0-0.816,0-1.152h-2.736c-1.2,0-1.2,0-3.264-0.097c-0.433-0.048-0.816-0.048-1.152-0.048
			c-0.24,0-0.576,0-1.008,0L58.863,22.225z M67.696,37.923c-1.345,0-2.353,1.248-2.353,2.88c0,1.296,0.72,2.16,1.872,2.16
			c1.393,0,2.4-1.248,2.4-2.929c0-1.344-0.576-2.016-1.729-2.063C67.792,37.923,67.696,37.923,67.696,37.923z M90.978,19.633
			c5.425,4.561,7.729,7.057,11.041,11.809l-6.576,5.137c-2.593-4.368-6.913-9.36-10.705-12.337L90.978,19.633z"/>
		<path d="M140.879,26.354c-1.008,0.191-1.008,0.191-1.824,0.336c-3.744,0.768-4.128,0.864-7.729,1.393
			c0.384,0.911,0.912,2.16,1.104,2.496c6.672-1.152,8.977-1.681,11.185-2.545l0.72,7.104c-1.104,0.097-1.104,0.097-5.904,1.104
			c-0.048,0-2.256,0.432-2.88,0.528c1.968,3.456,3.312,5.376,6.145,8.881l-7.057,3.6c-2.832-1.439-5.904-2.063-10.081-2.063
			c-5.328,0-8.257,1.104-8.257,3.12c0,1.104,0.96,1.824,2.929,2.208c1.056,0.192,3.072,0.384,4.608,0.384
			c4.896,0,12.001-1.392,15.313-2.976l1.104,8.16c-1.2,0.145-1.392,0.145-3.408,0.576c-4.801,1.056-8.977,1.536-13.201,1.536
			c-5.856,0-9.841-0.864-12.721-2.736c-2.353-1.488-3.793-4.176-3.793-7.104c0-3.312,2.209-6.385,5.713-7.873
			c2.832-1.2,6.097-1.775,10.272-1.775c2.545,0,4.465,0.144,6.625,0.527c-0.528-0.72-1.248-1.824-2.208-3.408
			c-4.081,0.528-9.601,0.912-16.514,1.104c-2.88,0.048-3.024,0.096-4.177,0.191l-0.336-7.104c1.393,0.192,2.305,0.24,4.944,0.24
			c4.608,0,9.217-0.24,13.105-0.72c-0.144-0.384-0.528-1.2-1.104-2.496c-4.224,0.384-6.432,0.479-12.528,0.527
			c-2.16,0-2.496,0-3.601,0.048l-0.432-7.008c1.68,0.144,3.264,0.239,5.472,0.239c2.736,0,6.433-0.144,8.593-0.384
			c-1.008-2.592-1.584-3.888-2.016-4.752l8.4-1.057c0.24,1.536,0.576,2.641,1.488,4.993c2.305-0.288,4.656-0.673,7.585-1.297
			c-0.673-1.296-0.96-1.872-1.824-3.36l4.8-1.248c1.393,2.112,2.16,3.696,3.217,6.48l-2.064,0.673L140.879,26.354z M145.535,14.353
			c1.297,1.728,2.353,3.792,3.169,6.048l-4.753,1.537c-0.96-2.641-1.536-3.889-3.024-6.385L145.535,14.353z"/>
		<path d="M164.752,40.562c-2.832,2.16-4.32,4.177-4.32,5.904c0,2.496,3.12,3.601,10.417,3.601c5.665,0,12.529-0.96,15.697-2.208
			l0.576,9.217c-1.296,0.048-1.296,0.048-4.752,0.479c-4.032,0.528-8.017,0.769-11.953,0.769c-5.425,0-9.265-0.528-12.193-1.729
			c-4.272-1.728-6.433-4.656-6.433-8.688c0-4.272,2.112-7.776,6.864-11.569L164.752,40.562z M154.959,18.769
			c3.121,0.816,8.978,1.296,15.89,1.296c6.24,0,10.849-0.288,13.346-0.863l0.191,7.344c-2.976,1.44-9.024,5.281-13.345,8.497
			l-5.904-4.08c1.392-0.96,1.487-1.008,3.792-2.4c0.624-0.384,0.672-0.432,1.152-0.672c0.336-0.192,0.384-0.192,0.768-0.433
			c-1.584,0.145-2.304,0.192-3.937,0.192c-3.648,0-6.048-0.144-10.801-0.576c-0.864-0.096-1.008-0.096-1.68-0.144L154.959,18.769z"
			/>
	</g>
</g>
<g id="_x33_" display="none">
</g>
<g id="_x32_" display="none">
</g>
<g id="_x31_" display="none">
</g>
<g id="_x30_" display="none">
</g>
<g id="guide">
</g>
</svg>
