<?xml version="1.0" encoding="utf-8"?>
<!-- Generator: Adobe Illustrator 16.2.1, SVG Export Plug-In . SVG Version: 6.00 Build 0)  -->
<!DOCTYPE svg PUBLIC "-//W3C//DTD SVG 1.1//EN" "http://www.w3.org/Graphics/SVG/1.1/DTD/svg11.dtd">
<svg version="1.1" id="_x31_" xmlns="http://www.w3.org/2000/svg" xmlns:xlink="http://www.w3.org/1999/xlink" x="0px" y="0px"
	 width="517.474px" height="248.988px" viewBox="0 0 517.474 248.988" enable-background="new 0 0 517.474 248.988"
	 xml:space="preserve">
<path fill="#009FE8" d="M394.263,193.059c-4.368,0.182-8.611-0.344-12.924-1.59c-7.033-2.152-13.734-3.391-20.303-3.748
	c12.208,8.492,24.754,14.688,37.633,18.453c18.015,5.35,35.648,5.75,52.769,1.143C435.007,196.834,415.952,192.113,394.263,193.059"
	/>
<path fill="#009FE8" d="M313.676,64.309c-1.864,9.928-2.851,19.889-2.847,29.894c-0.1,9.239,0.606,14.738,2.051,16.484
	l21.944,54.462c8.54,8.787,17.307,16.344,26.212,22.572c6.573,0.357,13.27,1.596,20.309,3.748c4.299,1.246,8.55,1.771,12.918,1.59
	c21.689-0.945,40.738,3.777,57.175,14.258c0.317-0.031,0.583-0.111,0.847-0.188c14.521-3.996,26.131-10.508,34.718-19.537
	c8.081-8.574,10.306-15.416,6.689-20.54c-9.347-13.005-19.619-17.469-30.906-13.294c-3.201,1.245-7.422,3.609-12.73,7.221
	c-1.369,0.924-2.642,1.761-3.876,2.467c1.462-1.094,2.985-2.506,4.701-4.165c5.775-5.327,10.649-11.444,14.566-18.398
	c11.045-19.251,10.251-34.933-2.283-47.04c-6.021-7.18-15.423-5.604-28.247,4.777c-13.056,12.809-21.003,20.225-23.755,22.337
	c14.174-18.454,22.803-33,25.988-43.541c5.331-17.481,0.085-30.858-15.815-40.119c-7.001-4.065-17.518-0.083-31.523,11.978
	c-12.844,11.174-19.812,19.744-20.817,25.707c-0.497-10.821-2.272-20.721-5.428-29.699c-4.957-13.795-12.136-20.938-21.633-21.414
	C328.353,23.241,318.922,36.729,313.676,64.309"/>
<path fill="#00499C" d="M302.541,117.742c-0.277,0.348-0.417,0.473-0.459,0.515l4.762,4.243l0.604,0.557
	c0.599-0.732,1.575-1.801,2.968-3.254c0.893-1.17,1.55-2.029,2.019-2.549c0.007-0.092,0.05-0.133,0.101-0.172
	c0.43-0.745,0.364-1.545-0.128-2.453c-0.366-0.686-0.483-1.268-0.419-1.664l0.087-0.172c0.009-0.084,0.054-0.135,0.058-0.221
	c0.291-0.529,0.309-1.055-0.018-1.604l-0.295-0.582c-0.162-1.476-0.412-5.27-0.698-11.417c-0.333-6.103-0.108-12.718,0.718-19.888
	c0.818-7.168,1.514-12.34,1.999-15.611c0.48-3.098,1.172-5.959,2.035-8.547c1.859-5.217,3.86-9.718,6.148-13.444
	c0.522-0.999,1.093-1.956,1.674-2.913l-6.911-7.483c-2.356,3.466-4.438,7.604-6.319,12.511c-1.192,2.887-2.198,6.047-3.139,9.388
	l-0.318,0.21l-0.99,2.625c-0.018,0.178-0.016,0.355-0.019,0.443l-0.095-0.002l-0.047,0.128c-0.102,0.351-0.158,0.575-0.12,0.794
	l-0.005,0.093c-3.52,21.202-4.888,37.333-4.073,48.297c0.029,0.402,0.015,0.751-0.009,1.2c0.036,0.141,0.033,0.227,0.036,0.311
	c0.017,0.671,0.123,1.341,0.226,2.098c-0.099,0.092-0.193,0.17-0.278,0.262c0.086,0.092,0.218,0.139,0.346,0.186l-0.7,0.822
	c-0.165,0.748-0.034,1.736,0.467,2.903c0.442,1.044,0.591,1.764,0.352,2.153c-0.332,0.568-0.567,0.864-0.701,0.902
	c-0.14-0.047-0.211-0.055-0.309,0.035L302.541,117.742z"/>
<path fill="#00499C" d="M464.565,140.666c-0.045,0.045-0.086,0.084-0.144,0.129c-4.363,7.023-9.425,13.398-15.343,19.121
	c-1.81,1.752-3.52,3.326-5.128,4.729c0.357-0.076,2.495-1.453,6.61-4.133c4.104-2.682,8.061-4.785,11.948-6.323
	c2.615-0.958,4.637-1.544,6.111-1.618c0.669-0.107,1.926-0.146,3.736-0.027c0.093,0.001,0.267,0.007,0.359,0.008l0.041,0.047
	c0.737,0.166,1.547,0.288,2.334,0.41l1.407,0.5c0.042,0.04,0.042,0.04,0.084,0.092c0.137,0.052,0.262,0.1,0.396,0.061l0.041,0.047
	l0.047,0.047l0.081,0.094c0.048,0.043,0.048,0.043,0.085,0.088c4.058,1.898,7.176,4.064,9.393,6.467
	c0.555,0.611,0.854,0.934,0.94,1.104c0.36,0.772,1.877,2.978,4.615,6.681l-0.01,0.086l0.049,0.05
	c1.133,1.688,1.635,3.624,1.451,5.746c-0.001,0.091-0.041,0.132-0.049,0.227c-0.914,2.894-2.633,5.853-5.16,8.856
	c-1.015,1.123-2.084,2.096-3.14,2.99c-5.068,4.594-9.989,8.537-14.654,11.73l6.814,7.379c6.907-4.662,12.843-9.795,17.919-15.504
	c3.309-3.742,5.719-7.418,7.252-11.137c-0.087-2.4,0.026-5.066,0.231-7.9c-0.523-1.582-1.066-3.383-1.693-5.446
	c-0.162-0.45-0.28-0.95-0.395-1.351c-1.318-2.447-3.135-4.97-5.438-7.381c-7.547-7.994-14.363-12.05-20.531-12.256l-0.048-0.042
	c-0.234,0.034-1.466,0.078-3.784,0.156c-0.495,0.026-0.984,0.052-1.385,0.085c0.049-0.049,0.094-0.087,0.14-0.129
	c0.138-0.219,0.746-0.771,1.757-1.619c0.464-0.43,0.83-0.769,1.105-1.027c0.052-0.04,0.138-0.13,0.192-0.256
	c0.189-0.261,0.509-0.557,0.887-0.99c0.093-0.174,0.235-0.39,0.372-0.518c0.189-0.262,0.424-0.559,0.795-0.903
	c9.934-21.562,8.413-38.967-4.701-52.156c-6.971-8.199-15.299-9.913-24.91-5.228c0.946-2.762,1.824-5.534,2.459-8.262l0.011-0.092
	c4.175-18.725-1.406-32.468-16.657-41.213c-15.429-8.933-29.985-6.277-43.712,7.846c-5.565,5.733-10.316,10.963-14.147,15.614
	c-0.721-5.233-2.098-10.71-4.09-16.485c-4.624-13.26-14.397-20.141-29.182-20.602c-9.271-0.594-16.998,3.627-23.141,12.627
	l6.899,7.486c4.132-6.462,9.118-9.775,15.07-9.889l0.046,0.043c0.488,0.061,1.066,0.044,1.601-0.021
	c0.042,0.046,0.042,0.046,0.087,0.004c3.786-0.072,7.162,0.914,10.242,2.947c4.125,2.432,7.127,6.332,9.044,11.653
	c0.121,0.409,0.234,0.809,0.405,1.083c0.694,1.583,1.375,3.348,1.957,5.375c3.145,9.147,4.742,19.394,4.855,30.822
	c1.143-6.354,8.423-15.892,21.825-28.684c1.056-0.895,2.074-1.832,3.043-2.727c0.744-0.771,1.446-1.587,2.18-2.353
	c3.95-3.98,7.878-6.666,11.892-8.155c6.275-3.389,11.365-3.979,15.279-1.871c7.405,3.855,12.495,8.905,15.264,15.063
	c2.729,5.267,3.275,11.599,1.677,19.14c-0.401,2.166-0.93,4.458-1.613,6.874c-0.77,2.591-1.854,5.388-3.221,8.358
	c0.088,0.01,0.221,0.061,0.313,0.057c-5.035,10.203-13.418,22.898-25.146,38.07c2.855-2.379,11.369-10.57,25.54-24.586
	c3.538-2.919,6.831-5.279,9.839-7.021l0.088,0.006c8.102-4.748,14.358-4.537,18.728,0.574c11.531,10.904,12.845,25.766,3.858,44.655
	l-0.092-0.002c-0.008,0.087,0.003,0.177-0.047,0.216c-0.092-0.002-0.184,0.084-0.277,0.082c-0.144,0.303-0.285,0.609-0.526,0.92
	C464.944,140.15,464.614,140.621,464.565,140.666"/>
<g>
	<g>
		<path fill="#009FE8" d="M73.622,86.604l-4.479,4.131c-17.438,15.659-35.64,37.074-54.556,64.189
			c12.416,7.432,23.014,13.639,31.788,18.791c19.852,11.604,34.123,19.381,42.766,23.377c6.505,2.883,12.885,5.539,19.105,7.924
			c19.925,7.688,40.262,13.805,60.927,18.324c38.268,8.209,74.625,9.451,109.05,3.676c21.488-3.49,38.908-7.857,52.186-13.096
			c6.512-2.6,12.537-5.414,18.127-8.527l-0.54-0.863l1.235-0.797l0.629,0.867c5.32-3.023,10.215-6.346,14.711-9.902
			c9.552-7.531,14.154-11.166,13.863-10.906c-0.317,0.293,0.256,0.271,1.742-0.068c3.856-2.957,7.257-5.666,10.289-8.211l0.544-0.42
			l-1.839,0.588l13.925-11.307l-70.587-79.847l-23.34,15.38c-0.006,0.084-0.668,0.105-2.089,0.043
			c-1.468-0.005-2.222,0.002-2.273,0.045c-0.201,0.791-0.328,1.588-0.541,2.387c-0.332,1.58-0.897,2.625-1.596,3.176
			c-10.55,8.021-20.239,13.724-29.141,17.146c-6.772,2.574-16.565,4.935-29.367,7.088c-17.448,2.851-35.771,3.097-55.062,0.629
			c-16.455-2.174-33.446-6.236-51.033-12.237c-11.664-4.028-23.214-8.761-34.641-14.376L73.622,86.604z"/>
	</g>
	<g>
		<path fill="none" stroke="#00499C" stroke-width="10.0497" stroke-linecap="square" stroke-miterlimit="10" d="M14.587,154.923
			c12.419,7.432,23.014,13.641,31.788,18.793c19.845,11.604,34.123,19.381,42.762,23.377c6.505,2.883,12.895,5.537,19.109,7.924
			c19.921,7.688,40.271,13.803,60.932,18.324c38.263,8.209,74.62,9.451,109.041,3.678c21.486-3.492,38.905-7.857,52.191-13.1
			c6.502-2.596,12.535-5.412,18.125-8.525c0.458-0.252,0.912-0.502,1.327-0.795c5.317-3.021,10.212-6.344,14.708-9.9
			 M304.806,99.995c-0.205,0.792-0.322,1.588-0.534,2.385c-0.339,1.582-0.904,2.627-1.6,3.182
			c-10.555,8.019-20.248,13.722-29.144,17.143c-6.772,2.574-16.565,4.939-29.367,7.088c-17.448,2.851-35.771,3.097-55.067,0.631
			c-16.45-2.176-33.45-6.236-51.03-12.238c-11.662-4.029-23.212-8.762-34.639-14.377"/>
		
			<line fill="none" stroke="#00499C" stroke-width="10.0497" stroke-linecap="round" stroke-miterlimit="10" x1="98.735" y1="101.73" x2="68.933" y2="84.527"/>
	</g>
</g>
<path fill="#00499C" d="M361.325,190.638c-1.341,0.297-2.519,0.609-3.514,1.105c-1.731,0.814-2.932,1.924-3.649,3.447l3.92,5.096
	c3.376,0.229,5.909,0.279,7.684,0.27c0.631,0.021,1.205-0.008,1.734-0.061c2.212,1.367,4.041,2.43,5.391,3.143
	c0.865,0.48,1.705,0.824,2.407,1.123c0.127,0.141,0.207,0.232,0.244,0.357c2.048,1.102,4.18,2.125,6.5,3.15
	c1.043,0.494,2.137,1.027,3.314,1.561c5.505,2.355,11.466,4.645,17.876,6.676c16.1,5.312,33.452,5.041,51.948-0.752
	c2.485-0.744,4.964-1.582,7.306-2.463c2.253-0.799,4.381-1.646,6.506-2.586c0.058-0.045,0.096-0.076,0.188-0.168
	c1.191-0.842,2.279-1.42,3.186-1.738c0-0.09-0.035-0.223-0.041-0.314c2.054-1.209,4.012-2.42,5.936-3.766l-6.814-7.379
	c-1.284,0.922-2.562,1.752-3.839,2.514c-0.716,0.053-1.443,0.385-2.214,0.84c-0.679,0.461-1.231,0.789-1.69,1.133l-0.039-0.041
	l-1.644,1.08c-0.313,0.121-0.676,0.287-1.039,0.361c-2.156,0.711-4.227,1.246-6.208,1.801c-6.302,1.959-12.492,3.225-18.517,3.914
	c-6.079,0.738-13.668,0.57-22.79-0.42c-5.078-0.875-10.055-2.1-15.013-3.77c-3.426-1.104-6.797-2.357-10.117-3.828
	c-4.323-1.904-8.633-4.17-12.929-6.789c-0.304-0.145-0.608-0.291-0.905-0.52c-1.623-0.91-3.178-1.949-4.684-3.121
	c-0.04-0.051-0.131-0.141-0.176-0.189l-0.125,0.043c-0.262-0.189-0.567-0.426-0.825-0.615c0.041,0.223,0.12,0.41,0.198,0.592
	c-1.515,0.117-3.873,0.238-7.036,0.33C361.674,190.743,361.492,190.728,361.325,190.638"/>
</svg>
