<?xml version="1.0" encoding="utf-8"?>
<!-- Generator: Adobe Illustrator 16.2.1, SVG Export Plug-In . SVG Version: 6.00 Build 0)  -->
<!DOCTYPE svg PUBLIC "-//W3C//DTD SVG 1.1//EN" "http://www.w3.org/Graphics/SVG/1.1/DTD/svg11.dtd">
<svg version="1.1" id="_x31_" xmlns="http://www.w3.org/2000/svg" xmlns:xlink="http://www.w3.org/1999/xlink" x="0px" y="0px"
	 width="1123.104px" height="794.541px" viewBox="0 0 1123.104 794.541" enable-background="new 0 0 1123.104 794.541"
	 xml:space="preserve">
<g>
	<defs>
		<path id="SVGID_1_" d="M0,83.083v734.138c482.388-125.451,1123.104-22.68,1123.104-22.68V71.743
			C1123.104,71.743,495.199-97.409,0,83.083z"/>
	</defs>
	<clipPath id="SVGID_2_">
		<use xlink:href="#SVGID_1_"  overflow="visible"/>
	</clipPath>
	<path clip-path="url(#SVGID_2_)" fill="#00398A" d="M901.261,550.83c-0.298,0.41-0.651,0.791-0.996,1.167l0.298,0.236l0.938-1.199
		L901.261,550.83z"/>
	<path clip-path="url(#SVGID_2_)" fill="#00398A" d="M900.265,551.997c0.345-0.376,0.7-0.754,0.996-1.167l-0.875-0.622l-0.916,1.148
		L900.265,551.997z"/>
	
		<line clip-path="url(#SVGID_2_)" fill="none" stroke="#00499C" stroke-width="10.0041" stroke-linecap="round" stroke-miterlimit="10" x1="636.759" y1="534.343" x2="603.167" y2="527.624"/>
	<path clip-path="url(#SVGID_2_)" fill="#009FE8" d="M571.865,398.966c-97.106,21.832-148.878,33.679-155.38,35.433
		c-31.733,8.804-53.508,19.899-65.394,33.324c-6.085,6.846-11.865,16.211-17.319,28.025c-3.673,7.916-9.279,21.921-16.806,42.084
		c-20.542,54.298-41.15,102.818-61.821,145.573c-18.675,38.654-27.618,77.458-26.72,116.323c0.8,36.212,9.915,68.915,27.333,98.02
		c17.027,28.568,39.721,49.887,68.075,63.932c29.617,14.649,61.578,19.249,95.847,13.952
		c175.103-27.075,294.514-72.565,358.256-136.615c3.192-3.237,6.257-6.442,9.183-9.736c22.864-28.486,36.805-57.789,41.852-87.782
		c3.842-28.117,0.102-58.106-11.172-90.117c-17.069-48.587-48.872-96.807-95.263-144.57c-8.167-8.422-16.779-16.789-25.843-25.172
		c-8.46-7.83-16.958-15.25-25.461-22.22c-15.487-12.839-30.993-24.238-46.394-34.232
		C602.367,410.517,584.764,401.812,571.865,398.966"/>
	
		<path clip-path="url(#SVGID_2_)" fill="none" stroke="#00499C" stroke-width="10.075" stroke-linecap="round" stroke-miterlimit="10" d="
		M349.898,462.832c-6.155,6.857-12.095,16.333-17.854,28.494c-4.164,8.817-9.9,23.05-17.347,42.799
		c-21.375,54.315-42.342,101.959-62.865,142.987c-20.442,40.868-30.198,80.853-29.266,119.841
		c0.989,38.956,10.382,73.217,28.227,102.736c17.33,28.948,40.543,50.511,69.648,64.7c30.276,14.724,63.092,19.366,98.296,13.888
		c69.334-10.802,130.035-24.302,181.969-40.493c50.739-15.808,92.781-34.043,126.256-54.742c10.912-6.8,19.711-12.514,26.284-17.279
		c8.756-6.368,16.021-12.482,21.821-18.461c6.577-6.781,12.516-13.461,17.853-19.974c23.126-28.49,36.796-57.334,40.931-86.57
		c4.419-26.899-1.792-60.671-18.49-101.292c-16.685-40.571-35.205-72.902-55.689-97.005c-20.491-24.089-35.571-40.93-45.36-50.562
		c-10.116-9.932-23.425-21.897-39.98-35.82c-17.039-14.32-34.81-26.435-53.206-36.432c-18.37-9.884-34.125-18.744-47.341-26.57
		c-97.776,22.006-149.985,33.895-156.675,35.688C384.581,437.782,362.172,449.177,349.898,462.832z"/>
	<path clip-path="url(#SVGID_2_)" fill="#009FE8" d="M661.109,224.532c-8.635-16.495-18.562-29.726-29.78-39.634
		c-14.88-13.059-32.71-20.865-53.509-23.347c-0.479-0.069-1.015-0.124-1.552-0.183c-1.939-0.211-3.942-0.408-5.992-0.527
		c-1.713-0.079-3.421-0.161-5.179-0.16c0.247-1.037,0.501-2.082,0.695-3.106c0.104-0.351,0.134-0.745,0.228-1.099
		c0.019-0.199,0.028-0.401,0.116-0.617c1.341-8.081,0.827-16.342-1.516-24.645l-0.046-0.181l-0.032-0.123
		c-0.108-0.164-0.169-0.409-0.218-0.592c-0.11-0.425-0.205-0.794-0.388-1.202c-4.982-16.01-15.382-27.756-31.181-35.308
		c-15.745-7.565-32.21-8.569-49.457-3.124c-17.165,5.549-30.029,15.903-38.531,31.049c-3.26,5.722-5.515,11.574-6.796,17.437
		c-4.282-3.704-9.214-6.918-14.78-9.573c-15.74-7.565-32.197-8.566-49.456-3.124c-10.979,3.554-20.211,9.07-27.701,16.602
		c-4.176,4.207-7.744,9.035-10.832,14.448c-7.627,13.487-9.886,27.335-6.73,41.546c-0.012,0.202,0.02,0.319,0.067,0.506
		c0.349,1.598,0.837,3.229,1.321,4.859c2.126,6.67,5.15,12.583,9.102,17.808c0.079,0.041,0.11,0.164,0.203,0.265
		c0.104,0.167,0.256,0.26,0.365,0.429c0.114,0.166,0.144,0.287,0.25,0.453c0.423,0.865,0.185,1.975-0.853,3.216
		c-0.052,0.076-0.149,0.169-0.201,0.245c-0.157,0.17-0.303,0.342-0.451,0.511c-0.907,0.56-1.851,1.132-2.938,1.733
		c-0.856,0.421-1.771,0.914-2.751,1.428c-1.091,0.545-2.317,1.124-3.571,1.767c-0.18,0.047-0.305,0.081-0.47,0.191
		c-26.287,12.271-46.699,25.363-61.175,39.259c-0.386,0.292-0.755,0.651-1.11,1.004c-16.989,16.561-27.372,36.222-31.041,58.96
		l-1.309,23.824l5.603,34.967l2.979,10.479c1.271,4.159,2.636,8.427,4.2,12.703c1.831,5.052,3.992,9.893,6.485,14.511
		c4.61,8.757,10.348,16.837,17.232,24.35c4.271,4.688,8.922,9.078,14.105,13.268c17.22,14.003,38.186,24.381,62.883,31.125
		c7.216,1.966,14.595,3.566,22.015,4.83l68.273,2.48c24.933-2.423,50.521-8.333,76.845-17.69l109.911-67.099
		c9.687-9.532,18.411-19.792,26.281-30.872c0.343-0.414,0.623-0.871,0.9-1.269c14.475-20.468,23.907-41.32,28.2-62.652
		c3.043-14.643,3.482-28.738,1.441-42.384l-2.631-13.176c-0.807-2.854-1.683-5.748-2.68-8.61
		C671.522,247.136,666.592,235.142,661.109,224.532"/>
	
		<path clip-path="url(#SVGID_2_)" fill="none" stroke="#00499C" stroke-width="10.075" stroke-linecap="round" stroke-miterlimit="10" d="
		M683.466,269.146c-2.069-8.503-5.46-17.834-10.167-27.933c-3.372-7.257-6.26-13.143-8.591-17.613
		c-0.919-1.78-1.765-3.312-2.49-4.617l-11.214-18.634l-12.697-14.657c-1.298-1.225-3.37-2.97-6.305-5.261
		c-3.642-2.766-6.829-5.002-9.549-6.7c-8.097-4.922-15.478-8.543-22-10.887c-10.549-3.836-21.317-5.205-32.438-4.217
		c3.104-2.817,4.213-8.567,3.246-17.103c-0.971-8.526-2.727-15.811-5.139-21.821c-2.4-6.014-6.001-11.387-10.81-16.127
		c-4.815-4.795-10.976-8.992-18.443-12.714c-7.471-3.727-15.646-6.162-24.536-7.309c-5.022-0.588-10.071-0.773-15.206-0.481
		c-9.263,0.64-17.988,3.096-26.263,7.319c-6.475,3.173-12.203,7.132-17.292,11.829c-5.114,4.642-10.005,11.895-14.681,21.686
		l-2.185,10.906 M436.708,134.81c-4.175-4.836-8.205-8.084-11.981-9.837c-3.789-1.811-7.55-3.312-11.246-4.501
		c-3.684-1.189-8.766-1.958-15.195-2.181c-6.432-0.216-13.754,0.637-21.995,2.709c-8.252,2.068-14.9,4.763-19.96,8.092
		c-5.055,3.329-9.107,6.262-12,8.902c-2.911,2.574-5.829,5.864-8.684,9.919c-2.927,4.013-5.933,9.73-9.099,17.124
		c-3.099,7.368-4.474,15.075-4.14,23.182c0.323,8.049,1.556,15.013,3.691,20.771c2.141,5.749,5.513,10.476,10.107,14.162
		c-1.379,0.676-5.476,2.717-12.244,5.964c-6.831,3.266-12.336,6.121-16.575,8.585c-4.24,2.463-9.599,5.608-16.06,9.557
		c-6.529,3.904-13.471,9.02-20.758,15.261c-7.36,6.264-13.694,13.437-18.95,21.494c-5.283,8.004-9.686,16.625-13.232,25.801
		c-3.524,9.244-5.712,18.649-6.468,28.272c-0.468,5.453-0.539,10.938-0.337,16.543c0.398,9.532,1.416,18.951,3.123,28.331
		c1.551,8.509,3.641,16.817,6.264,24.913c2.924,9.063,6.79,17.689,11.608,26.003c4.998,8.525,10.767,16.467,17.303,23.878
		c6.147,6.924,12.992,13.021,20.451,18.183c6.8,4.679,13.796,8.845,20.988,12.51c8.799,4.555,17.891,8.317,27.371,11.255
		c8.911,2.764,18.032,4.829,27.284,6.144c6.482,0.918,16.167,1.661,29.151,2.264l46.787-0.343
		c8.197-0.235,16.224-1.404,24.075-3.502l41.697-11.257c4.206-1.09,10.184-3.614,17.865-7.619l47.645-29.244
		c5.768-3.577,11.575-7.033,17.46-10.439c8.522-5.008,16.813-10.405,25.026-16.117c8.08-5.729,15.54-12.088,22.454-19.018
		c5.896-5.884,11.354-12.173,16.386-18.877c1.62-2.041,3.38-4.779,5.385-8.094c2.001-3.312,4.791-8.13,8.389-14.329
		c3.527-6.179,6.648-12.974,9.238-20.279c2.586-7.368,4.987-15.411,7.102-24.089c2.111-8.673,3.013-17.754,2.806-27.324
		c-0.217-9.633-1.559-19.107-3.975-28.436"/>
	<path clip-path="url(#SVGID_2_)" fill="#FFFFFF" d="M563.938,129.114c-4.989-16.007-15.371-27.759-31.176-35.309
		c-15.755-7.563-32.213-8.563-49.462-3.123c-17.165,5.549-30.03,15.908-38.533,31.049c-3.258,5.727-5.522,11.576-6.794,17.438
		c-4.281-3.7-9.214-6.917-14.778-9.573c-15.742-7.563-32.199-8.567-49.462-3.124c-17.161,5.554-30.026,15.907-38.529,31.055
		c-8.612,15.171-10.347,30.839-5.342,46.907c5.145,16.102,15.555,27.91,31.348,35.393c15.792,7.485,32.311,8.474,49.505,3.048
		c17.13-5.406,30-15.768,38.479-30.972c3.265-5.727,5.525-11.576,6.808-17.44c4.271,3.708,9.199,6.92,14.765,9.576
		c15.795,7.485,32.312,8.481,49.498,3.046c17.142-5.406,30.007-15.766,38.484-30.969
		C567.361,160.877,569.09,145.209,563.938,129.114"/>
	<path clip-path="url(#SVGID_2_)" fill="#0E0000" d="M633.449,287.898c10.662,4.457,18.934,8.69,24.807,12.569
		c-55.191-22.651-124.105-20.8-206.827,5.498c-25.845,8.259-51.544,18.489-77.133,30.645l-30.521,15.844
		c72.296-61.003,146.369-87.992,222.287-80.989C589.811,273.706,612.22,279.151,633.449,287.898"/>
	<path clip-path="url(#SVGID_2_)" fill="#009FE8" d="M571.865,398.966c-97.106,21.832-148.878,33.679-155.38,35.433
		c-31.733,8.804-53.508,19.899-65.394,33.324c-6.085,6.846-11.865,16.211-17.319,28.025c-3.673,7.916-9.279,21.921-16.806,42.084
		c-20.542,54.298-41.15,102.818-61.821,145.573c-18.675,38.654-27.618,77.458-26.72,116.323c0.8,36.212,9.915,68.915,27.333,98.02
		c17.027,28.568,39.721,49.887,68.075,63.932c29.617,14.649,61.578,19.249,95.847,13.952
		c175.103-27.075,294.514-72.565,358.256-136.615c52.157-52.476,65.437-114.974,39.862-187.636
		c-20.082-57.177-60.477-113.708-121.105-169.743c-24.014-22.141-48.009-40.969-71.854-56.452
		C602.367,410.517,584.764,401.812,571.865,398.966"/>
	
		<polyline clip-path="url(#SVGID_2_)" fill="none" stroke="#3E3A39" stroke-width="7.0655" stroke-linecap="round" stroke-linejoin="round" stroke-miterlimit="10" points="
		360.328,159.267 415.669,173.167 376.145,204.471 	"/>
	
		<polyline clip-path="url(#SVGID_2_)" fill="none" stroke="#3E3A39" stroke-width="7.0655" stroke-linecap="round" stroke-linejoin="round" stroke-miterlimit="10" points="
		525.04,116.608 483.403,155.624 533.152,163.809 	"/>
	<path clip-path="url(#SVGID_2_)" fill="#FFFFFF" d="M539.359,198.65c0,0,9.694,5.706,18.034,22.034
		c8.333,16.33,22.585,47.563,48.47,28.534C631.748,230.188,584.068,180.909,539.359,198.65z"/>
</g>
<g display="none">
	
		<path display="inline" fill="none" stroke="#727171" stroke-width="5.5692" stroke-linecap="round" stroke-linejoin="round" stroke-miterlimit="10" d="
		M752.975,231.991c0,0,98.853,13.923,132.964,91.892"/>
	
		<path display="inline" fill="none" stroke="#727171" stroke-width="5.5692" stroke-linecap="round" stroke-linejoin="round" stroke-miterlimit="10" d="
		M743.924,257.053c0,0,75.881,9.05,112.776,62.653"/>
	
		<path display="inline" fill="none" stroke="#727171" stroke-width="5.5692" stroke-linecap="round" stroke-linejoin="round" stroke-miterlimit="10" d="
		M741.062,280.983c0,0,55.114,2.107,90.634,46.814"/>
</g>
</svg>
