<?xml version="1.0" encoding="utf-8"?>
<!-- Generator: Adobe Illustrator 16.2.1, SVG Export Plug-In . SVG Version: 6.00 Build 0)  -->
<!DOCTYPE svg PUBLIC "-//W3C//DTD SVG 1.1//EN" "http://www.w3.org/Graphics/SVG/1.1/DTD/svg11.dtd">
<svg version="1.1" xmlns="http://www.w3.org/2000/svg" xmlns:xlink="http://www.w3.org/1999/xlink" x="0px" y="0px" width="952px"
	 height="1148px" viewBox="0 0 952 1148" enable-background="new 0 0 952 1148" xml:space="preserve">
<g id="base">
</g>
<g id="book3">
</g>
<g id="_x38_" display="none">
</g>
<g id="_x37_" display="none">
</g>
<g id="_x36_" display="none">
</g>
<g id="_x35_" display="none">
</g>
<g id="_x34_" display="none">
</g>
<g id="_x33_" display="none">
</g>
<g id="_x32_" display="none">
</g>
<g id="_x31_">
	<path fill="#00398A" d="M781.741,504.513c-0.298,0.409-0.651,0.791-0.996,1.167l0.298,0.235l0.938-1.199L781.741,504.513z"/>
	<path fill="#00398A" d="M780.745,505.68c0.345-0.376,0.7-0.754,0.996-1.167l-0.875-0.623l-0.916,1.148L780.745,505.68z"/>
	
		<line fill="none" stroke="#00499C" stroke-width="10.0041" stroke-linecap="round" stroke-miterlimit="10" x1="517.239" y1="488.025" x2="483.647" y2="481.306"/>
	<path fill="#009FE8" d="M452.346,352.648c-97.106,21.832-148.878,33.679-155.38,35.433c-31.733,8.804-53.508,19.899-65.394,33.324
		c-6.085,6.846-11.865,16.211-17.319,28.025c-3.673,7.915-9.279,21.921-16.806,42.084c-20.542,54.298-41.15,102.818-61.821,145.573
		c-18.675,38.654-27.618,77.458-26.72,116.323c0.8,36.212,9.914,68.915,27.332,98.02c17.027,28.568,39.721,49.887,68.075,63.932
		c29.617,14.649,61.578,19.249,95.847,13.952c175.103-27.075,294.514-72.565,358.256-136.615c3.192-3.237,6.257-6.442,9.183-9.736
		c22.864-28.486,36.805-57.789,41.852-87.782c3.842-28.117,0.102-58.106-11.172-90.117c-17.069-48.587-48.872-96.807-95.263-144.57
		c-8.167-8.422-16.779-16.789-25.843-25.172c-8.46-7.83-16.958-15.25-25.461-22.221c-15.487-12.839-30.993-24.238-46.394-34.232
		C482.848,364.2,465.244,355.494,452.346,352.648"/>
	<path fill="none" stroke="#00499C" stroke-width="10.075" stroke-linecap="round" stroke-miterlimit="10" d="M230.379,416.515
		c-6.155,6.857-12.095,16.333-17.854,28.494c-4.164,8.816-9.9,23.049-17.347,42.799c-21.375,54.314-42.342,101.959-62.865,142.986
		c-20.441,40.868-30.197,80.853-29.266,119.841c0.988,38.956,10.381,73.217,28.227,102.736c17.33,28.948,40.543,50.511,69.648,64.7
		c30.276,14.724,63.092,19.366,98.296,13.888c69.334-10.802,130.035-24.302,181.969-40.493
		c50.739-15.808,92.781-34.043,126.256-54.742c10.912-6.8,19.711-12.514,26.284-17.279c8.756-6.368,16.021-12.482,21.821-18.461
		c6.577-6.781,12.516-13.461,17.853-19.974c23.126-28.49,36.796-57.334,40.931-86.57c4.419-26.899-1.792-60.671-18.49-101.292
		c-16.685-40.57-35.205-72.902-55.689-97.005c-20.491-24.089-35.571-40.931-45.36-50.562c-10.116-9.932-23.425-21.897-39.98-35.82
		c-17.039-14.32-34.81-26.435-53.206-36.432c-18.37-9.885-34.125-18.744-47.341-26.57c-97.776,22.006-149.985,33.895-156.675,35.688
		C265.062,391.464,242.652,402.859,230.379,416.515z"/>
	<path fill="#009FE8" d="M589.542,793.811l0.126-0.023c0.962,0.558,12.418,20.532,34.255,60.026
		c22.288,40.289,33.647,60.741,34.095,61.29l16.105-0.493c37.065-9.018,68.65-11.974,94.718-8.825
		c12.623,1.507,25.208,5.135,37.811,10.832c5.792,2.643,11.409,7.637,16.967,14.964c5.497,7.345,8.314,13.657,8.518,18.961
		c0.285,8.501-5.177,16.658-16.428,24.509c-31.271,21.751-87.995,33.784-170.125,36.139c-41.057,1.21-79.001,0.185-113.752-3.027
		l-4.665-5.345c-0.483-0.724-0.919-1.526-1.375-2.396c-1.754-4.442-3.025-7.565-3.79-9.512c-1.529-3.722-6.166-30.104-14.066-79.197
		c-7.89-49.157-12.549-75.605-13.883-79.296l-0.019-0.067l95.435-38.584L589.542,793.811z"/>
	<path fill="none" stroke="#00499C" stroke-width="10.0548" stroke-linecap="round" stroke-miterlimit="10" d="M589.542,793.811
		l-0.074-0.045l-95.435,38.584l0.019,0.067c1.334,3.69,5.993,30.139,13.883,79.296c7.9,49.094,12.537,75.476,14.066,79.197
		c0.765,1.946,2.036,5.069,3.79,9.512c0.456,0.869,0.892,1.672,1.375,2.396l4.665,5.345c34.751,3.212,72.695,4.237,113.752,3.027
		c82.13-2.354,138.854-14.388,170.125-36.139c11.251-7.851,16.713-16.008,16.428-24.509c-0.203-5.304-3.021-11.616-8.518-18.961
		c-5.558-7.327-11.175-12.321-16.967-14.964c-12.603-5.697-25.188-9.325-37.811-10.832c-26.067-3.148-57.652-0.192-94.718,8.825
		l-16.105,0.493c-0.447-0.549-11.807-21.001-34.095-61.29c-21.837-39.494-33.293-59.469-34.255-60.026L589.542,793.811z"/>
	<path fill="#009FE8" d="M541.59,178.215c-8.635-16.496-18.562-29.727-29.78-39.635c-14.88-13.059-32.71-20.864-53.509-23.347
		c-0.479-0.069-1.015-0.124-1.552-0.183c-1.939-0.211-3.942-0.408-5.992-0.527c-1.713-0.079-3.421-0.16-5.179-0.16
		c0.247-1.037,0.501-2.081,0.695-3.105c0.104-0.352,0.134-0.745,0.228-1.099c0.019-0.199,0.028-0.401,0.116-0.617
		c1.341-8.081,0.827-16.342-1.516-24.645l-0.046-0.181l-0.032-0.123c-0.108-0.164-0.169-0.409-0.218-0.592
		c-0.11-0.426-0.205-0.795-0.388-1.203c-4.982-16.01-15.382-27.756-31.181-35.307c-15.745-7.566-32.21-8.57-49.457-3.125
		c-17.165,5.549-30.029,15.903-38.531,31.05c-3.26,5.722-5.515,11.574-6.796,17.437c-4.282-3.703-9.214-6.918-14.78-9.572
		c-15.74-7.565-32.197-8.566-49.456-3.124c-10.979,3.554-20.211,9.069-27.701,16.602c-4.176,4.206-7.744,9.034-10.832,14.448
		c-7.627,13.487-9.886,27.336-6.73,41.547c-0.012,0.201,0.02,0.318,0.067,0.506c0.349,1.598,0.837,3.229,1.321,4.859
		c2.126,6.67,5.15,12.582,9.102,17.809c0.079,0.041,0.11,0.163,0.203,0.265c0.104,0.167,0.256,0.261,0.365,0.429
		c0.114,0.166,0.144,0.287,0.25,0.453c0.423,0.865,0.185,1.975-0.853,3.216c-0.052,0.075-0.149,0.169-0.201,0.245
		c-0.157,0.17-0.303,0.342-0.451,0.51c-0.907,0.561-1.851,1.133-2.938,1.734c-0.856,0.42-1.771,0.914-2.751,1.428
		c-1.091,0.545-2.317,1.123-3.571,1.767c-0.18,0.048-0.305,0.081-0.47,0.191c-26.287,12.271-46.699,25.363-61.175,39.259
		c-0.386,0.293-0.755,0.651-1.11,1.004c-16.989,16.561-27.372,36.223-31.041,58.961l-1.309,23.824l5.603,34.967l2.979,10.479
		c1.271,4.159,2.636,8.427,4.2,12.702c1.831,5.053,3.992,9.894,6.485,14.512c4.61,8.758,10.348,16.838,17.232,24.35
		c4.271,4.688,8.922,9.078,14.105,13.269c17.22,14.003,38.186,24.381,62.883,31.125c7.216,1.966,14.595,3.566,22.015,4.829
		l68.273,2.48c24.933-2.423,50.521-8.332,76.845-17.689l109.911-67.1c9.687-9.532,18.411-19.792,26.281-30.872
		c0.343-0.414,0.623-0.871,0.9-1.268c14.475-20.469,23.907-41.32,28.2-62.652c3.043-14.643,3.482-28.738,1.441-42.385l-2.631-13.176
		c-0.807-2.854-1.683-5.748-2.68-8.609C552.003,200.818,547.072,188.824,541.59,178.215"/>
	<path fill="none" stroke="#00499C" stroke-width="10.075" stroke-linecap="round" stroke-miterlimit="10" d="M563.946,222.828
		c-2.069-8.503-5.46-17.834-10.167-27.933c-3.372-7.257-6.26-13.144-8.591-17.613c-0.919-1.78-1.765-3.312-2.49-4.616
		l-11.214-18.635l-12.697-14.656c-1.298-1.225-3.37-2.971-6.305-5.262c-3.642-2.766-6.829-5.002-9.549-6.7
		c-8.097-4.923-15.478-8.543-22-10.887c-10.549-3.836-21.317-5.204-32.438-4.217c3.104-2.817,4.213-8.567,3.246-17.103
		c-0.971-8.527-2.727-15.811-5.139-21.822c-2.4-6.014-6.001-11.387-10.81-16.127c-4.815-4.795-10.976-8.992-18.443-12.715
		c-7.471-3.727-15.646-6.161-24.536-7.309c-5.022-0.588-10.071-0.773-15.206-0.481c-9.263,0.64-17.988,3.097-26.263,7.319
		c-6.475,3.172-12.203,7.132-17.292,11.828c-5.114,4.643-10.005,11.895-14.681,21.686l-2.185,10.906 M317.188,88.492
		c-4.175-4.836-8.205-8.084-11.981-9.837c-3.789-1.812-7.55-3.312-11.246-4.501c-3.684-1.189-8.766-1.959-15.195-2.182
		c-6.432-0.216-13.754,0.637-21.995,2.709c-8.252,2.068-14.9,4.764-19.96,8.093c-5.055,3.329-9.107,6.263-12,8.902
		c-2.911,2.573-5.829,5.864-8.684,9.919c-2.927,4.013-5.933,9.73-9.099,17.124c-3.099,7.368-4.474,15.075-4.14,23.183
		c0.323,8.049,1.556,15.013,3.691,20.771c2.141,5.748,5.513,10.476,10.107,14.161c-1.379,0.677-5.476,2.717-12.244,5.964
		c-6.831,3.266-12.336,6.121-16.575,8.586c-4.24,2.463-9.599,5.607-16.06,9.557c-6.529,3.904-13.471,9.02-20.758,15.262
		c-7.36,6.264-13.694,13.438-18.95,21.494c-5.283,8.004-9.686,16.625-13.231,25.801c-3.525,9.244-5.713,18.648-6.469,28.271
		c-0.469,5.453-0.539,10.939-0.338,16.544c0.398,9.532,1.416,18.951,3.123,28.331c1.551,8.509,3.641,16.816,6.264,24.913
		c2.924,9.062,6.79,17.689,11.608,26.002c4.998,8.525,10.767,16.468,17.303,23.879c6.147,6.924,12.992,13.021,20.451,18.184
		c6.8,4.678,13.796,8.845,20.988,12.51c8.799,4.555,17.891,8.316,27.371,11.255c8.911,2.764,18.032,4.829,27.284,6.144
		c6.482,0.919,16.167,1.661,29.151,2.265l46.787-0.343c8.197-0.236,16.224-1.404,24.075-3.503l41.697-11.257
		c4.206-1.09,10.184-3.613,17.865-7.619l47.645-29.244c5.768-3.576,11.575-7.033,17.46-10.439
		c8.522-5.008,16.813-10.404,25.026-16.116c8.08-5.729,15.54-12.089,22.454-19.018c5.896-5.884,11.354-12.174,16.386-18.877
		c1.62-2.041,3.38-4.779,5.385-8.094c2.001-3.312,4.791-8.131,8.389-14.329c3.527-6.179,6.648-12.974,9.238-20.278
		c2.586-7.369,4.987-15.412,7.102-24.09c2.111-8.672,3.013-17.754,2.806-27.323c-0.217-9.633-1.559-19.106-3.975-28.437"/>
	<path fill="#FFFFFF" d="M444.418,82.797c-4.989-16.008-15.371-27.76-31.176-35.309c-15.755-7.563-32.213-8.563-49.462-3.123
		c-17.165,5.549-30.03,15.908-38.533,31.049c-3.258,5.727-5.522,11.576-6.794,17.438c-4.281-3.7-9.214-6.917-14.778-9.573
		c-15.742-7.562-32.199-8.567-49.462-3.124c-17.161,5.554-30.026,15.907-38.529,31.055c-8.612,15.171-10.347,30.839-5.342,46.907
		c5.145,16.102,15.555,27.909,31.348,35.393c15.792,7.484,32.311,8.474,49.505,3.049c17.13-5.406,30-15.769,38.479-30.973
		c3.265-5.727,5.525-11.575,6.808-17.439c4.271,3.707,9.199,6.92,14.765,9.576c15.795,7.484,32.312,8.481,49.498,3.046
		c17.142-5.405,30.007-15.766,38.484-30.97C447.842,114.56,449.57,98.892,444.418,82.797"/>
	<path fill="#0E0000" d="M513.93,241.58c10.662,4.457,18.934,8.691,24.807,12.57c-55.191-22.652-124.105-20.801-206.827,5.497
		c-25.845,8.259-51.544,18.489-77.133,30.645l-30.521,15.844c72.296-61.003,146.369-87.992,222.287-80.989
		C470.291,227.389,492.7,232.834,513.93,241.58"/>
	<path fill="#009FE8" d="M447.791,861.218l0.121-0.03c0.991,0.52,13.173,20.124,36.459,58.896
		c23.749,39.551,35.863,59.636,36.323,60.169l16.111-1.077c36.805-10.349,68.336-14.445,94.545-12.21
		c12.699,1.056,25.435,4.245,38.252,9.509c5.895,2.432,11.705,7.231,17.521,14.367c5.765,7.167,8.821,13.397,9.222,18.69
		c0.587,8.501-4.591,16.861-15.59,25.127c-30.541,22.904-86.928,36.974-169.08,42.268c-41.076,2.666-79.111,3.002-114.038,1.01
		l-4.857-5.18c-0.509-0.707-0.979-1.495-1.467-2.35c-1.909-4.369-3.304-7.463-4.128-9.395c-1.667-3.668-7.257-29.924-16.907-78.81
		c-9.66-48.944-15.282-75.266-16.745-78.912l-0.02-0.069l94.198-42.053L447.791,861.218z"/>
	<path fill="none" stroke="#00499C" stroke-width="10.075" stroke-linecap="round" stroke-miterlimit="10" d="M447.791,861.218
		l-0.079-0.049l-94.198,42.053l0.02,0.069c1.463,3.646,7.085,29.968,16.745,78.912c9.65,48.886,15.24,75.142,16.907,78.81
		c0.824,1.932,2.219,5.025,4.128,9.395c0.487,0.854,0.958,1.643,1.467,2.35l4.857,5.18c34.927,1.992,72.962,1.656,114.038-1.01
		c82.152-5.294,138.539-19.363,169.08-42.268c10.999-8.266,16.177-16.626,15.59-25.127c-0.4-5.293-3.457-11.523-9.222-18.69
		c-5.816-7.136-11.627-11.936-17.521-14.367c-12.817-5.264-25.553-8.453-38.252-9.509c-26.209-2.235-57.74,1.861-94.545,12.21
		l-16.111,1.077c-0.46-0.533-12.574-20.618-36.323-60.169c-23.286-38.772-35.468-58.377-36.459-58.896L447.791,861.218z"/>
	<path fill="#009FE8" d="M452.346,352.648c-97.106,21.832-148.878,33.679-155.38,35.433c-31.733,8.804-53.508,19.899-65.394,33.324
		c-6.085,6.846-11.865,16.211-17.319,28.025c-3.673,7.915-9.279,21.921-16.806,42.084c-20.542,54.298-41.15,102.818-61.821,145.573
		c-18.675,38.654-27.618,77.458-26.72,116.323c0.8,36.212,9.914,68.915,27.332,98.02c17.027,28.568,39.721,49.887,68.075,63.932
		c29.617,14.649,61.578,19.249,95.847,13.952c175.103-27.075,294.514-72.565,358.256-136.615
		c52.157-52.476,65.437-114.974,39.862-187.636c-20.082-57.178-60.477-113.708-121.105-169.742
		c-24.014-22.142-48.009-40.969-71.854-56.453C482.848,364.2,465.244,355.494,452.346,352.648"/>
	
		<polyline fill="none" stroke="#3E3A39" stroke-width="7.0655" stroke-linecap="round" stroke-linejoin="round" stroke-miterlimit="10" points="
		240.809,112.949 296.149,126.85 256.625,158.154 	"/>
	
		<polyline fill="none" stroke="#3E3A39" stroke-width="7.0655" stroke-linecap="round" stroke-linejoin="round" stroke-miterlimit="10" points="
		405.521,70.291 363.884,109.307 413.633,117.491 	"/>
	<path fill="#FFFFFF" d="M419.84,152.333c0,0,9.694,5.706,18.034,22.034c8.333,16.329,22.585,47.562,48.47,28.533
		C512.229,183.87,464.549,134.592,419.84,152.333z"/>
	<path fill="none" d="M1075.054,789.996c0,5.5-4.5,10-10,10H-212.892c-5.5,0-10-4.5-10-10v-27.558V-79.443c0-5.5,4.5-10,10-10
		h1277.945c5.5,0,10,4.5,10,10v839.882V789.996z"/>
</g>
<g id="_x30_" display="none">
</g>
<g id="guide" display="none">
</g>
</svg>
