<?xml version="1.0" encoding="utf-8"?>
<!-- Generator: Adobe Illustrator 16.2.1, SVG Export Plug-In . SVG Version: 6.00 Build 0)  -->
<!DOCTYPE svg PUBLIC "-//W3C//DTD SVG 1.1//EN" "http://www.w3.org/Graphics/SVG/1.1/DTD/svg11.dtd">
<svg version="1.1" id="_x31_" xmlns="http://www.w3.org/2000/svg" xmlns:xlink="http://www.w3.org/1999/xlink" x="0px" y="0px"
	 width="1415.541px" height="1000.896px" viewBox="0 0 1415.541 1000.896" enable-background="new 0 0 1415.541 1000.896"
	 xml:space="preserve">
<g>
	<defs>
		<path id="SVGID_1_" d="M167.48,165.942V900.08c482.388-125.451,1123.104-22.68,1123.104-22.68V154.602
			C1290.585,154.602,662.68-14.55,167.48,165.942z"/>
	</defs>
	<clipPath id="SVGID_2_">
		<use xlink:href="#SVGID_1_"  overflow="visible"/>
	</clipPath>
	<g clip-path="url(#SVGID_2_)">
		<g>
			<g>
				<path fill="#009FE8" d="M989.946,515.061c1.403,9.961,3.659,19.663,6.839,29.096c2.855,8.752,5.277,13.708,7.191,14.897
					l38.064,44.351c10.846,5.574,21.524,9.899,31.906,12.937c6.307-1.762,13.025-2.729,20.343-2.943
					c4.459-0.196,8.628-1.058,12.689-2.617c20.143-7.812,39.63-9.43,58.465-4.78c0.283-0.13,0.508-0.282,0.74-0.454
					c12.414-8.39,21.279-18.232,26.495-29.489c4.892-10.657,4.814-17.822-0.234-21.501c-12.953-9.282-24.063-10.214-33.376-2.687
					c-2.618,2.203-5.852,5.777-9.708,10.873c-0.995,1.311-1.932,2.504-2.874,3.565c1.037-1.498,2.027-3.32,3.112-5.431
					c3.739-6.859,6.392-14.177,7.866-21.992c4.282-21.67-1.462-36.209-17.146-43.627c-7.971-4.85-16.329-0.367-25.114,13.509
					c-8.224,16.24-13.359,25.765-15.273,28.637c7.475-21.923,10.987-38.394,10.623-49.345c-0.554-18.18-9.758-29.121-27.7-32.787
					c-7.897-1.601-16.55,5.504-25.898,21.34c-8.563,14.635-12.403,24.94-11.446,30.875c-3.92-10.044-8.754-18.809-14.588-26.266
					c-9.065-11.44-18.116-15.884-27.227-13.293C990.701,471.656,986.099,487.384,989.946,515.061"/>
				<path fill="#009FE8" d="M1106.979,610.781c-4.062,1.559-8.23,2.421-12.688,2.622c-7.319,0.208-14.038,1.175-20.345,2.938
					c14.207,4.12,28.022,5.963,41.369,5.405c18.693-0.703,35.444-5.946,50.128-15.744
					C1146.609,601.352,1127.122,602.97,1106.979,610.781"/>
				<path fill="#009FE8" d="M1060.097,625.804l2.454,1.626c3.83-2.321,6.841-4.175,9.075-5.522c0.779-0.785,1.784-1.446,2.955-2.158
					c0.194,0.034,0.366-0.015,0.508-0.146c2.899-2.055,5.14-4.326,6.658-6.707l-6.488-4.179c-0.881,0.447-1.446,0.704-1.685,0.864
					c-0.072-0.251-0.091-0.476,0.004-0.784c0.291-0.406,0.536-0.845,0.72-1.318c-2.037,0.096-4.035,0.079-6.02,0.068
					c-2.325-3.197-2.841-6.542-1.573-10.052c-0.396-2-2.346-4.562-5.965-7.608c3.526-6.976,6.016-12.592,7.407-16.83
					c0.036-0.191-0.361-0.905-1.236-2.164c-0.655,0.285-1.024,0.438-1.084,0.407l-0.811,1.618c-1.363,3.03-3.976,7.81-7.786,14.274
					c-1.549-1.206-3.385-2.419-5.325-3.689c-3.719-2.456-11.688-7.167-23.838-14.017c0.438-1.458,1.024-4.49,1.892-9.074
					l-3.133-1.712c-0.106-1.625-0.33-3.174-0.644-4.693l-0.285,0.913l-4.179-1.353l-2.646,6.028l-0.114-0.055
					c0.015-0.278,0.003-0.786-0.006-1.431l-7.079-3.08c-0.332,0.745-2.168,3.727-5.444,8.928c-0.264,0.493-0.534,0.987-0.772,1.424
					c-0.275,0.64-0.624,1.659-1.092,3.042c-0.85,1.814-1.429,3.137-1.769,4.02l-0.735-0.33c-0.229,0.665-0.416,1.272-0.521,1.854
					c-0.089,0.167,0.066,0.533,0.49,1.191c0.609,0.98,1.03,2.555,1.2,4.72l-0.729,1.736l7.072,3.082l2.64-5.751l0.272,0.43
					c0.31,1.522,0.24,3.056-0.111,4.633c0.021,0.088-0.007,0.144,0.018,0.224c-1.125,3.236-1.934,5.648-2.442,7.221
					c-1.701,1.426-3.573,2.753-5.599,3.857c-0.687-0.167-1.435-0.361-2.103-0.578c-0.004,0.14-0.068,0.246-0.1,0.301
					c-0.537,1.772-0.609,6.081-0.185,13.009l6.861,3.601c0.903-1.646,2.244-4.112,4.011-7.354c1.533-2.8,2.744-5.271,3.58-7.451
					l0.278,0.791l-0.556,1.41l7.329,4.068c0.165,3.079,0.297,5.579,0.316,7.516c0.181,3.443,0.479,6.028,0.861,7.807l6.92,3.77
					c-0.309,1.479-0.487,2.449-0.471,2.949c-0.032,1.625,0.655,2.989,1.923,4.184l6.873,3.327c0.685-0.197,1.688-0.861,3.101-2.012
					c1.497-1.182,2.613-1.928,3.296-2.261l10.548,4.828l-0.827,1.899l1.752,0.965
					C1057.553,632.677,1058.289,629.237,1060.097,625.804 M1034.396,582.425l0.355,0.128c1.554,1.198,3.325,2.659,5.191,4.322
					c2.067,1.841,3.367,2.979,3.884,3.469l-0.875,1.74c-1.41-0.42-3.07-1.962-4.997-4.579
					C1036.915,586.152,1035.777,584.459,1034.396,582.425"/>
				<path fill="#00499C" d="M996.489,569c-0.164,0.413-0.252,0.584-0.28,0.632l5.845,2.48l0.739,0.33
					c0.343-0.884,0.921-2.207,1.77-4.016c0.47-1.388,0.818-2.407,1.088-3.045c-0.028-0.08,0.01-0.139,0.037-0.191
					c0.174-0.833-0.131-1.573-0.897-2.274c-0.563-0.523-0.858-1.034-0.92-1.43l0.026-0.195c-0.021-0.084,0.008-0.141-0.014-0.227
					c0.095-0.58-0.049-1.092-0.542-1.498l-0.451-0.47c-0.627-1.333-2.063-4.83-4.3-10.536c-2.261-5.651-4.154-11.962-5.661-18.981
					c-1.51-7.022-2.507-12.123-3.089-15.362c-0.537-3.069-0.795-5.989-0.809-8.707c0.08-5.506,0.547-10.387,1.508-14.64
					c0.181-1.109,0.413-2.189,0.654-3.276l-8.902-4.85c-1.127,4.014-1.757,8.581-1.979,13.809c-0.198,3.103-0.145,6.4,0.037,9.849
					l-0.231,0.308l-0.106,2.789c0.051,0.171,0.106,0.338,0.128,0.421l-0.079,0.027l-0.007,0.137
					c0.015,0.369,0.033,0.594,0.143,0.796l0.021,0.078c3.434,21.113,7.298,36.755,11.547,46.845c0.161,0.37,0.256,0.707,0.381,1.128
					c0.083,0.123,0.105,0.203,0.129,0.287c0.233,0.624,0.545,1.225,0.891,1.91c-0.059,0.109-0.129,0.216-0.188,0.324
					c0.106,0.062,0.252,0.066,0.398,0.077l-0.4,0.988c0.073,0.759,0.518,1.644,1.35,2.597c0.758,0.845,1.127,1.471,1.025,1.915
					c-0.131,0.638-0.264,0.996-0.375,1.077c-0.136-0.006-0.225,0.022-0.283,0.132L996.489,569z M986.819,511.786
					c-0.057-0.025-0.167-0.088-0.188-0.175C986.652,511.698,986.763,511.76,986.819,511.786"/>
				<path fill="#00499C" d="M1074.572,619.749c-1.161,0.716-2.167,1.378-2.946,2.156c-1.362,1.325-2.146,2.752-2.35,4.428
					l5.335,3.547c3.242-0.859,5.649-1.621,7.328-2.196c0.595-0.179,1.131-0.388,1.616-0.619c2.522,0.592,4.587,1.009,6.075,1.255
					c0.975,0.177,1.88,0.235,2.627,0.286c0.168,0.096,0.269,0.156,0.357,0.271c2.276,0.392,4.62,0.674,7.124,0.892
					c1.15,0.133,2.349,0.284,3.627,0.412c5.948,0.473,12.287,0.728,18.981,0.602c16.883-0.121,33.154-5.914,48.75-17.279
					c2.09-1.489,4.172-3.064,6.096-4.641c1.885-1.474,3.61-2.952,5.317-4.513c0.031-0.049,0.061-0.109,0.117-0.22
					c0.866-1.17,1.7-2.063,2.45-2.653c-0.025-0.083-0.107-0.197-0.131-0.287c1.545-1.791,3.01-3.554,4.402-5.438l-8.793-4.793
					c-0.91,1.28-1.843,2.479-2.811,3.593c-0.661,0.288-1.232,0.823-1.817,1.502c-0.495,0.65-0.906,1.14-1.235,1.607l-0.055-0.032
					l-1.204,1.551c-0.255,0.217-0.55,0.486-0.859,0.667c-1.81,1.368-3.587,2.537-5.292,3.673
					c-5.307,3.871-10.738,7.032-16.203,9.607c-5.5,2.625-12.714,4.887-21.631,6.864c-5.062,0.791-10.144,1.228-15.352,1.231
					c-3.59,0.041-7.159-0.059-10.764-0.381c-4.684-0.425-9.466-1.179-14.352-2.286c-0.335-0.033-0.669-0.072-1.024-0.199
					c-1.815-0.348-3.609-0.829-5.403-1.452c-0.061-0.033-0.168-0.1-0.227-0.119l-0.119,0.075c-0.304-0.091-0.659-0.22-0.965-0.314
					c0.11,0.197,0.243,0.341,0.38,0.49c-1.396,0.597-3.583,1.466-6.535,2.566C1074.947,619.732,1074.775,619.781,1074.572,619.749"
					/>
				<path fill="#00499C" d="M1156.575,538.965c-0.034,0.06-0.065,0.113-0.091,0.165c-1.886,8.026-4.621,15.65-8.381,22.925
					c-1.149,2.226-2.254,4.26-3.332,6.095c0.325-0.184,1.899-2.173,4.92-6.006c3.021-3.838,6.08-7.088,9.252-9.772
					c2.166-1.738,3.884-2.937,5.244-3.479c0.605-0.314,1.757-0.741,3.518-1.214c0.093-0.029,0.256-0.071,0.338-0.104l0.055,0.035
					c0.76-0.082,1.552-0.226,2.346-0.366l1.472,0.031c0.063,0.021,0.063,0.021,0.113,0.054c0.139,0.007,0.282,0.013,0.391-0.068
					l0.056,0.031l0.05,0.031c0.059,0.031,0.059,0.031,0.114,0.058c0.063,0.033,0.063,0.033,0.112,0.061
					c4.431,0.494,8.062,1.551,10.911,3.108c0.713,0.391,1.107,0.603,1.235,0.741c0.592,0.611,2.717,2.201,6.485,4.825l0.029,0.088
					l0.045,0.028c1.615,1.23,2.703,2.891,3.217,4.95c0.027,0.086-0.002,0.148,0.02,0.231c0.058,3.024-0.623,6.355-2.042,9.999
					c-0.606,1.383-1.298,2.646-2.014,3.819c-3.313,5.948-6.7,11.231-10.081,15.729l8.796,4.797
					c5.014-6.595,8.979-13.336,11.942-20.334c1.921-4.575,3.035-8.819,3.285-12.808c-0.837-2.248-1.59-4.795-2.301-7.536
					c-0.988-1.318-2.08-2.841-3.333-4.592c-0.295-0.376-0.56-0.808-0.8-1.149c-2.022-1.892-4.543-3.69-7.468-5.224
					c-9.675-5.134-17.4-6.78-23.281-5.006l-0.054-0.027c-0.202,0.099-1.362,0.535-3.521,1.352c-0.452,0.178-0.909,0.362-1.279,0.512
					c0.033-0.049,0.065-0.11,0.091-0.163c0.066-0.249,0.456-0.962,1.143-2.085c0.297-0.556,0.535-0.987,0.715-1.317
					c0.035-0.053,0.091-0.164,0.098-0.306c0.096-0.304,0.3-0.686,0.522-1.209c0.03-0.196,0.093-0.441,0.187-0.612
					c0.098-0.303,0.221-0.666,0.464-1.098c2.493-23.502-4.488-39.428-21.079-47.694c-9.165-5.501-17.572-4.46-25.146,3.017
					c0.018-2.91-0.039-5.791-0.301-8.58l-0.031-0.077c-2.028-18.993-11.676-30.171-28.843-33.56
					c-17.394-3.505-30.279,3.647-38.719,21.326c-3.422,7.191-6.229,13.636-8.363,19.24c-2.344-4.699-5.397-9.436-9.109-14.235
					c-8.585-11.029-19.996-14.405-34.075-10.13c-8.945,2.4-14.882,8.844-17.799,19.285l8.89,4.855
					c1.837-7.408,5.475-12.116,11.062-14.126l0.05,0.032c0.478-0.097,1.019-0.298,1.502-0.535c0.062,0.024,0.062,0.024,0.082-0.026
					c3.543-1.271,7.05-1.425,10.6-0.487c4.664,0.979,8.741,3.703,12.245,8.111c0.239,0.342,0.471,0.683,0.72,0.897
					c1.155,1.27,2.377,2.705,3.562,4.435c5.887,7.626,10.649,16.774,14.41,27.523c-0.951-6.358,2.867-17.668,11.438-34.012
					c0.709-1.179,1.371-2.393,2-3.538c0.457-0.962,0.849-1.958,1.303-2.925c2.453-4.998,5.301-8.791,8.615-11.471
					c4.833-5.196,9.448-7.381,13.81-6.636c8.213,1.279,14.628,4.415,19.189,9.341c4.251,4.1,6.794,9.893,7.688,17.516
					c0.322,2.159,0.539,4.495,0.675,6.988c0.103,2.688-0.041,5.683-0.375,8.913c0.091-0.028,0.225-0.02,0.302-0.041
					c-1.487,11.216-5.349,25.857-11.57,43.907c1.938-3.147,7.349-13.586,16.246-31.317c2.398-3.891,4.76-7.154,7.041-9.765
					l0.083-0.021c6.127-7.061,12.1-8.856,17.851-5.434c14.348,6.619,20.32,20.211,17.863,40.884l-0.083,0.021
					c0.023,0.089,0.054,0.172,0.026,0.231c-0.086,0.021-0.149,0.132-0.23,0.161c-0.043,0.325-0.074,0.666-0.207,1.017
					C1156.761,538.359,1156.602,538.914,1156.575,538.965"/>
				<path fill="#009FE8" d="M770.647,610.483l-2.908,5.325c-11.449,20.321-21.783,46.31-30.992,77.917
					c14.087,3.051,26.053,5.524,35.977,7.588c22.417,4.615,38.352,7.391,47.772,8.404c7.06,0.646,13.927,1.115,20.551,1.381
					c21.237,0.91,42.361,0.18,63.295-2.139c38.686-4.459,73.377-14.88,103.996-31.292c19.141-10.149,34.178-19.818,45.028-29
					c5.312-4.508,10.089-9.097,14.379-13.806l-0.794-0.641l0.915-1.153l0.875,0.622c4.042-4.55,7.603-9.241,10.713-14.026
					c6.612-10.147,9.779-15.039,9.602-14.709c-0.217,0.39,0.325,0.182,1.614-0.613c2.695-4.018,5.033-7.654,7.084-11.026
					l0.384-0.567l-1.554,1.142l9.526-15.104L1014.097,526l-17.107,21.939c0.034,0.086-0.594,0.312-1.952,0.716
					c-1.385,0.452-2.096,0.706-2.125,0.764c0.05,0.809,0.187,1.599,0.247,2.41c0.192,1.604-0.016,2.772-0.481,3.512
					c-7.397,10.924-14.728,19.396-22.029,25.456c-5.567,4.588-14.035,9.931-25.421,16.041
					c-15.549,8.257-32.763,14.327-51.723,18.149c-16.214,3.194-33.538,4.788-52.032,4.732c-12.281-0.074-24.675-0.855-37.233-2.517
					L770.647,610.483z"/>
				<path fill="#00398A" d="M1068.741,633.689c-0.298,0.41-0.651,0.791-0.996,1.167l0.298,0.236l0.938-1.199L1068.741,633.689z"/>
				<path fill="#00398A" d="M1067.745,634.856c0.345-0.376,0.7-0.754,0.996-1.167l-0.875-0.622l-0.916,1.148L1067.745,634.856z"/>
				<path fill="none" stroke="#00499C" stroke-width="10.0041" stroke-linecap="square" stroke-miterlimit="10" d="M736.753,693.721
					c14.076,3.058,26.051,5.53,35.968,7.59c22.426,4.615,38.353,7.393,47.78,8.404c7.051,0.65,13.922,1.117,20.546,1.383
					c21.24,0.904,42.361,0.18,63.293-2.145c38.693-4.455,73.373-14.873,103.99-31.289c19.143-10.145,34.188-19.815,45.035-29
					c5.313-4.504,10.097-9.096,14.38-13.807c0.353-0.372,0.704-0.755,0.996-1.172c4.042-4.548,7.603-9.233,10.712-14.023
					 M992.906,549.417c0.061,0.811,0.199,1.598,0.254,2.415c0.192,1.603-0.017,2.768-0.489,3.507
					c-7.391,10.928-14.714,19.398-22.022,25.461c-5.561,4.586-14.035,9.93-25.421,16.041c-15.55,8.251-32.762,14.328-51.726,18.145
					c-16.206,3.199-33.536,4.786-52.027,4.737c-12.284-0.08-24.677-0.856-37.235-2.52"/>
				
					<line fill="none" stroke="#00499C" stroke-width="10.0041" stroke-linecap="round" stroke-miterlimit="10" x1="804.239" y1="617.202" x2="770.647" y2="610.483"/>
				<path fill="#009FE8" d="M739.346,481.825c-97.106,21.832-148.878,33.679-155.38,35.433
					c-31.733,8.804-53.508,19.899-65.394,33.324c-6.085,6.846-11.865,16.211-17.319,28.025c-3.673,7.916-9.279,21.921-16.806,42.084
					c-20.542,54.298-41.15,102.818-61.821,145.573c-18.675,38.654-27.618,77.458-26.72,116.323
					c0.8,36.212,9.915,68.915,27.333,98.02c17.027,28.568,39.721,49.887,68.075,63.932c29.617,14.649,61.578,19.249,95.847,13.952
					c175.103-27.075,294.514-72.565,358.256-136.615c3.192-3.237,6.257-6.442,9.183-9.736
					c22.864-28.486,36.805-57.789,41.852-87.782c3.842-28.117,0.102-58.106-11.172-90.117
					c-17.069-48.587-48.872-96.807-95.263-144.57c-8.167-8.422-16.779-16.789-25.843-25.172c-8.46-7.83-16.958-15.25-25.461-22.22
					c-15.487-12.839-30.993-24.238-46.394-34.232C769.848,493.376,752.244,484.671,739.346,481.825"/>
				<path fill="none" stroke="#00499C" stroke-width="10.075" stroke-linecap="round" stroke-miterlimit="10" d="M517.379,545.691
					c-6.155,6.857-12.095,16.333-17.854,28.494c-4.164,8.817-9.9,23.05-17.347,42.799c-21.375,54.315-42.342,101.959-62.865,142.987
					c-20.442,40.868-30.198,80.853-29.266,119.841c0.989,38.956,10.382,73.217,28.227,102.736
					c17.33,28.948,40.543,50.511,69.648,64.7c30.276,14.724,63.092,19.366,98.296,13.888
					c69.334-10.802,130.035-24.302,181.969-40.493c50.739-15.808,92.781-34.043,126.256-54.742
					c10.912-6.8,19.711-12.514,26.284-17.279c8.756-6.368,16.021-12.482,21.821-18.461c6.577-6.781,12.516-13.461,17.853-19.974
					c23.126-28.49,36.796-57.334,40.931-86.57c4.419-26.899-1.792-60.671-18.49-101.292c-16.685-40.571-35.205-72.902-55.689-97.005
					c-20.491-24.089-35.571-40.93-45.36-50.562c-10.116-9.932-23.425-21.897-39.98-35.82c-17.039-14.32-34.81-26.435-53.206-36.432
					c-18.37-9.884-34.125-18.744-47.341-26.57c-97.776,22.006-149.985,33.895-156.675,35.688
					C552.062,520.641,529.652,532.036,517.379,545.691z"/>
				<path fill="#009FE8" d="M876.542,922.987l0.126-0.023c0.962,0.558,12.418,20.532,34.255,60.026
					c22.288,40.289,33.647,60.741,34.095,61.29l16.105-0.493c37.065-9.018,68.65-11.974,94.718-8.825
					c12.623,1.507,25.208,5.135,37.811,10.832c5.792,2.643,11.409,7.637,16.967,14.964c5.497,7.345,8.314,13.657,8.518,18.961
					c0.285,8.501-5.177,16.658-16.428,24.509c-31.271,21.751-87.995,33.784-170.125,36.139c-41.057,1.21-79.001,0.185-113.752-3.027
					l-4.665-5.345c-0.483-0.724-0.919-1.526-1.375-2.396c-1.754-4.442-3.025-7.565-3.79-9.512
					c-1.529-3.722-6.166-30.104-14.066-79.197c-7.89-49.157-12.549-75.605-13.883-79.296l-0.019-0.067l95.435-38.584
					L876.542,922.987z"/>
				<path fill="none" stroke="#00499C" stroke-width="10.0548" stroke-linecap="round" stroke-miterlimit="10" d="M876.542,922.987
					l-0.074-0.045l-95.435,38.584l0.019,0.067c1.334,3.69,5.993,30.139,13.883,79.296c7.9,49.094,12.537,75.476,14.066,79.197
					c0.765,1.946,2.036,5.069,3.79,9.512c0.456,0.869,0.892,1.672,1.375,2.396l4.665,5.345c34.751,3.212,72.695,4.237,113.752,3.027
					c82.13-2.354,138.854-14.388,170.125-36.139c11.251-7.851,16.713-16.008,16.428-24.509c-0.203-5.304-3.021-11.616-8.518-18.961
					c-5.558-7.327-11.175-12.321-16.967-14.964c-12.603-5.697-25.188-9.325-37.811-10.832c-26.067-3.148-57.652-0.192-94.718,8.825
					l-16.105,0.493c-0.447-0.549-11.807-21.001-34.095-61.29c-21.837-39.494-33.293-59.469-34.255-60.026L876.542,922.987z"/>
				<path fill="#009FE8" d="M828.59,307.391c-8.635-16.495-18.562-29.726-29.78-39.634c-14.88-13.059-32.71-20.865-53.509-23.347
					c-0.479-0.069-1.015-0.124-1.552-0.183c-1.939-0.211-3.942-0.408-5.992-0.527c-1.713-0.079-3.421-0.161-5.179-0.16
					c0.247-1.037,0.501-2.082,0.695-3.106c0.104-0.351,0.134-0.745,0.228-1.099c0.019-0.199,0.028-0.401,0.116-0.617
					c1.341-8.081,0.827-16.342-1.516-24.645l-0.046-0.181l-0.032-0.123c-0.108-0.164-0.169-0.409-0.218-0.592
					c-0.11-0.425-0.205-0.794-0.388-1.202c-4.982-16.01-15.382-27.756-31.181-35.308c-15.745-7.565-32.21-8.569-49.457-3.124
					c-17.165,5.549-30.029,15.903-38.531,31.049c-3.26,5.722-5.515,11.574-6.796,17.437c-4.282-3.704-9.214-6.918-14.78-9.573
					c-15.74-7.565-32.197-8.566-49.456-3.124c-10.979,3.554-20.211,9.07-27.701,16.602c-4.176,4.207-7.744,9.035-10.832,14.448
					c-7.627,13.487-9.886,27.335-6.73,41.546c-0.012,0.202,0.02,0.319,0.067,0.506c0.349,1.598,0.837,3.229,1.321,4.859
					c2.126,6.67,5.15,12.583,9.102,17.808c0.079,0.041,0.11,0.164,0.203,0.265c0.104,0.167,0.256,0.26,0.365,0.429
					c0.114,0.166,0.144,0.287,0.25,0.453c0.423,0.865,0.185,1.975-0.853,3.216c-0.052,0.076-0.149,0.169-0.201,0.245
					c-0.157,0.17-0.303,0.342-0.451,0.511c-0.907,0.56-1.851,1.132-2.938,1.733c-0.856,0.421-1.771,0.914-2.751,1.428
					c-1.091,0.545-2.317,1.124-3.571,1.767c-0.18,0.047-0.305,0.081-0.47,0.191c-26.287,12.271-46.699,25.363-61.175,39.259
					c-0.386,0.292-0.755,0.651-1.11,1.004c-16.989,16.561-27.372,36.222-31.041,58.96l-1.309,23.824l5.603,34.967l2.979,10.479
					c1.271,4.159,2.636,8.427,4.2,12.703c1.831,5.052,3.992,9.893,6.485,14.511c4.61,8.757,10.348,16.837,17.232,24.35
					c4.271,4.688,8.922,9.078,14.105,13.268c17.22,14.003,38.186,24.381,62.883,31.125c7.216,1.966,14.595,3.566,22.015,4.83
					l68.273,2.48c24.933-2.423,50.521-8.333,76.845-17.69l109.911-67.099c9.687-9.532,18.411-19.792,26.281-30.872
					c0.343-0.414,0.623-0.871,0.9-1.269c14.475-20.468,23.907-41.32,28.2-62.652c3.043-14.643,3.482-28.738,1.441-42.384
					l-2.631-13.176c-0.807-2.854-1.683-5.748-2.68-8.61C839.003,329.995,834.072,318.001,828.59,307.391"/>
				<path fill="none" stroke="#00499C" stroke-width="10.075" stroke-linecap="round" stroke-miterlimit="10" d="M850.946,352.005
					c-2.069-8.503-5.46-17.834-10.167-27.933c-3.372-7.257-6.26-13.143-8.591-17.613c-0.919-1.78-1.765-3.312-2.49-4.617
					l-11.214-18.634l-12.697-14.657c-1.298-1.225-3.37-2.97-6.305-5.261c-3.642-2.766-6.829-5.002-9.549-6.7
					c-8.097-4.922-15.478-8.543-22-10.887c-10.549-3.836-21.317-5.205-32.438-4.217c3.104-2.817,4.213-8.567,3.246-17.103
					c-0.971-8.526-2.727-15.811-5.139-21.821c-2.4-6.014-6.001-11.387-10.81-16.127c-4.815-4.795-10.976-8.992-18.443-12.714
					c-7.471-3.727-15.646-6.162-24.536-7.309c-5.022-0.588-10.071-0.773-15.206-0.481c-9.263,0.64-17.988,3.096-26.263,7.319
					c-6.475,3.173-12.203,7.132-17.292,11.829c-5.114,4.642-10.005,11.895-14.681,21.686l-2.185,10.906 M604.188,217.669
					c-4.175-4.836-8.205-8.084-11.981-9.837c-3.789-1.811-7.55-3.312-11.246-4.501c-3.684-1.189-8.766-1.958-15.195-2.181
					c-6.432-0.216-13.754,0.637-21.995,2.709c-8.252,2.068-14.9,4.763-19.96,8.092c-5.055,3.329-9.107,6.262-12,8.902
					c-2.911,2.574-5.829,5.864-8.684,9.919c-2.927,4.013-5.933,9.73-9.099,17.124c-3.099,7.368-4.474,15.075-4.14,23.182
					c0.323,8.049,1.556,15.013,3.691,20.771c2.141,5.749,5.513,10.476,10.107,14.162c-1.379,0.676-5.476,2.717-12.244,5.964
					c-6.831,3.266-12.336,6.121-16.575,8.585c-4.24,2.463-9.599,5.608-16.06,9.557c-6.529,3.904-13.471,9.02-20.758,15.261
					c-7.36,6.264-13.694,13.437-18.95,21.494c-5.283,8.004-9.686,16.625-13.232,25.801c-3.524,9.244-5.712,18.649-6.468,28.272
					c-0.468,5.453-0.539,10.938-0.337,16.543c0.398,9.532,1.416,18.951,3.123,28.331c1.551,8.509,3.641,16.817,6.264,24.913
					c2.924,9.063,6.79,17.689,11.608,26.003c4.998,8.525,10.767,16.467,17.303,23.878c6.147,6.924,12.992,13.021,20.451,18.183
					c6.8,4.679,13.796,8.845,20.988,12.51c8.799,4.555,17.891,8.317,27.371,11.255c8.911,2.764,18.032,4.829,27.284,6.144
					c6.482,0.918,16.167,1.661,29.151,2.264l46.787-0.343c8.197-0.235,16.224-1.404,24.075-3.502l41.697-11.257
					c4.206-1.09,10.184-3.614,17.865-7.619l47.645-29.244c5.768-3.577,11.575-7.033,17.46-10.439
					c8.522-5.008,16.813-10.405,25.026-16.117c8.08-5.729,15.54-12.088,22.454-19.018c5.896-5.884,11.354-12.173,16.386-18.877
					c1.62-2.041,3.38-4.779,5.385-8.094c2.001-3.312,4.791-8.13,8.389-14.329c3.527-6.179,6.648-12.974,9.238-20.279
					c2.586-7.368,4.987-15.411,7.102-24.089c2.111-8.673,3.013-17.754,2.806-27.324c-0.217-9.633-1.559-19.107-3.975-28.436"/>
				<path fill="#FFFFFF" d="M731.418,211.973c-4.989-16.007-15.371-27.759-31.176-35.309c-15.755-7.563-32.213-8.563-49.462-3.123
					c-17.165,5.549-30.03,15.908-38.533,31.049c-3.258,5.727-5.522,11.576-6.794,17.438c-4.281-3.7-9.214-6.917-14.778-9.573
					c-15.742-7.563-32.199-8.567-49.462-3.124c-17.161,5.554-30.026,15.907-38.529,31.055c-8.612,15.171-10.347,30.839-5.342,46.907
					c5.145,16.102,15.555,27.91,31.348,35.393c15.792,7.485,32.311,8.474,49.505,3.048c17.13-5.406,30-15.768,38.479-30.972
					c3.265-5.727,5.525-11.576,6.808-17.44c4.271,3.708,9.199,6.92,14.765,9.576c15.795,7.485,32.312,8.481,49.498,3.046
					c17.142-5.406,30.007-15.766,38.484-30.969C734.842,243.736,736.57,228.068,731.418,211.973"/>
				<path fill="#0E0000" d="M800.93,370.757c10.662,4.457,18.934,8.69,24.807,12.569c-55.191-22.651-124.105-20.8-206.827,5.498
					c-25.845,8.259-51.544,18.489-77.133,30.645l-30.521,15.844c72.296-61.003,146.369-87.992,222.287-80.989
					C757.291,356.565,779.7,362.011,800.93,370.757"/>
				<path fill="#009FE8" d="M734.791,990.395l0.121-0.03c0.991,0.52,13.173,20.124,36.459,58.896
					c23.749,39.551,35.863,59.636,36.323,60.169l16.111-1.077c36.805-10.349,68.336-14.445,94.545-12.21
					c12.699,1.056,25.435,4.245,38.252,9.509c5.895,2.432,11.705,7.231,17.521,14.367c5.765,7.167,8.821,13.397,9.222,18.69
					c0.587,8.501-4.591,16.861-15.59,25.127c-30.541,22.904-86.928,36.974-169.08,42.268c-41.076,2.666-79.111,3.002-114.038,1.01
					l-4.857-5.18c-0.509-0.707-0.979-1.495-1.467-2.35c-1.909-4.369-3.304-7.463-4.128-9.395
					c-1.667-3.668-7.257-29.924-16.907-78.81c-9.66-48.944-15.282-75.266-16.745-78.912l-0.02-0.069l94.198-42.053L734.791,990.395z
					"/>
				<path display="none" fill="none" stroke="#00499C" stroke-width="10.075" stroke-linecap="round" stroke-miterlimit="10" d="
					M734.791,990.395l-0.079-0.049l-94.198,42.053l0.02,0.069c1.463,3.646,7.085,29.968,16.745,78.912
					c9.65,48.886,15.24,75.142,16.907,78.81c0.824,1.932,2.219,5.025,4.128,9.395c0.487,0.854,0.958,1.643,1.467,2.35l4.857,5.18
					c34.927,1.992,72.962,1.656,114.038-1.01c82.152-5.294,138.539-19.363,169.08-42.268c10.999-8.266,16.177-16.626,15.59-25.127
					c-0.4-5.293-3.457-11.523-9.222-18.69c-5.816-7.136-11.627-11.936-17.521-14.367c-12.817-5.264-25.553-8.453-38.252-9.509
					c-26.209-2.235-57.74,1.861-94.545,12.21l-16.111,1.077c-0.46-0.533-12.574-20.618-36.323-60.169
					c-23.286-38.772-35.468-58.377-36.459-58.896L734.791,990.395z"/>
				<path fill="#009FE8" d="M739.346,481.825c-97.106,21.832-148.878,33.679-155.38,35.433
					c-31.733,8.804-53.508,19.899-65.394,33.324c-6.085,6.846-11.865,16.211-17.319,28.025c-3.673,7.916-9.279,21.921-16.806,42.084
					c-20.542,54.298-41.15,102.818-61.821,145.573c-18.675,38.654-27.618,77.458-26.72,116.323
					c0.8,36.212,9.915,68.915,27.333,98.02c17.027,28.568,39.721,49.887,68.075,63.932c29.617,14.649,61.578,19.249,95.847,13.952
					c175.103-27.075,294.514-72.565,358.256-136.615c52.157-52.476,65.437-114.974,39.862-187.636
					c-20.082-57.177-60.477-113.708-121.105-169.743c-24.014-22.141-48.009-40.969-71.854-56.452
					C769.848,493.376,752.244,484.671,739.346,481.825"/>
				<path fill="#FFE100" d="M1099.522,746.096l-29.525,6.359c-15.466,3.074-29.812,5.26-43.172,6.508l-0.101-1.382
					c-23.905,1.101-36.7-1.655-38.428-8.331c-1.714-6.618,8.148-15.183,29.61-25.709c16.164-7.934,35.262-15.213,57.155-21.922
					l0.047-0.075c3.746-3.974,5.173-7.728,4.25-11.29c-2.785-10.755-17.469-12.717-43.983-5.85
					c-9.25,2.397-18.149,5.249-26.698,8.509c-10.205-9.814-19.322-22.488-27.332-38.022c-7.725-14.871-15.998-39.489-24.888-73.818
					c-8.893-34.335-6.814-59.722,6.216-76.229c13.166-16.481,28.482-28.852,46.065-37.024c-4.139-0.59-7.457-1.32-10.028-2.25
					c-23.188,8.825-42.415,19.633-57.735,32.497c-2.56,2.194-5.03,4.499-7.386,6.764c-0.175,0.107-0.367,0.278-0.546,0.506
					c-5.65,5.455-10.588,11.271-14.926,17.492c-19.778,28.135-25.023,60.233-15.656,96.403
					c6.526,25.195,19.787,55.566,39.741,91.143c2.913,5.321,5.892,10.437,8.913,15.434c3.061-2.388,6.148-4.671,9.255-6.884
					c2.374-1.963,4.881-3.904,7.619-5.9c3.392-2.29,6.998-4.697,10.863-7.108l0.379,0.761c-3.68,2.121-7.328,4.412-10.835,6.731
					c-2.68,1.743-5.4,3.542-8.026,5.517c-1.73,1.369-2.411,4.181-2.069,8.58c0.884-1.088,1.824-2.189,2.822-3.307
					c2.3-2.51,4.971-4.976,7.924-7.521c2.155-1.906,4.541-3.814,7.055-5.756c3.047-2.199,6.365-4.53,9.942-6.867
					c1.771-1.201,3.554-2.332,5.411-3.491c-1.857,1.16-3.64,2.291-5.411,3.491c-3.577,2.336-6.896,4.667-9.942,6.867
					c-2.514,1.941-4.899,3.85-7.055,5.756c-2.953,2.546-5.624,5.012-7.924,7.521c-0.998,1.117-1.938,2.219-2.822,3.307
					c0.335,3.896,1.425,9.082,3.392,15.502c-2.766-4.556-4.997-8.21-6.699-10.967c-2.42,3.938-3.946,7.715-4.602,11.368
					c-0.448,3.012-0.286,5.981,0.44,8.789c3.324,12.833,18.213,20.822,44.636,24.035c3.04,0.379,13.689,0.021,31.96-1.216
					c18.24-1.104,37.223-3.63,57.002-7.587c1.246-0.201,2.403-0.438,3.519-0.666l10.74-2.354c5.442-1.226,10.923-2.582,16.392-3.998
					l22.586-6.342c2.562-0.784,5.066-1.554,7.61-2.397c18.903-5.878,35.693-12.125,50.344-18.805c0.396-0.173,0.827-0.397,1.2-0.616
					c-11.723,2.361-23.573,3.275-35.438,2.729c-5.532-0.284-10.533-0.888-15.129-1.784c-4.142,1.316-8.421,2.55-12.834,3.755
					l-21.387,6.026l-1.314,0.343C1106.972,744.287,1103.219,745.197,1099.522,746.096"/>
				<path fill="none" stroke="#FFE100" stroke-width="2.4618" d="M1099.522,746.096l-29.525,6.359
					c-15.466,3.074-29.812,5.26-43.172,6.508l-0.101-1.382c-23.905,1.101-36.7-1.655-38.428-8.331
					c-1.714-6.618,8.148-15.183,29.61-25.709c16.164-7.934,35.262-15.213,57.155-21.922l0.047-0.075
					c3.746-3.974,5.173-7.728,4.25-11.29c-2.785-10.755-17.469-12.717-43.983-5.85c-9.25,2.397-18.149,5.249-26.698,8.509
					c-10.205-9.814-19.322-22.488-27.332-38.022c-7.725-14.871-15.998-39.489-24.888-73.818
					c-8.893-34.335-6.814-59.722,6.216-76.229c13.166-16.481,28.482-28.852,46.065-37.024c-4.139-0.59-7.457-1.32-10.028-2.25
					c-23.188,8.825-42.415,19.633-57.735,32.497c-2.56,2.194-5.03,4.499-7.386,6.764c-0.175,0.107-0.367,0.278-0.546,0.506
					c-5.65,5.455-10.588,11.271-14.926,17.492c-19.778,28.135-25.023,60.233-15.656,96.403
					c6.526,25.195,19.787,55.566,39.741,91.143c2.913,5.321,5.892,10.437,8.913,15.434c3.061-2.388,6.148-4.671,9.255-6.884
					c2.374-1.963,4.881-3.904,7.619-5.9c3.392-2.29,6.998-4.697,10.863-7.108l0.379,0.761c-3.68,2.121-7.328,4.412-10.835,6.731
					c-2.68,1.743-5.4,3.542-8.026,5.517c-1.73,1.369-2.411,4.181-2.069,8.58c0.884-1.088,1.824-2.189,2.822-3.307
					c2.3-2.51,4.971-4.976,7.924-7.521c2.155-1.906,4.541-3.814,7.055-5.756c3.047-2.199,6.365-4.53,9.942-6.867
					c1.771-1.201,3.554-2.332,5.411-3.491c-1.857,1.16-3.64,2.291-5.411,3.491c-3.577,2.336-6.896,4.667-9.942,6.867
					c-2.514,1.941-4.899,3.85-7.055,5.756c-2.953,2.546-5.624,5.012-7.924,7.521c-0.998,1.117-1.938,2.219-2.822,3.307
					c0.335,3.896,1.425,9.082,3.392,15.502c-2.766-4.556-4.997-8.21-6.699-10.967c-2.42,3.938-3.946,7.715-4.602,11.368
					c-0.448,3.012-0.286,5.981,0.44,8.789c3.324,12.833,18.213,20.822,44.636,24.035c3.04,0.379,13.689,0.021,31.96-1.216
					c18.24-1.104,37.223-3.63,57.002-7.587c1.246-0.201,2.403-0.438,3.519-0.666l10.74-2.354c5.442-1.226,10.923-2.582,16.392-3.998
					l22.586-6.342c2.562-0.784,5.066-1.554,7.61-2.397c18.903-5.878,35.693-12.125,50.344-18.805c0.396-0.173,0.827-0.397,1.2-0.616
					c-11.723,2.361-23.573,3.275-35.438,2.729c-5.532-0.284-10.533-0.888-15.129-1.784c-4.142,1.316-8.421,2.55-12.834,3.755
					l-21.387,6.026l-1.314,0.343C1106.972,744.287,1103.219,745.197,1099.522,746.096z"/>
				<path fill="#D7BE00" d="M1069.997,752.455l29.525-6.359c3.696-0.898,7.449-1.809,11.196-2.776l1.314-0.343l21.387-6.026
					c2.68-0.817,5.346-1.63,7.952-2.491c6.133-1.892,11.995-3.914,17.64-6.04c11.741-4.206,22.301-8.667,31.831-13.343
					c21.476-10.651,31.329-19.272,29.601-25.948c-1.714-6.619-14.499-9.316-38.417-8.092c-14.737,0.681-30.981,2.621-48.779,5.942
					l-33.695,7.807l-1.315,0.34c-3.858,0.999-7.698,2.053-11.474,3.094l-7.896,2.228c-0.85,0.281-1.715,0.506-2.557,0.785
					c-0.404,0.103-0.808,0.209-1.186,0.371l-0.062,0.016c-21.894,6.709-40.991,13.989-57.156,21.915
					c-21.461,10.534-31.323,19.099-29.609,25.717c1.728,6.676,14.522,9.432,38.428,8.331
					C1039.924,756.923,1054.326,755.213,1069.997,752.455"/>
				<path fill="#FFE100" d="M1008.684,692.911c8.543-3.258,17.442-6.11,26.692-8.507c26.511-6.865,41.202-4.907,43.987,5.848
					c0.922,3.562-0.508,7.318-4.26,11.292l-0.047,0.076l0.064-0.016c0.382-0.163,0.785-0.269,1.189-0.372
					c0.85-0.28,1.713-0.503,2.557-0.785l7.896-2.228c3.775-1.042,7.612-2.093,11.468-3.092l1.326-0.344l33.693-7.807
					c17.786-3.319,34.036-5.258,48.776-5.941c23.923-1.226,36.707,1.472,38.422,8.091c1.728,6.675-8.124,15.295-29.605,25.949
					c-9.53,4.676-20.094,9.137-31.823,13.341l2.363,6.562c11.862,0.554,23.716-0.368,35.438-2.729
					c0.99-0.438,1.977-0.891,3.025-1.346c15.629-7.418,24.122-11.58,25.463-12.602c24.103-16.617,34.378-31.674,30.876-45.189
					c-1.77-6.838-6.803-12.278-15.072-16.464c-0.263-0.115-0.619-0.267-0.97-0.484c-2.867-1.342-6.115-2.525-9.778-3.61
					c-7.725-2.106-17.191-3.585-28.39-4.425c-2.824-0.249-5.755-0.416-8.654-0.461c2.899,0.045,5.83,0.212,8.654,0.461
					c11.198,0.84,20.665,2.318,28.39,4.425c3.663,1.085,6.911,2.269,9.778,3.61l1.254-2.961c0.765-9.836,1.193-16.701,1.217-20.631
					c0.231-40.805-2.908-73.799-9.431-98.987c-9.367-36.175-29.538-61.691-60.492-76.69c-6.518-3.156-13.437-5.727-20.646-7.717
					l-8.866-2.25c-28.913-6.197-63.061-4.167-102.572,6.067c-1.5,0.33-2.992,0.717-4.545,1.12l-2.251,0.582
					c-0.732,0.249-1.473,0.44-2.278,0.649c-2.582,0.668-5.125,1.326-7.643,2.044c-8.831,2.593-17.266,5.327-25.179,8.178
					c2.571,0.929,5.89,1.66,10.026,2.247c-17.577,8.172-32.902,20.547-46.057,37.024c-13.037,16.51-15.108,41.901-6.215,76.237
					c8.888,34.329,17.161,58.94,24.879,73.811C989.355,670.425,998.473,683.099,1008.684,692.911"/>
				<path fill="#FFE100" d="M954.989,732.039c0.975-1.478,2.059-2.984,3.312-4.535c-0.343-4.404,0.339-7.211,2.069-8.58
					c-3.106,2.213-6.196,4.492-9.261,6.885C951.22,725.965,952.542,728.014,954.989,732.039"/>
				<path fill="#FFE100" d="M958.302,727.504c-1.254,1.551-2.338,3.058-3.312,4.535c1.707,2.757,3.938,6.411,6.708,10.967
					C959.721,736.588,958.637,731.4,958.302,727.504"/>
				<path fill="#FFE100" d="M979.232,706.676l-0.379-0.761c-3.859,2.411-7.472,4.818-10.863,7.108
					c-2.735,1.996-5.245,3.938-7.619,5.9c2.623-1.973,5.348-3.775,8.026-5.517C971.904,711.088,975.547,708.8,979.232,706.676"/>
				<path fill="#FFED00" d="M1196.821,732.25c-0.373,0.219-0.799,0.442-1.2,0.616c-14.65,6.68-31.44,12.927-50.344,18.805
					c-2.544,0.844-5.044,1.612-7.61,2.397c3.788-1.041,7.555-2.14,11.347-3.366c20.4-6.264,38.578-12.87,54.382-19.85
					C1201.188,731.355,1198.991,731.873,1196.821,732.25"/>
				<path fill="#FFE100" d="M1151.848,449.101l0.175-1.212c-0.12-1.869-0.396-3.639-0.858-5.423
					c-3.709-14.32-17.486-23.205-41.258-26.619c-23.829-3.401-50.986-1.158-81.457,6.734c-15.127,3.916-28.941,8.66-41.414,14.282
					c-2.098,5.396-2.569,10.24-1.469,14.493c1.685,6.501,5.377,11.002,11.081,13.582c0.623,0.269,1.278,0.47,2.063,0.631
					c7.909-2.848,16.349-5.583,25.192-8.182c2.502-0.711,5.046-1.37,7.635-2.04c0.794-0.207,1.542-0.4,2.279-0.649l2.244-0.581
					c1.554-0.402,3.05-0.79,4.547-1.119c39.512-10.233,73.653-12.264,102.57-6.068
					C1146.113,447.582,1148.993,448.307,1151.848,449.101"/>
				<path fill="#FFE100" d="M998.711,465.569c-0.785-0.162-1.442-0.365-2.068-0.631c-5.699-2.579-9.392-7.081-11.076-13.583
					c-1.101-4.252-0.629-9.099,1.47-14.488c-12.356,5.592-23.378,12.067-33.024,19.354c-19.188,14.54-26.922,28.995-23.214,43.313
					c0.495,1.904,1.157,3.755,2.05,5.55l0.731-0.252l-0.418-1.612l0.418,1.612c2.366-2.267,4.837-4.571,7.397-6.761
					C956.296,485.202,975.523,474.395,998.711,465.569"/>
				<path fill="none" stroke="#FFE100" stroke-width="2.4618" d="M998.711,465.569c-0.785-0.162-1.442-0.365-2.068-0.631
					c-5.699-2.579-9.392-7.081-11.076-13.583c-1.101-4.252-0.629-9.099,1.47-14.488c-12.356,5.592-23.378,12.067-33.024,19.354
					c-19.188,14.54-26.922,28.995-23.214,43.313c0.495,1.904,1.157,3.755,2.05,5.55l0.731-0.252l-0.418-1.612l0.418,1.612
					c2.366-2.267,4.837-4.571,7.397-6.761C956.296,485.202,975.523,474.395,998.711,465.569z"/>
				
					<path fill="none" stroke="#0E0000" stroke-width="9.5026" stroke-linecap="round" stroke-linejoin="round" stroke-miterlimit="10" d="
					M933.042,505.334c0.188-0.231,0.377-0.396,0.543-0.503 M954.989,732.039c-2.415,3.938-3.941,7.715-4.597,11.368
					c-0.444,3.01-0.289,5.982,0.438,8.789c3.322,12.834,18.215,20.822,44.638,24.035c3.04,0.379,13.689,0.021,31.96-1.216
					c18.24-1.104,37.229-3.631,57.002-7.587c1.24-0.199,2.4-0.438,3.519-0.666l10.737-2.353c5.448-1.229,10.926-2.584,16.395-4
					l22.594-6.343c2.559-0.784,5.059-1.553,7.603-2.396c18.903-5.878,35.698-12.126,50.352-18.806
					c0.394-0.173,0.819-0.396,1.191-0.619c0.991-0.434,1.978-0.887,3.026-1.342c15.629-7.418,24.122-11.58,25.463-12.602
					c24.099-16.615,34.371-31.673,30.871-45.187c-1.771-6.839-6.798-12.28-15.067-16.466 M933.042,505.334
					c-5.645,5.455-10.585,11.275-14.924,17.497c-19.773,28.133-25.023,60.229-15.655,96.401
					c6.523,25.189,19.788,55.569,39.74,91.142c2.913,5.321,5.896,10.435,8.913,15.434c0.097,0.158,1.429,2.204,3.873,6.231
					 M991.456,700.562c-1.85,1.158-3.64,2.291-5.416,3.493c-3.572,2.335-6.891,4.666-9.943,6.867
					c-2.508,1.939-4.894,3.848-7.047,5.749c-2.951,2.549-5.626,5.017-7.926,7.526c-0.998,1.117-1.945,2.221-2.822,3.307
					c-1.258,1.553-2.338,3.058-3.312,4.535 M1193.321,647.669c2.899,0.045,5.83,0.212,8.654,0.461
					c11.198,0.84,20.665,2.318,28.39,4.425c3.661,1.087,6.906,2.27,9.771,3.614c0.358,0.214,0.715,0.366,0.978,0.481
					 M1241.113,656.65c0.142-1.139,0.22-2.263,0.284-3.445c0.765-9.836,1.193-16.701,1.217-20.631
					c0.233-40.8-2.908-73.802-9.431-98.992c-9.367-36.171-29.542-61.684-60.49-76.681c-6.52-3.165-13.438-5.731-20.651-7.724
					 M1152.027,447.889l-0.18,1.214 M933.585,504.832c2.359-2.269,4.832-4.566,7.392-6.762
					c15.321-12.865,34.553-23.678,57.734-32.498c7.913-2.853,16.348-5.587,25.192-8.182c2.505-0.713,5.049-1.373,7.635-2.041
					c0.801-0.208,1.542-0.4,2.272-0.65l2.248-0.582c1.556-0.402,3.048-0.79,4.55-1.117c39.512-10.233,73.657-12.267,102.57-6.073
					c2.923,0.656,5.814,1.379,8.669,2.177 M1151.848,449.103c0.062,0.044,0.122,0.029,0.194,0.074 M1152.042,449.177
					c0.069-0.451,0.022-0.865-0.015-1.289 M1152.027,447.889c-0.125-1.866-0.4-3.636-0.863-5.423
					c-3.708-14.318-17.485-23.201-41.252-26.623c-23.838-3.401-50.993-1.158-81.463,6.734c-15.132,3.919-28.939,8.667-41.414,14.289
					c-12.354,5.597-23.377,12.068-33.023,19.353c-19.186,14.544-26.92,29-23.213,43.317c0.493,1.899,1.156,3.751,2.049,5.55
					c0.089,0.093,0.182,0.195,0.194,0.249 M933.166,503.215l0.419,1.616 M1112.038,742.976l21.387-6.027
					c2.675-0.815,5.341-1.628,7.946-2.488c6.141-1.896,11.996-3.915,17.648-6.043c11.729-4.204,22.293-8.665,31.823-13.341
					c21.481-10.653,31.329-19.272,29.601-25.948c-1.714-6.619-14.494-9.318-38.417-8.092c-14.744,0.685-30.99,2.622-48.776,5.941
					l-33.693,7.807l-1.326,0.344c-3.855,0.999-7.692,2.051-11.468,3.092l-7.896,2.228c-0.85,0.281-1.707,0.505-2.557,0.785
					c-0.404,0.103-0.808,0.209-1.189,0.372l-0.064,0.016c-21.888,6.708-40.98,13.985-57.156,21.913
					c-21.455,10.534-31.317,19.099-29.604,25.717c1.728,6.676,14.522,9.432,38.421,8.332c13.206-0.659,27.608-2.369,43.279-5.127
					l29.531-6.36c3.69-0.897,7.447-1.809,11.182-2.775"/>
				<path fill="#CD0E19" d="M995.641,635.232c1.664,0.982,3.364,1.155,5.256,0.606l0.059-0.014c3.13-0.931,8.25-3.186,15.259-6.714
					c6.919-3.389,10.401-5.085,10.448-5.098c0.12-0.031,0.242-0.062,0.279-0.137c5.646-3.549,7.855-7.132,6.717-10.816
					c-0.286-1.101-0.729-2.087-1.3-2.855c0.332-0.154,0.686-0.431,1.048-0.705l16.295-9.806c3.114-1.727,4.189-4.453,3.218-8.195
					c-0.534-2.069-1.558-3.646-3.078-4.785l-0.053,0.015c-1.604-1.189-3.346-1.531-5.185-1.054
					c-0.692,0.179-1.251,0.385-1.691,0.563l-0.745-2.873l-13.059,3.382l1.772,6.84l-4.005,2.076c0.668-1.461,0.749-3.26,0.198-5.388
					c-0.269-1.035-0.616-1.928-1.132-2.708l-25.872,6.701c-3.76,2.316-6.267,4.194-7.547,5.686l0.059-0.015
					c-1.754,1.993-2.326,4.288-1.639,6.937c0.505,1.955,1.525,3.529,3.131,4.77c1.609,1.242,3.359,1.584,5.256,1.093
					c1.09-0.283,2.102-0.915,2.908-1.793l0.18-0.046c0.979-1.177,4.291-3.325,9.808-6.411l2.294,8.854
					c-8.479,4.473-14.394,7.226-17.732,8.282c-1.867,0.604-3.165,1.551-3.947,2.799c-2.328-8.788-9.884-14.252-22.668-16.466
					c-4.434-0.757-7.625-1.956-9.669-3.442l-13.795,3.571c3.433,7.569,10.747,12.369,21.946,14.377
					c6.56,1.183,10.25,3.111,11.093,5.655c0.25,1.165-0.326,2.292-1.646,3.372c-1.154,0.973-2.615,1.726-4.4,2.188
					c-3.614,0.936-7.421,0.694-11.346-0.69l-0.067-0.033c-1.26-0.355-2.439-0.421-3.544-0.135c-1.769,0.458-3.078,1.6-4.02,3.437
					c-0.85,1.879-1.039,3.763-0.518,5.779c0.611,2.604,2.297,4.383,4.915,5.232l-0.059,0.017c6.488,2.305,12.54,2.705,18.177,1.246
					c5.175-1.341,9.315-4.073,12.371-8.176c1.881-2.453,3.109-5.042,3.646-7.693C993.855,633.789,994.686,634.62,995.641,635.232"/>
				<path fill="#CD0E19" d="M1050.92,620.982c1.831,1.123,3.635,1.449,5.301,1.019c1.839-0.476,3.233-1.756,4.104-3.824
					c3.638-8.426,6.777-14.582,9.415-18.395c1.196,4.902,2.623,9.691,4.277,14.423c1.44,4.347,4.083,6.058,7.998,5.044
					c2.073-0.538,3.485-1.703,4.297-3.573c0.943-1.777,0.972-3.803,0.132-6.107c-1.48-4.52-2.863-9.384-4.026-14.609
					c0.771,1.583,1.562,2.975,2.456,4.277c4.471,6.634,9.902,9.094,16.149,7.415c8.075-2.03,12.907-8.681,14.521-20.019
					c0.445-3.248,0.593-6.476,0.475-9.761c2.766,1.435,5.672,1.723,8.83,0.905c7.548-1.891,12.108-7.979,13.73-18.286
					c1.799,1.018,3.584,1.281,5.422,0.804c2.146-0.492,3.545-1.954,4.32-4.425l-24.959,6.463c-0.544,0.507-1.187,0.858-1.933,1.051
					c-0.402,0.104-0.764,0.141-1.142,0.11l-0.076-0.041c-0.182-0.018-0.431-0.007-0.646-0.136l-17.943,4.646
					c1.1,4.253,1.472,8.761,1.153,13.449c-0.365,5.925-2.133,9.323-5.274,10.197c-0.461,0.12-0.874,0.166-1.31,0.158l-0.061,0.016
					c-1.805-0.14-3.479-3.023-4.954-8.718c-1.086-4.197-1.739-8.143-2.033-11.869l-23.341,6.045
					c-0.011,0.188,0.019,0.299,0.047,0.412l-0.569-0.278l-19.553,5.064l13.155,7.698c-3.076,4.417-6.669,11.427-10.846,20.912
					c-0.804,1.867-1.019,3.64-0.544,5.239C1048,618.239,1049.141,619.785,1050.92,620.982"/>
				<path fill="none" stroke="#CD0E19" stroke-width="1.7729" d="M1050.92,620.982c1.831,1.123,3.635,1.449,5.301,1.019
					c1.839-0.476,3.233-1.756,4.104-3.824c3.638-8.426,6.777-14.582,9.415-18.395c1.196,4.902,2.623,9.691,4.277,14.423
					c1.44,4.347,4.083,6.058,7.998,5.044c2.073-0.538,3.485-1.703,4.297-3.573c0.943-1.777,0.972-3.803,0.132-6.107
					c-1.48-4.52-2.863-9.384-4.026-14.609c0.771,1.583,1.562,2.975,2.456,4.277c4.471,6.634,9.902,9.094,16.149,7.415
					c8.075-2.03,12.907-8.681,14.521-20.019c0.445-3.248,0.593-6.476,0.475-9.761c2.766,1.435,5.672,1.723,8.83,0.905
					c7.548-1.891,12.108-7.979,13.73-18.286c1.799,1.018,3.584,1.281,5.422,0.804c2.146-0.492,3.545-1.954,4.32-4.425l-24.959,6.463
					c-0.544,0.507-1.187,0.858-1.933,1.051c-0.402,0.104-0.764,0.141-1.142,0.11l-0.076-0.041c-0.182-0.018-0.431-0.007-0.646-0.136
					l-17.943,4.646c1.1,4.253,1.472,8.761,1.153,13.449c-0.365,5.925-2.133,9.323-5.274,10.197c-0.461,0.12-0.874,0.166-1.31,0.158
					l-0.061,0.016c-1.805-0.14-3.479-3.023-4.954-8.718c-1.086-4.197-1.739-8.143-2.033-11.869l-23.341,6.045
					c-0.011,0.188,0.019,0.299,0.047,0.412l-0.569-0.278l-19.553,5.064l13.155,7.698c-3.076,4.417-6.669,11.427-10.846,20.912
					c-0.804,1.867-1.019,3.64-0.544,5.239C1048,618.239,1049.141,619.785,1050.92,620.982z"/>
				<path fill="#CD0E19" d="M1157.964,588.842c-0.569-0.526-1.181-1.228-1.91-2.146c-1.998-2.488-4.313-3.426-7.02-2.725
					c-1.72,0.446-3.159,1.556-4.281,3.384c-1.052,1.861-1.338,3.836-0.785,5.97c0.312,1.206,0.91,2.338,1.791,3.402
					c5.32,6.786,10.607,9.399,15.824,7.989c5.587-1.388,10.802-5.927,15.556-13.605c6.258-9.959,7.527-21.89,3.794-35.833
					l-0.017-0.06c-0.712-2.518-1.509-4.884-2.454-7.156l-13.466,3.487c0.938,1.971,1.675,4.102,2.256,6.349
					c1.73,6.672,1.854,12.836,0.407,18.423C1166.007,582.215,1162.793,586.424,1157.964,588.842"/>
				<path fill="none" stroke="#CD0E19" stroke-width="1.7729" d="M1157.964,588.842c-0.569-0.526-1.181-1.228-1.91-2.146
					c-1.998-2.488-4.313-3.426-7.02-2.725c-1.72,0.446-3.159,1.556-4.281,3.384c-1.052,1.861-1.338,3.836-0.785,5.97
					c0.312,1.206,0.91,2.338,1.791,3.402c5.32,6.786,10.607,9.399,15.824,7.989c5.587-1.388,10.802-5.927,15.556-13.605
					c6.258-9.959,7.527-21.89,3.794-35.833l-0.017-0.06c-0.712-2.518-1.509-4.884-2.454-7.156l-13.466,3.487
					c0.938,1.971,1.675,4.102,2.256,6.349c1.73,6.672,1.854,12.836,0.407,18.423
					C1166.007,582.215,1162.793,586.424,1157.964,588.842z"/>
				<path fill="#CD0E19" d="M1065.803,577.241l23.341-6.045c-0.257-3.125-0.173-6.151,0.11-9.055c0.598-4.57,1.945-7.19,4.028-7.914
					c0.287-0.075,0.517-0.134,0.823-0.149c2.694,0.223,5.162,4.796,7.472,13.714l0.045,0.171l17.938-4.645
					c-1.455-0.669-2.756-3.341-3.962-8c-1.86-7.183-2.469-13.776-1.812-19.778c0.554-4.252,1.831-6.671,3.796-7.364
					c0.229-0.06,0.458-0.119,0.762-0.141c2.507,0.208,4.854,4.514,7.015,12.856c1.056,4.081,1.432,8.397,1.134,12.896
					c-0.333,4.2-1.372,7.042-3.136,8.546l24.964-6.465c0.055-0.264,0.111-0.522,0.226-0.797c1.6-6.122,4.189-9.858,7.746-11.272
					c2.238-0.636,4.438,0.757,6.672,4.164c0.729,1.162,1.41,2.334,2.032,3.586l13.46-3.485c-2.02-4.939-4.584-9.122-7.697-12.616
					c-5.8-6.532-12.17-8.871-18.995-7.043c-5.826,1.448-10.385,5.631-13.644,12.492c-0.256-1.471-0.576-2.922-0.959-4.412
					c-1.478-5.698-3.854-10.61-7.199-14.771c-4.862-6.225-10.488-8.513-16.856-6.8c-6.177,1.48-9.97,7.002-11.36,16.567
					c-0.532,3.633-0.67,7.35-0.491,11.109c-3.876-2.617-8.115-3.362-12.711-2.171c-5.731,1.365-9.476,6.075-11.307,14.158
					c0.039-0.56-0.02-0.979-0.108-1.321c-0.551-2.128-1.677-3.674-3.345-4.655c-1.607-0.995-3.333-1.287-5.125-0.823
					c-3.403,0.824-5.025,3.326-4.76,7.428l0.031,0.118C1064.479,563.595,1065.087,570.921,1065.803,577.241"/>
				<path fill="none" stroke="#CD0E19" stroke-width="1.7729" d="M1065.803,577.241l23.341-6.045
					c-0.257-3.125-0.173-6.151,0.11-9.055c0.598-4.57,1.945-7.19,4.028-7.914c0.287-0.075,0.517-0.134,0.823-0.149
					c2.694,0.223,5.162,4.796,7.472,13.714l0.045,0.171l17.938-4.645c-1.455-0.669-2.756-3.341-3.962-8
					c-1.86-7.183-2.469-13.776-1.812-19.778c0.554-4.252,1.831-6.671,3.796-7.364c0.229-0.06,0.458-0.119,0.762-0.141
					c2.507,0.208,4.854,4.514,7.015,12.856c1.056,4.081,1.432,8.397,1.134,12.896c-0.333,4.2-1.372,7.042-3.136,8.546l24.964-6.465
					c0.055-0.264,0.111-0.522,0.226-0.797c1.6-6.122,4.189-9.858,7.746-11.272c2.238-0.636,4.438,0.757,6.672,4.164
					c0.729,1.162,1.41,2.334,2.032,3.586l13.46-3.485c-2.02-4.939-4.584-9.122-7.697-12.616c-5.8-6.532-12.17-8.871-18.995-7.043
					c-5.826,1.448-10.385,5.631-13.644,12.492c-0.256-1.471-0.576-2.922-0.959-4.412c-1.478-5.698-3.854-10.61-7.199-14.771
					c-4.862-6.225-10.488-8.513-16.856-6.8c-6.177,1.48-9.97,7.002-11.36,16.567c-0.532,3.633-0.67,7.35-0.491,11.109
					c-3.876-2.617-8.115-3.362-12.711-2.171c-5.731,1.365-9.476,6.075-11.307,14.158c0.039-0.56-0.02-0.979-0.108-1.321
					c-0.551-2.128-1.677-3.674-3.345-4.655c-1.607-0.995-3.333-1.287-5.125-0.823c-3.403,0.824-5.025,3.326-4.76,7.428l0.031,0.118
					C1064.479,563.595,1065.087,570.921,1065.803,577.241z"/>
				<path fill="#CD0E19" d="M945.279,604.03c0.373,1.438,0.843,2.792,1.424,4.055l13.797-3.574c-1.136-0.874-1.842-1.914-2.19-3.056
					c-0.294-1.331,0.069-2.535,1.202-3.627c0.05-0.013,0.035-0.069,0.02-0.126c1.168-0.971,2.508-1.691,4.127-2.11
					c4.789-1.177,9.776,0.104,14.973,3.794c0.1,0.15,0.247,0.239,0.393,0.328l10.181-2.636c0.61-1.199,0.709-2.702,0.188-4.472
					c-0.312-1.206-0.982-2.382-1.982-3.6c0.418-0.04,0.896-0.106,1.299-0.211c1.556-0.403,2.751-1.449,3.734-3.116l-0.013-0.055
					c2.255-3.594,5.589-5.928,10.017-7.075c0.974-0.253,1.965-0.449,2.916-0.564l2.975,11.493c-3.221,1.762-6.011,3.342-8.264,4.784
					l25.873-6.701c-1.122-1.98-2.868-3.004-5.216-3.071l-3.455-13.338c0.01-0.678-0.056-1.399-0.233-2.087
					c-0.803-3.107-2.752-4.936-5.855-5.539c-4.146-0.648-8.331-0.428-12.581,0.673c-7.648,1.98-13.42,6.244-17.406,12.859
					l-0.062,0.015c-1.148,1.95-1.44,3.933-0.876,5.874l0.134,0.521c-1.044-0.47-2.141-0.924-3.354-1.344
					c-3.728-1.371-7.427-2.128-11.102-2.344l-0.054,0.014c-2.38,0.064-4.635,0.348-6.819,0.914
					c-5.113,1.325-8.977,3.979-11.544,8.018C944.574,593.231,943.807,598.338,945.279,604.03"/>
				<path fill="#CD0E19" d="M989.204,597.078l-10.181,2.636c1.404,0.924,3.22,1.07,5.346,0.519
					C986.84,599.595,988.416,598.569,989.204,597.078"/>
				<path fill="#CD0E19" d="M1042.166,583.361l-0.952-3.677l4.514,2.754l19.553-5.064l-25.058-15.234
					c-1.277-0.653-2.512-0.947-3.763-0.807l-3.098-11.965l2.29-0.593c1.906-0.494,3.266-1.635,4.099-3.389l0.054-0.014
					c0.983-1.667,1.215-3.634,0.648-5.815c-0.563-2.181-1.736-3.845-3.435-4.938l0.016,0.058c-1.629-1.11-3.363-1.4-5.268-0.906
					c-3.726,0.964-7.663,2.596-11.855,4.912c-9.188,5.017-13.056,10.005-11.554,15.078c0.521,2.018,1.661,3.564,3.439,4.756
					c1.836,1.185,3.589,1.524,5.32,1.077c1.728-0.384,3.071-1.59,4.023-3.62l7.967,30.769L1042.166,583.361z"/>
				<path fill="#009FE8" d="M920.358,591.725c-1.864,9.927-2.851,19.888-2.847,29.894c-0.1,9.239,0.606,14.738,2.051,16.484
					l21.944,54.461c8.54,8.788,17.307,16.344,26.212,22.572c6.573,0.357,13.27,1.596,20.309,3.748
					c4.299,1.247,8.55,1.771,12.918,1.59c21.689-0.944,40.738,3.777,57.175,14.259c0.317-0.032,0.583-0.111,0.847-0.188
					c14.521-3.997,26.131-10.509,34.718-19.538c8.081-8.573,10.306-15.416,6.689-20.54c-9.347-13.005-19.619-17.469-30.906-13.293
					c-3.201,1.245-7.422,3.609-12.73,7.221c-1.369,0.923-2.642,1.76-3.876,2.466c1.462-1.093,2.985-2.506,4.701-4.165
					c5.775-5.328,10.649-11.445,14.566-18.398c11.045-19.25,10.251-34.932-2.283-47.041c-6.021-7.179-15.423-5.603-28.247,4.778
					c-13.056,12.809-21.003,20.224-23.755,22.337c14.174-18.454,22.803-33,25.988-43.541c5.331-17.482,0.085-30.858-15.815-40.119
					c-7.001-4.065-17.518-0.083-31.523,11.977c-12.844,11.175-19.812,19.745-20.817,25.708c-0.497-10.822-2.272-20.721-5.428-29.7
					c-4.957-13.795-12.136-20.938-21.633-21.414C935.035,550.658,925.604,564.146,920.358,591.725"/>
				<path fill="#009FE8" d="M1000.945,720.475c-4.368,0.182-8.611-0.344-12.924-1.59c-7.033-2.152-13.734-3.391-20.303-3.748
					c12.208,8.492,24.754,14.688,37.633,18.454c18.015,5.349,35.648,5.75,52.769,1.143
					C1041.689,724.251,1022.635,719.53,1000.945,720.475"/>
				<path fill="#009FE8" d="M951.483,719.688l1.822,2.344c4.399-0.986,7.858-1.781,10.412-2.338
					c0.991-0.493,2.169-0.809,3.517-1.105c0.164,0.091,0.35,0.104,0.526,0.017c3.413-1.015,6.272-2.452,8.483-4.241l-4.826-6.057
					c-0.987,0.133-1.607,0.201-1.876,0.28c0.014-0.271,0.065-0.487,0.258-0.751c0.405-0.289,0.772-0.635,1.099-1.014
					c-1.977-0.578-3.853-1.227-5.745-1.887c-1.182-3.775-0.605-7.129,1.739-10.059c0.264-2.038-0.773-5.106-3.227-9.162
					c5.591-5.505,9.78-10.049,12.465-13.636c0.09-0.172-0.06-0.977-0.494-2.464c-0.704,0.061-1.11,0.089-1.156,0.05l-1.29,1.279
					c-2.273,2.439-6.296,6.147-12.01,11.071c-1.083-1.639-2.438-3.385-3.884-5.223c-2.743-3.534-8.809-10.579-18.176-21.002
					c0.896-1.251,2.433-3.948,4.724-8.037l-2.422-2.633c0.412-1.582,0.696-3.125,0.898-4.675l-0.569,0.782l-3.545-2.636
					l-4.458,4.885l-0.086-0.092c0.109-0.259,0.252-0.74,0.458-1.354l-5.755-5.213c-0.555,0.602-3.265,2.848-8.047,6.742
					c-0.416,0.388-0.832,0.766-1.202,1.112c-0.47,0.515-1.126,1.38-2.019,2.549c-1.393,1.454-2.36,2.521-2.968,3.255l-0.604-0.561
					c-0.421,0.562-0.804,1.076-1.087,1.604c-0.141,0.125-0.108,0.525,0.088,1.29c0.259,1.121,0.149,2.762-0.383,4.872l-1.257,1.42
					l5.745,5.21l4.369-4.621l0.115,0.486c-0.198,1.554-0.745,2.993-1.602,4.387c0.004,0.084-0.047,0.133-0.056,0.219
					c-2.106,2.718-3.656,4.747-4.647,6.083c-2.07,0.811-4.274,1.47-6.558,1.867c-0.61-0.381-1.262-0.807-1.821-1.23
					c-0.053,0.129-0.138,0.22-0.189,0.259c-1.079,1.511-2.535,5.591-4.369,12.321l5.384,5.635c1.386-1.277,3.463-3.195,6.184-5.708
					c2.355-2.175,4.306-4.142,5.8-5.944l0.013,0.839l-0.986,1.165l5.663,6.23c-0.83,2.989-1.512,5.409-2.121,7.253
					c-0.936,3.337-1.478,5.896-1.687,7.707l5.377,5.823c-0.767,1.305-1.247,2.173-1.402,2.652c-0.55,1.534-0.337,3.057,0.479,4.598
					l5.48,5.377c0.712,0.03,1.878-0.276,3.592-0.921c1.805-0.634,3.111-0.981,3.868-1.087l8.489,7.99l-1.401,1.537l1.366,1.487
					C946.859,725.416,948.665,722.376,951.483,719.688 M940.992,670.136l0.293,0.229c1.094,1.649,2.309,3.608,3.555,5.79
					c1.372,2.414,2.241,3.917,2.577,4.549l-1.393,1.367c-1.211-0.846-2.291-2.844-3.268-5.953
					C942.195,674.496,941.651,672.516,940.992,670.136"/>
				<path fill="#00499C" d="M909.224,645.159c-0.277,0.347-0.417,0.472-0.459,0.514l4.762,4.243l0.604,0.558
					c0.599-0.733,1.575-1.801,2.968-3.255c0.893-1.169,1.55-2.029,2.019-2.549c0.007-0.091,0.05-0.133,0.101-0.172
					c0.43-0.745,0.364-1.544-0.128-2.453c-0.366-0.686-0.483-1.267-0.419-1.664l0.087-0.172c0.009-0.084,0.054-0.134,0.058-0.22
					c0.291-0.529,0.309-1.055-0.018-1.604l-0.295-0.583c-0.162-1.475-0.412-5.269-0.698-11.417
					c-0.333-6.103-0.108-12.718,0.718-19.888c0.818-7.167,1.514-12.339,1.999-15.611c0.48-3.097,1.172-5.959,2.035-8.546
					c1.859-5.218,3.86-9.718,6.148-13.445c0.522-1,1.093-1.956,1.674-2.914l-6.911-7.483c-2.356,3.466-4.438,7.604-6.319,12.51
					c-1.192,2.887-2.198,6.047-3.139,9.388l-0.318,0.21l-0.99,2.625c-0.018,0.178-0.016,0.356-0.019,0.444l-0.095-0.002
					l-0.047,0.128c-0.102,0.35-0.158,0.575-0.12,0.794l-0.005,0.092c-3.52,21.202-4.888,37.333-4.073,48.297
					c0.029,0.402,0.015,0.751-0.009,1.2c0.036,0.141,0.033,0.226,0.036,0.311c0.017,0.671,0.123,1.341,0.226,2.098
					c-0.099,0.091-0.193,0.17-0.278,0.261c0.086,0.093,0.218,0.139,0.346,0.187l-0.7,0.821c-0.165,0.749-0.034,1.736,0.467,2.904
					c0.442,1.043,0.591,1.764,0.352,2.153c-0.332,0.568-0.567,0.864-0.701,0.902c-0.14-0.047-0.211-0.055-0.309,0.036
					L909.224,645.159z M918.431,587.6c-0.041-0.041-0.123-0.138-0.116-0.225C918.308,587.462,918.39,587.559,918.431,587.6"/>
				<path fill="#00499C" d="M967.231,718.588c-1.341,0.297-2.519,0.61-3.514,1.105c-1.731,0.814-2.932,1.924-3.649,3.448l3.92,5.095
					c3.376,0.229,5.909,0.279,7.684,0.27c0.631,0.021,1.205-0.007,1.734-0.061c2.212,1.368,4.041,2.43,5.391,3.143
					c0.865,0.48,1.705,0.824,2.407,1.123c0.127,0.141,0.207,0.233,0.244,0.357c2.048,1.103,4.18,2.125,6.5,3.15
					c1.043,0.494,2.137,1.028,3.314,1.562c5.505,2.354,11.466,4.645,17.876,6.675c16.1,5.313,33.452,5.041,51.948-0.751
					c2.485-0.745,4.964-1.583,7.306-2.464c2.253-0.799,4.381-1.646,6.506-2.585c0.058-0.045,0.096-0.077,0.188-0.169
					c1.191-0.842,2.279-1.42,3.186-1.738c0-0.089-0.035-0.223-0.041-0.314c2.054-1.208,4.012-2.42,5.936-3.766l-6.814-7.379
					c-1.284,0.922-2.562,1.752-3.839,2.514c-0.716,0.053-1.443,0.385-2.214,0.84c-0.679,0.462-1.231,0.79-1.69,1.133l-0.039-0.041
					l-1.644,1.08c-0.313,0.122-0.676,0.287-1.039,0.362c-2.156,0.71-4.227,1.245-6.208,1.8c-6.302,1.959-12.492,3.226-18.517,3.915
					c-6.079,0.737-13.668,0.569-22.79-0.421c-5.078-0.875-10.055-2.1-15.013-3.77c-3.426-1.104-6.797-2.357-10.117-3.827
					c-4.323-1.904-8.633-4.171-12.929-6.789c-0.304-0.146-0.608-0.291-0.905-0.521c-1.623-0.91-3.178-1.948-4.684-3.121
					c-0.04-0.051-0.131-0.141-0.176-0.189l-0.125,0.043c-0.262-0.189-0.567-0.425-0.825-0.615c0.041,0.223,0.12,0.41,0.198,0.592
					c-1.515,0.117-3.873,0.238-7.036,0.331C967.58,718.693,967.398,718.679,967.231,718.588"/>
				<path fill="#00499C" d="M1071.248,668.082c-0.045,0.046-0.086,0.085-0.144,0.13c-4.363,7.023-9.425,13.398-15.343,19.12
					c-1.81,1.752-3.52,3.327-5.128,4.729c0.357-0.077,2.495-1.454,6.61-4.133c4.104-2.682,8.061-4.786,11.948-6.324
					c2.615-0.958,4.637-1.543,6.111-1.618c0.669-0.108,1.926-0.147,3.736-0.028c0.093,0.001,0.267,0.007,0.359,0.007l0.041,0.047
					c0.737,0.167,1.547,0.288,2.334,0.411l1.407,0.5c0.042,0.04,0.042,0.04,0.084,0.092c0.137,0.051,0.262,0.1,0.396,0.061
					l0.041,0.046l0.047,0.047l0.081,0.094c0.048,0.043,0.048,0.043,0.085,0.088c4.058,1.899,7.176,4.065,9.393,6.467
					c0.555,0.611,0.854,0.934,0.94,1.105c0.36,0.773,1.877,2.978,4.615,6.681l-0.01,0.085l0.049,0.05
					c1.133,1.689,1.635,3.624,1.451,5.746c-0.001,0.09-0.041,0.132-0.049,0.227c-0.914,2.893-2.633,5.852-5.16,8.856
					c-1.015,1.123-2.084,2.096-3.14,2.991c-5.068,4.593-9.989,8.536-14.654,11.729l6.814,7.379
					c6.907-4.661,12.843-9.795,17.919-15.504c3.309-3.742,5.719-7.418,7.252-11.137c-0.087-2.399,0.026-5.066,0.231-7.9
					c-0.523-1.582-1.066-3.382-1.693-5.446c-0.162-0.45-0.28-0.95-0.395-1.35c-1.318-2.448-3.135-4.97-5.438-7.381
					c-7.547-7.994-14.363-12.05-20.531-12.255l-0.048-0.042c-0.234,0.034-1.466,0.078-3.784,0.156
					c-0.495,0.026-0.984,0.051-1.385,0.085c0.049-0.05,0.094-0.087,0.14-0.13c0.138-0.219,0.746-0.771,1.757-1.619
					c0.464-0.429,0.83-0.768,1.105-1.027c0.052-0.04,0.138-0.129,0.192-0.255c0.189-0.261,0.509-0.557,0.887-0.991
					c0.093-0.174,0.235-0.39,0.372-0.518c0.189-0.261,0.424-0.559,0.795-0.903c9.934-21.562,8.413-38.967-4.701-52.156
					c-6.971-8.199-15.299-9.913-24.91-5.228c0.946-2.762,1.824-5.534,2.459-8.261l0.011-0.093
					c4.175-18.725-1.406-32.467-16.657-41.213c-15.429-8.932-29.985-6.276-43.712,7.846c-5.565,5.734-10.316,10.963-14.147,15.615
					c-0.721-5.233-2.098-10.709-4.09-16.485c-4.624-13.26-14.397-20.141-29.182-20.602c-9.271-0.593-16.998,3.627-23.141,12.627
					l6.899,7.486c4.132-6.461,9.118-9.775,15.07-9.889l0.046,0.043c0.488,0.062,1.066,0.044,1.601-0.021
					c0.042,0.045,0.042,0.045,0.087,0.003c3.786-0.072,7.162,0.914,10.242,2.948c4.125,2.431,7.127,6.332,9.044,11.653
					c0.121,0.409,0.234,0.809,0.405,1.083c0.694,1.583,1.375,3.348,1.957,5.375c3.145,9.147,4.742,19.393,4.855,30.822
					c1.143-6.354,8.423-15.892,21.825-28.684c1.056-0.894,2.074-1.832,3.043-2.727c0.744-0.771,1.446-1.586,2.18-2.352
					c3.95-3.98,7.878-6.666,11.892-8.155c6.275-3.389,11.365-3.979,15.279-1.871c7.405,3.854,12.495,8.905,15.264,15.063
					c2.729,5.267,3.275,11.599,1.677,19.139c-0.401,2.166-0.93,4.458-1.613,6.875c-0.77,2.591-1.854,5.388-3.221,8.359
					c0.088,0.01,0.221,0.06,0.313,0.056c-5.035,10.203-13.418,22.899-25.146,38.071c2.855-2.379,11.369-10.571,25.54-24.586
					c3.538-2.919,6.831-5.279,9.839-7.021l0.088,0.005c8.102-4.747,14.358-4.536,18.728,0.575
					c11.531,10.904,12.845,25.766,3.858,44.655l-0.092-0.002c-0.008,0.087,0.003,0.177-0.047,0.216
					c-0.092-0.002-0.184,0.083-0.277,0.082c-0.144,0.303-0.285,0.61-0.526,0.92C1071.627,667.566,1071.297,668.038,1071.248,668.082
					"/>
				<path fill="#009FE8" d="M680.907,612.004l-4.479,4.131c-17.438,15.659-35.64,37.074-54.556,64.188
					c12.416,7.432,23.014,13.64,31.788,18.792c19.852,11.603,34.123,19.381,42.766,23.376c6.505,2.883,12.885,5.539,19.105,7.925
					c19.925,7.687,40.262,13.804,60.927,18.324c38.268,8.208,74.625,9.451,109.05,3.675c21.488-3.49,38.908-7.857,52.186-13.096
					c6.512-2.599,12.537-5.414,18.127-8.527l-0.54-0.862l1.235-0.798l0.629,0.867c5.32-3.023,10.215-6.346,14.711-9.902
					c9.552-7.531,14.154-11.166,13.863-10.905c-0.317,0.292,0.256,0.271,1.742-0.069c3.856-2.956,7.257-5.666,10.289-8.211
					l0.544-0.42l-1.839,0.588l13.925-11.306l-70.587-79.847l-23.34,15.38c-0.006,0.084-0.668,0.105-2.089,0.042
					c-1.468-0.005-2.222,0.002-2.273,0.045c-0.201,0.79-0.328,1.587-0.541,2.386c-0.332,1.581-0.897,2.625-1.596,3.176
					c-10.55,8.021-20.239,13.724-29.141,17.147c-6.772,2.573-16.565,4.934-29.367,7.087c-17.448,2.851-35.771,3.097-55.062,0.63
					c-16.455-2.175-33.446-6.236-51.033-12.238c-11.664-4.028-23.214-8.76-34.641-14.375L680.907,612.004z"/>
				<path fill="#00398A" d="M957.145,730c-0.412,0.291-0.866,0.542-1.324,0.793l0.208,0.323l1.283-0.841L957.145,730z"/>
				<path fill="#00398A" d="M955.82,730.793c0.458-0.251,0.912-0.502,1.324-0.793l-0.629-0.867l-1.235,0.798L955.82,730.793z"/>
				<path fill="none" stroke="#00499C" stroke-width="10.0497" stroke-linecap="square" stroke-miterlimit="10" d="M621.872,680.323
					c12.419,7.431,23.014,13.641,31.788,18.793c19.845,11.603,34.123,19.381,42.762,23.376c6.505,2.883,12.895,5.538,19.109,7.925
					c19.921,7.687,40.271,13.803,60.932,18.323c38.263,8.209,74.62,9.452,109.041,3.678c21.486-3.491,38.905-7.857,52.191-13.099
					c6.502-2.597,12.535-5.413,18.125-8.526c0.458-0.251,0.912-0.502,1.327-0.794c5.317-3.022,10.212-6.345,14.708-9.901
					 M912.091,625.396c-0.205,0.792-0.322,1.587-0.534,2.385c-0.339,1.582-0.904,2.626-1.6,3.181
					c-10.555,8.019-20.248,13.722-29.144,17.143c-6.772,2.573-16.565,4.939-29.367,7.087c-17.448,2.851-35.771,3.097-55.067,0.631
					c-16.45-2.176-33.45-6.235-51.03-12.237c-11.662-4.03-23.212-8.762-34.639-14.377"/>
				
					<line fill="none" stroke="#00499C" stroke-width="10.0497" stroke-linecap="round" stroke-miterlimit="10" x1="710.71" y1="629.208" x2="680.907" y2="612.004"/>
			</g>
			<g>
				
					<polyline fill="none" stroke="#3E3A39" stroke-width="7.0655" stroke-linecap="round" stroke-linejoin="round" stroke-miterlimit="10" points="
					527.809,242.126 583.149,256.026 543.625,287.331 				"/>
				
					<polyline fill="none" stroke="#3E3A39" stroke-width="7.0655" stroke-linecap="round" stroke-linejoin="round" stroke-miterlimit="10" points="
					692.521,199.468 650.884,238.483 700.633,246.668 				"/>
				<path fill="#009FE8" d="M776.356,202.722c0,0,29.951-50.898,92.121-56.728c62.176-5.829,62.524,35.162,34.213,52.768
					S820.564,183.054,776.356,202.722z"/>
				<path fill="#009FE8" d="M847.409,241.113c0,0,38.259-24.273,82.755-6.495c44.48,17.774,30.37,45.882,4.884,47.994
					C909.559,284.724,884.474,243.151,847.409,241.113z"/>
				<path fill="#009FE8" d="M944.096,209.908c0,0,38.262-24.271,82.754-6.495c44.481,17.774,30.373,45.881,4.884,47.996
					C1006.245,253.522,981.162,211.95,944.096,209.908z"/>
				<path fill="#009FE8" d="M421.521,278.92c0,0-50.898-29.959-108.088-4.876c-57.184,25.084-37.585,61.091-4.291,62.74
					C342.436,338.435,373.324,283.185,421.521,278.92z"/>
				<path fill="#009FE8" d="M378.025,346.978c0,0-45.232-2.648-75.491,34.488c-30.262,37.132-4.293,54.859,19.018,44.335
					C344.866,415.273,346.617,366.75,378.025,346.978z"/>
				<path fill="#009FE8" d="M278.349,366.629c0,0-45.224-2.649-75.485,34.488c-30.266,37.133-4.293,54.858,19.017,44.334
					C245.197,434.925,246.948,386.403,278.349,366.629z"/>
				<path fill="#FFFFFF" d="M706.84,281.51c0,0,9.694,5.706,18.034,22.034c8.333,16.33,22.585,47.563,48.47,28.534
					C799.229,313.047,751.549,263.769,706.84,281.51z"/>
			</g>
		</g>
	</g>
</g>
<g display="none">
	
		<path display="inline" fill="none" stroke="#727171" stroke-width="5.5692" stroke-linecap="round" stroke-linejoin="round" stroke-miterlimit="10" d="
		M920.455,314.851c0,0,98.853,13.923,132.964,91.892"/>
	
		<path display="inline" fill="none" stroke="#727171" stroke-width="5.5692" stroke-linecap="round" stroke-linejoin="round" stroke-miterlimit="10" d="
		M911.404,339.912c0,0,75.881,9.05,112.776,62.653"/>
	
		<path display="inline" fill="none" stroke="#727171" stroke-width="5.5692" stroke-linecap="round" stroke-linejoin="round" stroke-miterlimit="10" d="
		M908.542,363.843c0,0,55.114,2.107,90.634,46.814"/>
</g>
</svg>
