<?xml version="1.0" encoding="utf-8"?>
<!-- Generator: Adobe Illustrator 16.2.1, SVG Export Plug-In . SVG Version: 6.00 Build 0)  -->
<!DOCTYPE svg PUBLIC "-//W3C//DTD SVG 1.1//EN" "http://www.w3.org/Graphics/SVG/1.1/DTD/svg11.dtd">
<svg version="1.1" id="_x31_" xmlns="http://www.w3.org/2000/svg" xmlns:xlink="http://www.w3.org/1999/xlink" x="0px" y="0px"
	 width="451.912px" height="446.501px" viewBox="0 0 451.912 446.501" enable-background="new 0 0 451.912 446.501"
	 xml:space="preserve">
<g>
	<path fill="#009FE8" d="M138.497,142.971c1.403,9.961,3.659,19.663,6.839,29.096c2.855,8.753,5.277,13.708,7.191,14.897
		l38.064,44.351c10.846,5.574,21.524,9.899,31.906,12.937c6.307-1.763,13.025-2.729,20.343-2.942
		c4.459-0.196,8.628-1.059,12.689-2.617c20.143-7.812,39.63-9.43,58.465-4.779c0.283-0.131,0.508-0.282,0.74-0.455
		c12.414-8.389,21.279-18.231,26.495-29.488c4.892-10.656,4.814-17.822-0.234-21.502c-12.953-9.281-24.063-10.213-33.376-2.686
		c-2.618,2.203-5.852,5.777-9.708,10.873c-0.995,1.311-1.932,2.504-2.874,3.564c1.037-1.498,2.027-3.32,3.112-5.43
		c3.739-6.859,6.392-14.178,7.866-21.992c4.282-21.67-1.462-36.209-17.146-43.627c-7.971-4.851-16.329-0.367-25.114,13.509
		c-8.224,16.24-13.359,25.765-15.273,28.637c7.475-21.923,10.987-38.394,10.623-49.345c-0.554-18.18-9.758-29.121-27.7-32.787
		c-7.897-1.602-16.55,5.504-25.898,21.34c-8.563,14.636-12.403,24.941-11.446,30.875c-3.92-10.045-8.754-18.809-14.588-26.266
		c-9.065-11.44-18.116-15.885-27.227-13.294C139.252,99.566,134.649,115.294,138.497,142.971"/>
	<path fill="#009FE8" d="M255.53,238.691c-4.062,1.559-8.23,2.421-12.688,2.622c-7.319,0.208-14.038,1.175-20.345,2.938
		c14.207,4.12,28.022,5.963,41.369,5.405c18.693-0.703,35.444-5.946,50.128-15.744C295.16,229.262,275.673,230.88,255.53,238.691"/>
	<path fill="#009FE8" d="M208.647,253.714l2.454,1.626c3.83-2.321,6.841-4.176,9.075-5.521c0.779-0.785,1.784-1.446,2.955-2.158
		c0.194,0.033,0.366-0.016,0.508-0.146c2.899-2.056,5.14-4.326,6.658-6.707l-6.488-4.18c-0.881,0.447-1.446,0.704-1.685,0.863
		c-0.072-0.251-0.091-0.476,0.004-0.783c0.291-0.406,0.536-0.846,0.72-1.318c-2.037,0.096-4.035,0.078-6.02,0.068
		c-2.325-3.197-2.841-6.542-1.573-10.053c-0.396-2-2.346-4.561-5.965-7.607c3.526-6.976,6.016-12.592,7.407-16.83
		c0.036-0.191-0.361-0.904-1.236-2.164c-0.655,0.285-1.024,0.438-1.084,0.406l-0.811,1.619c-1.363,3.029-3.976,7.81-7.786,14.273
		c-1.549-1.206-3.385-2.419-5.325-3.689c-3.719-2.455-11.688-7.168-23.838-14.017c0.438-1.458,1.024-4.489,1.892-9.074l-3.133-1.712
		c-0.106-1.626-0.33-3.174-0.644-4.693l-0.285,0.912l-4.179-1.353l-2.646,6.028l-0.114-0.056c0.015-0.278,0.003-0.786-0.006-1.431
		l-7.079-3.08c-0.332,0.744-2.168,3.727-5.444,8.928c-0.264,0.493-0.534,0.986-0.772,1.424c-0.275,0.641-0.624,1.659-1.092,3.043
		c-0.85,1.814-1.429,3.137-1.769,4.02l-0.735-0.33c-0.229,0.665-0.416,1.271-0.521,1.854c-0.089,0.167,0.066,0.533,0.49,1.191
		c0.609,0.98,1.03,2.555,1.2,4.721l-0.729,1.736l7.072,3.082l2.64-5.752l0.272,0.43c0.31,1.521,0.24,3.056-0.111,4.633
		c0.021,0.088-0.007,0.145,0.018,0.225c-1.125,3.236-1.934,5.648-2.442,7.221c-1.701,1.426-3.573,2.754-5.599,3.857
		c-0.687-0.166-1.435-0.361-2.103-0.578c-0.004,0.14-0.068,0.246-0.1,0.301c-0.537,1.771-0.609,6.08-0.185,13.009l6.861,3.601
		c0.903-1.646,2.244-4.111,4.011-7.354c1.533-2.801,2.744-5.271,3.58-7.451l0.278,0.791l-0.556,1.41l7.329,4.068
		c0.165,3.079,0.297,5.578,0.316,7.516c0.181,3.443,0.479,6.027,0.861,7.807l6.92,3.77c-0.309,1.479-0.487,2.449-0.471,2.949
		c-0.032,1.625,0.655,2.989,1.923,4.185l6.873,3.327c0.685-0.197,1.688-0.861,3.101-2.012c1.497-1.182,2.613-1.928,3.296-2.261
		l10.548,4.828l-0.827,1.899l1.752,0.965C206.104,260.588,206.84,257.146,208.647,253.714 M182.947,210.336l0.355,0.128
		c1.554,1.198,3.325,2.659,5.191,4.321c2.067,1.842,3.367,2.979,3.884,3.469l-0.875,1.74c-1.41-0.42-3.07-1.963-4.997-4.579
		C185.466,214.062,184.328,212.369,182.947,210.336"/>
	<path fill="#00499C" d="M145.04,196.91c-0.164,0.413-0.252,0.584-0.28,0.633l5.845,2.48l0.739,0.329
		c0.343-0.884,0.921-2.206,1.77-4.017c0.47-1.388,0.818-2.406,1.088-3.045c-0.028-0.08,0.01-0.139,0.037-0.191
		c0.174-0.833-0.131-1.572-0.897-2.273c-0.563-0.523-0.858-1.034-0.92-1.43l0.026-0.195c-0.021-0.084,0.008-0.141-0.014-0.227
		c0.095-0.58-0.049-1.092-0.542-1.498l-0.451-0.469c-0.627-1.333-2.063-4.83-4.3-10.536c-2.261-5.651-4.154-11.962-5.661-18.981
		c-1.51-7.021-2.507-12.123-3.089-15.362c-0.537-3.069-0.795-5.989-0.809-8.706c0.08-5.506,0.547-10.388,1.508-14.641
		c0.181-1.109,0.413-2.189,0.654-3.275l-8.902-4.85c-1.127,4.014-1.757,8.58-1.979,13.809c-0.198,3.102-0.145,6.4,0.037,9.849
		l-0.231,0.308l-0.106,2.789c0.051,0.17,0.106,0.338,0.128,0.421l-0.079,0.027l-0.007,0.137c0.015,0.369,0.033,0.595,0.143,0.796
		l0.021,0.078c3.434,21.113,7.298,36.756,11.547,46.845c0.161,0.37,0.256,0.706,0.381,1.128c0.083,0.123,0.105,0.203,0.129,0.287
		c0.233,0.624,0.545,1.226,0.891,1.91c-0.059,0.109-0.129,0.216-0.188,0.324c0.106,0.062,0.252,0.065,0.398,0.076l-0.4,0.988
		c0.073,0.759,0.518,1.644,1.35,2.597c0.758,0.845,1.127,1.471,1.025,1.915c-0.131,0.637-0.264,0.995-0.375,1.076
		c-0.136-0.006-0.225,0.022-0.283,0.132L145.04,196.91z M135.37,139.695c-0.057-0.025-0.167-0.088-0.188-0.174
		C135.203,139.607,135.313,139.67,135.37,139.695"/>
	<path fill="#00499C" d="M223.123,247.658c-1.161,0.717-2.167,1.379-2.946,2.156c-1.362,1.326-2.146,2.753-2.35,4.428l5.335,3.547
		c3.242-0.858,5.649-1.62,7.328-2.195c0.595-0.18,1.131-0.389,1.616-0.619c2.522,0.592,4.587,1.008,6.075,1.254
		c0.975,0.178,1.88,0.235,2.627,0.287c0.168,0.096,0.269,0.155,0.357,0.271c2.276,0.392,4.62,0.675,7.124,0.892
		c1.15,0.133,2.349,0.284,3.627,0.412c5.948,0.473,12.287,0.728,18.981,0.602c16.883-0.121,33.154-5.914,48.75-17.279
		c2.09-1.488,4.172-3.064,6.096-4.641c1.885-1.475,3.61-2.952,5.317-4.513c0.031-0.05,0.061-0.108,0.117-0.22
		c0.866-1.17,1.7-2.063,2.45-2.653c-0.025-0.083-0.107-0.196-0.131-0.286c1.545-1.791,3.01-3.555,4.402-5.438l-8.793-4.794
		c-0.91,1.28-1.843,2.479-2.811,3.593c-0.661,0.288-1.232,0.822-1.817,1.502c-0.495,0.65-0.906,1.141-1.235,1.607l-0.055-0.032
		l-1.204,1.552c-0.255,0.217-0.55,0.485-0.859,0.666c-1.81,1.368-3.587,2.537-5.292,3.674c-5.307,3.87-10.738,7.031-16.203,9.606
		c-5.5,2.624-12.714,4.887-21.631,6.864c-5.062,0.79-10.144,1.227-15.352,1.23c-3.59,0.041-7.159-0.059-10.764-0.381
		c-4.684-0.426-9.466-1.18-14.352-2.285c-0.335-0.033-0.669-0.072-1.024-0.199c-1.815-0.349-3.609-0.829-5.403-1.453
		c-0.061-0.032-0.168-0.1-0.227-0.119l-0.119,0.075c-0.304-0.091-0.659-0.22-0.965-0.314c0.11,0.197,0.243,0.341,0.38,0.49
		c-1.396,0.597-3.583,1.466-6.535,2.565C223.498,247.643,223.326,247.691,223.123,247.658"/>
	<path fill="#00499C" d="M305.126,166.875c-0.034,0.061-0.065,0.113-0.091,0.166c-1.886,8.025-4.621,15.65-8.381,22.925
		c-1.149,2.226-2.254,4.26-3.332,6.095c0.325-0.184,1.899-2.172,4.92-6.006c3.021-3.838,6.08-7.088,9.252-9.771
		c2.166-1.738,3.884-2.938,5.244-3.479c0.605-0.314,1.757-0.741,3.518-1.215c0.093-0.029,0.256-0.071,0.338-0.104l0.055,0.034
		c0.76-0.081,1.552-0.225,2.346-0.365l1.472,0.03c0.063,0.021,0.063,0.021,0.113,0.054c0.139,0.007,0.282,0.013,0.391-0.068
		l0.056,0.031l0.05,0.031c0.059,0.031,0.059,0.031,0.114,0.058c0.063,0.032,0.063,0.032,0.112,0.062
		c4.431,0.494,8.062,1.551,10.911,3.107c0.713,0.391,1.107,0.604,1.235,0.74c0.592,0.611,2.717,2.201,6.485,4.825l0.029,0.088
		l0.045,0.028c1.615,1.23,2.703,2.891,3.217,4.949c0.027,0.087-0.002,0.148,0.02,0.232c0.058,3.023-0.623,6.355-2.042,9.998
		c-0.606,1.383-1.298,2.646-2.014,3.818c-3.313,5.949-6.7,11.231-10.081,15.729l8.796,4.797c5.014-6.595,8.979-13.336,11.942-20.335
		c1.921-4.574,3.035-8.818,3.285-12.808c-0.837-2.248-1.59-4.796-2.301-7.536c-0.988-1.318-2.08-2.842-3.333-4.592
		c-0.295-0.377-0.56-0.809-0.8-1.15c-2.022-1.891-4.543-3.689-7.468-5.223c-9.675-5.135-17.4-6.78-23.281-5.007l-0.054-0.027
		c-0.202,0.099-1.362,0.535-3.521,1.353c-0.452,0.178-0.909,0.361-1.279,0.512c0.033-0.049,0.065-0.11,0.091-0.162
		c0.066-0.249,0.456-0.963,1.143-2.086c0.297-0.555,0.535-0.986,0.715-1.316c0.035-0.054,0.091-0.164,0.098-0.307
		c0.096-0.304,0.3-0.686,0.522-1.209c0.03-0.196,0.093-0.441,0.187-0.612c0.098-0.304,0.221-0.665,0.464-1.098
		c2.493-23.503-4.488-39.429-21.079-47.694c-9.165-5.501-17.572-4.461-25.146,3.018c0.018-2.91-0.039-5.791-0.301-8.58l-0.031-0.078
		c-2.028-18.992-11.676-30.171-28.843-33.56c-17.394-3.505-30.279,3.647-38.719,21.326c-3.422,7.19-6.229,13.636-8.363,19.24
		c-2.344-4.698-5.397-9.436-9.109-14.235c-8.585-11.029-19.996-14.405-34.075-10.131c-8.945,2.4-14.882,8.844-17.799,19.285
		l8.89,4.855c1.837-7.408,5.475-12.116,11.062-14.127l0.05,0.032c0.478-0.097,1.019-0.298,1.502-0.534
		c0.062,0.023,0.062,0.023,0.082-0.026c3.543-1.271,7.05-1.425,10.6-0.487c4.664,0.979,8.741,3.703,12.245,8.111
		c0.239,0.342,0.471,0.684,0.72,0.897c1.155,1.27,2.377,2.704,3.562,4.435c5.887,7.627,10.649,16.775,14.41,27.523
		c-0.951-6.358,2.867-17.668,11.438-34.012c0.709-1.179,1.371-2.393,2-3.537c0.457-0.963,0.849-1.959,1.303-2.926
		c2.453-4.998,5.301-8.79,8.615-11.471c4.833-5.195,9.448-7.381,13.81-6.635c8.213,1.278,14.628,4.414,19.189,9.341
		c4.251,4.1,6.794,9.894,7.688,17.516c0.322,2.159,0.539,4.495,0.675,6.988c0.103,2.688-0.041,5.683-0.375,8.913
		c0.091-0.029,0.225-0.021,0.302-0.041c-1.487,11.217-5.349,25.857-11.57,43.907c1.938-3.147,7.349-13.587,16.246-31.317
		c2.398-3.891,4.76-7.154,7.041-9.766l0.083-0.021c6.127-7.061,12.1-8.855,17.851-5.434c14.348,6.619,20.32,20.212,17.863,40.885
		l-0.083,0.021c0.023,0.088,0.054,0.172,0.026,0.23c-0.086,0.021-0.149,0.133-0.23,0.162c-0.043,0.324-0.074,0.666-0.207,1.017
		C305.312,166.27,305.152,166.824,305.126,166.875"/>
	<path fill="#00398A" d="M217.292,261.6c-0.298,0.409-0.651,0.791-0.996,1.167l0.298,0.235l0.938-1.199L217.292,261.6z"/>
	<path fill="#00398A" d="M216.296,262.767c0.345-0.376,0.7-0.754,0.996-1.167l-0.875-0.623l-0.916,1.148L216.296,262.767z"/>
	<path fill="#FFE100" d="M248.073,374.006l-29.525,6.359c-15.466,3.074-29.812,5.26-43.172,6.508l-0.101-1.382
		c-23.905,1.101-36.7-1.655-38.428-8.331c-1.714-6.618,8.148-15.183,29.61-25.709c16.164-7.934,35.262-15.213,57.155-21.922
		l0.047-0.076c3.746-3.973,5.173-7.728,4.25-11.289c-2.785-10.756-17.469-12.717-43.983-5.85c-9.25,2.396-18.149,5.249-26.698,8.509
		c-10.205-9.814-19.322-22.487-27.332-38.022c-7.725-14.87-15.998-39.488-24.888-73.818c-8.893-34.334-6.814-59.722,6.216-76.229
		c13.166-16.48,28.482-28.852,46.065-37.023c-4.139-0.591-7.457-1.32-10.028-2.251c-23.188,8.825-42.415,19.633-57.735,32.497
		c-2.56,2.194-5.03,4.498-7.386,6.764c-0.175,0.107-0.367,0.277-0.546,0.506c-5.65,5.455-10.588,11.271-14.926,17.492
		c-19.778,28.135-25.023,60.233-15.656,96.402c6.526,25.195,19.787,55.566,39.741,91.144c2.913,5.321,5.892,10.437,8.913,15.434
		c3.061-2.388,6.148-4.671,9.255-6.884c2.374-1.963,4.881-3.904,7.619-5.9c3.392-2.29,6.998-4.697,10.863-7.108l0.379,0.761
		c-3.68,2.121-7.328,4.412-10.835,6.731c-2.68,1.743-5.4,3.542-8.026,5.517c-1.73,1.369-2.411,4.181-2.069,8.58
		c0.884-1.088,1.824-2.189,2.822-3.307c2.3-2.51,4.971-4.976,7.924-7.521c2.155-1.906,4.541-3.814,7.055-5.756
		c3.047-2.199,6.365-4.53,9.942-6.867c1.771-1.2,3.554-2.331,5.411-3.49c-1.857,1.159-3.64,2.29-5.411,3.49
		c-3.577,2.337-6.896,4.668-9.942,6.867c-2.514,1.941-4.899,3.85-7.055,5.756c-2.953,2.546-5.624,5.012-7.924,7.521
		c-0.998,1.117-1.938,2.219-2.822,3.307c0.335,3.896,1.425,9.082,3.392,15.502c-2.766-4.556-4.997-8.21-6.699-10.967
		c-2.42,3.938-3.946,7.715-4.602,11.368c-0.448,3.012-0.286,5.981,0.44,8.789c3.324,12.833,18.213,20.822,44.636,24.035
		c3.04,0.379,13.689,0.021,31.96-1.216c18.24-1.104,37.223-3.63,57.002-7.587c1.246-0.201,2.403-0.438,3.519-0.666l10.74-2.354
		c5.442-1.226,10.923-2.582,16.392-3.998l22.586-6.342c2.562-0.784,5.066-1.554,7.61-2.397
		c18.903-5.878,35.693-12.125,50.344-18.805c0.396-0.173,0.827-0.397,1.2-0.616c-11.723,2.361-23.573,3.275-35.438,2.729
		c-5.532-0.284-10.533-0.888-15.129-1.784c-4.142,1.316-8.421,2.55-12.834,3.755l-21.387,6.026l-1.314,0.343
		C255.522,372.197,251.77,373.107,248.073,374.006"/>
	<path fill="none" stroke="#FFE100" stroke-width="2.4618" d="M248.073,374.006l-29.525,6.359
		c-15.466,3.074-29.812,5.26-43.172,6.508l-0.101-1.382c-23.905,1.101-36.7-1.655-38.428-8.331
		c-1.714-6.618,8.148-15.183,29.61-25.709c16.164-7.934,35.262-15.213,57.155-21.922l0.047-0.076
		c3.746-3.973,5.173-7.728,4.25-11.289c-2.785-10.756-17.469-12.717-43.983-5.85c-9.25,2.396-18.149,5.249-26.698,8.509
		c-10.205-9.814-19.322-22.487-27.332-38.022c-7.725-14.87-15.998-39.488-24.888-73.818c-8.893-34.334-6.814-59.722,6.216-76.229
		c13.166-16.48,28.482-28.852,46.065-37.023c-4.139-0.591-7.457-1.32-10.028-2.251c-23.188,8.825-42.415,19.633-57.735,32.497
		c-2.56,2.194-5.03,4.498-7.386,6.764c-0.175,0.107-0.367,0.277-0.546,0.506c-5.65,5.455-10.588,11.271-14.926,17.492
		c-19.778,28.135-25.023,60.233-15.656,96.402c6.526,25.195,19.787,55.566,39.741,91.144c2.913,5.321,5.892,10.437,8.913,15.434
		c3.061-2.388,6.148-4.671,9.255-6.884c2.374-1.963,4.881-3.904,7.619-5.9c3.392-2.29,6.998-4.697,10.863-7.108l0.379,0.761
		c-3.68,2.121-7.328,4.412-10.835,6.731c-2.68,1.743-5.4,3.542-8.026,5.517c-1.73,1.369-2.411,4.181-2.069,8.58
		c0.884-1.088,1.824-2.189,2.822-3.307c2.3-2.51,4.971-4.976,7.924-7.521c2.155-1.906,4.541-3.814,7.055-5.756
		c3.047-2.199,6.365-4.53,9.942-6.867c1.771-1.2,3.554-2.331,5.411-3.49c-1.857,1.159-3.64,2.29-5.411,3.49
		c-3.577,2.337-6.896,4.668-9.942,6.867c-2.514,1.941-4.899,3.85-7.055,5.756c-2.953,2.546-5.624,5.012-7.924,7.521
		c-0.998,1.117-1.938,2.219-2.822,3.307c0.335,3.896,1.425,9.082,3.392,15.502c-2.766-4.556-4.997-8.21-6.699-10.967
		c-2.42,3.938-3.946,7.715-4.602,11.368c-0.448,3.012-0.286,5.981,0.44,8.789c3.324,12.833,18.213,20.822,44.636,24.035
		c3.04,0.379,13.689,0.021,31.96-1.216c18.24-1.104,37.223-3.63,57.002-7.587c1.246-0.201,2.403-0.438,3.519-0.666l10.74-2.354
		c5.442-1.226,10.923-2.582,16.392-3.998l22.586-6.342c2.562-0.784,5.066-1.554,7.61-2.397
		c18.903-5.878,35.693-12.125,50.344-18.805c0.396-0.173,0.827-0.397,1.2-0.616c-11.723,2.361-23.573,3.275-35.438,2.729
		c-5.532-0.284-10.533-0.888-15.129-1.784c-4.142,1.316-8.421,2.55-12.834,3.755l-21.387,6.026l-1.314,0.343
		C255.522,372.197,251.77,373.107,248.073,374.006z"/>
	<path fill="#D7BE00" d="M218.548,380.365l29.525-6.359c3.696-0.898,7.449-1.809,11.196-2.776l1.314-0.343l21.387-6.026
		c2.68-0.817,5.346-1.63,7.952-2.491c6.133-1.892,11.995-3.914,17.64-6.04c11.741-4.206,22.301-8.667,31.831-13.343
		c21.476-10.651,31.329-19.272,29.601-25.947c-1.714-6.619-14.499-9.316-38.417-8.093c-14.737,0.681-30.981,2.62-48.779,5.942
		l-33.695,7.807l-1.315,0.341c-3.858,0.999-7.698,2.053-11.474,3.095l-7.896,2.227c-0.85,0.281-1.715,0.507-2.557,0.785
		c-0.404,0.104-0.808,0.209-1.186,0.371l-0.062,0.016c-21.894,6.709-40.991,13.988-57.156,21.914
		c-21.461,10.534-31.323,19.099-29.609,25.717c1.728,6.676,14.522,9.432,38.428,8.331
		C188.475,384.833,202.877,383.123,218.548,380.365"/>
	<path fill="#FFE100" d="M157.234,320.821c8.543-3.258,17.442-6.11,26.692-8.507c26.511-6.865,41.202-4.906,43.987,5.848
		c0.922,3.562-0.508,7.318-4.26,11.293l-0.047,0.076l0.064-0.017c0.382-0.163,0.785-0.269,1.189-0.372
		c0.85-0.279,1.713-0.504,2.557-0.785l7.896-2.227c3.775-1.042,7.612-2.094,11.468-3.093l1.326-0.344l33.693-7.807
		c17.786-3.319,34.036-5.259,48.776-5.941c23.923-1.226,36.707,1.472,38.422,8.091c1.728,6.676-8.124,15.296-29.605,25.949
		c-9.53,4.676-20.094,9.137-31.823,13.341l2.363,6.562c11.862,0.554,23.716-0.368,35.438-2.729c0.99-0.438,1.977-0.891,3.025-1.346
		c15.629-7.418,24.122-11.58,25.463-12.602c24.103-16.617,34.378-31.674,30.876-45.189c-1.77-6.838-6.803-12.277-15.072-16.463
		c-0.263-0.115-0.619-0.268-0.97-0.484c-2.867-1.342-6.115-2.525-9.778-3.611c-7.725-2.105-17.191-3.584-28.39-4.424
		c-2.824-0.249-5.755-0.416-8.654-0.461c2.899,0.045,5.83,0.212,8.654,0.461c11.198,0.84,20.665,2.318,28.39,4.424
		c3.663,1.086,6.911,2.27,9.778,3.611l1.254-2.961c0.765-9.837,1.193-16.701,1.217-20.632c0.231-40.805-2.908-73.8-9.431-98.987
		c-9.367-36.176-29.538-61.691-60.492-76.689c-6.518-3.156-13.437-5.728-20.646-7.718l-8.866-2.249
		c-28.913-6.197-63.061-4.167-102.572,6.066c-1.5,0.33-2.992,0.717-4.545,1.119l-2.251,0.582c-0.732,0.25-1.473,0.44-2.278,0.65
		c-2.582,0.668-5.125,1.326-7.643,2.044c-8.831,2.593-17.266,5.327-25.179,8.178c2.571,0.929,5.89,1.66,10.026,2.247
		c-17.577,8.172-32.902,20.547-46.057,37.023c-13.037,16.511-15.108,41.902-6.215,76.237c8.888,34.329,17.161,58.94,24.879,73.811
		C137.906,298.336,147.023,311.009,157.234,320.821"/>
	<path fill="#FFE100" d="M103.54,359.949c0.975-1.478,2.059-2.984,3.312-4.535c-0.343-4.404,0.339-7.211,2.069-8.58
		c-3.106,2.213-6.196,4.492-9.261,6.885C99.771,353.875,101.093,355.924,103.54,359.949"/>
	<path fill="#FFE100" d="M106.853,355.414c-1.254,1.551-2.338,3.058-3.312,4.535c1.707,2.757,3.938,6.411,6.708,10.967
		C108.271,364.498,107.188,359.311,106.853,355.414"/>
	<path fill="#FFE100" d="M127.783,334.586l-0.379-0.761c-3.859,2.411-7.472,4.818-10.863,7.108c-2.735,1.996-5.245,3.938-7.619,5.9
		c2.623-1.973,5.348-3.775,8.026-5.517C120.455,338.998,124.098,336.71,127.783,334.586"/>
	<path fill="#FFED00" d="M345.372,360.16c-0.373,0.219-0.799,0.442-1.2,0.616c-14.65,6.68-31.44,12.927-50.344,18.805
		c-2.544,0.844-5.044,1.612-7.61,2.397c3.788-1.041,7.555-2.14,11.347-3.366c20.4-6.264,38.578-12.87,54.382-19.85
		C349.739,359.266,347.542,359.783,345.372,360.16"/>
	<path fill="#FFE100" d="M300.398,77.012l0.175-1.213c-0.12-1.869-0.396-3.639-0.858-5.424
		c-3.709-14.32-17.486-23.204-41.258-26.618C234.628,40.355,207.471,42.6,177,50.491c-15.127,3.916-28.941,8.66-41.414,14.282
		c-2.098,5.396-2.569,10.24-1.469,14.493c1.685,6.501,5.377,11.003,11.081,13.581c0.623,0.27,1.278,0.471,2.063,0.632
		c7.909-2.849,16.349-5.583,25.192-8.182c2.502-0.712,5.046-1.37,7.635-2.04c0.794-0.206,1.542-0.399,2.279-0.648l2.244-0.582
		c1.554-0.402,3.05-0.789,4.547-1.119c39.512-10.232,73.653-12.264,102.57-6.068C294.664,75.492,297.544,76.217,300.398,77.012"/>
	<path fill="#FFE100" d="M147.262,93.479c-0.785-0.161-1.442-0.365-2.068-0.632c-5.699-2.578-9.392-7.08-11.076-13.582
		c-1.101-4.252-0.629-9.1,1.47-14.488c-12.356,5.593-23.378,12.068-33.024,19.354c-19.188,14.541-26.922,28.995-23.214,43.313
		c0.495,1.903,1.157,3.755,2.05,5.55l0.731-0.252l-0.418-1.613l0.418,1.613c2.366-2.268,4.837-4.571,7.397-6.762
		C104.847,113.112,124.074,102.305,147.262,93.479"/>
	<path fill="none" stroke="#FFE100" stroke-width="2.4618" d="M147.262,93.479c-0.785-0.161-1.442-0.365-2.068-0.632
		c-5.699-2.578-9.392-7.08-11.076-13.582c-1.101-4.252-0.629-9.1,1.47-14.488c-12.356,5.593-23.378,12.068-33.024,19.354
		c-19.188,14.541-26.922,28.995-23.214,43.313c0.495,1.903,1.157,3.755,2.05,5.55l0.731-0.252l-0.418-1.613l0.418,1.613
		c2.366-2.268,4.837-4.571,7.397-6.762C104.847,113.112,124.074,102.305,147.262,93.479z"/>
	
		<path fill="none" stroke="#0E0000" stroke-width="9.5026" stroke-linecap="round" stroke-linejoin="round" stroke-miterlimit="10" d="
		M81.593,133.244c0.188-0.23,0.377-0.396,0.543-0.502 M103.54,359.949c-2.415,3.938-3.941,7.715-4.597,11.368
		c-0.444,3.01-0.289,5.982,0.438,8.789c3.322,12.834,18.215,20.822,44.638,24.035c3.04,0.379,13.689,0.021,31.96-1.216
		c18.24-1.104,37.229-3.631,57.002-7.587c1.24-0.199,2.4-0.438,3.519-0.666l10.737-2.353c5.448-1.229,10.926-2.584,16.395-4
		l22.594-6.343c2.559-0.784,5.059-1.553,7.603-2.396c18.903-5.878,35.698-12.126,50.352-18.806c0.394-0.173,0.819-0.396,1.191-0.619
		c0.991-0.434,1.978-0.887,3.026-1.342c15.629-7.418,24.122-11.58,25.463-12.602c24.099-16.615,34.371-31.673,30.871-45.187
		c-1.771-6.839-6.798-12.28-15.067-16.466 M81.593,133.244c-5.645,5.455-10.585,11.275-14.924,17.498
		c-19.773,28.133-25.023,60.229-15.655,96.4c6.523,25.189,19.788,55.568,39.74,91.142c2.913,5.321,5.896,10.435,8.913,15.434
		c0.097,0.158,1.429,2.204,3.873,6.231 M140.007,328.473c-1.85,1.157-3.64,2.29-5.416,3.492c-3.572,2.335-6.891,4.666-9.943,6.867
		c-2.508,1.939-4.894,3.848-7.047,5.749c-2.951,2.549-5.626,5.017-7.926,7.526c-0.998,1.117-1.945,2.221-2.822,3.307
		c-1.258,1.553-2.338,3.058-3.312,4.535 M341.872,275.58c2.899,0.045,5.83,0.212,8.654,0.461c11.198,0.84,20.665,2.318,28.39,4.424
		c3.661,1.088,6.906,2.271,9.771,3.614c0.358,0.214,0.715,0.366,0.978,0.481 M389.664,284.561c0.142-1.14,0.22-2.264,0.284-3.445
		c0.765-9.837,1.193-16.701,1.217-20.632c0.233-40.8-2.908-73.802-9.431-98.991c-9.367-36.172-29.542-61.685-60.49-76.682
		c-6.52-3.164-13.438-5.73-20.651-7.723 M300.578,75.799l-0.18,1.215 M82.136,132.742c2.359-2.27,4.832-4.566,7.392-6.763
		c15.321-12.864,34.553-23.679,57.734-32.498c7.913-2.853,16.348-5.587,25.192-8.183c2.505-0.713,5.049-1.372,7.635-2.041
		c0.801-0.207,1.542-0.399,2.272-0.65l2.248-0.582c1.556-0.402,3.048-0.789,4.55-1.117c39.512-10.232,73.657-12.266,102.57-6.072
		c2.923,0.656,5.814,1.379,8.669,2.178 M300.398,77.014c0.062,0.044,0.122,0.028,0.194,0.074 M300.593,77.088
		c0.069-0.451,0.022-0.865-0.015-1.289 M300.578,75.799c-0.125-1.865-0.4-3.637-0.863-5.424
		c-3.708-14.317-17.485-23.201-41.252-26.622c-23.838-3.401-50.993-1.157-81.463,6.734c-15.132,3.919-28.939,8.667-41.414,14.288
		c-12.354,5.598-23.377,12.068-33.023,19.354c-19.186,14.545-26.92,29-23.213,43.317c0.493,1.899,1.156,3.751,2.049,5.55
		c0.089,0.094,0.182,0.195,0.194,0.248 M81.717,131.125l0.419,1.617 M260.589,370.886l21.387-6.027
		c2.675-0.815,5.341-1.628,7.946-2.488c6.141-1.896,11.996-3.915,17.648-6.043c11.729-4.204,22.293-8.665,31.823-13.341
		c21.481-10.653,31.329-19.272,29.601-25.947c-1.714-6.619-14.494-9.318-38.417-8.093c-14.744,0.685-30.99,2.622-48.776,5.941
		l-33.693,7.807l-1.326,0.344c-3.855,0.999-7.692,2.051-11.468,3.093l-7.896,2.227c-0.85,0.281-1.707,0.506-2.557,0.785
		c-0.404,0.104-0.808,0.209-1.189,0.372l-0.064,0.017c-21.888,6.707-40.98,13.984-57.156,21.912
		c-21.455,10.534-31.317,19.099-29.604,25.717c1.728,6.676,14.522,9.432,38.421,8.332c13.206-0.659,27.608-2.369,43.279-5.127
		l29.531-6.36c3.69-0.897,7.447-1.809,11.182-2.775"/>
	<path fill="#CD0E19" d="M144.191,263.143c1.664,0.982,3.364,1.154,5.256,0.605l0.059-0.014c3.13-0.932,8.25-3.186,15.259-6.715
		c6.919-3.389,10.401-5.085,10.448-5.098c0.12-0.03,0.242-0.062,0.279-0.137c5.646-3.549,7.855-7.131,6.717-10.815
		c-0.286-1.101-0.729-2.087-1.3-2.855c0.332-0.154,0.686-0.431,1.048-0.704l16.295-9.807c3.114-1.727,4.189-4.453,3.218-8.195
		c-0.534-2.068-1.558-3.646-3.078-4.784l-0.053,0.015c-1.604-1.189-3.346-1.531-5.185-1.055c-0.692,0.18-1.251,0.385-1.691,0.564
		l-0.745-2.873l-13.059,3.382l1.772,6.841l-4.005,2.076c0.668-1.462,0.749-3.26,0.198-5.389c-0.269-1.035-0.616-1.928-1.132-2.709
		l-25.872,6.701c-3.76,2.316-6.267,4.195-7.547,5.687l0.059-0.015c-1.754,1.992-2.326,4.288-1.639,6.938
		c0.505,1.954,1.525,3.528,3.131,4.77c1.609,1.242,3.359,1.584,5.256,1.093c1.09-0.283,2.102-0.915,2.908-1.794l0.18-0.045
		c0.979-1.178,4.291-3.325,9.808-6.411l2.294,8.854c-8.479,4.474-14.394,7.226-17.732,8.282c-1.867,0.604-3.165,1.551-3.947,2.799
		c-2.328-8.787-9.884-14.252-22.668-16.467c-4.434-0.756-7.625-1.955-9.669-3.441l-13.795,3.571
		c3.433,7.569,10.747,12.369,21.946,14.378c6.56,1.183,10.25,3.111,11.093,5.654c0.25,1.165-0.326,2.293-1.646,3.372
		c-1.154,0.974-2.615,1.726-4.4,2.188c-3.614,0.936-7.421,0.693-11.346-0.69l-0.067-0.033c-1.26-0.354-2.439-0.421-3.544-0.135
		c-1.769,0.458-3.078,1.601-4.02,3.437c-0.85,1.879-1.039,3.764-0.518,5.779c0.611,2.604,2.297,4.383,4.915,5.232l-0.059,0.017
		c6.488,2.305,12.54,2.705,18.177,1.246c5.175-1.341,9.315-4.073,12.371-8.176c1.881-2.453,3.109-5.042,3.646-7.693
		C142.406,261.699,143.236,262.53,144.191,263.143"/>
	<path fill="#CD0E19" d="M199.471,248.893c1.831,1.122,3.635,1.449,5.301,1.018c1.839-0.476,3.233-1.756,4.104-3.823
		c3.638-8.426,6.777-14.581,9.415-18.395c1.196,4.901,2.623,9.69,4.277,14.423c1.44,4.348,4.083,6.059,7.998,5.045
		c2.073-0.537,3.485-1.703,4.297-3.572c0.943-1.777,0.972-3.804,0.132-6.107c-1.48-4.52-2.863-9.385-4.026-14.609
		c0.771,1.584,1.562,2.975,2.456,4.277c4.471,6.634,9.902,9.094,16.149,7.414c8.075-2.029,12.907-8.682,14.521-20.02
		c0.445-3.248,0.593-6.475,0.475-9.761c2.766,1.435,5.672,1.724,8.83,0.905c7.548-1.892,12.108-7.979,13.73-18.287
		c1.799,1.018,3.584,1.281,5.422,0.805c2.146-0.492,3.545-1.953,4.32-4.426l-24.959,6.463c-0.544,0.508-1.187,0.859-1.933,1.052
		c-0.402,0.104-0.764,0.142-1.142,0.11l-0.076-0.041c-0.182-0.018-0.431-0.007-0.646-0.136l-17.943,4.646
		c1.1,4.253,1.472,8.761,1.153,13.449c-0.365,5.925-2.133,9.322-5.274,10.197c-0.461,0.119-0.874,0.165-1.31,0.157l-0.061,0.017
		c-1.805-0.141-3.479-3.023-4.954-8.719c-1.086-4.196-1.739-8.143-2.033-11.869l-23.341,6.045c-0.011,0.188,0.019,0.3,0.047,0.412
		l-0.569-0.277l-19.553,5.064l13.155,7.697c-3.076,4.418-6.669,11.428-10.846,20.912c-0.804,1.867-1.019,3.64-0.544,5.238
		C196.551,246.148,197.691,247.695,199.471,248.893"/>
	<path fill="none" stroke="#CD0E19" stroke-width="1.7729" d="M199.471,248.893c1.831,1.122,3.635,1.449,5.301,1.018
		c1.839-0.476,3.233-1.756,4.104-3.823c3.638-8.426,6.777-14.581,9.415-18.395c1.196,4.901,2.623,9.69,4.277,14.423
		c1.44,4.348,4.083,6.059,7.998,5.045c2.073-0.537,3.485-1.703,4.297-3.572c0.943-1.777,0.972-3.804,0.132-6.107
		c-1.48-4.52-2.863-9.385-4.026-14.609c0.771,1.584,1.562,2.975,2.456,4.277c4.471,6.634,9.902,9.094,16.149,7.414
		c8.075-2.029,12.907-8.682,14.521-20.02c0.445-3.248,0.593-6.475,0.475-9.761c2.766,1.435,5.672,1.724,8.83,0.905
		c7.548-1.892,12.108-7.979,13.73-18.287c1.799,1.018,3.584,1.281,5.422,0.805c2.146-0.492,3.545-1.953,4.32-4.426l-24.959,6.463
		c-0.544,0.508-1.187,0.859-1.933,1.052c-0.402,0.104-0.764,0.142-1.142,0.11l-0.076-0.041c-0.182-0.018-0.431-0.007-0.646-0.136
		l-17.943,4.646c1.1,4.253,1.472,8.761,1.153,13.449c-0.365,5.925-2.133,9.322-5.274,10.197c-0.461,0.119-0.874,0.165-1.31,0.157
		l-0.061,0.017c-1.805-0.141-3.479-3.023-4.954-8.719c-1.086-4.196-1.739-8.143-2.033-11.869l-23.341,6.045
		c-0.011,0.188,0.019,0.3,0.047,0.412l-0.569-0.277l-19.553,5.064l13.155,7.697c-3.076,4.418-6.669,11.428-10.846,20.912
		c-0.804,1.867-1.019,3.64-0.544,5.238C196.551,246.148,197.691,247.695,199.471,248.893z"/>
	<path fill="#CD0E19" d="M306.515,216.752c-0.569-0.526-1.181-1.228-1.91-2.146c-1.998-2.488-4.313-3.426-7.02-2.725
		c-1.72,0.446-3.159,1.557-4.281,3.385c-1.052,1.861-1.338,3.836-0.785,5.97c0.312,1.206,0.91,2.339,1.791,3.401
		c5.32,6.786,10.607,9.4,15.824,7.989c5.587-1.388,10.802-5.927,15.556-13.604c6.258-9.96,7.527-21.891,3.794-35.833l-0.017-0.06
		c-0.712-2.518-1.509-4.884-2.454-7.156l-13.466,3.488c0.938,1.971,1.675,4.102,2.256,6.348c1.73,6.673,1.854,12.837,0.407,18.424
		C314.558,210.125,311.344,214.334,306.515,216.752"/>
	<path fill="none" stroke="#CD0E19" stroke-width="1.7729" d="M306.515,216.752c-0.569-0.526-1.181-1.228-1.91-2.146
		c-1.998-2.488-4.313-3.426-7.02-2.725c-1.72,0.446-3.159,1.557-4.281,3.385c-1.052,1.861-1.338,3.836-0.785,5.97
		c0.312,1.206,0.91,2.339,1.791,3.401c5.32,6.786,10.607,9.4,15.824,7.989c5.587-1.388,10.802-5.927,15.556-13.604
		c6.258-9.96,7.527-21.891,3.794-35.833l-0.017-0.06c-0.712-2.518-1.509-4.884-2.454-7.156l-13.466,3.488
		c0.938,1.971,1.675,4.102,2.256,6.348c1.73,6.673,1.854,12.837,0.407,18.424C314.558,210.125,311.344,214.334,306.515,216.752z"/>
	<path fill="#CD0E19" d="M214.354,205.15l23.341-6.045c-0.257-3.125-0.173-6.15,0.11-9.055c0.598-4.57,1.945-7.19,4.028-7.914
		c0.287-0.075,0.517-0.134,0.823-0.149c2.694,0.223,5.162,4.796,7.472,13.714l0.045,0.172l17.938-4.645
		c-1.455-0.67-2.756-3.342-3.962-8c-1.86-7.184-2.469-13.777-1.812-19.778c0.554-4.252,1.831-6.671,3.796-7.364
		c0.229-0.059,0.458-0.119,0.762-0.141c2.507,0.209,4.854,4.514,7.015,12.857c1.056,4.08,1.432,8.396,1.134,12.896
		c-0.333,4.199-1.372,7.042-3.136,8.546l24.964-6.466c0.055-0.264,0.111-0.521,0.226-0.797c1.6-6.121,4.189-9.858,7.746-11.271
		c2.238-0.637,4.438,0.757,6.672,4.164c0.729,1.161,1.41,2.334,2.032,3.586l13.46-3.486c-2.02-4.938-4.584-9.121-7.697-12.615
		c-5.8-6.531-12.17-8.871-18.995-7.043c-5.826,1.447-10.385,5.631-13.644,12.492c-0.256-1.472-0.576-2.923-0.959-4.412
		c-1.478-5.698-3.854-10.61-7.199-14.771c-4.862-6.225-10.488-8.513-16.856-6.799c-6.177,1.48-9.97,7.002-11.36,16.566
		c-0.532,3.634-0.67,7.35-0.491,11.109c-3.876-2.617-8.115-3.361-12.711-2.172c-5.731,1.365-9.476,6.076-11.307,14.158
		c0.039-0.561-0.02-0.979-0.108-1.321c-0.551-2.128-1.677-3.674-3.345-4.655c-1.607-0.994-3.333-1.287-5.125-0.822
		c-3.403,0.823-5.025,3.325-4.76,7.428l0.031,0.117C213.029,191.505,213.638,198.831,214.354,205.15"/>
	<path fill="none" stroke="#CD0E19" stroke-width="1.7729" d="M214.354,205.15l23.341-6.045c-0.257-3.125-0.173-6.15,0.11-9.055
		c0.598-4.57,1.945-7.19,4.028-7.914c0.287-0.075,0.517-0.134,0.823-0.149c2.694,0.223,5.162,4.796,7.472,13.714l0.045,0.172
		l17.938-4.645c-1.455-0.67-2.756-3.342-3.962-8c-1.86-7.184-2.469-13.777-1.812-19.778c0.554-4.252,1.831-6.671,3.796-7.364
		c0.229-0.059,0.458-0.119,0.762-0.141c2.507,0.209,4.854,4.514,7.015,12.857c1.056,4.08,1.432,8.396,1.134,12.896
		c-0.333,4.199-1.372,7.042-3.136,8.546l24.964-6.466c0.055-0.264,0.111-0.521,0.226-0.797c1.6-6.121,4.189-9.858,7.746-11.271
		c2.238-0.637,4.438,0.757,6.672,4.164c0.729,1.161,1.41,2.334,2.032,3.586l13.46-3.486c-2.02-4.938-4.584-9.121-7.697-12.615
		c-5.8-6.531-12.17-8.871-18.995-7.043c-5.826,1.447-10.385,5.631-13.644,12.492c-0.256-1.472-0.576-2.923-0.959-4.412
		c-1.478-5.698-3.854-10.61-7.199-14.771c-4.862-6.225-10.488-8.513-16.856-6.799c-6.177,1.48-9.97,7.002-11.36,16.566
		c-0.532,3.634-0.67,7.35-0.491,11.109c-3.876-2.617-8.115-3.361-12.711-2.172c-5.731,1.365-9.476,6.076-11.307,14.158
		c0.039-0.561-0.02-0.979-0.108-1.321c-0.551-2.128-1.677-3.674-3.345-4.655c-1.607-0.994-3.333-1.287-5.125-0.822
		c-3.403,0.823-5.025,3.325-4.76,7.428l0.031,0.117C213.029,191.505,213.638,198.831,214.354,205.15z"/>
	<path fill="#CD0E19" d="M93.83,231.94c0.373,1.438,0.843,2.792,1.424,4.056l13.797-3.574c-1.136-0.873-1.842-1.914-2.19-3.056
		c-0.294-1.331,0.069-2.535,1.202-3.627c0.05-0.013,0.035-0.069,0.02-0.126c1.168-0.971,2.508-1.691,4.127-2.11
		c4.789-1.177,9.776,0.104,14.973,3.794c0.1,0.15,0.247,0.238,0.393,0.328l10.181-2.637c0.61-1.199,0.709-2.701,0.188-4.473
		c-0.312-1.205-0.982-2.382-1.982-3.6c0.418-0.039,0.896-0.105,1.299-0.211c1.556-0.402,2.751-1.449,3.734-3.115l-0.013-0.055
		c2.255-3.594,5.589-5.928,10.017-7.074c0.974-0.254,1.965-0.449,2.916-0.564l2.975,11.492c-3.221,1.762-6.011,3.342-8.264,4.784
		l25.873-6.701c-1.122-1.979-2.868-3.005-5.216-3.071l-3.455-13.338c0.01-0.678-0.056-1.4-0.233-2.088
		c-0.803-3.107-2.752-4.936-5.855-5.538c-4.146-0.648-8.331-0.428-12.581,0.673c-7.648,1.98-13.42,6.244-17.406,12.859l-0.062,0.016
		c-1.148,1.95-1.44,3.933-0.876,5.874l0.134,0.521c-1.044-0.47-2.141-0.924-3.354-1.344c-3.728-1.371-7.427-2.129-11.102-2.344
		l-0.054,0.014c-2.38,0.064-4.635,0.348-6.819,0.914c-5.113,1.324-8.977,3.979-11.544,8.018
		C93.125,221.141,92.357,226.248,93.83,231.94"/>
	<path fill="#CD0E19" d="M137.755,224.988l-10.181,2.637c1.404,0.924,3.22,1.07,5.346,0.519
		C135.391,227.505,136.967,226.479,137.755,224.988"/>
	<path fill="#CD0E19" d="M190.717,211.271l-0.952-3.677l4.514,2.755l19.553-5.064l-25.058-15.234
		c-1.277-0.652-2.512-0.947-3.763-0.807l-3.098-11.965l2.29-0.593c1.906-0.493,3.266-1.635,4.099-3.389l0.054-0.014
		c0.983-1.667,1.215-3.634,0.648-5.815c-0.563-2.181-1.736-3.845-3.435-4.938l0.016,0.058c-1.629-1.11-3.363-1.4-5.268-0.906
		c-3.726,0.964-7.663,2.597-11.855,4.911c-9.188,5.018-13.056,10.006-11.554,15.078c0.521,2.018,1.661,3.564,3.439,4.756
		c1.836,1.186,3.589,1.524,5.32,1.077c1.728-0.384,3.071-1.591,4.023-3.62l7.967,30.77L190.717,211.271z"/>
	<path fill="#00398A" d="M105.695,357.91c-0.412,0.291-0.866,0.542-1.324,0.793l0.208,0.323l1.283-0.841L105.695,357.91z"/>
	<path fill="#00398A" d="M104.371,358.703c0.458-0.251,0.912-0.502,1.324-0.793l-0.629-0.867l-1.235,0.798L104.371,358.703z"/>
</g>
</svg>
