<?xml version="1.0" encoding="utf-8"?>
<!-- Generator: Adobe Illustrator 16.2.1, SVG Export Plug-In . SVG Version: 6.00 Build 0)  -->
<!DOCTYPE svg PUBLIC "-//W3C//DTD SVG 1.1//EN" "http://www.w3.org/Graphics/SVG/1.1/DTD/svg11.dtd">
<svg version="1.1" id="_x31_" xmlns="http://www.w3.org/2000/svg" xmlns:xlink="http://www.w3.org/1999/xlink" x="0px" y="0px"
	 width="257.986px" height="169.492px" viewBox="0 0 257.986 169.492" enable-background="new 0 0 257.986 169.492"
	 xml:space="preserve">
<path fill="#FFFFFF" d="M245.413,47.081c-4.989-16.006-15.371-27.758-31.176-35.309C198.482,4.21,182.024,3.21,164.775,8.65
	c-17.165,5.55-30.03,15.908-38.533,31.05c-3.258,5.727-5.522,11.576-6.794,17.438c-4.281-3.699-9.214-6.917-14.778-9.573
	c-15.742-7.563-32.199-8.567-49.462-3.124c-17.161,5.554-30.026,15.907-38.529,31.055c-8.612,15.172-10.347,30.84-5.342,46.906
	c5.145,16.102,15.555,27.91,31.348,35.394c15.792,7.485,32.311,8.474,49.505,3.048c17.13-5.406,30-15.768,38.479-30.971
	c3.265-5.727,5.525-11.576,6.808-17.44c4.271,3.708,9.199,6.92,14.765,9.576c15.795,7.485,32.312,8.481,49.498,3.046
	c17.142-5.406,30.007-15.766,38.484-30.969C248.837,78.845,250.565,63.177,245.413,47.081"/>
<ellipse transform="matrix(0.891 -0.454 0.454 0.891 -38.5768 44.1787)" stroke="#3E3A39" stroke-width="7.0655" stroke-linecap="round" stroke-linejoin="round" stroke-miterlimit="10" cx="72.72" cy="102.431" rx="37.123" ry="30.924"/>
<ellipse transform="matrix(0.891 -0.454 0.454 0.891 -11.7578 91.2788)" stroke="#3E3A39" stroke-width="7.0655" stroke-linecap="round" stroke-linejoin="round" stroke-miterlimit="10" cx="184.222" cy="70.127" rx="37.123" ry="30.924"/>
</svg>
