<?xml version="1.0" encoding="utf-8"?>
<!-- Generator: Adobe Illustrator 16.0.0, SVG Export Plug-In . SVG Version: 6.00 Build 0)  -->
<!DOCTYPE svg PUBLIC "-//W3C//DTD SVG 1.1//EN" "http://www.w3.org/Graphics/SVG/1.1/DTD/svg11.dtd">
<svg version="1.1" id="レイヤー_1" xmlns="http://www.w3.org/2000/svg" xmlns:xlink="http://www.w3.org/1999/xlink" x="0px"
	 y="0px" width="163.451px" height="286.488px" viewBox="0 0 163.451 286.488" enable-background="new 0 0 163.451 286.488"
	 xml:space="preserve">
<g>
	<path fill="#094E98" d="M118.108,268.048c54.202,6.408,50.853-24.65,21.341-21.205c0.021-0.021,0.041-0.051,0.063-0.072
		c-3.989,0.459-8.517,1.465-13.561,3.162c-2.988,0.697-6.69,1.975-9.954,2.643c0.567,6.854,0.713,10.869,0.996,13.088l0.002,0.002
		C117.203,267.324,117.494,267.978,118.108,268.048"/>
	<path fill="none" stroke="#094E98" stroke-width="5.824" stroke-linecap="round" stroke-linejoin="round" d="M118.108,268.048
		c54.202,6.408,50.853-24.65,21.341-21.205c0.021-0.021,0.041-0.051,0.063-0.072c-3.989,0.459-8.517,1.465-13.561,3.162
		c-2.988,0.697-6.69,1.975-9.954,2.643c0.567,6.854,0.713,10.869,0.996,13.088l0.002,0.002
		C117.203,267.324,117.494,267.978,118.108,268.048z"/>
	<path fill="#FFFFFF" d="M117.001,265.695c-0.272-2.143-0.424-5.975-0.941-12.414c3.408,1.064,8.793,4.48,9.389,15.467
		c-2.318-0.145-4.758-0.361-7.332-0.666c-0.614-0.074-0.906-0.729-1.113-2.385L117.001,265.695z"/>
	<path fill="#FFFFFF" d="M147.919,246.857c17.029,2.211,18.721,18.391-6.701,21.561C139.77,256.636,143.751,250.265,147.919,246.857
		"/>
	<path fill="#065AA2" d="M116.06,253.283c-0.021-0.227-0.035-0.445-0.055-0.676c3.264-0.67,6.967-1.947,9.954-2.641
		c5.044-1.699,9.572-2.703,13.56-3.166c-0.021,0.025-0.043,0.049-0.064,0.07c3.131-0.361,5.959-0.338,8.465-0.014
		c-4.168,3.408-8.149,9.779-6.701,21.561c-4.418,0.549-9.655,0.705-15.77,0.328C124.852,257.761,119.468,254.345,116.06,253.283"/>
	<path fill="#FFFFFF" d="M143,246.183c-3.633,0.492-3.646,0.502-5.168,1.811c-1.625,1.396-3.57,3.174-4.745,4.98
		c-0.334,0.51-0.542,0.789,0.11,1.074c0.458,0.197,1.05,0.299,1.543,0.285c0.555-0.014,0.887-0.186,1.187-0.646
		C136.326,253.064,141.638,247.414,143,246.183"/>
	<path fill="#094E98" d="M112.722,266.785h0.004c-0.805-2.09-2.58-5.691-5.332-11.994c-3.191,0.959-7.058,1.596-10.016,2.398
		c-5.249,0.898-9.71,2.164-13.439,3.648c0.03,0.012,0.061,0.023,0.093,0.033c-27.616,10.975-15.825,39.902,28.847,8.545
		C113.382,269.056,113.33,268.343,112.722,266.785"/>
	<path fill="none" stroke="#094E98" stroke-width="5.824" stroke-linecap="round" stroke-linejoin="round" d="M112.722,266.785
		h0.004c-0.805-2.09-2.58-5.691-5.332-11.994c-3.191,0.959-7.058,1.596-10.016,2.398c-5.249,0.898-9.71,2.164-13.439,3.648
		c0.03,0.012,0.061,0.023,0.093,0.033c-27.616,10.975-15.825,39.902,28.847,8.545C113.382,269.056,113.33,268.343,112.722,266.785z"
		/>
	<path fill="#FFFFFF" d="M112.733,266.814c-0.776-2.016-2.462-5.457-5.06-11.371c-2.496,2.553-5.615,8.113-0.928,18.066
		c1.973-1.225,4.018-2.574,6.139-4.062c0.507-0.359,0.453-1.074-0.154-2.633H112.733z"/>
	<path fill="#FFFFFF" d="M76.581,264.908c-13.938,10.021-7.751,25.068,16.129,15.795C88.392,269.648,81.865,265.925,76.581,264.908"
		/>
	<path fill="#065AA2" d="M107.673,255.443c-0.092-0.205-0.18-0.406-0.271-0.619c-3.191,0.959-7.058,1.594-10.016,2.395
		c-5.249,0.9-9.709,2.166-13.439,3.652c0.029,0.01,0.062,0.023,0.092,0.033c-2.927,1.164-5.41,2.527-7.459,4.002
		c5.284,1.02,11.811,4.742,16.129,15.797c4.148-1.611,8.831-3.959,14.036-7.193C102.058,263.554,105.177,257.994,107.673,255.443"/>
	<path fill="#FFFFFF" d="M80.593,261.978c3.432-1.291,3.446-1.291,5.405-0.859c2.092,0.459,4.648,1.098,6.54,2.133
		c0.538,0.289,0.851,0.438,0.415,0.998c-0.308,0.391-0.785,0.758-1.224,0.984c-0.493,0.252-0.872,0.256-1.349-0.01
		C89.732,264.867,82.375,262.412,80.593,261.978"/>
	<path fill="#4AA738" d="M77.76,249.062c2.032,4.729,3.319,7.883,3.319,7.883s16.873-0.605,25.573-4.926
		c-0.783-3.029-1.385-5.35-1.865-7.238c-0.848-3.348-1.832-8.5-2.246-10.422c0.434-0.189,8.025-1.975,8.5-2.008
		c0.549,1.883,1.676,6.859,2.516,10.193c0.475,1.893,1.047,4.23,1.795,7.279c9.711-0.324,24.85-7.799,24.85-7.799
		s-0.262-3.469-0.722-8.668c-0.767-8.666-2.087-22.156-3.667-32.414c-0.068-0.43-0.143-0.852-0.215-1.279
		c-4.432,2.984-15.916,9.836-33.841,14.402c-17.943,4.486-31.303,3.906-36.618,3.379c0.139,0.41,0.269,0.82,0.414,1.23
		C69.046,228.501,74.319,241.072,77.76,249.062"/>
	<path fill="none" stroke="#3D7D38" stroke-width="5.6781" d="M77.76,249.062c2.032,4.729,3.319,7.883,3.319,7.883
		s16.873-0.605,25.573-4.926c-0.783-3.029-1.385-5.35-1.865-7.238c-0.848-3.348-1.832-8.5-2.246-10.422
		c0.434-0.189,8.025-1.975,8.5-2.008c0.549,1.883,1.676,6.859,2.516,10.193c0.475,1.893,1.047,4.23,1.795,7.279
		c9.711-0.324,24.85-7.799,24.85-7.799s-0.262-3.469-0.722-8.668c-0.767-8.666-2.087-22.156-3.667-32.414
		c-0.068-0.43-0.143-0.852-0.215-1.279c-4.432,2.984-15.916,9.836-33.841,14.402c-17.943,4.486-31.303,3.906-36.618,3.379
		c0.139,0.41,0.269,0.82,0.414,1.23C69.046,228.501,74.319,241.072,77.76,249.062"/>
	<path fill="#4AA738" d="M77.76,249.062c2.032,4.729,3.319,7.883,3.319,7.883s16.873-0.605,25.573-4.926
		c-0.783-3.029-1.385-5.35-1.865-7.238c-0.848-3.348-1.832-8.5-2.246-10.422c0.434-0.189,8.025-1.975,8.5-2.008
		c0.549,1.883,1.676,6.859,2.516,10.193c0.475,1.893,1.047,4.23,1.795,7.279c9.711-0.324,24.85-7.799,24.85-7.799
		s-0.262-3.469-0.722-8.668c-0.767-8.666-2.087-22.156-3.667-32.414c-0.068-0.43-0.143-0.852-0.215-1.279
		c-4.432,2.984-15.916,9.836-33.841,14.402c-17.943,4.486-31.303,3.906-36.618,3.379c0.139,0.41,0.269,0.82,0.414,1.23
		C69.046,228.501,74.319,241.072,77.76,249.062"/>
	<path fill="#094E98" d="M135.913,201.824c-4.463-27.865-14.646-53.76-26.93-76.942l-2.339-8.154l-54.875,15.661l1.336,7.728
		c0.272,25.694,3.579,52.686,12.576,78.752C73.898,219.763,101.841,220.941,135.913,201.824"/>
	<path fill="none" stroke="#094E98" stroke-width="5.824" stroke-linecap="round" stroke-linejoin="round" d="M135.913,201.824
		c-4.463-27.865-14.646-53.76-26.93-76.942l-2.339-8.154l-54.875,15.661l1.336,7.728c0.272,25.694,3.579,52.686,12.576,78.752
		C73.898,219.763,101.841,220.941,135.913,201.824z"/>
	<path fill="#E37811" d="M56.402,159.494c-9.069,9.018-22.41,24.264-23.934,39.273c1.294-0.254,13.342,8.057,11.112,13.139
		c-1.58,3.586-7.532,0.709-9.37-0.373c1.235,1.113,4.683,10.596,2.295,12.346c-5.458,4.01-9.278-3.951-11.854-9.707
		c0.4,1.986,4.212,10.52,0.714,11.266c-6.036,2.15-9.948-9.449-9.374-10.973c-0.296,2.48,2.628,8.289-3.499,9.051
		c-3.756,0.469-8.639-20.291,10.411-26.309c2.099-15.416,15.622-33.689,24.359-40.217"/>
	<path fill="none" stroke="#E37811" stroke-width="5.6781" d="M56.402,159.494c-9.069,9.018-22.41,24.264-23.934,39.273
		c1.294-0.254,13.342,8.057,11.112,13.139c-1.58,3.586-7.532,0.709-9.37-0.373c1.235,1.113,4.683,10.596,2.295,12.346
		c-5.458,4.01-9.278-3.951-11.854-9.707c0.4,1.986,4.212,10.52,0.714,11.266c-6.036,2.15-9.948-9.449-9.374-10.973
		c-0.296,2.48,2.628,8.289-3.499,9.051c-3.756,0.469-8.639-20.291,10.411-26.309c2.099-15.416,15.622-33.689,24.359-40.217"/>
	<path fill="#F4D924" d="M56.402,159.494c-9.069,9.018-22.41,24.264-23.934,39.273c1.294-0.254,13.342,8.057,11.112,13.139
		c-1.58,3.586-7.532,0.709-9.37-0.373c1.235,1.113,4.683,10.596,2.295,12.346c-5.458,4.01-9.278-3.951-11.854-9.707
		c0.4,1.986,4.212,10.52,0.714,11.266c-6.034,2.15-9.948-9.449-9.374-10.973c-0.296,2.48,2.631,8.287-3.499,9.051
		c-3.756,0.469-8.639-20.291,10.411-26.309c2.099-15.416,15.622-33.689,24.359-40.217"/>
	<path fill="#094E98" d="M14.489,192.548c0,0,23.229,0.912,26.88,2.896c0,0,0.201-11.67,17.167-36.531l-5.574-23.043
		C52.962,135.87,19.25,157.693,14.489,192.548"/>
	<path fill="none" stroke="#094E98" stroke-width="5.824" stroke-linecap="round" stroke-linejoin="round" d="M14.489,192.548
		c0,0,23.229,0.912,26.88,2.896c0,0,0.201-11.67,17.167-36.531l-5.574-23.043C52.962,135.87,19.25,157.693,14.489,192.548z"/>
	<path fill="#1070B2" d="M22.1,169.748l24.326,9.939c1.251-2.678,2.816-5.713,4.757-9.098l-19.456-15.096
		C28.304,159.66,24.957,164.433,22.1,169.748"/>
	<path fill="#E37428" d="M14.489,192.548c0,0,23.229,0.912,26.88,2.896c0,0,0.058-3.34,2.708-10.242l-26.966-3.92
		C15.931,184.865,15.026,188.623,14.489,192.548"/>
	<path fill="#A1C659" d="M17.111,181.283l26.966,3.92c0.625-1.637,1.396-3.473,2.35-5.512L22.1,169.75
		C20.167,173.349,18.459,177.199,17.111,181.283"/>
	<path fill="#E37428" d="M58.538,158.914l-5.573-23.042c0,0-5.061,3.273-11.532,9.31l15.3,16.424
		C57.315,160.726,57.91,159.832,58.538,158.914"/>
	<path fill="#A1C659" d="M56.733,161.605l-15.3-16.426c-3.049,2.844-6.409,6.299-9.706,10.314l19.456,15.096
		C52.766,167.832,54.599,164.841,56.733,161.605"/>
	<path fill="#1070B2" d="M77.39,125.075l-8.95,2.558c2.879,21.771,9.674,66.712,19.346,90.701c4.453-0.594,9.395-1.512,14.741-2.902
		C99.249,202.226,84.023,148.441,77.39,125.075"/>
	<path fill="#1070B2" d="M108.983,124.882l-2.339-8.154l-6.952,1.983c6.38,13.478,18.601,42.931,27.948,87.417
		c2.711-1.309,5.469-2.73,8.272-4.305C131.45,173.958,121.266,148.064,108.983,124.882"/>
	<path fill="#E37428" d="M57.89,130.643l-6.123,1.746l1.338,7.728c0.272,25.694,3.579,52.686,12.576,78.752
		c1.94,0.211,4.994,0.432,8.951,0.408C62.18,177.078,58.79,146.031,57.89,130.643"/>
	<path fill="#A1C659" d="M68.44,127.631l-10.551,3.011c0.9,15.39,4.291,46.435,16.742,88.634c3.651-0.023,8.082-0.27,13.155-0.943
		C78.114,194.345,71.321,149.404,68.44,127.631"/>
	<path fill="#A1C659" d="M99.692,118.711l-10.375,2.962c7.712,20.271,23.341,63.654,26.247,89.623
		c3.891-1.453,7.926-3.164,12.076-5.168C118.292,161.642,106.074,132.189,99.692,118.711"/>
	<path fill="#E37428" d="M89.317,121.673l-11.927,3.401c6.633,23.366,21.858,77.151,25.137,90.36
		c4.123-1.08,8.484-2.434,13.037-4.139C112.656,185.326,97.029,141.944,89.317,121.673"/>
	<polygon fill="#FFFFFF" points="95.628,135.201 85.715,160.531 64.774,142.174 	"/>
	<path fill="#DA3B28" d="M109.314,125.53c-0.114-0.215-0.225-0.433-0.338-0.646l-2.335-8.155L51.762,132.39l1.341,7.727
		c0.005,0.618,0.022,1.243,0.033,1.864C63.662,140.793,82.827,137.053,109.314,125.53"/>
	<path fill="#094E98" d="M44.695,125.138c-1.138,2.619,3.16,12.676,5.543,14.063c14.795,8.638,58.029-5.467,60.018-17.872
		c0.562-3.512,0.348-13.323-3.971-12.418C104.12,109.365,45.622,122.719,44.695,125.138"/>
	<path fill="none" stroke="#094E98" stroke-width="5.824" stroke-linecap="round" stroke-linejoin="round" d="M44.695,125.138
		c-1.138,2.619,3.16,12.676,5.543,14.063c14.795,8.638,58.029-5.467,60.018-17.872c0.562-3.512,0.348-13.323-3.971-12.418
		C104.12,109.365,45.622,122.719,44.695,125.138"/>
	<path fill="#094E98" d="M44.695,125.138c-1.138,2.619,3.16,12.676,5.543,14.063c14.795,8.638,58.029-5.467,60.018-17.872
		c0.562-3.512,0.348-13.323-3.971-12.418C104.12,109.365,45.622,122.719,44.695,125.138"/>
	<path fill="none" stroke="#094E98" stroke-width="5.824" stroke-linecap="round" stroke-linejoin="round" d="M44.695,125.138
		c-1.138,2.619,3.16,12.676,5.543,14.063c14.795,8.638,58.029-5.467,60.018-17.872c0.562-3.512,0.348-13.323-3.971-12.418
		C104.12,109.365,45.622,122.719,44.695,125.138"/>
	<path fill="#094E98" d="M44.695,125.138c-1.138,2.619,3.16,12.676,5.543,14.063c14.795,8.638,58.029-5.467,60.018-17.872
		c0.562-3.512,0.348-13.323-3.971-12.418C104.12,109.365,45.622,122.719,44.695,125.138"/>
	<path fill="none" stroke="#094E98" stroke-width="5.824" stroke-linecap="round" stroke-linejoin="round" d="M44.695,125.138
		c-1.138,2.619,3.16,12.676,5.543,14.063c14.795,8.638,58.029-5.467,60.018-17.872c0.562-3.512,0.348-13.323-3.971-12.418
		C104.12,109.365,45.622,122.719,44.695,125.138"/>
	<path fill="#FFFFFF" d="M44.695,125.138c-1.138,2.619,3.16,12.676,5.543,14.063c14.795,8.638,58.029-5.467,60.018-17.872
		c0.562-3.512,0.348-13.323-3.971-12.418C104.12,109.365,45.622,122.719,44.695,125.138"/>
	<path fill="#FFFFFF" d="M44.695,125.138c-1.138,2.619,3.16,12.676,5.543,14.063c14.795,8.638,58.029-5.467,60.018-17.872
		c0.562-3.512,0.348-13.323-3.971-12.418C104.12,109.365,45.622,122.719,44.695,125.138"/>
	<path fill="#FFFFFF" d="M44.695,125.138c-1.138,2.619,3.16,12.676,5.543,14.063c14.795,8.638,58.029-5.467,60.018-17.872
		c0.562-3.512,0.348-13.323-3.971-12.418C104.12,109.365,45.622,122.719,44.695,125.138"/>
	<path fill="#E37811" d="M103.041,71.406c2.337,9.262,9.961,15.321,17.03,13.537c7.065-1.783,10.897-10.734,8.562-19.996
		c-2.338-9.258-9.959-15.321-17.023-13.538C104.539,53.193,100.704,62.148,103.041,71.406"/>
	<path fill="none" stroke="#E37811" stroke-width="5.6781" d="M103.041,71.406c2.337,9.262,9.961,15.321,17.03,13.537
		c7.065-1.783,10.897-10.734,8.562-19.996c-2.338-9.258-9.959-15.321-17.023-13.538C104.539,53.193,100.704,62.148,103.041,71.406z"
		/>
	<path fill="#E37811" d="M3.524,95.732c2.337,9.259,9.96,15.318,17.027,13.535c7.064-1.783,10.902-10.734,8.565-19.993
		c-2.338-9.262-9.963-15.323-17.028-13.541C5.021,77.517,1.187,86.47,3.524,95.732"/>
	<path fill="none" stroke="#E37811" stroke-width="5.6781" d="M3.524,95.732c2.337,9.259,9.96,15.318,17.027,13.535
		c7.064-1.783,10.902-10.734,8.565-19.993c-2.338-9.262-9.963-15.323-17.028-13.541C5.021,77.517,1.187,86.47,3.524,95.732z"/>
	<path fill="#F4D924" d="M103.041,71.406c2.337,9.262,9.961,15.321,17.03,13.537c7.065-1.783,10.897-10.734,8.562-19.996
		c-2.338-9.258-9.959-15.321-17.023-13.538C104.539,53.193,100.704,62.148,103.041,71.406"/>
	<path fill="#F4D924" d="M3.524,95.732c2.337,9.259,9.96,15.318,17.027,13.535c7.064-1.783,10.902-10.734,8.565-19.993
		c-2.338-9.262-9.963-15.323-17.028-13.541C5.021,77.517,1.187,86.47,3.524,95.732"/>
	<path fill="#E37811" d="M43.523,126.347c-16.195-6.279-26.565-25.359-29.057-47C10.288,43.085,24.692,9.2,46.635,3.663
		c21.947-5.539,50.703,17.454,64.234,51.354c8.451,21.189,6,42.369-4.674,57.204c0,0-12.187,12.686-32.509,15.441
		C73.686,127.662,59.949,132.709,43.523,126.347"/>
	<path fill="none" stroke="#E37811" stroke-width="5.6781" d="M43.523,126.347c-16.195-6.279-26.565-25.359-29.057-47
		C10.288,43.085,24.692,9.2,46.635,3.663c21.947-5.539,50.703,17.454,64.234,51.354c8.451,21.189,6,42.369-4.674,57.204
		c0,0-12.187,12.686-32.509,15.441C73.686,127.662,59.949,132.709,43.523,126.347z"/>
	<path fill="#F4D924" d="M43.523,126.347c-16.195-6.279-26.565-25.359-29.057-47C10.288,43.085,24.692,9.2,46.635,3.663
		c21.947-5.539,50.703,17.454,64.234,51.354c8.451,21.189,6,42.369-4.674,57.204c0,0-12.187,12.686-32.509,15.441
		C73.686,127.662,59.949,132.709,43.523,126.347"/>
	<path fill="#FFFFFF" d="M27.583,66.912c2.203,8.734,10.713,14.121,19.002,12.028c8.289-2.091,13.224-10.87,11.02-19.604
		C55.4,50.603,46.89,45.219,38.603,47.311C30.312,49.403,25.378,58.179,27.583,66.912"/>
	<path fill="#FFFFFF" d="M93.778,50.206c2.205,8.734-2.728,17.513-11.02,19.606c-8.286,2.091-16.793-3.296-18.998-12.03
		c-2.203-8.733,2.729-17.508,11.016-19.6C83.068,36.089,91.575,41.473,93.778,50.206"/>
	<path fill="#231815" d="M36.629,65.454c1.082,4.284,5.257,6.927,9.325,5.9c4.07-1.027,6.493-5.335,5.413-9.619
		c-1.082-4.289-5.26-6.931-9.331-5.903C37.968,56.857,35.547,61.166,36.629,65.454"/>
	<path fill="#E78C14" d="M49.824,87.919c3.203,12.692,13.643,20.994,23.323,18.551s14.933-14.705,11.73-27.397
		c-3.203-12.688-13.647-20.997-23.327-18.554C51.87,62.962,46.621,75.232,49.824,87.919"/>
	<path fill="#231815" d="M85.04,53.235c1.08,4.284-1.341,8.592-5.412,9.62c-4.065,1.026-8.244-1.617-9.325-5.901
		c-1.083-4.288,1.342-8.597,5.407-9.623C79.781,46.305,83.958,48.948,85.04,53.235"/>
	<path fill="none" stroke="#231815" stroke-width="6.5516" stroke-linecap="round" d="M23.822,45.048
		c0,0,26.77-23.096,61.841-16.447"/>
	<path fill="#DA3834" d="M37.31,108.591c0,0,34.893,9.257,69.099-17.438c0,0-3.747,21.05-28.01,28.632
		C78.398,119.785,51.046,128.431,37.31,108.591"/>
	<path fill="#E48EAA" d="M61.521,109.745c1.715,3.03,4.628,8.368,13.002,6.003c11.667-3.292,9.429-9.598,8.852-11.523
		C74.048,107.156,70.297,108.256,61.521,109.745"/>
</g>
</svg>
