<?xml version="1.0" encoding="utf-8"?>
<!-- Generator: Adobe Illustrator 16.0.0, SVG Export Plug-In . SVG Version: 6.00 Build 0)  -->
<!DOCTYPE svg PUBLIC "-//W3C//DTD SVG 1.1//EN" "http://www.w3.org/Graphics/SVG/1.1/DTD/svg11.dtd">
<svg version="1.1" id="レイヤー_1" xmlns="http://www.w3.org/2000/svg" xmlns:xlink="http://www.w3.org/1999/xlink" x="0px"
	 y="0px" width="163.451px" height="322.629px" viewBox="0 0 163.451 322.629" enable-background="new 0 0 163.451 322.629"
	 xml:space="preserve">
<g>
	<path fill="#094E98" d="M118.108,304.19c54.203,6.407,50.853-24.651,21.34-21.205c0.021-0.022,0.042-0.051,0.064-0.072
		c-3.989,0.458-8.516,1.464-13.561,3.161c-2.988,0.698-6.69,1.976-9.955,2.644c0.568,6.853,0.714,10.869,0.997,13.087l0.002,0.002
		C117.203,303.466,117.493,304.12,118.108,304.19"/>
	<path fill="none" stroke="#094E98" stroke-width="5.824" stroke-linecap="round" stroke-linejoin="round" d="M118.108,304.19
		c54.203,6.407,50.853-24.651,21.34-21.205c0.021-0.022,0.042-0.051,0.064-0.072c-3.989,0.458-8.516,1.464-13.561,3.161
		c-2.988,0.698-6.69,1.976-9.955,2.644c0.568,6.853,0.714,10.869,0.997,13.087l0.002,0.002
		C117.203,303.466,117.493,304.12,118.108,304.19z"/>
	<path fill="#FFFFFF" d="M117.002,301.836c-0.273-2.142-0.424-5.974-0.942-12.413c3.408,1.063,8.793,4.48,9.389,15.467
		c-2.318-0.145-4.757-0.361-7.333-0.667c-0.614-0.073-0.906-0.728-1.112-2.384L117.002,301.836z"/>
	<path fill="#FFFFFF" d="M147.919,282.999c17.029,2.211,18.721,18.391-6.7,21.561C139.77,292.777,143.751,286.407,147.919,282.999"
		/>
	<path fill="#065AA2" d="M116.06,289.425c-0.021-0.227-0.035-0.446-0.055-0.677c3.264-0.669,6.968-1.946,9.955-2.64
		c5.044-1.7,9.572-2.704,13.56-3.166c-0.021,0.025-0.043,0.049-0.064,0.07c3.13-0.362,5.958-0.338,8.464-0.014
		c-4.167,3.408-8.149,9.778-6.7,21.561c-4.418,0.548-9.656,0.705-15.77,0.328C124.852,293.903,119.468,290.486,116.06,289.425"/>
	<path fill="#FFFFFF" d="M142.999,282.325c-3.633,0.492-3.646,0.501-5.168,1.81c-1.624,1.396-3.57,3.174-4.745,4.98
		c-0.334,0.511-0.542,0.789,0.11,1.074c0.458,0.198,1.05,0.299,1.544,0.285c0.554-0.013,0.886-0.185,1.186-0.646
		C136.326,289.205,141.638,283.556,142.999,282.325"/>
	<path fill="#094E98" d="M112.723,302.927h0.003c-0.805-2.09-2.58-5.691-5.332-11.994c-3.191,0.958-7.058,1.596-10.015,2.397
		c-5.25,0.899-9.71,2.164-13.44,3.648c0.03,0.013,0.061,0.024,0.093,0.034c-27.616,10.974-15.825,39.901,28.847,8.544
		C113.383,305.198,113.329,304.484,112.723,302.927"/>
	<path fill="none" stroke="#094E98" stroke-width="5.824" stroke-linecap="round" stroke-linejoin="round" d="M112.723,302.927
		h0.003c-0.805-2.09-2.58-5.691-5.332-11.994c-3.191,0.958-7.058,1.596-10.015,2.397c-5.25,0.899-9.71,2.164-13.44,3.648
		c0.03,0.013,0.061,0.024,0.093,0.034c-27.616,10.974-15.825,39.901,28.847,8.544C113.383,305.198,113.329,304.484,112.723,302.927z
		"/>
	<path fill="#FFFFFF" d="M112.733,302.956c-0.776-2.016-2.462-5.458-5.06-11.371c-2.497,2.553-5.616,8.113-0.927,18.066
		c1.972-1.225,4.017-2.575,6.138-4.063c0.507-0.359,0.453-1.073-0.154-2.632H112.733z"/>
	<path fill="#FFFFFF" d="M76.581,301.05c-13.938,10.021-7.751,25.068,16.129,15.795C88.392,305.789,81.865,302.066,76.581,301.05"/>
	<path fill="#065AA2" d="M107.673,291.585c-0.091-0.206-0.18-0.407-0.271-0.62c-3.191,0.959-7.058,1.594-10.016,2.396
		c-5.249,0.9-9.709,2.165-13.438,3.651c0.029,0.011,0.062,0.023,0.092,0.034c-2.927,1.164-5.41,2.527-7.459,4.001
		c5.284,1.02,11.811,4.742,16.129,15.798c4.148-1.611,8.831-3.959,14.036-7.193C102.059,299.696,105.177,294.136,107.673,291.585"/>
	<path fill="#FFFFFF" d="M80.593,298.12c3.432-1.291,3.446-1.291,5.405-0.86c2.092,0.459,4.648,1.098,6.54,2.134
		c0.538,0.289,0.851,0.438,0.415,0.998c-0.308,0.391-0.785,0.758-1.224,0.984c-0.493,0.251-0.872,0.255-1.349-0.01
		C89.732,301.009,82.375,298.554,80.593,298.12"/>
	<path fill="#4AA738" d="M77.76,285.203c2.032,4.729,3.319,7.883,3.319,7.883s16.873-0.604,25.573-4.925
		c-0.783-3.03-1.384-5.351-1.865-7.239c-0.847-3.347-1.833-8.5-2.246-10.422c0.434-0.188,8.025-1.974,8.5-2.007
		c0.549,1.882,1.676,6.858,2.516,10.192c0.475,1.894,1.047,4.23,1.795,7.28c9.71-0.325,24.85-7.8,24.85-7.8
		s-0.262-3.468-0.722-8.668c-0.766-8.666-2.087-22.156-3.667-32.414c-0.068-0.429-0.144-0.852-0.215-1.279
		c-4.432,2.985-15.917,9.836-33.841,14.402c-17.943,4.487-31.303,3.906-36.618,3.38c0.139,0.409,0.269,0.819,0.414,1.229
		C69.046,264.644,74.319,277.213,77.76,285.203"/>
	<path fill="none" stroke="#3D7D38" stroke-width="5.6781" d="M77.76,285.203c2.032,4.729,3.319,7.883,3.319,7.883
		s16.873-0.604,25.573-4.925c-0.783-3.03-1.384-5.351-1.865-7.239c-0.847-3.347-1.833-8.5-2.246-10.422
		c0.434-0.188,8.025-1.974,8.5-2.007c0.549,1.882,1.676,6.858,2.516,10.192c0.475,1.894,1.047,4.23,1.795,7.28
		c9.71-0.325,24.85-7.8,24.85-7.8s-0.262-3.468-0.722-8.668c-0.766-8.666-2.087-22.156-3.667-32.414
		c-0.068-0.429-0.144-0.852-0.215-1.279c-4.432,2.985-15.917,9.836-33.841,14.402c-17.943,4.487-31.303,3.906-36.618,3.38
		c0.139,0.409,0.269,0.819,0.414,1.229C69.046,264.644,74.319,277.213,77.76,285.203"/>
	<path fill="#4AA738" d="M77.76,285.203c2.032,4.729,3.319,7.883,3.319,7.883s16.873-0.604,25.573-4.925
		c-0.783-3.03-1.384-5.351-1.865-7.239c-0.847-3.347-1.833-8.5-2.246-10.422c0.434-0.188,8.025-1.974,8.5-2.007
		c0.549,1.882,1.676,6.858,2.516,10.192c0.475,1.894,1.047,4.23,1.795,7.28c9.71-0.325,24.85-7.8,24.85-7.8
		s-0.262-3.468-0.722-8.668c-0.766-8.666-2.087-22.156-3.667-32.414c-0.068-0.429-0.144-0.852-0.215-1.279
		c-4.432,2.985-15.917,9.836-33.841,14.402c-17.943,4.487-31.303,3.906-36.618,3.38c0.139,0.409,0.269,0.819,0.414,1.229
		C69.046,264.644,74.319,277.213,77.76,285.203"/>
	<path fill="#094E98" d="M135.913,237.965c-4.463-27.865-14.646-53.759-26.93-76.941l-2.339-8.154l-54.875,15.66l1.336,7.729
		c0.272,25.693,3.579,52.686,12.576,78.752C73.898,255.905,101.842,257.082,135.913,237.965"/>
	<path fill="none" stroke="#094E98" stroke-width="5.824" stroke-linecap="round" stroke-linejoin="round" d="M135.913,237.965
		c-4.463-27.865-14.646-53.759-26.93-76.941l-2.339-8.154l-54.875,15.66l1.336,7.729c0.272,25.693,3.579,52.686,12.576,78.752
		C73.898,255.905,101.842,257.082,135.913,237.965z"/>
	<path fill="#E37811" d="M56.402,195.636c-9.069,9.018-22.41,24.263-23.934,39.272c1.294-0.253,13.342,8.057,11.112,13.139
		c-1.58,3.586-7.532,0.71-9.37-0.372c1.235,1.113,4.683,10.595,2.295,12.346c-5.458,4.01-9.278-3.951-11.854-9.708
		c0.4,1.986,4.212,10.52,0.714,11.266c-6.036,2.151-9.948-9.448-9.374-10.973c-0.296,2.48,2.628,8.29-3.499,9.052
		c-3.756,0.468-8.639-20.292,10.411-26.31c2.099-15.416,15.622-33.688,24.359-40.217"/>
	<path fill="none" stroke="#E37811" stroke-width="5.6781" d="M56.402,195.636c-9.069,9.018-22.41,24.263-23.934,39.272
		c1.294-0.253,13.342,8.057,11.112,13.139c-1.58,3.586-7.532,0.71-9.37-0.372c1.235,1.113,4.683,10.595,2.295,12.346
		c-5.458,4.01-9.278-3.951-11.854-9.708c0.4,1.986,4.212,10.52,0.714,11.266c-6.036,2.151-9.948-9.448-9.374-10.973
		c-0.296,2.48,2.628,8.29-3.499,9.052c-3.756,0.468-8.639-20.292,10.411-26.31c2.099-15.416,15.622-33.688,24.359-40.217"/>
	<path fill="#F4D924" d="M56.402,195.636c-9.069,9.018-22.41,24.263-23.934,39.272c1.294-0.253,13.342,8.057,11.112,13.139
		c-1.58,3.586-7.532,0.71-9.37-0.372c1.235,1.113,4.683,10.595,2.295,12.346c-5.458,4.01-9.278-3.951-11.854-9.708
		c0.4,1.986,4.212,10.52,0.714,11.266c-6.034,2.151-9.948-9.448-9.374-10.973c-0.296,2.48,2.631,8.288-3.499,9.052
		c-3.756,0.468-8.639-20.292,10.411-26.31c2.099-15.416,15.622-33.688,24.359-40.217"/>
	<path fill="#094E98" d="M14.489,228.69c0,0,23.229,0.912,26.88,2.896c0,0,0.201-11.671,17.167-36.531l-5.574-23.044
		C52.962,172.012,19.25,193.835,14.489,228.69"/>
	<path fill="none" stroke="#094E98" stroke-width="5.824" stroke-linecap="round" stroke-linejoin="round" d="M14.489,228.69
		c0,0,23.229,0.912,26.88,2.896c0,0,0.201-11.671,17.167-36.531l-5.574-23.044C52.962,172.012,19.25,193.835,14.489,228.69z"/>
	<path fill="#1070B2" d="M22.1,205.889l24.326,9.94c1.251-2.678,2.816-5.713,4.757-9.099l-19.456-15.095
		C28.304,195.802,24.957,200.574,22.1,205.889"/>
	<path fill="#E37428" d="M14.489,228.69c0,0,23.229,0.912,26.88,2.896c0,0,0.058-3.34,2.708-10.242l-26.966-3.921
		C15.931,221.006,15.026,224.765,14.489,228.69"/>
	<path fill="#A1C659" d="M17.111,217.424l26.966,3.921c0.625-1.638,1.396-3.474,2.35-5.513L22.1,205.891
		C20.167,209.49,18.459,213.341,17.111,217.424"/>
	<path fill="#E37428" d="M58.538,195.055l-5.573-23.043c0,0-5.061,3.274-11.532,9.312l15.3,16.424
		C57.315,196.867,57.91,195.973,58.538,195.055"/>
	<path fill="#A1C659" d="M56.733,197.747l-15.3-16.426c-3.049,2.843-6.409,6.299-9.706,10.314l19.456,15.095
		C52.766,203.973,54.599,200.982,56.733,197.747"/>
	<path fill="#1070B2" d="M77.39,161.217l-8.95,2.558c2.879,21.771,9.674,66.713,19.346,90.7c4.453-0.593,9.396-1.512,14.741-2.901
		C99.249,238.368,84.023,184.583,77.39,161.217"/>
	<path fill="#1070B2" d="M108.983,161.023l-2.339-8.154l-6.952,1.984c6.38,13.478,18.601,42.931,27.948,87.416
		c2.712-1.308,5.47-2.73,8.273-4.305C131.45,210.1,121.266,184.206,108.983,161.023"/>
	<path fill="#E37428" d="M57.89,166.784l-6.123,1.746l1.338,7.728c0.272,25.693,3.579,52.686,12.576,78.753
		c1.94,0.211,4.994,0.432,8.951,0.408C62.18,213.22,58.79,182.173,57.89,166.784"/>
	<path fill="#A1C659" d="M68.44,163.773l-10.551,3.011c0.9,15.39,4.291,46.436,16.742,88.635c3.651-0.024,8.082-0.27,13.155-0.944
		C78.114,230.487,71.321,185.546,68.44,163.773"/>
	<path fill="#A1C659" d="M99.692,154.854l-10.375,2.961c7.712,20.271,23.341,63.655,26.247,89.623
		c3.892-1.452,7.926-3.163,12.076-5.168C118.293,197.784,106.073,168.33,99.692,154.854"/>
	<path fill="#E37428" d="M89.317,157.814l-11.927,3.402c6.633,23.366,21.858,77.151,25.137,90.359
		c4.122-1.079,8.483-2.434,13.036-4.139C112.656,221.467,97.029,178.086,89.317,157.814"/>
	<polygon fill="#FFFFFF" points="95.628,171.342 85.715,196.673 64.774,178.315 	"/>
	<path fill="#DA3B28" d="M109.313,161.672c-0.114-0.215-0.224-0.434-0.337-0.646l-2.335-8.155l-54.879,15.661l1.341,7.727
		c0.005,0.618,0.022,1.243,0.033,1.864C63.662,176.935,82.827,173.194,109.313,161.672"/>
	<path fill="#094E98" d="M44.695,161.279c-1.138,2.619,3.16,12.677,5.543,14.064c14.795,8.638,58.03-5.467,60.018-17.873
		c0.562-3.512,0.348-13.322-3.971-12.418C104.12,145.506,45.622,158.86,44.695,161.279"/>
	<path fill="none" stroke="#094E98" stroke-width="5.824" stroke-linecap="round" stroke-linejoin="round" d="M44.695,161.279
		c-1.138,2.619,3.16,12.677,5.543,14.064c14.795,8.638,58.03-5.467,60.018-17.873c0.562-3.512,0.348-13.322-3.971-12.418
		C104.12,145.506,45.622,158.86,44.695,161.279"/>
	<path fill="#094E98" d="M44.695,161.279c-1.138,2.619,3.16,12.677,5.543,14.064c14.795,8.638,58.03-5.467,60.018-17.873
		c0.562-3.512,0.348-13.322-3.971-12.418C104.12,145.506,45.622,158.86,44.695,161.279"/>
	<path fill="none" stroke="#094E98" stroke-width="5.824" stroke-linecap="round" stroke-linejoin="round" d="M44.695,161.279
		c-1.138,2.619,3.16,12.677,5.543,14.064c14.795,8.638,58.03-5.467,60.018-17.873c0.562-3.512,0.348-13.322-3.971-12.418
		C104.12,145.506,45.622,158.86,44.695,161.279"/>
	<path fill="#094E98" d="M44.695,161.279c-1.138,2.619,3.16,12.677,5.543,14.064c14.795,8.638,58.03-5.467,60.018-17.873
		c0.562-3.512,0.348-13.322-3.971-12.418C104.12,145.506,45.622,158.86,44.695,161.279"/>
	<path fill="none" stroke="#094E98" stroke-width="5.824" stroke-linecap="round" stroke-linejoin="round" d="M44.695,161.279
		c-1.138,2.619,3.16,12.677,5.543,14.064c14.795,8.638,58.03-5.467,60.018-17.873c0.562-3.512,0.348-13.322-3.971-12.418
		C104.12,145.506,45.622,158.86,44.695,161.279"/>
	<path fill="#FFFFFF" d="M44.695,161.279c-1.138,2.619,3.16,12.677,5.543,14.064c14.795,8.638,58.03-5.467,60.018-17.873
		c0.562-3.512,0.348-13.322-3.971-12.418C104.12,145.506,45.622,158.86,44.695,161.279"/>
	<path fill="#FFFFFF" d="M44.695,161.279c-1.138,2.619,3.16,12.677,5.543,14.064c14.795,8.638,58.03-5.467,60.018-17.873
		c0.562-3.512,0.348-13.322-3.971-12.418C104.12,145.506,45.622,158.86,44.695,161.279"/>
	<path fill="#FFFFFF" d="M44.695,161.279c-1.138,2.619,3.16,12.677,5.543,14.064c14.795,8.638,58.03-5.467,60.018-17.873
		c0.562-3.512,0.348-13.322-3.971-12.418C104.12,145.506,45.622,158.86,44.695,161.279"/>
	<path fill="#E37811" d="M103.041,107.547c2.337,9.262,9.961,15.321,17.03,13.537c7.066-1.782,10.898-10.734,8.561-19.995
		c-2.337-9.258-9.959-15.321-17.023-13.538C104.539,89.334,100.704,98.289,103.041,107.547"/>
	
		<ellipse transform="matrix(-0.9696 0.2447 -0.2447 -0.9696 253.676 177.1219)" fill="none" stroke="#E37811" stroke-width="5.6781" cx="115.836" cy="104.318" rx="13.197" ry="17.293"/>
	<path fill="#E37811" d="M3.524,131.873c2.337,9.26,9.96,15.318,17.027,13.535c7.064-1.783,10.902-10.734,8.565-19.993
		c-2.338-9.262-9.963-15.323-17.028-13.54C5.021,113.658,1.187,122.611,3.524,131.873"/>
	<path fill="none" stroke="#E37811" stroke-width="5.6781" d="M3.524,131.873c2.337,9.26,9.96,15.318,17.027,13.535
		c7.064-1.783,10.902-10.734,8.565-19.993c-2.338-9.262-9.963-15.323-17.028-13.54C5.021,113.658,1.187,122.611,3.524,131.873z"/>
	<path fill="#F4D924" d="M103.041,107.547c2.337,9.262,9.961,15.321,17.03,13.537c7.066-1.782,10.898-10.734,8.561-19.995
		c-2.337-9.258-9.959-15.321-17.023-13.538C104.539,89.334,100.704,98.289,103.041,107.547"/>
	<path fill="#F4D924" d="M3.524,131.873c2.337,9.26,9.96,15.318,17.027,13.535c7.064-1.783,10.902-10.734,8.565-19.993
		c-2.338-9.262-9.963-15.323-17.028-13.54C5.021,113.658,1.187,122.611,3.524,131.873"/>
	<path fill="#E37811" d="M43.523,162.488c-16.195-6.279-26.565-25.359-29.057-47c-4.179-36.262,10.226-70.146,32.168-75.684
		c21.947-5.539,50.702,17.453,64.234,51.354c8.451,21.189,5.999,42.369-4.674,57.204c0,0-12.188,12.687-32.509,15.44
		C73.686,163.803,59.949,168.851,43.523,162.488"/>
	<path fill="none" stroke="#E37811" stroke-width="5.6781" d="M43.523,162.488c-16.195-6.279-26.565-25.359-29.057-47
		c-4.179-36.262,10.226-70.146,32.168-75.684c21.947-5.539,50.702,17.453,64.234,51.354c8.451,21.189,5.999,42.369-4.674,57.204
		c0,0-12.188,12.687-32.509,15.44C73.686,163.803,59.949,168.851,43.523,162.488z"/>
	<path fill="#F4D924" d="M43.523,162.488c-16.195-6.279-26.565-25.359-29.057-47c-4.179-36.262,10.226-70.146,32.168-75.684
		c21.947-5.539,50.702,17.453,64.234,51.354c8.451,21.189,5.999,42.369-4.674,57.204c0,0-12.188,12.687-32.509,15.44
		C73.686,163.803,59.949,168.851,43.523,162.488"/>
	<path fill="#FFFFFF" d="M27.583,103.054c2.203,8.734,10.713,14.121,19.002,12.028c8.289-2.092,13.224-10.871,11.02-19.605
		C55.4,86.744,46.89,81.361,38.603,83.453C30.312,85.545,25.378,94.32,27.583,103.054"/>
	<path fill="#FFFFFF" d="M93.778,86.348c2.205,8.734-2.728,17.513-11.02,19.605c-8.286,2.091-16.793-3.297-18.998-12.03
		c-2.203-8.733,2.729-17.509,11.016-19.601C83.068,72.23,91.575,77.614,93.778,86.348"/>
	<path fill="#231815" d="M36.629,101.596c1.082,4.283,5.257,6.926,9.325,5.899c4.07-1.027,6.493-5.335,5.413-9.619
		c-1.082-4.288-5.26-6.931-9.331-5.903C37.968,92.999,35.547,97.307,36.629,101.596"/>
	<path fill="#E78C14" d="M49.824,124.061c3.203,12.693,13.643,20.994,23.323,18.551c9.68-2.442,14.933-14.705,11.73-27.396
		c-3.203-12.688-13.647-20.996-23.327-18.555C51.87,99.104,46.621,111.374,49.824,124.061"/>
	<path fill="#231815" d="M85.04,89.377c1.08,4.284-1.341,8.592-5.412,9.62c-4.065,1.026-8.244-1.616-9.325-5.901
		c-1.083-4.287,1.342-8.596,5.407-9.622C79.781,82.447,83.958,85.09,85.04,89.377"/>
	<path fill="none" stroke="#231815" stroke-width="6.5516" stroke-linecap="round" d="M23.822,81.189
		c0,0,26.77-23.096,61.841-16.446"/>
	<path fill="#DA3834" d="M37.31,144.732c0,0,34.893,9.258,69.099-17.438c0,0-3.747,21.05-28.01,28.631
		C78.398,155.926,51.046,164.572,37.31,144.732"/>
	<path fill="#E48EAA" d="M61.521,145.887c1.715,3.029,4.628,8.367,13.002,6.003c11.667-3.292,9.429-9.598,8.852-11.523
		C74.048,143.297,70.297,144.398,61.521,145.887"/>
	<path fill="#0E0205" d="M74.73,41.692c-2.677,2.065-4.775,3.632-8.022,4.772c-2.988,1.052-6.397,0.875-9.158-0.477
		c-1.292,2.65-4.261,4.097-7.069,4.627c-2.211,0.418-5.386,0.229-7.972-0.705c-4.389,3.538-9.261,5.33-15.083,5.723
		c-3.263,0.222-6.354-0.895-9.167-2.331c-3.173-1.622-11.395-9.043-11.254-9.011c2.995,0.678,5.381,1.08,8.273,0.666
		c2.123-0.307,4.084-0.838,5.96-1.593c-0.239-0.124-0.471-0.244-0.71-0.364c-6.869-3.56-8.652-13.959-7.628-12.938
		c3.998,2.816,8.622,3.418,13.286,3.023c-0.571-0.384-1.047-0.873-1.589-1.256c-10.132-7.16-6.833-18.475-6.685-18.142
		c0.3,0.659,4.88,7.406,8.414,8.739c1.54,0.58,3.098,0.732,4.667,0.826c-1.089-2.083-1.957-4.274-2.644-6.561
		c-3.25-10.83,3.362-14.876,3.451-15.004c0.073-0.108,1.216,4.924,5.534,9.071c1.095,1.049,2.212,2.068,3.452,2.957
		c0.243-0.726,0.519-1.45,0.864-2.18c1.11-2.332,2.932-4.216,4.807-5.974c2.25-2.106,7.854-5.873,7.784-5.545
		c-0.155,0.721-0.407,1.375-0.717,1.995c-1.127,3.431-1.812,6.817-1.885,10.512c-0.041,1.971,0.291,3.838,0.754,5.671
		c1.453-0.984,2.881-1.996,4.153-3.256c2.739-2.703,4.838-6.398,5.487-10.136c0.031-0.155,3.828,7.481,2.726,11.648
		c3.281-2.179,7.143-3.567,10.213-2.787c0.23,0.058-5.487,7.632-6.792,11.411c-0.812,2.35-1.136,4.852-1.546,7.312
		c0.813-0.297,1.616-0.626,2.412-1.021c4.232-2.107,10.685-12.322,10.68-12.072c-0.124,5.365-0.097,9.778-3.205,14.438
		c-0.647,0.965-1.391,1.844-2.21,2.657c0.892-0.437,1.797-0.837,2.777-1.136c3.702-1.125,7.064-1.609,10.588,0.109
		C88.154,35.598,78.528,38.759,74.73,41.692"/>
</g>
</svg>
