<?xml version="1.0" encoding="utf-8"?>
<!-- Generator: Adobe Illustrator 16.0.0, SVG Export Plug-In . SVG Version: 6.00 Build 0)  -->
<!DOCTYPE svg PUBLIC "-//W3C//DTD SVG 1.1//EN" "http://www.w3.org/Graphics/SVG/1.1/DTD/svg11.dtd">
<svg version="1.1" id="レイヤー_1" xmlns="http://www.w3.org/2000/svg" xmlns:xlink="http://www.w3.org/1999/xlink" x="0px"
	 y="0px" width="80.689px" height="55.661px" viewBox="0 0 80.689 55.661" enable-background="new 0 0 80.689 55.661"
	 xml:space="preserve">
<path fill="#0E0205" d="M67.729,41.692c-2.677,2.065-4.775,3.632-8.022,4.772c-2.988,1.052-6.397,0.875-9.158-0.477
	c-1.292,2.651-4.261,4.097-7.069,4.628c-2.211,0.417-5.387,0.228-7.973-0.706c-4.389,3.539-9.26,5.331-15.083,5.723
	c-3.263,0.222-6.354-0.895-9.167-2.331c-3.173-1.622-11.395-9.043-11.254-9.01c2.995,0.678,5.381,1.08,8.273,0.665
	c2.123-0.306,4.084-0.837,5.96-1.592c-0.239-0.124-0.471-0.244-0.71-0.364c-6.869-3.56-8.652-13.959-7.628-12.938
	c3.998,2.817,8.622,3.418,13.286,3.024c-0.571-0.384-1.047-0.873-1.589-1.256c-10.132-7.16-6.833-18.475-6.685-18.141
	c0.3,0.659,4.88,7.406,8.414,8.739c1.54,0.58,3.098,0.733,4.667,0.827c-1.089-2.083-1.957-4.274-2.644-6.561
	c-3.25-10.83,3.362-14.875,3.451-15.003c0.073-0.108,1.216,4.923,5.533,9.071c1.096,1.049,2.213,2.068,3.452,2.957
	c0.243-0.725,0.519-1.45,0.864-2.18c1.109-2.332,2.932-4.215,4.807-5.973c2.251-2.107,7.854-5.874,7.785-5.545
	c-0.155,0.72-0.408,1.374-0.718,1.995c-1.127,3.431-1.812,6.817-1.886,10.512c-0.041,1.971,0.291,3.838,0.754,5.67
	c1.453-0.984,2.881-1.995,4.153-3.255c2.739-2.704,4.838-6.398,5.487-10.136c0.03-0.155,3.827,7.481,2.726,11.648
	c3.281-2.179,7.144-3.568,10.214-2.787c0.229,0.058-5.488,7.632-6.793,11.411c-0.812,2.35-1.135,4.851-1.546,7.312
	c0.813-0.297,1.616-0.626,2.412-1.021c4.232-2.108,10.685-12.322,10.68-12.072c-0.124,5.365-0.097,9.778-3.204,14.437
	c-0.647,0.965-1.391,1.844-2.211,2.658c0.892-0.437,1.797-0.837,2.777-1.135c3.701-1.126,7.064-1.61,10.588,0.108
	C81.153,35.598,71.527,38.759,67.729,41.692"/>
</svg>
