<?xml version="1.0" encoding="utf-8"?>
<!-- Generator: Adobe Illustrator 16.0.0, SVG Export Plug-In . SVG Version: 6.00 Build 0)  -->
<!DOCTYPE svg PUBLIC "-//W3C//DTD SVG 1.1//EN" "http://www.w3.org/Graphics/SVG/1.1/DTD/svg11.dtd">
<svg version="1.1" id="レイヤー_1" xmlns="http://www.w3.org/2000/svg" xmlns:xlink="http://www.w3.org/1999/xlink" x="0px"
	 y="0px" width="116.996px" height="83.981px" viewBox="0 0 116.996 83.981" enable-background="new 0 0 116.996 83.981"
	 xml:space="preserve">
<g>
	<path fill="#E37811" d="M0.963,37.077c3.114,1.123,44.936,46.399,79.086-2.789c-2.768-2.274-11.581-0.256-6.822-9.303
		c3.213-6.103,9.986-0.736,11.938-0.777c-1.557-5.009,5.817-24.193,12.644-21.016c10.548,4.913-2.814,13.188-2.671,16.773
		c2.716-2.233,16.21-8.501,18.841,3.445c1.832,8.287-11.03,8.29-11.513,6.883c1.011,1.259,3.222,15.334-14.729,10.096
		C45.97,94.619,2.357,49.618,0.986,49.669"/>
	<path fill="none" stroke="#E37811" stroke-width="5.6781" d="M0.963,37.077c3.114,1.123,44.936,46.399,79.086-2.789
		c-2.768-2.274-11.581-0.256-6.822-9.303c3.213-6.103,9.986-0.736,11.938-0.777c-1.557-5.009,5.817-24.193,12.644-21.016
		c10.548,4.913-2.814,13.188-2.671,16.773c2.716-2.233,16.21-8.501,18.841,3.445c1.832,8.287-11.03,8.29-11.513,6.883
		c1.011,1.259,3.222,15.334-14.729,10.096C45.97,94.619,2.357,49.618,0.986,49.669"/>
	<path fill="#F4D924" d="M95.138,19.966c-0.144-3.586,13.219-11.86,2.671-16.771c-6.826-3.18-14.2,16.004-12.644,21.014
		c-1.952,0.041-8.726-5.325-11.938,0.777c-4.76,9.045,4.055,7.028,6.823,9.303c-1.694,2.441-3.409,4.64-5.14,6.635
		c-2.584,2.982-5.201,5.491-7.83,7.566c-3.16,2.492-6.334,4.365-9.492,5.723c-3.816,1.638-7.605,2.524-11.312,2.822
		c-4.256,0.344-8.4-0.074-12.342-1.003c0.325,3.107,0.9,6.987,1.912,10.673c4.534,0.616,9.361,0.618,14.384-0.298
		c4.318-0.791,8.783-2.269,13.329-4.627c3.517-1.825,7.08-4.169,10.669-7.144c2.957-2.45,5.933-5.34,8.907-8.688
		c1.535-1.729,3.068-3.568,4.602-5.559c17.486,5.102,15.846-8.118,14.809-9.968c1.191,1.27,13.205,1.015,11.434-7.011
		C111.348,11.465,97.852,17.733,95.138,19.966"/>
	<path fill="#094E98" d="M88.287,49.41c0,0-16.662-9.079-18.857-11.79c0,0-6.239,9.91-27.777,18.801l-1.376,24.648
		C40.276,81.069,73.428,74.931,88.287,49.41"/>
	<path fill="none" stroke="#094E98" stroke-width="5.824" stroke-linecap="round" stroke-linejoin="round" d="M88.287,49.41
		c0,0-16.662-9.079-18.857-11.79c0,0-6.239,9.91-27.777,18.801l-1.376,24.648C40.276,81.069,73.428,74.931,88.287,49.41z"/>
	<path fill="#1070B2" d="M46.093,54.366l5.669,23.339c4.598-1.702,10.115-4.15,15.65-7.581l-11.13-21.122
		C53.33,50.929,49.923,52.804,46.093,54.366"/>
	<path fill="#A1C659" d="M38.404,56.868l1.872,24.201c0.038-0.009,4.784-0.89,11.485-3.365l-5.669-23.338
		C43.693,55.347,41.127,56.2,38.404,56.868"/>
	<path fill="#E37428" d="M28.356,58.331l11.92,22.738l0,0l-1.872-24.201C35.254,57.642,31.904,58.173,28.356,58.331"/>
	<path fill="#A1C659" d="M65.389,41.858c-2.203,2.069-5.266,4.643-9.106,7.144l11.13,21.122c4.86-3.008,9.73-6.774,14.017-11.447
		L65.389,41.858z"/>
	<path fill="#E37428" d="M88.287,49.41c0,0-16.662-9.079-18.857-11.79c0,0-1.406,1.755-4.043,4.236l16.042,16.819
		C83.961,55.917,86.289,52.841,88.287,49.41"/>
</g>
</svg>
