<?xml version="1.0" encoding="utf-8"?>
<!-- Generator: Adobe Illustrator 16.0.0, SVG Export Plug-In . SVG Version: 6.00 Build 0)  -->
<!DOCTYPE svg PUBLIC "-//W3C//DTD SVG 1.1//EN" "http://www.w3.org/Graphics/SVG/1.1/DTD/svg11.dtd">
<svg version="1.1" id="レイヤー_1" xmlns="http://www.w3.org/2000/svg" xmlns:xlink="http://www.w3.org/1999/xlink" x="0px"
	 y="0px" width="208.745px" height="263.44px" viewBox="0 0 208.745 263.44" enable-background="new 0 0 208.745 263.44"
	 xml:space="preserve">
<g>
	<path fill="#265C30" d="M140.664,49.431l-71.559,3.456c4.852,31.794,2.102,57.946-8.238,78.433
		c-0.018,0.025-0.062,0.066-0.088,0.133c-0.934,1.551-1.809,3.164-2.602,4.822c-6.307,12.504-9.432,26.693-9.367,42.564
		c0.09,21.803,6.107,40.359,18.094,55.691c11.828,15.16,26.055,22.732,42.705,22.689c16.602-0.086,30.789-7.771,42.525-23.021
		c11.814-15.428,17.689-34.033,17.605-55.836c-0.041-10.201-1.387-19.691-4.021-28.465c-1.367-4.461-3.104-8.643-5.248-12.521
		c-2.572-4.65-5.088-9.305-7.57-13.934l-0.041-0.043C143.482,104.257,139.41,79.588,140.664,49.431"/>
	
		<path fill="none" stroke="#265C30" stroke-width="3.4364" stroke-linecap="round" stroke-linejoin="round" stroke-miterlimit="10" d="
		M69.105,52.887c4.852,31.794,2.102,57.946-8.238,78.433c-0.018,0.025-0.062,0.066-0.088,0.133
		c-0.934,1.551-1.809,3.164-2.602,4.822c-6.307,12.504-9.432,26.693-9.367,42.564c0.09,21.803,6.107,40.359,18.094,55.695
		c11.828,15.156,26.055,22.729,42.705,22.686c16.602-0.086,30.789-7.771,42.525-23.021c11.814-15.428,17.689-34.033,17.605-55.836
		c-0.041-10.201-1.387-19.691-4.021-28.465c-1.367-4.461-3.104-8.646-5.248-12.521c-2.572-4.65-5.088-9.305-7.57-13.934
		l-0.041-0.043c-9.377-19.143-13.449-43.808-12.195-73.969L69.105,52.887z"/>
	<path fill="#99C14F" d="M138.889,51.237l-67.795,3.275c4.521,31.365,1.619,57.24-8.678,77.598c-0.061,0.068-0.109,0.146-0.15,0.238
		c-0.918,1.486-1.77,3.059-2.535,4.668v0.045c-6.201,12.266-9.264,26.203-9.197,41.773c0.078,21.369,5.996,39.584,17.719,54.641
		h0.021c11.461,14.691,25.238,22.023,41.328,22.027c16.088-0.127,29.805-7.57,41.176-22.334v-0.018
		c11.58-15.146,17.332-33.406,17.242-54.777c-0.039-10.033-1.344-19.35-3.93-27.979c-1.324-4.352-3.039-8.406-5.117-12.199v0.018
		c-2.533-4.604-5.043-9.215-7.486-13.777c-0.066-0.088-0.129-0.172-0.174-0.277C142.004,105.185,137.869,80.882,138.889,51.237"/>
	<path fill="#181313" d="M171.273,9.702c-41.939-11.2-78.777-8.804-110.52,7.147C93.98,5.119,130.811,2.746,171.273,9.702"/>
	
		<path fill="none" stroke="#1E1A1A" stroke-width="0.0215" stroke-linecap="round" stroke-linejoin="round" stroke-miterlimit="10" d="
		M60.754,16.85c33.227-11.73,70.059-14.101,110.52-7.147C129.334-1.498,92.496,0.898,60.754,16.85z"/>
	<path fill="#ADB2D0" d="M74.66,63.548c0.873-9.729-2.756-14.414-10.898-14.056l-45.756-0.053
		c-6.545-0.292-10.652,2.152-12.292,7.372c-0.364,1.353-0.672,2.961-0.908,4.853c-0.192,1.007-0.364,2.899-0.523,5.716
		c-0.416,8.999-1.22,17.396-2.432,25.217c-0.893,9.701,2.753,14.369,10.942,14.012l45.749,0.053
		c8.074,0.418,12.57-4.262,13.463-13.99L74.66,63.548z M62.801,60.011c1.1,0.328,1.527,1.485,1.332,3.527l-2.658,29.123
		c-0.168,2-0.838,3.184-1.975,3.52l-45.756-0.053c-1.112-0.324-1.584-1.48-1.413-3.52l2.7-29.132
		c0.194-2.06,0.884-3.239,2.063-3.519L62.801,60.011z"/>
	
		<path fill="none" stroke="#72788D" stroke-width="3.4364" stroke-linecap="round" stroke-linejoin="round" stroke-miterlimit="10" d="
		M62.801,60.011l-45.707-0.053c-1.18,0.279-1.869,1.459-2.063,3.519l-2.7,29.132c-0.171,2.039,0.301,3.195,1.413,3.52L59.5,96.181
		c1.137-0.336,1.807-1.52,1.975-3.52l2.658-29.123C64.328,61.496,63.9,60.339,62.801,60.011z M74.66,63.548l-2.656,29.123
		c-0.893,9.729-5.389,14.408-13.463,13.99l-45.749-0.053c-8.186,0.357-11.835-4.311-10.942-14.012
		c1.212-7.82,2.016-16.218,2.432-25.217c0.159-2.816,0.331-4.709,0.523-5.716c0.236-1.892,0.544-3.5,0.908-4.853
		c1.64-5.22,5.747-7.664,12.292-7.372l45.756,0.053C71.904,49.134,75.533,53.818,74.66,63.548z"/>
	<polygon fill="#C3CBE0" points="56.98,63.38 57.008,41.982 23.407,41.946 23.385,63.339 	"/>
	
		<polygon fill="none" stroke="#72788D" stroke-width="3.4364" stroke-linecap="round" stroke-linejoin="round" stroke-miterlimit="10" points="
		57.008,41.982 23.407,41.946 23.385,63.339 56.98,63.38 	"/>
	<path fill="#ADB2D0" d="M204.515,5.045c-1.691-1.486-3.76-2.214-6.182-2.22l-6.396-0.076c-4.686,0.359-9.605,0.595-14.781,0.65
		c-2.642,0.036-5.325,0.059-8.079,0.054c-18.32-0.345-30.477-0.61-36.43-0.769L79.508,2.038c-11.428-0.242-24.295-0.11-38.625,0.39
		c-3.258,0.101-6.59,0.252-10.006,0.397c-4.378,0.098-8.396,0.093-12.071-0.018l-5.97-0.181l-0.856-0.018
		C9.572,2.604,7.486,3.335,5.746,4.815C4.56,5.861,3.808,7.086,3.444,8.439C3.289,9.018,3.2,10.092,3.198,11.705v3.89
		c-0.001,2.427,0.831,4.486,2.529,6.189c1.737,1.718,4.202,2.668,7.381,2.845h0.026c6.979,0.416,13.959,0.57,20.977,0.451
		c3.163-0.062,8.768-0.274,16.846-0.672c10.723-0.181,21.326-0.168,31.832,0.04l43.324,0.049c6.576,0.376,13.148,0.362,19.719-0.084
		c6.316-0.053,12.627-0.182,18.947-0.319c6.467-0.168,12.933-0.115,19.396,0.129c2.574,0.07,5.154,0.138,7.73,0.199
		c0.494,0,1.012,0,1.506,0.026c1.287,0.044,2.75,0.089,4.383,0.132h0.109h0.402c2.432,0.005,4.492-0.853,6.191-2.566
		c1.725-1.698,2.582-3.758,2.584-6.185l0.006-5.304C207.091,8.395,206.231,6.573,204.515,5.045"/>
	<path fill="#C3CBE0" d="M193.341,24.245c-0.488-0.022-1.01-0.022-1.508-0.022c-2.57-0.067-5.148-0.132-7.729-0.203
		c-6.461-0.242-12.929-0.292-19.39-0.127c-6.316,0.141-12.633,0.263-18.949,0.321c-6.574,0.441-13.145,0.455-19.717,0.085
		l-43.324-0.054c-10.508-0.208-21.115-0.218-31.834-0.035c-8.076,0.402-13.681,0.61-16.84,0.666
		C27.027,25,20.047,24.842,13.064,24.422c0.234,2.195,0.422,4.662,0.552,7.39l0.118,8.357c0,0.279,0,0.58-0.021,0.88
		c-0.092,3.863-0.141,7.563-0.122,11.064l0.488,21.564c0.132,1.785,0.259,3.5,0.409,5.132l0.161,3.567
		c0.361,5.948,0.742,11.536,1.147,16.716c0.083,1.008,0.167,1.998,0.25,2.963c0.191,2.51,0.358,5.092,0.504,7.734
		c0.065,1.135,0.085,2.299,0.085,3.479l-0.005,0.816c-0.039,2.277-0.151,4.531-0.349,6.781c-0.067,0.672-0.107,1.318-0.171,1.936
		v0.133c-0.241,1.91-0.457,3.846-0.656,5.756c-0.277,2.426-0.479,4.857-0.543,7.301c-0.02,0.305-0.02,0.602-0.02,0.902
		c-0.025,0.539-0.003,1.074,0.041,1.613c0.014,0.578,0.085,1.158,0.168,1.736c0.447,2.666,1.11,5.309,1.968,7.902
		c0.405,1.318,0.87,2.648,1.453,3.961c0.341,0.797,1.171,4.23,2.526,10.312c0.551,1.959,0.701,3.756,0.439,5.41
		c-0.256,1.613-0.905,3.076-1.957,4.385c-0.601,0.771-1.074,1.736-1.424,2.877c-0.629,2.039-0.867,4.699-0.696,7.986
		c0.067,1.357,0.193,2.838,0.388,4.426l2.398,42.316l-0.01,6.125c0.517,0.064,1.031,0.152,1.527,0.258
		c1.545,0.389,3.091,0.795,4.612,1.25c1.611,0.07,3.201,0.111,4.815,0.182c1.352,0.15,2.728,0.234,4.079,0.262
		c0.123,0,0.254,0,0.387,0.018c1.5,0.025,3.008,0.029,4.528,0.004c1.379-0.018,2.75-0.057,4.125-0.121
		c1.506-0.061,2.99-0.104,4.449-0.121c1.396-0.02,2.791,0,4.164,0.068c1.357,0.062,2.688,0.111,3.996,0.111
		c1.568-0.018,3.139-0.061,4.746-0.146c1.014-0.062,2.018-0.104,3.033-0.168c3.412-0.229,6.205-0.658,8.377-1.254
		c3.564-1.008,8.033-0.275,13.4,2.227c1.135,0.535,2.342,1.141,3.562,1.826c6.93,3.92,13.869,4.357,20.791,1.338
		c0.561-0.232,1.141-0.471,1.721-0.666c6.639-1.967,13.299-3.721,20.021-5.238c0.283-0.084,0.539-0.174,0.818-0.256
		c0.795-0.256,1.611-0.473,2.404-0.623c1.635-0.32,3.268-0.424,4.9-0.314c0.496,0.045,1.01,0.133,1.504,0.26
		c1.631,0.32,3.24,0.863,4.854,1.57c1.002,0.322,2.035,0.545,3.092,0.695c4.443,0.82,6.848,1.254,7.215,1.316
		c2.92,0.432,5.24,0.65,6.936,0.65c2.812,0.004,5.734-0.115,8.723-0.352c1.828-0.148,4.921-0.445,9.235-0.932l7.221-0.23v-5.502
		c-0.018-0.686-0.018-1.375-0.014-2.037c0.107-17.787,0.859-35.828,2.252-54.123c1-9.672,1.543-16.99,1.662-21.977
		c0.039-2.211,0-3.975-0.125-5.26c-0.213-2.215-0.344-4.062-0.402-5.543c-0.064-1.312-0.043-2.324,0.023-3.049
		c0.133-1.164,0.457-2.449,0.949-3.863c0.176-0.477,0.367-0.969,0.566-1.463c2.342-4.959,3.701-8.738,4.066-11.338
		c0.131-0.99,0.133-1.803-0.018-2.449c-0.617-2.426-1.453-4.363-2.482-5.758c-0.9-1.186-1.373-3.891-1.43-8.143
		c-0.02-0.924,0.004-1.891,0.025-2.949l0.174-5.193v-0.172c-0.014-21.675,0.766-43.001,2.311-64.006
		c0.221-3.005,0.459-6.462,0.742-10.352C196.091,24.338,194.632,24.289,193.341,24.245"/>
	<polygon fill="#ADB2D0" points="11.912,2.404 12.772,2.428 12.27,2.404 	"/>
	<path fill="#C3CBE0" d="M13.616,31.812c-0.13-2.728-0.317-5.197-0.552-7.39h-0.018c0.232,2.386,0.42,4.751,0.547,7.09
		C13.593,31.596,13.593,31.705,13.616,31.812"/>
	<path fill="#ADB2D0" d="M86.428,238.513c-5.367-2.502-9.836-3.234-13.4-2.227c-2.172,0.596-4.965,1.025-8.377,1.254
		c-1.012,0.064-2.02,0.105-3.033,0.174c-1.607,0.08-3.178,0.123-4.746,0.137c-1.309,0.004-2.639-0.039-3.994-0.107
		c-1.375-0.068-2.77-0.088-4.166-0.068c-1.459,0.018-2.943,0.061-4.449,0.121c-1.375,0.064-2.746,0.104-4.125,0.125
		c-1.521,0.021-3.028,0.018-4.53-0.008c-0.131-0.018-0.256-0.018-0.385-0.018c-1.352-0.027-2.728-0.111-4.079-0.262
		c-1.614-0.07-3.204-0.111-4.815-0.182c-0.837,0.023-1.655,0.066-2.472,0.084c-1.221,0.062-2.446,0.107-3.671,0.168
		c-0.322,0.023-0.662,0.023-1.01,0.045c-0.365,0.018-0.727,0.018-1.093,0.018c-3.46,1.693-5.208,4.463-5.212,8.326l-0.005,6.662
		c-0.002,2.426,0.743,4.49,2.272,6.188c1.56,1.719,3.451,2.582,5.621,2.586l168.055,0.195c2.215,0,4.061-0.855,5.586-2.574
		c1.551-1.691,2.328-3.756,2.328-6.182l0.01-6.658c0-2.43-0.768-4.512-2.312-6.23c-1.396-1.547-3.049-2.393-5-2.521l-7.221,0.227
		c-4.314,0.49-7.407,0.787-9.235,0.936c-2.988,0.236-5.91,0.355-8.723,0.352c-1.695,0-4.016-0.219-6.936-0.646
		c-0.367-0.066-2.771-0.5-7.215-1.32c-1.057-0.15-2.09-0.373-3.092-0.689c-1.611-0.713-3.223-1.252-4.854-1.576
		c-0.494-0.127-1.008-0.221-1.504-0.26c-1.633-0.109-3.266-0.006-4.896,0.314c-0.797,0.15-1.613,0.367-2.408,0.623
		c-0.279,0.082-0.535,0.172-0.818,0.256c-6.723,1.518-13.383,3.271-20.021,5.238c-0.58,0.195-1.16,0.428-1.721,0.666
		c-6.922,3.02-13.861,2.582-20.787-1.334C88.77,239.653,87.562,239.048,86.428,238.513"/>
	
		<path fill="none" stroke="#72788D" stroke-width="3.4364" stroke-linecap="round" stroke-linejoin="round" stroke-miterlimit="10" d="
		M13.064,24.422h-0.018c-3.182-0.177-5.649-1.124-7.387-2.839c-1.694-1.705-2.531-3.766-2.526-6.191l0.003-3.891
		c0.002-1.608,0.087-2.683,0.238-3.266C3.746,6.887,4.496,5.663,5.678,4.61c1.742-1.477,3.828-2.209,6.233-2.206l0.856,0.023
		l5.972,0.177c3.673,0.114,7.69,0.12,12.069,0.014c3.418-0.141,6.75-0.293,10.013-0.394C55.146,1.724,68.018,1.592,79.443,1.84
		l53.139,0.645c5.947,0.155,18.105,0.426,36.428,0.765c2.75,0.01,5.438-0.012,8.075-0.048c5.18-0.058,10.1-0.291,14.781-0.65
		l6.4,0.071c2.432,0,4.49,0.738,6.186,2.22c1.717,1.529,2.574,3.354,2.574,5.48l-0.008,5.308c-0.006,2.427-0.867,4.482-2.592,6.185
		c-1.697,1.714-3.76,2.567-6.182,2.567c-0.135,0-0.262,0-0.41,0h-0.109 M197.726,24.382c-1.635-0.044-3.094-0.089-4.385-0.137
		c-0.488-0.022-1.01-0.022-1.508-0.022c-2.57-0.067-5.145-0.132-7.729-0.203c-6.461-0.242-12.929-0.292-19.39-0.127
		c-6.316,0.141-12.633,0.263-18.949,0.317c-6.574,0.445-13.145,0.459-19.717,0.089l-43.322-0.054
		c-10.51-0.208-21.117-0.218-31.836-0.035c-8.076,0.402-13.681,0.61-16.84,0.666C27.027,25,20.047,24.842,13.064,24.422
		 M189.425,237.558v-5.498c-0.018-0.689-0.018-1.373-0.014-2.045c0.107-17.783,0.859-35.824,2.252-54.119
		c1-9.666,1.543-16.996,1.662-21.977c0.039-2.211,0-3.975-0.125-5.26c-0.213-2.219-0.344-4.062-0.402-5.543
		c-0.064-1.309-0.043-2.324,0.023-3.053c0.133-1.16,0.457-2.445,0.949-3.865c0.176-0.471,0.367-0.967,0.566-1.461
		c2.342-4.951,3.701-8.734,4.066-11.334c0.131-0.99,0.133-1.803-0.018-2.449c-0.617-2.426-1.453-4.363-2.482-5.758
		c-0.9-1.186-1.369-3.891-1.43-8.143c-0.02-0.924,0.004-1.891,0.025-2.943l0.174-5.199v-0.172
		c-0.014-21.675,0.766-43.001,2.311-64.006c0.221-3.005,0.459-6.462,0.742-10.352 M12.27,2.404l6.168-0.033 M13.064,24.422
		c0.234,2.192,0.422,4.662,0.552,7.39l0.118,8.357c0,0.279,0,0.58-0.021,0.88c-0.092,3.863-0.141,7.563-0.122,11.064l0.488,21.564
		c0.132,1.785,0.259,3.5,0.409,5.132l0.163,3.567c0.359,5.954,0.742,11.536,1.146,16.716c0.083,1.008,0.167,1.998,0.25,2.963
		c0.191,2.51,0.358,5.092,0.504,7.734c0.067,1.135,0.085,2.293,0.085,3.479l-0.005,0.816c-0.039,2.277-0.151,4.527-0.349,6.781
		c-0.067,0.672-0.107,1.318-0.171,1.941v0.127c-0.241,1.91-0.458,3.846-0.656,5.756c-0.277,2.426-0.479,4.852-0.543,7.301
		c-0.02,0.301-0.02,0.602-0.02,0.902c-0.025,0.539-0.003,1.074,0.041,1.613c0.014,0.578,0.085,1.158,0.168,1.736
		c0.447,2.666,1.11,5.309,1.968,7.908c0.405,1.307,0.87,2.643,1.453,3.955c0.341,0.791,1.171,4.234,2.526,10.312
		c0.555,1.959,0.701,3.762,0.439,5.414c-0.256,1.609-0.905,3.072-1.957,4.381c-0.601,0.77-1.074,1.732-1.419,2.871
		c-0.622,2.045-0.872,4.709-0.698,7.992c0.064,1.357,0.19,2.838,0.385,4.426l2.398,42.316l-0.01,6.125 M189.425,237.558l-7.221,0.23
		c-4.314,0.486-7.407,0.783-9.235,0.932c-2.988,0.23-5.91,0.355-8.723,0.352c-1.695,0.004-4.016-0.219-6.936-0.65
		c-0.367-0.062-2.771-0.5-7.215-1.316c-1.057-0.15-2.09-0.373-3.092-0.689c-1.613-0.713-3.223-1.256-4.854-1.576
		c-0.494-0.127-1.008-0.215-1.504-0.26c-1.633-0.109-3.266-0.006-4.896,0.318c-0.797,0.146-1.613,0.363-2.408,0.619
		c-0.279,0.082-0.535,0.172-0.818,0.256c-6.723,1.518-13.383,3.271-20.021,5.238c-0.58,0.195-1.16,0.428-1.721,0.666
		c-6.922,3.02-13.861,2.582-20.787-1.334c-1.225-0.689-2.432-1.295-3.566-1.83c-5.367-2.502-9.836-3.234-13.4-2.227
		c-2.172,0.596-4.965,1.025-8.377,1.254c-1.012,0.064-2.023,0.105-3.033,0.174c-1.607,0.08-3.178,0.119-4.746,0.137
		c-1.309,0.004-2.639-0.039-3.994-0.107c-1.375-0.068-2.77-0.092-4.166-0.068c-1.459,0.018-2.943,0.061-4.449,0.121
		c-1.375,0.064-2.75,0.104-4.125,0.125c-1.521,0.021-3.028,0.018-4.528-0.008c-0.133-0.018-0.258-0.018-0.387-0.018
		c-1.352-0.027-2.728-0.111-4.079-0.262c-1.614-0.07-3.204-0.111-4.815-0.182c-0.837,0.023-1.655,0.066-2.472,0.084
		c-1.221,0.062-2.446,0.107-3.671,0.168c-0.322,0.023-0.662,0.023-1.01,0.045c-0.36,0.018-0.727,0.018-1.093,0.018
		c-3.46,1.693-5.208,4.463-5.212,8.326l-0.005,6.662c-0.002,2.426,0.743,4.49,2.272,6.188c1.56,1.719,3.451,2.582,5.621,2.582
		l168.055,0.199c2.215,0,4.064-0.857,5.586-2.574c1.551-1.691,2.328-3.756,2.328-6.182l0.01-6.662c0-2.426-0.768-4.508-2.312-6.227
		C193.028,238.532,191.376,237.687,189.425,237.558z"/>
	<path fill="#ADB2D0" d="M177.866,35.229h-0.041c-2.579-0.07-4.813,2.011-6.706,6.219c-2.008,4.143-3.061,9.172-3.158,15.077
		l-0.428,69.164c-1.328,3.023-2.24,6.529-2.689,10.475c-0.221,1.764-0.354,3.613-0.375,5.543c-0.244,4.982,0.377,8.916,1.832,11.775
		l-1.697,55.414c-0.088,5.219,0.697,9.688,2.348,13.449c1.631,3.701,3.668,5.547,6.096,5.547h0.043
		c2.336,0.004,4.45-1.838,6.276-5.533c1.809-3.752,2.783-8.221,2.936-13.441l0.811-65.385c-1.27-1.008-1.93-3.461-2.012-7.346
		c-0.02-0.539-0.02-1.096,0-1.68l2.896-14.211l2.605-63.75c0.117-5.904-0.648-10.936-2.344-15.085
		C182.569,37.248,180.44,35.166,177.866,35.229"/>
	<path fill="#ADB2D0" d="M153.975,41.426c-1.734-4.208-3.9-6.295-6.479-6.236h-0.043c-2.576-0.062-4.791,2.015-6.625,6.223
		c-1.893,4.141-2.887,9.172-2.984,15.071l-0.869,84.936l-1.949,15.379c-0.367,1.887-0.072,5.129,0.932,9.75l0.08,42.316
		c-0.094,5.219,0.717,9.684,2.432,13.445c1.627,3.699,3.668,5.547,6.139,5.551h0.039c2.322,0,4.408-1.842,6.232-5.533
		c1.754-3.758,2.701-8.227,2.857-13.447l-0.156-50.471c-1.459-3.375-1.967-7.244-1.535-11.562l2.984-16.658l1.42-73.682
		c0.07-5.901-0.76-10.931-2.475-15.077V41.426z"/>
	<path fill="#ADB2D0" d="M124.42,41.394c-1.779-4.216-3.924-6.299-6.482-6.235h-0.041c-2.582-0.072-4.791,2.011-6.625,6.219
		c-1.893,4.146-2.846,9.172-2.854,15.076l-0.775,109.851l1.883,8.895c0.453,2.035,0.254,5.992-0.609,11.893l-0.846,21.736
		c-0.006,5.221,0.869,9.691,2.609,13.451c1.688,3.699,3.723,5.547,6.131,5.553h0.041c2.406,0,4.471-1.844,6.195-5.535
		c1.725-3.76,2.613-8.229,2.678-13.445l1.334-152.375C127.094,50.569,126.221,45.54,124.42,41.394"/>
	<path fill="#ADB2D0" d="M88.514,35.122c-2.6-0.066-4.791,2.011-6.582,6.225c-1.812,4.136-2.676,9.167-2.596,15.075l1.182,17.397
		l-0.783,5.583l1.541,82.142l1.406,8.076c1.01,3.633,0.293,8.98-2.119,16.025l-0.117,23.152c-0.025,5.221,0.846,9.689,2.65,13.449
		c1.713,3.701,3.791,5.547,6.223,5.553h0.039c2.387,0,4.43-1.844,6.15-5.535c1.725-3.758,2.59-8.229,2.598-13.445l0.414-25.004
		l1-8.287l-1.543-5.719L97.85,56.439c0.01-5.904-0.908-10.931-2.729-15.08c-1.803-4.213-3.99-6.299-6.568-6.237H88.514z"/>
	<path fill="#ADB2D0" d="M60.07,35.092h-0.039c-2.604-0.07-4.793,2.011-6.541,6.219c-1.789,4.146-2.609,9.166-2.467,15.076
		l3.375,16.797l-2.416,7.778l2.107,76.555c1.473,5.865,2.217,11.537,2.209,17.018l-1.939,8.717l-0.852,25.516
		c0.061,5.219,0.998,9.689,2.824,13.445c1.775,3.699,3.842,5.547,6.223,5.551h0.043c2.406,0.006,4.447-1.844,6.105-5.529
		c1.654-3.76,2.482-8.225,2.422-13.445l-1.094-20.752c-0.059-2.209,0.094-3.91,0.436-5.111c0.322-1.199,0.584-1.996,0.822-2.402
		c0.191-0.41,0.406-0.879,0.602-1.418c0.627-1.637,0.928-3.289,0.91-4.986c0-1.201-0.109-2.383-0.34-3.562
		c-0.365-1.891-0.836-3.762-1.414-5.627l-0.852-5.375l-0.943-77.239c1.725-4.062,2.695-7.067,2.891-8.977l-1.238-6.75l-1.277-10.179
		c-0.102-5.91-1.082-10.937-2.943-15.08C64.795,37.115,62.586,35.03,60.07,35.092"/>
	<path fill="#ADB2D0" d="M31.503,35.056h-0.044c-2.6-0.065-4.747,2.016-6.406,6.224c-1.744,4.143-2.565,8.266-2.464,12.368
		c-0.109,0.684-0.15,1.352-0.086,2.02c0.192,1.547,0.748,2.922,1.627,4.123c0.96,1.313,1.628,2.819,1.971,4.474
		c0.145,0.662,0.32,1.608,0.511,2.877c-0.751,2.042-1.441,4.358-2.07,6.997l-0.994,3.996l3.687,81.455l3.385,9.115
		c1.175,3.416,0.829,6.613-1.041,9.623c-1.572,1.82-2.473,5.537-2.68,11.121c0.598,5.93,0.48,12.354-0.321,19.287
		c0.101,5.219,1.085,9.689,2.903,13.447c1.826,3.703,3.969,5.551,6.395,5.551h0.045c2.343,0.004,4.367-1.844,6.02-5.533
		c1.617-3.758,2.373-8.223,2.295-13.447l-0.447-23.709c1.619-7.023,2.115-11.92,1.52-14.691l-1.662-8.682l-3.558-81.022
		c-0.021-0.862,0.302-1.869,0.992-3.006c0.684-1.14,1.439-3.095,2.283-5.843c0.197-0.774,0.369-1.353,0.52-1.764l-2.525-11.253
		c-0.258-1.312-0.402-2.798-0.424-4.425c0.115-4.558-0.782-8.916-2.692-13.065C36.293,37.08,34.06,34.994,31.503,35.056"/>
	<path fill="#ADB2D0" d="M203.394,77.736l-0.535-15.127c-0.682-9.73-5.078-14.418-13.174-14.06l-45.757-0.057
		c-4.529-0.194-7.668,1.069-9.41,3.814c-0.369,0.84-0.686,1.676-0.949,2.536c-0.275,0.965-0.451,1.972-0.477,3.003
		c-0.02,1.379,0.041,2.73,0.213,4.082c0.166,1.27,0.273,2.516,0.297,3.739c0.02,1.715,0.082,3.414,0.162,5.11
		c0.086,1.551,0.191,3.095,0.299,4.642c0.021,0.366,0.064,0.751,0.082,1.117l1.312,16.841c0.17,1.893,0.531,3.738,1.068,5.543
		c0.15,0.451,0.303,0.924,0.471,1.375c1.865,3.287,4.826,5.096,8.928,5.383c5.672-0.166,11.342-0.051,17.012,0.318
		c2.561,0.027,5.35,0.154,8.383,0.354c4.312,0.205,8.894,0.266,13.7,0.186c2.168-0.168,4.359-0.314,6.574-0.463
		c1.031-0.08,2.078-0.189,3.133-0.297c0.926-0.084,1.826-0.168,2.75-0.252c5.502-1.131,7.977-5.729,7.406-13.781L203.394,77.736z
		 M190.399,59.069c1.141,0.327,1.781,1.49,1.928,3.531c1.219,8.398,1.889,17.336,1.992,26.848c0.361,2.498,0.096,4.318-0.777,5.498
		c-0.066,0.09-0.139,0.15-0.223,0.223c-9.471,1.338-17.786,1.777-24.915,1.338c-7.131-0.436-12.137-0.697-14.992-0.785
		c-2.9-0.111-5.092-0.328-6.572-0.609l-0.902-0.863c-0.361-0.602-0.602-1.459-0.68-2.576l-1.699-19.249l-0.332-9.885
		c-0.146-2.06,0.324-3.24,1.42-3.518L190.399,59.069z"/>
	
		<path fill="none" stroke="#72788D" stroke-width="3.4364" stroke-linecap="round" stroke-linejoin="round" stroke-miterlimit="10" d="
		M202.858,62.609c-0.682-9.73-5.078-14.418-13.174-14.06l-45.757-0.057c-4.529-0.194-7.668,1.069-9.41,3.814
		c-0.369,0.84-0.686,1.676-0.949,2.536c-0.275,0.965-0.451,1.972-0.477,3.003c-0.02,1.379,0.041,2.73,0.213,4.082
		c0.166,1.27,0.273,2.516,0.297,3.739c0.02,1.715,0.082,3.414,0.162,5.11c0.086,1.551,0.191,3.095,0.299,4.642
		c0.021,0.366,0.064,0.751,0.082,1.117l1.312,16.841c0.17,1.893,0.531,3.738,1.068,5.543c0.15,0.451,0.303,0.924,0.471,1.375
		c1.865,3.287,4.826,5.096,8.928,5.383c5.672-0.166,11.342-0.051,17.012,0.318c2.561,0.027,5.35,0.154,8.383,0.354
		c4.312,0.205,8.894,0.266,13.7,0.186c2.168-0.168,4.359-0.314,6.574-0.463c1.031-0.08,2.078-0.189,3.133-0.297
		c0.926-0.084,1.826-0.168,2.75-0.252c5.502-1.131,7.977-5.729,7.406-13.781l-1.488-14.007L202.858,62.609z M190.399,59.069
		l-45.753-0.048c-1.096,0.277-1.566,1.458-1.42,3.518l0.332,9.885l1.699,19.249c0.078,1.117,0.318,1.975,0.68,2.576l0.902,0.863
		c1.48,0.281,3.672,0.498,6.572,0.609c2.855,0.088,7.861,0.35,14.992,0.785c7.129,0.439,15.444,0,24.915-1.338
		c0.084-0.072,0.156-0.133,0.223-0.223c0.873-1.18,1.139-3,0.777-5.498c-0.104-9.512-0.773-18.449-1.992-26.848
		C192.181,60.56,191.54,59.396,190.399,59.069z"/>
	<path fill="#C3CBE0" d="M184.872,46.827c-0.084-1.999-1.307-3.033-3.693-3.06l-16.065-0.101c-2.984-0.135-5.756-0.156-8.289-0.093
		c-3.197-0.072-5.092,0.525-5.654,1.795c-0.324,2.854-0.393,6.143-0.156,9.833l0.07,9.627c0.348,0.274,0.666,0.494,0.994,0.606
		c1.48,0.256,2.938,0.345,4.375,0.256l0.34,0.004h0.607c6.424,0.026,12.676,0.079,18.773,0.106l7.86,0.141
		c0.67-1.612,0.971-3.198,0.947-4.812L184.872,46.827z"/>
	
		<path fill="none" stroke="#72788D" stroke-width="3.4364" stroke-linecap="round" stroke-linejoin="round" stroke-miterlimit="10" d="
		M181.179,43.768l-16.065-0.101c-2.984-0.135-5.756-0.156-8.289-0.093c-3.197-0.072-5.092,0.525-5.654,1.795
		c-0.324,2.854-0.395,6.143-0.158,9.837l0.072,9.623c0.348,0.277,0.666,0.494,0.994,0.606c1.48,0.256,2.938,0.345,4.375,0.256
		l0.344,0.004h0.604c6.424,0.026,12.676,0.079,18.773,0.106l7.86,0.141c0.67-1.608,0.971-3.198,0.947-4.812l-0.109-14.303
		C184.788,44.828,183.565,43.794,181.179,43.768z"/>
</g>
</svg>
