<?xml version="1.0" encoding="utf-8"?>
<!-- Generator: Adobe Illustrator 16.0.0, SVG Export Plug-In . SVG Version: 6.00 Build 0)  -->
<!DOCTYPE svg PUBLIC "-//W3C//DTD SVG 1.1//EN" "http://www.w3.org/Graphics/SVG/1.1/DTD/svg11.dtd">
<svg version="1.1" id="レイヤー_1" xmlns="http://www.w3.org/2000/svg" xmlns:xlink="http://www.w3.org/1999/xlink" x="0px"
	 y="0px" width="216.81px" height="320.079px" viewBox="0 0 216.81 320.079" enable-background="new 0 0 216.81 320.079"
	 xml:space="preserve">
<g>
	<path fill="#265C30" d="M146.426,106.068l-71.56,3.456c4.853,31.793,2.102,57.946-8.237,78.433
		c-0.019,0.025-0.063,0.065-0.089,0.132c-0.934,1.551-1.808,3.165-2.601,4.822c-6.308,12.505-9.432,26.693-9.368,42.565
		c0.09,21.803,6.107,40.358,18.095,55.691c11.827,15.16,26.055,22.731,42.704,22.688c16.603-0.085,30.79-7.771,42.525-23.021
		c11.814-15.429,17.689-34.033,17.605-55.837c-0.041-10.201-1.387-19.691-4.021-28.464c-1.366-4.461-3.103-8.643-5.248-12.522
		c-2.572-4.65-5.087-9.305-7.569-13.933l-0.041-0.044C149.245,160.894,145.171,136.226,146.426,106.068"/>
	
		<path fill="none" stroke="#265C30" stroke-width="3.4364" stroke-linecap="round" stroke-linejoin="round" stroke-miterlimit="10" d="
		M74.867,109.524c4.853,31.793,2.102,57.946-8.237,78.433c-0.019,0.025-0.063,0.065-0.089,0.132
		c-0.934,1.551-1.808,3.165-2.601,4.822c-6.308,12.505-9.432,26.693-9.368,42.565c0.09,21.803,6.107,40.358,18.095,55.695
		c11.827,15.156,26.055,22.728,42.704,22.685c16.603-0.085,30.79-7.771,42.525-23.021c11.814-15.429,17.689-34.033,17.605-55.837
		c-0.041-10.201-1.387-19.691-4.021-28.464c-1.366-4.461-3.103-8.646-5.248-12.522c-2.572-4.65-5.087-9.305-7.569-13.933
		l-0.041-0.044c-9.377-19.143-13.45-43.807-12.195-73.968L74.867,109.524z"/>
	<path fill="#99C14F" d="M144.65,107.875l-67.795,3.275c4.521,31.364,1.619,57.239-8.677,77.598
		c-0.062,0.067-0.109,0.146-0.151,0.238c-0.917,1.485-1.77,3.059-2.535,4.668v0.044c-6.201,12.266-9.263,26.203-9.197,41.773
		c0.078,21.37,5.997,39.585,17.72,54.641h0.021c11.461,14.691,25.237,22.024,41.328,22.028c16.088-0.127,29.804-7.571,41.176-22.334
		v-0.018c11.58-15.147,17.331-33.407,17.241-54.777c-0.039-10.033-1.343-19.351-3.93-27.979c-1.324-4.353-3.039-8.406-5.117-12.199
		v0.018c-2.532-4.604-5.043-9.216-7.486-13.777c-0.066-0.089-0.128-0.172-0.173-0.277C147.765,161.821,143.63,137.52,144.65,107.875
		"/>
	<path fill="#5A6072" d="M5.205,44.31L2.723,62.736c7.779,3.877,16.738,6.803,26.927,8.779c5.892,0.628,13.432,2.753,22.622,6.373
		c48.921,11.107,102.166,14.2,159.748,9.326l0.345-20.465L5.205,44.31z"/>
	
		<path fill="none" stroke="#72788D" stroke-width="3.4314" stroke-linecap="round" stroke-linejoin="round" stroke-miterlimit="10" d="
		M5.205,44.31L212.364,66.75l-0.345,20.465c-57.582,4.874-110.827,1.781-159.748-9.326c-9.19-3.62-16.73-5.745-22.622-6.373
		c-10.188-1.977-19.147-4.902-26.927-8.779L5.205,44.31z"/>
	<path fill="#181313" d="M177.035,66.34c-41.939-11.2-78.777-8.804-110.519,7.147C99.742,61.757,136.572,59.384,177.035,66.34"/>
	
		<path fill="none" stroke="#1E1A1A" stroke-width="0.0215" stroke-linecap="round" stroke-linejoin="round" stroke-miterlimit="10" d="
		M66.516,73.487c33.226-11.73,70.059-14.101,110.519-7.147C135.095,55.14,98.257,57.536,66.516,73.487z"/>
	<path fill="#ADB2D0" d="M80.421,120.186c0.873-9.729-2.755-14.414-10.897-14.056l-45.757-0.053
		c-6.545-0.292-10.652,2.152-12.292,7.372c-0.364,1.353-0.672,2.961-0.908,4.853c-0.192,1.007-0.364,2.899-0.523,5.716
		c-0.416,8.999-1.22,17.396-2.432,25.217c-0.893,9.7,2.753,14.368,10.942,14.011l45.749,0.054
		c8.073,0.418,12.57-4.262,13.463-13.991L80.421,120.186z M68.563,116.648c1.099,0.328,1.526,1.485,1.331,3.527l-2.658,29.123
		c-0.168,1.999-0.837,3.183-1.975,3.519l-45.756-0.053c-1.112-0.323-1.584-1.48-1.413-3.519l2.7-29.132
		c0.194-2.06,0.884-3.239,2.063-3.519L68.563,116.648z"/>
	
		<path fill="none" stroke="#72788D" stroke-width="3.4364" stroke-linecap="round" stroke-linejoin="round" stroke-miterlimit="10" d="
		M68.563,116.648l-45.707-0.053c-1.18,0.279-1.869,1.459-2.063,3.519l-2.7,29.132c-0.171,2.038,0.301,3.195,1.413,3.519
		l45.756,0.053c1.138-0.336,1.807-1.52,1.975-3.519l2.658-29.123C70.089,118.134,69.662,116.977,68.563,116.648z M80.421,120.186
		l-2.655,29.122c-0.893,9.729-5.39,14.409-13.463,13.991l-45.749-0.054c-8.186,0.357-11.835-4.311-10.942-14.011
		c1.212-7.82,2.016-16.218,2.432-25.217c0.159-2.816,0.331-4.709,0.523-5.716c0.236-1.892,0.544-3.5,0.908-4.853
		c1.64-5.22,5.747-7.664,12.292-7.372l45.757,0.053C77.667,105.771,81.294,110.456,80.421,120.186z"/>
	
		<rect x="35.257" y="92.5" transform="matrix(-0.0012 1 -1 -0.0012 155.3129 63.4799)" fill="#C3CBE0" width="21.397" height="33.601"/>
	
		<rect x="29.158" y="98.602" transform="matrix(1 0.0011 -0.0011 1 0.1176 -0.0494)" fill="none" stroke="#72788D" stroke-width="3.4364" stroke-linecap="round" stroke-linejoin="round" stroke-miterlimit="10" width="33.601" height="21.393"/>
	<path fill="#ADB2D0" d="M210.277,61.683c-1.691-1.486-3.761-2.214-6.183-2.22l-6.396-0.076c-4.687,0.359-9.605,0.595-14.781,0.65
		c-2.643,0.036-5.325,0.059-8.08,0.054c-18.32-0.345-30.476-0.61-36.43-0.769L85.27,58.676c-11.428-0.242-24.296-0.11-38.625,0.39
		c-3.259,0.101-6.591,0.252-10.007,0.397c-4.378,0.098-8.396,0.093-12.071-0.018l-5.97-0.181l-0.856-0.018
		c-2.407-0.005-4.493,0.726-6.233,2.206c-1.186,1.046-1.938,2.271-2.302,3.624c-0.155,0.578-0.244,1.652-0.246,3.266v3.89
		c-0.001,2.427,0.831,4.486,2.529,6.189c1.737,1.718,4.202,2.668,7.381,2.845h0.026c6.979,0.416,13.959,0.57,20.977,0.451
		c3.163-0.062,8.768-0.274,16.846-0.672c10.723-0.181,21.326-0.168,31.832,0.04l43.325,0.049c6.575,0.376,13.147,0.362,19.719-0.084
		c6.316-0.053,12.627-0.182,18.947-0.319c6.467-0.168,12.932-0.115,19.395,0.129c2.575,0.07,5.154,0.138,7.731,0.199
		c0.494,0,1.011,0,1.505,0.026c1.288,0.044,2.751,0.089,4.383,0.132h0.109h0.403c2.431,0.005,4.492-0.853,6.19-2.566
		c1.725-1.698,2.583-3.758,2.585-6.185l0.005-5.304C212.852,65.032,211.993,63.211,210.277,61.683"/>
	<path fill="#C3CBE0" d="M199.102,80.883c-0.488-0.022-1.009-0.022-1.507-0.022c-2.57-0.067-5.149-0.132-7.729-0.203
		c-6.461-0.242-12.929-0.292-19.39-0.127c-6.316,0.141-12.633,0.263-18.949,0.321c-6.573,0.441-13.145,0.455-19.717,0.085
		l-43.324-0.054c-10.508-0.208-21.115-0.218-31.833-0.035c-8.077,0.402-13.682,0.61-16.841,0.666
		c-7.023,0.124-14.003-0.034-20.986-0.454c0.234,2.195,0.422,4.662,0.552,7.39l0.118,8.357c0,0.279,0,0.58-0.021,0.88
		c-0.092,3.863-0.141,7.563-0.122,11.064l0.488,21.564c0.132,1.785,0.259,3.5,0.409,5.132l0.161,3.567
		c0.361,5.948,0.742,11.535,1.147,16.716c0.083,1.008,0.167,1.997,0.25,2.962c0.191,2.51,0.358,5.092,0.504,7.734
		c0.065,1.136,0.085,2.299,0.085,3.479l-0.005,0.816c-0.039,2.276-0.151,4.531-0.349,6.781c-0.067,0.672-0.107,1.317-0.171,1.935
		v0.134c-0.241,1.91-0.457,3.846-0.656,5.755c-0.277,2.426-0.479,4.857-0.543,7.302c-0.02,0.305-0.02,0.602-0.02,0.901
		c-0.025,0.539-0.003,1.074,0.041,1.614c0.014,0.578,0.085,1.157,0.168,1.736c0.447,2.665,1.11,5.309,1.968,7.902
		c0.405,1.318,0.87,2.648,1.453,3.961c0.341,0.796,1.171,4.229,2.526,10.312c0.551,1.959,0.701,3.756,0.439,5.41
		c-0.256,1.614-0.905,3.077-1.957,4.385c-0.601,0.772-1.074,1.737-1.424,2.878c-0.629,2.038-0.867,4.698-0.696,7.986
		c0.067,1.357,0.193,2.838,0.388,4.425l2.398,42.316l-0.01,6.125c0.517,0.064,1.031,0.152,1.527,0.258
		c1.545,0.39,3.091,0.796,4.612,1.25c1.611,0.07,3.201,0.111,4.815,0.183c1.352,0.149,2.728,0.233,4.079,0.261
		c0.123,0,0.254,0,0.387,0.018c1.5,0.025,3.008,0.03,4.528,0.004c1.379-0.018,2.751-0.057,4.126-0.12
		c1.505-0.062,2.989-0.104,4.449-0.122c1.396-0.02,2.79,0,4.163,0.069c1.357,0.062,2.688,0.111,3.996,0.111
		c1.569-0.019,3.139-0.062,4.747-0.147c1.013-0.062,2.017-0.104,3.032-0.167c3.412-0.229,6.205-0.658,8.377-1.255
		c3.565-1.008,8.034-0.274,13.4,2.227c1.136,0.535,2.343,1.142,3.562,1.826c6.931,3.921,13.869,4.357,20.791,1.339
		c0.561-0.233,1.141-0.472,1.721-0.667c6.639-1.966,13.299-3.721,20.022-5.237c0.282-0.085,0.538-0.174,0.817-0.257
		c0.795-0.256,1.612-0.473,2.404-0.623c1.635-0.319,3.269-0.424,4.901-0.313c0.495,0.044,1.009,0.133,1.503,0.26
		c1.631,0.319,3.24,0.863,4.854,1.57c1.003,0.322,2.035,0.544,3.092,0.694c4.443,0.821,6.848,1.254,7.215,1.316
		c2.92,0.433,5.241,0.65,6.936,0.65c2.812,0.004,5.735-0.115,8.723-0.351c1.828-0.149,4.921-0.446,9.235-0.933l7.222-0.229v-5.502
		c-0.018-0.687-0.018-1.376-0.015-2.038c0.108-17.787,0.859-35.828,2.252-54.123c1.001-9.671,1.544-16.99,1.662-21.976
		c0.04-2.211,0.001-3.975-0.124-5.261c-0.213-2.215-0.345-4.062-0.402-5.542c-0.064-1.313-0.043-2.324,0.023-3.05
		c0.132-1.163,0.456-2.448,0.949-3.863c0.175-0.477,0.366-0.968,0.565-1.463c2.343-4.959,3.701-8.738,4.067-11.338
		c0.131-0.989,0.132-1.803-0.019-2.448c-0.616-2.426-1.452-4.363-2.481-5.759c-0.9-1.186-1.373-3.89-1.43-8.143
		c-0.021-0.923,0.004-1.891,0.025-2.948l0.173-5.194v-0.171c-0.013-21.675,0.766-43.001,2.312-64.006
		c0.22-3.005,0.459-6.462,0.742-10.352C201.853,80.976,200.394,80.927,199.102,80.883"/>
	<polygon fill="#ADB2D0" points="17.673,59.042 18.534,59.065 18.032,59.042 	"/>
	<path fill="#C3CBE0" d="M19.377,88.449c-0.13-2.728-0.317-5.197-0.552-7.39h-0.018c0.232,2.386,0.42,4.751,0.547,7.09
		C19.355,88.233,19.355,88.343,19.377,88.449"/>
	<path fill="#ADB2D0" d="M92.189,295.149c-5.366-2.501-9.835-3.234-13.4-2.227c-2.172,0.597-4.965,1.025-8.377,1.255
		c-1.012,0.063-2.02,0.105-3.032,0.173c-1.608,0.08-3.178,0.123-4.747,0.137c-1.309,0.005-2.639-0.039-3.993-0.106
		c-1.376-0.069-2.771-0.089-4.166-0.069c-1.46,0.018-2.944,0.061-4.449,0.122c-1.375,0.063-2.747,0.103-4.126,0.124
		c-1.521,0.022-3.028,0.018-4.53-0.008c-0.131-0.018-0.256-0.018-0.385-0.018c-1.352-0.027-2.728-0.111-4.079-0.261
		c-1.614-0.071-3.204-0.112-4.815-0.183c-0.837,0.023-1.655,0.067-2.472,0.085c-1.221,0.062-2.446,0.106-3.671,0.168
		c-0.322,0.022-0.662,0.022-1.01,0.044c-0.365,0.018-0.727,0.018-1.093,0.018c-3.46,1.693-5.208,4.464-5.212,8.327l-0.005,6.661
		c-0.002,2.426,0.743,4.49,2.272,6.188c1.56,1.719,3.451,2.581,5.621,2.585l168.056,0.195c2.214,0,4.06-0.854,5.586-2.573
		c1.55-1.692,2.328-3.756,2.328-6.183l0.009-6.657c0.001-2.431-0.768-4.513-2.312-6.231c-1.396-1.547-3.05-2.392-5-2.521
		l-7.222,0.226c-4.314,0.49-7.407,0.787-9.235,0.937c-2.987,0.235-5.91,0.354-8.723,0.351c-1.694,0-4.016-0.218-6.936-0.646
		c-0.367-0.067-2.771-0.5-7.215-1.321c-1.057-0.15-2.089-0.372-3.092-0.689c-1.611-0.712-3.223-1.252-4.854-1.575
		c-0.494-0.127-1.008-0.221-1.503-0.26c-1.633-0.11-3.267-0.006-4.897,0.313c-0.796,0.15-1.613,0.367-2.408,0.623
		c-0.279,0.083-0.535,0.172-0.817,0.257c-6.724,1.517-13.384,3.271-20.022,5.237c-0.58,0.195-1.16,0.429-1.721,0.667
		c-6.922,3.019-13.86,2.582-20.787-1.334C94.532,296.291,93.325,295.685,92.189,295.149"/>
	
		<path fill="none" stroke="#72788D" stroke-width="3.4364" stroke-linecap="round" stroke-linejoin="round" stroke-miterlimit="10" d="
		M18.826,81.06h-0.018c-3.182-0.177-5.649-1.124-7.387-2.839c-1.694-1.705-2.531-3.766-2.526-6.191l0.003-3.891
		c0.002-1.608,0.087-2.683,0.238-3.266c0.371-1.349,1.121-2.572,2.304-3.625c1.742-1.477,3.828-2.209,6.233-2.206l0.856,0.023
		l5.972,0.177c3.673,0.114,7.69,0.12,12.069,0.014c3.418-0.141,6.75-0.293,10.013-0.394c14.324-0.501,27.195-0.633,38.622-0.385
		l53.139,0.645c5.947,0.155,18.104,0.426,36.427,0.765c2.75,0.01,5.438-0.012,8.076-0.048c5.179-0.058,10.1-0.291,14.781-0.65
		l6.399,0.071c2.432,0,4.491,0.738,6.186,2.22c1.718,1.529,2.575,3.354,2.575,5.48l-0.009,5.308
		c-0.005,2.427-0.867,4.482-2.592,6.185c-1.696,1.714-3.759,2.567-6.182,2.567c-0.134,0-0.262,0-0.409,0h-0.109 M203.488,81.02
		c-1.635-0.044-3.094-0.089-4.386-0.137c-0.488-0.022-1.009-0.022-1.507-0.022c-2.57-0.067-5.146-0.132-7.729-0.203
		c-6.461-0.242-12.929-0.292-19.39-0.127c-6.316,0.141-12.633,0.263-18.949,0.317c-6.573,0.445-13.145,0.459-19.717,0.089
		l-43.321-0.054c-10.511-0.208-21.118-0.218-31.836-0.035c-8.076,0.402-13.682,0.61-16.841,0.666
		c-7.023,0.124-14.003-0.034-20.986-0.454 M195.187,294.195v-5.499c-0.018-0.689-0.018-1.373-0.015-2.045
		c0.108-17.783,0.859-35.824,2.252-54.119c1.001-9.666,1.544-16.995,1.662-21.976c0.04-2.211,0.001-3.975-0.124-5.261
		c-0.213-2.218-0.345-4.062-0.402-5.542c-0.064-1.309-0.043-2.324,0.023-3.054c0.132-1.159,0.456-2.444,0.949-3.864
		c0.175-0.472,0.366-0.968,0.565-1.462c2.343-4.95,3.701-8.734,4.067-11.334c0.131-0.989,0.132-1.803-0.019-2.448
		c-0.616-2.426-1.452-4.363-2.481-5.759c-0.9-1.186-1.37-3.89-1.43-8.143c-0.021-0.923,0.004-1.891,0.025-2.942l0.173-5.2v-0.171
		c-0.013-21.675,0.766-43.001,2.312-64.006c0.22-3.005,0.459-6.462,0.742-10.352 M18.032,59.042l6.168-0.033 M18.826,81.06
		c0.234,2.192,0.422,4.662,0.552,7.39l0.118,8.357c0,0.279,0,0.58-0.021,0.88c-0.092,3.863-0.141,7.563-0.122,11.064l0.488,21.564
		c0.132,1.785,0.259,3.5,0.409,5.132l0.163,3.567c0.359,5.953,0.742,11.535,1.146,16.716c0.083,1.008,0.167,1.997,0.25,2.962
		c0.191,2.51,0.358,5.092,0.504,7.734c0.067,1.136,0.085,2.294,0.085,3.479l-0.005,0.816c-0.039,2.276-0.151,4.526-0.349,6.781
		c-0.067,0.672-0.107,1.317-0.171,1.94v0.128c-0.241,1.91-0.458,3.846-0.656,5.755c-0.277,2.426-0.479,4.853-0.543,7.302
		c-0.02,0.301-0.02,0.602-0.02,0.901c-0.025,0.539-0.003,1.074,0.041,1.614c0.014,0.578,0.085,1.157,0.168,1.736
		c0.447,2.665,1.11,5.309,1.968,7.907c0.405,1.308,0.87,2.644,1.453,3.956c0.341,0.791,1.171,4.233,2.526,10.312
		c0.555,1.959,0.701,3.762,0.439,5.414c-0.256,1.61-0.905,3.073-1.957,4.381c-0.601,0.77-1.074,1.732-1.419,2.872
		c-0.622,2.044-0.872,4.708-0.698,7.992c0.064,1.357,0.19,2.838,0.385,4.425l2.398,42.316l-0.01,6.125 M195.187,294.195
		l-7.222,0.229c-4.314,0.486-7.407,0.783-9.235,0.933c-2.987,0.23-5.91,0.354-8.723,0.351c-1.694,0.004-4.016-0.218-6.936-0.65
		c-0.367-0.062-2.771-0.5-7.215-1.316c-1.057-0.15-2.089-0.372-3.092-0.689c-1.613-0.712-3.223-1.256-4.854-1.575
		c-0.494-0.127-1.008-0.216-1.503-0.26c-1.633-0.11-3.267-0.006-4.897,0.318c-0.796,0.146-1.613,0.362-2.408,0.618
		c-0.279,0.083-0.535,0.172-0.817,0.257c-6.724,1.517-13.384,3.271-20.022,5.237c-0.58,0.195-1.16,0.429-1.721,0.667
		c-6.922,3.019-13.86,2.582-20.787-1.334c-1.224-0.689-2.431-1.296-3.566-1.831c-5.366-2.501-9.835-3.234-13.4-2.227
		c-2.172,0.597-4.965,1.025-8.377,1.255c-1.012,0.063-2.022,0.105-3.032,0.173c-1.608,0.08-3.178,0.119-4.747,0.137
		c-1.309,0.005-2.639-0.039-3.993-0.106c-1.376-0.069-2.771-0.093-4.166-0.069c-1.46,0.018-2.944,0.061-4.449,0.122
		c-1.375,0.063-2.751,0.103-4.126,0.124c-1.521,0.022-3.028,0.018-4.528-0.008c-0.133-0.018-0.258-0.018-0.387-0.018
		c-1.352-0.027-2.728-0.111-4.079-0.261c-1.614-0.071-3.204-0.112-4.815-0.183c-0.837,0.023-1.655,0.067-2.472,0.085
		c-1.221,0.062-2.446,0.106-3.671,0.168c-0.322,0.022-0.662,0.022-1.01,0.044c-0.36,0.018-0.727,0.018-1.093,0.018
		c-3.46,1.693-5.208,4.464-5.212,8.327l-0.005,6.661c-0.002,2.426,0.743,4.49,2.272,6.188c1.56,1.719,3.451,2.581,5.621,2.581
		l168.056,0.199c2.214,0,4.064-0.857,5.586-2.573c1.55-1.692,2.328-3.756,2.328-6.183l0.009-6.661
		c0.001-2.427-0.768-4.509-2.312-6.228C198.791,295.169,197.137,294.324,195.187,294.195z"/>
	<path fill="#ADB2D0" d="M183.628,91.866h-0.042c-2.579-0.07-4.812,2.011-6.705,6.219c-2.008,4.143-3.062,9.172-3.158,15.077
		l-0.428,69.163c-1.328,3.024-2.241,6.529-2.69,10.476c-0.221,1.764-0.354,3.612-0.375,5.542c-0.243,4.982,0.378,8.916,1.833,11.775
		l-1.698,55.414c-0.088,5.219,0.698,9.688,2.348,13.449c1.631,3.701,3.669,5.548,6.097,5.548h0.043
		c2.336,0.004,4.45-1.838,6.275-5.533c1.809-3.753,2.783-8.222,2.936-13.442l0.812-65.385c-1.271-1.008-1.93-3.46-2.012-7.346
		c-0.02-0.539-0.02-1.096,0-1.679l2.896-14.211l2.605-63.75c0.117-5.904-0.649-10.936-2.344-15.085
		C188.331,93.886,186.202,91.804,183.628,91.866"/>
	<path fill="#ADB2D0" d="M159.737,98.063c-1.734-4.208-3.9-6.295-6.479-6.236h-0.043c-2.575-0.062-4.79,2.015-6.624,6.223
		c-1.893,4.141-2.888,9.172-2.985,15.071l-0.869,84.935l-1.949,15.379c-0.367,1.887-0.071,5.13,0.933,9.75l0.08,42.316
		c-0.095,5.22,0.717,9.685,2.431,13.445c1.627,3.699,3.668,5.548,6.14,5.552h0.038c2.322,0,4.408-1.843,6.233-5.533
		c1.753-3.759,2.701-8.227,2.856-13.447l-0.155-50.472c-1.459-3.375-1.967-7.244-1.535-11.562l2.984-16.659l1.419-73.681
		c0.07-5.901-0.76-10.931-2.474-15.077V98.063z"/>
	<path fill="#ADB2D0" d="M130.182,98.031c-1.779-4.216-3.925-6.299-6.482-6.235h-0.041c-2.582-0.072-4.791,2.011-6.626,6.219
		c-1.893,4.146-2.846,9.172-2.854,15.076l-0.774,109.85l1.883,8.895c0.452,2.036,0.254,5.993-0.61,11.893l-0.846,21.737
		c-0.006,5.221,0.87,9.69,2.609,13.451c1.688,3.699,3.723,5.547,6.131,5.552h0.041c2.406,0,4.472-1.844,6.196-5.535
		c1.724-3.76,2.612-8.229,2.678-13.445l1.333-152.374C132.855,107.207,131.982,102.178,130.182,98.031"/>
	<path fill="#ADB2D0" d="M94.275,91.76c-2.6-0.066-4.791,2.011-6.582,6.225c-1.812,4.136-2.676,9.167-2.596,15.075l1.183,17.397
		l-0.783,5.583l1.541,82.141l1.406,8.076c1.009,3.633,0.293,8.981-2.12,16.026l-0.116,23.151c-0.025,5.221,0.845,9.689,2.65,13.45
		c1.713,3.7,3.791,5.547,6.223,5.552h0.039c2.387,0,4.429-1.844,6.15-5.535c1.724-3.757,2.59-8.229,2.597-13.445l0.415-25.003
		l0.999-8.288l-1.543-5.719l-0.126-113.369c0.01-5.904-0.908-10.931-2.729-15.08c-1.803-4.213-3.99-6.299-6.568-6.237H94.275z"/>
	<path fill="#ADB2D0" d="M65.832,91.729h-0.039c-2.604-0.07-4.793,2.011-6.541,6.219c-1.789,4.146-2.608,9.166-2.467,15.076
		l3.375,16.797l-2.416,7.778l2.108,76.555c1.472,5.865,2.217,11.536,2.208,17.017l-1.938,8.717l-0.853,25.516
		c0.062,5.22,0.998,9.689,2.824,13.446c1.776,3.698,3.842,5.547,6.223,5.551h0.044c2.405,0.006,4.447-1.844,6.104-5.529
		c1.654-3.761,2.483-8.226,2.422-13.445l-1.094-20.752c-0.059-2.21,0.095-3.911,0.437-5.112c0.321-1.199,0.583-1.996,0.821-2.402
		c0.192-0.41,0.407-0.878,0.603-1.418c0.626-1.636,0.927-3.289,0.909-4.985c0-1.202-0.108-2.383-0.34-3.562
		c-0.364-1.892-0.836-3.762-1.414-5.627l-0.851-5.375l-0.943-77.239c1.724-4.062,2.694-7.067,2.89-8.977l-1.238-6.75l-1.277-10.179
		c-0.102-5.91-1.082-10.937-2.943-15.08C70.557,93.753,68.347,91.668,65.832,91.729"/>
	<path fill="#ADB2D0" d="M37.265,91.693h-0.044c-2.6-0.065-4.747,2.016-6.406,6.224c-1.744,4.143-2.565,8.266-2.464,12.368
		c-0.109,0.684-0.15,1.352-0.086,2.02c0.192,1.547,0.748,2.922,1.627,4.123c0.96,1.313,1.628,2.819,1.971,4.474
		c0.145,0.662,0.32,1.608,0.511,2.877c-0.751,2.042-1.441,4.358-2.07,6.997l-0.994,3.996l3.687,81.455l3.385,9.114
		c1.175,3.416,0.829,6.613-1.041,9.623c-1.572,1.82-2.473,5.537-2.68,11.121c0.598,5.931,0.48,12.354-0.321,19.288
		c0.101,5.219,1.085,9.689,2.903,13.446c1.826,3.703,3.969,5.551,6.395,5.551h0.045c2.343,0.004,4.367-1.844,6.021-5.533
		c1.617-3.758,2.373-8.223,2.294-13.446l-0.446-23.709c1.618-7.023,2.115-11.921,1.52-14.692l-1.663-8.681l-3.558-81.022
		c-0.021-0.862,0.302-1.869,0.991-3.006c0.684-1.14,1.44-3.095,2.283-5.843c0.198-0.774,0.369-1.353,0.52-1.764l-2.525-11.253
		c-0.257-1.312-0.402-2.798-0.424-4.425c0.115-4.558-0.781-8.916-2.691-13.065C42.055,93.718,39.822,91.632,37.265,91.693"/>
	<path fill="#ADB2D0" d="M209.155,134.374l-0.534-15.127c-0.682-9.73-5.079-14.418-13.174-14.06l-45.757-0.057
		c-4.529-0.194-7.668,1.069-9.411,3.814c-0.368,0.84-0.686,1.676-0.948,2.536c-0.275,0.965-0.452,1.972-0.477,3.003
		c-0.021,1.379,0.041,2.73,0.213,4.082c0.166,1.27,0.272,2.516,0.297,3.739c0.019,1.715,0.082,3.414,0.161,5.11
		c0.086,1.551,0.192,3.095,0.299,4.642c0.021,0.366,0.064,0.751,0.083,1.117l1.312,16.841c0.17,1.892,0.53,3.738,1.067,5.543
		c0.15,0.451,0.303,0.923,0.471,1.374c1.865,3.288,4.826,5.097,8.929,5.383c5.672-0.166,11.342-0.051,17.012,0.318
		c2.56,0.027,5.349,0.155,8.382,0.354c4.312,0.204,8.895,0.266,13.701,0.186c2.168-0.168,4.358-0.314,6.573-0.464
		c1.032-0.08,2.079-0.189,3.134-0.297c0.925-0.084,1.825-0.168,2.75-0.252c5.501-1.131,7.977-5.728,7.406-13.781L209.155,134.374z
		 M196.161,115.707c1.141,0.327,1.782,1.49,1.929,3.531c1.218,8.398,1.889,17.336,1.991,26.848c0.362,2.498,0.097,4.317-0.777,5.498
		c-0.066,0.089-0.138,0.15-0.222,0.222c-9.472,1.339-17.786,1.777-24.915,1.339c-7.132-0.437-12.138-0.697-14.993-0.786
		c-2.899-0.111-5.092-0.328-6.572-0.609l-0.901-0.863c-0.362-0.601-0.602-1.458-0.681-2.576l-1.698-19.248l-0.332-9.885
		c-0.146-2.06,0.323-3.24,1.419-3.518L196.161,115.707z"/>
	
		<path fill="none" stroke="#72788D" stroke-width="3.4364" stroke-linecap="round" stroke-linejoin="round" stroke-miterlimit="10" d="
		M208.621,119.247c-0.682-9.73-5.079-14.418-13.174-14.06l-45.757-0.057c-4.529-0.194-7.668,1.069-9.411,3.814
		c-0.368,0.84-0.686,1.676-0.948,2.536c-0.275,0.965-0.452,1.972-0.477,3.003c-0.021,1.379,0.041,2.73,0.213,4.082
		c0.166,1.27,0.272,2.516,0.297,3.739c0.019,1.715,0.082,3.414,0.161,5.11c0.086,1.551,0.192,3.095,0.299,4.642
		c0.021,0.366,0.064,0.751,0.083,1.117l1.312,16.841c0.17,1.892,0.53,3.738,1.067,5.543c0.15,0.451,0.303,0.923,0.471,1.374
		c1.865,3.288,4.826,5.097,8.929,5.383c5.672-0.166,11.342-0.051,17.012,0.318c2.56,0.027,5.349,0.155,8.382,0.354
		c4.312,0.204,8.895,0.266,13.701,0.186c2.168-0.168,4.358-0.314,6.573-0.464c1.032-0.08,2.079-0.189,3.134-0.297
		c0.925-0.084,1.825-0.168,2.75-0.252c5.501-1.131,7.977-5.728,7.406-13.781l-1.489-14.006L208.621,119.247z M196.161,115.707
		l-45.753-0.048c-1.096,0.277-1.565,1.458-1.419,3.518l0.332,9.885l1.698,19.248c0.079,1.118,0.318,1.976,0.681,2.576l0.901,0.863
		c1.48,0.281,3.673,0.498,6.572,0.609c2.855,0.089,7.861,0.35,14.993,0.786c7.129,0.438,15.443,0,24.915-1.339
		c0.084-0.071,0.155-0.133,0.222-0.222c0.874-1.181,1.14-3,0.777-5.498c-0.103-9.512-0.773-18.449-1.991-26.848
		C197.943,117.197,197.301,116.034,196.161,115.707z"/>
	<path fill="#C3CBE0" d="M190.633,103.465c-0.084-1.999-1.307-3.033-3.693-3.06l-16.064-0.101c-2.985-0.135-5.757-0.156-8.289-0.093
		c-3.198-0.072-5.093,0.525-5.654,1.795c-0.324,2.854-0.393,6.143-0.156,9.833l0.07,9.627c0.347,0.274,0.666,0.494,0.994,0.606
		c1.479,0.256,2.937,0.345,4.375,0.256l0.34,0.004h0.607c6.423,0.026,12.675,0.079,18.772,0.106l7.86,0.141
		c0.671-1.612,0.972-3.198,0.948-4.812L190.633,103.465z"/>
	
		<path fill="none" stroke="#72788D" stroke-width="3.4364" stroke-linecap="round" stroke-linejoin="round" stroke-miterlimit="10" d="
		M186.94,100.405l-16.064-0.101c-2.985-0.135-5.757-0.156-8.289-0.093c-3.198-0.072-5.093,0.525-5.654,1.795
		c-0.324,2.854-0.395,6.143-0.159,9.837l0.073,9.623c0.347,0.277,0.666,0.494,0.994,0.606c1.479,0.256,2.937,0.345,4.375,0.256
		l0.343,0.004h0.604c6.423,0.026,12.675,0.079,18.772,0.106l7.86,0.141c0.671-1.608,0.972-3.198,0.948-4.812l-0.11-14.303
		C190.549,101.466,189.327,100.432,186.94,100.405z"/>
	<path fill="#C3CBE0" d="M145.137,9.171c-1.506-0.31-3.561-0.496-6.134-0.58c-6.505,0.032-12.535-0.477-18.089-1.498
		c-5.558-1.021-8.961-1.635-10.217-1.825c-0.214-0.031-0.445-0.062-0.68-0.093c-1.173-0.212-2.703-0.499-4.599-0.916
		C95.712,2.183,89.098,1.386,85.53,1.838c-1.356,0.11-2.741,0.725-4.173,1.878c-0.22,0.186-0.418,0.368-0.605,0.552
		c-1.061,1.065-1.661,2.388-1.842,3.97c-1.541,9.197-2.506,17.936-2.883,26.224c-0.196,1.861,0.279,3.497,1.482,4.946
		c1.13,1.428,2.615,2.25,4.469,2.449c1.863,0.193,3.492-0.283,4.946-1.438c1.407-1.153,2.212-2.656,2.409-4.517
		c-0.14-6.899,0.585-13.844,2.147-20.876c5.289,0.238,10.598,1.008,15.927,2.299c12.188,2.329,22.021,3.619,29.501,3.92
		l-2.148,19.581c-0.194,1.86,0.279,3.491,1.478,4.924c1.13,1.454,2.615,2.272,4.477,2.47c1.811,0.195,3.469-0.281,4.916-1.392
		c1.412-1.197,2.239-2.705,2.435-4.565l2.851-25.534c0.217-2.308-0.213-4.05-1.271-5.237C148.6,10.324,147.094,9.542,145.137,9.171"
		/>
	
		<path fill="none" stroke="#72788D" stroke-width="3.4314" stroke-linecap="round" stroke-linejoin="round" stroke-miterlimit="10" d="
		M145.137,9.171c1.957,0.371,3.463,1.153,4.508,2.321c1.059,1.188,1.488,2.93,1.271,5.237l-2.851,25.534
		c-0.195,1.86-1.022,3.368-2.435,4.565c-1.447,1.11-3.105,1.587-4.916,1.392c-1.861-0.197-3.347-1.016-4.477-2.47
		c-1.198-1.433-1.672-3.063-1.478-4.924l2.148-19.581c-7.479-0.301-17.313-1.591-29.501-3.92
		c-5.329-1.291-10.638-2.061-15.927-2.299c-1.562,7.032-2.287,13.977-2.147,20.876c-0.197,1.86-1.002,3.363-2.409,4.517
		c-1.454,1.154-3.083,1.631-4.946,1.438c-1.854-0.199-3.339-1.021-4.469-2.449c-1.203-1.449-1.679-3.085-1.482-4.946
		c0.377-8.288,1.342-17.026,2.883-26.224c0.181-1.582,0.781-2.904,1.842-3.97c0.188-0.185,0.386-0.366,0.605-0.552
		c1.432-1.153,2.816-1.768,4.173-1.878c3.567-0.452,10.182,0.345,19.889,2.421c1.896,0.417,3.426,0.704,4.599,0.916
		c0.234,0.031,0.466,0.062,0.68,0.093c1.256,0.19,4.659,0.804,10.217,1.825c5.554,1.021,11.584,1.53,18.089,1.498
		C141.576,8.675,143.631,8.861,145.137,9.171z"/>
	<path fill="#ADB2D0" d="M173.354,41.472c-25.975-6.754-46.263-9.905-60.861-9.455c-23.134,0.234-39.029-0.473-47.691-2.072
		c-8.684-1.574-18.374-2.201-29.061-1.835c-10.688,0.319-19.831,1.167-27.388,2.497c-3.664,4.244-5.32,10.003-4.917,17.278
		c-0.003,0.044-0.007,0.106,0.015,0.168c0.005,0.239-0.004,0.495-0.019,0.772c-0.038,0.367-0.078,0.773-0.127,1.221
		c-0.166,1.348-0.468,2.666-0.852,3.93c-0.933,3.713-0.979,6.502-0.148,8.406c21.42-0.826,42.258-1.021,62.501-0.619
		c9.847,0.223,17.945,0.549,24.345,0.965l18.235,1.144c19.176,0.862,32.396,2.255,39.691,4.151l32.294,7.832
		c11.519,2.877,22.541,6.634,33.115,11.271c1.211-1.834,1.916-5,2.139-9.478c0.013-0.323,0.026-0.618,0.018-0.919
		c0.053-1.442,0.085-2.621,0.113-3.579c0.002-0.024,0.002-0.024,0.002-0.049c0.001-0.579,0.026-1.07,0.026-1.455
		c0.018-0.772,0.028-1.525,0.066-2.272c0.091-3.111,0.168-5.723,0.207-7.827c0.01-0.535,0.031-1.048,0.036-1.564
		c0.002-1.481-0.014-2.854-0.057-4.173c-0.104-1.764-1.376-3.089-3.76-3.979C198.87,47.43,186.222,43.964,173.354,41.472"/>
	
		<path fill="none" stroke="#72788D" stroke-width="3.4314" stroke-linecap="round" stroke-linejoin="round" stroke-miterlimit="10" d="
		M173.354,41.472c12.868,2.492,25.517,5.958,37.924,10.359c2.384,0.89,3.655,2.215,3.76,3.979c0.043,1.318,0.059,2.691,0.057,4.173
		c-0.005,0.517-0.026,1.029-0.036,1.564c-0.039,2.104-0.116,4.716-0.207,7.827c-0.038,0.747-0.049,1.5-0.066,2.272
		c0,0.385-0.025,0.876-0.026,1.455c0,0.024,0,0.024-0.002,0.049c-0.028,0.958-0.061,2.137-0.113,3.579
		c0.009,0.301-0.005,0.596-0.018,0.919c-0.223,4.478-0.928,7.644-2.139,9.478c-10.574-4.638-21.597-8.395-33.115-11.271
		l-32.294-7.832c-7.296-1.896-20.516-3.289-39.691-4.151L89.15,62.728c-6.399-0.416-14.498-0.742-24.345-0.965
		c-20.243-0.402-41.081-0.207-62.501,0.619c-0.831-1.904-0.784-4.693,0.148-8.406c0.384-1.264,0.686-2.582,0.852-3.93
		c0.049-0.447,0.089-0.854,0.127-1.221c0.015-0.277,0.023-0.533,0.019-0.772c-0.021-0.062-0.018-0.124-0.015-0.168
		C3.032,40.61,4.688,34.851,8.353,30.607c7.557-1.33,16.699-2.178,27.388-2.497c10.687-0.366,20.377,0.261,29.061,1.835
		c8.662,1.6,24.558,2.307,47.691,2.072C127.091,31.567,147.379,34.718,173.354,41.472z"/>
</g>
</svg>
