<?xml version="1.0" encoding="utf-8"?>
<!-- Generator: Adobe Illustrator 16.0.0, SVG Export Plug-In . SVG Version: 6.00 Build 0)  -->
<!DOCTYPE svg PUBLIC "-//W3C//DTD SVG 1.1//EN" "http://www.w3.org/Graphics/SVG/1.1/DTD/svg11.dtd">
<svg version="1.1" id="レイヤー_1" xmlns="http://www.w3.org/2000/svg" xmlns:xlink="http://www.w3.org/1999/xlink" x="0px"
	 y="0px" width="225.846px" height="201.352px" viewBox="0 0 225.846 201.352" enable-background="new 0 0 225.846 201.352"
	 xml:space="preserve">
<g>
	<path fill="#5A6072" d="M14.029,44.31l-2.482,18.426c7.779,3.877,16.738,6.803,26.926,8.779c5.893,0.628,13.432,2.753,22.623,6.373
		c48.92,11.107,102.165,14.2,159.747,9.326l0.346-20.465L14.029,44.31z"/>
	
		<path fill="none" stroke="#72788D" stroke-width="3.4314" stroke-linecap="round" stroke-linejoin="round" stroke-miterlimit="10" d="
		M14.029,44.31L221.188,66.75l-0.346,20.465c-57.582,4.874-110.827,1.781-159.747-9.326c-9.191-3.62-16.73-5.745-22.623-6.373
		c-10.188-1.977-19.146-4.902-26.926-8.779L14.029,44.31z"/>
	<path fill="#99C14F" d="M191.938,82.958c3.84-0.391,6.627-1.716,8.367-4.014c-3.842-0.535-7.982-2.679-12.447-6.432
		c-11.027-13.057-27.98-20.668-50.873-22.825c0.645-2.488,2.338-4.637,5.082-6.413c-6.029-1.18-12.998-0.641-20.959,1.613
		c-1.865-0.985-1.932-2.917-0.193-5.771c-7.872,0.242-15.36,3.593-22.417,10.006c-9.355-3.279-18.941-4.221-28.742-2.838
		c4.504,1.473,7.354,3.555,8.537,6.255c-13.924,1.979-27.113,8.486-39.592,19.519c-4.568,4.035-8.963,6.356-13.193,6.957
		c1.736,2.293,4.529,3.62,8.369,4.005c-8.598,12.124-15.742,18.78-21.406,19.96c2,2.365,5.152,3.643,9.447,3.859
		c-0.881,1.954-2.039,3.774-3.496,5.472c-2.186,2.532-5.041,4.72-8.537,6.569c-2.162,1.135-4.59,2.17-7.248,3.053
		c2.514,3.921,8.023,5.44,16.539,4.513c-1.305,2.255-2.318,4.593-3.045,7.015c-0.664,2.192-0.961,4.425-0.898,6.675
		c0.047,2.215,0.453,4.336,1.23,6.373c0.748,1.993,1.883,3.965,3.365,5.94c1.414-1.979,3.051-3.624,4.891-4.937
		c0.666,2.082,1.418,4.097,2.275,6.051c0.299,0.685,0.623,1.374,0.941,2.061c5.631,11.646,14.791,20.821,27.475,27.509
		c-0.066-1.821,0.32-3.579,1.158-5.233c9.33,8.813,21.135,14.493,35.445,17.062c-0.152-1.909,0.365-3.669,1.5-5.301
		c0.857,0.961,1.779,1.867,2.789,2.746c0.967,0.796,1.996,1.565,3.066,2.294c1.139,0.814,2.344,1.542,3.586,2.166
		c1.416,0.707,2.918,1.309,4.482,1.82c0.816,0.258,1.656,0.469,2.51,0.623c1.545,0.279,3.113,0.385,4.704,0.297
		c1.348-0.105,2.633-0.361,3.857-0.812c1.393-0.496,2.705-1.057,3.947-1.676c1.309-0.602,2.484-1.309,3.586-2.127
		c1.109-0.795,2.227-1.634,3.316-2.47c1.119-0.834,2.125-1.798,3.027-2.872c1.139,1.632,1.65,3.384,1.502,5.295
		c14.311-2.577,26.107-8.27,35.434-17.089c0.84,1.649,1.227,3.413,1.164,5.239c15.223-8.031,25.367-19.643,30.402-34.834
		c2.018,0.9,2.998-1.155,4.717,0.928c5.445-8.518,6.393-13.736,1.066-22.812c8.518,0.918,14.033-0.61,16.539-4.535
		c-2.656-0.879-5.062-1.905-7.229-3.041c-3.521-1.843-6.371-4.031-8.559-6.56c-1.465-1.696-2.621-3.519-3.502-5.471
		c4.287-0.217,7.443-1.508,9.438-3.868C207.694,101.72,200.55,95.077,191.938,82.958"/>
	<path fill="none" stroke="#265C30" stroke-width="3.4331" stroke-linecap="round" stroke-miterlimit="10" d="M191.938,82.958
		c8.611,12.118,15.756,18.762,21.42,19.942c-1.994,2.36-5.15,3.651-9.438,3.868c0.881,1.952,2.037,3.774,3.502,5.471
		c2.188,2.528,5.037,4.717,8.559,6.56c2.166,1.136,4.572,2.162,7.229,3.041c-2.506,3.925-8.021,5.453-16.539,4.535
		c5.326,9.075,4.385,11.629-1.066,20.146c-1.715-2.077-2.699,2.639-4.717,1.738c-5.035,15.191-15.18,26.803-30.402,34.834
		c0.062-1.826-0.324-3.59-1.164-5.239c-9.326,8.819-21.123,14.512-35.434,17.089c0.148-1.911-0.363-3.663-1.502-5.295
		c-0.902,1.074-1.908,2.038-3.027,2.872c-1.09,0.836-2.207,1.675-3.316,2.47c-1.102,0.818-2.277,1.525-3.586,2.127
		c-1.242,0.619-2.555,1.18-3.947,1.676c-1.225,0.451-2.51,0.707-3.857,0.812c-1.591,0.088-3.159-0.018-4.704-0.297
		c-0.854-0.154-1.693-0.365-2.51-0.623c-1.564-0.512-3.066-1.113-4.482-1.82c-1.242-0.623-2.447-1.352-3.586-2.166
		c-1.07-0.729-2.1-1.498-3.066-2.294c-1.01-0.879-1.932-1.785-2.789-2.746c-1.135,1.632-1.652,3.392-1.5,5.301
		c-14.311-2.568-26.115-8.248-35.445-17.062c-0.838,1.654-1.225,3.412-1.158,5.233c-12.684-6.688-21.844-15.863-27.475-27.509
		c-0.318-0.687-0.643-1.376-0.941-2.061c-0.857-1.954-1.609-3.969-2.275-6.051c-1.84,1.312-3.477,2.957-4.891,4.937
		c-1.482-1.976-2.617-3.947-3.365-5.94c-0.777-2.037-1.184-4.158-1.23-6.373c-0.062-2.25,0.234-4.482,0.898-6.675
		c0.727-2.422,1.74-4.76,3.045-7.015c-8.516,0.928-14.025-0.592-16.539-4.513c2.658-0.883,5.086-1.918,7.248-3.053
		c3.496-1.85,6.352-4.037,8.537-6.569c1.457-1.697,2.615-3.518,3.496-5.472c-4.295-0.217-7.447-1.494-9.447-3.859
		c5.664-1.18,12.809-7.836,21.406-19.96c-3.84-0.385-6.633-1.712-8.369-4.005c4.23-0.601,8.625-2.922,13.193-6.957
		C51.18,61.026,64.369,54.519,78.293,52.54c-1.184-2.7-4.033-4.782-8.537-6.255c9.801-1.383,19.387-0.441,28.742,2.838
		c7.057-6.413,14.545-9.764,22.417-10.006c-1.738,2.854-1.672,4.786,0.193,5.771c7.961-2.254,14.93-2.793,20.959-1.613
		c-2.744,1.776-4.438,3.925-5.082,6.413c22.893,2.157,39.846,9.769,50.873,22.825c4.465,3.753,8.605,5.896,12.447,6.432
		C198.565,81.243,195.778,82.568,191.938,82.958z"/>
	<path fill="#181313" d="M174.802,135.272c-41.939-11.2-78.776-8.804-110.519,7.147C97.51,130.689,134.339,128.316,174.802,135.272"
		/>
	
		<path fill="none" stroke="#1E1A1A" stroke-width="0.0215" stroke-linecap="round" stroke-linejoin="round" stroke-miterlimit="10" d="
		M64.283,142.419c33.227-11.73,70.06-14.101,110.519-7.147C132.862,124.072,96.025,126.468,64.283,142.419z"/>
	<path fill="#FFFFFF" d="M144.394,79.514c-5.857-1.008-11.195,0.194-16.066,3.63c-4.869,3.416-7.783,8.048-8.768,13.905
		c-1.008,5.855,0.219,11.218,3.631,16.067c3.475,4.869,8.131,7.81,13.988,8.812c5.836,0.986,11.174-0.242,16.004-3.698
		c4.865-3.408,7.785-8.067,8.787-13.924c0.986-5.856-0.24-11.195-3.652-16.022C154.862,83.417,150.228,80.478,144.394,79.514"/>
	<path fill="#FFFFFF" d="M61.828,97.093c-1.006,5.834,0.217,11.177,3.654,16.048c3.451,4.873,8.111,7.803,13.971,8.81
		c5.812,1.008,11.152-0.238,16.002-3.695c4.865-3.434,7.805-8.071,8.809-13.905c1.006-5.856-0.221-11.218-3.695-16.062
		c-3.434-4.871-8.07-7.789-13.883-8.752c-5.859-1.008-11.223,0.221-16.092,3.633C65.77,86.578,62.854,91.241,61.828,97.093"/>
	<path fill="#B9641E" d="M142.462,68.964c-0.84-1.48-2.322-1.764-4.42-0.813c-8.217,3.841-15.938,8.177-23.168,12.968
		c-1.478,0.982-2.595,1.199-3.388,0.641c-9.676-6.648-16.264-10.823-19.801-12.543c-3.607-1.76-6.141-1.989-7.594-0.681
		c-1.484,1.264-2.021,2.873-1.588,4.871c-13.498,0.583-23.576,3.01-30.271,7.261c-6.645,4.208-10.146,7.148-10.49,8.84
		c-0.357,1.653,2.006,2.428,7.086,2.295c-4.375,3.519-7.936,7.771-10.656,12.765c-1.33,2.428-1.928,4.313-1.799,5.666
		c0.021,0.173,0.062,0.345,0.105,0.54c0.02,0.106,0.062,0.194,0.086,0.274c0.062,0.155,0.17,0.261,0.277,0.367
		c0.281,0.277,0.6,0.494,0.967,0.685c0.449,0.238,0.943,0.411,1.439,0.538c0.383,0.151,0.795,0.257,1.203,0.367
		c7.484,1.645,14.906,1.251,22.221-1.193c0.299-7.27,2.355-13.149,6.191-17.676c3.799-4.53,8.408-6.143,13.793-4.791
		c4.227,1.053,7.898,2.462,10.988,4.248l4.635,3.019c2.961,1.989,5.449,3.408,7.443,4.247c1.977,0.831,4.398,1.216,7.275,1.172
		c2.917-0.021,6.108-0.985,9.608-2.898c3.496-1.932,6.09-3.369,7.787-4.314c1.947-1.053,4.049-2.061,6.305-2.984
		c2.766-1.073,5.51-1.785,8.215-2.104c4.354-0.518,7.811,0.146,10.361,2.012c1.264,0.919,2.32,2.165,3.156,3.729
		c0.879,1.565,1.59,3.196,2.166,4.894c1.033,3.235,1.27,6.97,0.691,11.156c7.746,2.418,16.049,3.058,24.908,1.896
		c2.617-0.299,4.031-1.246,4.244-2.855c0.322-1.716-0.662-4.096-2.914-7.12c-3.354-4.525-6.828-8.323-10.43-11.346
		c1.244,0.194,2.699,0.049,4.396-0.43c3.754-1.092,3.881-2.96,0.336-5.6c-13.191-9.605-25.83-13.999-37.867-13.177
		C143.728,71.582,143.233,70.272,142.462,68.964"/>
	<polygon fill="#ADB2D0" points="15.441,127.974 16.301,127.998 15.799,127.974 	"/>
	<path fill="#C3CBE0" d="M153.96,9.171c-1.506-0.31-3.561-0.496-6.133-0.58c-6.506,0.032-12.535-0.477-18.09-1.498
		c-5.557-1.021-8.961-1.635-10.217-1.825c-0.213-0.031-0.445-0.062-0.68-0.093c-1.172-0.212-2.703-0.499-4.598-0.916
		c-9.708-2.077-16.321-2.873-19.89-2.421c-1.355,0.11-2.74,0.725-4.172,1.878c-0.221,0.186-0.418,0.368-0.605,0.552
		c-1.061,1.065-1.662,2.388-1.842,3.97c-1.541,9.197-2.506,17.936-2.883,26.224c-0.197,1.861,0.279,3.497,1.482,4.946
		c1.129,1.428,2.615,2.25,4.469,2.449c1.863,0.193,3.492-0.283,4.945-1.438c1.408-1.153,2.213-2.656,2.41-4.517
		c-0.141-6.899,0.584-13.844,2.146-20.876c5.289,0.238,10.598,1.008,15.927,2.299c12.188,2.329,22.021,3.619,29.502,3.92
		l-2.148,19.581c-0.195,1.86,0.279,3.491,1.477,4.924c1.131,1.454,2.615,2.272,4.477,2.47c1.811,0.195,3.469-0.281,4.916-1.392
		c1.412-1.197,2.24-2.705,2.436-4.565l2.85-25.534c0.217-2.308-0.213-4.05-1.271-5.237C157.423,10.324,155.917,9.542,153.96,9.171"
		/>
	
		<path fill="none" stroke="#72788D" stroke-width="3.4314" stroke-linecap="round" stroke-linejoin="round" stroke-miterlimit="10" d="
		M153.96,9.171c1.957,0.371,3.463,1.153,4.508,2.321c1.059,1.188,1.488,2.93,1.271,5.237l-2.85,25.534
		c-0.195,1.86-1.023,3.368-2.436,4.565c-1.447,1.11-3.105,1.587-4.916,1.392c-1.861-0.197-3.346-1.016-4.477-2.47
		c-1.197-1.433-1.672-3.063-1.477-4.924l2.148-19.581c-7.48-0.301-17.314-1.591-29.502-3.92c-5.329-1.291-10.638-2.061-15.927-2.299
		c-1.562,7.032-2.287,13.977-2.146,20.876c-0.197,1.86-1.002,3.363-2.41,4.517c-1.453,1.154-3.082,1.631-4.945,1.438
		c-1.854-0.199-3.34-1.021-4.469-2.449c-1.203-1.449-1.68-3.085-1.482-4.946c0.377-8.288,1.342-17.026,2.883-26.224
		c0.18-1.582,0.781-2.904,1.842-3.97c0.188-0.185,0.385-0.366,0.605-0.552c1.432-1.153,2.816-1.768,4.172-1.878
		c3.568-0.452,10.182,0.345,19.89,2.421c1.895,0.417,3.426,0.704,4.598,0.916c0.234,0.031,0.467,0.062,0.68,0.093
		c1.256,0.19,4.66,0.804,10.217,1.825c5.555,1.021,11.584,1.53,18.09,1.498C150.399,8.675,152.454,8.861,153.96,9.171z"/>
	<path fill="#ADB2D0" d="M182.177,41.472c-25.975-6.754-46.262-9.905-60.861-9.455c-23.134,0.234-39.028-0.473-47.69-2.072
		c-8.684-1.574-18.375-2.201-29.061-1.835c-10.689,0.319-19.832,1.167-27.389,2.497c-3.664,4.244-5.32,10.003-4.916,17.278
		c-0.004,0.044-0.008,0.106,0.014,0.168c0.006,0.239-0.004,0.495-0.018,0.772c-0.039,0.367-0.078,0.773-0.127,1.221
		c-0.166,1.348-0.469,2.666-0.852,3.93c-0.934,3.713-0.98,6.502-0.148,8.406c21.42-0.826,42.258-1.021,62.5-0.619
		c9.848,0.223,17.945,0.549,24.346,0.965l18.235,1.144c19.176,0.862,32.395,2.255,39.691,4.151l32.293,7.832
		c11.52,2.877,22.541,6.634,33.115,11.271c1.211-1.834,1.916-5,2.139-9.478c0.014-0.323,0.027-0.618,0.018-0.919
		c0.053-1.442,0.086-2.621,0.113-3.579c0.002-0.024,0.002-0.024,0.002-0.049c0.002-0.579,0.027-1.07,0.027-1.455
		c0.018-0.772,0.027-1.525,0.066-2.272c0.09-3.111,0.168-5.723,0.207-7.827c0.01-0.535,0.031-1.048,0.035-1.564
		c0.002-1.481-0.014-2.854-0.057-4.173c-0.104-1.764-1.375-3.089-3.76-3.979C207.694,47.43,195.046,43.964,182.177,41.472"/>
	
		<path fill="none" stroke="#72788D" stroke-width="3.4314" stroke-linecap="round" stroke-linejoin="round" stroke-miterlimit="10" d="
		M182.177,41.472c12.869,2.492,25.518,5.958,37.924,10.359c2.385,0.89,3.656,2.215,3.76,3.979c0.043,1.318,0.059,2.691,0.057,4.173
		c-0.004,0.517-0.025,1.029-0.035,1.564c-0.039,2.104-0.117,4.716-0.207,7.827c-0.039,0.747-0.049,1.5-0.066,2.272
		c0,0.385-0.025,0.876-0.027,1.455c0,0.024,0,0.024-0.002,0.049c-0.027,0.958-0.061,2.137-0.113,3.579
		c0.01,0.301-0.004,0.596-0.018,0.919c-0.223,4.478-0.928,7.644-2.139,9.478c-10.574-4.638-21.596-8.395-33.115-11.271
		l-32.293-7.832c-7.297-1.896-20.516-3.289-39.691-4.151l-18.235-1.144c-6.4-0.416-14.498-0.742-24.346-0.965
		c-20.242-0.402-41.08-0.207-62.5,0.619c-0.832-1.904-0.785-4.693,0.148-8.406c0.383-1.264,0.686-2.582,0.852-3.93
		c0.049-0.447,0.088-0.854,0.127-1.221c0.014-0.277,0.023-0.533,0.018-0.772c-0.021-0.062-0.018-0.124-0.014-0.168
		c-0.404-7.275,1.252-13.034,4.916-17.278c7.557-1.33,16.699-2.178,27.389-2.497c10.686-0.366,20.377,0.261,29.061,1.835
		c8.662,1.6,24.557,2.307,47.69,2.072C135.915,31.567,156.202,34.718,182.177,41.472z"/>
</g>
</svg>
