<?xml version="1.0" encoding="utf-8"?>
<!-- Generator: Adobe Illustrator 16.2.1, SVG Export Plug-In . SVG Version: 6.00 Build 0)  -->
<!DOCTYPE svg PUBLIC "-//W3C//DTD SVG 1.1//EN" "http://www.w3.org/Graphics/SVG/1.1/DTD/svg11.dtd">
<svg version="1.1" xmlns="http://www.w3.org/2000/svg" xmlns:xlink="http://www.w3.org/1999/xlink" x="0px" y="0px"
	 width="220.438px" height="389.04px" viewBox="0 0 220.438 389.04" enable-background="new 0 0 220.438 389.04"
	 xml:space="preserve">
<g id="base">
</g>
<g id="book3">
</g>
<g id="_x38_" display="none">
</g>
<g id="_x37_" display="none">
</g>
<g id="_x36_" display="none">
</g>
<g id="_x35_" display="none">
</g>
<g id="_x34_" display="none">
</g>
<g id="_x33_" display="none">
</g>
<g id="_x32_" display="none">
</g>
<g id="_x31_" display="none">
</g>
<g id="_x30_">
	<ellipse fill="#D6DEDB" cx="116.845" cy="322.83" rx="85" ry="21.5"/>
	<g>
		<path fill="#4DA934" d="M111.025,263.708H91.86v21.662l3.682-0.514c3.977,0.462,7.141,0.582,9.532,0.378l5.951,0.136V263.708z"/>
		<path fill="#2E6D2C" d="M105.072,287.866v-2.632c-2.39,0.204-5.554,0.084-9.53-0.378c0.5,1.184,1.757,2.114,3.801,2.818
			c1.465,0.328,2.995,0.43,4.596,0.311L105.072,287.866z"/>
		<path fill="#E06A05" d="M60.484,240.724c0.03-0.094,0.065-0.188,0.099-0.28c2.873-5.334,6.493-6.854,10.889-4.585L73.635,235
			l-1.825-4.858c-0.102-0.238-0.121-0.495-0.071-0.766c0.069-0.255,0.182-0.469,0.366-0.662c0.186-0.196,0.419-0.329,0.67-0.38
			l10.286-2.295c0.345-0.086,0.665-0.033,0.961,0.132c0.292,0.165,0.502,0.417,0.62,0.739l2.708,7.57
			c1.599,0.276,3.056,1.553,4.376,3.851c0.05,0.076,0.078,0.137,0.115,0.216c2.675,7.573,1.674,12.836-2.973,15.781
			c-3.695,3.51-8.624,4.917-14.778,4.221l0.023,0.015c-2.155-0.202-4.48-1.077-6.991-2.589c-2.523-1.405-4.396-3.205-5.61-5.399
			c-0.003-0.014-0.008-0.05-0.027-0.062C59.908,247.216,59.566,243.941,60.484,240.724 M69.45,238.003
			c-2.514-0.784-4.64,0.412-6.396,3.597c-0.662,2.525-0.383,5.082,0.843,7.674c1.002,1.769,2.529,3.223,4.577,4.347
			c0.02,0.014,0.041,0.026,0.062,0.037c2.095,1.267,4.045,1.995,5.836,2.2l0.017-0.003c5.301,0.596,9.542-0.6,12.706-3.59
			c0.073-0.065,0.132-0.128,0.209-0.162c3.431-2.365,4.101-6.538,2.008-12.536c-0.928-1.557-1.905-2.364-2.907-2.435
			c-0.293,0.008-0.555-0.077-0.795-0.236c-0.227-0.18-0.391-0.403-0.503-0.675l-2.609-7.262l-7.604,1.697l1.762,4.627
			c0.125,0.355,0.128,0.702-0.029,1.046c-0.157,0.324-0.401,0.566-0.738,0.702l-2.849,1.225c-2.192,1.471-3.476,3.588-3.848,6.331
			l-0.993,5.904l-0.322-1.322C66.959,245.442,67.492,241.713,69.45,238.003"/>
		<path fill="#FCDF00" d="M63.053,241.6c1.758-3.185,3.885-4.381,6.397-3.597c-1.958,3.71-2.491,7.439-1.575,11.166l0.322,1.322
			l0.994-5.904c0.371-2.743,1.653-4.858,3.847-6.331l2.849-1.225c0.338-0.136,0.582-0.378,0.738-0.702
			c0.157-0.344,0.154-0.69,0.029-1.046l-1.761-4.627l7.603-1.697l2.61,7.262c0.11,0.271,0.278,0.495,0.503,0.675
			c0.241,0.162,0.502,0.244,0.796,0.236c1,0.07,1.979,0.878,2.906,2.435c2.093,5.998,1.423,10.171-2.008,12.536
			c-0.079,0.034-0.136,0.097-0.208,0.162c-3.165,2.99-7.406,4.186-12.706,3.59l-0.017,0.003c-1.792-0.205-3.742-0.934-5.836-2.2
			c-0.021-0.011-0.041-0.023-0.062-0.037c-2.049-1.124-3.576-2.578-4.578-4.347C62.672,246.682,62.391,244.125,63.053,241.6"/>
		<path fill="#003C8F" d="M84.021,181.362c-0.296-0.113-0.593-0.107-0.888-0.011c-7.096,2.259-15.401,7.854-24.876,16.781
			c-0.039,0.037-0.066,0.065-0.103,0.103c-5.311,6.185-7.763,11.887-7.355,17.088c0.002,0.131,0.046,0.265,0.09,0.413
			c4.397,11.407,10.396,20.939,17.997,28.601c0.164,0.154,0.346,0.259,0.563,0.329c0.206,0.08,0.421,0.094,0.651,0.066
			c11.16-1.854,18.834-5.299,23.046-10.364c0.169-0.207,0.271-0.443,0.304-0.702c0.033-0.261-0.012-0.523-0.115-0.759
			c-3.224-6.928-8.325-13.514-15.299-19.745l3.111-2.912l1.412-1.336c0.248-0.241,0.396-0.551,0.412-0.881l1.947-25.27
			c0.028-0.315-0.044-0.603-0.218-0.86C84.527,181.644,84.312,181.456,84.021,181.362 M70.688,191.24
			c0.093-0.08,0.183-0.137,0.284-0.201c3.954-2.877,7.636-4.992,11.061-6.367l-1.757,22.6l-0.616,0.6l-0.422,0.398l0.016-0.009
			l-4.165,3.917l-0.024,0.027c-3.122,2.599-5.942,4.321-8.458,5.214l-1.292,0.433l-0.171,0.377l0.186-0.008l0.018-0.01l0.006,0.018
			l-0.023-0.008l-0.201,0.054c4.013,0.336,7.626-0.753,10.838-3.271c2.392,2.12,4.558,4.289,6.514,6.495
			c0.046,0.056,0.105,0.102,0.147,0.161c0.015,0.029,0.043,0.054,0.081,0.094c3.22,3.707,5.8,7.552,7.755,11.51
			c-3.947,4.099-10.654,6.976-20.118,8.631c-2.575-2.661-4.972-5.555-7.162-8.654c-0.065-0.102-0.124-0.186-0.189-0.291
			c-3.041-4.354-5.692-9.146-7.958-14.375c-0.048-0.108-0.099-0.219-0.147-0.327c-0.472-1.089-0.922-2.206-1.344-3.311
			c-0.169-3.921,1.506-8.179,4.986-12.781c0.073-0.09,0.139-0.196,0.209-0.283c0.466-0.603,0.941-1.218,1.479-1.816
			C63.897,196.606,67.387,193.653,70.688,191.24"/>
		<path fill="#9AC743" d="M70.972,191.039c-0.104,0.064-0.191,0.121-0.286,0.201c-3.299,2.413-6.79,5.366-10.469,8.814
			c-0.537,0.599-1.014,1.214-1.479,1.816c-0.07,0.087-0.136,0.193-0.211,0.283l16.546,10.028l0.015-0.005l4.167-3.917l-0.018,0.009
			l0.422-0.398L70.972,191.039z"/>
		<path fill="#DF6512" d="M82.032,184.672c-3.425,1.375-7.106,3.49-11.062,6.367l8.69,16.832l0.615-0.6L82.032,184.672z"/>
		<path fill="#095CAA" d="M58.527,202.154c-3.479,4.603-5.151,8.86-4.984,12.781c0.422,1.104,0.872,2.222,1.344,3.311l10.258-0.018
			l0.169-0.377l1.292-0.433c2.516-0.893,5.336-2.615,8.459-5.214l0.009-0.022L58.527,202.154z"/>
		<path fill="#9AC743" d="M54.887,218.246c0.049,0.108,0.1,0.219,0.147,0.327c2.266,5.229,4.917,10.021,7.958,14.375
			c0.065,0.102,0.123,0.189,0.189,0.289l19.494-11.472l-0.053-0.108c-0.039-0.058-0.103-0.104-0.144-0.159
			c-1.957-2.206-4.123-4.375-6.515-6.495c-3.21,2.519-6.825,3.607-10.838,3.271l0.203-0.054l-0.187,0.008L54.887,218.246z"/>
		<path fill="#DF6512" d="M82.709,221.753l-0.033,0.013l-19.494,11.474c2.188,3.1,4.587,5.993,7.162,8.654
			c9.462-1.655,16.168-4.532,20.118-8.631C88.507,229.305,85.923,225.46,82.709,221.753"/>
		<polygon fill="#095CAA" points="65.328,218.221 65.352,218.229 65.346,218.211 		"/>
		<path fill="#004497" d="M110.788,302.596c-0.341-1.863-0.729-3.728-1.187-5.611c-5.553,1.621-11.569,2.646-18.013,3.044
			c-0.535,0.038-1.072,0.074-1.572,0.11c-4.382-0.13-8.535,0.555-12.46,2.045l0.016,0.037c1.65,0.903,3.154,1.955,4.493,3.172
			c0.918,0.828,1.738,1.771,2.488,2.813c2.736,3.825,4.259,9.025,4.562,15.585c4.832-0.235,9.77-1.049,14.826-2.438
			C102.369,312.019,104.646,305.765,110.788,302.596 M93.779,306.454c0.275,0.276,0.291,0.587,0.032,0.917
			c-0.501,0.312-0.995,0.508-1.499,0.599c-0.33,0.05-0.75-0.131-1.242-0.536c-2.313-1.94-5.341-4.03-9.05-6.242l3.356-0.288
			C88.995,302.872,91.797,304.722,93.779,306.454"/>
		<path fill="#FFFFFF" d="M93.812,307.371c0.259-0.33,0.243-0.641-0.032-0.917c-1.982-1.732-4.784-3.582-8.402-5.551l-3.354,0.288
			c3.707,2.212,6.734,4.302,9.05,6.242c0.49,0.405,0.91,0.586,1.24,0.536C92.816,307.879,93.311,307.683,93.812,307.371"/>
		<path fill="#FFFFFF" d="M103.941,321.353c1.979-0.558,3.976-1.196,5.979-1.922c1.812-0.671,2.551-2.092,2.229-4.277
			c-0.12-4.107-0.58-8.294-1.362-12.558C104.646,305.765,102.369,312.019,103.941,321.353"/>
		<path fill="#FFFFFF" d="M76.25,302.729l-0.44,0.183c-0.051,0.01-0.122,0.043-0.177,0.074c-0.124,0.062-0.265,0.123-0.39,0.182
			l-0.14,0.062c-0.212,0.108-0.425,0.217-0.639,0.325c-1.368,0.73-2.626,1.62-3.77,2.671c-0.2,0.177-0.386,0.372-0.586,0.569
			c-2.143,2.196-3.055,4.588-2.776,7.168c0.339,3.034,2.264,5.452,5.753,7.24c3.045,1.537,6.473,2.407,10.282,2.599
			c1.903,0.093,3.814,0.084,5.747-0.01c-0.303-6.56-1.825-11.76-4.562-15.585c-0.749-1.043-1.57-1.985-2.485-2.813
			c-1.342-1.217-2.846-2.269-4.496-3.172C77.115,302.382,76.676,302.547,76.25,302.729"/>
		
			<path fill="none" stroke="#003C8F" stroke-width="2.7493" stroke-linecap="round" stroke-linejoin="round" stroke-miterlimit="10" d="
			M109.602,296.984c-5.553,1.621-11.569,2.646-18.013,3.044c-0.535,0.038-1.072,0.074-1.57,0.11
			c-4.382-0.134-8.537,0.555-12.462,2.045c-0.441,0.167-0.883,0.347-1.307,0.545l-0.44,0.183c-0.051,0.01-0.122,0.043-0.177,0.074
			c-0.124,0.062-0.264,0.123-0.388,0.182l-0.141,0.062c-0.215,0.108-0.426,0.217-0.64,0.325c-1.368,0.73-2.626,1.62-3.771,2.671
			c-0.197,0.177-0.384,0.372-0.584,0.569c-2.143,2.196-3.057,4.588-2.775,7.168c0.338,3.034,2.263,5.452,5.753,7.24
			c3.046,1.537,6.472,2.407,10.281,2.599c1.903,0.093,3.814,0.084,5.747-0.01c4.832-0.235,9.77-1.049,14.826-2.438
			c1.979-0.558,3.976-1.196,5.979-1.924c1.812-0.665,2.551-2.09,2.229-4.275c-0.12-4.104-0.58-8.294-1.362-12.558
			C110.447,300.732,110.059,298.868,109.602,296.984z"/>
		<path fill="#4DA934" d="M110.707,256.942l-35.804-1.257c1.613,15.572,3.819,30.418,6.607,44.51
			c7.585,2.323,17.307,2.6,29.196,0.861V256.942z"/>
		<path fill="none" stroke="#2E6D2C" stroke-width="2.7532" stroke-linecap="square" stroke-miterlimit="10" d="M74.903,255.686
			c1.613,15.572,3.819,30.418,6.607,44.51c7.585,2.323,17.307,2.6,29.196,0.861v-44.114L74.903,255.686z"/>
		<path fill="#004497" d="M135.828,302.479c-0.455-1.839-0.961-3.675-1.537-5.53c-5.438,1.966-11.379,3.364-17.785,4.166
			c-0.532,0.072-1.066,0.143-1.564,0.214c-4.38,0.139-8.484,1.085-12.309,2.819l0.016,0.034c1.705,0.802,3.273,1.757,4.686,2.886
			c0.966,0.77,1.85,1.656,2.658,2.651c2.974,3.646,4.813,8.744,5.528,15.272c4.813-0.534,9.688-1.657,14.649-3.36
			C128.019,312.41,129.898,306.026,135.828,302.479 M119.093,307.396c0.295,0.256,0.328,0.565,0.09,0.91
			c-0.479,0.343-0.961,0.571-1.458,0.692c-0.326,0.072-0.756-0.082-1.272-0.459c-2.433-1.791-5.585-3.688-9.426-5.665l3.333-0.495
			C114.095,304.115,117.009,305.788,119.093,307.396"/>
		<path fill="#FFFFFF" d="M119.183,308.306c0.238-0.345,0.205-0.657-0.089-0.91c-2.087-1.607-4.999-3.28-8.734-5.017l-3.333,0.495
			c3.841,1.978,6.993,3.874,9.425,5.665c0.518,0.377,0.945,0.531,1.273,0.459C118.222,308.877,118.705,308.648,119.183,308.306"/>
		<path fill="#FFFFFF" d="M130.17,321.631c1.939-0.68,3.895-1.444,5.85-2.293c1.768-0.782,2.415-2.244,1.958-4.41
			c-0.378-4.087-1.101-8.245-2.149-12.452C129.898,306.026,128.017,312.41,130.17,321.631"/>
		<path fill="#FFFFFF" d="M101.363,304.771l-0.432,0.207c-0.05,0.02-0.12,0.054-0.17,0.089c-0.119,0.067-0.257,0.138-0.377,0.207
			l-0.139,0.066c-0.205,0.123-0.408,0.245-0.616,0.365c-1.318,0.816-2.519,1.783-3.596,2.901c-0.188,0.19-0.359,0.398-0.548,0.606
			c-2.002,2.33-2.766,4.772-2.324,7.33c0.527,3.005,2.602,5.302,6.198,6.868c3.133,1.341,6.607,2,10.423,1.949
			c1.909-0.025,3.816-0.153,5.737-0.369c-0.715-6.528-2.555-11.627-5.528-15.272c-0.809-0.995-1.691-1.882-2.658-2.651
			c-1.412-1.129-2.98-2.084-4.686-2.886C102.205,304.372,101.772,304.562,101.363,304.771"/>
		
			<path fill="none" stroke="#003C8F" stroke-width="2.7503" stroke-linecap="round" stroke-linejoin="round" stroke-miterlimit="10" d="
			M134.293,296.948c-5.439,1.966-11.381,3.364-17.787,4.166c-0.532,0.072-1.066,0.143-1.564,0.214
			c-4.38,0.139-8.486,1.085-12.311,2.819c-0.428,0.19-0.858,0.397-1.268,0.623l-0.432,0.207c-0.052,0.016-0.12,0.056-0.17,0.089
			c-0.119,0.067-0.258,0.138-0.379,0.207l-0.135,0.066c-0.207,0.123-0.41,0.245-0.618,0.365c-1.318,0.816-2.521,1.783-3.596,2.901
			c-0.188,0.19-0.361,0.398-0.55,0.606c-2,2.33-2.764,4.772-2.321,7.33c0.526,3.005,2.601,5.302,6.197,6.868
			c3.135,1.341,6.607,2,10.423,1.949c1.909-0.025,3.816-0.153,5.737-0.369c4.813-0.534,9.688-1.657,14.649-3.36
			c1.939-0.683,3.896-1.444,5.85-2.293c1.77-0.782,2.415-2.244,1.958-4.41c-0.376-4.087-1.101-8.245-2.149-12.452
			c-0.455-1.836-0.959-3.672-1.537-5.527H134.293z"/>
		<path fill="#4DA934" d="M103.981,255.956h39.521c-1.672,15.574-3.96,30.42-6.833,44.514c-7.844,2.322-18.735,2.665-32.688,1.065
			V255.956z"/>
		<path fill="none" stroke="#2E6D2C" stroke-width="2.7532" stroke-linecap="square" stroke-miterlimit="10" d="M143.503,255.956
			c-1.672,15.574-3.958,30.42-6.833,44.514c-7.846,2.322-18.735,2.665-32.688,1.065v-45.579H143.503z"/>
		<path fill="#9AC743" d="M80.923,182.539v-8.054h7.863c-4.901,31.041-7.245,61.13-7.035,90.277c-0.467-0.12-0.912-0.26-1.379-0.393
			c-2.493-0.726-4.696-1.62-6.57-2.669C71.462,234.601,73.836,208.227,80.923,182.539"/>
		<path fill="#095CAA" d="M88.788,174.485h10.079c-4.007,34.429-5.557,65.26-4.644,92.497c-1.032-0.103-2.048-0.225-3.046-0.361
			c-3.306-0.449-6.452-1.068-9.426-1.858C81.543,235.615,83.883,205.526,88.788,174.485"/>
		<path fill="#DF6512" d="M108.589,267.325c-0.616,0.018-1.237,0.053-1.839,0.071c-1.015,0.019-2.029,0.035-3.045,0.035h-0.589
			c-3.077-0.017-6.037-0.173-8.893-0.449c-0.913-27.237,0.636-58.068,4.646-92.497h10.357L108.589,267.325z"/>
		<path fill="#DF6512" d="M106.75,267.396c0.602-0.019,1.223-0.054,1.839-0.071v0.106
			C107.986,267.415,107.37,267.415,106.75,267.396"/>
		<path fill="#DF6512" d="M108.589,267.432v-0.103c0.225-0.02,0.432-0.02,0.638-0.02v0.122h-0.584
			C108.624,267.415,108.607,267.415,108.589,267.432"/>
		<path fill="#9AC743" d="M109.225,174.485h10.465c3.99,34.153,4.816,64.694,2.475,91.637c-1.498,0.19-2.99,0.376-4.455,0.533
			c-2.908,0.311-5.729,0.532-8.484,0.654c-0.204,0-0.41,0-0.636,0.016L109.225,174.485z"/>
		<path fill="#095CAA" d="M119.689,174.485h10.081c4.801,30.523,6.606,60.323,5.384,89.382c-0.017,0-0.034,0-0.049,0.018
			c-0.881,0.189-1.74,0.361-2.583,0.517c-3.391,0.652-6.691,1.205-9.927,1.65c-0.139,0.018-0.275,0.055-0.432,0.07
			C124.506,239.18,123.677,208.639,119.689,174.485"/>
		<path fill="#DF6512" d="M137.96,174.485v7.795c5.988,28.271,8.226,54.748,6.71,79.455c-3.322,0.811-6.418,1.495-9.258,2.081
			c-0.084,0.017-0.17,0.034-0.257,0.051c1.222-29.059-0.584-58.858-5.385-89.382H137.96z"/>
		<path fill="#DF6512" d="M144.67,261.735v0.089c-3.08,0.977-6.177,1.838-9.291,2.577c0.016-0.191,0.016-0.395,0.035-0.585
			C138.252,263.23,141.349,262.546,144.67,261.735"/>
		<path fill="#095CAA" d="M122.114,266.707c-4.284,0.48-8.571,0.725-12.89,0.725v-0.122c2.754-0.122,5.576-0.344,8.484-0.654
			c1.465-0.157,2.957-0.343,4.456-0.533C122.146,266.312,122.131,266.498,122.114,266.707"/>
		<path fill="#095CAA" d="M122.56,266.655c-0.152,0.014-0.29,0.035-0.445,0.052c0.016-0.209,0.034-0.395,0.051-0.585
			c0.155-0.016,0.292-0.053,0.431-0.07C122.579,266.261,122.579,266.468,122.56,266.655"/>
		<path fill="#9AC743" d="M122.56,266.655c0.02-0.188,0.02-0.395,0.036-0.604c3.235-0.445,6.538-0.998,9.927-1.65
			c0.843-0.155,1.702-0.327,2.581-0.517c0.017-0.018,0.034-0.018,0.051-0.018c-0.017,0.192-0.017,0.398-0.034,0.603
			C130.941,265.434,126.758,266.155,122.56,266.655"/>
		<path fill="#9AC743" d="M135.12,264.47c0.018-0.204,0.018-0.41,0.035-0.603c0.087-0.017,0.173-0.034,0.257-0.051
			c-0.016,0.19-0.016,0.394-0.033,0.585C135.294,264.419,135.208,264.453,135.12,264.47"/>
		<path fill="none" stroke="#060F31" stroke-width="0.3445" stroke-linecap="square" stroke-miterlimit="10" d="M94.241,267.415
			c0-0.156,0-0.296-0.018-0.433 M81.752,264.971v-0.208 M108.589,267.325v0.106v1.015 M122.165,266.122
			c-0.019,0.19-0.035,0.376-0.051,0.585 M135.104,264.971c0.017-0.172,0.017-0.345,0.017-0.501c0.018-0.204,0.018-0.41,0.034-0.603"
			/>
		<path fill="none" stroke="#003C8F" stroke-width="2.7532" stroke-linecap="square" stroke-miterlimit="10" d="M80.923,174.485
			h7.863H98.87h10.354h10.465h10.081h8.188v7.795c5.99,28.271,8.228,54.748,6.712,79.455c-3.322,0.811-6.418,1.495-9.254,2.081
			c-0.088,0.017-0.174,0.034-0.262,0.051c-0.017,0-0.034,0-0.051,0.018c-0.879,0.189-1.738,0.361-2.581,0.517
			c-3.389,0.652-6.691,1.205-9.927,1.65c-0.139,0.018-0.275,0.055-0.431,0.07c-1.497,0.19-2.993,0.376-4.456,0.533
			c-2.908,0.311-5.729,0.532-8.484,0.654c-0.204,0-0.411,0-0.636,0.016c-0.616,0.018-1.237,0.053-1.839,0.071
			c-1.015,0.019-2.032,0.035-3.045,0.035h-0.589c-3.077-0.017-6.035-0.173-8.893-0.449c-1.032-0.103-2.048-0.225-3.046-0.361
			c-3.306-0.449-6.452-1.068-9.427-1.858c-0.467-0.12-0.912-0.26-1.379-0.393c-2.493-0.726-4.696-1.62-6.57-2.669
			c-2.34-27.101,0.034-53.475,7.121-79.162V174.485z"/>
		<path fill="#FFFFFF" d="M95.376,212.493c-5.334-9.259-9.619-19.1-12.869-29.524l31.332,3.319
			C106.525,194.719,100.367,203.46,95.376,212.493"/>
		<path fill="#E06A05" d="M166.461,235.884c0.035-0.305-0.023-0.581-0.188-0.827c-0.166-0.251-0.39-0.453-0.657-0.563l-15.708-6.401
			c-0.254-0.102-0.515-0.116-0.787-0.057c-0.267,0.043-0.519,0.167-0.713,0.376l-3.427,3.541c-3.605,0.217-6.499,1.742-8.662,4.545
			c-0.022,0.009-0.037,0.04-0.045,0.055c-3.713,5.275-4.4,9.698-2.072,13.282c0.134,0.196,0.286,0.347,0.482,0.457
			c0.018,1.81,0.336,3.155,0.938,4.071c0.603,1.065,1.476,1.693,2.631,1.853c0.059,2.317,1.237,4.003,3.541,5.075
			c1.192,0.951,3.792,1.14,7.796,0.568c0.067-0.024,0.144-0.026,0.214-0.049l3.487-1.069c0.028-0.023,0.074-0.04,0.096-0.046
			c3.173-1.278,5.188-2.713,6.026-4.3c0.938-1.519,0.893-3.15-0.118-4.866c0.411-0.503,0.655-1.049,0.773-1.654
			c0.983-1.762,1.04-3.932,0.147-6.52l5.903-6.686C166.324,236.443,166.436,236.176,166.461,235.884 M157.308,242.824
			c-0.047,0.263,0.087,1.234,0.378,2.948c0.297,1.714,0.268,2.913-0.128,3.612c-0.048,0.071-0.088,0.148-0.124,0.225l-0.023,0.046
			c-0.051,0.071-0.088,0.145-0.117,0.207c-2.811,3.439-6.153,5.866-10.048,7.308l1.322-0.35c3.403-0.938,6.242-2.111,8.517-3.536
			c0.247,0.629,0.236,1.211-0.033,1.766c-0.701,1.1-2.258,2.132-4.631,3.093l-3.313,1.021c-3.006,0.427-4.918,0.381-5.757-0.119
			c-0.101-0.065-0.183-0.129-0.276-0.172c-1.637-0.729-2.401-1.855-2.279-3.367c0.105-1.523,0.124-2.231,0.042-2.138
			c-0.099,0.086-0.257,0.103-0.511,0.073c-0.269-0.033-0.536-0.027-0.846,0.029c-0.688,0.124-1.189-0.04-1.52-0.504
			c-0.924-0.955-1.322-2.168-1.17-3.669c0.153-1.497,0.209-2.245,0.149-2.237c-0.037,0-0.17,0.071-0.387,0.173
			c-0.222,0.105-0.394,0.152-0.494,0.159c-1.601-2.302-0.778-5.392,2.452-9.271c1.776-2.233,4.147-3.383,7.123-3.468
			c0.367-0.015,0.678-0.148,0.934-0.406l3.161-3.267l13.083,5.327l-5.185,5.856C157.46,242.35,157.356,242.565,157.308,242.824"/>
		<path fill="#FCDF00" d="M157.687,245.772c-0.29-1.714-0.428-2.686-0.379-2.948c0.049-0.259,0.152-0.475,0.319-0.661l5.185-5.856
			l-13.083-5.327l-3.163,3.27c-0.253,0.255-0.564,0.389-0.93,0.403c-2.978,0.085-5.349,1.234-7.125,3.468
			c-3.23,3.88-4.053,6.97-2.452,9.271c0.101-0.007,0.273-0.054,0.493-0.159c0.22-0.102,0.35-0.173,0.388-0.173
			c0.06-0.008,0.004,0.74-0.148,2.237c-0.153,1.501,0.246,2.714,1.169,3.669c0.33,0.464,0.832,0.628,1.521,0.504
			c0.311-0.057,0.576-0.062,0.846-0.029c0.253,0.029,0.412,0.013,0.51-0.073c0.082-0.094,0.063,0.614-0.042,2.138
			c-0.122,1.512,0.643,2.638,2.279,3.367c0.094,0.043,0.176,0.106,0.278,0.172c0.839,0.5,2.747,0.546,5.755,0.119l3.313-1.021
			c2.373-0.961,3.932-1.993,4.631-3.093c0.27-0.555,0.28-1.137,0.033-1.766c-2.274,1.425-5.111,2.598-8.517,3.536l-1.322,0.35
			c3.895-1.441,7.237-3.868,10.049-7.308c0.028-0.062,0.065-0.136,0.118-0.207l0.021-0.046c0.036-0.076,0.073-0.153,0.126-0.225
			C157.953,248.686,157.982,247.486,157.687,245.772"/>
		<path fill="#003C8F" d="M138.005,181.999l0.312-1.366l0.314-1.299l1.331,0.328c13.836,3.266,24.92,11.111,33.229,23.55
			l-0.051-0.048c4.691,6.323,6.4,12.999,5.109,20.022c0,0.05-0.017,0.085-0.033,0.136c-1.791,6.143-4.66,12.052-8.606,17.749
			c-2.698,3.932-5.931,7.76-9.686,11.494c-0.27,0.256-0.592,0.397-0.984,0.4c-0.376-0.014-0.701-0.147-0.962-0.417l-18.67-19.301
			c-0.24-0.253-0.36-0.545-0.379-0.884c-0.023-0.341,0.079-0.65,0.281-0.91l8.969-11.281c0.652-3.641,0.254-6.385-1.192-8.214
			c-0.053-0.068-0.089-0.137-0.14-0.206c-1.956-3.447-4.674-5.932-8.185-7.457l-1.266-0.537l0.368-0.854l0.72-1.646l1.251,0.538
			c0.276,0.116,0.551,0.252,0.822,0.383c1.831,0.89,3.48,2.021,4.925,3.391c0.086,0.069,0.171,0.153,0.257,0.236
			c1.31,1.285,2.446,2.779,3.416,4.478c0.636,0.746,1.124,1.611,1.455,2.583c0.034,0.082,0.068,0.188,0.105,0.304
			c0.574,1.789,0.679,3.972,0.308,6.519c-0.019,0.116-0.032,0.221-0.049,0.341c-0.05,0.324-0.114,0.65-0.18,0.989
			c-0.03,0.221-0.116,0.408-0.269,0.582l-4.34,5.48l-4.09,5.134l16.865,17.438c3.167-3.234,5.92-6.549,8.265-9.929
			c0.05-0.068,0.083-0.137,0.134-0.205c0.017-0.02,0.034-0.053,0.05-0.071c3.458-4.994,6.044-10.15,7.757-15.488
			c0.053-0.119,0.085-0.222,0.102-0.324c0.118-0.324,0.214-0.668,0.315-0.991c1.093-6.254-0.441-12.214-4.633-17.862
			c-0.017-0.018-0.017-0.033-0.035-0.052c-0.467-0.696-0.95-1.39-1.449-2.068c-0.069-0.086-0.14-0.188-0.209-0.274
			c-3.431-4.697-7.338-8.623-11.682-11.78c-0.085-0.065-0.19-0.135-0.273-0.199c-4.721-3.394-9.978-5.892-15.76-7.519
			c-0.736-0.216-1.472-0.397-2.206-0.579L138.005,181.999z"/>
		<path fill="#DF6512" d="M138.317,180.633l-0.312,1.366l1.333,0.313c0.734,0.182,1.47,0.363,2.206,0.579
			c5.782,1.627,11.039,4.125,15.76,7.519l-11.82,15.161c-1.446-1.369-3.094-2.501-4.925-3.391c-0.272-0.134-0.549-0.267-0.822-0.383
			l-1.251-0.538l-0.72,1.646c-0.395-0.219-0.74-0.577-1.049-1.084c-0.536-0.935-0.923-2.193-1.157-3.797
			c-0.236-1.62-0.207-4.505,0.081-8.684c0.309-4.184,0.8-6.56,1.497-7.128c0.694-0.569,1.031-0.997,1.013-1.288
			C138.132,180.822,138.198,180.72,138.317,180.633"/>
		<path fill="#9AC743" d="M157.304,190.41c0.083,0.064,0.188,0.134,0.273,0.199c4.344,3.157,8.251,7.083,11.682,11.78
			c0.073,0.087,0.14,0.188,0.209,0.274l-18.601,10.474l-0.172-0.308l-0.085,0.035c-0.332-0.969-0.818-1.834-1.454-2.58
			c-0.97-1.698-2.107-3.192-3.416-4.478c-0.086-0.083-0.171-0.167-0.258-0.236L157.304,190.41z"/>
		<path fill="#095CAA" d="M150.717,213.172l0.15-0.034l18.601-10.474c0.498,0.679,0.982,1.372,1.449,2.068
			c0.019,0.019,0.019,0.034,0.035,0.052c4.191,5.648,5.726,11.608,4.633,17.862c-0.1,0.323-0.198,0.667-0.315,0.991l-24.245-3.947
			C151.396,217.144,151.291,214.961,150.717,213.172"/>
		<path fill="#9AC743" d="M150.527,221.603c0.152-0.174,0.238-0.361,0.269-0.582c0.065-0.339,0.13-0.665,0.18-0.989
			c0.017-0.12,0.03-0.225,0.049-0.341l24.245,3.947c-0.017,0.103-0.049,0.205-0.102,0.324c-1.713,5.338-4.299,10.494-7.757,15.488
			c-0.016,0.019-0.033,0.055-0.05,0.068c-0.051,0.071-0.084,0.14-0.134,0.208l-21.04-12.644L150.527,221.603z"/>
		<path fill="#DF6512" d="M142.1,232.217l4.088-5.134l21.04,12.644c-2.347,3.38-5.098,6.694-8.265,9.929L142.1,232.217z"/>
		<path fill="#FFFFFF" d="M86.671,188.891c-0.774-0.329-1.513-0.655-2.256-0.981c-0.771-0.345-1.528-0.741-2.235-1.186
			c-0.516-0.311-0.997-0.654-1.445-1.049c-0.07-0.089-0.138-0.174-0.222-0.263c-0.74-0.738-1.328-1.58-1.79-2.491
			c-0.294-0.568-0.568-1.121-0.811-1.687v-0.019c-0.309-1.118-0.499-2.408-0.583-3.871c-0.379-3.665-0.292-7.055,0.257-10.184
			h64.882c0.05,0.428,0.085,0.857,0.103,1.288c0.189,3.474-0.206,7.261-1.223,11.358c-0.912,2.803-2.216,4.693-3.956,5.676
			c-1.153,0.669-2.169,1.224-3.011,1.669c-0.569,0.276-1.152,0.534-1.738,0.79c-1.377,0.586-2.804,1.104-4.285,1.533
			c-1.584,0.462-3.164,0.876-4.764,1.222c-1.566,0.36-3.166,0.637-4.766,0.841c-3.045,0.449-6.092,0.726-9.137,0.845
			c-1.222,0.034-2.428,0.051-3.65,0.034c-0.445-0.018-0.891-0.018-1.355-0.018c-1.258-0.068-2.531-0.136-3.804-0.19
			c-1.739-0.119-3.492-0.342-5.229-0.685c-0.568-0.123-1.138-0.262-1.706-0.381C91.49,190.574,89.062,189.836,86.671,188.891"/>
		
			<path fill="none" stroke="#003C8F" stroke-width="2.7532" stroke-linecap="round" stroke-linejoin="round" stroke-miterlimit="10" d="
			M77.912,181.234v-0.019c-0.308-1.118-0.499-2.408-0.584-3.871c-0.378-3.665-0.291-7.055,0.258-10.184h64.883
			c0.049,0.428,0.084,0.859,0.1,1.288c0.191,3.474-0.204,7.261-1.221,11.358c-0.912,2.803-2.218,4.693-3.954,5.676
			c-1.155,0.671-2.171,1.224-3.013,1.669c-0.568,0.276-1.153,0.534-1.738,0.79c-1.377,0.586-2.805,1.104-4.283,1.533
			c-1.584,0.462-3.166,0.876-4.766,1.222c-1.566,0.36-3.166,0.634-4.767,0.841c-3.045,0.449-6.091,0.726-9.136,0.845
			c-1.222,0.034-2.426,0.051-3.65,0.034c-0.445-0.018-0.891-0.018-1.357-0.018c-1.256-0.068-2.531-0.136-3.802-0.19
			c-1.74-0.119-3.492-0.344-5.229-0.685c-0.568-0.123-1.138-0.262-1.706-0.381c-2.457-0.569-4.885-1.308-7.277-2.253
			c-0.773-0.329-1.514-0.655-2.255-0.981c-0.771-0.345-1.53-0.741-2.235-1.186c-0.518-0.311-0.997-0.654-1.445-1.049
			 M80.734,185.675c-0.07-0.089-0.138-0.174-0.224-0.259c-0.74-0.742-1.325-1.584-1.79-2.495c-0.29-0.568-0.566-1.121-0.809-1.687
			 M80.734,185.675c-0.325-0.259-0.637-0.555-0.929-0.861c-0.844-0.879-1.463-2.084-1.894-3.579"/>
		<path fill="#D7272A" d="M103.407,152.685c1.842,2.649,3.963,4.938,6.395,6.847c2.449,1.913,5.081,3.313,7.914,4.23
			c2.549,0.85,5.159,1.407,7.838,1.693c2.545,0.229,5.104,0.181,7.657-0.175c1.182-0.158,2.533-0.531,4.041-1.083
			c-14.811,1.361-26.896-4.359-36.229-17.157C101.062,148.575,101.85,150.46,103.407,152.685"/>
		<path fill="#FFFFFF" d="M156.066,105.191c-1.833-2.994-4.088-4.51-6.726-4.562c-2.623-0.049-4.856,1.392-6.696,4.307
			c-1.837,2.894-2.753,6.436-2.747,10.6c-0.01,4.163,0.922,7.729,2.772,10.728c1.832,2.994,4.086,4.511,6.724,4.562
			c2.621,0.049,4.854-1.393,6.695-4.306c1.857-2.911,2.774-6.467,2.751-10.635C158.849,111.721,157.919,108.158,156.066,105.191"/>
		<path fill="#FFFFFF" d="M131.076,103.077c-2.498-3.267-5.738-5.104-9.726-5.511c-3.987-0.408-7.555,0.73-10.667,3.414
			c-3.113,2.669-4.899,6.106-5.332,10.332c-0.43,4.227,0.588,7.973,3.08,11.256c2.518,3.271,5.775,5.109,9.762,5.518
			c3.969,0.405,7.521-0.733,10.635-3.42c3.148-2.68,4.936-6.134,5.366-10.36C134.625,110.078,133.591,106.35,131.076,103.077"/>
		<path fill="#1B1616" d="M151.257,114.026c-0.936-1.553-2.118-2.441-3.575-2.652c-1.459-0.207-2.761,0.325-3.934,1.576
			c-1.144,1.29-1.809,2.931-1.979,4.925c-0.17,2.001,0.207,3.792,1.116,5.342c0.933,1.588,2.115,2.476,3.573,2.686
			c1.457,0.211,2.76-0.321,3.934-1.608c1.143-1.254,1.808-2.897,1.976-4.895C152.535,117.402,152.16,115.609,151.257,114.026"/>
		<path fill="#1B1616" d="M116.546,112.342c1.517-1.371,3.245-2.001,5.22-1.876c1.973,0.121,3.609,0.966,4.942,2.512
			c1.296,1.582,1.888,3.409,1.761,5.489c-0.133,2.076-0.948,3.816-2.43,5.188c-1.519,1.405-3.245,2.036-5.218,1.912
			c-1.976-0.121-3.614-0.965-4.944-2.549c-1.297-1.547-1.892-3.374-1.76-5.451C114.248,115.488,115.063,113.748,116.546,112.342"/>
		<path fill="none" stroke="#332C2A" stroke-width="7.6693" stroke-linecap="round" stroke-miterlimit="10" d="M103.44,90.516
			c21.043-6.691,38.517-6.375,52.446,0.953"/>
		<path fill="#E38100" d="M156.719,140.509c0.104-6.192-1.446-11.547-4.688-16.028c-3.256-4.519-7.241-6.878-11.958-7.062
			c-4.716-0.202-8.77,1.84-12.174,6.085c-3.405,4.229-5.157,9.448-5.263,15.643c-0.105,6.193,1.446,11.547,4.687,16.064
			c3.242,4.498,7.211,6.839,11.928,7.023c4.716,0.2,8.782-1.819,12.203-6.05C154.858,151.939,156.615,146.7,156.719,140.509"/>
		<path fill="#FCDF00" d="M176.507,139.689c0.474-4.825-0.34-9.07-2.42-12.73c-2.077-3.66-4.838-5.656-8.259-5.99
			c-3.409-0.336-6.504,1.09-9.268,4.277c-2.749,3.186-4.366,7.193-4.841,12.02c-0.469,4.826,0.341,9.07,2.419,12.73
			c2.098,3.661,4.857,5.658,8.26,5.993c3.43,0.336,6.521-1.09,9.27-4.277C174.416,148.523,176.035,144.518,176.507,139.689"/>
		
			<path fill="none" stroke="#E06A05" stroke-width="2.7522" stroke-linecap="round" stroke-linejoin="round" stroke-miterlimit="10" d="
			M176.507,139.689c-0.472,4.828-2.091,8.834-4.839,12.022c-2.748,3.188-5.84,4.613-9.27,4.277c-3.402-0.335-6.162-2.332-8.26-5.993
			c-2.078-3.66-2.888-7.904-2.419-12.73c0.475-4.826,2.092-8.834,4.841-12.02c2.764-3.188,5.858-4.613,9.268-4.277
			c3.421,0.334,6.182,2.33,8.259,5.99C176.167,130.619,176.98,134.864,176.507,139.689z"/>
		<path fill="#FCDF00" d="M77.911,130.05c0.472-4.827-0.339-9.07-2.418-12.729c-2.097-3.66-4.857-5.66-8.262-5.994
			c-3.426-0.332-6.521,1.092-9.267,4.281c-2.75,3.186-4.369,7.193-4.841,12.02c-0.472,4.827,0.343,9.071,2.419,12.73
			c2.08,3.659,4.839,5.656,8.262,5.994c3.407,0.333,6.503-1.095,9.268-4.28C75.819,138.884,77.438,134.877,77.911,130.05"/>
		
			<path fill="none" stroke="#E06A05" stroke-width="2.7522" stroke-linecap="round" stroke-linejoin="round" stroke-miterlimit="10" d="
			M75.493,117.32c-2.097-3.66-4.856-5.66-8.264-5.994c-3.424-0.332-6.519,1.092-9.265,4.281c-2.75,3.186-4.369,7.193-4.841,12.02
			c-0.472,4.827,0.343,9.071,2.419,12.73c2.08,3.659,4.838,5.656,8.263,5.994c3.406,0.333,6.502-1.095,9.267-4.28
			c2.749-3.188,4.366-7.194,4.839-12.021C78.383,125.223,77.572,120.979,75.493,117.32z"/>
		<path fill="#FCDF00" d="M151.262,78.328c-0.045-0.059-0.073-0.131-0.119-0.185c-6.995-11.364-15.621-17.858-25.886-19.466
			c-1.697-0.32-3.443-0.477-5.239-0.494c-10.332-0.372-20.005,4.332-29.025,14.078c-0.058,0.047-0.096,0.112-0.151,0.157
			C83.26,80.821,77.33,90.021,73.021,99.986c-0.531,1.383-1.031,2.767-1.513,4.155c-0.172,0.521-0.342,1.038-0.515,1.56
			c-2.759,8.232-4.474,16.41-5.112,24.537c-0.157,3.908-0.01,7.879,0.405,11.929c0.865,8.847,4.29,16.769,10.256,23.797
			c7.757,8.828,19.055,13.841,33.888,15.016c15.158,1.756,27.415-0.95,36.738-8.109c7.214-5.742,12.109-12.849,14.669-21.361
			c1.192-3.893,2.107-7.759,2.71-11.623c0.946-8.096,0.848-16.455-0.264-25.065c-0.066-0.542-0.135-1.084-0.204-1.626
			c-0.204-1.456-0.422-2.911-0.662-4.37C161.44,97.623,157.385,87.447,151.262,78.328"/>
		
			<path fill="none" stroke="#E06A05" stroke-width="2.7522" stroke-linecap="round" stroke-linejoin="round" stroke-miterlimit="10" d="
			M151.143,78.144c-6.995-11.364-15.623-17.858-25.886-19.466c-1.697-0.32-3.443-0.477-5.239-0.494
			c-10.332-0.372-20.003,4.332-29.026,14.078c-0.057,0.047-0.095,0.112-0.15,0.157C83.26,80.821,77.33,90.021,73.021,99.986
			c-0.533,1.383-1.031,2.767-1.513,4.155c-0.172,0.52-0.342,1.038-0.513,1.56c-2.761,8.232-4.476,16.41-5.114,24.537
			c-0.157,3.908-0.01,7.879,0.405,11.929c0.865,8.847,4.29,16.769,10.256,23.797c7.759,8.828,19.055,13.841,33.888,15.016
			c15.158,1.756,27.415-0.95,36.738-8.109c7.214-5.742,12.109-12.849,14.669-21.361c1.192-3.893,2.107-7.759,2.71-11.623
			c0.946-8.096,0.848-16.455-0.264-25.065c-0.066-0.542-0.137-1.084-0.204-1.626c-0.204-1.456-0.422-2.911-0.662-4.37
			c-1.978-11.201-6.033-21.377-12.156-30.496C151.217,78.27,151.188,78.197,151.143,78.144z"/>
		<path fill="#332C2A" d="M140.31,27.512c0.518-0.518,0.931-1.049,1.26-1.568c0.101-0.146-0.994,0.092-3.282,0.715
			c-2.362,0.648-4.167,1.234-5.392,1.754c-2.795,1.181-4.852,2.43-6.208,3.746c-0.542,0.589-1.029,1.162-1.444,1.691
			c-0.621-0.906-1.327-2.151-2.123-3.732c-1.041-2.088-1.683-4.362-1.922-6.858c-0.029-2.008-0.07-2.995-0.123-2.984
			c-1.255,0.293-2.501,1.018-3.738,2.157c-2.5,2.263-3.864,5.62-4.092,10.074c-0.147,2.197-0.071,4.433,0.244,6.693
			c-1.678-0.717-2.988-1.449-3.898-2.214c-1.146-0.992-2.253-2.934-3.333-5.856c-0.862-2.312-1.299-3.857-1.346-4.624
			c-0.03-0.208-0.335,0.245-0.925,1.361c-0.678,1.248-1.19,2.596-1.541,4.067c-1.065,4.543-0.189,8.829,2.617,12.837
			c0.242,0.351,0.585,0.902,1.013,1.654c-4.902-1.31-8.512-3.616-10.864-6.939c-0.16-0.345-0.326-0.032-0.54,0.917
			c-0.185,1.018-0.268,2.203-0.21,3.572c0.142,4.022,1.268,7.174,3.396,9.455l0.536,0.536c-1.945,0.089-3.881-0.085-5.829-0.499
			c-1.238-0.242-2.46-0.639-3.648-1.221c-0.871-0.43-2.052-1.1-3.499-2c-0.176-0.157,0.718,1.469,2.668,4.857
			c2.011,3.462,3.503,5.719,4.489,6.762c2.441,2.605,5.557,4.485,9.372,5.602c3.812,1.115,8.231,0.822,13.257-0.9
			c0.973,0.805,2.117,1.504,3.389,2.095c1.206,0.55,2.381,0.925,3.486,1.101c1.445,0.229,2.829,0.225,4.119-0.047
			c1.479-0.287,2.694-0.895,3.63-1.82c1.022,1.049,2.257,1.861,3.667,2.465c1.396,0.568,2.836,0.865,4.338,0.874
			c1.466,0.023,2.933-0.128,4.401-0.469c0.987-0.196,2.408-0.611,4.267-1.205c1.69-0.526,4.529-0.907,8.508-1.14
			c3.403-0.168,5.073-0.281,5.013-0.342c-1.194-1.238-2.61-2.137-4.27-2.662c-1.354-0.461-3.057-0.73-5.105-0.811
			c-0.892-0.068-1.845-0.025-2.844,0.102c1.013-0.451,1.949-1,2.825-1.656c1.881-1.407,3.437-3.172,4.632-5.321
			c0.665-1.161,1.62-3.314,2.848-6.495c-1.469,1.049-3.135,2.184-4.996,3.383c-3.764,2.415-6.556,3.732-8.372,3.951
			c-0.508,0.07-1.34,0.11-2.466,0.139c1.597-2.939,2.832-4.943,3.7-6.033c0.94-1.15,2.868-2.829,5.778-5.031l3.917-2.938
			c-1.186-0.79-2.712-1.233-4.569-1.344c-1.669-0.095-3.482,0.091-5.414,0.576c0.969-1.41,1.488-3.709,1.544-6.936
			c0.057-3.242-0.012-4.684-0.235-4.308c-0.893,1.52-2.051,2.927-3.489,4.22c-1.438,1.262-2.988,2.283-4.651,3.037
			c-1.214,0.571-2.787,1.092-4.716,1.578c0.198-2.037,0.576-3.797,1.137-5.28C136.449,33.236,138.114,30.322,140.31,27.512"/>
		<path fill="#D7272A" d="M150.122,157.711c-5.838,3.146-12.264,5.075-19.263,5.773c-6.999,0.681-12.948,0.789-17.828,0.312
			c-4.896-0.479-10.718-1.741-17.449-3.763c-6.731-2.042-12.664-5.177-17.781-9.394c10.319,10.409,21.93,16.09,34.812,17.054
			C125.474,169.248,137.967,165.923,150.122,157.711"/>
		<path fill="#FFFFFF" d="M149.86,115.977c0.415-4.244-0.652-7.996-3.184-11.268c-2.564-3.275-5.843-5.1-9.867-5.492
			c-4.02-0.393-7.59,0.761-10.742,3.477c-3.117,2.721-4.893,6.194-5.305,10.438c-0.415,4.229,0.653,7.98,3.184,11.271
			c2.564,3.273,5.842,5.096,9.866,5.49c4.022,0.394,7.591-0.762,10.74-3.478C147.674,123.678,149.449,120.203,149.86,115.977"/>
		<path fill="#FFFFFF" d="M114.77,112.545c0.413-4.243-0.652-7.995-3.184-11.267c-2.565-3.274-5.842-5.099-9.865-5.491
			c-4.023-0.396-7.594,0.758-10.743,3.477c-3.152,2.717-4.926,6.189-5.343,10.434c-0.411,4.229,0.655,7.979,3.22,11.271
			c2.565,3.275,5.844,5.099,9.867,5.49c4.021,0.396,7.591-0.758,10.742-3.477C112.585,120.246,114.357,116.775,114.77,112.545"/>
		<path fill="#1B1616" d="M139.739,110.564c-1.22-1.637-2.795-2.592-4.753-2.854c-1.964-0.26-3.729,0.25-5.339,1.512
			c-1.58,1.299-2.515,2.977-2.788,5.043c-0.276,2.062,0.188,3.928,1.378,5.562c1.215,1.668,2.79,2.625,4.753,2.885
			c1.958,0.262,3.727-0.25,5.34-1.543c1.574-1.268,2.508-2.947,2.781-5.01C141.388,114.099,140.923,112.232,139.739,110.564"/>
		<path fill="#1B1616" d="M96.571,106.347c1.517-1.37,3.245-2.004,5.219-1.881c1.975,0.124,3.609,0.968,4.942,2.517
			c1.299,1.581,1.892,3.41,1.76,5.486c-0.129,2.077-0.947,3.817-2.428,5.189c-1.52,1.405-3.246,2.037-5.221,1.914
			c-1.974-0.125-3.608-0.967-4.94-2.55c-1.3-1.546-1.892-3.376-1.761-5.453C94.271,109.492,95.088,107.752,96.571,106.347"/>
		<path fill="none" stroke="#332C2A" stroke-width="6.1915" stroke-linecap="round" stroke-miterlimit="10" d="M90.137,86.635
			c23.41-3.466,43.025-1.549,58.883,5.756"/>
		<path fill="#E38100" d="M126.058,154.443c3.73-4.041,5.905-9.134,6.507-15.296c0.604-6.162-0.543-11.581-3.422-16.232
			c-2.91-4.692-6.706-7.258-11.412-7.719c-4.707-0.46-8.925,1.323-12.658,5.365c-3.725,4.007-5.897,9.101-6.501,15.263
			c-0.604,6.162,0.545,11.578,3.423,16.267c2.876,4.654,6.67,7.221,11.378,7.679C118.08,160.231,122.298,158.449,126.058,154.443"/>
	</g>
</g>
<g id="guide" display="none">
</g>
</svg>
