<svg xmlns="http://www.w3.org/2000/svg" width="267.026" height="368.766" viewBox="0 0 267.026 368.766"><g><ellipse fill="#D6DEDB" cx="142.354" cy="318.693" rx="85" ry="21.5"/><path fill="#EDDC00" d="M136.562 237.659c.935-2.124.977-4.8.139-8.029-.888-3.396-2.573-6.493-5.066-9.266-2.872-3.171-6.37-5.389-10.495-6.648-4.827-1.474-10.204-1.529-16.131-.188-1.146-2.002-3.797-4.361-7.965-7.112-4.438-2.929-9.119-5.258-14.048-6.993-5.72-2.023-10.709-2.799-14.985-2.318-5.058.549-8.688 2.831-10.893 6.84-3.09 5.608-1.296 11.482 5.382 17.623 2.438 2.235 5.209 4.188 8.299 5.869 2.77 1.491 4.876 2.313 6.335 2.443-2.959 4.239-3.2 8.596-.725 13.049 2.143 3.886 5.912 7.226 11.299 10.007 5.152 2.684 10.188 4.084 15.12 4.205 5.313.148 8.913-1.318 10.808-4.404-.391 2.806.845 5.262 3.723 7.37 2.691 1.98 6.031 3.142 10.014 3.461 4.191.351 7.803-.37 10.844-2.174 3.505-2.056 5.58-5.236 6.228-9.541.23-1.528-1.071-3.994-3.91-7.412-2.863-3.417-4.193-5.818-3.98-7.199l.007.417z"/><path fill="#F1B800" d="M129.383 265.618c-.705 0-1.433-.032-2.175-.093-4.313-.347-8.021-1.635-11.014-3.836-2.111-1.548-3.316-3.189-3.955-4.751-2.359 1.55-5.506 2.273-9.469 2.166-5.202-.129-10.577-1.615-15.972-4.427-5.706-2.946-9.783-6.58-12.112-10.8-2.357-4.243-2.541-8.6-.567-12.735-1.214-.441-2.615-1.095-4.255-1.978-3.239-1.762-6.165-3.831-8.695-6.15-7.401-6.804-9.344-13.54-5.776-20.019 2.523-4.585 6.694-7.226 12.404-7.848 4.52-.509 9.869.305 15.855 2.42 5.055 1.781 9.925 4.204 14.472 7.205 3.696 2.44 6.253 4.597 7.768 6.558 5.753-1.115 11.064-.947 15.82.507 4.446 1.355 8.274 3.779 11.379 7.206 2.692 2.996 4.544 6.389 5.51 10.09.886 3.415.876 6.373-.032 8.804.2.654.917 2.192 3.471 5.24 3.339 4.022 4.677 6.787 4.348 8.969-.737 4.901-3.154 8.581-7.176 10.942-2.828 1.679-6.137 2.53-9.829 2.53zm-12.505-21.924l-1.298 9.312c-.182 1.308-.074 3.305 2.94 5.513 2.397 1.765 5.425 2.802 9.006 3.087 3.795.317 7.018-.32 9.685-1.903 3-1.76 4.728-4.421 5.289-8.145.021-.145.108-1.538-3.48-5.864-.979-1.17-1.795-2.232-2.441-3.197l-1.755 3.984-.218-8.342c-.058-.424-.056-.823 0-1.198l.382.023-.225-.099c.746-1.691.756-3.96.034-6.742-.803-3.086-2.359-5.928-4.624-8.444-2.617-2.889-5.851-4.938-9.607-6.083-4.465-1.364-9.546-1.415-15.126-.154l-1.416.32-.723-1.259c-.673-1.175-2.49-3.247-7.341-6.447-4.279-2.827-8.862-5.106-13.616-6.781-5.414-1.915-10.164-2.661-14.115-2.221-4.427.483-7.497 2.393-9.39 5.835-2.618 4.753-.986 9.735 4.99 15.229 2.292 2.1 4.955 3.983 7.909 5.592 3.148 1.695 4.767 2.137 5.566 2.207l3.384.301-1.943 2.782c-2.516 3.607-2.719 7.195-.62 10.973 1.948 3.528 5.477 6.628 10.484 9.216 4.863 2.533 9.66 3.871 14.267 3.984l.675.01c4.225 0 6.973-1.137 8.409-3.474l4.918-8.015z"/><path fill="#FCDF00" d="M136.562 237.659c.935-2.124.977-4.8.139-8.029-.888-3.396-2.573-6.493-5.066-9.266-2.872-3.171-6.37-5.389-10.495-6.648-4.827-1.474-10.204-1.529-16.131-.188-1.146-2.002-3.797-4.361-7.965-7.112-4.438-2.929-9.119-5.258-14.048-6.993-5.72-2.023-10.709-2.799-14.985-2.318-5.058.549-8.688 2.831-10.893 6.84-3.09 5.608-1.296 11.482 5.382 17.623 2.438 2.235 5.209 4.188 8.299 5.869 2.77 1.491 4.876 2.313 6.335 2.443-2.959 4.239-3.2 8.596-.725 13.049 2.143 3.886 5.912 7.226 11.299 10.007 5.152 2.684 10.188 4.084 15.12 4.205 5.313.148 8.913-1.318 10.808-4.404-.391 2.806.845 5.262 3.723 7.37 2.691 1.98 6.031 3.142 10.014 3.461 4.191.351 7.803-.37 10.844-2.174 3.505-2.056 5.58-5.236 6.228-9.541.23-1.528-1.071-3.994-3.91-7.412-2.863-3.417-4.193-5.818-3.98-7.199l.007.417z"/><path fill="#E32126" d="M134.927 247.074c.131-.359.265-.719.412-1.052-4.822-.852-9.644-1.678-14.485-2.507l-.441 1.016c-2.065 4.584-3.914 9.579-5.534 14.991l-.197-.035c-1.068-.149-2.109.19-3.144 1.024h-.014v.015c-.882.725-1.48 1.675-1.782 2.827-.212 1.163-.062 2.205.481 3.134.612 1.059 1.459 1.646 2.551 1.755h.016c.104-.004.198.01.263.032l-.02.181c-.097.268-.179.546-.247.849-.118.518-.217 1.046-.305 1.562l.014.025-.124.658c-.029.252-.035.517-.014.766.02.194 0 .366-.073.54l-.12-.088.003.106c-.944.04-1.758.478-2.438 1.311l-.015.002v.015c-.667.821-.974 1.83-.909 3.023.065.876.33 1.67.783 2.377l2.56-.087-.151-.162c-.121-.089-.227-.192-.336-.318v-.014c-.451-.481-.706-1.051-.741-1.722-.021-.277-.003-.525.043-.776.201-.649.55-1.199 1.049-1.637.647-.572 1.398-.885 2.253-.939l.065-.002.009-.144.135-.335c-.258-.531-.33-1.171-.234-1.895.118-.846.3-1.666.551-2.475.108-.318.238-.597.43-.828l.096-.736-.093.001c-.857-.064-1.629-.405-2.291-1.028-.61-.568-.976-1.28-1.121-2.116.004-.247.022-.501.04-.748.093-.396.24-.732.427-1.012.217-.229.444-.461.673-.667.332-.313.72-.548 1.147-.708.883-.317 1.745-.463 2.585-.426l.022-.037c1.492-5.371 3.248-10.311 5.28-14.854l10.498 1.834c-1.844 4.668-3.367 9.526-4.579 14.552l.002.027c.617.413 1.096.987 1.445 1.727.16.374.241.79.241 1.238-.051.881-.366 1.678-.935 2.394-.469.555-1.055.979-1.742 1.265l-.079.02-.08-.041-.036.042c-.117.106-.205.229-.293.366-.187.279-.333.601-.414.971-.173.728-.266 1.464-.307 2.229-.024.487.017.943.112 1.399l-.011.029.007.313.002.039h.015l.25.016c.871.17 1.585.646 2.133 1.428.438.604.673 1.267.696 2.015-.022.093-.032.224-.015.379-.016.278-.059.542-.116.792l2.203-.072c.028-.326.043-.685.017-1.05-.106-1.191-.531-2.229-1.271-3.108-.503-.603-1.083-1.017-1.707-1.246l-.002-.024-.094-.063-.029-.037-.02-.303c-.034-.141-.038-.3-.03-.471.037-.474.101-.936.203-1.371.129-.543.365-.973.707-1.298v-.041c.426-.185.826-.447 1.221-.8.828-.75 1.373-1.712 1.613-2.889.236-1.15.096-2.197-.393-3.126-.293-.515-.646-.912-1.049-1.188 1.286-5.096 2.872-10.036 4.778-14.809M81.711 289.902c-4.178 1.487-7.354 3.496-9.516 6.008-2.203 2.528-3.116 5.146-2.75 7.854v.01c.315 2.775 1.931 5.175 4.845 7.219h.013c2.972 2.084 6.994 3.487 12.099 4.215h.016c12.069 1.703 27.694-.622 46.85-6.974.826-.078 1.103-2.098.842-6.056v-.013c-.259-3.432-.78-6.552-1.598-9.363l.029-.014c-.059-.141-.103-.27-.121-.389.271-.219.515-.476.726-.772l.012-.012c.525-.846.688-1.848.492-3.024-.261-1.159-.806-2.166-1.647-3.017-.487-.444-.97-.771-1.45-1.005-.33-.041-.587-.243-.796-.617-.224-.413-.407-.839-.567-1.268-.073-.194-.092-.39-.071-.562l-.048-.249c.414-.21.785-.525 1.112-.954l.013-.014c.43-.581.693-1.258.788-2.01l-2.203.072c-.155.516-.415.974-.782 1.381l-.141.133-1.044.653c-.029 1.433.313 2.733 1.051 3.932l.148.178.612.283c.335.157.711.383 1.112.67.415.289.744.567.948.821.42.435.695.951.812 1.562v.028l.014.037.031.131.032.17c.039.746-.124 1.435-.484 2.064-.236.375-.543.686-.926.923l.011.064c.107.434.242.859.375 1.316v.009h.014c.906 2.849 1.448 5.718 1.606 8.627.163 2.911.313 4.337.444 4.294-18.766 6.217-34.079 8.521-45.91 6.874-.832-.118-1.624-.259-2.39-.406-.201-.138-.403-.275-.581-.439-1.351-1.152-2.135-2.661-2.355-4.545-.215-1.819.16-3.539 1.119-5.184 1.007-1.728 2.488-2.971 4.448-3.718-2.887.501-5.055 1.728-6.474 3.679-1.294 1.737-1.742 3.669-1.358 5.795.24 1.37.777 2.521 1.6 3.479-2.019-.653-3.753-1.491-5.216-2.507-2.354-1.64-3.676-3.556-3.971-5.766-.256-2.13.491-4.201 2.249-6.216 1.975-2.258 4.856-4.06 8.646-5.418 8.474-3.021 18.967-3.301 31.485-.811l.847.668.372.066.052-.002c-.254-.121-.482-.324-.718-.619l-.066-.076c-.287-.396-.515-.862-.688-1.394-.118-.379-.184-.757-.207-1.125-.022-.3-.008-.604.036-.892.118-.754.492-1.319 1.126-1.691.242-.153.488-.294.748-.394l1.21-.344-.085-.23c-.717-1.344-1.194-2.747-1.413-4.221l-.802-.066c-.531-.1-1.064-.359-1.616-.748-.201-.153-.393-.316-.554-.479l-2.556.083c.152.242.345.487.548.715l.013.013c.886.983 1.887 1.461 3.002 1.465.033.172.091.338.189.52l.045.154c.116.404.247.793.392 1.183.087.223.187.413.294.597-.917.08-1.636.538-2.173 1.358h-.016l.018.012c-.541.806-.707 1.755-.525 2.85-11.684-1.961-21.569-1.49-29.668 1.439"/><path fill="#E17C9E" d="M114.096 261.253c-.428.16-.815.395-1.147.708-.229.206-.456.438-.673.667-.187.28-.334.616-.427 1.012-.018.247-.036.498-.04.748.146.836.511 1.544 1.121 2.116.662.623 1.434.964 2.291 1.028l.09-.001.082-.004c3.796.491 7.567.972 11.326 1.466l.036-.042.08.041.079-.018c.688-.285 1.273-.712 1.742-1.267.568-.716.884-1.511.935-2.394 0-.446-.081-.864-.241-1.238-.35-.739-.828-1.313-1.445-1.727l-.002-.023c-3.72-.499-7.463-.992-11.222-1.498-.84-.037-1.702.109-2.585.426"/><path fill="#E76500" d="M115.393 267.527l-.081.002-.094.738c-.191.231-.323.51-.431.828-.252.809-.432 1.629-.55 2.475-.095.724-.022 1.363.234 1.895l-.137.335-.009.144.094.008.078.027c3.784.096 7.558.209 11.315.322l-.011-.313.015-.029c-.096-.456-.137-.912-.115-1.399.044-.765.137-1.501.31-2.229.081-.37.228-.691.414-.971.088-.137.176-.26.293-.366-3.758-.495-7.531-.975-11.325-1.467M116.705 260.79l-.024.038c3.759.506 7.502.999 11.222 1.494 1.212-5.025 2.735-9.884 4.579-14.552-3.475-.607-6.976-1.217-10.498-1.834-2.032 4.543-3.789 9.483-5.279 14.854"/><path fill="#E17C9E" d="M125.817 274.34l-.004-.038c-3.758-.114-7.531-.226-11.313-.326l-.08-.024-.094-.008-.063.002c-.854.052-1.605.367-2.253.939-.499.438-.852.988-1.049 1.637-.046.249-.067.501-.042.776.034.669.291 1.238.739 1.722v.014c.11.126.218.229.337.315.205.244.438.459.705.647.552.39 1.085.648 1.616.748l.802.066 2.613.068c2.813.067 5.625.147 8.423.238l.657.019 1.044-.653.139-.133c.544-.598.851-1.316.9-2.171-.016-.157-.008-.288.016-.381-.024-.748-.258-1.409-.697-2.015-.548-.778-1.26-1.258-2.136-1.424l-.249-.02h-.011zM115.406 285.605c-.26.1-.506.24-.748.394-.634.373-1.008.938-1.126 1.691-.043.288-.06.592-.037.892.024.368.09.746.208 1.125.174.531.401.997.688 1.394l.066.076c.235.295.466.498.718.619l-.052.002.187.059.303.069.08.01.355.016.535.012c4.557-.008 9.075-.022 13.575-.028.387-.233.693-.547.93-.92.36-.632.52-1.321.484-2.068l-.03-.168-.033-.131-.014-.037-.004-.028c-.109-.611-.387-1.128-.809-1.562-.204-.254-.529-.532-.948-.819-.401-.289-.777-.515-1.108-.674l-.615-.281-1.498-.006c-2.703-.003-5.408.009-8.124.02l-1.773.003-1.21.34z"/><path fill="#E76500" d="M115.311 291.856l-.187-.059-.371-.066c-.281-.224-.567-.453-.85-.668-12.514-2.49-23.01-2.214-31.483.811-3.787 1.358-6.671 3.16-8.646 5.418-1.758 2.015-2.503 4.086-2.251 6.219.297 2.207 1.619 4.121 3.973 5.763 1.463 1.016 3.197 1.853 5.216 2.508-.822-.958-1.357-2.109-1.6-3.479-.384-2.126.064-4.058 1.358-5.795 1.419-1.949 3.587-3.178 6.474-3.678-1.96.748-3.443 1.989-4.448 3.717-.959 1.645-1.334 3.364-1.119 5.184.221 1.884 1.005 3.393 2.355 4.545.178.164.38.302.581.439.768.145 1.558.292 2.39.408 11.831 1.645 27.145-.659 45.91-6.876-.129.043-.281-1.383-.44-4.291-.164-2.912-.704-5.783-1.61-8.628h-.012v-.011c-.137-.457-.268-.888-.373-1.316l-.015-.064c-4.504.005-9.019.02-13.579.026l-.535-.009-.355-.014-.082-.014-.301-.07zM116.616 285.262l1.773-.003c2.716-.011 5.421-.022 8.124-.02l1.497.006-.148-.18c-.737-1.196-1.08-2.497-1.051-3.932l-.657-.017c-2.798-.093-5.609-.171-8.419-.236l-2.617-.07c.221 1.474.696 2.877 1.413 4.221l.085.231"/><path fill="#E32126" d="M140.754 257.232c-.172-.338-.348-.675-.535-.986 4.654-1.433 9.312-2.835 13.993-4.244l.556.946c2.604 4.27 5.037 8.976 7.297 14.116l.192-.056c1.036-.276 2.104-.073 3.229.623h.011l.002.012c.96.609 1.667 1.476 2.107 2.577.353 1.118.327 2.169-.093 3.15-.475 1.119-1.241 1.803-2.305 2.045l-.013.002c-.103.009-.194.029-.257.062l.041.18c.13.249.248.516.349.809.179.492.341 1.003.489 1.501l-.008.027c.072.215.142.418.201.638.062.241.097.499.107.749.007.194.046.359.139.523l.109-.102.011.104c.935-.072 1.792.258 2.568 1l.014-.003v.014c.761.729 1.186 1.687 1.271 2.871.052 1.177-.258 2.252-.939 3.219l-.014.016c-.755 1.077-1.682 1.672-2.783 1.809 0 .157-.035.334-.113.51l-2.064.187c.074-.463.112-.939.118-1.423l.785-.163c.508-.165 1.003-.483 1.5-.939.245-.216.444-.456.615-.724.11-.101.204-.213.294-.353v-.015c.386-.53.569-1.122.521-1.788-.012-.275-.062-.518-.135-.76-.279-.619-.69-1.115-1.236-1.486-.711-.487-1.491-.707-2.339-.654l-.065.006-.025-.142-.174-.311c.186-.555.183-1.196 0-1.9-.22-.818-.501-1.605-.846-2.375-.146-.301-.31-.562-.527-.765l-.185-.716.092-.009c.837-.167 1.56-.603 2.136-1.295.53-.641.808-1.383.846-2.228-.035-.245-.081-.489-.131-.733-.139-.382-.326-.692-.544-.947-.239-.201-.496-.398-.747-.574-.368-.268-.777-.452-1.218-.558-.909-.204-1.779-.244-2.603-.104l-.032-.034c-2.128-5.116-4.465-9.779-7.024-14.015-3.403 1.042-6.783 2.07-10.137 3.095 2.39 4.383 4.484 8.988 6.296 13.806l.004.025c-.558.481-.959 1.108-1.218 1.88-.109.39-.136.813-.082 1.251.158.864.564 1.614 1.212 2.251.53.487 1.166.835 1.879 1.034l.078.007.074-.047.041.033c.128.095.23.202.332.324.22.257.405.553.529.909.257.697.441 1.415.574 2.162.085.478.101.938.063 1.397l.013.025.031.312.001.039-.009.002-.247.048c-.839.273-1.485.829-1.934 1.668-.359.65-.509 1.332-.441 2.07.035.091.061.219.061.377.157.835.545 1.511 1.154 2.03l.155.116 1.108.519c.035.23.058.465.063.7l-2.416.22c-.344-.166-.68-.397-.998-.721l-.013-.014c-.713-.762-1.101-1.735-1.171-2.919-.042-1.191.253-2.267.873-3.226.427-.653.947-1.134 1.535-1.439l-.002-.024.083-.072.023-.042-.016-.3c.016-.144 0-.299-.026-.467-.094-.465-.215-.912-.369-1.331-.194-.52-.479-.914-.855-1.192l-.004-.039c-.445-.134-.869-.342-1.305-.645-.908-.639-1.565-1.521-1.945-2.653-.373-1.106-.365-2.155.006-3.132.227-.545.525-.979.89-1.301-1.898-4.872-4.065-9.551-6.526-14.031h-.002zM198.811 298.377c3.889 1.68 6.812 3.878 8.776 6.594 1.992 2.742 2.77 5.555 2.337 8.438l.001.013c-.373 2.957-1.976 5.498-4.799 7.616h-.01c-2.859 2.162-6.702 3.572-11.544 4.233l-.01.003c-11.429 1.574-26.086-1.211-43.941-8.381-.228-.033-.416-.251-.546-.659l-.078.125c-.322-.954-.55-2.569-.691-4.838v-.014c-.05-.978-.069-1.922-.073-2.85.011-2.334.178-4.522.502-6.584l-.029-.015c.038-.143.064-.279.07-.396l-.209-.138c-.214-.151-.413-.33-.602-.535l-.012-.011c-.619-.772-.906-1.741-.855-2.924.114-1.179.529-2.239 1.255-3.183.428-.499.867-.878 1.311-1.168.319-.079.547-.31.709-.703.169-.438.3-.881.405-1.322.046-.203.042-.397 0-.563l.018-.25-.217-.088 2.416-.218c.067 1.148-.134 2.253-.615 3.305l-.128.197-.57.353c-.312.199-.651.466-1.015.798-.376.337-.661.652-.835.927-.364.479-.574 1.024-.609 1.643l.002.027-.009.041-.015.131-.009.172c.053.741.295 1.4.727 1.976.281.343.622.615 1.032.801l-.007.065-.035.213c-.046.358-.104.742-.172 1.13v.012h-.013c-.309 1.641-.505 3.271-.577 4.903-.055 1.276-.029 2.545.045 3.81.082 1.185.128 2.137.152 2.828l.178-.21-.062.476c-.052.438-.111.642-.168.617 17.506 7.037 31.87 9.793 43.081 8.286.779-.107 1.526-.239 2.254-.4.201-.133.382-.296.565-.457 1.309-1.189 2.093-2.796 2.354-4.799.271-1.927-.029-3.786-.886-5.554-.888-1.872-2.256-3.215-4.074-4.062 2.714.596 4.709 1.947 5.99 4.069 1.152 1.875 1.525 3.952 1.087 6.206-.273 1.453-.806 2.669-1.617 3.671 1.933-.661 3.598-1.505 5.008-2.564 2.269-1.7 3.581-3.718 3.93-6.069.307-2.269-.328-4.505-1.928-6.68-1.798-2.446-4.453-4.431-7.972-5.958-6.082-2.604-13.344-3.507-21.788-2.676l-10.971 1.43-.095-.057c.416-.169.746-.423 1.004-.771l.223-.312c.101-.177.186-.382.259-.6l.011-.012c.069-.244.14-.497.194-.752.069-.389.089-.77.066-1.134-.002-.196-.034-.39-.077-.583l-.065-.294c-.214-.73-.651-1.239-1.323-1.531-.258-.119-.516-.23-.784-.297l-1.235-.189c.005-.093.022-.171.057-.243.368-.962.623-1.928.758-2.911l2.064-.188-.01.027-.022.159c-.07.415-.15.814-.246 1.218-.056.226-.129.429-.215.619.911-.029 1.676.334 2.311 1.075h.011l-.011.013c.277.331.496.702.64 1.123.083.215.145.43.178.665.044.624.009 1.243-.134 1.846l-.125.496c.346-.096.795-.175 1.379-.241l1.659-.255c.511-.086.913-.148 1.198-.19l.001.015c10.156-1.434 18.759-.617 25.815 2.464"/><path fill="#E17C9E" d="M163.051 268.68c.44.105.85.29 1.218.558.252.174.508.373.747.574.218.257.405.567.546.947.048.244.094.49.129.733-.038.845-.315 1.587-.846 2.228-.578.692-1.299 1.128-2.136 1.295l-.092.009-.077.006c-3.688.951-7.351 1.886-11.001 2.832l-.039-.033-.076.047-.078-.007c-.713-.199-1.349-.547-1.879-1.034-.647-.637-1.054-1.387-1.212-2.251-.054-.438-.027-.861.082-1.251.259-.771.66-1.397 1.218-1.88l-.004-.025c3.611-.946 7.249-1.89 10.897-2.852.823-.14 1.694-.101 2.603.104"/><path fill="#E76500" d="M162.54 275.029l.077-.006.185.716c.218.202.381.464.527.766.345.767.626 1.556.846 2.374.183.704.187 1.344 0 1.9l.174.309.025.144-.091.022-.072.031c-3.725.562-7.434 1.133-11.129 1.706l-.029-.312-.015-.025c.037-.46.021-.92-.063-1.397-.133-.747-.317-1.465-.574-2.162-.124-.356-.31-.652-.529-.909-.102-.122-.204-.229-.332-.324 3.649-.947 7.312-1.882 11-2.833M160.416 268.539l.032.036-10.894 2.852c-1.812-4.815-3.91-9.423-6.3-13.806 3.354-1.024 6.735-2.053 10.137-3.094 2.562 4.234 4.897 8.899 7.025 14.012"/><path fill="#E17C9E" d="M153.083 283.03l-.001-.037c3.695-.573 7.404-1.146 11.127-1.706l.074-.032.091-.023.065-.006c.848-.05 1.63.165 2.339.654.546.367.957.869 1.235 1.486.074.243.124.486.138.76.044.666-.138 1.258-.522 1.789v.014c-.089.14-.185.252-.291.355-.174.265-.373.506-.618.721-.497.452-.992.774-1.5.939l-.785.161-2.571.392c-2.768.408-5.535.831-8.287 1.264l-.646.1-1.11-.517-.153-.118c-.609-.52-1.001-1.195-1.152-2.03-.002-.158-.027-.286-.062-.377-.065-.74.082-1.422.441-2.07.45-.839 1.093-1.396 1.932-1.668l.245-.048.011-.003zM164.737 292.875c.269.066.526.177.784.297.672.292 1.109.801 1.323 1.529l.065.296c.043.193.075.387.077.585.022.362.003.743-.066 1.132-.055.256-.125.508-.194.752l-.013.012c-.071.218-.156.423-.259.603l-.221.309c-.258.349-.588.603-1.004.771l-1.423.196-3.423.413c-3.164.382-6.314.772-9.438 1.16-.406-.186-.749-.458-1.028-.801-.432-.575-.676-1.234-.727-1.976l.009-.172.015-.131.009-.041-.002-.024c.037-.621.245-1.165.609-1.646.174-.274.459-.59.835-.927.363-.332.702-.599 1.015-.798l.57-.354 1.478-.188c2.669-.333 5.339-.65 8.021-.976l1.752-.21 1.236.189z"/><path fill="#E76500" d="M165.23 299.16l.095.057 10.972-1.43c8.441-.831 15.707.071 21.787 2.676 3.519 1.527 6.176 3.512 7.972 5.958 1.6 2.175 2.234 4.411 1.93 6.68-.351 2.352-1.662 4.369-3.932 6.069-1.41 1.06-3.075 1.903-5.008 2.564.812-1.002 1.344-2.218 1.618-3.671.438-2.254.064-4.331-1.088-6.204-1.281-2.124-3.276-3.476-5.992-4.071 1.82.847 3.188 2.189 4.078 4.062.854 1.768 1.154 3.627.884 5.554-.265 2.003-1.046 3.609-2.354 4.799-.184.161-.364.324-.562.457-.73.161-1.481.293-2.256.4-11.213 1.507-25.577-1.249-43.083-8.286.057.024.115-.179.168-.617l.061-.476-.176.21c-.024-.691-.07-1.644-.152-2.828-.074-1.265-.1-2.533-.045-3.81.072-1.633.269-3.263.577-4.903h.013v-.014c.068-.386.126-.77.173-1.128l.03-.213.011-.065c3.12-.388 6.271-.78 9.435-1.16l3.419-.413 1.425-.197zM163.502 292.687l-1.752.21c-2.684.322-5.353.643-8.021.976l-1.478.188.128-.195c.578-1.271.76-2.598.552-4.005l.646-.1c2.752-.433 5.52-.855 8.287-1.264l2.571-.39c-.035 1.484-.337 2.928-.875 4.337-.036.071-.053.149-.058.243"/><path fill="#E32126" d="M170.951 295.652l-.012.003.01-.015z"/><path fill="#F1B800" d="M129.466 156.63l.289.267c4.708 4.377 9.731 8.504 15.093 12.365l-.016-.01c1.514 1.1 3.136 2.016 4.886 2.761 3.151 1.348 6.423 2.178 9.825 2.472h.02l.994.079.055.008c.523.028 1.027.048 1.513.066h.021c3.248.087 6.227-.241 8.944-.986l-.018-.011c1.268-.344 2.645-.555 4.119-.641 2.87-.183 5.918.055 9.131.732 2.123.449 4.256 1.021 6.368 1.701l.054.02c9.236 2.729 16.264 7.792 21.084 15.181l.671 1.032.19.325.026.028c2.431 4.071 2.979 8.116 1.691 12.13-1.229 3.777-3.847 7.038-7.852 9.801-.407.277-.827.544-1.242.804h-.022c-1.685 1.11-3.604 1.97-5.765 2.581h-.025c-6.631 1.915-14.264 1.306-22.912-1.827h.023c-9.607-3.581-18.441-8.864-26.521-15.86-8.359-7.244-15.276-14.945-20.771-23.146l-.014-.019c-2.6-3.754-4.536-6.967-5.806-9.644l-.491-1.042-.019-.036-2.486-.096.511 1.08c1.306 2.792 3.33 6.146 6.046 10.062l-.008-.018c5.675 8.467 12.837 16.443 21.466 23.919l-.015-.011c8.494 7.378 17.823 12.948 27.976 16.73l.016.01c9.356 3.39 17.605 4.047 24.764 1.981 2.321-.66 4.385-1.58 6.195-2.745l.009-.021c.434-.259.864-.533 1.279-.832 4.24-2.907 7.004-6.366 8.291-10.384 1.446-4.489.785-9.021-1.963-13.571l-.261-.421-.011-.019-.669-1.032c-5.374-8.258-13.229-13.913-23.545-16.959l.053.019c-2.254-.727-4.525-1.328-6.773-1.814l-.005.008c-3.522-.733-6.851-1.01-9.968-.811-1.616.108-3.122.347-4.536.72-2.505.69-5.259.997-8.251.921h-.022c-.461-.018-.927-.038-1.384-.067h-.062l-.985-.087.017.012c-2.979-.248-5.857-.975-8.615-2.159-1.426-.601-2.739-1.346-3.953-2.227l.003-.008c-5.314-3.833-10.299-7.92-14.94-12.261l-1.032-.962-1.711.937 1.046.975z"/><path fill="#FCDF00" d="M123.009 165.797l.491 1.042c1.27 2.676 3.206 5.89 5.809 9.644l.009.019c5.496 8.201 12.411 15.902 20.772 23.146 8.08 6.996 16.914 12.277 26.521 15.86h-.023c8.646 3.133 16.281 3.742 22.916 1.827h.022c2.16-.611 4.08-1.471 5.765-2.581h.022c.415-.26.835-.526 1.24-.807 4.004-2.76 6.625-6.021 7.854-9.798 1.287-4.014.735-8.059-1.691-12.13l-.028-.028-.188-.325-.671-1.032c-4.82-7.389-11.85-12.452-21.088-15.181l-.05-.02c-2.112-.68-4.248-1.252-6.368-1.701-3.213-.678-6.261-.915-9.129-.732-1.477.086-2.854.297-4.121.641l.018.011c-2.718.745-5.696 1.072-8.944.986h-.022c-.484-.019-.989-.038-1.512-.066l-.058-.008-.991-.079h-.02c-3.402-.294-6.672-1.124-9.825-2.472-1.746-.745-3.372-1.661-4.882-2.761l.015.01c-5.364-3.861-10.388-7.988-15.094-12.365l-6.749 8.9zM111.65 156.893c-.032-.638-.538-.638-1.508-.004-7.752 4.989-15.926 7.611-24.517 7.862-3.327.097-7.2-.23-11.646-.965l-.465-.094c-4.695-1.042-8.735-3.284-12.14-6.72-3.507-3.552-5.798-5.719-6.874-6.5-2.657-1.929-5.028-3.339-7.124-4.231-5.169-2.188-10.296-1.799-15.37 1.169-4.142 2.429-6.872 5.76-8.203 9.991-1.22 3.822-1.176 7.906.132 12.277 1.262 4.216 3.648 8.012 7.139 11.396 3.491 3.383 7.902 6.176 13.242 8.402 5.334 2.216 12.081 2.97 20.252 2.251 8.166-.724 14.876-2.583 20.129-5.606 5.254-3.022 10.356-7.136 15.296-12.362 4.941-5.229 8.415-9.75 10.441-13.567.86-1.569 1.261-2.658 1.216-3.299z"/><path fill="#F1B800" d="M58.841 193.028c-5.759 0-10.78-.871-14.924-2.593-5.445-2.271-10.009-5.17-13.563-8.615-3.614-3.5-6.106-7.483-7.414-11.843-1.359-4.55-1.402-8.887-.125-12.891 1.405-4.466 4.322-8.023 8.669-10.572 5.336-3.119 10.856-3.534 16.3-1.229 2.176.929 4.574 2.35 7.329 4.35 1.111.805 3.404 2.968 7.003 6.607 3.249 3.28 7.16 5.444 11.622 6.436l.466.093c3.833.635 7.312.959 10.281.961h.002c.377 0 .747-.007 1.109-.017 8.36-.245 16.428-2.836 23.989-7.699.669-.441 1.188-.639 1.665-.639.677 0 1.386.452 1.436 1.466.062.849-.353 2.042-1.341 3.848-2.061 3.885-5.629 8.523-10.596 13.779-4.964 5.253-10.19 9.475-15.533 12.553-5.341 3.072-12.257 5.001-20.555 5.74-2.015.176-3.973.265-5.82.265zm-18.02-47.142c-2.755 0-5.542.814-8.291 2.421-3.888 2.277-6.489 5.444-7.736 9.406-1.149 3.604-1.104 7.527.136 11.669 1.204 4.015 3.513 7.696 6.867 10.947 3.369 3.265 7.715 6.019 12.917 8.191 5.157 2.14 11.81 2.873 19.766 2.175 7.995-.712 14.624-2.555 19.7-5.474 5.167-2.976 10.236-7.071 15.061-12.177 4.839-5.122 8.295-9.609 10.276-13.339.412-.751.67-1.307.832-1.717-7.78 4.925-16.084 7.549-24.692 7.799-.383.013-.774.018-1.17.018h-.002c-3.082 0-6.674-.334-10.674-.998l-.52-.101c-4.859-1.08-9.118-3.436-12.651-7.005-3.47-3.511-5.738-5.66-6.747-6.388-2.59-1.88-4.917-3.264-6.922-4.118-2.055-.867-4.121-1.309-6.15-1.309z"/><path fill="#FCDF00" d="M215.902 195.231c-4.773 1.369-7.482 3.235-8.125 5.563-1.073 3.843.412 7.639 4.441 11.371 1.093 1.021 2.827 2.494 5.211 4.405 2.009 1.711 3.414 3.195 4.211 4.459 1.674 2.631 2.631 4.066 2.864 4.308 1.416 1.369 2.787 1.078 4.104-.894.815-1.216.939-3.063.354-5.534-.316-1.323-.978-3.18-1.956-5.561 1.381.178 3.481.531 6.276 1.069 2.443.251 4.493-.212 6.147-1.385 1.741-1.633 1.29-3.762-1.369-6.401-2.325-2.3-5.012-3.972-8.051-5.025 1.224.247 2.992-.264 5.295-1.512 2.39-1.261 3.729-2.498 4.026-3.716.657-2.651-1.158-4.041-5.45-4.158-2.964-.062-6.199.368-9.697 1.312-3.043.451-5.808 1.021-8.281 1.699"/><path fill="#F1B800" d="M226.232 227.218c-.843 0-1.664-.385-2.446-1.139-.162-.165-.456-.467-3.019-4.494-.733-1.166-2.084-2.587-4.011-4.229-2.326-1.866-4.1-3.366-5.244-4.435-4.316-4.001-5.911-8.176-4.731-12.403.756-2.735 3.647-4.791 8.834-6.28 2.541-.695 5.369-1.275 8.422-1.728 3.206-.873 6.365-1.328 9.267-1.328l.6.007c2.984.082 4.909.749 5.894 2.043.692.907.873 2.049.538 3.395-.374 1.533-1.861 2.967-4.548 4.382-.79.429-1.521.773-2.199 1.039 1.896 1.015 3.638 2.304 5.199 3.851 1.846 1.833 2.733 3.472 2.711 5.012-.015 1.075-.475 2.043-1.36 2.878l-.107.089c-1.859 1.315-4.159 1.845-6.851 1.571-1.814-.347-3.328-.618-4.548-.814.653 1.686 1.092 3.017 1.338 4.036.648 2.748.481 4.883-.501 6.347-.976 1.46-2.067 2.2-3.238 2.2zm7.072-33.969c-2.721 0-5.698.433-8.849 1.281-3.088.463-5.832 1.026-8.282 1.695-4.303 1.238-6.865 2.913-7.402 4.847-.968 3.472.392 6.852 4.152 10.337 1.106 1.037 2.842 2.501 5.153 4.356 2.137 1.82 3.581 3.356 4.436 4.711 2.208 3.471 2.656 4.053 2.741 4.149.233.221.622.524.979.524.426 0 .965-.456 1.517-1.28.652-.972.719-2.557.208-4.72-.294-1.234-.918-3.003-1.906-5.406l-.677-1.643 1.765.224c1.442.184 3.575.549 6.342 1.08.3.027.678.049 1.05.049 1.671 0 3.062-.4 4.242-1.221.437-.426.653-.868.66-1.353.012-.923-.714-2.137-2.1-3.516-2.192-2.171-4.771-3.779-7.659-4.781l.543-1.988c.99.201 2.543-.294 4.599-1.41 2.767-1.456 3.388-2.537 3.515-3.051.266-1.072-.068-1.509-.177-1.651-.394-.516-1.459-1.151-4.3-1.229l-.55-.004z"/><path fill="#EDDC00" d="M98.848 155.999c.49-2.405 2.729-4.104 6.751-5.087 3.891-.956 9.102-1.164 15.62-.608 1.861.165 3.979 1.389 6.346 3.702 2.149 2.087 4.859 5.416 8.14 10.013 4.167 5.841 12.829 18.653 25.976 38.423 5.646 8.218 8.901 16.078 9.748 23.573.777 6.796-.416 13.052-3.602 18.749-2.916 5.223-7.274 9.661-13.086 13.301-5.485 3.453-11.688 5.884-18.622 7.276-6.897 1.371-13.651 1.555-20.252.561-6.942-1.022-12.941-3.257-17.981-6.688-5.504-3.716-9.425-8.576-11.792-14.579-2.603-6.622-3.153-14.317-1.663-23.087 3.292-19.372 6.435-34.87 9.431-46.507 2.576-8.881 4.234-15.224 4.986-19.042"/><path fill="#F1B800" d="M124.294 269.548c-2.971 0-5.956-.224-8.876-.663-7.357-1.082-13.831-3.5-19.229-7.175-5.972-4.032-10.317-9.407-12.902-15.965-2.792-7.105-3.409-15.414-1.833-24.701 3.297-19.373 6.484-35.104 9.485-46.754 2.558-8.826 4.215-15.146 4.949-18.873.746-3.663 3.767-6.157 8.991-7.435 4.218-1.038 9.783-1.267 16.597-.686 2.625.23 5.303 1.719 8.198 4.551 2.293 2.226 5.075 5.637 8.489 10.417 4.219 5.92 12.976 18.875 26.029 38.505 5.885 8.563 9.337 16.956 10.235 24.906.847 7.418-.486 14.337-3.967 20.563-3.162 5.656-7.91 10.496-14.121 14.383-5.777 3.638-12.386 6.222-19.63 7.676-4.162.833-8.339 1.251-12.415 1.251zm-9.692-116.531c-3.268 0-6.053.278-8.282.827-1.556.381-4.205 1.244-4.513 2.758-.764 3.883-2.463 10.374-5.048 19.282-2.935 11.4-6.09 26.964-9.354 46.171-1.391 8.186-.887 15.412 1.499 21.48 2.157 5.477 5.648 9.787 10.671 13.18 4.65 3.164 10.276 5.248 16.733 6.2 6.265.946 12.711.762 19.218-.537 6.518-1.306 12.442-3.617 17.606-6.868 5.347-3.349 9.399-7.454 12.059-12.216 2.896-5.172 3.95-10.713 3.239-16.937-.788-6.959-3.894-14.431-9.236-22.206-13.043-19.616-21.767-32.517-25.944-38.381-3.154-4.418-5.774-7.647-7.786-9.598-2.412-2.358-3.86-2.805-4.51-2.863-2.275-.193-4.414-.292-6.352-.292z"/><path fill="#FCDF00" d="M98.848 155.999c.49-2.405 2.729-4.104 6.751-5.087 3.891-.956 9.102-1.164 15.62-.608 1.861.165 3.979 1.389 6.346 3.702 2.149 2.087 4.859 5.416 8.14 10.013 4.167 5.841 12.829 18.653 25.976 38.423 5.646 8.218 8.901 16.078 9.748 23.573.777 6.796-.416 13.052-3.602 18.749-2.916 5.223-7.274 9.661-13.086 13.301-5.485 3.453-11.688 5.884-18.622 7.276-6.897 1.371-13.651 1.555-20.252.561-6.942-1.022-12.941-3.257-17.981-6.688-5.504-3.716-9.425-8.576-11.792-14.579-2.603-6.622-3.153-14.317-1.663-23.087 3.292-19.372 6.435-34.87 9.431-46.507 2.576-8.881 4.234-15.224 4.986-19.042"/><path fill="#F1B800" d="M75.906 50.404c-6.799 4.723-12.352 10.453-16.625 17.184-4.438 6.984-7.2 14.529-8.277 22.674-2.522 19.061 1.936 34.846 13.377 47.38 5.261 5.738 11.738 10.427 19.458 14.096 2.453 1.153 4.988 2.186 7.62 3.101l-.846 1.916c-2.644-.916-5.205-1.967-7.671-3.135l-.014-.003c-7.966-3.777-14.658-8.641-20.075-14.571-11.885-12.963-16.533-29.324-13.92-49.061 1.113-8.448 3.971-16.289 8.575-23.525 4.425-6.962 10.157-12.879 17.204-17.781 7.019-4.877 14.784-8.326 23.309-10.373 8.812-2.113 17.801-2.57 26.977-1.357 9.175 1.215 17.723 3.99 25.654 8.318 7.702 4.189 14.317 9.542 19.822 16.078 5.532 6.564 9.534 13.77 11.98 21.637 2.565 8.188 3.295 16.5 2.179 24.953-2.793 21.105-11.598 36.124-26.423 45.053-8.326 5.114-18.112 8.034-29.366 8.771.396-.698.703-1.424.92-2.155 10.448-.846 19.573-3.64 27.367-8.39 14.257-8.651 22.736-23.172 25.429-43.554 1.078-8.14.373-16.147-2.1-24.045-2.375-7.608-6.248-14.587-11.599-20.917-5.338-6.342-11.732-11.546-19.203-15.601-7.712-4.208-16.019-6.899-24.934-8.079-8.92-1.178-17.654-.74-26.224 1.312-8.25 1.977-15.792 5.338-22.594 10.074"/><path fill="#FCDF00" d="M59.281 67.588c4.275-6.73 9.826-12.461 16.625-17.184 6.804-4.736 14.344-8.098 22.6-10.074 8.565-2.053 17.3-2.49 26.218-1.312 8.915 1.18 17.224 3.871 24.936 8.079 7.471 4.055 13.865 9.259 19.203 15.601 5.351 6.33 9.224 13.309 11.599 20.917 2.472 7.897 3.178 15.905 2.1 24.045-2.694 20.382-11.172 34.902-25.431 43.554-7.792 4.75-16.917 7.544-27.365 8.39-6.452.5-13.427.264-20.896-.725-6.17-.813-11.971-2.161-17.41-4.04-2.632-.915-5.167-1.947-7.62-3.104-7.72-3.666-14.197-8.354-19.458-14.093-11.441-12.534-15.899-28.319-13.377-47.38 1.076-8.145 3.839-15.69 8.276-22.674"/><path fill="#F1B800" d="M90.613 156.755l.846-1.916c5.439 1.877 11.239 3.223 17.412 4.039 7.467.99 14.441 1.226 20.894.724-.217.734-.523 1.458-.916 2.156-6.284.417-13.043.146-20.249-.811-6.382-.842-12.372-2.24-17.987-4.192"/><path fill="#E17C9E" d="M149.209 90.272c-3.179-3.356-6.77-5.858-10.801-7.536-3.905-1.638-7.776-2.334-11.604-2.062 1.892-.868 3.842-1.48 5.873-1.804 2.92-.472 5.803-.365 8.646.326 2.847.681 5.456 1.881 7.846 3.619 3.796 2.768 6.451 6.37 7.968 10.823 1.478 4.357 1.62 8.748.421 13.17-.458-2.916-1.385-5.779-2.763-8.58-1.424-2.888-3.283-5.545-5.586-7.956"/><path fill="#0077BE" d="M138.408 82.736c4.031 1.678 7.624 4.18 10.801 7.536 2.303 2.413 4.162 5.069 5.587 7.956 1.377 2.801 2.305 5.664 2.763 8.579-.764 2.653-1.894 5.045-3.423 7.16l-1.265 1.597c.342-3.483-.155-7.012-1.472-10.598-1.352-3.721-3.445-7.091-6.302-10.103-3.821-4.048-8.23-6.751-13.229-8.095-4.877-1.33-9.348-1.094-13.416.699 2.255-3.006 5.042-5.271 8.353-6.795 3.827-.27 7.698.427 11.603 2.064"/><path fill="#fff" d="M118.452 87.469c4.068-1.793 8.539-2.029 13.416-.699 5.001 1.344 9.41 4.047 13.229 8.096 2.855 3.011 4.95 6.381 6.305 10.102 1.313 3.586 1.809 7.114 1.469 10.597-1.724 1.973-3.699 3.581-5.962 4.85-2.274 1.266-4.704 2.103-7.284 2.512-2.918.468-5.803.364-8.622-.324-2.847-.678-5.462-1.894-7.864-3.647-4.949-3.604-7.904-8.445-8.876-14.525-.974-6.092.339-11.635 3.933-16.624l.256-.338z"/><path fill="#E17C9E" d="M87.759 82.16c3.94-2.414 8.06-3.896 12.39-4.471 4.193-.562 8.116-.229 11.741 1.026-1.601-1.331-3.325-2.427-5.202-3.269-2.699-1.213-5.51-1.862-8.438-1.934-2.924-.083-5.751.4-8.512 1.456-4.385 1.687-7.887 4.473-10.511 8.38-2.561 3.821-3.84 8.025-3.827 12.61 1.2-2.698 2.837-5.222 4.896-7.569 2.126-2.416 4.614-4.496 7.463-6.229"/><path fill="#0077BE" d="M100.148 77.689c-4.33.574-8.449 2.055-12.39 4.471-2.85 1.73-5.337 3.812-7.458 6.23-2.063 2.348-3.7 4.87-4.9 7.569.044 2.757.517 5.36 1.444 7.8l.804 1.871c.576-3.451 1.972-6.731 4.175-9.85 2.273-3.241 5.17-5.951 8.71-8.119 4.744-2.914 9.703-4.377 14.879-4.377 5.062-.017 9.312 1.375 12.777 4.166-1.394-3.49-3.5-6.403-6.3-8.735-3.624-1.255-7.547-1.588-11.741-1.026"/><path fill="#fff" d="M118.189 87.45c-3.465-2.79-7.716-4.182-12.777-4.165-5.176 0-10.135 1.463-14.879 4.377-3.536 2.166-6.437 4.878-8.71 8.119-2.203 3.118-3.599 6.396-4.171 9.85 1.148 2.353 2.639 4.419 4.493 6.23 1.868 1.814 3.993 3.254 6.381 4.32 2.696 1.212 5.509 1.86 8.409 1.93 2.925.083 5.77-.408 8.545-1.479 5.714-2.192 9.824-6.1 12.348-11.719 2.521-5.631 2.693-11.322.52-17.076l-.159-.387z"/><path fill="#1B1616" d="M133.945 99.321c1.258 1.642 1.751 3.483 1.483 5.517-.271 2.058-1.227 3.695-2.867 4.94-1.641 1.259-3.482 1.751-5.518 1.481-2.054-.272-3.691-1.226-4.938-2.863-1.261-1.629-1.757-3.46-1.484-5.518.27-2.031 1.229-3.682 2.869-4.941 1.627-1.258 3.454-1.754 5.514-1.48 2.033.268 3.683 1.223 4.941 2.864M100.066 94.834c-1.641 1.259-2.596 2.91-2.865 4.941-.273 2.058.223 3.887 1.483 5.515 1.257 1.642 2.907 2.597 4.942 2.866 2.055.273 3.885-.223 5.514-1.482 1.642-1.244 2.592-2.884 2.869-4.941.266-2.031-.229-3.873-1.486-5.516-1.247-1.641-2.883-2.592-4.942-2.865-2.03-.268-3.873.224-5.515 1.482"/><path fill="#FCDF00" d="M89.948 140.835c-1.051-1.908-1.657-3.924-1.834-6.03-.388-4.865 1.067-7.788 4.366-8.778 1.103-.334 2.498-.451 4.17-.38.924.024 2.074.109 3.463.237 2.544.074 6.554.824 12.039 2.223l.618.162.636.003c5.659.075 9.726.395 12.204.983 1.376.237 2.507.454 3.401.669 1.635.367 2.955.843 3.93 1.452 2.926 1.813 3.575 5.012 1.932 9.612-.718 1.989-1.827 3.776-3.337 5.344-.863.919-2.188 2.141-3.957 3.705-1.936 1.938-5.175 5.722-9.69 11.367-4.105 4.519-7.498 6.429-10.168 5.706l-.088-.024-.091.001c-2.766.004-5.546-2.723-8.333-8.153-2.892-6.624-5.035-11.119-6.401-13.493-1.305-1.971-2.263-3.497-2.86-4.606"/><path fill="#F1B800" d="M108.862 168.321c-.468 0-.929-.058-1.37-.173l-.058-.005h-.009c-3.119 0-6.149-2.855-9.161-8.726-2.858-6.539-4.994-11.045-6.375-13.448-1.398-2.109-2.298-3.555-2.876-4.628-1.109-2.017-1.77-4.187-1.957-6.447-.431-5.409 1.294-8.733 5.119-9.885 1.196-.364 2.685-.506 4.518-.427.889.026 2.01.104 3.521.244 2.53.071 6.544.811 12.199 2.25l.494.132h.505c5.84.08 9.905.41 12.442 1.013 1.424.242 2.526.46 3.407.669 1.792.405 3.184.924 4.24 1.584 3.396 2.105 4.195 5.763 2.373 10.87-.773 2.142-1.977 4.065-3.574 5.726-.832.883-2.111 2.08-4.018 3.763-1.896 1.897-5.221 5.798-9.563 11.234-3.837 4.226-7.047 6.254-9.857 6.254zm-.812-2.22c.309.069.558.1.812.1 2.146 0 4.92-1.855 8.242-5.512 4.413-5.522 7.699-9.376 9.724-11.402 1.904-1.684 3.14-2.84 3.938-3.682 1.395-1.449 2.439-3.123 3.11-4.977 1.461-4.091.97-6.823-1.494-8.35-.842-.527-2.053-.969-3.602-1.32-.839-.197-1.93-.412-3.351-.656-2.414-.571-6.442-.892-12.038-.968l-.906-.039-.596-.159c-5.428-1.385-9.398-2.12-11.807-2.19-1.528-.141-2.604-.216-3.462-.24-1.636-.064-2.879.046-3.833.336-2.776.837-3.961 3.349-3.618 7.681.165 1.956.741 3.843 1.709 5.604.545 1.01 1.438 2.447 2.813 4.531 1.458 2.524 3.63 7.1 6.488 13.652 2.518 4.896 5.069 7.517 7.353 7.517l.332-.058.186.132z"/><path fill="#D7272A" d="M108.719 160.991c-2.443-.323-4.406-2.049-5.894-5.182-1.49-3.133-3.788-9.815-6.895-20.035l15.612 1.913 15.548 2.207c-5.659 9.062-9.668 14.936-12.045 17.626-2.19 2.467-4.299 3.629-6.326 3.471"/><path fill="#E17C9E" d="M107.906 144.824c-.445-3.64-.519-6.132-.237-7.466l8.454 1.116c-.174 1.31-1.041 3.636-2.615 6.981-1.64 3.419-2.671 5.176-3.099 5.271-1.176.215-2.008-1.76-2.503-5.902"/><path fill="#FCDF00" d="M87.643 133.496c-2.093-1.396-2.838-3.746-2.23-7.036.632-3.287 2.238-5.379 4.83-6.262 1.311-.446 3.996-1.224 8.058-2.358 3.75-1.176 6.462-2.37 8.112-3.613 2.605-1.962 5.446-2.836 8.534-2.598l.244.031.093.011-.002.014c3.045.562 5.563 2.134 7.566 4.716 1.27 1.629 3.58 3.487 6.896 5.601 3.627 2.151 6.015 3.6 7.164 4.369 2.272 1.524 3.282 3.964 3.037 7.302-.269 3.335-1.595 5.412-3.982 6.217-1.255.412-3.066.499-5.46.276-1.418-.134-3.871-.392-7.351-.762-1.266.098-3.249.545-5.946 1.347-2.001.592-4.036.73-6.114.43-1.909-.214-3.768-.88-5.561-1.973-2.397-1.478-4.196-2.425-5.392-2.846-3.454-.55-5.894-.938-7.295-1.178-2.369-.405-4.102-.963-5.201-1.688"/><path fill="#F1B800" d="M113.195 142.378c-.74 0-1.5-.056-2.254-.164-2.009-.226-4.024-.937-5.954-2.115-2.267-1.396-3.984-2.31-5.108-2.724l-.312-.047c-3.243-.519-5.551-.884-6.898-1.113-2.544-.438-4.378-1.04-5.602-1.847-2.468-1.648-3.371-4.37-2.68-8.099.708-3.682 2.565-6.055 5.519-7.061 1.244-.423 3.743-1.155 8.111-2.375 3.625-1.137 6.249-2.299 7.767-3.443 2.811-2.114 5.923-3.055 9.242-2.805l1.372.188-.004.087c2.885.739 5.33 2.384 7.277 4.897 1.165 1.495 3.399 3.3 6.634 5.363 3.942 2.337 6.101 3.652 7.187 4.384 2.591 1.738 3.768 4.514 3.494 8.244-.309 3.786-1.884 6.182-4.688 7.128-1.407.465-3.318.567-5.892.329-1.407-.136-3.835-.39-7.269-.755-1.197.107-3.092.545-5.637 1.301-1.406.417-2.854.627-4.305.627zm.771-29.745c-2.458 0-4.788.817-6.926 2.426-1.734 1.307-4.491 2.542-8.427 3.777-4.361 1.219-6.829 1.94-8.035 2.351-2.222.756-3.575 2.547-4.139 5.471-.53 2.862.054 4.817 1.78 5.97.96.634 2.578 1.148 4.8 1.528 1.345.229 3.641.595 6.873 1.108l.594.111c1.279.453 3.108 1.415 5.592 2.943 1.665 1.015 3.393 1.63 5.13 1.824 2.022.291 3.864.147 5.702-.394 2.787-.829 4.802-1.283 6.161-1.388l.095-.006.094.01c3.476.367 5.929.625 7.343.762 2.238.207 3.941.129 5.034-.231 1.961-.661 3.033-2.398 3.268-5.308.217-2.961-.625-5.04-2.578-6.35-1.052-.708-3.178-2.006-7.114-4.341-3.517-2.236-5.856-4.147-7.188-5.858-1.856-2.394-4.125-3.81-6.932-4.328l-.295-.051c-.236-.014-.534-.026-.832-.026zM115.729 27.001c-1.565-.495-3.304-.489-5.204.011 2.517.807 4.501 3.717 5.958 8.729.298 1.039.729 1.965 1.28 2.762l-.506-.054c-1.147-.098-2.134-.097-2.975-.012-.214-.487-.406-1.001-.572-1.536l-.1-.329c-1.641-5.142-4.043-8.396-7.22-9.751 4.34-2.468 7.853-3.229 10.546-2.279 2.71.912 4.787 3.029 6.246 6.344l-.006.039.553 1.586c.214-.51.477-1.003.765-1.504 2.627-4.71 3.347-8.684 2.157-11.924 4.745 1.459 7.702 3.494 8.871 6.088 1.104 2.422 1.084 5.158-.058 8.208.92-.181 1.894-.263 2.915-.233 5.382.04 9.199-1.246 11.45-3.843 1.007 4.845.667 8.407-1.045 10.696-.383.516-.812.975-1.277 1.387-1.277 1.107-2.893 1.881-4.848 2.309-1.139-.322-3.293-.791-6.439-1.393l.004-.025-3.146-.416c.641-.247 1.391-.449 2.255-.6.872-.135 2.688-.223 5.446-.265 2.708-.078 4.719-1.048 6.034-2.917.951-1.322 1.472-2.966 1.573-4.926-1.532 2.127-4.891 3.133-10.087 2.984-2.702-.081-4.914.812-6.646 2.662-.876.952-1.411 1.909-1.607 2.871-.163.043-.3.09-.41.154-.254-1.102-.079-2.512.506-4.238.309-.828 1.103-2.461 2.401-4.912 1.239-2.402 1.362-4.637.358-6.69-.715-1.466-1.895-2.715-3.557-3.764 1.119 2.372.377 5.804-2.26 10.302-1.374 2.332-1.664 4.703-.877 7.112.124.371.273.734.426 1.058-.27-.023-.506-.041-.729-.045-1.312-.33-2.521-1.545-3.613-3.651-.404-.805-1.063-2.509-1.941-5.116-.897-2.581-2.43-4.206-4.621-4.879"/><path fill="#FCDF00" d="M110.525 27.012c1.9-.5 3.639-.508 5.206-.01 2.188.672 3.726 2.297 4.622 4.877.878 2.605 1.535 4.312 1.941 5.115 1.092 2.107 2.302 3.32 3.615 3.652l.073.011c.221.041.427.068.65.086l.026-.011-.02-.041c-.156-.323-.306-.687-.43-1.058-.786-2.409-.497-4.78.875-7.114 2.639-4.496 3.381-7.928 2.26-10.3 1.664 1.05 2.842 2.298 3.559 3.761 1.006 2.057.881 4.291-.358 6.695-1.299 2.449-2.093 4.082-2.403 4.91-.583 1.727-.758 3.139-.507 4.238.076.326.192.632.341.902l-.009-.121.059-.848.024-.088c.194-.965.729-1.92 1.605-2.871 1.731-1.85 3.943-2.742 6.644-2.662 5.196.147 8.557-.857 10.089-2.985-.102 1.962-.622 3.604-1.576 4.927-1.309 1.867-3.321 2.839-6.031 2.916-2.758.043-4.574.133-5.449.267-.861.15-1.611.353-2.248.597-.919.367-1.612.828-2.082 1.398-.222.272-.393.581-.518.918l-.067.189.007.065-.123-.265c-.099-.263-.18-.525-.238-.782l-1.385-.474-.186-.104c-.727-.451-1.328-1.11-1.791-2-1.532 1.338-3.405 1.485-5.628.453-.273-.127-.543-.27-.8-.422l-.582-.379-.109-.068-.676-.562-.232-.229-.035-.03c-.246-.257-.46-.508-.675-.785l-.065-.104-.035-.029-.021-.043-.033-.045-.044-.059c-.553-.796-.984-1.723-1.282-2.762-1.459-5.011-3.441-7.918-5.958-8.726M96.244 166.784l-.011-.612-.017-1.212-.011-.612c.523-.541.896-1.117 1.082-1.742.072-.198.222-.389.453-.578l.055-.131c1.506.822 2.947 2.083 4.313 3.783.483.589.973 1.191 1.448 1.795l-.216.269c1.459.937 3.157 2.28 5.102 4.007 5.094 4.53 9.366 3.692 12.827-2.521-.221.029-.441.057-.683.063-1.277-.051-1.818-.667-1.632-1.839l.006-.188.011-.563-.008-.051.026-.086c.006-.174.024-.337.046-.517.012-.148.037-.286.08-.427-.327-.102-.656-.224-.97-.392-.175-1.127.272-2 1.314-2.626l.039-.021c.286-.173.516-.376.685-.597.223-.296.361-.631.409-1.012.068-.135.151-.243.259-.329.161-.125.344-.215.533-.29l.016-.188c1.105-1.133 2.003-2.384 2.719-3.736.309-.553.758-.864 1.344-.937.216 0 .406.017.574.053.271-.172.533-.329.816-.462-.018-.586-.073-1.162-.172-1.744-.166-1.089.288-1.575 1.363-1.476l.451-.005c.164-.472.461-.875.904-1.213.29-.229.652-.377 1.051-.439.431.504.678 1.099.766 1.775.043.367.179.728.39 1.074l.405.297c.141.105.248.26.329.471-.203.348-.442.619-.73.849-.106.086-.228.148-.346.212 1.106 2.606 2.692 7.296 4.775 14.094-13.022 6.417-26.792 7.648-41.299 3.671.341-1.442 1.016-3.025 2.032-4.754-.164-.382-.34-.749-.528-1.113M31.05 153.296c3.849 3.124 6.925 4.271 9.196 3.469 3.763-1.325 6.017-4.709 6.769-10.142.209-1.479.42-3.741.621-6.781.249-2.625.664-4.623 1.24-6 1.196-2.872 1.822-4.479 1.886-4.808.308-1.94-.712-2.897-3.079-2.845-1.463.027-3.043.983-4.731 2.872-.899 1.019-2.042 2.621-3.428 4.782-.648-1.23-1.557-3.147-2.717-5.745-1.193-2.142-2.746-3.556-4.651-4.24-2.332-.487-3.815 1.099-4.454 4.787-.551 3.213-.386 6.37.494 9.458-.5-1.142-1.929-2.295-4.269-3.466-2.398-1.234-4.175-1.621-5.346-1.169-2.543.979-2.641 3.259-.28 6.837 1.642 2.463 3.845 4.863 6.617 7.184 2.112 2.239 4.161 4.172 6.132 5.807"/><path fill="#F1B800" d="M38.743 158.043c-2.339 0-5.069-1.289-8.345-3.945-2.035-1.689-4.131-3.675-6.229-5.902-2.732-2.274-5.025-4.765-6.729-7.318-1.639-2.485-2.195-4.443-1.699-5.989.348-1.084 1.178-1.885 2.471-2.383 1.471-.569 3.475-.18 6.187 1.216.8.402 1.502.804 2.109 1.207-.252-2.131-.197-4.292.179-6.458.741-4.298 2.72-6.237 5.679-5.619l.137.039c2.138.766 3.89 2.35 5.206 4.706.736 1.648 1.388 3.057 1.935 4.185.997-1.486 1.834-2.608 2.536-3.4 1.878-2.104 3.72-3.188 5.481-3.223l.2-.002c1.51 0 2.616.399 3.287 1.186.606.708.819 1.668.632 2.854-.041.216-.122.655-1.953 5.045-.537 1.28-.93 3.198-1.166 5.7-.194 2.946-.405 5.253-.626 6.826-.805 5.823-3.311 9.515-7.443 10.972-.576.201-1.198.303-1.849.303zm-19.087-23.727c-.271 0-.508.039-.702.112-1.025.395-1.192.917-1.25 1.087-.198.62-.104 1.854 1.458 4.223 1.589 2.386 3.752 4.729 6.417 6.96 2.135 2.25 4.166 4.176 6.127 5.805 3.492 2.83 6.283 3.965 8.198 3.29 3.396-1.198 5.389-4.243 6.089-9.311.211-1.504.423-3.824.613-6.707.265-2.778.692-4.839 1.317-6.33 1.617-3.873 1.805-4.523 1.826-4.614.081-.521.027-.922-.17-1.152-.254-.297-.862-.461-1.719-.461l-.156.003c-1.167.021-2.506.873-3.983 2.529-.847.956-1.938 2.479-3.33 4.652l-.959 1.492-.824-1.571c-.681-1.297-1.63-3.306-2.741-5.808-1.027-1.825-2.342-3.051-3.991-3.66-.178-.033-.349-.051-.507-.051-.484 0-1.958 0-2.65 4.017-.523 3.037-.365 6.068.467 9.001l-1.937.695c-.271-.62-1.147-1.639-3.782-2.957-1.608-.827-2.887-1.244-3.811-1.244z"/><path fill="#FCDF00" d="M96.333 164.223c.381-.276.723-.539 1.023-.801.187-.066.367-.105.567-.132l.654-.051c.76 2.558.709 5.146-.158 7.759-.09.276-.129.565-.129.866l-2.785 11.411c-.5-.119-1.065-.132-1.683-.04-.524.117-1.059.263-1.601.421-.854-.381-2.074-.525-3.665-.421-1.402.379-2.767.933-4.065 1.629l6.496-16.545-1.536.012c.696-.839 1.442-1.574 2.247-2.219 1.26.041 2.812-.591 4.635-1.889"/></g></svg>