<svg xmlns="http://www.w3.org/2000/svg" width="282.169" height="360.468" viewBox="0 0 282.169 360.468"><g><ellipse fill="#D6DEDB" cx="138.797" cy="326.96" rx="85" ry="21.5"/><path fill="#009FE8" d="M152.736 143.866l-.722-1.626c-2.856-6.223-5.247-14.075-7.173-23.54 4.191-.551 7.754-.983 10.707-1.349 6.666-.805 11.395-1.231 14.176-1.301 2.078-.016 4.098.011 6.039.095 6.235.25 12.396.974 18.462 2.161l.022.011c3.739.733 7.324 1.674 10.774 2.795.283.096.558.175.825.277 3.626 1.567 7.173 3.325 10.656 5.297 6.274 3.522 11.988 7.636 17.137 12.361 1.088 1.145 2.076 2.294 2.968 3.443-.892-1.149-1.88-2.299-2.968-3.443 3.968 3.622 7.597 7.596 10.887 11.938l1.201 2.22c-.051-.12.103-.047.458.216.691 1.241 1.288 2.36 1.806 3.396l.096.177-.426-.373 2.423 4.647.899-.458c5.961 10.788 8.669 22.432 8.135 34.954-.155 3.542-.54 7.024-1.155 10.448l-25.1 7.362c-1.142-13.685-4.752-26.736-10.803-39.172-.598-1.164-1.208-2.316-1.821-3.472-2.097-3.867-4.576-7.526-7.432-10.937l-.62-.771c-.553-.657-1.109-1.274-1.676-1.827-1.391-1.373-3.517-3-6.368-4.865-.853-.608-1.625-1.086-2.276-1.422-.357-.224-.727-.42-1.079-.625-3.659-2.055-7.657-3.694-12.011-4.956-4.661-1.328-9.688-2.213-15.104-2.647-3.591-.275-7.237-.344-10.949-.168l-9.988 1.154zM205.848 121.39c.987.326 1.964.676 2.906 1.041 4.086 1.744 7.92 3.779 11.517 6.1 5.354 3.432 9.518 6.625 12.466 9.572.315.303.616.612.904.946-5.148-4.728-10.862-8.839-17.137-12.362-3.483-1.972-7.03-3.73-10.656-5.297M203.466 152.089c-.534-.346-1.063-.672-1.598-.978.651.336 1.424.814 2.276 1.421-.223-.141-.446-.282-.678-.443"/><path fill="#00398A" d="M240.222 143.943l.093-.064.244.376-.076.055-.27.156-.239-.357z"/><path fill="#009FE8" d="M240.213 144.466l.271-.156c1.076 1.43 2.003 2.884 2.795 4.359.501.901.906 1.687 1.249 2.318-3.29-4.344-6.919-8.317-10.887-11.939-.29-.333-.589-.645-.904-.945-2.948-2.947-7.112-6.141-12.466-9.572-3.597-2.32-7.431-4.355-11.517-6.102 5.441 2.028 10.479 4.533 15.129 7.555 5.354 3.428 9.518 6.621 12.468 9.568 1.445 1.449 2.735 2.905 3.871 4.392l-.248.169.239.353zM216.866 167.391c-.397-.166-.597-.259-.603-.273l.13-.703c.097-.463.063-.81-.058-1.037-1.153-2.06-2.326-3.847-3.527-5.381 2.855 3.41 5.335 7.069 7.432 10.937.613 1.155 1.224 2.308 1.821 3.472l-.168.074-.915-1.383-3.558-5.449c.009-.024-.165-.106-.554-.257"/><path fill="#00499C" d="M246.167 236.511c-.283 0-.567-.081-.819-.251-.672-.453-.853-1.364-.4-2.035 5.868-8.73 9.761-18.242 11.573-28.274.598-3.343.979-6.791 1.129-10.251.524-12.183-2.149-23.684-7.95-34.178-.998-1.818-1.98-3.442-2.999-4.956-1.133-1.704-2.228-3.233-3.338-4.685-3.212-4.241-6.812-8.189-10.713-11.747-5.013-4.605-10.686-8.697-16.864-12.166-3.392-1.922-6.929-3.68-10.519-5.23l-.416-.137-.29-.096c-.772-.256-1.187-1.089-.931-1.857.258-.768 1.092-1.184 1.857-.928l.256.084c.219.068.428.138.637.217 3.738 1.615 7.37 3.421 10.847 5.39 6.369 3.575 12.228 7.803 17.404 12.558 4.031 3.675 7.754 7.756 11.065 12.132 1.149 1.494 2.278 3.078 3.445 4.833 1.066 1.584 2.091 3.278 3.128 5.173 6.062 10.968 8.861 22.991 8.315 35.722-.158 3.589-.555 7.171-1.176 10.645-1.885 10.433-5.928 20.32-12.023 29.388-.281.42-.747.649-1.218.649zm-33.979-75.817c-.358 0-.718-.13-1-.395-.776-.723-1.694-1.542-2.752-2.457-2.112-1.822-3.791-3.167-5.135-4.109-.777-.554-1.504-1.007-2.106-1.319l-.746-.434-.399-.227c-.701-.408-.938-1.307-.529-2.007.407-.699 1.304-.938 2.006-.529l.367.208c.246.14.498.284.744.436.638.325 1.463.839 2.357 1.475 1.416.993 3.17 2.396 5.357 4.283 1.093.943 2.036 1.788 2.84 2.534.591.551.622 1.479.071 2.074-.29.31-.683.467-1.075.467zM212.59 162.059l-1.544-1.909c-.565-.675-1.081-1.237-1.555-1.697-1.332-1.312-3.397-2.89-6.15-4.69-.286-.182-.493-.314-.708-.464-.474-.304-.978-.619-1.491-.909l-1.274-.727.004-.007c-3.463-1.923-7.332-3.509-11.502-4.717-4.552-1.296-9.535-2.169-14.81-2.594-3.639-.275-7.264-.334-10.765-.162l-1.466.07-.142-2.934 1.466-.069c3.623-.175 7.369-.117 11.135.169 5.475.438 10.651 1.347 15.391 2.697 4.473 1.298 8.617 3.009 12.327 5.089l1.279.719-.009.018c.499.287.988.595 1.488.916l.577.378c3.024 1.979 5.242 3.679 6.705 5.118.541.531 1.106 1.146 1.765 1.928l1.562 1.934-2.283 1.843zm23.753-17.511l-.897-1.16c-.858-1.108-1.82-2.229-2.868-3.325-.307-.354-.573-.629-.852-.897-2.877-2.873-6.988-6.027-12.245-9.397-3.528-2.278-7.329-4.289-11.303-5.987-4.259-1.844-8.857-3.369-13.679-4.539l-.003.001-.153-.039-.282-.067-.861-.214c-.946-.224-1.902-.431-2.874-.625-5.965-1.169-12.103-1.888-18.233-2.136-1.866-.077-3.871-.11-5.97-.092-2.768.066-7.489.502-14.01 1.289l-.997.124c-2.743.337-5.971.733-9.695 1.222l-1.454.191-.38-2.91 1.453-.192c3.732-.488 6.968-.887 9.715-1.224l1.002-.124c6.616-.8 11.435-1.24 14.32-1.312 2.166-.019 4.222.015 6.14.095 6.274.254 12.562.99 18.68 2.189 1.141.229 2.254.47 3.359.738l.167-.07.514.242c5.074 1.217 9.919 2.816 14.402 4.755 4.121 1.761 8.07 3.853 11.729 6.216 5.433 3.481 9.71 6.77 12.71 9.769.322.31.656.654.975 1.025 1.067 1.115 2.097 2.312 3.017 3.501l.897 1.161-2.324 1.792zM232.861 215.043c-.753 0-1.395-.578-1.458-1.345-1.121-13.404-4.71-26.41-10.662-38.653-.507-.99-1.043-2.002-1.579-3.016l-.219-.41c-2.047-3.776-4.491-7.373-7.261-10.682-.519-.622-.438-1.547.187-2.068.621-.519 1.544-.435 2.068.184 2.892 3.461 5.449 7.221 7.595 11.179l.224.425c.543 1.023 1.083 2.047 1.611 3.077 6.13 12.602 9.812 25.956 10.959 39.721.069.809-.532 1.517-1.34 1.585l-.125.003zM152.736 145.335c-.735 0-1.369-.552-1.456-1.301-.094-.804.485-1.531 1.289-1.624l9.988-1.151c.801-.097 1.533.482 1.624 1.288.094.806-.486 1.532-1.287 1.625l-9.987 1.154-.171.009z"/><path fill="#FFE100" d="M236.059 140.937l-.763-.372-2.358-1.144c-1.22-.572-2.457-1.145-3.694-1.681l-5.228-2.14c-.589-.244-1.181-.463-1.787-.685-4.438-1.681-8.534-2.991-12.302-3.896-.091-.037-.185-.059-.297-.059 2.569 1.277 4.934 2.865 7.093 4.729.999.869 1.866 1.738 2.604 2.586.979.351 1.959.759 2.975 1.183l4.927 2.031.299.129c.869.37 1.699.738 2.528 1.126l6.52 3.159c3.381 1.716 6.407 3.434 9.122 5.17l-.165.277c4.671 3.323 6.667 5.744 6.019 7.258-.662 1.494-3.804 1.661-9.396.48-4.235-.907-8.923-2.329-14.057-4.304l-.019-.021c-1.311.203-2.14.703-2.49 1.517-1.056 2.457 1.419 4.985 7.459 7.626 2.106.904 4.211 1.681 6.298 2.327.479 3.379.329 7.108-.463 11.228-.736 3.952-2.806 9.824-6.224 17.637-3.397 7.812-7.554 12.298-12.464 13.499-4.933 1.162-9.658 1.218-14.201.164.7.722 1.217 1.366 1.567 1.9 5.691 1.757 10.933 2.568 15.719 2.422.83-.036 1.624-.094 2.416-.185l.186-.018c1.864-.205 3.656-.556 5.395-1.091 7.92-2.38 13.666-7.684 17.246-15.902 2.492-5.722 4.468-13.422 5.963-23.119.241-1.421.445-2.823.611-4.208-.942-.021-1.866-.039-2.768-.093-.742.037-1.518.037-2.309 0-.981-.058-2.031-.147-3.125-.277l.054-.203c1.019.165 2.037.276 3.033.352.773.054 1.55.11 2.347.129.513.02 1.066-.423 1.659-1.293-.312.073-.664.147-1.033.201-.796.132-1.661.204-2.605.242-.699.055-1.418.074-2.177.055-.908-.037-1.884-.093-2.899-.183-.502-.039-1.015-.095-1.533-.148.519.054 1.031.109 1.533.148 1.016.09 1.991.146 2.899.183.759.02 1.478 0 2.177-.055.944-.038 1.81-.11 2.605-.242.369-.054.722-.128 1.033-.201.519-.795 1.069-1.94 1.646-3.437-.129 1.277-.24 2.295-.336 3.049 1.037-.387 1.882-.868 2.548-1.459.537-.499.944-1.069 1.222-1.72 1.273-2.899-.352-6.63-4.874-11.15-.517-.536-2.606-2.031-6.247-4.506-3.597-2.492-7.552-4.838-11.889-7.015"/><path fill="#FFE100" d="M222.174 213.462c-4.49 0-9.44-.825-14.72-2.454l-.121-.039-.071-.107c-.366-.56-.896-1.197-1.525-1.849l-.855-.88 1.193.279c4.47 1.032 9.181.979 14.038-.164 4.776-1.17 8.886-5.643 12.216-13.293 3.384-7.734 5.471-13.645 6.2-17.56.762-3.951.925-7.613.49-10.887-2.031-.636-4.089-1.398-6.113-2.271-6.303-2.754-8.804-5.404-7.649-8.098.397-.925 1.329-1.507 2.771-1.73l.182-.027.092.096c4.996 1.917 9.682 3.35 13.928 4.259 2.419.512 4.399.77 5.88.77 1.209 0 2.73-.181 3.112-1.042.392-.916-.312-2.845-5.898-6.819l-.271-.194.155-.261c-2.619-1.661-5.578-3.33-8.791-4.965l-6.515-3.155c-.823-.382-1.652-.751-2.515-1.12l-.227-.1-4.995-2.059c-1.062-.44-2.008-.835-2.961-1.174l-.086-.033-.063-.071c-.748-.861-1.612-1.719-2.567-2.55-2.164-1.866-4.524-3.439-7.017-4.677l.161-.682c.158 0 .297.024.436.081 3.667.877 7.704 2.156 12.29 3.891.608.226 1.202.444 1.8.69l5.225 2.139c1.246.543 2.487 1.117 3.709 1.689l2.365 1.146c.243.111.505.242.764.376 4.27 2.141 8.287 4.509 11.938 7.041 3.831 2.607 5.774 4.012 6.297 4.553 4.62 4.614 6.284 8.5 4.942 11.548-.291.683-.728 1.302-1.303 1.837-.702.623-1.573 1.124-2.669 1.531l-.558.209.074-.59.083-.672-.293.561.076-.016-.6.878c-.186.263-.369.486-.552.673l1.425.03.398.009-.021.396c-.166 1.373-.375 2.797-.613 4.229-1.5 9.713-3.516 17.521-5.991 23.205-3.61 8.285-9.489 13.702-17.471 16.101-1.718.529-3.506.89-5.459 1.102l-.188.03-.083-.002c-.716.082-1.486.141-2.354.178-.379.009-.753.014-1.125.014zm-14.381-3.106c5.591 1.715 10.782 2.504 15.476 2.366.882-.035 1.664-.096 2.385-.183l.104-.011.02.009.066-.016c1.908-.208 3.65-.56 5.325-1.075 7.772-2.336 13.499-7.616 17.023-15.699 2.448-5.626 4.449-13.374 5.937-23.032.22-1.288.404-2.563.562-3.802-.82-.017-1.61-.037-2.387-.083-.672.037-1.5.037-2.303 0-1.042-.062-2.099-.157-3.146-.281l-.416-.052.148-.544c-.469-.029-.914-.064-1.349-.105-.404-.027-.825-.072-1.245-.116l-.29-.028.072-.72.291.03c.415.045.829.088 1.231.117.888.079 1.805.14 2.888.184.735.02 1.453 0 2.134-.056.993-.039 1.832-.114 2.576-.237.31-.044.602-.104.866-.165.492-.781 1.006-1.871 1.533-3.247l.693.168c-.096.962-.182 1.777-.261 2.448.751-.33 1.37-.714 1.879-1.165.491-.461.873-.998 1.127-1.592 1.208-2.749-.405-6.364-4.797-10.754-.633-.657-3.834-2.861-6.191-4.464-3.625-2.513-7.61-4.864-11.849-6.993-.258-.129-.511-.257-.751-.366l-2.368-1.146c-1.21-.568-2.442-1.14-3.679-1.675l-5.22-2.139c-.588-.24-1.172-.458-1.775-.678-3.592-1.361-6.842-2.437-9.861-3.266 1.648.998 3.229 2.146 4.715 3.43.957.83 1.821 1.688 2.578 2.551.939.339 1.863.724 2.842 1.129l4.989 2.056.34.151c.831.353 1.669.723 2.503 1.111l6.521 3.161c3.364 1.711 6.443 3.457 9.16 5.191l.292.188-.175.293c4.671 3.361 6.594 5.815 5.872 7.499-.764 1.72-3.947 1.928-9.804.693-4.29-.919-9.021-2.366-14.058-4.303-1.126.196-1.812.617-2.101 1.284-.953 2.221 1.492 4.626 7.273 7.15 2.072.894 4.18 1.673 6.26 2.315l.219.066.032.226c.485 3.411.328 7.227-.466 11.349-.74 3.969-2.842 9.927-6.251 17.711-3.419 7.869-7.694 12.482-12.705 13.705-4.571 1.076-9.014 1.211-13.267.399.303.355.566.695.783 1.013zm42.392-42.363c.707.051 1.423.097 2.152.117.177 0 .422-.082.738-.385l-.069.01c-.768.126-1.632.206-2.642.242l-.179.016z"/><path fill="#D7BE00" d="M236.574 145.904l-6.52-3.159c-.829-.388-1.659-.756-2.528-1.126l-.299-.129-4.927-2.029c-.629-.243-1.258-.483-1.864-.703-1.46-.556-2.864-1.056-4.229-1.479-2.843-.944-5.504-1.661-7.978-2.198-5.635-1.162-8.79-.996-9.439.52-.665 1.494 1.349 3.913 6.061 7.218 2.859 2.05 6.222 4.101 10.081 6.114l7.534 3.507.292.129c.89.39 1.759.759 2.625 1.108l1.812.757.608.222.276.11.019.019c5.134 1.977 9.823 3.399 14.053 4.306 5.596 1.181 8.737 1.014 9.399-.48.648-1.514-1.348-3.935-6.019-7.258-2.602-1.829-5.597-3.64-8.957-5.449"/><path fill="#FFE100" d="M239.346 166.235c-2.087-.648-4.191-1.421-6.298-2.328-6.04-2.64-8.513-5.171-7.459-7.625.351-.813 1.18-1.312 2.49-1.514l.019.016-.019-.016-.276-.113-.608-.222-1.812-.759c-.866-.348-1.735-.717-2.625-1.104l-.292-.132-7.534-3.509c-3.859-2.013-7.222-4.062-10.081-6.113-4.712-3.304-6.726-5.723-6.061-7.218.649-1.515 3.805-1.681 9.439-.519 2.476.537 5.135 1.258 7.978 2.198l.516-1.587c-2.159-1.867-4.523-3.453-7.093-4.728-.252-.073-.514-.15-.773-.204-4.045-.904-6.276-1.366-6.667-1.385-7.034-.425-11.21.887-12.539 3.952-.683 1.552-.535 3.341.406 5.356l.108.238c.354.686.799 1.386 1.333 2.123 1.126 1.552 2.695 3.233 4.69 5.043.5.462 1.036.922 1.59 1.348-.554-.426-1.09-.886-1.59-1.348-1.995-1.81-3.564-3.491-4.69-5.043-.534-.737-.979-1.438-1.333-2.123l-.662.37c-1.607 1.732-2.696 2.972-3.29 3.712-6.089 7.664-10.376 14.364-12.868 20.092-3.582 8.219-3.562 16.048.076 23.471.772 1.551 1.697 3.046 2.75 4.504l1.331 1.737c4.541 5.448 11.299 10.118 20.276 14.033.347.167.684.315 1.034.464l.511.238c.17.057.336.111.521.204.592.258 1.181.499 1.752.736 2.05.831 4.046 1.554 5.965 2.179-.351-.534-.867-1.181-1.567-1.9 4.543 1.054 9.269.998 14.201-.164 4.91-1.201 9.066-5.689 12.464-13.499 3.418-7.812 5.487-13.685 6.224-17.638.792-4.114.941-7.844.463-11.223"/><path fill="#FFE100" d="M208.431 211.326l-.979-.318c-2.026-.663-4.042-1.4-5.988-2.188l-.53-.221c-.405-.169-.817-.34-1.233-.52-.183-.091-.339-.142-.488-.193l-.546-.251c-.35-.148-.688-.299-1.042-.467-8.983-3.917-15.851-8.674-20.398-14.132l-1.342-1.742c-1.098-1.523-2.032-3.058-2.783-4.565-3.671-7.488-3.698-15.488-.084-23.776 2.5-5.748 6.847-12.536 12.916-20.172.64-.797 1.781-2.088 3.309-3.732l.088-.07.37-.207c-.963-2.102-1.089-3.979-.377-5.588 1.389-3.201 5.707-4.6 12.892-4.166.149.007.62.028 6.72 1.391.268.057.536.133.799.211 2.608 1.285 5.018 2.891 7.227 4.801l.182.156-.703 2.16-.345-.115c-2.712-.896-5.383-1.634-7.939-2.188-2.417-.498-4.396-.752-5.876-.752-1.231 0-2.78.184-3.155 1.06-.331.751 0 2.62 5.937 6.781 2.895 2.075 6.271 4.125 10.041 6.089l7.522 3.503.325.147c.843.362 1.707.733 2.571 1.081l3.88 1.587-1.263.196c-1.193.183-1.917.608-2.216 1.299-.949 2.222 1.495 4.627 7.273 7.151 2.051.885 4.16 1.664 6.26 2.315l.219.066.032.227c.485 3.41.328 7.226-.466 11.346-.74 3.967-2.842 9.927-6.251 17.716-3.422 7.866-7.695 12.479-12.705 13.702-2.607.615-5.196.927-7.688.927-1.877 0-3.748-.176-5.573-.527.326.388.612.767.847 1.12l.56.858zm-18.701-71.745c-1.496 1.61-2.611 2.873-3.235 3.647-6.029 7.589-10.343 14.32-12.82 20.012-3.525 8.085-3.502 15.881.07 23.169.732 1.473 1.648 2.97 2.718 4.453l1.322 1.724c4.471 5.359 11.246 10.05 20.137 13.927.354.168.683.313 1.029.459l.534.248c.137.044.32.105.519.207l1.206.506.527.219c1.579.64 3.207 1.25 4.851 1.81-.256-.311-.544-.626-.851-.945l-.86-.883 1.197.279c2.122.492 4.314.739 6.519.739 2.438 0 4.969-.305 7.52-.903 4.776-1.17 8.886-5.641 12.216-13.293 3.384-7.737 5.471-13.645 6.2-17.56.762-3.952.925-7.613.49-10.883-2.053-.646-4.108-1.409-6.113-2.275-6.303-2.754-8.804-5.402-7.649-8.098.28-.654.83-1.136 1.638-1.44l-1.649-.69c-.865-.349-1.735-.721-2.629-1.108l-.206-.097-.095-.038-7.534-3.508c-3.813-1.989-7.222-4.054-10.141-6.147-4.915-3.444-6.936-5.952-6.178-7.659.734-1.72 3.916-1.946 9.842-.725 2.476.537 5.054 1.241 7.67 2.096l.33-1.012c-2.113-1.802-4.41-3.323-6.833-4.524-.187-.047-.437-.12-.689-.171-5.259-1.177-6.396-1.368-6.607-1.38-6.871-.414-10.941.847-12.193 3.734-.633 1.436-.496 3.139.402 5.062l.111.242c.336.644.759 1.316 1.295 2.059 1.098 1.512 2.66 3.187 4.643 4.989.533.491 1.057.938 1.564 1.328l-.438.572c-.524-.404-1.068-.864-1.613-1.37-2.02-1.829-3.612-3.544-4.738-5.094-.477-.655-.865-1.26-1.188-1.841l-.291.163zM246.951 167.988l-.056.205c1.094.129 2.144.221 3.125.276.791.037 1.566.037 2.309 0-.799-.019-1.573-.075-2.349-.129-.994-.074-2.012-.183-3.029-.352"/><path fill="#FFED00" d="M209.63 130.965c.112 0 .206.019.297.056 3.768.904 7.864 2.216 12.304 3.896.604.222 1.196.44 1.785.684-.866-.371-1.731-.72-2.64-1.054-4.782-1.847-9.177-3.287-13.201-4.302.497.238.977.479 1.455.72"/><path fill="#FFE100" d="M175.984 191.312c-.237.37-.462.756-.645 1.143-1.424 3.271-.129 6.982 3.859 11.154 4.006 4.154 9.472 7.756 16.397 10.786 3.451 1.496 6.758 2.642 9.915 3.435 1.202-.72 1.996-1.553 2.423-2.529.645-1.462.625-2.865-.076-4.192-.074-.128-.165-.274-.297-.445-1.919-.628-3.915-1.345-5.965-2.178-.571-.238-1.16-.479-1.752-.737-.186-.093-.352-.147-.521-.204l-.511-.238c-.351-.148-.688-.297-1.034-.462-8.978-3.915-15.735-8.587-20.276-14.035-.462-.553-.888-1.126-1.295-1.699l-.222.201z"/><path fill="#FFED00" d="M207.562 210.663c.132.167.223.317.297.445.701 1.327.721 2.733.076 4.189-.427.983-1.221 1.812-2.423 2.532 3.179.755 6.226 1.182 9.123 1.238 5.779.091 9.363-1.496 10.786-4.765.205-.424.352-.886.442-1.349l-.167-.055-.166.369.166-.369c-.792.094-1.586.148-2.416.183-4.786.15-10.027-.661-15.718-2.418"/><path fill="#0E0000" d="M215.096 220.549l-.484-.003c-2.944-.058-6.116-.489-9.44-1.279-3.236-.814-6.649-1.994-10.158-3.515-7.07-3.094-12.747-6.83-16.874-11.115-4.43-4.631-5.827-8.927-4.153-12.771.125-.264.258-.519.397-.767-.875-1.288-1.644-2.588-2.284-3.875-3.822-7.801-3.861-16.116-.106-24.719 2.541-5.839 6.937-12.709 13.067-20.421.64-.803 1.77-2.081 3.271-3.699-.765-2.065-.778-3.961-.035-5.652 1.614-3.719 6.197-5.305 13.982-4.834.223.013.715.036 6.898 1.418.229.049.469.113.71.183.159.017.312.052.462.102 3.745.903 7.802 2.191 12.405 3.933.605.224 1.215.449 1.819.697l5.229 2.141c1.28.554 2.531 1.133 3.762 1.711l2.38 1.154c.228.104.502.242.778.38 4.31 2.163 8.37 4.559 12.068 7.123 4.954 3.367 6.035 4.247 6.466 4.695 4.961 4.959 6.706 9.262 5.164 12.771-.351.818-.879 1.564-1.567 2.204-.627.558-1.347 1.021-2.199 1.415l-.08.68-.008.231c-.17 1.391-.377 2.831-.624 4.28-1.529 9.931-3.516 17.613-6.065 23.466-3.749 8.599-9.864 14.225-18.177 16.722-1.479.457-3.012.792-4.651 1.021-.087.248-.186.487-.296.718-1.611 3.702-5.54 5.605-11.657 5.605zm-38.675-26.733c-.665 2.483.596 5.373 3.846 8.773 3.856 3.999 9.216 7.521 15.924 10.452 3.359 1.454 6.618 2.584 9.684 3.357 3.096.735 6.06 1.138 8.79 1.191 4.604.054 7.533-.922 8.949-3.043l-.272.012c-4.926.152-10.376-.684-16.213-2.484-2.088-.682-4.126-1.428-6.083-2.22l-.593-.245-1.2-.508c-.181-.09-.282-.119-.385-.152l-.199-.082-.458-.214c-.344-.146-.695-.302-1.067-.478-9.078-3.956-16.063-8.796-20.723-14.359zm23.469 12.362c.201.067.401.143.614.25l1.083.455.586.243c1.874.762 3.848 1.481 5.851 2.135 5.499 1.697 10.624 2.494 15.209 2.346.77-.031 1.521-.084 2.27-.173l.146-.011.094-.013c1.828-.199 3.497-.536 5.099-1.028 7.554-2.272 12.893-7.203 16.328-15.078 2.411-5.54 4.381-13.197 5.857-22.756.219-1.287.401-2.538.557-3.775l-.413.067c-.794.132-1.706.216-2.765.255-.707.057-1.476.077-2.271.056-.95-.037-1.954-.094-2.997-.19-.401-.029-.838-.072-1.28-.118l-.267-.027c-.809-.082-1.402-.808-1.317-1.619.084-.813.818-1.403 1.619-1.32l.269.027c.411.043.819.086 1.218.113 1.021.094 1.971.148 2.854.184.675.019 1.335 0 2-.054.996-.038 1.786-.108 2.482-.224.349-.052.656-.115.931-.183.402-.097.78-.21 1.151-.339.875-.329 1.551-.712 2.067-1.172.364-.342.646-.739.846-1.196 1.255-2.856-1.788-6.758-4.561-9.529-.303-.311-1.573-1.296-6.031-4.327-3.593-2.492-7.537-4.817-11.724-6.918l-.714-.351-2.391-1.158c-1.186-.559-2.411-1.124-3.635-1.653l-5.195-2.13c-.576-.232-1.149-.447-1.741-.664-4.526-1.713-8.492-2.97-12.136-3.848l-.069-.016-.3-.059c-.218-.062-.438-.129-.659-.174-5.365-1.199-6.299-1.343-6.458-1.357-4.34-.265-9.79.059-11.092 3.065-.503 1.144-.378 2.487.375 4.116l.01.016.121.265c.304.577.691 1.19 1.186 1.87 1.046 1.441 2.556 3.062 4.485 4.813.475.441.976.874 1.493 1.268.648.496.773 1.422.276 2.069-.491.649-1.42.773-2.07.277-.54-.412-1.108-.895-1.694-1.435-2.101-1.906-3.699-3.63-4.88-5.259-.189-.255-.36-.505-.523-.746-1.357 1.481-2.055 2.311-2.411 2.757-5.97 7.508-10.234 14.156-12.672 19.76-3.391 7.772-3.375 15.254.046 22.231.688 1.383 1.552 2.799 2.556 4.201l.018.02.113.145c.377.532.772 1.062 1.203 1.579 4.363 5.235 11.001 9.82 19.731 13.631.374.175.688.312 1.017.451l.505.235zm48.186-44.839c-1.639 0-3.7-.271-6.23-.806-4.362-.933-9.165-2.401-14.279-4.37l-.176-.08-2.577-1.041c-.863-.351-1.746-.726-2.645-1.12l-.175-.089-.152-.055-7.534-3.507c-3.905-2.035-7.357-4.13-10.318-6.252-5.56-3.9-7.581-6.685-6.549-9.019.989-2.32 4.407-2.746 11.087-1.365 2.631.569 5.368 1.322 8.145 2.24 1.255.39 2.663.883 4.285 1.5.477.171.979.363 1.486.557l.38.145 4.968 2.05.164.078.151.056c.885.375 1.729.751 2.574 1.146l6.535 3.167c3.517 1.892 6.582 3.755 9.162 5.569 5.52 3.924 7.528 6.711 6.53 9.047-.638 1.442-2.183 2.149-4.832 2.149zm-19.304-7.876c4.916 1.885 9.521 3.291 13.688 4.182 6.8 1.438 7.73.374 7.745.358-.011 0 .088-1.451-5.53-5.45-2.48-1.739-5.446-3.541-8.802-5.347l-6.461-3.132c-.799-.373-1.615-.733-2.467-1.098l-.147-.074-.136-.047-5.271-2.163c-.493-.188-.981-.374-1.459-.547-1.586-.602-2.943-1.076-4.167-1.457-2.7-.895-5.332-1.618-7.85-2.164-6.848-1.415-7.767-.348-7.771-.334 0 .008-.152 1.418 5.552 5.419 2.86 2.052 6.196 4.073 9.917 6.012l7.476 3.48.322.141c.853.373 1.687.729 2.522 1.066l2.709 1.093.13.062z"/><path fill="#CD0E19" d="M233.231 179.088c-.168-.426-.479-.737-.906-.904h-.016c-.737-.278-2.029-.612-3.858-.979-1.811-.389-2.717-.593-2.736-.593l-.089-.018c-1.588-.165-2.549.187-2.884 1.053-.093.242-.148.5-.163.739l-.295-.035-4.548-.557c-.829-.128-1.437.242-1.809 1.091-.203.461-.235.924-.129 1.346h.021c.129.465.388.798.812.981.168.055.292.112.427.13l-.299.663 2.955 1.293.684-1.571 1.054.203c-.332.188-.611.519-.831 1-.094.238-.168.461-.184.681l5.868 2.569c1.093.108 1.849.13 2.273.036.647-.131 1.089-.478 1.351-1.091.183-.423.221-.885.111-1.347-.131-.462-.428-.795-.852-.979-.241-.111-.52-.147-.815-.094l-.033-.018c-.369.057-1.312-.019-2.81-.24l.885-2.031c2.254.425 3.79.795 4.58 1.071.43.165.815.184 1.15.073-.853 1.979-.227 4.137 1.864 6.441.719.8 1.145 1.502 1.286 2.093l3.145 1.366c.479-1.942-.184-3.935-2.014-5.966-1.052-1.199-1.477-2.105-1.258-2.715.127-.241.408-.37.814-.386.371-.021.756.072 1.163.238.833.35 1.497.961 2.032 1.792l.019.018c.169.259.387.442.627.554.407.166.833.166 1.273-.036.441-.241.761-.574.962-1.036.276-.572.222-1.144-.167-1.699h.019c-.888-1.384-1.978-2.362-3.249-2.915-1.183-.519-2.365-.61-3.526-.298-.724.167-1.333.48-1.83.905.04-.292.019-.57-.074-.828M220.675 173.585c-.184-.479-.463-.795-.849-.962-.424-.183-.868-.145-1.349.112-1.94 1.053-3.456 1.755-4.507 2.085.5-1.107.942-2.234 1.33-3.358.392-1.036.129-1.754-.755-2.143-.466-.203-.924-.203-1.369.037-.424.202-.72.591-.904 1.127-.389 1.088-.849 2.196-1.405 3.358.094-.405.149-.794.188-1.162.131-1.922-.536-3.196-1.977-3.804-1.828-.812-3.732-.258-5.705 1.645-.557.534-1.072 1.124-1.534 1.771-.314-.682-.813-1.164-1.532-1.478-1.718-.758-3.475-.294-5.301 1.423-.186-.46-.479-.794-.905-.96-.48-.223-.979-.149-1.477.201l5.67 2.476c.168-.02.35.017.519.093.09.037.184.074.235.129l.022.02.072.128 4.081 1.791c.423-.979 1.016-1.884 1.771-2.734.945-1.053 1.791-1.423 2.534-1.143l.274.185v.019c.312.275.204 1.071-.351 2.364-.425.939-.888 1.789-1.386 2.549l5.301 2.307.056-.11.071.164 4.433 1.939-1.326-3.415c1.233-.369 2.936-1.146 5.131-2.347.444-.24.737-.536.888-.904.203-.444.221-.904.056-1.403M195.689 163.816c.018.185.036.406.018.684.019.794.315 1.309.926 1.568.386.167.828.167 1.327-.018.479-.204.83-.536 1.036-.999.129-.274.188-.571.163-.922 0-2.067-.61-3.341-1.809-3.84-1.256-.573-2.896-.481-4.948.257-2.66.961-4.674 3.027-6.02 6.204l-.018.021c-.242.592-.423 1.162-.593 1.718l3.064 1.348c.113-.535.278-1.057.5-1.551.666-1.515 1.552-2.699 2.66-3.526 1.201-.89 2.422-1.2 3.694-.944M211.368 179.661l-5.301-2.308c-.425.608-.866 1.181-1.349 1.679-.791.775-1.44 1.07-1.937.904l-.165-.091c-.482-.442-.28-1.682.588-3.696l.019-.034-4.081-1.792c.181.35.056 1.052-.408 2.105-.718 1.644-1.589 2.975-2.602 3.99-.72.717-1.331 1.014-1.792.848l-.164-.091c-.446-.426-.259-1.571.57-3.473.408-.942.96-1.812 1.68-2.606.685-.738 1.295-1.125 1.867-1.143l-5.67-2.476-.163.112c-1.204.924-2.256 1.256-3.124.978-.518-.202-.737-.793-.645-1.773.034-.314.091-.646.145-.958l-3.064-1.35c-.35 1.237-.479 2.401-.406 3.528.127 2.087.98 3.471 2.547 4.134 1.312.593 2.772.483 4.414-.331-.164.315-.33.629-.479.961-.552 1.293-.827 2.586-.813 3.879 0 1.902.722 3.154 2.18 3.767 1.385.645 2.919.168 4.597-1.441.629-.607 1.204-1.292 1.737-2.031.351 1.089 1.035 1.845 2.088 2.308 1.273.573 2.698.242 4.227-1.013-.089.091-.147.184-.181.274-.205.462-.224.925-.039 1.37.166.422.442.734.829.903.759.352 1.443.128 2.014-.702v-.021c1.126-1.64 2.083-3.119 2.881-4.41M238.105 192.438c.13-.314.241-.645.335-.979l-3.145-1.363c.095.329.079.627-.015.884-.127.295-.388.479-.775.537h-.019c-.351.016-.703-.036-1.089-.204-1.089-.498-1.845-1.475-2.27-2.938l-.022-.108-2.305-1.018c-.314.131-.538.406-.704.833-.127.273-.186.59-.166.958l-.274-.146c-.352-.15-.739-.15-1.165.018v.017c-.962.353-1.94.296-2.954-.146-.224-.093-.427-.185-.631-.314l1.146-2.621c.869.167 1.625.276 2.251.333l-5.868-2.569c-.074.536.111.998.532 1.348l-1.329 3.03c-.093.13-.182.278-.259.443-.292.7-.203 1.331.278 1.902.684.737 1.515 1.31 2.492 1.734 1.718.757 3.454.813 5.188.149v.019c.521-.221.869-.554 1.034-.999l.061-.111c.127.241.274.499.441.76.5.811 1.069 1.495 1.755 2.069.461.346.938.645 1.439.866 1.162.498 2.27.573 3.36.184 1.224-.423 2.107-1.274 2.678-2.568M228.802 187.249l2.305 1.018c-.127-.389-.441-.685-.939-.89-.556-.236-1.015-.294-1.366-.128"/><path fill="#CD0E19" d="M216.759 182.005l-.371.831-.46-1.183-4.433-1.938 2.496 6.576c.127.312.314.554.589.719l-1.185 2.713-.533-.218c-.423-.187-.846-.169-1.273.034l-.019-.02c-.443.188-.775.519-.977 1.018-.222.499-.261.979-.095 1.422l.02-.02c.146.463.425.795.85.979.851.368 1.829.646 2.953.831 2.496.407 3.972.019 4.436-1.164.201-.462.22-.923.054-1.402-.167-.5-.463-.831-.851-1-.388-.184-.814-.146-1.295.114l3.049-7-2.955-1.292z"/><path fill="#009FE8" d="M256.897 205.27l.221-.015c-.236.752-.452 1.445-.675 2.104-.027.169-.058.316-.104.467-.275 1.286-.594 2.538-.913 3.74-.301 1.139-.596 2.134-.896 2.997-.552 1.655-1.073 2.863-1.583 3.61-.156.47-.312.959-.486 1.467l-.208.953-.03.095-.043.222c-.106.429-.228.879-.35 1.312-.204.691-.439 1.389-.676 2.046-.367.998-.79 1.964-1.257 2.909-.66 1.385-1.412 2.681-2.267 3.927-1.648 2.124-3.161 3.754-4.549 4.886-1.378 1.13-2.899 2.173-4.6 3.1-.517.305-1.056.629-1.645.938l-.287.147-.564.125v.019l-.581.124c-.255.071-.471.154-.631.294-1.939.496-4.207.829-6.762.992-.402.041-.827.066-1.271.055-1.146-.083-2.12-.322-2.915-.721l-.06-.033c-.48-.397-.787-.897-.909-1.478l-.002-.021-.022-.015c-.222-1.336-.374-2.101-.462-2.334-.021-.053-.029-.186-.042-.423-.056-.956.122-2.055.551-3.294l-.003-.035-.001-.039v-.017l-.003-.018.068-.099-.003-.036.18-.399c.137-.19.277-.385.395-.573l-.003-.017.069-.078c.344-.408.605-.661.766-.781.316-.294.848-.602 1.589-.958 1.113-.502 2.361-.905 3.765-1.227 1.401-.315 2.128-.489 2.217-.549-.623.056-1.303.091-2.038.115-2.412.08-4.786-.155-7.158-.665l-.054.003-.521-.079-.299-.075-.069.04-.058-.031-.019.016c-5.806-1.953-8.667-5.26-8.616-9.907-.184-1.963 1.048-3.32 3.696-4.062l.019-.019c.979-.278 2.145-.49 3.479-.639 5.838-.131 9.3-.253 10.38-.367-5.584-.626-9.965-1.446-13.135-2.463l.049-.077c-.9-.321-1.711-.66-2.419-1.026-.645-.349-1.237-.701-1.771-1.06-1.911-1.2-3.134-2.608-3.691-4.252-.728-1.839-.76-3.938-.061-6.283.352-1.255 1.517-2.206 3.508-2.834 1.129-.544 2.5-.824 4.138-.846l.939.023c.389-.023.79-.046 1.195-.09 5.429-.211 8.914.2 10.487 1.251-2.382-2.354-4.213-4.774-5.5-7.301-.309-.536-.538-1.039-.734-1.508-.021-.09-.084-.197-.145-.306-.73-1.488-.937-2.911-.611-4.277.198-1.061.68-1.976 1.468-2.759l.018-.018c.122-.098.244-.216.329-.332v-.018c1.416-1.392 3.444-1.706 6.104-.918 1.251.281 2.608.772 4.082 1.446.723.345 1.466.782 2.212 1.312.791.566 2.02 1.472 3.698 2.759 1.523 1.187 2.844 2.364 3.998 3.533.118.122.233.246.333.371 1.218 1.293 1.963 2.118 2.26 2.451v.018l.066.18c.048.184.164.287.336.329l.053.039.056.016c.095.065.197.208.262.426.094.29.248.464.492.521l.057.021c.203.007.521.044.947.093l.125-.006.162-.141c.279-.255.618-.438 1.035-.573l.002-.278c.281.078.506.101.668.091.149-.006.261.006.355.055.335 1.032 1.098 2.498 2.316 4.439l.12.196c.226-.289.452-.503.72-.647.092-.062.157-.102.232-.089.167.027.273.227.292.61.016.204-.102.746-.346 1.626l.112.084c.462.325.699.606.716.844l-.017.093.321-.221c1.239-.86 1.497 1.076.753 5.803-.107.67-.217 1.341-.346 1.994"/><path fill="#00499C" d="M250.85 189.313l.203.009-.051 1.069-.002.28c-.417.135-.756.316-1.035.573l-.162.141-.125.004c-.427-.046-.746-.084-.947-.091l-.057-.017c-.244-.059-.398-.235-.492-.525-.064-.218-.167-.358-.262-.426l-.056-.016-.053-.035c-.172-.046-.288-.149-.337-.333l-.065-.178v-.02c-.297-.333-1.042-1.158-2.26-2.454l-.333-.366c-1.154-1.171-2.478-2.349-3.998-3.532-1.679-1.29-2.907-2.197-3.698-2.762-.746-.526-1.489-.966-2.212-1.312-1.474-.671-2.831-1.165-4.082-1.446-.693-.2-1.327-.33-1.938-.39l-.17-2.958c1.464.139 3.116.581 4.909 1.348.846.337 1.722.767 2.614 1.25l.109-.025.753.327.102.089.015-.021.039.017c.094.051.152.083.19.137l.019.016c5.183 3.58 8.854 6.575 10.999 8.981l.253.246.062.07c.135.137.257.296.393.473l.109-.003-.027.108.313.022c.19.119.368.347.518.689.127.305.249.482.38.511.188.046.299.058.334.038l.073-.06-.025.572zm-14.018-9.86l.022.073-.022-.073M228.718 174.53l.17 2.958c-1.724-.16-3.118.27-4.166 1.304v.021c-.085.114-.207.232-.329.332l-.018.019c-.786.782-1.27 1.697-1.468 2.758-.325 1.364-.119 2.789.611 4.277.061.108.123.216.145.305.196.47.426.975.734 1.509 1.287 2.526 3.118 4.949 5.5 7.301-1.573-1.051-5.059-1.462-10.487-1.247-.405.04-.807.062-1.191.084l-.943-.021c-1.638.021-3.009.302-4.138.842-1.991.631-3.156 1.583-3.508 2.838-.697 2.343-.667 4.444.062 6.283.556 1.644 1.778 3.05 3.689 4.25.534.36 1.127.711 1.771 1.062.708.366 1.519.708 2.419 1.025l-.049.078c3.17 1.017 7.551 1.841 13.135 2.461-1.08.116-4.542.238-10.38.365-1.335.152-2.501.364-3.479.642l-.019.02c-2.648.739-3.88 2.1-3.696 4.062-.051 4.65 2.811 7.954 8.616 9.907l.019-.016.058.031.069-.04.299.075.521.079.054-.003c2.371.51 4.746.747 7.158.663.68-.018 1.322-.054 1.911-.104l.002.033c-.273.092-.964.258-2.092.507-1.403.317-2.651.725-3.765 1.227-.741.354-1.272.664-1.589.958-.16.12-.422.373-.766.781l-.07.076.004.019c-.117.19-.256.386-.395.573l-.18.399.003.036-.068.098.003.019v.017l.001.036v.038c-.426 1.241-.604 2.34-.548 3.294.013.24.021.37.042.423.088.233.24 1 .462 2.334l.022.015.002.02c.122.582.429 1.082.909 1.479l.06.033c.795.398 1.769.635 2.915.721.443.012.868-.016 1.271-.055 1.615-.091 3.117-.268 4.488-.513l.164 2.941c-2.043.374-4.027.522-5.946.428-1.46-.064-2.727-.305-3.824-.743-.488-.505-1.07-1.026-1.71-1.561-.227-.428-.495-.913-.8-1.469l-.205-.354c-.248-.782-.408-1.676-.446-2.65-.144-3.218.392-5.479 1.603-6.818v-.02c.053-.038.316-.295.802-.765l.304-.273-.059.003c-.071-.016-.313 0-.698.037l-.439.029-.095-.014-.385-.016-.188-.026c-.093-.014-.203-.026-.351-.019-6.564-2.3-9.917-6.167-10.022-11.615-.308-3.136 1.031-5.238 3.975-6.312-.778-.359-1.536-.742-2.24-1.162l-.022-.018c-4.793-2.934-6.548-6.91-5.283-11.903 1.264-5.067 4.791-7.589 10.56-7.602 2.337-.007 4.407.063 6.165.201-.952-1.219-1.823-2.626-2.632-4.22-1.853-3.674-1.312-7.134 1.606-10.341 1.572-1.857 3.702-2.66 6.385-2.426M254.528 214.563c.151-.284.318-.589.466-.894.087 2.229.153 3.994.205 5.264.036.937.076 1.615.099 2.042l.021.365-.449.21v.02c-.075.279-.174.525-.255.732l.028.128c-.184.654-.405 1.315-.661 2.011l-.347 1.015c-.561 1.508-1.246 3.056-2.024 4.666-.064.152-.129.305-.212.456-2.163 4.473-5.757 8.068-10.746 10.784-.659.369-1.339.719-2.008 1.034-.626.311-1.234.586-1.868.844l-.072.003c-.418.082-.762.192-1.011.316l-.062-.069c-.997.277-1.981.498-2.968.667l-.164-2.943c.804-.137 1.568-.289 2.273-.476.16-.139.376-.225.631-.296l.581-.125v-.02l.564-.123.287-.146c.589-.31 1.128-.636 1.645-.94 1.7-.927 3.222-1.973 4.6-3.098 1.388-1.129 2.9-2.764 4.549-4.888.854-1.246 1.606-2.542 2.267-3.927.463-.947.89-1.911 1.253-2.909.24-.657.479-1.354.68-2.046.122-.432.243-.881.35-1.312l.043-.222.03-.095.208-.951.486-1.466c.511-.745 1.031-1.955 1.581-3.611M231.79 228.682l-.002-.033.127-.009-.125.042"/><path fill="#009FE8" d="M90.376 123.319l-.586.124c-8.294 1.882-14.389 4.381-18.259 7.507-.56.436-1.07.9-1.524 1.373-1.425 1.448-2.819 3.321-4.174 5.585-.453.753-.894 1.546-1.346 2.39-.45.851-.983 1.942-1.616 3.281l-.014.021c-.988 2.092-2.196 4.774-3.62 8.069l.006.019c-.123.233-.227.46-.329.712l-.61-1.119c-7.103 15.622-13.981 29.293-20.639 41.035l-.584 1.119-.042-.013c-6.226 11.333-9.481 22.53-9.754 33.595-.014.305-.027.61-.016.93-.145 11.059 2.137 20.896 6.853 29.543l1.396-.689.097.188.001.019c4.52 8.428 10.769 14.871 18.725 19.374l.434.248.022.014c8.416 4.618 17.653 6.42 27.688 5.402l.37-.041c6.511-.698 12.774-1.48 18.785-2.378 1.861-.273 3.722-.569 5.546-.854 10.962-1.778 21.033-3.901 30.214-6.366 1.529-.412 3.039-.823 4.531-1.245 13.036-3.777 24.149-8.268 33.384-13.491 5.083-2.89 9.604-6.002 13.528-9.331l.016-.004c.579-.515 1.163-1.015 1.72-1.526.988-.904 1.945-1.801 2.853-2.723.318-.391.66-.763.995-1.154 6.589-7.688 10.797-15.677 12.637-23.997 1.542-8.181.875-17.016-1.99-26.543-.549-1.809-1.152-3.622-1.813-5.428l-.007-.017c-3.729-9.948-9.506-19.94-17.321-29.96l-.021-.014c-2.133-2.74-4.414-5.47-6.85-8.204-2.283-2.578-4.705-5.145-7.255-7.722-1.346-1.34-2.687-2.645-4.019-3.932l-.021-.017-1.348-1.264c-.61-.549-1.215-1.102-1.809-1.642-4.385-3.964-8.791-7.511-13.191-10.646-.498-.369-.982-.702-1.472-1.03l-.003-.02c-1.845-1.273-3.577-2.382-5.166-3.351-3.389-2.027-6.256-3.37-8.611-3.99-27.032 4.757-42.305 7.473-45.791 8.163"/><path fill="#00499C" d="M76.576 284.575c-8.006 0-15.579-1.801-22.522-5.354l-.032.009-.656-.36c-.151-.078-.299-.157-.436-.246-8.424-4.57-15.154-11.344-19.917-20.07l-.159-.289c-4.85-8.905-7.215-19.086-7.067-30.338-.011-.289.001-.633.017-.974.278-11.219 3.621-22.752 9.938-34.244l.64-1.139c6.612-11.659 13.537-25.425 20.571-40.903 1.461-3.347 2.661-6.008 3.663-8.116l.08-.161c.73-1.537 1.434-3 2.045-4.12.241-.444.485-.875.726-1.292l.189-.332c1.673-2.886 3.314-5.111 5.025-6.822.285-.295.597-.576.941-.861l.144-.139c4.04-3.472 10.539-6.27 19.327-8.312.197-.061.423-.113.673-.162 1.9-.415 15.623-2.864 45.866-8.179.327-.068.646-.134.966-.182l.561-.085.785.512c2.477 1.607 5.138 3.281 7.902 4.969 1.677 1.024 3.455 2.101 5.318 3.216 5.261 3.145 10.385 6.983 15.236 11.403l.21.193 1.766 1.619.675.644.145.139.538.492c3.218 3.047 5.977 5.801 8.207 8.188.784.834 1.707 1.883 3.064 3.48l.204.224c2.025 2.417 4.304 5.229 6.765 8.358l.238.302c.792 1.005 1.606 2.052 2.465 3.156 5.419 6.975 10.29 16.205 14.479 27.429l.055.162c.243.655.491 1.327.723 1.999.408 1.127.794 2.25 1.166 3.374 3.476 10.813 4.439 20.006 2.866 27.331l-.122.583c-1.73 8.423-6.3 16.84-13.545 24.898l-.533.563.009.024-.576.606c-1.35 1.421-2.845 2.894-4.568 4.51-1.846 1.717-4.104 3.442-6.913 5.275-1.71 1.095-3.819 2.353-6.291 3.748l.006.035-1.245.668-.617.334c-9.036 4.982-20.156 9.368-33.015 13.011l-5.309 1.431c-9.036 2.339-19.015 4.403-29.696 6.146-1.916.302-3.739.587-5.563.858-6.009.899-12.347 1.707-18.877 2.408l-.372-1.452.207 1.472-.299.033c-2.01.22-4.072.33-6.071.33zm-21.53-8.18c8.249 4.312 17.442 5.957 27.336 4.899l.484-.055c6.415-.689 12.712-1.494 18.643-2.383 1.855-.274 3.669-.561 5.452-.84 10.702-1.745 20.593-3.789 29.506-6.099l.415-.105 4.878-1.319c12.623-3.575 23.531-7.874 32.411-12.771l-.051-.304 1.135-.297c2.731-1.532 5.033-2.896 6.847-4.059 2.655-1.731 4.786-3.354 6.5-4.952 1.439-1.348 2.711-2.59 3.868-3.783l-.016-.059.613-.579 1.344-1.456c6.704-7.551 10.928-15.381 12.561-23.279l.003-.025.06-.269.012-.092c1.479-6.909.545-15.586-2.771-25.889-.355-1.09-.733-2.183-1.139-3.307-.245-.717-.503-1.403-.752-2.069l-.062-.185c-4.07-10.877-8.774-19.792-13.986-26.5-.868-1.115-1.691-2.174-2.49-3.188l-.363-.208-.062-.335c-2.3-2.913-4.432-5.542-6.337-7.823l-.165-.184c-1.421-1.675-2.36-2.744-3.146-3.575-2.113-2.269-4.722-4.878-7.758-7.761l-.32-.284c-.24-.223-.474-.445-.707-.672l-.545-.521-.127-.106-1.807-1.668c-4.737-4.331-9.738-8.083-14.866-11.149-1.871-1.119-3.659-2.201-5.342-3.23-2.722-1.661-5.34-3.309-7.796-4.897l-.263.054c-29.896 5.256-44.009 7.773-45.865 8.18-.176.035-.314.064-.462.11l-.149.037c-8.19 1.906-14.207 4.44-17.895 7.528l-.023.047-.243.195c-.291.238-.555.47-.806.732-1.526 1.523-3.058 3.608-4.569 6.219l-.188.324c-.228.403-.466.819-.696 1.246-.592 1.084-1.303 2.562-2.037 4.109l-.083.16c-.972 2.059-2.139 4.648-3.565 7.912-7.081 15.58-14.044 29.426-20.707 41.175l-.627 1.117c-6.07 11.046-9.29 22.121-9.558 32.893-.014.293-.027.56-.019.84-.136 10.753 2.086 20.405 6.606 28.753l.237.136.092.479c4.481 8.154 10.793 14.483 18.754 18.809l.155.09h.114l.337.233z"/><path fill="#009FE8" d="M159.524 254.113l.041.004c.229.23 2.014 6.746 5.312 19.563 3.365 13.078 5.087 19.719 5.174 19.906l4.609 1.046c11.189.167 20.372 1.645 27.539 4.455 3.475 1.359 6.781 3.316 9.937 5.859 1.454 1.179 2.679 3.006 3.719 5.497 1.021 2.488 1.355 4.487 1.027 6.007-.546 2.434-2.694 4.352-6.465 5.751-10.478 3.876-27.473 3.122-50.962-2.249-11.744-2.674-22.443-5.755-32.073-9.223l-.932-1.859c-.083-.241-.148-.503-.212-.783-.175-1.385-.307-2.369-.377-2.979-.162-1.169.458-9 1.828-23.52 1.372-14.535 1.995-22.39 1.886-23.534v-.021l29.934-3.938.015.018z"/><path fill="#00499C" d="M193.826 326.11c-9.327 0-20.999-1.586-34.702-4.719-11.726-2.671-22.574-5.792-32.241-9.273l-.557-.2-1.276-2.576c-.096-.283-.173-.59-.25-.92l-.026-.152-.219-1.74c-.068-.52-.122-.933-.156-1.25-.124-.885-.007-4.438 1.824-23.825 1.839-19.513 1.931-22.767 1.887-23.26l-.011-.16v-1.29l31.998-4.212.501.533c.403.399.669.659 5.705 20.247 1.073 4.168 4.086 15.875 4.93 19.029l3.604.818c11.27.184 20.658 1.715 27.901 4.558 3.574 1.396 7.048 3.442 10.324 6.083 1.645 1.331 3.004 3.315 4.15 6.075 1.147 2.791 1.51 5.04 1.107 6.889-.66 2.954-3.146 5.247-7.391 6.82-4.532 1.677-10.284 2.525-17.102 2.525zm-65.392-16.566c9.417 3.358 19.959 6.376 31.347 8.973 13.487 3.081 24.942 4.646 34.045 4.646h.001c6.466 0 11.875-.788 16.078-2.343 3.247-1.203 5.11-2.781 5.536-4.69.26-1.198-.067-2.974-.947-5.126-.946-2.255-2.05-3.911-3.283-4.913-3.039-2.446-6.25-4.342-9.546-5.627-6.953-2.727-16.042-4.194-27.027-4.358l-.301-.037-5.324-1.205-.304-.664c-.102-.221-.173-.382-5.259-20.152-3.138-12.202-4.391-16.691-4.885-18.34l-27.523 3.622c-.092 2.053-.477 7.473-1.885 22.401-1.684 17.817-1.927 22.438-1.835 23.182l.367 2.914.127.486.618 1.231z"/><path fill="#009FE8" d="M156.05 54.901c-2.794-4.686-5.912-8.396-9.353-11.113-4.568-3.578-9.907-5.574-16.034-5.965l-.457-.027c-.571-.033-1.159-.057-1.76-.059-.504.004-1.006.008-1.518.037.056-.309.112-.617.152-.918l.05-.328.021-.182c.265-2.388-.019-4.794-.841-7.185l-.014-.054-.011-.035-.075-.171-.133-.345c-1.716-4.602-4.945-7.871-9.692-9.823-4.727-1.96-9.557-1.987-14.519-.116-4.93 1.899-8.526 5.139-10.769 9.705-.861 1.729-1.43 3.476-1.71 5.211-1.31-1.016-2.803-1.875-4.473-2.562-4.73-1.959-9.561-1.986-14.521-.115-3.154 1.217-5.769 2.98-7.831 5.305-1.158 1.298-2.123 2.767-2.938 4.402-2.012 4.066-2.453 8.155-1.298 12.262l.024.146c.131.463.3.932.467 1.4.73 1.918 1.711 3.598 2.949 5.062l.063.074.115.119.079.131c.138.248.088.573-.199.953l-.054.076-.123.154c-.253.178-.524.361-.83.557-.245.136-.508.297-.782.463-.31.175-.658.363-1.019.574l-.132.062c-7.49 4.014-13.254 8.172-17.268 12.473l-.302.311c-4.701 5.118-7.424 11.039-8.13 17.751v6.987l2.205 10.141 1.041 3.018c.441 1.197.907 2.422 1.434 3.648.615 1.45 1.326 2.83 2.131 4.142 1.491 2.487 3.301 4.757 5.437 6.845 1.325 1.304 2.756 2.51 4.339 3.652 5.264 3.82 11.567 6.515 18.899 8.089 2.141.46 4.325.811 6.516 1.061l20.013-.376c7.258-1.114 14.646-3.257 22.195-6.418l31.071-21.404c2.681-2.944 5.066-6.086 7.188-9.455.096-.126.169-.264.243-.387 3.906-6.22 6.326-12.472 7.236-18.783.653-4.331.558-8.463-.259-12.423l-.983-3.812c-.282-.818-.583-1.653-.925-2.473-1.509-3.836-3.145-7.264-4.915-10.282"/><path fill="#00499C" d="M80.95 143.639c-2.999 0-5.228-.07-6.825-.206-2.784-.24-5.582-.709-8.315-1.394-2.873-.722-5.708-1.711-8.432-2.937-2.205-.975-4.396-2.121-6.508-3.407-2.348-1.438-4.554-3.193-6.556-5.208-2.103-2.135-3.993-4.465-5.628-6.93-1.604-2.443-2.936-5.033-3.965-7.705-.923-2.398-1.695-4.878-2.291-7.373-.655-2.736-1.128-5.576-1.402-8.442-.166-1.793-.224-3.437-.174-5.03.067-2.924.577-5.88 1.503-8.779.923-2.853 2.129-5.561 3.583-8.055 1.462-2.535 3.299-4.867 5.455-6.92 2.099-2.009 4.126-3.676 6.016-4.955 1.826-1.258 3.353-2.271 4.563-3.064 1.23-.81 2.848-1.766 4.809-2.84.643-.354 1.198-.66 1.67-.924-.824-.896-1.5-1.938-2.012-3.113-.774-1.77-1.289-3.945-1.53-6.467-.254-2.559.056-5.078.916-7.488.87-2.385 1.695-4.17 2.537-5.464.796-1.276 1.672-2.39 2.582-3.286.783-.799 1.909-1.736 3.522-2.936 1.557-1.147 3.624-2.127 6.146-2.91 2.46-.764 4.747-1.172 6.801-1.213 1.978-.05 3.617.105 4.884.438 1.184.311 2.378.713 3.556 1.201.659.264 1.335.646 2.022 1.144l.174-.882c1.304-3.166 2.693-5.473 4.254-7.057 1.517-1.562 3.27-2.907 5.199-3.99 2.509-1.46 5.24-2.387 8.105-2.742 1.541-.174 3.126-.213 4.729-.115 2.789.204 5.403.829 7.789 1.861 2.447 1.055 4.409 2.257 5.999 3.675 1.627 1.437 2.897 3.128 3.78 5.022.87 1.869 1.532 4.115 1.969 6.675.24 1.405.29 2.604.15 3.614 2.607-.104 5.188.225 7.709.985 2.073.618 4.391 1.609 6.88 2.944.872.478 1.857 1.092 3.029 1.883.941.654 1.608 1.152 2.061 1.537l4.219 4.377 3.575 5.268c.271.425.554.874.856 1.395.818 1.379 1.798 3.131 2.831 5.066 1.568 2.937 2.758 5.717 3.528 8.263.896 2.808 1.462 5.694 1.687 8.579.228 2.935.095 5.768-.398 8.423-.468 2.521-1.049 4.978-1.722 7.302-.664 2.244-1.497 4.374-2.479 6.332l-.299.588c-.812 1.602-1.46 2.865-1.935 3.768-.647 1.22-1.11 2-1.54 2.615-1.379 2.062-2.93 4.064-4.601 5.924-1.984 2.221-4.152 4.273-6.438 6.094-2.538 1.979-4.877 3.673-7.169 5.193-1.66 1.087-3.29 2.184-4.911 3.313l-13.47 9.331c-2.317 1.382-4.138 2.275-5.492 2.709l-12.006 3.961c-2.357.772-4.818 1.272-7.321 1.485l-13.717.857c-.682.008-1.334.01-1.952.01zm-2.9-114.103l-.572.007c-1.778.036-3.791.399-5.985 1.081-2.206.686-3.979 1.514-5.268 2.466-1.487 1.101-2.5 1.942-3.191 2.646-.765.752-1.493 1.686-2.183 2.788-.718 1.109-1.472 2.745-2.249 4.88-.718 2.015-.969 4.046-.757 6.199.216 2.215.65 4.088 1.3 5.572.619 1.414 1.5 2.517 2.691 3.369l1.887 1.348-2.181 1.229c-.504.285-1.621.916-3.338 1.859-1.894 1.039-3.445 1.953-4.607 2.719-1.198.785-2.707 1.786-4.52 3.038-1.767 1.193-3.664 2.757-5.647 4.651-1.953 1.861-3.613 3.968-4.938 6.266-1.353 2.318-2.469 4.832-3.325 7.479-.842 2.625-1.301 5.305-1.363 7.955-.045 1.48.007 3.007.165 4.672.26 2.727.708 5.43 1.331 8.033.567 2.369 1.301 4.725 2.176 7 .954 2.475 2.19 4.879 3.675 7.14 1.527 2.303 3.299 4.485 5.264 6.479 1.83 1.846 3.849 3.45 5.995 4.765 1.996 1.218 4.076 2.304 6.17 3.23 2.574 1.159 5.246 2.091 7.95 2.771 2.582.646 5.223 1.086 7.848 1.314 1.833.157 4.578.219 8.423.188l13.608-.854c2.239-.192 4.478-.643 6.616-1.343l12.014-3.967c.796-.255 2.269-.871 4.811-2.384l13.378-9.271c1.638-1.146 3.296-2.259 4.973-3.355 2.219-1.473 4.503-3.126 6.964-5.047 2.145-1.708 4.191-3.646 6.069-5.745 1.575-1.758 3.041-3.647 4.362-5.623.372-.533.791-1.242 1.368-2.33.47-.887 1.107-2.14 1.912-3.723l.294-.579c.9-1.796 1.668-3.76 2.279-5.831.646-2.227 1.202-4.587 1.652-7.013.453-2.435.569-4.938.357-7.655-.203-2.661-.729-5.325-1.557-7.916l-.007-.022v-.003c-.717-2.363-1.833-4.969-3.313-7.738-1.011-1.897-1.968-3.611-2.767-4.959-.291-.496-.556-.917-.783-1.277l-3.478-5.118-3.862-3.991c-.271-.221-.882-.675-1.714-1.252-1.079-.731-1.991-1.299-2.767-1.725-2.302-1.234-4.433-2.147-6.324-2.711-2.952-.891-5.87-1.108-8.925-.662l-4.346.634 3.08-3.129c.185-.184.742-1.006.272-3.774-.394-2.299-.979-4.294-1.738-5.926-.708-1.523-1.738-2.889-3.062-4.061-1.354-1.207-3.056-2.244-5.21-3.172-2.081-.9-4.376-1.448-6.813-1.625-1.439-.087-2.812-.054-4.188.1-2.448.305-4.803 1.104-6.986 2.375-1.702.955-3.229 2.126-4.553 3.492-1.251 1.27-2.45 3.268-3.569 5.947l-.433 3.026c-.021.169-.075.335-.156.489v.004l-.002.004c-.085.156-.196.297-.328.412-.152.137-.327.234-.513.296-.19.063-.394.091-.608.067-.199-.02-.396-.08-.574-.18l-.003-.002-.002-.002-.005-.001v-.001c-.127-.073-.241-.162-.34-.267-1.126-1.163-2.183-1.948-3.142-2.331-1.069-.441-2.136-.801-3.191-1.079-.87-.227-2.074-.346-3.501-.346z"/><path fill="#fff" d="M126.079 28.558c-1.716-4.603-4.945-7.871-9.692-9.823-4.727-1.96-9.557-1.987-14.519-.116-4.93 1.899-8.526 5.139-10.769 9.705-.861 1.727-1.43 3.476-1.71 5.211-1.31-1.016-2.803-1.875-4.473-2.562-4.73-1.959-9.561-1.986-14.521-.115-4.927 1.902-8.526 5.137-10.77 9.705-2.276 4.579-2.529 9.19-.807 13.811 1.767 4.625 5 7.912 9.74 9.846 4.743 1.939 9.59 1.96 14.533.096 4.922-1.863 8.521-5.098 10.756-9.684.864-1.727 1.43-3.477 1.709-5.208 1.312 1.012 2.804 1.872 4.477 2.561 4.739 1.933 9.589 1.958 14.529.091 4.927-1.859 8.521-5.096 10.761-9.682 2.27-4.598 2.525-9.211.756-13.836"/><path fill="#231815" d="M79.351 55.297c1.542-1.419 3.145-2.336 4.818-2.735 1.897-.43 3.829-.137 5.772.85.423.236.857.271 1.304.147.434-.157.769-.438.996-.879.203-.395.238-.833.111-1.294-.134-.479-.423-.834-.848-1.026-2.73-1.454-5.435-1.851-8.12-1.169-2.304.541-4.514 1.808-6.644 3.82-.619.605-1.204 1.256-1.756 1.955-.416.578-.631.876-.648.885-.264.393-.337.824-.227 1.291.094.473.345.84.736 1.101.376.269.813.36 1.328.274.48-.133.844-.385 1.059-.745l-.012-.034c.911-1.163 1.618-1.987 2.131-2.441M99.04 36.884c1.537-1.423 3.143-2.34 4.817-2.738 1.896-.428 3.829-.137 5.771.854.424.232.859.268 1.302.145.437-.156.769-.439.999-.88.203-.394.238-.832.112-1.294-.135-.479-.423-.832-.849-1.023-2.731-1.454-5.435-1.852-8.12-1.172-2.303.541-4.518 1.809-6.643 3.823-.619.605-1.206 1.255-1.76 1.954-.414.578-.628.877-.646.883-.262.396-.338.824-.227 1.293.095.473.347.838.737 1.1.375.269.813.361 1.327.275.48-.133.845-.387 1.062-.744l-.014-.035c.911-1.162 1.617-1.989 2.132-2.441"/><path fill="#0E0000" d="M150.339 56.969l-1.759-5.149c-10.431 13.371-27.895 22.85-52.361 28.461-7.649 1.76-15.554 3.02-23.713 3.781l-9.907.623c9.162 18.24 23.016 26.643 41.572 25.162 5.785-.432 11.687-1.849 17.728-4.217 3.016-1.174 5.454-2.321 7.333-3.423 14.171-8.02 21.646-18.826 22.441-32.42.222-4.231-.213-8.509-1.334-12.818"/><path fill="#009FE8" d="M74.183 126.799l1.404.637-1.493-.857.089.22"/><path fill="#4F2006" d="M87.723 116.507c-.118 0-.237-.02-.354-.057-.58-.197-.894-.824-.696-1.403.194-.58.836-.937 1.417-.74.579.194.905.776.711 1.358l-.028.086c-.158.463-.588.756-1.05.756z"/><path fill="#B66D13" d="M84.561 104.324c-.089 1.79-.01 3.315.253 4.567.24 1.24.686 2.568 1.337 4.007.67 1.433 1.312 2.776 1.918 4.017.611 1.257 1.511 2.365 2.646 3.318 1.156.95 2.246 1.512 3.25 1.694 1.333.835 2.687 1.623 4.04 2.352 1.382.741 2.835 1.11 4.387 1.12 1.574.018 2.654-.229 3.282-.757 1.629-.423 3.028-1.062 4.195-1.899 2.111-1.506 3.691-3.965 4.766-7.344 1.046-3.395 1.331-6.389.862-9.01-.502-2.607-.866-4.427-1.126-5.486-.277-1.055-.835-2.076-1.688-3.045-.854-.984-1.77-1.971-2.742-2.959-1-.999-2.019-1.834-3.062-2.49-1.059-.65-2.076-1.118-3.053-1.445-.964-.294-2.036-.553-3.205-.761-1.172-.21-2.714-.434-4.602-.7-1.884-.271-3.616.184-5.216 1.369-1.562 1.158-2.975 3.233-4.239 6.252-1.249 3.01-1.914 5.41-2.003 7.2"/><path fill="#6B3D1B" d="M102.564 126.722h-.204c-1.761-.032-3.433-.459-4.971-1.268-1.329-.717-2.644-1.478-3.919-2.273-1.151-.25-2.326-.885-3.582-1.934-1.291-1.057-2.303-2.318-2.996-3.74-.53-1.08-1.076-2.248-1.654-3.49l-.265-.57c-.742-1.574-1.214-2.984-1.448-4.304-.273-1.288-.371-2.883-.292-4.841.09-2.008.785-4.511 2.123-7.662 1.368-3.239 2.9-5.459 4.679-6.788 1.847-1.386 3.924-1.931 6.156-1.614 1.922.266 3.463.5 4.644.71 1.194.212 2.291.481 3.361.825 1.061.326 2.198.857 3.359 1.572 1.141.719 2.246 1.611 3.293 2.662 1.098 1.129 2.007 2.118 2.791 3.037.984 1.104 1.635 2.271 1.974 3.551.287 1.078.658 2.908 1.137 5.596.538 2.812.242 6.055-.89 9.622-1.149 3.632-2.918 6.323-5.252 7.992-1.243.915-2.721 1.614-4.388 2.074-.836.567-2.036.843-3.656.843zm-7.591-35.973c-1.212 0-2.318.387-3.383 1.182-1.38 1.031-2.671 2.958-3.843 5.723-1.198 2.823-1.843 5.098-1.917 6.758-.071 1.734.008 3.121.242 4.234.203 1.135.611 2.332 1.253 3.701l.267.572c.571 1.227 1.109 2.379 1.632 3.447.529 1.082 1.311 2.051 2.321 2.88.984.821 1.863 1.299 2.622 1.423.167.028.331.09.475.182 1.294.812 2.63 1.59 3.97 2.309 1.182.622 2.425.941 3.789.965h.164c1.56 0 2.101-.305 2.262-.437.144-.12.313-.208.495-.255 1.447-.374 2.711-.957 3.76-1.729 1.881-1.347 3.327-3.59 4.302-6.676 1-3.151 1.272-5.965.812-8.365-.471-2.634-.826-4.396-1.094-5.404-.229-.875-.692-1.695-1.417-2.507-.766-.897-1.641-1.847-2.688-2.925-.897-.899-1.849-1.67-2.814-2.277-.963-.593-1.895-1.032-2.764-1.299-.972-.313-1.961-.556-3.037-.746-1.156-.205-2.665-.433-4.547-.693-.296-.043-.583-.063-.862-.063z"/><path fill="#431C05" d="M108.459 98.792c.207-.742.317-1.184.316-1.316l.126-.081c-.187-.405-.807-.964-1.866-1.669-1.056-.689-2.011-1.197-2.868-1.527-.041.361-.237.774-.571 1.246l-.601.792c.448.379.826.705 1.137 1.013l.393.379.115.119c.527.198 1.8.546 3.819 1.044M106.957 108.436c.392.319.731.601 1.003.841.595-.013 1.311.047 2.186.176.39.07.759.129 1.071.199.385-.49.78-.827 1.168-1.01.307-.118.486-.233.504-.354.149-.687-.091-1.618-.732-2.788-.57-.998-1.007-1.576-1.336-1.703-1.064-.417-1.982-.627-2.731-.602-.745.023-1.445-.1-2.046-.353-.056.249-.266 1.11-.672 2.575l-.295 1.196c.484.544 1.105 1.158 1.88 1.823"/><path fill="#7A4428" d="M109.112 119.636c-.337-.144-1.062-.473-2.177-.99-.769-.355-1.621-.471-2.566-.344l-.358-.583-.055-.101-.005-.016-.233-.003c-.309.001-.808.083-1.5.206.024.322-.03 1.366-.188 3.121-.113 1.525-.094 2.43.059 2.73.97.251 1.681.354 2.122.348.743-.041 1.281-.057 1.599-.025 1.017.023 1.853.032 2.502.016 1.211-.035 1.863-.244 1.945-.641.069-.272.007-.656-.195-1.156-.257-.572-.399-1.131-.424-1.644-.048-.509-.219-.803-.526-.918"/><path fill="#431C05" d="M99.367 106.015l-.327-.496c-.509-.361-1.154-.756-1.977-1.209-.585-.316-.969-.602-1.18-.844-.201.16-.508.354-.931.607l-.956.518c.002.133-.032.512-.074 1.165-.019.372-.044.651-.07.872.26.384.66.74 1.191 1.057l.818.395c.286.104.758-.049 1.453-.484.503-.314 1.187-.843 2.053-1.581"/><path fill="#7A4428" d="M91.872 113.844c.146-.085.243-.214.283-.401.289-1.388-.037-2.468-.961-3.238-.391-.317-1.311-.781-2.798-1.372-.15-.048-.314-.016-.477.134-.639.611-.967.928-.979.951-.803.701-1.286 1.242-1.428 1.597-.132.372-.259.646-.394.822-.154.185-.027.648.389 1.405.422.774 1.091 1.299 1.98 1.538l.224-.09c1.409-.624 2.597-1.022 3.532-1.187.311-.061.53-.109.629-.159M96.16 122.312c.026-.104.044-.286.022-.547.009-.257.043-.404.044-.46-.303-.157-.968-.486-1.979-.979-.941-.475-1.604-.902-1.988-1.265l-.675-.364c-.047.229-.18.541-.411.904-.232.424-.371.661-.379.701-.129.449 0 .912.362 1.377.409.549 1.048 1.041 1.947 1.49.07.035.595-.072 1.538-.338.985-.252 1.495-.414 1.519-.519"/><path fill="#431C05" d="M89.444 94.423c-.145.455-.201 1.055-.208 1.771-.025 1.325.196 2.318.695 2.974.259.325.697.668 1.309 1.073 2.11-1.407 3.341-2.225 3.711-2.459.528-.342.789-.621.777-.848.013-.858-.341-1.848-1.062-2.955-.371-.559-.756-1.038-1.152-1.434-2.285.67-3.535 1.068-3.771 1.24-.11.075-.218.285-.299.638"/><path fill="#0E0000" d="M104.178 125.482c-.611 0-1.439-.134-2.459-.397-.41-.105-.757-.383-.947-.76-.262-.516-.379-1.255-.214-3.508.215-2.392.189-2.879.189-2.898-.049-.75.473-1.434 1.212-1.566.817-.145 1.334-.225 1.746-.229l.298.004c.237.018.472.092.682.211l.002-.004c.195.111.362.264.493.442.839.011 1.637.188 2.372.528 1.097.507 1.809.83 2.14.973.433.162 1.282.689 1.416 2.138.021.403.12.777.3 1.178.345.856.428 1.53.282 2.118-.361 1.667-2.523 1.733-3.335 1.757-.693.017-1.537.012-2.582-.015l-.404-.016c-.281 0-.634.016-1.07.041l-.121.003zm-.746-3.038c.415.074.646.086.746.086v1.477l.017-1.477c.75-.045 1.387-.055 1.761-.019.81.013 1.69.021 2.319.007l.313-.014c-.218-.543-.36-1.112-.409-1.669-.427-.192-1.042-.474-1.862-.851-.519-.238-1.098-.309-1.748-.221-.334.049-.668-.025-.948-.191-.029.429-.07.926-.121 1.484-.048.63-.063 1.074-.068 1.388zm-10.283 2.209c-.24 0-.525-.068-.74-.18-1.076-.537-1.883-1.171-2.438-1.914-.816-1.048-.778-2.029-.597-2.662.017-.123.102-.277.308-.651l.193-.351c.222-.354.26-.489.26-.491.114-.437.435-.837.848-1.017.415-.182.898-.203 1.296.012l.681.365c.111.059.219.137.313.225.134.126.562.48 1.633 1.019 1.014.493 1.688.825 1.995.985.502.258.814.783.801 1.348l-.024.258-.019.156c.02.335-.003.639-.065.904-.224.992-1.112 1.221-2.581 1.604-1.284.359-1.637.39-1.864.39zm-.464-3.492c.19.163.419.323.688.48l.14-.035c-.298-.15-.575-.3-.828-.445zm-5.196-4.407c-.127 0-.258-.019-.379-.051-1.276-.341-2.276-1.12-2.896-2.255-.354-.649-1.098-2.002-.232-3.051l.145-.383c.248-.631.798-1.287 1.793-2.163.17-.179.46-.454.979-.952.416-.378.878-.562 1.371-.562.151 0 .434.043.582.09 2.238.889 2.938 1.358 3.28 1.637.955.801 1.976 2.252 1.468 4.683-.123.578-.467 1.067-.979 1.368-.347.179-.642.252-1.093.339-.835.144-1.935.519-3.217 1.086-.078.051-.256.109-.401.153-.138.039-.281.061-.421.061zm-.864-4.068l.177.347c.163.297.377.514.659.662 1.284-.553 2.391-.918 3.318-1.104.024-.682-.245-1.016-.529-1.252-.03-.025-.38-.294-1.762-.875l-.431.42-.146.145c-.865.756-1.036 1.055-1.044 1.066-.075.217-.154.412-.242.591z"/><path fill="#984813" d="M97.859 112.458c-.137.062-.212.185-.26.353-.03.188-.002.349.085.495.063.137.152.244.308.291.153.067.289.062.421 0 .118-.058.198-.179.234-.362.043-.173.01-.333-.059-.487-.065-.151-.177-.252-.333-.32-.149-.05-.283-.044-.396.03M97.411 116.454c-.137.062-.218.184-.258.352-.034.188-.003.35.083.499.061.134.153.241.302.287.161.068.293.063.427 0 .119-.057.199-.179.235-.362.04-.169.012-.334-.06-.486-.065-.152-.18-.253-.331-.318-.154-.051-.287-.047-.398.028M94.481 111.095c-.133.061-.212.186-.253.353-.043.186-.008.351.081.498.06.134.153.24.303.29.158.066.291.061.425 0 .117-.059.197-.181.233-.364.043-.171.009-.335-.059-.487-.065-.15-.177-.252-.332-.318-.15-.052-.287-.046-.398.028M110.241 112.19c-.135.061-.211.185-.254.35-.037.188-.005.352.081.499.061.137.153.243.305.288.156.066.289.062.426 0 .119-.057.195-.177.233-.363.04-.168.011-.332-.059-.484-.067-.151-.177-.252-.336-.319-.149-.051-.285-.045-.396.029M96.75 96.955c-.133.062-.209.184-.253.351-.041.187-.005.352.082.498.058.135.151.241.305.29.155.067.291.062.425 0 .114-.058.191-.179.233-.366.043-.168.008-.33-.06-.483-.069-.153-.176-.255-.332-.32-.153-.049-.287-.044-.4.03M99.449 96.364c-.137.064-.213.185-.258.354-.033.186-.003.352.085.499.06.132.15.239.301.288.159.065.292.062.427 0 .119-.057.197-.178.234-.365.04-.168.009-.332-.06-.484-.066-.153-.176-.254-.332-.319-.154-.051-.284-.044-.397.027"/><path fill="#009FE8" d="M146.101 48.522c-.417.039-.834.132-1.256.266-1.582.505-3.943 1.472-7.095 2.881-4.141 1.9-7.592 3.467-10.359 4.677-11.025 4.831-22.962 9.296-35.792 13.384-.248.08-.884.146-1.894.197-1.01.05-1.631.113-1.894.196-.455.146-1.661.259-3.598.313-1.936.055-3.516.27-4.712.649-.246.078-.841.151-1.811.21-.951.052-1.554.108-1.817.192-.229.071-1.429.185-3.626.342-2.212.165-3.856.417-4.929.758-6.345 2.023-10.169 5.876-11.471 11.574-.255 1.088-.407 2.184-.457 3.304l.017.051c.359 1.125.698 3.283 1.033 6.467.094.957.218 1.888.371 2.807.905 2.594 2.493 5.632 4.772 9.128 3.348 5.108 7.236 9.463 11.661 13.088 5.738 4.695 11.993 7.796 18.803 9.303 8.226 1.812 17.01 1.238 26.338-1.735 1.635-.521 3.31-1.229 5.042-2.109.272-.183.554-.391.848-.619 1.88-1.393 3.193-2.199 3.947-2.438.016-.007.758-.476 2.223-1.408.143-.103.288-.188.406-.246 3.371-2.546 6.9-5.683 10.585-9.432 2.832-2.896 5.509-5.917 8.051-9.054 1.988-2.451 3.164-4.046 3.549-4.791 1.171-2.285 2.686-5.188 4.542-8.707l.964-2.086.068-.023c.088-.629.169-1.234.249-1.838.453-4.041.345-8.264-.307-12.682-.592-3.977-1.697-8.541-3.327-13.658l-.122-.385c-.137-.247-.303-.582-.52-.959l-.038-.065c-.12-.31-.401-.955-.889-1.923l-.005-.02c-2.714-2.638-5.245-4.505-7.55-5.609m4.238 8.447c1.121 4.31 1.556 8.587 1.334 12.818-.795 13.594-8.271 24.4-22.441 32.42-1.879 1.102-4.317 2.249-7.333 3.423-6.041 2.368-11.942 3.785-17.728 4.217-18.557 1.48-32.41-6.922-41.572-25.162l9.907-.623c8.159-.762 16.063-2.021 23.713-3.781 24.467-5.611 41.931-15.09 52.361-28.461l1.759 5.149zM112.159 265.536h.038c.242.224 2.258 6.684 6.021 19.403 3.833 12.979 5.797 19.567 5.891 19.753l4.652.882c11.21-.232 20.463.923 27.742 3.483 3.525 1.232 6.907 3.077 10.158 5.512 1.498 1.123 2.791 2.914 3.92 5.368 1.111 2.456 1.518 4.451 1.242 5.982-.457 2.458-2.543 4.453-6.272 5.989-10.354 4.258-27.398 4.107-51.113-.435-11.858-2.259-22.681-4.967-32.453-8.092l-.998-1.828c-.09-.241-.168-.5-.237-.776-.226-1.385-.396-2.364-.484-2.974-.207-1.161.141-9.029.996-23.62.853-14.603 1.193-22.492 1.048-23.636v-.018l29.834-5.015.015.022z"/><path fill="#00499C" d="M145.851 336.472c-8.74 0-19.4-1.194-31.692-3.547-11.808-2.25-22.786-4.985-32.624-8.138l-.563-.179-1.364-2.527c-.108-.286-.201-.597-.288-.925l-.288-1.717-.228-1.415c-.161-.915-.159-4.475.983-23.925 1.145-19.604 1.12-22.87 1.055-23.362l-.011-.188v-1.248l1.232-.226 30.647-5.151.485.524c.413.381.691.633 6.439 20.071 1.219 4.135 4.652 15.757 5.612 18.885l3.64.688c11.273-.215 20.737.98 28.104 3.57 3.623 1.269 7.175 3.193 10.556 5.725 1.694 1.271 3.124 3.212 4.378 5.938 1.245 2.753 1.688 4.995 1.353 6.855-.555 2.981-2.964 5.365-7.163 7.094-5.159 2.122-11.978 3.198-20.263 3.198zm-62.855-14.319c9.581 3.039 20.247 5.687 31.719 7.87 23.291 4.459 40.277 4.634 50.276.52 3.213-1.324 5.022-2.972 5.38-4.895.218-1.209-.174-2.977-1.138-5.1-1.021-2.225-2.187-3.842-3.457-4.798-3.139-2.349-6.424-4.132-9.76-5.3-7.069-2.485-16.251-3.627-27.224-3.401l-.155.003-5.521-1.048-.329-.647c-.109-.223-.189-.381-5.985-20-3.581-12.108-4.994-16.559-5.551-18.192l-27.435 4.61c-.017 2.121-.213 7.587-1.081 22.495-1.053 17.92-1.131 22.553-1.019 23.282l.229 1.404.26 1.588.129.395.662 1.214z"/><path fill="#009FE8" d="M136.222 120.648c-28.727 5.071-44.043 7.831-45.972 8.254-9.415 2.131-15.957 5.021-19.64 8.681-1.893 1.865-3.729 4.449-5.514 7.729-1.2 2.196-3.065 6.089-5.588 11.704-6.872 15.117-13.673 28.603-20.399 40.455-6.073 10.717-9.311 21.588-9.669 32.583-.352 10.248 1.789 19.596 6.412 28.023 4.518 8.27 10.806 14.555 18.866 18.846 8.418 4.479 17.683 6.139 27.782 5.032 51.601-5.668 87.224-17.177 106.877-34.565 16.087-14.242 20.971-31.763 14.659-52.592-4.949-16.394-15.845-32.832-32.663-49.362-6.662-6.533-13.374-12.129-20.093-16.774-6.33-4.404-11.333-7.065-15.058-8.014"/><path fill="#009FE8" d="M79.304 202.735c3.333 1.665 6.814 3.086 10.474 4.277 14.651 4.786 29.318 4.674 43.977-.324 14.662-5.058 26.049-14.147 34.176-27.293 6.111-9.907 9.447-20.556 10.025-31.935l-4.047.428-.079-.003-.617.073c.654-2.004.945-3.198.875-3.579-.071-.399-.171-.598-.297-.632l-.149.028c-.633.075-1.024.089-1.173.04-.251-.095-.519-.161-.815-.167l-.206.354c-.107.177-.132.455-.064.836.161.875.134 1.979-.076 3.314l-21.736 2.276c-1.217-1.055-2.284-2.056-3.205-3.006.337.017.799.169 1.397.451.72.359 1.259.631 1.646.815l.059-.208c-.263-.562-.946-1.199-2.041-1.923-.898-.597-1.748-1.051-2.547-1.355-.226.375-.215.866.021 1.428.296.518.447.822.461.878-.18-.003-.489.014-.896.029-.373.029-.619.055-.753.08.335.979 1.172 1.787 2.491 2.43.408.199.896.384 1.461.575l-2.623.284.038.308c-17.108 24.071-38.058 29.031-62.839 14.878l-2.938 36.643zM173.729 147.667l.1.219.079.004-.07-.361c-.023.065-.055.109-.109.138"/><path fill="#009FE8" d="M172.981 134.33c.129.587.376 1.07.752 1.415 1.517 1.408 2.536 2.775 3.072 4.09l2.218-.429-6.042-5.076z"/><path fill="#00499C" d="M111.271 212.051c-7.346 0-14.685-1.189-21.974-3.568-3.716-1.212-7.31-2.681-10.684-4.364-.798-.397-1.604-.815-2.39-1.256-.746-.417-1.013-1.356-.598-2.102.417-.745 1.36-1.013 2.103-.598.748.418 1.508.813 2.262 1.191 3.238 1.612 6.692 3.026 10.267 4.188 14.257 4.656 28.726 4.551 42.996-.315 14.245-4.916 25.468-13.88 33.361-26.645 5.614-9.102 8.867-18.982 9.68-29.395l-2.224.237-.19.01-.483.058c-.369.046-.725-.047-1.017-.233-.237.234-.558.394-.915.431l-21.736 2.274c-.365.032-.707-.053-.988-.232-.24.231-.554.39-.913.428l-1.653.181c-17.541 24.52-39.308 29.597-64.704 15.096l-.661-.389-.652-.38c-.728-.441-.961-1.393-.517-2.121.443-.733 1.39-.962 2.121-.521l.58.34.702.412c24.01 13.708 43.8 9.132 60.458-14.012.066-.716.628-1.312 1.372-1.394l2.621-.285c.363-.039.716.054.997.232.241-.232.558-.391.915-.428l21.735-2.274c.365-.036.71.054.994.233.233-.229.543-.385.895-.426l.617-.075.222-.01 2.6-.278c.055-1.647.047-3.382-.019-5.271-.036-.854.633-1.569 1.483-1.602.902-.016 1.57.636 1.602 1.487.095 2.48.081 4.718-.036 6.841l-.003.046c-.594 11.594-4.042 22.576-10.251 32.644-8.278 13.386-20.049 22.789-34.985 27.941-7.632 2.604-15.312 3.904-22.99 3.904z"/><path fill="#009FE8" d="M132.689 140.724c2.276 2.118 4.706 4.007 7.307 5.649 2.387 1.543 3.935 2.259 4.624 2.173l17.759 3.228c3.689-.777 7.095-1.818 10.174-3.11 1.168-1.65 2.594-3.188 4.306-4.664 1.028-.915 1.863-1.935 2.533-3.098 3.312-5.797 7.668-9.977 13.088-12.527l.093-.252c1.346-4.43 1.551-8.516.615-12.232-.9-3.504-2.317-5.21-4.242-5.111-4.912.298-7.761 2.234-8.524 5.854-.204 1.038-.284 2.526-.216 4.497.017.508.023.976.008 1.41-.048-.561-.165-1.186-.312-1.904-.439-2.373-1.23-4.645-2.394-6.807-3.194-6.031-7.398-8.398-12.607-7.123-2.854.387-3.986 3.089-3.391 8.127 1.188 5.494 1.811 8.779 1.911 9.84-2.476-6.713-4.843-11.346-7.058-13.9-3.673-4.254-8.012-5.086-13.029-2.471-2.202 1.15-2.894 4.54-2.057 10.16.797 5.177 1.881 8.394 3.269 9.63-2.897-1.646-5.763-2.807-8.614-3.462-4.402-.973-7.437-.278-9.115 2.113-2.394 3.427-.436 8.093 5.872 13.98M179.392 140.901c-.67 1.164-1.505 2.18-2.533 3.098-1.712 1.476-3.138 3.014-4.306 4.664 4.206-1.777 7.88-4.025 10.97-6.755 4.347-3.807 7.346-8.327 8.957-13.534-5.42 2.551-9.777 6.732-13.088 12.527M145.895 152.276c.151.269.226.488.262.66.026.149.066.262.14.349 1.139.084 2.824.5 5.104 1.257 4.312 1.427 7.342 2.321 9.103 2.704 3.006.645 5.799.876 8.339.702.236-1.261.494-2.545.744-3.851.709-.521 1.431-1.184 2.17-1.97l.319-.178 1.596-.842.167.911c.117.626.178.734.203.338l.483-.033c-.007-.134.186-.797.557-1.985l.283-.151c.232-.144.457-.302.648-.435.038-.341.085-.723.166-1.129.203-1.04.515-1.785.956-2.279l-.044-.344c.501-.251.984-.516 1.468-.783.657-.375 1.305-.79 1.917-1.198.928-.619 1.804-1.293 2.656-2.002 1.248-1.016 2.382-2.106 3.442-3.283 1.752-2.21 3.044-4.158 3.853-5.857.807-1.679 1.494-3.496 2.016-5.458.151-.479.292-.977.433-1.494l-63.069 11.619c.267.364.524.71.808 1.071.531.646 1.164 1.297 1.888 1.93.771.661 2.003 1.695 3.729 3.083 1.729 1.39 3.414 2.533 5.057 3.449 1.621.921 2.646 1.477 3.062 1.694l.017-.003.201.021c.197.004.333.097.422.256l.047.051.032.052c.094.083.26.149.501.165.315.019.536.137.657.369l.026.053c.056.208.173.521.33.941l.024.133c-.239.398-.392.859-.432 1.396l-.281.071zm14.374-3.981l.127.585c-.421.177-1.117.127-2.087-.126-.512-.122-1.115-.306-1.845-.525l.111-.041c.608-.011 1.314-.006 2.087.029.851.04 1.384.057 1.607.078m14.533-1.913c-.208.155-.387.328-.554.513-.994.244-2.199.74-3.577 1.486.087-.488.19-.998.29-1.527.464-2.482 1.545-3.661 3.251-3.566.66.058 1.275.316 1.816.789.561.482.9 1.049 1.018 1.695l.011.06c-.074-.301-.235-.43-.458-.368-.132.043-.24.103-.356.22-.108.14-.363.362-.731.687l-.062-.009c-.103-.002-.319-.002-.648.02M180.158 123.319c-.102-.65-.233-1.354-.39-2.111-.513-2.477-1.344-4.837-2.452-7.127l-.01-.057-.212-.512-.15-.287.023-.082-.051-.051.016-.021c-3.438-5.438-7.515-7.532-12.239-6.328-2.049.299-3.131 1.892-3.228 4.777l-.018.023c-.037 1.068.038 2.311.216 3.712 1.318 5.981 2.048 9.539 2.2 10.671-2.023-5.541-3.946-9.802-5.771-12.781l-.066.069c-.55-.843-1.099-1.585-1.646-2.212-.516-.571-1.024-1.086-1.522-1.546-1.695-1.65-3.431-2.548-5.251-2.704-2.054-.289-4.202.204-6.418 1.497-1.196.671-1.878 2.093-2.021 4.28-.275 1.287-.22 2.752.167 4.428l.256.955c.071.4.149.816.206 1.238 1.13 5.586 2.412 9.042 3.875 10.383-2.988-1.848-5.912-3.113-8.81-3.797-.622-.18-1.191-.292-1.719-.372-.098-.001-.222-.037-.346-.073-1.701-.377-3.206-.234-4.516.439-1.035.465-1.846 1.186-2.448 2.181l-.017.021c-.065.152-.161.306-.254.42l-.02.005c-1.065 1.786-.885 3.934.577 6.451.441.884.997 1.782 1.685 2.735l63.069-11.619.12-.416.078-.326-.011-.605.016-.005-.014-.624c.004-.279.04-.519.139-.717.028-2.104-.199-4.498-.665-7.144-.06-.421-.141-.856-.262-1.306-.369-1.152-.854-2.083-1.459-2.797l-.049-.049c-.523-.395-1.108-.583-1.734-.563l-.018.005-.022-.018c-1.417.103-2.236.136-2.498.105-.055-.008-.189.015-.435.062-.991.18-2.067.634-3.226 1.378l-.037.008-.041.007-.016.003-.021.004-.082.094-.037.007-.361.281c-.159.188-.321.375-.487.543l-.021.003-.061.088c-.327.457-.522.786-.605.978-.223.396-.4 1.017-.582 1.855-.238 1.264-.337 2.637-.317 4.145.023 1.509.031 2.293-.007 2.399"/><path fill="#00499C" d="M142.447 151.264l.109-.061.095.316c.169.165.447.291.835.357.344.055.552.134.614.26.094.181.136.288.121.329l-.043.087.579-.163.06.203 1.077-.316.28-.071c.04-.538.192-.997.432-1.393l-.024-.133c-.157-.426-.274-.738-.33-.943l-.026-.054c-.121-.232-.342-.351-.657-.37-.241-.015-.407-.08-.501-.161l-.032-.055-.047-.05c-.09-.16-.225-.253-.422-.255l-.201-.023-.017.003c-.416-.218-1.441-.773-3.062-1.694-1.643-.916-3.328-2.06-5.057-3.449-1.727-1.389-2.958-2.419-3.729-3.083-.724-.633-1.354-1.284-1.888-1.93-1.052-1.339-1.895-2.597-2.492-3.807-.142-.246-.283-.495-.412-.746l-3.074.567c.504 1.141 1.23 2.307 2.141 3.531.562.781 1.212 1.564 1.93 2.355v.118l.521.688.114.08-.016.023.025.034c.073.083.12.135.186.16l.025.017c4.93 4.396 8.904 7.394 11.884 8.985l.315.197.086.045c.175.104.366.187.582.285l.019.117m-11.145-10.715l-.077-.004.077.004M124.634 134.628l3.074-.566c-1.069-2.2-1.124-4.095-.165-5.704l.02-.005c.093-.117.188-.268.254-.42l.017-.023c.603-.994 1.413-1.713 2.448-2.178 1.31-.674 2.814-.814 4.516-.439.124.036.248.073.346.074.527.079 1.097.191 1.719.369 2.896.686 5.821 1.951 8.81 3.799-1.463-1.342-2.745-4.797-3.875-10.383-.057-.422-.135-.84-.204-1.238l-.258-.957c-.387-1.674-.44-3.137-.167-4.426.144-2.188.825-3.608 2.021-4.28 2.216-1.294 4.364-1.786 6.418-1.497 1.82.156 3.556 1.054 5.251 2.705.498.459 1.007.974 1.522 1.547.548.625 1.097 1.367 1.646 2.21l.066-.071c1.825 2.981 3.748 7.244 5.771 12.782-.152-1.129-.882-4.688-2.2-10.67-.178-1.403-.253-2.644-.216-3.712l.018-.024c.097-2.885 1.179-4.479 3.228-4.776 4.725-1.204 8.802.891 12.239 6.326l-.016.023.051.051-.023.082.15.287.212.51.01.057c1.108 2.292 1.939 4.654 2.452 7.133.156.755.288 1.457.39 2.107.038-.106.032-.891.009-2.398-.02-1.51.079-2.881.317-4.144.182-.841.359-1.462.582-1.856.083-.191.278-.521.605-.975l.061-.092.022-.002c.164-.167.326-.354.485-.541l.361-.283.037-.007.082-.093.021-.005.016-.003.041-.008.037-.007c1.158-.744 2.234-1.198 3.226-1.38.245-.044.38-.07.435-.059.264.027 1.081-.004 2.498-.108l.022.017.018-.006c.626-.016 1.211.172 1.734.564l.049.051c.604.714 1.09 1.645 1.459 2.795.121.451.202.887.262 1.31.372 2.149.597 4.11.653 5.908l3.04-.562c-.072-2.618-.426-5.087-1.104-7.377-.426-1.473-.989-2.705-1.704-3.713-.641-.374-1.314-.836-2.021-1.356-.491-.126-1.054-.276-1.694-.453l-.411-.12c-.857-.059-1.809-.002-2.813.203-3.317.65-5.487 1.759-6.553 3.33l-.021.003c-.028.063-.223.394-.578 1.011l-.209.371-.01-.057c-.032-.073-.077-.318-.132-.723l-.085-.454-.036-.093-.113-.393-.071-.184c-.04-.09-.078-.201-.106-.353-3.976-6.124-8.749-8.583-14.334-7.338-3.273.467-5.086 2.353-5.446 5.619-.562-.7-1.14-1.382-1.742-1.997l-.024-.014c-4.183-4.162-8.67-4.963-13.45-2.434-4.854 2.545-6.547 6.766-5.131 12.652.575 2.389 1.155 4.48 1.738 6.238-1.477-.67-3.131-1.209-4.956-1.639-4.207-.973-7.602.437-10.146 4.208-1.711 2.358-1.867 5.121-.445 8.254"/><path fill="#00499C" d="M176.643 151.58c.083.34.109.374.116.099l1.13-.268c.006-.179.192-.88.556-2.105.085-.289.152-.56.185-.818l.016-.006c.267-.146.496-.306.688-.438l.134-.007c.626-.351 1.24-.737 1.889-1.172l.948-.608c1.513-1.045 3.087-2.219 4.668-3.551 4.024-3.316 6.798-7.872 8.328-13.636.212-.762.404-1.546.562-2.302.158-.717.289-1.408.394-2.114l-.011-.075c-.025-.447.002-.826.065-1.115l-.084-.043c.014-.668.029-1.339.006-1.984l-3.04.562c.018.408.014.821.012 1.233-.099.198-.135.438-.139.717l.014.624-.016.005.009.605-.076.326c-.167.681-.368 1.307-.553 1.912-.521 1.961-1.209 3.777-2.016 5.456-.809 1.699-2.101 3.647-3.853 5.857-1.061 1.178-2.193 2.27-3.442 3.283-.853.709-1.729 1.383-2.656 2.005-.612.405-1.26.822-1.917 1.197-.483.266-.967.53-1.468.781l.044.344c-.441.493-.753 1.239-.956 2.277-.078.408-.128.79-.166 1.13-.054.561-.047 1.031.025 1.41.072.402.15.601.232.625l.102-.096.27-.11z"/><path fill="#431C05" d="M109.396 57.171c-.907-.057-1.368-.072-1.382-.072-.484 0-1.185.479-2.09 1.46-.666.699-1.552 1.79-2.642 3.267l.649.535c.901.203 2.047.388 3.451.556.979.11 1.679.275 2.105.499.219-.314.625-.76 1.199-1.332.569-.572 1.017-.979 1.312-1.217-.038-.186-.131-.74-.258-1.645-.094-.5-.149-.923-.188-1.236-.53-.409-1.251-.684-2.156-.815"/><path fill="#6B3D1B" d="M109.487 64.714c-.203 0-.409-.049-.604-.149-.125-.065-.538-.233-1.646-.358-1.47-.174-2.642-.364-3.594-.579l-.416-.115-.399-.11c-.447-.093-.839-.419-.991-.853-.149-.435-.086-.917.21-1.268l.232-.288c1.077-1.456 1.986-2.576 2.702-3.33 1.185-1.284 2.123-1.863 3.032-1.863.016 0 .503.016 1.461.075 1.225.173 2.151.53 2.869 1.079.276.211.456.525.501.872.034.294.086.69.172 1.158.133.921.222 1.45.259 1.63.092.477-.085.965-.467 1.268-.158.127-.527.441-1.197 1.117-.673.667-.949 1-1.062 1.163-.248.356-.648.551-1.062.551zm-4.183-3.406c.638.11 1.389.218 2.232.318.599.066 1.105.154 1.534.264.198-.215.431-.455.705-.727.299-.301.575-.569.824-.799l-.145-.959-.106-.636c-.312-.144-.69-.249-1.137-.313l-1.214-.059c.052.012-.319.174-1.119 1.041-.435.458-.967 1.092-1.574 1.87z"/><path fill="#B66D13" d="M152.663 32.02c-2.566.187-4.357.685-5.393 1.479-2.676.829-4.967 1.9-6.907 3.25-1.864 1.292-3.509 2.953-4.909 4.966.328 1.237.758 2.235 1.273 2.991.604.943 1.31 1.516 2.103 1.736.962.239 2.067.019 3.325-.664l1.476-.871c.575-.33 1.072-.551 1.498-.662.904-.259 2.253-.312 4.044-.184.962.074 2.326.184 4.099.332 1.478 0 2.771-1.607 3.877-4.838.593-1.866 1.016-3.232 1.295-4.137.313-1.018.629-1.866.904-2.549-2.068-.739-4.302-1.014-6.685-.849"/><path fill="#6B3D1B" d="M139.609 47.835c-.374 0-.743-.045-1.094-.131-1.146-.321-2.104-1.088-2.881-2.293-.582-.856-1.074-1.998-1.438-3.363-.098-.37-.029-.764.188-1.077 1.487-2.134 3.252-3.914 5.238-5.29 1.989-1.385 4.299-2.484 7.056-3.359 1.269-.877 3.197-1.401 5.887-1.598 2.6-.174 5.002.133 7.218.923.333.119.604.369.749.694.146.321.151.691.018 1.019-.302.745-.595 1.565-.868 2.444-.278.904-.703 2.273-1.298 4.145-.491 1.441-1.961 5.742-5.113 5.742-1.875-.15-3.239-.262-4.199-.336-1.593-.113-2.853-.07-3.589.139-.237.062-.612.201-1.204.542l-1.467.864c-1.155.626-2.219.935-3.203.935zm-2.734-5.877c.258.818.571 1.496.926 2.018.44.682.898 1.081 1.38 1.217.482.119 1.403-.038 2.354-.555l1.438-.848c.695-.399 1.288-.661 1.824-.801 1.019-.291 2.479-.366 4.471-.225.971.074 2.337.186 4.111.332.197-.003 1.284-.289 2.541-3.961.58-1.834 1.006-3.196 1.279-4.1.145-.456.29-.899.441-1.326-1.532-.383-3.173-.516-4.887-.395-2.837.207-4.119.773-4.692 1.213-.123.094-.259.164-.405.209-2.586.805-4.729 1.812-6.551 3.078-1.579 1.093-2.999 2.486-4.23 4.144z"/><path fill="#431C05" d="M152.423 34.792c-1.424-.204-2.456-.26-3.123-.168-1.089.129-1.865.203-2.322.223-1.479.074-2.698.165-3.661.277-1.788.166-2.75.517-2.877 1.031-.115.353-.021.832.275 1.407.35.718.537 1.4.553 2.064.039.612.278.979.722 1.093.519.128 1.568.459 3.14.995 1.123.353 2.362.387 3.748.129l.517.683.092.131h.314c.479-.057 1.237-.186 2.256-.426-.041-.425.071-1.772.351-4.006.218-1.939.218-3.085.015-3.433"/><path fill="#984813" d="M143.446 50.524c.239.057.448.036.645-.092.205-.111.074-.407.128-.646.056-.241.318-.37.208-.574-.131-.184-.75.569-.992.516-.237-.075-.004-.939-.207-.83-.205.112-.353.299-.407.537-.055.239-.039.48.074.684.127.202.312.331.551.405"/><path fill="#984813" d="M149.571 47.981c.239.056.265.493.47.381.202-.128.331-.312.406-.553.056-.24-.265-.365-.392-.551-.097-.202.019-.445-.22-.503-.236-.055-.459-.037-.663.075-.204.111.154.368.099.609-.071.239-.544.386-.415.592.094.202.278.349.521.403l.194-.453zM89.901 118.599c.24.056.271.51.472.38.206-.111.351-.296.41-.536.05-.238.034-.479-.076-.682-.128-.184-.295-.313-.534-.367-.241-.076-.462-.059-.667.054-.202.109-.351.296-.406.535-.054.237-.036.479.077.683.127.202.314.333.55.405l.174-.472zM95.656 116.985c.241.057.358-.199.562-.312.202-.129.437-.075.508-.316.057-.24.036-.46-.093-.645-.091-.205-.537.053-.774 0-.243-.056-.203-.445-.405-.334s-.349.295-.407.535c-.074.242-.036.462.092.666.09.203.276.352.517.406M95.524 74.234c.223.129.513-.271.649.073.09.229.406-.202.516-.422.131-.223.148-.445.073-.666-.052-.203-.183-.371-.403-.498-.224-.129-.263.286-.5.343-.222.055-.573-.233-.701-.013-.111.223-.129.443-.073.664.073.225.222.39.439.519M101.768 73.625c.223.111.444.131.648.074.241-.074.406-.221.534-.442.13-.223.146-.444.075-.666-.054-.221-.203-.387-.424-.498-.224-.129-.443-.148-.664-.094-.226.056-.391.205-.52.426-.131.221.639.219.697.458.074.221-.567.614-.346.742"/><path fill="#B66D13" d="M81.215 73.034c-.166-.055-.534-.129-1.105-.203-.575-.055-1.037-.147-1.387-.312-.462-.205-.942-.574-1.478-1.146-.59-.719-1.031-1.256-1.348-1.625-1.184-1.367-2.398-2.049-3.659-2.049-1.125 0-2.307.221-3.543.682-.277 4.543.296 8.311 1.734 11.285.886 1.864 1.643 3.415 2.293 4.652.606-.129 1.31-.238 2.086-.369 2.4-.369 4.097-.941 5.114-1.736 1.553-1.199 2.327-3.23 2.327-6.057.001-1.793-.351-2.845-1.034-3.122"/><path fill="#6B3D1B" d="M72.72 85.616c-.476 0-.921-.263-1.15-.697-.653-1.25-1.416-2.814-2.312-4.699-1.521-3.141-2.147-7.152-1.857-11.918.028-.512.359-.957.839-1.137 1.359-.508 2.705-.766 4-.766 1.647 0 3.211.841 4.643 2.498.324.379.769.921 1.37 1.652.344.363.698.646.994.779.159.073.427.156.985.209.654.084 1.106.17 1.382.26 1.937.782 1.937 3.474 1.937 4.357 0 3.248-.95 5.631-2.829 7.084-1.197.932-3.067 1.584-5.715 1.992l-.392.064c-.594.1-1.14.189-1.625.291l-.27.031zm-2.773-16.281c-.138 3.924.414 7.205 1.654 9.763.688 1.448 1.293 2.7 1.83 3.764l.758-.128.405-.068c2.184-.335 3.699-.83 4.53-1.477 1.213-.939 1.825-2.631 1.825-5.033 0-1.283-.197-1.775-.277-1.921-.161-.035-.407-.073-.73-.114-.729-.068-1.306-.207-1.774-.429-.598-.261-1.219-.733-1.873-1.431-.637-.775-1.075-1.305-1.385-1.668-.913-1.058-1.812-1.595-2.672-1.595-.734 0-1.505.111-2.291.337z"/><path fill="#431C05" d="M80.198 74.788c.352-.534.648-.997.888-1.348-.5-.793-1.183-1.717-2.05-2.752-.461-.463-.849-.886-1.162-1.236-.871-.148-1.886-.426-3.086-.812-.554-.186-1.054-.351-1.477-.517-.719.499-1.402.812-2.051.903-.519.076-.812.168-.869.277-.478.812-.46 2.014.057 3.582.463 1.387.907 2.197 1.312 2.44 1.384.792 2.623 1.292 3.713 1.476 1.091.166 2.031.481 2.841.941.17-.296.799-1.272 1.884-2.954"/><path fill="#B66D13" d="M62.767 102.118c-.035-1.348-.276-2.381-.701-3.102-.445-.721-1.072-1.09-1.903-1.09-1.327 0-2.161.498-2.489 1.515-.15.405-.225 1.329-.225 2.753 0 .572-.223 1.125-.665 1.662-.461.535-1.256 1.385-2.419 2.51-1.182 1.127-1.532 1.921-1.07 2.346.462.424 1.978.943 4.562 1.532 2.569.59 4.044-.276 4.413-2.622.349-2.346.517-4.173.497-5.504"/><path fill="#6B3D1B" d="M59.277 111.722c-.524 0-1.1-.069-1.712-.211-3.688-.842-4.673-1.404-5.15-1.842-.395-.363-.61-.856-.616-1.391-.005-.863.509-1.744 1.671-2.853 1.281-1.241 2.01-2.048 2.329-2.419.229-.278.352-.551.352-.812 0-2.102.16-2.812.301-3.198.278-.857 1.148-2.366 3.711-2.366 1.281 0 2.318.588 3.009 1.705.557.943.854 2.198.893 3.75.021 1.414-.144 3.282-.51 5.727-.4 2.525-1.915 3.91-4.278 3.91zm-4.645-3.741c.504.203 1.521.542 3.513.996.425.098.804.147 1.133.147.891 0 1.485-.286 1.707-1.706.34-2.262.502-4.041.483-5.281-.037-1.361-.306-2.092-.521-2.461-.229-.372-.472-.45-.784-.45-1.057 0-1.179.384-1.254.614-.03.086-.159.523-.159 2.354 0 .878-.326 1.717-.967 2.49-.363.424-1.151 1.296-2.515 2.615-.302.291-.504.514-.636.682z"/><path fill="#984813" d="M64.879 93.937c.24 0 .124.704.287.539.17-.168.264-.389.264-.63 0-.258-.094-.462-.264-.628-.163-.166-.77.358-1.011.358-.239 0-.06-.524-.227-.358-.165.166-.258.37-.258.628 0 .241.093.462.258.63.167.165.389.238.629.238l.322-.777zM55.103 116.099c.24 0 .443-.072.609-.24.165-.168-.339-.268-.339-.51 0-.257.504-.578.339-.747-.166-.165-.369-.239-.609-.239-.239 0-.462.074-.627.239-.164.169-.258.37-.258.63 0 .239.094.459.258.627.165.167.387.24.627.24"/><path fill="#B66D13" d="M178.827 82.896c-.238.257-.463.571-.664.94-.661 1.163-.996 2.438-.996 3.803 0 1.83.335 3.068.979 3.732.367.367.592.629.665.775.203.387.312.941.312 1.664 0 .607-.108 1.365-.312 2.232-.204.849-.314 1.496-.314 1.957 0 .85.572 1.719 1.737 2.621 1.161.889 2.251 1.332 3.284 1.332 1.535 0 4.024-.963 7.48-2.864.463-.258 1.236-.386 2.326-.407.61 0 1.644.021 3.086.057h.202c-.313-1.088-.683-2.049-1.107-2.881-.795-1.569-1.923-3.141-3.418-4.745-1.478-1.608-2.899-3.083-4.246-4.45-1.35-1.387-3.085-2.401-5.171-3.084-1.385-.442-2.656-.663-3.843-.682"/><path fill="#6B3D1B" d="M183.519 103.252c-1.332 0-2.662-.521-4.073-1.596-1.496-1.159-2.246-2.387-2.246-3.655 0-.551.113-1.27.351-2.261.183-.782.273-1.433.273-1.929 0-.695-.124-.988-.162-1.059-.055-.076-.208-.24-.435-.463-.919-.947-1.359-2.464-1.359-4.65 0-1.588.396-3.083 1.167-4.445.239-.438.528-.842.842-1.18.251-.271.643-.433.973-.418 1.318.021 2.737.273 4.217.746 2.318.758 4.236 1.904 5.708 3.413 1.627 1.655 2.989 3.079 4.271 4.479 1.573 1.688 2.76 3.339 3.62 5.037.456.898.862 1.945 1.197 3.107.113.392.033.814-.212 1.141s-.63.518-1.037.518h-.202c-1.459-.036-2.479-.055-3.086-.055-1.201.02-1.602.189-1.694.242-3.757 2.068-6.332 3.028-8.113 3.028zm-4.077-19.025l-.139.234c-.562.982-.838 2.046-.838 3.179 0 1.982.429 2.639.611 2.827.602.599.788.886.892 1.088.301.571.456 1.335.456 2.257 0 .693-.119 1.545-.346 2.527-.188.775-.281 1.332-.281 1.662 0 .406.448.988 1.231 1.595.92.7 1.76 1.06 2.489 1.06.888 0 2.797-.469 6.854-2.702.648-.363 1.581-.545 2.932-.567.419.001.854.006 1.478.019-.137-.339-.282-.657-.433-.954-.752-1.483-1.8-2.938-3.211-4.451-1.271-1.385-2.609-2.788-4.224-4.426-1.176-1.209-2.739-2.136-4.649-2.759-.986-.319-1.934-.516-2.822-.589z"/><path fill="#431C05" d="M189.172 89.063l-.28.241c-1.789 1.495-3.305 2.567-4.577 3.21-.422.243-.686.408-.813.52-.165.166-.259.388-.259.646 0 1.846.759 3.008 2.293 3.49.627.202 2.047.295 4.282.295.222 0 .427-.129.61-.405.701-1.053 1.07-1.607 1.089-1.646.906-1.236 1.401-2.122 1.496-2.657.055-.537.167-.944.312-1.22.165-.277-.166-.794-.96-1.533-.812-.736-1.886-1.052-3.193-.941"/><path fill="#B66D13" d="M111.5 118.352c-.295.498-.684.886-1.18 1.181-.574.297-.981.519-1.241.666-.867.497-1.307 1.439-1.307 2.79 0 .901.312 1.884.922 2.898 1.035 1.7 1.825 3.231 2.362 4.579.13.312.351.867.629 1.641 2.787-.736 5.148-2.271 7.09-4.613 2.051-2.459 3.546-6.094 4.506-10.896.295-1.497.518-2.883.686-4.155-.704-.184-1.532-.406-2.479-.684-2.454-.72-3.911-1.088-4.373-1.088-1.366 0-2.423.812-3.178 2.437-.237.498-.57 1.311-1.033 2.473-.461 1.089-.926 2.012-1.404 2.771"/><path fill="#6B3D1B" d="M111.686 133.407c-.536 0-1.028-.333-1.221-.859-.271-.748-.482-1.281-.608-1.581-.512-1.288-1.273-2.762-2.271-4.407-.736-1.228-1.113-2.428-1.113-3.571 0-2.308 1.068-3.403 1.962-3.916.278-.157.695-.388 1.288-.693.245-.147.477-.378.66-.692.449-.707.89-1.578 1.327-2.612.465-1.174.809-2.015 1.059-2.528 1.216-2.622 3.034-3.174 4.347-3.174.41 0 1.147.087 4.74 1.14.932.274 1.747.491 2.442.675.63.165 1.041.775.956 1.425-.178 1.367-.412 2.794-.698 4.237-1.002 5.013-2.608 8.873-4.782 11.475-2.098 2.538-4.708 4.232-7.752 5.04-.114.025-.226.041-.336.041zm5.416-21.437c-.321 0-1.201 0-1.987 1.685-.237.497-.557 1.284-1 2.406-.515 1.206-1.006 2.174-1.517 2.982-.386.653-.935 1.204-1.615 1.606-.617.323-1.011.537-1.263.68-.153.089-.649.371-.649 1.659 0 .664.248 1.415.738 2.228 1.071 1.764 1.897 3.369 2.454 4.771l.208.514c2.053-.753 3.799-2.014 5.305-3.835 1.894-2.271 3.318-5.74 4.229-10.322.199-.994.369-1.98.516-2.943-.433-.117-.9-.248-1.396-.395-3.11-.911-3.85-1.028-4.023-1.036z"/><path fill="#431C05" d="M118.793 119.903c-.441-.277-1.163-.5-2.139-.664-2.496 2.749-3.971 4.376-4.396 4.835-.631.684-.905 1.144-.851 1.423.242 1.09 1.036 2.125 2.383 3.121.683.5 1.348.885 1.992 1.182 2.977-1.94 4.583-3.047 4.857-3.359.132-.166.223-.481.261-.943.055-.646-.038-1.402-.244-2.308-.363-1.645-.992-2.734-1.863-3.287"/><path fill="#B66D13" d="M138.389 93.401c-.076.444-.131.906-.148 1.404 1.017.5 2.053.979 3.139 1.477 1.828.832 3.656 1.405 5.485 1.719s3.563.424 5.17.295c1.608-.127 3.321-.35 5.19-.701.887-.166 1.903-.369 3.026-.609.428-1.127.631-1.883.631-2.289 0-1.145-.186-1.846-.572-2.087-.761-.277-1.535-.665-2.293-1.2-.792-.555-1.659-1.33-2.568-2.344-.57-.631-1.143-.943-1.733-.943-.426 0-1.144.628-2.161 1.865-1.017 1.235-1.92 1.846-2.677 1.846-.314 0-1.073.037-2.271.111-1.184.073-2.069.111-2.679.111-.167 0-.646-.075-1.42-.223-.758-.129-1.24-.203-1.426-.203-.94 0-1.825.592-2.693 1.771"/><path fill="#6B3D1B" d="M150.687 99.648c-1.269 0-2.62-.123-4.042-.367-1.925-.329-3.877-.939-5.803-1.814-1.104-.506-2.148-.991-3.174-1.493-.643-.316-.91-1.096-.595-1.739l.157-.245c-.215-.422-.19-.949.11-1.356 1.124-1.528 2.382-2.302 3.741-2.302.263 0 .647.051 1.641.221.651.124 1.055.193 1.229.205.568 0 1.427-.037 2.574-.109 1.237-.076 2.025-.114 2.351-.114.188 0 .783-.286 1.675-1.37 1.381-1.684 2.271-2.34 3.163-2.34.963 0 1.871.459 2.696 1.367.812.906 1.598 1.627 2.351 2.154.61.434 1.28.784 1.994 1.046l.236.114c1.064.66 1.189 2.137 1.189 3.191 0 .373-.076 1.064-.714 2.75-.156.412-.513.715-.943.81-1.137.243-2.165.448-3.063.616-1.818.343-3.56.578-5.321.719-.469.038-.954.056-1.452.056zm-11.125-5.645c.768.367 1.547.729 2.358 1.101 1.721.78 3.458 1.325 5.161 1.616 1.766.306 3.399.4 4.849.283 1.669-.135 3.321-.357 5.053-.686.688-.127 1.457-.279 2.294-.453.298-.879.304-1.155.304-1.168 0-.549-.047-.852-.085-1.008-.793-.324-1.542-.731-2.228-1.219-.913-.637-1.853-1.493-2.786-2.54-.14-.151-.391-.399-.624-.481-.175.131-.572.478-1.301 1.364-1.279 1.562-2.484 2.318-3.681 2.318-.303 0-1.034.038-2.188.11-1.221.075-2.131.113-2.761.113-.199 0-.536-.029-1.669-.246-.592-.102-1.005-.172-1.192-.18-.532.002-1.093.552-1.504 1.076z"/><path fill="#431C05" d="M149.265 98.998c-.055-.462.092-1.071.44-1.81.282-.609.485-1.035.574-1.273-.72-.26-1.347-.481-1.882-.683l-.646-.26-.201-.074c-.797.018-2.644.204-5.579.572-.056 1.015-.092 1.607-.073 1.773l-.112.167c.388.387 1.422.758 3.063 1.106 1.646.354 3.124.519 4.416.482"/><path fill="#4F2006" d="M187.094 53.288c-.446 0-.859-.268-1.017-.718l-.02-.054c-.204-.577.1-1.21.679-1.412.577-.206 1.208.1 1.409.678.205.576-.089 1.236-.665 1.439-.126.046-.259.067-.386.067z"/><path fill="#B66D13" d="M194.248 58.853c-.518-1.348-1.127-2.438-1.809-3.25-.684-.794-1.606-1.588-2.806-2.346-1.203-.757-2.328-1.458-3.382-2.106-1.088-.646-2.396-1.052-3.949-1.234-1.533-.169-2.86-.095-3.988.22-1.719-.02-3.42.019-5.103.109-1.677.076-3.337.464-5.001 1.146-1.681.701-2.753 1.384-3.216 2.049-1.585 1.054-2.86 2.162-3.801 3.324-1.715 2.068-2.549 4.598-2.514 7.572.019 2.992.741 5.336 2.129 7.055 1.402 1.717 2.416 2.898 3.063 3.563.645.647 1.585 1.145 2.824 1.46 1.235.35 2.549.664 3.934.939 1.363.295 2.714.443 4.044.463 1.349-.02 2.584-.129 3.732-.332 1.124-.224 2.323-.517 3.636-.888 1.309-.387 3.011-.904 5.114-1.569 2.085-.665 3.769-1.791 5.039-3.38 1.275-1.571 2.072-3.767 2.385-6.556.299-2.787.188-4.872-.331-6.239"/><path fill="#6B3D1B" d="M174.675 79.079h-.017c-1.467-.02-2.881-.181-4.319-.49-1.293-.258-2.61-.566-4-.939-1.437-.391-2.573-1-3.387-1.813-.706-.725-1.79-1.971-3.148-3.619-1.602-1.958-2.421-4.612-2.438-7.891-.023-3.292.93-6.123 2.832-8.41.979-1.214 2.29-2.38 3.889-3.458.649-.775 1.807-1.504 3.61-2.277 1.803-.77 3.644-1.189 5.473-1.25 1.518-.084 3.155-.129 4.973-.131 1.246-.314 2.676-.389 4.298-.213 1.781.235 3.23.701 4.458 1.428 1.088.659 2.222 1.365 3.415 2.129 1.25.791 2.292 1.664 3.094 2.593.784.932 1.452 2.122 2.049 3.642.584 1.578.72 3.803.414 6.826-.359 3.038-1.252 5.463-2.656 7.234-1.428 1.783-3.338 3.063-5.679 3.809-2.104.672-3.816 1.191-5.139 1.566-1.267.373-2.534.687-3.761.928-1.268.223-2.592.336-3.961.336zm6.108-27.989c-.789 0-1.502.088-2.122.262-.113.03-.229.046-.347.046-1.84 0-3.482.042-5.027.129-1.539.051-3.063.401-4.566 1.042-1.997.855-2.537 1.409-2.683 1.606-.089.131-.207.243-.341.332-1.455.963-2.631 1.992-3.492 3.056-1.529 1.843-2.257 4.046-2.24 6.749.014 2.67.634 4.774 1.847 6.258 1.654 2.007 2.54 2.98 2.992 3.441.475.479 1.225.862 2.213 1.131 1.331.357 2.591.652 3.851.903 1.286.278 2.53.419 3.816.437 1.213 0 2.38-.099 3.478-.293 1.12-.221 2.311-.516 3.514-.873 1.314-.371 3-.882 5.069-1.543 1.848-.588 3.339-1.582 4.442-2.953 1.093-1.383 1.802-3.369 2.104-5.897.315-3.194.034-4.821-.263-5.62-.473-1.211-1.017-2.188-1.601-2.881-.62-.725-1.47-1.43-2.506-2.085-1.182-.755-2.298-1.449-3.359-2.092-.911-.538-2.037-.893-3.431-1.079-.452-.049-.912-.076-1.348-.076z"/><path fill="#431C05" d="M185.919 54.536l-.207.188c-1.161.977-2.156 1.715-3.009 2.213-.276.168-.462.297-.533.371-.112.109-.165.24-.148.369.148 1.053.79 1.645 1.919 1.771.46.058 1.479-.037 3.066-.238.163-.018.293-.11.426-.277.423-.684.645-1.016.663-1.035.535-.793.812-1.347.833-1.625.017-.314.056-.572.127-.738.092-.165-.166-.426-.794-.756-.643-.352-1.442-.426-2.343-.243M177.572 64.78l.5.241c.684.017 1.514.017 2.513-.021.717-.017 1.235 0 1.548.074.131-.186.391-.46.74-.85.369-.369.667-.646.868-.811-.055-.092-.168-.389-.333-.887l-.222-.684c-.405-.188-.94-.26-1.627-.242l-.975.076c-.351.055-.812.387-1.386 1.016-.404.463-.938 1.164-1.626 2.088M169.938 54.403c-.978.405-1.771.736-2.382 1.016-1.161.534-1.715.941-1.678 1.236.034.203.221.426.572.663.427.296.719.61.924.942.167.314.424.443.737.389.387-.056 1.183-.131 2.382-.239.851-.094 1.7-.353 2.546-.796l.518.223.094.057.242-.092c.296-.132.757-.371 1.385-.759-.149-.203-.426-.905-.813-2.144-.352-1.052-.648-1.662-.869-1.807-1.015.236-1.716.46-2.139.662-.687.333-1.205.556-1.519.649M168.103 66.351c-.463-.036-.851-.074-1.185-.129-.574.258-1.274.514-2.121.756-.39.129-.758.239-1.09.332-.203.482-.481.869-.796 1.146-.276.2-.423.35-.405.424.054.535.591 1.034 1.567 1.533.868.46 1.479.665 1.812.609 1.126-.149 2.047-.389 2.768-.701.701-.315 1.387-.52 2.05-.609-.038-.205-.092-.87-.165-1.996-.016-.369-.038-.664-.056-.904-.629-.167-1.421-.333-2.379-.461"/><path fill="#7A4428" d="M174.916 75.989c-.572.074-1.885.35-3.952.83.036.572.071.905.091.998l-.073.094c.312.202 1.07.313 2.272.35 1.217.035 2.288-.02 3.213-.147-.075-.26-.021-.608.183-1.052l.297-.779c-.534-.091-1.016-.164-1.404-.219l-.478-.056-.149-.019"/><path fill="#431C05" d="M188.253 70.061c-.019-.349-.128-.776-.332-1.275-.403-.885-.94-1.438-1.588-1.66-.351-.13-.888-.186-1.603-.166-1.572 1.772-2.498 2.808-2.773 3.12-.388.443-.553.74-.498.904.257.572.905 1.07 1.938 1.516.535.203 1.037.37 1.533.462 1.977-1.349 3.046-2.142 3.215-2.345.089-.095.127-.28.108-.556"/><path fill="#984813" d="M179.695 53.2c.132-.146.185-.312.167-.496-.017-.188-.127-.334-.291-.426-.169-.113-.372-.148-.612-.113-.241.021-.425.113-.552.26-.147.148-.206.314-.187.498.017.188.127.334.313.426.165.092.369.129.61.111.239-.037.428-.131.552-.26M189.594 63.617c.131-.148.184-.316.169-.501-.021-.184-.129-.33-.295-.422-.168-.113-.37-.149-.61-.113-.242.02-.427.113-.557.262-.146.146-.201.312-.182.497.017.185.129.333.312.426.169.091.37.128.61.108.242-.035.427-.129.553-.257M169.189 74.752c.129-.149.184-.313.165-.498-.015-.185-.127-.334-.294-.427-.167-.111-.371-.146-.61-.111-.239.021-.426.111-.556.261-.143.146-.199.312-.183.498.021.185.132.333.312.427.166.092.371.127.611.108.243-.036.427-.129.555-.258M173.916 72.905c.13-.148.187-.314.169-.499-.021-.185-.128-.333-.297-.425-.165-.112-.367-.147-.608-.112-.242.021-.426.112-.555.262-.15.146-.201.311-.184.497.017.185.126.334.312.426.165.092.369.128.611.108.24-.036.424-.128.552-.257M164.352 62.694c.131-.149.183-.314.166-.501-.019-.186-.127-.333-.293-.425-.168-.109-.372-.146-.611-.109-.241.02-.427.109-.553.258-.149.148-.206.314-.185.498.019.186.129.334.311.428.169.09.374.125.61.108.242-.037.428-.13.555-.257M168.968 60.145c.13-.147.185-.313.164-.497-.017-.186-.127-.334-.293-.426-.166-.111-.369-.148-.608-.111-.242.02-.425.111-.557.26-.144.146-.204.312-.184.498.019.184.129.332.315.425.164.091.369.129.609.11.239-.036.425-.132.554-.259M171.925 63.524c.127-.148.182-.313.165-.498-.021-.187-.13-.332-.296-.426-.165-.109-.369-.146-.611-.109-.237.017-.425.109-.552.257-.148.147-.201.314-.187.499.02.184.132.332.313.425.168.093.371.129.61.11.243-.036.427-.129.558-.258"/><path fill="#4F2006" d="M136.995 65.069c-.462 0-.883-.283-1.029-.75l-.021-.055c-.18-.584.14-1.207.727-1.391.589-.182 1.205.141 1.389.723.185.583-.129 1.234-.716 1.42-.114.035-.232.053-.35.053z"/><path fill="#B66D13" d="M144.778 68.548c-.759-1.127-1.516-1.977-2.291-2.566-.758-.592-1.756-1.107-2.988-1.553-1.221-.461-2.386-.867-3.476-1.219-1.105-.35-2.383-.461-3.804-.313-1.423.129-2.604.462-3.544.978-1.535.352-3.064.723-4.562 1.128-1.496.406-2.938 1.087-4.302 2.05-1.349.979-2.182 1.79-2.492 2.475-1.203 1.272-2.128 2.529-2.733 3.765-1.129 2.219-1.387 4.675-.738 7.351.607 2.68 1.735 4.636 3.339 5.909 1.589 1.257 2.735 2.126 3.453 2.587.721.462 1.664.721 2.828.775 1.181.036 2.418.055 3.729.036 1.314-.019 2.569-.147 3.769-.404 1.199-.277 2.289-.61 3.27-1.035.979-.425 2.032-.942 3.122-1.532 1.089-.611 2.507-1.423 4.26-2.438 1.758-1.017 3.049-2.364 3.882-4.046.831-1.681 1.108-3.82.831-6.39-.277-2.585-.798-4.433-1.553-5.558"/><path fill="#6B3D1B" d="M126.153 91.237c-.949 0-1.866-.018-2.727-.045-1.414-.068-2.58-.397-3.489-.981-.74-.473-1.908-1.343-3.574-2.659-1.829-1.451-3.104-3.688-3.801-6.648-.696-2.975-.406-5.74.865-8.223.618-1.254 1.564-2.575 2.81-3.918.445-.848 1.359-1.742 2.844-2.791 1.462-1.042 3.039-1.798 4.674-2.241 1.342-.38 2.804-.743 4.448-1.106 1.062-.544 2.359-.898 3.865-1.057 1.638-.166 3.095-.033 4.354.395 1.087.352 2.273.765 3.515 1.234 1.342.48 2.47 1.068 3.332 1.742.892.68 1.768 1.648 2.584 2.865.878 1.332 1.446 3.333 1.745 6.126.304 2.814-.017 5.205-.956 7.104-.938 1.901-2.406 3.45-4.364 4.605-1.772 1.027-3.195 1.843-4.29 2.454-1.284.682-2.303 1.184-3.234 1.59-.999.43-2.146.793-3.517 1.108-1.261.273-2.609.42-4.025.438l-1.059.008zm7.245-27.141c-.343 0-.696.02-1.063.058-1.241.127-2.271.411-3.056.841-.108.061-.227.104-.346.132-1.667.361-3.132.725-4.484 1.107-1.352.367-2.648.99-3.864 1.857-1.609 1.136-1.986 1.73-2.075 1.934-.06.137-.144.264-.248.375-1.131 1.203-1.978 2.362-2.514 3.447-.99 1.938-1.208 4.107-.658 6.463.562 2.377 1.531 4.13 2.887 5.207 1.57 1.241 2.706 2.086 3.363 2.508.522.335 1.26.527 2.19.573.813.025 1.7.041 2.623.041l1.024-.006c1.242-.018 2.415-.144 3.49-.377 1.202-.276 2.204-.591 3.051-.957.865-.377 1.827-.85 3.025-1.489 1.062-.591 2.475-1.4 4.225-2.412 1.525-.903 2.625-2.053 3.344-3.515.717-1.45.954-3.359.703-5.676-.312-2.914-.894-4.308-1.325-4.965-.65-.971-1.331-1.731-2.009-2.249-.655-.511-1.538-.965-2.642-1.359-1.222-.461-2.365-.861-3.433-1.205-.656-.224-1.392-.333-2.208-.333z"/><path fill="#431C05" d="M135.373 65.763l-.148.166c-.848 1.127-1.606 2.014-2.271 2.622-.22.222-.368.37-.423.442-.057.129-.076.242-.036.37.35.905 1.033 1.312 2.066 1.201.426-.054 1.347-.333 2.733-.832.131-.054.242-.165.312-.351.242-.682.369-1.034.39-1.053.331-.83.479-1.366.424-1.626-.056-.294-.072-.534-.015-.701.051-.165-.243-.331-.892-.535-.644-.165-1.346-.055-2.14.297M131.998 75.01c-.28.499-.626 1.237-1.052 2.216l.516.111c.611-.111 1.349-.275 2.234-.518.648-.166 1.128-.239 1.421-.239.075-.204.24-.497.5-.921.256-.428.464-.723.61-.889l-.481-.757-.332-.574c-.406-.071-.904-.034-1.513.112l-.87.258c-.293.112-.643.519-1.033 1.201M120.721 69.931l-1.936 1.365c-.927.723-1.331 1.203-1.239 1.461.057.184.26.352.606.498.43.165.778.389 1.038.665.221.241.462.296.737.203.332-.128 1.035-.351 2.106-.685.737-.257 1.458-.682 2.139-1.272.17.056.353.093.52.11l.094.039.184-.113c.239-.203.609-.515 1.106-.979-.183-.166-.57-.758-1.162-1.771-.532-.868-.923-1.35-1.147-1.441-.866.425-1.458.756-1.808 1.016-.557.425-.96.738-1.238.904M122.747 80.531l-1.111.147c-.46.334-1.051.703-1.77 1.109-.329.185-.627.35-.906.498-.094.481-.256.867-.497 1.183-.204.259-.28.424-.258.479.165.463.737.832 1.717 1.093.867.203 1.461.257 1.753.164.978-.37 1.774-.758 2.348-1.18.57-.427 1.16-.758 1.731-.979l-.55-1.756-.241-.83c-.593-.021-1.331.017-2.216.072M144.05 78.276c-.09-.332-.296-.684-.571-1.07-.533-.721-1.128-1.127-1.771-1.199-.314-.038-.812.018-1.46.164-1.053 1.922-1.658 3.049-1.865 3.381-.259.48-.352.774-.259.905.353.463 1.015.792 2.034.96.517.112 1.014.148 1.476.129 1.511-1.625 2.327-2.549 2.417-2.77.056-.092.056-.259-.001-.5"/><path fill="#984813" d="M130.522 66.313c.09-.166.111-.315.053-.48-.053-.166-.184-.277-.35-.334-.165-.054-.352-.035-.555.039-.202.073-.347.184-.461.332-.094.164-.108.312-.058.479.058.167.188.279.354.333.203.057.388.057.59-.019.204-.073.351-.185.427-.35M141.508 73.772c.093-.165.108-.313.055-.479-.055-.166-.184-.279-.347-.333-.17-.056-.353-.038-.557.036-.202.074-.351.185-.46.334-.095.164-.111.312-.058.479.058.169.183.279.354.334.201.055.385.055.587-.021.206-.07.354-.184.426-.35M125.37 87.862c.093-.165.111-.313.055-.478-.055-.169-.186-.278-.35-.335-.165-.055-.354-.037-.558.037-.2.074-.348.185-.461.334-.09.164-.11.312-.056.479.056.166.183.277.351.334.206.055.391.055.591-.02.207-.073.354-.185.428-.351M129.246 85.277c.094-.165.11-.313.056-.479-.056-.167-.186-.28-.352-.335-.165-.055-.349-.035-.553.039s-.349.184-.463.332c-.09.165-.11.314-.052.479.052.167.184.28.349.335.204.056.388.056.592-.021.202-.071.348-.184.423-.35M118.573 77.966c.095-.168.109-.314.054-.48-.054-.166-.181-.278-.35-.333-.167-.056-.352-.038-.555.036-.201.076-.351.184-.463.334-.09.164-.109.312-.053.479.053.169.186.279.349.334.206.055.392.055.595-.02.202-.075.347-.184.423-.35M122.229 74.771c.092-.168.11-.314.056-.479-.056-.168-.185-.278-.351-.334-.166-.057-.353-.038-.552.036-.207.075-.355.187-.463.334-.094.165-.109.313-.058.479.058.167.185.278.353.333.203.058.389.058.591-.02.202-.071.349-.183.424-.349M125.569 77.207c.099-.165.114-.313.059-.479-.059-.167-.187-.278-.352-.333-.165-.057-.352-.035-.555.037-.202.074-.352.184-.462.332-.09.167-.108.314-.054.48.054.165.185.277.352.332.202.057.385.057.592-.02.199-.071.348-.184.42-.349"/></g></svg>