<?xml version="1.0" encoding="utf-8"?>
<!-- Generator: Adobe Illustrator 16.2.1, SVG Export Plug-In . SVG Version: 6.00 Build 0)  -->
<!DOCTYPE svg PUBLIC "-//W3C//DTD SVG 1.1//EN" "http://www.w3.org/Graphics/SVG/1.1/DTD/svg11.dtd">
<svg version="1.1" xmlns="http://www.w3.org/2000/svg" xmlns:xlink="http://www.w3.org/1999/xlink" x="0px" y="0px"
	 width="585.427px" height="238.98px" viewBox="0 0 585.427 238.98" enable-background="new 0 0 585.427 238.98"
	 xml:space="preserve">
<g id="base">
</g>
<g id="book3">
</g>
<g id="_x38_" display="none">
</g>
<g id="_x37_" display="none">
</g>
<g id="_x36_" display="none">
</g>
<g id="_x35_" display="none">
</g>
<g id="_x34_" display="none">
</g>
<g id="_x33_" display="none">
</g>
<g id="_x32_" display="none">
</g>
<g id="_x31_" display="none">
	<g display="inline">
		<defs>
			<path id="SVGID_15_" d="M1524.293-156.299c0,5.5-4.5,10-10,10H236.348c-5.5,0-10-4.5-10-10v-27.558v-841.881c0-5.5,4.5-10,10-10
				h1277.945c5.5,0,10,4.5,10,10v839.881V-156.299z"/>
		</defs>
		<clipPath id="SVGID_2_">
			<use xlink:href="#SVGID_15_"  overflow="visible"/>
		</clipPath>
		<g clip-path="url(#SVGID_2_)">
			<g>
				<g>
					<g>
					</g>
				</g>
			</g>
		</g>
	</g>
</g>
<g id="_x30_">
	<g>
		<path fill="#FFD800" d="M532.198,77.164L387.63,77.153c-4.878-32.852-33.124-58.133-67.365-58.133
			c-34.229,0-62.475,25.281-67.339,58.133l-144.581,0.011c-12.278,0-22.274,10.021-22.274,22.308v79.299
			c0,12.281,9.996,22.305,22.274,22.305h423.854c12.291,0,22.294-10.023,22.294-22.305V99.472
			C554.492,87.185,544.489,77.164,532.198,77.164z"/>
		<path fill="#009E41" d="M530.87,91.159H109.672c-5.278,0-9.576,4.309-9.576,9.594v76.75c0,5.283,4.298,9.551,9.576,9.551H530.87
			c5.271,0,9.582-4.268,9.582-9.551v-76.75C540.452,95.468,536.142,91.159,530.87,91.159z"/>
		<path fill="#FFFFFF" d="M130.751,172.729c-9.319,0-13.503-6.505-14.43-17.578l9.957-1.771c0.731,7.915,2.149,9.861,4.473,9.861
			c2.605,0,3.718-1.687,3.718-5.866c0-6.24-1.943-9.148-7.816-15.655c-6.614-6.694-9.875-12.838-9.875-20.297
			c0-9.128,4.476-15.933,13.407-15.933c9.128,0,12.751,6.169,13.96,15.762l-9.766,2.039c-0.749-6.398-1.854-8.361-4.194-8.361
			c-2.228,0-3.354,1.585-3.354,5.66c0,4.578,1.597,7.276,6.717,12.781c7.528,7.617,11.08,14.135,11.08,23.07
			C144.628,166.046,139.604,172.729,130.751,172.729z"/>
		<path fill="#FFFFFF" d="M150.299,171.717v-65.199h24.388v9.71h-13.971v16.284h10.716v9.683h-10.716v19.829h14.815v9.693H150.299z"
			/>
		<path fill="#FFFFFF" d="M193.5,172.729c-9.31,0-13.497-6.505-14.451-17.578l9.978-1.771c0.776,7.915,2.152,9.861,4.474,9.861
			c2.611,0,3.718-1.687,3.718-5.866c0-6.24-1.943-9.148-7.811-15.655c-6.631-6.694-9.875-12.838-9.875-20.297
			c0-9.128,4.466-15.933,13.395-15.933c9.138,0,12.769,6.169,13.981,15.762l-9.772,2.039c-0.759-6.398-1.861-8.361-4.209-8.361
			c-2.231,0-3.331,1.585-3.331,5.66c0,4.578,1.583,7.276,6.699,12.781c7.545,7.617,11.076,14.135,11.076,23.07
			C207.371,166.046,202.324,172.729,193.5,172.729z"/>
		<path fill="#FFFFFF" d="M228.704,147.995h-5.785l1.401-11.852c0.56-4.656,1.204-10.047,1.396-15.173
			c0.278,5.126,0.934,10.425,1.487,15.083L228.704,147.995z M241.911,171.717l-10.324-65.199h-11.169l-10.333,65.199h10.333
			l1.677-14.341h7.625l1.781,14.341H241.911z"/>
		<path fill="#FFFFFF" d="M274.32,171.717v-17.035c0-7.909,0.271-15.46,0.463-22.17c-0.934,5.142-2.965,14.827-4.65,21.415
			l-4.658,19.75l-4.567-19.75c-1.583-6.316-3.614-16.482-4.541-21.415c0.089,6.16,0.448,14.54,0.448,22.17v17.035h-9.312v-65.199
			h10.246l4.273,19.846c1.4,5.897,2.886,13.407,3.452,18.71c0.553-5.303,2.136-12.912,3.532-18.782l4.387-19.773h10.236v65.199
			H274.32z"/>
		<path fill="#FFFFFF" d="M292.091,171.717v-65.199h24.407v9.71h-13.959v16.284h10.702v9.683h-10.702v19.829h14.78v9.693H292.091z"
			/>
		<path fill="#FFFFFF" d="M352.711,172.729c-9.312,0-13.504-6.505-14.431-17.578l9.959-1.771c0.74,7.915,2.154,9.861,4.472,9.861
			c2.612,0,3.719-1.687,3.719-5.866c0-6.24-1.938-9.148-7.81-15.655c-6.621-6.694-9.89-12.838-9.89-20.297
			c0-9.128,4.489-15.933,13.445-15.933c9.103,0,12.731,6.169,13.937,15.762l-9.766,2.039c-0.766-6.398-1.855-8.361-4.171-8.361
			c-2.262,0-3.364,1.585-3.364,5.66c0,4.578,1.582,7.276,6.717,12.781c7.524,7.617,11.057,14.135,11.057,23.07
			C366.585,166.046,361.573,172.729,352.711,172.729z"/>
		<path fill="#FFFFFF" d="M387.534,116.228v55.489h-10.428v-55.489h-8.75v-9.71h28.029v9.71H387.534z"/>
		<path fill="#FFFFFF" d="M419.277,124.963c0,6.903-1.771,9.512-5.304,9.512h-2.143v-19.092h2.424
			C417.897,115.383,419.277,117.813,419.277,124.963z M430.449,171.717l-6.426-31.647c3.642-2.91,5.788-8.025,5.788-15.549
			c0-13.612-6.605-18.003-14.698-18.003h-13.605v65.199h10.323v-28.675h2.612l5.403,28.675H430.449z"/>
		<path fill="#FFFFFF" d="M437.339,171.717v-65.199h24.404v9.71H447.76v16.284h10.712v9.683H447.76v19.829h14.811v9.693H437.339z"/>
		<path fill="#FFFFFF" d="M469.284,171.717v-65.199h24.385v9.71h-13.96v16.284h10.699v9.683h-10.699v19.829h14.79v9.693H469.284z"/>
		<path fill="#FFFFFF" d="M516.855,116.228v55.489h-10.414v-55.489h-8.771v-9.71h28.035v9.71H516.855z"/>
		<path fill="#FFFFFF" d="M535.273,177.474c0,2.502-1.909,4.416-4.438,4.416c-2.51,0-4.432-1.914-4.432-4.416
			c0-2.537,1.922-4.453,4.432-4.453C533.364,173.021,535.273,174.937,535.273,177.474z M536.225,177.474
			c0-3.076-2.32-5.432-5.389-5.432c-3.056,0-5.39,2.355-5.39,5.432c0,3.044,2.334,5.395,5.39,5.395
			C533.904,182.868,536.225,180.518,536.225,177.474z M533.413,176.261c0-1.256-0.899-1.856-2.024-1.856h-2.733v5.907h1.246v-2.156
			h1.023l1.043,2.156h1.404l-1.15-2.324C532.867,177.733,533.413,177.284,533.413,176.261z M532.146,176.289
			c0,0.505-0.306,0.775-0.828,0.775h-1.417v-1.514h1.417C531.81,175.551,532.146,175.771,532.146,176.289z"/>
		<path fill="#009E41" d="M370.681,73.101c-4.25-22.459-26.368-40.054-50.416-40.054c-24.038,0-46.216,17.595-50.431,40.054
			c-0.034,3.35,2.574,4.053,3.56,4.053h93.652c1.006,0,3.655-0.703,3.655-3.909v-0.089L370.681,73.101z"/>
		<g>
			<path fill="#FFFFFF" stroke="#FFFFFF" stroke-width="0.2636" d="M300.009,68.714V52.231h-3v-2.469
				c2.196-0.24,3.13-1.555,3.581-3.184h3.383v22.135H300.009z"/>
			<path fill="#FFFFFF" stroke="#FFFFFF" stroke-width="0.2636" d="M311.646,68.714c0.235-6.764,2.337-9.582,6.538-12.584
				c1.52-1.108,2.09-2.029,2.09-3.381c0-1.743-0.903-2.562-2.533-2.562c-1.391,0-2.495,0.774-3.552,1.982l-2.455-2.887
				c1.473-1.854,3.453-3.066,6.154-3.066c3.821,0,6.398,2.123,6.398,5.987c0,3.069-1.527,4.954-3.646,6.549
				c-3,2.235-4.359,3.735-4.506,6.083h8.212v3.879H311.646z"/>
			<path fill="#FFFFFF" stroke="#FFFFFF" stroke-width="0.2636" d="M336.346,69.063c-2.987,0-5.07-1.263-6.813-4.039l3.13-2.225
				c1.205,1.721,2.311,2.382,3.794,2.382c1.918,0,2.965-1.226,2.965-3.012c0-2.254-1.473-3.186-3.511-3.186h-1.528v-3.847h1.562
				c1.822,0,2.87-0.811,2.87-2.4c0-1.447-0.69-2.586-2.605-2.586c-1.192,0-2.046,0.49-3.203,1.639l-2.671-2.688
				c1.608-1.795,3.158-2.887,6.122-2.887c3.857,0,6.343,2.389,6.343,6.043c0,2.498-1.28,3.909-3.113,4.59
				c1.943,0.545,3.762,2.136,3.762,5.225C343.447,66.411,340.79,69.063,336.346,69.063z"/>
		</g>
	</g>
</g>
<g id="guide" display="none">
</g>
</svg>
