<svg xmlns="http://www.w3.org/2000/svg" width="585.427" height="238.98" viewBox="0 0 585.427 238.98"><g><path fill="#FFD800" d="M532.198 77.164l-144.568-.011c-4.878-32.852-33.124-58.133-67.365-58.133-34.229 0-62.475 25.281-67.339 58.133l-144.581.011c-12.278 0-22.274 10.021-22.274 22.308v79.299c0 12.281 9.996 22.305 22.274 22.305h423.854c12.291 0 22.294-10.023 22.294-22.305v-79.299c-.001-12.287-10.004-22.308-22.295-22.308z"/><path fill="#009E41" d="M530.87 91.159h-421.198c-5.278 0-9.576 4.309-9.576 9.594v76.75c0 5.283 4.298 9.551 9.576 9.551h421.198c5.271 0 9.582-4.268 9.582-9.551v-76.75c0-5.285-4.31-9.594-9.582-9.594z"/><path fill="#fff" d="M130.751 172.729c-9.319 0-13.503-6.505-14.43-17.578l9.957-1.771c.731 7.915 2.149 9.861 4.473 9.861 2.605 0 3.718-1.687 3.718-5.866 0-6.24-1.943-9.148-7.816-15.655-6.614-6.694-9.875-12.838-9.875-20.297 0-9.128 4.476-15.933 13.407-15.933 9.128 0 12.751 6.169 13.96 15.762l-9.766 2.039c-.749-6.398-1.854-8.361-4.194-8.361-2.228 0-3.354 1.585-3.354 5.66 0 4.578 1.597 7.276 6.717 12.781 7.528 7.617 11.08 14.135 11.08 23.07 0 9.605-5.024 16.288-13.877 16.288zM150.299 171.717v-65.199h24.388v9.71h-13.971v16.284h10.716v9.683h-10.716v19.829h14.815v9.693h-25.232zM193.5 172.729c-9.31 0-13.497-6.505-14.451-17.578l9.978-1.771c.776 7.915 2.152 9.861 4.474 9.861 2.611 0 3.718-1.687 3.718-5.866 0-6.24-1.943-9.148-7.811-15.655-6.631-6.694-9.875-12.838-9.875-20.297 0-9.128 4.466-15.933 13.395-15.933 9.138 0 12.769 6.169 13.981 15.762l-9.772 2.039c-.759-6.398-1.861-8.361-4.209-8.361-2.231 0-3.331 1.585-3.331 5.66 0 4.578 1.583 7.276 6.699 12.781 7.545 7.617 11.076 14.135 11.076 23.07-.001 9.605-5.048 16.288-13.872 16.288zM228.704 147.995h-5.785l1.401-11.852c.56-4.656 1.204-10.047 1.396-15.173.278 5.126.934 10.425 1.487 15.083l1.501 11.942zm13.207 23.722l-10.324-65.199h-11.169l-10.333 65.199h10.333l1.677-14.341h7.625l1.781 14.341h10.41zM274.32 171.717v-17.035c0-7.909.271-15.46.463-22.17-.934 5.142-2.965 14.827-4.65 21.415l-4.658 19.75-4.567-19.75c-1.583-6.316-3.614-16.482-4.541-21.415.089 6.16.448 14.54.448 22.17v17.035h-9.312v-65.199h10.246l4.273 19.846c1.4 5.897 2.886 13.407 3.452 18.71.553-5.303 2.136-12.912 3.532-18.782l4.387-19.773h10.236v65.199h-9.309zM292.091 171.717v-65.199h24.407v9.71h-13.959v16.284h10.702v9.683h-10.702v19.829h14.78v9.693h-25.228zM352.711 172.729c-9.312 0-13.504-6.505-14.431-17.578l9.959-1.771c.74 7.915 2.154 9.861 4.472 9.861 2.612 0 3.719-1.687 3.719-5.866 0-6.24-1.938-9.148-7.81-15.655-6.621-6.694-9.89-12.838-9.89-20.297 0-9.128 4.489-15.933 13.445-15.933 9.103 0 12.731 6.169 13.937 15.762l-9.766 2.039c-.766-6.398-1.855-8.361-4.171-8.361-2.262 0-3.364 1.585-3.364 5.66 0 4.578 1.582 7.276 6.717 12.781 7.524 7.617 11.057 14.135 11.057 23.07 0 9.605-5.012 16.288-13.874 16.288zM387.534 116.228v55.489h-10.428v-55.489h-8.75v-9.71h28.029v9.71h-8.851zM419.277 124.963c0 6.903-1.771 9.512-5.304 9.512h-2.143v-19.092h2.424c3.643 0 5.023 2.43 5.023 9.58zm11.172 46.754l-6.426-31.647c3.642-2.91 5.788-8.025 5.788-15.549 0-13.612-6.605-18.003-14.698-18.003h-13.605v65.199h10.323v-28.675h2.612l5.403 28.675h10.603zM437.339 171.717v-65.199h24.404v9.71h-13.983v16.284h10.712v9.683h-10.712v19.829h14.811v9.693h-25.232zM469.284 171.717v-65.199h24.385v9.71h-13.96v16.284h10.699v9.683h-10.699v19.829h14.79v9.693h-25.215zM516.855 116.228v55.489h-10.414v-55.489h-8.771v-9.71h28.035v9.71h-8.85zM535.273 177.474c0 2.502-1.909 4.416-4.438 4.416-2.51 0-4.432-1.914-4.432-4.416 0-2.537 1.922-4.453 4.432-4.453 2.529 0 4.438 1.916 4.438 4.453zm.952 0c0-3.076-2.32-5.432-5.389-5.432-3.056 0-5.39 2.355-5.39 5.432 0 3.044 2.334 5.395 5.39 5.395 3.068-.001 5.389-2.351 5.389-5.395zm-2.812-1.213c0-1.256-.899-1.856-2.024-1.856h-2.733v5.907h1.246v-2.156h1.023l1.043 2.156h1.404l-1.15-2.324c.645-.255 1.191-.704 1.191-1.727zm-1.267.028c0 .505-.306.775-.828.775h-1.417v-1.514h1.417c.492.001.828.221.828.739z"/><path fill="#009E41" d="M370.681 73.101c-4.25-22.459-26.368-40.054-50.416-40.054-24.038 0-46.216 17.595-50.431 40.054-.034 3.35 2.574 4.053 3.56 4.053h93.652c1.006 0 3.655-.703 3.655-3.909v-.089l-.02-.055z"/><g fill="#fff" stroke="#fff" stroke-width=".264"><path d="M300.009 68.714v-16.483h-3v-2.469c2.196-.24 3.13-1.555 3.581-3.184h3.383v22.135h-3.964zM311.646 68.714c.235-6.764 2.337-9.582 6.538-12.584 1.52-1.108 2.09-2.029 2.09-3.381 0-1.743-.903-2.562-2.533-2.562-1.391 0-2.495.774-3.552 1.982l-2.455-2.887c1.473-1.854 3.453-3.066 6.154-3.066 3.821 0 6.398 2.123 6.398 5.987 0 3.069-1.527 4.954-3.646 6.549-3 2.235-4.359 3.735-4.506 6.083h8.212v3.879h-12.7zM336.346 69.063c-2.987 0-5.07-1.263-6.813-4.039l3.13-2.225c1.205 1.721 2.311 2.382 3.794 2.382 1.918 0 2.965-1.226 2.965-3.012 0-2.254-1.473-3.186-3.511-3.186h-1.528v-3.847h1.562c1.822 0 2.87-.811 2.87-2.4 0-1.447-.69-2.586-2.605-2.586-1.192 0-2.046.49-3.203 1.639l-2.671-2.688c1.608-1.795 3.158-2.887 6.122-2.887 3.857 0 6.343 2.389 6.343 6.043 0 2.498-1.28 3.909-3.113 4.59 1.943.545 3.762 2.136 3.762 5.225-.003 4.339-2.66 6.991-7.104 6.991z"/></g></g></svg>