<svg xmlns="http://www.w3.org/2000/svg" width="271.642" height="402.041" viewBox="0 0 271.642 402.041"><g><ellipse fill="#D6DEDB" cx="138.829" cy="335.6" rx="85" ry="21.5"/><path fill="#245E27" d="M162.435 174.919l-.025-.024c-5.806-10.879-8.451-25.101-7.924-42.646l-43.162 3.836c3.175 18.337 1.71 33.599-4.369 45.759l-.053.077c-.555.923-1.07 1.885-1.533 2.865-3.715 7.421-5.488 15.742-5.332 24.958.221 12.659 3.996 23.282 11.347 31.881 7.255 8.505 15.897 12.535 25.946 12.088 10.018-.473 18.522-5.297 25.488-14.455 7.016-9.259 10.418-20.213 10.199-32.874-.102-5.923-.986-11.397-2.64-16.427-.865-2.558-1.944-4.94-3.266-7.138-1.586-2.636-3.139-5.276-4.676-7.9"/><path stroke="#245E27" stroke-width="1.996" stroke-linecap="round" stroke-linejoin="round" stroke-miterlimit="10" d="M162.41 174.895c-5.806-10.879-8.451-25.101-7.924-42.646l-43.162 3.836c3.175 18.337 1.71 33.599-4.369 45.759l-.053.077c-.555.923-1.07 1.885-1.533 2.865-3.715 7.421-5.488 15.742-5.332 24.958.221 12.659 3.996 23.282 11.347 31.881 7.255 8.505 15.897 12.535 25.946 12.088 10.018-.473 18.522-5.297 25.488-14.455 7.016-9.259 10.418-20.213 10.199-32.874-.102-5.923-.986-11.397-2.64-16.427-.866-2.558-1.944-4.94-3.266-7.138-1.587-2.635-3.14-5.275-4.677-7.899l-.024-.025z" fill="none"/><path fill="#9EC94C" d="M161.589 175.531l-.109-.158c-5.76-10.78-8.44-24.788-8.053-42.029l-40.892 3.632c2.97 18.098 1.413 33.198-4.645 45.283l-.087.144c-.541.884-1.046 1.819-1.495 2.777v.022c-3.647 7.283-5.39 15.452-5.232 24.496.215 12.408 3.921 22.835 11.11 31.277h.016c7.029 8.238 15.397 12.147 25.108 11.737 9.708-.486 17.93-5.157 24.679-14.016v-.013c6.874-9.089 10.205-19.843 9.992-32.253-.1-5.823-.961-11.2-2.59-16.145-.832-2.496-1.899-4.807-3.182-6.954v.015c-1.559-2.613-3.108-5.226-4.62-7.815"/><path fill="#5A6174" d="M50.796 90.594l3.346 10.33c5.236.131 10.877-.531 16.945-1.998 3.378-1.117 8.041-1.855 13.979-2.205 29.557-6.186 59.424-17.658 89.631-34.402l-5.031-10.879-118.87 39.154z"/><path stroke="#737A90" stroke-width="2.058" stroke-linecap="round" stroke-linejoin="round" stroke-miterlimit="10" d="M50.796 90.594l118.869-39.154 5.031 10.879c-30.207 16.744-60.074 28.217-89.631 34.402-5.938.35-10.601 1.088-13.979 2.205-6.068 1.467-11.709 2.129-16.945 1.998l-3.345-10.33z" fill="none"/><path fill="#9EC94C" d="M164.012 73.49c2.198-.732 3.646-1.859 4.347-3.389-2.326.211-5.045-.449-8.183-1.98-8.269-5.92-19.257-7.965-32.969-6.131.033-1.496.729-2.938 2.089-4.311-3.694.137-7.704 1.373-12.059 3.709-1.23-.307-1.535-1.391-.914-3.238-4.578 1.184-8.504 4.076-11.751 8.65-5.937-.605-11.687.141-17.243 2.229 2.847.232 4.805 1.031 5.871 2.402-7.885 2.976-14.717 8.417-20.509 16.327-2.119 2.89-4.378 4.787-6.77 5.693 1.337 1.067 3.153 1.444 5.458 1.149-3.363 8.011-6.629 12.729-9.786 14.15 1.497 1.071 3.524 1.377 6.068.924-.222 1.318-.631 2.592-1.235 3.793-.294.594-.635 1.158-1.015 1.721-.812 1.184-1.812 2.309-3.024 3.366-1.102.983-2.375 1.913-3.803 2.802 2.047 2.021 5.498 2.184 10.356.5-.437 1.521-.684 3.063-.757 4.619-.066 1.398.084 2.773.455 4.123.344 1.32.898 2.539 1.649 3.66.731 1.09 1.688 2.128 2.848 3.118.538-1.378 1.253-2.576 2.141-3.612.696 1.161 1.431 2.264 2.22 3.325.279.373.568.742.859 1.111 5.001 6.241 11.718 10.53 20.131 12.854-.309-1.095-.338-2.188-.089-3.296 6.759 4.031 14.513 5.878 23.273 5.509-.366-1.124-.323-2.245.103-3.38.643.457 1.32.891 2.038 1.275.684.348 1.396.669 2.133.967.789.344 1.598.608 2.417.816.936.236 1.904.398 2.9.507.513.05 1.035.06 1.559.025.947-.033 1.88-.182 2.799-.442.776-.241 1.492-.571 2.144-1 .743-.489 1.429-.994 2.065-1.535.683-.528 1.271-1.113 1.789-1.752.539-.626 1.068-1.271 1.586-1.928.529-.646.982-1.363 1.352-2.13.908.834 1.465 1.819 1.658 2.981 8.008-3.453 14.086-8.452 18.262-14.979.736.883 1.216 1.877 1.45 2.991 7.747-6.856 11.987-15.181 12.712-24.97 1.317.276 2.629.926 3.941 1.947 1.941-5.839.691-11.115-3.758-15.855 5.123-.59 8.137-2.227 9.029-4.916-1.688-.176-3.244-.467-4.684-.868-1.577-.423-3.004-.993-4.28-1.702-.6-.338-1.166-.695-1.702-1.098-1.102-.813-2.053-1.775-2.862-2.863 2.487-.691 4.157-1.84 4.997-3.444-3.481.095-8.586-2.715-15.306-8.424"/><path stroke="#245E27" stroke-width="2.048" stroke-linecap="round" stroke-miterlimit="10" d="M164.012 73.49c6.72 5.709 11.825 8.519 15.308 8.427-.84 1.604-2.51 2.753-4.997 3.444.81 1.088 1.761 2.05 2.862 2.863.536.402 1.103.76 1.702 1.098 1.276.709 2.703 1.279 4.28 1.702 1.439.401 2.995.692 4.684.868-.893 2.689-3.906 4.326-9.029 4.916 4.449 4.74 5.699 10.017 3.758 15.855-1.312-1.021-2.624-1.671-3.941-1.947-.725 9.789-4.965 18.113-12.712 24.97-.234-1.114-.714-2.108-1.45-2.991-4.176 6.526-10.254 11.525-18.262 14.979-.193-1.162-.75-2.147-1.658-2.981-.369.767-.822 1.483-1.352 2.13-.518.657-1.047 1.302-1.586 1.928-.518.639-1.106 1.224-1.789 1.752-.637.541-1.322 1.046-2.065 1.535-.651.429-1.367.759-2.144 1-.919.261-1.852.409-2.799.442-.523.034-1.046.024-1.559-.025-.996-.108-1.965-.271-2.9-.507-.819-.208-1.628-.473-2.417-.816-.737-.298-1.449-.619-2.133-.967-.718-.385-1.396-.818-2.038-1.275-.426 1.135-.469 2.256-.103 3.38-8.761.369-16.515-1.478-23.273-5.509-.249 1.107-.22 2.201.089 3.296-8.413-2.323-15.13-6.612-20.131-12.854-.291-.369-.58-.738-.859-1.111-.789-1.062-1.523-2.164-2.22-3.325-.888 1.036-1.603 2.234-2.141 3.612-1.159-.99-2.116-2.028-2.848-3.118-.751-1.121-1.306-2.34-1.649-3.66-.371-1.35-.521-2.725-.455-4.123.073-1.556.32-3.099.757-4.619-4.858 1.684-8.31 1.521-10.356-.5 1.428-.889 2.701-1.818 3.803-2.802 1.213-1.058 2.212-2.183 3.024-3.366.38-.562.721-1.127 1.015-1.721.604-1.201 1.014-2.475 1.235-3.793-2.544.453-4.571.147-6.068-.924 3.157-1.421 6.423-6.14 9.786-14.15-2.305.295-4.121-.082-5.458-1.149 2.392-.906 4.65-2.804 6.77-5.693 5.792-7.91 12.624-13.352 20.509-16.327-1.066-1.371-3.024-2.17-5.871-2.402 5.557-2.09 11.307-2.834 17.243-2.229 3.247-4.574 7.173-7.467 11.751-8.65-.621 1.848-.316 2.932.914 3.238 4.354-2.336 8.364-3.572 12.059-3.709-1.36 1.373-2.056 2.814-2.089 4.311 13.712-1.834 24.7.211 32.969 6.131 3.138 1.531 5.856 2.191 8.183 1.98-.702 1.527-2.151 2.654-4.349 3.386z" fill="none"/><path fill="#D8382A" d="M144.519 109.192l-.084.032.088-.01-.004-.022"/><path fill="#1F1A1A" d="M144.435 109.225c.223 3.038-.981 5.979-3.627 8.824-3.154 3.445-7.397 5.746-12.736 6.926-5.352 1.193-10.246.928-14.69-.805-3.213-1.252-5.501-3-6.86-5.252l-.205.02c-7.586 1.012-15.389 1.56-23.407 1.657 11.093 8.404 21.542 12.584 31.337 12.532 9.793-.069 19.805-2.377 30.009-6.945 11.095-4.939 18.519-14.153 22.246-27.627-7.05 4.132-14.382 7.674-21.981 10.638l.004.022-.09.01z"/><path fill="#D8382A" d="M140.808 118.049c2.646-2.846 3.85-5.786 3.627-8.824-11.959 4.66-24.59 7.887-37.914 9.693 1.359 2.252 3.647 4 6.86 5.252 4.444 1.732 9.339 1.998 14.69.805 5.34-1.18 9.583-3.479 12.737-6.926"/><path stroke="#1F1A1A" stroke-width=".013" stroke-linecap="round" stroke-linejoin="round" stroke-miterlimit="10" d="M144.519 109.192c7.6-2.964 14.932-6.506 21.981-10.638-3.728 13.474-11.151 22.688-22.246 27.627-10.204 4.568-20.216 6.876-30.013 6.945-9.791.052-20.24-4.128-31.333-12.532 8.019-.098 15.821-.646 23.407-1.657" fill="none"/><path stroke="#D8382A" stroke-width=".013" stroke-linecap="round" stroke-linejoin="round" stroke-miterlimit="10" d="M106.316 118.938l.205-.02c13.324-1.807 25.955-5.033 37.914-9.693l.084-.032m-37.998 9.725c1.359 2.252 3.647 4 6.86 5.252 4.444 1.732 9.339 1.998 14.69.805 5.339-1.178 9.582-3.479 12.736-6.926 2.646-2.846 3.85-5.786 3.627-8.824" fill="none"/><path fill="#fff" d="M135.66 77.894c-3.57.212-6.531 1.604-8.914 4.197-2.383 2.579-3.45 5.593-3.219 9.036.221 3.451 1.678 6.322 4.349 8.611 2.711 2.291 5.845 3.332 9.417 3.118 3.559-.22 6.521-1.624 8.868-4.228 2.382-2.578 3.447-5.6 3.229-9.051-.231-3.445-1.687-6.305-4.356-8.578-2.697-2.295-5.82-3.339-9.374-3.105M89.697 98.852c.219 3.436 1.676 6.298 4.36 8.593 2.698 2.296 5.833 3.339 9.405 3.123 3.547-.204 6.506-1.62 8.867-4.222 2.38-2.596 3.459-5.609 3.245-9.046-.222-3.448-1.681-6.32-4.388-8.599-2.688-2.299-5.805-3.329-9.344-3.1-3.574.212-6.549 1.62-8.93 4.2-2.354 2.576-3.419 5.599-3.215 9.051"/><path fill="#1F1A1A" d="M139.359 86.84c-.988-1.157-2.244-1.799-3.773-1.939-1.544-.144-2.907.26-4.104 1.203-1.198.956-1.861 2.166-2.01 3.645-.147 1.477.268 2.786 1.248 3.943.987 1.156 2.242 1.799 3.774 1.941 1.532.142 2.888-.26 4.085-1.203 1.196-.947 1.861-2.159 2.008-3.646.156-1.479-.249-2.79-1.228-3.944M109.511 93.748c-.99-1.157-2.244-1.795-3.775-1.936-1.541-.143-2.906.258-4.102 1.203-1.199.954-1.863 2.164-2.012 3.642-.146 1.481.27 2.788 1.246 3.944.992 1.158 2.248 1.799 3.777 1.939 1.529.143 2.887-.26 4.084-1.205 1.2-.943 1.861-2.152 2.006-3.644.161-1.474-.247-2.786-1.224-3.943"/><path fill="#C06513" d="M132.478 69.85c-.697-.728-1.604-.687-2.705.129-4.284 3.268-8.21 6.752-11.783 10.426-.73.755-1.357 1.026-1.897.816-6.591-2.471-11.029-3.955-13.343-4.456-2.354-.514-3.869-.311-4.543.626-.693.916-.785 1.896-.254 2.968-7.832 2.13-13.405 4.851-16.739 8.147-3.317 3.268-4.958 5.396-4.923 6.399.015.986 1.502 1.108 4.466.356-2.079 2.574-3.58 5.454-4.482 8.646-.445 1.552-.536 2.699-.271 3.447l.136.288.09.146c.057.075.135.124.213.169.201.122.422.2.658.26.299.075.613.106.92.11.246.034.498.042.754.047 4.615-.065 8.914-1.275 12.864-3.637-.834-4.154-.441-7.756 1.185-10.833 1.596-3.065 4.08-4.592 7.422-4.546 2.621.029 4.967.34 7.024.936l3.134 1.092c2.01.732 3.666 1.2 4.95 1.408 1.272.208 2.745.107 4.425-.303 1.706-.404 3.447-1.378 5.23-2.922 1.783-1.56 3.105-2.719 3.967-3.482 1.001-.855 2.092-1.704 3.284-2.529 1.476-.975 2.985-1.743 4.526-2.287 2.479-.875 4.596-.957 6.352-.245.868.355 1.654.921 2.367 1.694.729.766 1.371 1.598 1.943 2.478 1.053 1.694 1.707 3.774 1.946 6.222 4.874.338 9.827-.408 14.86-2.248 1.492-.521 2.189-1.24 2.092-2.18-.047-1.014-.955-2.234-2.695-3.644-2.587-2.112-5.148-3.798-7.68-5.029.758-.056 1.59-.335 2.518-.83 2.049-1.118 1.867-2.192-.572-3.213-9.063-3.674-17.075-4.478-24.018-2.407-.318-.708-.79-1.381-1.421-2.019"/><path fill="#245E27" d="M197.275 123.141c-2.757.1-5.76 2.016-9.031 5.765l-.068.083c-2.469 3.539-4.279 6.787-5.429 9.761-3.837-.797-6.704.082-8.61 2.655-1.971 2.489-2.897 6.75-2.789 12.802-1.484 11.33-9.518 27.458-24.109 48.373-.148.181-.207.394-.174.633.014.228.102.427.26.602l14.637 15.487c.134.131.281.221.475.27.176.054.364.054.554.014.181-.035.339-.134.474-.262 19.709-19.292 36.006-38.16 48.861-56.611l.551-.414.029-.034c2.248-1.967 3.334-4.128 3.252-6.499l-.004-.063c-.264-2.944-1.594-4.947-3.998-6.016-1.326-.604-2.598-.988-3.814-1.139.527-2.408.023-4.398-1.514-5.986-1.326-1.409-3.074-2.246-5.25-2.506 2.322-5.354 2.971-9.424 1.963-12.194-1.161-3.37-3.249-4.942-6.266-4.721m.117 1.994l.012-.002c1.982-.072 3.383 1.042 4.172 3.354.826 2.576.068 6.428-2.25 11.559-2.084.366-3.784 1.425-5.125 3.19-1.385 1.805-2.245 4.044-2.574 6.711-.374 2.87.264 4.993 1.893 6.346 1.581 1.362 3.365 1.969 5.355 1.829l.012.006.123-.004c-.164 2.644.379 4.545 1.641 5.685 1.385 1.471 3.705 1.861 6.986 1.176l.088-.024c.211-.059.432-.132.637-.203-12.252 17.097-27.447 34.571-45.6 52.408l-13.355-14.126c14.584-20.991 22.578-37.21 24.002-48.644l-.002-.142c-.104-5.495.695-9.383 2.394-11.66 1.582-1.992 3.99-2.574 7.219-1.726 2.337 1.153 3.792 2.853 4.354 5.123.578 2.373.519 4.508-.163 6.401l.012-.001.004.009c-.672 1.762-1.673 2.949-3.002 3.583-1.225.55-2.344.486-3.383-.196-1.11-.77-2.519-2.377-4.239-4.831-.12.087-.189.262-.194.508-.02.255.179.992.563 2.249.39 1.251 1.291 2.497 2.698 3.728 1.663 1.105 3.472 1.227 5.431.352 1.833-.81 3.188-2.387 4.06-4.725.84-2.223.92-4.739.227-7.534-.639-2.614-2.201-4.646-4.711-6.061 1.097-2.84 2.832-5.942 5.167-9.312 2.779-3.169 5.286-4.845 7.548-5.026m-3.712 25.057c.287-2.302 1.019-4.225 2.193-5.775 1.089-1.435 2.511-2.262 4.267-2.47l.012-.004.012-.003c2.191.038 3.91.69 5.139 1.969 1.146 1.252 1.441 2.857.857 4.815l-.01.016-.104.325-.031.077.004.01-.004.029-.006.025-.02.032.006.015c-.672 1.928-1.676 3.521-2.992 4.784l-.014.007c-.984.924-1.998 1.542-3.031 1.861l-.162.046c-.361.088-.711.146-1.064.18-1.428.089-2.705-.359-3.832-1.333-1.078-.994-1.486-2.53-1.22-4.606m8.446 12.216c-.895-.959-1.223-2.545-1.004-4.777 1.137-.437 2.24-1.143 3.32-2.162 1.414-1.332 2.506-2.99 3.283-4.974 1.119.091 2.293.423 3.545.996 1.676.79 2.605 2.231 2.816 4.317.014 1.792-.824 3.44-2.541 4.948l-.531.409-.145.105c-1.105.764-2.332 1.341-3.674 1.754l-.025.008c-2.34.489-4.036.274-5.044-.624"/><path fill="#9EC94C" d="M197.404 125.133l-.012.002c-2.262.182-4.77 1.857-7.552 5.025-2.335 3.369-4.07 6.472-5.167 9.312 2.51 1.415 4.072 3.446 4.711 6.061.693 2.795.613 5.312-.227 7.534-.871 2.338-2.228 3.915-4.06 4.725-1.959.875-3.768.754-5.431-.352-1.407-1.23-2.309-2.477-2.698-3.728-.385-1.257-.583-1.994-.563-2.249.005-.246.074-.421.197-.508 1.718 2.454 3.127 4.062 4.236 4.831 1.039.683 2.158.746 3.383.196 1.329-.634 2.33-1.821 3.002-3.583l-.016-.008c.682-1.894.741-4.028.163-6.401-.562-2.271-2.017-3.97-4.354-5.123-3.228-.849-5.637-.267-7.219 1.726-1.698 2.277-2.497 6.165-2.394 11.66l.002.142c-1.424 11.434-9.418 27.652-24.002 48.644l13.355 14.126c18.152-17.837 33.348-35.312 45.6-52.408-.205.071-.426.145-.637.201l-.088.026c-3.281.686-5.602.295-6.986-1.176-1.262-1.14-1.805-3.041-1.641-5.685l-.123.004-.012-.006c-1.99.14-3.774-.467-5.355-1.829-1.629-1.353-2.267-3.476-1.893-6.346.329-2.667 1.189-4.906 2.574-6.711 1.341-1.766 3.041-2.824 5.125-3.19 2.318-5.131 3.076-8.982 2.25-11.559-.785-2.311-2.186-3.425-4.168-3.353M195.874 144.417c-1.175 1.551-1.903 3.474-2.193 5.775-.267 2.075.142 3.611 1.22 4.606 1.127.974 2.404 1.422 3.832 1.333.354-.034.703-.092 1.064-.18l.162-.046c1.033-.319 2.047-.938 3.031-1.861l.016-.007c1.314-1.263 2.318-2.856 2.99-4.784l-.006-.015.02-.032.006-.025.004-.029-.004-.01.031-.077.104-.325.01-.016c.584-1.958.289-3.563-.857-4.815-1.229-1.278-2.947-1.931-5.139-1.969l-.012.003-.012.004c-1.757.208-3.179 1.035-4.267 2.47M201.123 157.631c-.219 2.233.109 3.818 1.004 4.777 1.008.897 2.703 1.113 5.047.625l.023-.008c1.342-.413 2.568-.99 3.674-1.754l.145-.105.531-.409c1.717-1.508 2.555-3.156 2.539-4.948-.209-2.086-1.139-3.527-2.814-4.317-1.252-.573-2.426-.905-3.545-.996-.777 1.983-1.867 3.642-3.283 4.974-1.081 1.018-2.185 1.724-3.321 2.161"/><path fill="#AFB5D4" d="M118.95 220.565c.525-5.663-1.657-8.388-6.565-8.183l-27.57-.039c-3.948-.169-6.425 1.254-7.411 4.292-.223.783-.403 1.721-.548 2.82-.117.591-.223 1.689-.316 3.327-.254 5.235-.738 10.123-1.471 14.669-.538 5.651 1.66 8.363 6.594 8.161l27.57.038c4.867.245 7.574-2.478 8.113-8.14l1.604-16.945zm-7.143-2.059c.659.187.917.865.8 2.051l-1.604 16.946c-.105 1.162-.508 1.849-1.194 2.049l-27.571-.038c-.674-.19-.957-.864-.854-2.051l1.63-16.948c.118-1.2.533-1.888 1.247-2.046l27.546.037z"/><path stroke="#737A90" stroke-width="2.036" stroke-linecap="round" stroke-linejoin="round" stroke-miterlimit="10" d="M111.807 218.506l-27.547-.037c-.714.158-1.129.846-1.247 2.046l-1.63 16.948c-.103 1.187.181 1.86.854 2.051l27.571.038c.687-.2 1.089-.887 1.194-2.049l1.604-16.946c.118-1.186-.14-1.865-.799-2.051zm7.143 2.059l-1.603 16.946c-.541 5.662-3.248 8.385-8.115 8.14l-27.57-.038c-4.934.202-7.132-2.51-6.594-8.161.732-4.546 1.219-9.434 1.471-14.669.094-1.638.2-2.736.316-3.327.145-1.1.325-2.037.548-2.82.986-3.038 3.463-4.461 7.411-4.292l27.57.039c4.908-.205 7.091 2.519 6.566 8.182z" fill="none"/><path fill="#C5CDE3" d="M88.067 207.986l20.246.028-.017 12.448-20.246-.028z"/><path stroke="#737A90" stroke-width="2.036" stroke-linecap="round" stroke-linejoin="round" stroke-miterlimit="10" fill="none" d="M88.067 207.986l20.246.028-.017 12.448-20.246-.028z"/><path fill="#AFB5D4" d="M197.187 186.395c-1.022-.862-2.262-1.289-3.726-1.29l-3.859-.046c-2.82.211-5.784.345-8.906.377-1.591.021-3.212.032-4.866.03-11.044-.205-18.368-.36-21.955-.456l-32.025-.379c-6.887-.15-14.639-.07-23.273.219-1.969.054-3.977.142-6.036.228-2.639.059-5.062.056-7.275-.009l-3.598-.106-.515-.015c-1.451-.001-2.709.425-3.758 1.285-.713.608-1.166 1.321-1.389 2.11-.09.334-.145.959-.146 1.897l-.002 2.265c-.001 1.408.501 2.611 1.523 3.599 1.046 1.005 2.535 1.556 4.451 1.657h.012c4.207.242 8.416.337 12.645.269 1.906-.036 5.283-.158 10.15-.387 6.462-.104 12.857-.097 19.187.026l26.11.035c3.959.219 7.919.21 11.883-.047 3.807-.029 7.612-.102 11.418-.184 3.896-.096 7.793-.063 11.692.078 1.552.039 3.104.077 4.657.12.299 0 .609 0 .906.012.777.025 1.659.054 2.641.08h.068l.242.002c1.465.002 2.706-.497 3.73-1.498 1.037-.986 1.555-2.186 1.557-3.596l.006-3.088c0-1.236-.514-2.298-1.549-3.188"/><path fill="#C5CDE3" d="M190.492 197.684c-.297-.012-.607-.012-.906-.012-1.554-.043-3.105-.081-4.66-.12-3.896-.142-7.793-.174-11.689-.078-3.806.082-7.611.154-11.418.184-3.964.257-7.924.266-11.883.047l-26.11-.035c-6.329-.123-12.722-.131-19.187-.026-4.867.229-8.244.351-10.15.387-4.229.068-8.436-.026-12.645-.269.14 1.271.257 2.711.332 4.301l.072 4.861c0 .162 0 .339-.016.514-.055 2.252-.084 4.396-.074 6.434l.294 12.551c.075 1.037.151 2.038.243 2.989l.101 2.075c.215 3.461.442 6.713.687 9.724l.151 1.725c.114 1.462.218 2.965.304 4.5.039.663.051 1.338.051 2.026v.475c-.03 1.323-.096 2.639-.213 3.949l-.108 1.125v.073c-.143 1.116-.272 2.239-.393 3.349-.17 1.413-.287 2.825-.328 4.252l-.015.523c-.012.313-.001.623.023.938.014.34.056.676.105 1.013.27 1.554.668 3.09 1.184 4.602.247.763.529 1.539.877 2.304.208.459.709 2.461 1.52 5.999.334 1.137.425 2.191.268 3.15-.156.938-.545 1.786-1.182 2.547-.363.452-.648 1.012-.855 1.675-.377 1.186-.523 2.737-.422 4.648.039.786.115 1.651.229 2.576l1.444 24.626-.005 3.564c.311.037.62.087.916.149.932.225 1.863.46 2.783.727l2.901.104c.815.089 1.643.141 2.458.153l.232.014c.907.014 1.812.015 2.731.004.83-.013 1.657-.036 2.487-.073.904-.036 1.799-.061 2.678-.069.842-.013 1.684.003 2.512.04.816.037 1.619.064 2.41.065.943-.009 1.89-.034 2.861-.085l1.825-.094c2.058-.134 3.741-.384 5.048-.732 2.15-.583 4.844-.154 8.074 1.3.686.312 1.41.664 2.148 1.064 4.18 2.281 8.359 2.536 12.529.78.338-.138.688-.278 1.038-.389 3.999-1.142 8.016-2.161 12.067-3.046l.494-.15c.479-.146.971-.269 1.449-.356.982-.189 1.967-.248 2.951-.187.297.028.607.077.906.151.98.188 1.955.505 2.925.92.606.188 1.228.312 1.864.402 2.677.477 4.127.728 4.348.769 1.76.25 3.159.376 4.18.377 1.697.003 3.457-.068 5.256-.203 1.101-.088 2.967-.26 5.568-.542l4.349-.131.005-3.202c-.013-.398-.012-.802-.012-1.187.067-10.35.521-20.846 1.363-31.493.604-5.627.932-9.889 1.002-12.786.027-1.29.004-2.314-.075-3.065-.126-1.285-.2-2.361-.241-3.222-.038-.766-.023-1.351.016-1.777.076-.674.275-1.424.574-2.249l.335-.85c1.416-2.884 2.236-5.083 2.456-6.593.08-.577.08-1.054-.006-1.428-.377-1.415-.881-2.536-1.502-3.353-.54-.685-.823-2.263-.859-4.739-.012-.537.003-1.098.016-1.711l.107-3.022v-.103c-.008-12.61.46-25.022 1.398-37.245.129-1.749.277-3.761.448-6.022-.98-.028-1.862-.056-2.639-.081"/><path fill="#AFB5D4" d="M81.152 184.947l.515.015-.295-.013z"/><path fill="#C5CDE3" d="M82.175 202.062c-.075-1.59-.192-3.029-.332-4.301h-.012c.14 1.385.254 2.764.329 4.123l.015.178"/><path fill="#AFB5D4" d="M126.035 322.351c-3.23-1.454-5.924-1.883-8.074-1.3-1.307.349-2.99.599-5.048.732l-1.825.094c-.972.051-1.918.076-2.861.085-.791-.001-1.594-.028-2.41-.065-.828-.037-1.67-.053-2.512-.04-.879.009-1.773.033-2.678.069-.83.037-1.657.061-2.487.073-.919.011-1.824.01-2.731-.004l-.232-.01c-.815-.017-1.643-.068-2.458-.157l-2.901-.104-1.488.047-2.213.101-.609.021c-.219.013-.441.013-.66.012-2.085.986-3.135 2.595-3.138 4.845l-.005 3.875c-.003 1.413.449 2.614 1.367 3.604.941 1 2.081 1.503 3.389 1.505l101.282.139c1.334.001 2.446-.498 3.368-1.497.933-.987 1.398-2.186 1.402-3.598l.006-3.876c.001-1.412-.464-2.625-1.395-3.629-.84-.896-1.836-1.387-3.015-1.462l-4.349.131c-2.602.282-4.468.454-5.568.543-1.799.134-3.559.205-5.256.202-1.021-.001-2.42-.127-4.18-.377-.221-.041-1.671-.292-4.348-.769-.637-.09-1.258-.215-1.864-.402-.97-.415-1.942-.73-2.923-.92-.301-.074-.611-.123-.909-.151-.983-.062-1.968-.003-2.95.187-.479.088-.97.21-1.447.357l-.496.149c-4.052.885-8.068 1.904-12.067 3.046-.351.112-.7.251-1.038.389-4.17 1.756-8.348 1.501-12.529-.78-.74-.401-1.465-.754-2.15-1.065"/><path stroke="#737A90" stroke-width="2.036" stroke-linecap="round" stroke-linejoin="round" stroke-miterlimit="10" d="M81.843 197.761h-.012c-1.916-.102-3.405-.652-4.451-1.657-1.022-.987-1.524-2.19-1.523-3.599l.002-2.265c.002-.938.057-1.563.146-1.897.223-.789.676-1.502 1.389-2.11 1.049-.86 2.307-1.286 3.758-1.285l.515.015 3.598.106c2.213.064 4.637.067 7.275.009 2.062-.086 4.067-.174 6.036-.228 8.632-.289 16.387-.369 23.273-.219l32.025.379c3.587.096 10.911.251 21.955.456 1.654.002 3.275-.009 4.866-.03 3.122-.032 6.086-.166 8.906-.377l3.858.046c1.465.001 2.704.428 3.727 1.29 1.035.891 1.549 1.952 1.549 3.189l-.006 3.088c-.002 1.41-.52 2.609-1.557 3.596-1.024 1.001-2.266 1.498-3.731 1.496l-.241-.002h-.067m0 0c-.982-.024-1.864-.053-2.642-.078-.297-.012-.607-.012-.906-.012-1.554-.043-3.105-.081-4.657-.121-3.899-.141-7.796-.173-11.692-.077-3.806.082-7.611.154-11.418.184-3.964.257-7.924.266-11.883.046l-26.11-.035c-6.329-.122-12.722-.13-19.187-.027-4.867.23-8.244.353-10.15.389-4.229.068-8.438-.026-12.645-.269m106.265 124.049l.005-3.202c-.013-.398-.012-.802-.012-1.187.067-10.35.521-20.846 1.363-31.493.604-5.627.932-9.889 1.002-12.786.027-1.29.004-2.314-.075-3.065-.126-1.285-.2-2.361-.241-3.222-.038-.766-.023-1.351.016-1.777.076-.674.275-1.424.576-2.248l.333-.851c1.416-2.884 2.236-5.083 2.456-6.593.08-.577.08-1.054-.006-1.428-.377-1.415-.881-2.536-1.502-3.353-.54-.685-.823-2.263-.859-4.739-.012-.535.003-1.098.016-1.711l.107-3.022v-.103c-.008-12.61.46-25.022 1.398-37.245.129-1.749.277-3.761.448-6.024m-111.762-12.813l3.715-.022m-3.243 12.834c.14 1.271.257 2.711.332 4.301l.072 4.861c0 .162 0 .339-.016.514-.055 2.252-.084 4.396-.074 6.434l.294 12.551c.075 1.04.151 2.038.243 2.989l.101 2.075c.215 3.461.442 6.713.687 9.724l.151 1.725c.114 1.462.218 2.965.304 4.5.039.663.051 1.338.051 2.026v.475c-.03 1.323-.096 2.639-.213 3.949l-.108 1.124v.074c-.143 1.116-.272 2.239-.393 3.349-.17 1.413-.288 2.825-.328 4.252l-.015.523c-.012.313-.001.623.023.938.014.34.056.676.105 1.013.27 1.554.668 3.09 1.184 4.602.247.763.529 1.539.877 2.304.208.459.709 2.461 1.52 5.999.334 1.137.425 2.191.268 3.15-.156.938-.545 1.786-1.182 2.547-.363.452-.648 1.012-.855 1.675-.377 1.186-.523 2.737-.422 4.648.039.786.115 1.651.229 2.576l1.444 24.626-.005 3.564m101.991.962l-4.349.131c-2.602.282-4.468.454-5.568.543-1.799.134-3.559.205-5.257.202-1.02-.001-2.419-.127-4.179-.377-.221-.041-1.671-.292-4.348-.769-.637-.09-1.258-.215-1.864-.402-.97-.415-1.942-.73-2.925-.92-.299-.074-.609-.123-.907-.151-.983-.062-1.968-.003-2.95.187-.479.088-.97.21-1.449.357l-.494.149c-4.052.885-8.068 1.904-12.067 3.046-.351.11-.7.247-1.038.389-4.17 1.756-8.35 1.501-12.529-.78-.738-.4-1.463-.753-2.148-1.064-3.23-1.454-5.924-1.883-8.074-1.303-1.307.352-2.99.602-5.048.735l-1.825.094c-.972.051-1.918.076-2.861.085-.791-.001-1.594-.028-2.41-.065-.828-.037-1.67-.053-2.512-.04-.879.009-1.773.033-2.678.069-.83.037-1.657.064-2.487.073-.919.011-1.824.01-2.731-.004l-.232-.01c-.815-.017-1.643-.068-2.458-.157l-2.901-.104-1.488.047-2.213.101-.609.021c-.219.013-.441.013-.66.012-2.085.986-3.135 2.595-3.138 4.844l-.005 3.876c-.003 1.413.449 2.614 1.367 3.604.941 1 2.081 1.503 3.389 1.505l101.282.139c1.333.001 2.446-.498 3.366-1.497.935-.987 1.4-2.186 1.404-3.598l.006-3.877c.001-1.411-.464-2.624-1.396-3.628-.842-.897-1.837-1.388-3.016-1.463z" fill="none"/><path fill="#AFB5D4" d="M181.162 204.072h-.025c-1.554-.04-2.901 1.169-4.042 3.619-1.208 2.412-1.847 5.333-1.903 8.771l-.262 40.246c-.807 1.76-1.352 3.8-1.627 6.098-.129 1.024-.21 2.1-.225 3.225-.145 2.9.225 5.187 1.102 6.851l-1.025 32.248c-.055 3.037.421 5.638 1.415 7.825.979 2.152 2.208 3.228 3.67 3.229h.026c1.411.002 2.681-1.067 3.782-3.218 1.092-2.185 1.677-4.785 1.774-7.82l.491-38.048c-.763-.589-1.162-2.013-1.212-4.278-.011-.312-.011-.637.002-.974l1.746-8.273 1.578-37.096c.068-3.437-.393-6.358-1.412-8.773-1.018-2.456-2.3-3.667-3.853-3.632M166.764 207.678c-1.046-2.455-2.352-3.665-3.904-3.63h-.028c-1.553-.039-2.887 1.167-3.989 3.617-1.144 2.412-1.743 5.335-1.801 8.772l-.535 49.421-1.175 8.947c-.223 1.1-.045 2.989.562 5.675l.045 24.624c-.055 3.036.43 5.638 1.465 7.826.977 2.153 2.206 3.226 3.695 3.229h.027c1.396.001 2.655-1.068 3.757-3.217 1.054-2.186 1.626-4.786 1.723-7.822l-.093-29.374c-.877-1.967-1.182-4.214-.922-6.726l1.799-9.698.863-42.87c.041-3.436-.458-6.361-1.489-8.774M148.951 207.651c-1.07-2.453-2.367-3.663-3.902-3.63h-.028c-1.554-.037-2.89 1.17-3.991 3.62-1.144 2.411-1.721 5.335-1.725 8.771l-.472 63.919 1.132 5.177c.27 1.187.15 3.487-.373 6.923l-.51 12.649c-.004 3.038.525 5.639 1.568 7.828 1.021 2.152 2.249 3.226 3.698 3.229h.026c1.45.001 2.693-1.07 3.734-3.219 1.037-2.186 1.574-4.785 1.613-7.823l.822-88.668c.016-3.436-.508-6.361-1.592-8.776"/><path fill="#AFB5D4" d="M127.313 203.997c-1.57-.037-2.89 1.172-3.968 3.62-1.092 2.411-1.612 5.335-1.566 8.771l.713 10.126-.469 3.247.916 47.799.848 4.703c.604 2.111.174 5.224-1.283 9.321l-.07 13.474c-.013 3.037.512 5.639 1.598 7.826 1.031 2.152 2.285 3.226 3.751 3.229h.022c1.438.001 2.669-1.067 3.707-3.219 1.038-2.185 1.56-4.783 1.564-7.821l.254-14.548.602-4.826-.928-3.325-.065-65.972c.004-3.436-.55-6.359-1.642-8.775-1.086-2.45-2.405-3.663-3.961-3.63h-.023zM110.172 203.976h-.028c-1.562-.039-2.887 1.17-3.938 3.618-1.079 2.412-1.572 5.334-1.487 8.77l2.031 9.779-1.457 4.522 1.261 44.549c.889 3.412 1.334 6.711 1.33 9.901l-1.17 5.066-.512 14.855c.035 3.038.598 5.639 1.699 7.827 1.07 2.152 2.309 3.225 3.746 3.227h.027c1.449.003 2.682-1.068 3.68-3.218 1.002-2.185 1.495-4.783 1.461-7.821l-.654-12.077c-.039-1.287.053-2.274.264-2.975.193-.697.35-1.161.492-1.396.118-.242.248-.514.361-.827.379-.947.561-1.913.549-2.897.001-.698-.062-1.388-.205-2.074-.217-1.102-.5-2.189-.848-3.278l-.516-3.127-.557-44.947c1.035-2.357 1.624-4.108 1.74-5.223l-.744-3.922-.769-5.928c-.062-3.436-.653-6.362-1.775-8.775-1.134-2.452-2.468-3.665-3.981-3.629M92.956 203.951h-.027c-1.563-.037-2.861 1.171-3.858 3.621-1.055 2.409-1.549 4.809-1.49 7.194-.062.4-.09.786-.053 1.175.115.901.451 1.702.98 2.402.582.765.981 1.639 1.189 2.6.091.388.193.937.306 1.679-.454 1.185-.868 2.532-1.247 4.073l-.596 2.322 2.211 47.398 2.037 5.304c.709 1.987.5 3.849-.629 5.597-.945 1.062-1.493 3.223-1.614 6.474.358 3.45.291 7.188-.196 11.225.062 3.038.653 5.639 1.752 7.826 1.096 2.152 2.389 3.228 3.852 3.229h.026c1.411.002 2.628-1.068 3.63-3.218.973-2.185 1.43-4.785 1.383-7.822l-.267-13.8c.978-4.085 1.279-6.937.917-8.549l-1.002-5.05-2.137-47.151c-.011-.497.182-1.086.6-1.749.414-.66.869-1.796 1.377-3.397.116-.446.219-.786.311-1.024l-1.518-6.554c-.154-.761-.244-1.621-.256-2.574.066-2.65-.475-5.184-1.621-7.599-1.175-2.454-2.52-3.665-4.06-3.632"/><path fill="#AFB5D4" d="M196.529 228.82l-.323-8.801c-.405-5.664-3.056-8.392-7.937-8.188l-27.572-.037c-2.732-.117-4.623.62-5.676 2.218-.219.486-.416.976-.569 1.476-.17.562-.274 1.15-.287 1.751-.015.8.021 1.588.124 2.374.104.735.167 1.463.18 2.176.011.999.051 1.986.101 2.975.046.898.112 1.801.175 2.699l.053.65.791 9.8c.102 1.1.32 2.176.641 3.225.09.264.18.539.285.799 1.122 1.916 2.907 2.969 5.38 3.136 3.418-.096 6.835-.03 10.251.188 1.541.013 3.225.093 5.048.206 2.604.119 5.358.158 8.261.111 1.307-.099 2.625-.185 3.961-.27.621-.051 1.258-.107 1.889-.174l1.66-.147c3.312-.657 4.807-3.33 4.463-8.014l-.899-8.153zm-7.829-10.861c.687.188 1.072.866 1.164 2.053.729 4.887 1.138 10.088 1.192 15.626.22 1.448.062 2.51-.469 3.194l-.129.131c-5.711.777-10.722 1.032-15.02.775-4.295-.255-7.312-.407-9.033-.459-1.748-.068-3.066-.194-3.963-.355l-.541-.505c-.217-.349-.361-.847-.412-1.497l-1.023-11.202-.196-5.749c-.087-1.2.196-1.889.858-2.05l27.572.038z"/><path stroke="#737A90" stroke-width="2.036" stroke-linecap="round" stroke-linejoin="round" stroke-miterlimit="10" d="M196.206 220.02c-.405-5.664-3.056-8.392-7.937-8.188l-27.572-.037c-2.732-.117-4.623.62-5.676 2.218-.219.486-.416.976-.569 1.476-.17.562-.274 1.15-.287 1.751-.015.8.021 1.588.124 2.374.104.735.167 1.463.18 2.176.011.999.051 1.986.101 2.975.046.898.112 1.801.175 2.699l.053.65.791 9.8c.102 1.1.32 2.176.641 3.225.09.264.18.539.285.799 1.122 1.916 2.907 2.969 5.38 3.136 3.418-.096 6.835-.03 10.251.188 1.541.013 3.225.093 5.048.206 2.604.119 5.358.158 8.261.111 1.307-.099 2.625-.185 3.961-.27.621-.051 1.258-.107 1.889-.174l1.66-.147c3.312-.657 4.807-3.33 4.463-8.014l-.896-8.152-.326-8.802zm-7.506-2.061l-27.571-.038c-.662.161-.945.85-.858 2.05l.196 5.749 1.023 11.202c.051.65.195 1.148.412 1.497l.541.505c.896.161 2.215.287 3.963.355 1.721.052 4.738.204 9.033.459 4.298.257 9.309.002 15.02-.775l.129-.131c.531-.685.688-1.746.469-3.194-.055-5.538-.463-10.739-1.192-15.626-.093-1.187-.479-1.866-1.165-2.053z" fill="none"/><path fill="#C5CDE3" d="M185.369 210.831c-.048-1.167-.785-1.762-2.225-1.778l-9.683-.064c-1.797-.076-3.466-.093-4.995-.057-1.93-.042-3.068.308-3.406 1.048-.195 1.661-.238 3.571-.1 5.722l.047 5.602c.205.162.4.286.594.349.895.152 1.773.202 2.641.155h.206l.362.001c3.873.016 7.639.046 11.315.064l4.735.083c.406-.939.588-1.863.576-2.801l-.067-8.324z"/><path stroke="#737A90" stroke-width="2.036" stroke-linecap="round" stroke-linejoin="round" stroke-miterlimit="10" d="M183.144 209.053l-9.683-.064c-1.797-.076-3.466-.093-4.995-.057-1.93-.042-3.068.308-3.406 1.048-.195 1.661-.238 3.571-.1 5.722l.047 5.602c.205.162.4.286.594.349.895.152 1.773.202 2.641.155h.206l.362.001c3.873.016 7.639.046 11.315.064l4.735.083c.406-.939.588-1.863.576-2.801l-.068-8.323c-.047-1.168-.785-1.763-2.224-1.779z" fill="none"/><path fill="#245E27" d="M117.206 166.508c-.942-.715-2.263-1.538-3.931-2.48l-.104-.048c-1.554-.692-3.262-1.268-5.126-1.731l-.022-.026c-3.421-.792-6.822-1.146-10.199-1.089-3.473.059-6.696.642-9.687 1.737h.026c-3.02 1.043-5.777 2.554-8.268 4.539v.024c-2.474 1.958-4.627 4.23-6.483 6.791-1.865 2.584-3.319 5.405-4.357 8.492-1.08 3.186-1.06 6.412.038 9.674v-.023c.604 1.85 1.627 3.051 3.074 3.601 1.049.451 2.344.519 3.884.207.151 1.351.554 2.663 1.185 3.926 1.848 3.642 4.617 5.144 8.307 4.512 3.351-.559 5.892-2.329 7.617-5.29 1.086 2.401 3.078 4.042 5.975 4.91h-.027c2.136.701 4.195.518 6.164-.543 3.406-1.794 5.588-4.556 6.536-8.266.794-3.088 1.06-6.185.79-9.299-.013-.249-.039-.502-.078-.749.193.15.375.29.57.425.658.538 1.371.939 2.146 1.229.685.264 1.462.462 2.331.577.789.062 1.592.013 2.383-.145 1.279-.312 2.238-1.087 2.902-2.298l.023-.023c.508-.914.859-1.862 1.067-2.849l.026-.026c.154-.863.248-1.714.287-2.549v-.052c.003-.762-.05-1.537-.151-2.302v-.023c-.169-1.061-.477-2.113-.902-3.124v.023c-.4-.998-.89-1.938-1.499-2.825l-.025-.049c-.566-.904-1.227-1.755-1.99-2.554v-.023c-.772-.84-1.603-1.593-2.482-2.281m-9.679-2.335h-.025c1.719.437 3.323.966 4.787 1.605 1.551.863 2.766 1.641 3.646 2.303h-.027c.789.603 1.539 1.29 2.227 2.055h.023c.674.713 1.254 1.487 1.758 2.304l.027.023c.529.786.981 1.616 1.342 2.501l.024.05c.376.738.62 1.513.722 2.325.143 1 .178 1.962.127 2.875-.055.949-.209 1.862-.471 2.751-.207.76-.621 1.386-1.245 1.845-.827.562-1.723.864-2.694.9-.775-.002-1.63-.23-2.561-.68-.932-.465-1.591-.865-1.965-1.177l-.621-.528c-.659-.551-1.744-1.774-3.257-3.68l.797 3.676c.462 2.103.63 4.242.507 6.425-.118 2.189-.548 4.287-1.275 6.299-.795 2.161-2.153 3.909-4.074 5.221l-.957.648-.076.025c-1.438.759-2.93.893-4.482.391h-.024c-.864-.263-1.615-.613-2.276-1.025-2.106-1.69-3.219-3.854-3.356-6.505-.065-1.449-.036-3.4.112-5.849-.739 1.461-1.195 2.935-1.354 4.396-.193 1.45-.43 2.539-.729 3.273-.312.714-.638 1.376-.963 1.975-.323.599-.802 1.186-1.425 1.748-.271.249-.558.474-.829.674-.4.3-.829.572-1.298.822-.762.36-1.576.636-2.457.797-1.49.238-2.759-.016-3.834-.729-1.875-1.642-2.971-3.691-3.275-6.18-.271-2.19-.243-4.363.084-6.55l.054-.426c.103-.561.261-1.285.468-2.173l-1.4 2.049c-.686 1.285-1.092 2.481-1.196 3.597-.104 1.1-.159 1.739-.159 1.925l-.129.049c-1.592.511-2.937.184-4.036-1.004l-.233-.376c-.191-.312-.348-.663-.461-1.052-.969-2.851-.98-5.663-.045-8.423.975-2.898 2.341-5.558 4.104-7.971 1.752-2.436 3.772-4.568 6.092-6.417 2.295-1.844 4.846-3.252 7.645-4.215 2.785-1.006 5.788-1.55 9.012-1.61 3.207-.053 6.43.285 9.651 1.043"/><path fill="#9EC94C" d="M107.501 164.173h.025c-3.221-.758-6.443-1.096-9.656-1.041-3.224.061-6.227.604-9.012 1.61-2.799.963-5.35 2.372-7.645 4.215-2.32 1.849-4.34 3.981-6.092 6.417-1.763 2.413-3.129 5.072-4.104 7.971-.936 2.76-.924 5.572.045 8.423.113.389.269.74.461 1.052l.233.376c1.1 1.188 2.444 1.515 4.036 1.004l.129-.049c0-.186.055-.825.159-1.925.104-1.115.511-2.312 1.196-3.597l1.4-2.049c-.208.888-.365 1.612-.468 2.173l-.054.426c-.327 2.187-.355 4.359-.084 6.55.305 2.488 1.4 4.538 3.275 6.18 1.075.713 2.344.967 3.834.729.881-.161 1.695-.437 2.457-.797.469-.25.897-.522 1.298-.822.271-.2.559-.425.829-.674.621-.562 1.102-1.149 1.425-1.748s.649-1.261.963-1.975c.3-.734.532-1.823.729-3.273.158-1.462.614-2.936 1.354-4.396-.148 2.448-.177 4.399-.112 5.849.138 2.65 1.25 4.814 3.356 6.505.661.412 1.41.763 2.276 1.025h.024c1.553.502 3.045.368 4.482-.391l.076-.025c.311-.213.635-.438.957-.648 1.921-1.312 3.279-3.06 4.074-5.221.728-2.012 1.157-4.109 1.275-6.299.12-2.183-.045-4.322-.507-6.425l-.797-3.676c1.511 1.905 2.598 3.129 3.257 3.68l.621.528c.374.312 1.033.712 1.965 1.177.931.449 1.785.678 2.561.68.972-.036 1.867-.338 2.694-.9.623-.459 1.038-1.085 1.245-1.845.261-.889.416-1.802.471-2.751.051-.913.014-1.875-.127-2.875-.102-.812-.346-1.587-.722-2.325l-.024-.05c-.36-.885-.812-1.715-1.342-2.501l-.027-.023c-.504-.816-1.086-1.591-1.758-2.304h-.023c-.688-.765-1.438-1.452-2.227-2.055h.027c-.881-.662-2.096-1.439-3.646-2.303-1.458-.641-3.063-1.171-4.782-1.607"/><path fill="#C5CDE3" d="M118.248 37.649c-.906.207-2.072.614-3.496 1.206-3.549 1.614-6.971 2.83-10.264 3.662-3.294.829-5.311 1.34-6.047 1.551l-.396.116c-.694.179-1.604.404-2.74.651-5.834 1.295-9.65 2.502-11.482 3.619-.714.387-1.311 1.057-1.797 2.016-.075.152-.14.298-.192.438-.308.823-.298 1.671.005 2.55 1.506 5.231 3.207 10.071 5.113 14.539.363 1.03 1.043 1.773 2.066 2.242.985.476 2.006.547 3.07.191 1.063-.351 1.834-1.007 2.334-1.971.475-.959.527-1.952.164-2.979-1.835-3.606-3.212-7.445-4.15-11.535 2.953-1.182 6.049-2.079 9.285-2.71 7.25-1.771 12.951-3.513 17.113-5.194l3.816 10.859c.367 1.026 1.043 1.77 2.062 2.231.988.483 2.011.554 3.075.202 1.04-.346 1.823-1.004 2.333-1.946.465-.979.531-1.975.164-3.006l-4.959-14.17c-.468-1.271-1.147-2.08-2.029-2.446-.863-.361-1.885-.403-3.048-.116"/><path stroke="#737A90" stroke-width="2.058" stroke-linecap="round" stroke-linejoin="round" stroke-miterlimit="10" d="M118.248 37.649c1.163-.287 2.186-.245 3.049.116.882.366 1.562 1.175 2.029 2.446l4.959 14.17c.367 1.031.301 2.027-.164 3.006-.51.942-1.293 1.601-2.333 1.946-1.064.352-2.087.281-3.075-.202-1.02-.462-1.695-1.205-2.062-2.231l-3.816-10.857c-4.162 1.682-9.863 3.423-17.113 5.194-3.236.631-6.332 1.528-9.285 2.71.938 4.09 2.315 7.929 4.15 11.535.363 1.026.311 2.02-.164 2.979-.5.964-1.268 1.62-2.334 1.971-1.064.355-2.085.284-3.07-.191-1.023-.469-1.703-1.212-2.066-2.242-1.906-4.468-3.607-9.308-5.113-14.539-.303-.879-.312-1.727-.005-2.55.053-.141.117-.286.192-.438.486-.959 1.083-1.629 1.797-2.016 1.832-1.117 5.648-2.324 11.482-3.619 1.136-.247 2.046-.473 2.74-.651l.396-.116c.736-.211 2.753-.722 6.047-1.551 3.293-.832 6.715-2.048 10.264-3.662 1.422-.593 2.588-1.001 3.495-1.208z" fill="none"/><path fill="#AFB5D4" d="M141.89 47.741c-15.906 2.829-27.787 6.161-35.646 9.994-12.576 5.814-21.438 9.356-26.572 10.643-5.148 1.307-10.601 3.362-16.346 6.185-5.754 2.799-10.533 5.497-14.322 8.061-.916 3.141-.352 6.582 1.721 10.323l.051.085.191.412.24.672c.248.753.422 1.521.537 2.286.438 2.185 1.122 3.669 2.062 4.474 11.49-5.716 22.815-10.943 33.978-15.718 5.432-2.306 9.94-4.131 13.543-5.482l10.251-3.888c10.69-4.262 18.266-6.783 22.733-7.576l19.637-3.819c7.025-1.317 14.003-2.051 20.959-2.21.191-1.262-.225-3.107-1.248-5.52-.075-.174-.143-.338-.226-.494-.337-.768-.618-1.4-.851-1.911l-.012-.025-.357-.774c-.185-.412-.37-.814-.539-1.217-.748-1.66-1.367-3.062-1.885-4.178l-.379-.835c-.373-.785-.734-1.503-1.094-2.183-.508-.906-1.54-1.293-3.068-1.176-7.899.73-15.69 2.018-23.358 3.871"/><path stroke="#737A90" stroke-width="2.058" stroke-linecap="round" stroke-linejoin="round" stroke-miterlimit="10" d="M141.89 47.741c7.668-1.854 15.459-3.142 23.357-3.872 1.528-.117 2.561.27 3.068 1.176.359.68.721 1.397 1.094 2.183l.379.835c.518 1.116 1.137 2.518 1.885 4.178.169.402.354.805.539 1.217.102.201.217.468.357.774l.012.025c.232.511.514 1.144.851 1.911l.226.494c1.023 2.412 1.439 4.258 1.248 5.52-6.956.159-13.934.893-20.959 2.21l-19.637 3.819c-4.468.793-12.043 3.314-22.733 7.576l-10.251 3.888c-3.603 1.352-8.111 3.177-13.543 5.482-11.162 4.774-22.487 10.002-33.978 15.718-.94-.805-1.624-2.289-2.062-4.474-.115-.765-.289-1.533-.537-2.286l-.24-.672-.191-.412-.051-.085c-2.072-3.741-2.637-7.183-1.721-10.323 3.789-2.563 8.568-5.262 14.322-8.061 5.745-2.822 11.197-4.878 16.346-6.185 5.135-1.286 13.996-4.828 26.572-10.643 7.86-3.832 19.741-7.164 35.647-9.993z" fill="none"/></g></svg>