<?xml version="1.0" encoding="utf-8"?>
<!-- Generator: Adobe Illustrator 16.2.1, SVG Export Plug-In . SVG Version: 6.00 Build 0)  -->
<!DOCTYPE svg PUBLIC "-//W3C//DTD SVG 1.1//EN" "http://www.w3.org/Graphics/SVG/1.1/DTD/svg11.dtd">
<svg version="1.1" xmlns="http://www.w3.org/2000/svg" xmlns:xlink="http://www.w3.org/1999/xlink" x="0px" y="0px"
	 width="271.642px" height="402.041px" viewBox="0 0 271.642 402.041" enable-background="new 0 0 271.642 402.041"
	 xml:space="preserve">
<g id="base">
</g>
<g id="book3">
</g>
<g id="_x38_" display="none">
</g>
<g id="_x37_" display="none">
</g>
<g id="_x36_" display="none">
</g>
<g id="_x35_" display="none">
</g>
<g id="_x34_" display="none">
</g>
<g id="_x33_" display="none">
</g>
<g id="_x32_" display="none">
</g>
<g id="_x31_" display="none">
</g>
<g id="_x30_">
	<ellipse fill="#D6DEDB" cx="138.829" cy="335.6" rx="85" ry="21.5"/>
	<g>
		<path fill="#245E27" d="M162.435,174.919l-0.025-0.024c-5.806-10.879-8.451-25.101-7.924-42.646l-43.162,3.836
			c3.175,18.337,1.71,33.599-4.369,45.759c-0.018,0.013-0.041,0.038-0.053,0.077c-0.555,0.923-1.07,1.885-1.533,2.865
			c-3.715,7.421-5.488,15.742-5.332,24.958c0.221,12.659,3.996,23.282,11.347,31.881c7.255,8.505,15.897,12.535,25.946,12.088
			c10.018-0.473,18.522-5.297,25.488-14.455c7.016-9.259,10.418-20.213,10.199-32.874c-0.102-5.923-0.986-11.397-2.64-16.427
			c-0.865-2.558-1.944-4.94-3.266-7.138C165.525,180.183,163.972,177.543,162.435,174.919"/>
		
			<path fill="none" stroke="#245E27" stroke-width="1.9958" stroke-linecap="round" stroke-linejoin="round" stroke-miterlimit="10" d="
			M162.41,174.895c-5.806-10.879-8.451-25.101-7.924-42.646l-43.162,3.836c3.175,18.337,1.71,33.599-4.369,45.759
			c-0.018,0.012-0.041,0.038-0.053,0.077c-0.555,0.923-1.07,1.885-1.533,2.865c-3.715,7.421-5.488,15.742-5.332,24.958
			c0.221,12.659,3.996,23.282,11.347,31.881c7.255,8.505,15.897,12.535,25.946,12.088c10.018-0.473,18.522-5.297,25.488-14.455
			c7.016-9.259,10.418-20.213,10.199-32.874c-0.102-5.923-0.986-11.397-2.64-16.427c-0.866-2.558-1.944-4.94-3.266-7.138
			c-1.587-2.635-3.14-5.275-4.677-7.899L162.41,174.895z"/>
		<path fill="#9EC94C" d="M161.589,175.531c-0.041-0.048-0.08-0.097-0.109-0.158c-5.76-10.78-8.44-24.788-8.053-42.029
			l-40.892,3.632c2.97,18.098,1.413,33.198-4.645,45.283c-0.037,0.041-0.061,0.091-0.087,0.144
			c-0.541,0.884-1.046,1.819-1.495,2.777v0.022c-3.647,7.283-5.39,15.452-5.232,24.496c0.215,12.408,3.921,22.835,11.11,31.277
			h0.016c7.029,8.238,15.397,12.147,25.108,11.737c9.708-0.486,17.93-5.157,24.679-14.016v-0.013
			c6.874-9.089,10.205-19.843,9.992-32.253c-0.1-5.823-0.961-11.2-2.59-16.145c-0.832-2.496-1.899-4.807-3.182-6.954v0.015
			C164.65,180.733,163.101,178.12,161.589,175.531"/>
		<path fill="#5A6174" d="M50.796,90.594l3.346,10.33c5.236,0.131,10.877-0.531,16.945-1.998c3.378-1.117,8.041-1.855,13.979-2.205
			c29.557-6.186,59.424-17.658,89.631-34.402l-5.031-10.879L50.796,90.594z"/>
		
			<path fill="none" stroke="#737A90" stroke-width="2.0575" stroke-linecap="round" stroke-linejoin="round" stroke-miterlimit="10" d="
			M50.796,90.594l118.869-39.154l5.031,10.879c-30.207,16.744-60.074,28.217-89.631,34.402c-5.938,0.35-10.601,1.088-13.979,2.205
			c-6.068,1.467-11.709,2.129-16.945,1.998L50.796,90.594z"/>
		<path fill="#9EC94C" d="M164.012,73.49c2.198-0.732,3.646-1.859,4.347-3.389c-2.326,0.211-5.045-0.449-8.183-1.98
			c-8.269-5.92-19.257-7.965-32.969-6.131c0.033-1.496,0.729-2.938,2.089-4.311c-3.694,0.137-7.704,1.373-12.059,3.709
			c-1.23-0.307-1.535-1.391-0.914-3.238c-4.578,1.184-8.504,4.076-11.751,8.65c-5.937-0.605-11.687,0.141-17.243,2.229
			c2.847,0.232,4.805,1.031,5.871,2.402c-7.885,2.976-14.717,8.417-20.509,16.327c-2.119,2.89-4.378,4.787-6.77,5.693
			c1.337,1.067,3.153,1.444,5.458,1.149c-3.363,8.011-6.629,12.729-9.786,14.15c1.497,1.071,3.524,1.377,6.068,0.924
			c-0.222,1.318-0.631,2.592-1.235,3.793c-0.294,0.594-0.635,1.158-1.015,1.721c-0.812,1.184-1.812,2.309-3.024,3.366
			c-1.102,0.983-2.375,1.913-3.803,2.802c2.047,2.021,5.498,2.184,10.356,0.5c-0.437,1.521-0.684,3.063-0.757,4.619
			c-0.066,1.398,0.084,2.773,0.455,4.123c0.344,1.32,0.898,2.539,1.649,3.66c0.731,1.09,1.688,2.128,2.848,3.118
			c0.538-1.378,1.253-2.576,2.141-3.612c0.696,1.161,1.431,2.264,2.22,3.325c0.279,0.373,0.568,0.742,0.859,1.111
			c5.001,6.241,11.718,10.53,20.131,12.854c-0.309-1.095-0.338-2.188-0.089-3.296c6.759,4.031,14.513,5.878,23.273,5.509
			c-0.366-1.124-0.323-2.245,0.103-3.38c0.643,0.457,1.32,0.891,2.038,1.275c0.684,0.348,1.396,0.669,2.133,0.967
			c0.789,0.344,1.598,0.608,2.417,0.816c0.936,0.236,1.904,0.398,2.9,0.507c0.513,0.05,1.035,0.06,1.559,0.025
			c0.947-0.033,1.88-0.182,2.799-0.442c0.776-0.241,1.492-0.571,2.144-1c0.743-0.489,1.429-0.994,2.065-1.535
			c0.683-0.528,1.271-1.113,1.789-1.752c0.539-0.626,1.068-1.271,1.586-1.928c0.529-0.646,0.982-1.363,1.352-2.13
			c0.908,0.834,1.465,1.819,1.658,2.981c8.008-3.453,14.086-8.452,18.262-14.979c0.736,0.883,1.216,1.877,1.45,2.991
			c7.747-6.856,11.987-15.181,12.712-24.97c1.317,0.276,2.629,0.926,3.941,1.947c1.941-5.839,0.691-11.115-3.758-15.855
			c5.123-0.59,8.137-2.227,9.029-4.916c-1.688-0.176-3.244-0.467-4.684-0.868c-1.577-0.423-3.004-0.993-4.28-1.702
			c-0.6-0.338-1.166-0.695-1.702-1.098c-1.102-0.813-2.053-1.775-2.862-2.863c2.487-0.691,4.157-1.84,4.997-3.444
			C175.837,82.009,170.732,79.199,164.012,73.49"/>
		<path fill="none" stroke="#245E27" stroke-width="2.0479" stroke-linecap="round" stroke-miterlimit="10" d="M164.012,73.49
			c6.72,5.709,11.825,8.519,15.308,8.427c-0.84,1.604-2.51,2.753-4.997,3.444c0.81,1.088,1.761,2.05,2.862,2.863
			c0.536,0.402,1.103,0.76,1.702,1.098c1.276,0.709,2.703,1.279,4.28,1.702c1.439,0.401,2.995,0.692,4.684,0.868
			c-0.893,2.689-3.906,4.326-9.029,4.916c4.449,4.74,5.699,10.017,3.758,15.855c-1.312-1.021-2.624-1.671-3.941-1.947
			c-0.725,9.789-4.965,18.113-12.712,24.97c-0.234-1.114-0.714-2.108-1.45-2.991c-4.176,6.526-10.254,11.525-18.262,14.979
			c-0.193-1.162-0.75-2.147-1.658-2.981c-0.369,0.767-0.822,1.483-1.352,2.13c-0.518,0.657-1.047,1.302-1.586,1.928
			c-0.518,0.639-1.106,1.224-1.789,1.752c-0.637,0.541-1.322,1.046-2.065,1.535c-0.651,0.429-1.367,0.759-2.144,1
			c-0.919,0.261-1.852,0.409-2.799,0.442c-0.523,0.034-1.046,0.024-1.559-0.025c-0.996-0.108-1.965-0.271-2.9-0.507
			c-0.819-0.208-1.628-0.473-2.417-0.816c-0.737-0.298-1.449-0.619-2.133-0.967c-0.718-0.385-1.396-0.818-2.038-1.275
			c-0.426,1.135-0.469,2.256-0.103,3.38c-8.761,0.369-16.515-1.478-23.273-5.509c-0.249,1.107-0.22,2.201,0.089,3.296
			c-8.413-2.323-15.13-6.612-20.131-12.854c-0.291-0.369-0.58-0.738-0.859-1.111c-0.789-1.062-1.523-2.164-2.22-3.325
			c-0.888,1.036-1.603,2.234-2.141,3.612c-1.159-0.99-2.116-2.028-2.848-3.118c-0.751-1.121-1.306-2.34-1.649-3.66
			c-0.371-1.35-0.521-2.725-0.455-4.123c0.073-1.556,0.32-3.099,0.757-4.619c-4.858,1.684-8.31,1.521-10.356-0.5
			c1.428-0.889,2.701-1.818,3.803-2.802c1.213-1.058,2.212-2.183,3.024-3.366c0.38-0.562,0.721-1.127,1.015-1.721
			c0.604-1.201,1.014-2.475,1.235-3.793c-2.544,0.453-4.571,0.147-6.068-0.924c3.157-1.421,6.423-6.14,9.786-14.15
			c-2.305,0.295-4.121-0.082-5.458-1.149c2.392-0.906,4.65-2.804,6.77-5.693c5.792-7.91,12.624-13.352,20.509-16.327
			c-1.066-1.371-3.024-2.17-5.871-2.402c5.557-2.09,11.307-2.834,17.243-2.229c3.247-4.574,7.173-7.467,11.751-8.65
			c-0.621,1.848-0.316,2.932,0.914,3.238c4.354-2.336,8.364-3.572,12.059-3.709c-1.36,1.373-2.056,2.814-2.089,4.311
			c13.712-1.834,24.7,0.211,32.969,6.131c3.138,1.531,5.856,2.191,8.183,1.98C167.659,71.631,166.21,72.758,164.012,73.49z"/>
		<path fill="#D8382A" d="M144.519,109.192c-0.033,0.021-0.061,0.026-0.084,0.032l0.088-0.01
			C144.522,109.204,144.522,109.204,144.519,109.192"/>
		<path fill="#1F1A1A" d="M144.435,109.225c0.223,3.038-0.981,5.979-3.627,8.824c-3.154,3.445-7.397,5.746-12.736,6.926
			c-5.352,1.193-10.246,0.928-14.69-0.805c-3.213-1.252-5.501-3-6.86-5.252c-0.066,0-0.141,0.02-0.205,0.02
			c-7.586,1.012-15.389,1.56-23.407,1.657c11.093,8.404,21.542,12.584,31.337,12.532c9.793-0.069,19.805-2.377,30.009-6.945
			c11.095-4.939,18.519-14.153,22.246-27.627c-7.05,4.132-14.382,7.674-21.981,10.638c0.003,0.012,0.003,0.012,0.004,0.022
			L144.435,109.225z"/>
		<path fill="#D8382A" d="M140.808,118.049c2.646-2.846,3.85-5.786,3.627-8.824c-11.959,4.66-24.59,7.887-37.914,9.693
			c1.359,2.252,3.647,4,6.86,5.252c4.444,1.732,9.339,1.998,14.69,0.805C133.411,123.795,137.654,121.496,140.808,118.049"/>
		
			<path fill="none" stroke="#1F1A1A" stroke-width="0.0125" stroke-linecap="round" stroke-linejoin="round" stroke-miterlimit="10" d="
			M144.519,109.192c7.6-2.964,14.932-6.506,21.981-10.638c-3.728,13.474-11.151,22.688-22.246,27.627
			c-10.204,4.568-20.216,6.876-30.013,6.945c-9.791,0.052-20.24-4.128-31.333-12.532c8.019-0.098,15.821-0.646,23.407-1.657"/>
		
			<path fill="none" stroke="#D8382A" stroke-width="0.0125" stroke-linecap="round" stroke-linejoin="round" stroke-miterlimit="10" d="
			M106.316,118.938c0.064,0,0.139-0.02,0.205-0.02c13.324-1.807,25.955-5.033,37.914-9.693c0.022-0.006,0.051-0.012,0.084-0.032
			 M106.521,118.918c1.359,2.252,3.647,4,6.86,5.252c4.444,1.732,9.339,1.998,14.69,0.805c5.339-1.178,9.582-3.479,12.736-6.926
			c2.646-2.846,3.85-5.786,3.627-8.824"/>
		<path fill="#FFFFFF" d="M135.66,77.894c-3.57,0.212-6.531,1.604-8.914,4.197c-2.383,2.579-3.45,5.593-3.219,9.036
			c0.221,3.451,1.678,6.322,4.349,8.611c2.711,2.291,5.845,3.332,9.417,3.118c3.559-0.22,6.521-1.624,8.868-4.228
			c2.382-2.578,3.447-5.6,3.229-9.051c-0.231-3.445-1.687-6.305-4.356-8.578C142.337,78.704,139.214,77.66,135.66,77.894"/>
		<path fill="#FFFFFF" d="M89.697,98.852c0.219,3.436,1.676,6.298,4.36,8.593c2.698,2.296,5.833,3.339,9.405,3.123
			c3.547-0.204,6.506-1.62,8.867-4.222c2.38-2.596,3.459-5.609,3.245-9.046c-0.222-3.448-1.681-6.32-4.388-8.599
			c-2.688-2.299-5.805-3.329-9.344-3.1c-3.574,0.212-6.549,1.62-8.93,4.2C90.558,92.377,89.493,95.4,89.697,98.852"/>
		<path fill="#1F1A1A" d="M139.359,86.84c-0.988-1.157-2.244-1.799-3.773-1.939c-1.544-0.144-2.907,0.26-4.104,1.203
			c-1.198,0.956-1.861,2.166-2.01,3.645c-0.147,1.477,0.268,2.786,1.248,3.943c0.987,1.156,2.242,1.799,3.774,1.941
			c1.532,0.142,2.888-0.26,4.085-1.203c1.196-0.947,1.861-2.159,2.008-3.646C140.743,89.305,140.338,87.994,139.359,86.84"/>
		<path fill="#1F1A1A" d="M109.511,93.748c-0.99-1.157-2.244-1.795-3.775-1.936c-1.541-0.143-2.906,0.258-4.102,1.203
			c-1.199,0.954-1.863,2.164-2.012,3.642c-0.146,1.481,0.27,2.788,1.246,3.944c0.992,1.158,2.248,1.799,3.777,1.939
			c1.529,0.143,2.887-0.26,4.084-1.205c1.2-0.943,1.861-2.152,2.006-3.644C110.896,96.217,110.488,94.905,109.511,93.748"/>
		<path fill="#C06513" d="M132.478,69.85c-0.697-0.728-1.604-0.687-2.705,0.129c-4.284,3.268-8.21,6.752-11.783,10.426
			c-0.73,0.755-1.357,1.026-1.897,0.816c-6.591-2.471-11.029-3.955-13.343-4.456c-2.354-0.514-3.869-0.311-4.543,0.626
			c-0.693,0.916-0.785,1.896-0.254,2.968c-7.832,2.13-13.405,4.851-16.739,8.147c-3.317,3.268-4.958,5.396-4.923,6.399
			c0.015,0.986,1.502,1.108,4.466,0.356c-2.079,2.574-3.58,5.454-4.482,8.646c-0.445,1.552-0.536,2.699-0.271,3.447
			c0.034,0.097,0.083,0.185,0.136,0.288c0.029,0.059,0.064,0.1,0.09,0.146c0.057,0.075,0.135,0.124,0.213,0.169
			c0.201,0.122,0.422,0.2,0.658,0.26c0.299,0.075,0.613,0.106,0.92,0.11c0.246,0.034,0.498,0.042,0.754,0.047
			c4.615-0.065,8.914-1.275,12.864-3.637c-0.834-4.154-0.441-7.756,1.185-10.833c1.596-3.065,4.08-4.592,7.422-4.546
			c2.621,0.029,4.967,0.34,7.024,0.936l3.134,1.092c2.01,0.732,3.666,1.2,4.95,1.408c1.272,0.208,2.745,0.107,4.425-0.303
			c1.706-0.404,3.447-1.378,5.23-2.922c1.783-1.56,3.105-2.719,3.967-3.482c1.001-0.855,2.092-1.704,3.284-2.529
			c1.476-0.975,2.985-1.743,4.526-2.287c2.479-0.875,4.596-0.957,6.352-0.245c0.868,0.355,1.654,0.921,2.367,1.694
			c0.729,0.766,1.371,1.598,1.943,2.478c1.053,1.694,1.707,3.774,1.946,6.222c4.874,0.338,9.827-0.408,14.86-2.248
			c1.492-0.521,2.189-1.24,2.092-2.18c-0.047-1.014-0.955-2.234-2.695-3.644c-2.587-2.112-5.148-3.798-7.68-5.029
			c0.758-0.056,1.59-0.335,2.518-0.83c2.049-1.118,1.867-2.192-0.572-3.213c-9.063-3.674-17.075-4.478-24.018-2.407
			C133.581,71.161,133.109,70.488,132.478,69.85"/>
		<path fill="#245E27" d="M197.275,123.141c-2.757,0.1-5.76,2.016-9.031,5.765c-0.035,0.022-0.051,0.053-0.068,0.083
			c-2.469,3.539-4.279,6.787-5.429,9.761c-3.837-0.797-6.704,0.082-8.61,2.655c-1.971,2.489-2.897,6.75-2.789,12.802
			c-1.484,11.33-9.518,27.458-24.109,48.373c-0.148,0.181-0.207,0.394-0.174,0.633c0.014,0.228,0.102,0.427,0.26,0.602
			l14.637,15.487c0.134,0.131,0.281,0.221,0.475,0.27c0.176,0.054,0.364,0.054,0.554,0.014c0.181-0.035,0.339-0.134,0.474-0.262
			c19.709-19.292,36.006-38.16,48.861-56.611c0.186-0.145,0.363-0.271,0.551-0.414c0.008-0.014,0.02-0.021,0.029-0.034
			c2.248-1.967,3.334-4.128,3.252-6.499c-0.006-0.024-0.012-0.048-0.004-0.063c-0.264-2.944-1.594-4.947-3.998-6.016
			c-1.326-0.604-2.598-0.988-3.814-1.139c0.527-2.408,0.023-4.398-1.514-5.986c-1.326-1.409-3.074-2.246-5.25-2.506
			c2.322-5.354,2.971-9.424,1.963-12.194C202.38,124.492,200.292,122.92,197.275,123.141 M197.392,125.135l0.012-0.002
			c1.982-0.072,3.383,1.042,4.172,3.354c0.826,2.576,0.068,6.428-2.25,11.559c-2.084,0.366-3.784,1.425-5.125,3.19
			c-1.385,1.805-2.245,4.044-2.574,6.711c-0.374,2.87,0.264,4.993,1.893,6.346c1.581,1.362,3.365,1.969,5.355,1.829l0.012,0.006
			c0.039-0.01,0.08-0.006,0.123-0.004c-0.164,2.644,0.379,4.545,1.641,5.685c1.385,1.471,3.705,1.861,6.986,1.176
			c0.025-0.006,0.049-0.013,0.088-0.024c0.211-0.059,0.432-0.132,0.637-0.203c-12.252,17.097-27.447,34.571-45.6,52.408
			l-13.355-14.126c14.584-20.991,22.578-37.21,24.002-48.644c-0.002-0.05-0.004-0.103-0.002-0.142
			c-0.104-5.495,0.695-9.383,2.394-11.66c1.582-1.992,3.99-2.574,7.219-1.726c2.337,1.153,3.792,2.853,4.354,5.123
			c0.578,2.373,0.519,4.508-0.163,6.401l0.012-0.001l0.004,0.009c-0.672,1.762-1.673,2.949-3.002,3.583
			c-1.225,0.55-2.344,0.486-3.383-0.196c-1.11-0.77-2.519-2.377-4.239-4.831c-0.12,0.087-0.189,0.262-0.194,0.508
			c-0.02,0.255,0.179,0.992,0.563,2.249c0.39,1.251,1.291,2.497,2.698,3.728c1.663,1.105,3.472,1.227,5.431,0.352
			c1.833-0.81,3.188-2.387,4.06-4.725c0.84-2.223,0.92-4.739,0.227-7.534c-0.639-2.614-2.201-4.646-4.711-6.061
			c1.097-2.84,2.832-5.942,5.167-9.312C192.623,126.992,195.13,125.316,197.392,125.135 M193.68,150.192
			c0.287-2.302,1.019-4.225,2.193-5.775c1.089-1.435,2.511-2.262,4.267-2.47l0.012-0.004l0.012-0.003
			c2.191,0.038,3.91,0.69,5.139,1.969c1.146,1.252,1.441,2.857,0.857,4.815c-0.016,0.003-0.016,0.003-0.01,0.016
			c-0.039,0.101-0.072,0.215-0.104,0.325c-0.023,0.022-0.027,0.048-0.031,0.077l0.004,0.01l-0.004,0.029
			c-0.016,0.004-0.012,0.015-0.006,0.025c-0.012,0.019-0.012,0.019-0.02,0.032l0.006,0.015c-0.672,1.928-1.676,3.521-2.992,4.784
			l-0.014,0.007c-0.984,0.924-1.998,1.542-3.031,1.861c-0.066,0.004-0.117,0.018-0.162,0.046c-0.361,0.088-0.711,0.146-1.064,0.18
			c-1.428,0.089-2.705-0.359-3.832-1.333C193.822,153.804,193.414,152.268,193.68,150.192 M202.126,162.408
			c-0.895-0.959-1.223-2.545-1.004-4.777c1.137-0.437,2.24-1.143,3.32-2.162c1.414-1.332,2.506-2.99,3.283-4.974
			c1.119,0.091,2.293,0.423,3.545,0.996c1.676,0.79,2.605,2.231,2.816,4.317c0.014,1.792-0.824,3.44-2.541,4.948
			c-0.186,0.144-0.363,0.27-0.531,0.409c-0.059,0.029-0.107,0.057-0.145,0.105c-1.105,0.764-2.332,1.341-3.674,1.754
			c-0.014,0.006-0.014,0.006-0.025,0.008C204.83,163.521,203.134,163.306,202.126,162.408"/>
		<path fill="#9EC94C" d="M197.404,125.133l-0.012,0.002c-2.262,0.182-4.77,1.857-7.552,5.025c-2.335,3.369-4.07,6.472-5.167,9.312
			c2.51,1.415,4.072,3.446,4.711,6.061c0.693,2.795,0.613,5.312-0.227,7.534c-0.871,2.338-2.228,3.915-4.06,4.725
			c-1.959,0.875-3.768,0.754-5.431-0.352c-1.407-1.23-2.309-2.477-2.698-3.728c-0.385-1.257-0.583-1.994-0.563-2.249
			c0.005-0.246,0.074-0.421,0.197-0.508c1.718,2.454,3.127,4.062,4.236,4.831c1.039,0.683,2.158,0.746,3.383,0.196
			c1.329-0.634,2.33-1.821,3.002-3.583l-0.016-0.008c0.682-1.894,0.741-4.028,0.163-6.401c-0.562-2.271-2.017-3.97-4.354-5.123
			c-3.228-0.849-5.637-0.267-7.219,1.726c-1.698,2.277-2.497,6.165-2.394,11.66c-0.002,0.039,0,0.092,0.002,0.142
			c-1.424,11.434-9.418,27.652-24.002,48.644l13.355,14.126c18.152-17.837,33.348-35.312,45.6-52.408
			c-0.205,0.071-0.426,0.145-0.637,0.201c-0.039,0.014-0.062,0.021-0.088,0.026c-3.281,0.686-5.602,0.295-6.986-1.176
			c-1.262-1.14-1.805-3.041-1.641-5.685c-0.043-0.002-0.084-0.006-0.123,0.004l-0.012-0.006c-1.99,0.14-3.774-0.467-5.355-1.829
			c-1.629-1.353-2.267-3.476-1.893-6.346c0.329-2.667,1.189-4.906,2.574-6.711c1.341-1.766,3.041-2.824,5.125-3.19
			c2.318-5.131,3.076-8.982,2.25-11.559C200.787,126.175,199.386,125.061,197.404,125.133"/>
		<path fill="#9EC94C" d="M195.874,144.417c-1.175,1.551-1.903,3.474-2.193,5.775c-0.267,2.075,0.142,3.611,1.22,4.606
			c1.127,0.974,2.404,1.422,3.832,1.333c0.354-0.034,0.703-0.092,1.064-0.18c0.045-0.028,0.096-0.042,0.162-0.046
			c1.033-0.319,2.047-0.938,3.031-1.861l0.016-0.007c1.314-1.263,2.318-2.856,2.99-4.784l-0.006-0.015
			c0.008-0.014,0.008-0.014,0.02-0.032c-0.006-0.011-0.01-0.021,0.006-0.025l0.004-0.029l-0.004-0.01
			c0.004-0.029,0.01-0.055,0.031-0.077c0.031-0.11,0.064-0.225,0.104-0.325c-0.006-0.013-0.006-0.013,0.01-0.016
			c0.584-1.958,0.289-3.563-0.857-4.815c-1.229-1.278-2.947-1.931-5.139-1.969l-0.012,0.003l-0.012,0.004
			C198.384,142.155,196.962,142.982,195.874,144.417"/>
		<path fill="#9EC94C" d="M201.123,157.631c-0.219,2.233,0.109,3.818,1.004,4.777c1.008,0.897,2.703,1.113,5.047,0.625
			c0.01-0.002,0.01-0.002,0.023-0.008c1.342-0.413,2.568-0.99,3.674-1.754c0.037-0.049,0.086-0.076,0.145-0.105
			c0.17-0.14,0.346-0.266,0.531-0.409c1.717-1.508,2.555-3.156,2.539-4.948c-0.209-2.086-1.139-3.527-2.814-4.317
			c-1.252-0.573-2.426-0.905-3.545-0.996c-0.777,1.983-1.867,3.642-3.283,4.974C203.363,156.488,202.259,157.194,201.123,157.631"/>
		<path fill="#AFB5D4" d="M118.95,220.565c0.525-5.663-1.657-8.388-6.565-8.183l-27.57-0.039c-3.948-0.169-6.425,1.254-7.411,4.292
			c-0.223,0.783-0.403,1.721-0.548,2.82c-0.117,0.591-0.223,1.689-0.316,3.327c-0.254,5.235-0.738,10.123-1.471,14.669
			c-0.538,5.651,1.66,8.363,6.594,8.161l27.57,0.038c4.867,0.245,7.574-2.478,8.113-8.14L118.95,220.565z M111.807,218.506
			c0.659,0.187,0.917,0.865,0.8,2.051l-1.604,16.946c-0.105,1.162-0.508,1.849-1.194,2.049l-27.571-0.038
			c-0.674-0.19-0.957-0.864-0.854-2.051l1.63-16.948c0.118-1.2,0.533-1.888,1.247-2.046L111.807,218.506z"/>
		
			<path fill="none" stroke="#737A90" stroke-width="2.0363" stroke-linecap="round" stroke-linejoin="round" stroke-miterlimit="10" d="
			M111.807,218.506l-27.547-0.037c-0.714,0.158-1.129,0.846-1.247,2.046l-1.63,16.948c-0.103,1.187,0.181,1.86,0.854,2.051
			l27.571,0.038c0.687-0.2,1.089-0.887,1.194-2.049l1.604-16.946C112.724,219.371,112.466,218.692,111.807,218.506z M118.95,220.565
			l-1.603,16.946c-0.541,5.662-3.248,8.385-8.115,8.14l-27.57-0.038c-4.934,0.202-7.132-2.51-6.594-8.161
			c0.732-4.546,1.219-9.434,1.471-14.669c0.094-1.638,0.2-2.736,0.316-3.327c0.145-1.1,0.325-2.037,0.548-2.82
			c0.986-3.038,3.463-4.461,7.411-4.292l27.57,0.039C117.292,212.178,119.475,214.902,118.95,220.565z"/>
		<rect x="88.058" y="208" transform="matrix(1 0.0014 -0.0014 1 0.2998 -0.1371)" fill="#C5CDE3" width="20.246" height="12.448"/>
		
			<rect x="88.058" y="208" transform="matrix(1 0.0014 -0.0014 1 0.2998 -0.1371)" fill="none" stroke="#737A90" stroke-width="2.0363" stroke-linecap="round" stroke-linejoin="round" stroke-miterlimit="10" width="20.246" height="12.448"/>
		<path fill="#AFB5D4" d="M197.187,186.395c-1.022-0.862-2.262-1.289-3.726-1.29l-3.859-0.046c-2.82,0.211-5.784,0.345-8.906,0.377
			c-1.591,0.021-3.212,0.032-4.866,0.03c-11.044-0.205-18.368-0.36-21.955-0.456l-32.025-0.379
			c-6.887-0.15-14.639-0.07-23.273,0.219c-1.969,0.054-3.977,0.142-6.036,0.228c-2.639,0.059-5.062,0.056-7.275-0.009l-3.598-0.106
			l-0.515-0.015c-1.451-0.001-2.709,0.425-3.758,1.285c-0.713,0.608-1.166,1.321-1.389,2.11c-0.09,0.334-0.145,0.959-0.146,1.897
			l-0.002,2.265c-0.001,1.408,0.501,2.611,1.523,3.599c1.046,1.005,2.535,1.556,4.451,1.657h0.012
			c4.207,0.242,8.416,0.337,12.645,0.269c1.906-0.036,5.283-0.158,10.15-0.387c6.462-0.104,12.857-0.097,19.187,0.026l26.11,0.035
			c3.959,0.219,7.919,0.21,11.883-0.047c3.807-0.029,7.612-0.102,11.418-0.184c3.896-0.096,7.793-0.063,11.692,0.078
			c1.552,0.039,3.104,0.077,4.657,0.12c0.299,0,0.609,0,0.906,0.012c0.777,0.025,1.659,0.054,2.641,0.08h0.068l0.242,0.002
			c1.465,0.002,2.706-0.497,3.73-1.498c1.037-0.986,1.555-2.186,1.557-3.596l0.006-3.088
			C198.736,188.347,198.222,187.285,197.187,186.395"/>
		<path fill="#C5CDE3" d="M190.492,197.684c-0.297-0.012-0.607-0.012-0.906-0.012c-1.554-0.043-3.105-0.081-4.66-0.12
			c-3.896-0.142-7.793-0.174-11.689-0.078c-3.806,0.082-7.611,0.154-11.418,0.184c-3.964,0.257-7.924,0.266-11.883,0.047
			l-26.11-0.035c-6.329-0.123-12.722-0.131-19.187-0.026c-4.867,0.229-8.244,0.351-10.15,0.387
			c-4.229,0.068-8.436-0.026-12.645-0.269c0.14,1.271,0.257,2.711,0.332,4.301l0.072,4.861c0,0.162,0,0.339-0.016,0.514
			c-0.055,2.252-0.084,4.396-0.074,6.434l0.294,12.551c0.075,1.037,0.151,2.038,0.243,2.989l0.101,2.075
			c0.215,3.461,0.442,6.713,0.687,9.724c0.05,0.589,0.102,1.165,0.151,1.725c0.114,1.462,0.218,2.965,0.304,4.5
			c0.039,0.663,0.051,1.338,0.051,2.026v0.475c-0.03,1.323-0.096,2.639-0.213,3.949c-0.04,0.387-0.066,0.763-0.108,1.125v0.073
			c-0.143,1.116-0.272,2.239-0.393,3.349c-0.17,1.413-0.287,2.825-0.328,4.252c-0.013,0.172-0.015,0.348-0.015,0.523
			c-0.012,0.313-0.001,0.623,0.023,0.938c0.014,0.34,0.056,0.676,0.105,1.013c0.27,1.554,0.668,3.09,1.184,4.602
			c0.247,0.763,0.529,1.539,0.877,2.304c0.208,0.459,0.709,2.461,1.52,5.999c0.334,1.137,0.425,2.191,0.268,3.15
			c-0.156,0.938-0.545,1.786-1.182,2.547c-0.363,0.452-0.648,1.012-0.855,1.675c-0.377,1.186-0.523,2.737-0.422,4.648
			c0.039,0.786,0.115,1.651,0.229,2.576l1.444,24.626l-0.005,3.564c0.311,0.037,0.62,0.087,0.916,0.149
			c0.932,0.225,1.863,0.46,2.783,0.727c0.972,0.039,1.93,0.067,2.901,0.104c0.815,0.089,1.643,0.141,2.458,0.153
			c0.079,0,0.154,0,0.232,0.014c0.907,0.014,1.812,0.015,2.731,0.004c0.83-0.013,1.657-0.036,2.487-0.073
			c0.904-0.036,1.799-0.061,2.678-0.069c0.842-0.013,1.684,0.003,2.512,0.04c0.816,0.037,1.619,0.064,2.41,0.065
			c0.943-0.009,1.89-0.034,2.861-0.085c0.609-0.034,1.214-0.059,1.825-0.094c2.058-0.134,3.741-0.384,5.048-0.732
			c2.15-0.583,4.844-0.154,8.074,1.3c0.686,0.312,1.41,0.664,2.148,1.064c4.18,2.281,8.359,2.536,12.529,0.78
			c0.338-0.138,0.688-0.278,1.038-0.389c3.999-1.142,8.016-2.161,12.067-3.046c0.17-0.046,0.324-0.099,0.494-0.15
			c0.479-0.146,0.971-0.269,1.449-0.356c0.982-0.189,1.967-0.248,2.951-0.187c0.297,0.028,0.607,0.077,0.906,0.151
			c0.98,0.188,1.955,0.505,2.925,0.92c0.606,0.188,1.228,0.312,1.864,0.402c2.677,0.477,4.127,0.728,4.348,0.769
			c1.76,0.25,3.159,0.376,4.18,0.377c1.697,0.003,3.457-0.068,5.256-0.203c1.101-0.088,2.967-0.26,5.568-0.542l4.349-0.131
			l0.005-3.202c-0.013-0.398-0.012-0.802-0.012-1.187c0.067-10.35,0.521-20.846,1.363-31.493c0.604-5.627,0.932-9.889,1.002-12.786
			c0.027-1.29,0.004-2.314-0.075-3.065c-0.126-1.285-0.2-2.361-0.241-3.222c-0.038-0.766-0.023-1.351,0.016-1.777
			c0.076-0.674,0.275-1.424,0.574-2.249c0.104-0.274,0.221-0.562,0.335-0.85c1.416-2.884,2.236-5.083,2.456-6.593
			c0.08-0.577,0.08-1.054-0.006-1.428c-0.377-1.415-0.881-2.536-1.502-3.353c-0.54-0.685-0.823-2.263-0.859-4.739
			c-0.012-0.537,0.003-1.098,0.016-1.711l0.107-3.022v-0.103c-0.008-12.61,0.46-25.022,1.398-37.245
			c0.129-1.749,0.277-3.761,0.448-6.022C192.151,197.737,191.269,197.709,190.492,197.684"/>
		<polygon fill="#AFB5D4" points="81.152,184.947 81.667,184.962 81.372,184.949 		"/>
		<path fill="#C5CDE3" d="M82.175,202.062c-0.075-1.59-0.192-3.029-0.332-4.301h-0.012c0.14,1.385,0.254,2.764,0.329,4.123
			C82.161,201.939,82.161,201.997,82.175,202.062"/>
		<path fill="#AFB5D4" d="M126.035,322.351c-3.23-1.454-5.924-1.883-8.074-1.3c-1.307,0.349-2.99,0.599-5.048,0.732
			c-0.611,0.035-1.216,0.06-1.825,0.094c-0.972,0.051-1.918,0.076-2.861,0.085c-0.791-0.001-1.594-0.028-2.41-0.065
			c-0.828-0.037-1.67-0.053-2.512-0.04c-0.879,0.009-1.773,0.033-2.678,0.069c-0.83,0.037-1.657,0.061-2.487,0.073
			c-0.919,0.011-1.824,0.01-2.731-0.004c-0.078-0.01-0.153-0.01-0.232-0.01c-0.815-0.017-1.643-0.068-2.458-0.157
			c-0.972-0.037-1.93-0.065-2.901-0.104c-0.504,0.012-0.995,0.036-1.488,0.047c-0.737,0.038-1.475,0.064-2.213,0.101
			c-0.195,0.012-0.401,0.012-0.609,0.021c-0.219,0.013-0.441,0.013-0.66,0.012c-2.085,0.986-3.135,2.595-3.138,4.845l-0.005,3.875
			c-0.003,1.413,0.449,2.614,1.367,3.604c0.941,1,2.081,1.503,3.389,1.505l101.282,0.139c1.334,0.001,2.446-0.498,3.368-1.497
			c0.933-0.987,1.398-2.186,1.402-3.598l0.006-3.876c0.001-1.412-0.464-2.625-1.395-3.629c-0.84-0.896-1.836-1.387-3.015-1.462
			l-4.349,0.131c-2.602,0.282-4.468,0.454-5.568,0.543c-1.799,0.134-3.559,0.205-5.256,0.202c-1.021-0.001-2.42-0.127-4.18-0.377
			c-0.221-0.041-1.671-0.292-4.348-0.769c-0.637-0.09-1.258-0.215-1.864-0.402c-0.97-0.415-1.942-0.73-2.923-0.92
			c-0.301-0.074-0.611-0.123-0.909-0.151c-0.983-0.062-1.968-0.003-2.95,0.187c-0.479,0.088-0.97,0.21-1.447,0.357
			c-0.172,0.051-0.326,0.104-0.496,0.149c-4.052,0.885-8.068,1.904-12.067,3.046c-0.351,0.112-0.7,0.251-1.038,0.389
			c-4.17,1.756-8.348,1.501-12.529-0.78C127.445,323.015,126.72,322.662,126.035,322.351"/>
		
			<path fill="none" stroke="#737A90" stroke-width="2.0363" stroke-linecap="round" stroke-linejoin="round" stroke-miterlimit="10" d="
			M81.843,197.761h-0.012c-1.916-0.102-3.405-0.652-4.451-1.657c-1.022-0.987-1.524-2.19-1.523-3.599l0.002-2.265
			c0.002-0.938,0.057-1.563,0.146-1.897c0.223-0.789,0.676-1.502,1.389-2.11c1.049-0.86,2.307-1.286,3.758-1.285l0.515,0.015
			l3.598,0.106c2.213,0.064,4.637,0.067,7.275,0.009c2.062-0.086,4.067-0.174,6.036-0.228c8.632-0.289,16.387-0.369,23.273-0.219
			l32.025,0.379c3.587,0.096,10.911,0.251,21.955,0.456c1.654,0.002,3.275-0.009,4.866-0.03c3.122-0.032,6.086-0.166,8.906-0.377
			l3.858,0.046c1.465,0.001,2.704,0.428,3.727,1.29c1.035,0.891,1.549,1.952,1.549,3.189l-0.006,3.088
			c-0.002,1.41-0.52,2.609-1.557,3.596c-1.024,1.001-2.266,1.498-3.731,1.496l-0.241-0.002h-0.067 M193.133,197.762
			c-0.982-0.024-1.864-0.053-2.642-0.078c-0.297-0.012-0.607-0.012-0.906-0.012c-1.554-0.043-3.105-0.081-4.657-0.121
			c-3.899-0.141-7.796-0.173-11.692-0.077c-3.806,0.082-7.611,0.154-11.418,0.184c-3.964,0.257-7.924,0.266-11.883,0.046
			l-26.11-0.035c-6.329-0.122-12.722-0.13-19.187-0.027c-4.867,0.23-8.244,0.353-10.15,0.389c-4.229,0.068-8.438-0.026-12.645-0.269
			 M188.108,321.811l0.005-3.202c-0.013-0.398-0.012-0.802-0.012-1.187c0.067-10.35,0.521-20.846,1.363-31.493
			c0.604-5.627,0.932-9.889,1.002-12.786c0.027-1.29,0.004-2.314-0.075-3.065c-0.126-1.285-0.2-2.361-0.241-3.222
			c-0.038-0.766-0.023-1.351,0.016-1.777c0.076-0.674,0.275-1.424,0.576-2.248c0.102-0.275,0.219-0.562,0.333-0.851
			c1.416-2.884,2.236-5.083,2.456-6.593c0.08-0.577,0.08-1.054-0.006-1.428c-0.377-1.415-0.881-2.536-1.502-3.353
			c-0.54-0.685-0.823-2.263-0.859-4.739c-0.012-0.535,0.003-1.098,0.016-1.711l0.107-3.022v-0.103
			c-0.008-12.61,0.46-25.022,1.398-37.245c0.129-1.749,0.277-3.761,0.448-6.024 M81.371,184.949l3.715-0.022 M81.843,197.761
			c0.14,1.271,0.257,2.711,0.332,4.301l0.072,4.861c0,0.162,0,0.339-0.016,0.514c-0.055,2.252-0.084,4.396-0.074,6.434l0.294,12.551
			c0.075,1.04,0.151,2.038,0.243,2.989l0.101,2.075c0.215,3.461,0.442,6.713,0.687,9.724c0.05,0.589,0.102,1.165,0.151,1.725
			c0.114,1.462,0.218,2.965,0.304,4.5c0.039,0.663,0.051,1.338,0.051,2.026v0.475c-0.03,1.323-0.096,2.639-0.213,3.949
			c-0.04,0.387-0.066,0.763-0.108,1.124v0.074c-0.143,1.116-0.272,2.239-0.393,3.349c-0.17,1.413-0.288,2.825-0.328,4.252
			c-0.013,0.172-0.015,0.348-0.015,0.523c-0.012,0.313-0.001,0.623,0.023,0.938c0.014,0.34,0.056,0.676,0.105,1.013
			c0.27,1.554,0.668,3.09,1.184,4.602c0.247,0.763,0.529,1.539,0.877,2.304c0.208,0.459,0.709,2.461,1.52,5.999
			c0.334,1.137,0.425,2.191,0.268,3.15c-0.156,0.938-0.545,1.786-1.182,2.547c-0.363,0.452-0.648,1.012-0.855,1.675
			c-0.377,1.186-0.523,2.737-0.422,4.648c0.039,0.786,0.115,1.651,0.229,2.576l1.444,24.626l-0.005,3.564 M188.108,321.811
			l-4.349,0.131c-2.602,0.282-4.468,0.454-5.568,0.543c-1.799,0.134-3.559,0.205-5.257,0.202c-1.02-0.001-2.419-0.127-4.179-0.377
			c-0.221-0.041-1.671-0.292-4.348-0.769c-0.637-0.09-1.258-0.215-1.864-0.402c-0.97-0.415-1.942-0.73-2.925-0.92
			c-0.299-0.074-0.609-0.123-0.907-0.151c-0.983-0.062-1.968-0.003-2.95,0.187c-0.479,0.088-0.97,0.21-1.449,0.357
			c-0.17,0.051-0.324,0.104-0.494,0.149c-4.052,0.885-8.068,1.904-12.067,3.046c-0.351,0.11-0.7,0.247-1.038,0.389
			c-4.17,1.756-8.35,1.501-12.529-0.78c-0.738-0.4-1.463-0.753-2.148-1.064c-3.23-1.454-5.924-1.883-8.074-1.303
			c-1.307,0.352-2.99,0.602-5.048,0.735c-0.611,0.035-1.216,0.06-1.825,0.094c-0.972,0.051-1.918,0.076-2.861,0.085
			c-0.791-0.001-1.594-0.028-2.41-0.065c-0.828-0.037-1.67-0.053-2.512-0.04c-0.879,0.009-1.773,0.033-2.678,0.069
			c-0.83,0.037-1.657,0.064-2.487,0.073c-0.919,0.011-1.824,0.01-2.731-0.004c-0.078-0.01-0.153-0.01-0.232-0.01
			c-0.815-0.017-1.643-0.068-2.458-0.157c-0.972-0.037-1.93-0.065-2.901-0.104c-0.504,0.012-0.995,0.036-1.488,0.047
			c-0.737,0.038-1.475,0.064-2.213,0.101c-0.195,0.012-0.401,0.012-0.609,0.021c-0.219,0.013-0.441,0.013-0.66,0.012
			c-2.085,0.986-3.135,2.595-3.138,4.844l-0.005,3.876c-0.003,1.413,0.449,2.614,1.367,3.604c0.941,1,2.081,1.503,3.389,1.505
			l101.282,0.139c1.333,0.001,2.446-0.498,3.366-1.497c0.935-0.987,1.4-2.186,1.404-3.598l0.006-3.877
			c0.001-1.411-0.464-2.624-1.396-3.628C190.282,322.377,189.287,321.886,188.108,321.811z"/>
		<path fill="#AFB5D4" d="M181.162,204.072h-0.025c-1.554-0.04-2.901,1.169-4.042,3.619c-1.208,2.412-1.847,5.333-1.903,8.771
			l-0.262,40.246c-0.807,1.76-1.352,3.8-1.627,6.098c-0.129,1.024-0.21,2.1-0.225,3.225c-0.145,2.9,0.225,5.187,1.102,6.851
			l-1.025,32.248c-0.055,3.037,0.421,5.638,1.415,7.825c0.979,2.152,2.208,3.228,3.67,3.229h0.026
			c1.411,0.002,2.681-1.067,3.782-3.218c1.092-2.185,1.677-4.785,1.774-7.82l0.491-38.048c-0.763-0.589-1.162-2.013-1.212-4.278
			c-0.011-0.312-0.011-0.637,0.002-0.974l1.746-8.273l1.578-37.096c0.068-3.437-0.393-6.358-1.412-8.773
			C183.997,205.248,182.715,204.037,181.162,204.072"/>
		<path fill="#AFB5D4" d="M166.764,207.678c-1.046-2.455-2.352-3.665-3.904-3.63h-0.028c-1.553-0.039-2.887,1.167-3.989,3.617
			c-1.144,2.412-1.743,5.335-1.801,8.772l-0.535,49.421l-1.175,8.947c-0.223,1.1-0.045,2.989,0.562,5.675l0.045,24.624
			c-0.055,3.036,0.43,5.638,1.465,7.826c0.977,2.153,2.206,3.226,3.695,3.229h0.027c1.396,0.001,2.655-1.068,3.757-3.217
			c1.054-2.186,1.626-4.786,1.723-7.822l-0.093-29.374c-0.877-1.967-1.182-4.214-0.922-6.726l1.799-9.698l0.863-42.87
			C168.294,213.016,167.795,210.091,166.764,207.678"/>
		<path fill="#AFB5D4" d="M148.951,207.651c-1.07-2.453-2.367-3.663-3.902-3.63h-0.028c-1.554-0.037-2.89,1.17-3.991,3.62
			c-1.144,2.411-1.721,5.335-1.725,8.771l-0.472,63.919l1.132,5.177c0.27,1.187,0.15,3.487-0.373,6.923l-0.51,12.649
			c-0.004,3.038,0.525,5.639,1.568,7.828c1.021,2.152,2.249,3.226,3.698,3.229h0.026c1.45,0.001,2.693-1.07,3.734-3.219
			c1.037-2.186,1.574-4.785,1.613-7.823l0.822-88.668C150.559,212.991,150.035,210.066,148.951,207.651"/>
		<path fill="#AFB5D4" d="M127.313,203.997c-1.57-0.037-2.89,1.172-3.968,3.62c-1.092,2.411-1.612,5.335-1.566,8.771l0.713,10.126
			l-0.469,3.247l0.916,47.799l0.848,4.703c0.604,2.111,0.174,5.224-1.283,9.321l-0.07,13.474c-0.013,3.037,0.512,5.639,1.598,7.826
			c1.031,2.152,2.285,3.226,3.751,3.229h0.022c1.438,0.001,2.669-1.067,3.707-3.219c1.038-2.185,1.56-4.783,1.564-7.821
			l0.254-14.548l0.602-4.826l-0.928-3.325l-0.065-65.972c0.004-3.436-0.55-6.359-1.642-8.775c-1.086-2.45-2.405-3.663-3.961-3.63
			H127.313z"/>
		<path fill="#AFB5D4" d="M110.172,203.976h-0.028c-1.562-0.039-2.887,1.17-3.938,3.618c-1.079,2.412-1.572,5.334-1.487,8.77
			l2.031,9.779l-1.457,4.522l1.261,44.549c0.889,3.412,1.334,6.711,1.33,9.901l-1.17,5.066l-0.512,14.855
			c0.035,3.038,0.598,5.639,1.699,7.827c1.07,2.152,2.309,3.225,3.746,3.227h0.027c1.449,0.003,2.682-1.068,3.68-3.218
			c1.002-2.185,1.495-4.783,1.461-7.821l-0.654-12.077c-0.039-1.287,0.053-2.274,0.264-2.975c0.193-0.697,0.35-1.161,0.492-1.396
			c0.118-0.242,0.248-0.514,0.361-0.827c0.379-0.947,0.561-1.913,0.549-2.897c0.001-0.698-0.062-1.388-0.205-2.074
			c-0.217-1.102-0.5-2.189-0.848-3.278l-0.516-3.127l-0.557-44.947c1.035-2.357,1.624-4.108,1.74-5.223l-0.744-3.922l-0.769-5.928
			c-0.062-3.436-0.653-6.362-1.775-8.775C113.019,205.153,111.685,203.94,110.172,203.976"/>
		<path fill="#AFB5D4" d="M92.956,203.951h-0.027c-1.563-0.037-2.861,1.171-3.858,3.621c-1.055,2.409-1.549,4.809-1.49,7.194
			c-0.062,0.4-0.09,0.786-0.053,1.175c0.115,0.901,0.451,1.702,0.98,2.402c0.582,0.765,0.981,1.639,1.189,2.6
			c0.091,0.388,0.193,0.937,0.306,1.679c-0.454,1.185-0.868,2.532-1.247,4.073l-0.596,2.322l2.211,47.398l2.037,5.304
			c0.709,1.987,0.5,3.849-0.629,5.597c-0.945,1.062-1.493,3.223-1.614,6.474c0.358,3.45,0.291,7.188-0.196,11.225
			c0.062,3.038,0.653,5.639,1.752,7.826c1.096,2.152,2.389,3.228,3.852,3.229h0.026c1.411,0.002,2.628-1.068,3.63-3.218
			c0.973-2.185,1.43-4.785,1.383-7.822l-0.267-13.8c0.978-4.085,1.279-6.937,0.917-8.549l-1.002-5.05l-2.137-47.151
			c-0.011-0.497,0.182-1.086,0.6-1.749c0.414-0.66,0.869-1.796,1.377-3.397c0.116-0.446,0.219-0.786,0.311-1.024l-1.518-6.554
			c-0.154-0.761-0.244-1.621-0.256-2.574c0.066-2.65-0.475-5.184-1.621-7.599C95.841,205.129,94.496,203.918,92.956,203.951"/>
		<path fill="#AFB5D4" d="M196.529,228.82l-0.323-8.801c-0.405-5.664-3.056-8.392-7.937-8.188l-27.572-0.037
			c-2.732-0.117-4.623,0.62-5.676,2.218c-0.219,0.486-0.416,0.976-0.569,1.476c-0.17,0.562-0.274,1.15-0.287,1.751
			c-0.015,0.8,0.021,1.588,0.124,2.374c0.104,0.735,0.167,1.463,0.18,2.176c0.011,0.999,0.051,1.986,0.101,2.975
			c0.046,0.898,0.112,1.801,0.175,2.699c0.014,0.213,0.04,0.437,0.053,0.65l0.791,9.8c0.102,1.1,0.32,2.176,0.641,3.225
			c0.09,0.264,0.18,0.539,0.285,0.799c1.122,1.916,2.907,2.969,5.38,3.136c3.418-0.096,6.835-0.03,10.251,0.188
			c1.541,0.013,3.225,0.093,5.048,0.206c2.604,0.119,5.358,0.158,8.261,0.111c1.307-0.099,2.625-0.185,3.961-0.27
			c0.621-0.051,1.258-0.107,1.889-0.174c0.559-0.049,1.102-0.097,1.66-0.147c3.312-0.657,4.807-3.33,4.463-8.014L196.529,228.82z
			 M188.7,217.959c0.687,0.188,1.072,0.866,1.164,2.053c0.729,4.887,1.138,10.088,1.192,15.626c0.22,1.448,0.062,2.51-0.469,3.194
			c-0.039,0.053-0.079,0.091-0.129,0.131c-5.711,0.777-10.722,1.032-15.02,0.775c-4.295-0.255-7.312-0.407-9.033-0.459
			c-1.748-0.068-3.066-0.194-3.963-0.355l-0.541-0.505c-0.217-0.349-0.361-0.847-0.412-1.497l-1.023-11.202l-0.196-5.749
			c-0.087-1.2,0.196-1.889,0.858-2.05L188.7,217.959z"/>
		
			<path fill="none" stroke="#737A90" stroke-width="2.0363" stroke-linecap="round" stroke-linejoin="round" stroke-miterlimit="10" d="
			M196.206,220.02c-0.405-5.664-3.056-8.392-7.937-8.188l-27.572-0.037c-2.732-0.117-4.623,0.62-5.676,2.218
			c-0.219,0.486-0.416,0.976-0.569,1.476c-0.17,0.562-0.274,1.15-0.287,1.751c-0.015,0.8,0.021,1.588,0.124,2.374
			c0.104,0.735,0.167,1.463,0.18,2.176c0.011,0.999,0.051,1.986,0.101,2.975c0.046,0.898,0.112,1.801,0.175,2.699
			c0.014,0.213,0.04,0.437,0.053,0.65l0.791,9.8c0.102,1.1,0.32,2.176,0.641,3.225c0.09,0.264,0.18,0.539,0.285,0.799
			c1.122,1.916,2.907,2.969,5.38,3.136c3.418-0.096,6.835-0.03,10.251,0.188c1.541,0.013,3.225,0.093,5.048,0.206
			c2.604,0.119,5.358,0.158,8.261,0.111c1.307-0.099,2.625-0.185,3.961-0.27c0.621-0.051,1.258-0.107,1.889-0.174
			c0.559-0.049,1.102-0.097,1.66-0.147c3.312-0.657,4.807-3.33,4.463-8.014l-0.896-8.152L196.206,220.02z M188.7,217.959
			l-27.571-0.038c-0.662,0.161-0.945,0.85-0.858,2.05l0.196,5.749l1.023,11.202c0.051,0.65,0.195,1.148,0.412,1.497l0.541,0.505
			c0.896,0.161,2.215,0.287,3.963,0.355c1.721,0.052,4.738,0.204,9.033,0.459c4.298,0.257,9.309,0.002,15.02-0.775
			c0.05-0.04,0.09-0.078,0.129-0.131c0.531-0.685,0.688-1.746,0.469-3.194c-0.055-5.538-0.463-10.739-1.192-15.626
			C189.772,218.825,189.386,218.146,188.7,217.959z"/>
		<path fill="#C5CDE3" d="M185.369,210.831c-0.048-1.167-0.785-1.762-2.225-1.778l-9.683-0.064
			c-1.797-0.076-3.466-0.093-4.995-0.057c-1.93-0.042-3.068,0.308-3.406,1.048c-0.195,1.661-0.238,3.571-0.1,5.722l0.047,5.602
			c0.205,0.162,0.4,0.286,0.594,0.349c0.895,0.152,1.773,0.202,2.641,0.155h0.206l0.362,0.001c3.873,0.016,7.639,0.046,11.315,0.064
			l4.735,0.083c0.406-0.939,0.588-1.863,0.576-2.801L185.369,210.831z"/>
		
			<path fill="none" stroke="#737A90" stroke-width="2.0363" stroke-linecap="round" stroke-linejoin="round" stroke-miterlimit="10" d="
			M183.144,209.053l-9.683-0.064c-1.797-0.076-3.466-0.093-4.995-0.057c-1.93-0.042-3.068,0.308-3.406,1.048
			c-0.195,1.661-0.238,3.571-0.1,5.722l0.047,5.602c0.205,0.162,0.4,0.286,0.594,0.349c0.895,0.152,1.773,0.202,2.641,0.155h0.206
			l0.362,0.001c3.873,0.016,7.639,0.046,11.315,0.064l4.735,0.083c0.406-0.939,0.588-1.863,0.576-2.801l-0.068-8.323
			C185.321,209.664,184.583,209.069,183.144,209.053z"/>
		<path fill="#245E27" d="M117.206,166.508c-0.942-0.715-2.263-1.538-3.931-2.48c-0.041-0.037-0.064-0.048-0.104-0.048
			c-1.554-0.692-3.262-1.268-5.126-1.731l-0.022-0.026c-3.421-0.792-6.822-1.146-10.199-1.089c-3.473,0.059-6.696,0.642-9.687,1.737
			h0.026c-3.02,1.043-5.777,2.554-8.268,4.539v0.024c-2.474,1.958-4.627,4.23-6.483,6.791c-1.865,2.584-3.319,5.405-4.357,8.492
			c-1.08,3.186-1.06,6.412,0.038,9.674v-0.023c0.604,1.85,1.627,3.051,3.074,3.601c1.049,0.451,2.344,0.519,3.884,0.207
			c0.151,1.351,0.554,2.663,1.185,3.926c1.848,3.642,4.617,5.144,8.307,4.512c3.351-0.559,5.892-2.329,7.617-5.29
			c1.086,2.401,3.078,4.042,5.975,4.91h-0.027c2.136,0.701,4.195,0.518,6.164-0.543c3.406-1.794,5.588-4.556,6.536-8.266
			c0.794-3.088,1.06-6.185,0.79-9.299c-0.013-0.249-0.039-0.502-0.078-0.749c0.193,0.15,0.375,0.29,0.57,0.425
			c0.658,0.538,1.371,0.939,2.146,1.229c0.685,0.264,1.462,0.462,2.331,0.577c0.789,0.062,1.592,0.013,2.383-0.145
			c1.279-0.312,2.238-1.087,2.902-2.298l0.023-0.023c0.508-0.914,0.859-1.862,1.067-2.849l0.026-0.026
			c0.154-0.863,0.248-1.714,0.287-2.549v-0.052c0.003-0.762-0.05-1.537-0.151-2.302v-0.023c-0.169-1.061-0.477-2.113-0.902-3.124
			v0.023c-0.4-0.998-0.89-1.938-1.499-2.825c-0.012-0.013-0.025-0.037-0.025-0.049c-0.566-0.904-1.227-1.755-1.99-2.554v-0.023
			C118.916,167.949,118.085,167.196,117.206,166.508 M107.527,164.173h-0.025c1.719,0.437,3.323,0.966,4.787,1.605
			c1.551,0.863,2.766,1.641,3.646,2.303h-0.027c0.789,0.603,1.539,1.29,2.227,2.055h0.023c0.674,0.713,1.254,1.487,1.758,2.304
			l0.027,0.023c0.529,0.786,0.981,1.616,1.342,2.501c0,0.009,0.012,0.037,0.024,0.05c0.376,0.738,0.62,1.513,0.722,2.325
			c0.143,1,0.178,1.962,0.127,2.875c-0.055,0.949-0.209,1.862-0.471,2.751c-0.207,0.76-0.621,1.386-1.245,1.845
			c-0.827,0.562-1.723,0.864-2.694,0.9c-0.775-0.002-1.63-0.23-2.561-0.68c-0.932-0.465-1.591-0.865-1.965-1.177
			c-0.377-0.315-0.584-0.492-0.621-0.528c-0.659-0.551-1.744-1.774-3.257-3.68l0.797,3.676c0.462,2.103,0.63,4.242,0.507,6.425
			c-0.118,2.189-0.548,4.287-1.275,6.299c-0.795,2.161-2.153,3.909-4.074,5.221c-0.32,0.211-0.646,0.436-0.957,0.648
			c-0.04,0-0.063,0.011-0.076,0.025c-1.438,0.759-2.93,0.893-4.482,0.391h-0.024c-0.864-0.263-1.615-0.613-2.276-1.025
			c-2.106-1.69-3.219-3.854-3.356-6.505c-0.065-1.449-0.036-3.4,0.112-5.849c-0.739,1.461-1.195,2.935-1.354,4.396
			c-0.193,1.45-0.43,2.539-0.729,3.273c-0.312,0.714-0.638,1.376-0.963,1.975c-0.323,0.599-0.802,1.186-1.425,1.748
			c-0.271,0.249-0.558,0.474-0.829,0.674c-0.4,0.3-0.829,0.572-1.298,0.822c-0.762,0.36-1.576,0.636-2.457,0.797
			c-1.49,0.238-2.759-0.016-3.834-0.729c-1.875-1.642-2.971-3.691-3.275-6.18c-0.271-2.19-0.243-4.363,0.084-6.55
			c0.013-0.149,0.039-0.288,0.054-0.426c0.103-0.561,0.261-1.285,0.468-2.173l-1.4,2.049c-0.686,1.285-1.092,2.481-1.196,3.597
			c-0.104,1.1-0.159,1.739-0.159,1.925c-0.05,0.011-0.091,0.038-0.129,0.049c-1.592,0.511-2.937,0.184-4.036-1.004l-0.233-0.376
			c-0.191-0.312-0.348-0.663-0.461-1.052c-0.969-2.851-0.98-5.663-0.045-8.423c0.975-2.898,2.341-5.558,4.104-7.971
			c1.752-2.436,3.772-4.568,6.092-6.417c2.295-1.844,4.846-3.252,7.645-4.215c2.785-1.006,5.788-1.55,9.012-1.61
			C101.083,163.077,104.306,163.415,107.527,164.173"/>
		<path fill="#9EC94C" d="M107.501,164.173h0.025c-3.221-0.758-6.443-1.096-9.656-1.041c-3.224,0.061-6.227,0.604-9.012,1.61
			c-2.799,0.963-5.35,2.372-7.645,4.215c-2.32,1.849-4.34,3.981-6.092,6.417c-1.763,2.413-3.129,5.072-4.104,7.971
			c-0.936,2.76-0.924,5.572,0.045,8.423c0.113,0.389,0.269,0.74,0.461,1.052l0.233,0.376c1.1,1.188,2.444,1.515,4.036,1.004
			c0.038-0.011,0.078-0.038,0.129-0.049c0-0.186,0.055-0.825,0.159-1.925c0.104-1.115,0.511-2.312,1.196-3.597l1.4-2.049
			c-0.208,0.888-0.365,1.612-0.468,2.173c-0.015,0.138-0.041,0.276-0.054,0.426c-0.327,2.187-0.355,4.359-0.084,6.55
			c0.305,2.488,1.4,4.538,3.275,6.18c1.075,0.713,2.344,0.967,3.834,0.729c0.881-0.161,1.695-0.437,2.457-0.797
			c0.469-0.25,0.897-0.522,1.298-0.822c0.271-0.2,0.559-0.425,0.829-0.674c0.621-0.562,1.102-1.149,1.425-1.748
			s0.649-1.261,0.963-1.975c0.3-0.734,0.532-1.823,0.729-3.273c0.158-1.462,0.614-2.936,1.354-4.396
			c-0.148,2.448-0.177,4.399-0.112,5.849c0.138,2.65,1.25,4.814,3.356,6.505c0.661,0.412,1.41,0.763,2.276,1.025h0.024
			c1.553,0.502,3.045,0.368,4.482-0.391c0.012-0.015,0.036-0.025,0.076-0.025c0.311-0.213,0.635-0.438,0.957-0.648
			c1.921-1.312,3.279-3.06,4.074-5.221c0.728-2.012,1.157-4.109,1.275-6.299c0.12-2.183-0.045-4.322-0.507-6.425l-0.797-3.676
			c1.511,1.905,2.598,3.129,3.257,3.68c0.036,0.036,0.244,0.213,0.621,0.528c0.374,0.312,1.033,0.712,1.965,1.177
			c0.931,0.449,1.785,0.678,2.561,0.68c0.972-0.036,1.867-0.338,2.694-0.9c0.623-0.459,1.038-1.085,1.245-1.845
			c0.261-0.889,0.416-1.802,0.471-2.751c0.051-0.913,0.014-1.875-0.127-2.875c-0.102-0.812-0.346-1.587-0.722-2.325
			c-0.013-0.013-0.024-0.041-0.024-0.05c-0.36-0.885-0.812-1.715-1.342-2.501l-0.027-0.023c-0.504-0.816-1.086-1.591-1.758-2.304
			h-0.023c-0.688-0.765-1.438-1.452-2.227-2.055h0.027c-0.881-0.662-2.096-1.439-3.646-2.303
			C110.825,165.139,109.22,164.609,107.501,164.173"/>
		<path fill="#C5CDE3" d="M118.248,37.649c-0.906,0.207-2.072,0.614-3.496,1.206c-3.549,1.614-6.971,2.83-10.264,3.662
			c-3.294,0.829-5.311,1.34-6.047,1.551c-0.124,0.036-0.26,0.078-0.396,0.116c-0.694,0.179-1.604,0.404-2.74,0.651
			c-5.834,1.295-9.65,2.502-11.482,3.619c-0.714,0.387-1.311,1.057-1.797,2.016c-0.075,0.152-0.14,0.298-0.192,0.438
			c-0.308,0.823-0.298,1.671,0.005,2.55c1.506,5.231,3.207,10.071,5.113,14.539c0.363,1.03,1.043,1.773,2.066,2.242
			c0.985,0.476,2.006,0.547,3.07,0.191c1.063-0.351,1.834-1.007,2.334-1.971c0.475-0.959,0.527-1.952,0.164-2.979
			c-1.835-3.606-3.212-7.445-4.15-11.535c2.953-1.182,6.049-2.079,9.285-2.71c7.25-1.771,12.951-3.513,17.113-5.194L120.65,56.9
			c0.367,1.026,1.043,1.77,2.062,2.231c0.988,0.483,2.011,0.554,3.075,0.202c1.04-0.346,1.823-1.004,2.333-1.946
			c0.465-0.979,0.531-1.975,0.164-3.006l-4.959-14.17c-0.468-1.271-1.147-2.08-2.029-2.446
			C120.433,37.404,119.411,37.362,118.248,37.649"/>
		
			<path fill="none" stroke="#737A90" stroke-width="2.0575" stroke-linecap="round" stroke-linejoin="round" stroke-miterlimit="10" d="
			M118.248,37.649c1.163-0.287,2.186-0.245,3.049,0.116c0.882,0.366,1.562,1.175,2.029,2.446l4.959,14.17
			c0.367,1.031,0.301,2.027-0.164,3.006c-0.51,0.942-1.293,1.601-2.333,1.946c-1.064,0.352-2.087,0.281-3.075-0.202
			c-1.02-0.462-1.695-1.205-2.062-2.231l-3.816-10.857c-4.162,1.682-9.863,3.423-17.113,5.194c-3.236,0.631-6.332,1.528-9.285,2.71
			c0.938,4.09,2.315,7.929,4.15,11.535c0.363,1.026,0.311,2.02-0.164,2.979c-0.5,0.964-1.268,1.62-2.334,1.971
			c-1.064,0.355-2.085,0.284-3.07-0.191c-1.023-0.469-1.703-1.212-2.066-2.242c-1.906-4.468-3.607-9.308-5.113-14.539
			c-0.303-0.879-0.312-1.727-0.005-2.55c0.053-0.141,0.117-0.286,0.192-0.438c0.486-0.959,1.083-1.629,1.797-2.016
			c1.832-1.117,5.648-2.324,11.482-3.619c1.136-0.247,2.046-0.473,2.74-0.651c0.137-0.038,0.272-0.08,0.396-0.116
			c0.736-0.211,2.753-0.722,6.047-1.551c3.293-0.832,6.715-2.048,10.264-3.662C116.175,38.264,117.341,37.856,118.248,37.649z"/>
		<path fill="#AFB5D4" d="M141.89,47.741c-15.906,2.829-27.787,6.161-35.646,9.994c-12.576,5.814-21.438,9.356-26.572,10.643
			c-5.148,1.307-10.601,3.362-16.346,6.185c-5.754,2.799-10.533,5.497-14.322,8.061c-0.916,3.141-0.352,6.582,1.721,10.323
			c0.008,0.021,0.025,0.056,0.051,0.085c0.068,0.123,0.128,0.263,0.191,0.412c0.072,0.203,0.148,0.424,0.24,0.672
			c0.248,0.753,0.422,1.521,0.537,2.286c0.438,2.185,1.122,3.669,2.062,4.474c11.49-5.716,22.815-10.943,33.978-15.718
			c5.432-2.306,9.94-4.131,13.543-5.482l10.251-3.888c10.69-4.262,18.266-6.783,22.733-7.576l19.637-3.819
			c7.025-1.317,14.003-2.051,20.959-2.21c0.191-1.262-0.225-3.107-1.248-5.52c-0.075-0.174-0.143-0.338-0.226-0.494
			c-0.337-0.768-0.618-1.4-0.851-1.911c-0.007-0.017-0.007-0.017-0.012-0.025c-0.141-0.307-0.256-0.573-0.357-0.774
			c-0.185-0.412-0.37-0.814-0.539-1.217c-0.748-1.66-1.367-3.062-1.885-4.178c-0.133-0.284-0.25-0.563-0.379-0.835
			c-0.373-0.785-0.734-1.503-1.094-2.183c-0.508-0.906-1.54-1.293-3.068-1.176C157.349,44.6,149.558,45.888,141.89,47.741"/>
		
			<path fill="none" stroke="#737A90" stroke-width="2.0575" stroke-linecap="round" stroke-linejoin="round" stroke-miterlimit="10" d="
			M141.89,47.741c7.668-1.854,15.459-3.142,23.357-3.872c1.528-0.117,2.561,0.27,3.068,1.176c0.359,0.68,0.721,1.397,1.094,2.183
			c0.129,0.271,0.246,0.551,0.379,0.835c0.518,1.116,1.137,2.518,1.885,4.178c0.169,0.402,0.354,0.805,0.539,1.217
			c0.102,0.201,0.217,0.468,0.357,0.774c0.005,0.009,0.005,0.009,0.012,0.025c0.232,0.511,0.514,1.144,0.851,1.911
			c0.083,0.156,0.15,0.32,0.226,0.494c1.023,2.412,1.439,4.258,1.248,5.52c-6.956,0.159-13.934,0.893-20.959,2.21l-19.637,3.819
			c-4.468,0.793-12.043,3.314-22.733,7.576l-10.251,3.888c-3.603,1.352-8.111,3.177-13.543,5.482
			c-11.162,4.774-22.487,10.002-33.978,15.718c-0.94-0.805-1.624-2.289-2.062-4.474c-0.115-0.765-0.289-1.533-0.537-2.286
			c-0.092-0.248-0.168-0.469-0.24-0.672c-0.063-0.149-0.123-0.289-0.191-0.412c-0.025-0.029-0.043-0.064-0.051-0.085
			c-2.072-3.741-2.637-7.183-1.721-10.323c3.789-2.563,8.568-5.262,14.322-8.061c5.745-2.822,11.197-4.878,16.346-6.185
			c5.135-1.286,13.996-4.828,26.572-10.643C114.103,53.902,125.984,50.57,141.89,47.741z"/>
	</g>
</g>
<g id="guide" display="none">
</g>
</svg>
