<?xml version="1.0" encoding="utf-8"?>
<!-- Generator: Adobe Illustrator 16.2.1, SVG Export Plug-In . SVG Version: 6.00 Build 0)  -->
<!DOCTYPE svg PUBLIC "-//W3C//DTD SVG 1.1//EN" "http://www.w3.org/Graphics/SVG/1.1/DTD/svg11.dtd">
<svg version="1.1" xmlns="http://www.w3.org/2000/svg" xmlns:xlink="http://www.w3.org/1999/xlink" x="0px" y="0px"
	 width="849.342px" height="314.013px" viewBox="0 0 849.342 314.013" enable-background="new 0 0 849.342 314.013"
	 xml:space="preserve">
<g id="base">
</g>
<g id="book3">
</g>
<g id="_x38_" display="none">
</g>
<g id="_x37_" display="none">
</g>
<g id="_x36_" display="none">
</g>
<g id="_x35_" display="none">
</g>
<g id="_x34_" display="none">
</g>
<g id="_x33_" display="none">
</g>
<g id="_x32_" display="none">
</g>
<g id="_x31_" display="none">
	<g display="inline">
		<defs>
			<path id="SVGID_15_" d="M713.469-175.319c0,5.5-4.5,10-10,10H-574.477c-5.5,0-10-4.5-10-10v-27.558v-841.881c0-5.5,4.5-10,10-10
				H703.469c5.5,0,10,4.5,10,10v839.881V-175.319z"/>
		</defs>
		<clipPath id="SVGID_2_">
			<use xlink:href="#SVGID_15_"  overflow="visible"/>
		</clipPath>
		<g clip-path="url(#SVGID_2_)">
			<g>
				<g>
					<g>
						<path fill="#009FE8" d="M227.957-171.505l0.126-0.023c0.962,0.558,12.418,20.532,34.255,60.026
							c22.288,40.289,33.647,60.741,34.095,61.29l16.105-0.493c37.065-9.018,68.65-11.974,94.718-8.825
							c12.623,1.507,25.208,5.135,37.811,10.832c5.792,2.643,11.409,7.637,16.967,14.964c5.497,7.345,8.314,13.657,8.518,18.961
							c0.285,8.501-5.177,16.658-16.428,24.509c-31.271,21.751-87.995,33.784-170.125,36.139
							c-41.057,1.21-79.001,0.185-113.752-3.027l-4.665-5.345c-0.483-0.724-0.919-1.526-1.375-2.396
							c-1.754-4.442-3.025-7.565-3.79-9.512c-1.529-3.722-6.166-30.104-14.066-79.197c-7.89-49.157-12.549-75.605-13.883-79.296
							l-0.019-0.067l95.435-38.584L227.957-171.505z"/>
						<path fill="none" stroke="#00499C" stroke-width="10.0548" stroke-linecap="round" stroke-miterlimit="10" d="
							M227.957-171.505l-0.074-0.045l-95.435,38.584l0.019,0.067c1.334,3.69,5.993,30.139,13.883,79.296
							c7.9,49.094,12.537,75.476,14.066,79.197c0.765,1.946,2.036,5.069,3.79,9.512c0.456,0.869,0.892,1.672,1.375,2.396
							l4.665,5.345c34.751,3.212,72.695,4.237,113.752,3.027c82.13-2.354,138.854-14.388,170.125-36.139
							c11.251-7.851,16.713-16.008,16.428-24.509c-0.203-5.304-3.021-11.616-8.518-18.961c-5.558-7.327-11.175-12.321-16.967-14.964
							c-12.603-5.697-25.188-9.325-37.811-10.832c-26.067-3.148-57.652-0.192-94.718,8.825l-16.105,0.493
							c-0.447-0.549-11.807-21.001-34.095-61.29c-21.837-39.494-33.293-59.469-34.255-60.026L227.957-171.505z"/>
						<path fill="#009FE8" d="M86.206-104.098l0.121-0.03c0.991,0.52,13.173,20.124,36.459,58.896
							c23.749,39.551,35.863,59.636,36.323,60.169l16.111-1.077c36.805-10.349,68.336-14.445,94.545-12.21
							c12.699,1.056,25.435,4.245,38.252,9.509c5.895,2.432,11.705,7.231,17.521,14.367c5.765,7.167,8.821,13.397,9.222,18.69
							c0.587,8.501-4.591,16.861-15.59,25.127c-30.541,22.904-86.928,36.974-169.08,42.268c-41.076,2.666-79.111,3.002-114.038,1.01
							l-4.857-5.18c-0.509-0.707-0.979-1.495-1.467-2.35c-1.909-4.369-3.304-7.463-4.128-9.395
							c-1.667-3.668-7.257-29.924-16.907-78.81C-0.967-32.057-6.589-58.378-8.052-62.024l-0.02-0.069l94.198-42.053L86.206-104.098z
							"/>
						<path fill="none" stroke="#00499C" stroke-width="10.075" stroke-linecap="round" stroke-miterlimit="10" d="M86.206-104.098
							l-0.079-0.049L-8.071-62.094l0.02,0.069c1.463,3.646,7.085,29.968,16.745,78.912c9.65,48.886,15.24,75.142,16.907,78.81
							c0.824,1.932,2.219,5.025,4.128,9.395c0.487,0.854,0.958,1.643,1.467,2.35l4.857,5.18c34.927,1.992,72.962,1.656,114.038-1.01
							c82.152-5.294,138.539-19.363,169.08-42.268c10.999-8.266,16.177-16.626,15.59-25.127c-0.4-5.293-3.457-11.523-9.222-18.69
							c-5.816-7.136-11.627-11.936-17.521-14.367C295.2,5.896,282.465,2.706,269.766,1.65c-26.209-2.235-57.74,1.861-94.545,12.21
							l-16.111,1.077c-0.46-0.533-12.574-20.618-36.323-60.169C99.5-84.004,87.318-103.608,86.327-104.128L86.206-104.098z"/>
					</g>
				</g>
			</g>
		</g>
	</g>
</g>
<g id="_x30_">
	<g>
		<text transform="matrix(1 0 0 1 209.4463 139.4922)"><tspan x="0" y="0" fill="#DCDDDD" stroke="#DCDDDD" stroke-width="27.0791" stroke-linecap="round" stroke-linejoin="round" stroke-miterlimit="10" font-family="'KamoLimeStd-Ultra'" font-size="90.2637" letter-spacing="-4">わらって！</tspan><tspan x="-214.377" y="110.573" fill="#DCDDDD" stroke="#DCDDDD" stroke-width="27.0791" stroke-linecap="round" stroke-linejoin="round" stroke-miterlimit="10" font-family="'KamoLimeStd-Ultra'" font-size="90.2637" letter-spacing="-4">クッキーモンスター！</tspan></text>
		<text transform="matrix(1 0 0 1 209.4463 129.002)"><tspan x="0" y="0" fill="#EA5514" stroke="#EA5514" stroke-width="27.0791" stroke-linecap="round" stroke-linejoin="round" stroke-miterlimit="10" font-family="'KamoLimeStd-Ultra'" font-size="90.2637" letter-spacing="-4">わらって！</tspan><tspan x="-214.377" y="110.574" fill="#EA5514" stroke="#EA5514" stroke-width="27.0791" stroke-linecap="round" stroke-linejoin="round" stroke-miterlimit="10" font-family="'KamoLimeStd-Ultra'" font-size="90.2637" letter-spacing="-4">クッキーモンスター！</tspan></text>
		<text transform="matrix(1 0 0 1 209.4463 131.2705)"><tspan x="0" y="0" fill="#C9CACA" stroke="#C9CACA" stroke-miterlimit="10" font-family="'KamoLimeStd-Ultra'" font-size="90.2637" letter-spacing="-4">わらって！</tspan><tspan x="-214.377" y="110.573" fill="#C9CACA" stroke="#C9CACA" stroke-miterlimit="10" font-family="'KamoLimeStd-Ultra'" font-size="90.2637" letter-spacing="-4">クッキーモンスター！</tspan></text>
		<text transform="matrix(1 0 0 1 209.4463 129.002)"><tspan x="0" y="0" fill="#FFFFFF" font-family="'KamoLimeStd-Ultra'" font-size="90.2637" letter-spacing="-4">わらって！</tspan><tspan x="-214.377" y="110.574" fill="#FFFFFF" font-family="'KamoLimeStd-Ultra'" font-size="90.2637" letter-spacing="-4">クッキーモンスター！</tspan></text>
		<ellipse fill="#EA5514" cx="296.666" cy="97.96" rx="7.667" ry="9.333"/>
		<ellipse fill="#EA5514" cx="449.666" cy="101.293" rx="11.333" ry="6.667"/>
		<ellipse fill="#EA5514" cx="553.999" cy="95.96" rx="21" ry="14.667"/>
		<ellipse fill="#EA5514" cx="82.665" cy="207.96" rx="13" ry="10.667"/>
		<ellipse fill="#EA5514" cx="473.332" cy="206.96" rx="23.667" ry="13"/>
		<ellipse fill="#EA5514" cx="549.665" cy="205.627" rx="20" ry="12.333"/>
	</g>
</g>
<g id="guide" display="none">
</g>
</svg>
