<?xml version="1.0" encoding="utf-8"?>
<!-- Generator: Adobe Illustrator 16.0.0, SVG Export Plug-In . SVG Version: 6.00 Build 0)  -->
<!DOCTYPE svg PUBLIC "-//W3C//DTD SVG 1.1//EN" "http://www.w3.org/Graphics/SVG/1.1/DTD/svg11.dtd">
<svg version="1.1" id="レイヤー_1" xmlns="http://www.w3.org/2000/svg" xmlns:xlink="http://www.w3.org/1999/xlink" x="0px"
	 y="0px" width="210.486px" height="325.36px" viewBox="0 0 210.486 325.36" enable-background="new 0 0 210.486 325.36"
	 xml:space="preserve">
<path fill="#E3D422" d="M76.443,232.259c-0.945-2.311-0.911-5.188,0.087-8.631c1.046-3.625,2.954-6.904,5.712-9.812
	c3.173-3.325,6.997-5.608,11.471-6.844c5.229-1.442,11.01-1.344,17.342,0.263c1.285-2.116,4.206-4.579,8.762-7.415
	c4.857-3.018,9.956-5.387,15.302-7.107c6.203-2.01,11.594-2.699,16.171-2.063c5.42,0.742,9.259,3.298,11.515,7.669
	c3.156,6.115,1.06,12.377-6.297,18.786c-2.683,2.333-5.716,4.349-9.086,6.069c-3.021,1.523-5.309,2.342-6.882,2.439
	c3.057,4.643,3.194,9.332,0.403,14.047c-2.417,4.113-6.562,7.594-12.435,10.428c-5.614,2.736-11.064,4.1-16.369,4.085
	c-5.717,0.007-9.549-1.675-11.491-5.044c0.343,3.023-1.062,5.629-4.216,7.811c-2.948,2.049-6.567,3.2-10.855,3.431
	c-4.517,0.257-8.377-0.622-11.593-2.648c-3.711-2.31-5.843-5.787-6.421-10.433c-0.206-1.65,1.271-4.262,4.415-7.855
	c3.181-3.59,4.677-6.131,4.489-7.622L76.443,232.259z"/>
<path fill="none" stroke="#E7B31A" stroke-width="4.2271" stroke-miterlimit="10" d="M76.443,232.259l0.023-0.448
	c0.188,1.493-1.309,4.032-4.489,7.622c-3.145,3.594-4.621,6.205-4.415,7.855c0.578,4.646,2.71,8.123,6.421,10.433
	c3.216,2.026,7.076,2.905,11.593,2.648c4.288-0.23,7.907-1.382,10.855-3.431c3.154-2.182,4.559-4.787,4.216-7.811
	c1.942,3.369,5.774,5.051,11.491,5.044c5.305,0.015,10.755-1.349,16.369-4.085c5.873-2.834,10.018-6.314,12.435-10.428
	c2.791-4.715,2.653-9.404-0.403-14.047c1.573-0.096,3.861-0.916,6.882-2.439c3.37-1.721,6.403-3.736,9.086-6.069
	c7.356-6.409,9.453-12.671,6.297-18.786c-2.256-4.371-6.095-6.927-11.515-7.669c-4.577-0.636-9.968,0.054-16.171,2.063
	c-5.346,1.721-10.444,4.09-15.297,7.107c-4.561,2.836-7.481,5.299-8.767,7.415c-6.332-1.606-12.112-1.705-17.342-0.261
	c-4.474,1.233-8.298,3.517-11.471,6.842c-2.758,2.908-4.666,6.188-5.712,9.812C75.532,227.072,75.498,229.949,76.443,232.259z"/>
<path fill="#F2D724" d="M76.443,232.259c-0.945-2.311-0.911-5.188,0.087-8.631c1.046-3.625,2.954-6.904,5.712-9.812
	c3.173-3.325,6.997-5.608,11.471-6.844c5.229-1.442,11.01-1.344,17.342,0.263c1.285-2.116,4.206-4.579,8.762-7.415
	c4.857-3.018,9.956-5.387,15.302-7.107c6.203-2.01,11.594-2.699,16.171-2.063c5.42,0.742,9.259,3.298,11.515,7.669
	c3.156,6.115,1.06,12.377-6.297,18.786c-2.683,2.333-5.716,4.349-9.086,6.069c-3.021,1.523-5.309,2.342-6.882,2.439
	c3.057,4.643,3.194,9.332,0.403,14.047c-2.417,4.113-6.562,7.594-12.435,10.428c-5.614,2.736-11.064,4.1-16.369,4.085
	c-5.717,0.007-9.549-1.675-11.491-5.044c0.343,3.023-1.062,5.629-4.216,7.811c-2.948,2.049-6.567,3.2-10.855,3.431
	c-4.517,0.257-8.377-0.622-11.593-2.648c-3.711-2.31-5.843-5.787-6.421-10.433c-0.206-1.65,1.271-4.262,4.415-7.855
	c3.181-3.59,4.677-6.131,4.489-7.622L76.443,232.259z"/>
<path fill="#D52828" d="M80.786,240.758c-0.143-0.388-0.282-0.772-0.442-1.132c5.186-0.916,10.368-1.805,15.576-2.693
	c0.16,0.358,0.316,0.716,0.473,1.091c2.226,4.929,4.208,10.302,5.952,16.118c0.072-0.025,0.142-0.036,0.212-0.034
	c1.149-0.162,2.269,0.2,3.383,1.099h0.01v0.016c0.95,0.778,1.597,1.801,1.922,3.04c0.228,1.253,0.063,2.376-0.521,3.372
	c-0.659,1.137-1.568,1.769-2.744,1.885h-0.017c-0.111-0.004-0.211,0.009-0.284,0.032c0.017,0.075,0.013,0.13,0.024,0.199
	c0.101,0.287,0.19,0.587,0.269,0.912c0.122,0.556,0.23,1.122,0.325,1.677c0,0.013,0,0.013-0.017,0.028
	c0.048,0.243,0.099,0.472,0.132,0.712c0.035,0.269,0.038,0.552,0.016,0.817c-0.021,0.214,0,0.396,0.079,0.581
	c0.046-0.026,0.09-0.051,0.131-0.092c-0.003,0.042-0.003,0.07-0.003,0.113c1.016,0.044,1.889,0.512,2.622,1.412h0.015v0.015
	c0.719,0.884,1.051,1.97,0.979,3.251c-0.074,0.943-0.354,1.793-0.846,2.555l-2.751-0.09c0.062-0.068,0.117-0.124,0.162-0.176
	c0.13-0.098,0.244-0.207,0.364-0.345v-0.013c0.483-0.521,0.757-1.133,0.796-1.853c0.025-0.294,0.004-0.565-0.041-0.835
	c-0.218-0.697-0.597-1.289-1.131-1.758c-0.701-0.615-1.507-0.953-2.424-1.012c-0.014-0.003-0.042-0.003-0.071-0.003
	c-0.011-0.068-0.01-0.112-0.01-0.155c-0.051-0.113-0.105-0.229-0.141-0.354c0.271-0.572,0.351-1.261,0.252-2.042
	c-0.13-0.906-0.321-1.789-0.595-2.658c-0.114-0.344-0.259-0.645-0.463-0.891c-0.034-0.271-0.067-0.526-0.103-0.795
	c0.018,0,0.059,0.002,0.099,0.004c0.923-0.07,1.753-0.438,2.468-1.104c0.654-0.618,1.047-1.38,1.201-2.276
	c-0.003-0.271-0.021-0.539-0.043-0.808c-0.097-0.428-0.258-0.783-0.458-1.088c-0.234-0.25-0.48-0.496-0.724-0.717
	c-0.355-0.336-0.775-0.59-1.232-0.758c-0.951-0.343-1.876-0.502-2.781-0.461c-0.012-0.027-0.012-0.041-0.029-0.041
	c-1.599-5.773-3.487-11.083-5.673-15.971c-3.788,0.665-7.552,1.32-11.285,1.973c1.979,5.021,3.616,10.24,4.921,15.648v0.027
	c-0.666,0.445-1.18,1.064-1.559,1.857c-0.167,0.403-0.253,0.85-0.254,1.332c0.052,0.947,0.393,1.805,1.003,2.574
	c0.5,0.594,1.137,1.054,1.876,1.358c0.028,0,0.052,0.003,0.084,0.017c0.024-0.012,0.054-0.023,0.086-0.037
	c0.012,0.014,0.022,0.028,0.038,0.045c0.125,0.117,0.216,0.246,0.314,0.389c0.198,0.303,0.355,0.648,0.442,1.045
	c0.186,0.782,0.287,1.577,0.336,2.397c0.02,0.521-0.025,1.016-0.125,1.506c0.013,0.015,0.013,0.015,0.013,0.03
	c-0.005,0.111-0.007,0.227-0.008,0.337l-0.005,0.044H90.57c-0.07,0.01-0.172,0.009-0.266,0.018
	c-0.941,0.181-1.705,0.693-2.301,1.537c-0.47,0.645-0.722,1.359-0.746,2.164c0.024,0.098,0.035,0.238,0.013,0.41
	c0.022,0.297,0.066,0.58,0.131,0.851l-2.37-0.081c-0.031-0.352-0.049-0.734-0.022-1.131c0.116-1.28,0.573-2.392,1.367-3.342
	c0.544-0.646,1.166-1.092,1.838-1.336v-0.028c0.041-0.015,0.071-0.038,0.103-0.069c0.011-0.012,0.011-0.027,0.029-0.039
	c0.017-0.111,0.021-0.227,0.021-0.324c0.034-0.156,0.041-0.325,0.034-0.509c-0.039-0.508-0.11-1.007-0.22-1.474
	c-0.136-0.586-0.389-1.044-0.761-1.396c0.003-0.012,0.003-0.027,0.003-0.042c-0.459-0.198-0.89-0.479-1.315-0.862
	c-0.889-0.805-1.478-1.84-1.732-3.106c-0.258-1.235-0.106-2.359,0.422-3.36c0.314-0.555,0.696-0.977,1.129-1.273
	C84.537,251.203,82.834,245.892,80.786,240.758"/>
<path fill="#D52828" d="M138.004,286.81c4.497,1.602,7.916,3.762,10.238,6.465c2.367,2.717,3.347,5.529,2.955,8.438v0.015
	c-0.334,2.98-2.073,5.566-5.212,7.762h-0.01c-3.192,2.238-7.521,3.75-13.011,4.529h-0.017c-12.976,1.833-29.781-0.664-50.38-7.496
	c-0.886-0.086-1.182-2.258-0.901-6.514l0.003-0.011c0.273-3.69,0.835-7.046,1.712-10.069c0,0-0.012,0-0.03-0.014
	c0.066-0.154,0.109-0.293,0.129-0.419c-0.29-0.235-0.545-0.513-0.779-0.831c0.017-0.014,0-0.029-0.011-0.015
	c-0.563-0.907-0.739-1.986-0.529-3.251c0.276-1.248,0.865-2.329,1.774-3.244c0.52-0.477,1.041-0.828,1.559-1.078
	c0.355-0.045,0.631-0.262,0.852-0.665c0.24-0.442,0.441-0.901,0.61-1.363c0.081-0.21,0.1-0.419,0.081-0.604
	c0.015-0.085,0.031-0.168,0.045-0.264c-0.439-0.229-0.841-0.564-1.19-1.029c0.015-0.016,0-0.029-0.016-0.016
	c-0.458-0.622-0.745-1.352-0.845-2.16l2.37,0.081c0.163,0.552,0.444,1.044,0.839,1.479c0.038,0.044,0.093,0.102,0.154,0.146
	l1.118,0.699c0.032,1.54-0.339,2.94-1.126,4.227c-0.047,0.07-0.088,0.126-0.162,0.195l-0.661,0.303
	c-0.356,0.17-0.765,0.41-1.197,0.722c-0.449,0.311-0.794,0.61-1.014,0.884c-0.456,0.468-0.755,1.022-0.876,1.681v0.028
	c0.011,0,0,0.01-0.018,0.043c0.014,0.025,0,0.068-0.031,0.139c-0.016,0.044-0.02,0.111-0.035,0.184
	c-0.038,0.803,0.134,1.541,0.522,2.219c0.253,0.404,0.58,0.737,0.997,0.991c-0.016,0.029-0.016,0.056-0.016,0.07
	c-0.115,0.463-0.257,0.924-0.401,1.413l-0.001,0.014h-0.013c-0.974,3.059-1.56,6.146-1.731,9.275
	c-0.173,3.129-0.332,4.662-0.48,4.615c20.184,6.691,36.651,9.164,49.374,7.393c0.894-0.122,1.744-0.279,2.569-0.439
	c0.216-0.146,0.433-0.293,0.623-0.469c1.452-1.24,2.296-2.862,2.533-4.889c0.229-1.954-0.176-3.804-1.201-5.572
	c-1.087-1.858-2.679-3.193-4.785-3.998c3.105,0.541,5.436,1.855,6.96,3.957c1.393,1.865,1.875,3.944,1.461,6.23
	c-0.261,1.473-0.839,2.712-1.717,3.742c2.166-0.707,4.028-1.606,5.605-2.697c2.528-1.764,3.952-3.82,4.271-6.199
	c0.27-2.289-0.528-4.52-2.42-6.688c-2.124-2.426-5.224-4.362-9.297-5.826c-9.109-3.248-20.396-3.547-33.855-0.867
	c-0.304,0.228-0.606,0.473-0.911,0.718c-0.158,0.024-0.285,0.045-0.397,0.07c-0.016-0.015-0.045-0.015-0.057,0
	c0.274-0.132,0.521-0.352,0.771-0.669c0.028-0.025,0.057-0.054,0.072-0.082c0.311-0.427,0.555-0.927,0.74-1.498
	c0.125-0.407,0.194-0.812,0.226-1.209c0.022-0.324,0.008-0.648-0.04-0.96c-0.128-0.809-0.536-1.417-1.213-1.82
	c-0.261-0.161-0.527-0.312-0.804-0.423l-1.3-0.367c0.016-0.096,0.047-0.178,0.092-0.248c0.767-1.444,1.281-2.953,1.518-4.539
	l0.863-0.071c0.57-0.108,1.143-0.385,1.738-0.806c0.218-0.162,0.419-0.338,0.592-0.516l2.751,0.09
	c-0.163,0.264-0.371,0.525-0.591,0.771c-0.013-0.012-0.026-0.003-0.013,0.014c-0.954,1.054-2.03,1.572-3.229,1.576
	c-0.033,0.18-0.096,0.363-0.2,0.555c-0.015,0.057-0.035,0.114-0.05,0.171c-0.127,0.433-0.267,0.851-0.425,1.271
	c-0.09,0.232-0.194,0.444-0.318,0.638c0.989,0.088,1.767,0.579,2.342,1.459l0.014,0.002l-0.014,0.015
	c0.579,0.865,0.756,1.888,0.562,3.064C118.672,283.156,129.3,283.658,138.004,286.81"/>
<path fill="#D57998" d="M103.188,256.007c0.457,0.168,0.877,0.422,1.232,0.758c0.243,0.221,0.489,0.467,0.724,0.717
	c0.2,0.305,0.361,0.66,0.458,1.088c0.021,0.269,0.04,0.537,0.043,0.808c-0.154,0.896-0.547,1.658-1.201,2.274
	c-0.715,0.668-1.545,1.035-2.468,1.105c-0.04-0.002-0.081-0.004-0.099-0.004c-0.04-0.016-0.07-0.016-0.081-0.004
	c-4.086,0.531-8.14,1.046-12.182,1.58c-0.016-0.017-0.026-0.031-0.038-0.045c-0.031,0.014-0.062,0.025-0.086,0.037
	c-0.032-0.014-0.056-0.017-0.084-0.017c-0.739-0.305-1.375-0.765-1.876-1.358c-0.61-0.77-0.951-1.627-1.003-2.574
	c0.001-0.482,0.087-0.929,0.254-1.334c0.379-0.791,0.893-1.41,1.559-1.855v-0.027c3.998-0.534,8.024-1.064,12.066-1.609
	C101.312,255.505,102.236,255.665,103.188,256.007"/>
<path fill="#DC640F" d="M101.796,262.75c0.011-0.012,0.041-0.012,0.081,0.004c0.035,0.269,0.068,0.523,0.103,0.795
	c0.204,0.247,0.349,0.547,0.463,0.891c0.273,0.869,0.465,1.752,0.595,2.658c0.099,0.781,0.021,1.47-0.252,2.042
	c0.036,0.126,0.09,0.241,0.141,0.354c0,0.043-0.001,0.087,0.012,0.158c-0.057-0.02-0.085-0.004-0.099,0.01
	c-0.032,0.013-0.058,0.01-0.087,0.023c-4.068,0.107-8.122,0.229-12.168,0.349c0.004-0.11,0.006-0.226,0.011-0.337
	c0-0.016,0-0.016-0.013-0.03c0.101-0.49,0.145-0.984,0.124-1.506c-0.048-0.82-0.149-1.614-0.335-2.396
	c-0.087-0.398-0.244-0.744-0.441-1.047c-0.1-0.143-0.19-0.271-0.315-0.389C93.656,263.795,97.71,263.281,101.796,262.75"/>
<path fill="#DC640F" d="M100.377,255.505c0.018,0,0.018,0.014,0.029,0.041c-4.042,0.545-8.07,1.075-12.066,1.609
	c-1.305-5.409-2.942-10.627-4.921-15.648c3.733-0.652,7.497-1.308,11.285-1.973C96.89,244.422,98.778,249.732,100.377,255.505"/>
<path fill="#D57998" d="M90.582,270.078l0.005-0.044c4.043-0.12,8.097-0.241,12.165-0.349c0.029-0.014,0.057-0.011,0.087-0.023
	c0.014-0.014,0.042-0.029,0.099-0.013c0.027,0,0.056,0,0.069,0.003c0.917,0.059,1.726,0.396,2.424,1.012
	c0.534,0.469,0.913,1.061,1.131,1.758c0.045,0.27,0.066,0.541,0.041,0.835c-0.039,0.72-0.312,1.334-0.796,1.853v0.013
	c-0.12,0.138-0.234,0.249-0.364,0.342c-0.219,0.264-0.466,0.494-0.754,0.694c-0.596,0.421-1.168,0.697-1.738,0.806l-0.863,0.071
	l-2.812,0.079c-3.022,0.068-6.048,0.151-9.057,0.252l-0.705,0.017l-1.118-0.697c-0.062-0.047-0.112-0.104-0.154-0.148
	c-0.586-0.641-0.917-1.415-0.97-2.33c0.022-0.172,0.012-0.312-0.013-0.41c0.024-0.805,0.276-1.52,0.746-2.164
	c0.596-0.844,1.359-1.356,2.301-1.537c0.094-0.009,0.195-0.008,0.266-0.018H90.582z"/>
<path fill="#D57998" d="M101.777,282.189c0.276,0.11,0.543,0.262,0.804,0.423c0.677,0.403,1.085,1.011,1.213,1.822
	c0.047,0.31,0.062,0.634,0.04,0.958c-0.031,0.396-0.101,0.802-0.226,1.207c-0.188,0.573-0.43,1.073-0.74,1.5
	c-0.016,0.028-0.045,0.056-0.072,0.082c-0.25,0.317-0.496,0.537-0.771,0.669c0.012-0.015,0.041-0.015,0.057,0
	c-0.072,0.012-0.13,0.024-0.202,0.066c-0.099,0.021-0.212,0.049-0.327,0.073c-0.024-0.014-0.056-0.002-0.086,0.01
	c-0.124,0.011-0.252,0.007-0.38,0.016c-0.183,0.007-0.379,0.002-0.58,0.011c-4.897-0.005-9.754-0.026-14.595-0.029
	c-0.417-0.254-0.744-0.587-0.997-0.991c-0.392-0.678-0.561-1.416-0.522-2.219c0.016-0.072,0.02-0.143,0.035-0.184
	c0.031-0.07,0.045-0.113,0.031-0.139c0.018-0.033,0.028-0.043,0.018-0.043v-0.029c0.121-0.657,0.42-1.212,0.876-1.677
	c0.22-0.278,0.564-0.576,1.014-0.887c0.433-0.308,0.841-0.55,1.197-0.724l0.661-0.304l1.605-0.001
	c2.91-0.004,5.818,0.006,8.741,0.017l1.906,0.005L101.777,282.189z"/>
<path fill="#DC640F" d="M101.88,288.915c0.072-0.04,0.13-0.053,0.202-0.064c0.112-0.025,0.239-0.046,0.397-0.072
	c0.305-0.243,0.607-0.488,0.911-0.716c13.46-2.68,24.746-2.381,33.855,0.867c4.073,1.464,7.173,3.4,9.297,5.826
	c1.892,2.168,2.689,4.396,2.42,6.688c-0.318,2.379-1.742,4.436-4.271,6.199c-1.577,1.092-3.439,1.99-5.605,2.696
	c0.878-1.029,1.456-2.269,1.717-3.741c0.414-2.286-0.068-4.365-1.461-6.23c-1.524-2.102-3.854-3.416-6.96-3.957
	c2.106,0.805,3.698,2.14,4.785,3.998c1.025,1.769,1.431,3.617,1.201,5.572c-0.237,2.026-1.081,3.652-2.533,4.887
	c-0.19,0.178-0.407,0.324-0.625,0.471c-0.823,0.16-1.673,0.317-2.567,0.439c-12.723,1.771-29.19-0.701-49.371-7.393
	c0.146,0.047,0.305-1.486,0.479-4.615c0.171-3.129,0.757-6.217,1.73-9.275h0.013l0.001-0.014c0.145-0.489,0.285-0.953,0.401-1.413
	c0-0.015,0-0.041,0.016-0.07c4.841,0.003,9.697,0.024,14.595,0.029c0.201-0.009,0.397-0.004,0.58-0.011
	c0.128-0.009,0.256-0.005,0.38-0.016c0.03-0.012,0.062-0.025,0.084-0.01C101.668,288.965,101.781,288.938,101.88,288.915"/>
<path fill="#DC640F" d="M100.478,281.822l-1.906-0.005c-2.923-0.011-5.831-0.022-8.741-0.018l-1.605,0.002
	c0.074-0.067,0.115-0.122,0.162-0.192c0.787-1.286,1.158-2.687,1.126-4.227l0.705-0.017c3.009-0.101,6.034-0.184,9.057-0.252
	l2.812-0.079c-0.236,1.586-0.751,3.094-1.521,4.539C100.524,281.644,100.493,281.722,100.478,281.822"/>
<path fill="#D52828" d="M74.506,251.742c0.184-0.364,0.371-0.729,0.569-1.062c-5.005-1.538-10.008-3.051-15.042-4.563
	c-0.196,0.334-0.397,0.666-0.6,1.014c-2.797,4.595-5.413,9.657-7.846,15.183c-0.066-0.032-0.135-0.055-0.205-0.061
	c-1.118-0.299-2.262-0.076-3.474,0.674l-0.013-0.004l-0.001,0.016c-1.032,0.652-1.793,1.584-2.269,2.766
	c-0.372,1.207-0.352,2.336,0.105,3.393c0.509,1.201,1.328,1.938,2.475,2.196h0.015c0.112,0.011,0.208,0.036,0.276,0.07
	c-0.021,0.066-0.027,0.125-0.045,0.19c-0.139,0.271-0.265,0.557-0.378,0.868c-0.187,0.532-0.364,1.081-0.527,1.616
	c0,0.012,0,0.012,0.017,0.029c-0.08,0.234-0.157,0.449-0.22,0.684c-0.063,0.264-0.107,0.543-0.113,0.809
	c-0.009,0.21-0.05,0.388-0.154,0.564c-0.04-0.033-0.076-0.066-0.114-0.111c-0.006,0.042-0.006,0.07-0.013,0.113
	c-1.005-0.077-1.927,0.274-2.761,1.072h-0.014v0.014c-0.82,0.783-1.275,1.814-1.367,3.088c-0.059,1.264,0.274,2.42,1.013,3.462
	c0.012-0.016,0.025,0.001,0.012,0.011c0.812,1.162,1.809,1.801,2.996,1.953c-0.003,0.166,0.034,0.354,0.117,0.545l2.22,0.203
	c-0.079-0.502-0.116-1.012-0.129-1.533l-0.844-0.179c-0.544-0.175-1.078-0.519-1.611-1.003c-0.264-0.236-0.475-0.496-0.663-0.777
	c-0.114-0.111-0.217-0.236-0.316-0.385v-0.013c-0.413-0.573-0.606-1.211-0.557-1.925c0.013-0.297,0.065-0.559,0.144-0.818
	c0.302-0.664,0.745-1.202,1.33-1.6c0.766-0.521,1.606-0.756,2.514-0.699c0.017,0,0.044,0.003,0.071,0.004
	c0.021-0.064,0.023-0.111,0.028-0.153c0.067-0.106,0.133-0.211,0.186-0.333c-0.197-0.596-0.192-1.286,0.004-2.043
	c0.233-0.882,0.535-1.729,0.909-2.553c0.155-0.326,0.335-0.605,0.566-0.822c0.062-0.262,0.13-0.511,0.196-0.771
	c-0.017,0-0.055-0.004-0.097-0.009c-0.899-0.181-1.676-0.644-2.299-1.392c-0.573-0.686-0.865-1.488-0.912-2.396
	c0.041-0.264,0.095-0.527,0.146-0.791c0.147-0.405,0.347-0.74,0.583-1.015c0.258-0.219,0.532-0.43,0.801-0.619
	c0.394-0.288,0.836-0.488,1.312-0.598c0.977-0.222,1.912-0.264,2.802-0.114c0.016-0.025,0.016-0.042,0.03-0.039
	c2.288-5.499,4.801-10.511,7.556-15.067c3.658,1.123,7.29,2.228,10.896,3.33c-2.566,4.709-4.818,9.663-6.771,14.842
	c-0.001,0.017-0.001,0.017-0.001,0.027c0.601,0.521,1.029,1.193,1.312,2.023c0.112,0.416,0.144,0.871,0.089,1.348
	c-0.175,0.928-0.612,1.732-1.305,2.416c-0.572,0.523-1.251,0.901-2.021,1.112c-0.026-0.001-0.056-0.006-0.083,0.007
	c-0.03-0.018-0.056-0.035-0.081-0.051c-0.016,0.012-0.029,0.026-0.048,0.038c-0.135,0.103-0.242,0.22-0.354,0.351
	c-0.238,0.273-0.435,0.594-0.565,0.977c-0.284,0.749-0.479,1.518-0.626,2.325c-0.087,0.511-0.104,1.005-0.063,1.499
	c-0.014,0.016-0.014,0.016-0.017,0.029c-0.011,0.11-0.018,0.221-0.03,0.334l-0.003,0.043l0.016,0.001
	c0.068,0.021,0.164,0.03,0.258,0.05c0.905,0.295,1.602,0.895,2.082,1.797c0.386,0.695,0.545,1.432,0.473,2.229
	c-0.04,0.093-0.064,0.231-0.064,0.402c-0.166,0.9-0.584,1.623-1.242,2.182c-0.046,0.039-0.105,0.092-0.163,0.129l-1.191,0.554
	c-0.037,0.249-0.062,0.5-0.07,0.751l2.597,0.24c0.368-0.178,0.731-0.43,1.071-0.779c-0.01-0.013,0.003-0.027,0.015-0.01
	c0.767-0.82,1.188-1.865,1.261-3.143c0.045-1.279-0.274-2.436-0.938-3.469c-0.461-0.699-1.02-1.219-1.651-1.544
	c0-0.013,0-0.013,0.005-0.028c-0.045-0.016-0.066-0.047-0.094-0.079c-0.013-0.014-0.008-0.026-0.023-0.044
	c-0.004-0.111,0.009-0.223,0.016-0.322c-0.016-0.156,0.002-0.324,0.03-0.504c0.104-0.496,0.231-0.979,0.398-1.429
	c0.204-0.56,0.51-0.983,0.922-1.284c0-0.012,0-0.025,0-0.041c0.48-0.139,0.936-0.369,1.402-0.689
	c0.978-0.687,1.685-1.639,2.09-2.856c0.403-1.185,0.396-2.312-0.005-3.366c-0.242-0.585-0.565-1.053-0.955-1.398
	C69.522,261.591,71.853,256.557,74.506,251.742"/>
<path fill="#D52828" d="M12.076,295.983c-4.178,1.801-7.324,4.165-9.44,7.089c-2.139,2.947-2.977,5.971-2.511,9.072l-0.002,0.014
	c0.403,3.176,2.125,5.916,5.16,8.189l0.012,0.003c3.074,2.321,7.207,3.838,12.414,4.55l0.01,0.001
	c12.289,1.694,28.047-1.3,47.252-9.009c0.238-0.037,0.441-0.272,0.586-0.709c0.021,0.045,0.045,0.087,0.086,0.136
	c0.348-1.028,0.589-2.765,0.74-5.204v-0.016c0.055-1.051,0.075-2.062,0.081-3.062c-0.014-2.51-0.193-4.864-0.541-7.082
	c0,0,0.015,0.003,0.029-0.01c-0.04-0.16-0.069-0.303-0.074-0.429c0.079-0.052,0.15-0.099,0.223-0.151
	c0.229-0.16,0.442-0.353,0.647-0.573c-0.012-0.016,0-0.028,0.014-0.013c0.668-0.826,0.976-1.872,0.922-3.146
	c-0.126-1.264-0.573-2.402-1.354-3.418c-0.457-0.533-0.93-0.944-1.406-1.254c-0.346-0.088-0.588-0.337-0.763-0.762
	c-0.183-0.467-0.324-0.945-0.437-1.419c-0.047-0.215-0.042-0.428,0-0.608c-0.007-0.084-0.016-0.17-0.021-0.27
	c0.076-0.035,0.163-0.054,0.235-0.088l-2.597-0.24c-0.07,1.236,0.148,2.425,0.662,3.56c0.034,0.071,0.074,0.13,0.136,0.206
	l0.615,0.383c0.331,0.211,0.7,0.499,1.092,0.859c0.403,0.36,0.71,0.698,0.896,0.996c0.388,0.516,0.618,1.1,0.656,1.766
	c0,0.012,0,0.012-0.003,0.025c-0.014,0,0,0.012,0.01,0.047c-0.017,0.023-0.007,0.068,0.017,0.142c0.01,0.042,0.005,0.112,0.01,0.184
	c-0.057,0.797-0.32,1.505-0.784,2.126c-0.3,0.367-0.665,0.659-1.108,0.857c0.015,0.03,0.011,0.059,0.008,0.072
	c0.012,0.07,0.026,0.158,0.036,0.229c0.051,0.385,0.112,0.799,0.189,1.215l-0.003,0.012l0.01,0.003
	c0.338,1.762,0.54,3.514,0.624,5.271c0.061,1.371,0.034,2.734-0.049,4.096c-0.086,1.273-0.138,2.298-0.163,3.043
	c-0.064-0.078-0.129-0.152-0.188-0.229c0.022,0.2,0.033,0.37,0.066,0.515c0.053,0.469,0.115,0.689,0.176,0.666
	c-18.82,7.561-34.265,10.525-46.325,8.911c-0.832-0.12-1.636-0.265-2.423-0.434c-0.214-0.146-0.408-0.319-0.606-0.491
	c-1.403-1.283-2.245-3.01-2.531-5.162c-0.292-2.07,0.033-4.068,0.95-5.974c0.959-2.013,2.426-3.456,4.385-4.364
	c-2.922,0.635-5.068,2.092-6.445,4.376c-1.238,2.015-1.636,4.245-1.165,6.671c0.294,1.561,0.861,2.869,1.741,3.948
	c-2.083-0.708-3.869-1.618-5.386-2.757c-2.438-1.83-3.852-4-4.228-6.529c-0.327-2.438,0.353-4.842,2.076-7.182
	c1.929-2.629,4.785-4.762,8.571-6.408c6.536-2.801,14.345-3.766,23.423-2.873l11.8,1.538l0.101-0.062
	c-0.449-0.181-0.805-0.457-1.08-0.832c-0.089-0.105-0.161-0.226-0.234-0.332c-0.11-0.191-0.203-0.413-0.281-0.646L46.575,295
	c-0.072-0.261-0.15-0.536-0.209-0.808c-0.074-0.416-0.093-0.826-0.072-1.221c0.011-0.211,0.039-0.418,0.086-0.627
	c0.024-0.109,0.049-0.223,0.072-0.316c0.224-0.783,0.7-1.33,1.415-1.647c0.281-0.128,0.557-0.244,0.849-0.317l1.327-0.202
	c-0.004-0.101-0.022-0.186-0.059-0.259c-0.399-1.038-0.674-2.078-0.818-3.131l-2.22-0.205c0.016,0.017,0.016,0.017,0.011,0.031
	c0.008,0.059,0.019,0.113,0.026,0.17c0.069,0.443,0.16,0.875,0.265,1.309c0.062,0.244,0.139,0.463,0.233,0.668
	c-0.984-0.033-1.811,0.359-2.488,1.153h-0.015l0.015,0.017c-0.301,0.352-0.533,0.753-0.687,1.205
	c-0.09,0.232-0.155,0.464-0.19,0.715c-0.049,0.672-0.014,1.34,0.143,1.984c0.039,0.176,0.079,0.349,0.136,0.537
	c-0.374-0.105-0.857-0.193-1.486-0.265c-0.627-0.097-1.221-0.181-1.779-0.272c-0.553-0.092-0.984-0.16-1.289-0.201l-0.005,0.01
	C28.915,291.79,19.659,292.667,12.076,295.983"/>
<path fill="#D57998" d="M50.528,264.05c-0.476,0.109-0.918,0.31-1.312,0.598c-0.269,0.189-0.543,0.4-0.801,0.619
	c-0.236,0.274-0.436,0.609-0.583,1.015c-0.052,0.264-0.105,0.527-0.146,0.791c0.046,0.907,0.338,1.71,0.911,2.396
	c0.623,0.748,1.399,1.212,2.299,1.392c0.042,0.005,0.08,0.009,0.097,0.009c0.043-0.01,0.068-0.008,0.084,0.008
	c3.964,1.021,7.904,2.027,11.825,3.046c0.019-0.012,0.032-0.026,0.048-0.036c0.025,0.014,0.051,0.031,0.081,0.049
	c0.027-0.013,0.057-0.008,0.085-0.007c0.769-0.211,1.446-0.589,2.019-1.113c0.692-0.683,1.13-1.487,1.305-2.415
	c0.055-0.477,0.023-0.932-0.089-1.348c-0.277-0.83-0.711-1.503-1.312-2.023c0-0.011,0-0.011,0.001-0.027
	c-3.882-1.016-7.793-2.033-11.711-3.065C52.44,263.787,51.505,263.829,50.528,264.05"/>
<path fill="#DC640F" d="M51.078,270.876c-0.016-0.016-0.041-0.018-0.084-0.008c-0.066,0.261-0.133,0.51-0.197,0.771
	c-0.23,0.217-0.41,0.496-0.565,0.822c-0.374,0.824-0.676,1.671-0.909,2.553c-0.197,0.757-0.201,1.443-0.004,2.042
	c-0.053,0.123-0.118,0.228-0.185,0.334c-0.006,0.042-0.008,0.087-0.029,0.153c0.058-0.007,0.087,0.007,0.097,0.023
	c0.027,0.014,0.057,0.02,0.08,0.037c4.007,0.602,7.997,1.218,11.967,1.832c0.013-0.113,0.02-0.224,0.03-0.334
	c0.003-0.014,0.003-0.014,0.017-0.029c-0.04-0.494-0.023-0.988,0.063-1.499c0.147-0.808,0.342-1.576,0.626-2.325
	c0.131-0.383,0.327-0.703,0.565-0.977c0.111-0.131,0.219-0.248,0.354-0.351C58.982,272.904,55.042,271.898,51.078,270.876"/>
<path fill="#DC640F" d="M53.36,263.897c-0.015-0.003-0.015,0.014-0.032,0.039c3.92,1.032,7.831,2.05,11.713,3.065
	c1.953-5.179,4.205-10.133,6.771-14.842c-3.606-1.103-7.238-2.207-10.896-3.33C58.161,253.384,55.648,258.398,53.36,263.897"/>
<path fill="#D57998" d="M61.245,279.48l0.003-0.043c-3.97-0.614-7.96-1.23-11.967-1.832c-0.023-0.018-0.053-0.023-0.08-0.037
	c-0.01-0.017-0.039-0.03-0.097-0.023c-0.026-0.001-0.055-0.004-0.071-0.004c-0.907-0.057-1.749,0.178-2.514,0.699
	c-0.585,0.397-1.028,0.936-1.33,1.6c-0.078,0.26-0.131,0.521-0.144,0.818c-0.05,0.714,0.144,1.352,0.557,1.925v0.013
	c0.1,0.148,0.202,0.273,0.316,0.382c0.188,0.284,0.399,0.544,0.663,0.779c0.533,0.485,1.067,0.829,1.611,1.004l0.844,0.179
	l2.768,0.419c2.978,0.439,5.951,0.893,8.909,1.358l0.698,0.106l1.191-0.556c0.058-0.035,0.117-0.088,0.163-0.127
	c0.66-0.559,1.076-1.281,1.242-2.182c0-0.171,0.028-0.31,0.064-0.402c0.07-0.797-0.087-1.533-0.473-2.229
	c-0.48-0.902-1.177-1.502-2.082-1.797c-0.094-0.02-0.189-0.029-0.258-0.05L61.245,279.48z"/>
<path fill="#D57998" d="M48.716,290.064c-0.292,0.073-0.568,0.189-0.849,0.317c-0.715,0.317-1.191,0.864-1.415,1.647
	c-0.023,0.099-0.048,0.207-0.072,0.316c-0.047,0.209-0.077,0.416-0.088,0.627c-0.019,0.395,0,0.805,0.074,1.221
	c0.059,0.271,0.137,0.547,0.209,0.808l0.013,0.014c0.078,0.232,0.171,0.454,0.281,0.646c0.073,0.106,0.146,0.227,0.234,0.332
	c0.275,0.375,0.631,0.651,1.08,0.832l1.535,0.209c1.225,0.151,2.451,0.293,3.678,0.445c3.402,0.408,6.786,0.828,10.143,1.246
	c0.443-0.198,0.81-0.49,1.108-0.857c0.464-0.621,0.728-1.329,0.784-2.126c-0.005-0.071,0-0.142-0.008-0.184
	c-0.025-0.073-0.035-0.118-0.019-0.142c-0.01-0.035-0.023-0.047-0.01-0.047c0.003-0.014,0.003-0.014,0.003-0.025
	c-0.038-0.666-0.269-1.25-0.657-1.766c-0.185-0.298-0.491-0.636-0.895-0.996c-0.392-0.36-0.761-0.648-1.092-0.859l-0.615-0.383
	l-1.585-0.201c-2.874-0.359-5.742-0.705-8.629-1.051l-1.883-0.226L48.716,290.064z"/>
<path fill="#DC640F" d="M48.184,296.824l-0.101,0.062l-11.8-1.538c-9.078-0.893-16.887,0.072-23.423,2.873
	c-3.786,1.646-6.643,3.779-8.571,6.408c-1.724,2.34-2.403,4.744-2.076,7.182c0.376,2.529,1.789,4.699,4.228,6.529
	c1.517,1.139,3.303,2.049,5.386,2.757c-0.88-1.079-1.447-2.388-1.741-3.948c-0.471-2.426-0.073-4.656,1.165-6.671
	c1.377-2.284,3.523-3.741,6.445-4.376c-1.959,0.908-3.426,2.352-4.385,4.364c-0.917,1.905-1.242,3.903-0.95,5.974
	c0.286,2.152,1.128,3.879,2.531,5.162c0.198,0.172,0.393,0.346,0.606,0.49c0.788,0.17,1.591,0.314,2.423,0.435
	c12.061,1.614,27.505-1.353,46.325-8.911c-0.061,0.023-0.123-0.197-0.176-0.666c-0.033-0.145-0.044-0.314-0.066-0.515
	c0.059,0.077,0.123,0.151,0.188,0.229c0.025-0.745,0.077-1.77,0.163-3.043c0.083-1.361,0.109-2.725,0.049-4.098
	c-0.084-1.755-0.286-3.507-0.624-5.269l-0.01-0.003l0.003-0.012c-0.077-0.416-0.139-0.83-0.189-1.215
	c-0.01-0.07-0.024-0.158-0.036-0.229c0.003-0.014,0.007-0.042-0.008-0.072c-3.356-0.418-6.74-0.838-10.143-1.246
	c-1.227-0.152-2.453-0.294-3.678-0.443L48.184,296.824z"/>
<path fill="#DC640F" d="M50.043,289.862l1.883,0.226c2.887,0.346,5.755,0.691,8.629,1.051l1.585,0.201
	c-0.062-0.076-0.102-0.135-0.136-0.206c-0.621-1.368-0.811-2.798-0.592-4.311l-0.697-0.106c-2.959-0.466-5.933-0.919-8.909-1.358
	l-2.769-0.419c0.04,1.594,0.366,3.146,0.947,4.664C50.021,289.676,50.039,289.761,50.043,289.862"/>
<polygon fill="#D52828" points="42.031,293.052 42.047,293.052 42.031,293.037 "/>
<path fill="#E7B31A" d="M116.393,154.42c0.072,0.079,0.148,0.146,0.228,0.212c3.622,3.454,7.541,6.526,11.775,9.193l-0.013-0.008
	c1.191,0.766,2.496,1.287,3.923,1.574c2.567,0.529,5.291,0.432,8.164-0.307l0.022-0.008c0.273-0.072,0.559-0.154,0.834-0.224
	c0.021-0.007,0.033-0.003,0.047-0.009c0.447-0.134,0.877-0.273,1.293-0.4l0.015-0.011c2.768-0.929,5.337-2.237,7.727-3.933
	l-0.014-0.008c1.109-0.787,2.311-1.459,3.578-2.022c2.466-1.112,5.048-1.805,7.729-2.054c1.773-0.163,3.543-0.191,5.284-0.09
	c0.015,0.006,0.026,0.011,0.048,0.006c7.639,0.165,13.183,3.666,16.635,10.482c0.162,0.317,0.32,0.636,0.479,0.952
	c0.048,0.098,0.085,0.211,0.134,0.306c0.008,0.021,0.008,0.021,0.02,0.026c1.71,3.829,1.815,8.218,0.354,13.155
	c-1.391,4.649-3.92,9.153-7.59,13.538c-0.371,0.439-0.754,0.876-1.131,1.297l-0.02,0.006c-1.538,1.783-3.256,3.363-5.159,4.736
	l-0.021,0.005c-5.838,4.257-12.301,5.975-19.401,5.167l0.017-0.006c-7.88-1.012-14.947-4.188-21.22-9.533
	c-6.483-5.537-11.699-12.045-15.655-19.568c-0.01-0.006-0.01-0.006-0.006-0.019c-1.88-3.419-3.247-6.431-4.093-9.05l-0.319-1.021
	l-0.014-0.036l-2.12,0.677l0.341,1.059c0.867,2.736,2.294,5.886,4.259,9.446l-0.008-0.017c4.09,7.765,9.485,14.514,16.181,20.224
	l-0.013-0.007c6.592,5.646,14.057,8.991,22.387,10.056l0.012,0.004c7.683,0.874,14.669-0.985,20.971-5.579
	c2.038-1.475,3.886-3.162,5.533-5.05c0.005-0.013,0.005-0.013,0.013-0.023c0.394-0.431,0.783-0.877,1.167-1.345
	c3.883-4.617,6.554-9.397,8.015-14.334c1.642-5.526,1.482-10.433-0.45-14.699c-0.074-0.144-0.142-0.265-0.188-0.391l-0.008-0.018
	c-0.158-0.32-0.32-0.637-0.478-0.955c-3.846-7.625-10.04-11.53-18.579-11.71l0.044,0.001c-1.863-0.108-3.747-0.07-5.623,0.09
	l-0.004,0.011c-2.945,0.284-5.76,1.02-8.44,2.233c-1.394,0.63-2.696,1.373-3.938,2.241c-2.199,1.57-4.582,2.782-7.13,3.644
	c-0.007,0.011-0.007,0.011-0.02,0.004c-0.396,0.127-0.787,0.25-1.176,0.362c-0.015,0.008-0.036,0.014-0.053,0.021
	c-0.278,0.075-0.558,0.143-0.832,0.213l0.011,0.007c-2.52,0.661-4.919,0.75-7.16,0.281c-1.167-0.229-2.223-0.655-3.182-1.263
	l0.005-0.013c-4.191-2.646-8.08-5.689-11.653-9.123l-0.794-0.762l-1.545,1.596L116.393,154.42z"/>
<path fill="#F2D724" d="M110.057,166.806l0.319,1.021c0.846,2.619,2.213,5.631,4.093,9.05c-0.004,0.013-0.004,0.013,0.006,0.019
	c3.956,7.523,9.172,14.031,15.655,19.568c6.272,5.346,13.34,8.521,21.22,9.533l-0.017,0.006c7.101,0.808,13.563-0.91,19.401-5.167
	l0.021-0.005c1.903-1.373,3.621-2.953,5.159-4.736l0.02-0.006c0.377-0.421,0.76-0.857,1.131-1.297
	c3.67-4.385,6.199-8.889,7.59-13.538c1.461-4.938,1.355-9.326-0.354-13.155c-0.012-0.008-0.012-0.008-0.02-0.026
	c-0.049-0.099-0.086-0.208-0.134-0.306c-0.158-0.316-0.316-0.635-0.479-0.952c-3.452-6.816-8.996-10.317-16.635-10.482
	c-0.021,0.004-0.033,0-0.048-0.006c-1.741-0.101-3.511-0.073-5.284,0.09c-2.678,0.249-5.264,0.942-7.729,2.054
	c-1.268,0.563-2.469,1.235-3.578,2.022l0.014,0.007c-2.39,1.697-4.959,3.005-7.727,3.935l-0.015,0.01
	c-0.416,0.127-0.846,0.267-1.293,0.4c-0.014,0.006-0.025,0.002-0.047,0.008c-0.275,0.068-0.561,0.152-0.834,0.225l-0.022,0.008
	c-2.873,0.738-5.597,0.836-8.164,0.307c-1.427-0.288-2.731-0.809-3.923-1.574l0.013,0.008c-4.234-2.67-8.153-5.739-11.775-9.193
	L110.057,166.806z"/>
<path fill="#E7B31A" d="M115.226,144.424c-0.567-2.575-3.011-4.357-7.351-5.341c-4.202-0.957-9.811-1.083-16.809-0.36
	c-1.998,0.212-4.251,1.571-6.753,4.1c-2.271,2.287-5.12,5.917-8.565,10.918c-4.365,6.364-13.439,20.303-27.204,41.805
	c-5.915,8.94-9.267,17.458-10.033,25.527c-0.711,7.327,0.691,14.03,4.225,20.096c3.23,5.558,8.006,10.251,14.316,14.054
	c5.968,3.607,12.681,6.104,20.167,7.47c7.438,1.349,14.701,1.416,21.782,0.224c7.449-1.233,13.853-3.744,19.209-7.531
	c5.848-4.097,9.974-9.398,12.401-15.893c2.676-7.174,3.123-15.458,1.355-24.858c-3.908-20.769-7.576-37.37-11.021-49.825
	C118.011,155.304,116.111,148.516,115.226,144.424"/>
<path fill="none" stroke="#E7B31A" stroke-width="4.2328" stroke-miterlimit="10" d="M107.875,139.085
	c-4.202-0.958-9.811-1.083-16.809-0.363c-1.998,0.212-4.251,1.571-6.753,4.099c-2.271,2.288-5.12,5.918-8.565,10.919
	c-4.365,6.364-13.439,20.303-27.204,41.805c-5.915,8.94-9.267,17.458-10.033,25.531c-0.711,7.323,0.691,14.026,4.225,20.094
	c3.23,5.556,8.006,10.249,14.316,14.052c5.968,3.607,12.681,6.104,20.167,7.47c7.438,1.349,14.701,1.416,21.782,0.224
	c7.449-1.233,13.853-3.744,19.209-7.531c5.848-4.097,9.974-9.398,12.401-15.893c2.676-7.174,3.123-15.458,1.355-24.858
	c-3.908-20.769-7.576-37.37-11.021-49.825c-2.936-9.504-4.835-16.292-5.721-20.384C114.658,141.849,112.215,140.067,107.875,139.085
	z"/>
<path fill="#F2D724" d="M132.06,214.665c-3.908-20.769-7.576-37.37-11.021-49.825c-1.125-3.662-2.108-6.924-2.932-9.774
	c-13.829-8.712-21.71-17.279-23.664-25.682l-10.807,14.272c-2.13,2.293-4.734,5.665-7.796,10.117
	c-4.365,6.364-13.439,20.303-27.204,41.805c-5.915,8.94-9.267,17.458-10.033,25.527c-0.711,7.327,0.691,14.03,4.224,20.096
	c3.231,5.558,8.007,10.251,14.317,14.054c5.968,3.607,12.681,6.104,20.167,7.47c7.438,1.349,14.701,1.416,21.782,0.222
	c7.449-1.231,13.853-3.742,19.209-7.529c5.848-4.097,9.974-9.398,12.401-15.893C133.38,232.349,133.827,224.065,132.06,214.665"/>
<path fill="#E7B31A" d="M159.312,56.855c-4.153-7.858-9.804-14.708-16.956-20.582c-7.121-5.845-15.165-10.219-24.146-13.149
	c-9.292-3.027-18.908-4.292-28.87-3.777c-9.962,0.515-19.387,2.763-28.279,6.73c-8.635,3.843-16.202,9.024-22.686,15.573
	C31.87,48.228,26.956,55.627,23.65,63.87c-3.464,8.577-4.962,17.444-4.485,26.62c1.182,22.921,9.355,39.812,24.516,50.68
	c13.25,9.669,30.787,13.949,52.619,12.82c10.188-0.528,19.584-2.421,28.197-5.671h0.014c8.883-3.376,16.49-8.025,22.823-13.934
	c13.885-12.904,20.279-30.084,19.172-51.514C166.032,73.695,163.637,65.027,159.312,56.855 M140.927,38.025
	c6.901,5.657,12.374,12.294,16.383,19.893c4.172,7.885,6.493,16.232,6.948,25.07c1.071,20.698-5.072,37.272-18.447,49.761
	c-6.146,5.714-13.505,10.192-22.113,13.469c-8.402,3.168-17.579,5.01-27.513,5.521c-21.229,1.099-38.297-3.034-51.191-12.385
	c-14.572-10.516-22.438-26.848-23.581-48.979c-0.455-8.839,0.988-17.381,4.321-25.657c3.209-7.968,7.967-15.132,14.263-21.475
	c6.277-6.354,13.596-11.397,21.973-15.111c8.646-3.857,17.806-6.036,27.486-6.538c9.682-0.5,19.03,0.722,28.056,3.666
	C126.211,28.092,134.027,32.35,140.927,38.025"/>
<path fill="#F2D724" d="M157.31,57.918c-4.009-7.599-9.481-14.234-16.383-19.892c-6.899-5.674-14.716-9.934-23.416-12.768
	c-9.025-2.943-18.374-4.165-28.056-3.663c-9.681,0.502-18.84,2.679-27.486,6.538c-8.377,3.715-15.695,8.756-21.973,15.11
	c-6.292,6.343-11.054,13.508-14.263,21.477c-3.333,8.275-4.776,16.815-4.321,25.656c1.143,22.129,9.009,38.463,23.581,48.979
	c12.895,9.351,29.962,13.484,51.191,12.385c9.934-0.512,19.11-2.353,27.513-5.521c8.608-3.277,15.967-7.755,22.113-13.473
	c13.375-12.483,19.519-29.059,18.447-49.757C163.803,74.15,161.481,65.803,157.31,57.918"/>
<path fill="#D57998" d="M58.767,74.61c3.704-3.335,7.776-5.714,12.255-7.171c4.335-1.42,8.553-1.836,12.644-1.217
	c-1.96-1.097-4.002-1.921-6.156-2.443c-3.098-0.756-6.201-0.891-9.317-0.392c-3.117,0.484-6.021,1.549-8.74,3.211
	c-4.313,2.648-7.475,6.292-9.495,10.947c-1.959,4.552-2.492,9.259-1.576,14.113c0.741-3.096,1.979-6.089,3.705-8.98
	C53.86,79.697,56.086,77.004,58.767,74.61"/>
<path fill="#1271B2" d="M71.021,67.439c-4.479,1.457-8.551,3.836-12.255,7.171c-2.681,2.394-4.906,5.086-6.682,8.069
	c-1.727,2.891-2.964,5.884-3.705,8.98c0.586,2.917,1.598,5.583,3.058,7.984l1.225,1.827c-0.067-3.772,0.769-7.521,2.491-11.26
	c1.771-3.88,4.31-7.322,7.636-10.313c4.454-4.019,9.424-6.544,14.908-7.561c5.357-1.009,10.142-0.37,14.357,1.905
	c-2.164-3.424-4.965-6.098-8.39-8.019C79.574,65.604,75.356,66.019,71.021,67.439"/>
<path fill="#FFFFFF" d="M92.055,74.241c-4.216-2.272-8.999-2.914-14.357-1.905c-5.484,1.013-10.454,3.542-14.907,7.561
	c-3.327,2.99-5.866,6.431-7.637,10.313c-1.723,3.738-2.559,7.487-2.491,11.26c1.68,2.267,3.666,4.164,5.988,5.719
	c2.335,1.559,4.872,2.667,7.61,3.329c3.097,0.755,6.202,0.89,9.288,0.392c3.121-0.485,6.036-1.567,8.765-3.244
	c5.627-3.445,9.22-8.393,10.786-14.841c1.57-6.467,0.635-12.533-2.801-18.199L92.055,74.241z"/>
<path fill="#D57998" d="M125.473,71.133c-4.029-2.936-8.327-4.883-12.927-5.87c-4.46-0.969-8.7-0.944-12.707,0.093
	c1.839-1.293,3.789-2.321,5.874-3.064c3.002-1.073,6.077-1.525,9.231-1.351c3.147,0.16,6.146,0.921,9.023,2.296
	c4.562,2.187,8.087,5.483,10.572,9.906c2.418,4.327,3.431,8.952,3.024,13.876c-1.058-3.002-2.599-5.852-4.61-8.551
	C130.879,75.685,128.385,73.235,125.473,71.133"/>
<path fill="#1271B2" d="M112.546,65.263c4.6,0.987,8.897,2.934,12.927,5.87c2.912,2.104,5.406,4.552,7.481,7.335
	c2.012,2.699,3.553,5.549,4.61,8.552c-0.282,2.959-1.013,5.715-2.22,8.26l-1.026,1.939c-0.325-3.761-1.541-7.404-3.638-10.945
	c-2.163-3.676-5.047-6.838-8.661-9.468c-4.847-3.54-10.049-5.539-15.613-5.984c-5.432-0.453-10.121,0.679-14.081,3.375
	c1.798-3.628,4.307-6.577,7.517-8.842C103.846,64.318,108.086,64.294,112.546,65.263"/>
<path fill="#FFFFFF" d="M92.325,74.198c3.96-2.697,8.649-3.828,14.081-3.379c5.564,0.449,10.767,2.448,15.613,5.987
	c3.614,2.63,6.498,5.792,8.658,9.468c2.1,3.541,3.315,7.184,3.641,10.943c-1.438,2.428-3.219,4.521-5.367,6.306
	c-2.165,1.792-4.572,3.156-7.229,4.095c-3.003,1.072-6.078,1.527-9.2,1.352c-3.15-0.162-6.164-0.938-9.052-2.324
	c-5.95-2.849-10.032-7.397-12.26-13.651c-2.226-6.269-1.922-12.398,0.91-18.392L92.325,74.198z"/>
<path fill="#1A1616" d="M74.356,85.555c-1.491,1.656-2.182,3.593-2.068,5.8c0.117,2.235,1,4.076,2.657,5.555
	c1.655,1.492,3.592,2.182,5.799,2.068c2.234-0.118,4.074-1.002,5.553-2.655c1.492-1.641,2.187-3.563,2.069-5.8
	c-0.113-2.205-1.004-4.062-2.655-5.553c-1.64-1.493-3.564-2.185-5.801-2.069C77.708,83.015,75.848,83.904,74.356,85.555"/>
<path fill="#1A1616" d="M111.166,83.622c1.652,1.495,2.538,3.348,2.652,5.555c0.117,2.234-0.576,4.158-2.066,5.8
	c-1.492,1.653-3.35,2.538-5.555,2.653c-2.237,0.116-4.16-0.575-5.801-2.066c-1.652-1.48-2.539-3.321-2.654-5.555
	c-0.11-2.207,0.577-4.146,2.07-5.799c1.48-1.656,3.319-2.539,5.553-2.654C107.573,81.44,109.509,82.128,111.166,83.622"/>
<path fill="#E7B31A" d="M100.112,9.446c1.729-0.4,3.597-0.242,5.588,0.456c-2.77,0.65-5.151,3.608-7.146,8.868
	c-0.41,1.091-0.953,2.048-1.614,2.86c0.182-0.012,0.366-0.022,0.548-0.018c1.239-0.006,2.301,0.079,3.195,0.243
	c0.272-0.506,0.526-1.04,0.747-1.6c0.053-0.116,0.104-0.234,0.14-0.347c2.202-5.384,5.061-8.673,8.59-9.856
	c-4.451-3.025-8.156-4.143-11.133-3.354c-2.99,0.746-5.403,2.842-7.256,6.279l0.004,0.042c-0.267,0.591-0.502,1.152-0.731,1.657
	c-0.186-0.566-0.422-1.12-0.692-1.683C87.935,7.708,87.498,3.378,89.057,0c-5.223,1.159-8.572,3.092-10.055,5.774
	c-1.395,2.509-1.607,5.454-0.644,8.825c-0.972-0.275-2.012-0.443-3.11-0.501c-5.785-0.419-9.775-2.13-11.975-5.116
	c-1.495,5.123-1.436,8.98,0.203,11.585c0.37,0.587,0.793,1.113,1.254,1.599c1.28,1.3,2.949,2.27,5.011,2.895
	c1.257-0.246,3.604-0.565,7.038-0.939v-0.028l3.413-0.178c-0.665-0.318-1.454-0.6-2.368-0.835c-0.929-0.218-2.869-0.471-5.826-0.755
	c-2.905-0.315-4.984-1.533-6.235-3.65c-0.908-1.503-1.325-3.313-1.27-5.43c1.468,2.418,4.993,3.787,10.582,4.074
	c2.911,0.144,5.213,1.296,6.913,3.434c0.859,1.096,1.352,2.17,1.478,3.219c0.171,0.063,0.318,0.125,0.432,0.203
	c0.362-1.159,0.299-2.69-0.181-4.596c-0.259-0.917-0.973-2.741-2.158-5.482c-1.125-2.69-1.064-5.101,0.19-7.224
	c0.896-1.511,2.268-2.752,4.147-3.737c-1.41,2.454-0.906,6.204,1.541,11.264c1.274,2.623,1.379,5.197,0.326,7.717
	c-0.16,0.388-0.354,0.763-0.547,1.1c0.298-0.003,0.548-0.001,0.785,0.013c1.443-0.241,2.846-1.44,4.198-3.614
	c0.506-0.828,1.358-2.603,2.53-5.327c1.182-2.696,2.972-4.309,5.382-4.844V9.446z"/>
<path fill="#F2D724" d="M105.7,9.902c-1.991-0.7-3.859-0.858-5.589-0.456c-2.409,0.532-4.199,2.146-5.381,4.841
	c-1.172,2.725-2.024,4.5-2.53,5.333c-1.353,2.168-2.755,3.367-4.198,3.61c-0.026,0.002-0.052,0.004-0.08,0.005
	c-0.238,0.026-0.466,0.037-0.703,0.036c-0.016-0.013-0.016-0.013-0.028-0.013c0.013-0.015,0.013-0.028,0.026-0.043
	c0.193-0.334,0.387-0.709,0.547-1.099c1.053-2.522,0.948-5.094-0.329-7.718C84.99,9.34,84.486,5.59,85.896,3.137
	c-1.88,0.984-3.251,2.225-4.147,3.736c-1.255,2.123-1.315,4.534-0.19,7.223c1.185,2.743,1.899,4.566,2.158,5.485
	c0.479,1.904,0.543,3.436,0.181,4.596c-0.108,0.346-0.261,0.662-0.444,0.939c0.013-0.043,0.008-0.086,0.02-0.127l0.01-0.918
	c-0.014-0.041-0.017-0.068-0.017-0.097c-0.126-1.05-0.618-2.124-1.478-3.221c-1.7-2.139-4.002-3.287-6.913-3.434
	c-5.589-0.289-9.114-1.655-10.582-4.073c-0.056,2.117,0.361,3.925,1.27,5.43c1.251,2.117,3.33,3.334,6.235,3.65
	c2.957,0.282,4.897,0.536,5.826,0.754c0.914,0.236,1.703,0.518,2.368,0.835c0.954,0.474,1.658,1.027,2.115,1.681
	c0.214,0.314,0.374,0.656,0.478,1.033c0.02,0.069,0.034,0.138,0.055,0.208l-0.017,0.07c0.057-0.086,0.108-0.174,0.158-0.274
	c0.125-0.276,0.24-0.548,0.324-0.823l1.53-0.387c0.068-0.032,0.137-0.065,0.205-0.096c0.825-0.422,1.521-1.078,2.096-1.995
	c1.53,1.568,3.535,1.887,6.01,0.97c0.304-0.115,0.608-0.243,0.896-0.383c0.219-0.111,0.44-0.236,0.656-0.359
	c0.045-0.017,0.081-0.047,0.125-0.062l0.774-0.548c0.096-0.075,0.178-0.149,0.271-0.224c0.011-0.016,0.027-0.018,0.038-0.031
	c0.284-0.252,0.538-0.507,0.792-0.786c0.027-0.031,0.053-0.059,0.081-0.104c0.013-0.015,0.024-0.016,0.04-0.032
	c0.015-0.014,0.011-0.027,0.026-0.042c0.016-0.016,0.024-0.031,0.039-0.046c0.013-0.012,0.04-0.044,0.056-0.058
	c0.659-0.809,1.202-1.766,1.614-2.857c1.993-5.26,4.375-8.217,7.145-8.866V9.902z"/>
<path fill="#F2D724" d="M117.562,146.175c0.186-1.058,0.297-2.132,0.353-3.206c-0.142-0.211-0.309-0.395-0.494-0.537
	c-0.576-0.422-1.184-0.805-1.822-1.156c-0.337,0.125-0.788,0.351-1.354,0.648c-0.918,0.495-1.597,1.186-2.016,2.091v0.633v0.636
	v0.62c-0.354,0.425-0.691,0.848-1.034,1.288c-0.151,0.195-0.297,0.408-0.436,0.619c-0.069,0.212-0.131,0.425-0.168,0.638
	c-0.029,0.208-0.061,0.406-0.1,0.619c-0.043,0.213-0.084,0.424-0.158,0.636c-0.21,0.212-0.42,0.423-0.633,0.635
	c-0.212,0.213-0.423,0.426-0.636,0.635c-0.071,0.213-0.139,0.411-0.212,0.623c-0.068,0.213-0.143,0.422-0.213,0.636
	c-0.408,0.422-0.857,0.819-1.327,1.172c-0.693,0.521-1.02,1.185-0.989,1.992c0,0.208,0.03,0.41,0.1,0.591
	c0.155,0.439,0.326,0.876,0.506,1.314c0.102,0.211,0.173,0.41,0.242,0.621v0.636c0,0.424,0.043,0.832,0.129,1.229
	c0.055,0.239,0.153,0.45,0.298,0.66c0.209,0.213,0.435,0.384,0.69,0.524c1.24,0.664,2.482,0.708,3.729,0.113
	c0.066-0.07,0.123-0.143,0.195-0.211c0.212,0.211,0.407,0.438,0.62,0.663c0.369,0.396,0.721,0.807,1.073,1.228v0.638v2.527
	c0.016,0.633,0.016,1.255,0,1.89c0.284,0.638,0.605,1.243,0.973,1.808c0.453,0.693,0.62,1.355,0.51,1.99
	c-0.211,0.426-0.394,0.863-0.533,1.3c-0.072,0.186-0.102,0.38-0.102,0.591v0.637c0.354,0.423,0.722,0.818,1.114,1.201
	c0.609,0.605,1.146,1.258,1.624,1.96c-0.493,0.427-0.931,0.89-1.315,1.388c-0.237,0.337-0.437,0.719-0.578,1.141
	c0.074,0.424,0.186,0.822,0.341,1.201c0.187,0.467,0.423,0.902,0.706,1.327c-0.073,0.212-0.113,0.427-0.157,0.636
	c-0.042,0.213-0.056,0.41-0.056,0.623v0.631c0.438,0.863,1.003,1.639,1.679,2.33c1.513,1.514,2.909,3.052,4.224,4.633
	c0.352,0.211,0.679,0.437,1.001,0.691c3.181,2.516,6.57,4.111,10.17,4.785c0.21-0.139,0.421-0.268,0.648-0.378
	c0.34-0.171,0.678-0.326,1.032-0.481c0.141-0.073,0.28-0.127,0.42-0.199c0.139-0.139,0.269-0.297,0.368-0.465
	c0.101-0.182,0.209-0.367,0.311-0.565c0.111-0.226,0.239-0.436,0.381-0.649c0-0.422-0.028-0.846-0.071-1.256
	c-0.025-0.213-0.042-0.438-0.042-0.65c0-0.211,0.042-0.41,0.113-0.621c0.409-0.635,0.805-1.283,1.156-1.963
	c0.215-0.38,0.383-0.787,0.524-1.201c0.012-0.662-0.173-1.27-0.524-1.832c-0.405-0.68-0.872-1.326-1.365-1.961
	c0.067-0.426,0.096-0.848,0.096-1.258c0-0.213-0.028-0.422-0.096-0.637c-0.073-0.212-0.145-0.423-0.211-0.637
	c0.138-0.211,0.25-0.422,0.323-0.663c0.068-0.181,0.097-0.382,0.097-0.591v-0.636c-0.197-1.018-0.707-1.836-1.539-2.446
	c-1.638-1.211-2.881-2.721-3.728-4.516c0.069-0.214,0.1-0.41,0.1-0.621s-0.03-0.422-0.1-0.633c-0.07-0.215-0.141-0.426-0.213-0.639
	c-0.491-0.422-0.929-0.89-1.312-1.383c-0.595-0.789-1.356-1.385-2.273-1.779c-0.702-1.65-1.579-3.136-2.641-4.461
	c-2.497-3.176-5.282-5.902-8.329-8.149c0.098-0.238,0.182-0.479,0.271-0.718c0.855-2.541,1.481-5.053,1.856-7.527
	c-0.136-0.21-0.305-0.38-0.503-0.521C118.032,146.484,117.802,146.33,117.562,146.175"/>
<path fill="#F2D724" d="M75.998,145.498c0,0.07-0.019,0.099-0.043,0.113c-0.538,0.199-1.061,0.421-1.567,0.677
	c-0.735,0.354-1.046,0.932-0.935,1.736c-0.152,0.946,0,1.823,0.44,2.64c0.425,0.792,0.847,1.596,1.254,2.416v0.633v1.261v0.631
	c0.696,0.947,0.992,1.992,0.918,3.164c-0.04,0.833-0.067,1.678-0.067,2.527c0.208,0.411,0.378,0.849,0.535,1.286
	c0.268,0.747,0.72,1.382,1.355,1.876c0.493,0.127,0.973,0.199,1.47,0.199c0.493,0,0.985-0.072,1.48-0.199
	c0.144-0.141,0.27-0.295,0.369-0.464c0.238-0.397,0.423-0.822,0.532-1.257c0.104-0.41,0.145-0.822,0.145-1.231
	c0.354-0.353,0.704-0.705,1.059-1.06c0.355-0.351,0.706-0.705,1.06-1.057c0.071-0.213,0.126-0.424,0.183-0.635
	c0.254-1.017,0.324-2.063,0.209-3.15c-0.085-0.803-0.085-1.649,0.014-2.525c-0.195-1.019-0.647-1.893-1.354-2.64
	c-0.919-0.947-1.733-1.962-2.425-3.052c-0.712-0.352-1.426-0.649-2.163-0.888C77.661,146.229,76.83,145.906,75.998,145.498"/>
<path fill="#F2D724" d="M188.938,147.976c-0.292,0.237-0.572,0.469-0.839,0.698c-1.399,1.22-2.771,2.601-4.138,4.158
	c-2.453,2.231-4.577,4.393-6.385,6.486c-3.436,4.084-4.74,7.367-3.919,9.851c1.365,4.081,4.946,6.575,10.784,7.485
	c1.591,0.27,4.019,0.533,7.292,0.812c0.146,0.02,0.268,0.031,0.391,0.04c0.945,0.115,1.815,0.258,2.599,0.42
	c1.393,0.261,2.549,0.604,3.448,1.005c3.069,1.336,4.776,2.042,5.138,2.119c2.1,0.384,3.147-0.702,3.138-3.259
	c0-1.587-1.011-3.307-3.013-5.149c-1.074-0.99-2.754-2.262-5.07-3.801c1.335-0.668,3.417-1.602,6.243-2.801
	c2.328-1.239,3.883-2.887,4.664-4.924c0.558-2.504-1.119-4.147-5.069-4.908c-3.457-0.656-6.852-0.541-10.192,0.356
	c1.242-0.516,2.504-2.03,3.814-4.537c1.378-2.562,1.836-4.47,1.37-5.737c-1.006-2.754-3.464-2.901-7.355-0.444
	C190.863,146.476,189.894,147.185,188.938,147.976"/>
<path fill="none" stroke="#E7B31A" stroke-width="2.2226" stroke-miterlimit="10" d="M188.938,147.976
	c0.956-0.791,1.926-1.5,2.9-2.129c3.892-2.457,6.35-2.309,7.355,0.446c0.466,1.265,0.008,3.172-1.37,5.735
	c-1.311,2.507-2.572,4.021-3.814,4.537c3.341-0.897,6.735-1.012,10.192-0.356c3.95,0.761,5.627,2.404,5.069,4.908
	c-0.781,2.037-2.336,3.685-4.664,4.924c-2.826,1.199-4.908,2.133-6.243,2.801c2.316,1.539,3.996,2.811,5.07,3.801
	c2.002,1.843,3.013,3.562,3.013,5.149c0.01,2.557-1.038,3.643-3.138,3.259c-0.361-0.077-2.068-0.783-5.138-2.119
	c-0.899-0.4-2.056-0.744-3.448-1.005c-0.783-0.162-1.653-0.305-2.599-0.42c-0.123-0.009-0.244-0.021-0.391-0.04
	c-3.273-0.279-5.701-0.543-7.292-0.812c-5.838-0.91-9.419-3.404-10.784-7.485c-0.821-2.483,0.483-5.767,3.919-9.851
	c1.808-2.093,3.932-4.254,6.385-6.486c1.367-1.558,2.738-2.936,4.138-4.158C188.365,148.445,188.646,148.213,188.938,147.976z"/>
<path fill="#F2D724" d="M85.248,146.153c0,0.07-0.019,0.099-0.043,0.113c-0.538,0.199-1.061,0.421-1.567,0.677
	c-0.735,0.354-1.046,0.932-0.935,1.736c-0.152,0.946,0,1.823,0.44,2.64c0.425,0.792,0.847,1.596,1.254,2.416v0.633v1.261v0.631
	c0.696,0.947,0.992,1.992,0.918,3.164c-0.04,0.832-0.067,1.678-0.067,2.527c0.208,0.41,0.378,0.849,0.535,1.285
	c0.268,0.748,0.72,1.383,1.355,1.877c0.493,0.127,0.973,0.199,1.47,0.199c0.493,0,0.985-0.072,1.48-0.199
	c0.144-0.141,0.27-0.295,0.369-0.464c0.238-0.397,0.423-0.821,0.532-1.257c0.104-0.41,0.145-0.822,0.145-1.23
	c0.354-0.354,0.704-0.705,1.059-1.061c0.355-0.352,0.706-0.705,1.06-1.057c0.071-0.213,0.126-0.424,0.183-0.635
	c0.254-1.018,0.324-2.064,0.209-3.15c-0.085-0.803-0.085-1.649,0.014-2.525c-0.195-1.019-0.647-1.893-1.354-2.64
	c-0.919-0.947-1.733-1.962-2.425-3.052c-0.712-0.352-1.426-0.649-2.163-0.888C86.911,146.885,86.08,146.562,85.248,146.153"/>
<path fill="#F2D724" d="M95.807,144.587c0,0.07-0.02,0.099-0.043,0.113c-0.539,0.199-1.061,0.421-1.568,0.677
	c-0.735,0.354-1.046,0.932-0.935,1.736c-0.152,0.946,0,1.823,0.44,2.64c0.425,0.792,0.847,1.596,1.254,2.416v0.633v1.261v0.631
	c0.696,0.947,0.992,1.992,0.917,3.164c-0.039,0.832-0.066,1.678-0.066,2.527c0.207,0.41,0.377,0.849,0.535,1.285
	c0.268,0.748,0.719,1.382,1.355,1.876c0.492,0.127,0.973,0.199,1.469,0.199c0.494,0,0.986-0.072,1.481-0.199
	c0.143-0.141,0.27-0.295,0.369-0.463c0.238-0.398,0.422-0.822,0.531-1.257c0.104-0.41,0.145-0.822,0.145-1.23
	c0.354-0.354,0.705-0.705,1.059-1.061c0.355-0.352,0.707-0.705,1.061-1.057c0.07-0.213,0.125-0.424,0.182-0.635
	c0.254-1.018,0.324-2.064,0.209-3.15c-0.084-0.803-0.084-1.649,0.014-2.525c-0.195-1.019-0.646-1.893-1.354-2.64
	c-0.918-0.947-1.732-1.962-2.425-3.052c-0.711-0.352-1.426-0.649-2.162-0.888C97.469,145.319,96.639,144.996,95.807,144.587"/>
<path fill="#F2D724" d="M103.626,143.047c0,0.07-0.02,0.099-0.043,0.113c-0.539,0.199-1.061,0.421-1.568,0.677
	c-0.734,0.354-1.046,0.932-0.935,1.736c-0.152,0.946,0,1.823,0.44,2.64c0.426,0.792,0.848,1.596,1.254,2.416v0.633v1.261v0.631
	c0.697,0.947,0.992,1.992,0.918,3.164c-0.039,0.832-0.066,1.678-0.066,2.527c0.207,0.41,0.377,0.849,0.535,1.285
	c0.268,0.748,0.719,1.383,1.355,1.877c0.492,0.127,0.973,0.199,1.469,0.199c0.494,0,0.986-0.072,1.48-0.199
	c0.145-0.141,0.27-0.295,0.369-0.464c0.238-0.397,0.424-0.821,0.533-1.257c0.104-0.41,0.145-0.822,0.145-1.23
	c0.354-0.354,0.703-0.705,1.059-1.061c0.355-0.352,0.705-0.705,1.059-1.057c0.072-0.213,0.127-0.424,0.184-0.635
	c0.254-1.018,0.324-2.064,0.209-3.15c-0.086-0.803-0.086-1.649,0.014-2.525c-0.195-1.019-0.648-1.893-1.354-2.64
	c-0.92-0.947-1.734-1.962-2.426-3.052c-0.711-0.352-1.426-0.649-2.162-0.888C105.288,143.779,104.458,143.456,103.626,143.047"/>
<path fill="#F2D724" d="M86.248,151.153c0,0.07-0.019,0.099-0.043,0.113c-0.538,0.199-1.061,0.421-1.567,0.677
	c-0.735,0.354-1.046,0.932-0.935,1.736c-0.152,0.946,0,1.823,0.44,2.64c0.425,0.792,0.847,1.596,1.254,2.416v0.633v1.261v0.631
	c0.696,0.947,0.992,1.992,0.918,3.164c-0.04,0.832-0.067,1.678-0.067,2.527c0.208,0.41,0.378,0.849,0.535,1.285
	c0.268,0.748,0.72,1.383,1.355,1.877c0.493,0.127,0.973,0.199,1.47,0.199c0.493,0,0.985-0.072,1.48-0.199
	c0.144-0.141,0.27-0.295,0.369-0.464c0.238-0.397,0.423-0.821,0.532-1.257c0.104-0.41,0.145-0.822,0.145-1.23
	c0.354-0.354,0.704-0.705,1.059-1.061c0.355-0.352,0.706-0.705,1.06-1.057c0.071-0.213,0.126-0.424,0.183-0.635
	c0.254-1.018,0.324-2.064,0.209-3.15c-0.085-0.803-0.085-1.649,0.014-2.525c-0.195-1.019-0.647-1.893-1.354-2.64
	c-0.919-0.947-1.733-1.962-2.425-3.052c-0.712-0.352-1.426-0.649-2.163-0.888C87.911,151.885,87.08,151.562,86.248,151.153"/>
<path fill="#F2D724" d="M91.773,147.361c0,0.07-0.019,0.099-0.043,0.113c-0.538,0.199-1.061,0.421-1.567,0.677
	c-0.735,0.354-1.046,0.932-0.935,1.736c-0.152,0.946,0,1.823,0.44,2.64c0.425,0.792,0.847,1.596,1.254,2.416v0.633v1.261v0.631
	c0.696,0.947,0.992,1.992,0.918,3.164c-0.04,0.832-0.067,1.678-0.067,2.527c0.208,0.41,0.378,0.849,0.535,1.285
	c0.268,0.748,0.72,1.383,1.355,1.877c0.493,0.127,0.973,0.199,1.47,0.199c0.493,0,0.986-0.072,1.48-0.199
	c0.145-0.141,0.27-0.295,0.369-0.463c0.238-0.398,0.424-0.822,0.533-1.258c0.104-0.41,0.145-0.822,0.145-1.23
	c0.354-0.353,0.703-0.705,1.059-1.06c0.355-0.352,0.705-0.705,1.059-1.057c0.072-0.213,0.127-0.424,0.184-0.635
	c0.254-1.018,0.324-2.064,0.209-3.15c-0.086-0.803-0.086-1.649,0.014-2.525c-0.195-1.019-0.648-1.893-1.354-2.64
	c-0.92-0.947-1.734-1.962-2.426-3.052c-0.711-0.352-1.425-0.649-2.163-0.888C93.436,148.093,92.605,147.77,91.773,147.361"/>
<path fill="#F2D724" d="M114.555,154.167c0,0.07-0.02,0.099-0.043,0.113c-0.539,0.199-1.061,0.421-1.568,0.677
	c-0.734,0.354-1.045,0.932-0.934,1.736c-0.152,0.946,0,1.823,0.439,2.64c0.426,0.792,0.848,1.596,1.254,2.416v0.633v1.261v0.631
	c0.697,0.947,0.992,1.992,0.918,3.164c-0.039,0.832-0.066,1.678-0.066,2.527c0.207,0.41,0.377,0.848,0.535,1.285
	c0.268,0.748,0.719,1.383,1.355,1.877c0.492,0.127,0.973,0.199,1.469,0.199c0.494,0,0.986-0.072,1.481-0.199
	c0.143-0.141,0.27-0.295,0.369-0.463c0.238-0.398,0.422-0.822,0.531-1.258c0.104-0.41,0.145-0.822,0.145-1.23
	c0.354-0.354,0.705-0.705,1.059-1.061c0.355-0.352,0.707-0.705,1.061-1.057c0.07-0.213,0.125-0.424,0.182-0.635
	c0.254-1.018,0.324-2.064,0.209-3.15c-0.084-0.803-0.084-1.649,0.014-2.525c-0.195-1.019-0.646-1.893-1.354-2.64
	c-0.918-0.947-1.732-1.962-2.425-3.052c-0.711-0.352-1.426-0.649-2.162-0.888C116.217,154.899,115.387,154.576,114.555,154.167"/>
</svg>
