<?xml version="1.0" encoding="utf-8"?>
<!-- Generator: Adobe Illustrator 16.0.0, SVG Export Plug-In . SVG Version: 6.00 Build 0)  -->
<!DOCTYPE svg PUBLIC "-//W3C//DTD SVG 1.1//EN" "http://www.w3.org/Graphics/SVG/1.1/DTD/svg11.dtd">
<svg version="1.1" id="レイヤー_1" xmlns="http://www.w3.org/2000/svg" xmlns:xlink="http://www.w3.org/1999/xlink" x="0px"
	 y="0px" width="101.497px" height="73.959px" viewBox="0 0 101.497 73.959" enable-background="new 0 0 101.497 73.959"
	 xml:space="preserve">
<g>
	<path fill="#E7B31A" d="M92.191,17.276c-0.066,0.084-0.141,0.154-0.214,0.225c-3.436,3.693-7.194,7.025-11.289,9.959l0.013-0.006
		c-1.153,0.838-2.432,1.443-3.849,1.818c-2.552,0.686-5.294,0.756-8.233,0.185L68.6,29.45c-0.281-0.053-0.571-0.121-0.854-0.178
		c-0.02-0.005-0.036,0.003-0.055-0.005c-0.448-0.104-0.891-0.218-1.319-0.325l-0.015-0.006c-2.839-0.766-5.506-1.927-8.01-3.49
		l0.014-0.008c-1.166-0.727-2.412-1.33-3.719-1.819c-2.552-0.968-5.186-1.511-7.903-1.599c-1.789-0.057-3.569,0.023-5.317,0.225
		c-0.017,0.01-0.025,0.016-0.043,0.011c-7.676,0.634-13.045,4.483-16.103,11.549c-0.144,0.329-0.285,0.661-0.427,0.988
		c-0.037,0.103-0.074,0.214-0.115,0.317c-0.007,0.019-0.007,0.019-0.02,0.023c-1.486,3.953-1.326,8.375,0.443,13.252
		c1.679,4.594,4.494,8.975,8.447,13.162c0.4,0.42,0.813,0.834,1.219,1.234l0.019,0.01c1.656,1.697,3.479,3.182,5.475,4.449
		l0.02,0.006c6.131,3.924,12.734,5.262,19.829,4.023l-0.018-0.004c7.862-1.494,14.784-5.117,20.765-10.873
		c6.189-5.958,11.043-12.823,14.566-20.625c0.009-0.005,0.009-0.005,0.002-0.02c1.688-3.555,2.877-6.665,3.569-9.352l0.266-1.047
		l0.012-0.034l2.169,0.549l-0.279,1.086c-0.703,2.806-1.95,6.058-3.711,9.763l0.003-0.02c-3.638,8.061-8.659,15.17-15.049,21.318
		l0.011-0.008c-6.285,6.076-13.592,9.891-21.907,11.465l-0.014,0.006c-7.676,1.346-14.812-0.105-21.428-4.344
		c-2.143-1.361-4.098-2.947-5.87-4.746c-0.007-0.014-0.007-0.014-0.014-0.025c-0.423-0.406-0.841-0.836-1.255-1.279
		c-4.187-4.412-7.158-9.056-8.931-13.933c-1.985-5.462-2.121-10.403-0.435-14.812c0.067-0.145,0.127-0.274,0.166-0.405l0.007-0.019
		c0.142-0.332,0.283-0.661,0.425-0.99c3.404-7.898,9.403-12.203,17.98-12.9l-0.042,0.006c1.863-0.222,3.758-0.297,5.653-0.247
		l0.009,0.011c2.976,0.107,5.854,0.678,8.626,1.734c1.438,0.549,2.794,1.219,4.095,2.016c2.311,1.445,4.776,2.524,7.396,3.232
		c0.002,0.014,0.002,0.014,0.015,0.009c0.405,0.099,0.808,0.202,1.204,0.29c0.021,0.006,0.036,0.011,0.057,0.019
		c0.281,0.054,0.565,0.107,0.852,0.163l-0.017,0.008c2.577,0.511,4.994,0.457,7.222-0.148c1.156-0.301,2.195-0.792,3.124-1.461
		l-0.007-0.017c4.056-2.917,7.787-6.21,11.172-9.877l0.75-0.817l1.654,1.513L92.191,17.276z"/>
	<path fill="#F2D724" d="M99.316,29.35l-0.266,1.046c-0.692,2.688-1.882,5.798-3.569,9.353c0.007,0.015,0.007,0.015-0.002,0.02
		c-3.523,7.802-8.377,14.663-14.566,20.625c-5.98,5.756-12.902,9.379-20.765,10.873l0.018,0.004
		c-7.095,1.238-13.698-0.1-19.829-4.023l-0.02-0.006c-1.996-1.27-3.818-2.752-5.475-4.449l-0.019-0.01
		c-0.405-0.4-0.818-0.816-1.219-1.236c-3.953-4.185-6.769-8.566-8.447-13.16c-1.77-4.877-1.93-9.299-0.443-13.252
		c0.013-0.005,0.013-0.005,0.019-0.023c0.042-0.104,0.079-0.215,0.116-0.317c0.142-0.33,0.283-0.659,0.427-0.989
		c3.058-7.064,8.426-10.914,16.103-11.549c0.018,0.006,0.026,0,0.043-0.01c1.748-0.201,3.528-0.281,5.317-0.225
		c2.718,0.088,5.352,0.631,7.903,1.599c1.307,0.489,2.553,1.093,3.719,1.818l-0.014,0.009c2.504,1.563,5.171,2.725,8.01,3.49
		l0.015,0.006c0.429,0.107,0.869,0.221,1.319,0.325c0.02,0.008,0.035,0,0.055,0.005c0.282,0.057,0.571,0.125,0.854,0.178l0.02,0.007
		c2.939,0.571,5.682,0.501,8.233-0.185c1.417-0.375,2.695-0.98,3.849-1.818l-0.013,0.006c4.095-2.934,7.854-6.266,11.289-9.959
		L99.316,29.35z"/>
	<path fill="#F2D724" d="M17.609,32.623c4.305,3.087,7.657,4.12,10.03,3.119c3.929-1.651,6.119-5.401,6.58-11.245
		c0.128-1.59,0.212-4.016,0.235-7.273c0.104-2.812,0.416-4.974,0.945-6.476c1.095-3.142,1.664-4.896,1.706-5.249
		c0.209-2.092-0.94-3.044-3.466-2.843c-1.554,0.125-3.179,1.243-4.863,3.366c-0.899,1.141-2.014,2.922-3.357,5.316
		c-0.764-1.273-1.858-3.262-3.258-5.959c-1.408-2.213-3.15-3.619-5.227-4.229c-2.521-0.37-4.002,1.411-4.45,5.386
		c-0.387,3.463-0.011,6.821,1.121,10.059c-0.599-1.188-2.202-2.326-4.77-3.43C6.197,12,4.281,11.699,3.062,12.256
		c-2.654,1.206-2.615,3.645,0.127,7.313c1.911,2.522,4.412,4.944,7.512,7.241C13.1,29.068,15.405,31,17.609,32.623"/>
	<path fill="none" stroke="#E7B31A" stroke-width="2.2039" stroke-miterlimit="10" d="M17.609,32.623
		c-2.204-1.622-4.51-3.555-6.908-5.812c-3.1-2.299-5.601-4.719-7.512-7.241c-2.742-3.669-2.781-6.11-0.127-7.313
		C4.281,11.699,6.197,12,8.837,13.165c2.567,1.104,4.171,2.242,4.77,3.43c-1.132-3.237-1.508-6.596-1.121-10.059
		c0.448-3.975,1.93-5.756,4.45-5.386c2.076,0.61,3.818,2.017,5.227,4.229c1.399,2.697,2.494,4.686,3.258,5.959
		c1.344-2.395,2.458-4.178,3.357-5.316c1.685-2.123,3.31-3.241,4.863-3.366c2.525-0.201,3.675,0.751,3.466,2.843
		c-0.042,0.353-0.611,2.107-1.706,5.249c-0.529,1.502-0.842,3.663-0.945,6.476c-0.023,3.258-0.107,5.684-0.235,7.273
		c-0.461,5.844-2.651,9.594-6.58,11.245C25.267,36.743,21.914,35.709,17.609,32.623z"/>
</g>
</svg>
