<?xml version="1.0" encoding="utf-8"?>
<!-- Generator: Adobe Illustrator 16.0.0, SVG Export Plug-In . SVG Version: 6.00 Build 0)  -->
<!DOCTYPE svg PUBLIC "-//W3C//DTD SVG 1.1//EN" "http://www.w3.org/Graphics/SVG/1.1/DTD/svg11.dtd">
<svg version="1.1" id="レイヤー_1" xmlns="http://www.w3.org/2000/svg" xmlns:xlink="http://www.w3.org/1999/xlink" x="0px"
	 y="0px" width="53.908px" height="30.742px" viewBox="0 0 53.908 30.742" enable-background="new 0 0 53.908 30.742"
	 xml:space="preserve">
<g>
	<path fill="#F2D724" d="M50.03,12.623c1.293-1.327,2.12-2.757,2.489-4.278c0.836-3.516-0.479-5.725-3.938-6.638
		c-1.154-0.306-2.643-0.474-4.446-0.519c-0.995-0.036-2.236-0.041-3.741-0.031c-2.741-0.093-7.11,0.22-13.125,0.919
		c-0.235,0.027-0.457,0.053-0.677,0.081c-0.224-0.011-0.448-0.024-0.688-0.036c-6.087-0.274-10.48-0.279-13.193,0.004
		c-1.499,0.093-2.735,0.185-3.717,0.288C7.209,2.587,5.751,2.855,4.65,3.242C1.348,4.391,0.377,6.68,1.744,10.117
		c0.6,1.489,1.642,2.852,3.129,4.083c0.849,0.714,2.165,1.682,3.934,2.922c1.915,1.522,5.069,4.461,9.432,8.828
		c4.021,3.524,7.511,5.111,10.437,4.739c0.024,0,0.055,0,0.095-0.012c0.044,0.009,0.07,0.008,0.1,0.008
		c2.969,0.164,6.192-1.658,9.655-5.443c3.678-4.647,6.366-7.791,8.038-9.438C48.131,14.447,49.294,13.393,50.03,12.623"/>
	<path fill="none" stroke="#E7B31A" stroke-width="2.2886" stroke-miterlimit="10" d="M26.593,2.062
		c0.22-0.024,0.441-0.049,0.677-0.074c6.015-0.631,10.384-0.915,13.125-0.829c1.505-0.012,2.746-0.008,3.741,0.026
		c1.801,0.041,3.292,0.193,4.446,0.47c3.459,0.828,4.773,2.828,3.938,6.011c-0.369,1.379-1.196,2.674-2.489,3.875
		c-0.736,0.699-1.899,1.653-3.468,2.882c-1.672,1.492-4.36,4.34-8.038,8.549c-3.463,3.429-6.687,5.079-9.655,4.93
		c-0.029,0-0.056,0.002-0.1-0.006c-0.04,0.011-0.07,0.012-0.095,0.013c-2.926,0.335-6.417-1.103-10.437-4.295
		c-4.362-3.955-7.517-6.617-9.432-7.996c-1.769-1.124-3.085-1.999-3.934-2.647c-1.487-1.113-2.529-2.35-3.129-3.698
		C0.377,6.159,1.348,4.087,4.65,3.045c1.101-0.348,2.559-0.594,4.344-0.748c0.981-0.095,2.218-0.179,3.717-0.262
		c2.713-0.258,7.106-0.252,13.193-0.004C26.141,2.041,26.369,2.053,26.593,2.062z"/>
</g>
</svg>
