<?xml version="1.0" encoding="utf-8"?>
<!-- Generator: Adobe Illustrator 16.0.0, SVG Export Plug-In . SVG Version: 6.00 Build 0)  -->
<!DOCTYPE svg PUBLIC "-//W3C//DTD SVG 1.1//EN" "http://www.w3.org/Graphics/SVG/1.1/DTD/svg11.dtd">
<svg version="1.1" id="レイヤー_1" xmlns="http://www.w3.org/2000/svg" xmlns:xlink="http://www.w3.org/1999/xlink" x="0px"
	 y="0px" width="53.908px" height="46.034px" viewBox="0 0 53.908 46.034" enable-background="new 0 0 53.908 46.034"
	 xml:space="preserve">
<g>
	<path fill="#F2D724" d="M50.03,18.109c1.293-1.961,2.12-4.074,2.489-6.322c0.836-5.195-0.479-8.46-3.938-9.81
		c-1.154-0.452-2.643-0.7-4.446-0.767c-0.995-0.053-2.236-0.061-3.741-0.045c-2.741-0.138-7.11,0.325-13.125,1.357
		c-0.235,0.04-0.457,0.079-0.677,0.12c-0.224-0.017-0.448-0.036-0.688-0.054c-6.087-0.404-10.48-0.412-13.193,0.007
		C11.212,2.733,9.976,2.87,8.994,3.021C7.209,3.277,5.751,3.674,4.65,4.246c-3.303,1.697-4.273,5.08-2.906,10.16
		c0.6,2.201,1.642,4.215,3.129,6.033c0.849,1.057,2.165,2.485,3.934,4.318c1.915,2.25,5.069,6.594,9.432,13.047
		c4.021,5.209,7.511,7.555,10.437,7.004c0.024,0,0.055,0,0.095-0.018c0.044,0.014,0.07,0.01,0.1,0.01
		c2.969,0.244,6.192-2.449,9.655-8.043c3.678-6.867,6.366-11.514,8.038-13.948C48.131,20.805,49.294,19.248,50.03,18.109"/>
	<path fill="none" stroke="#E7B31A" stroke-width="2.2886" stroke-miterlimit="10" d="M26.593,2.643
		c0.22-0.04,0.441-0.08,0.677-0.121c6.015-1.03,10.384-1.493,13.125-1.353c1.505-0.021,2.746-0.013,3.741,0.042
		c1.801,0.066,3.292,0.314,4.446,0.767c3.459,1.35,4.773,4.614,3.938,9.808c-0.369,2.25-1.196,4.363-2.489,6.322
		c-0.736,1.141-1.899,2.697-3.468,4.702c-1.672,2.435-4.36,7.081-8.038,13.948c-3.463,5.594-6.687,8.287-9.655,8.043
		c-0.029,0-0.056,0.004-0.1-0.01c-0.04,0.018-0.07,0.018-0.095,0.021c-2.926,0.547-6.417-1.799-10.437-7.008
		c-4.362-6.453-7.517-10.797-9.432-13.047c-1.769-1.833-3.085-3.262-3.934-4.318c-1.487-1.816-2.529-3.834-3.129-6.033
		C0.377,9.326,1.348,5.945,4.65,4.246c1.101-0.568,2.559-0.969,4.344-1.221c0.981-0.155,2.218-0.292,3.717-0.427
		c2.713-0.421,7.106-0.412,13.193-0.007C26.141,2.607,26.369,2.627,26.593,2.643z"/>
	<path fill="#CB2A2B" d="M28.124,38.127c2.657-0.137,4.914-1.824,6.781-5.062c1.87-3.236,4.912-10.218,9.13-20.934l-16.938,0.715
		l-16.892,1.033C15.5,24.1,19.302,30.756,21.625,33.852C23.768,36.691,25.935,38.123,28.124,38.127"/>
	<path fill="#D57998" d="M30.405,20.795c0.789-3.869,1.082-6.543,0.895-8.002l-9.181,0.478c0.074,1.419,0.807,3.994,2.217,7.724
		c1.465,3.814,2.414,5.79,2.87,5.929C28.449,27.254,29.512,25.201,30.405,20.795"/>
</g>
</svg>
