<?xml version="1.0" encoding="utf-8"?>
<!-- Generator: Adobe Illustrator 16.0.0, SVG Export Plug-In . SVG Version: 6.00 Build 0)  -->
<!DOCTYPE svg PUBLIC "-//W3C//DTD SVG 1.1//EN" "http://www.w3.org/Graphics/SVG/1.1/DTD/svg11.dtd">
<svg version="1.1" id="レイヤー_1" xmlns="http://www.w3.org/2000/svg" xmlns:xlink="http://www.w3.org/1999/xlink" x="0px"
	 y="0px" width="61.538px" height="34.369px" viewBox="0 0 61.538 34.369" enable-background="new 0 0 61.538 34.369"
	 xml:space="preserve">
<g>
	<path fill="#F2D724" d="M57.339,26.971c2.371-1.322,3.369-3.781,2.998-7.37c-0.394-3.586-1.941-5.97-4.649-7.142
		c-1.371-0.588-4.186-1.656-8.453-3.226c-3.929-1.585-6.739-3.103-8.406-4.583c-2.629-2.328-5.609-3.512-8.945-3.521
		c-0.099,0.004-0.184,0.008-0.269,0.014c-0.039,0-0.068,0.003-0.1,0.005l0.003,0.015c-3.321,0.34-6.162,1.811-8.535,4.412
		C19.476,7.216,16.835,9.016,13.092,11c-4.079,2-6.775,3.35-8.074,4.079c-2.572,1.443-3.863,3.978-3.892,7.583
		c0.004,3.605,1.252,5.952,3.747,7.02c1.308,0.55,3.252,0.806,5.842,0.771c1.536-0.025,4.197-0.092,7.967-0.186
		c1.348,0.211,3.439,0.859,6.271,1.955c2.101,0.809,4.274,1.131,6.533,0.987c2.071-0.063,4.126-0.623,6.141-1.641
		c2.705-1.38,4.719-2.244,6.038-2.595c3.761-0.296,6.409-0.501,7.939-0.636C54.186,28.105,56.092,27.656,57.339,26.971"/>
	<path fill="none" stroke="#E7B31A" stroke-width="2.2513" stroke-miterlimit="10" d="M60.337,19.602
		c-0.394-3.588-1.942-5.972-4.649-7.143c-1.371-0.591-4.186-1.656-8.453-3.226c-3.929-1.586-6.739-3.105-8.406-4.581
		c-2.629-2.33-5.609-3.514-8.945-3.526c-0.099,0.007-0.186,0.011-0.269,0.015c-0.039,0.005-0.068,0.005-0.1,0.01l0.003,0.01
		c-3.321,0.342-6.161,1.813-8.535,4.416C19.475,7.217,16.835,9.016,13.092,11c-4.079,2-6.775,3.35-8.074,4.079
		c-2.572,1.443-3.863,3.978-3.892,7.583c0.004,3.605,1.249,5.952,3.747,7.02c1.308,0.553,3.252,0.806,5.842,0.771
		c1.536-0.025,4.197-0.092,7.967-0.184c1.348,0.209,3.439,0.861,6.271,1.953c2.101,0.809,4.274,1.131,6.533,0.987
		c2.071-0.063,4.126-0.623,6.141-1.644c2.705-1.377,4.719-2.241,6.038-2.592c3.761-0.295,6.409-0.498,7.939-0.636
		c2.582-0.233,4.488-0.685,5.735-1.368C59.71,25.648,60.708,23.189,60.337,19.602z"/>
</g>
</svg>
