<?xml version="1.0" encoding="utf-8"?>
<!-- Generator: Adobe Illustrator 16.2.1, SVG Export Plug-In . SVG Version: 6.00 Build 0)  -->
<!DOCTYPE svg PUBLIC "-//W3C//DTD SVG 1.1//EN" "http://www.w3.org/Graphics/SVG/1.1/DTD/svg11.dtd">
<svg version="1.1" xmlns="http://www.w3.org/2000/svg" xmlns:xlink="http://www.w3.org/1999/xlink" x="0px" y="0px"
	 width="230.961px" height="462.712px" viewBox="0 0 230.961 462.712" enable-background="new 0 0 230.961 462.712"
	 xml:space="preserve">
<g id="base">
</g>
<g id="book3">
</g>
<g id="_x38_" display="none">
</g>
<g id="_x37_">
	<g>
		<path fill="#4DA934" d="M136.709,356.16l-26.587,4.887l5.523,30.049l4.977-1.651c5.634-0.372,10.054-1.013,13.318-1.904
			l8.292-1.332L136.709,356.16z"/>
		<path fill="#2E6D2C" d="M134.61,391.189l-0.67-3.649c-3.265,0.892-7.685,1.532-13.318,1.904c0.995,1.517,2.977,2.486,5.991,2.942
			c2.115,0.08,4.266-0.168,6.454-0.742L134.61,391.189z"/>
		<path fill="#E06A05" d="M60.735,337.165c0.02-0.139,0.043-0.277,0.065-0.417c2.628-8.13,7.261-11.162,13.937-9.136l2.782-1.743
			l-3.771-6.274c-0.2-0.304-0.294-0.655-0.294-1.041c0.031-0.372,0.133-0.698,0.34-1.013c0.209-0.319,0.498-0.562,0.832-0.698
			l13.682-5.805c0.458-0.211,0.916-0.217,1.369-0.065c0.447,0.155,0.803,0.453,1.048,0.868l5.688,9.81
			c2.289-0.021,4.635,1.378,7.05,4.228c0.089,0.094,0.146,0.17,0.214,0.271c5.645,9.824,5.598,17.38-0.098,22.649
			c-4.232,5.813-10.71,9.02-19.424,9.624l0.034,0.014c-3.038,0.269-6.487-0.354-10.356-1.809c-3.857-1.306-6.916-3.323-9.158-6.058
			c-0.008-0.021-0.025-0.069-0.055-0.08C61.591,346.317,60.284,341.861,60.735,337.165 M72.481,331.104
			c-3.689-0.447-6.334,1.755-7.957,6.618c-0.273,3.674,0.766,7.149,3.127,10.433c1.841,2.196,4.33,3.825,7.458,4.859
			c0.03,0.017,0.063,0.026,0.094,0.037c3.229,1.225,6.12,1.735,8.657,1.563l0.022-0.008c7.507-0.524,13.083-3.267,16.71-8.22
			c0.085-0.109,0.15-0.211,0.249-0.277c4.156-4.156,4.022-10.115-0.41-17.901c-1.685-1.926-3.245-2.795-4.657-2.638
			c-0.403,0.084-0.787,0.035-1.159-0.125c-0.36-0.191-0.647-0.461-0.87-0.806l-5.471-9.41l-10.117,4.292l3.623,5.973
			c0.264,0.46,0.356,0.939,0.226,1.456c-0.136,0.491-0.412,0.888-0.845,1.164l-3.639,2.426c-2.668,2.597-3.907,5.863-3.725,9.763
			l0.129,8.442l-0.785-1.751C70.921,342.058,70.711,336.749,72.481,331.104"/>
		<path fill="#FCDF00" d="M64.523,337.723c1.624-4.863,4.271-7.065,7.958-6.618c-1.771,5.645-1.561,10.953,0.66,15.891l0.785,1.751
			l-0.127-8.442c-0.185-3.899,1.055-7.161,3.723-9.763l3.639-2.426c0.434-0.276,0.712-0.673,0.845-1.164
			c0.131-0.517,0.038-0.996-0.224-1.457l-3.623-5.973l10.112-4.291l5.474,9.41c0.222,0.345,0.512,0.614,0.87,0.806
			c0.374,0.163,0.756,0.209,1.161,0.125c1.407-0.156,2.971,0.712,4.655,2.638c4.433,7.786,4.566,13.745,0.41,17.901
			c-0.1,0.066-0.164,0.168-0.247,0.277c-3.629,4.953-9.205,7.695-16.71,8.22l-0.022,0.008c-2.539,0.172-5.43-0.339-8.656-1.564
			c-0.033-0.01-0.063-0.021-0.095-0.036c-3.13-1.034-5.619-2.663-7.46-4.859C65.29,344.872,64.248,341.396,64.523,337.723"/>
		<path fill="#003C8F" d="M78.251,248.813c-0.44-0.08-0.851,0.003-1.235,0.212c-9.268,4.944-19.36,14.822-30.229,29.624
			c-0.045,0.061-0.073,0.107-0.115,0.168c-5.788,9.935-7.737,18.47-5.847,25.58c0.038,0.181,0.13,0.355,0.229,0.549
			c9.009,14.704,19.762,26.398,32.26,35.087c0.266,0.171,0.546,0.269,0.867,0.313c0.305,0.059,0.605,0.022,0.92-0.075
			c15.008-5.416,24.773-12.152,29.326-20.253c0.181-0.331,0.264-0.685,0.242-1.053c-0.021-0.37-0.149-0.721-0.354-1.022
			c-6.238-8.789-14.996-16.624-26.258-23.492l3.574-4.831l1.618-2.211c0.283-0.4,0.407-0.866,0.347-1.329l-3.74-35.55
			c-0.043-0.446-0.217-0.825-0.525-1.139C79.024,249.076,78.677,248.872,78.251,248.813 M62.272,265.917
			c0.109-0.134,0.219-0.234,0.344-0.354c4.75-4.997,9.317-8.87,13.72-11.651l3.325,31.799l-0.701,0.99l-0.484,0.659l0.02-0.016
			l-4.78,6.493l-0.025,0.049c-3.669,4.399-7.142,7.509-10.403,9.386l-1.685,0.93l-0.141,0.57l0.257-0.062l0.021-0.014l0.013,0.021
			l-0.034-0.008l-0.265,0.127c5.652-0.558,10.388-2.989,14.201-7.303c3.856,2.332,7.415,4.788,10.688,7.35
			c0.078,0.068,0.172,0.116,0.248,0.187c0.025,0.036,0.072,0.063,0.135,0.111c5.412,4.319,9.973,8.996,13.695,13.987
			c-4.432,6.692-13.003,12.393-25.709,17.101c-4.25-3.033-8.313-6.437-12.141-10.176c-0.118-0.126-0.223-0.23-0.34-0.359
			c-5.326-5.262-10.229-11.234-14.704-17.91c-0.094-0.138-0.193-0.278-0.288-0.417c-0.932-1.388-1.84-2.825-2.707-4.249
			c-1.234-5.396,0.002-11.729,3.657-18.999c0.077-0.147,0.142-0.308,0.218-0.449c0.492-0.954,0.996-1.927,1.588-2.897
			C54.222,275.093,58.308,270.107,62.272,265.917"/>
		<path fill="#9AC743" d="M62.616,265.563c-0.127,0.119-0.234,0.22-0.346,0.354c-3.963,4.19-8.051,9.176-12.276,14.897
			c-0.594,0.97-1.097,1.943-1.587,2.896c-0.076,0.142-0.141,0.302-0.22,0.449l25.509,9.692l0.019-0.015l4.782-6.493l-0.021,0.016
			l0.484-0.659L62.616,265.563z"/>
		<path fill="#DF6512" d="M76.336,253.912c-4.402,2.781-8.97,6.654-13.723,11.652L78.961,286.7l0.701-0.99L76.336,253.912z"/>
		<path fill="#095CAA" d="M48.188,284.16c-3.653,7.27-4.888,13.604-3.655,18.999c0.867,1.424,1.775,2.861,2.707,4.249l14.227-2.637
			l0.136-0.569l1.685-0.93c3.262-1.877,6.734-4.986,10.404-9.387l0.006-0.033L48.188,284.16z"/>
		<path fill="#9AC743" d="M47.239,307.408c0.095,0.139,0.194,0.279,0.288,0.417c4.476,6.676,9.378,12.648,14.704,17.91
			c0.117,0.127,0.219,0.233,0.338,0.354l24.117-20.886l-0.102-0.136c-0.07-0.067-0.168-0.115-0.239-0.184
			c-3.276-2.562-6.835-5.018-10.691-7.35c-3.812,4.312-8.549,6.745-14.201,7.303l0.267-0.127l-0.256,0.061L47.239,307.408z"/>
		<path fill="#DF6512" d="M86.729,305.183l-0.042,0.021l-24.115,20.891c3.825,3.739,7.891,7.143,12.141,10.176
			c12.704-4.708,21.272-10.407,25.709-17.101C96.698,314.179,92.134,309.503,86.729,305.183"/>
		<polygon fill="#095CAA" points="61.718,304.711 61.752,304.719 61.739,304.697 		"/>
		<path fill="#004497" d="M146.294,410.167c-0.945-2.496-1.961-4.984-3.078-7.481c-7.286,3.663-15.372,6.62-24.209,8.815
			c-0.732,0.188-1.469,0.377-2.153,0.555c-6.11,0.935-11.697,2.945-16.765,6.011l0.032,0.049c2.521,0.833,4.876,1.908,7.044,3.256
			c1.484,0.912,2.863,2.012,4.168,3.269c4.772,4.608,8.209,11.433,10.301,20.455c6.643-1.559,13.287-3.945,19.946-7.162
			C137.02,425.386,138.581,416.13,146.294,410.167 M123.685,419.858c0.453,0.312,0.552,0.738,0.277,1.262
			c-0.615,0.561-1.25,0.959-1.924,1.213c-0.446,0.152-1.075,0.01-1.861-0.428c-3.705-2.105-8.437-4.23-14.146-6.352l4.583-1.255
			C116.136,416.104,120.493,417.959,123.685,419.858"/>
		<path fill="#FFFFFF" d="M123.962,421.12c0.274-0.523,0.176-0.95-0.277-1.262c-3.191-1.899-7.549-3.754-13.071-5.56l-4.581,1.253
			c5.708,2.123,10.439,4.248,14.146,6.354c0.784,0.438,1.413,0.58,1.859,0.428C122.712,422.079,123.347,421.681,123.962,421.12"/>
		<path fill="#FFFFFF" d="M141.58,437.933c2.603-1.277,5.21-2.673,7.807-4.191c2.342-1.392,3.004-3.552,2.001-6.502
			c-1.213-5.667-2.921-11.358-5.094-17.072C138.581,416.13,137.02,425.386,141.58,437.933"/>
		<path fill="#FFFFFF" d="M98.419,419.157l-0.566,0.365c-0.067,0.029-0.158,0.091-0.225,0.147c-0.158,0.12-0.338,0.237-0.494,0.352
			l-0.18,0.124c-0.266,0.202-0.535,0.407-0.804,0.611c-1.71,1.363-3.229,2.919-4.548,4.666c-0.232,0.298-0.439,0.616-0.667,0.94
			c-2.411,3.593-3.067,7.143-2.024,10.65c1.244,4.122,4.531,6.987,9.828,8.576c4.615,1.356,9.591,1.691,14.926,0.983
			c2.665-0.355,5.313-0.854,7.969-1.479c-2.092-9.022-5.528-15.847-10.301-20.455c-1.303-1.257-2.684-2.356-4.164-3.271
			c-2.172-1.345-4.527-2.42-7.048-3.253C99.53,418.456,98.96,418.798,98.419,419.157"/>
		
			<path fill="none" stroke="#003C8F" stroke-width="3.8777" stroke-linecap="round" stroke-linejoin="round" stroke-miterlimit="10" d="
			M143.216,402.686c-7.286,3.663-15.372,6.62-24.209,8.815c-0.732,0.188-1.469,0.377-2.148,0.554
			c-6.115,0.933-11.702,2.946-16.77,6.012c-0.566,0.347-1.134,0.708-1.67,1.091l-0.566,0.365c-0.067,0.029-0.158,0.091-0.225,0.147
			c-0.158,0.12-0.336,0.237-0.492,0.352l-0.179,0.124c-0.271,0.203-0.538,0.407-0.807,0.611c-1.71,1.363-3.229,2.919-4.55,4.667
			c-0.23,0.296-0.438,0.615-0.665,0.939c-2.411,3.593-3.069,7.143-2.022,10.65c1.242,4.122,4.529,6.987,9.828,8.576
			c4.615,1.356,9.589,1.691,14.924,0.983c2.665-0.355,5.313-0.854,7.969-1.479c6.643-1.559,13.287-3.945,19.946-7.162
			c2.603-1.277,5.21-2.673,7.806-4.195c2.344-1.384,3.005-3.548,2.002-6.498c-1.213-5.664-2.921-11.358-5.094-17.072
			C145.349,407.671,144.333,405.183,143.216,402.686z"/>
		<path fill="#4DA934" d="M134.54,346.857l-49.986,7.385c6.21,21.19,13.053,41.221,20.515,60.062
			c11.115,1.286,24.673-0.81,40.722-6.25L134.54,346.857z"/>
		<path fill="none" stroke="#2E6D2C" stroke-width="3.8833" stroke-linecap="square" stroke-miterlimit="10" d="M84.554,354.242
			c6.21,21.19,13.053,41.221,20.515,60.062c11.115,1.286,24.673-0.81,40.722-6.25l-11.25-61.196L84.554,354.242z"/>
		<path fill="#004497" d="M181.001,403.62c-1.1-2.436-2.271-4.854-3.541-7.283c-7.043,4.116-14.929,7.57-23.611,10.316
			c-0.721,0.234-1.44,0.469-2.114,0.695c-6.042,1.311-11.493,3.67-16.356,7.049l0.029,0.045c2.571,0.676,4.99,1.602,7.236,2.807
			c1.537,0.821,2.986,1.828,4.365,2.999c5.055,4.302,8.907,10.903,11.564,19.778c6.539-1.969,13.014-4.769,19.463-8.395
			C172.7,419.387,173.681,410.051,181.001,403.62 M159.04,414.708c0.473,0.279,0.6,0.701,0.356,1.238
			c-0.576,0.601-1.187,1.038-1.846,1.336c-0.437,0.18-1.071,0.078-1.882-0.316c-3.832-1.861-8.688-3.689-14.521-5.454l4.499-1.535
			C151.269,411.431,155.737,413.008,159.04,414.708"/>
		<path fill="#FFFFFF" d="M159.396,415.946c0.243-0.537,0.116-0.964-0.354-1.238c-3.307-1.7-7.773-3.277-13.396-4.731l-4.499,1.535
			c5.834,1.765,10.689,3.593,14.519,5.454c0.813,0.395,1.446,0.496,1.885,0.316C158.21,416.984,158.822,416.546,159.396,415.946"/>
		<path fill="#FFFFFF" d="M178.036,431.632c2.516-1.439,5.034-2.997,7.529-4.675c2.254-1.536,2.778-3.727,1.592-6.615
			c-1.565-5.573-3.629-11.157-6.157-16.727C173.681,410.051,172.698,419.388,178.036,431.632"/>
		<path fill="#FFFFFF" d="M133.776,415.585l-0.548,0.399c-0.064,0.038-0.151,0.104-0.213,0.165
			c-0.149,0.124-0.319,0.259-0.472,0.385l-0.172,0.129c-0.254,0.222-0.507,0.443-0.762,0.662c-1.623,1.468-3.04,3.115-4.25,4.941
			c-0.212,0.312-0.396,0.645-0.605,0.98c-2.182,3.744-2.618,7.327-1.354,10.763c1.498,4.031,4.962,6.688,10.351,7.945
			c4.688,1.062,9.676,1.092,14.957,0.047c2.641-0.522,5.254-1.187,7.865-1.976c-2.657-8.875-6.51-15.477-11.564-19.778
			c-1.379-1.171-2.826-2.178-4.365-2.999c-2.246-1.205-4.665-2.131-7.236-2.807C134.841,414.819,134.29,415.192,133.776,415.585"/>
		
			<path fill="none" stroke="#003C8F" stroke-width="3.8791" stroke-linecap="round" stroke-linejoin="round" stroke-miterlimit="10" d="
			M177.462,396.337c-7.045,4.116-14.931,7.57-23.613,10.316c-0.721,0.234-1.44,0.469-2.114,0.695
			c-6.042,1.311-11.495,3.671-16.358,7.049c-0.546,0.373-1.09,0.771-1.6,1.188l-0.548,0.399c-0.066,0.035-0.149,0.108-0.213,0.165
			c-0.149,0.124-0.322,0.259-0.472,0.385l-0.17,0.128c-0.256,0.223-0.509,0.444-0.764,0.663c-1.623,1.468-3.043,3.115-4.25,4.941
			c-0.212,0.312-0.398,0.646-0.605,0.98c-2.182,3.744-2.618,7.327-1.354,10.763c1.495,4.032,4.961,6.688,10.35,7.945
			c4.689,1.062,9.676,1.092,14.955,0.047c2.643-0.522,5.256-1.187,7.867-1.976c6.539-1.969,13.014-4.769,19.463-8.395
			c2.518-1.442,5.035-2.997,7.529-4.675c2.256-1.536,2.778-3.727,1.592-6.615c-1.562-5.574-3.629-11.157-6.157-16.727
			c-1.099-2.431-2.267-4.85-3.54-7.278H177.462z"/>
		<path fill="#4DA934" d="M124.96,347.203l54.824-10.077c1.654,22.031,2.264,43.21,1.873,63.491
			c-10.289,5.222-25.311,8.476-45.075,9.812L124.96,347.203z"/>
		<path fill="none" stroke="#2E6D2C" stroke-width="3.8833" stroke-linecap="square" stroke-miterlimit="10" d="M179.784,337.126
			c1.654,22.031,2.267,43.209,1.873,63.491c-10.292,5.222-25.311,8.476-45.075,9.812l-11.622-63.227L179.784,337.126z"/>
		<path fill="#9AC743" d="M74.253,251.238l-2.054-11.175l10.907-2.005c1.116,44.312,5.539,86.65,13.26,127.028
			c-0.676-0.046-1.332-0.126-2.012-0.192c-3.645-0.369-6.928-1.05-9.795-2.025C74.402,325.871,70.972,288.679,74.253,251.238"/>
		<path fill="#095CAA" d="M83.108,238.059l13.984-2.571c3.22,48.785,8.931,91.951,17.142,129.499
			c-1.457,0.121-2.896,0.212-4.314,0.277c-4.699,0.22-9.224,0.161-13.552-0.178C88.647,324.708,84.221,282.37,83.108,238.059"/>
		<path fill="#DF6512" d="M134.251,361.8c-0.852,0.183-1.701,0.387-2.533,0.569c-1.402,0.282-2.807,0.563-4.215,0.823l-0.816,0.149
			c-4.274,0.762-8.42,1.3-12.452,1.645c-8.211-37.548-13.923-80.714-17.142-129.499l14.369-2.642L134.251,361.8z"/>
		<path fill="#DF6512" d="M131.718,362.369c0.832-0.183,1.682-0.387,2.533-0.569l0.027,0.146
			C133.438,362.077,132.583,362.234,131.718,362.369"/>
		<path fill="#DF6512" d="M134.278,361.946l-0.027-0.142c0.308-0.085,0.596-0.138,0.881-0.19l0.03,0.17l-0.81,0.148
			C134.32,361.916,134.301,361.918,134.278,361.946"/>
		<path fill="#9AC743" d="M111.46,232.847l14.514-2.668c14.246,46.361,23.182,88.521,26.803,126.49
			c-2.031,0.645-4.052,1.285-6.043,1.876c-3.957,1.171-7.813,2.197-11.604,3.07c-0.283,0.052-0.57,0.104-0.879,0.185L111.46,232.847
			z"/>
		<path fill="#095CAA" d="M125.974,230.179l13.986-2.571c14.443,41.12,24.55,82,30.261,122.619
			c-0.024,0.005-0.047,0.009-0.063,0.038c-1.172,0.487-2.322,0.946-3.453,1.376c-4.534,1.77-8.973,3.378-13.346,4.821
			c-0.189,0.06-0.369,0.147-0.582,0.207C149.154,318.699,140.216,276.541,125.974,230.179"/>
		<path fill="#DF6512" d="M151.321,225.521l1.987,10.814c15.517,37.69,25.372,73.85,29.57,108.511
			c-4.403,1.971-8.522,3.709-12.312,5.246c-0.115,0.044-0.229,0.09-0.344,0.135c-5.714-40.619-15.82-81.499-30.264-122.619
			L151.321,225.521z"/>
		<path fill="#DF6512" d="M182.879,344.846l0.022,0.12c-4.025,2.143-8.1,4.128-12.232,5.946c-0.027-0.268-0.08-0.552-0.1-0.822
			C174.356,348.555,178.478,346.816,182.879,344.846"/>
		<path fill="#095CAA" d="M152.854,357.493c-5.82,1.758-11.703,3.189-17.693,4.292l-0.031-0.17c3.788-0.873,7.646-1.899,11.604-3.07
			c1.991-0.591,4.012-1.231,6.045-1.878C152.801,356.937,152.827,357.2,152.854,357.493"/>
		<path fill="#095CAA" d="M153.46,357.308c-0.207,0.06-0.393,0.122-0.605,0.186c-0.029-0.293-0.051-0.558-0.076-0.826
			c0.211-0.058,0.391-0.146,0.58-0.205C153.388,356.755,153.44,357.043,153.46,357.308"/>
		<path fill="#9AC743" d="M153.46,357.308c-0.02-0.265-0.072-0.553-0.102-0.846c4.373-1.443,8.814-3.052,13.346-4.821
			c1.134-0.431,2.28-0.889,3.45-1.376c0.02-0.029,0.042-0.033,0.066-0.038c0.026,0.275,0.078,0.557,0.106,0.846
			C164.776,353.476,159.157,355.544,153.46,357.308"/>
		<path fill="#9AC743" d="M170.327,351.072c-0.028-0.289-0.08-0.57-0.104-0.846c0.115-0.045,0.229-0.091,0.344-0.135
			c0.024,0.269,0.077,0.553,0.102,0.82C170.556,350.956,170.444,351.027,170.327,351.072"/>
		<path fill="none" stroke="#060F31" stroke-width="0.4859" stroke-linecap="square" stroke-miterlimit="10" d="M114.368,365.583
			c-0.039-0.218-0.075-0.41-0.134-0.597 M96.421,365.374l-0.053-0.288 M134.251,361.8l0.027,0.146l0.258,1.408 M152.778,356.667
			c0.022,0.27,0.047,0.533,0.076,0.826 M170.432,351.77c-0.02-0.239-0.064-0.479-0.104-0.697c-0.028-0.289-0.08-0.57-0.106-0.846"/>
		<path fill="none" stroke="#003C8F" stroke-width="3.8833" stroke-linecap="square" stroke-miterlimit="10" d="M72.199,240.063
			l10.907-2.005l13.989-2.571l14.364-2.641l14.514-2.668l13.986-2.571l11.358-2.087l1.989,10.814
			c15.518,37.69,25.373,73.85,29.571,108.511c-4.403,1.971-8.522,3.709-12.309,5.244c-0.118,0.046-0.231,0.092-0.35,0.137
			c-0.024,0.005-0.047,0.009-0.066,0.038c-1.17,0.487-2.316,0.945-3.45,1.376c-4.531,1.77-8.973,3.378-13.346,4.821
			c-0.189,0.06-0.369,0.147-0.58,0.205c-2.03,0.646-4.057,1.287-6.045,1.878c-3.957,1.171-7.813,2.197-11.604,3.07
			c-0.283,0.052-0.571,0.104-0.879,0.185c-0.852,0.183-1.701,0.387-2.533,0.569c-1.402,0.282-2.811,0.565-4.215,0.823l-0.816,0.149
			c-4.274,0.762-8.418,1.298-12.452,1.645c-1.457,0.121-2.896,0.212-4.314,0.277c-4.699,0.22-9.224,0.161-13.554-0.177
			c-0.676-0.046-1.332-0.126-2.012-0.192c-3.645-0.369-6.928-1.05-9.795-2.025c-10.157-36.998-13.588-74.19-10.307-111.631
			L72.199,240.063z"/>
		<path fill="#FFFFFF" d="M101.938,289.104c-9.759-11.481-18.213-24.041-25.38-37.675l44.311-3.385
			C112.874,261.605,106.56,275.302,101.938,289.104"/>
		<path fill="#E06A05" d="M206.515,303.425c-0.03-0.431-0.182-0.797-0.472-1.099c-0.292-0.306-0.655-0.527-1.054-0.612
			l-23.424-4.876c-0.38-0.075-0.742-0.031-1.107,0.123c-0.357,0.126-0.674,0.365-0.893,0.701l-3.85,5.787
			c-4.946,1.219-8.571,4.075-10.857,8.514c-0.029,0.019-0.041,0.065-0.05,0.087c-3.805,8.267-3.631,14.577,0.513,18.954
			c0.235,0.238,0.487,0.407,0.787,0.513c0.485,2.502,1.27,4.291,2.34,5.406c1.107,1.326,2.479,1.975,4.121,1.901
			c0.672,3.198,2.738,5.236,6.207,6.134c1.897,1.017,5.549,0.616,10.959-1.2c0.089-0.047,0.194-0.07,0.283-0.12l4.566-2.372
			c0.033-0.038,0.092-0.072,0.122-0.088c4.073-2.582,6.504-5.089,7.263-7.501c0.915-2.346,0.435-4.598-1.406-6.722
			c0.442-0.803,0.643-1.622,0.652-2.492c0.914-2.694,0.44-5.719-1.46-9.082l6.485-10.779
			C206.468,304.236,206.553,303.838,206.515,303.425 M195.588,315.388c0,0.376,0.435,1.689,1.274,3.994
			c0.849,2.301,1.114,3.972,0.745,5.043c-0.049,0.112-0.085,0.228-0.115,0.344l-0.021,0.07c-0.053,0.109-0.086,0.222-0.111,0.317
			c-3.02,5.487-7.04,9.708-12.073,12.698l1.743-0.821c4.483-2.171,8.121-4.522,10.913-7.077c0.503,0.81,0.636,1.62,0.405,2.457
			c-0.691,1.704-2.59,3.533-5.638,5.472l-4.335,2.26c-4.061,1.359-6.725,1.781-8.018,1.303c-0.154-0.066-0.285-0.131-0.425-0.165
			c-2.458-0.597-3.806-1.964-4.021-4.094c-0.243-2.139-0.396-3.127-0.485-2.975c-0.118,0.145-0.332,0.207-0.692,0.233
			c-0.382,0.021-0.749,0.097-1.165,0.255c-0.921,0.348-1.661,0.247-2.236-0.31c-1.525-1.091-2.387-2.673-2.559-4.795
			c-0.17-2.116-0.283-3.166-0.363-3.14c-0.051,0.009-0.216,0.142-0.49,0.34c-0.283,0.2-0.51,0.309-0.646,0.346
			c-2.807-2.787-2.453-7.283,1.037-13.486c1.893-3.553,4.891-5.75,8.998-6.628c0.506-0.114,0.9-0.378,1.191-0.802l3.553-5.337
			l19.506,4.053l-5.699,9.446C195.677,314.691,195.589,315.017,195.588,315.388"/>
		<path fill="#FCDF00" d="M196.865,319.381c-0.841-2.304-1.28-3.617-1.277-3.993c0.001-0.371,0.089-0.696,0.272-0.998l5.699-9.446
			l-19.506-4.053l-3.553,5.339c-0.288,0.422-0.686,0.686-1.189,0.8c-4.109,0.878-7.104,3.075-9,6.628
			c-3.49,6.203-3.844,10.699-1.037,13.486c0.137-0.037,0.366-0.146,0.644-0.345c0.279-0.199,0.44-0.332,0.493-0.341
			c0.08-0.026,0.193,1.023,0.365,3.14c0.17,2.122,1.033,3.703,2.557,4.795c0.575,0.557,1.315,0.657,2.238,0.31
			c0.416-0.158,0.784-0.235,1.166-0.256c0.357-0.025,0.574-0.088,0.689-0.232c0.09-0.152,0.242,0.836,0.485,2.975
			c0.216,2.13,1.563,3.497,4.021,4.094c0.14,0.034,0.271,0.099,0.429,0.164c1.291,0.479,3.951,0.058,8.014-1.302l4.338-2.26
			c3.045-1.938,4.944-3.769,5.635-5.472c0.23-0.837,0.098-1.647-0.405-2.457c-2.792,2.555-6.429,4.906-10.913,7.077l-1.745,0.821
			c5.035-2.99,9.056-7.211,12.077-12.698c0.023-0.096,0.057-0.208,0.11-0.318l0.02-0.069c0.03-0.116,0.063-0.231,0.116-0.344
			C197.977,323.354,197.711,321.683,196.865,319.381"/>
		<path fill="#003C8F" d="M153.3,235.934l0.086-1.978l0.104-1.882l1.932,0.116c20.023,1.005,37.402,9.061,52.101,24.196
			l-0.084-0.053c8.12,7.576,12.194,16.399,12.194,26.472c0.014,0.071-0.001,0.122-0.013,0.197
			c-0.918,8.979-3.391,17.908-7.414,26.815c-2.738,6.141-6.245,12.277-10.501,18.416c-0.311,0.425-0.724,0.703-1.267,0.808
			c-0.523,0.076-1.011-0.026-1.44-0.336l-30.821-22.014c-0.397-0.288-0.638-0.664-0.751-1.127c-0.119-0.468-0.056-0.924,0.157-1.334
			l9.566-17.938c-0.022-5.219-1.274-8.922-3.749-11.091c-0.09-0.08-0.156-0.167-0.244-0.249c-3.596-4.285-7.996-7.037-13.257-8.261
			l-1.894-0.421l0.295-1.277l0.578-2.466l1.871,0.426c0.413,0.093,0.828,0.209,1.238,0.321c2.769,0.77,5.343,1.917,7.698,3.45
			c0.136,0.073,0.274,0.168,0.416,0.26c2.144,1.449,4.103,3.233,5.88,5.341c1.074,0.873,1.971,1.948,2.677,3.213
			c0.069,0.106,0.145,0.244,0.224,0.396c1.254,2.332,1.955,5.334,2.088,8.961c0.008,0.167,0.014,0.315,0.02,0.487
			c0.014,0.462,0.009,0.931,0.006,1.417c0.012,0.315-0.059,0.597-0.225,0.878l-4.623,8.708l-4.364,8.162l27.841,19.893
			c3.567-5.297,6.544-10.594,8.935-15.883c0.05-0.106,0.08-0.209,0.133-0.316c0.02-0.032,0.033-0.084,0.053-0.111
			c3.522-7.809,5.794-15.621,6.811-23.463c0.042-0.181,0.06-0.33,0.057-0.478c0.08-0.479,0.127-0.98,0.186-1.456
			c-0.078-8.953-3.727-16.83-10.983-23.596c-0.027-0.02-0.031-0.043-0.059-0.062c-0.828-0.846-1.674-1.685-2.541-2.501
			c-0.117-0.101-0.238-0.224-0.357-0.326c-5.961-5.642-12.379-10.092-19.209-13.365c-0.135-0.069-0.299-0.137-0.43-0.207
			c-7.414-3.503-15.348-5.63-23.78-6.41c-1.077-0.111-2.145-0.175-3.208-0.241L153.3,235.934z"/>
		<path fill="#DF6512" d="M153.386,233.956l-0.086,1.978l1.93,0.093c1.066,0.065,2.131,0.13,3.208,0.241
			c8.433,0.78,16.366,2.907,23.778,6.411l-12.53,24.048c-2.356-1.533-4.93-2.681-7.698-3.45c-0.413-0.114-0.828-0.229-1.238-0.321
			l-1.871-0.426l-0.578,2.466c-0.604-0.204-1.174-0.611-1.732-1.235c-0.982-1.16-1.84-2.809-2.574-4.973
			c-0.74-2.188-1.437-6.197-2.101-12.065c-0.638-5.885-0.565-9.305,0.257-10.271c0.82-0.966,1.178-1.647,1.078-2.044
			C153.176,234.269,153.242,234.109,153.386,233.956"/>
		<path fill="#9AC743" d="M182.218,242.678c0.131,0.07,0.293,0.138,0.43,0.207c6.83,3.273,13.248,7.724,19.209,13.365
			c0.122,0.102,0.24,0.226,0.357,0.326l-23.131,19.273l-0.316-0.382l-0.11,0.068c-0.707-1.26-1.601-2.336-2.675-3.209
			c-1.777-2.107-3.738-3.892-5.88-5.341c-0.142-0.092-0.28-0.187-0.418-0.259L182.218,242.678z"/>
		<path fill="#095CAA" d="M178.882,275.937l0.201-0.087l23.131-19.273c0.865,0.816,1.713,1.655,2.541,2.501
			c0.027,0.02,0.031,0.043,0.059,0.062c7.257,6.766,10.905,14.643,10.983,23.596c-0.056,0.476-0.105,0.979-0.186,1.456
			l-34.639,0.706C180.837,281.271,180.136,278.269,178.882,275.937"/>
		<path fill="#9AC743" d="M180.771,287.68c0.166-0.281,0.236-0.562,0.225-0.878c0.003-0.486,0.008-0.955-0.006-1.417
			c-0.006-0.172-0.012-0.32-0.02-0.487l34.642-0.706c0.003,0.147-0.015,0.297-0.057,0.478c-1.017,7.842-3.288,15.654-6.811,23.463
			c-0.02,0.027-0.033,0.082-0.053,0.106c-0.053,0.112-0.083,0.215-0.133,0.321l-32.411-12.172L180.771,287.68z"/>
		<path fill="#DF6512" d="M171.786,304.55l4.361-8.162l32.411,12.172c-2.394,5.289-5.367,10.586-8.935,15.883L171.786,304.55z"/>
		<path fill="#FFFFFF" d="M83.845,258.581c-1.158-0.257-2.265-0.521-3.379-0.785c-1.159-0.28-2.309-0.641-3.403-1.074
			c-0.794-0.298-1.552-0.653-2.271-1.088c-0.121-0.104-0.237-0.205-0.376-0.305c-1.216-0.837-2.247-1.854-3.12-3.002
			c-0.552-0.713-1.072-1.407-1.553-2.132l-0.006-0.027c-0.711-1.471-1.305-3.212-1.795-5.221c-1.463-4.988-2.203-9.709-2.24-14.192
			l90.004-16.545c0.182,0.582,0.338,1.169,0.473,1.763c1.148,4.77,1.566,10.125,1.199,16.067c-0.551,4.121-1.878,7.077-4.041,8.883
			c-1.429,1.221-2.694,2.25-3.75,3.083c-0.721,0.528-1.461,1.034-2.211,1.539c-1.761,1.163-3.607,2.245-5.553,3.216
			c-2.077,1.049-4.167,2.023-6.297,2.913c-2.08,0.9-4.229,1.69-6.396,2.382c-4.111,1.398-8.267,2.559-12.459,3.501
			c-1.688,0.358-3.354,0.69-5.055,0.979c-0.624,0.09-1.242,0.203-1.887,0.321c-1.761,0.226-3.545,0.456-5.324,0.706
			c-2.441,0.277-4.932,0.418-7.428,0.383c-0.82-0.024-1.645-0.072-2.465-0.093C90.96,259.689,87.403,259.285,83.845,258.581"/>
		
			<path fill="none" stroke="#003C8F" stroke-width="3.8833" stroke-linecap="round" stroke-linejoin="round" stroke-miterlimit="10" d="
			M69.743,250.195l-0.006-0.027c-0.711-1.472-1.305-3.212-1.797-5.22c-1.461-4.989-2.203-9.71-2.238-14.193l90.006-16.545
			c0.18,0.582,0.336,1.171,0.468,1.763c1.151,4.77,1.569,10.125,1.202,16.067c-0.551,4.121-1.88,7.077-4.037,8.883
			c-1.432,1.226-2.701,2.25-3.754,3.083c-0.719,0.528-1.463,1.035-2.211,1.539c-1.761,1.163-3.609,2.245-5.551,3.216
			c-2.078,1.049-4.169,2.023-6.299,2.913c-2.08,0.9-4.23,1.687-6.398,2.382c-4.109,1.398-8.265,2.559-12.457,3.501
			c-1.685,0.358-3.352,0.689-5.055,0.979c-0.624,0.09-1.242,0.203-1.889,0.322c-1.759,0.225-3.545,0.455-5.322,0.705
			c-2.443,0.277-4.933,0.413-7.428,0.383c-0.82-0.024-1.645-0.072-2.465-0.093c-3.553-0.163-7.107-0.567-10.669-1.271
			c-1.157-0.257-2.267-0.521-3.378-0.785c-1.159-0.28-2.312-0.64-3.403-1.074c-0.796-0.298-1.552-0.653-2.271-1.088 M74.792,255.634
			c-0.121-0.104-0.237-0.205-0.377-0.301c-1.217-0.841-2.243-1.858-3.121-3.004c-0.547-0.715-1.07-1.409-1.551-2.134
			 M74.792,255.634c-0.52-0.275-1.027-0.605-1.509-0.958c-1.396-1.002-2.562-2.517-3.54-4.48"/>
		<path fill="#D7272A" d="M97.83,204.087c3.23,3.208,6.756,5.844,10.618,7.869c3.883,2.029,7.893,3.302,12.055,3.852
			c3.754,0.526,7.518,0.637,11.307,0.35c3.588-0.331,7.125-1.05,10.576-2.194c1.6-0.523,3.379-1.385,5.33-2.534
			c-20.198,5.665-38.422,0.812-54.634-14.561C93.529,198.987,95.103,201.402,97.83,204.087"/>
		<path fill="#FFFFFF" d="M158.769,124.78c-3.305-3.688-6.82-5.217-10.492-4.615c-3.652,0.603-6.381,3.169-8.189,7.682
			c-1.812,4.482-2.181,9.63-1.108,15.404c1.048,5.776,3.249,10.486,6.581,14.176c3.304,3.686,6.817,5.215,10.492,4.611
			c3.646-0.6,6.377-3.169,8.188-7.68c1.834-4.512,2.199-9.678,1.105-15.455C164.294,133.127,162.096,128.419,158.769,124.78"/>
		<path fill="#FFFFFF" d="M123.565,128.218c-4.301-3.896-9.265-5.617-14.9-5.165c-5.634,0.45-10.292,2.938-13.925,7.456
			c-3.638,4.496-5.241,9.721-4.763,15.693c0.482,5.971,2.85,10.908,7.145,14.828c4.326,3.896,9.312,5.615,14.947,5.163
			c5.607-0.446,10.246-2.935,13.881-7.454c3.684-4.521,5.283-9.768,4.801-15.741C130.272,137.025,127.886,132.114,123.565,128.218"
			/>
		<path fill="#1B1616" d="M154.351,138.261c-1.693-1.918-3.561-2.848-5.637-2.768c-2.076,0.084-3.747,1.154-5.052,3.189
			c-1.261,2.08-1.765,4.525-1.491,7.336c0.277,2.819,1.255,5.207,2.91,7.125c1.698,1.965,3.566,2.895,5.642,2.814
			c2.075-0.079,3.746-1.148,5.047-3.234c1.266-2.029,1.771-4.479,1.493-7.293C156.985,142.619,156.008,140.226,154.351,138.261"/>
		<path fill="#1B1616" d="M105.771,144.774c1.753-2.289,3.99-3.602,6.76-3.934c2.771-0.334,5.255,0.421,7.498,2.225
			c2.204,1.863,3.49,4.248,3.842,7.166c0.344,2.913-0.341,5.537-2.049,7.815c-1.746,2.337-3.981,3.652-6.749,3.983
			c-2.771,0.334-5.26-0.419-7.509-2.275c-2.193-1.815-3.482-4.199-3.83-7.112C103.384,149.728,104.071,147.104,105.771,144.774"/>
		<path fill="none" stroke="#332C2A" stroke-width="10.8173" stroke-linecap="round" stroke-miterlimit="10" d="M82.023,117.839
			c27.485-14.648,51.807-18.664,72.997-12.051"/>
		<path fill="#E38100" d="M168.68,173.604c-1.433-8.615-4.95-15.647-10.592-21.04c-5.669-5.436-11.796-7.693-18.39-6.746
			c-6.592,0.923-11.695,4.787-15.334,11.547c-3.646,6.734-4.745,14.422-3.312,23.039c1.434,8.62,4.949,15.65,10.6,21.09
			c5.643,5.415,11.746,7.648,18.334,6.701c6.594-0.925,11.722-4.763,15.387-11.501C169.013,189.937,170.114,182.22,168.68,173.604"
			/>
		<path fill="#FCDF00" d="M195.923,167.423c-0.574-6.817-2.784-12.497-6.602-17.043c-3.818-4.548-8.156-6.613-12.988-6.205
			c-4.814,0.402-8.742,3.172-11.764,8.297c-3,5.121-4.223,11.092-3.65,17.909c0.58,6.815,2.786,12.496,6.602,17.042
			c3.844,4.545,8.182,6.611,12.987,6.209c4.841-0.41,8.767-3.176,11.767-8.298C195.274,180.211,196.499,174.238,195.923,167.423"/>
		
			<path fill="none" stroke="#E06A05" stroke-width="3.8819" stroke-linecap="round" stroke-linejoin="round" stroke-miterlimit="10" d="
			M195.923,167.423c0.576,6.815-0.648,12.788-3.648,17.911c-3,5.122-6.926,7.888-11.767,8.298
			c-4.806,0.402-9.144-1.664-12.987-6.209c-3.815-4.546-6.021-10.227-6.602-17.042c-0.572-6.817,0.65-12.788,3.65-17.909
			c3.021-5.125,6.949-7.895,11.764-8.297c4.832-0.408,9.17,1.657,12.988,6.205C193.139,154.926,195.349,160.605,195.923,167.423z"/>
		<path fill="#FCDF00" d="M56.688,179.19c-0.574-6.816-2.782-12.498-6.6-17.041c-3.842-4.543-8.182-6.613-12.988-6.209
			c-4.837,0.412-8.768,3.177-11.764,8.301c-3.002,5.122-4.225,11.095-3.65,17.909c0.576,6.818,2.789,12.495,6.604,17.043
			c3.818,4.546,8.154,6.613,12.988,6.209c4.812-0.407,8.74-3.176,11.766-8.299C56.041,191.98,57.266,186.008,56.688,179.19"/>
		
			<path fill="none" stroke="#E06A05" stroke-width="3.8819" stroke-linecap="round" stroke-linejoin="round" stroke-miterlimit="10" d="
			M50.089,162.149c-3.842-4.543-8.18-6.613-12.99-6.208c-4.835,0.411-8.766,3.176-11.762,8.3c-3.002,5.122-4.225,11.095-3.65,17.909
			c0.576,6.818,2.789,12.495,6.604,17.043c3.818,4.546,8.153,6.613,12.99,6.208c4.809-0.406,8.738-3.175,11.764-8.298
			c2.999-5.125,4.222-11.096,3.645-17.913C56.114,172.374,53.906,166.692,50.089,162.149z"/>
		<path fill="#FCDF00" d="M145.256,88.738c-0.078-0.069-0.136-0.163-0.214-0.226c-12.601-13.98-26.224-20.791-40.873-20.404
			c-2.436-0.012-4.898,0.219-7.393,0.65c-14.428,2.119-26.647,11.113-36.674,26.934c-0.07,0.078-0.107,0.178-0.172,0.256
			c-8.374,13.589-14.252,27.863-17.69,42.785c-0.384,2.055-0.726,4.102-1.038,6.149c-0.105,0.766-0.209,1.527-0.314,2.294
			c-1.729,12.123-2.022,23.904-0.838,35.344c0.779,5.461,1.998,10.932,3.606,16.445c3.454,12.051,10.226,22.167,20.294,30.395
			c13.012,10.27,29.964,14.342,50.838,12.188c21.477-1.427,37.788-8.307,48.896-20.617c8.545-9.802,13.521-20.911,14.9-33.373
			c0.664-5.702,0.946-11.301,0.797-16.813c-0.751-11.472-3.021-23.042-6.758-34.704c-0.229-0.735-0.461-1.47-0.697-2.205
			c-0.653-1.967-1.326-3.93-2.033-5.892C164.294,112.909,156.074,99.827,145.256,88.738"/>
		
			<path fill="none" stroke="#E06A05" stroke-width="3.8819" stroke-linecap="round" stroke-linejoin="round" stroke-miterlimit="10" d="
			M145.042,88.513c-12.601-13.98-26.227-20.791-40.873-20.404c-2.436-0.012-4.898,0.219-7.393,0.65
			C82.349,70.878,70.132,79.871,60.1,95.692c-0.067,0.078-0.104,0.178-0.169,0.256c-8.374,13.589-14.252,27.863-17.69,42.785
			c-0.386,2.055-0.726,4.102-1.038,6.149c-0.105,0.765-0.209,1.527-0.314,2.294c-1.729,12.123-2.022,23.904-0.838,35.344
			c0.779,5.461,1.998,10.932,3.606,16.445c3.454,12.051,10.226,22.167,20.294,30.395c13.014,10.269,29.964,14.342,50.838,12.188
			c21.477-1.427,37.788-8.307,48.896-20.617c8.545-9.802,13.521-20.911,14.9-33.373c0.664-5.702,0.946-11.301,0.797-16.813
			c-0.751-11.472-3.021-23.042-6.758-34.704c-0.229-0.735-0.464-1.469-0.697-2.205c-0.653-1.967-1.326-3.93-2.033-5.892
			c-5.6-15.034-13.819-28.116-24.638-39.205C145.178,88.669,145.12,88.575,145.042,88.513z"/>
		<path fill="#332C2A" d="M117.104,21.036c0.586-0.85,1.021-1.691,1.346-2.497c0.103-0.228-1.355,0.382-4.371,1.831
			c-3.111,1.502-5.463,2.773-7.03,3.808c-3.577,2.348-6.112,4.606-7.659,6.78c-0.602,0.953-1.131,1.873-1.571,2.715
			c-1.091-1.102-2.39-2.646-3.897-4.637c-1.975-2.633-3.445-5.625-4.414-9.025c-0.551-2.777-0.86-4.138-0.931-4.109
			c-1.665,0.726-3.21,2.049-4.636,3.947c-2.893,3.775-3.93,8.781-3.109,15.017c0.355,3.087,1.033,6.168,2.047,9.224
			c-2.51-0.567-4.514-1.248-5.973-2.076c-1.844-1.086-3.873-3.495-6.115-7.272c-1.786-2.989-2.786-5.022-3.047-6.071
			c-0.095-0.284-0.4,0.422-0.937,2.121c-0.621,1.904-0.989,3.906-1.101,6.034c-0.318,6.576,1.99,12.299,6.903,17.142
			c0.427,0.425,1.042,1.104,1.827,2.035c-7.134-0.564-12.729-2.844-16.84-6.854c-0.309-0.437-0.462,0.04-0.516,1.409
			c0.004,1.459,0.191,3.125,0.619,5.012c1.223,5.543,3.589,9.628,7.121,12.25l0.881,0.607c-2.676,0.617-5.404,0.871-8.212,0.793
			c-1.78-0.021-3.575-0.258-5.374-0.764c-1.318-0.375-3.127-1.001-5.363-1.885c-0.284-0.17,1.37,1.856,4.939,6.061
			c3.672,4.289,6.315,7.04,7.951,8.235c4.053,2.993,8.854,4.804,14.43,5.38c5.572,0.575,11.63-0.957,18.161-4.629
			c1.556,0.869,3.319,1.547,5.234,2.043c1.813,0.455,3.539,0.674,5.116,0.636c2.064-0.05,3.982-0.409,5.703-1.114
			c1.979-0.776,3.511-1.928,4.572-3.451c1.686,1.193,3.605,2.008,5.715,2.484c2.081,0.434,4.154,0.479,6.24,0.107
			c2.041-0.343,4.037-0.925,5.986-1.773c1.32-0.523,3.187-1.463,5.61-2.76c2.212-1.163,6.053-2.412,11.513-3.75
			c4.678-1.1,6.966-1.685,6.866-1.751c-1.973-1.415-4.165-2.3-6.603-2.604c-1.994-0.297-4.426-0.236-7.289,0.176
			c-1.253,0.133-2.564,0.438-3.918,0.867c1.29-0.886,2.447-1.885,3.496-3.02c2.251-2.43,3.959-5.277,5.068-8.561
			c0.627-1.781,1.402-5.012,2.293-9.738c-1.769,1.83-3.791,3.827-6.067,5.965c-4.604,4.311-8.142,6.85-10.606,7.617
			c-0.686,0.229-1.83,0.496-3.385,0.822c1.466-4.483,2.671-7.578,3.596-9.312c1.012-1.837,3.256-4.658,6.732-8.455l4.684-5.072
			c-1.844-0.793-4.077-1.018-6.68-0.7c-2.34,0.296-4.81,1.015-7.365,2.181c0.986-2.202,1.119-5.523,0.373-10.014
			c-0.746-4.514-1.207-6.494-1.424-5.916c-0.85,2.336-2.097,4.581-3.764,6.744c-1.673,2.114-3.564,3.93-5.68,5.398
			c-1.537,1.103-3.586,2.226-6.139,3.391c-0.244-2.876-0.168-5.412,0.23-7.614C113.207,29.961,114.775,25.497,117.104,21.036"/>
		<path fill="#D7272A" d="M163.916,199.148c-7.296,5.854-15.72,10.17-25.25,12.921c-9.534,2.729-17.761,4.398-24.651,4.98
			c-6.916,0.585-15.312,0.318-25.166-0.77c-9.857-1.114-18.886-3.953-27.061-8.498c16.969,11.809,34.523,16.731,52.641,14.782
			C132.665,221.44,149.147,213.641,163.916,199.148"/>
		<path fill="#FFFFFF" d="M152.911,141.321c-0.507-5.993-2.943-10.926-7.289-14.818c-4.394-3.889-9.406-5.585-15.09-5.104
			c-5.678,0.48-10.334,2.992-14.016,7.563c-3.631,4.567-5.205,9.841-4.697,15.831c0.503,5.973,2.942,10.904,7.291,14.822
			c4.392,3.887,9.404,5.58,15.086,5.102c5.681-0.48,10.339-2.994,14.016-7.563C151.841,152.56,153.417,147.29,152.911,141.321"/>
		<path fill="#FFFFFF" d="M103.356,145.509c-0.506-5.99-2.943-10.925-7.289-14.816c-4.393-3.889-9.404-5.584-15.084-5.104
			c-5.686,0.479-10.34,2.99-14.02,7.562c-3.678,4.574-5.254,9.842-4.749,15.838c0.507,5.969,2.942,10.899,7.341,14.812
			c4.395,3.891,9.405,5.584,15.086,5.103c5.681-0.478,10.338-2.988,14.018-7.562C102.29,156.749,103.864,151.482,103.356,145.509"/>
		<path fill="#1B1616" d="M137.49,136.396c-2.11-1.961-4.538-2.883-7.323-2.748c-2.789,0.141-5.107,1.299-7.02,3.459
			c-1.859,2.205-2.729,4.772-2.58,7.707c0.144,2.93,1.262,5.4,3.328,7.365c2.113,2.004,4.539,2.93,7.329,2.789
			c2.782-0.136,5.107-1.297,7.014-3.502c1.862-2.16,2.73-4.727,2.583-7.657C140.679,140.878,139.558,138.405,137.49,136.396"/>
		<path fill="#1B1616" d="M76.53,141.551c1.757-2.286,3.993-3.606,6.76-3.938c2.771-0.332,5.256,0.422,7.5,2.23
			c2.203,1.861,3.49,4.249,3.839,7.162c0.352,2.914-0.339,5.538-2.044,7.817c-1.75,2.338-3.984,3.655-6.755,3.985
			c-2.769,0.331-5.253-0.419-7.504-2.276c-2.196-1.813-3.483-4.2-3.832-7.115C74.142,146.502,74.831,143.879,76.53,141.551"/>
		<path fill="none" stroke="#332C2A" stroke-width="8.7329" stroke-linecap="round" stroke-miterlimit="10" d="M62.579,115.849
			c31.59-10.778,59.29-13.12,83.15-7.032"/>
		<path fill="#E38100" d="M129.701,200.752c4.144-6.555,5.862-14.176,5.126-22.878c-0.736-8.699-3.707-15.926-8.889-21.644
			c-5.233-5.769-11.152-8.359-17.799-7.797c-6.648,0.56-12.042,4.11-16.19,10.669c-4.147,6.509-5.861,14.127-5.128,22.83
			c0.735,8.702,3.709,15.925,8.898,21.693c5.178,5.724,11.092,8.314,17.74,7.75C120.108,210.814,125.505,207.27,129.701,200.752"/>
	</g>
</g>
<g id="_x36_" display="none">
</g>
<g id="_x35_" display="none">
</g>
<g id="_x34_" display="none">
</g>
<g id="_x33_" display="none">
</g>
<g id="_x32_" display="none">
</g>
<g id="_x31_" display="none">
	<g display="inline">
		<defs>
			<path id="SVGID_13_" d="M810.692-151.442c0,5.5-4.5,10-10,10H-477.253c-5.5,0-10-4.5-10-10V-179v-841.881c0-5.5,4.5-10,10-10
				H800.692c5.5,0,10,4.5,10,10V-181V-151.442z"/>
		</defs>
		<clipPath id="SVGID_2_">
			<use xlink:href="#SVGID_13_"  overflow="visible"/>
		</clipPath>
		<g clip-path="url(#SVGID_2_)">
			<g>
				<g>
					<g>
						<path fill="#009FE8" d="M325.181-147.628l0.126-0.023c0.962,0.558,12.418,20.532,34.255,60.026
							c22.288,40.289,33.647,60.741,34.095,61.29l16.105-0.493c37.065-9.018,68.65-11.974,94.718-8.825
							c12.623,1.507,25.208,5.135,37.811,10.832c5.792,2.643,11.409,7.637,16.967,14.964c5.497,7.345,8.314,13.657,8.518,18.961
							c0.285,8.501-5.177,16.658-16.428,24.509c-31.271,21.751-87.995,33.784-170.125,36.139
							c-41.057,1.21-79.001,0.185-113.752-3.027l-4.665-5.345c-0.483-0.724-0.919-1.526-1.375-2.396
							c-1.754-4.442-3.025-7.565-3.79-9.512c-1.529-3.722-6.166-30.104-14.066-79.197c-7.89-49.157-12.549-75.605-13.883-79.296
							l-0.019-0.067l95.435-38.584L325.181-147.628z"/>
						<path fill="none" stroke="#00499C" stroke-width="10.0548" stroke-linecap="round" stroke-miterlimit="10" d="
							M325.181-147.628l-0.074-0.045l-95.435,38.584l0.019,0.067c1.334,3.69,5.993,30.139,13.883,79.296
							c7.9,49.094,12.537,75.476,14.066,79.197c0.765,1.946,2.036,5.069,3.79,9.512c0.456,0.869,0.892,1.672,1.375,2.396
							l4.665,5.345c34.751,3.212,72.695,4.237,113.752,3.027c82.13-2.354,138.854-14.388,170.125-36.139
							c11.251-7.851,16.713-16.008,16.428-24.509c-0.203-5.304-3.021-11.616-8.518-18.961c-5.558-7.327-11.175-12.321-16.967-14.964
							c-12.603-5.697-25.188-9.325-37.811-10.832c-26.067-3.148-57.652-0.192-94.718,8.825l-16.105,0.493
							c-0.447-0.549-11.807-21.001-34.095-61.29c-21.837-39.494-33.293-59.469-34.255-60.026L325.181-147.628z"/>
						<path fill="#009FE8" d="M183.43-80.221l0.121-0.03c0.991,0.52,13.173,20.124,36.459,58.896
							c23.749,39.551,35.863,59.636,36.323,60.169l16.111-1.077c36.805-10.349,68.336-14.445,94.545-12.21
							c12.699,1.056,25.435,4.245,38.252,9.509c5.895,2.432,11.705,7.231,17.521,14.367c5.765,7.167,8.821,13.397,9.222,18.69
							c0.587,8.501-4.591,16.861-15.59,25.127c-30.541,22.904-86.928,36.974-169.08,42.268c-41.076,2.666-79.111,3.002-114.038,1.01
							l-4.857-5.18c-0.509-0.707-0.979-1.495-1.467-2.35c-1.909-4.369-3.304-7.463-4.128-9.395
							c-1.667-3.668-7.257-29.924-16.907-78.81C96.257-8.18,90.635-34.501,89.172-38.147l-0.02-0.069l94.198-42.053L183.43-80.221z"
							/>
						<path fill="none" stroke="#00499C" stroke-width="10.075" stroke-linecap="round" stroke-miterlimit="10" d="M183.43-80.221
							l-0.079-0.049L89.152-38.217l0.02,0.069c1.463,3.646,7.085,29.968,16.745,78.912c9.65,48.886,15.24,75.142,16.907,78.81
							c0.824,1.932,2.219,5.025,4.128,9.395c0.487,0.854,0.958,1.643,1.467,2.35l4.857,5.18c34.927,1.992,72.962,1.656,114.038-1.01
							c82.152-5.294,138.539-19.363,169.08-42.268c10.999-8.266,16.177-16.626,15.59-25.127c-0.4-5.293-3.457-11.523-9.222-18.69
							c-5.816-7.136-11.627-11.936-17.521-14.367c-12.817-5.264-25.553-8.453-38.252-9.509c-26.209-2.235-57.74,1.861-94.545,12.21
							l-16.111,1.077c-0.46-0.533-12.574-20.618-36.323-60.169c-23.286-38.772-35.468-58.377-36.459-58.896L183.43-80.221z"/>
					</g>
				</g>
			</g>
		</g>
	</g>
</g>
<g id="_x30_" display="none">
</g>
<g id="guide" display="none">
</g>
</svg>
