<?xml version="1.0" encoding="utf-8"?>
<!-- Generator: Adobe Illustrator 16.2.1, SVG Export Plug-In . SVG Version: 6.00 Build 0)  -->
<!DOCTYPE svg PUBLIC "-//W3C//DTD SVG 1.1//EN" "http://www.w3.org/Graphics/SVG/1.1/DTD/svg11.dtd">
<svg version="1.1" xmlns="http://www.w3.org/2000/svg" xmlns:xlink="http://www.w3.org/1999/xlink" x="0px" y="0px"
	 width="371.97px" height="516px" viewBox="0 0 371.97 516" enable-background="new 0 0 371.97 516" xml:space="preserve">
<g id="base">
</g>
<g id="book3">
</g>
<g id="_x38_" display="none">
</g>
<g id="_x37_">
	<g>
		<path fill="#EDDC00" d="M163.526,363.218c-1.354-3.305-1.304-7.421,0.122-12.347c1.498-5.186,4.228-9.878,8.171-14.038
			c4.54-4.757,10.011-8.023,16.41-9.791c7.482-2.062,15.753-1.922,24.81,0.377c1.839-3.026,6.018-6.55,12.536-10.606
			c6.948-4.318,14.242-7.707,21.89-10.17c8.875-2.876,16.586-3.861,23.135-2.951c7.752,1.061,13.242,4.718,16.472,10.971
			c4.517,8.748,1.517,17.707-9.008,26.875c-3.838,3.337-8.177,6.224-12.998,8.686c-4.322,2.177-7.596,3.348-9.847,3.487
			c4.374,6.643,4.571,13.352,0.577,20.096c-3.456,5.884-9.387,10.862-17.788,14.918c-8.032,3.913-15.828,5.864-23.417,5.843
			c-8.177,0.009-13.66-2.396-16.438-7.216c0.49,4.327-1.52,8.052-6.032,11.174c-4.219,2.932-9.394,4.58-15.53,4.909
			c-6.459,0.366-11.983-0.89-16.583-3.79c-5.31-3.304-8.361-8.279-9.187-14.924c-0.294-2.36,1.817-6.098,6.316-11.237
			c4.55-5.137,6.69-8.773,6.424-10.905L163.526,363.218z"/>
		<path fill="none" stroke="#F1B800" stroke-width="6.0472" stroke-miterlimit="10" d="M163.526,363.218l0.034-0.641
			c0.267,2.137-1.874,5.769-6.424,10.905c-4.499,5.14-6.61,8.877-6.316,11.237c0.825,6.645,3.877,11.62,9.187,14.924
			c4.6,2.9,10.124,4.156,16.583,3.79c6.137-0.329,11.312-1.978,15.53-4.909c4.513-3.122,6.522-6.847,6.032-11.174
			c2.778,4.82,8.262,7.225,16.438,7.216c7.589,0.021,15.385-1.93,23.417-5.843c8.401-4.056,14.332-9.034,17.788-14.918
			c3.994-6.744,3.797-13.453-0.577-20.096c2.251-0.138,5.524-1.311,9.847-3.487c4.821-2.462,9.16-5.349,12.998-8.686
			c10.524-9.168,13.524-18.127,9.008-26.875c-3.229-6.253-8.72-9.91-16.472-10.971c-6.549-0.91-14.26,0.077-23.135,2.951
			c-7.647,2.463-14.941,5.852-21.883,10.17c-6.525,4.057-10.704,7.58-12.543,10.606c-9.057-2.299-17.327-2.438-24.81-0.372
			c-6.399,1.763-11.87,5.029-16.41,9.786c-3.943,4.16-6.673,8.853-8.171,14.038C162.223,355.797,162.173,359.913,163.526,363.218z"
			/>
		<path fill="#FCDF00" d="M163.526,363.218c-1.354-3.305-1.304-7.421,0.122-12.347c1.498-5.186,4.228-9.878,8.171-14.038
			c4.54-4.757,10.011-8.023,16.41-9.791c7.482-2.062,15.753-1.922,24.81,0.377c1.839-3.026,6.018-6.55,12.536-10.606
			c6.948-4.318,14.242-7.707,21.89-10.17c8.875-2.876,16.586-3.861,23.135-2.951c7.752,1.061,13.242,4.718,16.472,10.971
			c4.517,8.748,1.517,17.707-9.008,26.875c-3.838,3.337-8.177,6.224-12.998,8.686c-4.322,2.177-7.596,3.348-9.847,3.487
			c4.374,6.643,4.571,13.352,0.577,20.096c-3.456,5.884-9.387,10.862-17.788,14.918c-8.032,3.913-15.828,5.864-23.417,5.843
			c-8.177,0.009-13.66-2.396-16.438-7.216c0.49,4.327-1.52,8.052-6.032,11.174c-4.219,2.932-9.394,4.58-15.53,4.909
			c-6.459,0.366-11.983-0.89-16.583-3.79c-5.31-3.304-8.361-8.279-9.187-14.924c-0.294-2.36,1.817-6.098,6.316-11.237
			c4.55-5.137,6.69-8.773,6.424-10.905L163.526,363.218z"/>
		<path fill="#E32126" d="M169.738,375.378c-0.203-0.556-0.402-1.104-0.632-1.619c7.418-1.311,14.832-2.584,22.283-3.854
			c0.228,0.514,0.451,1.024,0.675,1.561c3.184,7.05,6.02,14.738,8.516,23.061c0.104-0.037,0.203-0.055,0.303-0.051
			c1.645-0.23,3.245,0.287,4.842,1.572h0.014v0.021c1.357,1.114,2.281,2.577,2.748,4.35c0.325,1.791,0.091,3.398-0.746,4.823
			c-0.942,1.627-2.243,2.531-3.925,2.698h-0.022c-0.16-0.006-0.304,0.011-0.408,0.046c0.024,0.106,0.019,0.186,0.036,0.284
			c0.143,0.41,0.272,0.84,0.383,1.306c0.175,0.793,0.329,1.605,0.466,2.399c0,0.019,0,0.019-0.025,0.038
			c0.07,0.349,0.143,0.675,0.191,1.02c0.05,0.384,0.054,0.789,0.021,1.17c-0.029,0.305,0,0.565,0.112,0.831
			c0.065-0.037,0.128-0.073,0.188-0.134c-0.004,0.062-0.004,0.101-0.004,0.163c1.452,0.063,2.701,0.732,3.752,2.021h0.02v0.021
			c1.027,1.263,1.503,2.817,1.4,4.649c-0.107,1.351-0.508,2.567-1.208,3.656l-3.937-0.128c0.088-0.1,0.166-0.178,0.231-0.253
			c0.186-0.14,0.348-0.296,0.52-0.492v-0.018c0.691-0.746,1.085-1.622,1.141-2.65c0.034-0.422,0.004-0.809-0.06-1.195
			c-0.311-0.997-0.854-1.844-1.618-2.513c-1.002-0.882-2.157-1.367-3.468-1.449c-0.019-0.004-0.06-0.004-0.101-0.004
			c-0.018-0.098-0.014-0.161-0.014-0.223c-0.073-0.162-0.152-0.327-0.201-0.508c0.388-0.818,0.5-1.804,0.357-2.922
			c-0.184-1.297-0.459-2.558-0.85-3.801c-0.163-0.491-0.369-0.923-0.662-1.275c-0.048-0.387-0.097-0.751-0.146-1.137
			c0.024,0,0.084,0.003,0.142,0.005c1.319-0.099,2.507-0.624,3.529-1.577c0.936-0.884,1.497-1.976,1.717-3.258
			c-0.001-0.386-0.03-0.771-0.06-1.155c-0.139-0.611-0.368-1.12-0.656-1.555c-0.335-0.357-0.687-0.711-1.034-1.028
			c-0.51-0.479-1.109-0.841-1.764-1.083c-1.359-0.489-2.683-0.717-3.978-0.658c-0.019-0.039-0.019-0.06-0.042-0.06
			c-2.288-8.258-4.991-15.854-8.116-22.847c-5.42,0.951-10.804,1.887-16.145,2.823c2.83,7.182,5.173,14.648,7.04,22.385v0.04
			c-0.952,0.637-1.688,1.521-2.23,2.657c-0.237,0.576-0.361,1.215-0.363,1.905c0.075,1.354,0.562,2.582,1.435,3.682
			c0.716,0.851,1.626,1.508,2.683,1.944c0.043,0,0.076,0.003,0.12,0.024c0.036-0.018,0.078-0.036,0.125-0.055
			c0.017,0.019,0.031,0.041,0.054,0.064c0.181,0.167,0.31,0.352,0.449,0.556c0.284,0.435,0.51,0.928,0.635,1.496
			c0.266,1.118,0.411,2.255,0.479,3.43c0.028,0.746-0.036,1.452-0.179,2.154c0.02,0.021,0.02,0.021,0.02,0.043
			c-0.006,0.159-0.01,0.324-0.013,0.482l-0.007,0.062h-0.017c-0.1,0.015-0.245,0.012-0.38,0.025
			c-1.346,0.259-2.438,0.991-3.289,2.198c-0.677,0.924-1.035,1.944-1.07,3.096c0.035,0.14,0.049,0.342,0.02,0.585
			c0.029,0.426,0.094,0.832,0.186,1.219l-3.392-0.115c-0.043-0.505-0.067-1.051-0.032-1.617c0.169-1.832,0.82-3.424,1.957-4.781
			c0.778-0.923,1.668-1.562,2.631-1.913v-0.04c0.06-0.02,0.102-0.055,0.146-0.097c0.015-0.02,0.015-0.041,0.041-0.06
			c0.024-0.158,0.03-0.322,0.031-0.461c0.049-0.225,0.059-0.466,0.049-0.728c-0.056-0.727-0.156-1.441-0.314-2.108
			c-0.195-0.838-0.558-1.495-1.089-1.997c0.006-0.019,0.006-0.04,0.006-0.062c-0.659-0.282-1.274-0.687-1.882-1.233
			c-1.272-1.151-2.113-2.633-2.479-4.443c-0.368-1.766-0.151-3.375,0.604-4.807c0.45-0.792,0.994-1.398,1.615-1.823
			C175.104,390.318,172.668,382.722,169.738,375.378"/>
		<path fill="#E32126" d="M251.594,441.258c6.434,2.292,11.324,5.382,14.647,9.25c3.386,3.885,4.787,7.909,4.226,12.07v0.023
			c-0.477,4.262-2.965,7.961-7.455,11.103h-0.015c-4.567,3.202-10.761,5.362-18.612,6.48h-0.023
			c-18.564,2.62-42.604-0.954-72.073-10.727c-1.266-0.123-1.689-3.229-1.289-9.316l0.005-0.016
			c0.391-5.279,1.193-10.081,2.448-14.405c0,0-0.017,0-0.044-0.019c0.096-0.222,0.157-0.421,0.184-0.601
			c-0.414-0.337-0.779-0.733-1.112-1.188c0.022-0.02,0-0.041-0.017-0.021c-0.806-1.299-1.059-2.842-0.757-4.649
			c0.396-1.786,1.237-3.333,2.536-4.644c0.746-0.68,1.491-1.183,2.229-1.542c0.51-0.063,0.904-0.373,1.221-0.952
			c0.343-0.631,0.632-1.288,0.873-1.949c0.115-0.298,0.142-0.599,0.115-0.863c0.021-0.122,0.045-0.24,0.065-0.379
			c-0.63-0.326-1.204-0.808-1.703-1.471c0.021-0.023,0-0.043-0.024-0.023c-0.653-0.89-1.064-1.934-1.209-3.09l3.392,0.115
			c0.235,0.791,0.637,1.492,1.201,2.117c0.056,0.062,0.133,0.146,0.219,0.209l1.6,1.002c0.049,2.201-0.48,4.205-1.609,6.047
			c-0.066,0.1-0.126,0.178-0.232,0.275l-0.945,0.434c-0.51,0.246-1.094,0.589-1.712,1.034c-0.644,0.443-1.137,0.873-1.452,1.265
			c-0.652,0.668-1.078,1.462-1.251,2.404v0.042c0.015,0,0,0.013-0.025,0.059c0.02,0.036,0,0.1-0.045,0.199
			c-0.022,0.062-0.028,0.16-0.051,0.263c-0.054,1.147,0.191,2.205,0.749,3.176c0.36,0.577,0.83,1.054,1.425,1.417
			c-0.023,0.04-0.023,0.081-0.023,0.101c-0.163,0.662-0.366,1.321-0.571,2.021l-0.005,0.019h-0.017
			c-1.395,4.378-2.229,8.793-2.478,13.271c-0.246,4.474-0.474,6.669-0.686,6.602c28.874,9.573,52.432,13.109,70.633,10.578
			c1.276-0.177,2.494-0.401,3.675-0.63c0.31-0.21,0.619-0.42,0.891-0.671c2.08-1.773,3.286-4.096,3.626-6.995
			c0.328-2.794-0.253-5.44-1.718-7.971c-1.555-2.658-3.834-4.569-6.846-5.721c4.441,0.774,7.774,2.656,9.956,5.662
			c1.991,2.668,2.683,5.643,2.088,8.912c-0.372,2.108-1.198,3.881-2.455,5.354c3.1-1.012,5.766-2.297,8.019-3.857
			c3.619-2.524,5.655-5.467,6.112-8.869c0.385-3.274-0.757-6.467-3.462-9.565c-3.039-3.473-7.475-6.242-13.301-8.336
			c-13.032-4.646-29.177-5.074-48.434-1.243c-0.436,0.328-0.868,0.679-1.304,1.029c-0.227,0.034-0.406,0.065-0.568,0.102
			c-0.021-0.021-0.065-0.021-0.081-0.001c0.392-0.188,0.744-0.503,1.104-0.957c0.039-0.036,0.08-0.076,0.102-0.119
			c0.444-0.609,0.794-1.324,1.059-2.142c0.18-0.582,0.281-1.162,0.323-1.729c0.031-0.464,0.012-0.928-0.058-1.375
			c-0.182-1.155-0.765-2.026-1.734-2.602c-0.375-0.233-0.755-0.447-1.149-0.604l-1.86-0.524c0.021-0.139,0.067-0.257,0.131-0.356
			c1.097-2.066,1.833-4.226,2.172-6.495l1.233-0.101c0.817-0.156,1.636-0.551,2.488-1.151c0.311-0.234,0.6-0.484,0.848-0.739
			l3.937,0.129c-0.234,0.376-0.533,0.751-0.847,1.104c-0.02-0.019-0.039-0.004-0.02,0.019c-1.363,1.509-2.904,2.249-4.617,2.255
			c-0.048,0.259-0.138,0.521-0.287,0.794c-0.022,0.081-0.051,0.164-0.07,0.245c-0.184,0.619-0.383,1.218-0.608,1.818
			c-0.129,0.333-0.278,0.635-0.455,0.913c1.416,0.126,2.526,0.828,3.35,2.086l0.019,0.005l-0.019,0.02
			c0.826,1.237,1.082,2.701,0.804,4.384C223.938,436.03,239.141,436.749,251.594,441.258"/>
		<path fill="#E17C9E" d="M201.785,397.191c0.654,0.242,1.254,0.604,1.764,1.083c0.348,0.317,0.699,0.668,1.034,1.028
			c0.288,0.435,0.518,0.943,0.656,1.555c0.029,0.385,0.059,0.77,0.06,1.155c-0.22,1.282-0.781,2.374-1.717,3.254
			c-1.022,0.957-2.21,1.482-3.529,1.581c-0.058-0.002-0.117-0.005-0.142-0.005c-0.059-0.021-0.101-0.021-0.117-0.005
			c-5.845,0.759-11.645,1.496-17.427,2.26c-0.022-0.023-0.037-0.046-0.054-0.064c-0.044,0.019-0.089,0.037-0.123,0.055
			c-0.046-0.021-0.079-0.024-0.12-0.024c-1.059-0.437-1.967-1.094-2.685-1.944c-0.873-1.1-1.359-2.327-1.435-3.682
			c0.002-0.69,0.126-1.329,0.363-1.91c0.543-1.131,1.278-2.016,2.23-2.652v-0.04c5.719-0.764,11.479-1.522,17.263-2.302
			C199.103,396.475,200.426,396.702,201.785,397.191"/>
		<path fill="#E76500" d="M199.794,406.838c0.017-0.017,0.059-0.017,0.117,0.005c0.049,0.386,0.098,0.75,0.146,1.137
			c0.293,0.354,0.499,0.784,0.662,1.275c0.391,1.243,0.666,2.504,0.85,3.801c0.143,1.118,0.031,2.104-0.357,2.922
			c0.051,0.181,0.128,0.346,0.201,0.508c0,0.062-0.004,0.125,0.017,0.227c-0.081-0.028-0.122-0.006-0.143,0.014
			c-0.045,0.019-0.083,0.015-0.123,0.034c-5.821,0.151-11.621,0.327-17.407,0.499c0.006-0.158,0.01-0.323,0.016-0.482
			c0-0.022,0-0.022-0.02-0.043c0.144-0.702,0.207-1.408,0.177-2.154c-0.066-1.175-0.212-2.311-0.478-3.429
			c-0.125-0.569-0.351-1.062-0.634-1.497c-0.141-0.204-0.27-0.389-0.45-0.556C188.149,408.334,193.949,407.597,199.794,406.838"/>
		<path fill="#E76500" d="M197.766,396.474c0.023,0,0.023,0.021,0.042,0.06c-5.783,0.779-11.546,1.538-17.263,2.302
			c-1.866-7.737-4.21-15.203-7.04-22.385c5.341-0.937,10.725-1.872,16.145-2.823C192.774,380.619,195.478,388.216,197.766,396.474"
			/>
		<path fill="#E17C9E" d="M183.752,417.321l0.007-0.062c5.783-0.172,11.583-0.348,17.404-0.499c0.04-0.02,0.081-0.016,0.123-0.034
			c0.021-0.02,0.062-0.042,0.143-0.018c0.038,0,0.079,0,0.098,0.004c1.311,0.082,2.468,0.567,3.468,1.449
			c0.765,0.669,1.308,1.516,1.618,2.513c0.063,0.387,0.094,0.773,0.06,1.195c-0.056,1.028-0.449,1.907-1.141,2.65v0.018
			c-0.17,0.196-0.334,0.355-0.52,0.489c-0.314,0.376-0.667,0.705-1.079,0.994c-0.853,0.601-1.671,0.995-2.488,1.151l-1.233,0.102
			l-4.024,0.112c-4.323,0.099-8.651,0.219-12.955,0.361l-1.011,0.025l-1.6-0.999c-0.086-0.066-0.16-0.149-0.219-0.212
			c-0.838-0.918-1.312-2.024-1.387-3.336c0.029-0.243,0.016-0.445-0.02-0.585c0.035-1.151,0.394-2.172,1.07-3.096
			c0.851-1.207,1.943-1.939,3.289-2.198c0.135-0.014,0.28-0.011,0.38-0.025H183.752z"/>
		<path fill="#E17C9E" d="M199.769,434.648c0.395,0.157,0.774,0.371,1.149,0.604c0.97,0.575,1.553,1.445,1.734,2.605
			c0.068,0.443,0.089,0.907,0.058,1.371c-0.042,0.567-0.144,1.147-0.323,1.728c-0.267,0.819-0.615,1.534-1.059,2.144
			c-0.021,0.043-0.064,0.082-0.102,0.119c-0.359,0.454-0.712,0.77-1.104,0.957c0.016-0.021,0.06-0.021,0.081,0.001
			c-0.103,0.017-0.187,0.033-0.288,0.093c-0.144,0.032-0.304,0.071-0.47,0.104c-0.035-0.019-0.078-0.002-0.123,0.016
			c-0.178,0.016-0.36,0.009-0.544,0.023c-0.262,0.009-0.541,0.001-0.828,0.013c-7.006-0.007-13.953-0.036-20.88-0.04
			c-0.595-0.363-1.064-0.84-1.425-1.419c-0.561-0.969-0.803-2.026-0.749-3.174c0.022-0.103,0.026-0.204,0.051-0.263
			c0.045-0.1,0.064-0.163,0.045-0.199c0.025-0.046,0.04-0.059,0.025-0.059v-0.044c0.173-0.94,0.599-1.734,1.251-2.4
			c0.315-0.396,0.809-0.823,1.452-1.267c0.619-0.442,1.202-0.786,1.712-1.037l0.945-0.433l2.298-0.001
			c4.162-0.006,8.323,0.009,12.504,0.023l2.728,0.009L199.769,434.648z"/>
		<path fill="#E76500" d="M199.916,444.269c0.102-0.058,0.186-0.074,0.288-0.091c0.162-0.036,0.342-0.067,0.568-0.104
			c0.436-0.348,0.868-0.698,1.304-1.026c19.257-3.831,35.401-3.403,48.434,1.243c5.826,2.094,10.262,4.863,13.301,8.336
			c2.705,3.099,3.847,6.286,3.462,9.565c-0.457,3.402-2.493,6.345-6.112,8.868c-2.253,1.562-4.919,2.847-8.019,3.857
			c1.257-1.472,2.083-3.244,2.455-5.353c0.595-3.27-0.097-6.244-2.088-8.912c-2.182-3.006-5.515-4.888-9.956-5.662
			c3.012,1.151,5.291,3.062,6.846,5.721c1.465,2.53,2.046,5.175,1.718,7.971c-0.34,2.899-1.546,5.225-3.626,6.991
			c-0.271,0.255-0.581,0.465-0.893,0.675c-1.178,0.229-2.393,0.453-3.673,0.63c-18.201,2.531-41.759-1.005-70.63-10.578
			c0.209,0.067,0.437-2.128,0.684-6.602c0.247-4.478,1.082-8.893,2.477-13.271h0.017l0.005-0.019c0.205-0.7,0.406-1.364,0.571-2.021
			c0-0.02,0-0.061,0.023-0.101c6.927,0.004,13.874,0.033,20.88,0.04c0.287-0.012,0.566-0.004,0.828-0.013
			c0.184-0.015,0.366-0.008,0.544-0.023c0.045-0.018,0.088-0.036,0.12-0.016C199.612,444.342,199.772,444.303,199.916,444.269"/>
		<path fill="#E76500" d="M197.908,434.124l-2.728-0.009c-4.181-0.015-8.342-0.033-12.504-0.024l-2.298,0.002
			c0.106-0.098,0.166-0.174,0.232-0.273c1.129-1.843,1.658-3.846,1.609-6.047l1.011-0.025c4.304-0.143,8.632-0.263,12.955-0.361
			l4.024-0.112c-0.339,2.269-1.075,4.426-2.176,6.494C197.976,433.867,197.93,433.98,197.908,434.124"/>
		<path fill="#E32126" d="M160.752,391.089c0.265-0.521,0.533-1.041,0.817-1.518c-7.16-2.202-14.317-4.365-21.521-6.53
			c-0.28,0.479-0.567,0.952-0.855,1.451c-4.002,6.573-7.743,13.814-11.225,21.719c-0.096-0.045-0.193-0.078-0.294-0.085
			c-1.599-0.429-3.235-0.111-4.968,0.962l-0.019-0.003l-0.002,0.021c-1.476,0.933-2.565,2.267-3.244,3.957
			c-0.533,1.727-0.503,3.342,0.148,4.854c0.729,1.718,1.902,2.772,3.541,3.141l0.021,0.002c0.16,0.015,0.297,0.051,0.396,0.1
			c-0.03,0.096-0.04,0.179-0.065,0.273c-0.197,0.385-0.379,0.795-0.54,1.241c-0.268,0.763-0.521,1.547-0.754,2.312
			c0,0.019,0,0.019,0.024,0.042c-0.116,0.335-0.227,0.644-0.315,0.978c-0.091,0.377-0.153,0.775-0.163,1.157
			c-0.011,0.3-0.072,0.555-0.219,0.808c-0.057-0.048-0.109-0.094-0.164-0.16c-0.009,0.062-0.009,0.102-0.02,0.162
			c-1.437-0.109-2.755,0.395-3.95,1.535h-0.018v0.019c-1.174,1.122-1.824,2.598-1.956,4.419c-0.085,1.808,0.393,3.461,1.449,4.95
			c0.018-0.021,0.035,0.004,0.018,0.018c1.159,1.661,2.586,2.576,4.284,2.795c-0.004,0.236,0.051,0.507,0.168,0.778l3.177,0.288
			c-0.115-0.716-0.168-1.445-0.186-2.189l-1.207-0.256c-0.778-0.252-1.543-0.744-2.305-1.436c-0.377-0.339-0.68-0.711-0.949-1.112
			c-0.163-0.161-0.31-0.337-0.453-0.552v-0.018c-0.591-0.819-0.867-1.732-0.795-2.752c0.019-0.425,0.093-0.8,0.204-1.172
			c0.432-0.949,1.067-1.72,1.903-2.287c1.096-0.748,2.299-1.084,3.598-1.001c0.021,0,0.06,0.004,0.1,0.007
			c0.031-0.094,0.035-0.161,0.041-0.221c0.097-0.152,0.189-0.302,0.267-0.477c-0.283-0.854-0.276-1.84,0.004-2.922
			c0.335-1.262,0.767-2.475,1.302-3.652c0.223-0.467,0.479-0.867,0.812-1.177c0.088-0.375,0.186-0.731,0.278-1.104
			c-0.021,0-0.077-0.006-0.138-0.013c-1.286-0.258-2.396-0.921-3.288-1.99c-0.82-0.98-1.238-2.13-1.305-3.428
			c0.057-0.376,0.134-0.754,0.209-1.13c0.211-0.581,0.498-1.061,0.835-1.454c0.368-0.311,0.762-0.613,1.146-0.884
			c0.562-0.413,1.194-0.699,1.875-0.854c1.396-0.318,2.735-0.378,4.009-0.164c0.021-0.036,0.021-0.06,0.041-0.058
			c3.273-7.864,6.869-15.035,10.81-21.554c5.234,1.605,10.431,3.186,15.589,4.764c-3.672,6.737-6.894,13.824-9.687,21.232
			c-0.001,0.023-0.001,0.023-0.001,0.04c0.857,0.744,1.474,1.707,1.876,2.893c0.16,0.597,0.205,1.248,0.127,1.928
			c-0.249,1.329-0.876,2.479-1.868,3.458c-0.817,0.749-1.789,1.289-2.89,1.592c-0.037-0.002-0.079-0.01-0.118,0.009
			c-0.043-0.024-0.08-0.048-0.116-0.072c-0.022,0.019-0.042,0.038-0.067,0.054c-0.193,0.148-0.347,0.314-0.506,0.501
			c-0.341,0.394-0.624,0.852-0.811,1.397c-0.404,1.071-0.685,2.172-0.894,3.327c-0.125,0.73-0.148,1.437-0.092,2.145
			c-0.02,0.021-0.02,0.021-0.023,0.04c-0.017,0.16-0.025,0.317-0.043,0.481l-0.006,0.061l0.023,0.001
			c0.097,0.03,0.234,0.043,0.369,0.072c1.295,0.422,2.29,1.278,2.979,2.57c0.55,0.995,0.778,2.047,0.676,3.187
			c-0.057,0.135-0.093,0.332-0.093,0.575c-0.237,1.288-0.835,2.323-1.777,3.123c-0.065,0.054-0.149,0.13-0.233,0.184l-1.705,0.792
			c-0.051,0.357-0.088,0.716-0.1,1.075l3.716,0.342c0.527-0.252,1.047-0.612,1.531-1.112c-0.014-0.02,0.005-0.042,0.022-0.018
			c1.096-1.171,1.7-2.667,1.802-4.493c0.064-1.83-0.392-3.484-1.343-4.962c-0.657-1.001-1.456-1.744-2.361-2.209
			c0-0.019,0-0.019,0.006-0.04c-0.062-0.025-0.094-0.067-0.132-0.114c-0.019-0.02-0.013-0.038-0.034-0.062
			c-0.006-0.16,0.011-0.319,0.021-0.46c-0.021-0.224,0.004-0.464,0.045-0.721c0.147-0.713,0.331-1.402,0.568-2.046
			c0.293-0.8,0.729-1.406,1.318-1.838c0-0.017,0.001-0.037,0.001-0.058c0.688-0.199,1.34-0.526,2.007-0.987
			c1.397-0.981,2.409-2.344,2.988-4.086c0.578-1.695,0.567-3.309-0.006-4.815c-0.348-0.837-0.81-1.505-1.366-1.998
			C153.625,405.18,156.957,397.98,160.752,391.089"/>
		<path fill="#E32126" d="M71.442,454.38c-5.977,2.578-10.479,5.959-13.504,10.142c-3.062,4.217-4.26,8.543-3.593,12.978
			l-0.002,0.021c0.575,4.544,3.04,8.461,7.38,11.715l0.019,0.005c4.397,3.32,10.31,5.49,17.76,6.509l0.014,0.002
			c17.58,2.422,40.122-1.859,67.597-12.889c0.343-0.054,0.634-0.39,0.84-1.014c0.029,0.062,0.063,0.125,0.122,0.193
			c0.497-1.47,0.843-3.956,1.059-7.443v-0.023c0.077-1.504,0.109-2.951,0.116-4.382c-0.02-3.591-0.276-6.957-0.773-10.13
			c0,0,0.02,0.004,0.042-0.016c-0.059-0.228-0.101-0.434-0.106-0.613c0.112-0.073,0.215-0.141,0.318-0.217
			c0.327-0.229,0.634-0.503,0.925-0.818c-0.016-0.023,0-0.042,0.021-0.019c0.956-1.184,1.395-2.679,1.319-4.501
			c-0.182-1.809-0.819-3.438-1.938-4.889c-0.653-0.766-1.328-1.353-2.01-1.796c-0.496-0.126-0.843-0.482-1.093-1.088
			c-0.261-0.671-0.463-1.354-0.622-2.031c-0.069-0.309-0.063-0.612,0-0.868c-0.012-0.122-0.024-0.244-0.031-0.388
			c0.109-0.05,0.232-0.078,0.336-0.127l-3.716-0.342c-0.1,1.767,0.214,3.468,0.948,5.091c0.05,0.103,0.106,0.188,0.194,0.295
			l0.879,0.548c0.474,0.302,1.003,0.714,1.562,1.23c0.577,0.515,1.017,0.999,1.28,1.427c0.557,0.735,0.885,1.571,0.938,2.523
			c0,0.018,0,0.018-0.003,0.037c-0.02,0,0,0.018,0.014,0.064c-0.023,0.036-0.011,0.099,0.025,0.204
			c0.013,0.059,0.006,0.16,0.013,0.263c-0.082,1.141-0.459,2.152-1.121,3.041c-0.431,0.526-0.952,0.943-1.585,1.228
			c0.02,0.042,0.014,0.083,0.009,0.104c0.016,0.101,0.04,0.226,0.053,0.326c0.072,0.551,0.16,1.143,0.271,1.737l-0.004,0.019
			l0.016,0.004c0.483,2.52,0.771,5.026,0.89,7.54c0.087,1.96,0.052,3.912-0.068,5.857c-0.123,1.822-0.197,3.288-0.232,4.354
			c-0.093-0.112-0.185-0.218-0.27-0.328c0.032,0.286,0.048,0.528,0.095,0.736c0.076,0.67,0.165,0.985,0.252,0.95
			c-26.925,10.818-49.018,15.061-66.272,12.749c-1.19-0.171-2.34-0.377-3.466-0.62c-0.307-0.207-0.584-0.455-0.868-0.702
			c-2.006-1.835-3.213-4.306-3.619-7.384c-0.418-2.962,0.044-5.822,1.357-8.547c1.374-2.877,3.473-4.945,6.272-6.243
			c-4.179,0.908-7.249,2.992-9.219,6.26c-1.772,2.883-2.34,6.073-1.667,9.544c0.42,2.233,1.233,4.104,2.49,5.648
			c-2.979-1.014-5.537-2.317-7.706-3.944c-3.488-2.616-5.508-5.722-6.047-9.341c-0.468-3.487,0.505-6.926,2.971-10.272
			c2.761-3.762,6.847-6.813,12.262-9.167c9.35-4.008,20.521-5.388,33.508-4.11l16.881,2.199l0.145-0.088
			c-0.643-0.259-1.151-0.653-1.546-1.191c-0.126-0.151-0.229-0.322-0.335-0.475c-0.158-0.273-0.29-0.591-0.402-0.924l-0.018-0.019
			c-0.104-0.374-0.214-0.767-0.3-1.156c-0.106-0.596-0.132-1.18-0.103-1.746c0.014-0.301,0.055-0.597,0.125-0.896
			c0.03-0.156,0.068-0.317,0.102-0.454c0.32-1.12,1-1.901,2.023-2.356c0.403-0.184,0.797-0.351,1.213-0.455l1.899-0.288
			c-0.003-0.144-0.03-0.265-0.082-0.369c-0.572-1.486-0.966-2.973-1.171-4.482l-3.177-0.29c0.023,0.023,0.023,0.023,0.016,0.044
			c0.013,0.083,0.027,0.162,0.038,0.243c0.1,0.633,0.229,1.252,0.377,1.871c0.088,0.35,0.199,0.663,0.336,0.956
			c-1.408-0.047-2.59,0.514-3.561,1.65h-0.021l0.021,0.022c-0.429,0.504-0.764,1.077-0.983,1.725
			c-0.128,0.332-0.222,0.664-0.271,1.024c-0.071,0.959-0.019,1.915,0.204,2.839c0.055,0.249,0.112,0.497,0.193,0.767
			c-0.535-0.15-1.228-0.275-2.126-0.377c-0.896-0.141-1.748-0.26-2.545-0.39c-0.79-0.135-1.407-0.229-1.846-0.288l-0.006,0.013
			C95.533,448.382,82.291,449.638,71.442,454.38"/>
		<path fill="#E17C9E" d="M126.452,408.699c-0.681,0.155-1.313,0.441-1.875,0.854c-0.385,0.271-0.778,0.573-1.146,0.884
			c-0.337,0.394-0.624,0.873-0.835,1.454c-0.075,0.376-0.152,0.754-0.208,1.13c0.065,1.298,0.483,2.447,1.304,3.428
			c0.892,1.069,2.002,1.733,3.288,1.99c0.061,0.007,0.116,0.013,0.138,0.013c0.062-0.014,0.1-0.011,0.12,0.012
			c5.672,1.46,11.309,2.9,16.919,4.356c0.025-0.016,0.044-0.035,0.067-0.05c0.036,0.021,0.073,0.044,0.116,0.068
			c0.039-0.019,0.081-0.011,0.121-0.009c1.1-0.303,2.069-0.843,2.887-1.594c0.992-0.977,1.619-2.127,1.868-3.456
			c0.078-0.68,0.033-1.331-0.127-1.928c-0.396-1.186-1.019-2.148-1.876-2.893c0-0.017,0-0.017,0.001-0.04
			c-5.554-1.453-11.147-2.908-16.753-4.385C129.188,408.321,127.849,408.381,126.452,408.699"/>
		<path fill="#E76500" d="M127.237,418.464c-0.021-0.022-0.058-0.025-0.12-0.012c-0.094,0.373-0.189,0.729-0.281,1.104
			c-0.33,0.31-0.586,0.71-0.809,1.177c-0.535,1.178-0.967,2.391-1.302,3.652c-0.282,1.082-0.287,2.065-0.004,2.92
			c-0.077,0.177-0.17,0.326-0.265,0.479c-0.008,0.06-0.012,0.125-0.043,0.221c0.083-0.012,0.125,0.009,0.14,0.03
			c0.039,0.022,0.081,0.03,0.115,0.055c5.731,0.861,11.438,1.742,17.119,2.622c0.018-0.164,0.026-0.321,0.043-0.481
			c0.004-0.019,0.004-0.019,0.023-0.04c-0.057-0.708-0.034-1.414,0.092-2.145c0.209-1.155,0.489-2.256,0.894-3.327
			c0.187-0.546,0.47-1.005,0.811-1.397c0.159-0.187,0.312-0.353,0.506-0.501C138.546,421.364,132.909,419.924,127.237,418.464"/>
		<path fill="#E76500" d="M130.502,408.478c-0.021-0.002-0.021,0.021-0.044,0.058c5.608,1.477,11.202,2.932,16.756,4.385
			c2.793-7.408,6.015-14.495,9.687-21.232c-5.158-1.578-10.354-3.158-15.589-4.764C137.371,393.44,133.775,400.613,130.502,408.478"
			/>
		<path fill="#E17C9E" d="M141.782,430.772l0.006-0.061c-5.681-0.88-11.388-1.761-17.119-2.622
			c-0.034-0.024-0.076-0.032-0.115-0.055c-0.015-0.021-0.057-0.042-0.14-0.03c-0.036-0.003-0.078-0.007-0.1-0.007
			c-1.299-0.083-2.503,0.252-3.598,1.001c-0.836,0.567-1.472,1.338-1.903,2.287c-0.111,0.372-0.186,0.747-0.204,1.172
			c-0.072,1.02,0.204,1.933,0.795,2.752v0.018c0.144,0.215,0.29,0.391,0.453,0.547c0.27,0.406,0.572,0.778,0.949,1.116
			c0.762,0.692,1.526,1.185,2.305,1.437l1.207,0.256l3.959,0.599c4.26,0.627,8.514,1.276,12.746,1.944l0.997,0.15l1.705-0.794
			c0.084-0.052,0.168-0.128,0.233-0.182c0.944-0.8,1.54-1.835,1.777-3.123c0-0.243,0.041-0.44,0.093-0.575
			c0.101-1.14-0.126-2.191-0.676-3.187c-0.688-1.292-1.684-2.148-2.979-2.57c-0.135-0.029-0.272-0.042-0.369-0.072L141.782,430.772z
			"/>
		<path fill="#E17C9E" d="M123.857,445.912c-0.416,0.104-0.812,0.271-1.213,0.455c-1.023,0.455-1.703,1.236-2.023,2.356
			c-0.033,0.141-0.071,0.298-0.102,0.454c-0.07,0.299-0.114,0.595-0.129,0.896c-0.025,0.566,0,1.15,0.106,1.746
			c0.086,0.39,0.196,0.782,0.3,1.156l0.018,0.019c0.112,0.333,0.244,0.65,0.402,0.924c0.105,0.152,0.209,0.323,0.335,0.475
			c0.395,0.538,0.903,0.933,1.546,1.191l2.195,0.299c1.752,0.216,3.507,0.417,5.262,0.636c4.867,0.585,9.709,1.187,14.512,1.784
			c0.633-0.284,1.155-0.701,1.585-1.228c0.662-0.889,1.039-1.9,1.121-3.041c-0.007-0.103,0-0.204-0.01-0.263
			c-0.039-0.105-0.052-0.168-0.028-0.204c-0.014-0.047-0.033-0.064-0.014-0.064c0.003-0.02,0.003-0.02,0.003-0.037
			c-0.054-0.952-0.382-1.788-0.94-2.526c-0.262-0.425-0.701-0.909-1.278-1.424c-0.56-0.517-1.089-0.929-1.562-1.23l-0.879-0.548
			l-2.269-0.289c-4.11-0.513-8.214-1.007-12.345-1.5l-2.693-0.324L123.857,445.912z"/>
		<path fill="#E76500" d="M123.098,455.584l-0.145,0.088l-16.881-2.199c-12.987-1.277-24.156,0.103-33.508,4.11
			c-5.415,2.354-9.501,5.405-12.262,9.167c-2.466,3.347-3.438,6.785-2.971,10.272c0.539,3.619,2.559,6.725,6.047,9.341
			c2.169,1.627,4.728,2.931,7.706,3.944c-1.257-1.545-2.07-3.415-2.49-5.648c-0.673-3.471-0.104-6.661,1.667-9.544
			c1.97-3.268,5.04-5.352,9.219-6.26c-2.8,1.298-4.898,3.366-6.272,6.243c-1.313,2.725-1.775,5.585-1.357,8.547
			c0.406,3.078,1.613,5.549,3.619,7.384c0.284,0.247,0.562,0.495,0.868,0.701c1.127,0.244,2.275,0.45,3.466,0.621
			c17.255,2.312,39.348-1.934,66.272-12.749c-0.087,0.035-0.176-0.28-0.252-0.95c-0.047-0.208-0.062-0.45-0.095-0.736
			c0.085,0.11,0.177,0.216,0.27,0.328c0.035-1.066,0.109-2.532,0.233-4.354c0.119-1.945,0.154-3.897,0.067-5.861
			c-0.118-2.51-0.408-5.017-0.89-7.536l-0.016-0.004l0.004-0.019c-0.11-0.595-0.198-1.187-0.271-1.737
			c-0.013-0.101-0.037-0.226-0.053-0.326c0.005-0.021,0.011-0.062-0.009-0.104c-4.803-0.598-9.645-1.199-14.512-1.784
			c-1.755-0.219-3.51-0.42-5.262-0.633L123.098,455.584z"/>
		<path fill="#E76500" d="M125.757,445.624l2.694,0.324c4.13,0.493,8.233,0.987,12.344,1.5l2.269,0.289
			c-0.088-0.107-0.145-0.192-0.194-0.295c-0.89-1.957-1.16-4-0.849-6.166l-0.996-0.15c-4.233-0.668-8.487-1.317-12.745-1.944
			l-3.961-0.599c0.056,2.279,0.523,4.498,1.356,6.672C125.727,445.359,125.754,445.48,125.757,445.624"/>
		<polygon fill="#E32126" points="114.297,450.186 114.317,450.186 114.297,450.165 		"/>
		<path fill="#F1B800" d="M155.88,257.022c-0.095,0.121-0.2,0.222-0.306,0.322c-4.914,5.284-10.292,10.049-16.149,14.245
			l0.019-0.009c-1.648,1.199-3.479,2.066-5.506,2.603c-3.65,0.98-7.574,1.082-11.777,0.264l-0.029-0.008
			c-0.402-0.078-0.817-0.173-1.223-0.256c-0.027-0.006-0.051,0.005-0.077-0.006c-0.642-0.151-1.274-0.312-1.888-0.466l-0.019-0.008
			c-4.062-1.097-7.878-2.757-11.461-4.994l0.02-0.011c-1.669-1.04-3.449-1.901-5.319-2.603c-3.65-1.387-7.419-2.16-11.306-2.287
			c-2.56-0.081-5.107,0.033-7.607,0.321c-0.023,0.015-0.038,0.022-0.062,0.017c-10.98,0.905-18.659,6.414-23.036,16.521
			c-0.204,0.469-0.407,0.945-0.611,1.412c-0.051,0.146-0.104,0.307-0.162,0.454c-0.011,0.026-0.011,0.026-0.03,0.033
			c-2.125,5.656-1.896,11.983,0.634,18.96c2.403,6.571,6.431,12.838,12.087,18.828c0.572,0.602,1.163,1.192,1.743,1.767l0.025,0.011
			c2.369,2.431,4.977,4.555,7.832,6.367l0.029,0.008c8.77,5.612,18.218,7.526,28.365,5.757l-0.023-0.008
			c11.248-2.137,21.15-7.318,29.704-15.553c8.855-8.524,15.799-18.344,20.84-29.506c0.013-0.007,0.013-0.007,0.003-0.028
			c2.414-5.084,4.116-9.535,5.105-13.376l0.381-1.498l0.017-0.052l3.102,0.787l-0.397,1.554c-1.007,4.014-2.79,8.666-5.309,13.966
			l0.002-0.028c-5.204,11.53-12.387,21.701-21.525,30.497l0.012-0.01c-8.989,8.692-19.443,14.148-31.339,16.397l-0.019,0.01
			c-10.981,1.925-21.19-0.149-30.654-6.213c-3.066-1.946-5.863-4.213-8.397-6.789c-0.012-0.02-0.012-0.02-0.021-0.034
			c-0.605-0.584-1.203-1.197-1.795-1.833c-5.989-6.312-10.242-12.954-12.775-19.934c-2.841-7.813-3.034-14.882-0.622-21.188
			c0.097-0.207,0.179-0.392,0.236-0.58l0.011-0.026c0.201-0.477,0.404-0.946,0.608-1.416c4.869-11.301,13.451-17.457,25.722-18.456
			l-0.062,0.009c2.667-0.317,5.378-0.424,8.088-0.353l0.013,0.015c4.258,0.153,8.375,0.968,12.342,2.481
			c2.055,0.782,3.994,1.744,5.857,2.884c3.305,2.066,6.831,3.61,10.578,4.625c0.006,0.019,0.006,0.019,0.022,0.01
			c0.581,0.142,1.153,0.29,1.724,0.416c0.028,0.011,0.05,0.016,0.081,0.026c0.403,0.078,0.809,0.154,1.216,0.232l-0.022,0.012
			c3.687,0.731,7.145,0.653,10.332-0.212c1.653-0.431,3.139-1.133,4.468-2.091l-0.01-0.022c5.803-4.173,11.14-8.884,15.981-14.131
			l1.075-1.169l2.366,2.164L155.88,257.022z"/>
		<path fill="#FCDF00" d="M166.074,274.297l-0.381,1.495c-0.989,3.844-2.691,8.295-5.105,13.379c0.01,0.021,0.01,0.021-0.003,0.028
			c-5.041,11.162-11.984,20.978-20.84,29.506c-8.554,8.234-18.456,13.416-29.704,15.553l0.023,0.008
			c-10.147,1.77-19.596-0.145-28.365-5.757l-0.029-0.008c-2.855-1.813-5.463-3.937-7.832-6.367l-0.025-0.011
			c-0.58-0.574-1.171-1.17-1.743-1.77c-5.656-5.987-9.684-12.254-12.087-18.825c-2.529-6.977-2.759-13.304-0.634-18.96
			c0.02-0.007,0.02-0.007,0.029-0.033c0.06-0.147,0.112-0.308,0.163-0.454c0.204-0.471,0.407-0.943,0.611-1.414
			c4.377-10.105,12.055-15.614,23.036-16.521c0.024,0.008,0.039,0,0.062-0.015c2.5-0.288,5.048-0.402,7.607-0.321
			c3.887,0.127,7.655,0.9,11.306,2.287c1.87,0.701,3.65,1.562,5.319,2.602l-0.02,0.012c3.583,2.237,7.399,3.897,11.461,4.994
			l0.019,0.008c0.613,0.154,1.243,0.314,1.888,0.466c0.027,0.011,0.05,0,0.077,0.006c0.405,0.08,0.819,0.178,1.223,0.256
			l0.029,0.008c4.203,0.818,8.127,0.717,11.777-0.264c2.027-0.536,3.857-1.403,5.506-2.603l-0.019,0.009
			c5.857-4.196,11.235-8.961,16.149-14.245L166.074,274.297z"/>
		<path fill="#F1B800" d="M220.679,251.863c0.102,0.113,0.209,0.209,0.321,0.303c5.185,4.942,10.791,9.337,16.848,13.152
			l-0.019-0.01c1.706,1.094,3.572,1.84,5.612,2.251c3.673,0.756,7.568,0.617,11.679-0.438l0.031-0.011
			c0.393-0.104,0.801-0.224,1.195-0.32c0.029-0.011,0.048-0.005,0.067-0.014c0.641-0.19,1.254-0.389,1.848-0.573l0.021-0.014
			c3.959-1.329,7.635-3.201,11.054-5.628l-0.02-0.01c1.587-1.126,3.306-2.089,5.12-2.895c3.525-1.59,7.22-2.582,11.057-2.938
			c2.537-0.233,5.068-0.272,7.559-0.13c0.021,0.009,0.039,0.017,0.069,0.009c10.929,0.237,18.858,5.246,23.798,14.996
			c0.229,0.454,0.458,0.909,0.685,1.363c0.069,0.139,0.123,0.3,0.191,0.437c0.011,0.028,0.011,0.028,0.027,0.037
			c2.447,5.478,2.597,11.756,0.508,18.82c-1.99,6.652-5.609,13.095-10.858,19.367c-0.529,0.629-1.078,1.253-1.618,1.855l-0.028,0.01
			c-2.198,2.549-4.658,4.811-7.381,6.772l-0.027,0.009c-8.353,6.088-17.598,8.548-27.757,7.393l0.024-0.009
			c-11.272-1.448-21.383-5.991-30.356-13.639c-9.276-7.92-16.737-17.232-22.396-27.994c-0.014-0.008-0.014-0.008-0.009-0.026
			c-2.689-4.891-4.645-9.199-5.853-12.946l-0.46-1.461l-0.02-0.053l-3.031,0.969l0.486,1.513c1.24,3.916,3.281,8.422,6.092,13.517
			l-0.01-0.024c5.851,11.107,13.568,20.762,23.148,28.931l-0.019-0.009c9.429,8.077,20.109,12.861,32.024,14.384l0.019,0.007
			c10.991,1.25,20.986-1.41,30-7.981c2.917-2.108,5.559-4.524,7.917-7.224c0.005-0.02,0.005-0.02,0.018-0.034
			c0.562-0.616,1.119-1.256,1.667-1.924c5.558-6.604,9.379-13.444,11.467-20.506c2.351-7.906,2.12-14.925-0.644-21.027
			c-0.106-0.206-0.203-0.381-0.271-0.561l-0.008-0.025c-0.227-0.458-0.458-0.91-0.684-1.365
			c-5.501-10.909-14.364-16.495-26.58-16.754l0.063,0.003c-2.665-0.154-5.361-0.1-8.045,0.129l-0.006,0.016
			c-4.213,0.405-8.24,1.46-12.074,3.194c-1.992,0.901-3.856,1.965-5.634,3.207c-3.147,2.245-6.555,3.979-10.201,5.212
			c-0.008,0.016-0.008,0.016-0.026,0.007c-0.566,0.182-1.126,0.355-1.685,0.518c-0.02,0.01-0.049,0.021-0.073,0.028
			c-0.399,0.106-0.797,0.204-1.191,0.305l0.018,0.011c-3.605,0.946-7.037,1.072-10.245,0.402c-1.668-0.326-3.179-0.938-4.55-1.807
			l0.006-0.02c-5.994-3.785-11.561-8.139-16.67-13.05l-1.138-1.09l-2.21,2.282L220.679,251.863z"/>
		<path fill="#FCDF00" d="M211.611,269.583l0.46,1.461c1.208,3.747,3.163,8.056,5.853,12.946c-0.005,0.019-0.005,0.019,0.009,0.026
			c5.659,10.762,13.12,20.074,22.396,27.994c8.974,7.647,19.084,12.19,30.356,13.637l-0.024,0.011
			c10.159,1.155,19.404-1.305,27.757-7.393l0.027-0.009c2.723-1.962,5.183-4.224,7.381-6.772l0.028-0.01
			c0.54-0.603,1.089-1.227,1.618-1.855c5.249-6.272,8.868-12.715,10.858-19.367c2.089-7.064,1.939-13.343-0.508-18.82
			c-0.017-0.011-0.017-0.011-0.027-0.037c-0.068-0.143-0.122-0.298-0.191-0.437c-0.227-0.454-0.455-0.909-0.685-1.363
			c-4.939-9.75-12.869-14.759-23.798-14.996c-0.03,0.008-0.048,0-0.069-0.009c-2.49-0.143-5.021-0.104-7.559,0.13
			c-3.832,0.355-7.531,1.348-11.057,2.938c-1.814,0.806-3.533,1.769-5.12,2.895l0.02,0.008c-3.419,2.429-7.095,4.301-11.054,5.631
			l-0.021,0.013c-0.594,0.185-1.207,0.383-1.848,0.573c-0.02,0.009-0.038,0.003-0.067,0.012c-0.395,0.098-0.803,0.219-1.195,0.322
			l-0.031,0.011c-4.11,1.056-8.006,1.194-11.679,0.438c-2.04-0.412-3.906-1.157-5.612-2.251l0.019,0.01
			c-6.057-3.819-11.663-8.21-16.848-13.152L211.611,269.583z"/>
		<path fill="#FCDF00" d="M49.184,278.979c6.159,4.416,10.955,5.892,14.351,4.461c5.62-2.361,8.755-7.729,9.412-16.086
			c0.184-2.275,0.306-5.744,0.339-10.406c0.147-4.022,0.594-7.114,1.352-9.265c1.566-4.492,2.381-7.005,2.44-7.509
			c0.299-2.991-1.344-4.354-4.958-4.066c-2.223,0.179-4.548,1.778-6.956,4.815c-1.286,1.632-2.883,4.18-4.804,7.606
			c-1.092-1.823-2.659-4.667-4.662-8.526c-2.014-3.164-4.504-5.177-7.477-6.05c-3.606-0.531-5.725,2.02-6.366,7.705
			c-0.553,4.953-0.015,9.757,1.604,14.39c-0.858-1.698-3.149-3.329-6.824-4.905c-3.774-1.668-6.518-2.1-8.261-1.302
			c-3.799,1.727-3.742,5.213,0.184,10.462c2.732,3.61,6.31,7.074,10.744,10.361C42.733,273.893,46.03,276.656,49.184,278.979"/>
		<path fill="none" stroke="#F1B800" stroke-width="3.1529" stroke-miterlimit="10" d="M49.184,278.979
			c-3.153-2.322-6.45-5.086-9.882-8.314c-4.435-3.289-8.012-6.751-10.744-10.361c-3.926-5.249-3.982-8.74-0.184-10.462
			c1.743-0.798,4.486-0.366,8.261,1.302c3.675,1.576,5.966,3.207,6.824,4.905c-1.619-4.633-2.157-9.437-1.604-14.39
			c0.642-5.686,2.76-8.236,6.366-7.705c2.973,0.873,5.463,2.886,7.477,6.05c2.003,3.859,3.57,6.703,4.662,8.526
			c1.921-3.427,3.518-5.976,4.804-7.606c2.408-3.037,4.733-4.637,6.956-4.815c3.614-0.288,5.257,1.075,4.958,4.066
			c-0.06,0.504-0.874,3.017-2.44,7.509c-0.758,2.15-1.204,5.242-1.352,9.265c-0.033,4.662-0.155,8.131-0.339,10.406
			c-0.657,8.357-3.792,13.725-9.412,16.086C60.139,284.87,55.343,283.394,49.184,278.979z"/>
		<path fill="#F1B800" d="M219.007,237.562c-0.812-3.685-4.306-6.233-10.517-7.639c-6.012-1.37-14.033-1.553-24.045-0.519
			c-2.858,0.305-6.082,2.247-9.66,5.866c-3.251,3.27-7.326,8.467-12.255,15.62c-6.245,9.104-19.227,29.045-38.917,59.805
			c-8.462,12.792-13.258,24.975-14.354,36.52c-1.017,10.482,0.989,20.07,6.045,28.747c4.622,7.952,11.452,14.666,20.482,20.105
			c8.535,5.161,18.14,8.732,28.849,10.688c10.64,1.929,21.031,2.025,31.162,0.32c10.656-1.765,19.815-5.358,27.478-10.774
			c8.367-5.862,14.271-13.445,17.744-22.737c3.826-10.261,4.467-22.114,1.938-35.561c-5.59-29.712-10.839-53.464-15.766-71.282
			C222.992,253.129,220.274,243.417,219.007,237.562"/>
		<path fill="none" stroke="#F1B800" stroke-width="6.0554" stroke-miterlimit="10" d="M208.49,229.926
			c-6.012-1.371-14.033-1.551-24.045-0.521c-2.858,0.305-6.082,2.247-9.66,5.865c-3.251,3.271-7.326,8.468-12.255,15.621
			c-6.245,9.104-19.227,29.045-38.917,59.805c-8.462,12.792-13.258,24.975-14.354,36.524c-1.017,10.478,0.989,20.065,6.045,28.746
			c4.622,7.948,11.452,14.662,20.482,20.102c8.535,5.161,18.14,8.732,28.849,10.688c10.64,1.929,21.031,2.025,31.162,0.32
			c10.656-1.765,19.815-5.358,27.478-10.774c8.367-5.862,14.271-13.445,17.744-22.737c3.826-10.261,4.467-22.114,1.938-35.561
			c-5.59-29.712-10.839-53.464-15.766-71.282c-4.199-13.593-6.917-23.305-8.185-29.159
			C218.194,233.878,214.701,231.33,208.49,229.926z"/>
		<path fill="#FCDF00" d="M242.957,338.004c-5.59-29.712-10.839-53.464-15.766-71.282c-1.609-5.236-3.016-9.904-4.194-13.98
			c-19.783-12.465-31.059-24.72-33.853-36.74l-15.461,20.416c-3.047,3.281-6.772,8.105-11.153,14.475
			c-6.245,9.104-19.227,29.045-38.917,59.805c-8.462,12.792-13.258,24.975-14.354,36.52c-1.017,10.482,0.989,20.07,6.043,28.747
			c4.624,7.952,11.454,14.666,20.484,20.105c8.535,5.161,18.14,8.732,28.849,10.688c10.64,1.929,21.031,2.024,31.162,0.317
			c10.656-1.762,19.815-5.355,27.478-10.771c8.367-5.862,14.271-13.445,17.744-22.737
			C244.845,363.304,245.485,351.45,242.957,338.004"/>
		<path fill="#F1B800" d="M282.076,112.287c-5.939-11.24-14.023-21.04-24.254-29.442c-10.188-8.361-21.698-14.619-34.548-18.812
			c-13.29-4.331-27.048-6.14-41.3-5.402c-14.251,0.735-27.734,3.951-40.454,9.628c-12.355,5.498-23.182,12.91-32.454,22.277
			c-9.307,9.41-16.336,19.995-21.065,31.786c-4.955,12.271-7.098,24.955-6.418,38.083c1.693,32.789,13.385,56.953,35.073,72.502
			c18.955,13.833,44.043,19.955,75.276,18.341c14.574-0.756,28.016-3.464,40.337-8.114h0.021
			c12.709-4.831,23.591-11.48,32.65-19.932c19.863-18.459,29.013-43.039,27.428-73.695
			C291.689,136.378,288.264,123.979,282.076,112.287 M255.774,85.351c9.875,8.093,17.702,17.587,23.437,28.457
			c5.968,11.281,9.289,23.223,9.94,35.865c1.532,29.611-7.256,53.32-26.392,71.188c-8.792,8.173-19.318,14.579-31.634,19.269
			c-12.019,4.532-25.147,7.167-39.359,7.899c-30.37,1.572-54.785-4.341-73.233-17.718c-20.847-15.044-32.1-38.409-33.734-70.069
			c-0.652-12.645,1.415-24.865,6.182-36.704c4.591-11.399,11.397-21.648,20.404-30.722c8.98-9.091,19.45-16.305,31.434-21.619
			c12.369-5.518,25.474-8.633,39.322-9.352c13.849-0.716,27.225,1.032,40.136,5.243C234.722,71.14,245.903,77.231,255.774,85.351"/>
		<path fill="#FCDF00" d="M279.211,113.808c-5.734-10.869-13.562-20.363-23.437-28.457c-9.871-8.117-21.053-14.211-33.498-18.264
			c-12.911-4.211-26.287-5.958-40.136-5.242c-13.849,0.72-26.953,3.834-39.322,9.354c-11.983,5.314-22.453,12.527-31.434,21.616
			c-9.003,9.073-15.813,19.325-20.404,30.725c-4.767,11.837-6.834,24.056-6.182,36.702c1.635,31.658,12.888,55.025,33.734,70.069
			c18.448,13.377,42.863,19.29,73.233,17.718c14.212-0.732,27.341-3.367,39.359-7.899c12.315-4.689,22.842-11.096,31.634-19.273
			c19.136-17.858,27.924-41.571,26.392-71.183C288.5,137.028,285.179,125.089,279.211,113.808"/>
		<path fill="#E17C9E" d="M138.238,137.689c5.298-4.771,11.125-8.174,17.529-10.26c6.203-2.032,12.236-2.628,18.09-1.741
			c-2.805-1.568-5.727-2.748-8.808-3.494c-4.432-1.083-8.872-1.275-13.33-0.561c-4.459,0.693-8.614,2.216-12.501,4.594
			c-6.173,3.789-10.696,9-13.585,15.66c-2.804,6.514-3.565,13.246-2.255,20.189c1.06-4.426,2.829-8.711,5.3-12.846
			C131.217,144.966,134.402,141.114,138.238,137.689"/>
		<path fill="#0077BE" d="M155.768,127.43c-6.404,2.086-12.231,5.488-17.529,10.26c-3.836,3.425-7.021,7.276-9.56,11.542
			c-2.471,4.135-4.24,8.42-5.3,12.846c0.837,4.174,2.285,7.989,4.374,11.424l1.752,2.611c-0.098-5.396,1.1-10.758,3.562-16.107
			c2.533-5.55,6.167-10.475,10.924-14.754c6.373-5.75,13.482-9.361,21.329-10.816c7.663-1.443,14.508-0.527,20.538,2.727
			c-3.095-4.9-7.104-8.725-12.001-11.473C168.004,124.804,161.971,125.397,155.768,127.43"/>
		<path fill="#FFFFFF" d="M185.858,137.161c-6.029-3.252-12.873-4.17-20.538-2.727c-7.847,1.451-14.956,5.066-21.328,10.816
			c-4.758,4.277-8.392,9.201-10.925,14.754c-2.463,5.348-3.66,10.711-3.562,16.107c2.403,3.242,5.243,5.958,8.564,8.184
			c3.342,2.229,6.972,3.813,10.89,4.762c4.429,1.08,8.872,1.271,13.287,0.559c4.465-0.693,8.635-2.241,12.539-4.639
			c8.049-4.93,13.188-12.008,15.43-21.232c2.245-9.252,0.909-17.929-4.007-26.035L185.858,137.161z"/>
		<path fill="#E17C9E" d="M233.666,132.714c-5.763-4.201-11.912-6.986-18.492-8.398c-6.381-1.386-12.447-1.352-18.178,0.133
			c2.629-1.85,5.419-3.32,8.401-4.383c4.295-1.535,8.695-2.184,13.206-1.933c4.504,0.229,8.794,1.319,12.909,3.284
			c6.526,3.129,11.569,7.846,15.125,14.172c3.46,6.189,4.908,12.807,4.326,19.852c-1.514-4.296-3.718-8.373-6.595-12.234
			C241.401,139.226,237.832,135.722,233.666,132.714"/>
		<path fill="#0077BE" d="M215.174,124.315c6.58,1.412,12.729,4.197,18.492,8.398c4.166,3.009,7.735,6.512,10.703,10.492
			c2.877,3.861,5.081,7.938,6.595,12.235c-0.404,4.233-1.449,8.175-3.175,11.815l-1.471,2.775
			c-0.463-5.381-2.203-10.592-5.204-15.656c-3.093-5.26-7.219-9.782-12.389-13.547c-6.933-5.063-14.376-7.924-22.335-8.561
			c-7.771-0.646-14.479,0.971-20.145,4.83c2.571-5.191,6.161-9.41,10.753-12.65C202.727,122.964,208.793,122.933,215.174,124.315"/>
		<path fill="#FFFFFF" d="M186.246,137.099c5.665-3.859,12.373-5.477,20.145-4.834c7.959,0.641,15.402,3.501,22.335,8.564
			c5.17,3.765,9.296,8.287,12.388,13.547c3.002,5.064,4.742,10.275,5.205,15.652c-2.057,3.476-4.603,6.47-7.675,9.023
			c-3.098,2.562-6.542,4.514-10.342,5.857c-4.295,1.533-8.695,2.186-13.163,1.934c-4.506-0.232-8.816-1.342-12.949-3.324
			c-8.512-4.075-14.353-10.584-17.539-19.529c-3.184-8.969-2.748-17.738,1.303-26.312L186.246,137.099z"/>
		<path fill="#1B1616" d="M160.54,153.347c-2.134,2.368-3.12,5.141-2.959,8.297c0.167,3.196,1.433,5.83,3.8,7.945
			c2.37,2.137,5.139,3.125,8.299,2.96c3.193-0.169,5.826-1.433,7.942-3.798c2.135-2.348,3.127-5.099,2.961-8.297
			c-0.164-3.156-1.436-5.811-3.801-7.944c-2.344-2.138-5.098-3.126-8.297-2.962C165.335,149.712,162.674,150.983,160.54,153.347"/>
		<path fill="#1B1616" d="M213.199,150.579c2.364,2.137,3.631,4.791,3.795,7.945c0.168,3.197-0.825,5.949-2.957,8.299
			c-2.135,2.365-4.791,3.631-7.945,3.795c-3.201,0.166-5.953-0.821-8.298-2.955c-2.366-2.117-3.634-4.752-3.798-7.947
			c-0.159-3.154,0.825-5.93,2.96-8.295c2.117-2.369,4.749-3.633,7.944-3.799C208.058,147.458,210.828,148.442,213.199,150.579"/>
		<path fill="#FCDF00" d="M223.12,222.686c1.849-2.805,3.033-5.828,3.562-9.043c1.195-7.433-0.687-12.104-5.635-14.034
			c-1.649-0.647-3.78-1-6.36-1.097c-1.424-0.075-3.197-0.089-5.351-0.063c-3.922-0.197-10.173,0.465-18.778,1.939
			c-0.335,0.059-0.651,0.114-0.968,0.174c-0.318-0.025-0.642-0.053-0.984-0.077c-8.708-0.581-14.992-0.59-18.875,0.009
			c-2.145,0.196-3.911,0.393-5.316,0.609c-2.554,0.363-4.64,0.934-6.214,1.75c-4.727,2.428-6.112,7.268-4.158,14.536
			c0.858,3.147,2.349,6.028,4.477,8.632c1.214,1.51,3.098,3.555,5.628,6.175c2.738,3.22,7.25,9.435,13.493,18.666
			c5.752,7.453,10.742,10.808,14.93,10.021c0.036,0,0.077-0.003,0.136-0.026c0.062,0.019,0.102,0.016,0.142,0.016
			c4.246,0.348,8.858-3.503,13.813-11.507c5.261-9.825,9.106-16.474,11.499-19.955C220.403,226.54,222.067,224.314,223.12,222.686"
			/>
		<path fill="none" stroke="#F1B800" stroke-width="3.274" stroke-miterlimit="10" d="M189.59,200.56
			c0.316-0.058,0.633-0.115,0.968-0.174c8.605-1.473,14.856-2.135,18.778-1.934c2.153-0.029,3.927-0.018,5.351,0.059
			c2.578,0.098,4.711,0.45,6.36,1.098c4.948,1.93,6.83,6.6,5.635,14.031c-0.528,3.218-1.713,6.241-3.562,9.043
			c-1.053,1.632-2.717,3.857-4.961,6.728c-2.393,3.481-6.238,10.13-11.499,19.955c-4.955,8.004-9.567,11.854-13.813,11.505
			c-0.04,0-0.08,0.005-0.142-0.014c-0.059,0.023-0.1,0.026-0.136,0.029c-4.188,0.784-9.181-2.571-14.93-10.024
			c-6.243-9.231-10.755-15.445-13.494-18.666c-2.529-2.62-4.413-4.665-5.627-6.176c-2.128-2.599-3.618-5.484-4.477-8.631
			c-1.955-7.269-0.568-12.104,4.158-14.536c1.574-0.812,3.66-1.387,6.214-1.746c1.405-0.221,3.172-0.417,5.316-0.609
			c3.883-0.603,10.167-0.59,18.875-0.01C188.943,200.509,189.271,200.536,189.59,200.56z"/>
		<path fill="#D7272A" d="M191.781,251.324c3.802-0.197,7.031-2.61,9.701-7.243c2.675-4.632,7.025-14.618,13.06-29.947l-24.23,1.021
			l-24.167,1.479c7.577,14.622,13.016,24.146,16.34,28.575C185.55,249.271,188.648,251.318,191.781,251.324"/>
		<path fill="#E17C9E" d="M195.043,226.529c1.13-5.537,1.55-9.362,1.281-11.448l-13.134,0.682c0.106,2.029,1.154,5.714,3.172,11.051
			c2.095,5.455,3.453,8.282,4.105,8.48C192.246,235.769,193.766,232.832,195.043,226.529"/>
		<path fill="#FCDF00" d="M227.454,211.663c3.391-1.891,4.818-5.41,4.289-10.545c-0.563-5.128-2.778-8.539-6.651-10.215
			c-1.962-0.842-5.988-2.369-12.093-4.615c-5.622-2.267-9.641-4.438-12.028-6.555c-3.759-3.332-8.021-5.025-12.796-5.039
			c-0.14,0.006-0.263,0.012-0.383,0.02c-0.057,0.002-0.1,0.004-0.143,0.006l0.003,0.022c-4.752,0.485-8.815,2.59-12.209,6.312
			c-2.157,2.35-5.935,4.922-11.287,7.762c-5.837,2.861-9.694,4.793-11.552,5.836c-3.681,2.064-5.528,5.689-5.568,10.848
			c0.006,5.159,1.791,8.516,5.359,10.043c1.872,0.787,4.653,1.151,8.358,1.102c2.197-0.033,6.004-0.13,11.396-0.266
			c1.93,0.305,4.921,1.232,8.971,2.799c3.006,1.158,6.115,1.618,9.347,1.413c2.962-0.092,5.902-0.892,8.786-2.349
			c3.868-1.975,6.75-3.211,8.637-3.712c5.379-0.423,9.169-0.716,11.359-0.909C222.942,213.286,225.67,212.645,227.454,211.663"/>
		<path fill="none" stroke="#F1B800" stroke-width="3.2206" stroke-miterlimit="10" d="M231.743,201.12
			c-0.563-5.133-2.78-8.543-6.651-10.217c-1.962-0.847-5.988-2.369-12.093-4.615c-5.622-2.27-9.641-4.442-12.028-6.554
			c-3.759-3.333-8.021-5.026-12.796-5.043c-0.14,0.009-0.266,0.015-0.383,0.021c-0.057,0.006-0.1,0.006-0.143,0.011l0.003,0.016
			c-4.752,0.489-8.813,2.597-12.209,6.319c-2.158,2.346-5.934,4.92-11.287,7.758c-5.837,2.861-9.694,4.793-11.552,5.836
			c-3.681,2.064-5.528,5.689-5.568,10.848c0.006,5.158,1.788,8.515,5.359,10.043c1.872,0.788,4.653,1.151,8.358,1.104
			c2.197-0.035,6.004-0.131,11.396-0.264c1.93,0.301,4.921,1.232,8.971,2.795c3.006,1.158,6.115,1.618,9.347,1.413
			c2.962-0.092,5.902-0.892,8.786-2.351c3.869-1.973,6.75-3.209,8.637-3.71c5.379-0.419,9.169-0.714,11.359-0.909
			c3.692-0.334,6.42-0.98,8.204-1.957C230.844,209.772,232.272,206.253,231.743,201.12z"/>
		<path fill="#F1B800" d="M197.386,44.466c2.473-0.573,5.146-0.348,7.995,0.652c-3.962,0.93-7.37,5.16-10.225,12.686
			c-0.588,1.562-1.362,2.931-2.31,4.091c0.259-0.017,0.522-0.03,0.784-0.024c1.773-0.009,3.292,0.113,4.572,0.348
			c0.387-0.725,0.751-1.488,1.068-2.288c0.073-0.167,0.148-0.335,0.199-0.497c3.149-7.701,7.24-12.406,12.289-14.1
			c-6.369-4.327-11.669-5.926-15.926-4.799c-4.278,1.067-7.732,4.066-10.383,8.982l0.006,0.06c-0.382,0.846-0.717,1.648-1.046,2.37
			c-0.265-0.811-0.604-1.602-0.991-2.406c-3.456-7.561-4.078-13.756-1.85-18.588c-7.472,1.656-12.265,4.423-14.384,8.26
			c-1.995,3.59-2.3,7.801-0.921,12.625c-1.39-0.394-2.877-0.635-4.451-0.717c-8.276-0.6-13.984-3.047-17.13-7.318
			c-2.139,7.329-2.054,12.846,0.291,16.573c0.529,0.841,1.134,1.593,1.794,2.286c1.831,1.86,4.22,3.248,7.168,4.143
			c1.797-0.353,5.158-0.809,10.068-1.344v-0.041l4.884-0.255c-0.952-0.454-2.08-0.858-3.388-1.194
			c-1.33-0.312-4.105-0.674-8.338-1.08c-4.155-0.45-7.128-2.191-8.92-5.221c-1.297-2.15-1.893-4.74-1.813-7.769
			c2.098,3.459,7.141,5.417,15.139,5.827c4.163,0.207,7.456,1.854,9.891,4.912c1.228,1.568,1.932,3.105,2.111,4.606
			c0.244,0.091,0.455,0.179,0.618,0.29c0.52-1.658,0.428-3.849-0.26-6.574c-0.369-1.312-1.392-3.922-3.086-7.844
			c-1.61-3.849-1.524-7.298,0.272-10.334c1.282-2.161,3.243-3.938,5.932-5.347c-2.017,3.511-1.294,8.876,2.205,16.114
			c1.823,3.751,1.974,7.435,0.466,11.04c-0.228,0.556-0.505,1.092-0.78,1.573c0.427-0.005,0.784-0.002,1.123,0.018
			c2.063-0.344,4.07-2.061,6.005-5.168c0.725-1.186,1.943-3.726,3.618-7.622c1.691-3.856,4.254-6.163,7.701-6.93V44.466z"/>
		<path fill="#FCDF00" d="M205.379,45.118c-2.848-1.002-5.521-1.228-7.996-0.652c-3.444,0.762-6.007,3.07-7.698,6.926
			c-1.675,3.898-2.894,6.437-3.618,7.628c-1.935,3.103-3.941,4.817-6.005,5.165c-0.038,0.003-0.073,0.006-0.116,0.008
			c-0.34,0.037-0.666,0.053-1.005,0.051c-0.023-0.018-0.023-0.018-0.041-0.018c0.018-0.021,0.018-0.041,0.039-0.062
			c0.275-0.479,0.553-1.016,0.78-1.572c1.508-3.606,1.357-7.287-0.47-11.041c-3.495-7.236-4.218-12.602-2.201-16.111
			c-2.688,1.408-4.649,3.184-5.932,5.346c-1.797,3.035-1.883,6.485-0.272,10.332c1.693,3.925,2.717,6.531,3.086,7.846
			c0.688,2.725,0.779,4.916,0.26,6.574c-0.155,0.495-0.374,0.949-0.637,1.346c0.019-0.062,0.013-0.125,0.03-0.183l0.014-1.312
			c-0.021-0.06-0.025-0.099-0.025-0.14c-0.18-1.502-0.884-3.038-2.111-4.606c-2.435-3.06-5.728-4.702-9.891-4.912
			c-7.998-0.413-13.041-2.368-15.139-5.827c-0.079,3.027,0.517,5.616,1.813,7.768c1.792,3.029,4.765,4.77,8.92,5.222
			c4.232,0.404,7.008,0.767,8.338,1.079c1.308,0.338,2.436,0.742,3.388,1.195c1.363,0.678,2.372,1.469,3.024,2.404
			c0.308,0.449,0.535,0.939,0.685,1.478c0.026,0.099,0.048,0.196,0.077,0.298l-0.023,0.101c0.081-0.124,0.156-0.249,0.227-0.393
			c0.18-0.395,0.344-0.784,0.464-1.176l2.188-0.555c0.1-0.046,0.197-0.093,0.295-0.138c1.179-0.604,2.177-1.541,2.998-2.854
			c2.189,2.244,5.057,2.699,8.597,1.389c0.436-0.164,0.871-0.348,1.282-0.549c0.312-0.158,0.628-0.336,0.938-0.513
			c0.062-0.023,0.115-0.067,0.179-0.091l1.107-0.784c0.138-0.106,0.253-0.212,0.388-0.319c0.016-0.023,0.04-0.025,0.056-0.045
			c0.406-0.361,0.768-0.726,1.132-1.125c0.039-0.043,0.076-0.085,0.116-0.148c0.019-0.021,0.035-0.022,0.057-0.045
			c0.021-0.021,0.017-0.039,0.039-0.06c0.021-0.022,0.036-0.045,0.056-0.065c0.02-0.019,0.058-0.063,0.079-0.082
			c0.944-1.158,1.719-2.527,2.309-4.09c2.853-7.524,6.261-11.756,10.221-12.684V45.118z"/>
		<path fill="#FCDF00" d="M222.35,240.067c0.265-1.514,0.423-3.05,0.503-4.585c-0.204-0.303-0.44-0.565-0.706-0.768
			c-0.824-0.605-1.695-1.152-2.606-1.655c-0.483,0.182-1.129,0.503-1.938,0.928c-1.313,0.708-2.283,1.697-2.883,2.992v0.906v0.91
			v0.887c-0.508,0.606-0.991,1.212-1.48,1.842c-0.218,0.278-0.425,0.583-0.623,0.886c-0.1,0.303-0.186,0.605-0.239,0.911
			c-0.043,0.3-0.09,0.581-0.144,0.885c-0.062,0.305-0.12,0.607-0.227,0.91c-0.3,0.304-0.601,0.604-0.904,0.908
			c-0.305,0.305-0.605,0.609-0.909,0.908c-0.103,0.306-0.199,0.587-0.305,0.891c-0.098,0.305-0.204,0.604-0.303,0.91
			c-0.587,0.604-1.229,1.172-1.898,1.677c-0.992,0.746-1.46,1.696-1.417,2.85c0,0.3,0.042,0.585,0.145,0.845
			c0.22,0.628,0.466,1.254,0.723,1.882c0.145,0.301,0.245,0.584,0.346,0.887v0.91c0,0.605,0.062,1.188,0.186,1.757
			c0.077,0.343,0.218,0.645,0.426,0.945c0.299,0.305,0.623,0.55,0.987,0.749c1.774,0.951,3.552,1.014,5.335,0.163
			c0.094-0.103,0.177-0.204,0.278-0.303c0.303,0.303,0.585,0.625,0.888,0.947c0.527,0.566,1.033,1.153,1.536,1.758v0.91v3.617
			c0.022,0.905,0.022,1.797,0,2.704c0.405,0.911,0.865,1.776,1.392,2.587c0.648,0.99,0.888,1.939,0.729,2.847
			c-0.303,0.608-0.563,1.233-0.763,1.858c-0.104,0.266-0.145,0.544-0.145,0.847v0.91c0.505,0.605,1.032,1.171,1.595,1.718
			c0.871,0.867,1.637,1.799,2.322,2.805c-0.706,0.609-1.331,1.273-1.881,1.984c-0.341,0.482-0.625,1.028-0.827,1.634
			c0.106,0.604,0.265,1.173,0.486,1.716c0.266,0.668,0.605,1.292,1.012,1.9c-0.105,0.301-0.164,0.608-0.226,0.909
			c-0.062,0.305-0.08,0.585-0.08,0.89v0.905c0.625,1.232,1.436,2.344,2.401,3.331c2.163,2.166,4.162,4.366,6.042,6.628
			c0.503,0.303,0.972,0.626,1.432,0.99c4.55,3.596,9.399,5.879,14.549,6.845c0.301-0.199,0.603-0.382,0.93-0.541
			c0.484-0.243,0.967-0.467,1.476-0.688c0.201-0.104,0.399-0.184,0.601-0.284c0.199-0.199,0.386-0.426,0.527-0.667
			c0.144-0.26,0.3-0.523,0.443-0.808c0.158-0.323,0.343-0.625,0.546-0.93c0-0.604-0.043-1.209-0.103-1.797
			c-0.037-0.305-0.061-0.626-0.061-0.93s0.061-0.586,0.163-0.889c0.584-0.908,1.15-1.837,1.654-2.81
			c0.306-0.543,0.546-1.126,0.749-1.717c0.019-0.949-0.246-1.817-0.749-2.621c-0.582-0.972-1.249-1.896-1.953-2.808
			c0.096-0.606,0.136-1.212,0.136-1.797c0-0.305-0.04-0.605-0.136-0.913c-0.106-0.301-0.208-0.604-0.302-0.909
			c0.195-0.301,0.357-0.604,0.461-0.948c0.097-0.262,0.14-0.547,0.14-0.847v-0.909c-0.283-1.455-1.012-2.626-2.201-3.499
			c-2.344-1.732-4.123-3.894-5.334-6.461c0.099-0.305,0.142-0.585,0.142-0.888c0-0.301-0.043-0.604-0.142-0.907
			c-0.101-0.305-0.2-0.606-0.304-0.911c-0.703-0.605-1.329-1.273-1.877-1.979c-0.851-1.128-1.941-1.979-3.252-2.543
			c-1.006-2.362-2.26-4.488-3.778-6.383c-3.571-4.544-7.556-8.444-11.915-11.658c0.14-0.34,0.26-0.686,0.387-1.026
			c1.224-3.637,2.12-7.23,2.657-10.769c-0.196-0.301-0.438-0.543-0.722-0.745C223.021,240.512,222.692,240.289,222.35,240.067"/>
		<path fill="#FCDF00" d="M162.889,239.099c0,0.1-0.027,0.142-0.061,0.162c-0.771,0.284-1.519,0.604-2.243,0.968
			c-1.052,0.507-1.497,1.334-1.336,2.484c-0.219,1.354,0,2.607,0.628,3.778c0.608,1.131,1.212,2.282,1.794,3.455v0.906v1.803v0.904
			c0.996,1.354,1.421,2.848,1.314,4.524c-0.059,1.192-0.097,2.401-0.097,3.614c0.298,0.588,0.541,1.215,0.766,1.84
			c0.383,1.069,1.03,1.979,1.938,2.686c0.706,0.183,1.392,0.285,2.103,0.285c0.705,0,1.411-0.103,2.119-0.285
			c0.203-0.201,0.385-0.422,0.526-0.664c0.342-0.568,0.605-1.175,0.763-1.798c0.146-0.586,0.206-1.175,0.206-1.761
			c0.505-0.503,1.008-1.009,1.516-1.516c0.508-0.503,1.009-1.009,1.514-1.514c0.104-0.305,0.182-0.604,0.263-0.907
			c0.362-1.455,0.464-2.951,0.3-4.505c-0.121-1.15-0.121-2.361,0.019-3.613c-0.28-1.456-0.927-2.708-1.937-3.777
			c-1.315-1.355-2.479-2.808-3.469-4.366c-1.017-0.503-2.04-0.928-3.095-1.271C165.269,240.146,164.079,239.685,162.889,239.099"/>
		<path fill="#FCDF00" d="M324.458,242.644c-0.418,0.338-0.819,0.673-1.2,0.999c-2.001,1.746-3.965,3.722-5.919,5.947
			c-3.511,3.194-6.549,6.286-9.133,9.28c-4.914,5.84-6.782,10.54-5.607,14.093c1.953,5.838,7.076,9.405,15.428,10.707
			c2.276,0.387,5.749,0.763,10.431,1.163c0.21,0.027,0.385,0.044,0.56,0.056c1.352,0.165,2.598,0.369,3.718,0.602
			c1.992,0.375,3.646,0.864,4.934,1.438c4.391,1.911,6.831,2.921,7.35,3.032c3.004,0.547,4.502-1.005,4.488-4.662
			c0-2.271-1.446-4.731-4.309-7.369c-1.538-1.416-3.94-3.232-7.254-5.435c1.909-0.958,4.888-2.291,8.931-4.009
			c3.331-1.773,5.557-4.129,6.674-7.045c0.798-3.582-1.603-5.933-7.255-7.021c-4.944-0.938-9.802-0.773-14.579,0.51
			c1.776-0.738,3.581-2.904,5.458-6.491c1.97-3.666,2.624-6.395,1.957-8.206c-1.438-3.941-4.953-4.149-10.522-0.635
			C327.215,240.498,325.826,241.513,324.458,242.644"/>
		<path fill="none" stroke="#F1B800" stroke-width="3.1796" stroke-miterlimit="10" d="M324.458,242.644
			c1.368-1.131,2.757-2.146,4.148-3.045c5.569-3.515,9.085-3.304,10.522,0.637c0.667,1.81,0.013,4.538-1.957,8.204
			c-1.877,3.587-3.682,5.753-5.458,6.491c4.777-1.283,9.635-1.448,14.579-0.51c5.652,1.088,8.053,3.438,7.255,7.021
			c-1.117,2.916-3.343,5.271-6.674,7.045c-4.043,1.718-7.021,3.051-8.931,4.009c3.313,2.202,5.716,4.019,7.254,5.435
			c2.862,2.638,4.309,5.099,4.309,7.369c0.014,3.657-1.484,5.209-4.488,4.662c-0.519-0.111-2.959-1.121-7.35-3.032
			c-1.287-0.574-2.941-1.063-4.934-1.438c-1.12-0.232-2.366-0.437-3.718-0.602c-0.175-0.012-0.35-0.028-0.56-0.056
			c-4.682-0.4-8.154-0.776-10.431-1.163c-8.352-1.302-13.475-4.869-15.428-10.707c-1.175-3.553,0.693-8.253,5.607-14.093
			c2.584-2.994,5.622-6.086,9.133-9.28c1.954-2.226,3.918-4.199,5.919-5.947C323.639,243.316,324.04,242.981,324.458,242.644z"/>
	</g>
</g>
<g id="_x36_" display="none">
</g>
<g id="_x35_" display="none">
</g>
<g id="_x34_" display="none">
</g>
<g id="_x33_" display="none">
</g>
<g id="_x32_" display="none">
</g>
<g id="_x31_" display="none">
	<g display="inline">
		<defs>
			<path id="SVGID_13_" d="M460.023-183.442c0,5.5-4.5,10-10,10H-827.922c-5.5,0-10-4.5-10-10V-211v-841.881c0-5.5,4.5-10,10-10
				H450.023c5.5,0,10,4.5,10,10V-213V-183.442z"/>
		</defs>
		<clipPath id="SVGID_2_">
			<use xlink:href="#SVGID_13_"  overflow="visible"/>
		</clipPath>
		<g clip-path="url(#SVGID_2_)">
			<g>
				<g>
					<g>
						<path fill="#009FE8" d="M-25.488-179.628l0.126-0.023c0.962,0.558,12.418,20.532,34.255,60.026
							c22.288,40.289,33.647,60.741,34.095,61.29l16.105-0.493c37.065-9.018,68.65-11.974,94.718-8.825
							c12.623,1.507,25.208,5.135,37.811,10.832c5.792,2.643,11.409,7.637,16.967,14.964c5.497,7.345,8.314,13.657,8.518,18.961
							c0.285,8.501-5.177,16.658-16.428,24.509c-31.271,21.751-87.995,33.784-170.125,36.139
							c-41.057,1.21-79.001,0.185-113.752-3.027l-4.665-5.345c-0.483-0.724-0.919-1.526-1.375-2.396
							c-1.754-4.442-3.025-7.565-3.79-9.512c-1.529-3.722-6.166-30.104-14.066-79.197c-7.89-49.157-12.549-75.605-13.883-79.296
							l-0.019-0.067l95.435-38.584L-25.488-179.628z"/>
						<path fill="none" stroke="#00499C" stroke-width="10.0548" stroke-linecap="round" stroke-miterlimit="10" d="
							M-25.488-179.628l-0.074-0.045l-95.435,38.584l0.019,0.067c1.334,3.69,5.993,30.139,13.883,79.296
							c7.9,49.094,12.537,75.476,14.066,79.197c0.765,1.946,2.036,5.069,3.79,9.512c0.456,0.869,0.892,1.672,1.375,2.396
							l4.665,5.345c34.751,3.212,72.695,4.237,113.752,3.027c82.13-2.354,138.854-14.388,170.125-36.139
							c11.251-7.851,16.713-16.008,16.428-24.509c-0.203-5.304-3.021-11.616-8.518-18.961c-5.558-7.327-11.175-12.321-16.967-14.964
							c-12.603-5.697-25.188-9.325-37.811-10.832c-26.067-3.148-57.652-0.192-94.718,8.825l-16.105,0.493
							c-0.447-0.549-11.807-21.001-34.095-61.29c-21.837-39.494-33.293-59.469-34.255-60.026L-25.488-179.628z"/>
						<path fill="#009FE8" d="M-167.239-112.221l0.121-0.03c0.991,0.52,13.173,20.124,36.459,58.896
							C-106.91-13.804-94.796,6.281-94.336,6.814l16.111-1.077C-41.42-4.611-9.889-8.708,16.32-6.473
							C29.02-5.417,41.755-2.228,54.572,3.036c5.895,2.432,11.705,7.231,17.521,14.367c5.765,7.167,8.821,13.397,9.222,18.69
							c0.587,8.501-4.591,16.861-15.59,25.127c-30.541,22.904-86.928,36.974-169.08,42.268c-41.076,2.666-79.111,3.002-114.038,1.01
							l-4.857-5.18c-0.509-0.707-0.979-1.495-1.467-2.35c-1.909-4.369-3.304-7.463-4.128-9.395
							c-1.667-3.668-7.257-29.924-16.907-78.81c-9.66-48.944-15.282-75.266-16.745-78.912l-0.02-0.069l94.198-42.053
							L-167.239-112.221z"/>
						<path fill="none" stroke="#00499C" stroke-width="10.075" stroke-linecap="round" stroke-miterlimit="10" d="
							M-167.239-112.221l-0.079-0.049l-94.198,42.053l0.02,0.069c1.463,3.646,7.085,29.968,16.745,78.912
							c9.65,48.886,15.24,75.142,16.907,78.81c0.824,1.932,2.219,5.025,4.128,9.395c0.487,0.854,0.958,1.643,1.467,2.35l4.857,5.18
							c34.927,1.992,72.962,1.656,114.038-1.01c82.152-5.294,138.539-19.363,169.08-42.268c10.999-8.266,16.177-16.626,15.59-25.127
							c-0.4-5.293-3.457-11.523-9.222-18.69C66.277,10.268,60.467,5.468,54.572,3.036C41.755-2.228,29.02-5.417,16.32-6.473
							C-9.889-8.708-41.42-4.611-78.225,5.737l-16.111,1.077c-0.46-0.533-12.574-20.618-36.323-60.169
							c-23.286-38.772-35.468-58.377-36.459-58.896L-167.239-112.221z"/>
					</g>
				</g>
			</g>
		</g>
	</g>
</g>
<g id="_x30_" display="none">
</g>
<g id="guide" display="none">
</g>
</svg>
