<?xml version="1.0" encoding="utf-8"?>
<!-- Generator: Adobe Illustrator 16.2.1, SVG Export Plug-In . SVG Version: 6.00 Build 0)  -->
<!DOCTYPE svg PUBLIC "-//W3C//DTD SVG 1.1//EN" "http://www.w3.org/Graphics/SVG/1.1/DTD/svg11.dtd">
<svg version="1.1" xmlns="http://www.w3.org/2000/svg" xmlns:xlink="http://www.w3.org/1999/xlink" x="0px" y="0px" width="264px"
	 height="322.737px" viewBox="0 0 264 322.737" enable-background="new 0 0 264 322.737" xml:space="preserve">
<g id="base">
</g>
<g id="book3">
</g>
<g id="_x38_" display="none">
</g>
<g id="_x37_">
	<g>
		<polygon fill="#D2D3D3" points="178.385,232.797 178.441,232.223 177.931,232.012 177.872,232.584 		"/>
		<path fill="#003D90" d="M158.3,174.39v0.014c1.075,1.159,2.17,2.316,3.263,3.441c2.966,3.104,6.203,5.898,9.674,8.372
			c4.501,3.526,9.529,6.371,15.038,8.547c1.126,0.445,2.271,0.892,3.397,1.303c5.705,2.106,11.53,2.565,17.516,1.396
			c0.018,0,0.058,0,0.097-0.019c1.667-0.443,3.292-1.056,4.876-1.854c4.75-2.379,7.519-5.97,8.311-10.782l-0.002,0.018
			c0.425-2.38,0.614-4.773,0.607-7.164c-0.01-2.717-0.437-5.374-1.291-7.992c-0.021-0.018-0.021-0.018-0.021-0.033
			c-1.94-6.646-6.034-15.37-12.271-26.156c-0.02-0.034-0.039-0.066-0.062-0.103l-8.992-12.892c-0.222-0.318-0.558-0.52-0.973-0.617
			c-0.414-0.077-0.806-0.023-1.176,0.167c-0.371,0.191-0.626,0.482-0.721,0.839c-0.113,0.357-0.048,0.697,0.172,1.016l0.021,0.019
			l8.934,12.825c6.117,10.566,10.127,19.104,12.052,25.614c-0.002,0.018-0.002,0.018-0.002,0.034
			c0.795,2.382,1.177,4.804,1.184,7.296c0.007,2.259-0.184,4.5-0.572,6.742l0.003,0.017c-0.646,3.928-2.892,6.87-6.784,8.813
			c-1.367,0.694-2.756,1.221-4.188,1.592l0.119-0.018c-5.315,1.024-10.513,0.611-15.587-1.251c-1.125-0.409-2.231-0.838-3.337-1.284
			c-5.235-2.059-9.965-4.753-14.229-8.082c-0.021-0.018-0.037-0.015-0.062-0.034c-3.345-2.386-6.444-5.064-9.291-8.053l-0.021-0.016
			c-1.074-1.125-2.148-2.248-3.225-3.406l0.02,0.017l-6.987-7.673c-0.021-0.019-0.038-0.034-0.059-0.05
			c-0.259-0.253-0.597-0.401-0.991-0.449c-0.43-0.045-0.825,0.044-1.156,0.268c-0.348,0.243-0.543,0.551-0.598,0.905
			c-0.055,0.373,0.068,0.712,0.324,0.998l6.988,7.675L158.3,174.39z"/>
		<path fill="#009FE8" d="M153.731,164.991c0.021,0.017,0.037,0.032,0.061,0.051l6.987,7.671l-0.022-0.016
			c1.078,1.157,2.152,2.281,3.228,3.406l0.02,0.018c2.845,2.986,5.945,5.665,9.294,8.051c0.02,0.02,0.039,0.019,0.059,0.035
			c4.266,3.329,8.994,6.022,14.229,8.083c1.108,0.446,2.213,0.874,3.336,1.282c5.076,1.862,10.271,2.276,15.588,1.251l-0.117,0.019
			c1.43-0.372,2.82-0.897,4.187-1.591c3.894-1.944,6.14-4.888,6.783-8.815v-0.015c0.386-2.244,0.577-4.485,0.572-6.744
			c-0.009-2.492-0.391-4.913-1.185-7.295c-0.002-0.019-0.002-0.019,0-0.035c-1.924-6.511-5.934-15.048-12.049-25.614l-8.938-12.826
			l-21.928,11.614c0.021,0.052,0.059,0.085,0.083,0.12l19.436,35.521c0.181,0.354,0.185,0.695,0.052,1.051
			c-0.151,0.359-0.424,0.6-0.818,0.758c-0.393,0.156-0.781,0.177-1.197,0.062c-0.414-0.128-0.692-0.364-0.871-0.702l-16.77-30.616
			L153.731,164.991z"/>
		<path fill="#003D90" d="M193.405,180.213c0.133-0.355,0.13-0.696-0.053-1.051l-19.437-35.521c-0.022-0.035-0.06-0.068-0.082-0.12
			c-0.179-0.267-0.456-0.452-0.812-0.565c-0.414-0.112-0.809-0.11-1.198,0.047c-0.392,0.156-0.668,0.414-0.816,0.771
			c-0.136,0.358-0.112,0.7,0.069,1.036l2.672,4.906l16.77,30.616c0.179,0.338,0.455,0.569,0.871,0.702
			c0.414,0.114,0.805,0.094,1.197-0.062C192.981,180.812,193.253,180.572,193.405,180.213"/>
		<path fill="#009FE8" d="M187.415,121.457c-24.744-13.406-37.973-20.506-39.685-21.342c-8.396-4.026-15.1-5.711-20.124-5.059
			c-2.57,0.323-5.541,1.246-8.902,2.749c-2.255,1.001-6.052,2.941-11.403,5.837c-14.474,7.747-27.885,14.254-40.237,19.517
			c-11.163,4.763-20.283,11.367-27.32,19.812c-6.563,7.862-10.7,16.521-12.4,25.963c-1.687,9.251-0.815,18.012,2.611,26.277
			c3.585,8.623,9.539,15.547,17.823,20.793c42.334,26.787,76.229,39.299,101.717,37.506c1.282-0.097,2.532-0.207,3.767-0.363
			c10.166-1.818,18.586-5.469,25.237-10.92c6.046-5.274,10.826-12.359,14.374-21.271c5.399-13.525,7.588-29.711,6.586-48.51
			c-0.17-3.316-0.449-6.698-0.82-10.171c-0.35-3.238-0.776-6.399-1.294-9.465c-0.909-5.614-2.097-10.925-3.517-15.919
			C191.77,129.588,189.637,124.461,187.415,121.457"/>
		<path fill="none" stroke="#00489B" stroke-width="2.8485" stroke-linecap="round" stroke-miterlimit="10" d="M128.26,93.789
			c-2.588,0.318-5.613,1.231-9.103,2.75c-2.524,1.106-6.393,3.069-11.651,5.894c-14.655,7.597-27.979,13.847-39.979,18.768
			c-11.952,4.904-21.464,11.614-28.515,20.09c-7.035,8.481-11.402,17.527-13.09,27.136c-1.691,9.384-0.756,18.294,2.805,26.728
			c3.713,8.771,9.84,15.858,18.358,21.236c16.776,10.591,32.218,18.999,46.29,25.21c13.748,6.067,26.094,9.998,37.071,11.812
			c3.593,0.582,6.531,1.002,8.813,1.21c3.049,0.271,5.733,0.318,8.084,0.121c2.657-0.222,5.168-0.537,7.516-0.935
			c10.223-1.772,18.496-5.375,24.815-10.833c5.942-4.907,10.899-13.255,14.895-25.015c3.989-11.741,6.057-22.075,6.17-31.016
			c0.119-8.941,0.033-15.336-0.259-19.204c-0.309-3.997-0.916-9.022-1.856-15.064c-0.966-6.219-2.501-12.104-4.559-17.656
			c-2.077-5.52-3.784-10.335-5.144-14.461C164,107.066,150.668,99.893,148.91,99.031c-8.604-4.129-15.497-5.866-20.651-5.243
			L128.26,93.789z"/>
		<path fill="#003D90" d="M76.549,267.969l0.005,0.119c7.438,6.245,15.903,12.476,25.415,18.732
			c19.17,12.59,34.055,18.918,44.673,18.993c3.276,0.002,5.472-0.792,6.606-2.366c0.663-1.098,0.942-2.757,0.875-4.982
			c-0.08-2.33-0.518-4.169-1.315-5.559c-1.923-3.242-4.194-6.012-6.77-8.325c-5.456-4.875-13.128-9.231-23.034-13.083l-0.133-0.054
			l-3.956-2.577c-0.31-0.225-0.515-0.521-0.607-0.907c-0.087-0.403-0.015-0.756,0.192-1.077c0.164-0.262,0.386-0.422,0.641-0.527
			c0.095-0.037,0.179-0.06,0.268-0.082c0.4-0.084,0.758-0.016,1.069,0.21l3.694,2.408c10.213,3.999,18.146,8.523,23.768,13.56
			c2.81,2.49,5.235,5.494,7.322,8.997c1.044,1.723,1.619,4.026,1.717,6.921c0.099,2.99-0.346,5.197-1.341,6.619
			c-1.477,2.458-4.465,3.677-8.998,3.679c-11.011,0.033-26.424-6.456-46.233-19.464c-9.782-6.443-18.493-12.868-26.119-19.311
			l-0.434-0.352l-0.127-1.23c-0.054-0.388,0.048-0.731,0.291-1.037c0.169-0.222,0.373-0.389,0.613-0.46
			c0.117-0.047,0.221-0.063,0.34-0.071c0.387-0.055,0.737,0.034,1.043,0.276C76.321,267.258,76.497,267.579,76.549,267.969"/>
		<path fill="#009FE8" d="M76.554,268.088l-0.005-0.119c-0.053-0.389-0.229-0.71-0.533-0.949c-0.308-0.243-0.655-0.33-1.045-0.277
			c-0.119,0.008-0.223,0.024-0.34,0.071l0.245-0.594c0.618-1.501,1.677-2.856,3.192-4.045c1.86-1.472,4.176-2.503,6.948-3.099
			c7.289-1.545,16.798,0.098,28.517,4.932c0.792,0.324,1.74,0.832,2.869,1.51c0.291,0.179,0.553,0.342,0.789,0.52
			c0.667,0.118,1.312,0.23,1.951,0.319c-0.258,0.107-0.479,0.265-0.643,0.526c-0.207,0.321-0.279,0.674-0.192,1.077
			c0.092,0.389,0.298,0.683,0.609,0.91l3.954,2.574l0.133,0.054c9.906,3.852,17.578,8.208,23.037,13.084
			c2.572,2.312,4.844,5.082,6.767,8.324c0.798,1.39,1.235,3.229,1.315,5.559c0.067,2.226-0.212,3.885-0.875,4.982
			c-1.133,1.574-3.326,2.368-6.606,2.366c-10.618-0.075-25.503-6.403-44.673-18.991c-9.512-6.259-17.979-12.486-25.414-18.731
			L76.554,268.088z"/>
		<path fill="#003D90" d="M94.338,220.511c0.314-0.161,0.639-0.199,0.976-0.122l28.526,6.552c0.331,0.081,0.626,0.261,0.83,0.556
			c0.205,0.298,0.303,0.625,0.254,0.97l-3.719,38.124c-0.006,0.057-0.015,0.129-0.017,0.188c-0.044,0.194-0.133,0.366-0.259,0.528
			c-0.146,0.21-0.34,0.36-0.596,0.467c-0.259,0.108-0.502,0.142-0.772,0.087l-0.63-0.104c-0.145-0.023-0.283-0.06-0.407-0.129
			l-0.117-0.049c0.001-0.424-0.034-0.901-0.071-1.418c0.006-0.25,0.004-0.577-0.014-0.953l0.007-0.015
			c0.058-0.038,0.107-0.073,0.162-0.108l3.483-35.634l-26.145-6.012l-18.219,42.559l-0.183,0.773
			c-0.038,0.042-0.052,0.072-0.083,0.102c-0.033,0.179-0.066,0.395-0.09,0.64c-0.018,0.185-0.091,0.404-0.189,0.651
			c-0.027,0.066-0.056,0.134-0.098,0.19L77,268.366c0.023-0.008,0.045-0.017,0.069-0.027l-0.027,0.066
			c0.16,0.084,0.295,0.178,0.407,0.28c0.233,0.178,0.406,0.365,0.5,0.558c0.125,0.261,0.136,0.516,0.026,0.782
			c-0.116,0.277-0.216,0.43-0.302,0.45l-0.124,0.068l-0.634-0.146c-0.188-0.156-0.345-0.335-0.471-0.542
			c-0.108-0.067-0.218-0.13-0.288-0.196c-0.04-0.038-0.084-0.074-0.129-0.109l-0.208,0.18c-0.076,0.186-0.115,0.283-0.153,0.326
			c-0.067,0.067-0.177,0.102-0.345,0.089l-0.273,0.237l-0.428-0.549c-0.142-0.077-0.327-0.192-0.552-0.303
			c-0.562-0.406-0.77-0.799-0.614-1.18l0.006-0.014l-0.217-0.266l20.433-46.852C93.807,220.905,94.022,220.667,94.338,220.511"/>
		<path fill="#009FE8" d="M77.256,267.512c0.023-0.245,0.057-0.461,0.09-0.64c0.031-0.029,0.045-0.06,0.082-0.099l0.184-0.776
			l18.219-42.559l26.145,6.012l-3.483,35.634c-0.055,0.035-0.106,0.073-0.162,0.108l-0.007,0.015
			c0.019,0.376,0.02,0.706,0.014,0.953c0.038,0.518,0.072,0.994,0.071,1.418l0.117,0.049c-0.021,0.048-0.034,0.08-0.069,0.124
			c-0.008,0.019-0.014,0.034-0.04,0.041c0.021,0.376,0.026,0.687,0.005,0.97c0.008,0.038,0.01,0.08,0.004,0.136
			c-0.01,0.439-0.064,0.763-0.14,0.943c-0.113,0.28-0.2,0.4-0.271,0.331l-0.039-0.188c-0.312-0.031-0.6-0.268-0.832-0.691
			c-0.326,0.27-0.667,0.537-1.058,0.779c-0.385,0.243-0.779,0.49-1.179,0.707c-2.055,1.198-4.178,2.137-6.356,2.842
			c-0.04,0.002-0.087,0.023-0.126,0.025c-5.292,1.658-10.928,1.8-16.871,0.449c-1.568-0.357-3.113-0.762-4.637-1.235
			c-2.791-0.861-5.508-1.941-8.133-3.198l-0.832-0.422c-0.096-0.189-0.268-0.377-0.502-0.555c-0.112-0.103-0.247-0.196-0.404-0.279
			l0.028-0.068c-0.024,0.013-0.049,0.021-0.073,0.028l-0.031-0.013c0.042-0.057,0.07-0.124,0.098-0.19
			C77.168,267.916,77.241,267.697,77.256,267.512"/>
		<path fill="#009FE8" d="M230.138,103.429c1.81-4.937,2.688-9.523,2.628-13.745c-0.099-5.59-1.854-10.798-5.283-15.614
			c-0.076-0.112-0.166-0.236-0.257-0.359c-0.323-0.445-0.665-0.901-1.024-1.351c-0.309-0.373-0.618-0.746-0.951-1.111
			c0.263-0.146,0.529-0.292,0.777-0.446c0.094-0.045,0.184-0.115,0.278-0.16c0.044-0.034,0.085-0.07,0.145-0.095
			c1.948-1.254,3.578-2.928,4.864-4.993l0.031-0.045c0.011-0.017,0.011-0.017,0.021-0.03c0.013-0.055,0.053-0.112,0.082-0.158
			c0.067-0.104,0.126-0.192,0.18-0.307c2.397-4.083,2.879-8.485,1.454-13.22c-1.408-4.728-4.322-8.354-8.737-10.927
			c-4.417-2.533-9.022-3.253-13.801-2.154c-1.814,0.403-3.466,1.043-4.935,1.888c-0.037-1.595-0.303-3.236-0.803-4.902
			c-1.411-4.728-4.324-8.357-8.736-10.929c-2.827-1.617-5.734-2.502-8.727-2.635c-1.674-0.075-3.357,0.096-5.075,0.479
			c-4.267,0.969-7.593,3.125-9.962,6.479c-0.043,0.037-0.062,0.065-0.091,0.11c-0.269,0.378-0.517,0.789-0.767,1.198
			c-0.988,1.71-1.65,3.466-1.993,5.283c0.007,0.023-0.013,0.054-0.015,0.094c-0.016,0.055-0.007,0.104-0.02,0.158
			c-0.015,0.055-0.033,0.082-0.049,0.138c-0.102,0.253-0.379,0.411-0.835,0.433c-0.024,0.002-0.064,0-0.089,0.004
			c-0.063,0-0.128,0.001-0.191,0.001c-0.287-0.082-0.589-0.171-0.92-0.281c-0.252-0.102-0.529-0.2-0.822-0.306
			c-0.32-0.125-0.674-0.271-1.047-0.409c-0.045-0.03-0.075-0.05-0.129-0.063c-7.554-3.163-14.164-4.942-19.814-5.329
			c-0.138-0.024-0.279-0.033-0.422-0.043c-6.682-0.403-12.766,1.159-18.21,4.71l-5.229,4.248l-6.239,7.81l-1.627,2.612
			c-0.628,1.057-1.26,2.148-1.855,3.288c-0.711,1.343-1.311,2.713-1.803,4.112c-0.953,2.624-1.555,5.357-1.814,8.224
			c-0.169,1.78-0.204,3.586-0.094,5.462c0.344,6.258,2.153,12.607,5.436,19.049c0.955,1.88,2.023,3.727,3.166,5.517l12.446,14.736
			c5.241,4.748,11.334,8.975,18.285,12.698l34.885,10.225c3.83,0.216,7.63,0.092,11.436-0.369c0.155-0.006,0.302-0.037,0.441-0.052
			c7.022-0.86,13.17-2.851,18.443-6.003c3.633-2.146,6.666-4.729,9.13-7.747l2.253-3.05c0.442-0.709,0.882-1.442,1.287-2.196
			C227.393,109.895,228.961,106.589,230.138,103.429z"/>
		<path fill="none" stroke="#00489B" stroke-width="2.8443" stroke-linecap="round" stroke-miterlimit="10" d="M225.059,116.57
			c1.384-2.048,2.686-4.529,3.907-7.428c0.876-2.082,1.556-3.805,2.048-5.14c0.199-0.527,0.355-0.999,0.493-1.399l1.765-5.876
			l0.65-5.438c0.012-0.504-0.018-1.265-0.099-2.315c-0.114-1.286-0.251-2.372-0.41-3.266c-0.509-2.628-1.152-4.855-1.902-6.663
			c-1.203-2.935-2.956-5.443-5.278-7.58c1.178,0.111,2.592-0.744,4.189-2.568c1.596-1.822,2.785-3.572,3.584-5.216
			c0.801-1.644,1.242-3.418,1.318-5.318c0.086-1.92-0.207-4.002-0.845-6.271c-0.639-2.267-1.682-4.438-3.128-6.51
			c-0.833-1.163-1.755-2.254-2.791-3.271c-1.891-1.813-4.062-3.17-6.513-4.098c-1.891-0.748-3.808-1.196-5.757-1.367
			c-1.941-0.188-4.379,0.17-7.317,1.051l-2.694,1.612 M206.283,39.511c0.216-1.792,0.13-3.25-0.219-4.371
			c-0.341-1.136-0.745-2.208-1.196-3.205c-0.452-0.996-1.254-2.202-2.427-3.589c-1.175-1.385-2.745-2.752-4.743-4.082
			c-1.998-1.331-3.824-2.206-5.476-2.631c-1.659-0.425-3.042-0.715-4.142-0.819c-1.092-0.121-2.332-0.106-3.72,0.069
			c-1.396,0.15-3.161,0.607-5.306,1.348c-2.127,0.753-4.001,1.928-5.631,3.537c-1.617,1.595-2.843,3.174-3.639,4.714
			c-0.796,1.541-1.143,3.14-1.041,4.8c-0.406-0.158-1.607-0.628-3.57-1.424c-1.979-0.808-3.621-1.415-4.94-1.832
			c-1.32-0.42-2.997-0.944-5.046-1.544c-2.056-0.624-4.441-1.103-7.13-1.439c-2.704-0.348-5.407-0.31-8.089,0.121
			c-2.674,0.415-5.312,1.132-7.9,2.137c-2.6,1.016-4.981,2.346-7.136,4.015c-1.231,0.936-2.39,1.962-3.521,3.071
			c-1.915,1.889-3.693,3.89-5.326,6.029c-1.484,1.938-2.824,3.951-4.02,6.036c-1.337,2.332-2.408,4.776-3.229,7.362
			c-0.833,2.664-1.395,5.376-1.703,8.149c-0.279,2.598-0.252,5.187,0.084,7.724c0.315,2.308,0.772,4.564,1.371,6.762
			c0.714,2.7,1.662,5.316,2.845,7.854c1.114,2.387,2.414,4.686,3.897,6.867c1.037,1.527,2.719,3.693,5.054,6.518l8.96,9.713
			c1.607,1.669,3.373,3.124,5.301,4.366l10.27,6.575c1.025,0.671,2.688,1.443,4.983,2.287l15.155,4.4
			c1.843,0.528,3.666,1.085,5.494,1.666c2.665,0.832,5.367,1.537,8.118,2.171c2.731,0.599,5.478,0.952,8.239,1.083
			c2.344,0.111,4.697,0.061,7.051-0.162c0.736-0.05,1.641-0.202,2.714-0.411c1.073-0.212,2.61-0.546,4.587-0.97
			c1.961-0.436,3.974-1.073,5.992-1.917c2.029-0.86,4.167-1.884,6.379-3.09c2.215-1.207,4.283-2.741,6.244-4.602
			c1.973-1.874,3.695-3.955,5.186-6.229"/>
		<path fill="#F2F2F3" d="M231.628,65.014c2.397-4.083,2.879-8.485,1.454-13.22c-1.41-4.728-4.323-8.354-8.736-10.929
			c-4.418-2.53-9.021-3.253-13.801-2.154c-1.815,0.405-3.467,1.045-4.936,1.89c-0.037-1.596-0.303-3.237-0.803-4.902
			c-1.411-4.728-4.324-8.357-8.736-10.929c-4.42-2.531-9.024-3.255-13.802-2.155c-4.808,1.08-8.409,3.692-10.819,7.788
			c-2.385,4.132-2.877,8.551-1.441,13.269c1.432,4.723,4.359,8.361,8.76,10.924c4.385,2.553,8.99,3.274,13.779,2.159
			c1.814-0.404,3.467-1.044,4.932-1.889c0.038,1.596,0.305,3.238,0.807,4.903c1.432,4.721,4.36,8.361,8.758,10.922
			c4.386,2.553,8.991,3.273,13.777,2.161C225.641,71.757,229.24,69.143,231.628,65.014"/>
		<path fill="#0E0000" d="M200.413,45.517c-0.17-1.98-0.996-3.592-2.515-4.857c-1.517-1.266-3.239-1.814-5.199-1.674
			c-1.983,0.169-3.594,0.999-4.857,2.515c-1.266,1.518-1.815,3.241-1.677,5.202c0.162,1.994,0.978,3.62,2.496,4.886
			c1.517,1.264,3.241,1.813,5.223,1.646c1.994-0.158,3.621-0.979,4.884-2.493C200.033,49.221,200.582,47.498,200.413,45.517"/>
		<path fill="#0E0000" d="M228.452,62.431c-0.172-1.983-0.998-3.594-2.516-4.857c-1.516-1.265-3.24-1.817-5.199-1.673
			c-1.98,0.169-3.595,0.996-4.857,2.514c-1.266,1.519-1.815,3.24-1.673,5.201c0.157,1.996,0.973,3.621,2.491,4.884
			c1.52,1.267,3.242,1.815,5.222,1.647c1.999-0.159,3.624-0.976,4.889-2.493C228.071,66.135,228.622,64.41,228.452,62.431"/>
		<path fill="#0E0000" d="M220.018,96.921c3.084,0.035,5.531-0.116,7.322-0.429c-15.931-0.27-33.815-7.582-53.674-21.928
			c-6.196-4.49-12.229-9.422-18.099-14.79l-6.915-6.71c14.809,21.326,32.359,34.968,52.657,40.927
			C207.667,95.847,213.889,96.826,220.018,96.921L220.018,96.921z"/>
		<path fill="#003D90" d="M34.17,261.187l0.009,0.122c7.435,6.246,15.898,12.475,25.414,18.73
			c19.171,12.59,34.056,18.918,44.671,18.99c3.276,0.002,5.474-0.787,6.609-2.362c0.663-1.097,0.942-2.759,0.873-4.985
			c-0.08-2.327-0.516-4.165-1.313-5.558c-1.925-3.241-4.196-6.009-6.772-8.323c-5.454-4.874-13.129-9.232-23.034-13.086
			l-0.132-0.056l-3.953-2.572c-0.313-0.226-0.519-0.521-0.611-0.906c-0.083-0.402-0.016-0.758,0.192-1.077
			c0.168-0.262,0.388-0.422,0.646-0.529c0.09-0.036,0.176-0.06,0.263-0.082c0.403-0.085,0.761-0.018,1.071,0.212l3.695,2.409
			c10.213,3.998,18.146,8.523,23.766,13.558c2.811,2.49,5.234,5.495,7.32,8.997c1.047,1.724,1.623,4.023,1.721,6.919
			c0.098,2.989-0.351,5.198-1.343,6.623c-1.476,2.456-4.466,3.674-8.999,3.675c-11.004,0.035-26.422-6.454-46.229-19.464
			c-9.787-6.444-18.497-12.868-26.121-19.31l-0.436-0.354l-0.129-1.228c-0.051-0.389,0.05-0.732,0.294-1.039
			c0.166-0.219,0.37-0.387,0.613-0.458c0.116-0.05,0.22-0.067,0.341-0.073c0.387-0.052,0.734,0.033,1.039,0.275
			C33.942,260.479,34.12,260.8,34.17,261.187"/>
		<path fill="#009FE8" d="M34.179,261.309l-0.009-0.122c-0.051-0.387-0.229-0.708-0.535-0.951c-0.303-0.242-0.652-0.327-1.039-0.275
			c-0.12,0.006-0.225,0.023-0.341,0.073l0.246-0.594c0.618-1.5,1.678-2.856,3.188-4.046c1.861-1.47,4.176-2.502,6.949-3.098
			c7.291-1.548,16.799,0.098,28.519,4.93c0.792,0.328,1.739,0.833,2.869,1.51c0.294,0.179,0.556,0.342,0.79,0.52
			c0.662,0.117,1.311,0.229,1.949,0.317c-0.256,0.109-0.476,0.27-0.642,0.531c-0.21,0.317-0.277,0.675-0.193,1.077
			c0.092,0.385,0.297,0.681,0.61,0.906l3.953,2.572l0.132,0.056c9.906,3.854,17.581,8.213,23.034,13.086
			c2.576,2.314,4.85,5.084,6.772,8.323c0.798,1.393,1.233,3.23,1.313,5.558c0.069,2.227-0.21,3.889-0.874,4.985
			c-1.135,1.575-3.332,2.364-6.608,2.366c-10.615-0.076-25.5-6.404-44.67-18.994C50.079,273.784,41.614,267.555,34.179,261.309"/>
		<path fill="#003D90" d="M51.961,213.729c0.317-0.16,0.643-0.198,0.976-0.12l28.523,6.552c0.333,0.079,0.628,0.257,0.833,0.555
			c0.207,0.297,0.303,0.626,0.257,0.969l-3.72,38.127c-0.005,0.055-0.016,0.127-0.02,0.184c-0.042,0.196-0.129,0.368-0.258,0.531
			c-0.143,0.209-0.342,0.36-0.596,0.466c-0.258,0.107-0.503,0.144-0.771,0.089l-0.629-0.106c-0.146-0.021-0.283-0.058-0.41-0.13
			l-0.115-0.049c0.001-0.42-0.035-0.896-0.07-1.418c0.006-0.249,0.008-0.575-0.016-0.95l0.006-0.015
			c0.055-0.037,0.111-0.072,0.161-0.107l3.485-35.635l-26.144-6.011l-18.22,42.559l-0.184,0.771
			c-0.035,0.042-0.048,0.073-0.084,0.103c-0.031,0.177-0.063,0.396-0.087,0.638c-0.019,0.186-0.091,0.407-0.192,0.653
			c-0.027,0.064-0.055,0.132-0.098,0.192l0.035,0.013c0.021-0.009,0.047-0.019,0.068-0.026l-0.025,0.062
			c0.156,0.085,0.291,0.177,0.403,0.283c0.234,0.173,0.409,0.363,0.503,0.555c0.123,0.261,0.133,0.519,0.024,0.781
			c-0.115,0.283-0.214,0.431-0.301,0.454l-0.123,0.065l-0.634-0.146c-0.19-0.153-0.346-0.333-0.473-0.544
			c-0.107-0.062-0.218-0.126-0.287-0.193c-0.041-0.038-0.086-0.072-0.129-0.107l-0.209,0.18c-0.074,0.182-0.115,0.278-0.152,0.326
			c-0.066,0.066-0.177,0.098-0.344,0.086l-0.271,0.237l-0.434-0.544c-0.14-0.081-0.324-0.193-0.549-0.308
			c-0.564-0.403-0.77-0.799-0.613-1.176l0.008-0.018l-0.221-0.266l20.435-46.853C51.43,214.124,51.646,213.885,51.961,213.729"/>
		<path fill="#009FE8" d="M34.88,260.729c0.024-0.241,0.056-0.461,0.087-0.638c0.036-0.029,0.049-0.061,0.084-0.103l0.184-0.771
			l18.22-42.558l26.144,6.01l-3.483,35.636c-0.052,0.034-0.108,0.069-0.16,0.108l-0.007,0.015c0.02,0.376,0.019,0.703,0.015,0.949
			c0.035,0.52,0.07,0.997,0.069,1.417l0.115,0.049c-0.021,0.051-0.034,0.083-0.068,0.128c-0.008,0.016-0.014,0.033-0.039,0.041
			c0.019,0.375,0.025,0.687,0.007,0.967c0.003,0.039,0.006,0.079,0.001,0.133c-0.008,0.443-0.062,0.767-0.137,0.95
			c-0.115,0.278-0.205,0.398-0.273,0.329l-0.036-0.187c-0.315-0.035-0.604-0.271-0.837-0.693c-0.323,0.271-0.662,0.536-1.053,0.781
			c-0.39,0.242-0.78,0.488-1.18,0.709c-2.057,1.195-4.177,2.137-6.357,2.835c-0.041,0.003-0.088,0.028-0.128,0.031
			c-5.291,1.652-10.925,1.8-16.869,0.449c-1.569-0.357-3.118-0.763-4.64-1.237c-2.789-0.86-5.505-1.945-8.131-3.197l-0.832-0.422
			c-0.094-0.192-0.269-0.382-0.503-0.555c-0.112-0.106-0.247-0.198-0.402-0.282l0.026-0.063c-0.023,0.008-0.05,0.018-0.07,0.026
			l-0.034-0.013c0.044-0.061,0.073-0.127,0.099-0.191C34.79,261.136,34.862,260.914,34.88,260.729L34.88,260.729z"/>
		<path fill="#009FE8" d="M187.415,121.457c-24.744-13.406-37.973-20.506-39.685-21.342c-8.396-4.026-15.1-5.711-20.124-5.059
			c-2.57,0.323-5.541,1.246-8.902,2.749c-2.255,1.001-6.052,2.941-11.403,5.837c-14.474,7.747-27.885,14.254-40.237,19.517
			c-11.163,4.763-20.283,11.367-27.32,19.812c-6.563,7.862-10.7,16.521-12.4,25.963c-1.687,9.251-0.815,18.012,2.611,26.277
			c3.585,8.623,9.539,15.547,17.823,20.793c42.334,26.787,76.229,39.299,101.717,37.506c20.868-1.479,35.316-12.32,43.378-32.555
			c6.356-15.916,8.259-35.469,5.766-58.681c-0.998-9.18-2.607-17.651-4.811-25.384C191.77,129.588,189.637,124.461,187.415,121.457"
			/>
		<path fill="#003D90" d="M125.392,121.085c-0.835,0.509-1.666,1.033-2.47,1.563c-0.031,0.016-0.064,0.031-0.078,0.042
			c-2.074,1.511-3.895,3.298-5.455,5.394c-2.03,2.689-3.59,5.614-4.68,8.779l-0.016,0.007c-1.15,3.237-1.433,6.546-0.828,9.959
			c0.595,3.515,2.127,6.523,4.558,9.034c2.431,2.507,5.425,3.935,8.982,4.282c2.616,0.253,5.181-0.008,7.698-0.784
			c2.592,3.312,5.846,4.087,9.744,2.33l0.015-0.009c3.763-1.649,6.044-4.482,6.839-8.522c0.311-1.566,0.239-3.092-0.234-4.565
			c0.031-0.017,0.061-0.033,0.102-0.03c2.952-0.714,4.941-2.355,5.942-4.938c0.153-0.194,0.265-0.427,0.308-0.681l0.006-0.098
			c1.188-3.835,0.42-7.16-2.314-9.997c-0.614-0.631-1.273-1.195-1.944-1.718c0.844,0.336,1.72,0.831,2.618,1.488
			c2.412,1.726,4.961,2.476,7.633,2.236c2.851-0.193,4.987-1.776,6.371-4.745c1.541-2.997,0.312-6.24-3.679-9.759
			c-0.063-0.046-0.124-0.092-0.163-0.13c-5.932-3.83-10.969-5.786-15.134-5.896c-4.261-0.139-8.433,0.373-12.538,1.543
			c-0.864,0.232-1.691,0.501-2.521,0.797c-0.015,0.008-0.015,0.008-0.032,0.015C131.077,117.848,128.165,119.309,125.392,121.085
			 M126.842,123.408l0.016-0.009c2.607-1.674,5.346-3.064,8.239-4.149l-0.017,0.005c0.764-0.276,1.543-0.524,2.339-0.741
			l0.015-0.006c3.814-1.1,7.722-1.567,11.686-1.434c3.731,0.161,8.287,1.964,13.65,5.41c2.699,2.392,3.677,4.547,2.925,6.461
			c-0.913,1.938-2.294,2.998-4.109,3.18c-2.023,0.155-3.963-0.429-5.813-1.732c-2.411-1.727-4.68-2.603-6.788-2.615
			c-0.683-0.015-1.907,0.115-3.694,0.436c-1.742-0.433-3.982,0.316-6.681,2.227l1.373-0.029c1.679-0.075,3.314,0.105,4.907,0.538
			l0.023,0.009l0.024,0.007c2.558,0.627,4.763,1.903,6.604,3.79c2.011,2.069,2.547,4.533,1.632,7.359
			c-0.009,0.023-0.009,0.023-0.018,0.048c-0.051,0.083-0.105,0.167-0.127,0.272c-0.697,1.83-2.073,2.983-4.152,3.475
			c-0.038,0.003-0.054,0.008-0.067,0.016c-0.192,0.044-0.406,0.114-0.645,0.217c-1.937-2.455-3.878-3.712-5.829-3.748
			c-3.151-0.055-5.115,0.398-5.911,1.329l1.331,0.22c0.605,0.094,1.221,0.201,1.849,0.303l0.024,0.006
			c2.93,0.399,5.193,1.8,6.831,4.196c0.653,1.343,0.829,2.735,0.55,4.172l-0.006,0.023c-0.609,3.09-2.357,5.271-5.242,6.523
			l-0.031,0.014c-2.273,1.021-4.225,0.753-5.825-0.817c1.613-0.578,3.287-2.234,5.01-4.916l-1.265,0.538
			c-2.021,0.831-4.083,1.622-6.199,2.347c-0.017,0.006-0.031,0.018-0.044,0.02c-2.515,0.97-5.094,1.313-7.751,1.064
			c-2.881-0.271-5.303-1.415-7.26-3.455c-2.042-2.132-3.323-4.655-3.82-7.601c-0.527-2.93-0.285-5.794,0.718-8.568l-0.011-0.015
			c1.002-2.887,2.439-5.558,4.306-8.045c1.389-1.871,3.011-3.481,4.866-4.822C125.238,124.408,126.036,123.898,126.842,123.408"/>
		<path fill="#009FE8" d="M126.858,123.399l-0.016,0.009c-0.809,0.492-1.608,1-2.391,1.498c-1.857,1.343-3.479,2.953-4.865,4.825
			c-1.865,2.486-3.305,5.155-4.305,8.044l0.008,0.015c-1.002,2.773-1.244,5.638-0.715,8.568c0.494,2.947,1.778,5.469,3.821,7.6
			c1.956,2.041,4.378,3.185,7.259,3.456c2.656,0.25,5.234-0.095,7.748-1.062c0.017-0.009,0.028-0.019,0.045-0.022
			c2.115-0.726,4.177-1.518,6.197-2.347l1.269-0.538c-1.723,2.682-3.399,4.336-5.01,4.916c1.603,1.567,3.553,1.837,5.822,0.819
			l0.032-0.015c2.885-1.256,4.635-3.435,5.243-6.522l0.007-0.026c0.279-1.438,0.102-2.83-0.55-4.171
			c-1.64-2.397-3.903-3.797-6.831-4.196l-0.024-0.006c-0.63-0.101-1.245-0.211-1.851-0.301l-1.329-0.222
			c0.792-0.931,2.76-1.384,5.909-1.33c1.951,0.037,3.893,1.292,5.831,3.747c0.238-0.101,0.452-0.171,0.643-0.214
			c0.015-0.007,0.029-0.017,0.069-0.017c2.078-0.493,3.453-1.645,4.152-3.471c0.021-0.109,0.074-0.193,0.125-0.276
			c0.01-0.024,0.01-0.024,0.02-0.046c0.915-2.828,0.377-5.291-1.635-7.362c-1.843-1.887-4.044-3.164-6.604-3.791l-0.027-0.007
			l-0.019-0.008c-1.595-0.432-3.229-0.611-4.907-0.539l-1.372,0.031c2.698-1.908,4.936-2.66,6.681-2.229
			c1.784-0.32,3.011-0.448,3.691-0.437c2.11,0.014,4.376,0.891,6.791,2.618c1.85,1.307,3.788,1.889,5.812,1.729
			c1.815-0.179,3.195-1.242,4.109-3.177c0.751-1.913-0.228-4.07-2.924-6.463c-5.364-3.444-9.92-5.246-13.65-5.408
			c-3.967-0.135-7.874,0.334-11.686,1.432l-0.016,0.008c-0.797,0.218-1.575,0.465-2.339,0.742l0.016-0.009
			c-2.892,1.088-5.632,2.478-8.24,4.151L126.858,123.399z"/>
		<path fill="#003D90" d="M105.198,97.143l-0.017-0.01c-1.574,0.192-3.155,0.402-4.712,0.63c-4.265,0.587-8.436,1.573-12.482,2.941
			c-5.512,1.587-10.775,4.001-15.779,7.202c-1.022,0.653-2.055,1.319-3.052,1.995c-5.063,3.396-8.858,7.864-11.424,13.411
			c-0.01,0.017-0.034,0.05-0.042,0.09c-0.618,1.615-1.076,3.295-1.354,5.05c-0.857,5.258,0.435,9.619,3.88,13.088l-0.016-0.012
			c1.685,1.745,3.519,3.303,5.465,4.7c2.215,1.586,4.623,2.804,7.254,3.646c0.026-0.004,0.026-0.004,0.039,0.004
			c6.539,2.325,16.033,4.125,28.461,5.39c0.037,0.005,0.078,0.009,0.117,0.01l15.756,0.264c0.389,0.011,0.75-0.146,1.071-0.422
			c0.31-0.289,0.495-0.643,0.56-1.058c0.061-0.413-0.027-0.788-0.262-1.077c-0.225-0.303-0.535-0.449-0.926-0.456l-0.027,0.003
			l-15.666-0.271c-12.18-1.236-21.471-2.993-27.89-5.254c-0.012-0.01-0.012-0.01-0.028-0.019c-2.403-0.755-4.593-1.867-6.628-3.325
			c-1.834-1.321-3.542-2.792-5.14-4.425l-0.015-0.01c-2.812-2.829-3.885-6.382-3.179-10.688c0.242-1.516,0.631-2.955,1.166-4.337
			l-0.053,0.107c2.287-4.924,5.679-8.901,10.17-11.935c0.994-0.671,1.992-1.316,3.002-1.955c4.75-3.043,9.719-5.301,14.926-6.813
			c0.025-0.008,0.036-0.021,0.062-0.03c3.905-1.317,7.903-2.264,12.004-2.821l0.023-0.004c1.544-0.214,3.088-0.428,4.662-0.619
			l-0.027,0.006l10.341-1.172c0.026-0.008,0.048-0.012,0.075-0.02c0.355-0.062,0.676-0.248,0.943-0.54
			c0.291-0.325,0.449-0.696,0.463-1.097c0.008-0.43-0.128-0.766-0.385-1.021c-0.271-0.264-0.617-0.362-1.001-0.318l-10.341,1.171
			L105.198,97.143z"/>
		<path fill="#009FE8" d="M115.516,98.947c-0.025,0.009-0.051,0.013-0.077,0.02l-10.339,1.172l0.025-0.006
			c-1.573,0.193-3.117,0.407-4.662,0.619l-0.021,0.006c-4.102,0.557-8.098,1.501-12.006,2.82c-0.025,0.008-0.037,0.021-0.062,0.03
			c-5.207,1.512-10.178,3.771-14.922,6.814c-1.014,0.636-2.011,1.283-3.005,1.956c-4.491,3.032-7.881,7.009-10.169,11.932
			l0.055-0.106c-0.539,1.381-0.928,2.82-1.169,4.337c-0.704,4.305,0.367,7.859,3.179,10.688l0.014,0.01
			c1.598,1.633,3.305,3.104,5.142,4.426c2.033,1.457,4.226,2.569,6.628,3.324c0.015,0.009,0.015,0.009,0.025,0.021
			c6.42,2.26,15.711,4.016,27.892,5.252l15.667,0.271l3.441-24.638c-0.051-0.013-0.102,0-0.143-0.005l-40.281-5.07
			c-0.393-0.06-0.672-0.257-0.883-0.574c-0.201-0.337-0.235-0.698-0.135-1.108c0.105-0.408,0.316-0.743,0.654-1.013
			c0.348-0.259,0.703-0.351,1.083-0.296l34.722,4.36l-0.65-25.239L115.516,98.947z"/>
		<path fill="#003D90" d="M79.844,122.244c0.212,0.317,0.49,0.516,0.883,0.575l40.281,5.07c0.039,0.003,0.092-0.009,0.143,0.005
			c0.324,0.01,0.637-0.105,0.938-0.328c0.336-0.27,0.564-0.593,0.666-1.002c0.103-0.408,0.051-0.784-0.148-1.117
			c-0.212-0.317-0.502-0.498-0.882-0.55l-5.555-0.711l-34.725-4.36c-0.381-0.052-0.733,0.039-1.081,0.298
			c-0.339,0.27-0.551,0.602-0.654,1.013C79.607,121.547,79.643,121.909,79.844,122.244"/>
		<path fill="#003D90" d="M204.928,138.695l-0.01-0.013c-1.655-2.606-3.545-5.011-5.704-7.204l0.01,0.013
			c-0.573-0.57-1.173-1.12-1.8-1.65l-0.01-0.014c-2.987-2.592-6.318-4.651-9.959-6.194c-3.437-1.418-8.305-1.699-14.599-0.838
			c-3.438,1.031-5.226,2.572-5.352,4.612c0.014,2.132,0.818,3.666,2.382,4.595c1.762,0.989,3.761,1.275,5.976,0.872
			c2.905-0.547,5.319-0.39,7.229,0.482c0.627,0.276,1.678,0.906,3.153,1.944c1.759,0.342,3.467,1.956,5.104,4.813l-1.226-0.604
			c-1.485-0.772-3.039-1.294-4.657-1.569l-0.027-0.005l-0.022-0.001c-2.575-0.508-5.104-0.276-7.557,0.656
			c-2.685,1.027-4.204,3.027-4.56,5.963l-0.005,0.048c0.011,0.099,0.022,0.199-0.003,0.305c-0.134,1.94,0.622,3.56,2.297,4.877
			c0.037,0.018,0.043,0.031,0.055,0.044c0.158,0.117,0.318,0.27,0.492,0.462c2.779-1.399,5.059-1.725,6.834-0.941
			c2.87,1.274,4.459,2.506,4.785,3.68l-1.295-0.356c-0.586-0.171-1.189-0.33-1.797-0.506l-0.025-0.001
			c-2.812-0.866-5.445-0.555-7.931,0.923c-1.153,0.94-1.896,2.124-2.25,3.541l-0.001,0.026c-0.747,3.044-0.075,5.744,2.006,8.087
			l0.02,0.027c1.626,1.872,3.501,2.449,5.605,1.702c-1.215-1.196-2.034-3.396-2.465-6.539l0.918,1.016
			c1.477,1.597,3.009,3.177,4.617,4.717c0.009,0.017,0.021,0.028,0.028,0.042c1.864,1.926,4.147,3.417,6.841,4.463
			c2.693,1.043,5.637,1.463,8.829,1.231c1.044-0.074,1.95-0.217,2.745-0.422c-0.897,0.543-1.849,1.021-2.869,1.403
			c-3.25,1.246-6.552,1.282-9.908,0.104c-2.471-0.869-4.682-2.181-6.627-3.936c-3.732,1.906-6.997,1.242-9.782-1.98l-0.011-0.018
			c-2.703-3.066-3.576-6.582-2.6-10.562c0.375-1.549,1.08-2.894,2.124-4.027c-0.021-0.028-0.044-0.058-0.075-0.074
			c-2.37-1.879-3.479-4.195-3.303-6.95c-0.053-0.237-0.059-0.491,0.008-0.74l0.035-0.094c0.536-3.961,2.623-6.644,6.282-8.06
			c0.819-0.31,1.653-0.545,2.479-0.736c-0.905-0.053-1.902,0.03-2.989,0.247c-2.903,0.548-5.521,0.159-7.838-1.179
			c-2.489-1.372-3.757-3.7-3.76-6.962c-0.137-3.351,2.331-5.769,7.412-7.272c0.077-0.016,0.149-0.028,0.204-0.047
			c6.96-0.974,12.336-0.628,16.145,1.019c3.905,1.66,7.461,3.872,10.678,6.65c0.683,0.571,1.315,1.163,1.941,1.775
			c0.014,0.015,0.014,0.015,0.023,0.028c2.263,2.329,4.283,4.874,6.037,7.635c0.547,0.812,1.074,1.635,1.581,2.452
			c0.021,0.026,0.04,0.053,0.051,0.065c1.239,2.239,2.136,4.616,2.668,7.165c0.707,3.277,0.891,6.576,0.543,9.892l0.012,0.016
			c-0.208,2.344-0.827,4.555-1.841,6.62c0.663-5.273,0.479-9.824-0.561-13.644c-1.019-3.815-2.091-6.727-3.201-8.714
			C205.961,140.273,205.451,139.48,204.928,138.695"/>
		<path fill="#009FE8" d="M204.918,138.683l0.01,0.012c0.523,0.785,1.033,1.579,1.529,2.36c1.112,1.988,2.184,4.898,3.201,8.713
			c1.041,3.821,1.225,8.373,0.563,13.645c-0.446,0.933-0.978,1.836-1.583,2.724c-0.018,0.033-0.035,0.067-0.076,0.099
			c-0.149,0.225-0.297,0.424-0.456,0.636c-0.261,0.417-0.644,1.041-1.127,1.867c-0.591,1.045-1.72,1.792-3.38,2.242
			c-0.795,0.205-1.701,0.348-2.745,0.422c-3.193,0.231-6.136-0.188-8.828-1.232c-2.697-1.044-4.976-2.535-6.842-4.462
			c-0.009-0.013-0.019-0.027-0.028-0.041c-1.609-1.542-3.141-3.122-4.617-4.717l-0.918-1.017c0.43,3.145,1.249,5.342,2.464,6.538
			c-2.104,0.748-3.979,0.171-5.605-1.699l-0.02-0.029c-2.081-2.341-2.753-5.042-2.005-8.087l0.002-0.026
			c0.35-1.418,1.097-2.602,2.248-3.539c2.485-1.477,5.117-1.792,7.932-0.925l0.023,0.004c0.609,0.172,1.213,0.332,1.801,0.503
			l1.291,0.358c-0.326-1.171-1.914-2.407-4.783-3.682c-1.775-0.784-4.055-0.46-6.835,0.942c-0.173-0.191-0.333-0.348-0.491-0.463
			c-0.011-0.014-0.02-0.025-0.055-0.044c-1.675-1.318-2.434-2.935-2.297-4.877c0.025-0.106,0.014-0.206,0.003-0.305l0.005-0.048
			c0.356-2.937,1.876-4.938,4.56-5.963c2.452-0.934,4.979-1.162,7.558-0.657l0.021,0.003l0.026,0.005
			c1.619,0.274,3.173,0.799,4.658,1.569l1.226,0.603c-1.637-2.857-3.344-4.473-5.104-4.815c-1.477-1.035-2.525-1.667-3.154-1.94
			c-1.91-0.874-4.322-1.029-7.228-0.482c-2.216,0.403-4.214,0.117-5.976-0.873c-1.563-0.927-2.368-2.464-2.383-4.595
			c0.127-2.041,1.914-3.582,5.352-4.611c6.293-0.864,11.162-0.58,14.6,0.836c3.641,1.543,6.971,3.603,9.959,6.196l0.009,0.013
			c0.628,0.529,1.228,1.079,1.802,1.648l-0.011-0.012C201.374,133.674,203.262,136.076,204.918,138.683L204.918,138.683z"/>
	</g>
</g>
<g id="_x36_" display="none">
</g>
<g id="_x35_" display="none">
</g>
<g id="_x34_" display="none">
</g>
<g id="_x33_" display="none">
</g>
<g id="_x32_" display="none">
</g>
<g id="_x31_" display="none">
	<g display="inline">
		<defs>
			<path id="SVGID_13_" d="M1552.054-232.32c0,5.5-4.5,10-10,10H264.108c-5.5,0-10-4.5-10-10v-27.558v-841.881c0-5.5,4.5-10,10-10
				h1277.945c5.5,0,10,4.5,10,10v839.881V-232.32z"/>
		</defs>
		<clipPath id="SVGID_2_">
			<use xlink:href="#SVGID_13_"  overflow="visible"/>
		</clipPath>
	</g>
</g>
<g id="_x30_" display="none">
</g>
<g id="guide" display="none">
</g>
</svg>
