<?xml version="1.0" encoding="utf-8"?>
<!-- Generator: Adobe Illustrator 16.2.1, SVG Export Plug-In . SVG Version: 6.00 Build 0)  -->
<!DOCTYPE svg PUBLIC "-//W3C//DTD SVG 1.1//EN" "http://www.w3.org/Graphics/SVG/1.1/DTD/svg11.dtd">
<svg version="1.1" xmlns="http://www.w3.org/2000/svg" xmlns:xlink="http://www.w3.org/1999/xlink" x="0px" y="0px" width="346px"
	 height="414.279px" viewBox="0 0 346 414.279" enable-background="new 0 0 346 414.279" xml:space="preserve">
<g id="base">
</g>
<g id="book3">
</g>
<g id="_x38_" display="none">
</g>
<g id="_x37_">
	<g>
		<path fill="#980C27" d="M167.994,216.338c-14.666,1.279-24.053,5.055-28.274,11.499c-4.166,6.057-7.223,13.669-9.165,23
			c-1.945,8.885-3.444,16.885-4.556,24.052c-3.334,15.666,1.223,28.329,13.721,37.829h0.056
			c10.996,8.442,24.441,12.108,40.217,10.997c16.442-1.108,28.441-7.165,35.888-17.995c8.773-12.504,8.718-28.886-0.391-49.217
			c-2.388-5.446-5.444-11.223-9.055-17.331c-4.999-8.5-8.889-14.557-11.667-18.222C191.824,216.563,182.938,215.062,167.994,216.338
			 M168.439,221.117c12.44-1.059,19.944-0.167,22.498,2.721c2.721,3.612,6.442,9.498,11.388,17.776
			c3.498,5.889,6.441,11.499,8.83,16.887c8.167,18.333,8.443,33.164,0.722,44.494c-6.722,9.61-17.44,14.942-32.219,15.887
			c-14.497,1.057-26.829-2.275-36.994-9.941c-10.889-8.391-14.886-19.331-11.997-33.052c0-0.113,0-0.113,0.054-0.167
			c1.055-7.11,2.555-14.999,4.5-23.888c1.775-8.61,4.666-15.721,8.442-21.274C147.439,225.337,155.718,222.228,168.439,221.117"/>
		<path fill="#D56F45" d="M190.938,223.838c-2.555-2.888-10.055-3.774-22.498-2.721c-12.721,1.11-20.998,4.222-24.775,9.442
			c-3.777,5.552-6.668,12.664-8.443,21.276c-1.945,8.887-3.445,16.775-4.5,23.886c-0.054,0.054-0.054,0.054-0.054,0.167
			c-2.892,13.721,1.108,24.665,11.997,33.052c10.163,7.666,22.497,10.997,36.994,9.944c14.777-0.947,25.498-6.279,32.22-15.89
			c7.721-11.33,7.44-26.161-0.723-44.494c-2.389-5.388-5.332-10.999-8.832-16.887C197.38,233.336,193.657,227.45,190.938,223.838"/>
		<path fill="#980C27" d="M182.827,292.607l-0.278-2.054l21.607-6.057l10.165,49.552l8.777,1.942
			c15.945,3.668,27.885,9.445,35.887,17.499c9.386,9.275,11.607,17.275,6.608,23.997h0.054c-4.22,6.501-13.385,9.277-27.44,8.222
			c-6.108-0.446-13.053-2.278-20.829-5.555c-5.278-2.165-10.999-5.108-17.165-8.666c-0.058-0.109-0.224-0.334-0.389-0.39
			c-0.225-0.221-0.503-0.5-0.777-0.776c-0.111-0.113-0.279-0.224-0.446-0.277c-0.055-0.167-0.221-0.333-0.221-0.499
			c-0.554-0.722-1-1.67-1.447-2.723c-0.886-2.278-1.665-4.558-2.441-6.944c-0.166-0.501-0.274-0.944-0.39-1.389
			c-1.389-4.39-2.5-8.831-3.331-13.443c-1.556-8.833-3.112-17.776-4.499-26.609C184.991,309.829,183.826,301.273,182.827,292.607
			 M212.546,338.935c-0.669-0.054-1.277-0.108-1.835-0.167l-10.108-48.327l-12.833,3.667c1.002,7.89,2.056,15.778,3.222,23.554
			c1.389,8.888,2.89,17.72,4.444,26.553c1.389,7.332,3.441,14.389,6.278,21.273l0.108,0.446c0.057,0.054,0.057,0.054,0.057,0.112
			c5.499,3.832,11.223,7.055,17.218,9.718c2.613,1.055,5.17,2.003,7.614,2.777c4.276,1.336,8.162,2.11,11.83,2.392
			c11.776,0.943,19.496-1.169,23.166-6.167c3.054-4.942,1.055-10.887-6.057-17.888c-8.002-7.832-19.995-13.386-36.107-16.831
			l-3.944-0.498C214.603,339.323,213.544,339.102,212.546,338.935"/>
		<path fill="#D72C1B" d="M210.711,338.768c0.557,0.059,1.166,0.113,1.835,0.167c0.998,0.167,2.057,0.389,3.053,0.614l3.946,0.498
			c16.11,3.445,28.104,8.999,36.105,16.831c7.108,7.001,9.11,12.945,6.057,17.888c-3.67,5-11.39,7.11-23.166,6.167
			c-3.666-0.281-7.554-1.056-11.83-2.392c-2.446-0.774-5.001-1.723-7.611-2.777c-5.998-2.665-11.72-5.886-17.223-9.718
			c0-0.059,0-0.059-0.053-0.112l-0.11-0.446c-2.835-6.885-4.89-13.941-6.279-21.273c-1.554-8.833-3.055-17.666-4.442-26.553
			c-1.167-7.775-2.221-15.664-3.223-23.554l12.833-3.667L210.711,338.768z"/>
		<path fill="#980C27" d="M174.604,294.663c-0.388,0.334-0.723,0.781-0.831,1.335l-13.555,50.326c-0.056,0-0.056,0.11-0.056,0.11
			l-2.39,8.777c-0.612,1.335-1.445,2.724-2.443,4.109c-4.611,6.555-11.108,11.945-19.386,16.112
			c-8.223,4.055-15.889,5.721-22.941,4.941h-0.059c-6.33-0.72-10.387-3.331-12.054-7.888c-1.556-4.887-0.221-10.386,4.055-16.497
			h-0.058c4.615-6.667,11.113-11.943,19.334-16.11c7.442-3.666,14.389-5.331,20.942-5.108l1.946,0.055l12.829-47.162
			c0.167-0.721,0.114-1.334-0.22-1.887c-0.113-0.167-0.224-0.335-0.392-0.502c-0.278-0.335-0.666-0.554-1.109-0.61
			c-0.669-0.223-1.279-0.113-1.832,0.221c-0.613,0.334-0.945,0.834-1.168,1.444l-11.888,43.553
			c-6.609,0.055-13.667,1.944-21.221,5.606c-9.107,4.558-16.165,10.391-21.22,17.668c-5.335,7.722-6.943,14.664-4.612,20.943
			c2.112,6.44,7.501,10.163,16.168,11.108c7.888,0.943,16.442-0.889,25.609-5.389c9.163-4.5,16.273-10.444,21.272-17.719
			c1.11-1.611,2.113-3.167,2.889-4.668c0.058-0.108,0.058-0.223,0.111-0.331c1.667-3.392,2.556-6.612,2.667-9.666l13.443-50.161
			c0.167-0.668,0.109-1.277-0.225-1.831c-0.11-0.283-0.33-0.504-0.554-0.668c-0.278-0.223-0.555-0.445-0.944-0.502
			c-0.668-0.166-1.22-0.108-1.831,0.279C174.771,294.605,174.716,294.605,174.604,294.663"/>
		<path fill="#D72C1B" d="M173.772,295.998c0.108-0.556,0.443-1.001,0.831-1.335c0.113-0.055,0.166-0.055,0.28-0.111
			c0.61-0.386,1.163-0.444,1.831-0.276c0.39,0.056,0.666,0.276,0.944,0.501c-0.055-1-0.278-1.944-0.668-2.891
			c-1.276-3.165-3.721-5.278-7.107-6.222c-2.78-0.833-5.723-1.109-8.778-0.945c-0.222,0.112-0.498,0.167-0.777,0.225
			c-0.334,0.112-0.668,0.222-1.001,0.332c0.17,0.167,0.278,0.335,0.39,0.501c0.336,0.554,0.389,1.167,0.222,1.888l-12.829,47.165
			l-1.946-0.058c-6.554-0.223-13.496,1.442-20.942,5.108c-8.221,4.167-14.719,9.443-19.331,16.11h0.055
			c-4.275,6.111-5.609,11.611-4.055,16.501c1.667,4.552,5.724,7.164,12.054,7.884h0.058c7.054,0.779,14.72-0.887,22.942-4.945
			c8.277-4.163,14.774-9.552,19.386-16.106c0.998-1.388,1.831-2.776,2.44-4.111l2.393-8.776c0,0,0-0.111,0.056-0.111
			L173.772,295.998z"/>
		<path fill="#D72C1B" d="M241.43,101.407c-1.275-0.945-2.556-1.833-3.888-2.724c-2.724-1.773-5.502-3.442-8.331-4.997
			c-2.334-1.222-4.613-2.277-7.004-3.277c-3.163-1.278-6.327-2.556-9.553-3.777c-3.165-1.222-6.499-2.222-9.832-3.054
			c-0.164,0-0.275-0.113-0.443-0.113c3.278-6.164,4.443-12.609,3.499-19.275c-1.278-8.832-5.665-15.832-13.109-21.054
			c-7.442-5.276-15.886-7.22-25.22-5.888c-9.276,1.333-16.777,5.555-22.443,12.721c-2.109,2.612-3.718,5.332-4.831,8.166
			c-0.331-0.389-0.666-0.777-0.94-1.11c-1.561-1.556-3.281-2.999-5.229-4.222c-2.438-1.555-4.939-2.834-7.497-3.834
			c-3.056-1.166-6.163-1.889-9.499-2.055c-2.833-0.166-5.667-0.112-8.331,0.391c-2.78,0.387-5.442,1.11-7.997,2.221
			c-3.003,1.11-5.781,2.721-8.279,4.72c-2.221,1.724-4.111,3.666-5.834,5.833c-1.998,2.557-3.665,5.334-4.774,8.445
			c-1.111,2.887-1.78,5.999-1.89,9.166c-0.167,2.777,0.055,5.499,0.612,8.273c0.663,3.168,1.721,6.057,3.275,8.891
			c0.556,1.221,1.777,2.775,3.555,4.775c-2.108,1.279-4.219,2.558-6.275,3.891c-2.056,1.277-4.11,2.664-6.11,4.109
			c-2.944,2.109-5.835,4.334-8.667,6.775c-2.221,1.945-4.333,3.891-6.334,5.892c-2.277,2.333-4.387,4.722-6.444,7.22
			c-1.887,2.277-3.718,4.724-5.386,7.221c-1.556,2.333-3.057,4.836-4.333,7.333c-1.277,2.499-2.332,4.999-3.222,7.61
			c-1.055,3.11-1.835,6.333-2.335,9.608c-0.556,3.223-0.831,6.501-0.831,9.835c0,3.388,0.275,6.719,0.887,10.054
			c0.612,3.333,1.446,6.556,2.556,9.722c1.112,3.054,2.503,6.11,4.167,8.941c1.665,2.943,3.612,5.61,5.778,8.165
			c2.167,2.727,4.664,5.225,7.276,7.612c2.22,1.999,4.444,3.892,6.943,5.609c2.557,1.782,5.165,3.558,7.94,5.057
			c2.894,1.666,5.891,3.221,9.002,4.665c3.112,1.444,6.278,2.723,9.442,3.945c3.167,1.222,6.503,2.276,9.832,3.22
			c3.336,0.947,6.723,1.668,10.109,2.336c3.556,0.664,7.056,1.22,10.5,1.609c3.612,0.39,7.224,0.668,10.832,0.832
			c2.779,0.112,5.556,0.226,8.331,0.057c2.779-0.057,5.67-0.167,8.504-0.278c2.886-0.221,5.776-0.443,8.717-0.776
			c2.946-0.332,5.891-0.779,8.833-1.277c2.892-0.446,5.777-0.944,8.666-1.555c2.835-0.556,5.611-1.225,8.391-1.946
			c2.663-0.667,5.385-1.389,8.056-2.333c3.439-1.11,6.939-2.334,10.275-3.61c3.331-1.334,6.554-2.777,9.776-4.334
			c3.108-1.608,6.165-3.277,9.163-4.999c2.945-1.777,5.834-3.609,8.665-5.611c2.778-1.996,5.504-4.109,8.112-6.332
			c2.611-2.221,5.113-4.498,7.497-6.942c2.222-2.222,4.447-4.609,6.502-7.054c0.719-0.891,1.388-1.779,2.108-2.668
			c1.168-1.5,2.279-3.055,3.277-4.666c1.999-2.943,3.779-6.11,5.276-9.33c1.447-3.057,2.672-6.222,3.559-9.445
			c0.891-3.223,1.499-6.498,1.831-9.889c0.334-3.331,0.388-6.664,0.113-9.998c-0.225-3.442-0.779-6.776-1.557-10.111
			c-0.779-3.219-1.831-6.389-3.109-9.554c-1.276-2.999-2.831-5.943-4.67-8.663c-1.886-2.89-3.995-5.613-6.275-8.113
			c-2.441-2.721-5.053-5.109-7.888-7.332C243.762,103.186,242.65,102.299,241.43,101.407"/>
		<path fill="none" stroke="#D56F45" stroke-width="0.5562" d="M241.43,101.407c-1.275-0.945-2.556-1.833-3.888-2.724
			c-2.724-1.773-5.502-3.442-8.331-4.997c-2.334-1.222-4.613-2.277-7.004-3.277c-3.163-1.278-6.327-2.556-9.553-3.777
			c-3.165-1.222-6.499-2.222-9.832-3.054c-0.164,0-0.275-0.113-0.443-0.113c3.278-6.164,4.443-12.609,3.499-19.275
			c-1.278-8.832-5.665-15.832-13.109-21.054c-7.442-5.276-15.886-7.22-25.22-5.888c-9.276,1.333-16.777,5.555-22.443,12.721
			c-2.109,2.612-3.718,5.332-4.831,8.166c-0.331-0.389-0.666-0.777-0.94-1.11c-1.561-1.556-3.281-2.999-5.229-4.222
			c-2.438-1.555-4.939-2.834-7.497-3.834c-3.056-1.166-6.163-1.889-9.499-2.055c-2.833-0.166-5.667-0.112-8.331,0.391
			c-2.78,0.387-5.442,1.11-7.997,2.221c-3.003,1.11-5.781,2.721-8.279,4.72c-2.221,1.724-4.111,3.666-5.834,5.833
			c-1.998,2.557-3.665,5.334-4.774,8.445c-1.111,2.887-1.78,5.999-1.89,9.166c-0.167,2.777,0.055,5.499,0.612,8.273
			c0.663,3.168,1.721,6.057,3.275,8.891c0.556,1.221,1.777,2.775,3.555,4.775c-2.108,1.279-4.219,2.558-6.275,3.891
			c-2.056,1.277-4.11,2.664-6.11,4.109c-2.944,2.109-5.835,4.334-8.667,6.775c-2.221,1.945-4.333,3.891-6.334,5.892
			c-2.277,2.333-4.387,4.722-6.444,7.22c-1.887,2.277-3.718,4.724-5.386,7.221c-1.556,2.333-3.057,4.836-4.333,7.333
			c-1.277,2.499-2.332,4.999-3.222,7.61c-1.055,3.11-1.835,6.333-2.335,9.608c-0.556,3.223-0.831,6.501-0.831,9.835
			c0,3.388,0.275,6.719,0.887,10.054c0.612,3.333,1.446,6.556,2.556,9.722c1.112,3.054,2.503,6.11,4.167,8.941
			c1.665,2.943,3.612,5.61,5.778,8.165c2.167,2.727,4.664,5.225,7.276,7.612c2.22,1.999,4.444,3.892,6.943,5.609
			c2.557,1.782,5.165,3.558,7.94,5.057c2.894,1.666,5.891,3.221,9.002,4.665c3.112,1.444,6.278,2.723,9.442,3.945
			c3.167,1.222,6.503,2.276,9.832,3.22c3.336,0.947,6.723,1.668,10.109,2.336c3.556,0.664,7.056,1.22,10.5,1.609
			c3.612,0.39,7.224,0.668,10.832,0.832c2.779,0.112,5.556,0.226,8.331,0.057c2.779-0.057,5.67-0.167,8.504-0.278
			c2.886-0.221,5.776-0.443,8.717-0.776c2.946-0.332,5.891-0.779,8.833-1.277c2.892-0.446,5.777-0.944,8.666-1.555
			c2.835-0.556,5.611-1.225,8.391-1.946c2.663-0.667,5.385-1.389,8.056-2.333c3.439-1.11,6.939-2.334,10.275-3.61
			c3.331-1.334,6.554-2.777,9.776-4.334c3.108-1.608,6.165-3.277,9.163-4.999c2.945-1.777,5.834-3.609,8.665-5.611
			c2.778-1.996,5.504-4.109,8.112-6.332c2.611-2.221,5.113-4.498,7.497-6.942c2.222-2.222,4.447-4.609,6.502-7.054
			c0.719-0.891,1.388-1.779,2.108-2.668c1.168-1.5,2.279-3.055,3.277-4.666c1.999-2.943,3.779-6.11,5.276-9.33
			c1.447-3.057,2.672-6.222,3.559-9.445c0.891-3.223,1.499-6.498,1.831-9.889c0.334-3.331,0.388-6.664,0.113-9.998
			c-0.225-3.442-0.779-6.776-1.557-10.111c-0.779-3.219-1.831-6.389-3.109-9.554c-1.276-2.999-2.831-5.943-4.67-8.663
			c-1.886-2.89-3.995-5.613-6.275-8.113c-2.441-2.721-5.053-5.109-7.888-7.332C243.762,103.186,242.65,102.299,241.43,101.407z"/>
		<path fill="none" stroke="#980C27" stroke-width="4.3884" stroke-linecap="round" stroke-linejoin="round" d="M202.378,83.465
			c0.169,0,0.278,0.11,0.446,0.11c3.331,0.833,6.665,1.835,9.832,3.057c3.221,1.222,6.388,2.497,9.555,3.777
			c2.387,1,4.666,2.054,7,3.277c2.829,1.555,5.608,3.221,8.331,4.997c1.332,0.891,2.608,1.781,3.887,2.722
			c1.225,0.89,2.333,1.78,3.5,2.726c2.833,2.221,5.446,4.607,7.886,7.333c2.281,2.497,4.392,5.22,6.28,8.108
			c1.832,2.722,3.387,5.666,4.667,8.665c1.277,3.165,2.332,6.335,3.107,9.558c0.779,3.331,1.335,6.665,1.559,10.107
			c0.274,3.332,0.221,6.667-0.113,9.998c-0.332,3.389-0.942,6.667-1.831,9.89c-0.89,3.223-2.111,6.388-3.558,9.444
			c-1.498,3.219-3.275,6.387-5.275,9.331c-1.001,1.608-2.111,3.165-3.275,4.665c-0.725,0.891-1.391,1.775-2.112,2.666
			c-2.058,2.446-4.279,4.832-6.502,7.054c-2.387,2.446-4.889,4.72-7.497,6.945c-2.608,2.222-5.334,4.334-8.112,6.333
			c-2.831,2-5.72,3.832-8.664,5.609c-3,1.722-6.056,3.391-9.164,4.999c-3.225,1.557-6.446,3.002-9.776,4.334
			c-3.336,1.276-6.836,2.5-10.275,3.61c-2.668,0.943-5.393,1.666-8.058,2.333c-2.777,0.724-5.556,1.39-8.388,1.946
			c-2.89,0.61-5.775,1.108-8.666,1.556c-2.94,0.497-5.888,0.94-8.832,1.275c-2.942,0.334-5.831,0.557-8.719,0.777
			c-2.836,0.109-5.725,0.222-8.502,0.278c-2.777,0.169-5.554,0.056-8.333-0.057c-3.611-0.168-7.22-0.442-10.831-0.832
			c-3.446-0.39-6.945-0.945-10.501-1.609c-3.387-0.668-6.773-1.389-10.109-2.338c-3.329-0.941-6.664-1.996-9.828-3.219
			c-3.168-1.222-6.334-2.5-9.446-3.944c-3.108-1.444-6.108-3-8.998-4.663c-2.779-1.501-5.391-3.28-7.944-5.059
			c-2.499-1.722-4.724-3.61-6.943-5.607c-2.612-2.39-5.112-4.89-7.276-7.614c-2.166-2.555-4.114-5.222-5.778-8.164
			c-1.664-2.832-3.056-5.889-4.163-8.942c-1.113-3.167-1.947-6.389-2.56-9.722c-0.611-3.33-0.887-6.666-0.887-10.054
			c0-3.334,0.275-6.61,0.831-9.835c0.503-3.275,1.277-6.498,2.336-9.608c0.889-2.611,1.943-5.111,3.222-7.61
			c1.275-2.497,2.776-5,4.332-7.333c1.668-2.497,3.499-4.943,5.388-7.222c2.056-2.5,4.168-4.888,6.443-7.22
			c2-2,4.111-3.945,6.333-5.891c2.832-2.441,5.722-4.664,8.667-6.773c2-1.447,4.055-2.834,6.106-4.111
			c2.058-1.334,4.172-2.611,6.279-3.892"/>
		<path fill="none" stroke="#980C27" stroke-width="4.3884" stroke-linecap="round" stroke-linejoin="round" d="M87.446,99.629
			c-1.777-2-2.999-3.555-3.555-4.775c-1.555-2.834-2.612-5.723-3.275-8.889c-0.558-2.776-0.779-5.497-0.612-8.275
			c0.109-3.167,0.778-6.279,1.89-9.166c1.109-3.111,2.776-5.889,4.774-8.445c1.723-2.167,3.613-4.109,5.834-5.833
			c2.498-1.999,5.276-3.609,8.279-4.72c2.555-1.11,5.217-1.834,7.997-2.221c2.664-0.501,5.498-0.557,8.331-0.391
			c3.336,0.166,6.443,0.889,9.499,2.055c2.558,1.002,5.059,2.279,7.497,3.834c1.947,1.223,3.668,2.666,5.229,4.222
			c0.274,0.333,0.609,0.722,0.94,1.11c1.113-2.832,2.722-5.554,4.832-8.164c5.665-7.168,13.166-11.39,22.442-12.723
			c9.334-1.332,17.777,0.611,25.22,5.889c7.444,5.221,11.831,12.223,13.109,21.053c0.944,6.666-0.221,13.111-3.499,19.277"/>
		<path fill="#FFFFFF" d="M203.768,64.634c-1.167-8.332-5.278-14.998-12.332-19.942c-6.998-5.053-14.941-6.889-23.72-5.665
			c-8.776,1.276-15.833,5.277-21.163,12.108c-2.723,3.39-4.614,6.999-5.61,10.888c-0.447-0.666-0.891-1.276-1.392-1.942
			c-0.5-0.556-1.054-1.167-1.552-1.721c-1.501-1.504-3.168-2.89-5.002-4.056c-2.22-1.446-4.611-2.612-7.053-3.612
			c-2.89-1.111-5.89-1.778-9.003-2c-2.665-0.111-5.273,0-7.887,0.445c-2.667,0.387-5.164,1.056-7.609,2.055
			c-2.833,1.109-5.444,2.61-7.832,4.498c-2.058,1.612-3.888,3.502-5.558,5.557c-1.83,2.389-3.386,5.055-4.497,7.944
			c-1.055,2.777-1.665,5.665-1.776,8.721c-0.113,2.556,0.111,5.221,0.608,7.832c0.61,2.944,1.613,5.722,3.057,8.442
			c0.666,1.223,1.443,2.444,2.274,3.5c0.892,1.114,1.893,2.168,2.947,3.166c2.166,1.945,4.609,3.555,7.277,4.835
			c2.612,1.332,5.389,2.22,8.22,2.832c3.002,0.612,6.056,0.778,9.056,0.667c3.222-0.166,6.277-0.612,9.222-1.613
			c2.834-0.999,5.498-2.388,7.943-4.164c2.056-1.502,3.945-3.334,5.612-5.331c1.663-2.057,3.054-4.224,4.22-6.612
			c0.557-1.332,1.111-2.725,1.611-4.113c0.223-0.664,0.391-1.442,0.61-2.162c2,3.22,4.722,6.162,8.224,8.551
			c6.996,5.001,14.941,6.889,23.718,5.611c8.777-1.274,15.89-5.276,21.164-12.055C202.935,80.521,204.988,72.967,203.768,64.634"/>
		<path fill="#332C2A" d="M102.78,74.188c2.219-3.832,5.5-6.332,9.721-7.441c4.331-1.167,8.33-0.612,12.219,1.554
			c3.834,2.222,6.333,5.443,7.444,9.722c1.166,4.278,0.61,8.276-1.609,12.109c-2.226,3.833-5.39,6.332-9.724,7.444
			c-4.222,1.166-8.276,0.61-12.108-1.555c-3.832-2.223-6.278-5.444-7.444-9.723C100.112,82.021,100.613,78.078,102.78,74.188"/>
		<path fill="#332C2A" d="M176.827,62.857c-3.166-3.056-7.001-4.498-11.387-4.444c-4.447,0.165-8.167,1.778-11.222,4.998
			c-3.058,3.167-4.556,6.945-4.446,11.388c0.168,4.389,1.779,8.055,4.945,11.164c3.277,3.057,6.997,4.5,11.442,4.447
			c4.388-0.113,8.056-1.779,11.167-5c3.053-3.168,4.498-6.999,4.442-11.388C181.657,69.635,180.048,65.912,176.827,62.857"/>
		<path fill="#332C2A" d="M187.988,151.791c-10.997,2.391-22.106,4.498-33.328,6.167c-11.274,1.664-22.719,2.83-34.383,3.554
			c-11.611,0.724-24.052,0.168-37.218-1.777l-15.722-3.167c10.997,30.664,32.327,47.439,64.216,50.328
			c9.276,0.889,19.053,0.445,29.218-1.277c0.112-0.057,0.168-0.057,0.222-0.057c10.275-1.22,19.723-3.499,28.438-6.999
			c29.779-11.774,45.555-33.886,47.387-66.379l-14.164,7.498C210.543,145.236,199.047,149.236,187.988,151.791"/>
		<path fill="#332C2A" d="M153.384,155.457v0.109c0.223-0.109,0.335-0.166,0.389-0.166L153.384,155.457z"/>
		<path fill="#E68B00" d="M176.658,110.351c-1.442-8.276-5.386-14.774-12.053-19.718c-6.61-4.833-13.888-6.611-21.941-5.334
			c-7.999,1.39-14.335,5.389-19.111,12.165c-4.662,6.776-6.333,14.222-4.997,22.443c1.389,8.22,5.332,14.774,11.999,19.606
			c6.609,4.946,13.886,6.723,21.884,5.334c8.056-1.277,14.389-5.278,19.113-12.053C176.271,126.016,177.991,118.574,176.658,110.351
			"/>
		<path fill="#980C27" d="M193.38,244.503c0.111-0.056,0.166-0.056,0.277-0.056c20.664-2.22,40.552-5.223,59.604-9.057l1.777-0.388
			c0.111,1.335,0.389,2.668,0.666,3.944l-1.501,0.277c-19.218,3.89-39.271,6.946-60.157,9.166c-0.556,0.057-1.056-0.055-1.499-0.39
			c-0.391-0.386-0.669-0.831-0.724-1.332c0-0.555,0.113-1,0.447-1.498c0.108-0.165,0.329-0.28,0.498-0.389
			C192.935,244.67,193.158,244.558,193.38,244.503"/>
		<path fill="#980C27" d="M186.271,232.781c-0.113,0-0.225,0.058-0.277,0c-0.447,0-0.834-0.165-1.224-0.387
			c-0.447-0.334-0.723-0.833-0.723-1.334c-0.056-0.609,0.056-1.057,0.443-1.501c0.279-0.389,0.722-0.667,1.278-0.667
			c24.33-2.888,47.717-6.333,70.215-10.497c-0.391,1.389-0.666,2.775-0.888,4.222c-21.887,3.997-44.662,7.387-68.27,10.108
			C186.604,232.781,186.437,232.781,186.271,232.781"/>
		<path fill="#980C27" d="M262.816,235.668c0.665,2.058,1.776,3.78,3.332,5.277c4.501,4.667,10.112,7.111,16.776,7.334h0.166v-0.056
			h0.112c0.168,0,0.277,0.056,0.444,0.056c0.111,0,0.111,0,0.223-0.056v0.056h0.112c0.054,0.168,0.162,0.39,0.333,0.558
			c0.164,0.332,0.332,0.609,0.442,0.943c0.223,0.387,0.445,0.722,0.67,0.997c1.941,3.002,3.939,5.501,6.163,7.391h0.054
			c2.336,1.999,5.334,2.89,9.113,2.777c0.665-0.113,1.055-0.277,1.275-0.778c0.391-0.276,0.614-0.833,0.614-1.555
			c0-2.775-0.614-5.442-1.727-8.11c-0.33-0.666-0.665-1.333-0.945-1.888c-0.551-1.111-1.107-2.165-1.772-3.221
			c0.553,0.388,1.163,0.721,1.719,1.056c0.502,0.33,1.057,0.608,1.56,0.999c0.218,0.055,0.331,0.167,0.552,0.22
			c3.559,2.557,6.889,3.279,10.056,2.277c2.609-0.945,3.887-2.442,3.833-4.333c0-0.277,0-0.497,0.054-0.722
			c-0.444-1.278-1.221-2.388-2.389-3.499c-0.61-0.723-1.277-1.333-2.11-1.889c-2.555-1.72-5.275-3.279-8.055-4.61
			c-1.723-0.834-3.446-1.557-5.219-2.276c0.389,0,0.83,0.057,1.163,0.109c2.943,0.334,5.889,0.334,8.888,0.167
			c0.78-0.054,1.558-0.167,2.276-0.334c2.338-0.223,4.112-0.724,5.278-1.498c0.167-0.167,0.335-0.389,0.447-0.609
			c0.387-0.892,0.445-1.837,0.108-2.67c-0.221-0.721-0.664-1.388-1.276-1.943v-0.055c-0.609-0.611-1.335-1.112-2.111-1.5v-0.058
			c-2.446-1.219-4.997-2.276-7.555-3.055h-0.054c-2.001-0.611-4.059-1.166-6.168-1.501c0,0-0.667-0.221-1.944-0.498
			c-1.277-0.333-2.999-0.613-5.223-0.889c-2.163-0.222-4.497-0.503-6.997-0.667c0-0.111,0-0.111,0.112-0.166
			c0.164-0.058,0.33-0.111,0.497-0.111c0.892-0.277,1.779-0.555,2.669-0.834c1.277-0.278,2.776-0.775,4.387-1.609
			c1.778-0.891,2.947-1.556,3.444-2.057c0.443-0.501,0.722-1.277,0.887-2.276c-0.054-4.387-2.274-6.609-6.775-6.723h-0.055
			c-4.774,0.169-8.774,1.277-11.89,3.39c-2.997,1.667-5.442,4.221-7.331,7.608c-0.278,0.445-0.5,0.835-0.776,1.278
			c-0.169,0.222-0.334,0.447-0.611,0.611c-1.224,1.053-2.329,2.168-3.445,3.277c-0.167,0.226-0.389,0.278-0.555,0.389
			c-1.553,0.5-3.054,0.945-4.609,1.111c-1.944,0.391-3.891,0.721-5.889,1.112c0.226-1.446,0.5-2.833,0.888-4.222
			c1.777-0.334,3.555-0.615,5.332-0.945l2.333-0.498l1.279-1.388c0.279-0.17,0.498-0.447,0.775-0.727
			c0.836-0.666,1.562-1.498,2.223-2.388c0.333-0.498,0.723-0.945,0.999-1.443c2.057-2.611,4.278-4.777,6.665-6.444
			c3.171-2.278,8.11-3.833,14.723-4.666v-0.056c7.222,0.168,10.775,3.776,10.666,10.831v0.168c-0.17,1.833-0.831,3.444-2.056,4.776
			c2.609,0.333,5.165,0.947,7.721,1.776c2.778,0.835,5.5,1.946,8.168,3.279v0.057c1.164,0.498,2.222,1.329,3.108,2.332
			c1.002,0.945,1.725,2.055,2.169,3.333v0.057c0.664,1.887,0.555,3.664-0.113,5.502c-0.443,0.995-0.999,1.772-1.832,2.332
			c-1.11,0.828-2.721,1.554-4.776,1.939c3.442,2.112,5.609,4.612,6.441,7.612v0.057c0.167,0.388,0.226,0.777,0.28,1.164
			c0,0.278,0,0.613-0.113,0.889c0.113,3.558-2.056,6.109-6.555,7.778c-2.776,0.945-5.555,0.945-8.444-0.055
			c0.777,2.33,1.166,4.22,1.166,5.665c0,3.554-1.719,5.391-5.164,5.556c-4.944,0.222-8.945-0.999-11.942-3.724
			c-2.725-2.334-5.166-5.329-7.39-8.998c-7.053-0.443-13.107-3.168-17.998-8.11c-1.385-1.386-2.556-2.942-3.552-4.609
			c-0.224-0.445-0.446-0.832-0.614-1.279l-3.777,0.782c-0.275-1.28-0.557-2.613-0.666-3.948l7.225-1.388
			C262.427,234.284,262.648,234.949,262.816,235.668 M283.759,248.447L283.759,248.447h-0.111H283.759z"/>
		<path fill="#D72C1B" d="M308.254,232.893c0.78-0.054,1.558-0.166,2.277-0.335c2.337-0.222,4.111-0.722,5.277-1.497
			c0.167-0.167,0.335-0.389,0.447-0.613c0.387-0.888,0.445-1.83,0.108-2.663c-0.221-0.722-0.664-1.391-1.276-1.946v-0.055
			c-0.609-0.611-1.332-1.112-2.111-1.498v-0.059c-2.445-1.22-4.997-2.277-7.555-3.056h-0.054c-2.001-0.61-4.059-1.166-6.168-1.501
			c0,0-0.667-0.221-1.945-0.498c-1.276-0.333-2.998-0.609-5.22-0.889c-2.165-0.223-4.499-0.5-6.995-0.666
			c0-0.112,0-0.112,0.108-0.167c0.167-0.054,0.33-0.112,0.501-0.112c0.887-0.276,1.775-0.557,2.665-0.833
			c1.277-0.276,2.776-0.778,4.387-1.609c1.778-0.891,2.945-1.556,3.444-2.057c0.443-0.497,0.722-1.277,0.892-2.276
			c-0.059-4.388-2.279-6.609-6.779-6.721h-0.057c-4.775,0.165-8.773,1.277-11.887,3.387c-2.999,1.67-5.444,4.223-7.333,7.609
			c-0.276,0.445-0.5,0.835-0.776,1.279c-0.169,0.221-0.334,0.446-0.611,0.611c-1.223,1.055-2.33,2.169-3.445,3.276
			c-0.163,0.225-0.389,0.279-0.555,0.389c-1.554,0.502-3.055,0.945-4.609,1.112c-1.946,0.39-3.891,0.722-5.891,1.107
			c-21.883,4.004-44.662,7.393-68.267,10.113c-0.225,0.055-0.391,0.055-0.556,0.055c-0.113,0-0.224,0.058-0.28,0
			c0.109,0.445,0.167,0.943,0.392,1.391c0.83,2.277,1.941,4.444,3.275,6.389c1.055,1.387,2.054,2.885,3.111,4.222
			c0.165-0.113,0.389-0.225,0.61-0.279c0.111-0.056,0.166-0.056,0.278-0.056c20.663-2.224,40.551-5.221,59.604-9.055l1.777-0.39
			l7.223-1.388c0.165,0.666,0.387,1.334,0.556,2.055c0.664,2.058,1.775,3.778,3.331,5.277c4.501,4.667,10.112,7.109,16.776,7.332
			h0.166v-0.057h0.108c0.172,0,0.281,0.057,0.448,0.057c0.109,0,0.109,0,0.223-0.057v0.057h0.112
			c0.052,0.168,0.162,0.39,0.333,0.558c0.164,0.332,0.332,0.611,0.442,0.943c0.22,0.39,0.445,0.722,0.668,0.999
			c1.947,3,3.941,5.499,6.165,7.389h0.053c2.337,1.999,5.335,2.89,9.114,2.777c0.665-0.111,1.055-0.277,1.276-0.778
			c0.39-0.278,0.612-0.833,0.612-1.556c0-2.776-0.612-5.441-1.726-8.109c-0.332-0.666-0.662-1.333-0.941-1.887
			c-0.555-1.113-1.114-2.166-1.776-3.224c0.553,0.391,1.163,0.723,1.719,1.058c0.502,0.331,1.057,0.608,1.558,0.999
			c0.224,0.054,0.333,0.164,0.555,0.22c3.556,2.556,6.887,3.276,10.055,2.277c2.609-0.943,3.887-2.443,3.833-4.331
			c0-0.276,0-0.499,0.054-0.724c-0.444-1.278-1.221-2.389-2.389-3.499c-0.61-0.723-1.277-1.333-2.11-1.889
			c-2.556-1.722-5.275-3.276-8.055-4.612c-1.719-0.832-3.442-1.555-5.219-2.274c0.387,0,0.832,0.057,1.163,0.11
			C302.312,233.061,305.255,233.061,308.254,232.893"/>
		<path fill="#D72C1B" d="M148.887,247.781c0.055-0.113,0.111-0.222,0.165-0.277c1.499-2.281,2.503-4.832,3-7.609
			c0.387-2.114,0.334-4.168-0.113-6.112c-0.109,0.055-0.222,0.11-0.333,0.11c-0.221,0-0.5,0.055-0.721,0.112
			c-22.717,2.499-44.773,4.164-66.215,5.222l-12.779,0.389c-0.441-0.335-0.832-0.723-1.33-1.057
			c-0.444-0.39-0.892-0.778-1.443-1.055c-1.113-0.723-2.28-1.166-3.558-1.389l-3.61-3.168c-1.832-1.443-3.722-2.5-5.609-3.109
			c-3-0.945-5.556-1.501-7.609-1.557c-1.889-0.055-2.947-0.109-3.168-0.109c-0.554,0.165-1.109,0.275-1.778,0.445h-0.053
			c-4.168,1.109-5.833,3.719-4.889,7.775c0.054,0.055,0.054,0.111,0.109,0.167c0.059,0.166,0.112,0.333,0.221,0.442
			c0.669,1.225,1.668,1.891,3.115,2.169c1.72,0.332,3.441,0.277,5.163-0.111c1.501-0.336,2.888-0.61,4.334-0.778l-0.667,0.335
			c-1.777,0.94-3.445,2.053-4.941,3.331c-0.614,0.499-1.278,0.998-1.891,1.498c-0.555,0.334-1.054,0.669-1.609,1.002
			c-0.225,0.11-0.446,0.222-0.669,0.277c-3.277,1.611-6.662,2.39-10.331,2.333c-3.28-0.056-5.89,0.167-7.778,0.724
			c-1.389,0.388-2.333,1.11-2.89,2.222h-0.054c-0.389,1.166-0.389,2.441,0,3.889c0.557,1.609,1.555,3.055,2.943,4.331
			c0.89,0.724,1.833,1.168,2.947,1.223v-0.055h0.054c0.556-1.114,1.389-1.945,2.442-2.612c0.834-0.608,1.779-1.057,2.779-1.332
			c0.445-0.168,0.942-0.276,1.442-0.335c1.167-0.108,2.221-0.108,3.279-0.166v0.058c-1.497,0.389-2.89,1.108-4.056,2.166
			c-1.501,1.334-2.225,2.89-2.335,4.722c0,0.722,0.057,1.445,0.224,2.167c0.279,1.109,1.054,1.997,2.165,2.552
			c1.447,0.836,2.89,1.058,4.556,0.89L37.621,267c0.163-0.334,0.331-0.667,0.552-0.999c0.28-0.888,0.892-1.725,1.669-2.446
			c1.109-0.998,2.389-1.721,3.722-2.222c1.555-0.499,3.164-0.722,4.831-0.556c1.277,0.057,2.557,0.335,3.668,0.777l1.389,0.557
			c-0.941-0.055-1.944,0-3.054,0.059c-1.392,0.165-2.725,0.442-3.946,0.832c-1.611,0.499-2.997,1.333-3.999,2.61
			c-1.167,1.276-1.555,2.833-1.335,4.5c0.614,2.109,2.28,3.443,5.113,3.888c3.943,0.497,8.108-0.223,12.497-2.112
			c4.334-1.833,7.499-4.833,9.446-8.996c0.163-0.225,0.275-0.445,0.498-0.669c0.223-0.166,0.445-0.276,0.777-0.389
			c0.22-0.054,0.5-0.167,0.723-0.279c3.443-1.33,5.944-3.609,7.445-7.054c0.441-0.998,0.941-1.998,1.387-2.997l10.775-0.226
			c18.553-0.553,37.607-2,57.217-4.389c0.388,0,0.666,0,0.999,0.112c0.109,0.056,0.335,0.165,0.501,0.334
			C148.606,247.448,148.773,247.56,148.887,247.781"/>
		<path fill="#980C27" d="M149.22,248.614c-0.058-0.277-0.17-0.614-0.333-0.833c-0.113-0.224-0.281-0.333-0.391-0.445
			c-0.167-0.166-0.392-0.278-0.501-0.334c-0.333-0.112-0.611-0.112-0.999-0.112c-19.609,2.389-38.664,3.836-57.217,4.391
			l-10.775,0.224c-0.445,0.996-0.945,1.999-1.391,2.997c-1.497,3.444-3.998,5.724-7.444,7.054c-0.22,0.112-0.5,0.226-0.72,0.279
			c-0.334,0.112-0.555,0.223-0.777,0.39c-0.223,0.221-0.331,0.443-0.498,0.668c-1.947,4.165-5.112,7.163-9.446,8.997
			c-4.389,1.889-8.554,2.608-12.497,2.111c-2.835-0.447-4.499-1.777-5.113-3.888c-0.221-1.667,0.168-3.224,1.335-4.5
			c1.002-1.277,2.388-2.113,3.996-2.61c1.225-0.39,2.558-0.67,3.949-0.834c1.109-0.057,2.112-0.111,3.054-0.057l-1.389-0.557
			c-1.111-0.442-2.391-0.721-3.668-0.774c-1.667-0.166-3.276,0.054-4.831,0.553c-1.333,0.501-2.608,1.224-3.722,2.225
			c-0.777,0.722-1.389,1.554-1.667,2.443c-0.223,0.332-0.391,0.665-0.554,0.999l-0.225,0.502c-1.666,0.165-3.109-0.058-4.557-0.89
			c-1.107-0.557-1.888-1.445-2.164-2.555c-0.169-0.724-0.224-1.445-0.224-2.167c0.113-1.832,0.834-3.388,2.335-4.725
			c1.166-1.054,2.555-1.774,4.056-2.163v-0.058c-1.059,0.058-2.113,0.058-3.279,0.166c-0.5,0.057-0.997,0.167-1.445,0.333
			c-0.997,0.277-1.942,0.726-2.776,1.332c-1.054,0.669-1.887,1.5-2.442,2.611h-0.059v0.059c-1.107-0.059-2.053-0.5-2.942-1.224
			c-1.389-1.276-2.387-2.722-2.943-4.331c-0.389-1.442-0.389-2.723,0-3.889h0.054c0.557-1.112,1.501-1.834,2.89-2.222
			c1.889-0.558,4.498-0.779,7.776-0.724c3.667,0.056,7.056-0.722,10.333-2.333c0.223-0.055,0.444-0.167,0.669-0.28
			c0.552-0.33,1.055-0.665,1.609-0.999c0.612-0.497,1.276-0.999,1.891-1.498c1.496-1.278,3.164-2.387,4.941-3.331l0.669-0.335
			c-1.448,0.166-2.835,0.442-4.336,0.778c-1.722,0.389-3.443,0.443-5.163,0.111c-1.447-0.278-2.446-0.944-3.115-2.169
			c-0.108-0.109-0.165-0.277-0.221-0.442c-0.056-0.055-0.056-0.112-0.109-0.167c-0.944-4.057,0.72-6.666,4.889-7.775h0.053
			c0.669-0.17,1.225-0.28,1.778-0.445c0.223,0,1.279,0.055,3.168,0.111c2.054,0.054,4.609,0.609,7.609,1.555
			c1.888,0.608,3.777,1.667,5.609,3.109l3.61,3.166c1.277,0.225,2.444,0.668,3.556,1.391c0.554,0.279,1.001,0.665,1.445,1.055
			c0.498,0.334,0.889,0.722,1.33,1.057l12.779-0.389c21.443-1.058,43.498-2.722,66.215-5.222c0.221-0.059,0.5-0.112,0.723-0.112
			c0.109,0,0.222-0.054,0.331-0.112c0.392-0.111,0.726-0.332,1.001-0.61c0.333-0.389,0.444-0.943,0.391-1.499
			c-0.058-0.556-0.333-0.999-0.778-1.277c-0.388-0.39-0.891-0.556-1.446-0.39c-23.552,2.612-46.386,4.336-68.602,5.335l-9.61,0.276
			c-0.724-0.888-1.667-1.5-2.666-2c-2.723-1.279-5.225-3-7.447-5.112c-1.718-1.166-3.387-1.942-5.163-2.498
			c-3.501-1.166-6.387-1.722-8.832-1.778c-2.5-0.054-3.835-0.054-4.056,0.057h-0.054c-0.557,0.057-1.168,0.167-1.834,0.388h-0.058
			c-6.833,1.723-9.441,6.001-7.833,12.777c0.058,0.056,0.058,0.056,0.058,0.165c0.61,1.835,1.721,3.28,3.331,4.334
			c-2.107,0.725-4.33,1.113-6.607,1.113c-3.833-0.112-6.833,0.222-8.945,0.832c-2.665,0.832-4.443,2.222-5.443,4.331v0.056
			c-0.945,2.002-1.056,4.333-0.224,6.832v0.057c0.779,2.332,2.169,4.335,4.058,6.11h0.056c1.554,1.334,3.334,2.11,5.333,2.279
			c0.166,1.554,1.111,3.389,2.555,5.552c0.112,0.112,0.221,0.225,0.389,0.337c1.665,1.554,4.276,2.332,7.777,2.166
			c0.999,3.607,3.83,5.723,8.387,6.384c4.607,0.614,9.497-0.109,14.61-2.329c5.054-2.165,8.776-5.555,11.165-10.221
			c0.609-0.279,1.276-0.557,1.834-0.779c2.108-1.001,3.833-2.389,5.333-4.111c1.388-1.497,2.332-3.22,3.053-5.055l8.944-0.276
			c18.441-0.611,37.387-2.055,56.828-4.389c0.554-0.059,0.998-0.334,1.388-0.722C149.106,249.667,149.328,249.169,149.22,248.614"/>
		<path fill="#009844" d="M57.617,226.005"/>
		<path fill="#D72C1B" d="M241.149,202.341l-5.163,1c-53.717,14.442-109.098,19.832-166.148,15.998
			c3.832,2.719,8.001,5.167,12.499,7.387c11.385,5.61,24.051,9.277,37.94,11.168c14.44,1.942,29.218,1.722,44.328-0.612
			c7.39-1.17,14.497-2.721,21.441-4.776c6.225-1.999,12.554-4.222,18.999-6.667c6.389-2.5,12.775-5.833,19.164-10.222
			C230.597,211.229,236.266,206.896,241.149,202.341"/>
		<path fill="#D72C1B" d="M162.773,216.84c-3.945,1.166-6.889,2.332-8.889,3.444c-1.499,0.777-2.889,1.773-4.055,3.054
			c-1.225,1.333-2.5,2.721-3.833,4.335c-0.778,0.944-1.442,1.776-1.889,2.333c-0.167,0.222-0.278,0.387-0.444,0.554
			c-3.777,5.552-6.668,12.664-8.443,21.276c-1.945,8.887-3.445,16.775-4.5,23.886c-0.054,0.054-0.054,0.054-0.054,0.167
			c-2.892,13.721,1.108,24.665,11.997,33.052c10.163,7.666,22.497,10.997,36.994,9.944c14.777-0.947,25.498-6.279,32.22-15.89
			c7.721-11.33,7.44-26.161-0.723-44.494c-2.389-5.388-5.332-10.999-8.832-16.887c-3.834-6.5-6.999-11.555-9.498-15.111
			c-0.334-0.833-1.001-1.943-1.888-3.33c-1.446-1.943-2.278-3.056-2.445-3.335c-0.555-0.832-1.055-1.388-1.39-1.777
			c-0.666-0.61-1.667-1.167-2.889-1.443C180.771,215.841,173.66,215.841,162.773,216.84 M160.494,219.449h-0.442l0.386-0.168
			L160.494,219.449z"/>
	</g>
</g>
<g id="_x36_" display="none">
</g>
<g id="_x35_" display="none">
</g>
<g id="_x34_" display="none">
</g>
<g id="_x33_" display="none">
</g>
<g id="_x32_" display="none">
</g>
<g id="_x31_" display="none">
</g>
<g id="_x30_" display="none">
</g>
<g id="guide" display="none">
</g>
</svg>
