<?xml version="1.0" encoding="utf-8"?>
<!-- Generator: Adobe Illustrator 16.2.1, SVG Export Plug-In . SVG Version: 6.00 Build 0)  -->
<!DOCTYPE svg PUBLIC "-//W3C//DTD SVG 1.1//EN" "http://www.w3.org/Graphics/SVG/1.1/DTD/svg11.dtd">
<svg version="1.1" xmlns="http://www.w3.org/2000/svg" xmlns:xlink="http://www.w3.org/1999/xlink" x="0px" y="0px" width="292px"
	 height="505.301px" viewBox="0 0 292 505.301" enable-background="new 0 0 292 505.301" xml:space="preserve">
<g id="base">
</g>
<g id="book3">
</g>
<g id="_x38_" display="none">
</g>
<g id="_x37_">
	<g>
		<path fill="#9EC94C" d="M118.943,252.243c-5.54-10.255-13.896-19.105-25.036-26.538l10.174-31.627
			c15.199,6.837,31.874,23.796,50.082,50.905L118.943,252.243z"/>
		
			<path fill="none" stroke="#245E27" stroke-width="3.2116" stroke-linecap="round" stroke-linejoin="round" stroke-miterlimit="10" d="
			M118.943,252.243c-5.54-10.255-13.896-19.105-25.031-26.538 M104.085,194.078c15.191,6.834,31.87,23.796,50.078,50.905"/>
		<path fill="#245E27" d="M117.937,204.723c-0.166-0.135-0.317-0.249-0.48-0.39c-4.509-3.715-9.115-6.639-13.824-8.746
			c-8.164-3.316-16.049-4.217-23.62-2.693c-7.54,1.556-13.782,5.558-18.762,12.036c-0.968,1.273-1.868,2.475-2.688,3.615l0.001,0.02
			c-1.342,1.822-2.48,3.782-3.396,5.899l-0.021,0.016c-0.215,0.503-0.452,0.997-0.671,1.519c-0.864,2.247-1.595,4.591-2.194,7.004
			c-1.072,6.439-0.673,11.515,1.15,15.202c-0.075-1.013-0.076-2.056-0.014-3.118c0.046-0.872,0.136-1.703,0.252-2.511
			c0.065-0.594,0.168-1.164,0.274-1.735c0.047-0.371,0.115-0.724,0.202-1.073c0.692-3.687,2.294-6.755,4.752-9.217
			c0.28-0.281,0.576-0.545,0.851-0.809c-0.179,0.509-0.351,1-0.53,1.49c-1.566,4.235-2.446,8.699-2.666,13.391
			c-0.029,0.585-0.052,1.152-0.078,1.733c-0.092,2.444,0.341,4.8,1.252,7.021l0.034,0.089c0.651,1.507,1.525,2.947,2.623,4.348
			c2.527,2.251,4.704,2.928,6.532,2.013c2.164-1.249,3.717-2.897,4.666-4.964l-0.003-0.02c1.065-2.287,1.943-4.477,2.658-6.534
			c0.371-1.016,0.893-2.144,1.582-3.37c-2.132-1.01-3.922-2.666-5.376-4.972c-0.055-0.07-0.09-0.16-0.122-0.229
			c-0.631-1.302-1.062-2.617-1.25-3.946c-0.168-1.968,0.018-3.844,0.572-5.632c0.37-1.262,0.892-2.408,1.583-3.412
			c2.365-3.318,5.428-5.687,9.227-7.061c0.326-0.113,0.645-0.219,0.951-0.336c-2.85,2.438-4.82,4.422-5.904,5.945
			c-1.065,1.535-1.615,2.331-1.666,2.424c-0.605,1.207-1.079,2.484-1.443,3.827c-0.335,1.332-0.381,2.701-0.117,4.132
			c0.104,0.951,0.363,1.91,0.764,2.87c1.358,2.099,3.086,3.425,5.232,3.962c0.083,0.001,0.161,0.019,0.236,0.053
			c1.029,0.212,2.145,0.294,3.336,0.214c3.984-0.722,7.012-2.402,9.11-5.047c0.153-0.193,0.317-0.315,0.543-0.41
			c0.228-0.094,0.461-0.098,0.696-0.063c3.963,0.532,7.282,0.22,9.954-0.932c0.305-0.116,0.589-0.221,0.854-0.34
			c2.405-0.933,4.4-2.337,6.007-4.239c0.762-0.871,1.408-1.843,1.981-2.918c-0.089,1.184-0.291,2.256-0.585,3.254
			c-0.803,2.728-2.385,4.843-4.771,6.319c-0.185,0.121-0.375,0.244-0.575,0.36c-3.175,1.754-7.208,2.361-12.078,1.825
			c-2.448,2.851-5.886,4.672-10.323,5.45c-0.059,0.009-0.098,0-0.139,0.005c-1.208,0.075-2.347,0.049-3.422-0.111
			c-0.86,1.438-1.497,2.723-1.921,3.87l0.003-0.02c-0.736,2.138-1.642,4.419-2.75,6.792c-1.164,2.57-3.083,4.627-5.744,6.167
			c-2.923,1.815-6.361,0.902-10.324-2.733c-0.075-0.069-0.146-0.148-0.218-0.231c-1.22-1.551-2.221-3.18-2.98-4.832
			c-5.808-4.212-7.805-11.887-5.932-23.03c0.019-0.036,0.021-0.079,0.026-0.118c0.632-2.544,1.393-5.001,2.306-7.365
			c0.023-0.032,0.024-0.059,0.024-0.074c0.237-0.536,0.474-1.053,0.714-1.589l-0.002,0.015c1.006-2.295,2.241-4.446,3.693-6.42
			l0.021-0.013c0.822-1.163,1.719-2.386,2.712-3.674c5.373-7.025,12.136-11.356,20.312-13.012
			c8.159-1.654,16.625-0.684,25.424,2.892c0.019,0.003,0.036,0.008,0.058,0.032c4.997,2.234,9.883,5.344,14.644,9.279
			c0.112,0.085,0.229,0.17,0.32,0.252c-0.312,0.727-0.705,1.696-1.154,2.938C118.197,204.926,118.069,204.815,117.937,204.723
			L117.937,204.723z"/>
		<path fill="#9EC94C" d="M117.456,204.333c0.163,0.141,0.314,0.255,0.48,0.39c0.133,0.093,0.261,0.203,0.39,0.333
			c-0.096,0.506-0.177,1.021-0.218,1.521c-0.025,0.38,0.107,0.92,0.409,1.658c0.315,0.741,0.438,1.463,0.381,2.204
			c-0.062,0.737-0.114,1.216-0.173,1.425c-0.16,0.515-0.345,1.168-0.562,1.952c-0.054,0.194-0.193,0.446-0.438,0.776
			c-0.062,0.084-0.151,0.209-0.257,0.331c-0.728,2.987-2.325,5.279-4.812,6.847c-0.335,0.205-0.688,0.415-1.033,0.597
			c-0.41-0.091-0.816-0.182-1.222-0.285c0.294-0.998,0.496-2.07,0.583-3.254c-0.571,1.075-1.218,2.047-1.98,2.923
			c-1.605,1.897-3.601,3.302-6.002,4.235c-0.27,0.118-0.554,0.223-0.858,0.339c-2.672,1.151-5.991,1.464-9.954,0.932
			c-0.235-0.034-0.469-0.03-0.696,0.063c-0.226,0.095-0.387,0.218-0.543,0.41c-2.099,2.645-5.126,4.325-9.11,5.047
			c-1.191,0.08-2.307-0.002-3.334-0.214c-0.077-0.034-0.155-0.052-0.238-0.053c-2.146-0.537-3.874-1.863-5.232-3.962
			c-0.4-0.96-0.66-1.919-0.764-2.87c-0.264-1.431-0.221-2.801,0.117-4.132c0.364-1.343,0.836-2.62,1.443-3.827
			c0.051-0.093,0.601-0.889,1.666-2.424c1.084-1.523,3.055-3.508,5.904-5.945c-0.307,0.117-0.625,0.223-0.951,0.336
			c-3.799,1.374-6.861,3.742-9.227,7.061c-0.691,1.004-1.213,2.15-1.583,3.412c-0.555,1.788-0.74,3.664-0.572,5.632
			c0.188,1.329,0.619,2.645,1.25,3.946c0.033,0.069,0.067,0.159,0.118,0.229c1.458,2.306,3.248,3.962,5.38,4.972
			c-0.688,1.227-1.211,2.354-1.582,3.37c-0.715,2.058-1.593,4.247-2.658,6.534l0.003,0.02c-0.949,2.066-2.498,3.716-4.666,4.964
			c-1.828,0.915-4.001,0.239-6.532-2.013c-1.095-1.399-1.972-2.841-2.623-4.348l-0.034-0.089c-0.914-2.223-1.344-4.577-1.256-7.021
			c0.03-0.581,0.053-1.148,0.082-1.733c0.224-4.691,1.1-9.155,2.666-13.391c0.18-0.49,0.354-0.98,0.53-1.49
			c-0.274,0.264-0.57,0.527-0.85,0.81c-2.459,2.46-4.061,5.529-4.753,9.216c-0.087,0.35-0.155,0.702-0.202,1.073
			c-0.106,0.571-0.209,1.142-0.274,1.735c-0.116,0.808-0.203,1.641-0.252,2.511c-0.062,1.062-0.062,2.105,0.014,3.118
			c-1.823-3.688-2.223-8.763-1.15-15.202c0.6-2.413,1.33-4.757,2.194-7.004c0.219-0.521,0.456-1.016,0.671-1.519l0.021-0.016
			c0.916-2.117,2.055-4.077,3.396-5.899l-0.001-0.02c0.82-1.141,1.721-2.342,2.688-3.615c4.98-6.481,11.222-10.48,18.762-12.036
			c7.571-1.523,15.456-0.623,23.62,2.693C108.341,197.694,112.947,200.618,117.456,204.333"/>
		<path fill="#245E27" d="M139.898,156.934l70.626,5.802c-7.846,28.785-7.612,52.727,0.692,71.816
			c0.036,0.023,0.072,0.049,0.082,0.107c0.808,1.433,1.515,2.927,2.141,4.479c5.054,11.63,6.794,24.689,5.217,39.151
			c-2.154,19.87-9.894,36.575-23.214,50.11c-13.179,13.373-28.007,19.738-44.502,19.089c-16.448-0.698-29.771-8.222-39.983-22.554
			c-10.249-14.501-14.296-31.693-12.144-51.541c1.007-9.31,3.251-17.909,6.713-25.816c1.79-4.012,3.9-7.748,6.356-11.207
			c2.993-4.172,5.955-8.306,8.871-12.429l0.028-0.036C131.93,206.792,138.291,184.464,139.898,156.934"/>
		
			<path fill="none" stroke="#245E27" stroke-width="3.1876" stroke-linecap="round" stroke-linejoin="round" stroke-miterlimit="10" d="
			M210.524,162.735c-7.846,28.785-7.612,52.727,0.692,71.816c0.039,0.023,0.072,0.049,0.082,0.107
			c0.805,1.433,1.515,2.927,2.138,4.478c5.057,11.632,6.796,24.691,5.22,39.153c-2.154,19.87-9.896,36.574-23.214,50.11
			c-13.179,13.373-28.007,19.738-44.504,19.095c-16.447-0.704-29.77-8.228-39.975-22.559c-10.256-14.502-14.303-31.694-12.15-51.542
			c1.007-9.31,3.253-17.908,6.713-25.816c1.785-4.013,3.9-7.748,6.356-11.207c2.993-4.172,5.955-8.306,8.871-12.429l0.028-0.036
			c11.147-17.114,17.51-39.442,19.116-66.973L210.524,162.735z"/>
		<path fill="#9EC94C" d="M141.485,158.635l66.912,5.505c-7.457,28.434-7.057,52.114,1.219,71.062
			c0.052,0.062,0.071,0.146,0.096,0.229c0.794,1.39,1.497,2.826,2.107,4.334l-0.008,0.037c4.977,11.422,6.689,24.239,5.153,38.423
			c-2.112,19.502-9.711,35.884-22.775,49.152l-0.021-0.002c-12.753,12.964-27.104,19.146-43.062,18.566
			c-15.924-0.698-28.848-8-38.725-21.896l0.004-0.018c-10.018-14.23-13.967-31.096-11.858-50.575
			c0.991-9.15,3.178-17.596,6.58-25.346c1.705-3.926,3.774-7.567,6.187-10.933l-0.006,0.022c2.957-4.117,5.892-8.218,8.775-12.298
			c0.084-0.073,0.144-0.144,0.184-0.239C133.268,207.702,139.686,185.704,141.485,158.635"/>
		<path fill="#5A6174" d="M68.608,61.679l-3.709,16.82c6.876,4.18,14.59,7.365,23.133,9.561c7.495,1.977,15.011,4.396,22.522,7.279
			c41.264,12.303,89.836,19.831,145.723,22.576l1.826-19.516L68.608,61.679z"/>
		
			<path fill="none" stroke="#737A90" stroke-width="3.1786" stroke-linecap="round" stroke-linejoin="round" stroke-miterlimit="10" d="
			M68.608,61.679l189.495,36.721l-1.826,19.516c-55.887-2.745-104.459-10.273-145.723-22.576
			c-7.512-2.883-15.027-5.303-22.522-7.279c-8.543-2.195-16.257-5.381-23.133-9.561L68.608,61.679z"/>
		<path fill="#9EC94C" d="M193.974,80.739c2.619-2.078,5.528-3.693,8.734-4.87c-10.033-3.163-19.543-3.473-28.538-0.901
			c-4.069-6.58-9.28-10.571-15.619-11.957c0.661,2.596,0.717,4.627,0.146,6.127c-6.082-3.332-12.394-4.916-18.909-4.723
			c2.056,1.769,3.634,4.255,4.708,7.466c-9.971,0.673-17.363,2.403-22.219,5.188c-4.835,2.771-8.675,5.18-11.524,7.204
			c-2.831,2.049-5.103,3.558-6.797,4.499c-1.678,0.949-3.39,1.751-5.121,2.408c-2.114,0.768-4.42,1.229-6.907,1.401
			c0.666,1.353,2.195,2.489,4.586,3.406c-8.62,10.114-14.367,15.679-17.213,16.704c0.774,1.471,2.63,2.531,5.525,3.158l-0.127,0.2
			c-3.86,5.53-7.137,9.358-9.815,11.448c-2.672,2.088-5.214,3.38-7.668,3.876c1.795,3.056,4.075,5.077,6.804,6.06
			c-1.896,7.824-1.683,16.49,0.631,26.009l3.354-3.5c-0.066,1.018-0.09,1.793-0.081,2.331c0.052,5.92,0.938,11.475,2.635,16.658
			c1.043,3.172,2.396,6.226,4.057,9.118c2.173,3.81,4.34,7.078,6.5,9.825l1.876-3.965c4.431,8.01,10.208,14.104,17.335,18.267
			l1.29-3.743c4.409,5.84,9.329,9.896,14.764,12.154c0.688,0.256,1.37,0.512,2.035,0.769c0.717,0.198,1.415,0.338,2.121,0.455
			c0.901,0.146,1.808,0.247,2.722,0.319c0.397-0.002,0.797,0.011,1.196,0.027c0.402-0.007,0.802-0.009,1.203-0.013
			c8.512-0.133,16.49-2.602,23.914-7.433c0.659,2.033,1.055,3.931,1.148,5.688c17.907-1.967,30.307-6.725,37.209-14.234l0.693,6.348
			c15.553-7.062,26.778-17.893,33.686-32.489l2.583,6.585c3.786-4.857,6.119-9.82,7.054-14.917
			c0.934-5.097,1.033-8.546,0.351-10.388c4.328,0.545,8.194-0.177,11.615-2.122c-6.746-6.333-11.506-13.545-14.312-21.609
			c4.762,0.905,8.139,0.394,10.115-1.55c-4.798-1.775-10.77-8.498-17.894-20.168c3.083-0.434,5.482-1.399,7.178-2.926
			c-6.368-2.734-10.952-6.62-13.778-11.641C218.569,91.266,208.146,84.421,193.974,80.739"/>
		<path fill="none" stroke="#245E27" stroke-width="3.1741" stroke-linecap="square" stroke-miterlimit="10" d="M193.974,80.739
			c14.172,3.682,24.596,10.526,31.244,20.551c2.826,5.021,7.41,8.906,13.778,11.641c-1.695,1.526-4.095,2.492-7.178,2.926
			c7.124,11.67,13.096,18.393,17.894,20.168c-1.977,1.943-5.354,2.455-10.115,1.55c2.806,8.064,7.565,15.276,14.312,21.609
			c-3.421,1.945-7.287,2.667-11.615,2.122c0.683,1.842,0.583,5.291-0.351,10.388c-0.935,5.097-3.268,10.06-7.054,14.917
			l-2.583-6.585c-6.907,14.597-18.133,25.428-33.686,32.489l-0.693-6.348c-6.902,7.51-19.302,12.268-37.209,14.234
			c-0.094-1.757-0.489-3.654-1.148-5.688c-7.424,4.831-15.402,7.3-23.914,7.433c-0.401,0.004-0.801,0.006-1.203,0.013
			c-0.399-0.017-0.799-0.029-1.196-0.027c-0.914-0.072-1.82-0.174-2.722-0.319c-0.706-0.117-1.404-0.257-2.121-0.455
			c-0.665-0.257-1.348-0.513-2.035-0.769c-5.435-2.258-10.354-6.314-14.764-12.154l-1.29,3.743
			c-7.127-4.162-12.904-10.257-17.335-18.267l-1.876,3.965c-2.16-2.747-4.327-6.016-6.5-9.825c-1.661-2.893-3.014-5.946-4.057-9.118
			c-1.697-5.184-2.583-10.738-2.635-16.658c-0.009-0.538,0.015-1.313,0.081-2.331l-3.354,3.5
			c-2.313-9.519-2.527-18.185-0.631-26.009c-2.729-0.982-5.009-3.004-6.804-6.06c2.454-0.496,4.996-1.788,7.668-3.876
			c2.679-2.09,5.955-5.918,9.815-11.448l0.127-0.2c-2.896-0.627-4.751-1.688-5.525-3.158c2.846-1.025,8.593-6.59,17.213-16.704
			c-2.391-0.917-3.92-2.054-4.586-3.406c2.487-0.172,4.793-0.634,6.907-1.401c1.731-0.657,3.443-1.459,5.121-2.408
			c1.694-0.941,3.966-2.45,6.797-4.499c2.85-2.024,6.689-4.434,11.524-7.204c4.855-2.785,12.248-4.516,22.219-5.188
			c-1.074-3.211-2.652-5.697-4.708-7.466c6.516-0.193,12.827,1.391,18.909,4.723c0.571-1.5,0.516-3.531-0.146-6.127
			c6.339,1.386,11.55,5.377,15.619,11.957c8.995-2.571,18.505-2.262,28.538,0.901C199.502,77.046,196.593,78.662,193.974,80.739z"/>
		<path fill="#1F1A1A" d="M170.348,153.758c-0.096,0.007-0.199,0.013-0.299,0.019c-2.026,5.625-5.473,10.076-10.317,13.342
			c-5.838,3.912-12.358,5.725-19.551,5.442c-7.192-0.266-13.001-2.556-17.424-6.901c-4.39-4.262-6.092-9.307-5.059-15.113
			c0.103-0.605,0.23-1.208,0.346-1.771c-11.021-2.383-22.113-5.594-33.263-9.658c3.571,31.65,19.817,47.982,48.703,48.977
			c31.876,1.105,56.983-11.873,75.325-38.896C196.092,151.909,183.275,153.421,170.348,153.758"/>
		<path fill="#D8382A" d="M170.049,153.776c-0.641,0.012-1.288,0.037-1.948,0.047c-15.819,0.234-31.791-1.296-47.919-4.591
			c-0.715-0.159-1.421-0.299-2.133-0.457c-0.12,0.562-0.245,1.167-0.349,1.771c-1.035,5.807,0.667,10.852,5.057,15.113
			c4.423,4.346,10.231,6.636,17.424,6.901c7.192,0.282,13.713-1.53,19.551-5.442C164.574,163.847,168.022,159.401,170.049,153.776"
			/>
		
			<path fill="none" stroke="#1F1A1A" stroke-width="0.0195" stroke-linecap="round" stroke-linejoin="round" stroke-miterlimit="10" d="
			M118.049,148.775c-11.028-2.383-22.117-5.597-33.268-9.657c3.569,31.648,19.817,47.98,48.704,48.969
			c31.875,1.109,56.985-11.866,75.327-38.889c-12.72,2.709-25.537,4.223-38.465,4.56c-0.096,0.007-0.199,0.012-0.299,0.02"/>
		
			<path fill="none" stroke="#D8382A" stroke-width="0.0195" stroke-linecap="round" stroke-linejoin="round" stroke-miterlimit="10" d="
			M168.101,153.823c-15.819,0.234-31.791-1.296-47.919-4.591c-0.715-0.159-1.421-0.299-2.133-0.457
			c-0.12,0.562-0.248,1.165-0.351,1.773c-1.033,5.804,0.669,10.849,5.059,15.11c4.424,4.341,10.231,6.636,17.424,6.898
			c7.192,0.285,13.713-1.527,19.551-5.439c4.847-3.271,8.291-7.717,10.317-13.341C169.411,153.784,168.765,153.815,168.101,153.823z
			"/>
		<path fill="#FFFFFF" d="M110.778,94.719c5.117-0.224,9.542,1.516,13.251,5.24c3.709,3.702,5.607,8.294,5.705,13.775
			c0.094,5.484-1.613,10.253-5.157,14.286c-3.594,4.042-7.938,6.179-13.058,6.406c-5.095,0.208-9.495-1.55-13.182-5.287
			c-3.714-3.705-5.609-8.316-5.703-13.801c-0.098-5.48,1.607-10.229,5.153-14.238C101.341,97.05,105.683,94.911,110.778,94.719"/>
		<path fill="#FFFFFF" d="M175.095,107.091c3.979,3.744,6.058,8.381,6.256,13.876c0.172,5.473-1.631,10.21-5.394,14.229
			c-3.791,4.018-8.426,6.116-13.92,6.288c-5.455,0.181-10.191-1.644-14.187-5.429c-4.022-3.766-6.119-8.387-6.295-13.858
			c-0.175-5.492,1.631-10.248,5.433-14.241c3.769-4.025,8.382-6.102,13.831-6.242C166.314,101.538,171.067,103.346,175.095,107.091
			L175.095,107.091z"/>
		<path fill="#1F1A1A" d="M97.348,106.69c1.657-1.652,3.598-2.445,5.844-2.4c2.257,0.043,4.161,0.912,5.717,2.613
			c1.55,1.716,2.275,3.741,2.206,6.1c-0.072,2.359-0.927,4.354-2.57,6.008c-1.655,1.651-3.601,2.441-5.845,2.4
			c-2.25-0.045-4.132-0.91-5.688-2.608c-1.554-1.702-2.284-3.726-2.202-6.101C94.862,110.342,95.706,108.344,97.348,106.69"/>
		<path fill="#1F1A1A" d="M143.308,114.834c1.341-1.976,3.165-3.169,5.487-3.612c2.333-0.444,4.48-0.004,6.447,1.32
			c1.975,1.339,3.168,3.166,3.609,5.486c0.445,2.318,0.003,4.449-1.321,6.422c-1.338,1.971-3.164,3.164-5.483,3.607
			c-2.322,0.445-4.452,0.004-6.422-1.321c-1.976-1.327-3.165-3.151-3.611-5.486C141.556,118.933,141.981,116.802,143.308,114.834"/>
		<path fill="#C06513" d="M135.05,95.735c0.432,0.36,0.83,0.657,1.223,0.852c0.074,0.03,0.148,0.082,0.243,0.117
			c0.382,0.132,0.649,0.207,0.81,0.231c0.1,0.013,0.217,0.028,0.316,0.044c0.297,0.002,0.568-0.062,0.801-0.168
			c0.345-0.153,0.682-0.307,1.003-0.441c10.317-4.429,17.35-7.172,21.116-8.188c3.962-1.088,6.6-0.941,7.945,0.469
			c1.375,1.373,1.719,2.925,1.049,4.693c3.077,0.51,5.401,0.934,6.952,1.293c2.08,0.469,4.025,1.004,5.852,1.561
			c6.78,2.068,12.041,4.706,15.782,7.911c5.493,4.696,8.279,7.826,8.359,9.423c0.124,1.559-2.123,1.968-6.703,1.208
			c3.522,3.774,6.201,8.113,8.036,13.042c0.89,2.385,1.177,4.191,0.908,5.414c-0.065,0.15-0.129,0.297-0.193,0.474
			c-0.029,0.092-0.062,0.169-0.11,0.243c-0.081,0.128-0.169,0.215-0.279,0.303c-0.298,0.221-0.615,0.377-0.958,0.508
			c-0.559,0.141-1.13,0.219-1.718,0.26c-0.473,0.072-0.937,0.108-1.421,0.142c-7.752,0.279-15.2-0.885-22.366-3.485
			c-0.462-0.164-1.278-0.458-2.463-0.883c0.027-1.361,0.047-2.361,0.075-2.979c0.051-1.513-0.02-3.026-0.231-4.518
			c-0.099-0.717-0.222-1.413-0.389-2.119c-0.305-1.361-0.703-2.678-1.225-3.977c-0.52-1.294-1.133-2.482-1.88-3.588
			c-0.56-0.859-1.173-1.645-1.81-2.376c-1.059-1.188-2.286-2.122-3.701-2.78c-1.373-0.652-2.839-1.037-4.412-1.117
			c-1.434-0.06-2.884,0.037-4.389,0.289c-1.529,0.206-3.049,0.497-4.569,0.883c-0.892,0.215-1.769,0.494-2.639,0.814
			c-1.369,0.509-2.748,1.036-4.106,1.606c-1.217,0.532-2.432,1.065-3.655,1.636c-0.661,0.289-1.347,0.59-2.025,0.878
			c-1.151,0.499-2.312,0.94-3.485,1.298c-1.379,0.387-2.783,0.569-4.209,0.572c-1.137-0.017-2.268-0.096-3.387-0.254
			c-0.076-0.031-0.155-0.041-0.232-0.051c-0.101-0.012-0.178-0.023-0.273-0.041c-0.997-0.197-1.879-0.48-2.665-0.873
			c-1.245-0.571-2.403-1.297-3.461-2.185c-1.092-0.933-2.165-1.845-3.242-2.757c-0.96-0.873-1.938-1.731-2.961-2.617
			c-1.071-0.93-2.193-1.767-3.39-2.559c-0.895-0.604-1.836-1.158-2.788-1.648c-0.985-0.561-2.021-1.045-3.083-1.453
			c-0.937-0.333-1.876-0.646-2.856-0.92c-0.719-0.16-1.467-0.266-2.229-0.271c-0.415-0.02-0.819-0.011-1.246,0.024
			c-1.092,0.071-2.148,0.341-3.155,0.804c-2.068,1.053-3.739,2.521-4.984,4.429c-1.687,2.591-2.773,4.8-3.257,6.678
			c-0.48,1.874-0.699,3.266-0.647,4.198c0.055,0.908,0.13,1.639,0.236,2.176l-6.389,0.988c-1.798,0.113-4.047,0.034-6.741-0.221
			c-1.528-0.235-3.075-0.612-4.62-1.168c-1.517-0.488-2.22-1.47-2.128-2.958c0.019-1.601,0.892-3.702,2.618-6.284
			c2.562-3.871,5.092-7.061,7.619-9.533c-0.752,0.077-1.597-0.181-2.539-0.754c-1.491-0.932-1.834-2.08-1.022-3.428
			c0.961-1.289,2.159-2.404,3.553-3.351c0.419-0.283,0.817-0.546,1.233-0.812c6.332-4.002,13.692-6.098,22.112-6.287
			c0.103-0.002,0.202-0.006,0.305-0.014c0.403-1.168,1.082-2.29,2.015-3.388c1.035-1.233,2.545-1.284,4.525-0.126
			c5.063,3.052,9.902,6.271,14.494,9.655c2.092,1.534,4.117,3.101,6.116,4.7c0.232,0.178,0.449,0.365,0.664,0.533
			C134.871,95.589,134.959,95.661,135.05,95.735"/>
		<path fill="#C5CDE3" d="M197.396,41.528c0.294-1.443,0.146-2.727-0.487-3.852c-0.114-0.196-0.249-0.393-0.402-0.594
			c-0.662-0.889-1.392-1.547-2.202-1.978c-0.316-0.163-0.66-0.286-1.01-0.392c-1.189-0.381-2.857-0.682-4.989-0.885
			c-3.047-0.306-6.121-0.07-9.213,0.723c-0.787,0.177-1.567,0.332-2.368,0.465c-0.797,0.117-1.573,0.232-2.308,0.318
			c-2.375,0.267-5.005,0.275-7.854-0.002c-1.383-0.164-2.552-0.221-3.539-0.208c-1.884,0.009-3.465,0.463-4.762,1.331
			c-1.322,0.887-2.223,2.368-2.72,4.469l-5.017,23.297c-0.364,1.699-0.08,3.179,0.851,4.482c0.293,0.359,0.591,0.661,0.921,0.924
			c0.431,0.338,0.917,0.604,1.457,0.795c0.519,0.168,1.085,0.283,1.659,0.34c0.318,0.023,0.634,0.025,0.938,0.007
			c1.391-0.079,2.661-0.57,3.841-1.478c0.183-0.115,0.338-0.232,0.47-0.357c1.238-1.018,2.011-2.297,2.329-3.797l4.022-19.305
			c-1.234,0.096-2.45,0.195-3.686,0.295c1.235-0.1,2.451-0.199,3.686-0.295c2.027-0.191,4.057-0.385,6.11-0.572
			c2.981-0.285,6.601-0.227,10.896,0.184c0.207-1.436,0.38-2.896,0.542-4.398c-0.162,1.502-0.335,2.963-0.542,4.398
			c-1.025,7.56-2.446,13.92-4.279,19.09c-0.364,1.694-0.1,3.17,0.84,4.438c0.949,1.271,2.298,1.967,4.05,2.101
			c1.719,0.127,3.309-0.36,4.757-1.449c1.507-1.105,2.449-2.483,2.814-4.176C194.338,57.974,196.055,50.009,197.396,41.528"/>
		
			<path fill="none" stroke="#737A90" stroke-width="3.1786" stroke-linecap="round" stroke-linejoin="round" stroke-miterlimit="10" d="
			M184.016,45.444c-1.021,7.56-2.447,13.92-4.278,19.091c-0.361,1.692-0.098,3.17,0.839,4.437c0.953,1.271,2.302,1.969,4.053,2.104
			c1.72,0.125,3.31-0.365,4.758-1.452c1.507-1.106,2.449-2.483,2.815-4.179c2.136-7.471,3.856-15.438,5.193-23.916
			c0.296-1.441,0.145-2.727-0.487-3.852c-0.114-0.197-0.249-0.394-0.402-0.594c-0.66-0.889-1.396-1.549-2.202-1.978
			c-0.318-0.161-0.66-0.288-1.01-0.392c-1.189-0.381-2.856-0.682-4.989-0.884c-3.047-0.307-6.121-0.071-9.213,0.722
			c-0.785,0.176-1.571,0.334-2.368,0.465c-0.797,0.117-1.573,0.232-2.308,0.316c-2.378,0.266-5.008,0.279-7.853,0.002
			c-1.384-0.166-2.558-0.222-3.54-0.213c-1.884,0.014-3.465,0.466-4.762,1.336c-1.322,0.884-2.223,2.366-2.72,4.467l-5.014,23.3
			c-0.367,1.696-0.085,3.176,0.844,4.479c0.297,0.359,0.595,0.661,0.925,0.924c0.436,0.339,0.918,0.602,1.457,0.793
			c0.519,0.17,1.083,0.287,1.659,0.346c0.318,0.02,0.634,0.021,0.938,0.001c1.39-0.078,2.66-0.568,3.84-1.476
			c0.183-0.115,0.338-0.232,0.472-0.356c1.236-1.017,2.009-2.298,2.328-3.8l4.023-19.305 M184.562,41.049
			c-0.162,1.501-0.335,2.958-0.546,4.396 M167.015,45.831c2.027-0.189,4.058-0.383,6.108-0.57c2.977-0.287,6.601-0.227,10.893,0.184
			 M163.327,46.126c1.235-0.098,2.449-0.195,3.688-0.295"/>
		<path fill="#AFB5D4" d="M194.15,63.62c-6.831,0.275-14.298-0.555-22.395-2.511c-12.865-4.37-25.118-7.141-36.807-8.31
			c-11.686-1.17-22.61-2.038-32.812-2.609c-10.205-0.572-19.272-0.674-27.155-0.299c-5.317,3.244-8.085,8.246-8.28,14.992
			c-0.006,0.041-0.014,0.098,0,0.158c-0.009,0.221-0.043,0.459-0.075,0.717c-0.064,0.331-0.136,0.699-0.205,1.111
			c-0.265,1.227-0.646,2.42-1.097,3.564c-1.146,3.356-1.404,5.924-0.79,7.751c18.221-0.03,33.991,0.561,47.342,1.751
			c10.832,0.954,18.557,1.761,23.178,2.431c3.396,0.674,6.819,1.165,10.27,1.446c0.917,0.061,1.83,0.102,2.743,0.162
			c4.004,0.33,7.813,0.754,11.414,1.255c2.177,0.368,4.319,0.814,6.453,1.335c3.683,0.789,7.396,1.242,11.164,1.383
			c3.975,0.225,7.953,0.593,11.936,1.104c4.373,0.56,8.671,1.369,12.918,2.434c4.14,0.969,8.166,2.188,12.121,3.65
			c2.159,0.788,4.294,1.633,6.416,2.537c4.179,1.715,8.266,3.68,12.264,5.873c3.822,2.151,7.639,4.361,11.446,6.628
			c3.861,2.316,7.671,4.687,11.464,7.093c0.254,0.173,0.516,0.328,0.772,0.502c1.399-1.937,2.364-4.975,2.908-9.092
			c0.037-0.295,0.077-0.568,0.089-0.85c0.16-1.32,0.289-2.403,0.38-3.295c0-0.021,0-0.021,0.005-0.04
			c0.057-0.532,0.114-0.985,0.143-1.345c0.072-0.708,0.142-1.4,0.237-2.091c0.316-2.863,0.6-5.269,0.793-7.208
			c0.044-0.496,0.11-0.968,0.152-1.444c0.004-0.16,0.024-0.319,0.04-0.474c0.011-2.764-0.853-4.582-2.559-5.47
			c-0.084-0.072-0.202-0.147-0.309-0.222c-6.535-4.515-13.708-8.591-21.525-12.213l-11.603-5.268
			C218.292,65.779,207.934,64.066,194.15,63.62"/>
		
			<path fill="none" stroke="#737A90" stroke-width="3.1786" stroke-linecap="round" stroke-linejoin="round" stroke-miterlimit="10" d="
			M194.15,63.62c13.783,0.446,24.142,2.159,31.037,5.139l11.603,5.268c7.814,3.621,14.99,7.698,21.525,12.213
			c0.106,0.074,0.225,0.149,0.309,0.222c1.706,0.888,2.569,2.706,2.559,5.47c-0.016,0.154-0.039,0.312-0.04,0.474
			c-0.042,0.477-0.108,0.948-0.152,1.444c-0.193,1.939-0.477,4.345-0.793,7.208c-0.096,0.69-0.167,1.382-0.237,2.091
			c-0.028,0.359-0.086,0.812-0.143,1.345c-0.005,0.019-0.005,0.019-0.005,0.04c-0.091,0.892-0.22,1.975-0.38,3.295
			c-0.012,0.281-0.052,0.555-0.089,0.85c-0.544,4.117-1.509,7.155-2.908,9.092c-0.257-0.174-0.519-0.329-0.772-0.502
			c-3.793-2.406-7.603-4.776-11.464-7.093c-3.808-2.267-7.624-4.477-11.446-6.628c-3.998-2.193-8.085-4.158-12.264-5.873
			c-2.122-0.904-4.257-1.749-6.416-2.537c-3.956-1.463-7.981-2.682-12.121-3.65c-4.247-1.064-8.545-1.874-12.918-2.434
			c-3.982-0.511-7.961-0.879-11.936-1.104c-3.768-0.141-7.481-0.594-11.164-1.383c-2.134-0.521-4.276-0.967-6.453-1.335
			c-3.601-0.501-7.41-0.925-11.414-1.255c-0.913-0.061-1.826-0.102-2.743-0.162c-3.45-0.281-6.874-0.772-10.27-1.446
			c-4.621-0.67-12.346-1.477-23.178-2.431c-13.351-1.19-29.121-1.781-47.342-1.751c-0.614-1.827-0.355-4.395,0.79-7.751
			c0.451-1.145,0.832-2.338,1.097-3.564c0.069-0.412,0.139-0.781,0.205-1.111c0.032-0.258,0.066-0.496,0.075-0.717
			c-0.014-0.061-0.006-0.117,0-0.158c0.195-6.746,2.963-11.748,8.28-14.992c7.883-0.375,16.95-0.273,27.155,0.299
			c10.201,0.571,21.126,1.439,32.812,2.609c11.688,1.169,23.941,3.939,36.807,8.31C179.853,63.065,187.319,63.896,194.15,63.62z"/>
		<path fill="#9EC94C" d="M144.747,204.88c9.707-1.23,19.916,0.523,30.658,5.264c14.862,7.819,24.224,20.229,28.105,37.199
			c0.375,2.101,0.554,4.972,0.519,8.566l-23.916-5.34c0.957-2.212,1.766-4.719,2.454-7.556c-0.688,2.837-1.497,5.344-2.454,7.556
			c-2.49,5.752-5.883,9.394-10.19,10.913c-0.998,0.187-1.952,0.259-2.884,0.213c-1.767-0.048-3.449-0.528-5.057-1.476
			c-0.437-0.261-0.843-0.556-1.226-0.866c-1.084-0.933-1.882-2.115-2.385-3.506c-0.6-1.698-0.794-3.451-0.636-5.231
			c0.14-1.437,0.384-2.863,0.771-4.284c0.094-0.403,0.199-0.791,0.309-1.189c-0.109,0.398-0.215,0.786-0.309,1.189
			c-0.387,1.421-0.631,2.848-0.771,4.284c-0.158,1.78,0.036,3.533,0.636,5.231c0.503,1.391,1.301,2.573,2.385,3.506
			c-0.623,1.432-1.327,2.818-2.104,4.154c-2.395,4.065-6.104,6.497-11.074,7.315c-1.859,0.117-3.508-0.333-4.949-1.347
			c-1.292-1.126-2.364-2.364-3.237-3.753c-0.131-0.222-0.271-0.452-0.389-0.66c-0.171-0.284-0.315-0.562-0.448-0.833
			c-0.116-0.211-0.203-0.438-0.318-0.646c-0.084-0.178-0.137-0.353-0.215-0.532c-0.56-1.428-0.985-2.99-1.244-4.655
			c-0.434-3.157-0.27-6.737,0.547-10.775c-0.816,4.038-0.98,7.618-0.547,10.775c0.259,1.665,0.685,3.228,1.244,4.655
			c0.078,0.18,0.131,0.354,0.215,0.532c-1.125,0.791-1.722,1.202-1.796,1.25c-0.097,0.043-0.171,0.104-0.249,0.172
			c-3.295,1.967-6.754,2.114-10.388,0.384c-4.842-3.099-7.35-7.649-7.536-13.608c0.033-2.927,0.277-5.705,0.715-8.333
			c0.401-2.416,1-4.724,1.77-6.896l0.008-0.039c0.113-0.258,0.201-0.524,0.289-0.772c0.445-1.16,0.949-2.291,1.487-3.39
			c0.247-0.511,0.529-1.025,0.815-1.53c-0.286,0.505-0.568,1.02-0.815,1.53c-0.538,1.099-1.042,2.229-1.487,3.39
			c-0.088,0.248-0.176,0.515-0.289,0.772c-1.204-0.366-2.21-0.857-3.015-1.509c-0.674-0.533-1.2-1.14-1.581-1.857
			c-0.494-0.924-0.764-2-0.833-3.222c0.3-6.488,3.04-11.903,8.192-16.246c0.028-0.034,0.075-0.065,0.104-0.101l0.834-0.664
			c0.083-0.068,0.182-0.124,0.257-0.188C130.136,208.539,136.799,205.933,144.747,204.88"/>
		
			<path fill="none" stroke="#245E27" stroke-width="3.1831" stroke-linecap="round" stroke-linejoin="round" stroke-miterlimit="10" d="
			M182.572,243.015c-0.693,2.836-1.502,5.343-2.455,7.555 M120.761,236.515l-0.008,0.039c-0.771,2.171-1.373,4.479-1.769,6.896
			c-0.438,2.627-0.683,5.405-0.711,8.333c0.182,5.958,2.689,10.509,7.531,13.607c3.634,1.73,7.093,1.583,10.393-0.382
			c0.073-0.069,0.147-0.131,0.243-0.174c0.072-0.049,0.672-0.459,1.797-1.25 M123.353,230.823c-0.286,0.504-0.567,1.019-0.815,1.529
			c-0.539,1.094-1.045,2.229-1.487,3.39c-0.088,0.248-0.176,0.515-0.289,0.772 M138.237,263.585
			c0.117,0.209,0.204,0.436,0.321,0.646c0.13,0.271,0.274,0.548,0.445,0.832c0.118,0.21,0.258,0.438,0.389,0.66
			c0.872,1.391,1.947,2.628,3.237,3.753c1.441,1.014,3.089,1.463,4.949,1.347c4.976-0.817,8.678-3.251,11.075-7.318
			c0.779-1.333,1.479-2.72,2.103-4.151 M137.325,247.622c-0.812,4.039-0.98,7.618-0.545,10.775c0.254,1.665,0.683,3.228,1.239,4.654
			c0.081,0.181,0.139,0.355,0.218,0.533 M160.757,259.354L160.757,259.354c0.385,0.311,0.789,0.605,1.226,0.866
			c1.607,0.947,3.29,1.428,5.057,1.476c0.932,0.046,1.886-0.026,2.884-0.213c4.308-1.52,7.7-5.161,10.194-10.913 M158.815,245.143
			c-0.109,0.398-0.215,0.781-0.309,1.189c-0.387,1.421-0.628,2.849-0.772,4.283c-0.156,1.781,0.038,3.534,0.638,5.232
			c0.503,1.391,1.301,2.573,2.385,3.506 M180.117,250.569l23.912,5.34c0.035-3.595-0.144-6.466-0.519-8.566
			c-3.88-16.97-13.242-29.381-28.105-37.199c-10.742-4.74-20.951-6.494-30.659-5.261c-7.948,1.053-14.61,3.656-20.027,7.845
			c-0.074,0.06-0.174,0.12-0.255,0.188l-0.836,0.664c-0.028,0.037-0.075,0.066-0.104,0.101c-5.152,4.343-7.893,9.758-8.193,16.25
			c0.07,1.218,0.34,2.294,0.834,3.218c0.381,0.718,0.907,1.324,1.581,1.857c0.805,0.651,1.811,1.143,3.015,1.509"/>
		<path fill="#AFB5D4" d="M196.14,300.423c-1.119,0.029-1.84,0.944-2.181,2.765l-5.115,25.891c-0.353,1.773-0.034,2.943,0.95,3.5
			l18.813,4.36l-2.721,9.125l-17.917-4.165c-7.762-1.438-10.821-6.484-9.128-15.137l5.126-25.908
			c1.717-8.648,6.393-11.907,14.028-9.785l14.478,3.38l-2.747,9.13L196.14,300.423z"/>
		
			<path fill="none" stroke="#737A90" stroke-width="3.1125" stroke-linecap="round" stroke-linejoin="round" stroke-miterlimit="10" d="
			M208.607,336.938l-18.809-4.361c-0.989-0.556-1.308-1.726-0.955-3.499l5.115-25.891c0.341-1.82,1.062-2.735,2.181-2.765
			l13.587,3.155l2.747-9.13l-14.478-3.38c-7.636-2.122-12.312,1.137-14.028,9.785l-5.126,25.908
			c-1.693,8.652,1.366,13.698,9.128,15.137l17.917,4.165"/>
		<polygon fill="#C5CDE3" points="207.889,288.176 219.438,290.756 239.855,295.315 235.554,314.568 203.591,307.43 		"/>
		<polygon fill="#C5CDE3" points="215.069,310.315 203.521,307.737 203.591,307.43 235.554,314.568 235.485,314.876 		"/>
		
			<path fill="none" stroke="#737A90" stroke-width="3.1125" stroke-linecap="round" stroke-linejoin="round" stroke-miterlimit="10" d="
			M203.591,307.43l4.298-19.254l11.55,2.58l20.417,4.56l-4.302,19.253 M235.554,314.568l-0.068,0.308l-20.416-4.561l-11.548-2.578
			l0.069-0.308 M235.554,314.568l-31.963-7.139"/>
		<path fill="#AFB5D4" d="M236.851,299.928c0.472,0.105,0.888,0.262,1.268,0.464l-0.674-0.148c-0.883,0.021-1.757,0.279-2.581,0.799
			c-1.238,0.735-2.039,1.739-2.43,2.987c-0.389,1.262-0.22,2.458,0.45,3.567c0.196,0.279,0.453,0.558,0.786,0.809
			c0.563,0.473,1.55,0.923,2.923,1.413l-1.957-0.459c-1.368-0.483-2.365-0.945-2.924-1.409c-0.332-0.252-0.591-0.53-0.786-0.812
			c-0.676-1.106-0.839-2.299-0.442-3.566c0.381-1.251,1.185-2.251,2.427-2.986c0.817-0.521,1.691-0.784,2.574-0.803
			C235.944,299.768,236.385,299.806,236.851,299.928"/>
		<path fill="#AFB5D4" d="M237.442,300.242l0.672,0.148l3.325,0.78c6.307,1.19,9.552,4.228,9.744,9.115
			c-0.003,1.254-0.133,2.721-0.399,4.413c-0.081,0.921-0.419,2.622-1.017,5.101c-1.962,7.915-3.396,15.39-4.3,22.444
			c-1.698,8.629-6.369,11.896-14.047,9.757l-25.534-5.938l2.721-9.125l24.64,5.725c1.141-0.024,1.9-0.935,2.264-2.747l5.078-25.893
			c0.345-1.84,0.008-3.014-1.036-3.525l-2.965-0.681c-1.368-0.489-2.36-0.941-2.918-1.412c-0.333-0.251-0.59-0.529-0.786-0.809
			c-0.67-1.109-0.835-2.305-0.45-3.567c0.391-1.248,1.191-2.252,2.43-2.987C235.688,300.523,236.562,300.265,237.442,300.242"/>
		
			<path fill="none" stroke="#737A90" stroke-width="3.1125" stroke-linecap="round" stroke-linejoin="round" stroke-miterlimit="10" d="
			M236.593,309.818c-1.373-0.49-2.359-0.94-2.923-1.413c-0.333-0.251-0.59-0.529-0.786-0.809c-0.67-1.109-0.835-2.305-0.45-3.567
			c0.391-1.248,1.191-2.252,2.43-2.987c0.824-0.52,1.698-0.777,2.581-0.799l0.674,0.148l3.321,0.779
			c6.307,1.19,9.552,4.228,9.744,9.115c-0.003,1.254-0.133,2.721-0.399,4.413c-0.081,0.921-0.416,2.623-1.017,5.101
			c-1.962,7.915-3.394,15.39-4.3,22.444c-1.698,8.629-6.369,11.896-14.047,9.757l-25.534-5.938 M208.607,336.938l24.64,5.725
			c1.143-0.024,1.9-0.935,2.268-2.747l5.074-25.893c0.347-1.84,0.008-3.014-1.036-3.525l-2.96-0.68 M234.636,309.359l1.957,0.459"/>
		<path fill="#AFB5D4" d="M261.761,264.952c-0.321-0.366-0.677-0.708-1.03-1.045c-0.409-0.348-0.839-0.667-1.301-0.908
			c-0.623-0.276-1.257-0.52-1.915-0.728l-1.231-0.256c-3.285-0.754-7.6-1.92-12.962-3.451l-7.452-1.606
			c-1.303-0.309-2.649-0.627-4.031-0.957c-0.831-0.229-1.724-0.463-2.634-0.694c-1.377-0.364-2.838-0.752-4.389-1.134
			c-0.625-0.162-1.13-0.293-1.544-0.367c-0.224-0.05-2.105-0.471-5.686-1.251c-2.764-0.599-6.503-1.434-11.27-2.478
			c-9.836-2.157-19.729-4.186-29.63-6.059c-1.022-0.229-4.082-0.753-9.193-1.595c-5.109-0.844-9.798-1.753-14.067-2.705
			c-2.151-0.482-5.881-1.632-11.245-3.448c-5.363-1.839-9.781-3.003-13.26-3.481c-3.476-0.477-7.08-1.161-10.77-2.024
			c-1.647-0.385-5.456-1.219-11.44-2.477c-3.999-0.832-8.936-1.858-14.843-3.08c-2.852-0.597-5.932-1.226-9.231-1.9
			c-1.05-0.212-2.115-0.434-3.204-0.653c-1.576-0.333-3.226-0.663-4.922-1.021c-0.497,0.126-1.059,0.338-1.689,0.656
			c-2.026,1.005-3.251,2.448-3.673,4.325l-1.047,4.692c-0.478,2.143-0.069,4.148,1.231,6.017c0.534,0.778,1.553,1.604,3.018,2.44
			l2.648,1.195l0.24,0.093l0.713,0.158l46.223,10.269c0.117,0.041,0.379,0.12,0.8,0.237c1.899,0.542,6.897,1.896,15.019,4.056
			c4.962,1.321,9.861,2.616,14.708,3.88l0.063,0.014l0.061,0.014l0.039,0.008l0.065,0.016l0.062,0.014l0.063,0.014l0.055,0.013
			l0.065,0.015l0.06,0.013l0.061,0.014l0.062,0.014l15.468,2.516c0.524,0.062,1.045,0.133,1.562,0.214l-0.18-0.045
			c-0.408-0.11-0.225-0.07,0.572,0.109c-0.02-0.003-0.062-0.014-0.105-0.001l0.102,0.021c0.146,0.012,0.272,0.039,0.395,0.067
			c2.612,0.487,5.367,1.043,8.278,1.631c6.961,1.414,14.767,3.159,23.409,5.19l28.137,6.98c0.174,0.02,0.334,0.055,0.494,0.091
			l0.369,0.084c2.038,0.392,4.044,0.821,6.067,1.294c1.732,0.386,3.479,0.821,5.198,1.302l6.781,1.519
			c0.314,0.043,0.604,0.093,0.891,0.157c0.19,0.019,0.396,0.066,0.577,0.106c0.187,0.021,0.395,0.067,0.575,0.107
			c0.149,0.015,0.275,0.044,0.418,0.055c0.912,0.062,1.789-0.037,2.688-0.316c0.535-0.183,1.084-0.357,1.638-0.512
			c0.937-0.245,1.76-0.683,2.521-1.292c1.512-1.098,2.462-2.579,2.877-4.438l0.77-3.438c0.316-1.424,0.45-2.39,0.42-2.933
			c-0.017-0.306-0.06-0.616-0.115-0.932c-0.08-0.31-0.351-0.831-0.813-1.553C262.163,265.482,261.958,265.221,261.761,264.952"/>
		<path fill="#C5CDE3" d="M237.923,277.95c-2.022-0.473-4.028-0.902-6.066-1.294l-0.369-0.084c-0.16-0.036-0.32-0.071-0.494-0.091
			l-28.137-6.98c-8.643-2.031-16.448-3.776-23.409-5.19c-2.911-0.588-5.666-1.144-8.278-1.631l-0.788-0.132
			c-0.518-0.077-1.04-0.155-1.557-0.234l-15.468-2.516l-0.062-0.014l-0.063-0.014l-0.06-0.014l-0.062-0.014l-0.058-0.013
			l-0.062-0.014l-0.065-0.015l-0.061-0.015l-0.039-0.008l-0.061-0.014l-0.063-0.014c-4.847-1.264-9.746-2.559-14.708-3.88
			c-8.121-2.159-13.119-3.514-15.019-4.056c-0.421-0.117-0.683-0.196-0.804-0.238l-46.219-10.268
			c-0.298,1.827-0.549,3.43-0.778,4.832c-0.105,0.673-0.204,1.29-0.302,1.845c-0.214,1.246-0.384,2.287-0.517,3.079
			c0.009,0.058-0.001,0.1-0.014,0.156c-0.191,1.15-0.368,2.31-0.563,3.482c-0.196,1.15-0.363,2.309-0.564,3.479
			c-0.197,1.168-0.372,2.348-0.572,3.519c-0.107,0.674-0.219,1.367-0.33,2.06l-2.104,12.492c-0.65,8.959-1.299,15.037-1.947,18.222
			c-0.193,0.973-0.396,1.968-0.612,2.93c-0.635,2.554-1.503,4.71-2.563,6.484c-1.201,2.028-2.059,4.229-2.585,6.581
			c-0.337,1.501-0.509,5.448-0.532,11.799c-0.006,6.366-0.429,11.231-1.28,14.566c-0.64,6.424-1.789,13.679-3.439,21.742
			c-1.652,8.068-3.338,16.478-5.049,25.207c-1.717,8.729-3.452,17.649-5.261,26.796c-0.267,1.294-0.552,2.767-0.871,4.387
			l-1.629,8.449c-0.059,0.349-0.139,0.712-0.198,1.075c-0.439,2.452-0.949,5.105-1.499,7.959c-0.043,0.283-0.084,0.575-0.148,0.866
			c2.929,0.231,5.547,0.342,7.871,0.293c3.121-0.03,6.232-0.057,9.342-0.021c0.279-0.017,0.543-0.042,0.827-0.054
			c0.806-0.06,1.621-0.074,2.408-0.042c1.617,0.066,3.191,0.313,4.723,0.762c0.465,0.138,0.937,0.322,1.384,0.549
			c1.487,0.628,2.911,1.443,4.305,2.415c0.898,0.498,1.838,0.905,2.811,1.259c4.068,1.667,6.272,2.562,6.608,2.697
			c1.567,0.569,8.805,2.25,21.755,5c5.327,1.108,10.332,1.967,15.021,2.597l9.317,2.078c2.297,0.772,4.216,1.399,5.753,1.911
			c1.16,0.374,2.105,0.665,2.848,0.89c2.794,0.847,5.549,1.577,8.222,2.173c1.617,0.36,3.87,0.665,6.732,0.915
			c0.358,0.013,2.734,0.142,7.126,0.363c1.033,0.093,2.054,0.127,3.077,0.055c1.67-0.286,3.312-0.418,4.928-0.353
			c0.493-0.011,1.006,0.019,1.482,0.092c1.572,0.248,3.104,0.693,4.597,1.324c0.727,0.299,1.458,0.664,2.164,1.062
			c0.249,0.131,0.474,0.265,0.729,0.399c2.821,1.292,5.634,2.638,8.417,3.99c0.445,0.225,0.91,0.443,1.371,0.686
			c0.562,0.29,1.12,0.575,1.674,0.855l8.22,3.75c1.383,0.051,2.947,0.062,4.654,0.004c1.367-5.836,2.296-9.613,2.796-11.358
			c1.009-3.339,3.044-8.809,6.14-16.435c3.092-7.617,5.094-16.165,5.96-25.636c0.871-9.478,4.071-20.538,9.582-33.205
			c1.387-3.974,2.407-8.072,3.09-12.286c1.308-8.146,3.154-15.942,5.551-23.399c2.42-7.458,4.56-14.474,6.45-21.009
			c1.891-6.553,3.61-13.067,5.165-19.559c1.576-6.484,2.536-10.582,2.861-12.238c0.348-1.657,0.566-3.023,0.649-4.063
			c0.128-1.048,0.213-1.708,0.283-1.947c0.083-0.266,0.14-0.527,0.203-0.796c0.392-1.288,0.938-3.26,1.683-5.902
			c-0.181-0.04-0.387-0.088-0.577-0.106c-0.286-0.064-0.576-0.114-0.891-0.157l-6.781-1.519
			C241.403,278.771,239.656,278.336,237.923,277.95"/>
		<path fill="#FFFFFF" d="M170.65,262.587l-0.265-0.06l-0.005,0.021C170.466,262.545,170.551,262.563,170.65,262.587"/>
		<path fill="#AFB5D4" d="M170.381,262.548l0.005-0.021c-0.517-0.081-1.041-0.153-1.56-0.214
			C169.341,262.393,169.863,262.471,170.381,262.548"/>
		<path fill="#AFB5D4" d="M119.643,448.673c-4.685-0.629-9.689-1.487-15.017-2.596c-12.945-2.75-20.188-4.431-21.756-4.997
			c-0.335-0.139-2.539-1.033-6.607-2.7c-0.973-0.352-1.91-0.76-2.811-1.259c-1.389-0.972-2.817-1.787-4.307-2.415
			c-0.447-0.227-0.917-0.411-1.382-0.549c-1.531-0.448-3.105-0.695-4.723-0.762c-0.787-0.032-1.603-0.018-2.407,0.042
			c-0.285,0.012-0.549,0.037-0.83,0.053c-3.107-0.035-6.219-0.009-9.34,0.021c-2.324,0.049-4.942-0.062-7.871-0.293
			c-0.024-0.006-0.066-0.015-0.086-0.006l-0.102-0.022c-0.739-0.061-1.43-0.118-2.046-0.155c-3.226-0.262-4.843-0.403-4.906-0.417
			c-0.691,0.104-1.294,0.506-1.812,1.189c-0.174,0.22-0.332,0.426-0.465,0.653c-0.471,0.751-0.813,1.608-1.026,2.561l-1.318,5.889
			c-0.476,2.142-0.143,4.131,0.99,5.96c1.113,1.845,2.701,2.998,4.806,3.465l159.895,35.717c0.834,0.188,1.645,0.248,2.454,0.167
			c1.165-0.115,2.309-0.54,3.41-1.247c1.79-1.181,2.915-2.844,3.393-4.984l1.313-5.887c0.2-0.894,0.272-1.708,0.211-2.507
			c-0.025-0.347-0.062-0.65-0.124-0.963c-0.037-0.23-0.097-0.436-0.156-0.653c-0.245-0.833-1.061-1.691-2.438-2.539
			c-0.503-0.333-0.97-0.558-1.393-0.688c-0.778,0.042-1.513,0.08-2.231,0.119c-1.709,0.058-3.271,0.046-4.656-0.005l-8.22-3.75
			c-0.554-0.28-1.113-0.566-1.674-0.855c-0.461-0.242-0.926-0.461-1.371-0.686c-2.783-1.353-5.596-2.698-8.417-3.99
			c-0.255-0.135-0.479-0.269-0.729-0.399c-0.706-0.397-1.438-0.763-2.164-1.062c-1.493-0.631-3.024-1.076-4.598-1.326
			c-0.476-0.071-0.988-0.101-1.481-0.09c-1.616-0.065-3.258,0.066-4.928,0.353c-1.025,0.072-2.045,0.041-3.078-0.056
			c-4.393-0.222-6.768-0.35-7.125-0.362c-2.862-0.25-5.115-0.555-6.732-0.915c-2.677-0.599-5.428-1.326-8.222-2.173
			c-0.742-0.225-1.688-0.516-2.848-0.89c-1.537-0.512-3.459-1.141-5.753-1.911L119.643,448.673z"/>
		<path fill="#C5CDE3" d="M44.24,424.394c0.06-0.363,0.14-0.727,0.198-1.075c-0.077,0.346-0.158,0.708-0.219,1.071
			c-0.483,2.442-0.986,5.097-1.537,7.95c-0.041,0.283-0.107,0.569-0.176,0.873c0.02-0.009,0.062,0,0.086,0.006
			c0.064-0.291,0.105-0.583,0.148-0.866C43.293,429.5,43.801,426.846,44.24,424.394"/>
		
			<path fill="none" stroke="#737A90" stroke-width="3.1125" stroke-linecap="round" stroke-linejoin="round" stroke-miterlimit="10" d="
			M42.593,433.219c-0.024-0.006-0.066-0.015-0.086-0.006l-0.102-0.022c-0.738-0.061-1.432-0.119-2.046-0.155
			c-3.226-0.262-4.848-0.404-4.906-0.417c-0.691,0.104-1.294,0.506-1.812,1.189c-0.176,0.22-0.332,0.426-0.467,0.653
			c-0.469,0.751-0.81,1.608-1.022,2.562l-1.314,5.888c-0.481,2.142-0.148,4.131,0.984,5.96c1.113,1.845,2.698,2.996,4.806,3.465
			l159.895,35.717c0.839,0.188,1.645,0.248,2.454,0.167c1.165-0.116,2.309-0.54,3.41-1.247c1.79-1.181,2.915-2.844,3.393-4.986
			l1.313-5.885c0.2-0.894,0.272-1.714,0.213-2.507c-0.027-0.347-0.066-0.651-0.126-0.963c-0.035-0.229-0.097-0.436-0.156-0.653
			c-0.242-0.833-1.061-1.691-2.438-2.539c-0.502-0.332-0.968-0.558-1.389-0.688c-0.781,0.042-1.522,0.08-2.238,0.118
			 M170.65,262.587l0.022,0.004l0.102,0.021c0.146,0.012,0.272,0.039,0.395,0.067c2.612,0.487,5.367,1.043,8.278,1.631
			c6.961,1.414,14.767,3.159,23.409,5.19l28.137,6.98c0.174,0.02,0.334,0.055,0.494,0.091l0.369,0.084
			c2.038,0.392,4.044,0.821,6.067,1.294c1.732,0.386,3.479,0.821,5.198,1.302l6.781,1.519c0.314,0.043,0.604,0.093,0.891,0.157
			c0.19,0.019,0.396,0.066,0.577,0.106 M200.958,468.868c1.367-5.836,2.296-9.613,2.796-11.358c1.009-3.339,3.044-8.809,6.14-16.435
			c3.092-7.617,5.094-16.165,5.96-25.636c0.871-9.478,4.071-20.538,9.582-33.205c1.387-3.972,2.407-8.072,3.09-12.286
			c1.308-8.146,3.154-15.942,5.551-23.399c2.42-7.458,4.56-14.474,6.45-21.009c1.891-6.553,3.61-13.067,5.165-19.559
			c1.576-6.484,2.536-10.582,2.861-12.238c0.348-1.657,0.566-3.023,0.649-4.063c0.128-1.048,0.213-1.708,0.283-1.947
			c0.083-0.266,0.14-0.527,0.203-0.796c0.392-1.288,0.938-3.26,1.683-5.902 M74.999,240.96l0.24,0.093l0.713,0.158l46.219,10.268
			c0.121,0.042,0.383,0.121,0.804,0.238c1.899,0.542,6.897,1.896,15.019,4.056c4.962,1.321,9.861,2.616,14.708,3.88l0.063,0.014
			l0.061,0.014l0.039,0.008l0.061,0.015l0.066,0.015l0.063,0.014l0.055,0.013l0.065,0.015l0.06,0.013l0.061,0.014l0.062,0.014
			l15.468,2.516c0.521,0.061,1.045,0.133,1.562,0.214l0.265,0.06 M170.65,262.587c-0.1-0.023-0.185-0.042-0.27-0.039 M74.999,240.96
			c-0.304,1.848-0.553,3.466-0.788,4.868c-0.086,0.676-0.18,1.294-0.281,1.85c-0.194,1.254-0.362,2.292-0.494,3.082
			c0.006,0.055-0.004,0.101-0.018,0.157c-0.188,1.147-0.364,2.31-0.538,3.487c-0.195,1.15-0.366,2.308-0.543,3.485
			c-0.198,1.168-0.379,2.347-0.573,3.52c-0.088,0.678-0.196,1.372-0.29,2.067l-2.062,12.498c-0.609,8.97-1.219,15.059-1.847,18.248
			c-0.172,0.978-0.374,1.973-0.59,2.936c-0.637,2.552-1.462,4.715-2.524,6.492c-1.181,2.033-2.04,4.23-2.567,6.584
			c-0.311,1.506-0.463,5.459-0.449,11.818c0.019,6.371-0.386,11.24-1.196,14.585c-0.6,6.431-1.709,13.697-3.341,21.765
			c-1.591,8.082-3.232,16.5-4.903,25.239c-1.657,8.741-3.347,17.673-5.115,26.829c-0.249,1.297-0.513,2.773-0.812,4.398
			l-1.629,8.449c-0.054,0.351-0.135,0.714-0.198,1.075c-0.439,2.452-0.949,5.105-1.499,7.959c-0.043,0.283-0.084,0.575-0.148,0.866
			 M42.593,433.219c2.929,0.231,5.548,0.342,7.871,0.293c3.121-0.03,6.232-0.057,9.342-0.021c0.279-0.017,0.543-0.042,0.827-0.054
			c0.806-0.06,1.622-0.073,2.408-0.042c1.617,0.066,3.191,0.313,4.723,0.762c0.465,0.138,0.937,0.322,1.384,0.549
			c1.487,0.628,2.911,1.443,4.305,2.415c0.898,0.498,1.838,0.905,2.811,1.259c4.068,1.667,6.272,2.562,6.607,2.7
			c1.568,0.566,8.806,2.247,21.756,4.997c5.327,1.108,10.332,1.967,15.018,2.596l9.321,2.079c2.297,0.772,4.216,1.399,5.753,1.911
			c1.16,0.374,2.105,0.665,2.848,0.89c2.794,0.847,5.549,1.577,8.222,2.173c1.617,0.36,3.87,0.665,6.732,0.915
			c0.358,0.013,2.734,0.142,7.126,0.363c1.033,0.093,2.054,0.127,3.077,0.055c1.67-0.286,3.312-0.418,4.928-0.353
			c0.493-0.011,1.006,0.019,1.482,0.092c1.572,0.25,3.104,0.693,4.597,1.324c0.727,0.299,1.458,0.664,2.164,1.062
			c0.249,0.131,0.474,0.265,0.729,0.399c2.821,1.292,5.634,2.638,8.417,3.99c0.445,0.225,0.91,0.443,1.371,0.686
			c0.562,0.29,1.12,0.575,1.674,0.855l8.22,3.75c1.383,0.051,2.947,0.062,4.654,0.004 M251.371,281.034
			c0.187,0.021,0.395,0.067,0.575,0.107c0.149,0.015,0.275,0.044,0.418,0.055c0.912,0.062,1.789-0.037,2.688-0.316
			c0.535-0.186,1.084-0.357,1.638-0.512c0.937-0.245,1.76-0.683,2.521-1.292c1.512-1.098,2.462-2.579,2.877-4.438l0.77-3.438
			c0.316-1.424,0.448-2.39,0.42-2.933c-0.017-0.306-0.06-0.616-0.115-0.932c-0.08-0.31-0.351-0.831-0.813-1.553
			c-0.188-0.301-0.391-0.562-0.588-0.831c-0.321-0.366-0.677-0.708-1.03-1.045c-0.409-0.348-0.839-0.667-1.301-0.908
			c-0.623-0.276-1.257-0.52-1.915-0.728l-1.231-0.256c-3.285-0.754-7.6-1.92-12.962-3.451l-7.452-1.606
			c-1.303-0.309-2.649-0.627-4.031-0.957c-0.831-0.229-1.724-0.463-2.634-0.694c-1.377-0.364-2.838-0.752-4.389-1.134
			c-0.625-0.162-1.13-0.293-1.544-0.367c-0.224-0.05-2.105-0.471-5.688-1.251c-2.762-0.599-6.501-1.434-11.268-2.478
			c-9.836-2.157-19.729-4.186-29.63-6.059c-1.022-0.229-4.082-0.753-9.193-1.595c-5.109-0.844-9.798-1.753-14.067-2.705
			c-2.151-0.482-5.881-1.632-11.247-3.449c-5.361-1.838-9.779-3.002-13.258-3.48c-3.476-0.477-7.08-1.161-10.77-2.024
			c-1.647-0.385-5.456-1.219-11.44-2.477c-3.999-0.832-8.936-1.858-14.843-3.08c-2.852-0.597-5.932-1.226-9.231-1.9
			c-1.05-0.212-2.115-0.434-3.204-0.653c-1.576-0.333-3.226-0.663-4.922-1.021c-0.499,0.127-1.061,0.338-1.689,0.656
			c-2.026,1.005-3.251,2.448-3.673,4.325l-1.047,4.692c-0.478,2.143-0.069,4.148,1.231,6.017c0.534,0.778,1.553,1.604,3.017,2.444
			l2.649,1.191"/>
		<path fill="#AFB5D4" d="M200.327,278.824c-0.592-0.234-1.17-0.263-1.691-0.122c-2.135,0.622-3.852,1.773-5.173,3.47
			c-1.41,1.797-2.558,3.76-3.472,5.843c-0.416,0.985-0.729,2.007-0.946,3.077c-1.397,6.931-2.671,13.88-3.853,20.887
			c-0.275,1.716-0.631,3.41-1.08,5.124c-1.646,6.315-2.857,11.068-3.644,14.304c-0.782,3.214-1.066,4.186-0.819,2.906
			c0.258-1.28,0.052-0.609-0.649,2.022c-0.689,2.619-0.521,5.049,0.477,7.289c1.021,2.241,1.133,3.854,0.328,4.893
			c-0.812,1.037-1.68,2.794-2.618,5.275c-0.941,2.483-1.894,4.921-2.854,7.3c-0.185,3.331-0.728,6.714-1.646,10.157
			c-1.283,4.876-2.138,9.851-2.521,14.93c-0.178,2.231-0.54,4.426-1.104,6.568c-0.837,3.181-1.729,6.331-2.718,9.477
			c-0.288,0.916-0.492,1.823-0.586,2.742c-0.149,1.325-0.438,2.617-0.823,3.866c-0.391,1.249-0.913,2.546-1.621,3.885
			c-0.688,1.34-0.897,2.768-0.647,4.243c0.253,1.469,0.365,2.393,0.319,2.794c-0.508,3.815-1.237,7.578-2.223,11.312
			c-0.832,3.143-1.096,6.329-0.786,9.569c0.223,2.543,1.073,4.887,2.55,7.014c1.003,1.396,2.367,2.082,4.116,2.036
			c0.52-0.026,0.978-0.144,1.397-0.391c3.405-1.894,5.878-4.63,7.444-8.167c0.668-1.546,1.043-3.134,1.111-4.777
			c0.078-1.394,0.175-2.808,0.339-4.207c0.289-2.625,0.465-5.261,0.554-7.868c0.03-0.814-0.278-2.016-0.916-3.596
			c-0.625-1.596-0.146-3.743,1.437-6.436c1.612-2.689,2.591-4.365,2.97-5.019c0.046-0.291,0.091-0.579,0.132-0.869
			c0.214-1.822,0.509-3.635,0.886-5.403c0.807-3.809,1.691-7.573,2.662-11.327c0.262-0.996,0.486-2.004,0.648-3.026
			c1.182-7.01,2.464-14.003,3.827-20.974c0.9-4.585,1.997-9.027,3.297-13.298l2.372-5.353l0.215-8.146l5.286-19.549
			c0.831-3.621,1.661-7.251,2.494-10.867c0.831-3.623,1.378-7.046,1.689-10.269c0.315-3.217,0.666-5.869,1.087-7.929
			c0.412-2.065,0.455-4.265,0.098-6.598C205.2,282.464,203.402,280.207,200.327,278.824"/>
		<path fill="#AFB5D4" d="M224.522,284.228c-0.732-0.266-1.488-0.254-2.239,0.035c-2.169,0.773-3.902,2.098-5.172,3.95
			c-1.935,2.794-3.261,5.553-3.995,8.258c-0.221,0.809-0.418,1.604-0.599,2.417c-0.202,0.978-0.357,1.978-0.493,2.961
			c-0.272,2.074-0.583,4.137-0.94,6.228c-0.358,2.177-0.724,4.304-1.101,6.375c-0.351,2.053-0.706,3.928-1.02,5.615
			c-0.307,1.665-0.708,3.27-1.176,4.796c-0.453,1.535-0.928,3.281-1.415,5.265c-0.44,1.783-0.879,3.555-1.298,5.337
			c-1.246,5.304-2.251,8.847-2.982,10.656c-0.727,1.81-0.737,6.673-0.044,14.622l-5.59,11.469
			c-0.629,5.501-1.335,11.344-2.099,17.558c-0.112,4.837-0.864,9.136-2.253,12.872c-1.372,3.735-2.033,6.029-1.942,6.86
			c0.095,0.838-0.986,5.2-3.244,13.096c0.51,1.847,0.537,3.463,0.09,4.883c-0.656,2.738-1.369,5.736-2.136,8.973
			c-0.633,2.643-0.867,5.346-0.739,8.107c0.106,1.956,0.45,3.846,1.05,5.678c0.452,1.351,1.186,2.574,2.217,3.639
			c0.097,0.124,0.208,0.211,0.341,0.301c2.121,1.446,4.152,1.383,6.116-0.21c3.411-2.784,5.673-6.292,6.805-10.48
			c0.312-1.104,0.401-2.287,0.321-3.541c-0.087-1.254,0.07-3.211,0.455-5.894c0.384-2.69,0.428-5.852,0.12-9.466
			c2.149-3.764,3.425-7.371,3.83-10.809c0.401-3.44,1.116-7.223,2.151-11.36c1.032-4.134,1.779-7.198,2.249-9.2l3.176-20.267
			l2.96-6.637l0.441-6.958l8.133-32.669c1.682-7.223,3.38-14.46,5.055-21.677c1.077-4.628,1.126-9.278,0.156-13.963
			C229.315,287.746,227.568,285.486,224.522,284.228"/>
		<path fill="#AFB5D4" d="M177.281,274.292c-2.344-1.496-4.56-1.275-6.656,0.707c-2.835,2.696-4.812,5.884-5.957,9.574
			c-0.954,3.116-1.596,6.279-1.948,9.489c-0.225,2.146-0.625,4.246-1.195,6.312c-1.293,4.736-2.297,9.514-2.975,14.371
			c-0.145,0.939-0.372,1.87-0.698,2.753c-0.69,1.937-0.417,3.677,0.817,5.246c0.122,0.146,0.173,0.3,0.202,0.462
			c0.229,1.945,0.016,3.871-0.667,5.77c-1.647,4.596-3.295,9.174-4.922,13.776c-1.588,4.512-2.967,9.06-4.149,13.668
			c-0.309,1.185-0.586,2.358-0.832,3.54c-0.984,4.705-1.732,9.483-2.238,14.332c-0.422,4.313-1.242,8.547-2.461,12.769
			c-1.206,4.136-1.94,8.294-2.221,12.519c-0.284,4.346-0.958,8.616-2.03,12.826c-1.126,4.371-2.208,8.756-3.278,13.146
			c-1.113,4.609-1.029,9.216,0.288,13.794c0.772,2.784,2.571,4.446,5.383,5.012c0.408-0.012,0.749-0.097,1.063-0.242
			c4.314-2.129,7.182-5.449,8.604-9.999c0.959-3.054,1.561-6.21,1.834-9.456c0.329-4.173,0.796-8.354,1.399-12.507
			c0.531-3.612,1.164-7.238,1.926-10.837c0.988-4.7,2.067-9.344,3.229-13.97c0.417-1.682,0.77-3.355,1.061-5.047
			c1.163-6.735,2.632-13.401,4.399-19.967c1.215-4.573,2.083-9.243,2.592-13.996c0.105-0.973,0.294-1.93,0.586-2.835
			c1.399-4.436,2.857-8.853,4.358-13.265c1.499-4.39,2.418-8.908,2.782-13.509c0.067-0.984,0.198-1.953,0.386-2.886
			c0.707-3.646,1.475-7.269,2.305-10.891c0.856-3.614,1.699-7.217,2.526-10.838c0.83-3.422,1.029-6.905,0.639-10.439
			c-0.148-1.171-0.268-2.356-0.393-3.52C180.757,277.681,179.517,275.729,177.281,274.292"/>
		<path fill="#AFB5D4" d="M155.408,274.433c-0.282-2.477-1.517-4.427-3.753-5.864c-2.351-1.499-4.562-1.279-6.662,0.705
			c-2.827,2.698-4.807,5.889-5.956,9.575c-0.954,3.114-1.549,5.973-1.771,8.594c-0.216,2.625-0.167,4.988,0.15,7.11
			c0.326,2.105-0.376,5.241-2.097,9.398c-0.572,1.407-1.056,2.616-1.473,3.624c-0.066,0.482-0.5,2.139-1.279,4.936
			c-1.528,5.513-2.378,9.896-2.568,13.141c-0.188,3.248-1.019,7.069-2.503,11.503c-1.486,4.434-2.812,8.935-3.992,13.543
			c-0.31,1.18-0.588,2.359-0.835,3.537c-0.987,4.705-1.731,9.484-2.233,14.335c-0.423,4.312-1.268,8.543-2.504,12.736
			c-1.229,4.171-2.553,8.645-3.931,13.374c-1.378,4.737-2.053,9.013-2.009,12.827c0.029,3.82-0.481,7.93-1.55,12.321
			c-1.11,4.608-1.026,9.215,0.291,13.796c0.771,2.782,2.569,4.443,5.38,5.007c0.41-0.007,0.75-0.094,1.062-0.239
			c4.319-2.125,7.183-5.45,8.608-9.998c0.962-3.054,1.425-6.002,1.431-8.816c-0.01-2.826,0.218-6.042,0.681-9.656
			c0.437-3.605,0.643-7.707,0.593-12.28c1.241-2.858,2.228-4.589,2.986-5.196c1.175-4.779,2.086-8.384,2.698-10.824
			c0.419-1.682,0.766-3.355,1.059-5.04c1.16-6.741,2.629-13.406,4.396-19.973c1.217-4.575,2.088-9.24,2.592-13.995
			c0.111-0.971,0.299-1.925,0.59-2.836c1.399-4.433,2.678-9.115,3.818-14.022c1.116-4.908,1.856-8.693,2.21-11.324
			c0.333-2.641,1.138-5.09,2.419-7.378c1.287-2.301,2.208-5.188,2.785-8.626c0.555-3.441,1.095-6.834,1.608-10.167
			c0.508-3.335,0.545-6.771,0.154-10.311C155.661,276.779,155.536,275.595,155.408,274.433"/>
		<path fill="#AFB5D4" d="M131.664,283.142c1.106-5.234,1.219-9.874,0.32-13.922c-0.887-4.108-2.561-6.413-5.022-6.902l-0.039-0.01
			c-2.439-0.606-4.915,0.773-7.449,4.117c-2.612,3.264-4.463,7.514-5.551,12.756l-12.139,61.476
			c-1.786,2.415-3.23,5.341-4.345,8.763c-0.511,1.521-0.932,3.139-1.296,4.849c-1.066,4.386-1.146,8.022-0.24,10.874L84.88,414.115
			c-0.97,4.625-0.995,8.767-0.041,12.47c0.928,3.636,2.544,5.71,4.855,6.226l0.039,0.01c2.228,0.497,4.535-0.701,6.919-3.597
			c2.357-2.964,4.035-6.737,5.063-11.348l11.874-58.034c-1.022-1.17-1.261-3.491-0.68-6.964c0.086-0.484,0.18-0.982,0.295-1.496
			l5.157-12.045L131.664,283.142z"/>
		<path fill="#AFB5D4" d="M103.171,262.784c-0.948-4.12-2.643-6.433-5.108-6.919l-0.042-0.01c-2.436-0.607-4.89,0.777-7.357,4.129
			c-2.514,3.289-4.308,7.557-5.392,12.796l-15.235,75.418l-4.468,13.279c-0.68,1.603-0.931,4.555-0.763,8.88l-7.107,37.687
			c-0.97,4.624-0.951,8.777,0.044,12.485c0.927,3.639,2.542,5.711,4.894,6.234l0.039,0.01c2.208,0.492,4.493-0.708,6.879-3.603
			c2.295-2.979,3.951-6.755,4.98-11.364l8.416-44.97c-0.822-3.314-0.652-6.869,0.504-10.614l5.667-14.206l13.849-65.281
			C104.035,271.491,104.088,266.835,103.171,262.784"/>
		<path fill="#AFB5D4" d="M64.708,260.825c0.128,0.007,0.25,0.033,0.352,0.057l2.92,0.653l-1.442,9.449l-2.187-0.489
			c-1.144,0.041-2.009,0.922-2.595,2.685c-2.658,7.201-4.979,15.176-6.953,23.928c-0.053,0.227-0.109,0.476-0.139,0.722
			l-0.111,0.501c-0.02,0.166-0.04,0.366-0.067,0.581c-0.133,1.086-0.021,2.008,0.372,2.75c0.011,0.046,0.104,0.106,0.235,0.197
			c0.1,0.04,0.252,0.113,0.443,0.216c0.141,0.051,0.275,0.12,0.427,0.194c0.064,0.015,0.104,0.023,0.16,0.054
			c0.197,0.073,0.396,0.15,0.597,0.236c0.414,0.152,0.877,0.293,1.372,0.464c0.062,0.014,0.146,0.032,0.201,0.066l0.042,0.009
			l0.162,0.036c0.721,0.224,1.531,0.442,2.445,0.668l4.053,0.984l0.612,0.137c0.039,0.009,0.165,0.037,0.392,0.066l0.188,0.043
			c-0.109,0.59-0.247,1.2-0.396,1.783c-0.49,2.184-1.122,4.334-1.917,6.454c-0.06,0.165-0.137,0.311-0.192,0.469
			c-2.194-0.447-4.743-0.954-7.614-1.535l-1.502-0.379c-0.603-0.199-1.2-0.392-1.807-0.578c-0.857-0.276-1.721-0.551-2.583-0.821
			c-5.047-2.185-6.653-6.803-4.817-13.869L49,284.365l2.946-13.377C53.963,263.21,58.214,259.829,64.708,260.825"/>
		
			<path fill="none" stroke="#737A90" stroke-width="3.1125" stroke-linecap="round" stroke-linejoin="round" stroke-miterlimit="10" d="
			M63.682,313.739c-2.196-0.448-4.744-0.955-7.615-1.536l-1.507-0.38c-0.598-0.198-1.195-0.391-1.802-0.577
			c-0.857-0.276-1.721-0.551-2.583-0.821c-5.046-2.185-6.653-6.803-4.817-13.869L49,284.365l2.946-13.377
			c2.017-7.778,6.271-11.158,12.762-10.163c0.128,0.007,0.247,0.033,0.352,0.057l2.923,0.654l-1.445,9.448l-2.187-0.489
			c-1.144,0.041-2.009,0.922-2.595,2.685c-2.659,7.206-4.979,15.176-6.953,23.928c-0.053,0.227-0.109,0.476-0.144,0.721
			l-0.111,0.501c-0.015,0.167-0.033,0.368-0.064,0.58c-0.131,1.088-0.02,2.01,0.374,2.752c0.008,0.046,0.104,0.106,0.235,0.197
			c0.1,0.04,0.256,0.114,0.443,0.216c0.141,0.051,0.275,0.12,0.427,0.194c0.062,0.014,0.105,0.023,0.165,0.055
			c0.192,0.072,0.395,0.149,0.592,0.235c0.414,0.152,0.877,0.293,1.374,0.464c0.06,0.014,0.145,0.032,0.199,0.066l0.042,0.009
			l0.162,0.036c0.721,0.224,1.535,0.442,2.445,0.668l4.051,0.984l0.39,0.087c0.063-0.006,0.145,0.013,0.225,0.05 M65.999,304.989
			l0.188,0.043"/>
		<path fill="#C5CDE3" d="M63.173,258.867c0.453-1.752,1.559-2.464,3.298-2.092l11.792,2.55c2.208,0.38,4.235,0.808,6.085,1.279
			c2.364,0.47,3.637,1.311,3.792,2.52c-0.34,2.577-0.949,5.492-1.84,8.721l-1.963,8.496c-0.3,0.191-0.588,0.326-0.833,0.375
			c-1.134-0.021-2.234-0.188-3.258-0.494l-0.265-0.06l-0.432-0.097c-4.706-1.033-9.287-2.015-13.773-2.995l-5.785-1.177
			c-0.154-1.525-0.086-2.982,0.254-4.402L63.173,258.867z"/>
		
			<path fill="none" stroke="#737A90" stroke-width="3.1125" stroke-linecap="round" stroke-linejoin="round" stroke-miterlimit="10" d="
			M66.471,256.775l11.792,2.55c2.208,0.38,4.235,0.808,6.085,1.279c2.364,0.47,3.637,1.311,3.792,2.52
			c-0.34,2.577-0.949,5.493-1.84,8.721l-1.963,8.496c-0.302,0.191-0.588,0.326-0.833,0.375c-1.134-0.021-2.232-0.188-3.258-0.494
			l-0.268-0.06l-0.429-0.097c-4.706-1.033-9.291-2.015-13.77-2.994l-5.789-1.178c-0.154-1.525-0.086-2.982,0.254-4.402l2.928-12.624
			C63.626,257.115,64.731,256.403,66.471,256.775z"/>
		<path fill="#AFB5D4" d="M62.745,311.399c-0.92-1.739-0.346-3.249,1.678-4.529c1.047-0.263,1.244-0.958,0.57-2.084
			c3.057,0.641,4.815,1.02,5.328,1.109c0.252,0.037,0.48,0.088,0.703,0.137c2.78,0.519,4.886,0.792,6.351,0.862l1.008-0.572
			c0.446-0.456,0.801-1.181,1.062-2.153l4.698-16.813l1.893-8.753c0.396-2.839,0.532-4.586,0.401-5.27
			c0.131,0.684-0.005,2.431-0.401,5.27c0.107-1.545,0.092-2.447-0.045-2.694c-0.155-0.339-0.408-0.574-0.753-0.749l-6.499-1.45
			c-0.795-0.482-1.472-1.104-2.046-1.897c-0.839-1.139-1.166-2.372-0.954-3.699c0.188-1.313,0.844-2.326,1.967-3.047
			c0.902-0.559,1.876-0.798,2.909-0.708l0.346,0.077l1.492,0.332l0.611,0.137l4.538,1.016c0.537,0.098,1.045,0.211,1.536,0.342
			c3.46,0.912,5.747,2.594,6.804,5.069c0.227,0.824,0.402,1.642,0.502,2.466c0.116,0.919,0.121,1.859-0.023,2.781
			c-0.191,1.238-0.477,2.429-0.848,3.598c-0.376,1.098-0.676,2.179-0.903,3.268c-0.276,1.537-0.585,3.039-0.947,4.536
			c-0.324,1.362-0.67,2.719-1.015,4.076c-0.093,0.316-0.191,0.658-0.283,0.975l-3.941,14.753c-0.477,1.646-1.103,3.221-1.909,4.712
			c-0.189,0.379-0.428,0.763-0.661,1.127c-2.304,2.537-5.419,3.519-9.356,2.9c-1.403-0.357-5.684-1.267-12.875-2.782
			c1.815,0.231,2.649,0.339,2.551,0.293C66.137,313.99,64.978,313.116,62.745,311.399"/>
		
			<path fill="none" stroke="#737A90" stroke-width="3.1125" stroke-linecap="round" stroke-linejoin="round" stroke-miterlimit="10" d="
			M80.961,264.435c0.165,0.017,0.328,0.053,0.493,0.089c0.124,0.027,0.45,0.103,0.999,0.243 M85.991,275.908
			c-0.155-0.339-0.408-0.574-0.753-0.749l-6.499-1.45c-0.795-0.482-1.472-1.104-2.046-1.897c-0.839-1.139-1.166-2.372-0.954-3.699
			c0.187-1.313,0.844-2.326,1.967-3.047c0.899-0.559,1.876-0.798,2.909-0.708l0.346,0.077 M82.453,264.767l0.611,0.137l4.536,1.016
			c0.539,0.098,1.047,0.211,1.538,0.342c3.46,0.912,5.742,2.597,6.804,5.069c0.227,0.824,0.402,1.642,0.502,2.466
			c0.116,0.919,0.121,1.859-0.023,2.781c-0.191,1.238-0.477,2.429-0.848,3.598c-0.376,1.098-0.676,2.179-0.903,3.268
			c-0.276,1.537-0.585,3.039-0.947,4.536c-0.324,1.362-0.673,2.719-1.015,4.076c-0.093,0.316-0.191,0.658-0.283,0.975l-3.941,14.753
			c-0.477,1.646-1.103,3.221-1.909,4.712c-0.189,0.379-0.428,0.763-0.661,1.127c-2.304,2.537-5.419,3.519-9.356,2.9
			c-1.403-0.357-5.684-1.267-12.875-2.782 M86.438,273.333c0.131,0.684-0.005,2.431-0.401,5.271l-1.893,8.752l-4.698,16.813
			c-0.262,0.973-0.616,1.697-1.062,2.153l-1.008,0.572c-1.465-0.07-3.57-0.344-6.35-0.862c-0.224-0.049-0.452-0.1-0.704-0.137
			c-0.513-0.09-2.271-0.469-5.328-1.109 M80.961,264.435l1.492,0.332"/>
		<path fill="#245E27" d="M123.589,211.456l0.001-0.024c5.631-4.334,12.561-7.065,20.799-8.134
			c10.019-1.285,20.577,0.521,31.643,5.396c0.043,0.03,0.082,0.038,0.122,0.066c4.205,2.202,7.977,4.777,11.316,7.699l-0.037-0.027
			c0.291,0.227,0.552,0.469,0.793,0.703c0.324,0.277,0.623,0.568,0.941,0.884c0.353,0.345,0.531,0.729,0.519,1.154
			c0.013,0.435-0.14,0.806-0.476,1.117c-0.316,0.296-0.71,0.432-1.189,0.405c-0.451-0.041-0.856-0.211-1.219-0.542
			c-0.262-0.256-0.521-0.497-0.791-0.725c-0.017-0.02-0.036-0.044-0.051-0.07l-0.018-0.003c-0.211-0.191-0.422-0.382-0.648-0.572
			c0.003-0.023-0.016-0.027-0.039-0.033c-3.088-2.702-6.59-5.091-10.469-7.162c-0.025-0.006-0.071-0.017-0.086-0.038l-0.019-0.004
			l-0.021-0.005c-10.338-4.549-20.214-6.242-29.578-5.059l0.017,0.004c-7.636,1.003-14.04,3.5-19.248,7.529l-0.025-0.006
			c-0.05,0.049-0.126,0.112-0.199,0.156c-0.005,0.02-0.025,0.016-0.046,0.031l-0.715,0.574c-0.029,0.035-0.077,0.065-0.108,0.102
			c-0.02,0.011-0.02,0.032-0.049,0.044c-4.794,4.043-7.36,9.09-7.67,15.108l-3.389-0.756c0.429-6.692,3.303-12.275,8.617-16.767
			l0.024-0.016c0.021-0.014,0.025-0.035,0.05-0.049c0.027-0.014,0.027-0.014,0.027-0.036c0.027-0.014,0.055-0.05,0.075-0.063
			l0.842-0.667c0.029-0.016,0.054-0.029,0.054-0.05C123.413,211.558,123.511,211.498,123.589,211.456"/>
		<path fill="#245E27" d="M123.694,231.513l-1.813-0.404c0.241-0.255,0.482-0.507,0.716-0.715c0.72-0.637,1.295-0.913,1.695-0.844
			L123.694,231.513z"/>
		<path fill="#245E27" d="M121.881,231.108l1.813,0.404l-1.48,4.821c-0.009,0.077-0.024,0.153-0.056,0.209
			c-0.155,0.621-0.3,1.234-0.46,1.872c-0.285,1.262-0.565,2.497-0.831,3.761c-0.311,1.418-0.521,2.856-0.646,4.315
			c-0.138,1.558-0.23,3.351-0.257,5.365c0.019,0.017,0.016,0.037,0.014,0.059c0.175,5.271,2.378,9.308,6.59,12.098
			c2.553,1.168,4.99,1.256,7.321,0.291c0.402-0.172,0.813-0.389,1.225-0.64c0.125-0.073,0.224-0.154,0.349-0.229
			c0.023-0.011,0.023-0.011,0.049-0.03c-1.547-5.048-1.484-9.776,0.159-14.189c0.413-1.11,1.083-2.081,2.011-2.877
			c-0.094,0.409-0.167,0.837-0.22,1.276c-0.662,4.395-0.322,8.826,1.02,13.299c0.125,0.414,0.254,0.81,0.385,1.185
			c0.048,0.114,0.089,0.244,0.154,0.363c0.045,0.132,0.111,0.266,0.168,0.421c0.021,0.025,0.033,0.071,0.047,0.116
			c0.101,0.166,0.2,0.351,0.283,0.505c0.019,0.029,0.019,0.029,0.017,0.048c0.117,0.203,0.252,0.44,0.383,0.674
			c0.021,0.022,0.021,0.022,0.039,0.049c0.117,0.193,0.233,0.379,0.355,0.589c0.811,1.221,1.784,2.312,2.941,3.306
			c0.683,0.461,1.446,0.748,2.244,0.909c0.49,0.09,1.005,0.124,1.557,0.106c1.016-0.168,1.951-0.383,2.807-0.679
			c0.605-0.192,1.171-0.412,1.713-0.658l0.026,0.007l0.015,0.002c2.321-1.146,4.161-2.898,5.53-5.217
			c0.588-0.969,1.106-1.973,1.592-3.001c-0.215-0.254-0.434-0.507-0.624-0.775c-2.429-3.779-2.949-7.681-1.554-11.664
			c0.53-1.532,1.437-2.714,2.723-3.562c-1.104,2.682-1.286,5.47-0.589,8.377c0.461,1.872,1.229,3.629,2.272,5.267
			c0.25,0.322,0.526,0.61,0.853,0.882l0.014,0.026l0.027,0.007c0.013,0.021,0.051,0.053,0.071,0.078
			c0.29,0.205,0.584,0.41,0.88,0.604c1.31,0.759,2.679,1.169,4.139,1.211l0.039,0.009c0.764,0.025,1.566-0.043,2.375-0.184
			c3.848-1.479,6.9-4.836,9.168-10.044c0.628-1.467,1.187-3.056,1.691-4.799c0.075-0.286,0.172-0.593,0.242-0.877l3.387,0.756
			c-0.037,0.094-0.056,0.191-0.092,0.282c-0.07,0.291-0.167,0.572-0.236,0.863l-0.004,0.023c-0.529,1.874-1.133,3.593-1.824,5.169
			c-2.676,6.2-6.379,10.1-11.077,11.718c-0.069,0.022-0.159,0.043-0.253,0.065c-1.131,0.212-2.237,0.291-3.3,0.238
			c-1.938-0.05-3.776-0.56-5.53-1.522c-0.438,0.882-0.893,1.733-1.39,2.584c-1.902,3.256-4.583,5.568-8.033,6.938
			c-1.199,0.446-2.521,0.777-3.943,1.012c-0.108,0.016-0.225,0.031-0.339,0.066c-0.066,0.008-0.131,0.009-0.196,0.013
			c-2.405,0.116-4.538-0.457-6.411-1.75c-0.039-0.029-0.073-0.079-0.134-0.117c-1.508-1.25-2.772-2.65-3.792-4.205l0.002-0.015
			c-0.029,0.029-0.073,0.059-0.119,0.072c-0.071,0.041-0.174,0.101-0.245,0.146l-0.294,0.164c-0.337,0.188-0.672,0.352-1.009,0.505
			c-3.338,1.47-6.858,1.356-10.517-0.372c-0.06-0.036-0.135-0.096-0.195-0.132c-5.374-3.417-8.156-8.414-8.362-14.991
			c0.001-0.024,0.006-0.045,0.009-0.062c0.021-3.007,0.282-5.863,0.731-8.553c0.323-1.984,0.784-3.876,1.344-5.685
			c-0.729-0.345-1.383-0.733-1.936-1.184c-0.865-0.703-1.536-1.508-2.052-2.419l0.002-0.015c-0.611-1.134-0.951-2.437-1.027-3.894
			c-0.009-0.063-0.003-0.101-0.017-0.149c0.011-0.18,0.038-0.336,0.038-0.476l3.389,0.756c0,0.017-0.009,0.059-0.009,0.077
			c0.085,0.892,0.288,1.694,0.629,2.402l0.02,0.005c0.285,0.49,0.646,0.937,1.104,1.302c0.293,0.213,0.586,0.417,0.928,0.598
			c0.042-0.116,0.352-0.656,0.939-1.623C121.04,232.161,121.446,231.6,121.881,231.108z"/>
		<path fill="#245E27" d="M184.235,243.509c-0.126,0.481-0.256,0.958-0.388,1.44l-3.386-0.755c0.119-0.427,0.233-0.848,0.337-1.29
			c0.046-0.137,0.065-0.255,0.104-0.363c0.095-0.431,0.347-0.739,0.757-0.952c0.41-0.218,0.851-0.242,1.289-0.117
			c0.462,0.124,0.809,0.401,1.063,0.804C184.271,242.682,184.329,243.083,184.235,243.509"/>
		<path fill="#9EC94C" d="M174.66,211.545l0.021,0.005l0.019,0.004c0.016,0.022,0.061,0.032,0.083,0.037
			c3.883,2.069,7.385,4.459,10.473,7.16c0.022,0.005,0.044,0.011,0.039,0.032c0.227,0.191,0.438,0.382,0.646,0.573
			c-0.148,0.212-0.655,0.854-1.54,1.914c-0.805,0.979-1.374,1.749-1.678,2.356c-0.594,1.125-1.202,2.601-1.849,4.412
			c-0.683,1.942-1.143,3.571-1.367,4.862c-0.26,1.467-0.387,2.461-0.371,2.992c0.006,1.062,0.276,2.301,0.816,3.704
			c0.14,0.336,0.272,0.939,0.433,1.773c0.128,0.656,0.281,1.157,0.414,1.533c-0.104,0.442-0.218,0.863-0.335,1.29
			c-0.07,0.284-0.169,0.591-0.242,0.877c-0.5,1.744-1.065,3.332-1.689,4.799c-2.27,5.208-5.322,8.564-9.17,10.044
			c-0.809,0.141-1.611,0.209-2.375,0.184l-0.039-0.009c-1.46-0.042-2.829-0.452-4.143-1.211c-0.292-0.193-0.59-0.399-0.876-0.604
			c-0.021-0.025-0.059-0.058-0.071-0.078l-0.027-0.007l-0.019-0.027c-0.321-0.271-0.595-0.557-0.848-0.881
			c-1.044-1.638-1.812-3.395-2.272-5.267c-0.697-2.907-0.515-5.695,0.589-8.377c-1.286,0.848-2.192,2.029-2.723,3.562
			c-1.396,3.983-0.87,7.886,1.554,11.664c0.19,0.269,0.409,0.521,0.627,0.776c-0.488,1.027-1.007,2.031-1.595,3
			c-1.369,2.318-3.209,4.071-5.525,5.218l-0.023-0.004l-0.022-0.006c-0.542,0.246-1.107,0.466-1.713,0.658
			c-0.855,0.296-1.791,0.511-2.807,0.679c-0.552,0.018-1.066-0.017-1.557-0.106c-0.801-0.162-1.559-0.447-2.244-0.909
			c-1.157-0.993-2.131-2.085-2.941-3.306c-0.122-0.21-0.238-0.396-0.355-0.589c-0.019-0.026-0.019-0.026-0.039-0.049
			c-0.131-0.233-0.266-0.471-0.383-0.674c0.002-0.019,0.002-0.019-0.02-0.049c-0.08-0.153-0.18-0.338-0.28-0.504
			c-0.014-0.045-0.028-0.092-0.047-0.116c-0.057-0.155-0.123-0.289-0.168-0.421c-0.065-0.119-0.106-0.249-0.154-0.363
			c-0.131-0.375-0.26-0.771-0.385-1.185c-1.342-4.473-1.682-8.904-1.022-13.299c0.056-0.439,0.129-0.867,0.223-1.276
			c-0.928,0.796-1.598,1.767-2.011,2.877c-1.644,4.413-1.706,9.142-0.159,14.189c-0.025,0.02-0.025,0.02-0.049,0.03
			c-0.125,0.074-0.224,0.155-0.349,0.229c-0.411,0.251-0.822,0.468-1.225,0.64c-2.331,0.965-4.767,0.877-7.317-0.29
			c-4.216-2.791-6.419-6.827-6.594-12.099c0.002-0.021,0.005-0.042-0.011-0.065c0.023-2.008,0.112-3.802,0.257-5.358
			c0.123-1.459,0.333-2.897,0.644-4.315c0.266-1.264,0.549-2.499,0.831-3.76c0.16-0.639,0.305-1.252,0.46-1.873
			c0.031-0.056,0.042-0.133,0.056-0.209l2.083-6.782c-0.403-0.07-0.979,0.205-1.7,0.842c-0.702,0.631-1.362,1.423-1.947,2.394
			c-0.588,0.967-0.899,1.506-0.939,1.623c-0.342-0.181-0.635-0.385-0.926-0.596c-0.458-0.365-0.82-0.813-1.106-1.304l-0.02-0.005
			c-0.341-0.708-0.544-1.511-0.629-2.402c0.29-6.063,2.852-11.111,7.679-15.186c0.029-0.012,0.029-0.033,0.05-0.048
			c0.03-0.032,0.08-0.062,0.107-0.098l0.715-0.573c0.021-0.017,0.041-0.013,0.044-0.033c0.073-0.044,0.151-0.106,0.201-0.155
			l0.025,0.006c5.208-4.029,11.615-6.526,19.248-7.529l-0.021-0.005C154.446,205.3,164.324,206.993,174.66,211.545"/>
	</g>
</g>
<g id="_x36_" display="none">
</g>
<g id="_x35_" display="none">
</g>
<g id="_x34_" display="none">
</g>
<g id="_x33_" display="none">
</g>
<g id="_x32_" display="none">
</g>
<g id="_x31_" display="none">
</g>
<g id="_x30_" display="none">
</g>
<g id="guide" display="none">
</g>
</svg>
