<?xml version="1.0" encoding="utf-8"?>
<!-- Generator: Adobe Illustrator 16.2.1, SVG Export Plug-In . SVG Version: 6.00 Build 0)  -->
<!DOCTYPE svg PUBLIC "-//W3C//DTD SVG 1.1//EN" "http://www.w3.org/Graphics/SVG/1.1/DTD/svg11.dtd">
<svg version="1.1" xmlns="http://www.w3.org/2000/svg" xmlns:xlink="http://www.w3.org/1999/xlink" x="0px" y="0px" width="320px"
	 height="102px" viewBox="0 0 320 102" enable-background="new 0 0 320 102" xml:space="preserve">
<g id="base">
</g>
<g id="book3">
</g>
<g id="_x38_" display="none">
</g>
<g id="_x37_">
	<g>
		<path d="M16.566,25.92c1.146,0.068,2.023,0.068,2.563,0.068c1.754,0,4.182-0.135,11.535-0.607
			c10.523-0.675,15.448-0.944,36.023-1.687c5.599-0.202,6.206-0.271,7.42-0.54l0.607,12.211c-0.944-0.136-1.215-0.136-1.889-0.136
			c-4.723,0-10.794,1.821-15.448,4.722c-6.746,4.115-10.727,9.85-10.727,15.381c0,3.846,1.821,6.477,5.667,8.298
			c2.766,1.349,8.5,2.429,12.885,2.429c0.675,0,1.079,0,2.023-0.067l-1.552,12.817c-0.944-0.135-1.281-0.203-2.495-0.338
			c-7.69-0.674-12.75-1.821-17.067-3.777c-7.96-3.711-12.075-9.916-12.075-18.484c0-5.599,1.889-10.658,5.733-15.245
			c1.754-2.159,3.373-3.508,6.611-5.734L23.042,37.32c-2.631,0.271-3.306,0.405-5.802,0.877L16.566,25.92z M63.45,51.487
			c-1.552-3.778-2.833-6.206-5.06-9.444l6.408-2.631c2.227,2.969,3.576,5.262,5.194,9.107L63.45,51.487z M71.815,47.845
			c-1.484-3.44-2.834-5.937-5.06-9.04l6.341-2.562c2.227,2.968,3.575,5.127,5.194,8.701L71.815,47.845z"/>
		<path d="M84.821,27c2.36,0.27,4.587,0.337,7.69,0.337c3.845,0,9.039-0.202,12.075-0.472c-1.417-3.711-2.227-5.532-2.834-6.746
			l11.806-1.417c0.337,2.159,0.81,3.71,2.091,7.016c6.477-0.877,14.369-2.495,18.282-3.777l0.944,9.849
			c-1.282,0.27-1.282,0.27-4.992,1.012c-3.913,0.811-3.98,0.877-10.727,1.957c0.54,1.281,1.282,3.035,1.552,3.508
			c9.377-1.687,12.615-2.429,15.718-3.576l1.013,9.917c-1.552,0.202-1.552,0.202-8.298,1.619c-0.067,0-3.171,0.54-4.048,0.742
			c2.767,4.856,4.655,7.556,8.635,12.412l-9.916,5.127c-3.98-2.091-8.298-2.968-14.167-2.968c-7.487,0-11.603,1.551-11.603,4.385
			c0,2.496,3.508,3.71,10.658,3.71c7.758,0,16.056-1.619,21.452-4.183l1.552,11.4c-1.417,0.203-1.417,0.203-4.722,0.945
			c-6.409,1.416-12.615,2.091-18.889,2.091c-10.254,0-17.135-2.159-20.44-6.409c-1.552-2.023-2.496-4.789-2.496-7.42
			c0-4.723,3.104-9.039,8.027-11.131c3.98-1.687,8.567-2.496,14.437-2.496c3.575,0,6.273,0.203,9.31,0.81
			c-0.742-1.012-1.754-2.631-3.104-4.79c-5.733,0.742-13.491,1.215-23.206,1.484c-4.047,0.135-4.25,0.135-5.868,0.338l-0.473-9.984
			c1.956,0.203,3.238,0.27,6.948,0.27c6.477,0,12.952-0.337,18.416-0.943c-0.202-0.541-0.741-1.754-1.551-3.576
			c-5.937,0.607-9.04,0.742-17.607,0.742c-3.035,0.067-3.508,0.067-5.06,0.135L84.821,27z"/>
		<path d="M179.048,37.254c6.409-0.811,9.377-1.012,17.877-1.012c0.473,0,1.889,0,3.306,0.066l0.202,11.4
			c-3.238-0.404-5.127-0.472-8.837-0.472c-7.421,0-12.21,0.405-18.956,1.687l-0.675-9.579c-3.238,0.337-4.048,0.405-6.139,0.54
			c-1.146,6.341-2.361,11.333-4.25,18.349c-1.687,5.937-2.091,7.421-4.992,16.122c-1.079,3.238-1.079,3.238-1.552,4.857
			l-12.412-4.52c4.452-8.635,8.837-22.059,11.333-34.539c-0.472,0-0.81,0-1.079,0c-2.159,0-3.575-0.067-6.477-0.203
			c-0.067,0-0.337,0-0.674,0c-0.54,0-0.81,0-1.552,0.068l0.202-10.996c2.631,0.404,6.206,0.675,10.254,0.675
			c0.202,0,0.675,0,1.281,0c0.877-5.397,1.147-8.028,1.147-10.119c0-0.202,0-0.54,0-1.012l12.614,0.944
			c-0.404,1.35-0.606,2.023-0.877,3.912c-0.067,0.405-0.472,2.361-1.079,5.803c4.655-0.473,7.354-0.877,11.063-1.754L179.048,37.254
			z M181.409,55.805c-2.563,3.035-3.643,5.262-3.643,7.354c0,3.103,2.766,4.587,8.433,4.587c5.262,0,11.805-1.079,15.92-2.631
			l0.81,11.806c-1.35,0.135-1.956,0.202-3.575,0.404c-6.342,0.877-9.04,1.079-13.154,1.079c-13.223,0-19.833-4.249-19.833-12.749
			c0-3.913,1.551-7.691,5.262-13.088L181.409,55.805z"/>
		<path d="M207.469,42.92c3.171,0.473,6.813,0.607,13.829,0.607h32.246c6.746,0,9.31-0.135,13.829-0.607v13.02
			c-3.238-0.337-6.206-0.404-13.896-0.404h-32.111c-7.555,0-9.781,0.067-13.896,0.404V42.92z"/>
		<path d="M285.636,60.257c0.135-1.349,0.135-1.956,0.135-3.036c0-1.281,0-1.281-0.271-5.262l-1.349-21.384
			c-0.135-2.767-0.473-5.802-0.81-9.106h15.718c-0.202,1.551-0.607,6.273-0.81,9.106l-1.349,21.384
			c-0.136,2.834-0.203,4.184-0.203,5.195c0,0.674,0,1.416,0.067,3.103H285.636z M284.421,77.594v-12.75h13.56v12.75H284.421z"/>
	</g>
</g>
<g id="_x36_" display="none">
</g>
<g id="_x35_" display="none">
</g>
<g id="_x34_" display="none">
</g>
<g id="_x33_" display="none">
</g>
<g id="_x32_" display="none">
</g>
<g id="_x31_" display="none">
</g>
<g id="_x30_" display="none">
</g>
<g id="guide" display="none">
</g>
</svg>
