<svg xmlns="http://www.w3.org/2000/svg" width="203.422" height="266" viewBox="0 0 203.422 266"><g><path fill="#EDDC00" d="M120.297 153.038c-1.001-1.051-1.598-2.614-1.793-4.69-.206-2.184.125-4.365.998-6.527 1.009-2.476 2.592-4.526 4.75-6.148 2.521-1.896 5.669-3.076 9.437-3.557.249-1.42 1.303-3.375 3.163-5.882 1.986-2.667 4.238-5.036 6.767-7.107 2.931-2.412 5.697-3.932 8.31-4.565 3.093-.756 5.713-.19 7.864 1.694 3.018 2.637 3.215 6.474.599 11.509-.955 1.834-2.165 3.574-3.622 5.221-1.309 1.471-2.375 2.4-3.202 2.788 2.646 1.86 3.717 4.372 3.213 7.517-.43 2.74-1.933 5.509-4.506 8.294-2.454 2.679-5.114 4.576-7.986 5.702-3.092 1.221-5.524 1.129-7.293-.279.83 1.562.627 3.271-.616 5.125-1.159 1.738-2.872 3.136-5.146 4.172-2.386 1.103-4.663 1.45-6.836 1.037-2.499-.457-4.397-1.886-5.699-4.275-.463-.848-.224-2.577.716-5.194.953-2.619 1.221-4.312.803-5.082l.079.247z"/><path stroke="#F1B700" stroke-width="2.458" stroke-miterlimit="10" d="M120.297 153.038l-.082-.25c.418.77.15 2.463-.803 5.082-.939 2.617-1.179 4.347-.716 5.194 1.302 2.39 3.2 3.818 5.699 4.275 2.173.413 4.45.065 6.836-1.037 2.274-1.036 3.987-2.434 5.146-4.172 1.243-1.854 1.446-3.562.616-5.125 1.769 1.408 4.201 1.5 7.293.279 2.872-1.126 5.532-3.023 7.986-5.702 2.573-2.785 4.076-5.554 4.506-8.294.504-3.145-.567-5.656-3.213-7.517.827-.388 1.894-1.317 3.202-2.788 1.457-1.646 2.667-3.387 3.622-5.221 2.616-5.035 2.419-8.872-.599-11.509-2.151-1.885-4.771-2.45-7.864-1.694-2.612.634-5.379 2.153-8.31 4.565-2.528 2.071-4.78 4.44-6.767 7.107-1.86 2.507-2.914 4.462-3.163 5.882-3.768.48-6.916 1.66-9.437 3.557-2.158 1.622-3.741 3.673-4.75 6.148-.873 2.162-1.204 4.344-.998 6.527.198 2.079.795 3.642 1.796 4.693z" fill="none"/><path fill="#FCDF00" d="M120.297 153.038c-1.001-1.051-1.598-2.614-1.793-4.69-.206-2.184.125-4.365.998-6.527 1.009-2.476 2.592-4.526 4.75-6.148 2.521-1.896 5.669-3.076 9.437-3.557.249-1.42 1.303-3.375 3.163-5.882 1.986-2.667 4.238-5.036 6.767-7.107 2.931-2.412 5.697-3.932 8.31-4.565 3.093-.756 5.713-.19 7.864 1.694 3.018 2.637 3.215 6.474.599 11.509-.955 1.834-2.165 3.574-3.622 5.221-1.309 1.471-2.375 2.4-3.202 2.788 2.646 1.86 3.717 4.372 3.213 7.517-.43 2.74-1.933 5.509-4.506 8.294-2.454 2.679-5.114 4.576-7.986 5.702-3.092 1.221-5.524 1.129-7.293-.279.83 1.562.627 3.271-.616 5.125-1.159 1.738-2.872 3.136-5.146 4.172-2.386 1.103-4.663 1.45-6.836 1.037-2.499-.457-4.397-1.886-5.699-4.275-.463-.848-.224-2.577.716-5.194.953-2.619 1.221-4.312.803-5.082l.079.247z"/><path fill="#E41F25" d="M131.443 186.31c-.207 0-.389.008-.53.033l-.038.032.007.049c.468.577 1.12 1.369 1.96 2.363.699.881 1.332 1.787 1.887 2.71.32.543.585 1.12.773 1.724l.306.996c-11.129 5.326-20.42 7.948-27.875 7.858-2.971-.042-5.384-.544-7.237-1.501-1.573-.833-2.545-1.912-2.9-3.252-.33-1.302-.033-2.645.897-4.029 1.045-1.547 2.693-2.891 4.927-4.027 5.114-2.594 11.777-3.574 19.973-2.933l1.046.073h.049l.043.027h.016l.19.016h.051l.55-.074c-.107-.141-.315-.328-.633-.568-.39-.297-.733-.479-1.021-.553-.529-.141-.983-.238-1.353-.305-7.948-.485-14.455.569-19.505 3.155-2.471 1.25-4.274 2.735-5.42 4.456-1.161 1.738-1.521 3.427-1.078 5.075v.007c.402 1.688 1.596 3.056 3.565 4.094h.01c2.001 1.055 4.604 1.606 7.815 1.656l.009-.01c7.198.105 16.079-2.271 26.638-7.139l2.627-1.287c.1-.362.084-.855-.052-1.482-.138-.668-.386-1.3-.739-1.895-.668-1.16-1.351-2.216-2.051-3.181-.833-1.135-1.425-1.769-1.795-1.9-.331-.123-.702-.181-1.112-.188"/><path fill="#E76500" d="M135.808 194.217l-.306-.996c-.188-.604-.453-1.181-.773-1.723-.555-.924-1.187-1.83-1.887-2.711-.84-.995-1.492-1.785-1.961-2.363l-.006-.049-4.663-.107-.676.107-.55.074h-.051l-.19-.018h-.016l-.092-.024-1.046-.074c-8.195-.642-14.858.339-19.973 2.934-2.233 1.135-3.882 2.479-4.927 4.026-.931 1.384-1.228 2.728-.897 4.029.355 1.34 1.327 2.42 2.9 3.253 1.854.954 4.267 1.458 7.237 1.499 7.457.09 16.748-2.531 27.877-7.857"/><path fill="#E41F25" d="M103.228 195.996c-.668 1.174-.791 2.404-.388 3.691.408 1.293 1.211 2.219 2.421 2.778 1.36.634 2.926.632 4.707.009l-.104-.034c-1.52.243-2.805.028-3.851-.659-.928-.605-1.532-1.479-1.814-2.625-.276-1.111-.18-2.203.282-3.295.488-1.148 1.306-2.034 2.462-2.649-1.747.535-2.99 1.465-3.715 2.784"/><path fill="#E76500" d="M117.874 170.338c-.411-1.154-1.499-2.271-3.261-3.352-1.318-.809-2.576-1.367-3.779-1.682l-.534.066c-2.811.348-4.968.717-6.467 1.119-3.222.875-6.591 2.365-10.099 4.48-1.145.693-2.225 1.441-3.253 2.25l7.79.889c.471.209.817.527 1.055.973.223.411.305.857.247 1.326-.024.256-.081.484-.175.709 2.16-1.31 5.116-2.57 8.867-3.773 2.172-.668 3.787-1.16 4.85-1.498 1.622-.513 2.997-.989 4.117-1.435l.478-.197-.478.197.23.216c.173 0 .282-.034.329-.098l.083-.19"/><path fill="#E17C9E" d="M124.439 183.723c.011-.191 0-.387-.041-.585-.089-.469-.304-.872-.625-1.202-.356-.354-.783-.562-1.283-.619l-5.102.924-3.418.618c-.716.14-1.275.468-1.68.972-.369.469-.534.98-.477 1.54.031.322.132.601.296.839.122.191.296.364.501.504.528.371 1.235.502 2.126.402l.354-.066 8.171-1.482c.469-.246.798-.608.989-1.079.106-.248.174-.505.189-.766"/><path fill="#E76500" d="M124.564 183.754l-.125-.031c-.016.262-.083.519-.188.765-.191.471-.521.833-.989 1.079l-8.171 1.482c1.095.569 1.919.947 2.455 1.154 1.521.584 3.112.874 4.777.874 2.691 0 4.975-.372 6.844-1.104.691-.271 1.254-.56 1.673-.873.36-.271.544-.494.544-.658l-.019-.206-.221-.124h-.587l.144-.231c-1.492-.735-3.535-1.443-6.137-2.127M113.971 182.858l3.418-.618c-1.359-.23-2.775-.445-4.249-.634-3.436-.446-6.654-.726-9.652-.833.105.429.073.856-.099 1.285l-4.846 6.006c2.133-.224 5.044-.619 8.741-1.171 1.804-.272 3.409-.493 4.826-.685-.164-.238-.264-.518-.295-.839-.059-.56.107-1.071.476-1.54.404-.502.964-.831 1.68-.971"/><path fill="#E76500" d="M131.146 186.111l.221.124-.039-.084-.067-.04h-.115zM110.834 165.305l-.494-.115-.04.182.534-.067"/><path fill="#E17C9E" d="M103.487 180.774l-.052-.173c-.131-.446-.396-.824-.781-1.131-.371-.295-.792-.459-1.261-.492-.503-.041-.956.074-1.376.362l-1.135 1.407-4.308 5.346c-.454.569-.669 1.18-.645 1.83.009.155.032.312.067.453.091.402.288.74.583 1.021.414.395.907.559 1.476.502.651-.065 1.277-.43 1.887-1.087l.6-.749 4.846-6.004c.173-.43.205-.856.099-1.285M87.779 173.559c-.486.338-.792.791-.906 1.343-.092.485-.009.932.254 1.333l.124.174c.397.512 1.038.849 1.919 1.014l8.31.955.306.031c.521-.098.939-.344 1.263-.74.146-.173.261-.354.35-.551.095-.225.151-.453.176-.709.058-.469-.024-.914-.247-1.326-.237-.445-.584-.764-1.055-.973l-7.79-.889-.816-.1c-.718-.074-1.353.075-1.888.438"/><path fill="#E76500" d="M87.251 176.408l-.124-.174c-.807.833-1.563 1.715-2.279 2.637-1.047 1.351-1.787 2.561-2.226 3.632-.436 1.08-.493 1.845-.171 2.298 1.184 1.623 3.129 2.693 5.838 3.212 1.573.298 3.478.421 5.709.363-.035-.141-.058-.296-.067-.453-.024-.65.19-1.259.645-1.829l4.308-5.346c-2.424.084-4.276.332-5.561.742 1.441-1.161 2.824-2.199 4.157-3.112l-8.31-.956c-.881-.164-1.522-.503-1.919-1.014"/><path stroke="#E41F25" stroke-width="1.318" stroke-linecap="round" stroke-linejoin="round" stroke-miterlimit="10" d="M117.711 170.214l-.479.197c-1.12.445-2.495.922-4.117 1.435-1.062.336-2.678.831-4.85 1.498-3.751 1.203-6.707 2.464-8.868 3.773-.089.197-.203.378-.35.551-.323.396-.741.643-1.263.74l-.306-.031c-1.333.914-2.716 1.952-4.158 3.113 1.285-.41 3.138-.658 5.562-.742l1.135-1.408c.42-.287.873-.403 1.376-.361.468.033.89.196 1.261.492.386.307.65.684.781 1.131l.052.173c2.997.106 6.217.387 9.652.831 1.474.19 2.89.403 4.249.634l5.102-.923c.5.057.927.265 1.283.619.321.33.536.732.625 1.203.041.197.052.393.041.583l.125.033c2.602.683 4.645 1.391 6.138 2.125l.443.231.221.123c.315.182.594.363.851.543m-21.095-21.505l-.288.033-.534.065c-2.811.348-4.968.717-6.467 1.119-3.222.874-6.591 2.366-10.099 4.48-1.145.694-2.225 1.441-3.253 2.25l-.816-.1c-.716-.074-1.351.075-1.886.438-.486.338-.792.791-.906 1.343-.092.484-.009.932.254 1.333-.807.834-1.563 1.714-2.279 2.637-1.047 1.351-1.787 2.562-2.226 3.633-.436 1.078-.493 1.844-.171 2.299 1.184 1.621 3.129 2.691 5.838 3.21 1.573.298 3.478.421 5.708.364.092.402.29.74.584 1.021.414.396.907.56 1.476.503.651-.065 1.277-.43 1.887-1.088l.6-.748c2.133-.225 5.043-.62 8.74-1.172 1.805-.271 3.41-.492 4.827-.684" fill="none"/><path fill="#FCDF00" d="M114.076 109.898l-.358-.092-.151-.166-.153-.178c-1.641-.732-3.353-1.35-5.14-1.843-.66-.184-1.325-.372-1.985-.577l-.158-.161-.155-.127c-.514-.104-.979-.331-1.39-.658-.144-.116-.312-.196-.498-.224l-.088.479c-.645 3.174-1.954 5.994-3.922 8.455-5.07 6.36-11.831 10.174-20.292 11.434-6.33.946-9.352 4.434-9.047 10.472.079 1.545.542 2.964 1.417 4.255 3.793 5.657 9.358 7.511 16.692 5.575 8-2.107 14.013-6.769 18.03-13.989 3.71-6.672 6.194-13.857 7.45-21.562l-.111-.034.128-.063.018-.125-.018.125c.127-.064.263-.102.408-.104.095-.005.14-.085.14-.25l-.146-.223-.145-.175c-.155-.119-.335-.197-.526-.244M104.066 105.86c-.127.168-.148.332-.067.491l.088-.479-.021-.012"/><path stroke="#F1B700" stroke-width="1.242" stroke-linecap="round" stroke-linejoin="round" stroke-miterlimit="10" d="M114.362 110.768l-.018.125-.017.098c-1.256 7.705-3.74 14.891-7.449 21.562-4.019 7.221-10.031 11.882-18.031 13.989-7.334 1.936-12.899.082-16.691-5.575-.876-1.291-1.34-2.71-1.418-4.255-.305-6.038 2.717-9.525 9.047-10.472 8.461-1.26 15.222-5.073 20.292-11.434 1.968-2.463 3.277-5.281 3.922-8.455l.089-.479c.057-.329.108-.651.15-.97" fill="none"/><path fill="#FCDF00" d="M86.461 135.951c.268.717.38 1.275.334 1.686-.307 2.438-2.049 4.24-5.222 5.405-.864.318-2.199.741-4.001 1.264-1.547.493-2.7 1.005-3.451 1.534-1.574 1.096-2.458 1.686-2.65 1.764-1.129.441-1.838-.047-2.117-1.48-.174-.884.193-1.961 1.111-3.226.494-.676 1.309-1.572 2.431-2.694-.18-.052-.576.098-1.168.439-.145.082-.747.457-1.816 1.127-1.672 1.048-2.658 1.421-2.945 1.12-1.183-1.222-.951-2.86.691-4.919.615-.771 1.247-1.387 1.882-1.836.862-.608 1.904-1.056 3.117-1.346-.3.047-.845.186-1.621.416-.81.229-1.396.379-1.759.443-1.302.236-1.862-.128-1.674-1.085.097-.479.373-1.021.845-1.62.561-.712 1.258-1.331 2.106-1.852 2.274-1.398 5.053-1.799 8.326-1.21 2.568.46 4.644 1.698 6.222 3.718.589.758 1.046 1.536 1.359 2.352"/><path stroke="#F1B700" stroke-width="1.271" stroke-linecap="round" stroke-linejoin="round" stroke-miterlimit="10" d="M86.461 135.951c-.312-.816-.77-1.594-1.359-2.352-1.578-2.02-3.653-3.258-6.222-3.718-3.273-.589-6.052-.188-8.326 1.21-.849.521-1.546 1.14-2.106 1.852-.472.6-.748 1.142-.845 1.62-.188.957.372 1.321 1.674 1.085.363-.064.949-.215 1.759-.443.776-.23 1.321-.369 1.621-.416-1.213.29-2.255.737-3.117 1.346-.635.449-1.267 1.065-1.882 1.836-1.643 2.059-1.874 3.697-.691 4.919.287.301 1.273-.072 2.945-1.12 1.069-.67 1.672-1.045 1.816-1.127.592-.342.988-.491 1.168-.439-1.122 1.122-1.937 2.019-2.431 2.694-.918 1.265-1.285 2.342-1.111 3.226.279 1.434.988 1.922 2.117 1.48.192-.078 1.076-.668 2.65-1.764.751-.529 1.904-1.041 3.451-1.534 1.802-.522 3.137-.945 4.001-1.264 3.173-1.165 4.915-2.968 5.222-5.405.046-.41-.066-.969-.334-1.686z" fill="none"/><path fill="#110C0D" d="M20.1 224.738c0-8.303 2.942-15.395 8.826-21.277 5.877-5.876 12.958-8.81 21.266-8.81 8.295 0 15.39 2.934 21.274 8.81 5.876 5.883 8.807 12.975 8.807 21.27 0 8.301-2.931 15.386-8.807 21.259-5.885 5.884-12.979 8.825-21.274 8.825-8.308 0-15.389-2.941-21.266-8.825-5.884-5.874-8.826-12.959-8.826-21.252m15.786-15.609c-4.124 4.125-6.184 9.088-6.184 14.905 0 5.813 2.06 10.778 6.184 14.891 4.113 4.124 9.09 6.186 14.903 6.186 5.819 0 10.785-2.062 14.898-6.186 4.111-4.112 6.175-9.077 6.175-14.891 0-5.817-2.063-10.78-6.175-14.905-4.113-4.112-9.079-6.173-14.898-6.173-5.813 0-10.79 2.061-14.903 6.173"/><path fill="#91A69A" d="M29.702 224.033c0-5.816 2.06-10.779 6.184-14.904 4.114-4.112 9.091-6.173 14.903-6.173 5.819 0 10.786 2.061 14.898 6.173 4.111 4.125 6.175 9.088 6.175 14.904 0 5.814-2.063 10.779-6.175 14.892-4.112 4.124-9.079 6.186-14.898 6.186-5.812 0-10.789-2.062-14.903-6.186-4.124-4.113-6.184-9.077-6.184-14.892m18.176-12.851c-.261-1.324-.542-2.148-.853-2.45-.445-.415-1.333-.503-2.682-.28-1.674.28-3.288.959-4.839 2.041-.695.497-1.315 1.018-1.847 1.57-.098.096-.184.204-.263.309-.88 1.016-1.49 2.188-1.828 3.514-.312 1.123-.376 2.109-.215 2.961.166.822.505 1.402 1.017 1.723l.166.088.396.125c2.448.67 4.896.756 7.356.271 1.268-.225 2.082-.475 2.438-.747.515-.396.951-1.286 1.307-2.669.263-.988.35-2.111.282-3.359-.047-.892-.193-1.927-.435-3.097m-.339 19.334c-.223-1.268-.476-2.08-.744-2.439-.397-.511-1.289-.948-2.674-1.306-.983-.261-2.108-.349-3.357-.279-.892.048-1.926.193-3.099.435-1.326.262-2.146.542-2.447.852-.415.444-.505 1.336-.278 2.68.278 1.674.957 3.291 2.04 4.84.495.698 1.017 1.316 1.567 1.848.099.098.203.184.31.262 1.016.881 2.188 1.49 3.516 1.828 1.122.311 2.108.379 2.959.214.823-.165 1.404-.503 1.722-1.015l.089-.166.126-.396c.666-2.453.752-4.899.27-7.358m15.206-19.344c-.098-.097-.202-.183-.311-.262-1.015-.881-2.188-1.491-3.513-1.83-1.123-.31-2.11-.376-2.96-.213-.824.166-1.407.504-1.726 1.016l-.087.167-.125.396c-.667 2.446-.755 4.896-.271 7.355.222 1.267.475 2.077.745 2.438.397.511 1.289.947 2.671 1.306.985.26 2.108.347 3.359.281.892-.049 1.927-.194 3.098-.437 1.324-.262 2.147-.541 2.449-.853.414-.444.501-1.335.277-2.679-.277-1.676-.956-3.292-2.041-4.84-.492-.695-1.013-1.314-1.565-1.845m2.981 21.26c.31-1.123.378-2.109.215-2.961-.167-.821-.505-1.402-1.018-1.723l-.166-.086-.396-.127c-2.449-.666-4.897-.756-7.356-.271-1.268.223-2.081.474-2.439.745-.511.395-.948 1.287-1.305 2.672-.264.986-.35 2.108-.28 3.359.044.889.189 1.924.433 3.094.262 1.326.543 2.148.853 2.447.445.417 1.338.504 2.683.283 1.673-.283 3.29-.959 4.837-2.043.697-.494 1.318-1.017 1.849-1.568.097-.096.185-.201.262-.308.881-1.015 1.491-2.186 1.828-3.513"/><path stroke="#4A4646" stroke-width="1.548" stroke-linecap="round" stroke-linejoin="round" stroke-miterlimit="10" d="M47.025 208.732c-.445-.416-1.333-.504-2.682-.281-1.674.281-3.288.959-4.839 2.041-.695.496-1.315 1.018-1.847 1.57-.098.096-.184.205-.263.308-.88 1.018-1.49 2.188-1.828 3.515-.312 1.123-.377 2.109-.215 2.961.166.822.505 1.402 1.017 1.723l.166.088.396.126c2.448.669 4.896.755 7.357.271 1.267-.225 2.081-.475 2.437-.747.515-.396.951-1.286 1.307-2.669.263-.987.35-2.111.282-3.358-.048-.891-.193-1.927-.436-3.097-.26-1.326-.541-2.15-.852-2.451zm-.23 19.344c-.397-.511-1.289-.947-2.674-1.306-.983-.26-2.108-.349-3.357-.278-.892.047-1.926.191-3.099.435-1.326.261-2.146.541-2.447.851-.415.444-.505 1.335-.278 2.68.278 1.674.957 3.291 2.04 4.839.495.698 1.017 1.317 1.567 1.849.099.098.203.185.31.263 1.016.88 2.188 1.489 3.516 1.828 1.122.31 2.108.378 2.959.214.823-.166 1.404-.504 1.722-1.016l.089-.168.126-.395c.667-2.451.754-4.896.271-7.355-.224-1.268-.477-2.081-.745-2.441zm-17.869-24.615c5.877-5.877 12.959-8.809 21.267-8.809 8.294 0 15.389 2.932 21.273 8.809 5.876 5.883 8.807 12.975 8.807 21.27 0 8.301-2.931 15.386-8.807 21.26-5.885 5.883-12.979 8.824-21.273 8.824-8.308 0-15.39-2.941-21.267-8.824-5.884-5.874-8.826-12.959-8.826-21.252 0-8.303 2.942-15.395 8.826-21.278zm33.509 7.449c-1.015-.881-2.188-1.491-3.513-1.83-1.123-.309-2.11-.376-2.96-.213-.824.166-1.407.504-1.726 1.016l-.087.167-.125.396c-.667 2.447-.755 4.896-.271 7.355.222 1.268.475 2.079.745 2.439.397.512 1.289.947 2.671 1.307.985.258 2.108.347 3.359.279.892-.048 1.927-.193 3.098-.437 1.324-.26 2.147-.541 2.449-.852.414-.443.502-1.335.277-2.679-.277-1.676-.956-3.291-2.041-4.84-.493-.697-1.015-1.316-1.566-1.849-.098-.094-.202-.181-.31-.259zm3.505 18.561c-.167-.821-.505-1.402-1.018-1.723l-.166-.087-.396-.126c-2.449-.666-4.897-.756-7.356-.271-1.268.223-2.081.474-2.439.745-.511.395-.948 1.288-1.305 2.672-.264.986-.351 2.107-.28 3.358.044.889.189 1.925.433 3.095.261 1.326.543 2.148.853 2.447.445.419 1.338.504 2.683.283 1.673-.283 3.29-.959 4.837-2.043.696-.493 1.318-1.016 1.849-1.568.097-.096.185-.201.263-.309.883-1.017 1.492-2.187 1.829-3.514.308-1.121.377-2.108.213-2.959z" fill="none"/><path stroke="#4E6156" stroke-width="1.548" stroke-linecap="round" stroke-linejoin="round" stroke-miterlimit="10" d="M35.886 209.129c4.113-4.112 9.09-6.173 14.903-6.173 5.819 0 10.785 2.061 14.898 6.173 4.111 4.125 6.175 9.088 6.175 14.905 0 5.813-2.063 10.778-6.175 14.891-4.113 4.124-9.079 6.186-14.898 6.186-5.813 0-10.79-2.062-14.903-6.186-4.124-4.112-6.184-9.077-6.184-14.891 0-5.817 2.06-10.78 6.184-14.905z" fill="none"/><path fill="#110C0D" d="M123.607 224.738c0-8.303 2.944-15.395 8.829-21.277 5.876-5.876 12.957-8.81 21.264-8.81 8.294 0 15.388 2.934 21.275 8.81 5.874 5.883 8.805 12.975 8.805 21.27 0 8.301-2.931 15.386-8.805 21.259-5.888 5.884-12.981 8.825-21.275 8.825-8.307 0-15.388-2.941-21.264-8.825-5.884-5.874-8.829-12.959-8.829-21.252m15.788-15.609c-4.123 4.125-6.186 9.088-6.186 14.905 0 5.813 2.062 10.778 6.186 14.891 4.113 4.124 9.087 6.186 14.906 6.186 5.816 0 10.781-2.062 14.895-6.186 4.114-4.112 6.175-9.077 6.175-14.891 0-5.817-2.061-10.78-6.175-14.905-4.113-4.112-9.078-6.173-14.895-6.173-5.82 0-10.793 2.061-14.906 6.173"/><path fill="#91A69A" d="M133.209 224.033c0-5.817 2.062-10.779 6.186-14.903 4.113-4.112 9.087-6.174 14.906-6.174 5.816 0 10.781 2.062 14.895 6.174 4.114 4.124 6.176 9.086 6.176 14.903 0 5.814-2.062 10.78-6.176 14.892-4.113 4.124-9.078 6.186-14.895 6.186-5.819 0-10.793-2.062-14.906-6.186-4.124-4.112-6.186-9.077-6.186-14.892m18.176-12.851c-.259-1.324-.539-2.148-.85-2.449-.447-.416-1.334-.504-2.682-.281-1.673.281-3.289.959-4.839 2.041-.696.496-1.315 1.018-1.851 1.57-.096.096-.183.205-.261.309-.879 1.017-1.488 2.188-1.826 3.515-.311 1.122-.38 2.108-.214 2.96.163.822.5 1.402 1.016 1.723l.163.088.397.126c2.448.669 4.898.755 7.355.271 1.271-.225 2.081-.475 2.441-.746.51-.396.947-1.287 1.306-2.67.26-.987.348-2.111.28-3.358-.045-.893-.191-1.929-.435-3.099m-.338 19.334c-.221-1.267-.473-2.08-.744-2.439-.396-.511-1.286-.947-2.671-1.307-.986-.259-2.11-.348-3.358-.277-.891.047-1.928.191-3.096.435-1.327.261-2.151.542-2.45.851-.415.444-.505 1.335-.282 2.68.282 1.674.96 3.291 2.04 4.841.496.696 1.021 1.315 1.57 1.847.098.098.204.185.31.262 1.018.881 2.188 1.49 3.513 1.829 1.123.31 2.111.378 2.963.214.824-.166 1.402-.504 1.722-1.016l.091-.167.124-.396c.665-2.453.75-4.898.268-7.357m15.205-19.345c-.096-.096-.203-.183-.308-.261-1.018-.881-2.188-1.49-3.516-1.83-1.121-.309-2.109-.376-2.96-.213-.824.166-1.402.504-1.722 1.016l-.089.167-.127.396c-.667 2.447-.753 4.896-.271 7.355.223 1.268.475 2.079.747 2.439.397.512 1.286.947 2.67 1.307.987.258 2.11.347 3.358.279.891-.047 1.927-.192 3.096-.437 1.329-.26 2.15-.541 2.451-.852.416-.443.505-1.335.281-2.679-.281-1.676-.959-3.291-2.042-4.84-.492-.696-1.015-1.315-1.568-1.847m2.179 16.577l-.163-.087-.398-.126c-2.45-.666-4.897-.756-7.356-.27-1.267.222-2.08.474-2.438.744-.512.395-.947 1.288-1.306 2.672-.263.986-.347 2.107-.28 3.358.047.889.192 1.925.435 3.095.263 1.326.544 2.148.851 2.447.445.419 1.337.504 2.682.283 1.676-.283 3.292-.959 4.84-2.043.697-.493 1.317-1.016 1.85-1.568.094-.097.184-.201.261-.309.881-1.017 1.49-2.187 1.832-3.513.308-1.124.373-2.111.211-2.962-.17-.82-.51-1.401-1.021-1.721"/><path stroke="#4A4646" stroke-width="1.548" stroke-linecap="round" stroke-linejoin="round" stroke-miterlimit="10" d="M150.535 208.732c-.447-.417-1.335-.503-2.682-.281-1.673.281-3.289.959-4.839 2.041-.696.496-1.315 1.019-1.851 1.57-.096.096-.183.203-.261.309-.879 1.017-1.488 2.188-1.826 3.514-.311 1.123-.38 2.108-.214 2.961.163.822.5 1.403 1.016 1.723l.163.088.397.125c2.448.669 4.898.755 7.355.271 1.271-.224 2.081-.474 2.441-.746.51-.396.947-1.286 1.306-2.669.26-.988.348-2.111.28-3.358-.047-.891-.193-1.927-.438-3.097-.256-1.327-.536-2.15-.847-2.451zm-.232 19.344c-.396-.51-1.286-.947-2.671-1.307-.986-.26-2.11-.348-3.359-.279-.89.049-1.927.193-3.095.437-1.328.261-2.151.541-2.451.85-.415.445-.504 1.336-.281 2.681.281 1.674.96 3.291 2.04 4.838.496.699 1.021 1.319 1.57 1.85.097.098.204.185.31.262 1.018.881 2.188 1.49 3.513 1.829 1.123.31 2.11.378 2.963.212.824-.164 1.402-.502 1.722-1.015l.09-.166.125-.396c.667-2.451.752-4.896.27-7.355-.223-1.269-.475-2.082-.746-2.441zm-17.866-24.616c5.875-5.876 12.957-8.808 21.264-8.808 8.294 0 15.388 2.932 21.275 8.808 5.874 5.884 8.805 12.976 8.805 21.271 0 8.301-2.931 15.386-8.805 21.259-5.888 5.884-12.981 8.825-21.275 8.825-8.307 0-15.389-2.941-21.264-8.825-5.885-5.873-8.829-12.958-8.829-21.25-.001-8.304 2.944-15.396 8.829-21.28zm33.507 7.45c-1.018-.881-2.188-1.49-3.516-1.83-1.122-.31-2.109-.375-2.96-.213-.825.166-1.402.504-1.722 1.017l-.089.165-.127.396c-.667 2.447-.754 4.896-.271 7.355.223 1.269.475 2.079.747 2.438.397.513 1.286.947 2.67 1.308.987.258 2.11.346 3.358.279.891-.049 1.927-.192 3.096-.436 1.329-.262 2.149-.541 2.451-.852.416-.444.505-1.337.281-2.681-.281-1.675-.959-3.29-2.042-4.839-.494-.696-1.018-1.316-1.57-1.848-.094-.093-.201-.181-.306-.259zm2.323 16.752l-.397-.127c-2.45-.667-4.897-.756-7.356-.271-1.267.223-2.08.475-2.438.746-.512.395-.947 1.287-1.306 2.671-.264.986-.347 2.108-.28 3.359.047.89.192 1.925.434 3.095.264 1.326.545 2.148.852 2.447.445.419 1.337.504 2.683.282 1.675-.282 3.291-.958 4.838-2.041.698-.494 1.318-1.017 1.851-1.57.094-.096.184-.2.261-.308.88-1.016 1.49-2.187 1.832-3.514.308-1.123.373-2.109.211-2.961-.167-.821-.506-1.402-1.019-1.723l-.166-.085z" fill="none"/><path stroke="#4E6156" stroke-width="1.548" stroke-linecap="round" stroke-linejoin="round" stroke-miterlimit="10" d="M139.395 209.129c4.113-4.112 9.087-6.173 14.906-6.173 5.816 0 10.781 2.061 14.895 6.173 4.114 4.125 6.175 9.088 6.175 14.905 0 5.813-2.061 10.778-6.175 14.891-4.113 4.124-9.078 6.186-14.895 6.186-5.819 0-10.793-2.062-14.906-6.186-4.123-4.112-6.186-9.077-6.186-14.891 0-5.817 2.062-10.78 6.186-14.905z" fill="none"/><path fill="#9DAFA5" d="M109.604 218.262c-.069-.611.076-1.171.434-1.693l10.378-15.029 3.609 2.826-10.222 14.807c-.358.522-.857.843-1.489.957-.569.108-1.113-.027-1.644-.397l-.062-.037c-.522-.361-.859-.842-1.004-1.434"/><path stroke="#4A4646" stroke-width="1.548" stroke-linecap="round" stroke-linejoin="round" stroke-miterlimit="10" d="M120.415 201.54l-10.378 15.028c-.357.522-.503 1.082-.434 1.693.146.592.482 1.074 1.005 1.434l.062.037c.53.368 1.074.505 1.645.396.631-.114 1.13-.434 1.488-.956l10.222-14.808" fill="none"/><path fill="#3D3938" d="M116.436 204.423c-1.189.184-1.849-.185-1.983-1.084l-.473-3.029c-.138-.897.395-1.431 1.588-1.615l15.233-2.341c1.198-.183 1.866.172 2.003 1.064l.463 3.028c.137.899-.385 1.44-1.576 1.626l-15.255 2.351z"/><path stroke="#574A4D" stroke-width="1.548" stroke-linecap="round" stroke-linejoin="round" stroke-miterlimit="10" d="M116.436 204.423l15.255-2.351c1.191-.186 1.713-.727 1.576-1.626l-.463-3.028c-.137-.893-.805-1.247-2.003-1.064l-15.233 2.341c-1.193.185-1.726.718-1.588 1.615l.473 3.029c.134.899.793 1.267 1.983 1.084z" fill="none"/><path stroke="#4E6156" stroke-width="1.548" stroke-linecap="round" stroke-linejoin="round" stroke-miterlimit="10" d="M113.998 231.137h1.16m1.164 0h1.165m1.159 0h1.162m1.163 0h1.161m1.161 0h1.16m1.163 0h1.16m1.162 0h1.16m1.161 0h1.162m1.162 0h1.161m1.163-.011h1.16m1.162-.02h1.162m1.162-.019h1.162m1.162-.019h1.161m1.16-.018h1.161m1.162-.021h1.161m1.161-.02h1.162m1.161-.017h1.162m1.162-.021h.892m-38.957-24.909l1.121.32m1.121.329l1.124.328m1.121.33l1.126.308m1.123.33l1.121.31m1.124.329l1.121.31m1.124.329l1.121.309m1.124.33l1.121.328m1.124.31l1.124.328m1.123.311l1.123.328m1.123.331l1.123.308m1.12.329l1.124.31m1.122.33l1.123.328m1.122.31l1.123.33m1.121.308l1.124.329m1.122.31l1.126.329m1.122.33l1.122.311m1.123.329l1.121.308m1.125.327l1.122.33m1.123.309l.726.214" fill="none"/><path fill="#9DAFA5" d="M154.263 217.277l.534.021c1.771.115 3.292.812 4.577 2.09 1.404 1.401 2.111 3.105 2.111 5.1 0 2.002-.707 3.705-2.111 5.109-1.412 1.402-3.117 2.109-5.111 2.109h-.085c-1.966-.02-3.637-.728-5.025-2.109-1.401-1.404-2.109-3.107-2.109-5.101 0-2.003.708-3.707 2.109-5.108 1.404-1.404 3.11-2.111 5.11-2.111"/><path stroke="#4A4646" stroke-width="1.548" stroke-linecap="round" stroke-linejoin="round" stroke-miterlimit="10" d="M154.797 217.299c1.771.115 3.292.812 4.577 2.09 1.404 1.401 2.11 3.105 2.11 5.1 0 2.002-.706 3.705-2.11 5.109-1.412 1.402-3.117 2.109-5.111 2.109h-.085c-1.966-.02-3.638-.727-5.025-2.109-1.401-1.404-2.109-3.107-2.109-5.101 0-2.003.708-3.707 2.109-5.108 1.404-1.404 3.11-2.111 5.11-2.111l.534.021z" fill="none"/><path fill="#668A8F" d="M60.227 142.406c1.324-3.262 2.631-4.896 3.92-4.896.222 0 2.7.484 7.412 1.451l-1.432 4.49c-1.238-.416-2.487-.794-3.746-1.142-.398-.106-.727-.012-.986.3-.67.803-1.153 1.693-1.473 2.671-.262.803-.367 1.626-.319 2.468.013.135.05.262.127.377.551.842 1.285 1.508 2.187 1.992 1.549.833 2.952 1.858 4.2 3.078.494.464.698 1.025.628 1.684-.182 1.713-.493 3.398-.929 5.062-.075.29-.146.57-.192.852l-4.723-1.277.201-.9c.205-.9.302-1.578.302-2.023 0-.648-.359-1.305-1.073-1.975-.389-.367-1.181-.958-2.373-1.76-1.112-.766-1.906-1.396-2.361-1.869-.716-.745-1.074-1.49-1.074-2.254 0-.514.156-1.374.465-2.564.336-1.298.742-2.556 1.239-3.765"/><path fill="#668A8F" d="M62.334 160.24c.242-.881.784-1.211 1.628-.986l.938.262 4.723 1.277 1.888.502c.834.223 1.133.783.892 1.664l-2.838 10.481-.25.946c-.243.883-.775 1.211-1.607.988l-1.113-.299-5.702-1.539-.735-.201c-.84-.225-1.15-.786-.909-1.666l3.085-11.429z"/><path fill="#E51711" d="M66.593 175.075l1.114.301c.832.222 1.364-.106 1.607-.989l.25-.945 41.444 9.193 2.305-7.666.202.059c1.685.9 3.311 1.491 4.87 1.771l-2.266 7.549c1.89.957 3.582 2.273 5.101 3.947l31.319 34.199c3.282 3.57 2.974 5.052-.948 4.459l-43.92-6.801-.516-.039c-.522-.087-1.071-.232-1.663-.426-1.442-.474-3.078-1.249-4.918-2.322-3.193-1.866-6.996-4.654-11.408-8.342l-26.271-20.139 3.698-13.809zm6.457 7.007c-4.161-.918-4.259.232-.28 3.454l21.061 16.858 8.274 6.775c.25.201.504.396.756.579l.067-.23 5.748-19.087-35.626-8.349zm47.156 13.615c-1.802-1.885-3.862-3.338-6.195-4.345l-6.309 20.999c.936.348 1.914.62 2.911.822l28.105 5.479c2.952.562 3.535-.069 1.754-1.896l-20.266-21.059zM66.593 175.076l-3.697 13.809-9.416 35.148c-.214.794-.657 1.383-1.327 1.772-.725.414-1.487.521-2.284.309-.804-.213-1.384-.679-1.761-1.394-.436-.688-.543-1.424-.328-2.218l13.112-48.967 5.701 1.541z"/><path fill="#110C0D" d="M119.759 161.915c3.359.087 5.236.136 5.643.154 1.635.095 2.857.289 3.66.571.918.329 1.578.87 1.974 1.615.396.756.591 1.859.591 3.31 0 2.671-1.085 4.917-3.243 6.737-2.149 1.787-4.78 2.689-7.887 2.689-.688 0-1.393-.068-2.11-.193-1.56-.28-3.186-.871-4.87-1.771l-.184-.098c-1.974-1.092-4.258-2.729-6.852-4.926-.755-.637-1.811-1.248-3.156-1.828-.765-.318-1.896-.773-3.417-1.365-1.248-.531-2.156-1.082-2.74-1.643-.744-.727-1.122-1.599-1.122-2.635 0-1.42.903-2.533 2.692-3.336h2.894c4.896.966 8.188 1.586 9.863 1.866 3.152.514 5.911.805 8.264.853"/><path stroke="#8F0911" stroke-width="2.145" stroke-linecap="round" stroke-linejoin="round" stroke-miterlimit="10" d="M62.896 188.885l-9.416 35.148c-.214.793-.657 1.383-1.327 1.771-.725.416-1.487.521-2.284.31-.804-.213-1.384-.679-1.761-1.394-.436-.688-.543-1.424-.328-2.217l13.112-48.967" fill="none"/><path stroke="#3D3938" stroke-width="2.145" stroke-linecap="round" stroke-linejoin="round" stroke-miterlimit="10" d="M70.127 143.451c-1.238-.416-2.487-.794-3.746-1.142-.398-.106-.727-.012-.986.3-.67.803-1.153 1.693-1.473 2.671-.262.803-.367 1.626-.317 2.468.01.136.047.262.125.377.551.842 1.285 1.508 2.187 1.993 1.549.833 2.952 1.857 4.2 3.077.493.463.698 1.025.628 1.685-.182 1.712-.493 3.397-.929 5.062-.076.29-.146.57-.192.852M60.892 173.537l-.735-.202c-.841-.224-1.15-.784-.909-1.665l3.087-11.431c.243-.879.784-1.21 1.628-.986l.938.263M69.623 160.793l-4.723-1.277M69.623 160.793l1.888.503c.834.222 1.133.782.892 1.663l-2.838 10.481M66.593 175.076l1.114.299c.832.223 1.364-.105 1.607-.988l.25-.946" fill="none"/><path stroke="#8F0911" stroke-width="2.145" stroke-linecap="round" stroke-linejoin="round" stroke-miterlimit="10" d="M72.77 185.537l21.061 16.857 9.098 7.124 5.748-19.087-35.626-8.35c-4.162-.918-4.26.233-.281 3.456zM62.896 188.885l3.697-13.809" fill="none"/><path stroke="#3D3938" stroke-width="2.145" stroke-linecap="round" stroke-linejoin="round" stroke-miterlimit="10" fill="none" d="M60.892 173.537l5.701 1.539"/><path stroke="#8F0911" stroke-width="2.145" stroke-linecap="round" stroke-linejoin="round" stroke-miterlimit="10" d="M118.386 176.799l-2.265 7.547c1.889.959 3.581 2.275 5.1 3.948l31.319 34.2c3.282 3.57 2.975 5.052-.948 4.46l-43.92-6.802-.516-.039c-.522-.088-1.071-.234-1.663-.426-1.441-.473-3.078-1.248-4.918-2.324-3.192-1.865-6.996-4.652-11.408-8.34l-26.271-20.139" fill="none"/><path stroke="#3D3938" stroke-width="2.145" stroke-linecap="round" stroke-linejoin="round" stroke-miterlimit="10" d="M113.332 174.93c-1.974-1.092-4.259-2.729-6.852-4.926-.755-.637-1.811-1.248-3.156-1.829-.765-.317-1.896-.772-3.417-1.364-1.248-.531-2.156-1.082-2.74-1.644-.744-.726-1.122-1.598-1.122-2.633 0-1.421.903-2.534 2.692-3.337h2.894c4.896.966 8.188 1.585 9.863 1.867 3.153.512 5.912.803 8.265.851 3.359.087 5.235.136 5.643.154 1.635.095 2.856.289 3.66.571.918.329 1.577.871 1.974 1.615.396.756.591 1.859.591 3.31 0 2.671-1.086 4.918-3.243 6.737-2.149 1.787-4.78 2.689-7.887 2.689-.688 0-1.393-.068-2.11-.193" fill="none"/><path stroke="#8F0911" stroke-width="2.145" stroke-linecap="round" stroke-linejoin="round" stroke-miterlimit="10" d="M113.332 174.93l.184.098M118.386 176.799c-1.56-.28-3.186-.871-4.87-1.771M113.516 175.027l-.203-.057M113.313 174.969l.019-.039" fill="none"/><path stroke="#8F0911" stroke-width="2.145" stroke-linecap="round" stroke-linejoin="round" stroke-miterlimit="10" d="M114.011 191.354l-6.309 20.998c.936.348 1.914.621 2.911.823l28.105 5.478c2.952.562 3.535-.069 1.754-1.896l-20.267-21.059c-1.801-1.887-3.861-3.34-6.194-4.344zM69.564 173.44l41.446 9.195 2.303-7.666" fill="none"/><path stroke="#3D3938" stroke-width="2.145" stroke-linecap="round" stroke-linejoin="round" stroke-miterlimit="10" d="M64.9 159.516l.201-.9c.205-.9.302-1.578.302-2.023 0-.648-.359-1.305-1.073-1.975-.389-.367-1.181-.959-2.373-1.76-1.112-.767-1.906-1.395-2.361-1.868-.716-.746-1.074-1.491-1.074-2.255 0-.514.156-1.373.465-2.564.338-1.296.744-2.555 1.24-3.764 1.324-3.263 2.631-4.896 3.92-4.896.222 0 2.7.483 7.412 1.45" fill="none"/><path fill="#E51711" d="M74.414 135.119l.735.241c.396.126.688.378.882.765.201.396.242.793.117 1.18l-.494 1.551 13.849 4.432c.986.309 1.325.959 1.006 1.945l-1.268 3.967c-.316.986-.966 1.325-1.956 1.015l-13.85-4.431-.263.812c-.123.397-.386.688-.771.882-.389.203-.776.241-1.173.117l-.735-.242c-.396-.127-.688-.379-.891-.776-.203-.378-.232-.764-.105-1.159l2.969-9.291c.127-.387.378-.687.766-.9.397-.194.788-.235 1.182-.108"/><path stroke="#8F0911" stroke-width="2.145" stroke-linecap="round" stroke-linejoin="round" stroke-miterlimit="10" d="M74.414 135.119c-.395-.127-.785-.086-1.182.105-.388.214-.639.514-.766.9l-2.969 9.291c-.127.396-.098.781.105 1.159.203.397.494.649.891.776l.735.242c.396.124.784.086 1.173-.117.385-.193.647-.484.771-.882l.263-.812 13.85 4.431c.99.311 1.64-.028 1.956-1.015l1.268-3.967c.319-.986-.02-1.637-1.006-1.945l-13.849-4.432.494-1.551c.125-.387.084-.783-.117-1.18-.194-.387-.485-.639-.882-.765l-.735-.238z" fill="none"/><path fill="#9DAFA5" d="M114.572 205.85c.291.057.57.127.852.213 2.012.58 3.812 1.664 5.409 3.252 2.508 2.516 3.766 5.554 3.766 9.115 0 3.569-1.258 6.607-3.766 9.116-1.966 1.964-4.24 3.154-6.834 3.591-.734.123-1.498.183-2.281.183-3.574 0-6.611-1.257-9.119-3.773-2.517-2.509-3.775-5.547-3.775-9.107 0-3.57 1.259-6.608 3.775-9.124 2.508-2.509 5.545-3.764 9.119-3.764.995-.001 1.943.094 2.854.298"/><path stroke="#4A4646" stroke-width="1.548" stroke-linecap="round" stroke-linejoin="round" stroke-miterlimit="10" d="M115.425 206.062c2.012.58 3.812 1.664 5.408 3.252 2.508 2.516 3.766 5.554 3.766 9.115 0 3.569-1.258 6.607-3.766 9.116-1.965 1.964-4.24 3.154-6.834 3.591-.734.123-1.498.183-2.281.183-3.574 0-6.611-1.257-9.119-3.773-2.517-2.509-3.775-5.547-3.775-9.107 0-3.57 1.259-6.608 3.775-9.124 2.508-2.509 5.545-3.764 9.119-3.764.995 0 1.943.096 2.855.299.29.056.57.126.852.212z" fill="none"/><path stroke="#C8DED5" stroke-width="2.322" stroke-linecap="round" stroke-linejoin="round" stroke-miterlimit="10" d="M102.125 215.596c.474-1.615 1.324-3.029 2.575-4.26 1.888-1.848 4.218-2.808 7.018-2.865" fill="none"/><path fill="#9DAFA5" d="M113.01 219.113c.066.61-.078 1.172-.438 1.695l-10.375 15.027-3.609-2.826 10.222-14.806c.359-.522.858-.842 1.492-.959.569-.106 1.111.029 1.645.397l.057.039c.523.361.861.843 1.006 1.433"/><path stroke="#4A4646" stroke-width="1.548" stroke-linecap="round" stroke-linejoin="round" stroke-miterlimit="10" d="M102.197 235.836l10.375-15.027c.359-.523.504-1.085.438-1.695-.145-.59-.482-1.072-1.008-1.434l-.056-.037c-.533-.367-1.075-.504-1.645-.398-.634.119-1.133.436-1.492.959l-10.222 14.806" fill="none"/><path fill="#3D3938" d="M90.537 232.323l1.896-2.421c.56-.715 1.316-.696 2.264.049l12.188 9.551c.947.746 1.139 1.482.579 2.197l-1.897 2.42c-.57.716-1.327.695-2.274-.048l-12.186-9.551c-.946-.746-1.142-1.483-.57-2.197"/><path stroke="#574A4D" stroke-width="1.548" stroke-linecap="round" stroke-linejoin="round" stroke-miterlimit="10" d="M90.537 232.323c-.572.714-.376 1.451.569 2.197l12.186 9.551c.947.743 1.704.764 2.274.048l1.897-2.42c.56-.715.368-1.451-.579-2.197l-12.188-9.551c-.947-.745-1.704-.764-2.264-.049l-1.895 2.421z" fill="none"/><path fill="#E2AA00" d="M35.952 168.5c-.077-.447-.126-.861-.146-1.258h7.415l.551 6.647h-6.843l-.977-5.389zM33.851 162.101c0-.918.455-1.374 1.374-1.374h28.38c.918 0 1.373.456 1.373 1.374v3.775c0 .909-.455 1.365-1.373 1.365h-28.38c-.919 0-1.374-.456-1.374-1.365v-3.775zM36.929 173.89h6.843l.582 7.072h-5.836 5.836l.523 6.474h-1.906c-2.373-.008-3.75-.994-4.126-2.961l-1.916-10.585zM43.771 173.89l-.55-6.649h12.457l-.714 6.649zM63.535 167.241c-.019.397-.076.812-.164 1.258l-2.4 12.463h-6.773l.767-7.072h7.207-7.207l.714-6.648h7.856zM54.197 180.963l-.668 6.222.668-6.222h6.773l-.666 3.512c-.37 1.966-1.754 2.953-4.145 2.961h-11.282l-.523-6.473h9.843zM44.354 180.963l-.583-7.072h11.193l-.767 7.072z"/><path stroke="#8B5412" stroke-width="2.145" stroke-linecap="round" stroke-linejoin="round" stroke-miterlimit="10" d="M43.22 167.241h12.458m7.857 0h.069c.918 0 1.373-.456 1.373-1.365v-3.775c0-.917-.455-1.373-1.373-1.373h-28.38c-.919 0-1.374.456-1.374 1.373v3.775c0 .909.455 1.365 1.374 1.365h.581m1.124 6.649h6.843m-.001 0l-.552-6.648m-7.413-.001h7.414m17.751 13.721l2.401-12.463c.087-.446.145-.86.163-1.258m-8.572 6.649l.715-6.648m6.493 6.648h-7.208m.715-6.649h7.857m-10.006 19.944l.668-6.223m-9.32 6.474h11.283c2.391-.008 3.774-.994 4.144-2.961l.667-3.513m-6.774 0h6.773m-24.041-7.072l1.916 10.585c.376 1.967 1.753 2.953 4.126 2.961h1.906m-.523-6.474l.523 6.474m-.523-6.474h-5.836m5.253-7.072l.582 7.072m9.844 0h-9.844m-.582-7.072h11.191m.001 0l-.766 7.072m-18.391-13.721c.021.397.069.812.146 1.258l.977 5.391" fill="none"/><path fill="#FCDF00" d="M114.729 98.846c-1.73-.082-2.772-.117-3.135-.1-1.316.055-2.497.322-3.526.795-1.367.629-2.421 1.355-3.163 2.18-.71.783-1.207 1.744-1.489 2.876-.248.993-.366 2.282-.35 3.872.006.926.085 2.649.247 5.164.273 4.264-.118 8.462-1.18 12.598-.83 3.227-2.136 6.635-3.93 10.229-.625 1.24-1.405 2.703-2.343 4.389-1.022 1.809-1.763 3.141-2.227 3.986-1.618 2.951-2.64 5.3-3.063 7.049-.549 2.24-.457 4.529.269 6.854.714 2.268 1.97 4.367 3.761 6.287 1.826 1.959 4.038 3.548 6.646 4.765 2.753 1.292 5.731 2.063 8.922 2.31 3.289.248 5.218.372 5.775.368 1.943-.001 4.063-.298 6.365-.873 4.006-1.002 7.479-2.994 10.425-5.977 2.979-2.999 4.849-6.517 5.593-10.545v-.017c.291-2.363.445-4.732.477-7.111.047-3.836-.284-7.86-1.001-12.071-.58-3.416-1.504-7.431-2.76-12.056-.221-.803-.643-2.375-1.277-4.717-.651-2.277-1.317-4.316-2.004-6.123-1.994-5.23-4.332-9.057-7.008-11.48-.897-.807-2.491-1.465-4.787-1.96-1.708-.38-3.457-.61-5.237-.692"/><path stroke="#F1B700" stroke-width="1.312" stroke-miterlimit="10" d="M111.594 98.746c-1.316.055-2.497.322-3.526.795-1.368.63-2.421 1.356-3.163 2.18-.71.783-1.207 1.744-1.489 2.877-.248.992-.366 2.281-.35 3.871.006.926.085 2.649.247 5.164.273 4.264-.118 8.461-1.181 12.599-.829 3.226-2.135 6.634-3.929 10.227-.625 1.241-1.405 2.704-2.343 4.39-1.022 1.809-1.763 3.141-2.226 3.986-1.619 2.951-2.641 5.3-3.065 7.049-.548 2.24-.456 4.528.27 6.854.714 2.268 1.97 4.367 3.761 6.286 1.826 1.959 4.038 3.548 6.646 4.765 2.752 1.293 5.73 2.064 8.921 2.312 3.289.246 5.218.369 5.774.366 1.944-.001 4.064-.298 6.366-.873 4.006-1.003 7.478-2.993 10.425-5.977 2.98-2.999 4.849-6.517 5.593-10.546v-.016c.291-2.363.445-4.732.477-7.111.047-3.837-.284-7.861-1.001-12.071-.58-3.416-1.504-7.431-2.761-12.057-.22-.803-.642-2.374-1.276-4.717-.651-2.276-1.317-4.314-2.004-6.123-1.994-5.229-4.332-9.055-7.008-11.478-.897-.809-2.491-1.465-4.788-1.962-1.706-.378-3.455-.608-5.235-.69-1.731-.082-2.773-.117-3.135-.1z" fill="none"/><path fill="#E41F25" d="M114.918 233.958c-.139-.157-.263-.289-.369-.38l-.06-.016-.033.04c-.129.734-.304 1.748-.512 3.04-.203 1.113-.482 2.192-.822 3.221-.188.602-.452 1.177-.791 1.713-.173.281-.353.577-.559.89-11.358-4.967-19.447-10.304-24.282-16.028-1.917-2.289-3.122-4.458-3.606-6.49-.405-1.746-.215-3.193.567-4.348.772-1.097 1.993-1.755 3.657-1.962 1.854-.222 3.952.148 6.293 1.104 5.329 2.183 10.444 6.604 15.346 13.261l.634.849.024.032.014.041.011.026.108.146.031.041.411.371c.041-.172.052-.459.025-.865-.031-.484-.115-.866-.254-1.135-.24-.487-.452-.899-.652-1.229-4.852-6.367-9.925-10.617-15.204-12.75-2.57-1.063-4.885-1.459-6.952-1.194-2.083.255-3.606 1.087-4.571 2.512h-.008c-1.012 1.425-1.27 3.222-.768 5.401h.01c.511 2.219 1.805 4.559 3.87 7.035h.01c4.651 5.545 12.296 10.732 22.93 15.568l2.705 1.152c.344-.164.706-.502 1.091-1.012.412-.553.732-1.152.958-1.795l.008-.01c.436-1.276.791-2.497 1.061-3.656.323-1.376.415-2.249.274-2.611-.125-.321-.324-.641-.595-.962"/><path fill="#E76500" d="M111.772 242.465c.206-.312.386-.608.559-.889.339-.537.604-1.11.791-1.713.34-1.028.619-2.107.822-3.22.208-1.294.384-2.307.512-3.04l.033-.041-2.981-3.607-.527-.445-.411-.371-.031-.041-.108-.146-.011-.025-.038-.073-.634-.85c-4.901-6.656-10.017-11.078-15.346-13.262-2.341-.955-4.438-1.325-6.293-1.104-1.664.209-2.885.867-3.657 1.963-.782 1.154-.972 2.602-.567 4.348.484 2.032 1.689 4.2 3.606 6.489 4.834 5.723 12.923 11.062 24.281 16.027"/><path fill="#E41F25" d="M89.033 218.877c-1.33.267-2.349.98-3.061 2.132-.719 1.159-.893 2.376-.523 3.665.411 1.45 1.441 2.641 3.086 3.582l-.043-.1c-1.182-.996-1.864-2.115-2.031-3.362-.146-1.102.121-2.136.81-3.103.659-.938 1.554-1.582 2.689-1.949 1.193-.383 2.403-.341 3.63.131-1.556-.975-3.079-1.311-4.557-.996"/><path fill="#E76500" d="M117.547 170.122l.113-.046-.031-.068.058-.049c.017-.008.023-.1.023-.264-1.045-1.094-2.083-2.083-3.129-2.957-1.803-1.5-2.834-1.959-3.073-1.39l-.047-.044c-3.158 5.033-5.495 12.775-7.004 23.212l-.131.964 7.67.525c.303-2.43.684-4.759 1.135-6.984 1.105-5.402 2.563-9.678 4.374-12.815l-.121-.072.163-.012"/><path fill="#E17C9E" d="M113.649 192.272c.025-.479-.074-.915-.312-1.316-.256-.446-.616-.761-1.096-.933l-.245-.018-7.67-.525-.775-.057c-.73-.042-1.351.139-1.868.533-.486.354-.767.816-.856 1.375-.09.57.057 1.072.445 1.509.429.485 1.087.79 1.984.913l.545.042 7.743.544.392.024c.521-.125.932-.386 1.235-.799.291-.369.453-.796.478-1.292M113.643 224.904c.296-.377.461-.797.495-1.259.04-.503-.077-.964-.364-1.386l-1.756-1.406-5.024-4.053c-.583-.453-1.192-.658-1.836-.635-.533.024-.987.199-1.356.536l-.126.116c-.396.403-.559.896-.494 1.473.067.635.421 1.261 1.063 1.863l.024.023 6.778 5.461c.503.197.99.213 1.476.041l.198-.066c.354-.137.667-.369.922-.708"/><path fill="#E76500" d="M114.227 232.666l.191.683.089-.058c.024-.041.049-.175.074-.396l-.354-.229M114.418 233.349l-.191-.683c-.585-2.2-1.087-4.549-1.506-7.053l-.198.066c-.485.172-.973.156-1.476-.041l-6.778-5.461-.024-.023c.106.65.229 1.269.362 1.836l.107.42c-.24-.139-.463-.24-.675-.306v.372c1.308 1.744 3.293 4.035 5.937 6.868 2.521 2.694 3.89 4.044 4.111 4.044.14.001.255-.015.331-.039M111.544 194.34l-7.743-.544c-.215 2.052-.381 4.101-.496 6.154-.049.905-.089 1.745-.115 2.521l7.907 1.3c.016-1.179.052-2.365.092-3.55.073-2.018.196-3.977.355-5.881"/><path fill="#E17C9E" d="M112.778 204.891c-.214-.453-.552-.79-1.006-1.016l-.676-.104-7.905-1.301h-.011c-.724-.109-1.365.008-1.919.354-.504.32-.831.758-.974 1.292-.136.553-.032 1.062.309 1.532.379.535 1.005.898 1.884 1.104l.711.115 7.881 1.293.05-.008c.503-.074.922-.305 1.251-.674.322-.34.52-.751.593-1.238.073-.477.01-.929-.188-1.349"/><path fill="#E76500" d="M103.19 206.868l.015.339c.124 1.704.272 4.232.437 7.582.042.67.101 1.303.159 1.914.369-.338.823-.512 1.356-.537.644-.023 1.253.181 1.837.635l5.023 4.053c-.09-.741-.179-1.492-.255-2.258-.353-3.441-.569-6.926-.641-10.443l-.05.01-7.881-1.295z"/><path stroke="#E41F25" stroke-width="1.318" stroke-linecap="round" stroke-linejoin="round" stroke-miterlimit="10" d="M117.547 170.122l-.041.083c-1.812 3.139-3.27 7.414-4.375 12.816-.451 2.226-.832 4.555-1.134 6.984l.244.018c.48.173.84.486 1.096.933.238.401.338.837.312 1.315-.025.496-.188.924-.479 1.294-.304.412-.714.674-1.235.799l-.392-.024c-.159 1.903-.282 3.863-.355 5.88-.04 1.186-.076 2.373-.092 3.552l.676.104c.454.226.792.562 1.006 1.016.197.42.261.873.188 1.35-.073.487-.271.898-.593 1.238-.329.369-.748.6-1.251.674m3.787 26.899c-.172-.551-.337-1.12-.491-1.704l-.191-.683c-.584-2.2-1.087-4.549-1.505-7.053.354-.139.666-.37.921-.709.296-.377.461-.797.495-1.259.04-.503-.076-.964-.364-1.386l-1.756-1.406c-.09-.742-.179-1.492-.255-2.257-.353-3.442-.569-6.927-.641-10.444m.339-42.847c-3.158 5.033-5.495 12.775-7.003 23.212l-.132.964-.774-.058c-.731-.042-1.352.14-1.869.533-.486.355-.767.817-.856 1.377-.09.569.057 1.071.445 1.508.43.485 1.087.79 1.984.913l.545.042c-.214 2.052-.381 4.102-.496 6.154-.049.905-.089 1.745-.114 2.521h-.01c-.724-.109-1.364.008-1.919.354-.503.32-.831.756-.973 1.293-.137.552-.032 1.061.308 1.53.379.536 1.005.899 1.884 1.104l.71.116.015.338c.124 1.705.273 4.233.437 7.583.042.67.101 1.303.159 1.913l-.126.116c-.396.403-.559.896-.494 1.473.067.635.421 1.261 1.063 1.863l.024.023m6.803-12.016l.05-.009" fill="none"/><path fill="#F0E8CD" d="M81.014 67.875c.011-4.508.391-8.849 1.121-13.019 1.063-2.532 3.152-5.337 6.262-8.406 2.402-2.372 5.384-4.337 8.927-5.884 1.022-.453 2.107-.869 3.259-1.238.561-.191 1.112-.365 1.659-.523.725-.203 1.452-.382 2.186-.545 3.61-.657 7.393-.581 11.335.244.314.062.644.143.991.242 3.558.888 6.987 2.471 10.282 4.742 3.587 2.463 6.72 5.526 9.372 9.178 1.877 2.591 3.388 5.212 4.533 7.866.994 2.511.607 4.419-1.148 5.729-.422.275-.873.539-1.34.775-1.162.551-2.449.92-3.873 1.113-2.97.426-5.932.447-8.882.069-.463-.058-.933-.139-1.409-.238-.396-.052-.802-.13-1.194-.231-3.233-.675-6.489-1.238-9.769-1.689-3.791-.52-7.818-.579-12.084-.181-4.266.423-7.993 1.302-11.175 2.636-3.169 1.344-6.186 3.002-9.061 4.965.005-1.556.013-3.425.008-5.605"/><path fill="#CD0E19" d="M96.665 39.669l-.016-.035c-.153-.493-.127-.983.079-1.468.256-.483.63-.81 1.108-.965l4.135-1.465c.512-.169.992-.144 1.461.094.481.247.807.623.977 1.125l-.003.042c.175.446.179.864.021 1.262-.733.163-1.461.342-2.186.546-.547.158-1.099.333-1.659.523-1.151.369-2.236.785-3.259 1.238-.304-.209-.53-.504-.658-.897M113.324 66.061c3.28.451 6.536 1.014 9.769 1.689.394.103.799.179 1.195.23l1.299.535.018-.008c-.244.68-.528 1.357-.863 2.014-.455.895-.991 1.758-1.613 2.601-1.428 1.965-3.226 3.692-5.405 5.188-1.852 1.28-3.757 2.261-5.721 2.935-3.117 1.069-6.504 1.596-10.168 1.567-2.209-.03-4.993-.308-8.338-.837-.39-.067-.772-.135-1.144-.219-4.495-.74-7.409-1.164-8.735-1.282-3.073-.239-5.664.005-7.79.726l-.917-.836 6.004-6.604.088-.197.004-.082c2.875-1.963 5.892-3.621 9.061-4.965 3.182-1.334 6.909-2.213 11.175-2.637 4.264-.399 8.291-.338 12.081.182"/><path fill="#804395" d="M74.91 80.364l.917.835c-.613.219-1.189.473-1.739.764l-.197-.457 1.019-1.142z"/><path stroke="#CD0E19" stroke-width=".654" stroke-linecap="round" stroke-linejoin="round" stroke-miterlimit="10" d="M123.472 67.342c-.972-4.607-2.089-8.668-3.351-12.184-1.021-2.873-2.085-5.234-3.194-7.083-1.222-2.077-2.638-3.749-4.238-5.017-2.342-1.893-5.508-3.18-9.495-3.854" fill="none"/><path stroke="#4A4646" stroke-width="1.308" stroke-linecap="round" stroke-linejoin="round" stroke-miterlimit="10" d="M125.724 68.222c2.94.378 5.9.355 8.88-.068 1.414-.188 2.694-.565 3.849-1.124.467-.239.918-.493 1.355-.773 1.758-1.312 2.153-3.219 1.174-5.737-1.119-2.651-2.727-5.519-4.816-8.599-2.087-3.088-4.413-5.717-6.963-7.895-2.546-2.188-5.199-3.725-7.949-4.598-2.749-.873-5.3-1.469-7.654-1.779-2.346-.322-5.318-.143-8.929.53m21.053 30.043l-.086.28c-.252.688-.547 1.365-.89 2.028-.446.886-.988 1.751-1.63 2.591-1.424 1.973-3.226 3.709-5.413 5.202-1.849 1.272-3.755 2.246-5.713 2.936-3.116 1.071-6.503 1.596-10.149 1.562-2.218-.031-4.995-.307-8.342-.845-.38-.075-.758-.151-1.138-.218-4.475-.748-7.377-1.181-8.705-1.299-3.057-.238-5.646-.001-7.77.721-.614.219-1.198.473-1.743.771-.561.303-1.088.661-1.566 1.069m-1.128 1.003c.188-.256.389-.514.612-.768.564-.616 1.198-1.205 1.885-1.762m-1.369 1.528c-.396.293-.774.627-1.128 1.003m0-.001c-.531.692-.932 1.378-1.184 2.057m2.312-3.059l1.369-1.526m0-.001l7.058-7.768m23.664-35.547c.167-.405.172-.833.016-1.276-.177-.529-.503-.914-.985-1.152-.46-.252-.94-.286-1.435-.115l-4.144 1.455c-.493.162-.869.488-1.124.979-.207.486-.233.983-.065 1.496.14.394.355.696.643.913m7.094-2.3c-.726.155-1.45.333-2.169.538-.551.148-1.115.323-1.675.52-1.143.381-2.229.797-3.251 1.241m0 0c-3.542 1.556-6.524 3.519-8.937 5.892-3.127 3.085-5.221 5.888-6.283 8.421-.776 4.183-1.173 8.531-1.2 13.047-.019 2.186-.038 4.052-.057 5.607 2.883-1.97 5.909-3.617 9.076-4.962 3.185-1.336 6.898-2.206 11.147-2.622 4.269-.414 8.299-.354 12.088.173 3.271.449 6.509 1.029 9.715 1.72.403.103.801.179 1.188.238.476.083.948.157 1.41.23" fill="none"/><path fill="#CD0E19" d="M85.358 57.646l.895-2.355 5.696-1.045.999 3.078-.652.119 1.716 5.275.649-.119 1.025 3.145-5.604 1.026-2.354-1.836-1.068-3.279.219-.632-.581-.491-.94-2.886zm5.804-1.061l.639-.12-.351-1.072-4.35.802-.78 1.789.694 2.14 1.04.786-.439 1.052.769 2.363 1.798 1.363 4.35-.802-.362-1.132-.64.118-2.368-7.287z"/><path fill="#E50212" d="M91.8 56.466l-.638.12 2.367 7.287.64-.119.362 1.133-4.35.801-1.798-1.363-.769-2.363.439-1.052-1.04-.786-.694-2.139.78-1.79 4.35-.802.351 1.073zm-1.782.327l-2.169.413-.344.688.609 1.862.727.501 2.173-.396-.996-3.068zm-.555 7.123l.746.568 2.173-.404-1.063-3.279-2.163.438-.314.773.621 1.904z"/><path fill="#CD0E19" d="M87.849 57.205l2.169-.412.996 3.068-2.173.396-.727-.501-.608-1.862.343-.689zm2.03 1.807l-.353-1.065-1.087.202.351 1.066 1.089-.203zM90.208 64.485l-.745-.569-.622-1.904.315-.771 2.162-.439 1.064 3.279-2.174.404zm1.033-1.263l-.413-1.268-1.087.202.41 1.268 1.09-.202zM98.119 51.295l-.647.133 1.762 5.427.662-.118 1.051 3.246-5.774 1.038-2.419-1.882-1.099-3.379.235-.648-.621-.502-.955-2.976.923-2.42 5.868-1.073 1.014 3.154zm-1.83-.76l.666-.119-.375-1.099-4.459.819-.832 1.844.729 2.205 1.073.83-.443 1.075.772 2.413 1.868 1.428 4.477-.827-.378-1.182-.657.135-2.441-7.522z"/><path fill="#E50212" d="M96.955 50.417l-.666.118 2.441 7.522.659-.136.376 1.183-4.477.827-1.868-1.428-.772-2.413.443-1.074-1.073-.831-.729-2.207.832-1.843 4.459-.818.375 1.1zm-4.078.772l-.362.703.635 1.93.745.502 2.241-.398-1.034-3.155-2.225.418zm1.347 4.159l-.317.783.619 1.959.785.605 2.225-.428-1.075-3.377-2.237.458z"/><path fill="#CD0E19" d="M92.515 51.894l.362-.704 2.225-.418 1.034 3.154-2.241.398-.745-.502-.635-1.928zm.964.272l.351 1.09 1.137-.207-.373-1.1-1.115.217zM93.906 56.131l.316-.783 2.237-.457 1.075 3.377-2.225.428-.785-.605-.618-1.96zm1.35 1.453l1.114-.199-.427-1.31-1.122.217.435 1.292z"/><path fill="#F1B700" d="M74.25 52.768c2.496-4.523 5.852-8.442 10.068-11.779 4.199-3.319 8.921-5.777 14.17-7.385 5.43-1.661 11.029-2.295 16.813-1.891 5.781.404 11.23 1.81 16.359 4.209 4.975 2.323 9.316 5.412 13.012 9.286 3.711 3.892 6.489 8.239 8.323 13.065 1.919 5.018 2.698 10.187 2.324 15.512-.93 13.303-5.852 23.032-14.772 29.186-7.804 5.479-18.036 7.779-30.71 6.894-5.913-.413-11.354-1.612-16.324-3.592l-.005-.001c-5.127-2.055-9.498-4.834-13.113-8.333-7.933-7.644-11.469-17.693-10.599-30.13.374-5.328 1.855-10.338 4.454-15.041m10.883-10.747c-4.068 3.215-7.319 7.012-9.731 11.384-2.506 4.538-3.937 9.363-4.297 14.493-.84 12.016 2.553 21.71 10.19 29.104 3.509 3.385 7.741 6.065 12.708 8.061 4.848 1.928 10.161 3.093 15.926 3.497 12.324.86 22.282-1.36 29.872-6.657 8.579-5.957 13.315-15.361 14.217-28.208.357-5.131-.392-10.108-2.241-14.95-1.781-4.665-4.469-8.877-8.061-12.628-3.582-3.759-7.779-6.765-12.606-9.011-4.982-2.333-10.281-3.694-15.9-4.086-5.619-.395-11.064.217-16.338 1.831-5.089 1.554-9.669 3.946-13.739 7.17"/><path fill="#FCDF00" d="M75.402 53.406c2.411-4.373 5.662-8.17 9.731-11.385 4.069-3.224 8.649-5.615 13.737-7.17 5.273-1.615 10.719-2.227 16.338-1.833s10.918 1.755 15.901 4.087c4.826 2.246 9.024 5.252 12.605 9.012 3.592 3.75 6.279 7.963 8.061 12.627 1.85 4.842 2.6 9.819 2.241 14.951-.901 12.846-5.639 22.251-14.219 28.207-7.588 5.297-17.546 7.519-29.87 6.658-5.765-.405-11.077-1.57-15.926-3.5-4.967-1.994-9.199-4.675-12.708-8.059-7.638-7.395-11.03-17.089-10.19-29.104.362-5.127 1.793-9.954 4.299-14.491"/><path fill="#E17C9E" d="M112.065 62.102c-1.846-1.953-3.897-3.354-6.166-4.224-2.197-.847-4.347-1.113-6.448-.777 1.018-.623 2.073-1.089 3.182-1.378 1.599-.421 3.186-.48 4.771-.175 1.588.3 3.058.934 4.425 1.912 2.168 1.557 3.735 3.685 4.701 6.391.938 2.648 1.143 5.376.609 8.182-.337-1.796-.929-3.536-1.768-5.222-.867-1.738-1.969-3.309-3.306-4.709"/><path fill="#0076BD" d="M105.899 57.878c2.269.87 4.32 2.271 6.166 4.224 1.337 1.4 2.438 2.972 3.306 4.709.84 1.686 1.431 3.426 1.768 5.222-.343 1.685-.896 3.222-1.678 4.605l-.649 1.05c.089-2.183-.288-4.358-1.115-6.533-.852-2.257-2.104-4.266-3.759-6.016-2.225-2.354-4.729-3.844-7.52-4.465-2.724-.615-5.179-.271-7.366 1.021 1.153-1.97 2.622-3.5 4.399-4.595 2.102-.335 4.251-.069 6.448.778"/><path fill="#fff" d="M95.052 61.695c2.188-1.292 4.643-1.637 7.366-1.021 2.79.621 5.295 2.111 7.52 4.465 1.655 1.75 2.907 3.759 3.76 6.016.826 2.175 1.203 4.351 1.114 6.533-.889 1.303-1.933 2.39-3.142 3.277-1.216.888-2.528 1.516-3.938 1.882-1.595.421-3.186.481-4.757.177-1.585-.302-3.062-.944-4.436-1.93-2.827-2.029-4.595-4.914-5.307-8.656-.711-3.752-.146-7.26 1.687-10.522l.133-.221z"/><path fill="#E17C9E" d="M79.357 59.875c1.909-1.635 3.932-2.716 6.078-3.255 2.081-.529 4.045-.502 5.885.095-.832-.733-1.719-1.318-2.673-1.742-1.374-.611-2.794-.877-4.257-.789-1.462.08-2.862.498-4.214 1.26-2.152 1.214-3.833 3.055-5.051 5.533-1.188 2.424-1.729 5.019-1.617 7.788.536-1.685 1.296-3.282 2.27-4.793 1.003-1.556 2.198-2.923 3.579-4.097"/><path fill="#0076BD" d="M85.436 56.62c-2.146.54-4.169 1.62-6.078 3.256-1.382 1.173-2.576 2.541-3.579 4.097-.974 1.51-1.733 3.107-2.27 4.791.088 1.664.387 3.215.905 4.648l.445 1.094c.205-2.11.826-4.154 1.852-6.137 1.058-2.06 2.443-3.828 4.157-5.294 2.302-1.974 4.741-3.079 7.323-3.311 2.527-.237 4.682.413 6.477 1.943-.779-2.046-1.896-3.71-3.35-4.993-1.838-.597-3.801-.622-5.882-.094"/><path fill="#fff" d="M94.668 61.707c-1.794-1.529-3.949-2.18-6.477-1.943-2.582.232-5.022 1.338-7.323 3.312-1.714 1.465-3.099 3.232-4.157 5.293-1.025 1.982-1.646 4.026-1.851 6.137.63 1.369 1.421 2.551 2.387 3.562.978 1.013 2.072 1.787 3.289 2.324 1.372.612 2.791.878 4.241.788 1.461-.08 2.868-.504 4.229-1.274 2.8-1.582 4.762-4.126 5.889-7.632 1.128-3.516 1.081-6.959-.14-10.338l-.087-.229z"/><path fill="#1A1414" d="M100.334 68.697c.747.964 1.078 2.086.988 3.358-.09 1.289-.572 2.347-1.449 3.19-.875.85-1.888 1.236-3.028 1.156-1.155-.082-2.097-.603-2.84-1.565-.752-.958-1.082-2.073-.994-3.362.091-1.271.574-2.337 1.452-3.188.869-.851 1.875-1.237 3.028-1.155 1.143.078 2.092.601 2.843 1.566M80.071 67.429c-.782.829-1.219 1.86-1.304 3.092-.088 1.246.201 2.323.864 3.243.661.929 1.504 1.43 2.516 1.5 1.028.072 1.922-.307 2.702-1.135.785-.82 1.221-1.846 1.307-3.093.086-1.229-.203-2.313-.863-3.243-.657-.927-1.492-1.428-2.518-1.5-1.013-.069-1.919.308-2.704 1.136"/><path fill="#FCDF00" d="M70.508 91.337c-.897-2.538.872-3.324 5.305-2.367 3.334-1.634 5.074-2.48 5.226-2.527.587.164 4.578 1.452 11.973 3.878 5.521 1.804 8.947 2.764 10.258 2.873-.38 4.178-3.97 6.279-10.783 6.302-3.492.019-7.614-.704-12.364-2.167-3.327-1.341-6.531-3.333-9.615-5.992"/><path stroke="#F1B700" stroke-width="1.308" stroke-miterlimit="10" d="M75.812 88.97c3.334-1.634 5.074-2.481 5.226-2.528.587.165 4.578 1.453 11.972 3.879 5.522 1.804 8.948 2.764 10.259 2.873-.381 4.178-3.97 6.279-10.783 6.303-3.492.018-7.614-.705-12.364-2.168-3.325-1.34-6.529-3.332-9.613-5.991-.899-2.539.871-3.326 5.303-2.368z" fill="none"/><path fill="#FCDF00" d="M81.489 76.549c2.31-1.24 4.365-2.014 6.181-2.338 2.985-.512 5.17.238 6.546 2.244.328.482.724 1.025 1.197 1.641.488.648.893 1.202 1.211 1.658.328.482 1.234 1.227 2.713 2.223 1.535 1.033 2.497 1.807 2.89 2.3 1.17 1.091 2.01 2.895 2.523 5.423.536 2.619.187 4.003-1.048 4.172-4.567.623-9.781.774-15.651.463-5.717-.293-10.967-.954-15.743-2.002-5.039-1.099-8.611-2.414-10.711-3.944-2.344-1.714-2.546-3.515-.589-5.386.711-.68 3.695-1.635 8.938-2.866 5.764-1.344 9.612-2.542 11.543-3.588"/><path stroke="#F1B700" stroke-width="1.308" stroke-miterlimit="10" d="M87.67 74.211c2.985-.513 5.17.238 6.546 2.244.328.482.723 1.025 1.197 1.641.488.649.893 1.203 1.211 1.659.328.481 1.234 1.225 2.713 2.222 1.535 1.034 2.497 1.806 2.89 2.3 1.17 1.09 2.01 2.895 2.523 5.423.536 2.619.187 4.004-1.048 4.172-4.567.623-9.781.775-15.651.463-5.717-.293-10.967-.955-15.743-2.003-5.039-1.097-8.612-2.413-10.711-3.944-2.344-1.713-2.546-3.515-.589-5.386.71-.679 3.695-1.634 8.938-2.866 5.764-1.342 9.611-2.541 11.543-3.586 2.31-1.241 4.365-2.015 6.181-2.339z" fill="none"/><path fill="#F1B700" d="M99.646 27.455c-1.025-.018-2.033.301-3.018.942 1.653.033 3.497 1.425 5.536 4.175.423.572.893 1.051 1.402 1.432l-.306.06c-.69.146-1.262.325-1.731.528-.239-.256-.473-.529-.698-.821l-.137-.179c-2.174-2.797-4.347-4.321-6.514-4.563 1.937-2.265 3.792-3.354 5.58-3.271 1.791.061 3.503.96 5.139 2.689l.005.023.7.855c.004-.346.037-.688.085-1.042.401-3.305-.124-5.823-1.587-7.557 3.104.022 5.305.714 6.603 2.062 1.216 1.26 1.858 2.906 1.92 4.945.489-.275 1.035-.499 1.636-.665 3.134-.944 5.044-2.405 5.735-4.374 1.736 2.733 2.389 4.938 1.939 6.621-.101.379-.24.73-.411 1.062-.479.897-1.232 1.652-2.266 2.261-.741.013-2.1.118-4.07.323l-.004-.016-1.925.316c.312-.262.7-.521 1.165-.766.476-.238 1.508-.619 3.101-1.142 1.554-.533 2.491-1.479 2.808-2.84.238-.966.15-2.048-.261-3.245-.384 1.555-2.091 2.764-5.145 3.61-1.587.438-2.661 1.374-3.226 2.8-.279.729-.363 1.4-.246 2.013l-.204.169c-.407-.616-.643-1.496-.716-2.64-.02-.554.054-1.679.223-3.385.149-1.669-.31-3.034-1.384-4.091-.764-.75-1.746-1.291-2.964-1.621 1.218 1.226 1.605 3.423 1.145 6.6-.242 1.651.156 3.131 1.186 4.436.16.201.332.394.499.561l-.434.104c-.843.036-1.834-.476-2.968-1.546-.427-.41-1.216-1.317-2.346-2.727-1.134-1.386-2.414-2.086-3.846-2.096"/><path fill="#FCDF00" d="M96.629 28.397c.984-.642 1.992-.96 3.018-.942 1.432.01 2.712.71 3.848 2.1 1.13 1.409 1.919 2.316 2.346 2.727 1.135 1.07 2.125 1.582 2.968 1.546l.046-.009.396-.064.016-.012-.024-.02c-.167-.167-.339-.359-.499-.561-1.029-1.305-1.428-2.784-1.186-4.436.461-3.177.073-5.374-1.145-6.6 1.218.33 2.2.871 2.964 1.621 1.074 1.057 1.533 2.422 1.384 4.091-.169 1.706-.242 2.831-.222 3.385.073 1.144.308 2.023.716 2.64.122.184.261.345.413.479l-.036-.07-.168-.52-.006-.059c-.117-.612-.033-1.284.246-2.013.564-1.426 1.639-2.361 3.226-2.8 3.054-.847 4.761-2.056 5.145-3.61.411 1.197.499 2.279.261 3.245-.316 1.36-1.253 2.307-2.808 2.84-1.593.522-2.625.903-3.101 1.142-.465.245-.853.504-1.165.766-.444.385-.738.787-.874 1.215-.065.205-.093.42-.081.646l.008.125.018.038-.136-.137c-.119-.141-.229-.283-.324-.428l-.918-.035-.13-.029c-.532-.14-1.036-.428-1.518-.88-.572 1.081-1.625 1.507-3.158 1.286-.191-.027-.381-.064-.567-.108l-.428-.124-.078-.021-.529-.217-.187-.096-.028-.012c-.204-.109-.39-.223-.579-.352l-.063-.049-.028-.014-.021-.021-.03-.02-.039-.027c-.511-.381-.98-.859-1.402-1.432-2.043-2.749-3.888-4.14-5.541-4.174"/><path fill="#9B4594" d="M169.583 52.099c-.005.401-.023.792-.05 1.192-.259 3.693-.654 6.421-1.193 8.162-.076.232-.147.473-.238.704-2.165 5.644-4.916 9.122-8.253 10.44-2.642.822-5.057.645-7.232-.541-.681-.366-1.335-.838-1.976-1.408l-.222-.228-.648-.603c-.184-.17-.557-.466-1.108-.89-.273-.298-.648-.569-1.132-.815-1.051-.543-2.421-.875-4.111-.993-1.044-.072-2.758.095-5.137.491-1.063.182-2.056.301-2.971.375-1.156.092-2.197.109-3.126.045-1.126-.08-2.265-.322-3.416-.73-1.415-.5-2.862-1.258-4.323-2.27-1.008-.701-1.988-1.467-2.933-2.286-.939-.821-2.518-2.21-4.731-4.175-2.206-1.967-4.835-3.649-7.884-5.035-3.052-1.392-6.116-2.197-9.207-2.412-3.094-.217-5.909-.25-8.459-.109-2.553.142-5.197.727-7.949 1.773-.518.192-1.014.387-1.508.582-1.528.599-3.041 1.172-4.531 1.731-1.775.639-3.596.797-5.467.464-.582-.117-1.12-.301-1.609-.557-1.33-.904-2.43-2.055-3.289-3.459-.485-.795-.956-1.598-1.406-2.426-.926-1.646-1.467-3.085-1.614-4.324l.07-1.012-.155-.013c-.059-1.61.168-3.355.701-5.236.646-2.291 3.232-5.413 7.753-9.367s9.464-7.107 14.833-9.462c5.37-2.354 11.007-3.977 16.911-4.85 5.912-.874 12.843-.815 20.798.184 7.951.99 14.181 2.654 18.672 4.992 4.501 2.339 7.748 4.271 9.751 5.805 1.997 1.525 4.486 3.666 7.459 6.414 2.981 2.749 5.267 6.016 6.864 9.808 1.299 3.065 1.979 6.104 2.059 9.109l.007.93zm-82.462-23.658c-.773-.053-1.385.199-1.839.758l-6.049 7.519c-.442.55-.28.857.493.912l3.523.245c.775.056 1.383-.197 1.82-.75l6.053-7.52c.455-.557.297-.862-.479-.917l-3.522-.247z"/><path fill="#822689" d="M85.282 29.199c.454-.56 1.065-.811 1.839-.758l3.523.247c.775.055.934.36.479.917l-6.053 7.52c-.438.553-1.045.806-1.82.75l-3.523-.246c-.773-.055-.936-.361-.493-.911l6.048-7.519z"/><path fill="#041616" d="M148.662 68.929c.552.423.925.72 1.108.89l.647.602.223.229c.641.568 1.295 1.041 1.976 1.407l-12.325 11.112c-11.567 21.952-26.604 30.039-45.112 24.278-.713-.219-1.443-.469-2.17-.734.743.054 1.486.098 2.213.123 17.763.67 30.835-7.417 39.216-24.247l-5.668-15.288c1.151.408 2.29.65 3.416.73.929.064 1.97.047 3.126-.045l3.263 10.638 10.087-9.695z"/><path stroke="#4A4646" stroke-width="1.308" stroke-linecap="round" stroke-linejoin="round" stroke-miterlimit="10" d="M85.282 29.199l-6.049 7.519c-.442.55-.28.856.493.911l3.523.246c.775.056 1.383-.197 1.82-.75l6.053-7.52c.455-.557.297-.862-.479-.917l-3.523-.247c-.772-.052-1.384.199-1.838.758z" fill="none"/><path stroke="#461C86" stroke-width="3.598" stroke-linecap="round" stroke-linejoin="round" stroke-miterlimit="10" fill="none" d="M168.443 52.019l-103.217-7.216"/><path stroke="#4A4646" stroke-width="1.308" stroke-linecap="round" stroke-linejoin="round" stroke-miterlimit="10" d="M152.616 72.057c2.176 1.186 4.591 1.363 7.232.54 3.337-1.316 6.088-4.796 8.253-10.44.091-.23.162-.471.238-.705.539-1.739.935-4.466 1.193-8.16.026-.4.045-.791.05-1.193.004-.311.002-.623-.009-.928-.08-3.005-.76-6.043-2.06-9.109-1.597-3.791-3.882-7.057-6.863-9.807-2.973-2.748-5.462-4.889-7.459-6.414-2.003-1.533-5.25-3.465-9.751-5.804-4.491-2.338-10.722-4.004-18.672-4.994-7.955-.999-14.886-1.058-20.798-.183-5.904.874-11.542 2.496-16.911 4.851-5.37 2.353-10.312 5.508-14.833 9.46-4.521 3.955-7.107 7.078-7.753 9.369-.533 1.881-.761 3.625-.701 5.236.018.32.038.625.075.93l.009.094c.148 1.24.689 2.678 1.615 4.324.45.827.921 1.63 1.405 2.427.86 1.403 1.96 2.554 3.29 3.458.489.256 1.027.44 1.609.557 1.871.334 3.692.174 5.467-.463 1.49-.561 3.003-1.133 4.531-1.733.494-.193.99-.389 1.508-.583 2.752-1.045 5.396-1.631 7.949-1.771 2.55-.141 5.365-.107 8.459.107 3.091.217 6.155 1.021 9.207 2.414 3.049 1.386 5.678 3.069 7.884 5.035 2.215 1.966 3.792 3.354 4.731 4.174.944.82 1.925 1.587 2.933 2.287 1.46 1.012 2.908 1.77 4.323 2.269m19.895 1.628c.551.423.924.72 1.108.889l.647.602.223.229c.641.568 1.295 1.042 1.976 1.408m-17.304-4.072c.915-.073 1.907-.194 2.971-.375 2.379-.397 4.093-.564 5.137-.492 1.69.118 3.061.451 4.111.994.483.246.858.518 1.132.816m-19.893-1.629c1.151.409 2.29.652 3.416.731.929.064 1.97.047 3.126-.045m17.304 4.071l-12.325 11.113c-11.567 21.951-26.604 30.038-45.112 24.278-.713-.222-1.443-.471-2.17-.734.743.054 1.486.097 2.213.123 17.763.668 30.835-7.418 39.216-24.248l-5.668-15.289m6.542.686l3.263 10.639 10.088-9.695" fill="none"/><path fill="#EDDC00" d="M121.162 113.835c-1.154-1.642-2.366-2.368-3.632-2.183-.511.072-1.322.475-2.438 1.196-.855.538-1.599 1.067-2.218 1.589-2.205 1.797-4.436 3.058-6.69 3.782-2.277.747-4.731.998-7.356.739-2.145-.191-4.598.444-7.376 1.905-2.871 1.515-4.944 3.353-6.219 5.508-.494.818-.839 1.962-1.029 3.424-.192 1.325-.222 2.595-.079 3.827.262 2.592 1.559 4.969 3.872 7.145 2.121 1.983 4.783 3.549 8.004 4.689 3.163 1.111 6.232 1.596 9.211 1.461 3.175-.148 5.667-.979 7.485-2.501 2.139-1.786 3.914-3.89 5.317-6.31.926-1.592 2.079-4.123 3.469-7.598.487-1.224.925-3.102 1.293-5.637.39-2.601.514-4.523.377-5.76-.229-1.982-.889-3.744-1.991-5.276"/><path stroke="#F1B700" stroke-width="2.431" stroke-miterlimit="10" d="M121.162 113.835c1.102 1.532 1.762 3.294 1.99 5.278.137 1.236.013 3.159-.377 5.76-.368 2.535-.806 4.413-1.293 5.637-1.39 3.475-2.543 6.006-3.469 7.598-1.403 2.42-3.179 4.523-5.317 6.31-1.818 1.522-4.311 2.353-7.485 2.501-2.98.135-6.048-.35-9.211-1.461-3.221-1.141-5.883-2.706-8.004-4.689-2.313-2.176-3.61-4.553-3.872-7.145-.143-1.232-.113-2.502.079-3.827.19-1.462.535-2.605 1.029-3.424 1.274-2.155 3.348-3.993 6.219-5.508 2.778-1.461 5.231-2.097 7.376-1.905 2.625.259 5.079.008 7.356-.739 2.255-.725 4.485-1.985 6.69-3.782.619-.521 1.362-1.051 2.218-1.589 1.116-.722 1.928-1.124 2.438-1.196 1.267-.187 2.479.539 3.633 2.181z" fill="none"/><path fill="#FCDF00" d="M122.564 111.242l-1.956-1.188c-2.024.125-4.389.259-7.084.394l-.627.032c-.461 1.155-.944 2.253-1.456 3.281-2.512 5.057-5.139 7.672-7.888 7.842l11.511 3.768 8.078-4.691c.053-.901.068-1.977.036-3.217-.042-2.476-.242-4.546-.614-6.221"/><path fill="#FCDF00" d="M114.296 106.45l.345-.03-.279-.177-.066.207zM121.162 113.835c-1.154-1.642-2.366-2.368-3.632-2.183-.511.072-1.322.475-2.438 1.196-.855.538-1.599 1.067-2.218 1.589-2.205 1.797-4.436 3.058-6.69 3.782-2.277.747-4.731.998-7.356.739-2.145-.191-4.598.444-7.376 1.905-2.871 1.515-4.944 3.353-6.219 5.508-.494.818-.839 1.962-1.029 3.424-.192 1.325-.222 2.595-.079 3.827.262 2.592 1.559 4.969 3.872 7.145 2.121 1.983 4.783 3.549 8.004 4.689 3.163 1.111 6.232 1.596 9.211 1.461 3.175-.148 5.667-.979 7.485-2.501 2.139-1.786 3.914-3.89 5.317-6.31.926-1.592 2.079-4.123 3.469-7.598.487-1.224.925-3.102 1.293-5.637.39-2.601.514-4.523.377-5.76-.229-1.982-.889-3.744-1.991-5.276M88.327 132.651c2.991.535 4.759 1.499 5.298 2.876.893 2.272.228 4.676-1.988 7.203-.601.688-1.567 1.695-2.895 3.008-1.116 1.166-1.878 2.159-2.284 2.979-.851 1.708-1.347 2.643-1.472 2.803-.776.92-1.63.831-2.558-.285-.572-.689-.762-1.807-.562-3.346.109-.826.395-1.998.84-3.509-.828.196-2.082.541-3.751 1.048-1.472.305-2.75.152-3.832-.456-1.159-.888-1.021-2.21.433-3.985 1.268-1.546 2.799-2.731 4.582-3.564-.729.227-1.835.026-3.319-.588-1.534-.618-2.425-1.286-2.684-2.009-.566-1.573.449-2.533 3.056-2.872 1.803-.227 3.799-.168 5.984.187 1.887.08 3.604.255 5.152.51"/><path stroke="#F1B700" stroke-width="1.264" stroke-miterlimit="10" d="M88.327 132.651c-1.548-.256-3.265-.431-5.151-.512-2.186-.354-4.182-.413-5.984-.187-2.606.339-3.622 1.299-3.056 2.872.259.723 1.149 1.391 2.684 2.009 1.484.614 2.591.814 3.319.588-1.783.833-3.314 2.019-4.582 3.564-1.453 1.775-1.592 3.098-.433 3.985 1.082.608 2.36.761 3.832.456 1.669-.507 2.923-.852 3.751-1.048-.445 1.511-.73 2.683-.84 3.509-.2 1.539-.011 2.656.562 3.346.928 1.116 1.781 1.205 2.558.285.125-.16.621-1.095 1.472-2.803.406-.819 1.168-1.812 2.284-2.979 1.327-1.312 2.294-2.319 2.895-3.008 2.216-2.527 2.881-4.931 1.988-7.203-.54-1.375-2.308-2.338-5.299-2.874z" fill="none"/></g></svg>