<?xml version="1.0" encoding="utf-8"?>
<!-- Generator: Adobe Illustrator 16.2.1, SVG Export Plug-In . SVG Version: 6.00 Build 0)  -->
<!DOCTYPE svg PUBLIC "-//W3C//DTD SVG 1.1//EN" "http://www.w3.org/Graphics/SVG/1.1/DTD/svg11.dtd">
<svg version="1.1" xmlns="http://www.w3.org/2000/svg" xmlns:xlink="http://www.w3.org/1999/xlink" x="0px" y="0px"
	 width="203.422px" height="266px" viewBox="0 0 203.422 266" enable-background="new 0 0 203.422 266" xml:space="preserve">
<g id="base">
</g>
<g id="book3">
</g>
<g id="_x38_" display="none">
</g>
<g id="_x37_" display="none">
</g>
<g id="_x36_" display="none">
</g>
<g id="_x35_" display="none">
</g>
<g id="_x34_" display="none">
</g>
<g id="_x33_" display="none">
</g>
<g id="_x32_" display="none">
</g>
<g id="_x31_" display="none">
</g>
<g id="_x30_">
	<g>
		<path fill="#EDDC00" d="M120.297,153.038c-1.001-1.051-1.598-2.614-1.793-4.69c-0.206-2.184,0.125-4.365,0.998-6.527
			c1.009-2.476,2.592-4.526,4.75-6.148c2.521-1.896,5.669-3.076,9.437-3.557c0.249-1.42,1.303-3.375,3.163-5.882
			c1.986-2.667,4.238-5.036,6.767-7.107c2.931-2.412,5.697-3.932,8.31-4.565c3.093-0.756,5.713-0.19,7.864,1.694
			c3.018,2.637,3.215,6.474,0.599,11.509c-0.955,1.834-2.165,3.574-3.622,5.221c-1.309,1.471-2.375,2.4-3.202,2.788
			c2.646,1.86,3.717,4.372,3.213,7.517c-0.43,2.74-1.933,5.509-4.506,8.294c-2.454,2.679-5.114,4.576-7.986,5.702
			c-3.092,1.221-5.524,1.129-7.293-0.279c0.83,1.562,0.627,3.271-0.616,5.125c-1.159,1.738-2.872,3.136-5.146,4.172
			c-2.386,1.103-4.663,1.45-6.836,1.037c-2.499-0.457-4.397-1.886-5.699-4.275c-0.463-0.848-0.224-2.577,0.716-5.194
			c0.953-2.619,1.221-4.312,0.803-5.082L120.297,153.038z"/>
		<path fill="none" stroke="#F1B700" stroke-width="2.4582" stroke-miterlimit="10" d="M120.297,153.038l-0.082-0.25
			c0.418,0.77,0.15,2.463-0.803,5.082c-0.939,2.617-1.179,4.347-0.716,5.194c1.302,2.39,3.2,3.818,5.699,4.275
			c2.173,0.413,4.45,0.065,6.836-1.037c2.274-1.036,3.987-2.434,5.146-4.172c1.243-1.854,1.446-3.562,0.616-5.125
			c1.769,1.408,4.201,1.5,7.293,0.279c2.872-1.126,5.532-3.023,7.986-5.702c2.573-2.785,4.076-5.554,4.506-8.294
			c0.504-3.145-0.567-5.656-3.213-7.517c0.827-0.388,1.894-1.317,3.202-2.788c1.457-1.646,2.667-3.387,3.622-5.221
			c2.616-5.035,2.419-8.872-0.599-11.509c-2.151-1.885-4.771-2.45-7.864-1.694c-2.612,0.634-5.379,2.153-8.31,4.565
			c-2.528,2.071-4.78,4.44-6.767,7.107c-1.86,2.507-2.914,4.462-3.163,5.882c-3.768,0.48-6.916,1.66-9.437,3.557
			c-2.158,1.622-3.741,3.673-4.75,6.148c-0.873,2.162-1.204,4.344-0.998,6.527C118.699,150.424,119.296,151.987,120.297,153.038z"/>
		<path fill="#FCDF00" d="M120.297,153.038c-1.001-1.051-1.598-2.614-1.793-4.69c-0.206-2.184,0.125-4.365,0.998-6.527
			c1.009-2.476,2.592-4.526,4.75-6.148c2.521-1.896,5.669-3.076,9.437-3.557c0.249-1.42,1.303-3.375,3.163-5.882
			c1.986-2.667,4.238-5.036,6.767-7.107c2.931-2.412,5.697-3.932,8.31-4.565c3.093-0.756,5.713-0.19,7.864,1.694
			c3.018,2.637,3.215,6.474,0.599,11.509c-0.955,1.834-2.165,3.574-3.622,5.221c-1.309,1.471-2.375,2.4-3.202,2.788
			c2.646,1.86,3.717,4.372,3.213,7.517c-0.43,2.74-1.933,5.509-4.506,8.294c-2.454,2.679-5.114,4.576-7.986,5.702
			c-3.092,1.221-5.524,1.129-7.293-0.279c0.83,1.562,0.627,3.271-0.616,5.125c-1.159,1.738-2.872,3.136-5.146,4.172
			c-2.386,1.103-4.663,1.45-6.836,1.037c-2.499-0.457-4.397-1.886-5.699-4.275c-0.463-0.848-0.224-2.577,0.716-5.194
			c0.953-2.619,1.221-4.312,0.803-5.082L120.297,153.038z"/>
		<path fill="#E41F25" d="M131.443,186.31c-0.207,0-0.389,0.008-0.53,0.033l-0.038,0.032l0.007,0.049
			c0.468,0.577,1.12,1.369,1.96,2.363c0.699,0.881,1.332,1.787,1.887,2.71c0.32,0.543,0.585,1.12,0.773,1.724
			c0.1,0.312,0.197,0.643,0.306,0.996c-11.129,5.326-20.42,7.948-27.875,7.858c-2.971-0.042-5.384-0.544-7.237-1.501
			c-1.573-0.833-2.545-1.912-2.9-3.252c-0.33-1.302-0.033-2.645,0.897-4.029c1.045-1.547,2.693-2.891,4.927-4.027
			c5.114-2.594,11.777-3.574,19.973-2.933l1.046,0.073h0.049c0.009,0.01,0.025,0.018,0.043,0.027h0.016
			c0.058,0.007,0.123,0.007,0.19,0.016h0.051c0.037,0,0.22-0.025,0.55-0.074c-0.107-0.141-0.315-0.328-0.633-0.568
			c-0.39-0.297-0.733-0.479-1.021-0.553c-0.529-0.141-0.983-0.238-1.353-0.305c-7.948-0.485-14.455,0.569-19.505,3.155
			c-2.471,1.25-4.274,2.735-5.42,4.456c-1.161,1.738-1.521,3.427-1.078,5.075v0.007c0.402,1.688,1.596,3.056,3.565,4.094h0.01
			c2.001,1.055,4.604,1.606,7.815,1.656l0.009-0.01c7.198,0.105,16.079-2.271,26.638-7.139l2.627-1.287
			c0.1-0.362,0.084-0.855-0.052-1.482c-0.138-0.668-0.386-1.3-0.739-1.895c-0.668-1.16-1.351-2.216-2.051-3.181
			c-0.833-1.135-1.425-1.769-1.795-1.9C132.224,186.375,131.853,186.317,131.443,186.31"/>
		<path fill="#E76500" d="M135.808,194.217c-0.108-0.354-0.206-0.684-0.306-0.996c-0.188-0.604-0.453-1.181-0.773-1.723
			c-0.555-0.924-1.187-1.83-1.887-2.711c-0.84-0.995-1.492-1.785-1.961-2.363l-0.006-0.049l-4.663-0.107
			c-0.272,0.043-0.496,0.083-0.676,0.107c-0.329,0.049-0.512,0.074-0.55,0.074h-0.051c-0.067-0.008-0.133-0.008-0.19-0.018h-0.016
			c-0.034-0.008-0.066-0.016-0.092-0.024l-1.046-0.074c-8.195-0.642-14.858,0.339-19.973,2.934
			c-2.233,1.135-3.882,2.479-4.927,4.026c-0.931,1.384-1.228,2.728-0.897,4.029c0.355,1.34,1.327,2.42,2.9,3.253
			c1.854,0.954,4.267,1.458,7.237,1.499C115.388,202.164,124.679,199.543,135.808,194.217"/>
		<path fill="#E41F25" d="M103.228,195.996c-0.668,1.174-0.791,2.404-0.388,3.691c0.408,1.293,1.211,2.219,2.421,2.778
			c1.36,0.634,2.926,0.632,4.707,0.009l-0.104-0.034c-1.52,0.243-2.805,0.028-3.851-0.659c-0.928-0.605-1.532-1.479-1.814-2.625
			c-0.276-1.111-0.18-2.203,0.282-3.295c0.488-1.148,1.306-2.034,2.462-2.649C105.196,193.747,103.953,194.677,103.228,195.996"/>
		<path fill="#E76500" d="M117.874,170.338c-0.411-1.154-1.499-2.271-3.261-3.352c-1.318-0.809-2.576-1.367-3.779-1.682
			c-0.183,0.027-0.363,0.044-0.534,0.066c-2.811,0.348-4.968,0.717-6.467,1.119c-3.222,0.875-6.591,2.365-10.099,4.48
			c-1.145,0.693-2.225,1.441-3.253,2.25l7.79,0.889c0.471,0.209,0.817,0.527,1.055,0.973c0.223,0.411,0.305,0.857,0.247,1.326
			c-0.024,0.256-0.081,0.484-0.175,0.709c2.16-1.31,5.116-2.57,8.867-3.773c2.172-0.668,3.787-1.16,4.85-1.498
			c1.622-0.513,2.997-0.989,4.117-1.435c0.163-0.064,0.323-0.132,0.478-0.197c-0.154,0.065-0.314,0.133-0.478,0.197
			c0.142,0.142,0.225,0.216,0.23,0.216c0.173,0,0.282-0.034,0.329-0.098C117.818,170.445,117.849,170.379,117.874,170.338"/>
		<path fill="#E17C9E" d="M124.439,183.723c0.011-0.191,0-0.387-0.041-0.585c-0.089-0.469-0.304-0.872-0.625-1.202
			c-0.356-0.354-0.783-0.562-1.283-0.619l-5.102,0.924l-3.418,0.618c-0.716,0.14-1.275,0.468-1.68,0.972
			c-0.369,0.469-0.534,0.98-0.477,1.54c0.031,0.322,0.132,0.601,0.296,0.839c0.122,0.191,0.296,0.364,0.501,0.504
			c0.528,0.371,1.235,0.502,2.126,0.402l0.354-0.066l8.171-1.482c0.469-0.246,0.798-0.608,0.989-1.079
			C124.356,184.241,124.424,183.984,124.439,183.723"/>
		<path fill="#E76500" d="M124.564,183.754c-0.042-0.006-0.083-0.023-0.125-0.031c-0.016,0.262-0.083,0.519-0.188,0.765
			c-0.191,0.471-0.521,0.833-0.989,1.079l-8.171,1.482c1.095,0.569,1.919,0.947,2.455,1.154c1.521,0.584,3.112,0.874,4.777,0.874
			c2.691,0,4.975-0.372,6.844-1.104c0.691-0.271,1.254-0.56,1.673-0.873c0.36-0.271,0.544-0.494,0.544-0.658
			c0-0.092-0.01-0.156-0.019-0.206c-0.074-0.043-0.147-0.084-0.221-0.124h-0.587l0.144-0.231
			C129.209,185.146,127.166,184.438,124.564,183.754"/>
		<path fill="#E76500" d="M113.971,182.858l3.418-0.618c-1.359-0.23-2.775-0.445-4.249-0.634c-3.436-0.446-6.654-0.726-9.652-0.833
			c0.105,0.429,0.073,0.856-0.099,1.285l-4.846,6.006c2.133-0.224,5.044-0.619,8.741-1.171c1.804-0.272,3.409-0.493,4.826-0.685
			c-0.164-0.238-0.264-0.518-0.295-0.839c-0.059-0.56,0.107-1.071,0.476-1.54C112.695,183.327,113.255,182.998,113.971,182.858"/>
		<path fill="#E76500" d="M131.146,186.111c0.073,0.04,0.146,0.081,0.221,0.124c-0.006-0.043-0.022-0.075-0.039-0.084l-0.067-0.04
			H131.146z"/>
		<path fill="#E76500" d="M110.834,165.305c-0.164-0.041-0.33-0.082-0.494-0.115l-0.04,0.182
			C110.471,165.349,110.651,165.331,110.834,165.305"/>
		<path fill="#E17C9E" d="M103.487,180.774c-0.01-0.058-0.024-0.114-0.052-0.173c-0.131-0.446-0.396-0.824-0.781-1.131
			c-0.371-0.295-0.792-0.459-1.261-0.492c-0.503-0.041-0.956,0.074-1.376,0.362l-1.135,1.407l-4.308,5.346
			c-0.454,0.569-0.669,1.18-0.645,1.83c0.009,0.155,0.032,0.312,0.067,0.453c0.091,0.402,0.288,0.74,0.583,1.021
			c0.414,0.395,0.907,0.559,1.476,0.502c0.651-0.065,1.277-0.43,1.887-1.087l0.6-0.749l4.846-6.004
			C103.561,181.629,103.593,181.203,103.487,180.774"/>
		<path fill="#E17C9E" d="M87.779,173.559c-0.486,0.338-0.792,0.791-0.906,1.343c-0.092,0.485-0.009,0.932,0.254,1.333
			c0.042,0.061,0.083,0.117,0.124,0.174c0.397,0.512,1.038,0.849,1.919,1.014l8.31,0.955l0.306,0.031
			c0.521-0.098,0.939-0.344,1.263-0.74c0.146-0.173,0.261-0.354,0.35-0.551c0.095-0.225,0.151-0.453,0.176-0.709
			c0.058-0.469-0.024-0.914-0.247-1.326c-0.237-0.445-0.584-0.764-1.055-0.973l-7.79-0.889l-0.816-0.1
			C88.949,173.047,88.314,173.196,87.779,173.559"/>
		<path fill="#E76500" d="M87.251,176.408c-0.041-0.056-0.082-0.113-0.124-0.174c-0.807,0.833-1.563,1.715-2.279,2.637
			c-1.047,1.351-1.787,2.561-2.226,3.632c-0.436,1.08-0.493,1.845-0.171,2.298c1.184,1.623,3.129,2.693,5.838,3.212
			c1.573,0.298,3.478,0.421,5.709,0.363c-0.035-0.141-0.058-0.296-0.067-0.453c-0.024-0.65,0.19-1.259,0.645-1.829l4.308-5.346
			c-2.424,0.084-4.276,0.332-5.561,0.742c1.441-1.161,2.824-2.199,4.157-3.112l-8.31-0.956
			C88.289,177.258,87.648,176.919,87.251,176.408"/>
		
			<path fill="none" stroke="#E41F25" stroke-width="1.3178" stroke-linecap="round" stroke-linejoin="round" stroke-miterlimit="10" d="
			M117.711,170.214c-0.155,0.065-0.315,0.132-0.479,0.197c-1.12,0.445-2.495,0.922-4.117,1.435c-1.062,0.336-2.678,0.831-4.85,1.498
			c-3.751,1.203-6.707,2.464-8.868,3.773c-0.089,0.197-0.203,0.378-0.35,0.551c-0.323,0.396-0.741,0.643-1.263,0.74l-0.306-0.031
			c-1.333,0.914-2.716,1.952-4.158,3.113c1.285-0.41,3.138-0.658,5.562-0.742l1.135-1.408c0.42-0.287,0.873-0.403,1.376-0.361
			c0.468,0.033,0.89,0.196,1.261,0.492c0.386,0.307,0.65,0.684,0.781,1.131c0.027,0.058,0.042,0.115,0.052,0.173
			c2.997,0.106,6.217,0.387,9.652,0.831c1.474,0.19,2.89,0.403,4.249,0.634l5.102-0.923c0.5,0.057,0.927,0.265,1.283,0.619
			c0.321,0.33,0.536,0.732,0.625,1.203c0.041,0.197,0.052,0.393,0.041,0.583c0.042,0.01,0.083,0.026,0.125,0.033
			c2.602,0.683,4.645,1.391,6.138,2.125c0.152,0.075,0.303,0.156,0.443,0.231c0.073,0.039,0.146,0.08,0.221,0.123
			c0.315,0.182,0.594,0.363,0.851,0.543 M111.122,165.272c-0.1,0.007-0.199,0.024-0.288,0.033c-0.183,0.024-0.363,0.042-0.534,0.065
			c-2.811,0.348-4.968,0.717-6.467,1.119c-3.222,0.874-6.591,2.366-10.099,4.48c-1.145,0.694-2.225,1.441-3.253,2.25l-0.816-0.1
			c-0.716-0.074-1.351,0.075-1.886,0.438c-0.486,0.338-0.792,0.791-0.906,1.343c-0.092,0.484-0.009,0.932,0.254,1.333
			c-0.807,0.834-1.563,1.714-2.279,2.637c-1.047,1.351-1.787,2.562-2.226,3.633c-0.436,1.078-0.493,1.844-0.171,2.299
			c1.184,1.621,3.129,2.691,5.838,3.21c1.573,0.298,3.478,0.421,5.708,0.364c0.092,0.402,0.29,0.74,0.584,1.021
			c0.414,0.396,0.907,0.56,1.476,0.503c0.651-0.065,1.277-0.43,1.887-1.088l0.6-0.748c2.133-0.225,5.043-0.62,8.74-1.172
			c1.805-0.271,3.41-0.492,4.827-0.684"/>
		<path fill="#FCDF00" d="M114.076,109.898c-0.124-0.023-0.237-0.053-0.358-0.092c-0.046-0.057-0.104-0.111-0.151-0.166
			c-0.054-0.061-0.108-0.121-0.153-0.178c-1.641-0.732-3.353-1.35-5.14-1.843c-0.66-0.184-1.325-0.372-1.985-0.577
			c-0.047-0.056-0.101-0.116-0.158-0.161c-0.054-0.05-0.106-0.089-0.155-0.127c-0.514-0.104-0.979-0.331-1.39-0.658
			c-0.144-0.116-0.312-0.196-0.498-0.224c-0.027,0.157-0.055,0.315-0.088,0.479c-0.645,3.174-1.954,5.994-3.922,8.455
			c-5.07,6.36-11.831,10.174-20.292,11.434c-6.33,0.946-9.352,4.434-9.047,10.472c0.079,1.545,0.542,2.964,1.417,4.255
			c3.793,5.657,9.358,7.511,16.692,5.575c8-2.107,14.013-6.769,18.03-13.989c3.71-6.672,6.194-13.857,7.45-21.562l-0.111-0.034
			c0.043-0.032,0.084-0.052,0.128-0.063c0.01-0.043,0.011-0.082,0.018-0.125c-0.007,0.043-0.008,0.082-0.018,0.125
			c0.127-0.064,0.263-0.102,0.408-0.104c0.095-0.005,0.14-0.085,0.14-0.25c-0.049-0.077-0.099-0.144-0.146-0.223
			c-0.044-0.059-0.099-0.12-0.145-0.175C114.447,110.023,114.267,109.945,114.076,109.898"/>
		<path fill="#FCDF00" d="M104.066,105.86c-0.127,0.168-0.148,0.332-0.067,0.491c0.033-0.163,0.061-0.322,0.088-0.479
			C104.082,105.865,104.076,105.861,104.066,105.86"/>
		
			<path fill="none" stroke="#F1B700" stroke-width="1.2421" stroke-linecap="round" stroke-linejoin="round" stroke-miterlimit="10" d="
			M114.362,110.768c-0.007,0.043-0.008,0.082-0.018,0.125c-0.006,0.027-0.015,0.06-0.017,0.098
			c-1.256,7.705-3.74,14.891-7.449,21.562c-4.019,7.221-10.031,11.882-18.031,13.989c-7.334,1.936-12.899,0.082-16.691-5.575
			c-0.876-1.291-1.34-2.71-1.418-4.255c-0.305-6.038,2.717-9.525,9.047-10.472c8.461-1.26,15.222-5.073,20.292-11.434
			c1.968-2.463,3.277-5.281,3.922-8.455c0.033-0.163,0.061-0.321,0.089-0.479c0.057-0.329,0.108-0.651,0.15-0.97"/>
		<path fill="#FCDF00" d="M86.461,135.951c0.268,0.717,0.38,1.275,0.334,1.686c-0.307,2.438-2.049,4.24-5.222,5.405
			c-0.864,0.318-2.199,0.741-4.001,1.264c-1.547,0.493-2.7,1.005-3.451,1.534c-1.574,1.096-2.458,1.686-2.65,1.764
			c-1.129,0.441-1.838-0.047-2.117-1.48c-0.174-0.884,0.193-1.961,1.111-3.226c0.494-0.676,1.309-1.572,2.431-2.694
			c-0.18-0.052-0.576,0.098-1.168,0.439c-0.145,0.082-0.747,0.457-1.816,1.127c-1.672,1.048-2.658,1.421-2.945,1.12
			c-1.183-1.222-0.951-2.86,0.691-4.919c0.615-0.771,1.247-1.387,1.882-1.836c0.862-0.608,1.904-1.056,3.117-1.346
			c-0.3,0.047-0.845,0.186-1.621,0.416c-0.81,0.229-1.396,0.379-1.759,0.443c-1.302,0.236-1.862-0.128-1.674-1.085
			c0.097-0.479,0.373-1.021,0.845-1.62c0.561-0.712,1.258-1.331,2.106-1.852c2.274-1.398,5.053-1.799,8.326-1.21
			c2.568,0.46,4.644,1.698,6.222,3.718C85.691,134.357,86.148,135.135,86.461,135.951"/>
		
			<path fill="none" stroke="#F1B700" stroke-width="1.2708" stroke-linecap="round" stroke-linejoin="round" stroke-miterlimit="10" d="
			M86.461,135.951c-0.312-0.816-0.77-1.594-1.359-2.352c-1.578-2.02-3.653-3.258-6.222-3.718c-3.273-0.589-6.052-0.188-8.326,1.21
			c-0.849,0.521-1.546,1.14-2.106,1.852c-0.472,0.6-0.748,1.142-0.845,1.62c-0.188,0.957,0.372,1.321,1.674,1.085
			c0.363-0.064,0.949-0.215,1.759-0.443c0.776-0.23,1.321-0.369,1.621-0.416c-1.213,0.29-2.255,0.737-3.117,1.346
			c-0.635,0.449-1.267,1.065-1.882,1.836c-1.643,2.059-1.874,3.697-0.691,4.919c0.287,0.301,1.273-0.072,2.945-1.12
			c1.069-0.67,1.672-1.045,1.816-1.127c0.592-0.342,0.988-0.491,1.168-0.439c-1.122,1.122-1.937,2.019-2.431,2.694
			c-0.918,1.265-1.285,2.342-1.111,3.226c0.279,1.434,0.988,1.922,2.117,1.48c0.192-0.078,1.076-0.668,2.65-1.764
			c0.751-0.529,1.904-1.041,3.451-1.534c1.802-0.522,3.137-0.945,4.001-1.264c3.173-1.165,4.915-2.968,5.222-5.405
			C86.841,137.227,86.729,136.668,86.461,135.951z"/>
		<path fill="#110C0D" d="M20.1,224.738c0-8.303,2.942-15.395,8.826-21.277c5.877-5.876,12.958-8.81,21.266-8.81
			c8.295,0,15.39,2.934,21.274,8.81c5.876,5.883,8.807,12.975,8.807,21.27c0,8.301-2.931,15.386-8.807,21.259
			c-5.885,5.884-12.979,8.825-21.274,8.825c-8.308,0-15.389-2.941-21.266-8.825C23.042,240.116,20.1,233.031,20.1,224.738
			 M35.886,209.129c-4.124,4.125-6.184,9.088-6.184,14.905c0,5.813,2.06,10.778,6.184,14.891c4.113,4.124,9.09,6.186,14.903,6.186
			c5.819,0,10.785-2.062,14.898-6.186c4.111-4.112,6.175-9.077,6.175-14.891c0-5.817-2.063-10.78-6.175-14.905
			c-4.113-4.112-9.079-6.173-14.898-6.173C44.976,202.956,39.999,205.017,35.886,209.129"/>
		<path fill="#91A69A" d="M29.702,224.033c0-5.816,2.06-10.779,6.184-14.904c4.114-4.112,9.091-6.173,14.903-6.173
			c5.819,0,10.786,2.061,14.898,6.173c4.111,4.125,6.175,9.088,6.175,14.904c0,5.814-2.063,10.779-6.175,14.892
			c-4.112,4.124-9.079,6.186-14.898,6.186c-5.812,0-10.789-2.062-14.903-6.186C31.762,234.812,29.702,229.848,29.702,224.033
			 M47.878,211.182c-0.261-1.324-0.542-2.148-0.853-2.45c-0.445-0.415-1.333-0.503-2.682-0.28c-1.674,0.28-3.288,0.959-4.839,2.041
			c-0.695,0.497-1.315,1.018-1.847,1.57c-0.098,0.096-0.184,0.204-0.263,0.309c-0.88,1.016-1.49,2.188-1.828,3.514
			c-0.312,1.123-0.376,2.109-0.215,2.961c0.166,0.822,0.505,1.402,1.017,1.723c0.049,0.029,0.106,0.059,0.166,0.088
			c0.134,0.047,0.27,0.087,0.396,0.125c2.448,0.67,4.896,0.756,7.356,0.271c1.268-0.225,2.082-0.475,2.438-0.747
			c0.515-0.396,0.951-1.286,1.307-2.669c0.263-0.988,0.35-2.111,0.282-3.359C48.266,213.387,48.12,212.352,47.878,211.182
			 M47.539,230.516c-0.223-1.268-0.476-2.08-0.744-2.439c-0.397-0.511-1.289-0.948-2.674-1.306
			c-0.983-0.261-2.108-0.349-3.357-0.279c-0.892,0.048-1.926,0.193-3.099,0.435c-1.326,0.262-2.146,0.542-2.447,0.852
			c-0.415,0.444-0.505,1.336-0.278,2.68c0.278,1.674,0.957,3.291,2.04,4.84c0.495,0.698,1.017,1.316,1.567,1.848
			c0.099,0.098,0.203,0.184,0.31,0.262c1.016,0.881,2.188,1.49,3.516,1.828c1.122,0.311,2.108,0.379,2.959,0.214
			c0.823-0.165,1.404-0.503,1.722-1.015c0.03-0.051,0.06-0.109,0.089-0.166c0.048-0.137,0.086-0.27,0.126-0.396
			C47.935,235.421,48.021,232.975,47.539,230.516 M62.745,211.172c-0.098-0.097-0.202-0.183-0.311-0.262
			c-1.015-0.881-2.188-1.491-3.513-1.83c-1.123-0.31-2.11-0.376-2.96-0.213c-0.824,0.166-1.407,0.504-1.726,1.016
			c-0.028,0.049-0.058,0.107-0.087,0.167c-0.051,0.134-0.087,0.269-0.125,0.396c-0.667,2.446-0.755,4.896-0.271,7.355
			c0.222,1.267,0.475,2.077,0.745,2.438c0.397,0.511,1.289,0.947,2.671,1.306c0.985,0.26,2.108,0.347,3.359,0.281
			c0.892-0.049,1.927-0.194,3.098-0.437c1.324-0.262,2.147-0.541,2.449-0.853c0.414-0.444,0.501-1.335,0.277-2.679
			c-0.277-1.676-0.956-3.292-2.041-4.84C63.818,212.322,63.297,211.703,62.745,211.172 M65.726,232.432
			c0.31-1.123,0.378-2.109,0.215-2.961c-0.167-0.821-0.505-1.402-1.018-1.723c-0.049-0.028-0.105-0.057-0.166-0.086
			c-0.132-0.05-0.269-0.087-0.396-0.127c-2.449-0.666-4.897-0.756-7.356-0.271c-1.268,0.223-2.081,0.474-2.439,0.745
			c-0.511,0.395-0.948,1.287-1.305,2.672c-0.264,0.986-0.35,2.108-0.28,3.359c0.044,0.889,0.189,1.924,0.433,3.094
			c0.262,1.326,0.543,2.148,0.853,2.447c0.445,0.417,1.338,0.504,2.683,0.283c1.673-0.283,3.29-0.959,4.837-2.043
			c0.697-0.494,1.318-1.017,1.849-1.568c0.097-0.096,0.185-0.201,0.262-0.308C64.779,234.93,65.389,233.759,65.726,232.432"/>
		
			<path fill="none" stroke="#4A4646" stroke-width="1.5483" stroke-linecap="round" stroke-linejoin="round" stroke-miterlimit="10" d="
			M47.025,208.732c-0.445-0.416-1.333-0.504-2.682-0.281c-1.674,0.281-3.288,0.959-4.839,2.041c-0.695,0.496-1.315,1.018-1.847,1.57
			c-0.098,0.096-0.184,0.205-0.263,0.308c-0.88,1.018-1.49,2.188-1.828,3.515c-0.312,1.123-0.377,2.109-0.215,2.961
			c0.166,0.822,0.505,1.402,1.017,1.723c0.049,0.029,0.106,0.059,0.166,0.088c0.134,0.047,0.27,0.087,0.396,0.126
			c2.448,0.669,4.896,0.755,7.357,0.271c1.267-0.225,2.081-0.475,2.437-0.747c0.515-0.396,0.951-1.286,1.307-2.669
			c0.263-0.987,0.35-2.111,0.282-3.358c-0.048-0.891-0.193-1.927-0.436-3.097C47.617,209.857,47.336,209.033,47.025,208.732z
			 M46.795,228.076c-0.397-0.511-1.289-0.947-2.674-1.306c-0.983-0.26-2.108-0.349-3.357-0.278
			c-0.892,0.047-1.926,0.191-3.099,0.435c-1.326,0.261-2.146,0.541-2.447,0.851c-0.415,0.444-0.505,1.335-0.278,2.68
			c0.278,1.674,0.957,3.291,2.04,4.839c0.495,0.698,1.017,1.317,1.567,1.849c0.099,0.098,0.203,0.185,0.31,0.263
			c1.016,0.88,2.188,1.489,3.516,1.828c1.122,0.31,2.108,0.378,2.959,0.214c0.823-0.166,1.404-0.504,1.722-1.016
			c0.03-0.05,0.06-0.109,0.089-0.168c0.048-0.135,0.086-0.27,0.126-0.395c0.667-2.451,0.754-4.896,0.271-7.355
			C47.316,229.249,47.063,228.436,46.795,228.076z M28.926,203.461c5.877-5.877,12.959-8.809,21.267-8.809
			c8.294,0,15.389,2.932,21.273,8.809c5.876,5.883,8.807,12.975,8.807,21.27c0,8.301-2.931,15.386-8.807,21.26
			c-5.885,5.883-12.979,8.824-21.273,8.824c-8.308,0-15.39-2.941-21.267-8.824c-5.884-5.874-8.826-12.959-8.826-21.252
			C20.1,216.436,23.042,209.344,28.926,203.461z M62.435,210.91c-1.015-0.881-2.188-1.491-3.513-1.83
			c-1.123-0.309-2.11-0.376-2.96-0.213c-0.824,0.166-1.407,0.504-1.726,1.016c-0.028,0.049-0.057,0.107-0.087,0.167
			c-0.051,0.135-0.087,0.269-0.125,0.396c-0.667,2.447-0.755,4.896-0.271,7.355c0.222,1.268,0.475,2.079,0.745,2.439
			c0.397,0.512,1.289,0.947,2.671,1.307c0.985,0.258,2.108,0.347,3.359,0.279c0.892-0.048,1.927-0.193,3.098-0.437
			c1.324-0.26,2.147-0.541,2.449-0.852c0.414-0.443,0.502-1.335,0.277-2.679c-0.277-1.676-0.956-3.291-2.041-4.84
			c-0.493-0.697-1.015-1.316-1.566-1.849C62.647,211.075,62.543,210.988,62.435,210.91z M65.94,229.471
			c-0.167-0.821-0.505-1.402-1.018-1.723c-0.049-0.028-0.105-0.057-0.166-0.087c-0.132-0.049-0.269-0.086-0.396-0.126
			c-2.449-0.666-4.897-0.756-7.356-0.271c-1.268,0.223-2.081,0.474-2.439,0.745c-0.511,0.395-0.948,1.288-1.305,2.672
			c-0.264,0.986-0.351,2.107-0.28,3.358c0.044,0.889,0.189,1.925,0.433,3.095c0.261,1.326,0.543,2.148,0.853,2.447
			c0.445,0.419,1.338,0.504,2.683,0.283c1.673-0.283,3.29-0.959,4.837-2.043c0.696-0.493,1.318-1.016,1.849-1.568
			c0.097-0.096,0.185-0.201,0.263-0.309c0.883-1.017,1.492-2.187,1.829-3.514C66.035,231.309,66.104,230.322,65.94,229.471z"/>
		
			<path fill="none" stroke="#4E6156" stroke-width="1.5483" stroke-linecap="round" stroke-linejoin="round" stroke-miterlimit="10" d="
			M35.886,209.129c4.113-4.112,9.09-6.173,14.903-6.173c5.819,0,10.785,2.061,14.898,6.173c4.111,4.125,6.175,9.088,6.175,14.905
			c0,5.813-2.063,10.778-6.175,14.891c-4.113,4.124-9.079,6.186-14.898,6.186c-5.813,0-10.79-2.062-14.903-6.186
			c-4.124-4.112-6.184-9.077-6.184-14.891C29.702,218.217,31.762,213.254,35.886,209.129z"/>
		<path fill="#110C0D" d="M123.607,224.738c0-8.303,2.944-15.395,8.829-21.277c5.876-5.876,12.957-8.81,21.264-8.81
			c8.294,0,15.388,2.934,21.275,8.81c5.874,5.883,8.805,12.975,8.805,21.27c0,8.301-2.931,15.386-8.805,21.259
			c-5.888,5.884-12.981,8.825-21.275,8.825c-8.307,0-15.388-2.941-21.264-8.825C126.552,240.116,123.607,233.031,123.607,224.738
			 M139.395,209.129c-4.123,4.125-6.186,9.088-6.186,14.905c0,5.813,2.062,10.778,6.186,14.891
			c4.113,4.124,9.087,6.186,14.906,6.186c5.816,0,10.781-2.062,14.895-6.186c4.114-4.112,6.175-9.077,6.175-14.891
			c0-5.817-2.061-10.78-6.175-14.905c-4.113-4.112-9.078-6.173-14.895-6.173C148.481,202.956,143.508,205.017,139.395,209.129"/>
		<path fill="#91A69A" d="M133.209,224.033c0-5.817,2.062-10.779,6.186-14.903c4.113-4.112,9.087-6.174,14.906-6.174
			c5.816,0,10.781,2.062,14.895,6.174c4.114,4.124,6.176,9.086,6.176,14.903c0,5.814-2.062,10.78-6.176,14.892
			c-4.113,4.124-9.078,6.186-14.895,6.186c-5.819,0-10.793-2.062-14.906-6.186C135.271,234.813,133.209,229.848,133.209,224.033
			 M151.385,211.182c-0.259-1.324-0.539-2.148-0.85-2.449c-0.447-0.416-1.334-0.504-2.682-0.281
			c-1.673,0.281-3.289,0.959-4.839,2.041c-0.696,0.496-1.315,1.018-1.851,1.57c-0.096,0.096-0.183,0.205-0.261,0.309
			c-0.879,1.017-1.488,2.188-1.826,3.515c-0.311,1.122-0.38,2.108-0.214,2.96c0.163,0.822,0.5,1.402,1.016,1.723
			c0.05,0.029,0.107,0.058,0.163,0.088c0.137,0.047,0.272,0.088,0.397,0.126c2.448,0.669,4.898,0.755,7.355,0.271
			c1.271-0.225,2.081-0.475,2.441-0.746c0.51-0.396,0.947-1.287,1.306-2.67c0.26-0.987,0.348-2.111,0.28-3.358
			C151.775,213.388,151.629,212.352,151.385,211.182 M151.047,230.516c-0.221-1.267-0.473-2.08-0.744-2.439
			c-0.396-0.511-1.286-0.947-2.671-1.307c-0.986-0.259-2.11-0.348-3.358-0.277c-0.891,0.047-1.928,0.191-3.096,0.435
			c-1.327,0.261-2.151,0.542-2.45,0.851c-0.415,0.444-0.505,1.335-0.282,2.68c0.282,1.674,0.96,3.291,2.04,4.841
			c0.496,0.696,1.021,1.315,1.57,1.847c0.098,0.098,0.204,0.185,0.31,0.262c1.018,0.881,2.188,1.49,3.513,1.829
			c1.123,0.31,2.111,0.378,2.963,0.214c0.824-0.166,1.402-0.504,1.722-1.016c0.028-0.05,0.06-0.109,0.091-0.167
			c0.046-0.136,0.084-0.269,0.124-0.396C151.444,235.42,151.529,232.975,151.047,230.516 M166.252,211.171
			c-0.096-0.096-0.203-0.183-0.308-0.261c-1.018-0.881-2.188-1.49-3.516-1.83c-1.121-0.309-2.109-0.376-2.96-0.213
			c-0.824,0.166-1.402,0.504-1.722,1.016c-0.031,0.049-0.059,0.107-0.089,0.167c-0.048,0.135-0.088,0.269-0.127,0.396
			c-0.667,2.447-0.753,4.896-0.271,7.355c0.223,1.268,0.475,2.079,0.747,2.439c0.397,0.512,1.286,0.947,2.67,1.307
			c0.987,0.258,2.11,0.347,3.358,0.279c0.891-0.047,1.927-0.192,3.096-0.437c1.329-0.26,2.15-0.541,2.451-0.852
			c0.416-0.443,0.505-1.335,0.281-2.679c-0.281-1.676-0.959-3.291-2.042-4.84C167.328,212.322,166.805,211.703,166.252,211.171
			 M168.431,227.748c-0.049-0.028-0.105-0.057-0.163-0.087c-0.136-0.048-0.271-0.086-0.398-0.126
			c-2.45-0.666-4.897-0.756-7.356-0.27c-1.267,0.222-2.08,0.474-2.438,0.744c-0.512,0.395-0.947,1.288-1.306,2.672
			c-0.263,0.986-0.347,2.107-0.28,3.358c0.047,0.889,0.192,1.925,0.435,3.095c0.263,1.326,0.544,2.148,0.851,2.447
			c0.445,0.419,1.337,0.504,2.682,0.283c1.676-0.283,3.292-0.959,4.84-2.043c0.697-0.493,1.317-1.016,1.85-1.568
			c0.094-0.097,0.184-0.201,0.261-0.309c0.881-1.017,1.49-2.187,1.832-3.513c0.308-1.124,0.373-2.111,0.211-2.962
			C169.282,228.649,168.942,228.068,168.431,227.748"/>
		
			<path fill="none" stroke="#4A4646" stroke-width="1.5483" stroke-linecap="round" stroke-linejoin="round" stroke-miterlimit="10" d="
			M150.535,208.732c-0.447-0.417-1.335-0.503-2.682-0.281c-1.673,0.281-3.289,0.959-4.839,2.041
			c-0.696,0.496-1.315,1.019-1.851,1.57c-0.096,0.096-0.183,0.203-0.261,0.309c-0.879,1.017-1.488,2.188-1.826,3.514
			c-0.311,1.123-0.38,2.108-0.214,2.961c0.163,0.822,0.5,1.403,1.016,1.723c0.05,0.029,0.107,0.059,0.163,0.088
			c0.137,0.047,0.272,0.087,0.397,0.125c2.448,0.669,4.898,0.755,7.355,0.271c1.271-0.224,2.081-0.474,2.441-0.746
			c0.51-0.396,0.947-1.286,1.306-2.669c0.26-0.988,0.348-2.111,0.28-3.358c-0.047-0.891-0.193-1.927-0.438-3.097
			C151.126,209.856,150.846,209.033,150.535,208.732z M150.303,228.076c-0.396-0.51-1.286-0.947-2.671-1.307
			c-0.986-0.26-2.11-0.348-3.359-0.279c-0.89,0.049-1.927,0.193-3.095,0.437c-1.328,0.261-2.151,0.541-2.451,0.85
			c-0.415,0.445-0.504,1.336-0.281,2.681c0.281,1.674,0.96,3.291,2.04,4.838c0.496,0.699,1.021,1.319,1.57,1.85
			c0.097,0.098,0.204,0.185,0.31,0.262c1.018,0.881,2.188,1.49,3.513,1.829c1.123,0.31,2.11,0.378,2.963,0.212
			c0.824-0.164,1.402-0.502,1.722-1.015c0.028-0.05,0.06-0.108,0.09-0.166c0.047-0.136,0.085-0.271,0.125-0.396
			c0.667-2.451,0.752-4.896,0.27-7.355C150.826,229.248,150.574,228.435,150.303,228.076z M132.437,203.46
			c5.875-5.876,12.957-8.808,21.264-8.808c8.294,0,15.388,2.932,21.275,8.808c5.874,5.884,8.805,12.976,8.805,21.271
			c0,8.301-2.931,15.386-8.805,21.259c-5.888,5.884-12.981,8.825-21.275,8.825c-8.307,0-15.389-2.941-21.264-8.825
			c-5.885-5.873-8.829-12.958-8.829-21.25C123.607,216.436,126.552,209.344,132.437,203.46z M165.944,210.91
			c-1.018-0.881-2.188-1.49-3.516-1.83c-1.122-0.31-2.109-0.375-2.96-0.213c-0.825,0.166-1.402,0.504-1.722,1.017
			c-0.031,0.048-0.059,0.106-0.089,0.165c-0.048,0.137-0.088,0.27-0.127,0.396c-0.667,2.447-0.754,4.896-0.271,7.355
			c0.223,1.269,0.475,2.079,0.747,2.438c0.397,0.513,1.286,0.947,2.67,1.308c0.987,0.258,2.11,0.346,3.358,0.279
			c0.891-0.049,1.927-0.192,3.096-0.436c1.329-0.262,2.149-0.541,2.451-0.852c0.416-0.444,0.505-1.337,0.281-2.681
			c-0.281-1.675-0.959-3.29-2.042-4.839c-0.494-0.696-1.018-1.316-1.57-1.848C166.156,211.076,166.049,210.988,165.944,210.91z
			 M168.267,227.662c-0.135-0.049-0.271-0.088-0.397-0.127c-2.45-0.667-4.897-0.756-7.356-0.271
			c-1.267,0.223-2.08,0.475-2.438,0.746c-0.512,0.395-0.947,1.287-1.306,2.671c-0.264,0.986-0.347,2.108-0.28,3.359
			c0.047,0.89,0.192,1.925,0.434,3.095c0.264,1.326,0.545,2.148,0.852,2.447c0.445,0.419,1.337,0.504,2.683,0.282
			c1.675-0.282,3.291-0.958,4.838-2.041c0.698-0.494,1.318-1.017,1.851-1.57c0.094-0.096,0.184-0.2,0.261-0.308
			c0.88-1.016,1.49-2.187,1.832-3.514c0.308-1.123,0.373-2.109,0.211-2.961c-0.167-0.821-0.506-1.402-1.019-1.723
			C168.382,227.719,168.325,227.691,168.267,227.662z"/>
		
			<path fill="none" stroke="#4E6156" stroke-width="1.5483" stroke-linecap="round" stroke-linejoin="round" stroke-miterlimit="10" d="
			M139.395,209.129c4.113-4.112,9.087-6.173,14.906-6.173c5.816,0,10.781,2.061,14.895,6.173c4.114,4.125,6.175,9.088,6.175,14.905
			c0,5.813-2.061,10.778-6.175,14.891c-4.113,4.124-9.078,6.186-14.895,6.186c-5.819,0-10.793-2.062-14.906-6.186
			c-4.123-4.112-6.186-9.077-6.186-14.891C133.209,218.217,135.271,213.254,139.395,209.129z"/>
		<path fill="#9DAFA5" d="M109.604,218.262c-0.069-0.611,0.076-1.171,0.434-1.693l10.378-15.029l3.609,2.826l-10.222,14.807
			c-0.358,0.522-0.857,0.843-1.489,0.957c-0.569,0.108-1.113-0.027-1.644-0.397l-0.062-0.037
			C110.086,219.335,109.749,218.854,109.604,218.262"/>
		
			<path fill="none" stroke="#4A4646" stroke-width="1.5483" stroke-linecap="round" stroke-linejoin="round" stroke-miterlimit="10" d="
			M120.415,201.54l-10.378,15.028c-0.357,0.522-0.503,1.082-0.434,1.693c0.146,0.592,0.482,1.074,1.005,1.434l0.062,0.037
			c0.53,0.368,1.074,0.505,1.645,0.396c0.631-0.114,1.13-0.434,1.488-0.956l10.222-14.808"/>
		<path fill="#3D3938" d="M116.436,204.423c-1.189,0.184-1.849-0.185-1.983-1.084l-0.473-3.029
			c-0.138-0.897,0.395-1.431,1.588-1.615l15.233-2.341c1.198-0.183,1.866,0.172,2.003,1.064l0.463,3.028
			c0.137,0.899-0.385,1.44-1.576,1.626L116.436,204.423z"/>
		
			<path fill="none" stroke="#574A4D" stroke-width="1.5483" stroke-linecap="round" stroke-linejoin="round" stroke-miterlimit="10" d="
			M116.436,204.423l15.255-2.351c1.191-0.186,1.713-0.727,1.576-1.626l-0.463-3.028c-0.137-0.893-0.805-1.247-2.003-1.064
			l-15.233,2.341c-1.193,0.185-1.726,0.718-1.588,1.615l0.473,3.029C114.587,204.238,115.246,204.606,116.436,204.423z"/>
		
			<path fill="none" stroke="#4E6156" stroke-width="1.5483" stroke-linecap="round" stroke-linejoin="round" stroke-miterlimit="10" d="
			M113.998,231.137h1.16 M116.322,231.137h1.165 M118.646,231.137h1.162 M120.971,231.137h1.161 M123.293,231.137h1.16
			 M125.616,231.137h1.16 M127.938,231.137h1.16 M130.259,231.137h1.162 M132.583,231.137h1.161 M134.907,231.126h1.16
			 M137.229,231.106h1.162 M139.553,231.087h1.162 M141.877,231.068h1.161 M144.198,231.05h1.161 M146.521,231.029h1.161
			 M148.843,231.009h1.162 M151.166,230.992h1.162 M153.49,230.971h0.892 M115.425,206.062l1.121,0.32 M117.667,206.711l1.124,0.328
			 M119.912,207.369l1.126,0.308 M122.161,208.007l1.121,0.31 M124.406,208.646l1.121,0.31 M126.651,209.285l1.121,0.309
			 M128.896,209.924l1.121,0.328 M131.141,210.562l1.124,0.328 M133.388,211.201l1.123,0.328 M135.634,211.86l1.123,0.308
			 M137.877,212.497l1.124,0.31 M140.123,213.137l1.123,0.328 M142.368,213.775l1.123,0.33 M144.612,214.413l1.124,0.329
			 M146.858,215.052l1.126,0.329 M149.106,215.711l1.122,0.311 M151.351,216.351l1.121,0.308 M153.597,216.986l1.122,0.33
			 M155.842,217.625l0.726,0.214"/>
		<path fill="#9DAFA5" d="M154.263,217.277c0.184,0,0.359,0.01,0.534,0.021c1.771,0.115,3.292,0.812,4.577,2.09
			c1.404,1.401,2.111,3.105,2.111,5.1c0,2.002-0.707,3.705-2.111,5.109c-1.412,1.402-3.117,2.109-5.111,2.109h-0.085
			c-1.966-0.02-3.637-0.728-5.025-2.109c-1.401-1.404-2.109-3.107-2.109-5.101c0-2.003,0.708-3.707,2.109-5.108
			C150.557,217.984,152.263,217.277,154.263,217.277"/>
		
			<path fill="none" stroke="#4A4646" stroke-width="1.5483" stroke-linecap="round" stroke-linejoin="round" stroke-miterlimit="10" d="
			M154.797,217.299c1.771,0.115,3.292,0.812,4.577,2.09c1.404,1.401,2.11,3.105,2.11,5.1c0,2.002-0.706,3.705-2.11,5.109
			c-1.412,1.402-3.117,2.109-5.111,2.109h-0.085c-1.966-0.02-3.638-0.727-5.025-2.109c-1.401-1.404-2.109-3.107-2.109-5.101
			c0-2.003,0.708-3.707,2.109-5.108c1.404-1.404,3.11-2.111,5.11-2.111C154.446,217.277,154.622,217.287,154.797,217.299z"/>
		<path fill="#668A8F" d="M60.227,142.406c1.324-3.262,2.631-4.896,3.92-4.896c0.222,0,2.7,0.484,7.412,1.451l-1.432,4.49
			c-1.238-0.416-2.487-0.794-3.746-1.142c-0.398-0.106-0.727-0.012-0.986,0.3c-0.67,0.803-1.153,1.693-1.473,2.671
			c-0.262,0.803-0.367,1.626-0.319,2.468c0.013,0.135,0.05,0.262,0.127,0.377c0.551,0.842,1.285,1.508,2.187,1.992
			c1.549,0.833,2.952,1.858,4.2,3.078c0.494,0.464,0.698,1.025,0.628,1.684c-0.182,1.713-0.493,3.398-0.929,5.062
			c-0.075,0.29-0.146,0.57-0.192,0.852l-4.723-1.277c0.065-0.292,0.135-0.591,0.201-0.9c0.205-0.9,0.302-1.578,0.302-2.023
			c0-0.648-0.359-1.305-1.073-1.975c-0.389-0.367-1.181-0.958-2.373-1.76c-1.112-0.766-1.906-1.396-2.361-1.869
			c-0.716-0.745-1.074-1.49-1.074-2.254c0-0.514,0.156-1.374,0.465-2.564C59.324,144.873,59.73,143.615,60.227,142.406"/>
		<path fill="#668A8F" d="M62.334,160.24c0.242-0.881,0.784-1.211,1.628-0.986l0.938,0.262l4.723,1.277l1.888,0.502
			c0.834,0.223,1.133,0.783,0.892,1.664l-2.838,10.481l-0.25,0.946c-0.243,0.883-0.775,1.211-1.607,0.988l-1.113-0.299l-5.702-1.539
			l-0.735-0.201c-0.84-0.225-1.15-0.786-0.909-1.666L62.334,160.24z"/>
		<path fill="#E51711" d="M66.593,175.075l1.114,0.301c0.832,0.222,1.364-0.106,1.607-0.989l0.25-0.945l41.444,9.193l2.305-7.666
			l0.202,0.059c1.685,0.9,3.311,1.491,4.87,1.771l-2.266,7.549c1.89,0.957,3.582,2.273,5.101,3.947l31.319,34.199
			c3.282,3.57,2.974,5.052-0.948,4.459l-43.92-6.801c-0.167-0.01-0.341-0.029-0.516-0.039c-0.522-0.087-1.071-0.232-1.663-0.426
			c-1.442-0.474-3.078-1.249-4.918-2.322c-3.193-1.866-6.996-4.654-11.408-8.342l-26.271-20.139L66.593,175.075z M73.05,182.082
			c-4.161-0.918-4.259,0.232-0.28,3.454l21.061,16.858l8.274,6.775c0.25,0.201,0.504,0.396,0.756,0.579l0.067-0.23l5.748-19.087
			L73.05,182.082z M120.206,195.697c-1.802-1.885-3.862-3.338-6.195-4.345l-6.309,20.999c0.936,0.348,1.914,0.62,2.911,0.822
			l28.105,5.479c2.952,0.562,3.535-0.069,1.754-1.896L120.206,195.697z"/>
		<path fill="#E51711" d="M66.593,175.076l-3.697,13.809l-9.416,35.148c-0.214,0.794-0.657,1.383-1.327,1.772
			c-0.725,0.414-1.487,0.521-2.284,0.309c-0.804-0.213-1.384-0.679-1.761-1.394c-0.436-0.688-0.543-1.424-0.328-2.218l13.112-48.967
			L66.593,175.076z"/>
		<path fill="#110C0D" d="M119.759,161.915c3.359,0.087,5.236,0.136,5.643,0.154c1.635,0.095,2.857,0.289,3.66,0.571
			c0.918,0.329,1.578,0.87,1.974,1.615c0.396,0.756,0.591,1.859,0.591,3.31c0,2.671-1.085,4.917-3.243,6.737
			c-2.149,1.787-4.78,2.689-7.887,2.689c-0.688,0-1.393-0.068-2.11-0.193c-1.56-0.28-3.186-0.871-4.87-1.771
			c-0.066-0.028-0.127-0.068-0.184-0.098c-1.974-1.092-4.258-2.729-6.852-4.926c-0.755-0.637-1.811-1.248-3.156-1.828
			c-0.765-0.318-1.896-0.773-3.417-1.365c-1.248-0.531-2.156-1.082-2.74-1.643c-0.744-0.727-1.122-1.599-1.122-2.635
			c0-1.42,0.903-2.533,2.692-3.336h2.894c4.896,0.966,8.188,1.586,9.863,1.866C114.647,161.576,117.406,161.867,119.759,161.915"/>
		
			<path fill="none" stroke="#8F0911" stroke-width="2.145" stroke-linecap="round" stroke-linejoin="round" stroke-miterlimit="10" d="
			M62.896,188.885l-9.416,35.148c-0.214,0.793-0.657,1.383-1.327,1.771c-0.725,0.416-1.487,0.521-2.284,0.31
			c-0.804-0.213-1.384-0.679-1.761-1.394c-0.436-0.688-0.543-1.424-0.328-2.217l13.112-48.967"/>
		
			<path fill="none" stroke="#3D3938" stroke-width="2.145" stroke-linecap="round" stroke-linejoin="round" stroke-miterlimit="10" d="
			M70.127,143.451c-1.238-0.416-2.487-0.794-3.746-1.142c-0.398-0.106-0.727-0.012-0.986,0.3c-0.67,0.803-1.153,1.693-1.473,2.671
			c-0.262,0.803-0.367,1.626-0.317,2.468c0.01,0.136,0.047,0.262,0.125,0.377c0.551,0.842,1.285,1.508,2.187,1.993
			c1.549,0.833,2.952,1.857,4.2,3.077c0.493,0.463,0.698,1.025,0.628,1.685c-0.182,1.712-0.493,3.397-0.929,5.062
			c-0.076,0.29-0.146,0.57-0.192,0.852"/>
		
			<path fill="none" stroke="#3D3938" stroke-width="2.145" stroke-linecap="round" stroke-linejoin="round" stroke-miterlimit="10" d="
			M60.892,173.537l-0.735-0.202c-0.841-0.224-1.15-0.784-0.909-1.665l3.087-11.431c0.243-0.879,0.784-1.21,1.628-0.986l0.938,0.263"
			/>
		
			<line fill="none" stroke="#3D3938" stroke-width="2.145" stroke-linecap="round" stroke-linejoin="round" stroke-miterlimit="10" x1="69.623" y1="160.793" x2="64.9" y2="159.516"/>
		
			<path fill="none" stroke="#3D3938" stroke-width="2.145" stroke-linecap="round" stroke-linejoin="round" stroke-miterlimit="10" d="
			M69.623,160.793l1.888,0.503c0.834,0.222,1.133,0.782,0.892,1.663l-2.838,10.481"/>
		
			<path fill="none" stroke="#3D3938" stroke-width="2.145" stroke-linecap="round" stroke-linejoin="round" stroke-miterlimit="10" d="
			M66.593,175.076l1.114,0.299c0.832,0.223,1.364-0.105,1.607-0.988l0.25-0.946"/>
		
			<path fill="none" stroke="#8F0911" stroke-width="2.145" stroke-linecap="round" stroke-linejoin="round" stroke-miterlimit="10" d="
			M72.77,185.537l21.061,16.857l9.098,7.124l5.748-19.087l-35.626-8.35C68.889,181.163,68.791,182.314,72.77,185.537z"/>
		
			<line fill="none" stroke="#8F0911" stroke-width="2.145" stroke-linecap="round" stroke-linejoin="round" stroke-miterlimit="10" x1="62.896" y1="188.885" x2="66.593" y2="175.076"/>
		
			<line fill="none" stroke="#3D3938" stroke-width="2.145" stroke-linecap="round" stroke-linejoin="round" stroke-miterlimit="10" x1="60.892" y1="173.537" x2="66.593" y2="175.076"/>
		
			<path fill="none" stroke="#8F0911" stroke-width="2.145" stroke-linecap="round" stroke-linejoin="round" stroke-miterlimit="10" d="
			M118.386,176.799l-2.265,7.547c1.889,0.959,3.581,2.275,5.1,3.948l31.319,34.2c3.282,3.57,2.975,5.052-0.948,4.46l-43.92-6.802
			c-0.166-0.01-0.341-0.028-0.516-0.039c-0.522-0.088-1.071-0.234-1.663-0.426c-1.441-0.473-3.078-1.248-4.918-2.324
			c-3.192-1.865-6.996-4.652-11.408-8.34l-26.271-20.139"/>
		
			<path fill="none" stroke="#3D3938" stroke-width="2.145" stroke-linecap="round" stroke-linejoin="round" stroke-miterlimit="10" d="
			M113.332,174.93c-1.974-1.092-4.259-2.729-6.852-4.926c-0.755-0.637-1.811-1.248-3.156-1.829
			c-0.765-0.317-1.896-0.772-3.417-1.364c-1.248-0.531-2.156-1.082-2.74-1.644c-0.744-0.726-1.122-1.598-1.122-2.633
			c0-1.421,0.903-2.534,2.692-3.337h2.894c4.896,0.966,8.188,1.585,9.863,1.867c3.153,0.512,5.912,0.803,8.265,0.851
			c3.359,0.087,5.235,0.136,5.643,0.154c1.635,0.095,2.856,0.289,3.66,0.571c0.918,0.329,1.577,0.871,1.974,1.615
			c0.396,0.756,0.591,1.859,0.591,3.31c0,2.671-1.086,4.918-3.243,6.737c-2.149,1.787-4.78,2.689-7.887,2.689
			c-0.688,0-1.393-0.068-2.11-0.193"/>
		
			<path fill="none" stroke="#8F0911" stroke-width="2.145" stroke-linecap="round" stroke-linejoin="round" stroke-miterlimit="10" d="
			M113.332,174.93c0.057,0.029,0.117,0.069,0.184,0.098"/>
		
			<path fill="none" stroke="#8F0911" stroke-width="2.145" stroke-linecap="round" stroke-linejoin="round" stroke-miterlimit="10" d="
			M118.386,176.799c-1.56-0.28-3.186-0.871-4.87-1.771"/>
		
			<line fill="none" stroke="#8F0911" stroke-width="2.145" stroke-linecap="round" stroke-linejoin="round" stroke-miterlimit="10" x1="113.516" y1="175.027" x2="113.313" y2="174.97"/>
		
			<line fill="none" stroke="#8F0911" stroke-width="2.145" stroke-linecap="round" stroke-linejoin="round" stroke-miterlimit="10" x1="113.313" y1="174.969" x2="113.332" y2="174.93"/>
		
			<path fill="none" stroke="#8F0911" stroke-width="2.145" stroke-linecap="round" stroke-linejoin="round" stroke-miterlimit="10" d="
			M114.011,191.354l-6.309,20.998c0.936,0.348,1.914,0.621,2.911,0.823l28.105,5.478c2.952,0.562,3.535-0.069,1.754-1.896
			l-20.267-21.059C118.404,193.811,116.344,192.358,114.011,191.354z"/>
		
			<polyline fill="none" stroke="#8F0911" stroke-width="2.145" stroke-linecap="round" stroke-linejoin="round" stroke-miterlimit="10" points="
			69.564,173.44 111.01,182.635 113.313,174.969 		"/>
		
			<path fill="none" stroke="#3D3938" stroke-width="2.145" stroke-linecap="round" stroke-linejoin="round" stroke-miterlimit="10" d="
			M64.9,159.516c0.065-0.292,0.135-0.591,0.201-0.9c0.205-0.9,0.302-1.578,0.302-2.023c0-0.648-0.359-1.305-1.073-1.975
			c-0.389-0.367-1.181-0.959-2.373-1.76c-1.112-0.767-1.906-1.395-2.361-1.868c-0.716-0.746-1.074-1.491-1.074-2.255
			c0-0.514,0.156-1.373,0.465-2.564c0.338-1.296,0.744-2.555,1.24-3.764c1.324-3.263,2.631-4.896,3.92-4.896
			c0.222,0,2.7,0.483,7.412,1.45"/>
		<path fill="#E51711" d="M74.414,135.119l0.735,0.241c0.396,0.126,0.688,0.378,0.882,0.765c0.201,0.396,0.242,0.793,0.117,1.18
			l-0.494,1.551l13.849,4.432c0.986,0.309,1.325,0.959,1.006,1.945l-1.268,3.967c-0.316,0.986-0.966,1.325-1.956,1.015l-13.85-4.431
			l-0.263,0.812c-0.123,0.397-0.386,0.688-0.771,0.882c-0.389,0.203-0.776,0.241-1.173,0.117l-0.735-0.242
			c-0.396-0.127-0.688-0.379-0.891-0.776c-0.203-0.378-0.232-0.764-0.105-1.159l2.969-9.291c0.127-0.387,0.378-0.687,0.766-0.9
			C73.629,135.033,74.02,134.992,74.414,135.119"/>
		
			<path fill="none" stroke="#8F0911" stroke-width="2.145" stroke-linecap="round" stroke-linejoin="round" stroke-miterlimit="10" d="
			M74.414,135.119c-0.395-0.127-0.785-0.086-1.182,0.105c-0.388,0.214-0.639,0.514-0.766,0.9l-2.969,9.291
			c-0.127,0.396-0.098,0.781,0.105,1.159c0.203,0.397,0.494,0.649,0.891,0.776l0.735,0.242c0.396,0.124,0.784,0.086,1.173-0.117
			c0.385-0.193,0.647-0.484,0.771-0.882l0.263-0.812l13.85,4.431c0.99,0.311,1.64-0.028,1.956-1.015l1.268-3.967
			c0.319-0.986-0.02-1.637-1.006-1.945l-13.849-4.432l0.494-1.551c0.125-0.387,0.084-0.783-0.117-1.18
			c-0.194-0.387-0.485-0.639-0.882-0.765L74.414,135.119z"/>
		<path fill="#9DAFA5" d="M114.572,205.85c0.291,0.057,0.57,0.127,0.852,0.213c2.012,0.58,3.812,1.664,5.409,3.252
			c2.508,2.516,3.766,5.554,3.766,9.115c0,3.569-1.258,6.607-3.766,9.116c-1.966,1.964-4.24,3.154-6.834,3.591
			c-0.734,0.123-1.498,0.183-2.281,0.183c-3.574,0-6.611-1.257-9.119-3.773c-2.517-2.509-3.775-5.547-3.775-9.107
			c0-3.57,1.259-6.608,3.775-9.124c2.508-2.509,5.545-3.764,9.119-3.764C112.713,205.551,113.661,205.646,114.572,205.85"/>
		
			<path fill="none" stroke="#4A4646" stroke-width="1.5483" stroke-linecap="round" stroke-linejoin="round" stroke-miterlimit="10" d="
			M115.425,206.062c2.012,0.58,3.812,1.664,5.408,3.252c2.508,2.516,3.766,5.554,3.766,9.115c0,3.569-1.258,6.607-3.766,9.116
			c-1.965,1.964-4.24,3.154-6.834,3.591c-0.734,0.123-1.498,0.183-2.281,0.183c-3.574,0-6.611-1.257-9.119-3.773
			c-2.517-2.509-3.775-5.547-3.775-9.107c0-3.57,1.259-6.608,3.775-9.124c2.508-2.509,5.545-3.764,9.119-3.764
			c0.995,0,1.943,0.096,2.855,0.299C114.863,205.906,115.143,205.976,115.425,206.062z"/>
		
			<path fill="none" stroke="#C8DED5" stroke-width="2.3225" stroke-linecap="round" stroke-linejoin="round" stroke-miterlimit="10" d="
			M102.125,215.596c0.474-1.615,1.324-3.029,2.575-4.26c1.888-1.848,4.218-2.808,7.018-2.865"/>
		<path fill="#9DAFA5" d="M113.01,219.113c0.066,0.61-0.078,1.172-0.438,1.695l-10.375,15.027l-3.609-2.826l10.222-14.806
			c0.359-0.522,0.858-0.842,1.492-0.959c0.569-0.106,1.111,0.029,1.645,0.397l0.057,0.039
			C112.527,218.041,112.865,218.523,113.01,219.113"/>
		
			<path fill="none" stroke="#4A4646" stroke-width="1.5483" stroke-linecap="round" stroke-linejoin="round" stroke-miterlimit="10" d="
			M102.197,235.836l10.375-15.027c0.359-0.523,0.504-1.085,0.438-1.695c-0.145-0.59-0.482-1.072-1.008-1.434l-0.056-0.037
			c-0.533-0.367-1.075-0.504-1.645-0.398c-0.634,0.119-1.133,0.436-1.492,0.959l-10.222,14.806"/>
		<path fill="#3D3938" d="M90.537,232.323l1.896-2.421c0.56-0.715,1.316-0.696,2.264,0.049l12.188,9.551
			c0.947,0.746,1.139,1.482,0.579,2.197l-1.897,2.42c-0.57,0.716-1.327,0.695-2.274-0.048l-12.186-9.551
			C90.161,233.774,89.965,233.037,90.537,232.323"/>
		
			<path fill="none" stroke="#574A4D" stroke-width="1.5483" stroke-linecap="round" stroke-linejoin="round" stroke-miterlimit="10" d="
			M90.537,232.323c-0.572,0.714-0.376,1.451,0.569,2.197l12.186,9.551c0.947,0.743,1.704,0.764,2.274,0.048l1.897-2.42
			c0.56-0.715,0.368-1.451-0.579-2.197l-12.188-9.551c-0.947-0.745-1.704-0.764-2.264-0.049L90.537,232.323z"/>
		<path fill="#E2AA00" d="M35.952,168.5c-0.077-0.447-0.126-0.861-0.146-1.258h7.415l0.551,6.647h-6.843L35.952,168.5z"/>
		<path fill="#E2AA00" d="M33.851,162.101c0-0.918,0.455-1.374,1.374-1.374h28.38c0.918,0,1.373,0.456,1.373,1.374v3.775
			c0,0.909-0.455,1.365-1.373,1.365h-0.069h-7.857H43.22h-7.414h-0.581c-0.919,0-1.374-0.456-1.374-1.365V162.101z"/>
		<path fill="#E2AA00" d="M36.929,173.89h6.843l0.582,7.072h-5.836h5.836l0.523,6.474h-1.906c-2.373-0.008-3.75-0.994-4.126-2.961
			L36.929,173.89z"/>
		<polygon fill="#E2AA00" points="43.771,173.89 43.221,167.241 55.678,167.241 54.964,173.89 		"/>
		<path fill="#E2AA00" d="M63.535,167.241c-0.019,0.397-0.076,0.812-0.164,1.258l-2.4,12.463h-6.773l0.767-7.072h7.207h-7.207
			l0.714-6.648H63.535z"/>
		<path fill="#E2AA00" d="M54.197,180.963l-0.668,6.222L54.197,180.963h6.773l-0.666,3.512c-0.37,1.966-1.754,2.953-4.145,2.961
			H44.877l-0.523-6.473H54.197z"/>
		<polygon fill="#E2AA00" points="44.354,180.963 43.771,173.891 54.964,173.891 54.197,180.963 		"/>
		
			<path fill="none" stroke="#8B5412" stroke-width="2.145" stroke-linecap="round" stroke-linejoin="round" stroke-miterlimit="10" d="
			M43.22,167.241h12.458 M63.535,167.241h0.069c0.918,0,1.373-0.456,1.373-1.365v-3.775c0-0.917-0.455-1.373-1.373-1.373h-28.38
			c-0.919,0-1.374,0.456-1.374,1.373v3.775c0,0.909,0.455,1.365,1.374,1.365h0.581 M36.929,173.89h6.843 M43.771,173.89
			l-0.552-6.648 M35.806,167.241h7.414 M60.971,180.962l2.401-12.463c0.087-0.446,0.145-0.86,0.163-1.258 M54.963,173.89
			l0.715-6.648 M62.171,173.89h-7.208 M55.678,167.241h7.857 M53.529,187.185l0.668-6.223 M44.877,187.436H56.16
			c2.391-0.008,3.774-0.994,4.144-2.961l0.667-3.513 M54.197,180.962h6.773 M36.929,173.89l1.916,10.585
			c0.376,1.967,1.753,2.953,4.126,2.961h1.906 M44.354,180.962l0.523,6.474 M44.354,180.962h-5.836 M43.771,173.89l0.582,7.072
			 M54.197,180.962h-9.844 M43.771,173.89h11.191 M54.963,173.89l-0.766,7.072 M35.806,167.241c0.021,0.397,0.069,0.812,0.146,1.258
			l0.977,5.391"/>
		<path fill="#FCDF00" d="M114.729,98.846c-1.73-0.082-2.772-0.117-3.135-0.1c-1.316,0.055-2.497,0.322-3.526,0.795
			c-1.367,0.629-2.421,1.355-3.163,2.18c-0.71,0.783-1.207,1.744-1.489,2.876c-0.248,0.993-0.366,2.282-0.35,3.872
			c0.006,0.926,0.085,2.649,0.247,5.164c0.273,4.264-0.118,8.462-1.18,12.598c-0.83,3.227-2.136,6.635-3.93,10.229
			c-0.625,1.24-1.405,2.703-2.343,4.389c-1.022,1.809-1.763,3.141-2.227,3.986c-1.618,2.951-2.64,5.3-3.063,7.049
			c-0.549,2.24-0.457,4.529,0.269,6.854c0.714,2.268,1.97,4.367,3.761,6.287c1.826,1.959,4.038,3.548,6.646,4.765
			c2.753,1.292,5.731,2.063,8.922,2.31c3.289,0.248,5.218,0.372,5.775,0.368c1.943-0.001,4.063-0.298,6.365-0.873
			c4.006-1.002,7.479-2.994,10.425-5.977c2.979-2.999,4.849-6.517,5.593-10.545v-0.017c0.291-2.363,0.445-4.732,0.477-7.111
			c0.047-3.836-0.284-7.86-1.001-12.071c-0.58-3.416-1.504-7.431-2.76-12.056c-0.221-0.803-0.643-2.375-1.277-4.717
			c-0.651-2.277-1.317-4.316-2.004-6.123c-1.994-5.23-4.332-9.057-7.008-11.48c-0.897-0.807-2.491-1.465-4.787-1.96
			C118.258,99.158,116.509,98.928,114.729,98.846"/>
		<path fill="none" stroke="#F1B700" stroke-width="1.3117" stroke-miterlimit="10" d="M111.594,98.746
			c-1.316,0.055-2.497,0.322-3.526,0.795c-1.368,0.63-2.421,1.356-3.163,2.18c-0.71,0.783-1.207,1.744-1.489,2.877
			c-0.248,0.992-0.366,2.281-0.35,3.871c0.006,0.926,0.085,2.649,0.247,5.164c0.273,4.264-0.118,8.461-1.181,12.599
			c-0.829,3.226-2.135,6.634-3.929,10.227c-0.625,1.241-1.405,2.704-2.343,4.39c-1.022,1.809-1.763,3.141-2.226,3.986
			c-1.619,2.951-2.641,5.3-3.065,7.049c-0.548,2.24-0.456,4.528,0.27,6.854c0.714,2.268,1.97,4.367,3.761,6.286
			c1.826,1.959,4.038,3.548,6.646,4.765c2.752,1.293,5.73,2.064,8.921,2.312c3.289,0.246,5.218,0.369,5.774,0.366
			c1.944-0.001,4.064-0.298,6.366-0.873c4.006-1.003,7.478-2.993,10.425-5.977c2.98-2.999,4.849-6.517,5.593-10.546v-0.016
			c0.291-2.363,0.445-4.732,0.477-7.111c0.047-3.837-0.284-7.861-1.001-12.071c-0.58-3.416-1.504-7.431-2.761-12.057
			c-0.22-0.803-0.642-2.374-1.276-4.717c-0.651-2.276-1.317-4.314-2.004-6.123c-1.994-5.229-4.332-9.055-7.008-11.478
			c-0.897-0.809-2.491-1.465-4.788-1.962c-1.706-0.378-3.455-0.608-5.235-0.69C112.998,98.764,111.956,98.729,111.594,98.746z"/>
		<path fill="#E41F25" d="M114.918,233.958c-0.139-0.157-0.263-0.289-0.369-0.38l-0.06-0.016l-0.033,0.04
			c-0.129,0.734-0.304,1.748-0.512,3.04c-0.203,1.113-0.482,2.192-0.822,3.221c-0.188,0.602-0.452,1.177-0.791,1.713
			c-0.173,0.281-0.353,0.577-0.559,0.89c-11.358-4.967-19.447-10.304-24.282-16.028c-1.917-2.289-3.122-4.458-3.606-6.49
			c-0.405-1.746-0.215-3.193,0.567-4.348c0.772-1.097,1.993-1.755,3.657-1.962c1.854-0.222,3.952,0.148,6.293,1.104
			c5.329,2.183,10.444,6.604,15.346,13.261l0.634,0.849l0.024,0.032c0.009,0.008,0.009,0.025,0.014,0.041
			c0,0.008,0,0.016,0.011,0.026c0.031,0.04,0.066,0.09,0.108,0.146c0.006,0.01,0.013,0.019,0.031,0.041
			c0.034,0.033,0.172,0.157,0.411,0.371c0.041-0.172,0.052-0.459,0.025-0.865c-0.031-0.484-0.115-0.866-0.254-1.135
			c-0.24-0.487-0.452-0.899-0.652-1.229c-4.852-6.367-9.925-10.617-15.204-12.75c-2.57-1.063-4.885-1.459-6.952-1.194
			c-2.083,0.255-3.606,1.087-4.571,2.512h-0.008c-1.012,1.425-1.27,3.222-0.768,5.401h0.01c0.511,2.219,1.805,4.559,3.87,7.035h0.01
			c4.651,5.545,12.296,10.732,22.93,15.568l2.705,1.152c0.344-0.164,0.706-0.502,1.091-1.012c0.412-0.553,0.732-1.152,0.958-1.795
			l0.008-0.01c0.436-1.276,0.791-2.497,1.061-3.656c0.323-1.376,0.415-2.249,0.274-2.611
			C115.388,234.599,115.189,234.279,114.918,233.958"/>
		<path fill="#E76500" d="M111.772,242.465c0.206-0.312,0.386-0.608,0.559-0.889c0.339-0.537,0.604-1.11,0.791-1.713
			c0.34-1.028,0.619-2.107,0.822-3.22c0.208-1.294,0.384-2.307,0.512-3.04l0.033-0.041l-2.981-3.607
			c-0.204-0.174-0.386-0.321-0.527-0.445c-0.239-0.215-0.377-0.338-0.411-0.371c-0.018-0.022-0.025-0.03-0.031-0.041
			c-0.042-0.057-0.077-0.107-0.108-0.146c-0.011-0.01-0.011-0.019-0.011-0.025c-0.014-0.026-0.029-0.051-0.038-0.073l-0.634-0.85
			c-4.901-6.656-10.017-11.078-15.346-13.262c-2.341-0.955-4.438-1.325-6.293-1.104c-1.664,0.209-2.885,0.867-3.657,1.963
			c-0.782,1.154-0.972,2.602-0.567,4.348c0.484,2.032,1.689,4.2,3.606,6.489C92.325,232.161,100.414,237.5,111.772,242.465"/>
		<path fill="#E41F25" d="M89.033,218.877c-1.33,0.267-2.349,0.98-3.061,2.132c-0.719,1.159-0.893,2.376-0.523,3.665
			c0.411,1.45,1.441,2.641,3.086,3.582l-0.043-0.1c-1.182-0.996-1.864-2.115-2.031-3.362c-0.146-1.102,0.121-2.136,0.81-3.103
			c0.659-0.938,1.554-1.582,2.689-1.949c1.193-0.383,2.403-0.341,3.63,0.131C92.034,218.898,90.511,218.562,89.033,218.877"/>
		<path fill="#E76500" d="M117.547,170.122c0.066-0.006,0.104-0.022,0.113-0.046l-0.031-0.068c0-0.008,0.016-0.025,0.058-0.049
			c0.017-0.008,0.023-0.1,0.023-0.264c-1.045-1.094-2.083-2.083-3.129-2.957c-1.803-1.5-2.834-1.959-3.073-1.39l-0.047-0.044
			c-3.158,5.033-5.495,12.775-7.004,23.212c-0.041,0.32-0.089,0.642-0.131,0.964l7.67,0.525c0.303-2.43,0.684-4.759,1.135-6.984
			c1.105-5.402,2.563-9.678,4.374-12.815l-0.121-0.072C117.447,170.134,117.505,170.134,117.547,170.122"/>
		<path fill="#E17C9E" d="M113.649,192.272c0.025-0.479-0.074-0.915-0.312-1.316c-0.256-0.446-0.616-0.761-1.096-0.933l-0.245-0.018
			l-7.67-0.525l-0.775-0.057c-0.73-0.042-1.351,0.139-1.868,0.533c-0.486,0.354-0.767,0.816-0.856,1.375
			c-0.09,0.57,0.057,1.072,0.445,1.509c0.429,0.485,1.087,0.79,1.984,0.913l0.545,0.042l7.743,0.544l0.392,0.024
			c0.521-0.125,0.932-0.386,1.235-0.799C113.462,193.195,113.624,192.768,113.649,192.272"/>
		<path fill="#E17C9E" d="M113.643,224.904c0.296-0.377,0.461-0.797,0.495-1.259c0.04-0.503-0.077-0.964-0.364-1.386l-1.756-1.406
			l-5.024-4.053c-0.583-0.453-1.192-0.658-1.836-0.635c-0.533,0.024-0.987,0.199-1.356,0.536c-0.043,0.041-0.083,0.073-0.126,0.116
			c-0.396,0.403-0.559,0.896-0.494,1.473c0.067,0.635,0.421,1.261,1.063,1.863c0.008,0.008,0.017,0.018,0.024,0.023l6.778,5.461
			c0.503,0.197,0.99,0.213,1.476,0.041c0.063-0.015,0.131-0.041,0.198-0.066C113.075,225.475,113.388,225.243,113.643,224.904"/>
		<path fill="#E76500" d="M114.227,232.666c0.058,0.229,0.125,0.459,0.191,0.683c0.038-0.015,0.063-0.032,0.089-0.058
			c0.024-0.041,0.049-0.175,0.074-0.396C114.456,232.821,114.342,232.739,114.227,232.666"/>
		<path fill="#E76500" d="M114.418,233.349c-0.066-0.223-0.134-0.454-0.191-0.683c-0.585-2.2-1.087-4.549-1.506-7.053
			c-0.067,0.025-0.135,0.052-0.198,0.066c-0.485,0.172-0.973,0.156-1.476-0.041l-6.778-5.461c-0.008-0.006-0.018-0.016-0.024-0.023
			c0.106,0.65,0.229,1.269,0.362,1.836c0.032,0.14,0.065,0.281,0.107,0.42c-0.24-0.139-0.463-0.24-0.675-0.306v0.372
			c1.308,1.744,3.293,4.035,5.937,6.868c2.521,2.694,3.89,4.044,4.111,4.044C114.227,233.389,114.342,233.373,114.418,233.349"/>
		<path fill="#E76500" d="M111.544,194.34l-7.743-0.544c-0.215,2.052-0.381,4.101-0.496,6.154c-0.049,0.905-0.089,1.745-0.115,2.521
			l7.907,1.3c0.016-1.179,0.052-2.365,0.092-3.55C111.262,198.203,111.385,196.244,111.544,194.34"/>
		<path fill="#E17C9E" d="M112.778,204.891c-0.214-0.453-0.552-0.79-1.006-1.016l-0.676-0.104l-7.905-1.301h-0.011
			c-0.724-0.109-1.365,0.008-1.919,0.354c-0.504,0.32-0.831,0.758-0.974,1.292c-0.136,0.553-0.032,1.062,0.309,1.532
			c0.379,0.535,1.005,0.898,1.884,1.104l0.711,0.115l7.881,1.293c0.018,0,0.033,0,0.05-0.008c0.503-0.074,0.922-0.305,1.251-0.674
			c0.322-0.34,0.52-0.751,0.593-1.238C113.039,205.763,112.976,205.311,112.778,204.891"/>
		<path fill="#E76500" d="M103.19,206.868c0.007,0.115,0.007,0.23,0.015,0.339c0.124,1.704,0.272,4.232,0.437,7.582
			c0.042,0.67,0.101,1.303,0.159,1.914c0.369-0.338,0.823-0.512,1.356-0.537c0.644-0.023,1.253,0.181,1.837,0.635l5.023,4.053
			c-0.09-0.741-0.179-1.492-0.255-2.258c-0.353-3.441-0.569-6.926-0.641-10.443c-0.017,0.01-0.032,0.01-0.05,0.01L103.19,206.868z"
			/>
		
			<path fill="none" stroke="#E41F25" stroke-width="1.3178" stroke-linecap="round" stroke-linejoin="round" stroke-miterlimit="10" d="
			M117.547,170.122c-0.017,0.026-0.033,0.058-0.041,0.083c-1.812,3.139-3.27,7.414-4.375,12.816
			c-0.451,2.226-0.832,4.555-1.134,6.984l0.244,0.018c0.48,0.173,0.84,0.486,1.096,0.933c0.238,0.401,0.338,0.837,0.312,1.315
			c-0.025,0.496-0.188,0.924-0.479,1.294c-0.304,0.412-0.714,0.674-1.235,0.799l-0.392-0.024c-0.159,1.903-0.282,3.863-0.355,5.88
			c-0.04,1.186-0.076,2.373-0.092,3.552l0.676,0.104c0.454,0.226,0.792,0.562,1.006,1.016c0.197,0.42,0.261,0.873,0.188,1.35
			c-0.073,0.487-0.271,0.898-0.593,1.238c-0.329,0.369-0.748,0.6-1.251,0.674 M114.909,235.053c-0.172-0.551-0.337-1.12-0.491-1.704
			c-0.065-0.223-0.134-0.454-0.191-0.683c-0.584-2.2-1.087-4.549-1.505-7.053c0.354-0.139,0.666-0.37,0.921-0.709
			c0.296-0.377,0.461-0.797,0.495-1.259c0.04-0.503-0.076-0.964-0.364-1.386l-1.756-1.406c-0.09-0.742-0.179-1.492-0.255-2.257
			c-0.353-3.442-0.569-6.927-0.641-10.444 M111.461,165.305c-3.158,5.033-5.495,12.775-7.003,23.212
			c-0.042,0.32-0.09,0.642-0.132,0.964l-0.774-0.058c-0.731-0.042-1.352,0.14-1.869,0.533c-0.486,0.355-0.767,0.817-0.856,1.377
			c-0.09,0.569,0.057,1.071,0.445,1.508c0.43,0.485,1.087,0.79,1.984,0.913l0.545,0.042c-0.214,2.052-0.381,4.102-0.496,6.154
			c-0.049,0.905-0.089,1.745-0.114,2.521h-0.01c-0.724-0.109-1.364,0.008-1.919,0.354c-0.503,0.32-0.831,0.756-0.973,1.293
			c-0.137,0.552-0.032,1.061,0.308,1.53c0.379,0.536,1.005,0.899,1.884,1.104l0.71,0.116c0.007,0.115,0.007,0.229,0.015,0.338
			c0.124,1.705,0.273,4.233,0.437,7.583c0.042,0.67,0.101,1.303,0.159,1.913c-0.043,0.041-0.083,0.073-0.126,0.116
			c-0.396,0.403-0.559,0.896-0.494,1.473c0.067,0.635,0.421,1.261,1.063,1.863c0.008,0.008,0.017,0.018,0.024,0.023
			 M111.072,208.161c0.019,0,0.033,0,0.05-0.009"/>
		<path fill="#F0E8CD" d="M81.014,67.875c0.011-4.508,0.391-8.849,1.121-13.019c1.063-2.532,3.152-5.337,6.262-8.406
			c2.402-2.372,5.384-4.337,8.927-5.884c1.022-0.453,2.107-0.869,3.259-1.238c0.561-0.191,1.112-0.365,1.659-0.523
			c0.725-0.203,1.452-0.382,2.186-0.545c3.61-0.657,7.393-0.581,11.335,0.244c0.314,0.062,0.644,0.143,0.991,0.242
			c3.558,0.888,6.987,2.471,10.282,4.742c3.587,2.463,6.72,5.526,9.372,9.178c1.877,2.591,3.388,5.212,4.533,7.866
			c0.994,2.511,0.607,4.419-1.148,5.729c-0.422,0.275-0.873,0.539-1.34,0.775c-1.162,0.551-2.449,0.92-3.873,1.113
			c-2.97,0.426-5.932,0.447-8.882,0.069c-0.463-0.058-0.933-0.139-1.409-0.238c-0.396-0.052-0.802-0.13-1.194-0.231
			c-3.233-0.675-6.489-1.238-9.769-1.689c-3.791-0.52-7.818-0.579-12.084-0.181c-4.266,0.423-7.993,1.302-11.175,2.636
			c-3.169,1.344-6.186,3.002-9.061,4.965C81.011,71.924,81.019,70.055,81.014,67.875"/>
		<path fill="#CD0E19" d="M96.665,39.669l-0.016-0.035c-0.153-0.493-0.127-0.983,0.079-1.468c0.256-0.483,0.63-0.81,1.108-0.965
			l4.135-1.465c0.512-0.169,0.992-0.144,1.461,0.094c0.481,0.247,0.807,0.623,0.977,1.125l-0.003,0.042
			c0.175,0.446,0.179,0.864,0.021,1.262c-0.733,0.163-1.461,0.342-2.186,0.546c-0.547,0.158-1.099,0.333-1.659,0.523
			c-1.151,0.369-2.236,0.785-3.259,1.238C97.019,40.357,96.793,40.062,96.665,39.669"/>
		<path fill="#CD0E19" d="M113.324,66.061c3.28,0.451,6.536,1.014,9.769,1.689c0.394,0.103,0.799,0.179,1.195,0.23l1.299,0.535
			l0.018-0.008c-0.244,0.68-0.528,1.357-0.863,2.014c-0.455,0.895-0.991,1.758-1.613,2.601c-1.428,1.965-3.226,3.692-5.405,5.188
			c-1.852,1.28-3.757,2.261-5.721,2.935c-3.117,1.069-6.504,1.596-10.168,1.567c-2.209-0.03-4.993-0.308-8.338-0.837
			c-0.39-0.067-0.772-0.135-1.144-0.219c-4.495-0.74-7.409-1.164-8.735-1.282c-3.073-0.239-5.664,0.005-7.79,0.726l-0.917-0.836
			l6.004-6.604l0.088-0.197c0.009-0.023,0.012-0.057,0.004-0.082c2.875-1.963,5.892-3.621,9.061-4.965
			c3.182-1.334,6.909-2.213,11.175-2.637C105.507,65.48,109.534,65.541,113.324,66.061"/>
		<path fill="#804395" d="M74.91,80.364l0.917,0.835c-0.613,0.219-1.189,0.473-1.739,0.764l-0.197-0.457L74.91,80.364z"/>
		
			<path fill="none" stroke="#CD0E19" stroke-width="0.6541" stroke-linecap="round" stroke-linejoin="round" stroke-miterlimit="10" d="
			M123.472,67.342c-0.972-4.607-2.089-8.668-3.351-12.184c-1.021-2.873-2.085-5.234-3.194-7.083
			c-1.222-2.077-2.638-3.749-4.238-5.017c-2.342-1.893-5.508-3.18-9.495-3.854"/>
		
			<path fill="none" stroke="#4A4646" stroke-width="1.3082" stroke-linecap="round" stroke-linejoin="round" stroke-miterlimit="10" d="
			M125.724,68.222c2.94,0.378,5.9,0.355,8.88-0.068c1.414-0.188,2.694-0.565,3.849-1.124c0.467-0.239,0.918-0.493,1.355-0.773
			c1.758-1.312,2.153-3.219,1.174-5.737c-1.119-2.651-2.727-5.519-4.816-8.599c-2.087-3.088-4.413-5.717-6.963-7.895
			c-2.546-2.188-5.199-3.725-7.949-4.598c-2.749-0.873-5.3-1.469-7.654-1.779c-2.346-0.322-5.318-0.143-8.929,0.53 M125.724,68.222
			c-0.022,0.079-0.055,0.177-0.086,0.28c-0.252,0.688-0.547,1.365-0.89,2.028c-0.446,0.886-0.988,1.751-1.63,2.591
			c-1.424,1.973-3.226,3.709-5.413,5.202c-1.849,1.272-3.755,2.246-5.713,2.936c-3.116,1.071-6.503,1.596-10.149,1.562
			c-2.218-0.031-4.995-0.307-8.342-0.845c-0.38-0.075-0.758-0.151-1.138-0.218c-4.475-0.748-7.377-1.181-8.705-1.299
			c-3.057-0.238-5.646-0.001-7.77,0.721c-0.614,0.219-1.198,0.473-1.743,0.771c-0.561,0.303-1.088,0.661-1.566,1.069 M71.451,84.023
			c0.188-0.256,0.389-0.514,0.612-0.768c0.564-0.616,1.198-1.205,1.885-1.762 M72.579,83.021c-0.396,0.293-0.774,0.627-1.128,1.003
			 M71.451,84.023c-0.531,0.692-0.932,1.378-1.184,2.057 M72.579,83.021l1.369-1.526 M73.948,81.494l7.058-7.768 M104.67,38.179
			c0.167-0.405,0.172-0.833,0.016-1.276c-0.177-0.529-0.503-0.914-0.985-1.152c-0.46-0.252-0.94-0.286-1.435-0.115l-4.144,1.455
			c-0.493,0.162-0.869,0.488-1.124,0.979c-0.207,0.486-0.233,0.983-0.065,1.496c0.14,0.394,0.355,0.696,0.643,0.913 M104.67,38.179
			c-0.726,0.155-1.45,0.333-2.169,0.538c-0.551,0.148-1.115,0.323-1.675,0.52c-1.143,0.381-2.229,0.797-3.251,1.241 M97.575,40.478
			c-3.542,1.556-6.524,3.519-8.937,5.892c-3.127,3.085-5.221,5.888-6.283,8.421c-0.776,4.183-1.173,8.531-1.2,13.047
			c-0.019,2.186-0.038,4.052-0.057,5.607c2.883-1.97,5.909-3.617,9.076-4.962c3.185-1.336,6.898-2.206,11.147-2.622
			c4.269-0.414,8.299-0.354,12.088,0.173c3.271,0.449,6.509,1.029,9.715,1.72c0.403,0.103,0.801,0.179,1.188,0.238
			c0.476,0.083,0.948,0.157,1.41,0.23"/>
		<path fill="#CD0E19" d="M85.358,57.646l0.895-2.355l5.696-1.045l0.999,3.078l-0.652,0.119l1.716,5.275l0.649-0.119l1.025,3.145
			l-5.604,1.026l-2.354-1.836l-1.068-3.279l0.219-0.632l-0.581-0.491L85.358,57.646z M91.162,56.585l0.639-0.12l-0.351-1.072
			l-4.35,0.802l-0.78,1.789l0.694,2.14l1.04,0.786l-0.439,1.052l0.769,2.363l1.798,1.363l4.35-0.802l-0.362-1.132l-0.64,0.118
			L91.162,56.585z"/>
		<path fill="#E50212" d="M91.8,56.466l-0.638,0.12l2.367,7.287l0.64-0.119l0.362,1.133l-4.35,0.801l-1.798-1.363l-0.769-2.363
			l0.439-1.052l-1.04-0.786l-0.694-2.139l0.78-1.79l4.35-0.802L91.8,56.466z M90.018,56.793l-2.169,0.413l-0.344,0.688l0.609,1.862
			l0.727,0.501l2.173-0.396L90.018,56.793z M89.463,63.916l0.746,0.568l2.173-0.404l-1.063-3.279l-2.163,0.438l-0.314,0.773
			L89.463,63.916z"/>
		<path fill="#CD0E19" d="M87.849,57.205l2.169-0.412l0.996,3.068l-2.173,0.396l-0.727-0.501l-0.608-1.862L87.849,57.205z
			 M89.879,59.012l-0.353-1.065l-1.087,0.202l0.351,1.066L89.879,59.012z"/>
		<path fill="#CD0E19" d="M90.208,64.485l-0.745-0.569l-0.622-1.904l0.315-0.771l2.162-0.439l1.064,3.279L90.208,64.485z
			 M91.241,63.222l-0.413-1.268l-1.087,0.202l0.41,1.268L91.241,63.222z"/>
		<path fill="#CD0E19" d="M98.119,51.295l-0.647,0.133l1.762,5.427l0.662-0.118l1.051,3.246l-5.774,1.038l-2.419-1.882l-1.099-3.379
			l0.235-0.648l-0.621-0.502l-0.955-2.976l0.923-2.42l5.868-1.073L98.119,51.295z M96.289,50.535l0.666-0.119l-0.375-1.099
			l-4.459,0.819l-0.832,1.844l0.729,2.205l1.073,0.83l-0.443,1.075l0.772,2.413l1.868,1.428l4.477-0.827l-0.378-1.182l-0.657,0.135
			L96.289,50.535z"/>
		<path fill="#E50212" d="M96.955,50.417l-0.666,0.118l2.441,7.522l0.659-0.136l0.376,1.183l-4.477,0.827l-1.868-1.428l-0.772-2.413
			l0.443-1.074l-1.073-0.831l-0.729-2.207l0.832-1.843l4.459-0.818L96.955,50.417z M92.877,51.189l-0.362,0.703l0.635,1.93
			l0.745,0.502l2.241-0.398l-1.034-3.155L92.877,51.189z M94.224,55.348l-0.317,0.783l0.619,1.959l0.785,0.605l2.225-0.428
			l-1.075-3.377L94.224,55.348z"/>
		<path fill="#CD0E19" d="M92.515,51.894l0.362-0.704l2.225-0.418l1.034,3.154l-2.241,0.398l-0.745-0.502L92.515,51.894z
			 M93.479,52.166l0.351,1.09l1.137-0.207l-0.373-1.1L93.479,52.166z"/>
		<path fill="#CD0E19" d="M93.906,56.131l0.316-0.783l2.237-0.457l1.075,3.377l-2.225,0.428l-0.785-0.605L93.906,56.131z
			 M95.256,57.584l1.114-0.199l-0.427-1.31l-1.122,0.217L95.256,57.584z"/>
		<path fill="#F1B700" d="M74.25,52.768c2.496-4.523,5.852-8.442,10.068-11.779c4.199-3.319,8.921-5.777,14.17-7.385
			c5.43-1.661,11.029-2.295,16.813-1.891c5.781,0.404,11.23,1.81,16.359,4.209c4.975,2.323,9.316,5.412,13.012,9.286
			c3.711,3.892,6.489,8.239,8.323,13.065c1.919,5.018,2.698,10.187,2.324,15.512c-0.93,13.303-5.852,23.032-14.772,29.186
			c-7.804,5.479-18.036,7.779-30.71,6.894c-5.913-0.413-11.354-1.612-16.324-3.592l-0.005-0.001
			c-5.127-2.055-9.498-4.834-13.113-8.333c-7.933-7.644-11.469-17.693-10.599-30.13C70.17,62.481,71.651,57.471,74.25,52.768
			 M85.133,42.021c-4.068,3.215-7.319,7.012-9.731,11.384c-2.506,4.538-3.937,9.363-4.297,14.493
			c-0.84,12.016,2.553,21.71,10.19,29.104c3.509,3.385,7.741,6.065,12.708,8.061c4.848,1.928,10.161,3.093,15.926,3.497
			c12.324,0.86,22.282-1.36,29.872-6.657c8.579-5.957,13.315-15.361,14.217-28.208c0.357-5.131-0.392-10.108-2.241-14.95
			c-1.781-4.665-4.469-8.877-8.061-12.628c-3.582-3.759-7.779-6.765-12.606-9.011c-4.982-2.333-10.281-3.694-15.9-4.086
			c-5.619-0.395-11.064,0.217-16.338,1.831C93.783,36.405,89.203,38.797,85.133,42.021"/>
		<path fill="#FCDF00" d="M75.402,53.406c2.411-4.373,5.662-8.17,9.731-11.385c4.069-3.224,8.649-5.615,13.737-7.17
			c5.273-1.615,10.719-2.227,16.338-1.833s10.918,1.755,15.901,4.087c4.826,2.246,9.024,5.252,12.605,9.012
			c3.592,3.75,6.279,7.963,8.061,12.627c1.85,4.842,2.6,9.819,2.241,14.951c-0.901,12.846-5.639,22.251-14.219,28.207
			c-7.588,5.297-17.546,7.519-29.87,6.658c-5.765-0.405-11.077-1.57-15.926-3.5c-4.967-1.994-9.199-4.675-12.708-8.059
			c-7.638-7.395-11.03-17.089-10.19-29.104C71.465,62.77,72.896,57.943,75.402,53.406"/>
		<path fill="#E17C9E" d="M112.065,62.102c-1.846-1.953-3.897-3.354-6.166-4.224c-2.197-0.847-4.347-1.113-6.448-0.777
			c1.018-0.623,2.073-1.089,3.182-1.378c1.599-0.421,3.186-0.48,4.771-0.175c1.588,0.3,3.058,0.934,4.425,1.912
			c2.168,1.557,3.735,3.685,4.701,6.391c0.938,2.648,1.143,5.376,0.609,8.182c-0.337-1.796-0.929-3.536-1.768-5.222
			C114.504,65.073,113.402,63.502,112.065,62.102"/>
		<path fill="#0076BD" d="M105.899,57.878c2.269,0.87,4.32,2.271,6.166,4.224c1.337,1.4,2.438,2.972,3.306,4.709
			c0.84,1.686,1.431,3.426,1.768,5.222c-0.343,1.685-0.896,3.222-1.678,4.605l-0.649,1.05c0.089-2.183-0.288-4.358-1.115-6.533
			c-0.852-2.257-2.104-4.266-3.759-6.016c-2.225-2.354-4.729-3.844-7.52-4.465c-2.724-0.615-5.179-0.271-7.366,1.021
			c1.153-1.97,2.622-3.5,4.399-4.595C101.553,56.765,103.702,57.031,105.899,57.878"/>
		<path fill="#FFFFFF" d="M95.052,61.695c2.188-1.292,4.643-1.637,7.366-1.021c2.79,0.621,5.295,2.111,7.52,4.465
			c1.655,1.75,2.907,3.759,3.76,6.016c0.826,2.175,1.203,4.351,1.114,6.533c-0.889,1.303-1.933,2.39-3.142,3.277
			c-1.216,0.888-2.528,1.516-3.938,1.882c-1.595,0.421-3.186,0.481-4.757,0.177c-1.585-0.302-3.062-0.944-4.436-1.93
			c-2.827-2.029-4.595-4.914-5.307-8.656c-0.711-3.752-0.146-7.26,1.687-10.522L95.052,61.695z"/>
		<path fill="#E17C9E" d="M79.357,59.875c1.909-1.635,3.932-2.716,6.078-3.255c2.081-0.529,4.045-0.502,5.885,0.095
			c-0.832-0.733-1.719-1.318-2.673-1.742c-1.374-0.611-2.794-0.877-4.257-0.789c-1.462,0.08-2.862,0.498-4.214,1.26
			c-2.152,1.214-3.833,3.055-5.051,5.533c-1.188,2.424-1.729,5.019-1.617,7.788c0.536-1.685,1.296-3.282,2.27-4.793
			C76.781,62.416,77.976,61.049,79.357,59.875"/>
		<path fill="#0076BD" d="M85.436,56.62c-2.146,0.54-4.169,1.62-6.078,3.256c-1.382,1.173-2.576,2.541-3.579,4.097
			c-0.974,1.51-1.733,3.107-2.27,4.791c0.088,1.664,0.387,3.215,0.905,4.648l0.445,1.094c0.205-2.11,0.826-4.154,1.852-6.137
			c1.058-2.06,2.443-3.828,4.157-5.294c2.302-1.974,4.741-3.079,7.323-3.311c2.527-0.237,4.682,0.413,6.477,1.943
			c-0.779-2.046-1.896-3.71-3.35-4.993C89.48,56.117,87.517,56.092,85.436,56.62"/>
		<path fill="#FFFFFF" d="M94.668,61.707c-1.794-1.529-3.949-2.18-6.477-1.943c-2.582,0.232-5.022,1.338-7.323,3.312
			c-1.714,1.465-3.099,3.232-4.157,5.293c-1.025,1.982-1.646,4.026-1.851,6.137c0.63,1.369,1.421,2.551,2.387,3.562
			c0.978,1.013,2.072,1.787,3.289,2.324c1.372,0.612,2.791,0.878,4.241,0.788c1.461-0.08,2.868-0.504,4.229-1.274
			c2.8-1.582,4.762-4.126,5.889-7.632c1.128-3.516,1.081-6.959-0.14-10.338L94.668,61.707z"/>
		<path fill="#1A1414" d="M100.334,68.697c0.747,0.964,1.078,2.086,0.988,3.358c-0.09,1.289-0.572,2.347-1.449,3.19
			c-0.875,0.85-1.888,1.236-3.028,1.156c-1.155-0.082-2.097-0.603-2.84-1.565c-0.752-0.958-1.082-2.073-0.994-3.362
			c0.091-1.271,0.574-2.337,1.452-3.188c0.869-0.851,1.875-1.237,3.028-1.155C98.634,67.209,99.583,67.732,100.334,68.697"/>
		<path fill="#1A1414" d="M80.071,67.429c-0.782,0.829-1.219,1.86-1.304,3.092c-0.088,1.246,0.201,2.323,0.864,3.243
			c0.661,0.929,1.504,1.43,2.516,1.5c1.028,0.072,1.922-0.307,2.702-1.135c0.785-0.82,1.221-1.846,1.307-3.093
			c0.086-1.229-0.203-2.313-0.863-3.243c-0.657-0.927-1.492-1.428-2.518-1.5C81.762,66.224,80.856,66.601,80.071,67.429"/>
		<path fill="#FCDF00" d="M70.508,91.337c-0.897-2.538,0.872-3.324,5.305-2.367c3.334-1.634,5.074-2.48,5.226-2.527
			c0.587,0.164,4.578,1.452,11.973,3.878c5.521,1.804,8.947,2.764,10.258,2.873c-0.38,4.178-3.97,6.279-10.783,6.302
			c-3.492,0.019-7.614-0.704-12.364-2.167C76.796,95.988,73.592,93.996,70.508,91.337"/>
		<path fill="none" stroke="#F1B700" stroke-width="1.3082" stroke-miterlimit="10" d="M75.812,88.97
			c3.334-1.634,5.074-2.481,5.226-2.528c0.587,0.165,4.578,1.453,11.972,3.879c5.522,1.804,8.948,2.764,10.259,2.873
			c-0.381,4.178-3.97,6.279-10.783,6.303c-3.492,0.018-7.614-0.705-12.364-2.168c-3.325-1.34-6.529-3.332-9.613-5.991
			C69.61,88.799,71.38,88.012,75.812,88.97z"/>
		<path fill="#FCDF00" d="M81.489,76.549c2.31-1.24,4.365-2.014,6.181-2.338c2.985-0.512,5.17,0.238,6.546,2.244
			c0.328,0.482,0.724,1.025,1.197,1.641c0.488,0.648,0.893,1.202,1.211,1.658c0.328,0.482,1.234,1.227,2.713,2.223
			c1.535,1.033,2.497,1.807,2.89,2.3c1.17,1.091,2.01,2.895,2.523,5.423c0.536,2.619,0.187,4.003-1.048,4.172
			c-4.567,0.623-9.781,0.774-15.651,0.463c-5.717-0.293-10.967-0.954-15.743-2.002c-5.039-1.099-8.611-2.414-10.711-3.944
			c-2.344-1.714-2.546-3.515-0.589-5.386c0.711-0.68,3.695-1.635,8.938-2.866C75.71,78.793,79.558,77.595,81.489,76.549"/>
		<path fill="none" stroke="#F1B700" stroke-width="1.3082" stroke-miterlimit="10" d="M87.67,74.211
			c2.985-0.513,5.17,0.238,6.546,2.244c0.328,0.482,0.723,1.025,1.197,1.641c0.488,0.649,0.893,1.203,1.211,1.659
			c0.328,0.481,1.234,1.225,2.713,2.222c1.535,1.034,2.497,1.806,2.89,2.3c1.17,1.09,2.01,2.895,2.523,5.423
			c0.536,2.619,0.187,4.004-1.048,4.172c-4.567,0.623-9.781,0.775-15.651,0.463c-5.717-0.293-10.967-0.955-15.743-2.003
			c-5.039-1.097-8.612-2.413-10.711-3.944c-2.344-1.713-2.546-3.515-0.589-5.386c0.71-0.679,3.695-1.634,8.938-2.866
			c5.764-1.342,9.611-2.541,11.543-3.586C83.799,75.309,85.854,74.535,87.67,74.211z"/>
		<path fill="#F1B700" d="M99.646,27.455c-1.025-0.018-2.033,0.301-3.018,0.942c1.653,0.033,3.497,1.425,5.536,4.175
			c0.423,0.572,0.893,1.051,1.402,1.432c-0.101,0.018-0.206,0.033-0.306,0.06c-0.69,0.146-1.262,0.325-1.731,0.528
			c-0.239-0.256-0.473-0.529-0.698-0.821c-0.048-0.06-0.096-0.119-0.137-0.179c-2.174-2.797-4.347-4.321-6.514-4.563
			c1.937-2.265,3.792-3.354,5.58-3.271c1.791,0.061,3.503,0.96,5.139,2.689l0.005,0.023c0.252,0.305,0.484,0.596,0.7,0.855
			c0.004-0.346,0.037-0.688,0.085-1.042c0.401-3.305-0.124-5.823-1.587-7.557c3.104,0.022,5.305,0.714,6.603,2.062
			c1.216,1.26,1.858,2.906,1.92,4.945c0.489-0.275,1.035-0.499,1.636-0.665c3.134-0.944,5.044-2.405,5.735-4.374
			c1.736,2.733,2.389,4.938,1.939,6.621c-0.101,0.379-0.24,0.73-0.411,1.062c-0.479,0.897-1.232,1.652-2.266,2.261
			c-0.741,0.013-2.1,0.118-4.07,0.323l-0.004-0.016l-1.925,0.316c0.312-0.262,0.7-0.521,1.165-0.766
			c0.476-0.238,1.508-0.619,3.101-1.142c1.554-0.533,2.491-1.479,2.808-2.84c0.238-0.966,0.15-2.048-0.261-3.245
			c-0.384,1.555-2.091,2.764-5.145,3.61c-1.587,0.438-2.661,1.374-3.226,2.8c-0.279,0.729-0.363,1.4-0.246,2.013
			c-0.085,0.057-0.153,0.11-0.204,0.169c-0.407-0.616-0.643-1.496-0.716-2.64c-0.02-0.554,0.054-1.679,0.223-3.385
			c0.149-1.669-0.31-3.034-1.384-4.091c-0.764-0.75-1.746-1.291-2.964-1.621c1.218,1.226,1.605,3.423,1.145,6.6
			c-0.242,1.651,0.156,3.131,1.186,4.436c0.16,0.201,0.332,0.394,0.499,0.561c-0.163,0.035-0.305,0.064-0.434,0.104
			c-0.843,0.036-1.834-0.476-2.968-1.546c-0.427-0.41-1.216-1.317-2.346-2.727C102.358,28.165,101.078,27.465,99.646,27.455"/>
		<path fill="#FCDF00" d="M96.629,28.397c0.984-0.642,1.992-0.96,3.018-0.942c1.432,0.01,2.712,0.71,3.848,2.1
			c1.13,1.409,1.919,2.316,2.346,2.727c1.135,1.07,2.125,1.582,2.968,1.546c0.017-0.004,0.032-0.005,0.046-0.009
			c0.138-0.014,0.264-0.035,0.396-0.064c0.008-0.01,0.008-0.01,0.016-0.012c-0.012-0.006-0.016-0.015-0.024-0.02
			c-0.167-0.167-0.339-0.359-0.499-0.561c-1.029-1.305-1.428-2.784-1.186-4.436c0.461-3.177,0.073-5.374-1.145-6.6
			c1.218,0.33,2.2,0.871,2.964,1.621c1.074,1.057,1.533,2.422,1.384,4.091c-0.169,1.706-0.242,2.831-0.222,3.385
			c0.073,1.144,0.308,2.023,0.716,2.64c0.122,0.184,0.261,0.345,0.413,0.479c-0.016-0.022-0.021-0.048-0.036-0.07l-0.168-0.52
			c0.002-0.026-0.002-0.042-0.006-0.059c-0.117-0.612-0.033-1.284,0.246-2.013c0.564-1.426,1.639-2.361,3.226-2.8
			c3.054-0.847,4.761-2.056,5.145-3.61c0.411,1.197,0.499,2.279,0.261,3.245c-0.316,1.36-1.253,2.307-2.808,2.84
			c-1.593,0.522-2.625,0.903-3.101,1.142c-0.465,0.245-0.853,0.504-1.165,0.766c-0.444,0.385-0.738,0.787-0.874,1.215
			c-0.065,0.205-0.093,0.42-0.081,0.646c0,0.042,0.006,0.083,0.008,0.125l0.018,0.038c-0.045-0.042-0.09-0.085-0.136-0.137
			c-0.119-0.141-0.229-0.283-0.324-0.428l-0.918-0.035c-0.044-0.01-0.087-0.019-0.13-0.029c-0.532-0.14-1.036-0.428-1.518-0.88
			c-0.572,1.081-1.625,1.507-3.158,1.286c-0.191-0.027-0.381-0.064-0.567-0.108c-0.141-0.036-0.284-0.081-0.428-0.124
			c-0.024-0.005-0.053-0.018-0.078-0.021l-0.529-0.217c-0.064-0.031-0.121-0.062-0.187-0.096c-0.014-0.007-0.021-0.005-0.028-0.012
			c-0.204-0.109-0.39-0.223-0.579-0.352c-0.021-0.014-0.04-0.027-0.063-0.049c-0.01-0.008-0.017-0.005-0.028-0.014
			c-0.01-0.006-0.011-0.014-0.021-0.021c-0.01-0.006-0.019-0.014-0.03-0.02c-0.008-0.007-0.03-0.02-0.039-0.027
			c-0.511-0.381-0.98-0.859-1.402-1.432C100.127,29.822,98.282,28.431,96.629,28.397"/>
		<path fill="#9B4594" d="M169.583,52.099c-0.005,0.401-0.023,0.792-0.05,1.192c-0.259,3.693-0.654,6.421-1.193,8.162
			c-0.076,0.232-0.147,0.473-0.238,0.704c-2.165,5.644-4.916,9.122-8.253,10.44c-2.642,0.822-5.057,0.645-7.232-0.541
			c-0.681-0.366-1.335-0.838-1.976-1.408c-0.079-0.07-0.154-0.149-0.222-0.228c-0.201-0.187-0.416-0.39-0.648-0.603
			c-0.184-0.17-0.557-0.466-1.108-0.89c-0.273-0.298-0.648-0.569-1.132-0.815c-1.051-0.543-2.421-0.875-4.111-0.993
			c-1.044-0.072-2.758,0.095-5.137,0.491c-1.063,0.182-2.056,0.301-2.971,0.375c-1.156,0.092-2.197,0.109-3.126,0.045
			c-1.126-0.08-2.265-0.322-3.416-0.73c-1.415-0.5-2.862-1.258-4.323-2.27c-1.008-0.701-1.988-1.467-2.933-2.286
			c-0.939-0.821-2.518-2.21-4.731-4.175c-2.206-1.967-4.835-3.649-7.884-5.035c-3.052-1.392-6.116-2.197-9.207-2.412
			c-3.094-0.217-5.909-0.25-8.459-0.109c-2.553,0.142-5.197,0.727-7.949,1.773c-0.518,0.192-1.014,0.387-1.508,0.582
			c-1.528,0.599-3.041,1.172-4.531,1.731c-1.775,0.639-3.596,0.797-5.467,0.464c-0.582-0.117-1.12-0.301-1.609-0.557
			c-1.33-0.904-2.43-2.055-3.289-3.459c-0.485-0.795-0.956-1.598-1.406-2.426c-0.926-1.646-1.467-3.085-1.614-4.324l0.07-1.012
			l-0.155-0.013c-0.059-1.61,0.168-3.355,0.701-5.236c0.646-2.291,3.232-5.413,7.753-9.367s9.464-7.107,14.833-9.462
			c5.37-2.354,11.007-3.977,16.911-4.85c5.912-0.874,12.843-0.815,20.798,0.184c7.951,0.99,14.181,2.654,18.672,4.992
			c4.501,2.339,7.748,4.271,9.751,5.805c1.997,1.525,4.486,3.666,7.459,6.414c2.981,2.749,5.267,6.016,6.864,9.808
			c1.299,3.065,1.979,6.104,2.059,9.109L169.583,52.099z M87.121,28.441c-0.773-0.053-1.385,0.199-1.839,0.758l-6.049,7.519
			c-0.442,0.55-0.28,0.857,0.493,0.912l3.523,0.245c0.775,0.056,1.383-0.197,1.82-0.75l6.053-7.52
			c0.455-0.557,0.297-0.862-0.479-0.917L87.121,28.441z"/>
		<path fill="#822689" d="M85.282,29.199c0.454-0.56,1.065-0.811,1.839-0.758l3.523,0.247c0.775,0.055,0.934,0.36,0.479,0.917
			l-6.053,7.52c-0.438,0.553-1.045,0.806-1.82,0.75l-3.523-0.246c-0.773-0.055-0.936-0.361-0.493-0.911L85.282,29.199z"/>
		<path fill="#041616" d="M148.662,68.929c0.552,0.423,0.925,0.72,1.108,0.89c0.232,0.213,0.447,0.416,0.647,0.602
			c0.068,0.079,0.144,0.158,0.223,0.229c0.641,0.568,1.295,1.041,1.976,1.407l-12.325,11.112
			c-11.567,21.952-26.604,30.039-45.112,24.278c-0.713-0.219-1.443-0.469-2.17-0.734c0.743,0.054,1.486,0.098,2.213,0.123
			c17.763,0.67,30.835-7.417,39.216-24.247l-5.668-15.288c1.151,0.408,2.29,0.65,3.416,0.73c0.929,0.064,1.97,0.047,3.126-0.045
			l3.263,10.638L148.662,68.929z"/>
		
			<path fill="none" stroke="#4A4646" stroke-width="1.3082" stroke-linecap="round" stroke-linejoin="round" stroke-miterlimit="10" d="
			M85.282,29.199l-6.049,7.519c-0.442,0.55-0.28,0.856,0.493,0.911l3.523,0.246c0.775,0.056,1.383-0.197,1.82-0.75l6.053-7.52
			c0.455-0.557,0.297-0.862-0.479-0.917l-3.523-0.247C86.348,28.389,85.736,28.64,85.282,29.199z"/>
		
			<line fill="none" stroke="#461C86" stroke-width="3.5977" stroke-linecap="round" stroke-linejoin="round" stroke-miterlimit="10" x1="168.443" y1="52.019" x2="65.226" y2="44.803"/>
		
			<path fill="none" stroke="#4A4646" stroke-width="1.3082" stroke-linecap="round" stroke-linejoin="round" stroke-miterlimit="10" d="
			M152.616,72.057c2.176,1.186,4.591,1.363,7.232,0.54c3.337-1.316,6.088-4.796,8.253-10.44c0.091-0.23,0.162-0.471,0.238-0.705
			c0.539-1.739,0.935-4.466,1.193-8.16c0.026-0.4,0.045-0.791,0.05-1.193c0.004-0.311,0.002-0.623-0.009-0.928
			c-0.08-3.005-0.76-6.043-2.06-9.109c-1.597-3.791-3.882-7.057-6.863-9.807c-2.973-2.748-5.462-4.889-7.459-6.414
			c-2.003-1.533-5.25-3.465-9.751-5.804c-4.491-2.338-10.722-4.004-18.672-4.994c-7.955-0.999-14.886-1.058-20.798-0.183
			c-5.904,0.874-11.542,2.496-16.911,4.851c-5.37,2.353-10.312,5.508-14.833,9.46c-4.521,3.955-7.107,7.078-7.753,9.369
			c-0.533,1.881-0.761,3.625-0.701,5.236c0.018,0.32,0.038,0.625,0.075,0.93c0.005,0.033,0.003,0.068,0.009,0.094
			c0.148,1.24,0.689,2.678,1.615,4.324c0.45,0.827,0.921,1.63,1.405,2.427c0.86,1.403,1.96,2.554,3.29,3.458
			c0.489,0.256,1.027,0.44,1.609,0.557c1.871,0.334,3.692,0.174,5.467-0.463c1.49-0.561,3.003-1.133,4.531-1.733
			c0.494-0.193,0.99-0.389,1.508-0.583c2.752-1.045,5.396-1.631,7.949-1.771c2.55-0.141,5.365-0.107,8.459,0.107
			c3.091,0.217,6.155,1.021,9.207,2.414c3.049,1.386,5.678,3.069,7.884,5.035c2.215,1.966,3.792,3.354,4.731,4.174
			c0.944,0.82,1.925,1.587,2.933,2.287c1.46,1.012,2.908,1.77,4.323,2.269 M148.662,68.93c0.551,0.423,0.924,0.72,1.108,0.889
			c0.232,0.212,0.447,0.416,0.647,0.602c0.068,0.078,0.144,0.158,0.223,0.229c0.641,0.568,1.295,1.042,1.976,1.408 M135.312,67.986
			c0.915-0.073,1.907-0.194,2.971-0.375c2.379-0.397,4.093-0.564,5.137-0.492c1.69,0.118,3.061,0.451,4.111,0.994
			c0.483,0.246,0.858,0.518,1.132,0.816 M128.77,67.3c1.151,0.409,2.29,0.652,3.416,0.731c0.929,0.064,1.97,0.047,3.126-0.045
			 M152.616,72.057L140.291,83.17c-11.567,21.951-26.604,30.038-45.112,24.278c-0.713-0.222-1.443-0.471-2.17-0.734
			c0.743,0.054,1.486,0.097,2.213,0.123c17.763,0.668,30.835-7.418,39.216-24.248L128.77,67.3 M135.312,67.986l3.263,10.639
			l10.088-9.695"/>
		<path fill="#EDDC00" d="M121.162,113.835c-1.154-1.642-2.366-2.368-3.632-2.183c-0.511,0.072-1.322,0.475-2.438,1.196
			c-0.855,0.538-1.599,1.067-2.218,1.589c-2.205,1.797-4.436,3.058-6.69,3.782c-2.277,0.747-4.731,0.998-7.356,0.739
			c-2.145-0.191-4.598,0.444-7.376,1.905c-2.871,1.515-4.944,3.353-6.219,5.508c-0.494,0.818-0.839,1.962-1.029,3.424
			c-0.192,1.325-0.222,2.595-0.079,3.827c0.262,2.592,1.559,4.969,3.872,7.145c2.121,1.983,4.783,3.549,8.004,4.689
			c3.163,1.111,6.232,1.596,9.211,1.461c3.175-0.148,5.667-0.979,7.485-2.501c2.139-1.786,3.914-3.89,5.317-6.31
			c0.926-1.592,2.079-4.123,3.469-7.598c0.487-1.224,0.925-3.102,1.293-5.637c0.39-2.601,0.514-4.523,0.377-5.76
			C122.924,117.129,122.264,115.367,121.162,113.835"/>
		<path fill="none" stroke="#F1B700" stroke-width="2.4312" stroke-miterlimit="10" d="M121.162,113.835
			c1.102,1.532,1.762,3.294,1.99,5.278c0.137,1.236,0.013,3.159-0.377,5.76c-0.368,2.535-0.806,4.413-1.293,5.637
			c-1.39,3.475-2.543,6.006-3.469,7.598c-1.403,2.42-3.179,4.523-5.317,6.31c-1.818,1.522-4.311,2.353-7.485,2.501
			c-2.98,0.135-6.048-0.35-9.211-1.461c-3.221-1.141-5.883-2.706-8.004-4.689c-2.313-2.176-3.61-4.553-3.872-7.145
			c-0.143-1.232-0.113-2.502,0.079-3.827c0.19-1.462,0.535-2.605,1.029-3.424c1.274-2.155,3.348-3.993,6.219-5.508
			c2.778-1.461,5.231-2.097,7.376-1.905c2.625,0.259,5.079,0.008,7.356-0.739c2.255-0.725,4.485-1.985,6.69-3.782
			c0.619-0.521,1.362-1.051,2.218-1.589c1.116-0.722,1.928-1.124,2.438-1.196C118.796,111.467,120.008,112.193,121.162,113.835z"/>
		<path fill="#FCDF00" d="M122.564,111.242l-1.956-1.188c-2.024,0.125-4.389,0.259-7.084,0.394
			c-0.215,0.008-0.419,0.019-0.627,0.032c-0.461,1.155-0.944,2.253-1.456,3.281c-2.512,5.057-5.139,7.672-7.888,7.842l11.511,3.768
			l8.078-4.691c0.053-0.901,0.068-1.977,0.036-3.217C123.136,114.987,122.936,112.917,122.564,111.242"/>
		<path fill="#FCDF00" d="M114.296,106.45c0.11-0.016,0.225-0.028,0.345-0.03l-0.279-0.177L114.296,106.45z"/>
		<path fill="#FCDF00" d="M121.162,113.835c-1.154-1.642-2.366-2.368-3.632-2.183c-0.511,0.072-1.322,0.475-2.438,1.196
			c-0.855,0.538-1.599,1.067-2.218,1.589c-2.205,1.797-4.436,3.058-6.69,3.782c-2.277,0.747-4.731,0.998-7.356,0.739
			c-2.145-0.191-4.598,0.444-7.376,1.905c-2.871,1.515-4.944,3.353-6.219,5.508c-0.494,0.818-0.839,1.962-1.029,3.424
			c-0.192,1.325-0.222,2.595-0.079,3.827c0.262,2.592,1.559,4.969,3.872,7.145c2.121,1.983,4.783,3.549,8.004,4.689
			c3.163,1.111,6.232,1.596,9.211,1.461c3.175-0.148,5.667-0.979,7.485-2.501c2.139-1.786,3.914-3.89,5.317-6.31
			c0.926-1.592,2.079-4.123,3.469-7.598c0.487-1.224,0.925-3.102,1.293-5.637c0.39-2.601,0.514-4.523,0.377-5.76
			C122.924,117.129,122.264,115.367,121.162,113.835"/>
		<path fill="#FCDF00" d="M88.327,132.651c2.991,0.535,4.759,1.499,5.298,2.876c0.893,2.272,0.228,4.676-1.988,7.203
			c-0.601,0.688-1.567,1.695-2.895,3.008c-1.116,1.166-1.878,2.159-2.284,2.979c-0.851,1.708-1.347,2.643-1.472,2.803
			c-0.776,0.92-1.63,0.831-2.558-0.285c-0.572-0.689-0.762-1.807-0.562-3.346c0.109-0.826,0.395-1.998,0.84-3.509
			c-0.828,0.196-2.082,0.541-3.751,1.048c-1.472,0.305-2.75,0.152-3.832-0.456c-1.159-0.888-1.021-2.21,0.433-3.985
			c1.268-1.546,2.799-2.731,4.582-3.564c-0.729,0.227-1.835,0.026-3.319-0.588c-1.534-0.618-2.425-1.286-2.684-2.009
			c-0.566-1.573,0.449-2.533,3.056-2.872c1.803-0.227,3.799-0.168,5.984,0.187C85.062,132.221,86.779,132.396,88.327,132.651"/>
		<path fill="none" stroke="#F1B700" stroke-width="1.2639" stroke-miterlimit="10" d="M88.327,132.651
			c-1.548-0.256-3.265-0.431-5.151-0.512c-2.186-0.354-4.182-0.413-5.984-0.187c-2.606,0.339-3.622,1.299-3.056,2.872
			c0.259,0.723,1.149,1.391,2.684,2.009c1.484,0.614,2.591,0.814,3.319,0.588c-1.783,0.833-3.314,2.019-4.582,3.564
			c-1.453,1.775-1.592,3.098-0.433,3.985c1.082,0.608,2.36,0.761,3.832,0.456c1.669-0.507,2.923-0.852,3.751-1.048
			c-0.445,1.511-0.73,2.683-0.84,3.509c-0.2,1.539-0.011,2.656,0.562,3.346c0.928,1.116,1.781,1.205,2.558,0.285
			c0.125-0.16,0.621-1.095,1.472-2.803c0.406-0.819,1.168-1.812,2.284-2.979c1.327-1.312,2.294-2.319,2.895-3.008
			c2.216-2.527,2.881-4.931,1.988-7.203C93.086,134.15,91.318,133.187,88.327,132.651z"/>
	</g>
</g>
<g id="guide" display="none">
</g>
</svg>
