<?xml version="1.0" encoding="utf-8"?>
<!-- Generator: Adobe Illustrator 16.2.1, SVG Export Plug-In . SVG Version: 6.00 Build 0)  -->
<!DOCTYPE svg PUBLIC "-//W3C//DTD SVG 1.1//EN" "http://www.w3.org/Graphics/SVG/1.1/DTD/svg11.dtd">
<svg version="1.1" id="レイヤー_1" xmlns="http://www.w3.org/2000/svg" xmlns:xlink="http://www.w3.org/1999/xlink" x="0px"
	 y="0px" width="1400px" height="1000px" viewBox="0 0 1400 1000" enable-background="new 0 0 1400 1000" xml:space="preserve">
<rect x="-7.771" y="-0.447" display="none" fill="#D8EFE2" width="1415.541" height="1000.896"/>
<g>
	<defs>
		<rect id="SVGID_1_" x="-7.771" y="-0.447" width="1415.541" height="1000.896"/>
	</defs>
	<clipPath id="SVGID_2_">
		<use xlink:href="#SVGID_1_"  overflow="visible"/>
	</clipPath>
	<g clip-path="url(#SVGID_2_)">
		<path fill="#EFEFEF" d="M1274.842,98.049v780.964v82.804c0,5.5-4.222,10-9.381,10H65.718c-5.159,0-9.38-4.5-9.38-10v-62.804
			V98.049"/>
		<path fill="#DCDDDD" d="M1275.786,95.26v866.557c0,5.5-4.224,10-9.387,10H65.725c-5.162,0-9.387-4.5-9.387-10v-89.89
			c0,0,2.714,35.333,4.279,71.999c0.512,11.987,2.189,19.333,16.271,19.333c14.08,0,1169.755,0,1179.144,0
			c20.024,0,15.02-34,15.02-41S1263.541,120.26,1275.786,95.26z"/>
		<path fill="#EFEFEF" d="M1315.31,76.502v780.967v82.804c0,5.5-4.364,10-9.696,10H66.033c-5.332,0-9.695-4.5-9.695-10v-62.804
			V76.502"/>
		<path fill="#DCDDDD" d="M1316.285,73.713v866.56c0,5.5-4.366,10-9.703,10H66.041c-5.336,0-9.703-4.5-9.703-10v-89.89
			c0,0,2.805,35.333,4.423,71.999c0.528,11.987,2.265,19.333,16.819,19.333s1208.582,0,1218.286,0c20.699,0,15.523-34,15.523-41
			S1303.628,98.713,1316.285,73.713z"/>
		<path fill="#FFFFFF" d="M1354.283,918.726c0,5.5-4.5,10-10,10H66.338c-5.5,0-10-4.5-10-10v-27.558V49.287c0-5.5,4.5-10,10-10
			h1277.945c5.5,0,10,4.5,10,10v839.881V918.726z"/>
	</g>
	<g clip-path="url(#SVGID_2_)">
		<path fill="#EFEFEF" d="M-46.965,98.049v780.964v82.804c0,5.5,4.223,10,9.381,10h84.043c5.16,0,9.381-4.5,9.381-10v-62.804V98.049
			"/>
		<path fill="#DCDDDD" d="M-47.908,95.26v866.557c0,5.5,4.223,10,9.387,10h84.975c5.162,0,9.387-4.5,9.387-10v-89.89
			c0,0-2.715,35.333-4.279,71.999c-0.512,11.987-2.191,19.333-16.271,19.333s-54.055,0-63.443,0c-20.025,0-15.02-34-15.02-41
			S-35.664,120.26-47.908,95.26z"/>
		<path fill="#EFEFEF" d="M-87.432,76.502v780.967v82.804c0,5.5,4.364,10,9.696,10h123.88c5.332,0,9.695-4.5,9.695-10v-62.804
			V76.502"/>
		<path fill="#DCDDDD" d="M-88.408,73.713v866.56c0,5.5,4.366,10,9.703,10H46.137c5.336,0,9.703-4.5,9.703-10v-89.89
			c0,0-2.807,35.333-4.424,71.999c-0.527,11.987-2.264,19.333-16.82,19.333c-14.555,0-92.881,0-102.584,0
			c-20.7,0-15.524-34-15.524-41S-75.75,98.713-88.408,73.713z"/>
		<path fill="#FFFFFF" d="M-126.406,918.726c0,5.5,4.5,10,10,10H45.84c5.5,0,10-4.5,10-10v-27.558V49.287c0-5.5-4.5-10-10-10H28.236
			h-144.642c-5.5,0-10,4.5-10,10v839.881V918.726z"/>
		<path fill="#F7F8F8" d="M31.746,924.835c5.5,0,7.084-0.609,7.084-6.109v-27.558V49.287c0-5.5-4.5-10-10-10H-7.78
			c0,0,27.01,1.881,27.01,10.881c0,222.305-1.466,214.357-1,878.558"/>
		<path fill="#EFEFEF" d="M48.756,925.168c5.5,0,7.084-0.942,7.084-6.442v-27.558V49.287c0-5.5-4.5-10-10-10H9.229
			c0,0,27.01,1.881,27.01,10.881c0,222.305-1.466,214.357-1,878.558"/>
		<path fill="#EFEFEF" d="M-126.406,52.168v866.558c0,5.5,4.5,10,10,10H45.84c5.5,0,10-4.5,10-10v-18.058
			c0,0,0.057,3.269,0.057,13.831c0,6.493-6.949,5.669-21.949,5.669s-129.309,0-139.309,0c-21.333,0-16-34-16-41
			S-113.362,77.168-126.406,52.168z"/>
		<path fill="#DADBDB" d="M54.379,925.168c1.134,0,1.461-0.942,1.461-6.442v-27.558V49.287c0-5.5-2.262-10-12.396-10h-7.547
			c0,0,15.902,1.881,15.902,10.881c0,222.305-0.303,214.357-0.207,878.558"/>
	</g>
</g>
</svg>
