<?xml version="1.0" encoding="utf-8"?>
<!-- Generator: Adobe Illustrator 16.0.0, SVG Export Plug-In . SVG Version: 6.00 Build 0)  -->
<!DOCTYPE svg PUBLIC "-//W3C//DTD SVG 1.1//EN" "http://www.w3.org/Graphics/SVG/1.1/DTD/svg11.dtd">
<svg version="1.1" id="レイヤー_1" xmlns="http://www.w3.org/2000/svg" xmlns:xlink="http://www.w3.org/1999/xlink" x="0px"
	 y="0px" width="103.715px" height="213.573px" viewBox="0 0 103.715 213.573" enable-background="new 0 0 103.715 213.573"
	 xml:space="preserve">
<g>
	<path fill="#245E27" d="M69.913,70.292L40.56,72.694c2.428,12.999,1.654,23.784-2.311,32.345c-0.01,0.009-0.027,0.026-0.034,0.052
		c-0.366,0.652-0.702,1.327-1.005,2.018c-2.42,5.223-3.508,11.101-3.267,17.619c0.336,8.957,3.064,16.501,8.198,22.636
		c5.071,6.067,11.02,8.983,17.86,8.735c6.821-0.262,12.548-3.615,17.157-10.041c4.646-6.5,6.805-14.227,6.469-23.184
		c-0.154-4.191-0.84-8.071-2.04-11.643c-0.626-1.814-1.396-3.51-2.33-5.073c-1.12-1.875-2.216-3.753-3.303-5.622l-0.017-0.017
		C71.823,92.782,69.81,82.704,69.913,70.292"/>
	
		<path fill="none" stroke="#245E27" stroke-width="1.4129" stroke-linecap="round" stroke-linejoin="round" stroke-miterlimit="10" d="
		M40.558,72.694c2.43,12.999,1.656,23.784-2.309,32.345c-0.012,0.009-0.027,0.026-0.035,0.052c-0.365,0.652-0.703,1.327-1.004,2.018
		c-2.42,5.223-3.508,11.101-3.267,17.619c0.336,8.957,3.064,16.501,8.198,22.635c5.071,6.068,11.02,8.984,17.861,8.736
		c6.819-0.262,12.547-3.615,17.156-10.041c4.646-6.5,6.807-14.227,6.471-23.184c-0.156-4.191-0.84-8.071-2.043-11.643
		c-0.625-1.814-1.395-3.51-2.329-5.073c-1.119-1.875-2.216-3.753-3.303-5.622l-0.017-0.017c-4.115-7.739-6.127-17.818-6.025-30.229
		L40.558,72.694z"/>
	<path fill="#9EC94C" d="M69.21,71.062l-27.816,2.275c2.291,12.825,1.453,23.497-2.5,32.002c-0.023,0.028-0.04,0.064-0.055,0.101
		c-0.359,0.624-0.688,1.279-0.98,1.954c0.002,0.009,0.002,0.009,0.002,0.019c-2.383,5.124-3.447,10.893-3.209,17.289
		c0.329,8.78,3.008,16.183,8.03,22.209h0.008c4.915,5.879,10.677,8.703,17.287,8.482c6.608-0.273,12.143-3.519,16.611-9.74v-0.009
		c4.552-6.382,6.664-13.964,6.335-22.746c-0.154-4.12-0.816-7.931-2-11.438c-0.605-1.771-1.363-3.414-2.27-4.942v0.007
		c-1.102-1.858-2.197-3.716-3.264-5.561c-0.028-0.035-0.057-0.068-0.076-0.111C71.227,93.184,69.194,83.257,69.21,71.062"/>
	<path fill="#5A6174" d="M2.011,33.93l1.602,7.469c3.547,0.418,7.244,0.281,11.096-0.41c3.387-0.583,6.863-0.995,10.426-1.218
		c18.913-2.644,39.896-8.566,62.944-17.76l-2.861-8.21L2.011,33.93z"/>
	
		<path fill="none" stroke="#737A90" stroke-width="1.4095" stroke-linecap="round" stroke-linejoin="round" stroke-miterlimit="10" d="
		M2.011,33.93l83.206-20.128l2.861,8.21c-23.049,9.194-44.031,15.117-62.944,17.76c-3.562,0.223-7.039,0.635-10.426,1.218
		c-3.852,0.69-7.549,0.828-11.096,0.41L2.011,33.93z"/>
	<path fill="#9EC94C" d="M79.71,25.595c1.479-0.562,2.444-1.386,2.887-2.479c-1.578,0.195-3.446-0.212-5.613-1.226
		c-5.757-4.005-13.28-5.221-22.58-3.644c-0.008-1.055,0.434-2.085,1.333-3.081c-2.512,0.173-5.219,1.127-8.13,2.864
		c-0.845-0.192-1.077-0.949-0.69-2.267c-3.096,0.931-5.704,3.053-7.818,6.345c-4.056-0.306-7.955,0.341-11.691,1.925
		c1.94,0.108,3.293,0.63,4.05,1.575c-5.309,2.262-9.843,6.24-13.617,11.936c-1.381,2.084-2.877,3.469-4.486,4.157
		c0.932,0.724,2.177,0.955,3.74,0.698c-2.121,5.718-4.243,9.11-6.359,10.182c1.041,0.721,2.425,0.896,4.148,0.526
		c-0.139,0.864-0.406,1.712-0.803,2.538c-0.599,1.236-1.496,2.406-2.686,3.511c-0.737,0.678-1.588,1.345-2.549,1.977
		c1.412,1.288,3.757,1.303,7.035,0.034c-0.278,1.032-0.432,2.063-0.462,3.103c-0.03,0.937,0.087,1.854,0.351,2.74
		c0.252,0.87,0.639,1.67,1.164,2.392c0.51,0.71,1.17,1.373,1.965,1.997c0.354-0.931,0.822-1.762,1.414-2.474
		c0.485,0.752,0.996,1.473,1.544,2.153c0.191,0.241,0.391,0.479,0.594,0.714c3.465,4.017,8.069,6.683,13.804,7.984
		c-0.22-0.713-0.254-1.451-0.099-2.196c4.636,2.503,9.913,3.498,15.854,2.999c-0.261-0.742-0.244-1.494,0.032-2.259
		c0.442,0.289,0.905,0.549,1.396,0.791c0.468,0.212,0.96,0.407,1.459,0.584c0.538,0.201,1.092,0.362,1.651,0.476
		c0.636,0.13,1.294,0.21,1.969,0.247c0.351,0.016,0.706,0.011,1.062-0.02c0.64-0.053,1.274-0.18,1.892-0.382
		c0.524-0.186,1.007-0.423,1.444-0.734c0.498-0.342,0.957-0.702,1.385-1.082c0.455-0.376,0.848-0.784,1.194-1.223
		c0.356-0.433,0.71-0.884,1.055-1.33c0.352-0.449,0.65-0.94,0.892-1.46c0.625,0.524,1.017,1.167,1.158,1.94
		c5.396-2.542,9.465-6.048,12.225-10.535c0.508,0.566,0.846,1.222,1.016,1.951c5.182-4.798,7.967-10.473,8.349-17.027
		c0.894,0.143,1.794,0.54,2.694,1.179c1.254-3.952,0.348-7.435-2.727-10.463c3.474-0.541,5.494-1.731,6.072-3.552
		c-1.148-0.066-2.209-0.219-3.188-0.438c-1.59-0.357-2.955-0.921-4.088-1.69c-0.761-0.517-1.412-1.117-1.969-1.797
		c1.677-0.542,2.789-1.387,3.328-2.534C87.942,31.356,84.405,29.48,79.71,25.595"/>
	<path fill="none" stroke="#245E27" stroke-width="1.4081" stroke-linecap="round" stroke-miterlimit="10" d="M79.71,25.595
		c4.695,3.886,8.232,5.761,10.602,5.625c-0.539,1.147-1.651,1.992-3.328,2.534c0.557,0.68,1.208,1.28,1.969,1.797
		c1.133,0.769,2.498,1.333,4.088,1.69c0.979,0.219,2.039,0.372,3.188,0.438c-0.578,1.82-2.599,3.011-6.072,3.552
		c3.074,3.028,3.98,6.511,2.727,10.463c-0.9-0.639-1.801-1.037-2.694-1.179c-0.382,6.554-3.167,12.229-8.349,17.027
		c-0.17-0.729-0.508-1.385-1.016-1.951c-2.76,4.486-6.828,7.993-12.225,10.535c-0.142-0.773-0.533-1.417-1.158-1.94
		c-0.241,0.52-0.54,1.011-0.892,1.46c-0.345,0.446-0.698,0.897-1.055,1.33c-0.347,0.439-0.739,0.847-1.194,1.223
		c-0.428,0.379-0.887,0.74-1.385,1.082c-0.438,0.311-0.92,0.548-1.444,0.734c-0.617,0.202-1.252,0.329-1.892,0.382
		c-0.356,0.031-0.712,0.035-1.062,0.02c-0.675-0.036-1.333-0.117-1.969-0.247c-0.56-0.114-1.113-0.275-1.651-0.476
		c-0.5-0.177-0.991-0.372-1.459-0.584c-0.491-0.242-0.954-0.502-1.396-0.791c-0.276,0.765-0.293,1.517-0.032,2.259
		c-5.941,0.499-11.219-0.496-15.854-2.999c-0.155,0.745-0.121,1.483,0.099,2.196c-5.734-1.302-10.34-3.967-13.804-7.984
		c-0.203-0.236-0.402-0.474-0.595-0.714c-0.547-0.681-1.058-1.401-1.543-2.153c-0.592,0.712-1.06,1.543-1.414,2.474
		c-0.797-0.624-1.455-1.287-1.965-1.997c-0.525-0.722-0.912-1.522-1.164-2.392c-0.264-0.886-0.381-1.803-0.351-2.74
		c0.03-1.039,0.184-2.07,0.462-3.103c-3.278,1.269-5.623,1.254-7.035-0.034c0.961-0.632,1.812-1.299,2.549-1.977
		c1.189-1.105,2.087-2.274,2.686-3.511c0.396-0.825,0.664-1.674,0.803-2.538c-1.724,0.37-3.107,0.195-4.148-0.526
		c2.116-1.072,4.238-4.464,6.359-10.182c-1.563,0.257-2.809,0.026-3.74-0.698c1.609-0.688,3.105-2.073,4.486-4.157
		c3.774-5.696,8.309-9.674,13.617-11.936c-0.757-0.945-2.109-1.467-4.05-1.575c3.736-1.584,7.636-2.231,11.689-1.925
		c2.116-3.292,4.725-5.414,7.82-6.345c-0.387,1.318-0.155,2.074,0.69,2.267c2.911-1.737,5.616-2.691,8.13-2.864
		c-0.899,0.996-1.341,2.025-1.333,3.081c9.3-1.577,16.823-0.361,22.58,3.644c2.167,1.014,4.035,1.421,5.613,1.226
		C82.152,24.209,81.188,25.033,79.71,25.595L79.71,25.595z"/>
	<path fill="#191313" d="M78.479,48.164C60.672,48.18,46.331,53.039,35.45,62.73C47.366,54.557,61.71,49.704,78.479,48.164"/>
	
		<path fill="none" stroke="#1F1A1A" stroke-width="0.0089" stroke-linecap="round" stroke-linejoin="round" stroke-miterlimit="10" d="
		M35.45,62.73c11.916-8.173,26.26-13.026,43.028-14.566C60.672,48.18,46.331,53.039,35.45,62.73z"/>
	<path fill="#FFFFFF" d="M60.455,29.236c-2.427,0.225-4.417,1.269-5.979,3.146c-1.566,1.867-2.23,4.013-1.998,6.438
		c0.225,2.429,1.279,4.423,3.145,5.982c1.895,1.559,4.052,2.228,6.479,2.005c2.418-0.229,4.403-1.28,5.947-3.163
		c1.568-1.871,2.228-4.025,2.004-6.451c-0.232-2.426-1.283-4.413-3.148-5.96C65.019,29.67,62.868,28.997,60.455,29.236"/>
	<path fill="#FFFFFF" d="M29.61,44.968c0.222,2.419,1.275,4.404,3.149,5.968c1.888,1.562,4.045,2.231,6.474,2.008
		c2.41-0.22,4.391-1.279,5.945-3.165c1.564-1.875,2.236-4.024,2.016-6.443c-0.224-2.428-1.278-4.421-3.171-5.974
		c-1.878-1.563-4.022-2.224-6.428-1.991c-2.429,0.225-4.423,1.279-5.989,3.147C30.058,40.384,29.397,42.539,29.61,44.968"/>
	<path fill="#1F1A1A" d="M62.504,35.525c-0.698-0.795-1.565-1.221-2.611-1.29c-1.05-0.069-1.974,0.243-2.769,0.935
		c-0.794,0.697-1.221,1.564-1.288,2.611c-0.067,1.044,0.241,1.959,0.933,2.756c0.697,0.794,1.566,1.218,2.612,1.289
		c1.046,0.068,1.96-0.246,2.755-0.935c0.795-0.69,1.219-1.559,1.289-2.611C63.499,37.234,63.195,36.32,62.504,35.525"/>
	<path fill="#1F1A1A" d="M42.32,41.059c-0.698-0.796-1.567-1.221-2.61-1.291c-1.053-0.067-1.975,0.244-2.77,0.935
		c-0.796,0.697-1.22,1.565-1.289,2.612c-0.068,1.044,0.242,1.96,0.934,2.754c0.696,0.798,1.564,1.22,2.611,1.289
		c1.045,0.071,1.959-0.241,2.756-0.931c0.794-0.691,1.219-1.561,1.29-2.613C43.315,42.769,43.012,41.854,42.32,41.059"/>
	<path fill="#C06513" d="M57.562,21.083c-0.489-0.498-1.104-0.451-1.837,0.145c-2.845,2.397-5.444,4.936-7.8,7.598
		c-0.483,0.549-0.901,0.752-1.275,0.616c-4.54-1.605-7.593-2.563-9.18-2.867c-1.614-0.312-2.642-0.139-3.08,0.536
		c-0.451,0.66-0.491,1.354-0.11,2.099c-5.285,1.664-9.021,3.694-11.22,6.088c-2.19,2.374-3.263,3.91-3.219,4.618
		c0.032,0.694,1.049,0.75,3.049,0.156c-1.358,1.86-2.317,3.922-2.866,6.191c-0.269,1.102-0.308,1.912-0.11,2.436
		c0.026,0.066,0.061,0.129,0.099,0.201c0.019,0.039,0.047,0.07,0.063,0.101c0.042,0.052,0.096,0.083,0.149,0.114
		c0.14,0.082,0.29,0.133,0.455,0.169c0.203,0.048,0.418,0.062,0.628,0.061c0.167,0.021,0.341,0.018,0.514,0.017
		c3.141-0.142,6.041-1.084,8.679-2.831c-0.654-2.913-0.464-5.46,0.577-7.66c1.024-2.197,2.678-3.325,4.956-3.363
		c1.785-0.034,3.388,0.138,4.804,0.515l2.155,0.705c1.386,0.475,2.521,0.772,3.402,0.892c0.868,0.12,1.871,0.016,3.005-0.306
		c1.154-0.318,2.318-1.042,3.5-2.17c1.18-1.135,2.055-1.98,2.627-2.536c0.661-0.625,1.389-1.246,2.182-1.851
		c0.982-0.722,1.993-1.292,3.031-1.707c1.668-0.667,3.107-0.771,4.317-0.304c0.6,0.232,1.149,0.612,1.647,1.144
		c0.515,0.527,0.968,1.098,1.378,1.707c0.754,1.175,1.242,2.628,1.459,4.348c3.323,0.135,6.683-0.491,10.07-1.894
		c1.002-0.396,1.464-0.921,1.377-1.58c-0.055-0.713-0.698-1.553-1.912-2.512c-1.807-1.437-3.587-2.572-5.338-3.386
		c0.516-0.058,1.075-0.272,1.697-0.639c1.372-0.833,1.225-1.585-0.459-2.255c-6.249-2.403-11.721-2.802-16.402-1.2
		C58.342,21.984,58.008,21.519,57.562,21.083"/>
	<path fill="#AFB5D4" d="M48.587,131.405c0.357-4.001-1.133-5.927-4.48-5.779l-18.811-0.022c-2.693-0.119-4.381,0.885-5.057,3.031
		c-0.148,0.557-0.273,1.219-0.372,1.996c-0.079,0.416-0.151,1.191-0.214,2.348c-0.173,3.701-0.504,7.153-1.001,10.367
		c-0.369,3.992,1.132,5.911,4.497,5.764l18.81,0.023c3.321,0.17,5.169-1.754,5.536-5.754L48.587,131.405z M43.713,129.952
		c0.45,0.132,0.625,0.608,0.547,1.448l-1.093,11.975c-0.071,0.82-0.346,1.307-0.813,1.447l-18.812-0.023
		c-0.459-0.133-0.652-0.609-0.582-1.449l1.109-11.975c0.081-0.846,0.365-1.332,0.85-1.445L43.713,129.952z"/>
	
		<path fill="none" stroke="#737A90" stroke-width="1.4129" stroke-linecap="round" stroke-linejoin="round" stroke-miterlimit="10" d="
		M43.713,129.952l-18.794-0.022c-0.484,0.113-0.769,0.6-0.85,1.445l-1.107,11.975c-0.071,0.84,0.121,1.316,0.581,1.449l18.811,0.023
		c0.468-0.141,0.742-0.627,0.813-1.448l1.091-11.974C44.338,130.56,44.163,130.084,43.713,129.952z M48.587,131.405l-1.092,11.974
		c-0.367,4-2.216,5.924-5.536,5.754l-18.81-0.023c-3.365,0.147-4.866-1.771-4.497-5.764c0.498-3.214,0.828-6.666,1.001-10.367
		c0.062-1.156,0.135-1.932,0.214-2.348c0.099-0.777,0.224-1.439,0.372-1.996c0.676-2.146,2.363-3.15,5.057-3.031l18.811,0.022
		C47.454,125.479,48.945,127.404,48.587,131.405z"/>
	
		<rect x="30.019" y="120.023" transform="matrix(-0.0012 1 -1 -0.0012 161.3891 92.6672)" fill="#C5CDE3" width="8.797" height="13.813"/>
	
		<rect x="27.511" y="122.531" transform="matrix(1 0.0011 -0.0011 1 0.1436 -0.0388)" fill="none" stroke="#737A90" stroke-width="1.4129" stroke-linecap="round" stroke-linejoin="round" stroke-miterlimit="10" width="13.813" height="8.793"/>
	<path fill="#AFB5D4" d="M101.95,107.25c-0.697-0.608-1.545-0.912-2.543-0.913l-2.632-0.028c-1.924,0.147-3.946,0.24-6.075,0.267
		c-1.088,0.019-2.19,0.024-3.322,0.023c-7.531-0.141-12.531-0.253-14.977-0.317l-21.848-0.265
		c-4.699-0.104-9.988-0.048-15.881,0.158c-1.342,0.043-2.711,0.103-4.114,0.164c-1.802,0.042-3.453,0.04-4.962-0.006l-2.457-0.075
		l-0.354-0.007c-0.988-0.001-1.843,0.295-2.562,0.905c-0.487,0.432-0.795,0.936-0.945,1.493c-0.062,0.238-0.101,0.679-0.102,1.342
		v1.598c-0.002,0.998,0.341,1.846,1.037,2.543c0.715,0.707,1.731,1.099,3.038,1.173h0.008c2.871,0.171,5.74,0.235,8.63,0.185
		c1.296-0.024,3.603-0.111,6.923-0.273c4.408-0.074,8.771-0.069,13.088,0.018l17.812,0.018c2.703,0.151,5.406,0.146,8.106-0.035
		c2.597-0.023,5.196-0.073,7.793-0.132c2.657-0.067,5.315-0.047,7.975,0.053c1.059,0.03,2.117,0.056,3.175,0.083
		c0.205,0,0.418,0.001,0.618,0.012c0.532,0.017,1.134,0.035,1.805,0.053l0.045,0.002h0.167c0.999,0,1.847-0.354,2.544-1.057
		c0.707-0.698,1.062-1.543,1.063-2.543l0.004-2.184C103.009,108.63,102.656,107.879,101.95,107.25"/>
	<path fill="#C5CDE3" d="M97.381,115.23c-0.2-0.011-0.413-0.012-0.616-0.012c-1.06-0.027-2.118-0.053-3.177-0.083
		c-2.659-0.1-5.319-0.12-7.975-0.053c-2.599,0.059-5.194,0.108-7.793,0.132c-2.7,0.182-5.403,0.187-8.107,0.035l-17.812-0.018
		c-4.316-0.087-8.682-0.092-13.088-0.018c-3.32,0.162-5.625,0.249-6.923,0.273c-2.89,0.051-5.759-0.014-8.63-0.186
		c0.098,0.9,0.177,1.916,0.229,3.037l0.049,3.436c0,0.113,0,0.239-0.01,0.361c-0.037,1.591-0.056,3.109-0.051,4.551l0.203,8.865
		c0.05,0.732,0.104,1.439,0.164,2.11l0.068,1.465c0.15,2.446,0.304,4.743,0.472,6.872c0.032,0.416,0.067,0.822,0.104,1.217
		c0.078,1.037,0.146,2.097,0.208,3.184c0.025,0.468,0.035,0.943,0.035,1.43l-0.002,0.335c-0.021,0.937-0.064,1.865-0.145,2.794
		c-0.027,0.271-0.043,0.534-0.072,0.791v0.055c-0.098,0.785-0.188,1.578-0.268,2.363c-0.117,1-0.196,1.997-0.224,3.004
		c-0.01,0.124-0.01,0.249-0.01,0.372c-0.008,0.22,0,0.44,0.018,0.661c0.008,0.24,0.034,0.478,0.069,0.716
		c0.184,1.097,0.456,2.183,0.809,3.251c0.167,0.538,0.359,1.087,0.598,1.626c0.143,0.327,0.484,1.742,1.038,4.241
		c0.228,0.803,0.29,1.546,0.185,2.225c-0.109,0.662-0.374,1.264-0.808,1.8c-0.247,0.317-0.443,0.718-0.583,1.183
		c-0.258,0.838-0.356,1.936-0.288,3.286c0.026,0.556,0.08,1.167,0.157,1.818l0.987,17.399l-0.003,2.518
		c0.212,0.027,0.424,0.064,0.626,0.108c0.637,0.158,1.272,0.327,1.898,0.513c0.663,0.027,1.315,0.045,1.979,0.072
		c0.557,0.062,1.119,0.1,1.677,0.109c0.052,0,0.105,0,0.157,0.01c0.618,0.008,1.236,0.009,1.864,0
		c0.565-0.008,1.132-0.025,1.697-0.052c0.619-0.023,1.228-0.041,1.829-0.05c0.572-0.009,1.146,0.002,1.712,0.027
		c0.557,0.029,1.104,0.049,1.64,0.051c0.646-0.012,1.293-0.029,1.955-0.062c0.415-0.026,0.83-0.042,1.246-0.071
		c1.402-0.096,2.552-0.269,3.443-0.516c1.467-0.414,3.304-0.111,5.509,0.918c0.469,0.219,0.962,0.467,1.466,0.749
		c2.851,1.61,5.701,1.79,8.548,0.549c0.229-0.096,0.469-0.192,0.707-0.274c2.729-0.808,5.468-1.529,8.234-2.152
		c0.113-0.037,0.22-0.069,0.333-0.104c0.329-0.107,0.665-0.194,0.992-0.256c0.671-0.131,1.342-0.176,2.012-0.131
		c0.204,0.018,0.416,0.053,0.618,0.105c0.671,0.135,1.334,0.355,1.995,0.647c0.416,0.134,0.838,0.223,1.273,0.284
		c1.826,0.338,2.815,0.518,2.966,0.542c1.202,0.177,2.154,0.269,2.852,0.269c1.157,0.001,2.357-0.051,3.587-0.148
		c0.75-0.061,2.022-0.182,3.799-0.381l2.966-0.094l0.003-2.262c-0.009-0.282-0.008-0.564-0.009-0.838
		c0.045-7.312,0.353-14.732,0.926-22.256c0.415-3.973,0.636-6.983,0.683-9.031c0.02-0.91,0.002-1.635-0.05-2.164
		c-0.087-0.91-0.139-1.67-0.165-2.279c-0.026-0.54-0.017-0.954,0.01-1.254c0.053-0.477,0.188-1.008,0.39-1.59
		c0.071-0.194,0.15-0.396,0.231-0.598c0.965-2.041,1.523-3.592,1.677-4.661c0.054-0.409,0.054-0.743-0.01-1.009
		c-0.254-0.998-0.597-1.795-1.022-2.369c-0.369-0.485-0.563-1.598-0.587-3.346c-0.011-0.381,0.001-0.777,0.009-1.209l0.074-2.14
		v-0.069c-0.008-8.912,0.311-17.678,0.949-26.316c0.09-1.236,0.189-2.658,0.305-4.258C98.512,115.266,97.911,115.247,97.381,115.23"
		/>
	<polygon fill="#AFB5D4" points="22.786,106.25 23.14,106.257 22.937,106.25 	"/>
	<path fill="#C5CDE3" d="M23.491,118.34c-0.056-1.121-0.133-2.137-0.23-3.037h-0.008c0.096,0.98,0.175,1.949,0.225,2.913
		C23.478,118.252,23.478,118.297,23.491,118.34"/>
	<path fill="#AFB5D4" d="M53.424,203.326c-2.205-1.029-4.042-1.332-5.509-0.918c-0.892,0.248-2.041,0.42-3.444,0.516
		c-0.415,0.028-0.829,0.045-1.244,0.071c-0.663,0.032-1.31,0.05-1.954,0.062c-0.538-0.002-1.085-0.021-1.642-0.051
		c-0.565-0.025-1.14-0.036-1.714-0.027c-0.599,0.009-1.208,0.024-1.827,0.05c-0.565,0.026-1.132,0.044-1.696,0.052
		c-0.628,0.009-1.247,0.008-1.865,0c-0.052-0.01-0.105-0.01-0.157-0.01c-0.556-0.01-1.12-0.047-1.677-0.109
		c-0.664-0.027-1.316-0.045-1.979-0.072c-0.343,0.01-0.679,0.027-1.015,0.033c-0.504,0.027-1.008,0.045-1.51,0.07
		c-0.135,0.008-0.275,0.008-0.414,0.016c-0.152,0.009-0.301,0.009-0.451,0.009c-1.424,0.696-2.141,1.837-2.143,3.425l-0.004,2.738
		c-0.001,0.998,0.309,1.846,0.934,2.543c0.644,0.709,1.422,1.062,2.312,1.063l69.098,0.081c0.908,0,1.669-0.352,2.297-1.057
		c0.636-0.699,0.955-1.547,0.957-2.543l0.004-2.739c0.001-0.997-0.317-1.854-0.951-2.562c-0.574-0.636-1.254-0.982-2.058-1.035
		l-2.966,0.094c-1.776,0.199-3.049,0.321-3.799,0.383c-1.229,0.096-2.43,0.146-3.587,0.147c-0.697-0.001-1.651-0.093-2.853-0.27
		c-0.148-0.025-1.139-0.204-2.965-0.544c-0.434-0.06-0.855-0.148-1.273-0.282c-0.661-0.292-1.324-0.513-1.995-0.647
		c-0.201-0.053-0.414-0.088-0.618-0.105c-0.67-0.045-1.341,0-2.012,0.131c-0.327,0.062-0.663,0.148-0.991,0.256
		c-0.113,0.034-0.221,0.066-0.334,0.104c-2.767,0.622-5.505,1.345-8.235,2.152c-0.237,0.082-0.477,0.179-0.706,0.274
		c-2.847,1.241-5.697,1.062-8.548-0.549C54.386,203.793,53.893,203.545,53.424,203.326"/>
	
		<path fill="none" stroke="#737A90" stroke-width="1.4129" stroke-linecap="round" stroke-linejoin="round" stroke-miterlimit="10" d="
		M23.261,115.303h-0.008c-1.307-0.073-2.323-0.465-3.038-1.172c-0.694-0.697-1.039-1.545-1.037-2.543l0.001-1.598
		c0.001-0.663,0.037-1.104,0.101-1.342c0.15-0.558,0.458-1.061,0.945-1.493c0.719-0.61,1.573-0.907,2.562-0.905l0.354,0.007
		l2.457,0.075c1.509,0.046,3.16,0.048,4.961,0.006c1.404-0.061,2.773-0.12,4.115-0.164c5.893-0.207,11.182-0.262,15.881-0.158
		l21.847,0.265c2.446,0.064,7.446,0.176,14.978,0.317c1.132,0.001,2.234-0.004,3.322-0.023c2.129-0.026,4.151-0.12,6.075-0.267
		l2.63,0.028c1,0.001,1.848,0.303,2.545,0.913c0.706,0.629,1.059,1.38,1.059,2.252l-0.004,2.184c-0.002,1-0.356,1.845-1.063,2.543
		c-0.697,0.703-1.545,1.057-2.544,1.057H99.23l-0.046-0.002 M99.185,115.283c-0.67-0.018-1.273-0.036-1.804-0.053
		c-0.2-0.011-0.414-0.012-0.618-0.012c-1.058-0.027-2.116-0.053-3.175-0.083c-2.659-0.1-5.318-0.12-7.975-0.053
		c-2.599,0.059-5.196,0.108-7.793,0.132c-2.7,0.182-5.403,0.187-8.107,0.035l-17.812-0.018c-4.316-0.087-8.682-0.092-13.088-0.018
		c-3.319,0.162-5.625,0.249-6.923,0.273c-2.89,0.051-5.759-0.014-8.63-0.186 M95.771,202.932l0.003-2.262
		c-0.01-0.282-0.009-0.564-0.01-0.838c0.046-7.312,0.354-14.732,0.928-22.256c0.414-3.973,0.635-6.983,0.681-9.031
		c0.022-0.91,0.001-1.635-0.05-2.164c-0.086-0.91-0.14-1.67-0.164-2.279c-0.026-0.54-0.016-0.954,0.01-1.254
		c0.053-0.477,0.188-1.008,0.39-1.59c0.071-0.194,0.152-0.396,0.229-0.598c0.967-2.041,1.525-3.592,1.679-4.661
		c0.054-0.409,0.054-0.743-0.01-1.009c-0.254-0.998-0.597-1.795-1.021-2.369c-0.371-0.485-0.562-1.598-0.588-3.346
		c-0.012-0.381,0-0.777,0.008-1.209l0.074-2.14v-0.069c-0.008-8.912,0.312-17.678,0.949-26.316c0.09-1.236,0.189-2.658,0.305-4.258
		 M22.937,106.25l2.534-0.016 M23.261,115.303c0.098,0.9,0.175,1.916,0.23,3.037l0.047,3.436c0,0.113,0,0.239-0.01,0.361
		c-0.037,1.591-0.059,3.109-0.051,4.551l0.203,8.865c0.051,0.732,0.104,1.439,0.164,2.11l0.068,1.465
		c0.15,2.446,0.304,4.743,0.472,6.872c0.033,0.416,0.067,0.822,0.104,1.217c0.078,1.037,0.146,2.097,0.208,3.184
		c0.025,0.468,0.035,0.943,0.035,1.43l-0.002,0.335c-0.02,0.937-0.064,1.865-0.145,2.794c-0.027,0.271-0.044,0.534-0.07,0.791v0.055
		c-0.1,0.785-0.19,1.578-0.27,2.363c-0.117,1-0.196,1.997-0.224,3.004c-0.01,0.124-0.01,0.249-0.01,0.372
		c-0.01,0.22,0,0.44,0.017,0.661c0.01,0.24,0.035,0.478,0.07,0.716c0.184,1.097,0.456,2.183,0.809,3.251
		c0.167,0.538,0.361,1.087,0.598,1.626c0.143,0.327,0.484,1.742,1.039,4.241c0.229,0.803,0.289,1.546,0.184,2.225
		c-0.109,0.662-0.374,1.264-0.808,1.8c-0.247,0.317-0.443,0.717-0.583,1.183c-0.258,0.838-0.355,1.936-0.288,3.286
		c0.026,0.556,0.077,1.167,0.159,1.818l0.985,17.399l-0.002,2.518 M95.771,202.932l-2.966,0.094
		c-1.776,0.199-3.049,0.32-3.799,0.381c-1.229,0.098-2.43,0.149-3.587,0.148c-0.697,0-1.651-0.092-2.852-0.269
		c-0.149-0.025-1.14-0.204-2.966-0.544c-0.434-0.06-0.855-0.148-1.273-0.282c-0.66-0.292-1.324-0.513-1.995-0.647
		c-0.201-0.053-0.413-0.088-0.618-0.105c-0.67-0.045-1.342,0-2.012,0.131c-0.327,0.062-0.663,0.148-0.991,0.256
		c-0.113,0.034-0.221,0.066-0.334,0.104c-2.767,0.623-5.505,1.345-8.235,2.152c-0.236,0.082-0.478,0.179-0.706,0.274
		c-2.845,1.241-5.697,1.062-8.548-0.549c-0.504-0.282-0.997-0.53-1.466-0.749c-2.205-1.029-4.042-1.332-5.511-0.918
		c-0.89,0.248-2.039,0.42-3.441,0.516c-0.416,0.028-0.831,0.045-1.246,0.071c-0.662,0.032-1.309,0.05-1.953,0.062
		c-0.538-0.002-1.085-0.021-1.641-0.051c-0.566-0.025-1.141-0.036-1.713-0.027c-0.602,0.009-1.21,0.026-1.829,0.05
		c-0.565,0.026-1.132,0.044-1.697,0.052c-0.627,0.009-1.246,0.008-1.864,0c-0.052-0.01-0.105-0.01-0.157-0.01
		c-0.556-0.01-1.122-0.047-1.677-0.109c-0.664-0.027-1.316-0.045-1.979-0.072c-0.343,0.01-0.68,0.027-1.015,0.033
		c-0.504,0.027-1.008,0.045-1.51,0.072c-0.133,0.006-0.273,0.006-0.414,0.014c-0.152,0.009-0.301,0.009-0.453,0.009
		c-1.424,0.696-2.14,1.837-2.142,3.425l-0.003,2.738c-0.001,0.998,0.309,1.846,0.934,2.543c0.644,0.709,1.422,1.063,2.312,1.064
		l69.098,0.08c0.908,0,1.669-0.352,2.297-1.057c0.636-0.699,0.955-1.547,0.957-2.543l0.004-2.739
		c0.001-0.997-0.317-1.854-0.951-2.562C97.255,203.331,96.575,202.984,95.771,202.932z"/>
	<path fill="#AFB5D4" d="M91.021,119.743h-0.019c-1.061-0.028-1.979,0.829-2.759,2.56c-0.822,1.703-1.258,3.766-1.296,6.197
		l-0.175,28.437c-0.547,1.243-0.922,2.683-1.108,4.308c-0.09,0.725-0.143,1.483-0.152,2.279c-0.101,2.048,0.153,3.662,0.753,4.838
		l-0.697,22.785c-0.037,2.145,0.287,3.982,0.967,5.529c0.669,1.521,1.505,2.281,2.504,2.282h0.019
		c0.96,0.001,1.826-0.755,2.58-2.274c0.743-1.545,1.144-3.383,1.21-5.529l0.329-26.881c-0.519-0.415-0.792-1.42-0.826-3.021
		c-0.009-0.221-0.009-0.449,0-0.689l1.191-5.846l1.071-26.209c0.049-2.429-0.269-4.496-0.964-6.199
		C92.954,120.576,92.079,119.718,91.021,119.743"/>
	<path fill="#AFB5D4" d="M81.194,122.295c-0.711-1.732-1.604-2.59-2.662-2.566h-0.018c-1.062-0.027-1.971,0.828-2.725,2.56
		c-0.777,1.703-1.188,3.767-1.225,6.197l-0.359,34.919l-0.802,6.321c-0.15,0.776-0.03,2.112,0.387,4.011l0.031,17.396
		c-0.038,2.148,0.296,3.985,1.001,5.532c0.668,1.519,1.506,2.279,2.521,2.279h0.019c0.952,0.002,1.811-0.756,2.563-2.273
		c0.72-1.545,1.107-3.381,1.172-5.528l-0.064-20.754c-0.601-1.386-0.808-2.978-0.629-4.751l1.225-6.854l0.584-30.29
		C82.243,126.063,81.899,123.998,81.194,122.295"/>
	<path fill="#AFB5D4" d="M69.043,122.279c-0.73-1.733-1.61-2.59-2.662-2.565h-0.017c-1.062-0.027-1.973,0.827-2.725,2.558
		c-0.777,1.704-1.17,3.77-1.172,6.2l-0.318,45.161l0.772,3.657c0.186,0.841,0.104,2.466-0.254,4.894l-0.345,8.936
		c-0.002,2.146,0.357,3.983,1.072,5.529c0.695,1.52,1.533,2.282,2.522,2.281h0.019c0.988,0.001,1.837-0.756,2.545-2.273
		c0.707-1.545,1.071-3.381,1.102-5.528l0.55-62.647C70.144,126.05,69.784,123.983,69.043,122.279"/>
	<path fill="#AFB5D4" d="M54.282,119.699c-1.069-0.026-1.971,0.83-2.707,2.557c-0.743,1.706-1.098,3.773-1.066,6.201l0.486,7.153
		l-0.32,2.296l0.635,33.771L51.886,175c0.414,1.491,0.121,3.691-0.874,6.586l-0.046,9.52c-0.011,2.148,0.349,3.986,1.09,5.53
		c0.705,1.521,1.559,2.28,2.557,2.282h0.02c0.979,0.001,1.82-0.757,2.527-2.275c0.71-1.545,1.064-3.381,1.067-5.527l0.169-10.278
		l0.41-3.409l-0.632-2.351l-0.053-46.612c0.003-2.428-0.374-4.496-1.124-6.202c-0.738-1.729-1.639-2.589-2.699-2.563H54.282z"/>
	<path fill="#AFB5D4" d="M42.589,119.687h-0.018c-1.068-0.028-1.971,0.827-2.689,2.558c-0.732,1.704-1.072,3.771-1.013,6.199
		l1.388,6.908l-0.993,3.195l0.864,31.477c0.606,2.41,0.914,4.744,0.91,6.995l-0.8,3.584l-0.347,10.493
		c0.025,2.146,0.411,3.982,1.16,5.528c0.73,1.519,1.576,2.28,2.558,2.281h0.017c0.99,0,1.83-0.758,2.513-2.274
		c0.681-1.545,1.019-3.38,0.995-5.53l-0.449-8.53c-0.025-0.908,0.037-1.607,0.179-2.1c0.133-0.494,0.239-0.822,0.335-0.99
		c0.081-0.168,0.169-0.363,0.251-0.582c0.255-0.67,0.379-1.352,0.372-2.048c0.001-0.495-0.043-0.981-0.138-1.468
		c-0.151-0.778-0.346-1.543-0.584-2.314l-0.349-2.207l-0.389-31.76c0.709-1.668,1.107-2.902,1.188-3.689l-0.508-2.773l-0.526-4.186
		c-0.041-2.43-0.445-4.496-1.211-6.203C44.53,120.52,43.622,119.66,42.589,119.687"/>
	<path fill="#AFB5D4" d="M30.843,119.673l-0.018-0.001c-1.068-0.026-1.952,0.829-2.635,2.561c-0.717,1.703-1.056,3.396-1.014,5.085
		c-0.044,0.282-0.062,0.555-0.035,0.829c0.078,0.637,0.307,1.203,0.67,1.698c0.396,0.539,0.67,1.157,0.809,1.837
		c0.062,0.273,0.134,0.664,0.213,1.184c-0.312,0.837-0.596,1.793-0.853,2.877l-0.407,1.642l1.517,33.491l1.39,3.746
		c0.483,1.406,0.342,2.721-0.43,3.957c-0.645,0.751-1.017,2.277-1.1,4.574c0.243,2.436,0.197,5.078-0.132,7.93
		c0.04,2.145,0.443,3.982,1.192,5.529c0.751,1.52,1.633,2.279,2.632,2.279h0.015c0.964,0.002,1.796-0.756,2.478-2.273
		c0.664-1.544,0.975-3.381,0.942-5.527l-0.184-9.75c0.665-2.887,0.872-4.902,0.626-6.041l-0.686-3.568l-1.462-33.312
		c-0.008-0.354,0.124-0.768,0.406-1.236c0.285-0.469,0.595-1.271,0.938-2.4c0.082-0.317,0.153-0.559,0.215-0.723l-1.037-4.631
		c-0.104-0.539-0.166-1.147-0.174-1.82c0.045-1.871-0.323-3.664-1.106-5.371C32.812,120.505,31.895,119.648,30.843,119.673"/>
	<path fill="#AFB5D4" d="M101.511,137.243l-0.225-6.219c-0.277-4.001-2.086-5.929-5.413-5.78l-18.813-0.023
		c-1.861-0.082-3.151,0.438-3.869,1.568c-0.15,0.344-0.282,0.688-0.391,1.043c-0.114,0.395-0.186,0.812-0.194,1.234
		c-0.01,0.564,0.019,1.121,0.086,1.678c0.069,0.523,0.115,1.035,0.122,1.537c0.009,0.705,0.035,1.404,0.068,2.103
		c0.034,0.636,0.078,1.271,0.12,1.908c0.011,0.149,0.027,0.309,0.036,0.456l0.541,6.926c0.068,0.777,0.217,1.537,0.438,2.279
		c0.062,0.188,0.124,0.381,0.193,0.566c0.767,1.354,1.984,2.096,3.671,2.21c2.331-0.065,4.663-0.019,6.995,0.136
		c1.051,0.008,2.198,0.062,3.443,0.143c1.775,0.082,3.655,0.108,5.635,0.078c0.893-0.071,1.793-0.132,2.702-0.191
		c0.425-0.035,0.857-0.078,1.288-0.122c0.381-0.034,0.753-0.07,1.132-0.104c2.262-0.465,3.28-2.354,3.045-5.666L101.511,137.243z
		 M96.168,129.57c0.47,0.134,0.73,0.611,0.791,1.45c0.499,3.454,0.778,7.128,0.818,11.04c0.148,1.023,0.04,1.775-0.321,2.261
		c-0.023,0.034-0.051,0.062-0.088,0.087c-3.894,0.553-7.313,0.734-10.244,0.556c-2.931-0.181-4.991-0.29-6.165-0.327
		c-1.193-0.045-2.093-0.136-2.701-0.251l-0.371-0.353c-0.149-0.248-0.246-0.601-0.28-1.06l-0.699-7.914l-0.136-4.062
		c-0.062-0.85,0.135-1.334,0.585-1.449L96.168,129.57z"/>
	
		<path fill="none" stroke="#737A90" stroke-width="1.4129" stroke-linecap="round" stroke-linejoin="round" stroke-miterlimit="10" d="
		M101.286,131.024c-0.277-4.001-2.086-5.929-5.413-5.78l-18.813-0.023c-1.861-0.082-3.151,0.438-3.869,1.568
		c-0.15,0.344-0.282,0.688-0.391,1.043c-0.114,0.395-0.186,0.812-0.194,1.234c-0.01,0.564,0.019,1.121,0.086,1.678
		c0.069,0.523,0.115,1.035,0.122,1.537c0.009,0.705,0.035,1.404,0.068,2.103c0.034,0.636,0.078,1.271,0.12,1.908
		c0.011,0.149,0.027,0.309,0.036,0.456l0.541,6.926c0.068,0.777,0.217,1.537,0.438,2.279c0.062,0.188,0.124,0.381,0.193,0.566
		c0.767,1.354,1.984,2.096,3.671,2.21c2.331-0.065,4.663-0.019,6.995,0.136c1.051,0.008,2.198,0.062,3.443,0.143
		c1.775,0.082,3.655,0.108,5.635,0.078c0.893-0.071,1.793-0.132,2.702-0.191c0.425-0.035,0.857-0.078,1.288-0.122
		c0.381-0.034,0.753-0.07,1.132-0.104c2.262-0.465,3.28-2.354,3.045-5.666l-0.61-5.759L101.286,131.024z M96.168,129.57
		l-18.812-0.021c-0.45,0.115-0.646,0.6-0.585,1.447l0.136,4.063l0.699,7.914c0.034,0.459,0.131,0.812,0.28,1.06l0.371,0.353
		c0.608,0.115,1.508,0.206,2.701,0.249c1.174,0.038,3.234,0.148,6.165,0.329c2.931,0.179,6.351-0.003,10.244-0.556
		c0.037-0.025,0.064-0.053,0.088-0.087c0.361-0.485,0.47-1.237,0.321-2.261c-0.04-3.912-0.319-7.586-0.818-11.04
		C96.898,130.182,96.638,129.704,96.168,129.57z"/>
	<path fill="#C5CDE3" d="M93.896,124.533c-0.034-0.817-0.539-1.244-1.519-1.254l-6.605-0.043c-1.229-0.055-2.367-0.064-3.41-0.04
		c-1.315-0.028-2.092,0.216-2.323,0.737c-0.134,1.178-0.161,2.527-0.066,4.045l0.031,3.959c0.14,0.113,0.272,0.201,0.404,0.246
		c0.611,0.107,1.212,0.145,1.802,0.109h0.143l0.247,0.001c2.64,0.012,5.21,0.031,7.719,0.043l3.232,0.058
		c0.274-0.664,0.398-1.317,0.391-1.98L93.896,124.533z"/>
	
		<path fill="none" stroke="#737A90" stroke-width="1.4129" stroke-linecap="round" stroke-linejoin="round" stroke-miterlimit="10" d="
		M92.377,123.279l-6.605-0.043c-1.229-0.055-2.367-0.064-3.41-0.04c-1.315-0.028-2.092,0.216-2.323,0.737
		c-0.133,1.178-0.161,2.527-0.066,4.045l0.031,3.959c0.14,0.113,0.272,0.201,0.406,0.246c0.609,0.107,1.209,0.145,1.8,0.109h0.143
		l0.249,0.001c2.638,0.012,5.208,0.031,7.717,0.043l3.23,0.058c0.277-0.664,0.4-1.317,0.395-1.979l-0.047-5.883
		C93.862,123.716,93.357,123.289,92.377,123.279z"/>
	<path fill="#245E27" d="M66.696,89.913c0.85-0.165,1.979-0.288,3.372-0.38c0.039-0.012,0.058-0.012,0.085,0
		c1.234,0.029,2.533,0.175,3.896,0.437l0.025-0.008c2.479,0.52,4.806,1.304,6.978,2.342c2.232,1.062,4.131,2.381,5.711,3.95
		l-0.018-0.008c1.61,1.545,2.902,3.302,3.858,5.274l-0.007,0.016c0.956,1.952,1.601,4.003,1.957,6.15
		c0.355,2.16,0.362,4.35,0.015,6.58c-0.354,2.307-1.436,4.309-3.229,6.014l0.009-0.016c-1.006,0.977-2.067,1.421-3.189,1.334
		c-0.828-0.028-1.69-0.371-2.589-1.022c-0.545,0.796-1.238,1.497-2.067,2.098c-2.405,1.721-4.699,1.835-6.885,0.349
		c-1.989-1.34-3.05-3.194-3.188-5.55c-1.501,1.175-3.336,1.607-5.503,1.29l0.017,0.006c-1.616-0.193-2.893-0.918-3.818-2.162
		c-1.616-2.125-2.117-4.492-1.502-7.082c0.507-2.158,1.363-4.166,2.567-6.027c0.089-0.151,0.188-0.3,0.298-0.444
		c-0.176,0.036-0.34,0.069-0.51,0.096c-0.607,0.142-1.203,0.182-1.8,0.13c-0.532-0.038-1.102-0.144-1.703-0.329
		c-0.534-0.194-1.038-0.465-1.497-0.799c-0.73-0.573-1.097-1.338-1.126-2.287l-0.007-0.024c-0.023-0.72,0.059-1.414,0.251-2.091
		l-0.007-0.023c0.185-0.583,0.405-1.142,0.656-1.674c0.006-0.008,0.014-0.024,0.019-0.031c0.252-0.477,0.542-0.944,0.86-1.387
		l0.009-0.018c0.458-0.61,1.009-1.174,1.621-1.677l-0.011,0.013c0.592-0.505,1.22-0.943,1.908-1.318
		c0.014-0.004,0.029-0.015,0.033-0.024c0.667-0.393,1.376-0.727,2.137-1l0.008-0.015C65.113,90.304,65.897,90.079,66.696,89.913
		 M73.752,91.324l0.015,0.006c-1.262-0.236-2.477-0.381-3.637-0.417c-1.294,0.078-2.339,0.201-3.13,0.355l0.019,0.006
		c-0.711,0.141-1.428,0.35-2.125,0.621l-0.016-0.007c-0.672,0.246-1.308,0.556-1.902,0.913l-0.027,0.011
		c-0.604,0.333-1.169,0.711-1.7,1.16c-0.003,0.006-0.019,0.019-0.03,0.024c-0.488,0.348-0.903,0.759-1.239,1.233
		c-0.425,0.583-0.765,1.17-1.032,1.754c-0.281,0.607-0.482,1.223-0.607,1.852c-0.117,0.537-0.056,1.047,0.197,1.519
		c0.351,0.595,0.832,1.048,1.449,1.357c0.504,0.23,1.135,0.341,1.887,0.337c0.758-0.013,1.318-0.069,1.667-0.152
		c0.348-0.083,0.539-0.133,0.576-0.145c0.608-0.147,1.722-0.588,3.331-1.326l-1.732,2.053c-0.998,1.172-1.814,2.454-2.459,3.852
		c-0.647,1.397-1.065,2.833-1.257,4.302c-0.202,1.58,0.103,3.072,0.912,4.455c0.14,0.229,0.275,0.464,0.407,0.689
		c0.026,0.01,0.037,0.026,0.043,0.036c0.68,0.9,1.601,1.427,2.774,1.571l0.017,0.009c0.65,0.093,1.255,0.097,1.819,0.036
		c1.928-0.43,3.365-1.448,4.331-3.059c0.521-0.885,1.15-2.108,1.867-3.676c-0.007,1.128-0.198,2.182-0.582,3.139
		c-0.354,0.96-0.559,1.709-0.61,2.256c-0.033,0.535-0.04,1.045-0.03,1.515c0.012,0.468,0.129,0.978,0.347,1.509
		c0.095,0.236,0.206,0.46,0.315,0.666c0.16,0.306,0.347,0.604,0.567,0.898c0.378,0.449,0.815,0.863,1.333,1.225
		c0.888,0.586,1.795,0.805,2.727,0.678c1.762-0.466,3.149-1.42,4.175-2.88c0.899-1.28,1.601-2.642,2.111-4.104
		c0.042-0.098,0.069-0.19,0.107-0.28c0.118-0.381,0.257-0.879,0.417-1.491l0.23,1.691c0.021,1.004-0.116,1.868-0.417,2.593
		c-0.294,0.717-0.472,1.129-0.533,1.245c0.03,0.024,0.045,0.052,0.066,0.07c0.864,0.788,1.846,0.985,2.953,0.568l0.276-0.164
		c0.229-0.138,0.445-0.312,0.648-0.519c1.57-1.487,2.508-3.238,2.815-5.234c0.327-2.094,0.323-4.155-0.022-6.178
		c-0.328-2.036-0.935-3.964-1.827-5.801c-0.876-1.83-2.065-3.463-3.563-4.887c-1.475-1.454-3.242-2.684-5.314-3.673
		C78.297,92.549,76.091,91.807,73.752,91.324"/>
	<path fill="#9EC94C" d="M73.767,91.331l-0.015-0.006c2.339,0.482,4.545,1.225,6.606,2.211c2.072,0.99,3.842,2.219,5.314,3.673
		c1.496,1.424,2.688,3.058,3.563,4.887c0.893,1.836,1.499,3.765,1.827,5.801c0.346,2.022,0.35,4.084,0.022,6.178
		c-0.308,1.996-1.245,3.747-2.815,5.234c-0.203,0.207-0.42,0.38-0.648,0.519l-0.276,0.164c-1.107,0.417-2.089,0.222-2.953-0.568
		c-0.021-0.019-0.036-0.046-0.066-0.07c0.062-0.116,0.239-0.529,0.533-1.245c0.301-0.725,0.436-1.589,0.417-2.593l-0.23-1.691
		c-0.16,0.612-0.299,1.11-0.417,1.491c-0.038,0.09-0.065,0.183-0.107,0.28c-0.511,1.462-1.212,2.823-2.111,4.104
		c-1.025,1.46-2.413,2.414-4.175,2.88c-0.932,0.125-1.839-0.092-2.727-0.678c-0.518-0.361-0.955-0.775-1.333-1.227
		c-0.221-0.293-0.407-0.591-0.567-0.896c-0.11-0.206-0.221-0.43-0.315-0.666c-0.218-0.532-0.335-1.041-0.347-1.509
		c-0.012-0.47-0.003-0.979,0.03-1.515c0.052-0.547,0.257-1.296,0.61-2.256c0.384-0.957,0.575-2.011,0.581-3.139
		c-0.717,1.567-1.346,2.791-1.866,3.676c-0.966,1.61-2.403,2.629-4.331,3.059c-0.564,0.061-1.169,0.057-1.819-0.036l-0.017-0.009
		c-1.174-0.145-2.095-0.671-2.774-1.571c-0.006-0.01-0.017-0.026-0.043-0.036c-0.132-0.226-0.268-0.461-0.407-0.689
		c-0.81-1.383-1.114-2.875-0.912-4.455c0.191-1.469,0.609-2.904,1.257-4.302c0.645-1.397,1.461-2.679,2.459-3.852l1.732-2.053
		c-1.609,0.738-2.723,1.179-3.331,1.326c-0.037,0.012-0.229,0.062-0.576,0.145c-0.349,0.083-0.908,0.139-1.667,0.152
		c-0.752,0.004-1.383-0.107-1.887-0.337c-0.617-0.309-1.099-0.762-1.449-1.357c-0.253-0.472-0.314-0.982-0.197-1.519
		c0.125-0.628,0.326-1.245,0.607-1.852c0.267-0.584,0.607-1.171,1.032-1.754c0.336-0.474,0.751-0.885,1.239-1.233
		c0.012-0.005,0.027-0.018,0.03-0.024c0.531-0.448,1.097-0.827,1.7-1.161l0.027-0.009c0.595-0.357,1.23-0.667,1.901-0.913
		l0.017,0.007c0.697-0.271,1.414-0.48,2.125-0.621L67,91.269c0.791-0.154,1.836-0.277,3.13-0.355
		C71.292,90.949,72.505,91.094,73.767,91.331"/>
	<path fill="#245E27" d="M47.902,90.384c-0.822-0.182-1.915-0.329-3.263-0.448c-0.035-0.013-0.057-0.015-0.082-0.002
		c-1.192,0.002-2.449,0.119-3.76,0.352l-0.025-0.007c-2.388,0.457-4.623,1.188-6.709,2.168c-2.141,1.006-3.956,2.27-5.457,3.789
		l0.016-0.007c-1.534,1.497-2.756,3.208-3.651,5.142l0.008,0.015c-0.895,1.915-1.485,3.931-1.797,6.047
		c-0.313,2.134-0.288,4.302,0.081,6.517c0.379,2.288,1.454,4.294,3.212,6.023l-0.007-0.015c0.985,0.986,2.016,1.45,3.102,1.389
		c0.801-0.01,1.626-0.334,2.485-0.959c0.54,0.801,1.222,1.51,2.031,2.121c2.348,1.754,4.567,1.918,6.656,0.494
		c1.905-1.287,2.903-3.101,3.001-5.43c1.466,1.193,3.246,1.662,5.336,1.392l-0.016,0.007c1.562-0.157,2.781-0.847,3.66-2.059
		c1.527-2.074,1.975-4.402,1.345-6.982c-0.522-2.148-1.38-4.153-2.569-6.02c-0.093-0.154-0.191-0.302-0.296-0.446
		c0.168,0.038,0.327,0.074,0.494,0.104c0.588,0.153,1.161,0.205,1.74,0.166c0.513-0.024,1.064-0.118,1.64-0.29
		c0.515-0.181,0.997-0.437,1.436-0.757c0.696-0.552,1.037-1.303,1.051-2.243l0.01-0.022c0.015-0.709-0.08-1.401-0.275-2.076
		l0.007-0.022c-0.186-0.583-0.41-1.138-0.66-1.67c-0.003-0.009-0.011-0.023-0.016-0.031c-0.249-0.478-0.537-0.946-0.854-1.394
		l-0.01-0.015c-0.451-0.616-0.991-1.184-1.59-1.697l0.009,0.015c-0.578-0.512-1.193-0.961-1.866-1.345
		c-0.011-0.005-0.026-0.016-0.03-0.025c-0.652-0.402-1.34-0.75-2.078-1.035l-0.01-0.014C49.44,90.804,48.679,90.567,47.902,90.384
		 M41.107,91.63l-0.017,0.007c1.216-0.207,2.39-0.328,3.511-0.337c1.25,0.107,2.264,0.251,3.029,0.421l-0.016,0.008
		c0.689,0.153,1.382,0.373,2.062,0.657l0.016-0.006c0.654,0.256,1.27,0.578,1.852,0.944l0.025,0.01
		c0.59,0.341,1.143,0.73,1.658,1.185c0.005,0.007,0.021,0.019,0.034,0.023c0.477,0.355,0.884,0.771,1.214,1.25
		c0.418,0.584,0.76,1.173,1.027,1.757c0.278,0.608,0.483,1.22,0.613,1.847c0.118,0.534,0.068,1.039-0.167,1.5
		c-0.331,0.582-0.789,1.018-1.383,1.311c-0.481,0.218-1.089,0.316-1.815,0.294c-0.734-0.029-1.278-0.096-1.615-0.185
		c-0.336-0.092-0.521-0.143-0.559-0.157c-0.592-0.159-1.673-0.622-3.24-1.385l1.708,2.072c0.979,1.182,1.787,2.469,2.433,3.866
		c0.646,1.397,1.071,2.827,1.281,4.288c0.218,1.568-0.055,3.039-0.818,4.391c-0.131,0.223-0.259,0.453-0.383,0.672
		c-0.024,0.012-0.036,0.027-0.038,0.037c-0.646,0.879-1.529,1.379-2.661,1.499l-0.016,0.009c-0.627,0.074-1.208,0.066-1.758-0.008
		c-1.867-0.465-3.271-1.504-4.232-3.119c-0.514-0.887-1.142-2.11-1.856-3.68c0.021,1.119,0.222,2.164,0.606,3.123
		c0.354,0.955,0.567,1.701,0.625,2.244c0.04,0.531,0.057,1.034,0.052,1.498c-0.004,0.469-0.11,0.967-0.312,1.49
		c-0.088,0.232-0.191,0.453-0.295,0.653c-0.151,0.3-0.326,0.589-0.534,0.874c-0.358,0.441-0.776,0.838-1.271,1.186
		c-0.852,0.561-1.722,0.76-2.625,0.615c-1.709-0.502-3.067-1.475-4.078-2.938c-0.887-1.292-1.586-2.653-2.105-4.109
		c-0.04-0.099-0.07-0.19-0.106-0.278c-0.12-0.381-0.262-0.879-0.424-1.49l-0.197,1.67c-0.005,0.994,0.14,1.855,0.441,2.578
		c0.296,0.717,0.473,1.129,0.535,1.244c-0.028,0.023-0.045,0.049-0.063,0.067c-0.824,0.766-1.77,0.934-2.846,0.503l-0.269-0.172
		c-0.225-0.141-0.437-0.312-0.636-0.525c-1.541-1.506-2.473-3.259-2.8-5.243c-0.348-2.079-0.376-4.12-0.071-6.116
		c0.287-2.009,0.844-3.905,1.678-5.706c0.822-1.792,1.947-3.385,3.372-4.764c1.401-1.406,3.094-2.588,5.079-3.527
		C36.734,92.746,38.854,92.061,41.107,91.63"/>
	<path fill="#9EC94C" d="M41.091,91.637l0.016-0.007c-2.254,0.431-4.372,1.116-6.354,2.048c-1.987,0.938-3.678,2.12-5.079,3.526
		c-1.425,1.379-2.55,2.973-3.372,4.764c-0.834,1.801-1.391,3.697-1.68,5.706c-0.303,1.996-0.274,4.037,0.072,6.116
		c0.328,1.984,1.26,3.737,2.801,5.243c0.199,0.213,0.412,0.385,0.636,0.525l0.269,0.172c1.074,0.431,2.02,0.263,2.846-0.503
		c0.019-0.019,0.035-0.044,0.063-0.067c-0.062-0.115-0.237-0.527-0.535-1.244c-0.302-0.723-0.446-1.584-0.441-2.578l0.197-1.67
		c0.162,0.611,0.304,1.109,0.424,1.488c0.036,0.09,0.066,0.182,0.106,0.28c0.517,1.456,1.218,2.817,2.104,4.109
		c1.011,1.464,2.37,2.438,4.079,2.938c0.903,0.145,1.775-0.055,2.625-0.615c0.494-0.348,0.912-0.744,1.269-1.186
		c0.209-0.285,0.385-0.574,0.536-0.874c0.104-0.2,0.207-0.421,0.295-0.653c0.201-0.523,0.308-1.021,0.314-1.49
		c0.003-0.464-0.015-0.967-0.055-1.498c-0.058-0.543-0.271-1.289-0.625-2.244c-0.385-0.959-0.586-2.004-0.606-3.123
		c0.715,1.569,1.341,2.793,1.856,3.68c0.961,1.615,2.365,2.654,4.232,3.119c0.549,0.074,1.131,0.082,1.758,0.008l0.016-0.009
		c1.132-0.12,2.015-0.62,2.661-1.498c0.002-0.011,0.014-0.026,0.038-0.038c0.124-0.217,0.252-0.449,0.381-0.672
		c0.766-1.352,1.038-2.822,0.818-4.393c-0.208-1.459-0.633-2.889-1.277-4.286c-0.647-1.397-1.455-2.684-2.435-3.866l-1.709-2.072
		c1.568,0.764,2.649,1.226,3.241,1.385c0.037,0.014,0.223,0.064,0.56,0.157c0.336,0.089,0.878,0.156,1.612,0.185
		c0.729,0.022,1.334-0.076,1.817-0.294c0.594-0.293,1.052-0.729,1.382-1.311c0.236-0.461,0.286-0.967,0.168-1.5
		c-0.13-0.626-0.334-1.239-0.613-1.847c-0.268-0.584-0.609-1.173-1.027-1.757c-0.33-0.478-0.737-0.895-1.214-1.25
		c-0.013-0.004-0.029-0.016-0.032-0.023c-0.518-0.455-1.07-0.844-1.66-1.185l-0.023-0.01c-0.584-0.366-1.2-0.688-1.854-0.944
		l-0.016,0.006c-0.68-0.284-1.372-0.503-2.062-0.657l0.015-0.008c-0.765-0.17-1.778-0.314-3.028-0.421
		C43.48,91.312,42.307,91.43,41.091,91.637L41.091,91.637z"/>
	<path fill="#C5CDE3" d="M51.12,0.761c-0.626,0.09-1.445,0.304-2.45,0.629c-2.512,0.916-4.915,1.559-7.202,1.937
		c-2.289,0.375-3.691,0.612-4.203,0.714c-0.087,0.017-0.183,0.037-0.276,0.059c-0.484,0.081-1.115,0.184-1.903,0.286
		c-4.043,0.546-6.712,1.159-8.025,1.828c-0.512,0.229-0.96,0.664-1.353,1.308c-0.061,0.1-0.114,0.202-0.159,0.296
		c-0.26,0.56-0.307,1.154-0.158,1.792c0.681,3.771,1.523,7.281,2.531,10.539c0.183,0.746,0.594,1.31,1.258,1.707
		c0.638,0.395,1.325,0.505,2.07,0.325c0.747-0.182,1.312-0.595,1.714-1.242c0.381-0.644,0.483-1.337,0.302-2.083
		c-1.015-2.649-1.701-5.431-2.074-8.367c2.08-0.647,4.24-1.086,6.478-1.327c5.036-0.794,9.019-1.662,11.951-2.588l1.891,7.87
		c0.183,0.747,0.595,1.312,1.256,1.697c0.642,0.404,1.329,0.517,2.074,0.336c0.728-0.178,1.302-0.594,1.708-1.226
		c0.379-0.657,0.487-1.354,0.306-2.1L54.403,2.88c-0.236-0.924-0.645-1.536-1.219-1.85C52.619,0.724,51.929,0.633,51.12,0.761"/>
	
		<path fill="none" stroke="#737A90" stroke-width="1.4095" stroke-linecap="round" stroke-linejoin="round" stroke-miterlimit="10" d="
		M51.12,0.761c0.809-0.128,1.499-0.038,2.064,0.269c0.574,0.314,0.982,0.926,1.219,1.85l2.45,10.268
		c0.182,0.746,0.073,1.443-0.306,2.1c-0.404,0.632-0.98,1.048-1.708,1.226c-0.745,0.181-1.433,0.068-2.074-0.336
		c-0.661-0.386-1.073-0.95-1.256-1.697l-1.891-7.87c-2.933,0.926-6.915,1.793-11.951,2.588c-2.237,0.241-4.397,0.68-6.478,1.327
		c0.373,2.936,1.06,5.718,2.074,8.367c0.182,0.746,0.079,1.439-0.302,2.083c-0.401,0.646-0.967,1.06-1.714,1.242
		c-0.745,0.18-1.433,0.07-2.07-0.325c-0.664-0.396-1.075-0.961-1.258-1.707C26.913,16.89,26.07,13.38,25.39,9.609
		c-0.148-0.637-0.102-1.231,0.158-1.792c0.045-0.094,0.099-0.196,0.159-0.296c0.393-0.644,0.841-1.079,1.353-1.308
		c1.313-0.669,3.982-1.282,8.025-1.828c0.788-0.102,1.419-0.205,1.903-0.286c0.094-0.021,0.189-0.042,0.276-0.059
		c0.512-0.102,1.914-0.339,4.203-0.714c2.287-0.378,4.69-1.021,7.202-1.937C49.675,1.065,50.494,0.852,51.12,0.761z"/>
	<path fill="#AFB5D4" d="M66.519,9.327c-10.98,1-19.26,2.603-24.843,4.807c-8.907,3.307-15.152,5.245-18.724,5.829
		c-3.575,0.597-7.408,1.702-11.49,3.33c-4.088,1.611-7.504,3.21-10.239,4.774c-0.827,2.149-0.665,4.606,0.5,7.363
		c0.007,0.019,0.013,0.044,0.029,0.065c0.038,0.089,0.067,0.192,0.101,0.301c0.037,0.146,0.076,0.309,0.125,0.489
		c0.118,0.541,0.186,1.094,0.214,1.639c0.154,1.563,0.524,2.648,1.111,3.27c8.165-3.297,16.192-6.271,24.076-8.932
		c3.836-1.282,7.014-2.282,9.545-3.009l7.21-2.096c7.533-2.333,12.836-3.631,15.918-3.912l13.576-1.462
		c4.852-0.488,9.635-0.57,14.368-0.25c0.213-0.873,0.046-2.197-0.493-3.957c-0.037-0.127-0.074-0.245-0.118-0.36
		c-0.181-0.562-0.331-1.022-0.455-1.399c-0.003-0.009-0.003-0.009-0.005-0.015c-0.078-0.226-0.138-0.421-0.191-0.567
		c-0.103-0.303-0.199-0.598-0.292-0.891c-0.397-1.212-0.728-2.237-1.008-3.054c-0.071-0.208-0.134-0.409-0.203-0.608
		c-0.206-0.575-0.404-1.103-0.603-1.604c-0.289-0.668-0.963-1.006-2.007-1.016C77.214,8.081,71.839,8.5,66.519,9.327"/>
	
		<path fill="none" stroke="#737A90" stroke-width="1.4095" stroke-linecap="round" stroke-linejoin="round" stroke-miterlimit="10" d="
		M66.519,9.327c5.32-0.827,10.695-1.246,16.103-1.269c1.044,0.01,1.718,0.348,2.007,1.016c0.198,0.502,0.396,1.03,0.603,1.604
		c0.069,0.2,0.132,0.4,0.203,0.608c0.28,0.817,0.61,1.841,1.008,3.054c0.093,0.293,0.189,0.588,0.292,0.891
		c0.054,0.146,0.113,0.341,0.191,0.567c0.002,0.006,0.002,0.006,0.005,0.015c0.124,0.377,0.274,0.837,0.455,1.399
		c0.044,0.116,0.081,0.233,0.118,0.36c0.539,1.76,0.706,3.084,0.493,3.957c-4.733-0.32-9.517-0.238-14.368,0.25l-13.576,1.462
		c-3.082,0.281-8.385,1.58-15.918,3.912l-7.21,2.096c-2.531,0.727-5.709,1.727-9.546,3.009c-7.883,2.661-15.91,5.635-24.075,8.932
		c-0.587-0.622-0.957-1.707-1.111-3.27c-0.028-0.545-0.096-1.098-0.214-1.639c-0.049-0.181-0.088-0.344-0.125-0.489
		c-0.033-0.108-0.062-0.211-0.101-0.301c-0.017-0.021-0.022-0.046-0.029-0.065c-1.165-2.756-1.327-5.214-0.501-7.363
		c2.736-1.563,6.152-3.163,10.24-4.774c4.082-1.627,7.915-2.733,11.49-3.33c3.571-0.584,9.816-2.522,18.724-5.829
		C47.259,11.929,55.538,10.326,66.519,9.327z"/>
</g>
</svg>
