<?xml version="1.0" encoding="utf-8"?>
<!-- Generator: Adobe Illustrator 16.0.0, SVG Export Plug-In . SVG Version: 6.00 Build 0)  -->
<!DOCTYPE svg PUBLIC "-//W3C//DTD SVG 1.1//EN" "http://www.w3.org/Graphics/SVG/1.1/DTD/svg11.dtd">
<svg version="1.1" xmlns="http://www.w3.org/2000/svg" xmlns:xlink="http://www.w3.org/1999/xlink" x="0px" y="0px"
	 width="135.676px" height="153.736px" viewBox="0 0 135.676 153.736" enable-background="new 0 0 135.676 153.736"
	 xml:space="preserve">

<g id="レイヤー_2">
	<g>
		
			<path fill="none" stroke="#245E27" stroke-width="1.9958" stroke-linecap="round" stroke-linejoin="round" stroke-miterlimit="10" d="
			M96.766,111.927c-5.033-11.257-6.68-25.629-4.93-43.096l-43.324,0.815c1.888,18.515-0.639,33.638-7.551,45.343
			c-0.018,0.011-0.043,0.035-0.059,0.074c-0.617,0.882-1.199,1.805-1.729,2.751c-4.224,7.144-6.573,15.321-7.061,24.525
			c-0.663,12.644,72.373,14.385,73.037,1.738c0.312-5.915-0.188-11.438-1.487-16.57c-0.685-2.612-1.595-5.064-2.759-7.349
			c-1.399-2.739-2.765-5.481-4.115-8.206L96.766,111.927z"/>
		<path fill="#9EC94C" d="M95.584,112.505c-0.037-0.051-0.072-0.103-0.098-0.166c-4.994-11.155-6.69-25.316-5.102-42.488
			L49.34,70.622c1.7,18.261-0.906,33.216-7.792,44.849c-0.04,0.039-0.067,0.087-0.097,0.138c-0.602,0.844-1.17,1.741-1.686,2.666
			l-0.001,0.022c-4.147,7.012-6.455,15.038-6.929,24.071c-0.651,12.394,70.307,14.082,70.961,1.688
			c0.307-5.815-0.178-11.239-1.458-16.286c-0.655-2.548-1.56-4.927-2.688-7.158l-0.001,0.015
			C98.275,117.908,96.912,115.194,95.584,112.505"/>
	</g>
	<g>
		<path fill="#9EC94C" d="M115.049,26.75c2.307-0.218,3.973-0.99,4.998-2.323c-2.314-0.316-4.814-1.572-7.527-3.771
			c-6.725-7.627-16.972-12.092-30.744-13.389c0.369-1.451,1.371-2.699,3.005-3.73c-3.631-0.697-7.814-0.396-12.585,0.9
			c-1.129-0.574-1.182-1.701-0.161-3.36c-4.727,0.124-9.202,2.06-13.396,5.786C52.991,4.936,47.22,4.37,41.336,5.153
			c2.722,0.867,4.45,2.086,5.181,3.662C38.164,9.94,30.284,13.706,22.86,20.11c-2.715,2.34-5.343,3.681-7.877,4.023
			c1.063,1.342,2.748,2.117,5.061,2.35c-5.079,7.049-9.322,10.912-12.718,11.586c1.217,1.381,3.125,2.135,5.705,2.266
			c-0.513,1.234-1.197,2.384-2.058,3.418c-0.42,0.512-0.879,0.986-1.375,1.448c-1.058,0.971-2.285,1.842-3.705,2.6
			c-1.294,0.711-2.744,1.329-4.335,1.875c1.539,2.429,4.865,3.364,9.979,2.817c-0.768,1.383-1.355,2.832-1.776,4.33
			c-0.379,1.348-0.542,2.721-0.484,4.119c0.038,1.365,0.305,2.678,0.784,3.938c0.467,1.227,1.166,2.455,2.073,3.68
			c0.834-1.221,1.8-2.229,2.898-3.039c0.417,1.289,0.885,2.527,1.415,3.74c0.188,0.426,0.387,0.852,0.587,1.275
			c3.469,7.207,9.049,12.896,16.723,17.053c-0.054-1.137,0.164-2.209,0.655-3.23c5.679,5.447,12.817,8.992,21.438,10.605
			c-0.104-1.182,0.19-2.262,0.86-3.271c0.522,0.59,1.086,1.164,1.699,1.701c0.588,0.492,1.209,0.965,1.859,1.422
			c0.692,0.512,1.42,0.951,2.171,1.34c0.859,0.439,1.767,0.814,2.712,1.146c0.488,0.162,0.995,0.289,1.514,0.375
			c0.931,0.18,1.873,0.246,2.827,0.199c0.812-0.062,1.583-0.225,2.312-0.494c0.834-0.311,1.615-0.646,2.357-1.031
			c0.785-0.361,1.489-0.799,2.139-1.305c0.665-0.488,1.326-0.998,1.979-1.521c0.659-0.512,1.264-1.107,1.795-1.77
			c0.697,1.016,1.019,2.102,0.944,3.275c8.58-1.562,15.627-5.064,21.164-10.486c0.519,1.025,0.763,2.104,0.74,3.242
			c9.09-4.939,15.094-12.098,18.002-21.473c1.223,0.566,2.354,1.494,3.402,2.785c3.205-5.254,3.174-10.676-0.095-16.295
			c5.124,0.578,8.43-0.34,9.903-2.758c-1.605-0.552-3.056-1.186-4.368-1.9c-1.44-0.767-2.703-1.644-3.788-2.621
			c-0.508-0.463-0.979-0.939-1.411-1.451c-0.891-1.041-1.602-2.192-2.145-3.435c2.578-0.114,4.465-0.858,5.644-2.231
			C124.655,37.71,120.312,33.823,115.049,26.75"/>
		<path fill="none" stroke="#245E27" stroke-width="2.0479" stroke-linecap="round" stroke-miterlimit="10" d="M115.049,26.75
			c5.264,7.073,9.604,10.961,13.021,11.655c-1.179,1.373-3.064,2.117-5.644,2.231c0.543,1.241,1.254,2.394,2.146,3.435
			c0.432,0.512,0.902,0.988,1.41,1.451c1.085,0.979,2.348,1.854,3.788,2.621c1.312,0.715,2.763,1.35,4.368,1.9
			c-1.475,2.418-4.779,3.336-9.903,2.758c3.269,5.619,3.3,11.041,0.095,16.295c-1.049-1.291-2.181-2.219-3.402-2.785
			c-2.908,9.375-8.912,16.533-18.002,21.471c0.021-1.139-0.223-2.215-0.74-3.24c-5.537,5.422-12.584,8.924-21.164,10.486
			c0.073-1.176-0.247-2.262-0.944-3.275c-0.531,0.662-1.136,1.26-1.795,1.77c-0.652,0.521-1.313,1.031-1.979,1.521
			c-0.648,0.506-1.354,0.941-2.139,1.305c-0.742,0.385-1.523,0.723-2.357,1.031c-0.729,0.27-1.502,0.432-2.312,0.494
			c-0.954,0.047-1.896-0.021-2.827-0.199c-0.519-0.086-1.024-0.213-1.514-0.375c-0.945-0.332-1.854-0.707-2.712-1.146
			c-0.751-0.389-1.479-0.828-2.171-1.34c-0.65-0.457-1.271-0.93-1.859-1.422c-0.613-0.537-1.177-1.111-1.699-1.701
			c-0.67,1.01-0.964,2.092-0.86,3.271c-8.619-1.611-15.759-5.156-21.438-10.605c-0.492,1.021-0.709,2.096-0.655,3.23
			c-7.674-4.156-13.254-9.846-16.723-17.053c-0.201-0.424-0.399-0.85-0.587-1.275c-0.529-1.213-0.998-2.451-1.415-3.74
			c-1.099,0.812-2.064,1.818-2.898,3.039c-0.907-1.225-1.606-2.453-2.073-3.68c-0.479-1.26-0.746-2.572-0.784-3.938
			c-0.058-1.398,0.105-2.771,0.484-4.119c0.421-1.498,1.009-2.947,1.776-4.33c-5.113,0.547-8.439-0.389-9.979-2.817
			c1.591-0.546,3.041-1.164,4.335-1.875c1.42-0.758,2.646-1.629,3.705-2.601c0.497-0.461,0.956-0.937,1.375-1.447
			c0.859-1.034,1.544-2.184,2.058-3.418c-2.58-0.131-4.487-0.885-5.705-2.266c3.396-0.674,7.639-4.537,12.718-11.586
			c-2.312-0.231-3.997-1.008-5.061-2.35c2.534-0.344,5.162-1.686,7.877-4.023c7.424-6.404,15.305-10.17,23.656-11.295
			c-0.73-1.576-2.459-2.795-5.181-3.662C47.221,4.366,52.992,4.934,58.64,6.86c4.193-3.728,8.669-5.662,13.396-5.787
			c-1.021,1.66-0.968,2.787,0.162,3.361c4.77-1.297,8.953-1.599,12.584-0.9c-1.634,1.031-2.636,2.279-3.005,3.729
			c13.772,1.298,24.021,5.763,30.744,13.39c2.713,2.199,5.213,3.453,7.527,3.771C119.021,25.759,117.355,26.532,115.049,26.75z"/>
		<path fill="#D8382A" d="M88.024,57.153c-0.035,0.014-0.064,0.012-0.089,0.012l0.088,0.012
			C88.025,57.165,88.025,57.165,88.024,57.153"/>
		<path fill="#1F1A1A" d="M87.936,57.165c-0.467,3.012-2.301,5.605-5.52,7.783c-3.849,2.646-8.5,3.936-13.967,3.883
			c-5.483-0.041-10.192-1.4-14.134-4.088c-2.85-1.943-4.686-4.16-5.503-6.66c-0.064-0.016-0.142-0.014-0.204-0.027
			c-7.618-0.721-15.346-1.943-23.181-3.652c8.918,10.688,18.159,17.109,27.715,19.264c9.559,2.135,19.832,2.139,30.802-0.02
			c11.923-2.314,21.228-9.625,27.892-21.914c-7.799,2.439-15.74,4.242-23.812,5.42c0.001,0.014,0.001,0.014-0.001,0.023
			L87.936,57.165z"/>
		<path fill="#D8382A" d="M82.416,64.948c3.219-2.178,5.053-4.771,5.52-7.783c-12.701,1.852-25.733,2.154-39.123,0.918
			c0.817,2.5,2.653,4.717,5.503,6.66c3.94,2.688,8.649,4.047,14.134,4.088C73.916,68.883,78.568,67.596,82.416,64.948"/>
		
			<path fill="none" stroke="#1F1A1A" stroke-width="0.0125" stroke-linecap="round" stroke-linejoin="round" stroke-miterlimit="10" d="
			M88.024,57.153c8.071-1.178,16.014-2.98,23.812-5.42c-6.664,12.289-15.969,19.598-27.891,21.914
			c-10.972,2.156-21.245,2.152-30.807,0.016c-9.552-2.15-18.793-8.574-27.711-19.26c7.835,1.709,15.562,2.932,23.181,3.652"/>
		
			<path fill="none" stroke="#D8382A" stroke-width="0.0125" stroke-linecap="round" stroke-linejoin="round" stroke-miterlimit="10" d="
			M48.608,58.055c0.062,0.014,0.14,0.012,0.204,0.027c13.39,1.234,26.421,0.934,39.123-0.918c0.023,0,0.054,0.002,0.089-0.014
			 M48.812,58.083c0.817,2.5,2.653,4.717,5.503,6.66c3.94,2.688,8.649,4.047,14.134,4.088c5.467,0.055,10.119-1.234,13.967-3.883
			c3.219-2.178,5.053-4.771,5.52-7.783"/>
		<path fill="#FFFFFF" d="M86.434,24.664c-3.526-0.599-6.726,0.094-9.631,2.084c-2.902,1.978-4.619,4.673-5.168,8.08
			c-0.562,3.413,0.212,6.536,2.299,9.368c2.127,2.843,4.945,4.562,8.476,5.158c3.518,0.584,6.72-0.117,9.592-2.125
			c2.899-1.978,4.619-4.682,5.182-8.094c0.551-3.408-0.225-6.521-2.313-9.338C92.758,26.955,89.95,25.235,86.434,24.664"/>
		<path fill="#FFFFFF" d="M36.934,34.745c-0.56,3.396,0.216,6.513,2.316,9.353c2.111,2.845,4.932,4.566,8.461,5.159
			c3.502,0.6,6.704-0.113,9.59-2.118c2.903-1.993,4.632-4.688,5.197-8.085c0.56-3.408-0.216-6.535-2.341-9.365
			c-2.103-2.845-4.907-4.55-8.407-5.121c-3.53-0.598-6.746,0.104-9.646,2.084C39.229,28.629,37.512,31.335,36.934,34.745"/>
		<path fill="#1F1A1A" d="M88.025,34.212c-0.702-1.351-1.782-2.258-3.239-2.737c-1.474-0.488-2.894-0.402-4.271,0.247
			c-1.383,0.662-2.301,1.691-2.777,3.101c-0.477,1.404-0.366,2.773,0.328,4.123c0.701,1.349,1.779,2.257,3.24,2.74
			c1.461,0.481,2.873,0.396,4.252-0.254c1.379-0.652,2.299-1.686,2.776-3.102C88.818,36.924,88.72,35.557,88.025,34.212"/>
		<path fill="#1F1A1A" d="M57.389,34.229c-0.704-1.351-1.783-2.254-3.243-2.734c-1.47-0.485-2.89-0.402-4.268,0.25
			c-1.383,0.66-2.302,1.689-2.779,3.095c-0.476,1.411-0.365,2.778,0.327,4.124c0.706,1.352,1.786,2.259,3.244,2.74
			c1.458,0.482,2.872,0.396,4.251-0.258c1.381-0.647,2.297-1.678,2.773-3.098C58.183,36.946,58.08,35.576,57.389,34.229"/>
		<path fill="#C06513" d="M85.143,16.11c-0.516-0.866-1.408-1.03-2.665-0.483c-4.909,2.221-9.519,4.731-13.827,7.508
			c-0.881,0.571-1.553,0.695-2.031,0.368c-5.866-3.891-9.857-6.334-11.998-7.343c-2.179-1.029-3.7-1.173-4.568-0.412
			c-0.881,0.735-1.191,1.67-0.915,2.835c-8.11,0.312-14.153,1.711-18.144,4.173c-3.968,2.438-6.045,4.144-6.236,5.128
			c-0.208,0.964,1.214,1.418,4.271,1.354c-2.604,2.039-4.715,4.509-6.312,7.414c-0.783,1.412-1.129,2.51-1.04,3.299
			c0.012,0.102,0.039,0.199,0.068,0.312c0.015,0.063,0.04,0.111,0.054,0.163c0.039,0.086,0.104,0.15,0.17,0.213
			c0.168,0.163,0.366,0.289,0.583,0.4c0.274,0.141,0.574,0.24,0.872,0.314c0.232,0.088,0.476,0.152,0.724,0.215
			c4.513,0.975,8.974,0.763,13.354-0.649c0.122-4.235,1.313-7.656,3.591-10.288c2.244-2.629,5.008-3.557,8.254-2.76
			c2.548,0.617,4.764,1.447,6.634,2.49l2.809,1.77c1.793,1.165,3.302,1.994,4.506,2.486c1.192,0.488,2.65,0.722,4.38,0.699
			c1.752-0.011,3.668-0.566,5.753-1.67c2.089-1.119,3.638-1.951,4.649-2.5c1.168-0.609,2.42-1.191,3.768-1.728
			c1.658-0.617,3.301-1.026,4.926-1.21c2.611-0.295,4.693,0.102,6.244,1.189c0.767,0.541,1.404,1.27,1.926,2.184
			c0.537,0.91,0.978,1.865,1.336,2.852c0.646,1.889,0.814,4.062,0.496,6.5c4.674,1.426,9.668,1.812,14.984,1.152
			c1.572-0.173,2.413-0.716,2.529-1.652c0.182-0.998-0.429-2.393-1.808-4.156c-2.045-2.642-4.162-4.859-6.352-6.629
			c0.751,0.116,1.625,0.03,2.641-0.242c2.248-0.629,2.312-1.717,0.164-3.26c-8.004-5.619-15.631-8.203-22.858-7.748
			C85.922,17.635,85.614,16.874,85.143,16.11"/>
	</g>
</g>
</svg>
