<?xml version="1.0" encoding="utf-8"?>
<!-- Generator: Adobe Illustrator 16.0.0, SVG Export Plug-In . SVG Version: 6.00 Build 0)  -->
<!DOCTYPE svg PUBLIC "-//W3C//DTD SVG 1.1//EN" "http://www.w3.org/Graphics/SVG/1.1/DTD/svg11.dtd">
<svg version="1.1" id="レイヤー_1" xmlns="http://www.w3.org/2000/svg" xmlns:xlink="http://www.w3.org/1999/xlink" x="0px"
	 y="0px" width="135.678px" height="98.909px" viewBox="0 0 135.678 98.909" enable-background="new 0 0 135.678 98.909"
	 xml:space="preserve">
<g>
	<path fill="#9EC94C" d="M115.051,26.747c2.307-0.218,3.973-0.99,4.998-2.323c-2.314-0.317-4.814-1.572-7.527-3.771
		c-6.725-7.628-16.972-12.093-30.744-13.39c0.369-1.451,1.371-2.699,3.004-3.73c-3.63-0.697-7.814-0.396-12.584,0.901
		c-1.129-0.575-1.182-1.701-0.162-3.361c-4.726,0.124-9.202,2.06-13.395,5.786c-5.648-1.926-11.419-2.492-17.303-1.708
		c2.722,0.867,4.45,2.086,5.181,3.661c-8.353,1.126-16.233,4.891-23.656,11.296c-2.715,2.339-5.343,3.68-7.877,4.023
		c1.063,1.342,2.748,2.117,5.06,2.349c-5.079,7.049-9.322,10.912-12.718,11.587c1.217,1.38,3.125,2.134,5.705,2.265
		c-0.512,1.234-1.197,2.384-2.057,3.418c-0.42,0.512-0.879,0.986-1.375,1.448c-1.058,0.971-2.285,1.842-3.705,2.6
		c-1.294,0.711-2.744,1.329-4.335,1.875c1.539,2.428,4.865,3.364,9.978,2.817c-0.767,1.383-1.355,2.832-1.776,4.33
		c-0.379,1.348-0.542,2.721-0.484,4.119c0.038,1.365,0.304,2.678,0.784,3.938c0.467,1.227,1.166,2.455,2.073,3.68
		c0.834-1.221,1.8-2.229,2.898-3.039c0.417,1.289,0.885,2.527,1.415,3.74c0.188,0.426,0.387,0.852,0.587,1.275
		c3.469,7.207,9.049,12.896,16.723,17.053c-0.054-1.137,0.164-2.209,0.655-3.23c5.679,5.447,12.818,8.992,21.438,10.604
		c-0.104-1.18,0.19-2.262,0.86-3.271c0.523,0.59,1.086,1.164,1.699,1.701c0.588,0.492,1.209,0.965,1.86,1.422
		c0.692,0.512,1.42,0.951,2.171,1.34c0.859,0.439,1.766,0.814,2.712,1.146c0.488,0.162,0.995,0.289,1.513,0.375
		c0.931,0.18,1.873,0.246,2.827,0.199c0.812-0.062,1.583-0.223,2.313-0.494c0.834-0.309,1.615-0.646,2.357-1.031
		c0.785-0.361,1.49-0.799,2.139-1.305c0.665-0.488,1.326-0.998,1.979-1.52c0.66-0.512,1.264-1.109,1.795-1.771
		c0.698,1.016,1.019,2.102,0.945,3.277c8.58-1.564,15.627-5.066,21.164-10.488c0.518,1.027,0.762,2.104,0.74,3.242
		c9.09-4.938,15.094-12.096,18.002-21.471c1.223,0.566,2.354,1.494,3.402,2.785c3.205-5.254,3.174-10.676-0.094-16.295
		c5.124,0.578,8.429-0.34,9.903-2.759c-1.606-0.551-3.056-1.185-4.368-1.899c-1.441-0.767-2.703-1.644-3.788-2.621
		c-0.508-0.464-0.979-0.94-1.411-1.452c-0.891-1.041-1.602-2.192-2.145-3.434c2.578-0.114,4.465-0.858,5.644-2.232
		C124.657,37.708,120.315,33.821,115.051,26.747"/>
	<path fill="none" stroke="#245E27" stroke-width="2.0479" stroke-linecap="round" stroke-miterlimit="10" d="M115.051,26.747
		c5.264,7.074,9.605,10.961,13.021,11.655c-1.179,1.374-3.065,2.118-5.644,2.232c0.543,1.241,1.254,2.393,2.145,3.434
		c0.432,0.512,0.903,0.988,1.411,1.452c1.085,0.978,2.347,1.854,3.788,2.621c1.312,0.715,2.762,1.349,4.368,1.899
		c-1.475,2.419-4.779,3.337-9.903,2.759c3.268,5.619,3.299,11.041,0.094,16.295c-1.049-1.291-2.18-2.219-3.402-2.785
		c-2.908,9.375-8.912,16.533-18.002,21.471c0.021-1.139-0.223-2.215-0.74-3.242c-5.537,5.422-12.584,8.924-21.164,10.488
		c0.073-1.176-0.247-2.262-0.945-3.277c-0.531,0.662-1.135,1.26-1.795,1.771c-0.652,0.521-1.313,1.031-1.979,1.52
		c-0.648,0.506-1.354,0.943-2.139,1.305c-0.742,0.385-1.523,0.723-2.357,1.031c-0.73,0.271-1.502,0.432-2.313,0.494
		c-0.954,0.047-1.896-0.02-2.827-0.199c-0.518-0.086-1.024-0.213-1.513-0.375c-0.946-0.332-1.854-0.707-2.712-1.146
		c-0.751-0.389-1.479-0.828-2.171-1.34c-0.651-0.457-1.272-0.93-1.86-1.422c-0.613-0.537-1.176-1.111-1.699-1.701
		c-0.67,1.01-0.964,2.092-0.86,3.271c-8.619-1.611-15.759-5.156-21.438-10.604c-0.492,1.021-0.709,2.094-0.655,3.23
		c-7.674-4.156-13.254-9.846-16.723-17.053c-0.201-0.424-0.399-0.85-0.587-1.275c-0.529-1.213-0.998-2.451-1.415-3.74
		c-1.098,0.811-2.064,1.818-2.898,3.039c-0.907-1.225-1.606-2.453-2.073-3.68c-0.48-1.26-0.746-2.572-0.784-3.938
		c-0.058-1.398,0.105-2.771,0.484-4.119c0.421-1.498,1.009-2.947,1.776-4.33c-5.113,0.547-8.439-0.389-9.978-2.817
		c1.591-0.546,3.041-1.164,4.335-1.875c1.42-0.758,2.646-1.629,3.705-2.6c0.497-0.462,0.956-0.937,1.375-1.448
		c0.859-1.034,1.544-2.184,2.057-3.418c-2.58-0.131-4.487-0.885-5.705-2.265c3.396-0.675,7.639-4.538,12.718-11.587
		c-2.312-0.231-3.997-1.007-5.06-2.349c2.534-0.344,5.162-1.685,7.877-4.023c7.423-6.405,15.304-10.17,23.656-11.296
		c-0.731-1.575-2.459-2.794-5.181-3.661c5.884-0.786,11.655-0.218,17.303,1.708c4.193-3.727,8.669-5.662,13.395-5.786
		c-1.02,1.66-0.967,2.786,0.162,3.361c4.77-1.297,8.954-1.599,12.584-0.901c-1.633,1.031-2.635,2.279-3.004,3.73
		c13.772,1.297,24.02,5.762,30.744,13.39c2.713,2.198,5.213,3.453,7.527,3.771C119.024,25.757,117.358,26.529,115.051,26.747z"/>
	<path fill="#D8382A" d="M88.027,57.15c-0.036,0.014-0.065,0.012-0.089,0.012l0.088,0.012C88.028,57.162,88.028,57.162,88.027,57.15
		"/>
	<path fill="#1F1A1A" d="M87.938,57.162c-0.467,3.012-2.301,5.605-5.52,7.783c-3.848,2.646-8.5,3.936-13.967,3.883
		c-5.483-0.041-10.192-1.4-14.133-4.088c-2.85-1.943-4.686-4.16-5.503-6.66c-0.065-0.016-0.142-0.014-0.204-0.027
		c-7.619-0.721-15.346-1.943-23.181-3.652c8.918,10.686,18.159,17.109,27.715,19.262c9.558,2.135,19.832,2.139,30.802-0.018
		c11.922-2.316,21.227-9.625,27.891-21.914c-7.799,2.439-15.74,4.242-23.812,5.42c0.001,0.012,0.001,0.012-0.001,0.023
		L87.938,57.162z"/>
	<path fill="#D8382A" d="M82.418,64.945c3.219-2.178,5.053-4.771,5.52-7.783c-12.701,1.852-25.734,2.154-39.123,0.918
		c0.817,2.5,2.653,4.717,5.503,6.66c3.94,2.688,8.649,4.047,14.133,4.088C73.918,68.88,78.571,67.593,82.418,64.945"/>
	
		<path fill="none" stroke="#1F1A1A" stroke-width="0.0125" stroke-linecap="round" stroke-linejoin="round" stroke-miterlimit="10" d="
		M88.027,57.15c8.071-1.178,16.013-2.98,23.812-5.42c-6.664,12.289-15.969,19.598-27.891,21.914
		C72.977,75.8,62.703,75.796,53.142,73.66c-9.552-2.15-18.793-8.574-27.711-19.26c7.835,1.709,15.562,2.932,23.181,3.652"/>
	
		<path fill="none" stroke="#D8382A" stroke-width="0.0125" stroke-linecap="round" stroke-linejoin="round" stroke-miterlimit="10" d="
		M48.611,58.052c0.062,0.014,0.139,0.012,0.204,0.027c13.389,1.236,26.421,0.934,39.123-0.918c0.023,0,0.053,0.002,0.089-0.012
		 M48.815,58.08c0.817,2.5,2.653,4.717,5.503,6.66c3.94,2.688,8.649,4.047,14.133,4.088c5.467,0.055,10.12-1.234,13.967-3.883
		c3.219-2.178,5.053-4.771,5.52-7.783"/>
	<path fill="#FFFFFF" d="M86.436,24.661c-3.527-0.598-6.726,0.094-9.631,2.084c-2.902,1.977-4.619,4.673-5.168,8.08
		c-0.562,3.413,0.212,6.537,2.299,9.369c2.127,2.842,4.945,4.562,8.475,5.157c3.518,0.585,6.72-0.116,9.592-2.124
		c2.9-1.978,4.619-4.682,5.182-8.094c0.551-3.409-0.225-6.521-2.314-9.338C92.76,26.952,89.952,25.232,86.436,24.661"/>
	<path fill="#FFFFFF" d="M36.936,34.742c-0.56,3.396,0.216,6.513,2.316,9.353c2.112,2.845,4.932,4.566,8.461,5.159
		c3.502,0.6,6.704-0.114,9.59-2.118c2.903-1.994,4.632-4.688,5.197-8.085c0.56-3.409-0.216-6.536-2.341-9.365
		c-2.102-2.845-4.907-4.55-8.407-5.122c-3.53-0.597-6.746,0.105-9.646,2.084C39.232,28.627,37.514,31.333,36.936,34.742"/>
	<path fill="#1F1A1A" d="M88.028,34.21c-0.703-1.351-1.783-2.258-3.24-2.738c-1.473-0.487-2.893-0.401-4.27,0.248
		c-1.383,0.662-2.301,1.691-2.778,3.1c-0.476,1.405-0.366,2.774,0.329,4.123c0.701,1.349,1.779,2.257,3.24,2.74
		c1.461,0.482,2.873,0.396,4.252-0.253c1.379-0.653,2.299-1.686,2.776-3.102C88.821,36.922,88.722,35.555,88.028,34.21"/>
	<path fill="#1F1A1A" d="M57.391,34.227c-0.704-1.351-1.783-2.254-3.243-2.735c-1.47-0.485-2.89-0.402-4.268,0.25
		c-1.383,0.66-2.302,1.689-2.779,3.095c-0.476,1.411-0.365,2.778,0.327,4.124c0.706,1.352,1.786,2.259,3.244,2.74
		c1.458,0.482,2.872,0.396,4.251-0.257c1.381-0.648,2.297-1.678,2.774-3.099C58.185,36.943,58.082,35.573,57.391,34.227"/>
	<path fill="#C06513" d="M85.145,16.107c-0.516-0.866-1.408-1.03-2.665-0.483c-4.909,2.221-9.519,4.731-13.827,7.508
		c-0.881,0.571-1.553,0.695-2.032,0.368c-5.866-3.89-9.857-6.334-11.998-7.343c-2.178-1.029-3.7-1.173-4.568-0.412
		c-0.881,0.736-1.191,1.67-0.915,2.835c-8.11,0.313-14.153,1.711-18.144,4.173c-3.967,2.438-6.045,4.143-6.236,5.128
		c-0.208,0.964,1.214,1.418,4.271,1.353c-2.605,2.04-4.715,4.509-6.312,7.415c-0.783,1.411-1.129,2.509-1.04,3.298
		c0.012,0.102,0.039,0.199,0.068,0.312c0.015,0.063,0.04,0.111,0.054,0.163c0.039,0.086,0.104,0.15,0.17,0.213
		c0.168,0.163,0.366,0.289,0.583,0.4c0.274,0.141,0.574,0.241,0.872,0.314c0.232,0.089,0.476,0.153,0.724,0.216
		c4.512,0.974,8.973,0.762,13.353-0.65c0.122-4.235,1.314-7.656,3.591-10.288c2.244-2.629,5.008-3.557,8.254-2.76
		c2.548,0.617,4.764,1.448,6.634,2.49l2.808,1.77c1.793,1.165,3.302,1.994,4.506,2.486c1.193,0.488,2.651,0.722,4.38,0.7
		c1.752-0.011,3.668-0.567,5.753-1.671c2.089-1.119,3.638-1.95,4.649-2.5c1.168-0.609,2.42-1.191,3.768-1.727
		c1.658-0.617,3.301-1.026,4.926-1.21c2.611-0.295,4.693,0.101,6.244,1.19c0.766,0.541,1.404,1.269,1.926,2.183
		c0.537,0.91,0.977,1.865,1.336,2.852c0.645,1.888,0.814,4.062,0.496,6.5c4.674,1.426,9.668,1.812,14.984,1.152
		c1.572-0.173,2.413-0.716,2.529-1.653c0.182-0.998-0.428-2.392-1.807-4.156c-2.045-2.641-4.162-4.859-6.352-6.628
		c0.751,0.116,1.625,0.03,2.641-0.243c2.248-0.628,2.312-1.716,0.164-3.259c-8.004-5.619-15.631-8.204-22.859-7.748
		C85.924,17.633,85.616,16.871,85.145,16.107"/>
</g>
</svg>
