<?xml version="1.0" encoding="utf-8"?>
<!-- Generator: Adobe Illustrator 16.0.0, SVG Export Plug-In . SVG Version: 6.00 Build 0)  -->
<!DOCTYPE svg PUBLIC "-//W3C//DTD SVG 1.1//EN" "http://www.w3.org/Graphics/SVG/1.1/DTD/svg11.dtd">
<svg version="1.1" xmlns="http://www.w3.org/2000/svg" xmlns:xlink="http://www.w3.org/1999/xlink" x="0px" y="0px"
	 width="135.676px" height="153.736px" viewBox="0 0 135.676 153.736" enable-background="new 0 0 135.676 153.736"
	 xml:space="preserve">
<g id="レイヤー_4" display="none">
	<g display="inline">
		<path fill="#245E27" d="M92.109,98.229c-2.758,0.1-5.76,2.016-9.031,5.765c-0.035,0.022-0.051,0.053-0.068,0.083
			c-2.469,3.539-4.279,6.787-5.43,9.761c-3.836-0.797-6.703,0.082-8.609,2.655c-1.971,2.489-2.898,6.75-2.789,12.802
			c-1.484,11.33-9.518,27.458-24.109,48.373c-0.148,0.181-0.207,0.394-0.174,0.633c0.014,0.228,0.102,0.427,0.26,0.602
			l14.637,15.487c0.133,0.131,0.281,0.221,0.475,0.27c0.176,0.054,0.363,0.054,0.553,0.014c0.182-0.035,0.34-0.134,0.475-0.262
			c19.709-19.292,36.006-38.16,48.861-56.611c0.186-0.145,0.363-0.271,0.551-0.414c0.008-0.014,0.02-0.021,0.029-0.034
			c2.248-1.967,3.334-4.128,3.252-6.499c-0.006-0.024-0.012-0.048-0.004-0.063c-0.264-2.944-1.594-4.947-3.998-6.016
			c-1.326-0.604-2.598-0.988-3.814-1.139c0.527-2.408,0.023-4.398-1.514-5.986c-1.326-1.409-3.074-2.246-5.25-2.506
			c2.322-5.354,2.971-9.424,1.963-12.194C97.215,99.581,95.127,98.008,92.109,98.229 M92.227,100.223l0.012-0.002
			c1.982-0.072,3.383,1.042,4.172,3.354c0.826,2.576,0.068,6.428-2.25,11.559c-2.084,0.366-3.785,1.425-5.125,3.19
			c-1.385,1.805-2.246,4.044-2.574,6.711c-0.375,2.87,0.264,4.993,1.893,6.346c1.58,1.362,3.365,1.969,5.355,1.829l0.012,0.006
			c0.039-0.01,0.08-0.006,0.123-0.004c-0.164,2.644,0.379,4.545,1.641,5.685c1.385,1.471,3.705,1.861,6.986,1.176
			c0.025-0.006,0.049-0.013,0.088-0.024c0.211-0.059,0.432-0.132,0.637-0.203c-12.252,17.097-27.447,34.571-45.6,52.408
			L44.24,178.126c14.584-20.991,22.578-37.21,24.002-48.644c-0.002-0.05-0.004-0.103-0.002-0.142
			c-0.104-5.495,0.695-9.383,2.393-11.66c1.582-1.992,3.99-2.574,7.219-1.726c2.338,1.153,3.793,2.853,4.354,5.123
			c0.578,2.373,0.52,4.508-0.162,6.401l0.012-0.001l0.004,0.009c-0.672,1.762-1.674,2.949-3.002,3.583
			c-1.225,0.55-2.344,0.486-3.383-0.196c-1.111-0.77-2.52-2.377-4.24-4.831c-0.119,0.087-0.189,0.262-0.193,0.508
			c-0.02,0.255,0.178,0.992,0.562,2.249c0.391,1.251,1.291,2.497,2.699,3.728c1.662,1.105,3.471,1.227,5.43,0.352
			c1.834-0.81,3.189-2.387,4.061-4.725c0.84-2.223,0.92-4.739,0.227-7.534c-0.639-2.614-2.201-4.646-4.711-6.061
			c1.096-2.84,2.832-5.942,5.166-9.312C87.457,102.081,89.965,100.405,92.227,100.223 M88.514,125.281
			c0.287-2.302,1.02-4.225,2.193-5.775c1.09-1.435,2.512-2.262,4.268-2.47l0.012-0.004l0.012-0.003
			c2.191,0.038,3.91,0.69,5.139,1.969c1.146,1.252,1.441,2.857,0.857,4.815c-0.016,0.003-0.016,0.003-0.01,0.016
			c-0.039,0.101-0.072,0.215-0.104,0.325c-0.023,0.022-0.027,0.048-0.031,0.077l0.004,0.01l-0.004,0.029
			c-0.016,0.004-0.012,0.015-0.006,0.025c-0.012,0.019-0.012,0.019-0.02,0.032l0.006,0.015c-0.672,1.928-1.676,3.521-2.992,4.784
			l-0.014,0.007c-0.984,0.924-1.998,1.542-3.031,1.861c-0.066,0.004-0.117,0.018-0.162,0.046c-0.361,0.088-0.711,0.146-1.064,0.18
			c-1.428,0.089-2.705-0.359-3.832-1.333C88.656,128.892,88.248,127.356,88.514,125.281 M96.961,137.497
			c-0.895-0.959-1.223-2.545-1.004-4.777c1.137-0.437,2.24-1.143,3.32-2.162c1.414-1.332,2.506-2.99,3.283-4.974
			c1.119,0.091,2.293,0.423,3.545,0.996c1.676,0.79,2.605,2.231,2.816,4.317c0.014,1.792-0.824,3.44-2.541,4.948
			c-0.186,0.144-0.363,0.27-0.531,0.409c-0.059,0.029-0.107,0.057-0.145,0.105c-1.105,0.764-2.332,1.341-3.674,1.754
			c-0.014,0.006-0.014,0.006-0.025,0.008C99.664,138.61,97.969,138.394,96.961,137.497"/>
		<path fill="#9EC94C" d="M92.238,100.221l-0.012,0.002c-2.262,0.182-4.77,1.857-7.553,5.025c-2.334,3.369-4.07,6.472-5.166,9.312
			c2.51,1.415,4.072,3.446,4.711,6.061c0.693,2.795,0.613,5.312-0.227,7.534c-0.871,2.338-2.229,3.915-4.061,4.725
			c-1.959,0.875-3.768,0.754-5.43-0.352c-1.408-1.23-2.309-2.477-2.699-3.728c-0.385-1.257-0.582-1.994-0.562-2.249
			c0.004-0.246,0.074-0.421,0.197-0.508c1.717,2.454,3.127,4.062,4.236,4.831c1.039,0.683,2.158,0.746,3.383,0.196
			c1.328-0.634,2.33-1.821,3.002-3.583l-0.016-0.008c0.682-1.894,0.74-4.028,0.162-6.401c-0.561-2.271-2.016-3.97-4.354-5.123
			c-3.227-0.849-5.637-0.267-7.219,1.726c-1.697,2.277-2.496,6.165-2.393,11.66c-0.002,0.039,0,0.092,0.002,0.142
			c-1.424,11.434-9.418,27.652-24.002,48.644l13.355,14.126c18.152-17.837,33.348-35.312,45.6-52.408
			c-0.205,0.071-0.426,0.145-0.637,0.201c-0.039,0.014-0.062,0.021-0.088,0.026c-3.281,0.686-5.602,0.295-6.986-1.176
			c-1.262-1.14-1.805-3.041-1.641-5.685c-0.043-0.002-0.084-0.006-0.123,0.004l-0.012-0.006c-1.99,0.14-3.775-0.467-5.355-1.829
			c-1.629-1.353-2.268-3.476-1.893-6.346c0.328-2.667,1.189-4.906,2.574-6.711c1.34-1.766,3.041-2.824,5.125-3.19
			c2.318-5.131,3.076-8.982,2.25-11.559C95.621,101.263,94.221,100.149,92.238,100.221"/>
		<path fill="#9EC94C" d="M90.707,119.505c-1.174,1.551-1.902,3.474-2.193,5.775c-0.266,2.075,0.143,3.611,1.221,4.606
			c1.127,0.974,2.404,1.422,3.832,1.333c0.354-0.034,0.703-0.092,1.064-0.18c0.045-0.028,0.096-0.042,0.162-0.046
			c1.033-0.319,2.047-0.938,3.031-1.861l0.016-0.007c1.314-1.263,2.318-2.856,2.99-4.784l-0.006-0.015
			c0.008-0.014,0.008-0.014,0.02-0.032c-0.006-0.011-0.01-0.021,0.006-0.025l0.004-0.029l-0.004-0.01
			c0.004-0.029,0.01-0.055,0.031-0.077c0.031-0.11,0.064-0.225,0.104-0.325c-0.006-0.013-0.006-0.013,0.01-0.016
			c0.584-1.958,0.289-3.563-0.857-4.815c-1.229-1.278-2.947-1.931-5.139-1.969l-0.012,0.003l-0.012,0.004
			C93.219,117.244,91.797,118.071,90.707,119.505"/>
		<path fill="#9EC94C" d="M95.957,132.719c-0.219,2.233,0.109,3.818,1.004,4.777c1.008,0.897,2.703,1.113,5.047,0.625
			c0.01-0.002,0.01-0.002,0.023-0.008c1.342-0.413,2.568-0.99,3.674-1.754c0.037-0.049,0.086-0.076,0.145-0.105
			c0.17-0.14,0.346-0.266,0.531-0.409c1.717-1.508,2.555-3.156,2.539-4.948c-0.209-2.086-1.139-3.527-2.814-4.317
			c-1.252-0.573-2.426-0.905-3.545-0.996c-0.777,1.983-1.867,3.642-3.283,4.974C98.197,131.577,97.094,132.283,95.957,132.719"/>
	</g>
</g>
<g id="レイヤー_6" display="none">
	<g display="inline">
		<path fill="#245E27" d="M65.091,159.76l-0.024-0.026c-5.032-11.257-6.68-25.629-4.929-43.096l-43.325,0.815
			c1.888,18.515-0.638,33.638-7.551,45.343c-0.018,0.012-0.043,0.035-0.058,0.074c-0.617,0.882-1.199,1.805-1.729,2.751
			c-4.224,7.144-6.573,15.321-7.061,24.525c-0.663,12.644,2.362,23.505,9.096,32.595c6.644,8.99,14.984,13.613,25.04,13.868
			c10.026,0.228,18.847-3.992,26.435-12.642c7.645-8.747,11.803-19.437,12.468-32.083c0.312-5.915-0.188-11.438-1.487-16.57
			c-0.685-2.612-1.596-5.064-2.76-7.349C67.807,165.226,66.441,162.485,65.091,159.76"/>
		
			<path fill="none" stroke="#245E27" stroke-width="1.9958" stroke-linecap="round" stroke-linejoin="round" stroke-miterlimit="10" d="
			M65.066,159.734c-5.032-11.257-6.68-25.629-4.929-43.096l-43.325,0.815c1.888,18.515-0.638,33.638-7.551,45.343
			c-0.018,0.011-0.043,0.035-0.058,0.074c-0.617,0.882-1.199,1.805-1.729,2.751c-4.224,7.144-6.573,15.321-7.061,24.525
			c-0.663,12.644,2.362,23.505,9.096,32.595c6.644,8.99,14.984,13.613,25.04,13.868c10.026,0.228,18.847-3.992,26.435-12.642
			c7.645-8.747,11.803-19.437,12.468-32.083c0.312-5.915-0.188-11.438-1.487-16.57c-0.686-2.612-1.596-5.064-2.76-7.349
			c-1.398-2.739-2.764-5.481-4.114-8.206L65.066,159.734z"/>
		<path fill="#9EC94C" d="M64.204,160.312c-0.038-0.051-0.073-0.103-0.098-0.166c-4.994-11.155-6.69-25.316-5.102-42.488
			l-41.045,0.771c1.7,18.261-0.906,33.216-7.792,44.849c-0.04,0.039-0.067,0.087-0.097,0.138c-0.602,0.844-1.17,1.741-1.685,2.666
			l-0.001,0.022c-4.147,7.012-6.455,15.038-6.929,24.071c-0.651,12.394,2.319,23.054,8.902,31.977l0.016,0.001
			c6.438,8.708,14.512,13.192,24.228,13.461c9.718,0.191,18.247-3.896,25.596-12.261l0.001-0.013
			c7.491-8.588,11.564-19.083,12.218-31.478c0.307-5.815-0.178-11.239-1.457-16.286c-0.656-2.548-1.56-4.927-2.689-7.158v0.015
			C66.895,165.714,65.531,163,64.204,160.312"/>
	</g>
</g>
<g id="レイヤー_1">
</g>
<g id="レイヤー_5" display="none">
	<g display="inline">
		<path fill="#9EC94C" d="M84.098,52.992c2.307-0.218,3.973-0.99,4.998-2.323c-2.314-0.317-4.814-1.572-7.527-3.771
			c-6.725-7.628-16.972-12.093-30.744-13.39c0.369-1.451,1.371-2.699,3.004-3.73c-3.63-0.697-7.814-0.396-12.584,0.901
			c-1.129-0.575-1.182-1.701-0.162-3.361c-4.726,0.124-9.202,2.06-13.395,5.786c-5.648-1.926-11.419-2.492-17.303-1.708
			c2.722,0.867,4.45,2.086,5.181,3.661C7.212,36.184-0.668,39.948-8.091,46.354c-2.715,2.339-5.343,3.68-7.877,4.023
			c1.063,1.342,2.748,2.117,5.06,2.349c-5.079,7.049-9.322,10.912-12.718,11.587c1.217,1.38,3.125,2.134,5.705,2.265
			c-0.512,1.234-1.197,2.384-2.057,3.418c-0.42,0.512-0.879,0.986-1.375,1.448c-1.058,0.971-2.285,1.842-3.705,2.6
			c-1.294,0.711-2.744,1.329-4.335,1.875c1.539,2.429,4.865,3.364,9.978,2.816c-0.767,1.383-1.355,2.832-1.776,4.331
			c-0.379,1.347-0.542,2.721-0.484,4.119c0.038,1.364,0.304,2.677,0.784,3.937c0.467,1.228,1.166,2.455,2.073,3.68
			c0.834-1.221,1.8-2.229,2.898-3.038c0.417,1.288,0.885,2.527,1.415,3.739c0.188,0.426,0.387,0.852,0.587,1.276
			c3.469,7.206,9.049,12.896,16.723,17.053c-0.054-1.137,0.164-2.209,0.655-3.231c5.679,5.447,12.818,8.992,21.438,10.604
			c-0.104-1.179,0.19-2.262,0.86-3.271c0.523,0.59,1.086,1.165,1.699,1.702c0.588,0.492,1.209,0.965,1.86,1.421
			c0.692,0.513,1.42,0.952,2.171,1.34c0.859,0.44,1.766,0.815,2.712,1.146c0.488,0.163,0.995,0.29,1.513,0.375
			c0.931,0.181,1.873,0.246,2.827,0.199c0.812-0.062,1.583-0.222,2.313-0.493c0.834-0.31,1.615-0.647,2.357-1.031
			c0.785-0.361,1.49-0.799,2.139-1.305c0.665-0.488,1.326-0.998,1.979-1.521c0.66-0.512,1.264-1.108,1.795-1.771
			c0.698,1.017,1.019,2.102,0.945,3.277c8.58-1.563,15.627-5.066,21.164-10.487c0.518,1.026,0.762,2.103,0.74,3.241
			c9.09-4.938,15.094-12.095,18.002-21.47c1.223,0.565,2.354,1.493,3.402,2.784c3.205-5.253,3.174-10.675-0.094-16.295
			c5.124,0.578,8.429-0.339,9.903-2.759c-1.606-0.551-3.056-1.185-4.368-1.899c-1.441-0.767-2.703-1.644-3.788-2.621
			c-0.508-0.464-0.979-0.94-1.411-1.452c-0.891-1.041-1.602-2.192-2.145-3.434c2.578-0.114,4.465-0.858,5.644-2.232
			C93.703,63.953,89.361,60.066,84.098,52.992"/>
		<path fill="none" stroke="#245E27" stroke-width="2.0479" stroke-linecap="round" stroke-miterlimit="10" d="M84.098,52.992
			c5.264,7.074,9.605,10.961,13.021,11.655c-1.179,1.374-3.065,2.118-5.644,2.232c0.543,1.241,1.254,2.393,2.145,3.434
			c0.432,0.512,0.903,0.988,1.411,1.452c1.085,0.978,2.347,1.854,3.788,2.621c1.312,0.715,2.762,1.349,4.368,1.899
			c-1.475,2.42-4.779,3.337-9.903,2.759c3.268,5.62,3.299,11.042,0.094,16.295c-1.049-1.291-2.18-2.219-3.402-2.784
			c-2.908,9.375-8.912,16.532-18.002,21.47c0.021-1.139-0.223-2.215-0.74-3.241c-5.537,5.421-12.584,8.924-21.164,10.487
			c0.073-1.176-0.247-2.261-0.945-3.277c-0.531,0.663-1.135,1.26-1.795,1.771c-0.652,0.522-1.313,1.032-1.979,1.521
			c-0.648,0.506-1.354,0.943-2.139,1.305c-0.742,0.384-1.523,0.722-2.357,1.031c-0.73,0.271-1.502,0.432-2.313,0.493
			c-0.954,0.047-1.896-0.019-2.827-0.199c-0.518-0.085-1.024-0.212-1.513-0.375c-0.946-0.331-1.854-0.706-2.712-1.146
			c-0.751-0.388-1.479-0.827-2.171-1.34c-0.651-0.456-1.272-0.929-1.86-1.421c-0.613-0.537-1.176-1.112-1.699-1.702
			c-0.67,1.01-0.964,2.093-0.86,3.271c-8.619-1.611-15.759-5.156-21.438-10.604c-0.492,1.022-0.709,2.095-0.655,3.231
			c-7.674-4.156-13.254-9.847-16.723-17.053c-0.201-0.425-0.399-0.851-0.587-1.276c-0.529-1.212-0.998-2.451-1.415-3.739
			c-1.098,0.81-2.064,1.817-2.898,3.038c-0.907-1.225-1.606-2.452-2.073-3.68c-0.48-1.26-0.746-2.572-0.784-3.937
			c-0.058-1.398,0.105-2.772,0.484-4.119c0.421-1.499,1.009-2.948,1.776-4.331c-5.113,0.548-8.439-0.388-9.978-2.816
			c1.591-0.546,3.041-1.164,4.335-1.875c1.42-0.758,2.646-1.629,3.705-2.6c0.497-0.462,0.956-0.937,1.375-1.448
			c0.859-1.034,1.544-2.184,2.057-3.418c-2.58-0.131-4.487-0.885-5.705-2.265c3.396-0.675,7.639-4.538,12.718-11.587
			c-2.312-0.231-3.997-1.007-5.06-2.349c2.534-0.344,5.162-1.685,7.877-4.023c7.423-6.405,15.304-10.17,23.656-11.296
			c-0.731-1.575-2.459-2.794-5.181-3.661c5.884-0.786,11.655-0.218,17.303,1.708c4.193-3.727,8.669-5.662,13.395-5.786
			c-1.02,1.66-0.967,2.786,0.162,3.361c4.77-1.297,8.954-1.599,12.584-0.901c-1.633,1.031-2.635,2.279-3.004,3.73
			c13.772,1.297,24.02,5.762,30.744,13.39c2.713,2.198,5.213,3.453,7.527,3.771C88.07,52.002,86.404,52.774,84.098,52.992z"/>
		<path fill="#D8382A" d="M57.073,83.395c-0.036,0.014-0.065,0.013-0.089,0.013l0.088,0.011
			C57.074,83.407,57.074,83.407,57.073,83.395"/>
		<path fill="#1F1A1A" d="M56.984,83.407c-0.467,3.011-2.301,5.605-5.52,7.782c-3.848,2.647-8.5,3.936-13.967,3.884
			c-5.483-0.041-10.192-1.401-14.133-4.089c-2.85-1.942-4.686-4.16-5.503-6.66c-0.065-0.016-0.142-0.013-0.204-0.027
			c-7.619-0.721-15.346-1.942-23.181-3.651C3.395,91.33,12.636,97.754,22.192,99.906c9.558,2.136,19.832,2.14,30.802-0.018
			c11.922-2.316,21.227-9.624,27.891-21.914c-7.799,2.44-15.74,4.242-23.812,5.42c0.001,0.013,0.001,0.013-0.001,0.023
			L56.984,83.407z"/>
		<path fill="#D8382A" d="M51.465,91.189c3.219-2.177,5.053-4.771,5.52-7.782c-12.701,1.851-25.734,2.153-39.123,0.917
			c0.817,2.5,2.653,4.718,5.503,6.66c3.94,2.688,8.649,4.048,14.133,4.089C42.965,95.125,47.617,93.839,51.465,91.189"/>
		
			<path fill="none" stroke="#1F1A1A" stroke-width="0.0125" stroke-linecap="round" stroke-linejoin="round" stroke-miterlimit="10" d="
			M57.073,83.395c8.071-1.178,16.013-2.979,23.812-5.42c-6.664,12.29-15.969,19.598-27.891,21.914
			c-10.971,2.157-21.245,2.153-30.806,0.017c-9.552-2.151-18.793-8.575-27.711-19.26c7.835,1.709,15.562,2.931,23.181,3.651"/>
		
			<path fill="none" stroke="#D8382A" stroke-width="0.0125" stroke-linecap="round" stroke-linejoin="round" stroke-miterlimit="10" d="
			M17.658,84.297c0.062,0.015,0.139,0.012,0.204,0.027c13.389,1.236,26.421,0.934,39.123-0.917c0.023,0,0.053,0.001,0.089-0.013
			 M17.862,84.324c0.817,2.5,2.653,4.718,5.503,6.66c3.94,2.688,8.649,4.048,14.133,4.089c5.467,0.054,10.12-1.234,13.967-3.884
			c3.219-2.177,5.053-4.771,5.52-7.782"/>
		<path fill="#FFFFFF" d="M55.482,50.906c-3.527-0.598-6.726,0.094-9.631,2.084c-2.902,1.977-4.619,4.673-5.168,8.08
			c-0.562,3.413,0.212,6.537,2.299,9.369c2.127,2.842,4.945,4.562,8.475,5.157c3.518,0.585,6.72-0.116,9.592-2.124
			c2.9-1.978,4.619-4.682,5.182-8.094c0.551-3.409-0.225-6.521-2.314-9.338C61.807,53.197,58.998,51.478,55.482,50.906"/>
		<path fill="#FFFFFF" d="M5.982,60.987c-0.56,3.396,0.216,6.513,2.316,9.353c2.112,2.845,4.932,4.566,8.461,5.159
			c3.502,0.6,6.704-0.114,9.59-2.118c2.903-1.994,4.632-4.688,5.197-8.085c0.56-3.409-0.216-6.536-2.341-9.365
			c-2.102-2.845-4.907-4.55-8.407-5.122c-3.53-0.597-6.746,0.105-9.646,2.084C8.278,54.872,6.56,57.578,5.982,60.987"/>
		<path fill="#1F1A1A" d="M57.074,60.455c-0.703-1.351-1.783-2.258-3.24-2.738c-1.473-0.487-2.893-0.401-4.27,0.248
			c-1.383,0.662-2.301,1.691-2.778,3.1c-0.476,1.405-0.366,2.774,0.329,4.123c0.701,1.349,1.779,2.257,3.24,2.74
			c1.461,0.482,2.873,0.396,4.252-0.253c1.379-0.653,2.299-1.686,2.776-3.102C57.867,63.167,57.769,61.8,57.074,60.455"/>
		<path fill="#1F1A1A" d="M26.437,60.472c-0.704-1.351-1.783-2.254-3.243-2.735c-1.47-0.485-2.89-0.402-4.268,0.25
			c-1.383,0.66-2.302,1.689-2.779,3.095c-0.476,1.411-0.365,2.778,0.327,4.124c0.706,1.352,1.786,2.259,3.244,2.74
			c1.458,0.482,2.872,0.396,4.251-0.257c1.381-0.648,2.297-1.678,2.774-3.099C27.231,63.188,27.128,61.818,26.437,60.472"/>
		<path fill="#C06513" d="M54.191,42.353c-0.516-0.866-1.408-1.03-2.665-0.483c-4.909,2.221-9.519,4.731-13.827,7.508
			c-0.881,0.571-1.553,0.695-2.032,0.368c-5.866-3.89-9.857-6.334-11.998-7.343c-2.178-1.029-3.7-1.173-4.568-0.412
			c-0.881,0.736-1.191,1.67-0.915,2.835c-8.11,0.313-14.153,1.711-18.144,4.173c-3.967,2.438-6.045,4.143-6.236,5.128
			c-0.208,0.964,1.214,1.418,4.271,1.353c-2.605,2.04-4.715,4.509-6.312,7.415c-0.783,1.411-1.129,2.509-1.04,3.298
			c0.012,0.102,0.039,0.199,0.068,0.312c0.015,0.063,0.04,0.111,0.054,0.163c0.039,0.086,0.104,0.15,0.17,0.213
			c0.168,0.163,0.366,0.289,0.583,0.4c0.274,0.141,0.574,0.241,0.872,0.314c0.232,0.089,0.476,0.153,0.724,0.216
			c4.512,0.974,8.973,0.762,13.353-0.65c0.122-4.235,1.314-7.656,3.591-10.288c2.244-2.629,5.008-3.557,8.254-2.76
			c2.548,0.617,4.764,1.448,6.634,2.49l2.808,1.77c1.793,1.165,3.302,1.994,4.506,2.486c1.193,0.488,2.651,0.722,4.38,0.7
			c1.752-0.011,3.668-0.567,5.753-1.671c2.089-1.119,3.638-1.95,4.649-2.5c1.168-0.609,2.42-1.191,3.768-1.727
			c1.658-0.617,3.301-1.026,4.926-1.21c2.611-0.295,4.693,0.101,6.244,1.19c0.766,0.541,1.404,1.269,1.926,2.183
			c0.537,0.91,0.977,1.865,1.336,2.852c0.645,1.888,0.814,4.062,0.496,6.5c4.674,1.426,9.668,1.812,14.984,1.152
			c1.572-0.173,2.413-0.716,2.529-1.653c0.182-0.998-0.428-2.392-1.807-4.156c-2.045-2.641-4.162-4.859-6.352-6.628
			c0.751,0.116,1.625,0.03,2.641-0.243c2.248-0.628,2.312-1.716,0.164-3.259c-8.004-5.619-15.631-8.204-22.859-7.748
			C54.971,43.878,54.662,43.116,54.191,42.353"/>
	</g>
</g>
<g id="レイヤー_3">
</g>
<g id="レイヤー_2">
	<g>
		
			<path fill="none" stroke="#245E27" stroke-width="1.9958" stroke-linecap="round" stroke-linejoin="round" stroke-miterlimit="10" d="
			M96.766,111.927c-5.033-11.257-6.68-25.629-4.93-43.096l-43.324,0.815c1.888,18.515-0.639,33.638-7.551,45.343
			c-0.018,0.011-0.043,0.035-0.059,0.074c-0.617,0.882-1.199,1.805-1.729,2.751c-4.224,7.144-6.573,15.321-7.061,24.525
			c-0.663,12.644,72.373,14.385,73.037,1.738c0.312-5.915-0.188-11.438-1.487-16.57c-0.685-2.612-1.595-5.064-2.759-7.349
			c-1.399-2.739-2.765-5.481-4.115-8.206L96.766,111.927z"/>
		<path fill="#9EC94C" d="M95.584,112.505c-0.037-0.051-0.072-0.103-0.098-0.166c-4.994-11.155-6.69-25.316-5.102-42.488
			L49.34,70.622c1.7,18.261-0.906,33.216-7.792,44.849c-0.04,0.039-0.067,0.087-0.097,0.138c-0.602,0.844-1.17,1.741-1.686,2.666
			l-0.001,0.022c-4.147,7.012-6.455,15.038-6.929,24.071c-0.651,12.394,70.307,14.082,70.961,1.688
			c0.307-5.815-0.178-11.239-1.458-16.286c-0.655-2.548-1.56-4.927-2.688-7.158l-0.001,0.015
			C98.275,117.908,96.912,115.194,95.584,112.505"/>
	</g>
	<g>
		<path fill="#9EC94C" d="M115.049,26.75c2.307-0.218,3.973-0.99,4.998-2.323c-2.314-0.316-4.814-1.572-7.527-3.771
			c-6.725-7.627-16.972-12.092-30.744-13.389c0.369-1.451,1.371-2.699,3.005-3.73c-3.631-0.697-7.814-0.396-12.585,0.9
			c-1.129-0.574-1.182-1.701-0.161-3.36c-4.727,0.124-9.202,2.06-13.396,5.786C52.991,4.936,47.22,4.37,41.336,5.153
			c2.722,0.867,4.45,2.086,5.181,3.662C38.164,9.94,30.284,13.706,22.86,20.11c-2.715,2.34-5.343,3.681-7.877,4.023
			c1.063,1.342,2.748,2.117,5.061,2.35c-5.079,7.049-9.322,10.912-12.718,11.586c1.217,1.381,3.125,2.135,5.705,2.266
			c-0.513,1.234-1.197,2.384-2.058,3.418c-0.42,0.512-0.879,0.986-1.375,1.448c-1.058,0.971-2.285,1.842-3.705,2.6
			c-1.294,0.711-2.744,1.329-4.335,1.875c1.539,2.429,4.865,3.364,9.979,2.817c-0.768,1.383-1.355,2.832-1.776,4.33
			c-0.379,1.348-0.542,2.721-0.484,4.119c0.038,1.365,0.305,2.678,0.784,3.938c0.467,1.227,1.166,2.455,2.073,3.68
			c0.834-1.221,1.8-2.229,2.898-3.039c0.417,1.289,0.885,2.527,1.415,3.74c0.188,0.426,0.387,0.852,0.587,1.275
			c3.469,7.207,9.049,12.896,16.723,17.053c-0.054-1.137,0.164-2.209,0.655-3.23c5.679,5.447,12.817,8.992,21.438,10.605
			c-0.104-1.182,0.19-2.262,0.86-3.271c0.522,0.59,1.086,1.164,1.699,1.701c0.588,0.492,1.209,0.965,1.859,1.422
			c0.692,0.512,1.42,0.951,2.171,1.34c0.859,0.439,1.767,0.814,2.712,1.146c0.488,0.162,0.995,0.289,1.514,0.375
			c0.931,0.18,1.873,0.246,2.827,0.199c0.812-0.062,1.583-0.225,2.312-0.494c0.834-0.311,1.615-0.646,2.357-1.031
			c0.785-0.361,1.489-0.799,2.139-1.305c0.665-0.488,1.326-0.998,1.979-1.521c0.659-0.512,1.264-1.107,1.795-1.77
			c0.697,1.016,1.019,2.102,0.944,3.275c8.58-1.562,15.627-5.064,21.164-10.486c0.519,1.025,0.763,2.104,0.74,3.242
			c9.09-4.939,15.094-12.098,18.002-21.473c1.223,0.566,2.354,1.494,3.402,2.785c3.205-5.254,3.174-10.676-0.095-16.295
			c5.124,0.578,8.43-0.34,9.903-2.758c-1.605-0.552-3.056-1.186-4.368-1.9c-1.44-0.767-2.703-1.644-3.788-2.621
			c-0.508-0.463-0.979-0.939-1.411-1.451c-0.891-1.041-1.602-2.192-2.145-3.435c2.578-0.114,4.465-0.858,5.644-2.231
			C124.655,37.71,120.312,33.823,115.049,26.75"/>
		<path fill="none" stroke="#245E27" stroke-width="2.0479" stroke-linecap="round" stroke-miterlimit="10" d="M115.049,26.75
			c5.264,7.073,9.604,10.961,13.021,11.655c-1.179,1.373-3.064,2.117-5.644,2.231c0.543,1.241,1.254,2.394,2.146,3.435
			c0.432,0.512,0.902,0.988,1.41,1.451c1.085,0.979,2.348,1.854,3.788,2.621c1.312,0.715,2.763,1.35,4.368,1.9
			c-1.475,2.418-4.779,3.336-9.903,2.758c3.269,5.619,3.3,11.041,0.095,16.295c-1.049-1.291-2.181-2.219-3.402-2.785
			c-2.908,9.375-8.912,16.533-18.002,21.471c0.021-1.139-0.223-2.215-0.74-3.24c-5.537,5.422-12.584,8.924-21.164,10.486
			c0.073-1.176-0.247-2.262-0.944-3.275c-0.531,0.662-1.136,1.26-1.795,1.77c-0.652,0.521-1.313,1.031-1.979,1.521
			c-0.648,0.506-1.354,0.941-2.139,1.305c-0.742,0.385-1.523,0.723-2.357,1.031c-0.729,0.27-1.502,0.432-2.312,0.494
			c-0.954,0.047-1.896-0.021-2.827-0.199c-0.519-0.086-1.024-0.213-1.514-0.375c-0.945-0.332-1.854-0.707-2.712-1.146
			c-0.751-0.389-1.479-0.828-2.171-1.34c-0.65-0.457-1.271-0.93-1.859-1.422c-0.613-0.537-1.177-1.111-1.699-1.701
			c-0.67,1.01-0.964,2.092-0.86,3.271c-8.619-1.611-15.759-5.156-21.438-10.605c-0.492,1.021-0.709,2.096-0.655,3.23
			c-7.674-4.156-13.254-9.846-16.723-17.053c-0.201-0.424-0.399-0.85-0.587-1.275c-0.529-1.213-0.998-2.451-1.415-3.74
			c-1.099,0.812-2.064,1.818-2.898,3.039c-0.907-1.225-1.606-2.453-2.073-3.68c-0.479-1.26-0.746-2.572-0.784-3.938
			c-0.058-1.398,0.105-2.771,0.484-4.119c0.421-1.498,1.009-2.947,1.776-4.33c-5.113,0.547-8.439-0.389-9.979-2.817
			c1.591-0.546,3.041-1.164,4.335-1.875c1.42-0.758,2.646-1.629,3.705-2.601c0.497-0.461,0.956-0.937,1.375-1.447
			c0.859-1.034,1.544-2.184,2.058-3.418c-2.58-0.131-4.487-0.885-5.705-2.266c3.396-0.674,7.639-4.537,12.718-11.586
			c-2.312-0.231-3.997-1.008-5.061-2.35c2.534-0.344,5.162-1.686,7.877-4.023c7.424-6.404,15.305-10.17,23.656-11.295
			c-0.73-1.576-2.459-2.795-5.181-3.662C47.221,4.366,52.992,4.934,58.64,6.86c4.193-3.728,8.669-5.662,13.396-5.787
			c-1.021,1.66-0.968,2.787,0.162,3.361c4.77-1.297,8.953-1.599,12.584-0.9c-1.634,1.031-2.636,2.279-3.005,3.729
			c13.772,1.298,24.021,5.763,30.744,13.39c2.713,2.199,5.213,3.453,7.527,3.771C119.021,25.759,117.355,26.532,115.049,26.75z"/>
		<path fill="#D8382A" d="M88.024,57.153c-0.035,0.014-0.064,0.012-0.089,0.012l0.088,0.012
			C88.025,57.165,88.025,57.165,88.024,57.153"/>
		<path fill="#1F1A1A" d="M87.936,57.165c-0.467,3.012-2.301,5.605-5.52,7.783c-3.849,2.646-8.5,3.936-13.967,3.883
			c-5.483-0.041-10.192-1.4-14.134-4.088c-2.85-1.943-4.686-4.16-5.503-6.66c-0.064-0.016-0.142-0.014-0.204-0.027
			c-7.618-0.721-15.346-1.943-23.181-3.652c8.918,10.688,18.159,17.109,27.715,19.264c9.559,2.135,19.832,2.139,30.802-0.02
			c11.923-2.314,21.228-9.625,27.892-21.914c-7.799,2.439-15.74,4.242-23.812,5.42c0.001,0.014,0.001,0.014-0.001,0.023
			L87.936,57.165z"/>
		<path fill="#D8382A" d="M82.416,64.948c3.219-2.178,5.053-4.771,5.52-7.783c-12.701,1.852-25.733,2.154-39.123,0.918
			c0.817,2.5,2.653,4.717,5.503,6.66c3.94,2.688,8.649,4.047,14.134,4.088C73.916,68.883,78.568,67.596,82.416,64.948"/>
		
			<path fill="none" stroke="#1F1A1A" stroke-width="0.0125" stroke-linecap="round" stroke-linejoin="round" stroke-miterlimit="10" d="
			M88.024,57.153c8.071-1.178,16.014-2.98,23.812-5.42c-6.664,12.289-15.969,19.598-27.891,21.914
			c-10.972,2.156-21.245,2.152-30.807,0.016c-9.552-2.15-18.793-8.574-27.711-19.26c7.835,1.709,15.562,2.932,23.181,3.652"/>
		
			<path fill="none" stroke="#D8382A" stroke-width="0.0125" stroke-linecap="round" stroke-linejoin="round" stroke-miterlimit="10" d="
			M48.608,58.055c0.062,0.014,0.14,0.012,0.204,0.027c13.39,1.234,26.421,0.934,39.123-0.918c0.023,0,0.054,0.002,0.089-0.014
			 M48.812,58.083c0.817,2.5,2.653,4.717,5.503,6.66c3.94,2.688,8.649,4.047,14.134,4.088c5.467,0.055,10.119-1.234,13.967-3.883
			c3.219-2.178,5.053-4.771,5.52-7.783"/>
		<path fill="#FFFFFF" d="M86.434,24.664c-3.526-0.599-6.726,0.094-9.631,2.084c-2.902,1.978-4.619,4.673-5.168,8.08
			c-0.562,3.413,0.212,6.536,2.299,9.368c2.127,2.843,4.945,4.562,8.476,5.158c3.518,0.584,6.72-0.117,9.592-2.125
			c2.899-1.978,4.619-4.682,5.182-8.094c0.551-3.408-0.225-6.521-2.313-9.338C92.758,26.955,89.95,25.235,86.434,24.664"/>
		<path fill="#FFFFFF" d="M36.934,34.745c-0.56,3.396,0.216,6.513,2.316,9.353c2.111,2.845,4.932,4.566,8.461,5.159
			c3.502,0.6,6.704-0.113,9.59-2.118c2.903-1.993,4.632-4.688,5.197-8.085c0.56-3.408-0.216-6.535-2.341-9.365
			c-2.103-2.845-4.907-4.55-8.407-5.121c-3.53-0.598-6.746,0.104-9.646,2.084C39.229,28.629,37.512,31.335,36.934,34.745"/>
		<path fill="#1F1A1A" d="M88.025,34.212c-0.702-1.351-1.782-2.258-3.239-2.737c-1.474-0.488-2.894-0.402-4.271,0.247
			c-1.383,0.662-2.301,1.691-2.777,3.101c-0.477,1.404-0.366,2.773,0.328,4.123c0.701,1.349,1.779,2.257,3.24,2.74
			c1.461,0.481,2.873,0.396,4.252-0.254c1.379-0.652,2.299-1.686,2.776-3.102C88.818,36.924,88.72,35.557,88.025,34.212"/>
		<path fill="#1F1A1A" d="M57.389,34.229c-0.704-1.351-1.783-2.254-3.243-2.734c-1.47-0.485-2.89-0.402-4.268,0.25
			c-1.383,0.66-2.302,1.689-2.779,3.095c-0.476,1.411-0.365,2.778,0.327,4.124c0.706,1.352,1.786,2.259,3.244,2.74
			c1.458,0.482,2.872,0.396,4.251-0.258c1.381-0.647,2.297-1.678,2.773-3.098C58.183,36.946,58.08,35.576,57.389,34.229"/>
		<path fill="#C06513" d="M85.143,16.11c-0.516-0.866-1.408-1.03-2.665-0.483c-4.909,2.221-9.519,4.731-13.827,7.508
			c-0.881,0.571-1.553,0.695-2.031,0.368c-5.866-3.891-9.857-6.334-11.998-7.343c-2.179-1.029-3.7-1.173-4.568-0.412
			c-0.881,0.735-1.191,1.67-0.915,2.835c-8.11,0.312-14.153,1.711-18.144,4.173c-3.968,2.438-6.045,4.144-6.236,5.128
			c-0.208,0.964,1.214,1.418,4.271,1.354c-2.604,2.039-4.715,4.509-6.312,7.414c-0.783,1.412-1.129,2.51-1.04,3.299
			c0.012,0.102,0.039,0.199,0.068,0.312c0.015,0.063,0.04,0.111,0.054,0.163c0.039,0.086,0.104,0.15,0.17,0.213
			c0.168,0.163,0.366,0.289,0.583,0.4c0.274,0.141,0.574,0.24,0.872,0.314c0.232,0.088,0.476,0.152,0.724,0.215
			c4.513,0.975,8.974,0.763,13.354-0.649c0.122-4.235,1.313-7.656,3.591-10.288c2.244-2.629,5.008-3.557,8.254-2.76
			c2.548,0.617,4.764,1.447,6.634,2.49l2.809,1.77c1.793,1.165,3.302,1.994,4.506,2.486c1.192,0.488,2.65,0.722,4.38,0.699
			c1.752-0.011,3.668-0.566,5.753-1.67c2.089-1.119,3.638-1.951,4.649-2.5c1.168-0.609,2.42-1.191,3.768-1.728
			c1.658-0.617,3.301-1.026,4.926-1.21c2.611-0.295,4.693,0.102,6.244,1.189c0.767,0.541,1.404,1.27,1.926,2.184
			c0.537,0.91,0.978,1.865,1.336,2.852c0.646,1.889,0.814,4.062,0.496,6.5c4.674,1.426,9.668,1.812,14.984,1.152
			c1.572-0.173,2.413-0.716,2.529-1.652c0.182-0.998-0.429-2.393-1.808-4.156c-2.045-2.642-4.162-4.859-6.352-6.629
			c0.751,0.116,1.625,0.03,2.641-0.242c2.248-0.629,2.312-1.717,0.164-3.26c-8.004-5.619-15.631-8.203-22.858-7.748
			C85.922,17.635,85.614,16.874,85.143,16.11"/>
	</g>
</g>
</svg>
