<?xml version="1.0" encoding="utf-8"?>
<!-- Generator: Adobe Illustrator 16.0.0, SVG Export Plug-In . SVG Version: 6.00 Build 0)  -->
<!DOCTYPE svg PUBLIC "-//W3C//DTD SVG 1.1//EN" "http://www.w3.org/Graphics/SVG/1.1/DTD/svg11.dtd">
<svg version="1.1" id="レイヤー_1" xmlns="http://www.w3.org/2000/svg" xmlns:xlink="http://www.w3.org/1999/xlink" x="0px"
	 y="0px" width="130.656px" height="43.607px" viewBox="0 0 130.656 43.607" enable-background="new 0 0 130.656 43.607"
	 xml:space="preserve">
<g>
	<path fill="#C5CDE3" d="M82.707,1.738c-0.926-0.083-2.16-0.057-3.697,0.067c-3.873,0.438-7.504,0.537-10.893,0.311
		c-3.39-0.229-5.465-0.367-6.23-0.395c-0.128-0.003-0.271-0.006-0.413-0.011c-0.716-0.044-1.651-0.112-2.808-0.228
		c-5.949-0.571-9.951-0.603-12.039-0.105c-0.798,0.146-1.573,0.6-2.332,1.361c-0.119,0.121-0.225,0.24-0.319,0.357
		c-0.547,0.688-0.799,1.497-0.783,2.427c-0.184,5.44-0.062,10.569,0.37,15.407c0.027,1.092,0.444,2.009,1.272,2.771
		c0.79,0.756,1.739,1.139,2.861,1.129c1.12-0.004,2.055-0.389,2.829-1.152c0.748-0.765,1.105-1.693,1.077-2.781
		c-0.631-3.997-0.754-8.074-0.383-12.254c3.174-0.21,6.395-0.108,9.668,0.293c7.442,0.555,13.403,0.66,17.881,0.348l0.273,11.505
		c0.033,1.091,0.445,2.006,1.271,2.759c0.791,0.765,1.742,1.148,2.863,1.142c1.096-0.006,2.045-0.391,2.82-1.128
		c0.744-0.788,1.115-1.714,1.084-2.808L86.746,5.745c-0.053-1.354-0.449-2.333-1.176-2.954C84.861,2.181,83.902,1.824,82.707,1.738"
		/>
	
		<path fill="none" stroke="#737A90" stroke-width="2.0575" stroke-linecap="round" stroke-linejoin="round" stroke-miterlimit="10" d="
		M82.707,1.738c1.195,0.086,2.154,0.442,2.863,1.053c0.727,0.621,1.123,1.6,1.176,2.954l0.336,15.009
		c0.031,1.094-0.34,2.021-1.084,2.808c-0.775,0.738-1.725,1.123-2.82,1.128c-1.121,0.006-2.072-0.377-2.863-1.142
		c-0.826-0.753-1.238-1.668-1.271-2.759L78.769,9.284C74.291,9.597,68.33,9.491,60.888,8.937c-3.273-0.401-6.494-0.503-9.668-0.293
		c-0.371,4.18-0.248,8.257,0.383,12.254c0.028,1.088-0.329,2.017-1.077,2.781c-0.773,0.764-1.707,1.15-2.829,1.152
		c-1.122,0.01-2.071-0.373-2.861-1.129c-0.829-0.763-1.245-1.68-1.272-2.771c-0.432-4.838-0.554-9.967-0.37-15.407
		c-0.016-0.93,0.236-1.739,0.783-2.427c0.094-0.117,0.2-0.236,0.319-0.357c0.759-0.762,1.533-1.215,2.332-1.361
		c2.087-0.497,6.09-0.466,12.039,0.105c1.157,0.115,2.092,0.184,2.808,0.228c0.142,0.005,0.284,0.008,0.413,0.011
		c0.765,0.027,2.841,0.166,6.23,0.395c3.389,0.227,7.02,0.128,10.893-0.311C80.546,1.682,81.781,1.655,82.707,1.738z"/>
	<path fill="#AFB5D4" d="M102.074,18.642c-16.002-2.224-28.33-2.727-36.989-1.51c-13.758,1.644-23.28,2.274-28.561,1.91
		c-5.3-0.348-11.121-0.077-17.457,0.831c-6.337,0.884-11.716,1.974-16.112,3.24c-1.841,2.705-2.369,6.152-1.554,10.351
		c0.001,0.021,0.007,0.061,0.022,0.096c0.027,0.137,0.041,0.289,0.055,0.451c0.006,0.215,0.01,0.449,0.021,0.713
		c0.003,0.793-0.069,1.578-0.196,2.34c-0.259,2.213-0.066,3.836,0.578,4.891c12.694-1.885,25.081-3.355,37.172-4.447
		c5.878-0.514,10.73-0.857,14.574-1.029l10.952-0.529c11.483-0.75,19.468-0.807,23.96-0.182l19.857,2.438
		c7.088,0.918,13.951,2.377,20.615,4.375c0.572-1.143,0.746-3.025,0.52-5.637c-0.02-0.188-0.031-0.365-0.062-0.539
		c-0.084-0.834-0.156-1.523-0.219-2.08c-0.002-0.018-0.002-0.018-0.002-0.027c-0.039-0.336-0.066-0.625-0.102-0.848
		c-0.049-0.449-0.1-0.889-0.137-1.324c-0.199-1.811-0.354-3.334-0.502-4.557c-0.037-0.311-0.062-0.613-0.102-0.91
		c-0.113-0.861-0.234-1.656-0.367-2.414c-0.201-1.017-1.064-1.705-2.553-2.066C117.748,20.432,109.939,19.249,102.074,18.642"/>
	
		<path fill="none" stroke="#737A90" stroke-width="2.0575" stroke-linecap="round" stroke-linejoin="round" stroke-miterlimit="10" d="
		M102.074,18.642c7.865,0.607,15.674,1.79,23.412,3.535c1.488,0.361,2.352,1.049,2.553,2.066c0.133,0.758,0.254,1.553,0.367,2.414
		c0.039,0.297,0.064,0.6,0.102,0.91c0.148,1.223,0.303,2.746,0.502,4.557c0.037,0.436,0.088,0.875,0.137,1.324
		c0.035,0.223,0.062,0.512,0.102,0.848c0,0.01,0,0.01,0.002,0.027c0.062,0.557,0.135,1.246,0.219,2.08
		c0.031,0.174,0.043,0.352,0.062,0.539c0.227,2.611,0.053,4.494-0.52,5.637c-6.664-1.998-13.527-3.457-20.615-4.375l-19.857-2.438
		c-4.492-0.625-12.477-0.568-23.96,0.182l-10.952,0.529c-3.844,0.172-8.696,0.516-14.574,1.029
		c-12.091,1.092-24.478,2.562-37.172,4.447c-0.646-1.055-0.837-2.678-0.578-4.891c0.127-0.762,0.199-1.547,0.196-2.34
		c-0.011-0.264-0.015-0.498-0.021-0.713c-0.014-0.162-0.027-0.314-0.055-0.451c-0.015-0.035-0.021-0.074-0.022-0.096
		c-0.815-4.199-0.288-7.646,1.554-10.351c4.396-1.266,9.775-2.356,16.112-3.24c6.336-0.908,12.157-1.179,17.457-0.831
		c5.281,0.364,14.803-0.267,28.561-1.91C73.744,15.915,86.072,16.418,102.074,18.642z"/>
</g>
</svg>
