<?xml version="1.0" encoding="utf-8"?>
<!-- Generator: Adobe Illustrator 16.0.0, SVG Export Plug-In . SVG Version: 6.00 Build 0)  -->
<!DOCTYPE svg PUBLIC "-//W3C//DTD SVG 1.1//EN" "http://www.w3.org/Graphics/SVG/1.1/DTD/svg11.dtd">
<svg version="1.1" id="レイヤー_1" xmlns="http://www.w3.org/2000/svg" xmlns:xlink="http://www.w3.org/1999/xlink" x="0px"
	 y="0px" width="55.998px" height="43.626px" viewBox="0 0 55.998 43.626" enable-background="new 0 0 55.998 43.626"
	 xml:space="preserve">
<g>
	<path fill="#245E27" d="M48.948,5.381c-0.943-0.715-2.264-1.538-3.932-2.48c-0.041-0.037-0.064-0.048-0.104-0.048
		c-1.553-0.692-3.262-1.268-5.125-1.731l-0.023-0.026c-3.42-0.792-6.822-1.146-10.199-1.089c-3.472,0.059-6.695,0.642-9.686,1.737
		h0.026c-3.02,1.043-5.777,2.554-8.268,4.539v0.024c-2.474,1.958-4.627,4.23-6.483,6.791c-1.865,2.584-3.319,5.405-4.357,8.492
		c-1.08,3.186-1.06,6.412,0.038,9.674V31.24c0.604,1.85,1.627,3.051,3.074,3.601c1.049,0.451,2.344,0.519,3.884,0.207
		c0.151,1.351,0.554,2.663,1.185,3.926c1.848,3.642,4.617,5.144,8.307,4.512c3.351-0.559,5.892-2.329,7.617-5.29
		c1.086,2.401,3.078,4.042,5.974,4.91h-0.027c2.137,0.701,4.195,0.518,6.164-0.543c3.406-1.794,5.588-4.556,6.537-8.266
		c0.793-3.088,1.059-6.185,0.789-9.299c-0.012-0.249-0.039-0.502-0.078-0.749c0.193,0.15,0.375,0.29,0.57,0.425
		c0.658,0.538,1.371,0.939,2.146,1.229c0.684,0.264,1.461,0.462,2.33,0.577c0.789,0.062,1.592,0.013,2.383-0.145
		c1.279-0.312,2.238-1.087,2.902-2.298l0.023-0.023c0.508-0.914,0.859-1.862,1.068-2.849l0.025-0.026
		c0.154-0.863,0.248-1.714,0.287-2.549v-0.052c0.004-0.762-0.049-1.537-0.15-2.302v-0.023c-0.17-1.061-0.477-2.113-0.902-3.124
		v0.023c-0.4-0.998-0.891-1.938-1.5-2.825c-0.012-0.013-0.025-0.037-0.025-0.049c-0.566-0.904-1.227-1.755-1.99-2.554V7.662
		C50.657,6.822,49.827,6.069,48.948,5.381 M39.269,3.046h-0.025c1.719,0.437,3.324,0.966,4.787,1.605
		c1.551,0.863,2.766,1.641,3.646,2.303h-0.027c0.789,0.603,1.539,1.29,2.227,2.055h0.023c0.674,0.713,1.254,1.487,1.758,2.304
		l0.027,0.023c0.529,0.786,0.982,1.616,1.342,2.501c0,0.009,0.012,0.037,0.025,0.05c0.375,0.738,0.619,1.513,0.721,2.325
		c0.143,1,0.178,1.962,0.127,2.875c-0.055,0.949-0.209,1.862-0.471,2.751c-0.207,0.76-0.621,1.386-1.244,1.845
		c-0.828,0.562-1.723,0.864-2.695,0.9c-0.775-0.002-1.629-0.23-2.561-0.68c-0.932-0.465-1.59-0.865-1.965-1.177
		c-0.377-0.315-0.584-0.492-0.621-0.528c-0.658-0.551-1.744-1.774-3.256-3.68l0.797,3.676c0.461,2.103,0.629,4.242,0.506,6.425
		c-0.117,2.189-0.547,4.287-1.275,6.299c-0.795,2.161-2.152,3.909-4.074,5.221c-0.32,0.211-0.646,0.436-0.957,0.648
		c-0.039,0-0.062,0.011-0.076,0.025c-1.438,0.759-2.93,0.893-4.482,0.391h-0.023c-0.865-0.263-1.615-0.613-2.277-1.025
		c-2.105-1.69-3.218-3.854-3.355-6.505c-0.065-1.449-0.036-3.4,0.112-5.849c-0.739,1.461-1.195,2.935-1.354,4.396
		c-0.193,1.45-0.43,2.539-0.729,3.273c-0.312,0.714-0.638,1.376-0.963,1.975c-0.323,0.599-0.802,1.186-1.425,1.748
		c-0.271,0.249-0.558,0.474-0.829,0.674c-0.4,0.3-0.829,0.572-1.298,0.822c-0.762,0.36-1.576,0.636-2.457,0.797
		c-1.49,0.238-2.759-0.016-3.834-0.729c-1.875-1.642-2.971-3.691-3.275-6.18c-0.271-2.19-0.243-4.363,0.084-6.55
		c0.013-0.149,0.039-0.288,0.054-0.426c0.103-0.561,0.261-1.285,0.468-2.173l-1.4,2.049c-0.686,1.285-1.092,2.481-1.196,3.597
		c-0.104,1.1-0.159,1.739-0.159,1.925c-0.05,0.011-0.091,0.038-0.129,0.049c-1.592,0.511-2.937,0.184-4.036-1.004l-0.233-0.376
		c-0.191-0.312-0.348-0.663-0.461-1.052c-0.969-2.851-0.98-5.663-0.045-8.423c0.975-2.898,2.341-5.558,4.104-7.971
		c1.752-2.436,3.772-4.568,6.092-6.417c2.295-1.844,4.846-3.252,7.645-4.215c2.785-1.006,5.788-1.55,9.011-1.61
		C32.825,1.95,36.048,2.288,39.269,3.046"/>
	<path fill="#9EC94C" d="M39.243,3.046h0.025c-3.221-0.758-6.443-1.096-9.656-1.041c-3.223,0.061-6.226,0.604-9.011,1.61
		c-2.799,0.963-5.35,2.372-7.645,4.215c-2.32,1.849-4.34,3.981-6.092,6.417c-1.763,2.413-3.129,5.072-4.104,7.971
		c-0.936,2.76-0.924,5.572,0.045,8.423c0.113,0.389,0.269,0.74,0.461,1.052l0.233,0.376c1.1,1.188,2.444,1.515,4.036,1.004
		c0.038-0.011,0.078-0.038,0.129-0.049c0-0.186,0.055-0.825,0.159-1.925c0.104-1.115,0.511-2.312,1.196-3.597l1.4-2.049
		c-0.208,0.888-0.365,1.612-0.468,2.173c-0.015,0.138-0.041,0.276-0.054,0.426c-0.327,2.187-0.355,4.359-0.084,6.55
		c0.305,2.488,1.4,4.538,3.275,6.18c1.075,0.713,2.344,0.967,3.834,0.729c0.881-0.161,1.695-0.437,2.457-0.797
		c0.469-0.25,0.897-0.522,1.298-0.822c0.271-0.2,0.559-0.425,0.829-0.674c0.621-0.562,1.102-1.149,1.425-1.748
		s0.649-1.261,0.963-1.975c0.3-0.734,0.532-1.823,0.729-3.273c0.158-1.462,0.614-2.936,1.354-4.396
		c-0.148,2.448-0.177,4.399-0.112,5.849c0.138,2.65,1.25,4.814,3.355,6.505c0.662,0.412,1.41,0.763,2.277,1.025h0.023
		c1.553,0.502,3.045,0.368,4.482-0.391c0.012-0.015,0.037-0.025,0.076-0.025c0.311-0.213,0.635-0.438,0.957-0.648
		c1.922-1.312,3.279-3.06,4.074-5.221c0.729-2.012,1.158-4.109,1.275-6.299c0.121-2.183-0.045-4.322-0.506-6.425l-0.797-3.676
		c1.51,1.905,2.598,3.129,3.256,3.68c0.037,0.036,0.244,0.213,0.621,0.528c0.375,0.312,1.033,0.712,1.965,1.177
		c0.932,0.449,1.785,0.678,2.561,0.68c0.973-0.036,1.867-0.338,2.695-0.9c0.623-0.459,1.037-1.085,1.244-1.845
		c0.262-0.889,0.416-1.802,0.471-2.751c0.051-0.913,0.014-1.875-0.127-2.875c-0.102-0.812-0.346-1.587-0.721-2.325
		c-0.014-0.013-0.025-0.041-0.025-0.05c-0.359-0.885-0.812-1.715-1.342-2.501l-0.027-0.023c-0.504-0.816-1.086-1.591-1.758-2.304
		h-0.023c-0.688-0.765-1.438-1.452-2.227-2.055h0.027c-0.881-0.662-2.096-1.439-3.646-2.303C42.567,4.012,40.962,3.482,39.243,3.046
		"/>
</g>
</svg>
