<?xml version="1.0" encoding="utf-8"?>
<!-- Generator: Adobe Illustrator 16.0.0, SVG Export Plug-In . SVG Version: 6.00 Build 0)  -->
<!DOCTYPE svg PUBLIC "-//W3C//DTD SVG 1.1//EN" "http://www.w3.org/Graphics/SVG/1.1/DTD/svg11.dtd">
<svg version="1.1" id="レイヤー_1" xmlns="http://www.w3.org/2000/svg" xmlns:xlink="http://www.w3.org/1999/xlink" x="0px"
	 y="0px" width="69.105px" height="96.492px" viewBox="0 0 69.105 96.492" enable-background="new 0 0 69.105 96.492"
	 xml:space="preserve">
<g>
	<path fill="#245E27" d="M50.22,0.021c-2.758,0.1-5.76,2.016-9.031,5.765c-0.035,0.022-0.051,0.053-0.068,0.083
		c-2.469,3.539-4.279,6.787-5.43,9.761c-3.836-0.797-6.703,0.082-8.609,2.655c-1.971,2.489-2.898,6.75-2.789,12.802
		c-1.484,11.33-9.518,27.458-24.109,48.373c-0.148,0.181-0.207,0.394-0.174,0.633c0.014,0.228,0.102,0.427,0.26,0.602l14.637,15.487
		c0.133,0.131,0.281,0.221,0.475,0.27c0.176,0.054,0.363,0.054,0.553,0.014c0.182-0.035,0.34-0.134,0.475-0.262
		c19.709-19.292,36.006-38.16,48.861-56.611c0.186-0.145,0.363-0.271,0.551-0.414c0.008-0.014,0.02-0.021,0.029-0.034
		c2.248-1.967,3.334-4.128,3.252-6.499c-0.006-0.024-0.012-0.048-0.004-0.063c-0.264-2.944-1.594-4.947-3.998-6.016
		c-1.326-0.604-2.598-0.988-3.814-1.139c0.527-2.408,0.023-4.398-1.514-5.986c-1.326-1.409-3.074-2.246-5.25-2.506
		c2.322-5.354,2.971-9.424,1.963-12.194C55.326,1.372,53.238-0.2,50.22,0.021 M50.337,2.015l0.012-0.002
		c1.982-0.072,3.383,1.042,4.172,3.354c0.826,2.576,0.068,6.428-2.25,11.559c-2.084,0.366-3.785,1.425-5.125,3.19
		c-1.385,1.805-2.246,4.044-2.574,6.711c-0.375,2.87,0.264,4.993,1.893,6.346c1.58,1.362,3.365,1.969,5.355,1.829l0.012,0.006
		c0.039-0.01,0.08-0.006,0.123-0.004c-0.164,2.644,0.379,4.545,1.641,5.685c1.385,1.471,3.705,1.861,6.986,1.176
		c0.025-0.006,0.049-0.013,0.088-0.024c0.211-0.059,0.432-0.132,0.637-0.203c-12.252,17.097-27.447,34.571-45.6,52.408L2.351,79.918
		c14.584-20.991,22.578-37.21,24.002-48.644c-0.002-0.05-0.004-0.103-0.002-0.142c-0.104-5.495,0.695-9.383,2.393-11.66
		c1.582-1.992,3.99-2.574,7.219-1.726C38.3,18.9,39.755,20.6,40.316,22.87c0.578,2.373,0.52,4.508-0.162,6.401l0.012-0.001
		l0.004,0.009c-0.672,1.762-1.674,2.949-3.002,3.583c-1.225,0.55-2.344,0.486-3.383-0.196c-1.111-0.77-2.52-2.377-4.24-4.831
		c-0.119,0.087-0.189,0.262-0.193,0.508c-0.02,0.255,0.178,0.992,0.562,2.249c0.391,1.251,1.291,2.497,2.699,3.728
		c1.662,1.105,3.471,1.227,5.43,0.352c1.834-0.81,3.189-2.387,4.061-4.725c0.84-2.223,0.92-4.739,0.227-7.534
		c-0.639-2.614-2.201-4.646-4.711-6.061c1.096-2.84,2.832-5.942,5.166-9.312C45.568,3.872,48.076,2.196,50.337,2.015 M46.625,27.072
		c0.287-2.302,1.02-4.225,2.193-5.775c1.09-1.435,2.512-2.262,4.268-2.47l0.012-0.004l0.012-0.003
		c2.191,0.038,3.91,0.69,5.139,1.969c1.146,1.252,1.441,2.857,0.857,4.815c-0.016,0.003-0.016,0.003-0.01,0.016
		c-0.039,0.101-0.072,0.215-0.104,0.325c-0.023,0.022-0.027,0.048-0.031,0.077l0.004,0.01l-0.004,0.029
		c-0.016,0.004-0.012,0.015-0.006,0.025c-0.012,0.019-0.012,0.019-0.02,0.032l0.006,0.015c-0.672,1.928-1.676,3.521-2.992,4.784
		l-0.014,0.007c-0.984,0.924-1.998,1.542-3.031,1.861c-0.066,0.004-0.117,0.018-0.162,0.046c-0.361,0.088-0.711,0.146-1.064,0.18
		c-1.428,0.089-2.705-0.359-3.832-1.333C46.767,30.684,46.359,29.147,46.625,27.072 M55.072,39.288
		c-0.895-0.959-1.223-2.545-1.004-4.777c1.137-0.437,2.24-1.143,3.32-2.162c1.414-1.332,2.506-2.99,3.283-4.974
		c1.119,0.091,2.293,0.423,3.545,0.996c1.676,0.79,2.605,2.231,2.816,4.317c0.014,1.792-0.824,3.44-2.541,4.948
		c-0.186,0.144-0.363,0.27-0.531,0.409c-0.059,0.029-0.107,0.057-0.145,0.105c-1.105,0.764-2.332,1.341-3.674,1.754
		c-0.014,0.006-0.014,0.006-0.025,0.008C57.775,40.401,56.08,40.186,55.072,39.288"/>
	<path fill="#9EC94C" d="M50.349,2.013l-0.012,0.002c-2.262,0.182-4.77,1.857-7.553,5.025c-2.334,3.369-4.07,6.472-5.166,9.312
		c2.51,1.415,4.072,3.446,4.711,6.061c0.693,2.795,0.613,5.312-0.227,7.534c-0.871,2.338-2.229,3.915-4.061,4.725
		c-1.959,0.875-3.768,0.754-5.43-0.352c-1.408-1.23-2.309-2.477-2.699-3.728c-0.385-1.257-0.582-1.994-0.562-2.249
		c0.004-0.246,0.074-0.421,0.197-0.508c1.717,2.454,3.127,4.062,4.236,4.831c1.039,0.683,2.158,0.746,3.383,0.196
		c1.328-0.634,2.33-1.821,3.002-3.583l-0.016-0.008c0.682-1.894,0.74-4.028,0.162-6.401c-0.561-2.271-2.016-3.97-4.354-5.123
		c-3.227-0.849-5.637-0.267-7.219,1.726c-1.697,2.277-2.496,6.165-2.393,11.66c-0.002,0.039,0,0.092,0.002,0.142
		c-1.424,11.434-9.418,27.652-24.002,48.644l13.355,14.126c18.152-17.837,33.348-35.312,45.6-52.408
		c-0.205,0.071-0.426,0.145-0.637,0.201c-0.039,0.014-0.062,0.021-0.088,0.026c-3.281,0.686-5.602,0.295-6.986-1.176
		c-1.262-1.14-1.805-3.041-1.641-5.685c-0.043-0.002-0.084-0.006-0.123,0.004l-0.012-0.006c-1.99,0.14-3.775-0.467-5.355-1.829
		c-1.629-1.353-2.268-3.476-1.893-6.346c0.328-2.667,1.189-4.906,2.574-6.711c1.34-1.766,3.041-2.824,5.125-3.19
		c2.318-5.131,3.076-8.982,2.25-11.559C53.732,3.055,52.332,1.94,50.349,2.013"/>
	<path fill="#9EC94C" d="M48.818,21.297c-1.174,1.551-1.902,3.474-2.193,5.775c-0.266,2.075,0.143,3.611,1.221,4.606
		c1.127,0.974,2.404,1.422,3.832,1.333c0.354-0.034,0.703-0.092,1.064-0.18c0.045-0.028,0.096-0.042,0.162-0.046
		c1.033-0.319,2.047-0.938,3.031-1.861l0.016-0.007c1.314-1.263,2.318-2.856,2.99-4.784l-0.006-0.015
		c0.008-0.014,0.008-0.014,0.02-0.032c-0.006-0.011-0.01-0.021,0.006-0.025l0.004-0.029l-0.004-0.01
		c0.004-0.029,0.01-0.055,0.031-0.077c0.031-0.11,0.064-0.225,0.104-0.325c-0.006-0.013-0.006-0.013,0.01-0.016
		c0.584-1.958,0.289-3.563-0.857-4.815c-1.229-1.278-2.947-1.931-5.139-1.969l-0.012,0.003l-0.012,0.004
		C51.33,19.035,49.908,19.862,48.818,21.297"/>
	<path fill="#9EC94C" d="M54.068,34.511c-0.219,2.233,0.109,3.818,1.004,4.777c1.008,0.897,2.703,1.113,5.047,0.625
		c0.01-0.002,0.01-0.002,0.023-0.008c1.342-0.413,2.568-0.99,3.674-1.754c0.037-0.049,0.086-0.076,0.145-0.105
		c0.17-0.14,0.346-0.266,0.531-0.409c1.717-1.508,2.555-3.156,2.539-4.948c-0.209-2.086-1.139-3.527-2.814-4.317
		c-1.252-0.573-2.426-0.905-3.545-0.996c-0.777,1.983-1.867,3.642-3.283,4.974C56.308,33.368,55.205,34.074,54.068,34.511"/>
</g>
</svg>
