<?xml version="1.0" encoding="utf-8"?>
<!-- Generator: Adobe Illustrator 16.0.0, SVG Export Plug-In . SVG Version: 6.00 Build 0)  -->
<!DOCTYPE svg PUBLIC "-//W3C//DTD SVG 1.1//EN" "http://www.w3.org/Graphics/SVG/1.1/DTD/svg11.dtd">
<svg version="1.1" id="レイヤー_1" xmlns="http://www.w3.org/2000/svg" xmlns:xlink="http://www.w3.org/1999/xlink" x="0px"
	 y="0px" width="75.213px" height="121.977px" viewBox="0 0 75.213 121.977" enable-background="new 0 0 75.213 121.977"
	 xml:space="preserve">
<g>
	<path fill="#245E27" d="M65.764,44.12l-0.024-0.026c-5.032-11.257-6.68-25.629-4.929-43.096L17.486,1.813
		c1.888,18.515-0.638,33.638-7.551,45.343c-0.018,0.012-0.043,0.035-0.058,0.074c-0.617,0.882-1.199,1.805-1.729,2.751
		c-4.224,7.144-6.573,15.321-7.061,24.525C0.425,87.15,3.45,98.012,10.183,107.102c6.644,8.99,14.984,13.613,25.04,13.868
		c10.026,0.228,18.847-3.992,26.435-12.642c7.645-8.747,11.803-19.437,12.468-32.083c0.312-5.915-0.188-11.438-1.487-16.57
		c-0.685-2.612-1.596-5.064-2.76-7.349C68.479,49.586,67.114,46.845,65.764,44.12"/>
	
		<path fill="none" stroke="#245E27" stroke-width="1.9958" stroke-linecap="round" stroke-linejoin="round" stroke-miterlimit="10" d="
		M65.739,44.094c-5.032-11.257-6.68-25.629-4.929-43.096L17.486,1.813c1.888,18.515-0.638,33.638-7.551,45.343
		c-0.018,0.011-0.043,0.035-0.058,0.074c-0.617,0.882-1.199,1.805-1.729,2.751c-4.224,7.144-6.573,15.321-7.061,24.525
		C0.425,87.15,3.45,98.012,10.183,107.102c6.644,8.99,14.984,13.613,25.04,13.868c10.026,0.228,18.847-3.992,26.435-12.642
		c7.645-8.747,11.803-19.437,12.468-32.083c0.312-5.915-0.188-11.438-1.487-16.57c-0.686-2.612-1.596-5.064-2.76-7.349
		c-1.398-2.739-2.764-5.481-4.114-8.206L65.739,44.094z"/>
	<path fill="#9EC94C" d="M64.877,44.672c-0.038-0.051-0.073-0.103-0.098-0.166c-4.994-11.155-6.69-25.316-5.102-42.488L18.632,2.788
		c1.7,18.261-0.906,33.216-7.792,44.849c-0.04,0.039-0.067,0.087-0.097,0.138c-0.602,0.844-1.17,1.741-1.685,2.666l-0.001,0.022
		C4.91,57.475,2.603,65.501,2.128,74.534c-0.651,12.394,2.319,23.054,8.902,31.977l0.016,0.001
		c6.438,8.708,14.512,13.192,24.228,13.461c9.718,0.191,18.247-3.896,25.596-12.261l0.001-0.013
		c7.491-8.588,11.564-19.083,12.218-31.478c0.307-5.815-0.178-11.239-1.457-16.286c-0.656-2.548-1.56-4.927-2.689-7.158v0.015
		C67.567,50.074,66.204,47.36,64.877,44.672"/>
</g>
</svg>
